<svg xmlns="http://www.w3.org/2000/svg" width="32" height="32" viewBox="0 0 32 32">
  <g id="Customer_Support" data-name="Customer Support" transform="translate(-82 -605)">
    <rect id="Rectangle_2388" data-name="Rectangle 2388" width="32" height="31.8" transform="translate(82 605)" fill="none"/>
    <g id="Group_9119" data-name="Group 9119" transform="translate(82 605.199)">
      <path id="Path_18019" data-name="Path 18019" d="M15.9,0A15.919,15.919,0,0,0,0,15.9v6.588a3.076,3.076,0,0,0,3.18,2.953H4.77a1.59,1.59,0,0,0,1.59-1.59V15.673a1.59,1.59,0,0,0-1.59-1.59H3.326a12.7,12.7,0,0,1,25.148,0H27.031a1.59,1.59,0,0,0-1.59,1.59v9.768h3.18s3.18-1.325,3.18-2.953V15.9A15.919,15.919,0,0,0,15.9,0Z" transform="translate(0 0)" fill="#85e6c4"/>
      <path id="Path_18020" data-name="Path 18020" d="M24.421,23.4s-1.426,3.18-3.18,3.18h-3.18v-1.59H11.7v4.77h9.54c3.508,0,6.36-6.36,6.36-6.36Z" transform="translate(1.02 2.039)" fill="#6d44e5"/>
    </g>
  </g>
</svg>
