<svg xmlns="http://www.w3.org/2000/svg" width="32" height="32" viewBox="0 0 32 32">
  <g id="protection" transform="translate(-248 -211)">
    <g id="Group_8516" data-name="Group 8516" transform="translate(250 211)">
      <path id="Path_15141" data-name="Path 15141" d="M14.633,0A27.227,27.227,0,0,0,8.777,1.12C6.557,1.72,4.319,2.43,3,2.86A3.08,3.08,0,0,0,.915,5.384c-1.192,8.954,1.574,15.59,4.93,19.98a23.554,23.554,0,0,0,5.034,4.906,14.177,14.177,0,0,0,2.1,1.25,4.242,4.242,0,0,0,1.658.48,4.251,4.251,0,0,0,1.658-.48,14.309,14.309,0,0,0,2.1-1.25,23.548,23.548,0,0,0,5.034-4.906c3.356-4.39,6.122-11.026,4.93-19.98a3.082,3.082,0,0,0-2.088-2.526q-2.866-.94-5.774-1.74A27.454,27.454,0,0,0,14.633,0Zm0,10a3,3,0,0,1,1,5.83l.77,3.98A1,1,0,0,1,15.421,21H13.845a1,1,0,0,1-.98-1.19l.768-3.98a3,3,0,0,1,1-5.83Z" transform="translate(-0.633)" fill="#85e6c4" fill-rule="evenodd"/>
      <path id="Intersection_14" data-name="Intersection 14" d="M0,21H.787a1.042,1.042,0,0,0,.427-.094.992.992,0,0,0,.345-.269,1,1,0,0,0,.211-.828L1,15.831a3,3,0,0,0,1.592-1.311,3,3,0,0,0,.371-2.028,3,3,0,0,0-1.026-1.787A3,3,0,0,0,0,10V0A27.455,27.455,0,0,1,5.854,1.119q2.908.8,5.775,1.739a3.08,3.08,0,0,1,2.087,2.526A31.6,31.6,0,0,1,14,9.371v.346A25.611,25.611,0,0,1,8.786,25.363a23.53,23.53,0,0,1-5.034,4.907A14.22,14.22,0,0,1,1.658,31.52,4.249,4.249,0,0,1,0,32Z" transform="translate(13.999)" fill="#6d44e5"/>
    </g>
    <rect id="Rectangle_2408" data-name="Rectangle 2408" width="32" height="32" transform="translate(248 211)" fill="none"/>
  </g>
</svg>
