<svg xmlns="http://www.w3.org/2000/svg" width="32" height="32" viewBox="0 0 32 32">
  <g id="Log_In-Arrow-Arrows-Direction-User_Interface" data-name="Log In-Arrow-Arrows-Direction-User Interface" transform="translate(-3 -3)">
    <path id="Path_27128" data-name="Path 27128" d="M3,27.828V31.69A3.31,3.31,0,0,0,6.31,35H31.69A3.31,3.31,0,0,0,35,31.69V6.31A3.31,3.31,0,0,0,31.69,3H6.31A3.31,3.31,0,0,0,3,6.31v3.862a1.655,1.655,0,1,0,3.31,0V6.862a.552.552,0,0,1,.552-.552H31.138a.552.552,0,0,1,.552.552V31.138a.552.552,0,0,1-.552.552H6.862a.552.552,0,0,1-.552-.552v-3.31a1.655,1.655,0,1,0-3.31,0Z" transform="translate(0 0)" fill="#85e6c4"/>
    <path id="Path_27130" data-name="Path 27130" d="M23.9,24.752a.913.913,0,0,1,0,1.293l-4.539,4.539a1.376,1.376,0,0,1-1.949-1.944l1.866-1.866H4.375a1.375,1.375,0,0,1,0-2.751H19.281l-1.866-1.866a1.376,1.376,0,0,1,1.949-1.944Z" transform="translate(0 -6.398)" fill="#6d44e5"/>
    <path id="Path_27131" data-name="Path 27131" d="M24.173,32a.914.914,0,0,1-.271.646l-4.539,4.539a1.376,1.376,0,0,1-1.949-1.944l1.866-1.866H4.375A1.375,1.375,0,0,1,3,32Z" transform="translate(0 -12.28)" fill="#6d44e5"/>
    <path id="Path_27132" data-name="Path 27132" d="M35.083,32.308a2.775,2.775,0,0,1-2.775,2.775H6.775A2.775,2.775,0,0,1,4,32.308V28.422a1.11,1.11,0,0,1,2.22,0v3.33a1.113,1.113,0,0,0,1.11,1.11H31.753a1.113,1.113,0,0,0,1.11-1.11V7.33a1.113,1.113,0,0,0-1.11-1.11H7.33A1.113,1.113,0,0,0,6.22,7.33v3.33a1.11,1.11,0,0,1-2.22,0V6.775A2.775,2.775,0,0,1,6.775,4H32.308a2.775,2.775,0,0,1,2.775,2.775Z" transform="translate(-0.542 -0.542)" fill="#85e6c4"/>
  </g>
</svg>
