<svg xmlns="http://www.w3.org/2000/svg" width="37.639" height="32" viewBox="0 0 37.639 32">
  <g id="protect_1520947" transform="translate(0)">
    <path id="Path_27133" data-name="Path 27133" d="M382.574,152.121l4.113,6.272h-8.227Zm0,0" transform="translate(-349.508 -140.352)" fill="#6d44e5"/>
    <path id="Path_27134" data-name="Path 27134" d="M155.924,77.744v7.719a7.063,7.063,0,0,1-2.712,5.2l-5.424,3.752-5.424-3.752a7.082,7.082,0,0,1-2.712-5.2V77.733l8.136-4.041Zm0,0" transform="translate(-128.969 -68.054)" fill="#85e6c4"/>
    <path id="Path_27135" data-name="Path 27135" d="M14.227,180.41l-4.114,6.273L6,180.41Zm0,0" transform="translate(-5.541 -166.452)" fill="#6d44e5"/>
    <g id="Group_19920" data-name="Group 19920" transform="translate(0)">
      <path id="Path_27136" data-name="Path 27136" d="M117.083,146.328a.459.459,0,0,0-.768,0L112.2,152.6a.459.459,0,0,0,.384.711h3.509a14.443,14.443,0,0,1-4.92,9,13.761,13.761,0,0,1-8.749,3.425,13,13,0,0,1-5.959-1.537,14.815,14.815,0,0,1-5.076-4.354.459.459,0,1,0-.741.543,15.736,15.736,0,0,0,5.392,4.625,13.922,13.922,0,0,0,6.384,1.641,14.69,14.69,0,0,0,9.347-3.646,15.36,15.36,0,0,0,5.249-9.7h3.792a.459.459,0,0,0,.384-.711Zm-3.648,6.065,3.264-4.977,3.264,4.977Zm0,0" transform="translate(-83.632 -134.654)" fill="#6d44e5"/>
      <path id="Path_27137" data-name="Path 27137" d="M4.572,20.534a.459.459,0,0,0,.384-.207L9.07,14.054a.459.459,0,0,0-.384-.711H5.177a14.446,14.446,0,0,1,4.92-9A13.761,13.761,0,0,1,18.847.918a13,13,0,0,1,5.959,1.537,14.812,14.812,0,0,1,5.076,4.354.459.459,0,0,0,.741-.542A15.74,15.74,0,0,0,25.23,1.641,13.924,13.924,0,0,0,18.847,0,14.692,14.692,0,0,0,9.5,3.646a15.361,15.361,0,0,0-5.249,9.7H.459a.459.459,0,0,0-.384.711l4.114,6.273A.459.459,0,0,0,4.572,20.534Zm3.264-6.273L4.572,19.237,1.309,14.261Zm0,0" transform="translate(0 0)" fill="#6d44e5"/>
      <path id="Path_27138" data-name="Path 27138" d="M142.45,67.74a.454.454,0,0,0-.4,0l-8.136,4.039a.466.466,0,0,0-.257.418v7.726a7.484,7.484,0,0,0,2.912,5.583l5.424,3.75a.454.454,0,0,0,.517,0l5.424-3.75a7.483,7.483,0,0,0,2.912-5.583V72.208a.465.465,0,0,0-.256-.418Zm7.475,12.183a6.552,6.552,0,0,1-2.512,4.814l-5.165,3.571-5.165-3.571a6.654,6.654,0,0,1-2.511-4.814V72.486l7.677-3.811,7.677,3.822Zm0,0" transform="translate(-123.428 -62.514)" fill="#6d44e5"/>
      <path id="Path_27139" data-name="Path 27139" d="M202.942,141.28l-1.7-.018a.459.459,0,0,0-.01.918l1.7.018a2.1,2.1,0,0,1,2.028,1.659l-3.749-.04h-.005a.459.459,0,0,0,0,.918l3.748.04a2.1,2.1,0,0,1-2.038,1.615h-.024l-1.7-.018a.454.454,0,0,0-.429.285.459.459,0,0,0,.106.5l4.216,4.07a.459.459,0,0,0,.638-.66l-3.386-3.269.556.006h.028a3.026,3.026,0,0,0,2.972-2.523l1.272.013h.005a.459.459,0,0,0,0-.918l-1.272-.013a2.986,2.986,0,0,0-.8-1.646l2.086.022h.005a.459.459,0,1,0,0-.918l-4.251-.045Zm0,0" transform="translate(-185.363 -130.31)" fill="#6d44e5"/>
    </g>
  </g>
</svg>
