<svg xmlns="http://www.w3.org/2000/svg" xmlns:xlink="http://www.w3.org/1999/xlink" width="344" height="547" viewBox="0 0 344 547">
  <defs>
    <linearGradient id="linear-gradient" x2="0.974" y2="0.981" gradientUnits="objectBoundingBox">
      <stop offset="0" stop-color="#fff"/>
      <stop offset="1" stop-color="#efefef"/>
    </linearGradient>
    <filter id="Rectangle_2245" x="20" y="20" width="324" height="527" filterUnits="userSpaceOnUse">
      <feOffset dx="10" dy="10" input="SourceAlpha"/>
      <feGaussianBlur stdDeviation="5" result="blur"/>
      <feFlood flood-opacity="0.102"/>
      <feComposite operator="in" in2="blur"/>
      <feComposite in="SourceGraphic"/>
    </filter>
    <filter id="Path_18069">
      <feOffset input="SourceAlpha"/>
      <feGaussianBlur stdDeviation="5" result="blur-2"/>
      <feFlood flood-opacity="0.161" result="color"/>
      <feComposite operator="out" in="SourceGraphic" in2="blur-2"/>
      <feComposite operator="in" in="color"/>
      <feComposite operator="in" in2="SourceGraphic"/>
    </filter>
    <clipPath id="clip-path">
      <path id="Path_23670" data-name="Path 23670" d="M28.711,0H248.063c15.857,0,28.711,11.2,28.711,25.016V454.3c0,13.816-12.854,25.016-28.711,25.016H28.711C12.854,479.315,0,468.114,0,454.3V25.016C0,11.2,12.854,0,28.711,0Z" transform="translate(9.188 9.188)" fill="#fff"/>
    </clipPath>
    <linearGradient id="linear-gradient-2" x1="0.084" y1="0.421" x2="0.921" y2="0.583" gradientUnits="objectBoundingBox">
      <stop offset="0" stop-color="#85e6c4" stop-opacity="0"/>
      <stop offset="1" stop-color="#85e6c4"/>
    </linearGradient>
    <linearGradient id="linear-gradient-3" x1="0.073" y1="0.479" x2="0.927" y2="0.548" gradientUnits="objectBoundingBox">
      <stop offset="0" stop-color="#85e6c4"/>
      <stop offset="1" stop-color="#85e6c4" stop-opacity="0"/>
    </linearGradient>
  </defs>
  <g id="Group_9220" data-name="Group 9220" transform="translate(-887 -1998)">
    <g id="Group_18431" data-name="Group 18431" transform="translate(-5381 1142)">
      <g id="Group_8821" data-name="Group 8821" transform="translate(6293 881)">
        <g transform="matrix(1, 0, 0, 1, -25, -25)" filter="url(#Rectangle_2245)">
          <rect id="Rectangle_2245-2" data-name="Rectangle 2245" width="294" height="497" rx="25" transform="translate(25 25)" fill="url(#linear-gradient)"/>
        </g>
        <g data-type="innerShadowGroup">
          <path id="Path_18069-2" data-name="Path 18069" d="M28.711,0H248.063c15.857,0,28.711,11.2,28.711,25.016V454.3c0,13.816-12.854,25.016-28.711,25.016H28.711C12.854,479.315,0,468.114,0,454.3V25.016C0,11.2,12.854,0,28.711,0Z" transform="translate(9.188 9.188)" fill="#fff"/>
          <g transform="matrix(1, 0, 0, 1, -25, -25)" filter="url(#Path_18069)">
            <path id="Path_18069-3" data-name="Path 18069" d="M28.711,0H248.063c15.857,0,28.711,11.2,28.711,25.016V454.3c0,13.816-12.854,25.016-28.711,25.016H28.711C12.854,479.315,0,468.114,0,454.3V25.016C0,11.2,12.854,0,28.711,0Z" transform="translate(34.19 34.19)" fill="#fff"/>
          </g>
        </g>
        <g id="Mask_Group_8912" data-name="Mask Group 8912" clip-path="url(#clip-path)">
          <path id="Path_23667" data-name="Path 23667" d="M274.262,123.138h110.85l-12.465,24.047a14.718,14.718,0,0,1-13,8.173H257.578Z" transform="translate(-98.16 161.487) rotate(-45)" opacity="0.3" fill="url(#linear-gradient-2)"/>
          <path id="Path_23673" data-name="Path 23673" d="M274.262,123.138h110.85l-12.465,24.047a14.718,14.718,0,0,1-13,8.173H257.578Z" transform="translate(-321.16 529.487) rotate(-45)" opacity="0.3" fill="url(#linear-gradient-3)"/>
          <path id="Path_23668" data-name="Path 23668" d="M274.262,123.138h110.85l-12.465,24.047a14.718,14.718,0,0,1-13,8.173H257.578Z" transform="translate(-57.601 186.854) rotate(-45)" opacity="0.3" fill="url(#linear-gradient-2)"/>
          <path id="Path_23672" data-name="Path 23672" d="M274.262,123.138h110.85l-12.465,24.047a14.718,14.718,0,0,1-13,8.173H257.578Z" transform="translate(-280.601 554.854) rotate(-45)" opacity="0.3" fill="url(#linear-gradient-3)"/>
          <path id="Path_23669" data-name="Path 23669" d="M274.262,123.138h110.85l-12.465,24.047a14.718,14.718,0,0,1-13,8.173H257.578Z" transform="translate(-49.061 249.788) rotate(-45)" opacity="0.3" fill="url(#linear-gradient-2)"/>
          <path id="Path_23671" data-name="Path 23671" d="M274.262,123.138h110.85l-12.465,24.047a14.718,14.718,0,0,1-13,8.173H257.578Z" transform="translate(-272.061 617.788) rotate(-45)" opacity="0.3" fill="url(#linear-gradient-3)"/>
        </g>
      </g>
    </g>
    <rect id="Rectangle_2431" data-name="Rectangle 2431" width="344" height="540" transform="translate(887 1998)" fill="none"/>
    <path id="Path_23834" data-name="Path 23834" d="M1.36,0V-14H6.54a6.1,6.1,0,0,1,2.78.56,3.754,3.754,0,0,1,1.64,1.54,4.482,4.482,0,0,1,.54,2.2,4.436,4.436,0,0,1-.52,2.13A3.821,3.821,0,0,1,9.36-6.01a5.939,5.939,0,0,1-2.82.59H3.92V0ZM3.92-7.5H6.38a2.653,2.653,0,0,0,1.93-.59A2.176,2.176,0,0,0,8.9-9.7a2.2,2.2,0,0,0-.59-1.63,2.653,2.653,0,0,0-1.93-.59H3.92ZM16.24.24a4.693,4.693,0,0,1-2.1-.41,2.837,2.837,0,0,1-1.22-1.09,2.9,2.9,0,0,1-.4-1.5A2.729,2.729,0,0,1,13.6-5a5.136,5.136,0,0,1,3.24-.86h2.52V-6.1a1.836,1.836,0,0,0-.58-1.5,2.183,2.183,0,0,0-1.44-.48,2.474,2.474,0,0,0-1.36.37,1.593,1.593,0,0,0-.72,1.09h-2.5a3.489,3.489,0,0,1,.73-1.88,4.087,4.087,0,0,1,1.63-1.23,5.616,5.616,0,0,1,2.24-.43A4.921,4.921,0,0,1,20.7-9.1a3.761,3.761,0,0,1,1.22,3V0H19.74L19.5-1.6A3.7,3.7,0,0,1,18.27-.28,3.626,3.626,0,0,1,16.24.24Zm.58-2a2.119,2.119,0,0,0,1.71-.72,3.5,3.5,0,0,0,.77-1.78H17.12a2.274,2.274,0,0,0-1.46.37,1.145,1.145,0,0,0-.44.91,1.048,1.048,0,0,0,.44.9A1.928,1.928,0,0,0,16.82-1.76ZM25.26,4.4l2.3-5.06h-.6L23.1-9.92h2.78l2.78,6.98,2.9-6.98h2.72L27.98,4.4ZM35.96,0V-9.92h2.26l.22,1.34a3.522,3.522,0,0,1,1.27-1.15,3.768,3.768,0,0,1,1.83-.43A3.4,3.4,0,0,1,44.8-8.38a3.853,3.853,0,0,1,1.45-1.3,4.2,4.2,0,0,1,1.99-.48A3.8,3.8,0,0,1,51.22-9a4.94,4.94,0,0,1,1.04,3.4V0H49.7V-5.36a3.323,3.323,0,0,0-.49-1.96A1.736,1.736,0,0,0,47.7-8a2.061,2.061,0,0,0-1.67.76,3.23,3.23,0,0,0-.63,2.12V0H42.84V-5.36a3.273,3.273,0,0,0-.5-1.96A1.785,1.785,0,0,0,40.8-8a2.04,2.04,0,0,0-1.65.76,3.23,3.23,0,0,0-.63,2.12V0ZM59.52.24A5.415,5.415,0,0,1,56.86-.4a4.632,4.632,0,0,1-1.82-1.8,5.325,5.325,0,0,1-.66-2.68,5.661,5.661,0,0,1,.65-2.74,4.719,4.719,0,0,1,1.8-1.87,5.288,5.288,0,0,1,2.71-.67,5.108,5.108,0,0,1,2.58.64,4.6,4.6,0,0,1,1.75,1.75A4.916,4.916,0,0,1,64.5-5.3q0,.22-.01.46t-.03.5H56.92a2.583,2.583,0,0,0,.81,1.82,2.545,2.545,0,0,0,1.77.66,2.327,2.327,0,0,0,1.31-.35,2.168,2.168,0,0,0,.79-.91h2.6a4.714,4.714,0,0,1-.93,1.71A4.585,4.585,0,0,1,61.67-.2,5.058,5.058,0,0,1,59.52.24Zm.02-8.32a2.726,2.726,0,0,0-1.66.53,2.456,2.456,0,0,0-.92,1.61H61.9a2.159,2.159,0,0,0-.72-1.56A2.4,2.4,0,0,0,59.54-8.08ZM66.66,0V-9.92h2.26l.2,1.68a3.488,3.488,0,0,1,1.33-1.4,3.921,3.921,0,0,1,2.05-.52A3.608,3.608,0,0,1,75.36-9a5.005,5.005,0,0,1,1.02,3.4V0H73.82V-5.36a3.178,3.178,0,0,0-.52-1.96A1.909,1.909,0,0,0,71.68-8a2.283,2.283,0,0,0-1.77.76,3.04,3.04,0,0,0-.69,2.12V0ZM83.24,0a3.857,3.857,0,0,1-2.5-.76,3.306,3.306,0,0,1-.94-2.7V-7.78H78.1V-9.92h1.7l.3-2.66h2.26v2.66h2.68v2.14H82.36v4.34a1.274,1.274,0,0,0,.31.99,1.64,1.64,0,0,0,1.07.27h1.24V0Zm13.6.24a6.579,6.579,0,0,1-2.72-.53,4.372,4.372,0,0,1-1.86-1.52,4.264,4.264,0,0,1-.7-2.41h2.7a2.388,2.388,0,0,0,.71,1.65,2.5,2.5,0,0,0,1.85.67,2.485,2.485,0,0,0,1.62-.49,1.6,1.6,0,0,0,.6-1.31,1.716,1.716,0,0,0-.53-1.34,3.994,3.994,0,0,0-1.41-.78l-1.88-.64A6.19,6.19,0,0,1,92.75-7.9a3.226,3.226,0,0,1-.85-2.34,3.569,3.569,0,0,1,.59-2.13,4.017,4.017,0,0,1,1.67-1.38,5.756,5.756,0,0,1,2.44-.49,5.774,5.774,0,0,1,2.47.5,4.047,4.047,0,0,1,1.68,1.4,3.958,3.958,0,0,1,.65,2.14H98.66a1.911,1.911,0,0,0-.57-1.31,2.027,2.027,0,0,0-1.53-.57,2.184,2.184,0,0,0-1.41.41,1.47,1.47,0,0,0-.57,1.25,1.444,1.444,0,0,0,.44,1.11,3.533,3.533,0,0,0,1.2.69q.76.28,1.74.6a11.835,11.835,0,0,1,1.9.84,3.894,3.894,0,0,1,1.38,1.27,3.626,3.626,0,0,1,.52,2.03,3.915,3.915,0,0,1-.56,2.04A4.028,4.028,0,0,1,99.54-.33,5.817,5.817,0,0,1,96.84.24Zm10.82,0a3.6,3.6,0,0,1-2.87-1.16,5.039,5.039,0,0,1-1.01-3.4v-5.6h2.54v5.36a3.178,3.178,0,0,0,.52,1.96,1.933,1.933,0,0,0,1.64.68,2.261,2.261,0,0,0,1.75-.76,3.04,3.04,0,0,0,.69-2.12V-9.92h2.56V0h-2.26l-.2-1.68a3.488,3.488,0,0,1-1.33,1.4A3.881,3.881,0,0,1,107.66.24Zm13.3,0a5.325,5.325,0,0,1-2.68-.66,4.8,4.8,0,0,1-1.83-1.84,5.372,5.372,0,0,1-.67-2.7,5.372,5.372,0,0,1,.67-2.7,4.8,4.8,0,0,1,1.83-1.84,5.325,5.325,0,0,1,2.68-.66,5.127,5.127,0,0,1,3.2.99,4.426,4.426,0,0,1,1.66,2.73h-2.7a1.973,1.973,0,0,0-.79-1.13,2.374,2.374,0,0,0-1.39-.41,2.361,2.361,0,0,0-1.8.8,3.145,3.145,0,0,0-.74,2.22,3.145,3.145,0,0,0,.74,2.22,2.361,2.361,0,0,0,1.8.8,2.417,2.417,0,0,0,1.39-.4,1.934,1.934,0,0,0,.79-1.14h2.7a4.524,4.524,0,0,1-1.66,2.7A5.025,5.025,0,0,1,120.96.24Zm12,0a5.325,5.325,0,0,1-2.68-.66,4.8,4.8,0,0,1-1.83-1.84,5.372,5.372,0,0,1-.67-2.7,5.372,5.372,0,0,1,.67-2.7,4.8,4.8,0,0,1,1.83-1.84,5.325,5.325,0,0,1,2.68-.66,5.127,5.127,0,0,1,3.2.99,4.426,4.426,0,0,1,1.66,2.73h-2.7a1.973,1.973,0,0,0-.79-1.13,2.374,2.374,0,0,0-1.39-.41,2.361,2.361,0,0,0-1.8.8,3.145,3.145,0,0,0-.74,2.22,3.145,3.145,0,0,0,.74,2.22,2.361,2.361,0,0,0,1.8.8,2.417,2.417,0,0,0,1.39-.4,1.934,1.934,0,0,0,.79-1.14h2.7a4.524,4.524,0,0,1-1.66,2.7A5.025,5.025,0,0,1,132.96.24Zm11.96,0a5.415,5.415,0,0,1-2.66-.64,4.632,4.632,0,0,1-1.82-1.8,5.325,5.325,0,0,1-.66-2.68,5.661,5.661,0,0,1,.65-2.74,4.719,4.719,0,0,1,1.8-1.87,5.288,5.288,0,0,1,2.71-.67,5.108,5.108,0,0,1,2.58.64,4.6,4.6,0,0,1,1.75,1.75,4.916,4.916,0,0,1,.63,2.47q0,.22-.01.46t-.03.5h-7.54a2.583,2.583,0,0,0,.81,1.82,2.545,2.545,0,0,0,1.77.66,2.327,2.327,0,0,0,1.31-.35,2.168,2.168,0,0,0,.79-.91h2.6a4.714,4.714,0,0,1-.93,1.71,4.585,4.585,0,0,1-1.6,1.21A5.058,5.058,0,0,1,144.92.24Zm.02-8.32a2.726,2.726,0,0,0-1.66.53,2.456,2.456,0,0,0-.92,1.61h4.94a2.159,2.159,0,0,0-.72-1.56A2.4,2.4,0,0,0,144.94-8.08ZM156.16.24a5.832,5.832,0,0,1-2.32-.43,4.008,4.008,0,0,1-1.6-1.19,3.445,3.445,0,0,1-.72-1.76h2.58a1.661,1.661,0,0,0,.65.99,2.175,2.175,0,0,0,1.37.41,1.844,1.844,0,0,0,1.23-.34,1.013,1.013,0,0,0,.39-.78.859.859,0,0,0-.56-.87,9.868,9.868,0,0,0-1.56-.45q-.64-.14-1.3-.34a6,6,0,0,1-1.21-.51,2.645,2.645,0,0,1-.89-.8,2.071,2.071,0,0,1-.34-1.21,2.812,2.812,0,0,1,1.05-2.22,4.4,4.4,0,0,1,2.95-.9,4.444,4.444,0,0,1,2.81.82,3.324,3.324,0,0,1,1.25,2.26h-2.42q-.22-1.1-1.66-1.1a1.883,1.883,0,0,0-1.11.28.835.835,0,0,0-.39.7q0,.44.58.7a8.518,8.518,0,0,0,1.54.48q1.04.24,1.91.53a3.21,3.21,0,0,1,1.39.86A2.335,2.335,0,0,1,160.3-3a2.785,2.785,0,0,1-.48,1.66,3.316,3.316,0,0,1-1.44,1.16A5.406,5.406,0,0,1,156.16.24Zm10.5,0a5.832,5.832,0,0,1-2.32-.43,4.008,4.008,0,0,1-1.6-1.19,3.445,3.445,0,0,1-.72-1.76h2.58a1.661,1.661,0,0,0,.65.99,2.175,2.175,0,0,0,1.37.41,1.844,1.844,0,0,0,1.23-.34,1.013,1.013,0,0,0,.39-.78.859.859,0,0,0-.56-.87,9.868,9.868,0,0,0-1.56-.45q-.64-.14-1.3-.34a6,6,0,0,1-1.21-.51,2.645,2.645,0,0,1-.89-.8,2.071,2.071,0,0,1-.34-1.21,2.812,2.812,0,0,1,1.05-2.22,4.4,4.4,0,0,1,2.95-.9,4.444,4.444,0,0,1,2.81.82,3.324,3.324,0,0,1,1.25,2.26h-2.42q-.22-1.1-1.66-1.1a1.883,1.883,0,0,0-1.11.28.835.835,0,0,0-.39.7q0,.44.58.7a8.518,8.518,0,0,0,1.54.48q1.04.24,1.91.53a3.21,3.21,0,0,1,1.39.86A2.335,2.335,0,0,1,170.8-3a2.785,2.785,0,0,1-.48,1.66,3.316,3.316,0,0,1-1.44,1.16A5.406,5.406,0,0,1,166.66.24ZM173.52,0V-7.78h-1.36V-9.92h1.36v-1.16a3.169,3.169,0,0,1,.91-2.56,3.734,3.734,0,0,1,2.47-.76H178v2.18h-.7a1.366,1.366,0,0,0-.94.26,1.161,1.161,0,0,0-.28.88v1.16h2.14v2.14h-2.14V0Zm10.44.24a3.6,3.6,0,0,1-2.87-1.16,5.039,5.039,0,0,1-1.01-3.4v-5.6h2.54v5.36a3.178,3.178,0,0,0,.52,1.96,1.933,1.933,0,0,0,1.64.68,2.261,2.261,0,0,0,1.75-.76,3.04,3.04,0,0,0,.69-2.12V-9.92h2.56V0h-2.26l-.2-1.68a3.488,3.488,0,0,1-1.33,1.4A3.881,3.881,0,0,1,183.96.24ZM192.4,0V-14.4h2.56V0Z" transform="translate(961 2303.207)" fill="#2a2a2a"/>
    <path id="Path_23835" data-name="Path 23835" d="M-29.869-13.031h.469q.672,0,1.3-.016a4.877,4.877,0,0,0,1.188-.172,3.438,3.438,0,0,0,1.063-.508,3.5,3.5,0,0,0,.922-1.023h-7.484a10.322,10.322,0,0,1,.492-1.008q.3-.555.6-1.055.344-.578.719-1.156h5.109a.831.831,0,0,0-.2-.469,2.6,2.6,0,0,0-.508-.508,3.308,3.308,0,0,0-.68-.406,1.707,1.707,0,0,0-.7-.164H-32.6q.125-.187.359-.523t.516-.727q.281-.391.57-.8t.531-.75q.242-.336.406-.547a1.272,1.272,0,0,1,.18-.211h12.516a.877.877,0,0,1-.094.281q-.109.266-.273.656t-.359.852q-.2.461-.367.852t-.3.656l-.125.266h-1.734l.109.3q.062.219.141.469t.141.469q.062.219.078.313h4.094l-1.922,3.219h-2.031a5.484,5.484,0,0,1-.859,2.078,5.169,5.169,0,0,1-1.406,1.352,7.017,7.017,0,0,1-1.758.813,14.356,14.356,0,0,1-1.914.445l6.375,8.781V-.016h-4.406L-31.7-10.094v-2.922h1.156Q-30.2-13.016-29.869-13.031ZM2.2.384A7.841,7.841,0,0,1-1.74-.528a6.793,6.793,0,0,1-2.5-2.384A7.346,7.346,0,0,1-5.292-6.08h3.808A3.615,3.615,0,0,0-.252-3.808a3.784,3.784,0,0,0,2.48.8A3.989,3.989,0,0,0,5.684-4.976a11.461,11.461,0,0,0,1.408-6A5.959,5.959,0,0,1,4.772-8.8a6.888,6.888,0,0,1-3.408.864,7.137,7.137,0,0,1-3.488-.9A7.178,7.178,0,0,1-4.78-11.36,7.074,7.074,0,0,1-5.8-15.2a7.392,7.392,0,0,1,.992-3.744A7.649,7.649,0,0,1-2.06-21.728a7.87,7.87,0,0,1,4.128-1.056,8.9,8.9,0,0,1,4.256.928,7.537,7.537,0,0,1,2.768,2.5,10.877,10.877,0,0,1,1.5,3.488,16.7,16.7,0,0,1,.464,3.936,18.494,18.494,0,0,1-1.04,6.512A9.35,9.35,0,0,1,6.98-1.136,7.677,7.677,0,0,1,2.2.384Zm.128-11.776a4.374,4.374,0,0,0,2.144-.528,3.988,3.988,0,0,0,1.5-1.408A3.667,3.667,0,0,0,6.516-15.3a3.726,3.726,0,0,0-1.2-2.848,4.259,4.259,0,0,0-3.024-1.12,4.194,4.194,0,0,0-2.976,1.1,3.662,3.662,0,0,0-1.184,2.8A3.725,3.725,0,0,0-.684-12.48,4.273,4.273,0,0,0,2.324-11.392ZM22.484.384a7.841,7.841,0,0,1-3.936-.912,6.793,6.793,0,0,1-2.5-2.384A7.346,7.346,0,0,1,15-6.08H18.8a3.615,3.615,0,0,0,1.232,2.272,3.784,3.784,0,0,0,2.48.8,3.989,3.989,0,0,0,3.456-1.968,11.461,11.461,0,0,0,1.408-6A5.959,5.959,0,0,1,25.06-8.8a6.888,6.888,0,0,1-3.408.864,7.137,7.137,0,0,1-3.488-.9,7.178,7.178,0,0,1-2.656-2.528,7.074,7.074,0,0,1-1.024-3.84,7.392,7.392,0,0,1,.992-3.744,7.649,7.649,0,0,1,2.752-2.784,7.87,7.87,0,0,1,4.128-1.056,8.9,8.9,0,0,1,4.256.928,7.537,7.537,0,0,1,2.768,2.5,10.877,10.877,0,0,1,1.5,3.488,16.7,16.7,0,0,1,.464,3.936,18.494,18.494,0,0,1-1.04,6.512,9.35,9.35,0,0,1-3.04,4.288A7.677,7.677,0,0,1,22.484.384Zm.128-11.776a4.374,4.374,0,0,0,2.144-.528,3.988,3.988,0,0,0,1.5-1.408A3.667,3.667,0,0,0,26.8-15.3a3.726,3.726,0,0,0-1.2-2.848,4.259,4.259,0,0,0-3.024-1.12,4.194,4.194,0,0,0-2.976,1.1,3.662,3.662,0,0,0-1.184,2.8A3.725,3.725,0,0,0,19.6-12.48,4.273,4.273,0,0,0,22.612-11.392Z" transform="translate(1059 2365.207)" fill="#6d44e5"/>
    <path id="correct" d="M50,0a50,50,0,1,0,50,50A49.955,49.955,0,0,0,50,0ZM74.194,39.631,44.585,69.125a4.55,4.55,0,0,1-3.226,1.382,4.36,4.36,0,0,1-3.226-1.382L23.5,54.609a4.644,4.644,0,0,1,6.567-6.567l11.29,11.291L67.627,33.064a4.591,4.591,0,0,1,6.567,0A4.807,4.807,0,0,1,74.194,39.631Z" transform="translate(1009 2167.793)" fill="#69d57a"/>
  </g>
</svg>
