<svg xmlns="http://www.w3.org/2000/svg" xmlns:xlink="http://www.w3.org/1999/xlink" width="344" height="543" viewBox="0 0 344 543">
  <defs>
    <linearGradient id="linear-gradient" x2="0.974" y2="0.981" gradientUnits="objectBoundingBox">
      <stop offset="0" stop-color="#fff"/>
      <stop offset="1" stop-color="#efefef"/>
    </linearGradient>
    <filter id="Rectangle_2245" x="20" y="16" width="324" height="527" filterUnits="userSpaceOnUse">
      <feOffset dx="10" dy="10" input="SourceAlpha"/>
      <feGaussianBlur stdDeviation="5" result="blur"/>
      <feFlood flood-opacity="0.102"/>
      <feComposite operator="in" in2="blur"/>
      <feComposite in="SourceGraphic"/>
    </filter>
    <filter id="Path_18069">
      <feOffset input="SourceAlpha"/>
      <feGaussianBlur stdDeviation="5" result="blur-2"/>
      <feFlood flood-opacity="0.161" result="color"/>
      <feComposite operator="out" in="SourceGraphic" in2="blur-2"/>
      <feComposite operator="in" in="color"/>
      <feComposite operator="in" in2="SourceGraphic"/>
    </filter>
  </defs>
  <g id="Group_18428" data-name="Group 18428" transform="translate(-6268 -860)">
    <rect id="Rectangle_2535" data-name="Rectangle 2535" width="344" height="540" transform="translate(6268 860)" fill="none"/>
    <g id="Group_8821" data-name="Group 8821" transform="translate(6293 881)">
      <g transform="matrix(1, 0, 0, 1, -25, -21)" filter="url(#Rectangle_2245)">
        <rect id="Rectangle_2245-2" data-name="Rectangle 2245" width="294" height="497" rx="25" transform="translate(25 21)" fill="url(#linear-gradient)"/>
      </g>
      <g data-type="innerShadowGroup">
        <path id="Path_18069-2" data-name="Path 18069" d="M28.711,0H248.063c15.857,0,28.711,11.2,28.711,25.016V454.3c0,13.816-12.854,25.016-28.711,25.016H28.711C12.854,479.315,0,468.114,0,454.3V25.016C0,11.2,12.854,0,28.711,0Z" transform="translate(9.188 9.188)" fill="#fff"/>
        <g transform="matrix(1, 0, 0, 1, -25, -21)" filter="url(#Path_18069)">
          <path id="Path_18069-3" data-name="Path 18069" d="M28.711,0H248.063c15.857,0,28.711,11.2,28.711,25.016V454.3c0,13.816-12.854,25.016-28.711,25.016H28.711C12.854,479.315,0,468.114,0,454.3V25.016C0,11.2,12.854,0,28.711,0Z" transform="translate(34.19 30.19)" fill="#fff"/>
        </g>
      </g>
    </g>
    <g id="Group_18429" data-name="Group 18429" transform="translate(6332.474 929.769)">
      <rect id="Rectangle_4" data-name="Rectangle 4" width="161.93" height="35.602" rx="5" transform="translate(26.338 354.333)" fill="#6d44e5"/>
      <path id="Path_23666" data-name="Path 23666" d="M-60.64-.9a4.126,4.126,0,0,1-1.706-.332,2.742,2.742,0,0,1-1.167-.953,2.674,2.674,0,0,1-.439-1.512h1.694a1.5,1.5,0,0,0,.445,1.035,1.568,1.568,0,0,0,1.16.42,1.559,1.559,0,0,0,1.016-.307,1.007,1.007,0,0,0,.376-.822,1.076,1.076,0,0,0-.332-.84,2.505,2.505,0,0,0-.884-.489l-1.179-.4A3.882,3.882,0,0,1-63.206-6a2.023,2.023,0,0,1-.533-1.468,2.239,2.239,0,0,1,.37-1.336,2.519,2.519,0,0,1,1.047-.866,3.61,3.61,0,0,1,1.53-.307,3.622,3.622,0,0,1,1.549.314,2.538,2.538,0,0,1,1.054.878,2.483,2.483,0,0,1,.408,1.342H-59.5a1.2,1.2,0,0,0-.358-.822,1.271,1.271,0,0,0-.96-.358,1.37,1.37,0,0,0-.884.257.922.922,0,0,0-.358.784.906.906,0,0,0,.276.7,2.216,2.216,0,0,0,.753.433q.477.176,1.091.376a7.424,7.424,0,0,1,1.192.527,2.442,2.442,0,0,1,.866.8,2.275,2.275,0,0,1,.326,1.273,2.456,2.456,0,0,1-.351,1.28,2.526,2.526,0,0,1-1.041.947A3.649,3.649,0,0,1-60.64-.9Zm7.477,0a3.4,3.4,0,0,1-1.668-.4,2.906,2.906,0,0,1-1.142-1.129,3.34,3.34,0,0,1-.414-1.681,3.551,3.551,0,0,1,.408-1.719A2.96,2.96,0,0,1-54.851-7a3.317,3.317,0,0,1,1.7-.42,3.2,3.2,0,0,1,1.618.4,2.883,2.883,0,0,1,1.1,1.1,3.083,3.083,0,0,1,.4,1.549q0,.138-.006.289t-.019.314h-4.729a1.62,1.62,0,0,0,.508,1.142,1.6,1.6,0,0,0,1.11.414,1.459,1.459,0,0,0,.822-.22,1.36,1.36,0,0,0,.5-.571h1.631a2.957,2.957,0,0,1-.583,1.073,2.876,2.876,0,0,1-1,.759A3.173,3.173,0,0,1-53.164-.9Zm.013-5.219a1.71,1.71,0,0,0-1.041.332,1.541,1.541,0,0,0-.577,1.01h3.1a1.354,1.354,0,0,0-.452-.978A1.5,1.5,0,0,0-53.151-6.116Zm4.466,5.068V-7.27h1.418l.125,1.054a2.188,2.188,0,0,1,.834-.878,2.459,2.459,0,0,1,1.286-.326,2.263,2.263,0,0,1,1.794.728,3.139,3.139,0,0,1,.64,2.133v3.513h-1.606V-4.41a1.993,1.993,0,0,0-.326-1.229,1.2,1.2,0,0,0-1.016-.427,1.432,1.432,0,0,0-1.11.477,1.907,1.907,0,0,0-.433,1.33v3.211ZM-38.2-.9a2.921,2.921,0,0,1-1.568-.427A3.056,3.056,0,0,1-40.857-2.49a3.469,3.469,0,0,1-.4-1.681,3.433,3.433,0,0,1,.4-1.675A3.02,3.02,0,0,1-39.766-7a2.954,2.954,0,0,1,1.568-.42,2.716,2.716,0,0,1,1.229.263,2.216,2.216,0,0,1,.853.74V-10.08h1.606v9.032h-1.43l-.176-.891a2.858,2.858,0,0,1-.8.728A2.371,2.371,0,0,1-38.2-.9Zm.339-1.405a1.68,1.68,0,0,0,1.273-.521,1.859,1.859,0,0,0,.5-1.336,1.859,1.859,0,0,0-.5-1.336,1.68,1.68,0,0,0-1.273-.521,1.7,1.7,0,0,0-1.267.514,1.824,1.824,0,0,0-.5,1.33,1.868,1.868,0,0,0,.5,1.342A1.675,1.675,0,0,0-37.859-2.3Zm8,1.254V-9.829h3.249a3.829,3.829,0,0,1,1.744.351,2.355,2.355,0,0,1,1.029.966,2.811,2.811,0,0,1,.339,1.38A2.783,2.783,0,0,1-23.822-5.8a2.4,2.4,0,0,1-1.016.978,3.725,3.725,0,0,1-1.769.37H-28.25v3.4Zm1.606-4.7h1.543a1.664,1.664,0,0,0,1.211-.37,1.365,1.365,0,0,0,.37-1.01,1.382,1.382,0,0,0-.37-1.022,1.664,1.664,0,0,0-1.211-.37H-28.25ZM-20.522-.9a2.944,2.944,0,0,1-1.317-.257,1.779,1.779,0,0,1-.765-.684,1.822,1.822,0,0,1-.251-.941,1.712,1.712,0,0,1,.677-1.405,3.221,3.221,0,0,1,2.032-.539h1.581v-.151a1.152,1.152,0,0,0-.364-.941,1.369,1.369,0,0,0-.9-.3,1.552,1.552,0,0,0-.853.232,1,1,0,0,0-.452.684h-1.568a2.188,2.188,0,0,1,.458-1.179,2.563,2.563,0,0,1,1.022-.771,3.522,3.522,0,0,1,1.405-.27,3.087,3.087,0,0,1,2.095.665,2.359,2.359,0,0,1,.765,1.882v3.826h-1.367l-.151-1a2.319,2.319,0,0,1-.771.828A2.275,2.275,0,0,1-20.522-.9Zm.364-1.254A1.329,1.329,0,0,0-19.086-2.6,2.193,2.193,0,0,0-18.6-3.72H-19.97a1.426,1.426,0,0,0-.916.232.718.718,0,0,0-.276.571.658.658,0,0,0,.276.565A1.209,1.209,0,0,0-20.159-2.152Zm5.294,3.864,1.443-3.174H-13.8L-16.22-7.27h1.744l1.744,4.378,1.819-4.378h1.706l-3.952,8.982Zm6.711-2.76V-7.27h1.418l.138.84a2.209,2.209,0,0,1,.8-.721,2.363,2.363,0,0,1,1.148-.27A2.132,2.132,0,0,1-2.609-6.3,2.417,2.417,0,0,1-1.7-7.119a2.634,2.634,0,0,1,1.248-.3,2.38,2.38,0,0,1,1.869.728A3.1,3.1,0,0,1,2.071-4.56v3.513H.465V-4.41A2.085,2.085,0,0,0,.158-5.639,1.089,1.089,0,0,0-.79-6.066a1.293,1.293,0,0,0-1.047.477,2.026,2.026,0,0,0-.4,1.33v3.211H-3.838V-4.41a2.053,2.053,0,0,0-.314-1.229,1.12,1.12,0,0,0-.966-.427,1.279,1.279,0,0,0-1.035.477,2.026,2.026,0,0,0-.4,1.33v3.211ZM6.624-.9a3.4,3.4,0,0,1-1.668-.4A2.905,2.905,0,0,1,3.814-2.428,3.34,3.34,0,0,1,3.4-4.109a3.551,3.551,0,0,1,.408-1.719A2.96,2.96,0,0,1,4.937-7a3.317,3.317,0,0,1,1.7-.42,3.2,3.2,0,0,1,1.618.4,2.883,2.883,0,0,1,1.1,1.1,3.083,3.083,0,0,1,.4,1.549q0,.138-.006.289t-.019.314H4.993A1.62,1.62,0,0,0,5.5-2.628a1.6,1.6,0,0,0,1.11.414,1.459,1.459,0,0,0,.822-.22A1.36,1.36,0,0,0,7.929-3H9.56a2.957,2.957,0,0,1-.583,1.073,2.876,2.876,0,0,1-1,.759A3.173,3.173,0,0,1,6.624-.9Zm.013-5.219A1.71,1.71,0,0,0,5.6-5.783a1.541,1.541,0,0,0-.577,1.01h3.1a1.354,1.354,0,0,0-.452-.978A1.5,1.5,0,0,0,6.637-6.116ZM11.1-1.048V-7.27H12.52l.125,1.054a2.188,2.188,0,0,1,.834-.878,2.459,2.459,0,0,1,1.286-.326,2.263,2.263,0,0,1,1.794.728A3.139,3.139,0,0,1,17.2-4.56v3.513H15.594V-4.41a1.993,1.993,0,0,0-.326-1.229,1.2,1.2,0,0,0-1.016-.427,1.432,1.432,0,0,0-1.11.477,1.907,1.907,0,0,0-.433,1.33v3.211Zm10.4,0a2.419,2.419,0,0,1-1.568-.477,2.073,2.073,0,0,1-.59-1.694v-2.71H18.278V-7.27h1.066l.188-1.668H20.95V-7.27h1.681v1.342H20.95v2.722a.8.8,0,0,0,.194.621,1.029,1.029,0,0,0,.671.169h.778v1.367Zm5.532,0V-9.829H28.64V-2.3h3.889v1.254Zm7.74-7.188a1.015,1.015,0,0,1-.721-.263.871.871,0,0,1-.282-.665.851.851,0,0,1,.282-.659,1.03,1.03,0,0,1,.721-.257,1.03,1.03,0,0,1,.721.257.851.851,0,0,1,.282.659A.871.871,0,0,1,35.5-8.5,1.015,1.015,0,0,1,34.775-8.236Zm-.8,7.188V-7.27h1.606v6.222Zm3.287,0V-7.27h1.418L38.8-6.216a2.188,2.188,0,0,1,.834-.878,2.459,2.459,0,0,1,1.286-.326,2.263,2.263,0,0,1,1.794.728,3.139,3.139,0,0,1,.64,2.133v3.513H41.749V-4.41a1.993,1.993,0,0,0-.326-1.229,1.2,1.2,0,0,0-1.016-.427,1.432,1.432,0,0,0-1.11.477,1.907,1.907,0,0,0-.433,1.33v3.211Zm7.627,0V-10.08h1.606v5.331L48.7-7.27h1.907L48.059-4.435,51.02-1.048H49.013L46.491-4.171v3.124Z" transform="translate(114.173 377.46)" fill="#fff"/>
      <g id="Path_23649" data-name="Path 23649" transform="translate(0 69.067)" fill="none" opacity="0.3">
        <path d="M4.48,0H210.571a4.48,4.48,0,0,1,4.48,4.48V24.193a4.48,4.48,0,0,1-4.48,4.48H4.48A4.48,4.48,0,0,1,0,24.193V4.48A4.48,4.48,0,0,1,4.48,0Z" stroke="none"/>
        <path d="M 4.480239868164062 1.000011444091797 C 2.56121826171875 1.000011444091797 0.9999847412109375 2.561233520507812 0.9999847412109375 4.480234146118164 L 0.9999847412109375 24.19328880310059 C 0.9999847412109375 26.11228942871094 2.56121826171875 27.67351150512695 4.480239868164062 27.67351150512695 L 210.5711517333984 27.67351150512695 C 212.4901885986328 27.67351150512695 214.0514068603516 26.11228942871094 214.0514068603516 24.19328880310059 L 214.0514068603516 4.480234146118164 C 214.0514068603516 2.561233520507812 212.4901885986328 1.000011444091797 210.5711517333984 1.000011444091797 L 4.480239868164062 1.000011444091797 M 4.480239868164062 1.1444091796875e-05 L 210.5711517333984 1.1444091796875e-05 C 213.0455474853516 1.1444091796875e-05 215.0514068603516 2.00587272644043 215.0514068603516 4.480234146118164 L 215.0514068603516 24.19328880310059 C 215.0514068603516 26.66765022277832 213.0455474853516 28.67351150512695 210.5711517333984 28.67351150512695 L 4.480239868164062 28.67351150512695 C 2.005874633789062 28.67351150512695 -1.52587890625e-05 26.66765022277832 -1.52587890625e-05 24.19328880310059 L -1.52587890625e-05 4.480234146118164 C -1.52587890625e-05 2.00587272644043 2.005874633789062 1.1444091796875e-05 4.480239868164062 1.1444091796875e-05 Z" stroke="none" fill="#797979"/>
      </g>
      <path id="Path_23664" data-name="Path 23664" d="M.39-.946,3.4-9.1H4.432L7.426-.946H6.389l-.746-2.1H2.172l-.757,2.1ZM2.463-3.835H5.352L3.908-7.865ZM8.579-.946V-6.724h.885l.07.839a1.957,1.957,0,0,1,.746-.722,2.139,2.139,0,0,1,1.048-.256,2.367,2.367,0,0,1,1.182.28,1.839,1.839,0,0,1,.763.85,2.212,2.212,0,0,1,.833-.827,2.274,2.274,0,0,1,1.147-.3,2.224,2.224,0,0,1,1.654.623,2.625,2.625,0,0,1,.617,1.916V-.946h-.967V-4.219A2.141,2.141,0,0,0,16.2-5.57a1.247,1.247,0,0,0-1.037-.454A1.457,1.457,0,0,0,14-5.483a2.318,2.318,0,0,0-.46,1.543V-.946h-.978V-4.219A2.141,2.141,0,0,0,12.2-5.57a1.247,1.247,0,0,0-1.037-.454,1.445,1.445,0,0,0-1.147.542,2.318,2.318,0,0,0-.46,1.543V-.946Zm13.058.14a2.905,2.905,0,0,1-1.468-.373,2.693,2.693,0,0,1-1.031-1.054,3.246,3.246,0,0,1-.379-1.6,3.206,3.206,0,0,1,.384-1.6,2.721,2.721,0,0,1,1.043-1.054,2.937,2.937,0,0,1,1.474-.373,2.905,2.905,0,0,1,1.468.373,2.693,2.693,0,0,1,1.031,1.054,3.246,3.246,0,0,1,.379,1.6,3.206,3.206,0,0,1-.384,1.6,2.721,2.721,0,0,1-1.043,1.054A2.937,2.937,0,0,1,21.637-.806Zm0-.839a1.857,1.857,0,0,0,.932-.245,1.825,1.825,0,0,0,.7-.734,2.5,2.5,0,0,0,.268-1.211,2.541,2.541,0,0,0-.262-1.211,1.787,1.787,0,0,0-.693-.734,1.835,1.835,0,0,0-.92-.245,1.857,1.857,0,0,0-.932.245,1.825,1.825,0,0,0-.7.734,2.5,2.5,0,0,0-.268,1.211,2.5,2.5,0,0,0,.268,1.211,1.838,1.838,0,0,0,.693.734A1.8,1.8,0,0,0,21.637-1.645Zm6.372.839a2.169,2.169,0,0,1-1.631-.623,2.657,2.657,0,0,1-.606-1.916V-6.724h.978V-3.45q0,1.806,1.479,1.806a1.623,1.623,0,0,0,1.252-.542,2.208,2.208,0,0,0,.5-1.543V-6.724h.978V-.946h-.885L30-1.983a2.011,2.011,0,0,1-.8.862A2.3,2.3,0,0,1,28.009-.806Zm4.555-.14V-6.724h.885l.058,1.037a2.1,2.1,0,0,1,.8-.862A2.264,2.264,0,0,1,35.5-6.863a2.189,2.189,0,0,1,1.637.623,2.641,2.641,0,0,1,.612,1.916V-.946h-.978V-4.219q0-1.806-1.491-1.806a1.61,1.61,0,0,0-1.241.542,2.208,2.208,0,0,0-.5,1.543V-.946Zm8.946,0a1.869,1.869,0,0,1-1.246-.384,1.747,1.747,0,0,1-.454-1.386V-5.9h-1v-.827h1l.128-1.386h.85v1.386h1.7V-5.9h-1.7v3.18a.961.961,0,0,0,.221.74,1.206,1.206,0,0,0,.78.192h.606v.839Z" transform="translate(-0.041 62.845)" fill="#2a2a2a" opacity="0.8"/>
      <path id="Path_23662" data-name="Path 23662" d="M2.7-5.583,2.849-7.5,1.293-6.411.854-7.176,2.6-7.941.867-8.694l.414-.74L2.861-8.343l-.176-1.919h.853L3.35-8.343,4.918-9.434l.4.728-1.731.778,1.744.765-.414.74L3.35-7.5l.176,1.919Z" transform="translate(42.921 62.966)" fill="#cc5564"/>
      <path id="Path_23653" data-name="Path 23653" d="M.962-.946V-9.1H6.006v.8H1.94v2.842H5.656v.792H1.94V-1.75H6.006v.8Zm6.512,0V-6.724h.885l.058,1.037a2.1,2.1,0,0,1,.8-.862,2.264,2.264,0,0,1,1.188-.315,2.189,2.189,0,0,1,1.637.623,2.641,2.641,0,0,1,.612,1.916V-.946h-.978V-4.219q0-1.806-1.491-1.806a1.61,1.61,0,0,0-1.241.542,2.208,2.208,0,0,0-.5,1.543V-.946Zm8.946,0a1.869,1.869,0,0,1-1.246-.384,1.747,1.747,0,0,1-.454-1.386V-5.9h-1v-.827h1l.128-1.386h.85v1.386h1.7V-5.9H15.7v3.18a.961.961,0,0,0,.221.74,1.206,1.206,0,0,0,.78.192h.606v.839Zm4.659.14a2.83,2.83,0,0,1-1.468-.379A2.688,2.688,0,0,1,18.6-2.239a3.3,3.3,0,0,1-.367-1.6,3.347,3.347,0,0,1,.361-1.59,2.626,2.626,0,0,1,1.008-1.06,2.907,2.907,0,0,1,1.5-.379,2.7,2.7,0,0,1,1.45.379,2.565,2.565,0,0,1,.938,1,2.8,2.8,0,0,1,.326,1.328q0,.128-.006.256t-.006.291H19.2a2.27,2.27,0,0,0,.309,1.1,1.825,1.825,0,0,0,.687.658,1.837,1.837,0,0,0,.879.221,1.751,1.751,0,0,0,1.013-.28,1.6,1.6,0,0,0,.594-.757h.967a2.608,2.608,0,0,1-.891,1.334A2.6,2.6,0,0,1,21.079-.806Zm0-5.23a1.954,1.954,0,0,0-1.241.425,1.713,1.713,0,0,0-.623,1.241H22.85a1.653,1.653,0,0,0-.536-1.223A1.8,1.8,0,0,0,21.079-6.036Zm4.03,5.09V-6.724h.885l.082,1.107a2.1,2.1,0,0,1,.815-.909,2.528,2.528,0,0,1,1.351-.338v1.025h-.268a2.418,2.418,0,0,0-.944.181,1.433,1.433,0,0,0-.687.612,2.327,2.327,0,0,0-.256,1.188V-.946Zm9.237.14a2.619,2.619,0,0,1-1.2-.245,1.663,1.663,0,0,1-.711-.652,1.754,1.754,0,0,1-.233-.885,1.569,1.569,0,0,1,.676-1.363,3.137,3.137,0,0,1,1.84-.478h1.561V-4.5a1.542,1.542,0,0,0-.4-1.147,1.445,1.445,0,0,0-1.06-.39,1.69,1.69,0,0,0-.984.285,1.25,1.25,0,0,0-.518.833h-1a1.854,1.854,0,0,1,.425-1.06,2.376,2.376,0,0,1,.914-.658,3.009,3.009,0,0,1,1.165-.227,2.394,2.394,0,0,1,1.823.646A2.4,2.4,0,0,1,37.259-4.5V-.946h-.874l-.058-1.037a2.292,2.292,0,0,1-.716.833A2.1,2.1,0,0,1,34.347-.806Zm.151-.827a1.594,1.594,0,0,0,.961-.291,1.859,1.859,0,0,0,.612-.757,2.358,2.358,0,0,0,.21-.978v-.012H34.8a1.92,1.92,0,0,0-1.217.3.926.926,0,0,0-.355.74.9.9,0,0,0,.332.728A1.436,1.436,0,0,0,34.5-1.633Zm4.228.687V-6.724h.885l.07.839a1.957,1.957,0,0,1,.746-.722,2.139,2.139,0,0,1,1.048-.256,2.367,2.367,0,0,1,1.182.28,1.839,1.839,0,0,1,.763.85,2.212,2.212,0,0,1,.833-.827,2.274,2.274,0,0,1,1.147-.3,2.224,2.224,0,0,1,1.654.623,2.625,2.625,0,0,1,.617,1.916V-.946h-.967V-4.219a2.141,2.141,0,0,0-.361-1.351,1.247,1.247,0,0,0-1.037-.454,1.457,1.457,0,0,0-1.159.542,2.318,2.318,0,0,0-.46,1.543V-.946h-.978V-4.219A2.141,2.141,0,0,0,42.35-5.57a1.247,1.247,0,0,0-1.037-.454,1.445,1.445,0,0,0-1.147.542,2.318,2.318,0,0,0-.46,1.543V-.946Zm13.058.14a2.905,2.905,0,0,1-1.468-.373,2.693,2.693,0,0,1-1.031-1.054,3.246,3.246,0,0,1-.379-1.6,3.206,3.206,0,0,1,.384-1.6,2.721,2.721,0,0,1,1.043-1.054,2.937,2.937,0,0,1,1.474-.373,2.905,2.905,0,0,1,1.468.373,2.693,2.693,0,0,1,1.031,1.054,3.246,3.246,0,0,1,.379,1.6,3.206,3.206,0,0,1-.384,1.6,2.721,2.721,0,0,1-1.043,1.054A2.937,2.937,0,0,1,51.785-.806Zm0-.839a1.857,1.857,0,0,0,.932-.245,1.825,1.825,0,0,0,.7-.734,2.5,2.5,0,0,0,.268-1.211,2.541,2.541,0,0,0-.262-1.211,1.787,1.787,0,0,0-.693-.734,1.835,1.835,0,0,0-.92-.245,1.857,1.857,0,0,0-.932.245,1.825,1.825,0,0,0-.7.734,2.5,2.5,0,0,0-.268,1.211,2.5,2.5,0,0,0,.268,1.211,1.838,1.838,0,0,0,.693.734A1.8,1.8,0,0,0,51.785-1.645Zm6.372.839a2.169,2.169,0,0,1-1.631-.623,2.657,2.657,0,0,1-.606-1.916V-6.724H56.9V-3.45q0,1.806,1.479,1.806a1.623,1.623,0,0,0,1.252-.542,2.208,2.208,0,0,0,.5-1.543V-6.724H61.1V-.946h-.885l-.07-1.037a2.011,2.011,0,0,1-.8.862A2.3,2.3,0,0,1,58.157-.806Zm4.555-.14V-6.724H63.6l.058,1.037a2.1,2.1,0,0,1,.8-.862,2.264,2.264,0,0,1,1.188-.315,2.189,2.189,0,0,1,1.637.623,2.641,2.641,0,0,1,.612,1.916V-.946h-.978V-4.219q0-1.806-1.491-1.806a1.61,1.61,0,0,0-1.241.542,2.207,2.207,0,0,0-.5,1.543V-.946Zm8.946,0a1.869,1.869,0,0,1-1.246-.384,1.747,1.747,0,0,1-.454-1.386V-5.9h-1v-.827h1l.128-1.386h.85v1.386h1.7V-5.9h-1.7v3.18a.961.961,0,0,0,.221.74,1.206,1.206,0,0,0,.78.192h.606v.839Zm7.595,0a1.869,1.869,0,0,1-1.246-.384,1.747,1.747,0,0,1-.454-1.386V-5.9h-1v-.827h1L77.68-8.11h.85v1.386h1.7V-5.9h-1.7v3.18a.961.961,0,0,0,.221.74,1.206,1.206,0,0,0,.78.192h.606v.839Zm4.694.14a2.905,2.905,0,0,1-1.468-.373,2.693,2.693,0,0,1-1.031-1.054,3.246,3.246,0,0,1-.379-1.6,3.206,3.206,0,0,1,.384-1.6A2.721,2.721,0,0,1,82.5-6.491a2.937,2.937,0,0,1,1.474-.373,2.905,2.905,0,0,1,1.468.373,2.693,2.693,0,0,1,1.031,1.054,3.246,3.246,0,0,1,.379,1.6,3.206,3.206,0,0,1-.384,1.6A2.721,2.721,0,0,1,85.42-1.179,2.937,2.937,0,0,1,83.947-.806Zm0-.839a1.857,1.857,0,0,0,.932-.245,1.825,1.825,0,0,0,.7-.734,2.5,2.5,0,0,0,.268-1.211,2.541,2.541,0,0,0-.262-1.211,1.787,1.787,0,0,0-.693-.734,1.835,1.835,0,0,0-.92-.245,1.857,1.857,0,0,0-.932.245,1.825,1.825,0,0,0-.7.734,2.5,2.5,0,0,0-.268,1.211,2.5,2.5,0,0,0,.268,1.211,1.838,1.838,0,0,0,.693.734A1.8,1.8,0,0,0,83.947-1.645ZM91.3,1.617v-8.34h.885l.093.955a2.727,2.727,0,0,1,.8-.757A2.378,2.378,0,0,1,94.4-6.863a2.8,2.8,0,0,1,1.5.4,2.71,2.71,0,0,1,1,1.083,3.349,3.349,0,0,1,.355,1.561,3.314,3.314,0,0,1-.355,1.555,2.666,2.666,0,0,1-1,1.072,2.862,2.862,0,0,1-1.508.39A2.673,2.673,0,0,1,93.12-1.1a2.014,2.014,0,0,1-.845-.815v3.53Zm2.982-3.273A1.909,1.909,0,0,0,95.3-1.93a1.927,1.927,0,0,0,.7-.763,2.426,2.426,0,0,0,.256-1.142A2.426,2.426,0,0,0,96-4.976a1.927,1.927,0,0,0-.7-.763,1.909,1.909,0,0,0-1.025-.274,1.909,1.909,0,0,0-1.025.274,1.927,1.927,0,0,0-.7.763A2.426,2.426,0,0,0,92.3-3.835a2.426,2.426,0,0,0,.256,1.142,1.927,1.927,0,0,0,.7.763A1.909,1.909,0,0,0,94.279-1.657Zm6.255.85a2.619,2.619,0,0,1-1.2-.245,1.663,1.663,0,0,1-.711-.652,1.754,1.754,0,0,1-.233-.885,1.569,1.569,0,0,1,.676-1.363,3.137,3.137,0,0,1,1.84-.478h1.561V-4.5a1.542,1.542,0,0,0-.4-1.147,1.445,1.445,0,0,0-1.06-.39,1.69,1.69,0,0,0-.984.285,1.25,1.25,0,0,0-.518.833h-1a1.854,1.854,0,0,1,.425-1.06,2.376,2.376,0,0,1,.914-.658,3.009,3.009,0,0,1,1.165-.227,2.394,2.394,0,0,1,1.823.646,2.4,2.4,0,0,1,.612,1.718V-.946h-.874l-.058-1.037a2.292,2.292,0,0,1-.716.833A2.1,2.1,0,0,1,100.534-.806Zm.151-.827a1.594,1.594,0,0,0,.961-.291,1.859,1.859,0,0,0,.612-.757,2.358,2.358,0,0,0,.21-.978v-.012h-1.479a1.92,1.92,0,0,0-1.217.3.926.926,0,0,0-.355.74.9.9,0,0,0,.332.728A1.436,1.436,0,0,0,100.686-1.633Zm4.683,3.25L106.8-1.505h-.338l-2.295-5.219h1.06l1.91,4.5,2.027-4.5h1.013l-3.786,8.34Z" transform="translate(9.756 88.83)" fill="#2a2a2a" opacity="0.5"/>
      <g id="Path_23651" data-name="Path 23651" transform="translate(0 131.791)" fill="none" opacity="0.3">
        <path d="M4.48,0H210.571a4.48,4.48,0,0,1,4.48,4.48V24.193a4.48,4.48,0,0,1-4.48,4.48H4.48A4.48,4.48,0,0,1,0,24.193V4.48A4.48,4.48,0,0,1,4.48,0Z" stroke="none"/>
        <path d="M 4.480239868164062 1.000011444091797 C 2.56121826171875 1.000011444091797 0.9999847412109375 2.561233520507812 0.9999847412109375 4.480234146118164 L 0.9999847412109375 24.19328880310059 C 0.9999847412109375 26.11228942871094 2.56121826171875 27.67351150512695 4.480239868164062 27.67351150512695 L 210.5711517333984 27.67351150512695 C 212.4901885986328 27.67351150512695 214.0514068603516 26.11228942871094 214.0514068603516 24.19328880310059 L 214.0514068603516 4.480234146118164 C 214.0514068603516 2.561233520507812 212.4901885986328 1.000011444091797 210.5711517333984 1.000011444091797 L 4.480239868164062 1.000011444091797 M 4.480239868164062 1.1444091796875e-05 L 210.5711517333984 1.1444091796875e-05 C 213.0455474853516 1.1444091796875e-05 215.0514068603516 2.00587272644043 215.0514068603516 4.480234146118164 L 215.0514068603516 24.19328880310059 C 215.0514068603516 26.66765022277832 213.0455474853516 28.67351150512695 210.5711517333984 28.67351150512695 L 4.480239868164062 28.67351150512695 C 2.005874633789062 28.67351150512695 -1.52587890625e-05 26.66765022277832 -1.52587890625e-05 24.19328880310059 L -1.52587890625e-05 4.480234146118164 C -1.52587890625e-05 2.00587272644043 2.005874633789062 1.1444091796875e-05 4.480239868164062 1.1444091796875e-05 Z" stroke="none" fill="#797979"/>
      </g>
      <path id="Path_23656" data-name="Path 23656" d="M.962-.973V-9.127H3.595a3.381,3.381,0,0,1,1.561.315,2.052,2.052,0,0,1,.9.862,2.539,2.539,0,0,1,.291,1.211A2.435,2.435,0,0,1,5.93-5.353a2.235,2.235,0,0,1-1.287.874L6.425-.973H5.272L3.618-4.339H1.94V-.973ZM1.94-5.108H3.525A1.821,1.821,0,0,0,4.9-5.563,1.624,1.624,0,0,0,5.33-6.727a1.55,1.55,0,0,0-.425-1.147A1.914,1.914,0,0,0,3.513-8.3H1.94ZM10.06-.833a2.83,2.83,0,0,1-1.468-.379A2.688,2.688,0,0,1,7.584-2.266a3.3,3.3,0,0,1-.367-1.6,3.347,3.347,0,0,1,.361-1.59,2.626,2.626,0,0,1,1.008-1.06,2.907,2.907,0,0,1,1.5-.379,2.7,2.7,0,0,1,1.45.379,2.565,2.565,0,0,1,.938,1A2.8,2.8,0,0,1,12.8-4.188q0,.128-.006.256t-.006.291h-4.6a2.27,2.27,0,0,0,.309,1.1,1.825,1.825,0,0,0,.687.658,1.837,1.837,0,0,0,.879.221,1.751,1.751,0,0,0,1.013-.28,1.6,1.6,0,0,0,.594-.757h.967a2.608,2.608,0,0,1-.891,1.334A2.6,2.6,0,0,1,10.06-.833Zm0-5.23a1.954,1.954,0,0,0-1.241.425A1.713,1.713,0,0,0,8.2-4.4H11.83a1.653,1.653,0,0,0-.536-1.223A1.8,1.8,0,0,0,10.06-6.063Zm5.952,5.23a2.619,2.619,0,0,1-1.2-.245A1.663,1.663,0,0,1,14.1-1.73a1.754,1.754,0,0,1-.233-.885,1.569,1.569,0,0,1,.676-1.363,3.137,3.137,0,0,1,1.84-.478h1.561v-.07a1.542,1.542,0,0,0-.4-1.147,1.445,1.445,0,0,0-1.06-.39,1.69,1.69,0,0,0-.984.285,1.25,1.25,0,0,0-.518.833h-1a1.854,1.854,0,0,1,.425-1.06,2.376,2.376,0,0,1,.914-.658A3.009,3.009,0,0,1,16.49-6.89a2.394,2.394,0,0,1,1.823.646,2.4,2.4,0,0,1,.612,1.718V-.973h-.874L17.992-2.01a2.292,2.292,0,0,1-.716.833A2.1,2.1,0,0,1,16.012-.833Zm.151-.827a1.594,1.594,0,0,0,.961-.291,1.859,1.859,0,0,0,.612-.757,2.358,2.358,0,0,0,.21-.978V-3.7H16.466a1.92,1.92,0,0,0-1.217.3.926.926,0,0,0-.355.74.9.9,0,0,0,.332.728A1.436,1.436,0,0,0,16.163-1.66Zm6.442.827a2.76,2.76,0,0,1-1.724-.524,2.044,2.044,0,0,1-.8-1.421h1a1.382,1.382,0,0,0,.483.786,1.573,1.573,0,0,0,1.054.332,1.329,1.329,0,0,0,.909-.262.812.812,0,0,0,.291-.623.692.692,0,0,0-.379-.7,5.039,5.039,0,0,0-1.066-.315,6.008,6.008,0,0,1-.932-.268,2.117,2.117,0,0,1-.78-.5,1.154,1.154,0,0,1-.315-.845,1.559,1.559,0,0,1,.565-1.241,2.278,2.278,0,0,1,1.532-.483,2.376,2.376,0,0,1,1.508.46,1.836,1.836,0,0,1,.681,1.31h-.967a1.008,1.008,0,0,0-.379-.693,1.353,1.353,0,0,0-.856-.25,1.3,1.3,0,0,0-.81.221.7.7,0,0,0-.285.582.605.605,0,0,0,.367.547,3.939,3.939,0,0,0,1,.338,8.676,8.676,0,0,1,1.019.285,1.926,1.926,0,0,1,.792.5,1.361,1.361,0,0,1,.309.961A1.578,1.578,0,0,1,24.23-1.34,2.437,2.437,0,0,1,22.605-.833Zm6.244,0a2.905,2.905,0,0,1-1.468-.373A2.693,2.693,0,0,1,26.35-2.26a3.246,3.246,0,0,1-.379-1.6,3.206,3.206,0,0,1,.384-1.6A2.721,2.721,0,0,1,27.4-6.518a2.937,2.937,0,0,1,1.474-.373,2.905,2.905,0,0,1,1.468.373,2.693,2.693,0,0,1,1.031,1.054,3.246,3.246,0,0,1,.379,1.6,3.206,3.206,0,0,1-.384,1.6,2.721,2.721,0,0,1-1.043,1.054A2.937,2.937,0,0,1,28.849-.833Zm0-.839a1.857,1.857,0,0,0,.932-.245,1.825,1.825,0,0,0,.7-.734,2.5,2.5,0,0,0,.268-1.211,2.541,2.541,0,0,0-.262-1.211,1.787,1.787,0,0,0-.693-.734,1.835,1.835,0,0,0-.92-.245,1.857,1.857,0,0,0-.932.245,1.825,1.825,0,0,0-.7.734,2.5,2.5,0,0,0-.268,1.211,2.5,2.5,0,0,0,.268,1.211,1.838,1.838,0,0,0,.693.734A1.8,1.8,0,0,0,28.849-1.672Zm4.263.7V-6.751H34l.058,1.037a2.1,2.1,0,0,1,.8-.862,2.264,2.264,0,0,1,1.188-.315,2.189,2.189,0,0,1,1.637.623A2.641,2.641,0,0,1,38.3-4.351V-.973h-.978V-4.246q0-1.806-1.491-1.806a1.61,1.61,0,0,0-1.241.542,2.208,2.208,0,0,0-.5,1.543V-.973Zm12.382.14a2.905,2.905,0,0,1-1.468-.373A2.693,2.693,0,0,1,43-2.26a3.246,3.246,0,0,1-.379-1.6A3.206,3.206,0,0,1,43-5.464a2.721,2.721,0,0,1,1.043-1.054,2.937,2.937,0,0,1,1.474-.373,2.905,2.905,0,0,1,1.468.373,2.693,2.693,0,0,1,1.031,1.054,3.246,3.246,0,0,1,.379,1.6,3.206,3.206,0,0,1-.384,1.6,2.721,2.721,0,0,1-1.043,1.054A2.937,2.937,0,0,1,45.495-.833Zm0-.839a1.857,1.857,0,0,0,.932-.245,1.825,1.825,0,0,0,.7-.734,2.5,2.5,0,0,0,.268-1.211,2.541,2.541,0,0,0-.262-1.211,1.787,1.787,0,0,0-.693-.734,1.835,1.835,0,0,0-.92-.245,1.857,1.857,0,0,0-.932.245,1.825,1.825,0,0,0-.7.734,2.5,2.5,0,0,0-.268,1.211,2.5,2.5,0,0,0,.268,1.211,1.838,1.838,0,0,0,.693.734A1.8,1.8,0,0,0,45.495-1.672Zm4.578.7V-5.924H49.2v-.827h.874v-1a1.586,1.586,0,0,1,.419-1.223,1.75,1.75,0,0,1,1.223-.384H52.3v.839h-.431a.889.889,0,0,0-.629.181.829.829,0,0,0-.186.612v.978h1.421v.827H51.051V-.973Zm6.71,0V-9.127h2.679a3.456,3.456,0,0,1,1.573.315,2.1,2.1,0,0,1,.914.85,2.456,2.456,0,0,1,.3,1.211,2.471,2.471,0,0,1-.291,1.2,2.093,2.093,0,0,1-.909.856,3.431,3.431,0,0,1-1.584.32h-1.7v3.4ZM57.761-5.2h1.677a1.924,1.924,0,0,0,1.392-.414,1.535,1.535,0,0,0,.414-1.136A1.551,1.551,0,0,0,60.83-7.9a1.924,1.924,0,0,0-1.392-.414H57.761ZM65.123-.833a2.619,2.619,0,0,1-1.2-.245,1.663,1.663,0,0,1-.711-.652,1.754,1.754,0,0,1-.233-.885,1.569,1.569,0,0,1,.676-1.363,3.137,3.137,0,0,1,1.84-.478h1.561v-.07a1.542,1.542,0,0,0-.4-1.147,1.445,1.445,0,0,0-1.06-.39,1.69,1.69,0,0,0-.984.285,1.25,1.25,0,0,0-.518.833h-1a1.854,1.854,0,0,1,.425-1.06,2.376,2.376,0,0,1,.914-.658A3.009,3.009,0,0,1,65.6-6.89a2.394,2.394,0,0,1,1.823.646,2.4,2.4,0,0,1,.612,1.718V-.973h-.874L67.1-2.01a2.292,2.292,0,0,1-.716.833A2.1,2.1,0,0,1,65.123-.833Zm.151-.827a1.594,1.594,0,0,0,.961-.291,1.859,1.859,0,0,0,.612-.757,2.358,2.358,0,0,0,.21-.978V-3.7H65.577a1.92,1.92,0,0,0-1.217.3.926.926,0,0,0-.355.74.9.9,0,0,0,.332.728A1.436,1.436,0,0,0,65.274-1.66Zm4.683,3.25L71.39-1.532h-.338L68.757-6.751h1.06l1.91,4.5,2.027-4.5h1.013L70.982,1.59ZM75.8-.973V-6.751h.885l.07.839a1.957,1.957,0,0,1,.746-.722,2.139,2.139,0,0,1,1.048-.256,2.367,2.367,0,0,1,1.182.28,1.839,1.839,0,0,1,.763.85,2.212,2.212,0,0,1,.833-.827,2.274,2.274,0,0,1,1.147-.3,2.224,2.224,0,0,1,1.654.623,2.625,2.625,0,0,1,.617,1.916V-.973h-.967V-4.246A2.141,2.141,0,0,0,83.423-5.6a1.247,1.247,0,0,0-1.037-.454,1.457,1.457,0,0,0-1.159.542,2.318,2.318,0,0,0-.46,1.543V-.973h-.978V-4.246A2.141,2.141,0,0,0,79.427-5.6a1.247,1.247,0,0,0-1.037-.454,1.445,1.445,0,0,0-1.147.542,2.318,2.318,0,0,0-.46,1.543V-.973Zm13.023.14a2.83,2.83,0,0,1-1.468-.379,2.688,2.688,0,0,1-1.008-1.054,3.3,3.3,0,0,1-.367-1.6,3.347,3.347,0,0,1,.361-1.59,2.626,2.626,0,0,1,1.008-1.06,2.907,2.907,0,0,1,1.5-.379,2.7,2.7,0,0,1,1.45.379,2.565,2.565,0,0,1,.938,1,2.8,2.8,0,0,1,.326,1.328q0,.128-.006.256t-.006.291h-4.6a2.27,2.27,0,0,0,.309,1.1,1.825,1.825,0,0,0,.687.658,1.837,1.837,0,0,0,.879.221,1.751,1.751,0,0,0,1.013-.28,1.6,1.6,0,0,0,.594-.757H91.4a2.608,2.608,0,0,1-.891,1.334A2.6,2.6,0,0,1,88.828-.833Zm0-5.23a1.954,1.954,0,0,0-1.241.425A1.713,1.713,0,0,0,86.964-4.4H90.6a1.653,1.653,0,0,0-.536-1.223A1.8,1.8,0,0,0,88.828-6.063Zm4.03,5.09V-6.751h.885L93.8-5.714a2.1,2.1,0,0,1,.8-.862,2.264,2.264,0,0,1,1.188-.315,2.189,2.189,0,0,1,1.637.623,2.641,2.641,0,0,1,.612,1.916V-.973h-.978V-4.246q0-1.806-1.491-1.806a1.61,1.61,0,0,0-1.241.542,2.208,2.208,0,0,0-.5,1.543V-.973Zm8.946,0a1.869,1.869,0,0,1-1.246-.384,1.747,1.747,0,0,1-.454-1.386v-3.18h-1v-.827h1l.128-1.386h.85v1.386h1.7v.827h-1.7v3.18A.961.961,0,0,0,101.3-2a1.206,1.206,0,0,0,.78.192h.606v.839Z" transform="translate(-0.1 125.595)" fill="#2a2a2a" opacity="0.8"/>
      <path id="Path_23657" data-name="Path 23657" d="M2.7-5.583,2.849-7.5,1.293-6.411.854-7.176,2.6-7.941.867-8.694l.414-.74L2.861-8.343l-.176-1.919h.853L3.35-8.343,4.918-9.434l.4.728-1.731.778,1.744.765-.414.74L3.35-7.5l.176,1.919Z" transform="translate(103.852 125.689)" fill="#cc5564"/>
      <path id="Path_23652" data-name="Path 23652" d="M.962-.973V-9.127H6.006v.8H1.94v2.842H5.656v.792H1.94v2.912H6.006v.8Zm6.512,0V-6.751h.885l.058,1.037a2.1,2.1,0,0,1,.8-.862,2.264,2.264,0,0,1,1.188-.315,2.189,2.189,0,0,1,1.637.623,2.641,2.641,0,0,1,.612,1.916V-.973h-.978V-4.246q0-1.806-1.491-1.806a1.61,1.61,0,0,0-1.241.542,2.208,2.208,0,0,0-.5,1.543V-.973Zm8.946,0a1.869,1.869,0,0,1-1.246-.384,1.747,1.747,0,0,1-.454-1.386v-3.18h-1v-.827h1l.128-1.386h.85v1.386h1.7v.827H15.7v3.18a.961.961,0,0,0,.221.74,1.206,1.206,0,0,0,.78.192h.606v.839Zm4.659.14a2.83,2.83,0,0,1-1.468-.379A2.688,2.688,0,0,1,18.6-2.266a3.3,3.3,0,0,1-.367-1.6,3.347,3.347,0,0,1,.361-1.59,2.626,2.626,0,0,1,1.008-1.06,2.907,2.907,0,0,1,1.5-.379,2.7,2.7,0,0,1,1.45.379,2.565,2.565,0,0,1,.938,1,2.8,2.8,0,0,1,.326,1.328q0,.128-.006.256t-.006.291H19.2a2.27,2.27,0,0,0,.309,1.1,1.825,1.825,0,0,0,.687.658,1.837,1.837,0,0,0,.879.221,1.751,1.751,0,0,0,1.013-.28,1.6,1.6,0,0,0,.594-.757h.967a2.608,2.608,0,0,1-.891,1.334A2.6,2.6,0,0,1,21.079-.833Zm0-5.23a1.954,1.954,0,0,0-1.241.425A1.713,1.713,0,0,0,19.215-4.4H22.85a1.653,1.653,0,0,0-.536-1.223A1.8,1.8,0,0,0,21.079-6.063Zm4.03,5.09V-6.751h.885l.082,1.107a2.1,2.1,0,0,1,.815-.909,2.528,2.528,0,0,1,1.351-.338v1.025h-.268a2.418,2.418,0,0,0-.944.181,1.433,1.433,0,0,0-.687.612,2.327,2.327,0,0,0-.256,1.188V-.973Zm7.315,0V-6.751h.885l.082,1.107a2.1,2.1,0,0,1,.815-.909,2.528,2.528,0,0,1,1.351-.338v1.025H35.29a2.418,2.418,0,0,0-.944.181,1.433,1.433,0,0,0-.687.612A2.327,2.327,0,0,0,33.4-3.885V-.973Zm6.6.14a2.83,2.83,0,0,1-1.468-.379,2.688,2.688,0,0,1-1.008-1.054,3.3,3.3,0,0,1-.367-1.6,3.347,3.347,0,0,1,.361-1.59,2.626,2.626,0,0,1,1.008-1.06,2.907,2.907,0,0,1,1.5-.379,2.7,2.7,0,0,1,1.45.379,2.565,2.565,0,0,1,.938,1,2.8,2.8,0,0,1,.326,1.328q0,.128-.006.256t-.006.291h-4.6a2.27,2.27,0,0,0,.309,1.1,1.825,1.825,0,0,0,.687.658,1.837,1.837,0,0,0,.879.221,1.751,1.751,0,0,0,1.013-.28,1.6,1.6,0,0,0,.594-.757H41.6a2.608,2.608,0,0,1-.891,1.334A2.6,2.6,0,0,1,39.03-.833Zm0-5.23a1.954,1.954,0,0,0-1.241.425A1.713,1.713,0,0,0,37.166-4.4H40.8a1.653,1.653,0,0,0-.536-1.223A1.8,1.8,0,0,0,39.03-6.063Zm5.952,5.23a2.619,2.619,0,0,1-1.2-.245,1.663,1.663,0,0,1-.711-.652,1.754,1.754,0,0,1-.233-.885,1.569,1.569,0,0,1,.676-1.363,3.137,3.137,0,0,1,1.84-.478h1.561v-.07a1.542,1.542,0,0,0-.4-1.147,1.445,1.445,0,0,0-1.06-.39,1.69,1.69,0,0,0-.984.285,1.25,1.25,0,0,0-.518.833h-1a1.854,1.854,0,0,1,.425-1.06,2.376,2.376,0,0,1,.914-.658A3.009,3.009,0,0,1,45.46-6.89a2.394,2.394,0,0,1,1.823.646,2.4,2.4,0,0,1,.612,1.718V-.973h-.874L46.962-2.01a2.292,2.292,0,0,1-.716.833A2.1,2.1,0,0,1,44.982-.833Zm.151-.827a1.594,1.594,0,0,0,.961-.291,1.859,1.859,0,0,0,.612-.757,2.358,2.358,0,0,0,.21-.978V-3.7H45.436a1.92,1.92,0,0,0-1.217.3.926.926,0,0,0-.355.74.9.9,0,0,0,.332.728A1.436,1.436,0,0,0,45.134-1.66Zm6.442.827a2.76,2.76,0,0,1-1.724-.524,2.044,2.044,0,0,1-.8-1.421h1a1.382,1.382,0,0,0,.483.786,1.573,1.573,0,0,0,1.054.332,1.329,1.329,0,0,0,.909-.262.812.812,0,0,0,.291-.623.692.692,0,0,0-.379-.7,5.039,5.039,0,0,0-1.066-.315,6.008,6.008,0,0,1-.932-.268,2.117,2.117,0,0,1-.78-.5,1.154,1.154,0,0,1-.315-.845,1.559,1.559,0,0,1,.565-1.241,2.278,2.278,0,0,1,1.532-.483,2.376,2.376,0,0,1,1.508.46A1.836,1.836,0,0,1,53.6-5.12h-.967a1.008,1.008,0,0,0-.379-.693,1.353,1.353,0,0,0-.856-.25,1.3,1.3,0,0,0-.81.221.7.7,0,0,0-.285.582.605.605,0,0,0,.367.547,3.939,3.939,0,0,0,1,.338,8.676,8.676,0,0,1,1.019.285,1.926,1.926,0,0,1,.792.5,1.361,1.361,0,0,1,.309.961A1.578,1.578,0,0,1,53.2-1.34,2.437,2.437,0,0,1,51.575-.833Zm6.244,0a2.905,2.905,0,0,1-1.468-.373A2.693,2.693,0,0,1,55.32-2.26a3.246,3.246,0,0,1-.379-1.6,3.206,3.206,0,0,1,.384-1.6,2.721,2.721,0,0,1,1.043-1.054,2.937,2.937,0,0,1,1.474-.373,2.905,2.905,0,0,1,1.468.373,2.693,2.693,0,0,1,1.031,1.054,3.246,3.246,0,0,1,.379,1.6,3.206,3.206,0,0,1-.384,1.6,2.721,2.721,0,0,1-1.043,1.054A2.937,2.937,0,0,1,57.819-.833Zm0-.839a1.857,1.857,0,0,0,.932-.245,1.825,1.825,0,0,0,.7-.734,2.5,2.5,0,0,0,.268-1.211,2.541,2.541,0,0,0-.262-1.211,1.787,1.787,0,0,0-.693-.734,1.835,1.835,0,0,0-.92-.245,1.857,1.857,0,0,0-.932.245,1.825,1.825,0,0,0-.7.734,2.5,2.5,0,0,0-.268,1.211,2.5,2.5,0,0,0,.268,1.211,1.838,1.838,0,0,0,.693.734A1.8,1.8,0,0,0,57.819-1.672Zm4.263.7V-6.751h.885l.058,1.037a2.1,2.1,0,0,1,.8-.862,2.264,2.264,0,0,1,1.188-.315,2.189,2.189,0,0,1,1.637.623,2.641,2.641,0,0,1,.612,1.916V-.973h-.978V-4.246q0-1.806-1.491-1.806a1.61,1.61,0,0,0-1.241.542,2.208,2.208,0,0,0-.5,1.543V-.973Zm12.382.14A2.905,2.905,0,0,1,73-1.206,2.693,2.693,0,0,1,71.966-2.26a3.246,3.246,0,0,1-.379-1.6,3.206,3.206,0,0,1,.384-1.6,2.721,2.721,0,0,1,1.043-1.054,2.937,2.937,0,0,1,1.474-.373,2.905,2.905,0,0,1,1.468.373,2.693,2.693,0,0,1,1.031,1.054,3.246,3.246,0,0,1,.379,1.6,3.206,3.206,0,0,1-.384,1.6,2.721,2.721,0,0,1-1.043,1.054A2.937,2.937,0,0,1,74.465-.833Zm0-.839a1.857,1.857,0,0,0,.932-.245,1.825,1.825,0,0,0,.7-.734,2.5,2.5,0,0,0,.268-1.211A2.541,2.541,0,0,0,76.1-5.073a1.787,1.787,0,0,0-.693-.734,1.835,1.835,0,0,0-.92-.245,1.857,1.857,0,0,0-.932.245,1.825,1.825,0,0,0-.7.734,2.5,2.5,0,0,0-.268,1.211,2.5,2.5,0,0,0,.268,1.211,1.838,1.838,0,0,0,.693.734A1.8,1.8,0,0,0,74.465-1.672Zm4.578.7V-5.924h-.874v-.827h.874v-1a1.586,1.586,0,0,1,.419-1.223,1.75,1.75,0,0,1,1.223-.384h.582v.839h-.431a.889.889,0,0,0-.629.181.829.829,0,0,0-.186.612v.978h1.421v.827H80.021V-.973ZM85.694,1.59v-8.34h.885l.093.955a2.727,2.727,0,0,1,.8-.757,2.378,2.378,0,0,1,1.322-.338,2.8,2.8,0,0,1,1.5.4,2.71,2.71,0,0,1,1,1.083,3.349,3.349,0,0,1,.355,1.561A3.314,3.314,0,0,1,91.291-2.3a2.665,2.665,0,0,1-1,1.072,2.862,2.862,0,0,1-1.508.39,2.673,2.673,0,0,1-1.264-.291,2.014,2.014,0,0,1-.845-.815V1.59Zm2.982-3.273A1.909,1.909,0,0,0,89.7-1.957a1.926,1.926,0,0,0,.7-.763,2.426,2.426,0,0,0,.256-1.142A2.426,2.426,0,0,0,90.4-5a1.926,1.926,0,0,0-.7-.763,1.909,1.909,0,0,0-1.025-.274,1.909,1.909,0,0,0-1.025.274,1.926,1.926,0,0,0-.7.763A2.426,2.426,0,0,0,86.7-3.862a2.426,2.426,0,0,0,.256,1.142,1.926,1.926,0,0,0,.7.763A1.909,1.909,0,0,0,88.676-1.684Zm6.255.85a2.619,2.619,0,0,1-1.2-.245,1.663,1.663,0,0,1-.711-.652,1.754,1.754,0,0,1-.233-.885,1.569,1.569,0,0,1,.676-1.363,3.137,3.137,0,0,1,1.84-.478h1.561v-.07a1.542,1.542,0,0,0-.4-1.147,1.445,1.445,0,0,0-1.06-.39,1.69,1.69,0,0,0-.984.285,1.25,1.25,0,0,0-.518.833h-1a1.854,1.854,0,0,1,.425-1.06,2.376,2.376,0,0,1,.914-.658,3.009,3.009,0,0,1,1.165-.227,2.394,2.394,0,0,1,1.823.646,2.4,2.4,0,0,1,.612,1.718V-.973H96.97L96.912-2.01a2.291,2.291,0,0,1-.716.833A2.1,2.1,0,0,1,94.931-.833Zm.151-.827a1.594,1.594,0,0,0,.961-.291,1.859,1.859,0,0,0,.612-.757,2.358,2.358,0,0,0,.21-.978V-3.7H95.386a1.92,1.92,0,0,0-1.217.3.926.926,0,0,0-.355.74.9.9,0,0,0,.332.728A1.436,1.436,0,0,0,95.083-1.66Zm4.683,3.25L101.2-1.532h-.338L98.566-6.751h1.06l1.91,4.5,2.027-4.5h1.013l-3.786,8.34Zm5.848-2.563V-6.751h.885l.07.839a1.957,1.957,0,0,1,.746-.722,2.139,2.139,0,0,1,1.048-.256,2.367,2.367,0,0,1,1.182.28,1.839,1.839,0,0,1,.763.85,2.212,2.212,0,0,1,.833-.827,2.274,2.274,0,0,1,1.147-.3,2.224,2.224,0,0,1,1.654.623,2.625,2.625,0,0,1,.617,1.916V-.973h-.967V-4.246a2.141,2.141,0,0,0-.361-1.351,1.247,1.247,0,0,0-1.037-.454,1.457,1.457,0,0,0-1.159.542,2.318,2.318,0,0,0-.46,1.543V-.973H109.6V-4.246a2.141,2.141,0,0,0-.361-1.351,1.247,1.247,0,0,0-1.037-.454,1.445,1.445,0,0,0-1.147.542,2.318,2.318,0,0,0-.46,1.543V-.973Zm13.023.14a2.83,2.83,0,0,1-1.468-.379,2.688,2.688,0,0,1-1.008-1.054,3.3,3.3,0,0,1-.367-1.6,3.347,3.347,0,0,1,.361-1.59,2.626,2.626,0,0,1,1.008-1.06,2.907,2.907,0,0,1,1.5-.379,2.7,2.7,0,0,1,1.45.379,2.565,2.565,0,0,1,.938,1,2.8,2.8,0,0,1,.326,1.328q0,.128-.006.256t-.006.291h-4.6a2.27,2.27,0,0,0,.309,1.1,1.825,1.825,0,0,0,.687.658,1.837,1.837,0,0,0,.879.221,1.75,1.75,0,0,0,1.013-.28,1.6,1.6,0,0,0,.594-.757h.967a2.608,2.608,0,0,1-.891,1.334A2.6,2.6,0,0,1,118.636-.833Zm0-5.23a1.954,1.954,0,0,0-1.241.425,1.713,1.713,0,0,0-.623,1.241h3.634a1.653,1.653,0,0,0-.536-1.223A1.8,1.8,0,0,0,118.636-6.063Zm4.03,5.09V-6.751h.885l.058,1.037a2.1,2.1,0,0,1,.8-.862A2.264,2.264,0,0,1,125.6-6.89a2.189,2.189,0,0,1,1.637.623,2.641,2.641,0,0,1,.612,1.916V-.973h-.978V-4.246q0-1.806-1.491-1.806a1.61,1.61,0,0,0-1.241.542,2.208,2.208,0,0,0-.5,1.543V-.973Zm8.946,0a1.869,1.869,0,0,1-1.246-.384,1.747,1.747,0,0,1-.454-1.386v-3.18h-1v-.827h1l.128-1.386h.85v1.386h1.7v.827h-1.7v3.18a.961.961,0,0,0,.221.74,1.206,1.206,0,0,0,.78.192h.606v.839Z" transform="translate(10.653 151.581)" fill="#2a2a2a" opacity="0.5"/>
      <g id="Path_23658" data-name="Path 23658" transform="translate(0 194.514)" fill="none" opacity="0.3">
        <path d="M4.48,0H210.571a4.48,4.48,0,0,1,4.48,4.48V24.193a4.48,4.48,0,0,1-4.48,4.48H4.48A4.48,4.48,0,0,1,0,24.193V4.48A4.48,4.48,0,0,1,4.48,0Z" stroke="none"/>
        <path d="M 4.480239868164062 1.000011444091797 C 2.56121826171875 1.000011444091797 0.9999847412109375 2.561233520507812 0.9999847412109375 4.480234146118164 L 0.9999847412109375 24.19328880310059 C 0.9999847412109375 26.11228942871094 2.56121826171875 27.67351150512695 4.480239868164062 27.67351150512695 L 210.5711517333984 27.67351150512695 C 212.4901885986328 27.67351150512695 214.0514068603516 26.11228942871094 214.0514068603516 24.19328880310059 L 214.0514068603516 4.480234146118164 C 214.0514068603516 2.561233520507812 212.4901885986328 1.000011444091797 210.5711517333984 1.000011444091797 L 4.480239868164062 1.000011444091797 M 4.480239868164062 1.1444091796875e-05 L 210.5711517333984 1.1444091796875e-05 C 213.0455474853516 1.1444091796875e-05 215.0514068603516 2.00587272644043 215.0514068603516 4.480234146118164 L 215.0514068603516 24.19328880310059 C 215.0514068603516 26.66765022277832 213.0455474853516 28.67351150512695 210.5711517333984 28.67351150512695 L 4.480239868164062 28.67351150512695 C 2.005874633789062 28.67351150512695 -1.52587890625e-05 26.66765022277832 -1.52587890625e-05 24.19328880310059 L -1.52587890625e-05 4.480234146118164 C -1.52587890625e-05 2.00587272644043 2.005874633789062 1.1444091796875e-05 4.480239868164062 1.1444091796875e-05 Z" stroke="none" fill="#797979"/>
      </g>
      <path id="Path_23654" data-name="Path 23654" d="M4.5-.833a3.89,3.89,0,0,1-2.068-.53A3.573,3.573,0,0,1,1.089-2.843,4.851,4.851,0,0,1,.611-5.05a4.823,4.823,0,0,1,.478-2.2A3.613,3.613,0,0,1,2.434-8.731,3.858,3.858,0,0,1,4.5-9.267a3.656,3.656,0,0,1,2.277.67A3.012,3.012,0,0,1,7.9-6.727H6.82a2.174,2.174,0,0,0-.763-1.217A2.424,2.424,0,0,0,4.5-8.4,2.85,2.85,0,0,0,2.976-8,2.64,2.64,0,0,0,1.968-6.85a4.179,4.179,0,0,0-.355,1.8,4.179,4.179,0,0,0,.355,1.8A2.64,2.64,0,0,0,2.976-2.1,2.85,2.85,0,0,0,4.5-1.7a2.468,2.468,0,0,0,1.555-.448A2.115,2.115,0,0,0,6.82-3.338H7.9A2.974,2.974,0,0,1,6.779-1.5,3.679,3.679,0,0,1,4.5-.833Zm6.861,0a2.169,2.169,0,0,1-1.631-.623,2.657,2.657,0,0,1-.606-1.916V-6.751H10.1v3.273q0,1.806,1.479,1.806a1.623,1.623,0,0,0,1.252-.542,2.208,2.208,0,0,0,.5-1.543V-6.751h.978V-.973h-.885l-.07-1.037a2.011,2.011,0,0,1-.8.862A2.3,2.3,0,0,1,11.363-.833Zm6.768,0a2.76,2.76,0,0,1-1.724-.524,2.044,2.044,0,0,1-.8-1.421h1a1.382,1.382,0,0,0,.483.786,1.573,1.573,0,0,0,1.054.332,1.329,1.329,0,0,0,.909-.262.812.812,0,0,0,.291-.623.692.692,0,0,0-.379-.7A5.039,5.039,0,0,0,17.9-3.559a6.008,6.008,0,0,1-.932-.268,2.117,2.117,0,0,1-.78-.5,1.154,1.154,0,0,1-.315-.845,1.559,1.559,0,0,1,.565-1.241,2.278,2.278,0,0,1,1.532-.483,2.376,2.376,0,0,1,1.508.46,1.836,1.836,0,0,1,.681,1.31h-.967a1.008,1.008,0,0,0-.379-.693,1.353,1.353,0,0,0-.856-.25,1.3,1.3,0,0,0-.81.221.7.7,0,0,0-.285.582.605.605,0,0,0,.367.547,3.939,3.939,0,0,0,1,.338,8.676,8.676,0,0,1,1.019.285,1.926,1.926,0,0,1,.792.5,1.361,1.361,0,0,1,.309.961,1.578,1.578,0,0,1-.588,1.287A2.437,2.437,0,0,1,18.131-.833Zm5.638-.14a1.869,1.869,0,0,1-1.246-.384,1.747,1.747,0,0,1-.454-1.386v-3.18h-1v-.827h1L22.2-8.137h.85v1.386h1.7v.827h-1.7v3.18a.961.961,0,0,0,.221.74,1.206,1.206,0,0,0,.78.192h.606v.839Zm4.694.14A2.905,2.905,0,0,1,27-1.206,2.693,2.693,0,0,1,25.964-2.26a3.246,3.246,0,0,1-.379-1.6,3.206,3.206,0,0,1,.384-1.6,2.721,2.721,0,0,1,1.043-1.054,2.937,2.937,0,0,1,1.474-.373,2.905,2.905,0,0,1,1.468.373,2.693,2.693,0,0,1,1.031,1.054,3.246,3.246,0,0,1,.379,1.6,3.206,3.206,0,0,1-.384,1.6,2.721,2.721,0,0,1-1.043,1.054A2.937,2.937,0,0,1,28.463-.833Zm0-.839a1.857,1.857,0,0,0,.932-.245,1.825,1.825,0,0,0,.7-.734,2.5,2.5,0,0,0,.268-1.211A2.541,2.541,0,0,0,30.1-5.073a1.787,1.787,0,0,0-.693-.734,1.835,1.835,0,0,0-.92-.245,1.857,1.857,0,0,0-.932.245,1.825,1.825,0,0,0-.7.734,2.5,2.5,0,0,0-.268,1.211,2.5,2.5,0,0,0,.268,1.211,1.838,1.838,0,0,0,.693.734A1.8,1.8,0,0,0,28.463-1.672Zm4.263.7V-6.751h.885l.07.839a1.957,1.957,0,0,1,.746-.722,2.139,2.139,0,0,1,1.048-.256,2.367,2.367,0,0,1,1.182.28,1.839,1.839,0,0,1,.763.85,2.212,2.212,0,0,1,.833-.827,2.274,2.274,0,0,1,1.147-.3,2.224,2.224,0,0,1,1.654.623,2.625,2.625,0,0,1,.617,1.916V-.973h-.967V-4.246A2.141,2.141,0,0,0,40.344-5.6a1.247,1.247,0,0,0-1.037-.454,1.457,1.457,0,0,0-1.159.542,2.318,2.318,0,0,0-.46,1.543V-.973H36.71V-4.246A2.141,2.141,0,0,0,36.349-5.6a1.247,1.247,0,0,0-1.037-.454,1.445,1.445,0,0,0-1.147.542,2.318,2.318,0,0,0-.46,1.543V-.973Zm13.023.14a2.83,2.83,0,0,1-1.468-.379,2.688,2.688,0,0,1-1.008-1.054,3.3,3.3,0,0,1-.367-1.6,3.347,3.347,0,0,1,.361-1.59,2.626,2.626,0,0,1,1.008-1.06,2.907,2.907,0,0,1,1.5-.379,2.7,2.7,0,0,1,1.45.379,2.565,2.565,0,0,1,.938,1,2.8,2.8,0,0,1,.326,1.328q0,.128-.006.256t-.006.291h-4.6a2.27,2.27,0,0,0,.309,1.1,1.825,1.825,0,0,0,.687.658,1.837,1.837,0,0,0,.879.221,1.751,1.751,0,0,0,1.013-.28,1.6,1.6,0,0,0,.594-.757h.967a2.608,2.608,0,0,1-.891,1.334A2.6,2.6,0,0,1,45.749-.833Zm0-5.23a1.954,1.954,0,0,0-1.241.425A1.713,1.713,0,0,0,43.886-4.4H47.52a1.653,1.653,0,0,0-.536-1.223A1.8,1.8,0,0,0,45.749-6.063Zm4.03,5.09V-6.751h.885l.082,1.107a2.1,2.1,0,0,1,.815-.909,2.528,2.528,0,0,1,1.351-.338v1.025h-.268a2.418,2.418,0,0,0-.944.181,1.433,1.433,0,0,0-.687.612,2.327,2.327,0,0,0-.256,1.188V-.973Zm7.374,0V-9.127h1.142L61.23-3.443l2.912-5.685H65.3V-.973h-.978V-7.38L61.592-2.138h-.734l-2.726-5.23v6.4Zm12.441.14a2.905,2.905,0,0,1-1.468-.373A2.693,2.693,0,0,1,67.1-2.26a3.246,3.246,0,0,1-.379-1.6,3.206,3.206,0,0,1,.384-1.6,2.721,2.721,0,0,1,1.043-1.054,2.937,2.937,0,0,1,1.474-.373,2.905,2.905,0,0,1,1.468.373,2.693,2.693,0,0,1,1.031,1.054,3.246,3.246,0,0,1,.379,1.6,3.206,3.206,0,0,1-.384,1.6,2.721,2.721,0,0,1-1.043,1.054A2.937,2.937,0,0,1,69.594-.833Zm0-.839a1.857,1.857,0,0,0,.932-.245,1.825,1.825,0,0,0,.7-.734,2.5,2.5,0,0,0,.268-1.211,2.541,2.541,0,0,0-.262-1.211,1.787,1.787,0,0,0-.693-.734,1.835,1.835,0,0,0-.92-.245,1.857,1.857,0,0,0-.932.245,1.825,1.825,0,0,0-.7.734,2.5,2.5,0,0,0-.268,1.211,2.5,2.5,0,0,0,.268,1.211,1.838,1.838,0,0,0,.693.734A1.8,1.8,0,0,0,69.594-1.672Zm7.35.839a2.673,2.673,0,0,1-1.264-.291,2.014,2.014,0,0,1-.845-.815l-.093.967h-.885V-9.36h.978V-5.8a2.727,2.727,0,0,1,.8-.757,2.378,2.378,0,0,1,1.322-.338,2.8,2.8,0,0,1,1.5.4,2.71,2.71,0,0,1,1,1.083A3.349,3.349,0,0,1,79.81-3.85,3.314,3.314,0,0,1,79.455-2.3a2.666,2.666,0,0,1-1,1.072A2.862,2.862,0,0,1,76.944-.833Zm-.1-.85a1.909,1.909,0,0,0,1.025-.274,1.926,1.926,0,0,0,.7-.763,2.426,2.426,0,0,0,.256-1.142A2.426,2.426,0,0,0,78.564-5a1.926,1.926,0,0,0-.7-.763A1.909,1.909,0,0,0,76.84-6.04a1.909,1.909,0,0,0-1.025.274,1.926,1.926,0,0,0-.7.763,2.426,2.426,0,0,0-.256,1.142,2.426,2.426,0,0,0,.256,1.142,1.926,1.926,0,0,0,.7.763A1.909,1.909,0,0,0,76.84-1.684Zm4.927-6.348a.655.655,0,0,1-.483-.192.656.656,0,0,1-.192-.483.622.622,0,0,1,.192-.466.666.666,0,0,1,.483-.186.672.672,0,0,1,.478.186.613.613,0,0,1,.2.466.645.645,0,0,1-.2.483A.661.661,0,0,1,81.767-8.032ZM81.278-.973V-6.751h.978V-.973Zm2.679,0V-9.36h.978V-.973Zm5.184.14a2.83,2.83,0,0,1-1.468-.379,2.688,2.688,0,0,1-1.008-1.054,3.3,3.3,0,0,1-.367-1.6,3.347,3.347,0,0,1,.361-1.59,2.626,2.626,0,0,1,1.008-1.06,2.907,2.907,0,0,1,1.5-.379,2.7,2.7,0,0,1,1.45.379,2.565,2.565,0,0,1,.938,1,2.8,2.8,0,0,1,.326,1.328q0,.128-.006.256t-.006.291h-4.6a2.27,2.27,0,0,0,.309,1.1,1.825,1.825,0,0,0,.687.658,1.837,1.837,0,0,0,.879.221,1.751,1.751,0,0,0,1.013-.28,1.6,1.6,0,0,0,.594-.757h.967a2.608,2.608,0,0,1-.891,1.334A2.6,2.6,0,0,1,89.14-.833Zm0-5.23a1.954,1.954,0,0,0-1.241.425A1.713,1.713,0,0,0,87.277-4.4h3.634a1.653,1.653,0,0,0-.536-1.223A1.8,1.8,0,0,0,89.14-6.063Zm7.176,5.09V-9.127h.978l4.345,6.535V-9.127h.978V-.973h-.978L97.295-7.508V-.973Zm10.076.14a2.169,2.169,0,0,1-1.631-.623,2.657,2.657,0,0,1-.606-1.916V-6.751h.978v3.273q0,1.806,1.479,1.806a1.623,1.623,0,0,0,1.252-.542,2.208,2.208,0,0,0,.5-1.543V-6.751h.978V-.973h-.885l-.07-1.037a2.012,2.012,0,0,1-.8.862A2.3,2.3,0,0,1,106.392-.833Zm4.555-.14V-6.751h.885l.07.839a1.957,1.957,0,0,1,.746-.722A2.139,2.139,0,0,1,113.7-6.89a2.367,2.367,0,0,1,1.182.28,1.839,1.839,0,0,1,.763.85,2.212,2.212,0,0,1,.833-.827,2.274,2.274,0,0,1,1.147-.3,2.224,2.224,0,0,1,1.654.623,2.625,2.625,0,0,1,.617,1.916V-.973h-.967V-4.246a2.141,2.141,0,0,0-.361-1.351,1.247,1.247,0,0,0-1.037-.454,1.457,1.457,0,0,0-1.159.542,2.318,2.318,0,0,0-.46,1.543V-.973h-.978V-4.246a2.141,2.141,0,0,0-.361-1.351,1.247,1.247,0,0,0-1.037-.454,1.445,1.445,0,0,0-1.147.542,2.318,2.318,0,0,0-.46,1.543V-.973Zm13.512.14a2.673,2.673,0,0,1-1.264-.291,2.014,2.014,0,0,1-.845-.815l-.093.967h-.885V-9.36h.978V-5.8a2.727,2.727,0,0,1,.8-.757,2.378,2.378,0,0,1,1.322-.338,2.8,2.8,0,0,1,1.5.4,2.71,2.71,0,0,1,1,1.083,3.35,3.35,0,0,1,.355,1.561,3.314,3.314,0,0,1-.355,1.555,2.666,2.666,0,0,1-1,1.072A2.862,2.862,0,0,1,124.459-.833Zm-.1-.85a1.909,1.909,0,0,0,1.025-.274,1.926,1.926,0,0,0,.7-.763,2.426,2.426,0,0,0,.256-1.142A2.426,2.426,0,0,0,126.078-5a1.926,1.926,0,0,0-.7-.763,1.909,1.909,0,0,0-1.025-.274,1.909,1.909,0,0,0-1.025.274,1.927,1.927,0,0,0-.7.763,2.426,2.426,0,0,0-.256,1.142,2.426,2.426,0,0,0,.256,1.142,1.927,1.927,0,0,0,.7.763A1.909,1.909,0,0,0,124.354-1.684Zm6.931.85a2.83,2.83,0,0,1-1.468-.379,2.688,2.688,0,0,1-1.008-1.054,3.3,3.3,0,0,1-.367-1.6,3.347,3.347,0,0,1,.361-1.59,2.626,2.626,0,0,1,1.008-1.06,2.907,2.907,0,0,1,1.5-.379,2.7,2.7,0,0,1,1.45.379,2.565,2.565,0,0,1,.938,1,2.8,2.8,0,0,1,.326,1.328q0,.128-.006.256t-.006.291h-4.6a2.27,2.27,0,0,0,.309,1.1,1.825,1.825,0,0,0,.687.658,1.837,1.837,0,0,0,.879.221,1.75,1.75,0,0,0,1.013-.28,1.6,1.6,0,0,0,.594-.757h.967a2.608,2.608,0,0,1-.891,1.334A2.6,2.6,0,0,1,131.285-.833Zm0-5.23a1.954,1.954,0,0,0-1.241.425,1.713,1.713,0,0,0-.623,1.241h3.634a1.653,1.653,0,0,0-.536-1.223A1.8,1.8,0,0,0,131.285-6.063Zm4.03,5.09V-6.751h.885l.082,1.107a2.094,2.094,0,0,1,.815-.909,2.528,2.528,0,0,1,1.351-.338v1.025h-.268a2.418,2.418,0,0,0-.944.181,1.433,1.433,0,0,0-.687.612,2.327,2.327,0,0,0-.256,1.188V-.973Z" transform="translate(-0.064 188.319)" fill="#2a2a2a" opacity="0.8"/>
      <path id="Path_23655" data-name="Path 23655" d="M2.7-5.583,2.849-7.5,1.293-6.411.854-7.176,2.6-7.941.867-8.694l.414-.74L2.861-8.343l-.176-1.919h.853L3.35-8.343,4.918-9.434l.4.728-1.731.778,1.744.765-.414.74L3.35-7.5l.176,1.919Z" transform="translate(139.694 188.412)" fill="#cc5564"/>
      <path id="Path_23659" data-name="Path 23659" d="M.962-.973V-9.127H6.006v.8H1.94v2.842H5.656v.792H1.94v2.912H6.006v.8Zm6.512,0V-6.751h.885l.058,1.037a2.1,2.1,0,0,1,.8-.862,2.264,2.264,0,0,1,1.188-.315,2.189,2.189,0,0,1,1.637.623,2.641,2.641,0,0,1,.612,1.916V-.973h-.978V-4.246q0-1.806-1.491-1.806a1.61,1.61,0,0,0-1.241.542,2.208,2.208,0,0,0-.5,1.543V-.973Zm8.946,0a1.869,1.869,0,0,1-1.246-.384,1.747,1.747,0,0,1-.454-1.386v-3.18h-1v-.827h1l.128-1.386h.85v1.386h1.7v.827H15.7v3.18a.961.961,0,0,0,.221.74,1.206,1.206,0,0,0,.78.192h.606v.839Zm4.659.14a2.83,2.83,0,0,1-1.468-.379A2.688,2.688,0,0,1,18.6-2.266a3.3,3.3,0,0,1-.367-1.6,3.347,3.347,0,0,1,.361-1.59,2.626,2.626,0,0,1,1.008-1.06,2.907,2.907,0,0,1,1.5-.379,2.7,2.7,0,0,1,1.45.379,2.565,2.565,0,0,1,.938,1,2.8,2.8,0,0,1,.326,1.328q0,.128-.006.256t-.006.291H19.2a2.27,2.27,0,0,0,.309,1.1,1.825,1.825,0,0,0,.687.658,1.837,1.837,0,0,0,.879.221,1.751,1.751,0,0,0,1.013-.28,1.6,1.6,0,0,0,.594-.757h.967a2.608,2.608,0,0,1-.891,1.334A2.6,2.6,0,0,1,21.079-.833Zm0-5.23a1.954,1.954,0,0,0-1.241.425A1.713,1.713,0,0,0,19.215-4.4H22.85a1.653,1.653,0,0,0-.536-1.223A1.8,1.8,0,0,0,21.079-6.063Zm4.03,5.09V-6.751h.885l.082,1.107a2.1,2.1,0,0,1,.815-.909,2.528,2.528,0,0,1,1.351-.338v1.025h-.268a2.418,2.418,0,0,0-.944.181,1.433,1.433,0,0,0-.687.612,2.327,2.327,0,0,0-.256,1.188V-.973Zm9.971.14A2.924,2.924,0,0,1,33.6-1.212a2.722,2.722,0,0,1-1.037-1.06,3.221,3.221,0,0,1-.379-1.59,3.221,3.221,0,0,1,.379-1.59A2.722,2.722,0,0,1,33.6-6.512a2.924,2.924,0,0,1,1.485-.379,2.775,2.775,0,0,1,1.73.536A2.335,2.335,0,0,1,37.7-4.922h-1a1.284,1.284,0,0,0-.571-.833,1.893,1.893,0,0,0-1.06-.3,1.835,1.835,0,0,0-.92.245,1.825,1.825,0,0,0-.7.734,2.5,2.5,0,0,0-.268,1.211A2.5,2.5,0,0,0,33.45-2.65a1.866,1.866,0,0,0,.7.74,1.8,1.8,0,0,0,.92.25,1.893,1.893,0,0,0,1.06-.3A1.289,1.289,0,0,0,36.7-2.8h1a2.313,2.313,0,0,1-.885,1.421A2.759,2.759,0,0,1,35.081-.833Zm6.092,0a2.169,2.169,0,0,1-1.631-.623,2.657,2.657,0,0,1-.606-1.916V-6.751h.978v3.273q0,1.806,1.479,1.806a1.623,1.623,0,0,0,1.252-.542,2.208,2.208,0,0,0,.5-1.543V-6.751h.978V-.973h-.885l-.07-1.037a2.011,2.011,0,0,1-.8.862A2.3,2.3,0,0,1,41.173-.833Zm6.768,0a2.76,2.76,0,0,1-1.724-.524,2.044,2.044,0,0,1-.8-1.421h1a1.382,1.382,0,0,0,.483.786,1.573,1.573,0,0,0,1.054.332,1.329,1.329,0,0,0,.909-.262.812.812,0,0,0,.291-.623.692.692,0,0,0-.379-.7,5.039,5.039,0,0,0-1.066-.315,6.008,6.008,0,0,1-.932-.268,2.117,2.117,0,0,1-.78-.5,1.154,1.154,0,0,1-.315-.845,1.559,1.559,0,0,1,.565-1.241,2.278,2.278,0,0,1,1.532-.483,2.376,2.376,0,0,1,1.508.46,1.836,1.836,0,0,1,.681,1.31H49a1.008,1.008,0,0,0-.379-.693,1.353,1.353,0,0,0-.856-.25,1.3,1.3,0,0,0-.81.221.7.7,0,0,0-.285.582.605.605,0,0,0,.367.547,3.939,3.939,0,0,0,1,.338,8.676,8.676,0,0,1,1.019.285,1.926,1.926,0,0,1,.792.5,1.361,1.361,0,0,1,.309.961,1.578,1.578,0,0,1-.588,1.287A2.437,2.437,0,0,1,47.941-.833Zm5.638-.14a1.869,1.869,0,0,1-1.246-.384,1.747,1.747,0,0,1-.454-1.386v-3.18h-1v-.827h1l.128-1.386h.85v1.386h1.7v.827h-1.7v3.18a.961.961,0,0,0,.221.74,1.206,1.206,0,0,0,.78.192h.606v.839Zm4.694.14a2.905,2.905,0,0,1-1.468-.373A2.693,2.693,0,0,1,55.775-2.26a3.246,3.246,0,0,1-.379-1.6,3.206,3.206,0,0,1,.384-1.6,2.721,2.721,0,0,1,1.043-1.054A2.937,2.937,0,0,1,58.3-6.89a2.905,2.905,0,0,1,1.468.373A2.693,2.693,0,0,1,60.8-5.464a3.246,3.246,0,0,1,.379,1.6,3.206,3.206,0,0,1-.384,1.6,2.721,2.721,0,0,1-1.043,1.054A2.937,2.937,0,0,1,58.273-.833Zm0-.839a1.857,1.857,0,0,0,.932-.245,1.825,1.825,0,0,0,.7-.734,2.5,2.5,0,0,0,.268-1.211,2.541,2.541,0,0,0-.262-1.211,1.787,1.787,0,0,0-.693-.734,1.835,1.835,0,0,0-.92-.245,1.857,1.857,0,0,0-.932.245,1.825,1.825,0,0,0-.7.734A2.5,2.5,0,0,0,56.4-3.862a2.5,2.5,0,0,0,.268,1.211,1.838,1.838,0,0,0,.693.734A1.8,1.8,0,0,0,58.273-1.672Zm4.263.7V-6.751h.885l.07.839a1.957,1.957,0,0,1,.746-.722,2.139,2.139,0,0,1,1.048-.256,2.367,2.367,0,0,1,1.182.28,1.839,1.839,0,0,1,.763.85,2.212,2.212,0,0,1,.833-.827,2.274,2.274,0,0,1,1.147-.3,2.224,2.224,0,0,1,1.654.623,2.625,2.625,0,0,1,.617,1.916V-.973h-.967V-4.246A2.141,2.141,0,0,0,70.155-5.6a1.247,1.247,0,0,0-1.037-.454,1.457,1.457,0,0,0-1.159.542,2.318,2.318,0,0,0-.46,1.543V-.973H66.52V-4.246A2.141,2.141,0,0,0,66.159-5.6a1.247,1.247,0,0,0-1.037-.454,1.445,1.445,0,0,0-1.147.542,2.318,2.318,0,0,0-.46,1.543V-.973Zm13.023.14a2.83,2.83,0,0,1-1.468-.379,2.688,2.688,0,0,1-1.008-1.054,3.3,3.3,0,0,1-.367-1.6,3.347,3.347,0,0,1,.361-1.59,2.626,2.626,0,0,1,1.008-1.06,2.907,2.907,0,0,1,1.5-.379,2.7,2.7,0,0,1,1.45.379,2.565,2.565,0,0,1,.938,1A2.8,2.8,0,0,1,78.3-4.188q0,.128-.006.256t-.006.291h-4.6a2.27,2.27,0,0,0,.309,1.1,1.825,1.825,0,0,0,.687.658,1.837,1.837,0,0,0,.879.221,1.751,1.751,0,0,0,1.013-.28,1.6,1.6,0,0,0,.594-.757h.967a2.608,2.608,0,0,1-.891,1.334A2.6,2.6,0,0,1,75.56-.833Zm0-5.23a1.954,1.954,0,0,0-1.241.425A1.713,1.713,0,0,0,73.7-4.4H77.33a1.653,1.653,0,0,0-.536-1.223A1.8,1.8,0,0,0,75.56-6.063Zm4.03,5.09V-6.751h.885l.082,1.107a2.1,2.1,0,0,1,.815-.909,2.528,2.528,0,0,1,1.351-.338v1.025h-.268a2.418,2.418,0,0,0-.944.181,1.433,1.433,0,0,0-.687.612,2.327,2.327,0,0,0-.256,1.188V-.973Zm7.315,0V-6.751h.885l.07.839a1.957,1.957,0,0,1,.746-.722,2.139,2.139,0,0,1,1.048-.256,2.367,2.367,0,0,1,1.182.28,1.839,1.839,0,0,1,.763.85,2.212,2.212,0,0,1,.833-.827,2.274,2.274,0,0,1,1.147-.3,2.224,2.224,0,0,1,1.654.623,2.625,2.625,0,0,1,.617,1.916V-.973h-.967V-4.246A2.141,2.141,0,0,0,94.524-5.6a1.247,1.247,0,0,0-1.037-.454,1.457,1.457,0,0,0-1.159.542,2.318,2.318,0,0,0-.46,1.543V-.973h-.978V-4.246A2.141,2.141,0,0,0,90.528-5.6a1.247,1.247,0,0,0-1.037-.454,1.445,1.445,0,0,0-1.147.542,2.318,2.318,0,0,0-.46,1.543V-.973Zm13.058.14A2.905,2.905,0,0,1,98.5-1.206,2.693,2.693,0,0,1,97.465-2.26a3.246,3.246,0,0,1-.379-1.6,3.206,3.206,0,0,1,.384-1.6,2.721,2.721,0,0,1,1.043-1.054,2.937,2.937,0,0,1,1.474-.373,2.905,2.905,0,0,1,1.468.373,2.693,2.693,0,0,1,1.031,1.054,3.246,3.246,0,0,1,.379,1.6,3.206,3.206,0,0,1-.384,1.6,2.721,2.721,0,0,1-1.043,1.054A2.937,2.937,0,0,1,99.964-.833Zm0-.839a1.857,1.857,0,0,0,.932-.245,1.825,1.825,0,0,0,.7-.734,2.5,2.5,0,0,0,.268-1.211,2.541,2.541,0,0,0-.262-1.211,1.787,1.787,0,0,0-.693-.734,1.835,1.835,0,0,0-.92-.245,1.857,1.857,0,0,0-.932.245,1.825,1.825,0,0,0-.7.734,2.5,2.5,0,0,0-.268,1.211,2.5,2.5,0,0,0,.268,1.211,1.838,1.838,0,0,0,.693.734A1.8,1.8,0,0,0,99.964-1.672Zm7.35.839a2.673,2.673,0,0,1-1.264-.291,2.014,2.014,0,0,1-.845-.815l-.093.967h-.885V-9.36h.978V-5.8a2.727,2.727,0,0,1,.8-.757,2.378,2.378,0,0,1,1.322-.338,2.8,2.8,0,0,1,1.5.4,2.71,2.71,0,0,1,1,1.083,3.349,3.349,0,0,1,.355,1.561,3.314,3.314,0,0,1-.355,1.555,2.665,2.665,0,0,1-1,1.072A2.862,2.862,0,0,1,107.314-.833Zm-.1-.85a1.909,1.909,0,0,0,1.025-.274,1.926,1.926,0,0,0,.7-.763,2.426,2.426,0,0,0,.256-1.142A2.426,2.426,0,0,0,108.933-5a1.926,1.926,0,0,0-.7-.763,1.909,1.909,0,0,0-1.025-.274,1.909,1.909,0,0,0-1.025.274,1.926,1.926,0,0,0-.7.763,2.426,2.426,0,0,0-.256,1.142,2.426,2.426,0,0,0,.256,1.142,1.926,1.926,0,0,0,.7.763A1.909,1.909,0,0,0,107.209-1.684Zm4.927-6.348a.655.655,0,0,1-.483-.192.656.656,0,0,1-.192-.483.622.622,0,0,1,.192-.466.666.666,0,0,1,.483-.186.672.672,0,0,1,.478.186.613.613,0,0,1,.2.466.646.646,0,0,1-.2.483A.661.661,0,0,1,112.136-8.032Zm-.489,7.059V-6.751h.978V-.973Zm2.679,0V-9.36h.978V-.973Zm5.184.14a2.83,2.83,0,0,1-1.468-.379,2.688,2.688,0,0,1-1.008-1.054,3.3,3.3,0,0,1-.367-1.6,3.347,3.347,0,0,1,.361-1.59,2.625,2.625,0,0,1,1.008-1.06,2.907,2.907,0,0,1,1.5-.379,2.7,2.7,0,0,1,1.45.379,2.565,2.565,0,0,1,.938,1,2.8,2.8,0,0,1,.326,1.328q0,.128-.006.256t-.006.291h-4.6a2.27,2.27,0,0,0,.309,1.1,1.825,1.825,0,0,0,.687.658,1.837,1.837,0,0,0,.879.221,1.751,1.751,0,0,0,1.013-.28,1.6,1.6,0,0,0,.594-.757h.967a2.608,2.608,0,0,1-.891,1.334A2.6,2.6,0,0,1,119.51-.833Zm0-5.23a1.954,1.954,0,0,0-1.241.425,1.713,1.713,0,0,0-.623,1.241h3.634a1.653,1.653,0,0,0-.536-1.223A1.8,1.8,0,0,0,119.51-6.063Zm7.117,5.09V-6.751h.885l.058,1.037a2.1,2.1,0,0,1,.8-.862,2.264,2.264,0,0,1,1.188-.315,2.189,2.189,0,0,1,1.637.623,2.641,2.641,0,0,1,.612,1.916V-.973h-.979V-4.246q0-1.806-1.491-1.806a1.61,1.61,0,0,0-1.241.542,2.208,2.208,0,0,0-.5,1.543V-.973Zm8.771.14a2.169,2.169,0,0,1-1.631-.623,2.657,2.657,0,0,1-.606-1.916V-6.751h.978v3.273q0,1.806,1.479,1.806a1.623,1.623,0,0,0,1.252-.542,2.208,2.208,0,0,0,.5-1.543V-6.751h.978V-.973h-.885l-.07-1.037a2.012,2.012,0,0,1-.8.862A2.3,2.3,0,0,1,135.4-.833Zm4.555-.14V-6.751h.885l.07.839a1.957,1.957,0,0,1,.746-.722A2.139,2.139,0,0,1,142.7-6.89a2.367,2.367,0,0,1,1.182.28,1.839,1.839,0,0,1,.763.85,2.212,2.212,0,0,1,.833-.827,2.274,2.274,0,0,1,1.147-.3,2.224,2.224,0,0,1,1.654.623,2.625,2.625,0,0,1,.617,1.916V-.973h-.967V-4.246a2.141,2.141,0,0,0-.361-1.351,1.247,1.247,0,0,0-1.037-.454,1.457,1.457,0,0,0-1.159.542,2.318,2.318,0,0,0-.46,1.543V-.973h-.978V-4.246a2.141,2.141,0,0,0-.361-1.351,1.247,1.247,0,0,0-1.037-.454,1.445,1.445,0,0,0-1.147.542,2.318,2.318,0,0,0-.46,1.543V-.973Zm13.512.14a2.673,2.673,0,0,1-1.264-.291,2.014,2.014,0,0,1-.845-.815l-.093.967h-.885V-9.36h.978V-5.8a2.727,2.727,0,0,1,.8-.757,2.378,2.378,0,0,1,1.322-.338,2.8,2.8,0,0,1,1.5.4,2.71,2.71,0,0,1,1,1.083,3.349,3.349,0,0,1,.355,1.561,3.314,3.314,0,0,1-.355,1.555,2.666,2.666,0,0,1-1,1.072A2.862,2.862,0,0,1,153.466-.833Zm-.1-.85a1.909,1.909,0,0,0,1.025-.274,1.926,1.926,0,0,0,.7-.763,2.426,2.426,0,0,0,.256-1.142A2.426,2.426,0,0,0,155.085-5a1.926,1.926,0,0,0-.7-.763,1.909,1.909,0,0,0-1.025-.274,1.909,1.909,0,0,0-1.025.274,1.926,1.926,0,0,0-.7.763,2.426,2.426,0,0,0-.256,1.142,2.426,2.426,0,0,0,.256,1.142,1.926,1.926,0,0,0,.7.763A1.909,1.909,0,0,0,153.361-1.684Zm6.931.85a2.83,2.83,0,0,1-1.468-.379,2.688,2.688,0,0,1-1.008-1.054,3.3,3.3,0,0,1-.367-1.6,3.348,3.348,0,0,1,.361-1.59,2.626,2.626,0,0,1,1.008-1.06,2.907,2.907,0,0,1,1.5-.379,2.7,2.7,0,0,1,1.45.379,2.565,2.565,0,0,1,.938,1,2.8,2.8,0,0,1,.326,1.328q0,.128-.006.256t-.006.291h-4.6a2.27,2.27,0,0,0,.309,1.1,1.825,1.825,0,0,0,.687.658,1.837,1.837,0,0,0,.88.221,1.75,1.75,0,0,0,1.013-.28A1.6,1.6,0,0,0,161.9-2.7h.967a2.608,2.608,0,0,1-.891,1.334A2.6,2.6,0,0,1,160.292-.833Zm0-5.23a1.954,1.954,0,0,0-1.241.425,1.713,1.713,0,0,0-.623,1.241h3.634a1.653,1.653,0,0,0-.536-1.223A1.8,1.8,0,0,0,160.292-6.063Zm4.03,5.09V-6.751h.885l.082,1.107a2.094,2.094,0,0,1,.815-.909,2.528,2.528,0,0,1,1.351-.338v1.025h-.268a2.418,2.418,0,0,0-.944.181,1.433,1.433,0,0,0-.687.612,2.327,2.327,0,0,0-.256,1.188V-.973Z" transform="translate(10.653 214.304)" fill="#2a2a2a" opacity="0.5"/>
      <g id="Path_23661" data-name="Path 23661" transform="translate(0 257.237)" fill="none" opacity="0.3">
        <path d="M4.48,0H210.571a4.48,4.48,0,0,1,4.48,4.48V24.193a4.48,4.48,0,0,1-4.48,4.48H4.48A4.48,4.48,0,0,1,0,24.193V4.48A4.48,4.48,0,0,1,4.48,0Z" stroke="none"/>
        <path d="M 4.480239868164062 1.000011444091797 C 2.56121826171875 1.000011444091797 0.9999847412109375 2.561233520507812 0.9999847412109375 4.480234146118164 L 0.9999847412109375 24.19328880310059 C 0.9999847412109375 26.11228942871094 2.56121826171875 27.67351150512695 4.480239868164062 27.67351150512695 L 210.5711517333984 27.67351150512695 C 212.4901885986328 27.67351150512695 214.0514068603516 26.11228942871094 214.0514068603516 24.19328880310059 L 214.0514068603516 4.480234146118164 C 214.0514068603516 2.561233520507812 212.4901885986328 1.000011444091797 210.5711517333984 1.000011444091797 L 4.480239868164062 1.000011444091797 M 4.480239868164062 1.1444091796875e-05 L 210.5711517333984 1.1444091796875e-05 C 213.0455474853516 1.1444091796875e-05 215.0514068603516 2.00587272644043 215.0514068603516 4.480234146118164 L 215.0514068603516 24.19328880310059 C 215.0514068603516 26.66765022277832 213.0455474853516 28.67351150512695 210.5711517333984 28.67351150512695 L 4.480239868164062 28.67351150512695 C 2.005874633789062 28.67351150512695 -1.52587890625e-05 26.66765022277832 -1.52587890625e-05 24.19328880310059 L -1.52587890625e-05 4.480234146118164 C -1.52587890625e-05 2.00587272644043 2.005874633789062 1.1444091796875e-05 4.480239868164062 1.1444091796875e-05 Z" stroke="none" fill="#797979"/>
      </g>
      <path id="Path_23660" data-name="Path 23660" d="M4.5-.833a3.89,3.89,0,0,1-2.068-.53A3.573,3.573,0,0,1,1.089-2.843,4.851,4.851,0,0,1,.611-5.05a4.823,4.823,0,0,1,.478-2.2A3.613,3.613,0,0,1,2.434-8.731,3.858,3.858,0,0,1,4.5-9.267a3.656,3.656,0,0,1,2.277.67A3.012,3.012,0,0,1,7.9-6.727H6.82a2.174,2.174,0,0,0-.763-1.217A2.424,2.424,0,0,0,4.5-8.4,2.85,2.85,0,0,0,2.976-8,2.64,2.64,0,0,0,1.968-6.85a4.179,4.179,0,0,0-.355,1.8,4.179,4.179,0,0,0,.355,1.8A2.64,2.64,0,0,0,2.976-2.1,2.85,2.85,0,0,0,4.5-1.7a2.468,2.468,0,0,0,1.555-.448A2.115,2.115,0,0,0,6.82-3.338H7.9A2.974,2.974,0,0,1,6.779-1.5,3.679,3.679,0,0,1,4.5-.833Zm6.861,0a2.169,2.169,0,0,1-1.631-.623,2.657,2.657,0,0,1-.606-1.916V-6.751H10.1v3.273q0,1.806,1.479,1.806a1.623,1.623,0,0,0,1.252-.542,2.208,2.208,0,0,0,.5-1.543V-6.751h.978V-.973h-.885l-.07-1.037a2.011,2.011,0,0,1-.8.862A2.3,2.3,0,0,1,11.363-.833Zm6.768,0a2.76,2.76,0,0,1-1.724-.524,2.044,2.044,0,0,1-.8-1.421h1a1.382,1.382,0,0,0,.483.786,1.573,1.573,0,0,0,1.054.332,1.329,1.329,0,0,0,.909-.262.812.812,0,0,0,.291-.623.692.692,0,0,0-.379-.7A5.039,5.039,0,0,0,17.9-3.559a6.008,6.008,0,0,1-.932-.268,2.117,2.117,0,0,1-.78-.5,1.154,1.154,0,0,1-.315-.845,1.559,1.559,0,0,1,.565-1.241,2.278,2.278,0,0,1,1.532-.483,2.376,2.376,0,0,1,1.508.46,1.836,1.836,0,0,1,.681,1.31h-.967a1.008,1.008,0,0,0-.379-.693,1.353,1.353,0,0,0-.856-.25,1.3,1.3,0,0,0-.81.221.7.7,0,0,0-.285.582.605.605,0,0,0,.367.547,3.939,3.939,0,0,0,1,.338,8.676,8.676,0,0,1,1.019.285,1.926,1.926,0,0,1,.792.5,1.361,1.361,0,0,1,.309.961,1.578,1.578,0,0,1-.588,1.287A2.437,2.437,0,0,1,18.131-.833Zm5.638-.14a1.869,1.869,0,0,1-1.246-.384,1.747,1.747,0,0,1-.454-1.386v-3.18h-1v-.827h1L22.2-8.137h.85v1.386h1.7v.827h-1.7v3.18a.961.961,0,0,0,.221.74,1.206,1.206,0,0,0,.78.192h.606v.839Zm4.694.14A2.905,2.905,0,0,1,27-1.206,2.693,2.693,0,0,1,25.964-2.26a3.246,3.246,0,0,1-.379-1.6,3.206,3.206,0,0,1,.384-1.6,2.721,2.721,0,0,1,1.043-1.054,2.937,2.937,0,0,1,1.474-.373,2.905,2.905,0,0,1,1.468.373,2.693,2.693,0,0,1,1.031,1.054,3.246,3.246,0,0,1,.379,1.6,3.206,3.206,0,0,1-.384,1.6,2.721,2.721,0,0,1-1.043,1.054A2.937,2.937,0,0,1,28.463-.833Zm0-.839a1.857,1.857,0,0,0,.932-.245,1.825,1.825,0,0,0,.7-.734,2.5,2.5,0,0,0,.268-1.211A2.541,2.541,0,0,0,30.1-5.073a1.787,1.787,0,0,0-.693-.734,1.835,1.835,0,0,0-.92-.245,1.857,1.857,0,0,0-.932.245,1.825,1.825,0,0,0-.7.734,2.5,2.5,0,0,0-.268,1.211,2.5,2.5,0,0,0,.268,1.211,1.838,1.838,0,0,0,.693.734A1.8,1.8,0,0,0,28.463-1.672Zm4.263.7V-6.751h.885l.07.839a1.957,1.957,0,0,1,.746-.722,2.139,2.139,0,0,1,1.048-.256,2.367,2.367,0,0,1,1.182.28,1.839,1.839,0,0,1,.763.85,2.212,2.212,0,0,1,.833-.827,2.274,2.274,0,0,1,1.147-.3,2.224,2.224,0,0,1,1.654.623,2.625,2.625,0,0,1,.617,1.916V-.973h-.967V-4.246A2.141,2.141,0,0,0,40.344-5.6a1.247,1.247,0,0,0-1.037-.454,1.457,1.457,0,0,0-1.159.542,2.318,2.318,0,0,0-.46,1.543V-.973H36.71V-4.246A2.141,2.141,0,0,0,36.349-5.6a1.247,1.247,0,0,0-1.037-.454,1.445,1.445,0,0,0-1.147.542,2.318,2.318,0,0,0-.46,1.543V-.973Zm13.023.14a2.83,2.83,0,0,1-1.468-.379,2.688,2.688,0,0,1-1.008-1.054,3.3,3.3,0,0,1-.367-1.6,3.347,3.347,0,0,1,.361-1.59,2.626,2.626,0,0,1,1.008-1.06,2.907,2.907,0,0,1,1.5-.379,2.7,2.7,0,0,1,1.45.379,2.565,2.565,0,0,1,.938,1,2.8,2.8,0,0,1,.326,1.328q0,.128-.006.256t-.006.291h-4.6a2.27,2.27,0,0,0,.309,1.1,1.825,1.825,0,0,0,.687.658,1.837,1.837,0,0,0,.879.221,1.751,1.751,0,0,0,1.013-.28,1.6,1.6,0,0,0,.594-.757h.967a2.608,2.608,0,0,1-.891,1.334A2.6,2.6,0,0,1,45.749-.833Zm0-5.23a1.954,1.954,0,0,0-1.241.425A1.713,1.713,0,0,0,43.886-4.4H47.52a1.653,1.653,0,0,0-.536-1.223A1.8,1.8,0,0,0,45.749-6.063Zm4.03,5.09V-6.751h.885l.082,1.107a2.1,2.1,0,0,1,.815-.909,2.528,2.528,0,0,1,1.351-.338v1.025h-.268a2.418,2.418,0,0,0-.944.181,1.433,1.433,0,0,0-.687.612,2.327,2.327,0,0,0-.256,1.188V-.973Zm7.374,0V-9.127H62.2v.8H58.132v2.842h3.716v.792H58.132v2.912H62.2v.8Zm6.512,0V-6.751h.885l.07.839a1.957,1.957,0,0,1,.746-.722,2.139,2.139,0,0,1,1.048-.256,2.367,2.367,0,0,1,1.182.28,1.839,1.839,0,0,1,.763.85,2.212,2.212,0,0,1,.833-.827,2.274,2.274,0,0,1,1.147-.3,2.224,2.224,0,0,1,1.654.623,2.625,2.625,0,0,1,.617,1.916V-.973h-.967V-4.246A2.141,2.141,0,0,0,71.283-5.6a1.247,1.247,0,0,0-1.037-.454,1.457,1.457,0,0,0-1.159.542,2.318,2.318,0,0,0-.46,1.543V-.973h-.978V-4.246A2.141,2.141,0,0,0,67.288-5.6a1.247,1.247,0,0,0-1.037-.454A1.445,1.445,0,0,0,65.1-5.51a2.318,2.318,0,0,0-.46,1.543V-.973Zm12.348.14a2.619,2.619,0,0,1-1.2-.245A1.663,1.663,0,0,1,74.1-1.73a1.754,1.754,0,0,1-.233-.885,1.569,1.569,0,0,1,.676-1.363,3.137,3.137,0,0,1,1.84-.478h1.561v-.07a1.542,1.542,0,0,0-.4-1.147,1.445,1.445,0,0,0-1.06-.39,1.69,1.69,0,0,0-.984.285,1.25,1.25,0,0,0-.518.833h-1a1.854,1.854,0,0,1,.425-1.06,2.376,2.376,0,0,1,.914-.658A3.009,3.009,0,0,1,76.49-6.89a2.394,2.394,0,0,1,1.823.646,2.4,2.4,0,0,1,.612,1.718V-.973h-.874L77.993-2.01a2.291,2.291,0,0,1-.716.833A2.1,2.1,0,0,1,76.013-.833Zm.151-.827a1.594,1.594,0,0,0,.961-.291,1.859,1.859,0,0,0,.612-.757,2.358,2.358,0,0,0,.21-.978V-3.7H76.467a1.92,1.92,0,0,0-1.217.3.926.926,0,0,0-.355.74.9.9,0,0,0,.332.728A1.436,1.436,0,0,0,76.164-1.66Zm4.823-6.372a.656.656,0,0,1-.483-.192.656.656,0,0,1-.192-.483.622.622,0,0,1,.192-.466.666.666,0,0,1,.483-.186.672.672,0,0,1,.478.186.613.613,0,0,1,.2.466.646.646,0,0,1-.2.483A.661.661,0,0,1,80.986-8.032ZM80.5-.973V-6.751h.978V-.973Zm2.679,0V-9.36h.978V-.973Zm5.731,0V-9.127h.979V-.973Zm2.7,0V-9.127h2.5a4.145,4.145,0,0,1,3.174,1.095,4.238,4.238,0,0,1,1.019,3.005,4.166,4.166,0,0,1-1.019,2.965A4.158,4.158,0,0,1,94.114-.973Zm.978-.815h1.5a3.913,3.913,0,0,0,1.893-.39A2.225,2.225,0,0,0,96.992-3.3a4.489,4.489,0,0,0,.3-1.73,4.6,4.6,0,0,0-.3-1.759,2.249,2.249,0,0,0-1.008-1.13,3.865,3.865,0,0,0-1.893-.4h-1.5Z" transform="translate(-0.064 251.042)" fill="#2a2a2a" opacity="0.8"/>
      <path id="Path_23663" data-name="Path 23663" d="M.962-.973V-9.127H6.006v.8H1.94v2.842H5.656v.792H1.94v2.912H6.006v.8Zm6.512,0V-6.751h.885l.058,1.037a2.1,2.1,0,0,1,.8-.862,2.264,2.264,0,0,1,1.188-.315,2.189,2.189,0,0,1,1.637.623,2.641,2.641,0,0,1,.612,1.916V-.973h-.978V-4.246q0-1.806-1.491-1.806a1.61,1.61,0,0,0-1.241.542,2.208,2.208,0,0,0-.5,1.543V-.973Zm8.946,0a1.869,1.869,0,0,1-1.246-.384,1.747,1.747,0,0,1-.454-1.386v-3.18h-1v-.827h1l.128-1.386h.85v1.386h1.7v.827H15.7v3.18a.961.961,0,0,0,.221.74,1.206,1.206,0,0,0,.78.192h.606v.839Zm4.659.14a2.83,2.83,0,0,1-1.468-.379A2.688,2.688,0,0,1,18.6-2.266a3.3,3.3,0,0,1-.367-1.6,3.347,3.347,0,0,1,.361-1.59,2.626,2.626,0,0,1,1.008-1.06,2.907,2.907,0,0,1,1.5-.379,2.7,2.7,0,0,1,1.45.379,2.565,2.565,0,0,1,.938,1,2.8,2.8,0,0,1,.326,1.328q0,.128-.006.256t-.006.291H19.2a2.27,2.27,0,0,0,.309,1.1,1.825,1.825,0,0,0,.687.658,1.837,1.837,0,0,0,.879.221,1.751,1.751,0,0,0,1.013-.28,1.6,1.6,0,0,0,.594-.757h.967a2.608,2.608,0,0,1-.891,1.334A2.6,2.6,0,0,1,21.079-.833Zm0-5.23a1.954,1.954,0,0,0-1.241.425A1.713,1.713,0,0,0,19.215-4.4H22.85a1.653,1.653,0,0,0-.536-1.223A1.8,1.8,0,0,0,21.079-6.063Zm4.03,5.09V-6.751h.885l.082,1.107a2.1,2.1,0,0,1,.815-.909,2.528,2.528,0,0,1,1.351-.338v1.025h-.268a2.418,2.418,0,0,0-.944.181,1.433,1.433,0,0,0-.687.612,2.327,2.327,0,0,0-.256,1.188V-.973Zm9.971.14A2.924,2.924,0,0,1,33.6-1.212a2.722,2.722,0,0,1-1.037-1.06,3.221,3.221,0,0,1-.379-1.59,3.221,3.221,0,0,1,.379-1.59A2.722,2.722,0,0,1,33.6-6.512a2.924,2.924,0,0,1,1.485-.379,2.775,2.775,0,0,1,1.73.536A2.335,2.335,0,0,1,37.7-4.922h-1a1.284,1.284,0,0,0-.571-.833,1.893,1.893,0,0,0-1.06-.3,1.835,1.835,0,0,0-.92.245,1.825,1.825,0,0,0-.7.734,2.5,2.5,0,0,0-.268,1.211A2.5,2.5,0,0,0,33.45-2.65a1.866,1.866,0,0,0,.7.74,1.8,1.8,0,0,0,.92.25,1.893,1.893,0,0,0,1.06-.3A1.289,1.289,0,0,0,36.7-2.8h1a2.313,2.313,0,0,1-.885,1.421A2.759,2.759,0,0,1,35.081-.833Zm6.092,0a2.169,2.169,0,0,1-1.631-.623,2.657,2.657,0,0,1-.606-1.916V-6.751h.978v3.273q0,1.806,1.479,1.806a1.623,1.623,0,0,0,1.252-.542,2.208,2.208,0,0,0,.5-1.543V-6.751h.978V-.973h-.885l-.07-1.037a2.011,2.011,0,0,1-.8.862A2.3,2.3,0,0,1,41.173-.833Zm6.768,0a2.76,2.76,0,0,1-1.724-.524,2.044,2.044,0,0,1-.8-1.421h1a1.382,1.382,0,0,0,.483.786,1.573,1.573,0,0,0,1.054.332,1.329,1.329,0,0,0,.909-.262.812.812,0,0,0,.291-.623.692.692,0,0,0-.379-.7,5.039,5.039,0,0,0-1.066-.315,6.008,6.008,0,0,1-.932-.268,2.117,2.117,0,0,1-.78-.5,1.154,1.154,0,0,1-.315-.845,1.559,1.559,0,0,1,.565-1.241,2.278,2.278,0,0,1,1.532-.483,2.376,2.376,0,0,1,1.508.46,1.836,1.836,0,0,1,.681,1.31H49a1.008,1.008,0,0,0-.379-.693,1.353,1.353,0,0,0-.856-.25,1.3,1.3,0,0,0-.81.221.7.7,0,0,0-.285.582.605.605,0,0,0,.367.547,3.939,3.939,0,0,0,1,.338,8.676,8.676,0,0,1,1.019.285,1.926,1.926,0,0,1,.792.5,1.361,1.361,0,0,1,.309.961,1.578,1.578,0,0,1-.588,1.287A2.437,2.437,0,0,1,47.941-.833Zm5.638-.14a1.869,1.869,0,0,1-1.246-.384,1.747,1.747,0,0,1-.454-1.386v-3.18h-1v-.827h1l.128-1.386h.85v1.386h1.7v.827h-1.7v3.18a.961.961,0,0,0,.221.74,1.206,1.206,0,0,0,.78.192h.606v.839Zm4.694.14a2.905,2.905,0,0,1-1.468-.373A2.693,2.693,0,0,1,55.775-2.26a3.246,3.246,0,0,1-.379-1.6,3.206,3.206,0,0,1,.384-1.6,2.721,2.721,0,0,1,1.043-1.054A2.937,2.937,0,0,1,58.3-6.89a2.905,2.905,0,0,1,1.468.373A2.693,2.693,0,0,1,60.8-5.464a3.246,3.246,0,0,1,.379,1.6,3.206,3.206,0,0,1-.384,1.6,2.721,2.721,0,0,1-1.043,1.054A2.937,2.937,0,0,1,58.273-.833Zm0-.839a1.857,1.857,0,0,0,.932-.245,1.825,1.825,0,0,0,.7-.734,2.5,2.5,0,0,0,.268-1.211,2.541,2.541,0,0,0-.262-1.211,1.787,1.787,0,0,0-.693-.734,1.835,1.835,0,0,0-.92-.245,1.857,1.857,0,0,0-.932.245,1.825,1.825,0,0,0-.7.734A2.5,2.5,0,0,0,56.4-3.862a2.5,2.5,0,0,0,.268,1.211,1.838,1.838,0,0,0,.693.734A1.8,1.8,0,0,0,58.273-1.672Zm4.263.7V-6.751h.885l.07.839a1.957,1.957,0,0,1,.746-.722,2.139,2.139,0,0,1,1.048-.256,2.367,2.367,0,0,1,1.182.28,1.839,1.839,0,0,1,.763.85,2.212,2.212,0,0,1,.833-.827,2.274,2.274,0,0,1,1.147-.3,2.224,2.224,0,0,1,1.654.623,2.625,2.625,0,0,1,.617,1.916V-.973h-.967V-4.246A2.141,2.141,0,0,0,70.155-5.6a1.247,1.247,0,0,0-1.037-.454,1.457,1.457,0,0,0-1.159.542,2.318,2.318,0,0,0-.46,1.543V-.973H66.52V-4.246A2.141,2.141,0,0,0,66.159-5.6a1.247,1.247,0,0,0-1.037-.454,1.445,1.445,0,0,0-1.147.542,2.318,2.318,0,0,0-.46,1.543V-.973Zm13.023.14a2.83,2.83,0,0,1-1.468-.379,2.688,2.688,0,0,1-1.008-1.054,3.3,3.3,0,0,1-.367-1.6,3.347,3.347,0,0,1,.361-1.59,2.626,2.626,0,0,1,1.008-1.06,2.907,2.907,0,0,1,1.5-.379,2.7,2.7,0,0,1,1.45.379,2.565,2.565,0,0,1,.938,1A2.8,2.8,0,0,1,78.3-4.188q0,.128-.006.256t-.006.291h-4.6a2.27,2.27,0,0,0,.309,1.1,1.825,1.825,0,0,0,.687.658,1.837,1.837,0,0,0,.879.221,1.751,1.751,0,0,0,1.013-.28,1.6,1.6,0,0,0,.594-.757h.967a2.608,2.608,0,0,1-.891,1.334A2.6,2.6,0,0,1,75.56-.833Zm0-5.23a1.954,1.954,0,0,0-1.241.425A1.713,1.713,0,0,0,73.7-4.4H77.33a1.653,1.653,0,0,0-.536-1.223A1.8,1.8,0,0,0,75.56-6.063Zm4.03,5.09V-6.751h.885l.082,1.107a2.1,2.1,0,0,1,.815-.909,2.528,2.528,0,0,1,1.351-.338v1.025h-.268a2.418,2.418,0,0,0-.944.181,1.433,1.433,0,0,0-.687.612,2.327,2.327,0,0,0-.256,1.188V-.973Zm9.913.14a2.83,2.83,0,0,1-1.468-.379,2.688,2.688,0,0,1-1.008-1.054,3.3,3.3,0,0,1-.367-1.6,3.347,3.347,0,0,1,.361-1.59,2.626,2.626,0,0,1,1.008-1.06,2.907,2.907,0,0,1,1.5-.379,2.7,2.7,0,0,1,1.45.379,2.565,2.565,0,0,1,.938,1,2.8,2.8,0,0,1,.326,1.328q0,.128-.006.256t-.006.291h-4.6a2.27,2.27,0,0,0,.309,1.1,1.825,1.825,0,0,0,.687.658,1.837,1.837,0,0,0,.879.221,1.751,1.751,0,0,0,1.013-.28,1.6,1.6,0,0,0,.594-.757h.967a2.608,2.608,0,0,1-.891,1.334A2.6,2.6,0,0,1,89.5-.833Zm0-5.23a1.954,1.954,0,0,0-1.241.425A1.713,1.713,0,0,0,87.639-4.4h3.634a1.653,1.653,0,0,0-.536-1.223A1.8,1.8,0,0,0,89.5-6.063Zm4.03,5.09V-6.751h.885l.07.839a1.957,1.957,0,0,1,.746-.722,2.139,2.139,0,0,1,1.048-.256,2.367,2.367,0,0,1,1.182.28,1.839,1.839,0,0,1,.763.85,2.212,2.212,0,0,1,.833-.827,2.274,2.274,0,0,1,1.147-.3,2.224,2.224,0,0,1,1.654.623,2.625,2.625,0,0,1,.617,1.916V-.973h-.967V-4.246a2.141,2.141,0,0,0-.361-1.351,1.247,1.247,0,0,0-1.037-.454,1.457,1.457,0,0,0-1.159.542,2.318,2.318,0,0,0-.46,1.543V-.973h-.978V-4.246A2.141,2.141,0,0,0,97.156-5.6a1.247,1.247,0,0,0-1.037-.454,1.445,1.445,0,0,0-1.147.542,2.318,2.318,0,0,0-.46,1.543V-.973Zm12.348.14a2.619,2.619,0,0,1-1.2-.245,1.663,1.663,0,0,1-.711-.652,1.754,1.754,0,0,1-.233-.885,1.569,1.569,0,0,1,.676-1.363,3.137,3.137,0,0,1,1.84-.478h1.561v-.07a1.542,1.542,0,0,0-.4-1.147,1.445,1.445,0,0,0-1.06-.39,1.69,1.69,0,0,0-.984.285,1.25,1.25,0,0,0-.518.833h-1a1.854,1.854,0,0,1,.425-1.06,2.376,2.376,0,0,1,.914-.658,3.009,3.009,0,0,1,1.165-.227,2.394,2.394,0,0,1,1.823.646,2.4,2.4,0,0,1,.612,1.718V-.973h-.874l-.058-1.037a2.292,2.292,0,0,1-.716.833A2.1,2.1,0,0,1,105.881-.833Zm.151-.827a1.594,1.594,0,0,0,.961-.291,1.859,1.859,0,0,0,.612-.757,2.358,2.358,0,0,0,.21-.978V-3.7h-1.479a1.92,1.92,0,0,0-1.217.3.926.926,0,0,0-.355.74.9.9,0,0,0,.332.728A1.436,1.436,0,0,0,106.033-1.66Zm4.823-6.372a.655.655,0,0,1-.483-.192.656.656,0,0,1-.192-.483.622.622,0,0,1,.192-.466.666.666,0,0,1,.483-.186.672.672,0,0,1,.478.186.613.613,0,0,1,.2.466.646.646,0,0,1-.2.483A.661.661,0,0,1,110.855-8.032Zm-.489,7.059V-6.751h.978V-.973Zm2.679,0V-9.36h.978V-.973Zm5.731,0V-9.127h.978V-.973Zm2.7,0V-9.127h2.5a4.145,4.145,0,0,1,3.174,1.095,4.238,4.238,0,0,1,1.019,3.005,4.166,4.166,0,0,1-1.019,2.965,4.158,4.158,0,0,1-3.174,1.089Zm.978-.815h1.5a3.913,3.913,0,0,0,1.893-.39A2.225,2.225,0,0,0,126.86-3.3a4.489,4.489,0,0,0,.3-1.73,4.6,4.6,0,0,0-.3-1.759,2.249,2.249,0,0,0-1.008-1.13,3.865,3.865,0,0,0-1.893-.4h-1.5Z" transform="translate(10.653 277.027)" fill="#2a2a2a" opacity="0.5"/>
      <path id="Path_23665" data-name="Path 23665" d="M.962-.973V-9.127H3.595a3.381,3.381,0,0,1,1.561.315,2.052,2.052,0,0,1,.9.862,2.539,2.539,0,0,1,.291,1.211A2.435,2.435,0,0,1,5.93-5.353a2.235,2.235,0,0,1-1.287.874L6.425-.973H5.272L3.618-4.339H1.94V-.973ZM1.94-5.108H3.525A1.821,1.821,0,0,0,4.9-5.563,1.624,1.624,0,0,0,5.33-6.727a1.55,1.55,0,0,0-.425-1.147A1.914,1.914,0,0,0,3.513-8.3H1.94ZM10.06-.833a2.83,2.83,0,0,1-1.468-.379A2.688,2.688,0,0,1,7.584-2.266a3.3,3.3,0,0,1-.367-1.6,3.347,3.347,0,0,1,.361-1.59,2.626,2.626,0,0,1,1.008-1.06,2.907,2.907,0,0,1,1.5-.379,2.7,2.7,0,0,1,1.45.379,2.565,2.565,0,0,1,.938,1A2.8,2.8,0,0,1,12.8-4.188q0,.128-.006.256t-.006.291h-4.6a2.27,2.27,0,0,0,.309,1.1,1.825,1.825,0,0,0,.687.658,1.837,1.837,0,0,0,.879.221,1.751,1.751,0,0,0,1.013-.28,1.6,1.6,0,0,0,.594-.757h.967a2.608,2.608,0,0,1-.891,1.334A2.6,2.6,0,0,1,10.06-.833Zm0-5.23a1.954,1.954,0,0,0-1.241.425A1.713,1.713,0,0,0,8.2-4.4H11.83a1.653,1.653,0,0,0-.536-1.223A1.8,1.8,0,0,0,10.06-6.063Zm6.686,5.23a2.924,2.924,0,0,1-1.485-.379,2.722,2.722,0,0,1-1.037-1.06,3.221,3.221,0,0,1-.379-1.59,3.221,3.221,0,0,1,.379-1.59,2.722,2.722,0,0,1,1.037-1.06,2.924,2.924,0,0,1,1.485-.379,2.775,2.775,0,0,1,1.73.536,2.335,2.335,0,0,1,.891,1.433h-1a1.284,1.284,0,0,0-.571-.833,1.893,1.893,0,0,0-1.06-.3,1.835,1.835,0,0,0-.92.245,1.825,1.825,0,0,0-.7.734,2.5,2.5,0,0,0-.268,1.211,2.5,2.5,0,0,0,.268,1.211,1.866,1.866,0,0,0,.7.74,1.8,1.8,0,0,0,.92.25,1.893,1.893,0,0,0,1.06-.3,1.289,1.289,0,0,0,.571-.845h1a2.313,2.313,0,0,1-.885,1.421A2.759,2.759,0,0,1,16.746-.833Zm6.092,0a2.169,2.169,0,0,1-1.631-.623A2.657,2.657,0,0,1,20.6-3.373V-6.751h.978v3.273q0,1.806,1.479,1.806a1.623,1.623,0,0,0,1.252-.542,2.208,2.208,0,0,0,.5-1.543V-6.751h.978V-.973H24.9L24.83-2.01a2.011,2.011,0,0,1-.8.862A2.3,2.3,0,0,1,22.838-.833Zm4.555-.14V-6.751h.885l.082,1.107a2.1,2.1,0,0,1,.815-.909,2.528,2.528,0,0,1,1.351-.338v1.025h-.268a2.418,2.418,0,0,0-.944.181,1.433,1.433,0,0,0-.687.612,2.327,2.327,0,0,0-.256,1.188V-.973Zm4.228,0V-6.751h.885l.082,1.107a2.1,2.1,0,0,1,.815-.909,2.528,2.528,0,0,1,1.351-.338v1.025h-.268a2.418,2.418,0,0,0-.944.181,1.433,1.433,0,0,0-.687.612A2.327,2.327,0,0,0,32.6-3.885V-.973Zm4.823-7.059a.656.656,0,0,1-.483-.192.656.656,0,0,1-.192-.483.622.622,0,0,1,.192-.466.666.666,0,0,1,.483-.186.672.672,0,0,1,.478.186.613.613,0,0,1,.2.466.646.646,0,0,1-.2.483A.661.661,0,0,1,36.444-8.032ZM35.954-.973V-6.751h.978V-.973Zm2.679,0V-6.751h.885l.058,1.037a2.1,2.1,0,0,1,.8-.862,2.264,2.264,0,0,1,1.188-.315,2.189,2.189,0,0,1,1.637.623,2.641,2.641,0,0,1,.612,1.916V-.973h-.978V-4.246q0-1.806-1.491-1.806a1.61,1.61,0,0,0-1.241.542,2.208,2.208,0,0,0-.5,1.543V-.973ZM47.58-2.79a2.98,2.98,0,0,1-.9-.128l-.582.547a1.173,1.173,0,0,0,.32.157,3.4,3.4,0,0,0,.553.116q.361.052,1.013.111a2.756,2.756,0,0,1,1.666.536,1.529,1.529,0,0,1,.5,1.188,1.823,1.823,0,0,1-.274.955,2.031,2.031,0,0,1-.839.746,3.159,3.159,0,0,1-1.45.291,4.339,4.339,0,0,1-1.386-.2,2.009,2.009,0,0,1-.944-.617,1.594,1.594,0,0,1-.338-1.043,1.692,1.692,0,0,1,.175-.7,1.884,1.884,0,0,1,.652-.716,2.4,2.4,0,0,1-.437-.227,2.263,2.263,0,0,1-.332-.274v-.268l.99-.978a1.916,1.916,0,0,1-.687-1.538,2.042,2.042,0,0,1,.268-1.037,1.916,1.916,0,0,1,.78-.74A2.616,2.616,0,0,1,47.58-6.89a2.789,2.789,0,0,1,.909.14H50.62v.734l-1.083.047a1.94,1.94,0,0,1,.338,1.13A2.009,2.009,0,0,1,49.6-3.8a1.966,1.966,0,0,1-.78.74A2.581,2.581,0,0,1,47.58-2.79Zm0-.8a1.444,1.444,0,0,0,.984-.32,1.163,1.163,0,0,0,.367-.926,1.149,1.149,0,0,0-.367-.914,1.444,1.444,0,0,0-.984-.32,1.462,1.462,0,0,0-1,.32,1.149,1.149,0,0,0-.367.914,1.163,1.163,0,0,0,.367.926A1.462,1.462,0,0,0,47.58-3.594Zm-1.7,3.366a.939.939,0,0,0,.489.868,2.4,2.4,0,0,0,1.223.285A1.942,1.942,0,0,0,48.75.611a.984.984,0,0,0,.437-.839.845.845,0,0,0-.3-.646,1.866,1.866,0,0,0-1.118-.32q-.641-.047-1.107-.116a1.434,1.434,0,0,0-.629.553A1.193,1.193,0,0,0,45.879-.227ZM54.814,1.59v-8.34H55.7l.093.955a2.727,2.727,0,0,1,.8-.757,2.378,2.378,0,0,1,1.322-.338,2.8,2.8,0,0,1,1.5.4,2.71,2.71,0,0,1,1,1.083,3.349,3.349,0,0,1,.355,1.561A3.314,3.314,0,0,1,60.411-2.3a2.666,2.666,0,0,1-1,1.072,2.862,2.862,0,0,1-1.508.39,2.673,2.673,0,0,1-1.264-.291,2.014,2.014,0,0,1-.845-.815V1.59ZM57.8-1.684a1.909,1.909,0,0,0,1.025-.274,1.927,1.927,0,0,0,.7-.763,2.426,2.426,0,0,0,.256-1.142A2.426,2.426,0,0,0,59.52-5a1.927,1.927,0,0,0-.7-.763A1.909,1.909,0,0,0,57.8-6.04a1.909,1.909,0,0,0-1.025.274,1.926,1.926,0,0,0-.7.763,2.426,2.426,0,0,0-.256,1.142,2.426,2.426,0,0,0,.256,1.142,1.926,1.926,0,0,0,.7.763A1.909,1.909,0,0,0,57.8-1.684Zm6.255.85a2.619,2.619,0,0,1-1.2-.245,1.663,1.663,0,0,1-.711-.652,1.754,1.754,0,0,1-.233-.885,1.569,1.569,0,0,1,.676-1.363,3.137,3.137,0,0,1,1.84-.478h1.561v-.07a1.542,1.542,0,0,0-.4-1.147,1.445,1.445,0,0,0-1.06-.39,1.69,1.69,0,0,0-.984.285,1.25,1.25,0,0,0-.518.833h-1a1.854,1.854,0,0,1,.425-1.06,2.376,2.376,0,0,1,.914-.658,3.009,3.009,0,0,1,1.165-.227,2.394,2.394,0,0,1,1.823.646,2.4,2.4,0,0,1,.612,1.718V-.973h-.874L66.031-2.01a2.291,2.291,0,0,1-.716.833A2.1,2.1,0,0,1,64.051-.833ZM64.2-1.66a1.594,1.594,0,0,0,.961-.291,1.859,1.859,0,0,0,.612-.757,2.358,2.358,0,0,0,.21-.978V-3.7H64.505a1.92,1.92,0,0,0-1.217.3.926.926,0,0,0-.355.74.9.9,0,0,0,.332.728A1.436,1.436,0,0,0,64.2-1.66Zm4.683,3.25,1.433-3.122H69.98L67.685-6.751h1.06l1.91,4.5,2.027-4.5H73.7L69.91,1.59ZM74.733-.973V-6.751h.885l.07.839a1.957,1.957,0,0,1,.746-.722,2.139,2.139,0,0,1,1.048-.256,2.367,2.367,0,0,1,1.182.28,1.839,1.839,0,0,1,.763.85,2.212,2.212,0,0,1,.833-.827,2.274,2.274,0,0,1,1.147-.3,2.224,2.224,0,0,1,1.654.623,2.625,2.625,0,0,1,.617,1.916V-.973h-.967V-4.246A2.141,2.141,0,0,0,82.351-5.6a1.247,1.247,0,0,0-1.037-.454,1.457,1.457,0,0,0-1.159.542,2.318,2.318,0,0,0-.46,1.543V-.973h-.978V-4.246A2.141,2.141,0,0,0,78.355-5.6a1.247,1.247,0,0,0-1.037-.454,1.445,1.445,0,0,0-1.147.542,2.318,2.318,0,0,0-.46,1.543V-.973Zm13.023.14a2.83,2.83,0,0,1-1.468-.379,2.688,2.688,0,0,1-1.008-1.054,3.3,3.3,0,0,1-.367-1.6,3.347,3.347,0,0,1,.361-1.59,2.626,2.626,0,0,1,1.008-1.06,2.907,2.907,0,0,1,1.5-.379,2.7,2.7,0,0,1,1.45.379,2.565,2.565,0,0,1,.938,1,2.8,2.8,0,0,1,.326,1.328q0,.128-.006.256t-.006.291h-4.6a2.27,2.27,0,0,0,.309,1.1,1.825,1.825,0,0,0,.687.658,1.837,1.837,0,0,0,.879.221,1.751,1.751,0,0,0,1.013-.28,1.6,1.6,0,0,0,.594-.757h.967a2.608,2.608,0,0,1-.891,1.334A2.6,2.6,0,0,1,87.756-.833Zm0-5.23a1.954,1.954,0,0,0-1.241.425A1.713,1.713,0,0,0,85.892-4.4h3.634a1.653,1.653,0,0,0-.536-1.223A1.8,1.8,0,0,0,87.756-6.063Zm4.03,5.09V-6.751h.885l.058,1.037a2.1,2.1,0,0,1,.8-.862,2.264,2.264,0,0,1,1.188-.315,2.189,2.189,0,0,1,1.637.623,2.641,2.641,0,0,1,.612,1.916V-.973h-.978V-4.246q0-1.806-1.491-1.806a1.61,1.61,0,0,0-1.241.542,2.208,2.208,0,0,0-.5,1.543V-.973Zm8.946,0a1.869,1.869,0,0,1-1.246-.384,1.747,1.747,0,0,1-.454-1.386v-3.18h-1v-.827h1l.128-1.386h.85v1.386h1.7v.827h-1.7v3.18a.961.961,0,0,0,.221.74,1.206,1.206,0,0,0,.78.192h.606v.839Z" transform="translate(23.197 314.661)" fill="#2a2a2a" opacity="0.8"/>
      <g id="outerbox" transform="translate(0 300.248)" fill="none">
        <path d="M1.792,0H16.129a1.792,1.792,0,0,1,1.792,1.792V16.129a1.792,1.792,0,0,1-1.792,1.792H1.792A1.792,1.792,0,0,1,0,16.129V1.792A1.792,1.792,0,0,1,1.792,0Z" stroke="none"/>
        <path d="M 1.792095184326172 0.9999961853027344 C 1.355325698852539 0.9999961853027344 0.9999961853027344 1.355325698852539 0.9999961853027344 1.792095184326172 L 0.9999961853027344 16.12885665893555 C 0.9999961853027344 16.56562614440918 1.355325698852539 16.92095565795898 1.792095184326172 16.92095565795898 L 16.12885665893555 16.92095565795898 C 16.56562614440918 16.92095565795898 16.92095565795898 16.56562614440918 16.92095565795898 16.12885665893555 L 16.92095565795898 1.792095184326172 C 16.92095565795898 1.355325698852539 16.56562614440918 0.9999961853027344 16.12885665893555 0.9999961853027344 L 1.792095184326172 0.9999961853027344 M 1.792095184326172 -3.814697265625e-06 L 16.12885665893555 -3.814697265625e-06 C 17.11860656738281 -3.814697265625e-06 17.92095565795898 0.8023452758789062 17.92095565795898 1.792095184326172 L 17.92095565795898 16.12885665893555 C 17.92095565795898 17.11860656738281 17.11860656738281 17.92095565795898 16.12885665893555 17.92095565795898 L 1.792095184326172 17.92095565795898 C 0.8023452758789062 17.92095565795898 -3.814697265625e-06 17.11860656738281 -3.814697265625e-06 16.12885665893555 L -3.814697265625e-06 1.792095184326172 C -3.814697265625e-06 0.8023452758789062 0.8023452758789062 -3.814697265625e-06 1.792095184326172 -3.814697265625e-06 Z" stroke="none" fill="#797979"/>
      </g>
      <path id="Path_23650" data-name="Path 23650" d="M4.9-.9a4.364,4.364,0,0,1-2.283-.571A3.809,3.809,0,0,1,1.144-3.061,5.194,5.194,0,0,1,.63-5.426,5.234,5.234,0,0,1,1.144-7.8,3.842,3.842,0,0,1,2.612-9.4,4.327,4.327,0,0,1,4.9-9.98a4.1,4.1,0,0,1,2.59.784,3.424,3.424,0,0,1,1.261,2.2H6.978a1.89,1.89,0,0,0-.7-1.123A2.263,2.263,0,0,0,4.87-8.524,2.348,2.348,0,0,0,2.963-7.7a3.441,3.441,0,0,0-.69,2.271,3.415,3.415,0,0,0,.69,2.264A2.356,2.356,0,0,0,4.87-2.34a2.37,2.37,0,0,0,1.411-.383,1.765,1.765,0,0,0,.7-1.06H8.746a3.307,3.307,0,0,1-1.261,2.12A4.171,4.171,0,0,1,4.9-.9Zm5.231-.151V-7.27h1.43L11.707-6.1a2.6,2.6,0,0,1,.922-.96A2.576,2.576,0,0,1,14-7.421v1.694h-.452a2.551,2.551,0,0,0-.941.163A1.267,1.267,0,0,0,11.964-5a2.242,2.242,0,0,0-.232,1.116v2.835ZM18-.9a3.4,3.4,0,0,1-1.668-.4,2.905,2.905,0,0,1-1.142-1.129,3.34,3.34,0,0,1-.414-1.681,3.551,3.551,0,0,1,.408-1.719A2.96,2.96,0,0,1,16.317-7a3.317,3.317,0,0,1,1.7-.42,3.2,3.2,0,0,1,1.618.4,2.883,2.883,0,0,1,1.1,1.1,3.083,3.083,0,0,1,.4,1.549q0,.138-.006.289T21.1-3.77H16.374a1.62,1.62,0,0,0,.508,1.142,1.6,1.6,0,0,0,1.11.414,1.459,1.459,0,0,0,.822-.22,1.36,1.36,0,0,0,.5-.571H20.94a2.957,2.957,0,0,1-.583,1.073,2.876,2.876,0,0,1-1,.759A3.173,3.173,0,0,1,18-.9Zm.013-5.219a1.71,1.71,0,0,0-1.041.332,1.541,1.541,0,0,0-.577,1.01h3.1a1.354,1.354,0,0,0-.452-.978A1.5,1.5,0,0,0,18.017-6.116ZM24.628-.9a2.944,2.944,0,0,1-1.317-.257,1.779,1.779,0,0,1-.765-.684,1.822,1.822,0,0,1-.251-.941,1.712,1.712,0,0,1,.677-1.405A3.221,3.221,0,0,1,25-4.723h1.581v-.151a1.152,1.152,0,0,0-.364-.941,1.369,1.369,0,0,0-.9-.3,1.552,1.552,0,0,0-.853.232,1,1,0,0,0-.452.684H22.445A2.188,2.188,0,0,1,22.9-6.379a2.563,2.563,0,0,1,1.022-.771,3.522,3.522,0,0,1,1.405-.27,3.087,3.087,0,0,1,2.095.665,2.359,2.359,0,0,1,.765,1.882v3.826H26.823l-.151-1a2.319,2.319,0,0,1-.771.828A2.275,2.275,0,0,1,24.628-.9Zm.364-1.254A1.329,1.329,0,0,0,26.064-2.6a2.193,2.193,0,0,0,.483-1.116H25.18a1.426,1.426,0,0,0-.916.232.718.718,0,0,0-.276.571.657.657,0,0,0,.276.565A1.209,1.209,0,0,0,24.992-2.152Zm7.414,1.1a2.419,2.419,0,0,1-1.568-.477,2.073,2.073,0,0,1-.59-1.694v-2.71H29.182V-7.27h1.066l.188-1.668h1.418V-7.27h1.681v1.342H31.854v2.722a.8.8,0,0,0,.194.621,1.029,1.029,0,0,0,.671.169H33.5v1.367ZM37.775-.9a3.4,3.4,0,0,1-1.668-.4,2.905,2.905,0,0,1-1.142-1.129,3.34,3.34,0,0,1-.414-1.681,3.55,3.55,0,0,1,.408-1.719A2.96,2.96,0,0,1,36.087-7a3.317,3.317,0,0,1,1.7-.42,3.2,3.2,0,0,1,1.618.4,2.883,2.883,0,0,1,1.1,1.1,3.083,3.083,0,0,1,.4,1.549q0,.138-.006.289t-.019.314H36.144a1.62,1.62,0,0,0,.508,1.142,1.6,1.6,0,0,0,1.11.414,1.459,1.459,0,0,0,.822-.22,1.36,1.36,0,0,0,.5-.571H40.71a2.957,2.957,0,0,1-.583,1.073,2.876,2.876,0,0,1-1,.759A3.173,3.173,0,0,1,37.775-.9Zm.013-5.219a1.71,1.71,0,0,0-1.041.332,1.541,1.541,0,0,0-.577,1.01h3.1a1.354,1.354,0,0,0-.452-.978A1.5,1.5,0,0,0,37.787-6.116Zm7.489,5.068V-9.829h3.249a3.829,3.829,0,0,1,1.744.351,2.355,2.355,0,0,1,1.029.966,2.811,2.811,0,0,1,.339,1.38A2.783,2.783,0,0,1,51.31-5.8a2.4,2.4,0,0,1-1.016.978,3.725,3.725,0,0,1-1.769.37H46.882v3.4Zm1.606-4.7h1.543a1.664,1.664,0,0,0,1.211-.37,1.365,1.365,0,0,0,.37-1.01,1.382,1.382,0,0,0-.37-1.022,1.664,1.664,0,0,0-1.211-.37H46.882ZM54.61-.9a2.944,2.944,0,0,1-1.317-.257,1.779,1.779,0,0,1-.765-.684,1.822,1.822,0,0,1-.251-.941,1.712,1.712,0,0,1,.677-1.405,3.221,3.221,0,0,1,2.032-.539h1.581v-.151a1.152,1.152,0,0,0-.364-.941,1.369,1.369,0,0,0-.9-.3,1.552,1.552,0,0,0-.853.232A1,1,0,0,0,54-5.2H52.427a2.188,2.188,0,0,1,.458-1.179,2.563,2.563,0,0,1,1.022-.771,3.522,3.522,0,0,1,1.4-.27,3.087,3.087,0,0,1,2.095.665,2.359,2.359,0,0,1,.765,1.882v3.826H56.805l-.151-1a2.319,2.319,0,0,1-.771.828A2.275,2.275,0,0,1,54.61-.9Zm.364-1.254A1.329,1.329,0,0,0,56.046-2.6a2.193,2.193,0,0,0,.483-1.116H55.162a1.426,1.426,0,0,0-.916.232.718.718,0,0,0-.276.571.657.657,0,0,0,.276.565A1.209,1.209,0,0,0,54.973-2.152Zm5.294,3.864L61.71-1.462h-.376L58.913-7.27h1.744L62.4-2.892,64.219-7.27h1.706L61.973,1.712Zm6.711-2.76V-7.27H68.4l.138.84a2.209,2.209,0,0,1,.8-.721,2.363,2.363,0,0,1,1.148-.27A2.132,2.132,0,0,1,72.523-6.3a2.417,2.417,0,0,1,.909-.815,2.634,2.634,0,0,1,1.248-.3,2.38,2.38,0,0,1,1.869.728A3.1,3.1,0,0,1,77.2-4.56v3.513H75.6V-4.41a2.085,2.085,0,0,0-.307-1.229,1.089,1.089,0,0,0-.947-.427,1.293,1.293,0,0,0-1.047.477,2.026,2.026,0,0,0-.4,1.33v3.211H71.294V-4.41a2.053,2.053,0,0,0-.314-1.229,1.12,1.12,0,0,0-.966-.427,1.279,1.279,0,0,0-1.035.477,2.026,2.026,0,0,0-.4,1.33v3.211ZM81.756-.9a3.4,3.4,0,0,1-1.668-.4,2.905,2.905,0,0,1-1.142-1.129,3.34,3.34,0,0,1-.414-1.681,3.55,3.55,0,0,1,.408-1.719A2.96,2.96,0,0,1,80.069-7a3.317,3.317,0,0,1,1.7-.42,3.2,3.2,0,0,1,1.618.4,2.883,2.883,0,0,1,1.1,1.1,3.083,3.083,0,0,1,.4,1.549q0,.138-.006.289t-.019.314H80.126a1.62,1.62,0,0,0,.508,1.142,1.6,1.6,0,0,0,1.11.414,1.459,1.459,0,0,0,.822-.22,1.36,1.36,0,0,0,.5-.571h1.631a2.957,2.957,0,0,1-.583,1.073,2.876,2.876,0,0,1-1,.759A3.173,3.173,0,0,1,81.756-.9Zm.013-5.219a1.71,1.71,0,0,0-1.041.332,1.541,1.541,0,0,0-.577,1.01h3.1a1.354,1.354,0,0,0-.452-.978A1.5,1.5,0,0,0,81.769-6.116Zm4.466,5.068V-7.27h1.418l.125,1.054a2.188,2.188,0,0,1,.834-.878A2.459,2.459,0,0,1,89.9-7.421a2.263,2.263,0,0,1,1.794.728,3.139,3.139,0,0,1,.64,2.133v3.513H90.726V-4.41A1.993,1.993,0,0,0,90.4-5.639a1.2,1.2,0,0,0-1.016-.427,1.432,1.432,0,0,0-1.11.477,1.907,1.907,0,0,0-.433,1.33v3.211Zm10.4,0a2.419,2.419,0,0,1-1.568-.477,2.073,2.073,0,0,1-.59-1.694v-2.71H93.41V-7.27h1.066l.188-1.668h1.418V-7.27h1.681v1.342H96.082v2.722a.8.8,0,0,0,.194.621,1.029,1.029,0,0,0,.671.169h.778v1.367Zm5.532,0V-9.829h1.606V-2.3h3.889v1.254Zm7.74-7.188a1.015,1.015,0,0,1-.721-.263.871.871,0,0,1-.282-.665.851.851,0,0,1,.282-.659,1.03,1.03,0,0,1,.721-.257,1.03,1.03,0,0,1,.721.257.851.851,0,0,1,.282.659.871.871,0,0,1-.282.665A1.015,1.015,0,0,1,109.907-8.236Zm-.8,7.188V-7.27h1.606v6.222Zm3.287,0V-7.27h1.418l.125,1.054a2.188,2.188,0,0,1,.834-.878,2.459,2.459,0,0,1,1.286-.326,2.263,2.263,0,0,1,1.794.728,3.139,3.139,0,0,1,.64,2.133v3.513h-1.606V-4.41a1.993,1.993,0,0,0-.326-1.229,1.2,1.2,0,0,0-1.016-.427,1.432,1.432,0,0,0-1.11.477A1.907,1.907,0,0,0,114-4.259v3.211Zm7.627,0V-10.08h1.606v5.331l2.208-2.521h1.907l-2.547,2.835,2.961,3.387h-2.007l-2.521-3.124v3.124Z" transform="translate(44.737 10.08)" fill="#2a2a2a"/>
    </g>
  </g>
</svg>
