<svg xmlns="http://www.w3.org/2000/svg" width="32.01" height="32" viewBox="0 0 32.01 32">
  <g id="Group_8514" data-name="Group 8514" transform="translate(-145 -255)">
    <path id="Path_6572" data-name="Path 6572" d="M31.995,1.854,30.331.19A.308.308,0,0,0,30.108.1a.325.325,0,0,0-.224.09L26.9,3.176a7.855,7.855,0,0,0-9.949.953l-4,4a.315.315,0,0,0,0,.443L23.611,19.229a.308.308,0,0,0,.224.09.332.332,0,0,0,.224-.09l4-4a7.854,7.854,0,0,0,.953-9.945L31.995,2.3a.32.32,0,0,0,0-.447ZM18.7,17.463a.315.315,0,0,0-.443,0l-2.613,2.613L12.1,16.534l2.617-2.617a.315.315,0,0,0,0-.443l-1.428-1.428a.315.315,0,0,0-.443,0l-2.617,2.617L8.547,12.975a.308.308,0,0,0-.224-.09.332.332,0,0,0-.224.09l-3.994,4a7.854,7.854,0,0,0-.953,9.945L.167,29.9a.315.315,0,0,0,0,.443L1.831,32.01a.308.308,0,0,0,.224.09.325.325,0,0,0,.224-.09l2.985-2.985a7.855,7.855,0,0,0,9.949-.953l4-4a.315.315,0,0,0,0-.443l-1.687-1.687,2.617-2.617a.315.315,0,0,0,0-.443L18.7,17.463Z" transform="translate(144.924 254.9)" fill="#85e6c4"/>
    <path id="Path_15134" data-name="Path 15134" d="M34.392,1.854,32.728.19A.308.308,0,0,0,32.5.1a.325.325,0,0,0-.224.09L29.3,3.176a7.855,7.855,0,0,0-9.949.953l-4,4a.315.315,0,0,0,0,.443L26.008,19.229a.308.308,0,0,0,.224.09.332.332,0,0,0,.224-.09l4-4a7.854,7.854,0,0,0,.953-9.945L34.392,2.3a.32.32,0,0,0,0-.447Z" transform="translate(142.527 254.9)" fill="#6d44e5"/>
  </g>
</svg>
