<svg xmlns="http://www.w3.org/2000/svg" width="25.891" height="32" viewBox="0 0 25.891 32">
  <g id="Group_18920" data-name="Group 18920" transform="translate(-991 -4403)">
    <path id="Subtraction_19" data-name="Subtraction 19" d="M-4504.054,32h-.4a.813.813,0,0,1-.364-.08,16.6,16.6,0,0,1-8.739-6.575A18.611,18.611,0,0,1-4517,14.483V6.837a3.042,3.042,0,0,1,.587-1.821,3.346,3.346,0,0,1,1.517-1.173l9.709-3.64a3.363,3.363,0,0,1,1.132-.2,3.363,3.363,0,0,1,1.132.2l9.709,3.64a3.353,3.353,0,0,1,1.518,1.173,3.045,3.045,0,0,1,.585,1.821v7.646a18.6,18.6,0,0,1-3.438,10.861,16.592,16.592,0,0,1-8.738,6.575A2.433,2.433,0,0,1-4504.054,32Zm-4.583-18.694a1.53,1.53,0,0,0-1.528,1.528v7.639A1.529,1.529,0,0,0-4508.637,24h9.167a1.529,1.529,0,0,0,1.528-1.527V14.833a1.53,1.53,0,0,0-1.528-1.528h-.764V11.778a3.824,3.824,0,0,0-3.819-3.82,3.825,3.825,0,0,0-3.82,3.82v1.527Zm6.874,0h-4.583V11.778a2.3,2.3,0,0,1,2.292-2.292,2.294,2.294,0,0,1,2.291,2.292V13.3Z" transform="translate(5508 4403)" fill="#85e6c4"/>
    <path id="Subtraction_20" data-name="Subtraction 20" d="M-4504.054,32h-.4a.813.813,0,0,1-.364-.08,16.6,16.6,0,0,1-8.739-6.575A18.611,18.611,0,0,1-4517,14.483V6.837a3.042,3.042,0,0,1,.587-1.821,3.346,3.346,0,0,1,1.517-1.173l9.709-3.64a3.363,3.363,0,0,1,1.132-.2V7.958a3.825,3.825,0,0,0-3.82,3.82v1.527h-.763a1.53,1.53,0,0,0-1.528,1.528v7.639A1.529,1.529,0,0,0-4508.637,24h4.583v8Zm0-18.694h-2.292V11.778a2.3,2.3,0,0,1,2.292-2.292V13.3Z" transform="translate(5508 4403)" fill="#6d44e5"/>
  </g>
</svg>
