<svg xmlns="http://www.w3.org/2000/svg" xmlns:xlink="http://www.w3.org/1999/xlink" width="18" height="18" viewBox="0 0 18 18">
  <defs>
    <linearGradient id="linear-gradient" x1="0.479" y1="-0.296" x2="0.5" y2="1" gradientUnits="objectBoundingBox">
      <stop offset="0" stop-color="#fff5e9"/>
      <stop offset="0.605" stop-color="#7d95e6"/>
      <stop offset="1" stop-color="#3f28dd"/>
    </linearGradient>
  </defs>
  <g id="Group_18806" data-name="Group 18806" transform="translate(-223 -339)">
    <rect id="Rectangle_6272" data-name="Rectangle 6272" width="18" height="18" transform="translate(223 339)" fill="none"/>
    <g id="Group_18807" data-name="Group 18807" transform="translate(223.133 338.585)">
      <path id="Path_18481" data-name="Path 18481" d="M17.108,4.285l-4.22-3.013a1.673,1.673,0,0,0-1.958,0L6.709,4.285A1.685,1.685,0,0,0,6,5.661V6.9H7.359a1.746,1.746,0,0,1,.625.118l6.576,2.625a2.514,2.514,0,0,1,1.57,2.321h1.688V5.661A1.685,1.685,0,0,0,17.108,4.285ZM11.065,7.746a.422.422,0,1,1,.422-.422A.418.418,0,0,1,11.065,7.746Zm0-1.688a.422.422,0,1,1,.422-.422A.418.418,0,0,1,11.065,6.058Zm1.688,1.688a.422.422,0,1,1,.422-.422A.418.418,0,0,1,12.753,7.746Zm0-1.688a.422.422,0,1,1,.422-.422A.418.418,0,0,1,12.753,6.058Z" transform="translate(-0.935 0)" fill="#33edb0"/>
      <path id="Path_18482" data-name="Path 18482" d="M1.688,19.285A1.693,1.693,0,0,0,3.376,17.6V11.688a1.688,1.688,0,0,0-3.376,0V17.6A1.693,1.693,0,0,0,1.688,19.285Zm7.065-4.7,1.241.43a.81.81,0,0,0,.279.051h5.765a1.7,1.7,0,0,1,1.7,1.688L11.5,19.091a1.673,1.673,0,0,1-1.055.042L5.065,17.614V10H6.415a1.562,1.562,0,0,1,.591.11l5.85,2.186a1,1,0,0,1-.346,1.933H10.29a.779.779,0,0,1-.3-.059l-.945-.363a.416.416,0,0,0-.54.253A.408.408,0,0,0,8.753,14.583Z" transform="translate(0 -1.41)" fill="url(#linear-gradient)"/>
    </g>
  </g>
</svg>
