<svg xmlns="http://www.w3.org/2000/svg" xmlns:xlink="http://www.w3.org/1999/xlink" width="18" height="18" viewBox="0 0 18 18">
  <defs>
    <linearGradient id="linear-gradient" x1="0.52" y1="-0.226" x2="0.5" y2="1" gradientUnits="objectBoundingBox">
      <stop offset="0" stop-color="#fff5e9"/>
      <stop offset="0.605" stop-color="#7d95e6"/>
      <stop offset="1" stop-color="#3f28dd"/>
    </linearGradient>
  </defs>
  <g id="Group_18809" data-name="Group 18809" transform="translate(-492 -360)">
    <g id="Group_18809-2" data-name="Group 18809" transform="translate(492.377 361.455)">
      <path id="Path_18485" data-name="Path 18485" d="M18.937,13.4q0-.089,0-.178l.615-.768a.33.33,0,0,0,.061-.291,4.434,4.434,0,0,0-.448-1.081.329.329,0,0,0-.247-.162l-.977-.109q-.061-.064-.124-.124l-.115-.98a.33.33,0,0,0-.162-.247,4.42,4.42,0,0,0-1.081-.447.329.329,0,0,0-.291.061l-.766.611h-.178l-.768-.613a.33.33,0,0,0-.291-.061,4.432,4.432,0,0,0-1.081.448.329.329,0,0,0-.162.247l-.109.979q-.064.061-.124.124l-.98.112a.33.33,0,0,0-.247.162,4.441,4.441,0,0,0-.448,1.082.329.329,0,0,0,.061.291l.611.766V13.4l-.613.768a.33.33,0,0,0-.061.291,4.435,4.435,0,0,0,.448,1.081.329.329,0,0,0,.247.162l.977.109q.061.064.124.124l.114.98a.33.33,0,0,0,.162.247,4.438,4.438,0,0,0,1.082.448.329.329,0,0,0,.291-.061l.766-.611q.089,0,.178,0l.768.615a.33.33,0,0,0,.291.061,4.418,4.418,0,0,0,1.081-.448.329.329,0,0,0,.162-.247l.109-.977q.064-.061.124-.124l.98-.115a.33.33,0,0,0,.247-.162,4.437,4.437,0,0,0,.448-1.081.329.329,0,0,0-.061-.291Zm-3.625,1.559a1.648,1.648,0,1,1,1.165-.483A1.648,1.648,0,0,1,15.311,14.959Z" transform="translate(-3.095 -2.532)" fill="#33edb0"/>
      <path id="Path_18486" data-name="Path 18486" d="M12.042,1.224A5.383,5.383,0,0,1,13.905,4.34a3.577,3.577,0,0,1,3.18,4.632,5.172,5.172,0,0,0-.374-.795.385.385,0,0,0-.288-.189l-1.14-.127q-.071-.075-.144-.144L15,6.575a.385.385,0,0,0-.189-.288,5.155,5.155,0,0,0-1.262-.522.384.384,0,0,0-.339.071l-.894.713h-.208l-.9-.716a.384.384,0,0,0-.339-.071,5.172,5.172,0,0,0-1.262.523.384.384,0,0,0-.189.288L9.3,7.715q-.075.072-.144.144l-1.143.131a.385.385,0,0,0-.288.189A5.175,5.175,0,0,0,7.2,9.442a.385.385,0,0,0,.072.339l.713.894v.208l-.492.615H4.312A4.31,4.31,0,0,1,3.845,2.9a5.385,5.385,0,0,1,8.2-1.679Z" transform="translate(0 0)" fill-rule="evenodd" fill="url(#linear-gradient)"/>
    </g>
    <rect id="Rectangle_6274" data-name="Rectangle 6274" width="18" height="18" transform="translate(492 360)" fill="none"/>
  </g>
</svg>
