<svg xmlns="http://www.w3.org/2000/svg" width="78.751" height="61.652" viewBox="0 0 78.751 61.652">
  <path id="Path_15151" data-name="Path 15151" d="M6.32-95.983Q1.263-91.889-3.554-82.858T-9.093-66.6a13.1,13.1,0,0,1,6.262-1.686,13.345,13.345,0,0,1,9.994,4.094,14.263,14.263,0,0,1,3.974,10.356,13.732,13.732,0,0,1-4.455,10.6A16.245,16.245,0,0,1-4.758-39.148a16.814,16.814,0,0,1-13-5.539q-5.057-5.539-5.057-14.45,0-10.6,6.864-23T.059-100.8Zm44.794,0q-5.057,4.094-9.874,13.125T35.7-66.6a13.1,13.1,0,0,1,6.262-1.686,13.345,13.345,0,0,1,9.994,4.094,14.263,14.263,0,0,1,3.974,10.356,13.732,13.732,0,0,1-4.455,10.6,16.245,16.245,0,0,1-11.439,4.094,16.814,16.814,0,0,1-13-5.539q-5.057-5.539-5.057-14.45,0-10.6,6.864-23T44.853-100.8Z" transform="translate(22.82 100.8)" fill="#85e6c4" opacity="0.34"/>
</svg>
