<svg xmlns="http://www.w3.org/2000/svg" width="39.183" height="30" viewBox="0 0 39.183 30">
  <g id="Group_8639" data-name="Group 8639" transform="translate(-179.433 -3484.487)">
    <path id="Subtraction_5" data-name="Subtraction 5" d="M18.382,24.081H4.286A4.288,4.288,0,0,1,0,19.8V17.653H17.752a11.521,11.521,0,0,0-.2,2.143,11.373,11.373,0,0,0,.83,4.285ZM18.6,15H0V4.286A4.288,4.288,0,0,1,4.286,0H30a4.287,4.287,0,0,1,4.286,4.286V9.671A11.313,11.313,0,0,0,30,8.412V7.5a1.072,1.072,0,0,0-1.071-1.071H24.643A1.072,1.072,0,0,0,23.571,7.5V9.643c0,.027,0,.054,0,.081A11.53,11.53,0,0,0,18.6,15Z" transform="translate(179.433 3484.487)" fill="#85e6c4"/>
    <path id="Subtraction_6" data-name="Subtraction 6" d="M10.2,20.408a10.2,10.2,0,1,1,10.2-10.2A10.215,10.215,0,0,1,10.2,20.408ZM9.334,5.992a1.807,1.807,0,0,0-1.707.857,4.983,4.983,0,0,0-.49,2.435,4.953,4.953,0,0,0,.49,2.43,1.81,1.81,0,0,0,1.707.852,1.81,1.81,0,0,0,1.707-.852,4.953,4.953,0,0,0,.49-2.43,5,5,0,0,0-.488-2.435A1.811,1.811,0,0,0,9.334,5.992Zm-7.247,4.46a2.635,2.635,0,0,0,.308,1.23,2.016,2.016,0,0,0,1.881.883,2.145,2.145,0,0,0,1.659-.613A2.051,2.051,0,0,0,6.5,10.532a1.58,1.58,0,0,0-.48-1.213.905.905,0,0,0-.491-.294,1.143,1.143,0,0,0,.439-.329,1.411,1.411,0,0,0,.334-.95,1.581,1.581,0,0,0-.561-1.268A2.22,2.22,0,0,0,4.262,6a2.541,2.541,0,0,0-.831.119,1.693,1.693,0,0,0-.584.343,2.034,2.034,0,0,0-.483.69,3.132,3.132,0,0,0-.163.9H3.37a1.183,1.183,0,0,1,.2-.751.755.755,0,0,1,.65-.282.785.785,0,0,1,.6.229.837.837,0,0,1,.213.593.735.735,0,0,1-.418.747,2.362,2.362,0,0,1-.853.119v.9a2.6,2.6,0,0,1,.914.119.822.822,0,0,1,.509.84.941.941,0,0,1-.274.727.923.923,0,0,1-.643.253.846.846,0,0,1-.831-.462,1.443,1.443,0,0,1-.123-.633Zm10.094-1V10.6h1.8v1.811h1.156V10.6h1.8V9.451h-1.8v-1.8H13.983v1.8Zm-2.848,2.1a.727.727,0,0,1-.738-.582,6.016,6.016,0,0,1-.181-1.681A5.951,5.951,0,0,1,8.6,7.578a.721.721,0,0,1,.738-.553.712.712,0,0,1,.732.553,6.2,6.2,0,0,1,.174,1.706,6.285,6.285,0,0,1-.172,1.679A.722.722,0,0,1,9.334,11.547Z" transform="translate(198.208 3494.079)" fill="#6d44e5"/>
  </g>
</svg>
