<svg xmlns="http://www.w3.org/2000/svg" width="23.763" height="33.948" viewBox="0 0 23.763 33.948">
  <g id="Group_18946" data-name="Group 18946" transform="translate(-872.842 -2593.49)">
    <g id="Group_18945" data-name="Group 18945" transform="translate(872.842 2593.489)">
      <path id="Path_24157" data-name="Path 24157" d="M7,2.546A2.546,2.546,0,0,1,9.546,0h6.79a2.546,2.546,0,0,1,2.546,2.546v1.7A2.546,2.546,0,0,1,16.336,6.79H9.546A2.546,2.546,0,0,1,7,4.243ZM9.546,1.7a.849.849,0,0,0-.849.849v1.7a.849.849,0,0,0,.849.849h6.79a.849.849,0,0,0,.849-.849v-1.7a.849.849,0,0,0-.849-.849Z" transform="translate(-1.059)" fill="#85e6c4" fill-rule="evenodd"/>
      <path id="Path_24158" data-name="Path 24158" d="M6.79,3H2.546A2.546,2.546,0,0,0,0,5.546v26.31A2.546,2.546,0,0,0,2.546,34.4H21.217a2.546,2.546,0,0,0,2.546-2.546V5.546A2.546,2.546,0,0,0,21.217,3H16.974V4.7a1.7,1.7,0,0,1-1.7,1.7H8.487a1.7,1.7,0,0,1-1.7-1.7ZM4.243,14.882a.849.849,0,0,1,.849-.849h5.941a.849.849,0,0,1,0,1.7H5.092a.849.849,0,0,1-.849-.849ZM5.092,9.79a.849.849,0,0,0,0,1.7H18.247a.849.849,0,0,0,0-1.7Zm.849,11.882v1.7h1.7v-1.7Zm-.849-1.7a.849.849,0,0,0-.849.849v3.395a.849.849,0,0,0,.849.849H8.487a.849.849,0,0,0,.849-.849V20.823a.849.849,0,0,0-.849-.849Zm12.73,1.7a2.546,2.546,0,1,1-.746-1.8A2.546,2.546,0,0,1,17.823,21.671Zm-2.546,3.665c-1.7,0-5.092.9-5.092,2.7v2.122H20.369V28.037C20.369,26.241,16.976,25.336,15.277,25.336Z" transform="translate(0 -0.454)" fill="#85e6c4" fill-rule="evenodd"/>
    </g>
    <path id="Path_24159" data-name="Path 24159" d="M16.838,19.5a2.711,2.711,0,1,1-.794-1.917A2.711,2.711,0,0,1,16.838,19.5Zm-2.711,3.9c-1.81,0-5.421.963-5.421,2.875v2.259H19.549V26.273C19.549,24.361,15.938,23.4,14.128,23.4Z" transform="translate(873.991 2595.375)" fill="#85e6c4" stroke="#85e6c4" stroke-width="1" fill-rule="evenodd"/>
    <g id="Group_20252" data-name="Group 20252" transform="translate(881.753 2613.277)">
      <rect id="Rectangle_6627" data-name="Rectangle 6627" width="14" height="14" transform="translate(0.09 0.09)" fill="none"/>
      <rect id="Rectangle_6628" data-name="Rectangle 6628" width="5" height="5" rx="2" transform="translate(2.09 1.09)" fill="#6d44e5"/>
      <rect id="Rectangle_6629" data-name="Rectangle 6629" width="5" height="5" rx="2" transform="translate(2.09 7.09)" fill="#6d44e5"/>
      <rect id="Rectangle_6630" data-name="Rectangle 6630" width="5" height="5" rx="2" transform="translate(8.09 1.09)" fill="#6d44e5"/>
      <path id="Path_31274" data-name="Path 31274" d="M136.439,138.621a.437.437,0,0,0,.437-.437v-1.747a.437.437,0,1,0-.874,0v1.747a.437.437,0,0,0,.437.437Z" transform="translate(-127.596 -128.574)" fill="#6d44e5"/>
      <path id="Path_31275" data-name="Path 31275" d="M139.933,136.874h-1.311v-.437a.437.437,0,1,0-.874,0v3.058h-1.31a.437.437,0,1,0,0,.874h1.747a.437.437,0,0,0,.437-.437v-2.184h1.311a.437.437,0,0,0,0-.874Zm0,1.747a.437.437,0,0,0-.437.437v.874a.437.437,0,1,0,.874,0v-.874a.437.437,0,0,0-.437-.437Z" transform="translate(-127.596 -128.574)" fill="#6d44e5"/>
    </g>
  </g>
</svg>
