<svg xmlns="http://www.w3.org/2000/svg" width="35.469" height="29.794" viewBox="0 0 35.469 29.794">
  <g id="Group_19089" data-name="Group 19089" transform="translate(-5643 -1409)">
    <path id="Subtraction_50" data-name="Subtraction 50" d="M30.469,29.794H5a5.006,5.006,0,0,1-5-5V5A5.006,5.006,0,0,1,5,0H30.469a5.006,5.006,0,0,1,5,5V24.794A5.006,5.006,0,0,1,30.469,29.794ZM11,1.418a1.064,1.064,0,1,0,1.064,1.065A1.065,1.065,0,0,0,11,1.418Zm-3.547,0A1.064,1.064,0,1,0,8.512,2.483,1.065,1.065,0,0,0,7.448,1.418Zm-3.547,0A1.064,1.064,0,1,0,4.965,2.483,1.065,1.065,0,0,0,3.9,1.418Z" transform="translate(5643 1409)" fill="#85e6c4"/>
    <path id="Subtraction_48" data-name="Subtraction 48" d="M35.467,4.965H0A5,5,0,0,1,5,0H30.469a5,5,0,0,1,5,4.964ZM10.994,1.418a1.064,1.064,0,1,0,1.065,1.065A1.065,1.065,0,0,0,10.994,1.418Zm-3.547,0A1.064,1.064,0,1,0,8.512,2.483,1.065,1.065,0,0,0,7.448,1.418Zm-3.547,0A1.064,1.064,0,1,0,4.965,2.483,1.065,1.065,0,0,0,3.9,1.418Z" transform="translate(5643 1409)" fill="#6d44e5"/>
    <rect id="Rectangle_2392" data-name="Rectangle 2392" width="6.621" height="4.138" rx="1" transform="translate(5647.138 1417.276)" fill="#6d44e5"/>
    <rect id="Rectangle_2393" data-name="Rectangle 2393" width="9.931" height="4.138" rx="1" transform="translate(5647.138 1423.897)" fill="#6d44e5"/>
    <rect id="Rectangle_2394" data-name="Rectangle 2394" width="13.242" height="4.138" rx="1" transform="translate(5647.138 1430.518)" fill="#6d44e5"/>
  </g>
</svg>
