<svg xmlns="http://www.w3.org/2000/svg" width="29.883" height="30" viewBox="0 0 29.883 30">
  <g id="Group_19126" data-name="Group 19126" transform="translate(-7.5 0.001)">
    <path id="Path_24790" data-name="Path 24790" d="M34.236,13.729a14.721,14.721,0,0,1,2.053,4.158,16.874,16.874,0,0,1,.662,4.4A14.726,14.726,0,1,1,22.226,7.5a17.573,17.573,0,0,1,4.379.665,15.149,15.149,0,0,1,6.033,3.666" transform="translate(0 -7.07)" fill="#85e6c4"/>
    <path id="Path_24791" data-name="Path 24791" d="M88.306,72.783a11.214,11.214,0,0,1,1.334,3,12.9,12.9,0,0,1,.415,3.05A11.277,11.277,0,1,1,78.777,67.5a13.619,13.619,0,0,1,3.035.417,11.607,11.607,0,0,1,4.935,2.908" transform="translate(-56.551 -63.621)" fill="#6d44e5"/>
    <path id="Path_24792" data-name="Path 24792" d="M334.843,10.207a.431.431,0,0,1-.3-.736L343.884.125a.431.431,0,0,1,.61.61l-9.346,9.346A.43.43,0,0,1,334.843,10.207Z" transform="translate(-307.238)" fill="#fff"/>
    <path id="Path_24797" data-name="Path 24797" d="M6.984,0A6.984,6.984,0,1,1,0,6.984,6.984,6.984,0,0,1,6.984,0Z" transform="translate(15.229 8.245)" fill="#85e6c4"/>
    <path id="Path_24793" data-name="Path 24793" d="M234.782,134.5a7.023,7.023,0,0,0-1.294.12,6.985,6.985,0,0,1,0,13.728,6.984,6.984,0,1,0,1.294-13.848Z" transform="translate(-212.444 -126.255)" fill="rgba(139,151,147,0.29)"/>
    <path id="Path_24794" data-name="Path 24794" d="M134.857,141.83a7.428,7.428,0,1,1,7.857-7.415A7.646,7.646,0,0,1,134.857,141.83Zm0-13.968a6.564,6.564,0,1,0,6.943,6.553A6.757,6.757,0,0,0,134.857,127.862Z" transform="translate(-112.631 -119.185)" fill="#85e6c4"/>
    <path id="Path_24795" data-name="Path 24795" d="M219.152,194.3h-3.868a.431.431,0,0,1,0-.862h3.868a.431.431,0,0,1,0,.862Zm0,2.11h-3.868a.431.431,0,0,1,0-.862h3.868a.431.431,0,0,1,0,.862Z" transform="translate(-194.999 -181.892)" fill="#fff"/>
    <path id="Path_24796" data-name="Path 24796" d="M218.1,201.467a.43.43,0,0,1-.312-.133l-2.813-2.946a.431.431,0,0,1,.312-.729h.7a1.679,1.679,0,1,0,0-3.358h-.7a.431.431,0,0,1,0-.862h.7a2.541,2.541,0,0,1,.289,5.066l2.133,2.233a.431.431,0,0,1-.312.729Z" transform="translate(-195.017 -181.79)" fill="#fff"/>
    <circle id="Ellipse_6082" data-name="Ellipse 6082" cx="1.293" cy="1.293" r="1.293" transform="translate(21.428 2.707)" fill="#fff"/>
    <circle id="Ellipse_6083" data-name="Ellipse 6083" cx="1.293" cy="1.293" r="1.293" transform="translate(9.768 12.653)" fill="#fff"/>
    <circle id="Ellipse_6084" data-name="Ellipse 6084" cx="1.293" cy="1.293" r="1.293" transform="translate(24.992 24.401)" fill="#fff"/>
  </g>
</svg>
