<svg xmlns="http://www.w3.org/2000/svg" width="42.001" height="42" viewBox="0 0 42.001 42">
  <g id="Group_18409" data-name="Group 18409" transform="translate(-703 -216)">
    <g id="Group_18423" data-name="Group 18423" transform="translate(703 216)">
      <path id="Path_23377" data-name="Path 23377" d="M27.707,6.438,15.993,37.863,8.1,24.51-5.072,17.032Z" transform="translate(8.589 0.377)" fill="#6d44e5"/>
      <path id="Path_23373" data-name="Path 23373" d="M40.836.081,1.277,13.524l0,0a1.22,1.22,0,0,0-.219,2.211l12.238,7.116a1.22,1.22,0,0,0,1.32-.06L28.546,12.84l.124-.069a.61.61,0,0,1,.728.211l.072.135a.61.61,0,0,1-.072.576L19.5,27.549a1.22,1.22,0,0,0-.062,1.322l7.29,12.54a1.22,1.22,0,0,0,2.209-.221L42.384,1.629A1.22,1.22,0,0,0,40.836.081Z" transform="translate(-0.448 -0.016)" fill="#85e6c4" fill-rule="evenodd"/>
    </g>
  </g>
</svg>
