<svg xmlns="http://www.w3.org/2000/svg" width="54.856" height="42.001" viewBox="0 0 54.856 42.001">
  <g id="Group_18424" data-name="Group 18424" transform="translate(-24 -33)">
    <path id="Subtraction_46" data-name="Subtraction 46" d="M25.735,33.714H6a6,6,0,0,1-6-6v-3H24.853a16.129,16.129,0,0,0-.281,3,15.922,15.922,0,0,0,1.162,6ZM26.045,21H0V6A6,6,0,0,1,6,0H42a6,6,0,0,1,6,6v7.54a15.838,15.838,0,0,0-6-1.763V10.5A1.5,1.5,0,0,0,40.5,9h-6A1.5,1.5,0,0,0,33,10.5v3c0,.038,0,.076,0,.113A16.141,16.141,0,0,0,26.045,21Z" transform="translate(24 33)" fill="#85e6c4"/>
    <path id="Subtraction_47" data-name="Subtraction 47" d="M14.287,28.571A14.285,14.285,0,0,1,4.185,4.184a14.285,14.285,0,0,1,20.2,20.2A14.192,14.192,0,0,1,14.287,28.571ZM16.32,10.633a2.585,2.585,0,0,0-2.491,1.581,4.144,4.144,0,0,0-.342,1.728,4.133,4.133,0,0,0,.342,1.733,2.723,2.723,0,0,0,4.983,0,4.124,4.124,0,0,0,.344-1.733,4.135,4.135,0,0,0-.344-1.728,2.584,2.584,0,0,0-2.491-1.581Zm-6.491,0a2.584,2.584,0,0,0-2.492,1.581,4.153,4.153,0,0,0-.343,1.728,4.142,4.142,0,0,0,.343,1.733,2.724,2.724,0,0,0,4.983,0,4.133,4.133,0,0,0,.343-1.733,4.144,4.144,0,0,0-.343-1.728,2.584,2.584,0,0,0-2.491-1.581ZM4.745,12.077h0v5.064H5.961v-6.4H5.239l-1.546.686v.9l1.05-.247Zm15.333,1.929v.978H21.8v1.582h1V14.984H24.5v-.978H22.793V12.425h-1v1.581ZM16.32,16.2a1.418,1.418,0,0,1-1.183-.6,2.71,2.71,0,0,1-.453-1.655,2.7,2.7,0,0,1,.453-1.654,1.458,1.458,0,0,1,2.363,0,2.691,2.691,0,0,1,.457,1.654A2.7,2.7,0,0,1,17.5,15.6,1.424,1.424,0,0,1,16.32,16.2Zm-6.491,0a1.424,1.424,0,0,1-1.185-.6,2.719,2.719,0,0,1-.452-1.655,2.712,2.712,0,0,1,.452-1.654,1.459,1.459,0,0,1,2.365,0,2.692,2.692,0,0,1,.457,1.654,2.7,2.7,0,0,1-.457,1.655A1.424,1.424,0,0,1,9.829,16.2Z" transform="translate(50.284 46.43)" fill="#6d44e5"/>
  </g>
</svg>
