<svg xmlns="http://www.w3.org/2000/svg" width="44.854" height="45.108" viewBox="0 0 44.854 45.108">
  <g id="Group_9221" data-name="Group 9221" transform="translate(-725.148 -1299.394)">
    <g id="Group_8640" data-name="Group 8640" transform="translate(727.093 1300.935)">
      <path id="Path_17639" data-name="Path 17639" d="M1.51-2.508q.758.048,1.573.048a10.437,10.437,0,0,0,1.6-.121,7.167,7.167,0,0,0,1.493-.4,4.354,4.354,0,0,0,1.275-.758,3.8,3.8,0,0,0,.928-1.218,5.031,5.031,0,0,0,.46-1.767H.816A5.336,5.336,0,0,1,1.083-7.2l.46-.766q.29-.468.645-1.017H8.433a1.255,1.255,0,0,0-.4-.847,4.433,4.433,0,0,0-.976-.766,7.026,7.026,0,0,0-1.17-.557,3.011,3.011,0,0,0-.984-.218H.816a3.79,3.79,0,0,1,.282-.581q.218-.387.46-.766l.428-.67a1.833,1.833,0,0,1,.2-.29H15.63l-.089.177q-.089.178-.234.428t-.323.549l-.331.557q-.153.258-.258.428l-.1.169H10.757a10.353,10.353,0,0,1,.589,1.17,4.2,4.2,0,0,1,.315,1.218h3.97L14.29-6.72H11.805a6.423,6.423,0,0,1-.847,2.566,6.238,6.238,0,0,1-1.6,1.767A7.294,7.294,0,0,1,7.255-1.306a12.364,12.364,0,0,1-2.388.524.4.4,0,0,0,.056.1q.056.089.137.2A3.3,3.3,0,0,0,5.254-.2l7.165,9.892v.4H9.353L1.51-.378Z" transform="translate(13.683 23.027)" fill="#6d44e5"/>
      <path id="Path_17640" data-name="Path 17640" d="M42.27,24.4A20.778,20.778,0,0,0,2.349,14.13M1.05,3.74V14.13H11.439" transform="translate(-1.05 -1.04)" fill="none" stroke="#85e6c4" stroke-linecap="round" stroke-linejoin="round" stroke-width="3"/>
    </g>
    <g id="Group_18405" data-name="Group 18405" transform="matrix(-1, -0.017, 0.017, -1, 768.066, 1342.935)">
      <path id="Path_17640-2" data-name="Path 17640" d="M41.22,23.356A20.778,20.778,0,0,0,1.3,13.09M0,2.7V13.09H10.389" transform="translate(0 0)" fill="none" stroke="#85e6c4" stroke-linecap="round" stroke-linejoin="round" stroke-width="3"/>
    </g>
  </g>
</svg>
