<svg xmlns="http://www.w3.org/2000/svg" width="47.905" height="42" viewBox="0 0 47.905 42">
  <g id="Group_19046" data-name="Group 19046" transform="translate(-145 -4050)">
    <path id="Subtraction_75" data-name="Subtraction 75" d="M27.352,35.438H5.513A5.415,5.415,0,0,1,0,29.925v-14.7H36.75v1.85a1.071,1.071,0,0,0-.606.305,1.084,1.084,0,0,0-.315.761V19.2A8.731,8.731,0,0,0,28.3,27.86v3.99a10.12,10.12,0,0,1-.944,3.587Zm9.4-22.575H0V9.187A5.414,5.414,0,0,1,5.513,3.675H9.188V1.837A1.739,1.739,0,0,1,11.025,0a1.74,1.74,0,0,1,1.838,1.837V3.675H23.888V1.837a1.837,1.837,0,0,1,3.675,0V3.675h3.675A5.414,5.414,0,0,1,36.75,9.187v3.675Z" transform="translate(145 4050)" fill="#85e6c4"/>
    <g id="Group_19045" data-name="Group 19045" transform="translate(171.25 4068.375)">
      <path id="Path_24693" data-name="Path 24693" d="M24.7,20.926l-.247-.218a10.444,10.444,0,0,1-1.824-2.129,9.18,9.18,0,0,1-.981-3.5v-3.59a7.855,7.855,0,0,0-6.86-7.812V2.745a.97.97,0,0,0-1.94,0V3.7a7.855,7.855,0,0,0-6.78,7.8v3.59a9.178,9.178,0,0,1-.981,3.5A10.464,10.464,0,0,1,3.3,20.708l-.247.218v2.049H24.7Z" transform="translate(-3.05 -1.775)" fill="#6d44e5"/>
      <path id="Path_24694" data-name="Path 24694" d="M15.32,32a1.926,1.926,0,0,0,3.815,0Z" transform="translate(-6.404 -10.036)" fill="#6d44e5"/>
    </g>
  </g>
</svg>
