<svg xmlns="http://www.w3.org/2000/svg" width="41.999" height="42" viewBox="0 0 41.999 42">
  <g id="Group_18426" data-name="Group 18426" transform="translate(-164 -1625)">
    <path id="Subtraction_56" data-name="Subtraction 56" d="M19.657,42a3.538,3.538,0,0,1-2.3-.843,3.4,3.4,0,0,1-1.167-2.112h6.927a3.4,3.4,0,0,1-1.166,2.112A3.549,3.549,0,0,1,19.657,42ZM39.33,37.687H0V34.046l.449-.389a18.748,18.748,0,0,0,3.259-3.783A15.957,15.957,0,0,0,5.49,23.661V17.279a13.793,13.793,0,0,1,3.5-9.191A14.351,14.351,0,0,1,17.8,3.417V1.725A1.7,1.7,0,0,1,18.32.506,1.792,1.792,0,0,1,19.566,0a1.77,1.77,0,0,1,1.246.506,1.7,1.7,0,0,1,.517,1.219V3.392a14.525,14.525,0,0,1,6.108,2.234,10.353,10.353,0,0,0-.942,15.467,10.774,10.774,0,0,0,7.35,3.182,16.023,16.023,0,0,0,1.724,5.6,18.64,18.64,0,0,0,3.313,3.783l.448.389v3.64Z" transform="translate(164 1625)" fill="#85e6c4"/>
    <path id="Path_23647" data-name="Path 23647" d="M11.864,3.333A8.531,8.531,0,1,0,20.4,11.864,8.556,8.556,0,0,0,11.864,3.333Zm1.706,12.8-2.559-4.436V7.6h1.28v3.754l2.389,4.18Z" transform="translate(185.604 1626.916)" fill="#6d44e5"/>
  </g>
</svg>
