<svg xmlns="http://www.w3.org/2000/svg" width="42" height="42" viewBox="0 0 42 42">
  <g id="Group_18523" data-name="Group 18523" transform="translate(-911 -1587)">
    <path id="Path_24117" data-name="Path 24117" d="M5.333,21.667A2.292,2.292,0,0,1,3,19.333v-14A2.292,2.292,0,0,1,5.333,3h14a2.292,2.292,0,0,1,2.333,2.333v14a2.292,2.292,0,0,1-2.333,2.333Zm23.333,0a2.292,2.292,0,0,1-2.333-2.333v-14A2.292,2.292,0,0,1,28.667,3h14A2.292,2.292,0,0,1,45,5.333v14a2.292,2.292,0,0,1-2.333,2.333ZM5.333,45A2.292,2.292,0,0,1,3,42.667v-14a2.292,2.292,0,0,1,2.333-2.333h14a2.292,2.292,0,0,1,2.333,2.333v14A2.292,2.292,0,0,1,19.333,45Z" transform="translate(908 1584)" fill="#85e6c4"/>
    <path id="Path_24118" data-name="Path 24118" d="M35.667,45a2.292,2.292,0,0,1-2.333-2.333V38H28.608a2.16,2.16,0,0,1-1.633-.672,2.313,2.313,0,0,1-.642-1.661,2.292,2.292,0,0,1,2.333-2.333h4.667V28.608a2.16,2.16,0,0,1,.672-1.633,2.313,2.313,0,0,1,1.661-.642A2.292,2.292,0,0,1,38,28.667v4.667h4.725a2.16,2.16,0,0,1,1.633.672A2.313,2.313,0,0,1,45,35.667,2.292,2.292,0,0,1,42.667,38H38v4.725a2.16,2.16,0,0,1-.672,1.633A2.313,2.313,0,0,1,35.667,45Z" transform="translate(908 1584)" fill="#6d44e5"/>
  </g>
</svg>
