<svg xmlns="http://www.w3.org/2000/svg" width="30.485" height="40.217" viewBox="0 0 30.485 40.217">
  <g id="Big-Basket" transform="translate(-177.479 -70.474)">
    <path id="Path_18022" data-name="Path 18022" d="M181.429,70.514a4.732,4.732,0,0,1,.762-.038h21.258a4.644,4.644,0,0,1,3.731,2.026,4.46,4.46,0,0,1,.69,1.637,6.527,6.527,0,0,1,.088,1.322V95.4a8.677,8.677,0,0,1-.108,1.863,4.607,4.607,0,0,1-4.671,3.589H181.872a4.556,4.556,0,0,1-4.343-3.9,9.858,9.858,0,0,1-.049-1.367v-19.8a7.833,7.833,0,0,1,.1-1.727,4.564,4.564,0,0,1,3.846-3.538Z" transform="translate(0 0)" fill="#a5cd39" fill-rule="evenodd"/>
    <path id="Path_18023" data-name="Path 18023" d="M181.8,154q2.009,0,4.017,0c0,3.15-.005,6.3,0,9.449.123-.122.206-.277.321-.406a5.241,5.241,0,0,1,3.236-1.73,5.669,5.669,0,0,1,6.1,2.949,9.478,9.478,0,0,1,.977,2.711,10.216,10.216,0,0,1-.33,5.328,7.039,7.039,0,0,1-1.265,2.37,6.024,6.024,0,0,1-1.685,1.458,5.614,5.614,0,0,1-2.78.644,7.463,7.463,0,0,1-2.725-.419,6.06,6.06,0,0,1-.981-.533,2.61,2.61,0,0,1-.746-.709,2.68,2.68,0,0,1-.344-.629,1.844,1.844,0,0,1-.366,1.347,2.577,2.577,0,0,1-1.48.8,6.791,6.791,0,0,1-1.942.1c-.02-2.343,0-4.686-.008-7.029Q181.8,161.848,181.8,154Zm6.792,10.311a3.242,3.242,0,0,0-1.945,1.191,4.987,4.987,0,0,0-.944,2.2,6.136,6.136,0,0,0-.006,2.6,5.011,5.011,0,0,0,1.087,2.38,2.957,2.957,0,0,0,1.927,1.036,3.047,3.047,0,0,0,2.138-.454,3.51,3.51,0,0,0,1.065-1.4,6.781,6.781,0,0,0,.568-2.979,8.109,8.109,0,0,0-.352-2.27A4.143,4.143,0,0,0,191,164.865,3.034,3.034,0,0,0,188.594,164.307Zm-11.1,18.471c.368,0,.736,0,1.1,0q0,1.277,0,2.553a1.45,1.45,0,0,1,.963-.567,1.52,1.52,0,0,1,1.38.406,2.182,2.182,0,0,1,.583,1.194,2.8,2.8,0,0,1-.295,1.847,1.532,1.532,0,0,1-1.068.77,1.891,1.891,0,0,1-1.21-.181.891.891,0,0,1-.4-.388.539.539,0,0,1-.2.414,1.389,1.389,0,0,1-.846.166C177.486,186.919,177.492,184.849,177.49,182.778Zm1.773,2.837a1.049,1.049,0,0,0-.678.843,1.705,1.705,0,0,0,.244,1.367.844.844,0,0,0,1.23.127,1.712,1.712,0,0,0,.33-1.46,1.148,1.148,0,0,0-.417-.763A.792.792,0,0,0,179.262,185.614Zm2.587-2.837h1.1c0,.307,0,.614,0,.922h-1.1C181.848,183.391,181.849,183.084,181.849,182.777Zm2.848,1.983a1.349,1.349,0,0,1,1.479.636.6.6,0,0,1,.306-.4,1.447,1.447,0,0,1,.761-.137q0,1.82,0,3.641a2.323,2.323,0,0,1-.166.95,1.766,1.766,0,0,1-1.423.933,2.391,2.391,0,0,1-1.687-.325,1.245,1.245,0,0,1-.56-.944c.366,0,.732,0,1.1,0a.674.674,0,0,0,.279.395,1.181,1.181,0,0,0,.836.1.81.81,0,0,0,.555-.708c.021-.255,0-.511.011-.766a1.185,1.185,0,0,1-.839.6,1.638,1.638,0,0,1-2.034-1.546,2.827,2.827,0,0,1,.145-1.386A1.641,1.641,0,0,1,184.7,184.76Zm.346.851a.771.771,0,0,0-.5.413,1.774,1.774,0,0,0-.137.977.956.956,0,0,0,.667.9.883.883,0,0,0,.966-.435,1.746,1.746,0,0,0-.055-1.52A.836.836,0,0,0,185.043,185.611Zm-3.194-.751c.368,0,.736,0,1.1,0q0,2.071,0,4.141c-.368,0-.737,0-1.1,0Z" transform="translate(-0.011 -79.718)" fill="#ec1c24" fill-rule="evenodd"/>
    <path id="Path_18024" data-name="Path 18024" d="M406.482,154h2.435q0,3.655,0,7.31a4.427,4.427,0,0,0-2.436-.746Q406.482,157.278,406.482,154Zm3.363,8.013a5.744,5.744,0,0,1,2.862-.788,5.905,5.905,0,0,1,4.036,1.576,6.467,6.467,0,0,1,1.573,2.209,10.339,10.339,0,0,1,.744,5.2,11.091,11.091,0,0,1-.651,2.6,6.819,6.819,0,0,1-1.258,2.062,5.235,5.235,0,0,1-4.3,1.9,6.44,6.44,0,0,1-3.295-.705,8.3,8.3,0,0,0,1.488-1.593,4.026,4.026,0,0,0,2.482.082,3.329,3.329,0,0,0,1.632-1.129,5.57,5.57,0,0,0,.977-2.024,9.468,9.468,0,0,0,.275-3.147,7.9,7.9,0,0,0-.706-2.819,3.89,3.89,0,0,0-1.489-1.691,3.814,3.814,0,0,0-3.067-.247A8.326,8.326,0,0,0,409.845,162.009Zm-6.6,20.768h.706c0,.866,0,1.732,0,2.6a1.33,1.33,0,0,1,.7-.562,1.607,1.607,0,0,1,1.623.38,2.216,2.216,0,0,1,.549,1.481,2.992,2.992,0,0,1-.4,1.641,1.614,1.614,0,0,1-2,.6,1.257,1.257,0,0,1-.512-.511.5.5,0,0,1-.13.418c-.141.138-.353.1-.532.1Zm1.511,2.609a.879.879,0,0,0-.578.412,2.164,2.164,0,0,0-.266,1.026,1.871,1.871,0,0,0,.2,1.11,1.046,1.046,0,0,0,.94.5.955.955,0,0,0,.81-.487,2.265,2.265,0,0,0,.246-1.178,1.744,1.744,0,0,0-.308-1.073A1.088,1.088,0,0,0,404.761,185.386Zm9.926-2.609c.22,0,.44,0,.66,0q0,1.947,0,3.894.72-.708,1.446-1.41a.814.814,0,0,1,.6-.29.623.623,0,0,1,.395.176c-.447.455-.912.89-1.368,1.336.544.858,1.1,1.708,1.646,2.564h-.889q-.631-1.028-1.264-2.054c-.193.167-.383.339-.572.511,0,.514,0,1.028,0,1.543h-.66Q414.687,185.913,414.687,182.777Zm7.421,0h.682c0,.711,0,1.422,0,2.133a.821.821,0,0,1,.531.212.568.568,0,0,1,.135.364h-.666q0,1.3,0,2.609a.3.3,0,0,0,.133.291,1.288,1.288,0,0,0,.527.046q0,.275,0,.551a1.717,1.717,0,0,1-1-.035.737.737,0,0,1-.344-.677c0-.928,0-1.857,0-2.786h-.558v-.569h.557C422.108,184.2,422.107,183.49,422.108,182.777ZM407.623,185.1a2.01,2.01,0,0,1,1.354-.366,1.773,1.773,0,0,1,1.139.394.949.949,0,0,1,.281.684c0,.76,0,1.52,0,2.279,0,.115,0,.266.12.324a1.092,1.092,0,0,0,.336,0v.5a1,1,0,0,1-.853-.031.635.635,0,0,1-.245-.508,1.858,1.858,0,0,1-.944.6,1.616,1.616,0,0,1-1.407-.236,1.246,1.246,0,0,1,.155-1.952,3.654,3.654,0,0,1,1.366-.3,3.242,3.242,0,0,0,.629-.1.534.534,0,0,0,.171-.571.655.655,0,0,0-.57-.483,1.347,1.347,0,0,0-.953.109c-.2.123-.255.379-.454.5a.76.76,0,0,1-.528.11A1.325,1.325,0,0,1,407.623,185.1Zm1.21,1.968a1.888,1.888,0,0,0-.9.253.687.687,0,0,0-.1.859.861.861,0,0,0,.907.249,1.2,1.2,0,0,0,.956-.747,7.525,7.525,0,0,0,.02-.823A3.321,3.321,0,0,1,408.833,187.071Zm2.587-1.951a1.771,1.771,0,0,1,1.15-.385,1.851,1.851,0,0,1,1.037.265,1.236,1.236,0,0,1,.538.908.793.793,0,0,1-.6-.116c-.191-.107-.3-.336-.521-.385a1.457,1.457,0,0,0-1.071.073.489.489,0,0,0-.21.613.72.72,0,0,0,.451.274c.368.1.738.2,1.108.294a1.521,1.521,0,0,1,.8.446,1.092,1.092,0,0,1,.151.847,1.259,1.259,0,0,1-.7.894,2.348,2.348,0,0,1-1.406.159,1.49,1.49,0,0,1-.946-.477,1.564,1.564,0,0,1-.307-.926c.227,0,.454,0,.682,0a.836.836,0,0,0,.267.615,1.376,1.376,0,0,0,.946.214.91.91,0,0,0,.672-.308.564.564,0,0,0,.086-.478.614.614,0,0,0-.438-.331c-.438-.134-.891-.215-1.329-.35a1.016,1.016,0,0,1-.709-.652A1.221,1.221,0,0,1,411.42,185.12Zm6.933.193a1.777,1.777,0,0,1,1.224-.568,1.618,1.618,0,0,1,1.378.469,2.8,2.8,0,0,1,.574,1.888c-.992,0-1.984,0-2.976,0a1.5,1.5,0,0,0,.322,1.006,1.121,1.121,0,0,0,.887.326,1.059,1.059,0,0,0,1.026-.81c.228,0,.455,0,.683,0a1.7,1.7,0,0,1-.755,1.148,1.923,1.923,0,0,1-1.185.269,1.7,1.7,0,0,1-1.236-.575,2.206,2.206,0,0,1-.48-1.469A2.49,2.49,0,0,1,418.353,185.313Zm.607.338a1.371,1.371,0,0,0-.405,1.144.944.944,0,0,1,.8-.24c.484,0,.967,0,1.451,0a1.522,1.522,0,0,0-.293-.855A1.114,1.114,0,0,0,418.96,185.651Z" transform="translate(-215.494 -79.718)" fill="#231f20" fill-rule="evenodd"/>
  </g>
</svg>
