<svg xmlns="http://www.w3.org/2000/svg" xmlns:xlink="http://www.w3.org/1999/xlink" width="214" height="87" viewBox="0 0 214 87">
  <defs>
    <clipPath id="clip-path">
      <rect id="Rectangle_2070" data-name="Rectangle 2070" width="214" height="87" transform="translate(1152 1317)" fill="#fff"/>
    </clipPath>
  </defs>
  <g id="Mask_Group_83" data-name="Mask Group 83" transform="translate(-1152 -1317)" clip-path="url(#clip-path)">
    <g id="Group_7961" data-name="Group 7961" transform="translate(-30.252 -1868.284)">
      <path id="Path_15380" data-name="Path 15380" d="M274.262,123.138h110.85l-12.465,24.047a14.718,14.718,0,0,1-13,8.173H257.578Z" transform="translate(1038.296 3116.987)" fill="#85e6c4"/>
      <path id="Path_15381" data-name="Path 15381" d="M167.368,94.872h66.51L226.4,109.183a8.841,8.841,0,0,1-7.8,4.862h-61.24Z" transform="translate(1094.696 3132.893)" fill="none" stroke="#517ce3" stroke-miterlimit="10" stroke-width="1" opacity="0.816"/>
      <path id="Path_15382" data-name="Path 15382" d="M40.587,36.111h60.469l-6.8,13.152a8.029,8.029,0,0,1-7.094,4.471H31.486Z" transform="translate(1165.533 3165.962)" fill="#6d44e5" opacity="0.321"/>
      <path id="Path_15383" data-name="Path 15383" d="M239.666.96h87.878l-9.881,19.081a11.668,11.668,0,0,1-10.308,6.484H226.44Z" transform="translate(1055.819 3185.744)" fill="none" stroke="#85e6c4" stroke-miterlimit="10" stroke-width="1" opacity="0.622"/>
      <path id="Path_15384" data-name="Path 15384" d="M80.986,145.547h25.8l-2.9,5.611a3.427,3.427,0,0,1-3.027,1.907H77.1Z" transform="translate(1139.861 3104.375)" fill="#517ce3"/>
      <line id="Line_78" data-name="Line 78" x2="11.954" transform="translate(1183.252 3202.073)" fill="none" stroke="#85e6c4" stroke-linecap="round" stroke-miterlimit="10" stroke-width="1"/>
      <line id="Line_79" data-name="Line 79" x2="26.258" transform="translate(1352.185 3227.765)" fill="none" stroke="#6d44e5" stroke-linecap="round" stroke-miterlimit="10" stroke-width="1"/>
      <rect id="Rectangle_1660" data-name="Rectangle 1660" width="240.156" height="86.06" transform="translate(1183.252 3186.284)" fill="none"/>
    </g>
  </g>
</svg>
