<svg xmlns="http://www.w3.org/2000/svg" width="36.498" height="32" viewBox="0 0 36.498 32">
  <g id="Group_19046" data-name="Group 19046" transform="translate(-145 -4050)">
    <path id="Subtraction_75" data-name="Subtraction 75" d="M272.839,1068H256.2a4.125,4.125,0,0,1-4.2-4.2v-11.2h28v1.409a.816.816,0,0,0-.462.232.826.826,0,0,0-.24.58v.806a6.652,6.652,0,0,0-5.739,6.6v3.04a7.71,7.71,0,0,1-.719,2.733ZM280,1050.8H252V1048a4.125,4.125,0,0,1,4.2-4.2H259v-1.4a1.4,1.4,0,0,1,2.8,0v1.4h8.4v-1.4a1.4,1.4,0,0,1,2.8,0v1.4h2.8a4.125,4.125,0,0,1,4.2,4.2v2.8Z" transform="translate(-107 3009)" fill="#6d44e5"/>
    <g id="Group_19045" data-name="Group 19045" transform="translate(0.001 -1899.547)">
      <path id="Path_24693" data-name="Path 24693" d="M19.548,16.366,19.36,16.2a7.957,7.957,0,0,1-1.39-1.622,6.994,6.994,0,0,1-.747-2.663V9.18A5.985,5.985,0,0,0,12,3.228V2.514a.739.739,0,0,0-1.478,0v.725A5.985,5.985,0,0,0,5.353,9.18v2.735a6.993,6.993,0,0,1-.747,2.663A7.972,7.972,0,0,1,3.238,16.2l-.188.166v1.561h16.5Z" transform="translate(161.949 5961.772)" fill="#85e6c4"/>
      <path id="Path_24694" data-name="Path 24694" d="M15.32,32a1.467,1.467,0,0,0,2.907,0Z" transform="translate(156.472 5948.281)" fill="#85e6c4"/>
    </g>
  </g>
</svg>
