<svg xmlns="http://www.w3.org/2000/svg" width="33.883" height="34.079" viewBox="0 0 33.883 34.079">
  <g id="Group_9221" data-name="Group 9221" transform="translate(-725.661 -1299.904)">
    <g id="Group_8640" data-name="Group 8640" transform="translate(726.997 1300.935)">
      <path id="Path_17639" data-name="Path 17639" d="M1.345-5.167q.578.037,1.2.037a7.952,7.952,0,0,0,1.217-.092,5.461,5.461,0,0,0,1.137-.3A3.317,3.317,0,0,0,5.869-6.1a2.891,2.891,0,0,0,.707-.928,3.833,3.833,0,0,0,.35-1.346H.816a4.065,4.065,0,0,1,.2-.363l.35-.584q.221-.357.492-.775H6.619a.956.956,0,0,0-.307-.645,3.377,3.377,0,0,0-.744-.584,5.353,5.353,0,0,0-.891-.424,2.294,2.294,0,0,0-.75-.166H.816a2.888,2.888,0,0,1,.215-.443q.166-.3.35-.584l.326-.51a1.4,1.4,0,0,1,.154-.221H12.1l-.068.135q-.068.135-.178.326t-.246.418l-.252.424q-.117.2-.2.326l-.08.129H8.39a7.888,7.888,0,0,1,.449.891,3.2,3.2,0,0,1,.24.928H12.1l-1.02,1.721H9.189a4.894,4.894,0,0,1-.645,1.955A4.753,4.753,0,0,1,7.326-5.075a5.558,5.558,0,0,1-1.6.824,9.42,9.42,0,0,1-1.82.4.3.3,0,0,0,.043.08q.043.068.1.154a2.515,2.515,0,0,0,.148.209L9.656,4.128v.307H7.32L1.345-3.544Z" transform="translate(10.231 20.8)" fill="#85e6c4"/>
      <path id="Path_17640" data-name="Path 17640" d="M32.456,18.835A15.831,15.831,0,0,0,2.04,11.013M1.05,3.1v7.916H8.966" transform="translate(-1.05 -1.04)" fill="none" stroke="#6d44e5" stroke-linecap="round" stroke-linejoin="round" stroke-width="2"/>
    </g>
    <g id="Group_18405" data-name="Group 18405" transform="matrix(-1, -0.017, 0.017, -1, 758.215, 1332.935)">
      <path id="Path_17640-2" data-name="Path 17640" d="M31.406,17.795A15.831,15.831,0,0,0,.989,9.973M0,2.058V9.973H7.916" fill="none" stroke="#6d44e5" stroke-linecap="round" stroke-linejoin="round" stroke-width="2"/>
    </g>
  </g>
</svg>
