<svg xmlns="http://www.w3.org/2000/svg" width="34" height="32" viewBox="0 0 34 32">
  <g id="Group_19043" data-name="Group 19043" transform="translate(-520 -4237)">
    <path id="Polygon_6" data-name="Polygon 6" d="M20.075,1.526a2,2,0,0,1,3.04.991L23.861,4.7A2,2,0,0,0,25.729,6.05l2.334.028a2,2,0,0,1,1.883,2.6l-.677,2.152a2,2,0,0,0,.72,2.21l1.83,1.35a2,2,0,0,1,0,3.219l-1.83,1.35a2,2,0,0,0-.72,2.21l.677,2.152a2,2,0,0,1-1.883,2.6l-2.334.028A2,2,0,0,0,23.861,27.3l-.746,2.181a2,2,0,0,1-3.04.991l-1.927-1.35a2,2,0,0,0-2.295,0l-1.927,1.35a2,2,0,0,1-3.04-.991L10.139,27.3A2,2,0,0,0,8.271,25.95l-2.334-.028a2,2,0,0,1-1.883-2.6l.677-2.152a2,2,0,0,0-.72-2.21l-1.83-1.35a2,2,0,0,1,0-3.219l1.83-1.35a2,2,0,0,0,.72-2.21L4.054,8.679a2,2,0,0,1,1.883-2.6L8.271,6.05A2,2,0,0,0,10.139,4.7l.746-2.181a2,2,0,0,1,3.04-.991l1.927,1.35a2,2,0,0,0,2.295,0Z" transform="translate(520 4237)" fill="#6d44e5"/>
    <path id="Path_24688" data-name="Path 24688" d="M3.392-5.7A2.835,2.835,0,0,1,2-6.04a2.549,2.549,0,0,1-.992-.984A3,3,0,0,1,.64-8.544a3,3,0,0,1,.368-1.52A2.549,2.549,0,0,1,2-11.048a2.867,2.867,0,0,1,1.408-.344,2.79,2.79,0,0,1,1.384.344,2.565,2.565,0,0,1,.984.984,3,3,0,0,1,.368,1.52,3,3,0,0,1-.368,1.52,2.549,2.549,0,0,1-.992.984A2.835,2.835,0,0,1,3.392-5.7ZM2.784,0,9.1-11.2h2L4.784,0Zm.608-7.12a1.058,1.058,0,0,0,.8-.36,1.507,1.507,0,0,0,.336-1.064A1.562,1.562,0,0,0,4.2-9.616a1.04,1.04,0,0,0-.808-.368,1.04,1.04,0,0,0-.808.368,1.562,1.562,0,0,0-.328,1.072A1.531,1.531,0,0,0,2.584-7.48,1.05,1.05,0,0,0,3.392-7.12ZM10.56.192A2.835,2.835,0,0,1,9.168-.152a2.549,2.549,0,0,1-.992-.984,3,3,0,0,1-.368-1.52,2.954,2.954,0,0,1,.368-1.512,2.564,2.564,0,0,1,.992-.976,2.867,2.867,0,0,1,1.408-.344,2.79,2.79,0,0,1,1.384.344,2.58,2.58,0,0,1,.984.976,2.954,2.954,0,0,1,.368,1.512,3,3,0,0,1-.368,1.52,2.565,2.565,0,0,1-.984.984A2.822,2.822,0,0,1,10.56.192Zm0-1.424a1.05,1.05,0,0,0,.808-.36A1.531,1.531,0,0,0,11.7-2.656a1.562,1.562,0,0,0-.328-1.072A1.04,1.04,0,0,0,10.56-4.1a1.04,1.04,0,0,0-.808.368,1.562,1.562,0,0,0-.328,1.072,1.531,1.531,0,0,0,.328,1.064A1.05,1.05,0,0,0,10.56-1.232Z" transform="translate(530.36 4258.392)" fill="#85e6c4"/>
  </g>
</svg>
