<svg xmlns="http://www.w3.org/2000/svg" width="32" height="31.999" viewBox="0 0 32 31.999">
  <g id="Group_19073" data-name="Group 19073" transform="translate(-897 -6137.001)">
    <path id="Subtraction_73" data-name="Subtraction 73" d="M266,2968a14,14,0,1,1,14-14,14.277,14.277,0,0,1-.124,1.876A8.912,8.912,0,0,0,276,2955a9.015,9.015,0,0,0-8.222,5.335l-3.482-4.808a2.043,2.043,0,0,1-.13-.183c-.036-.051-.065-.1-.091-.135a.242.242,0,0,1-.038-.07,8.318,8.318,0,0,0,1.594-.35,4.895,4.895,0,0,0,1.406-.722,4.2,4.2,0,0,0,1.066-1.179,4.327,4.327,0,0,0,.565-1.714h1.659l.894-1.508h-2.65a2.783,2.783,0,0,0-.211-.813,6.871,6.871,0,0,0-.392-.781h2.359l.013-.021.058-.092c.045-.073.1-.169.172-.286l.116-.2.008-.013.056-.094.041-.069.027-.046.015-.025c.067-.114.122-.206.173-.294.07-.12.12-.211.156-.286l.059-.118h-8.972a1.49,1.49,0,0,0-.135.195l-.285.446c-.1.157-.2.33-.307.512a2.634,2.634,0,0,0-.189.388h2.725a1.989,1.989,0,0,1,.658.145,4.812,4.812,0,0,1,.78.373,2.952,2.952,0,0,1,.652.511.839.839,0,0,1,.27.565h-4.169c-.155.24-.3.462-.431.679l-.182.3-.125.208c-.089.147-.154.262-.178.317h5.353a3.369,3.369,0,0,1-.306,1.181,2.546,2.546,0,0,1-.62.813,2.913,2.913,0,0,1-.851.506,4.782,4.782,0,0,1-1,.265,6.972,6.972,0,0,1-1.066.081c-.364,0-.717-.011-1.05-.033v1.423l5.235,6.99h.11A9.083,9.083,0,0,0,267,2964a8.918,8.918,0,0,0,.875,3.876A14.287,14.287,0,0,1,266,2968Z" transform="translate(645 3197)" fill="#6d44e5"/>
    <path id="Subtraction_74" data-name="Subtraction 74" d="M260,2956a8,8,0,1,1,8-8A8.01,8.01,0,0,1,260,2956Zm.013-5.283a1.085,1.085,0,0,0-.785.294.981.981,0,0,0-.3.725.957.957,0,0,0,.3.71,1.08,1.08,0,0,0,.785.3,1.041,1.041,0,0,0,.757-.3.957.957,0,0,0,.3-.71.981.981,0,0,0-.3-.725A1.045,1.045,0,0,0,260.014,2950.717Zm-.953-7.458.188,6.425H260.7l.2-6.425Z" transform="translate(661 3213)" fill="#85e6c4"/>
  </g>
</svg>
