<svg xmlns="http://www.w3.org/2000/svg" xmlns:xlink="http://www.w3.org/1999/xlink" width="465" height="476" viewBox="0 0 465 476">
  <defs>
    <filter id="Rectangle_6585" x="0" y="241" width="270" height="198" filterUnits="userSpaceOnUse">
      <feOffset input="SourceAlpha"/>
      <feGaussianBlur stdDeviation="15" result="blur"/>
      <feFlood flood-color="#517ce3" flood-opacity="0.141"/>
      <feComposite operator="in" in2="blur"/>
      <feComposite in="SourceGraphic"/>
    </filter>
    <filter id="Rectangle_6581" x="195" y="0" width="270" height="271" filterUnits="userSpaceOnUse">
      <feOffset input="SourceAlpha"/>
      <feGaussianBlur stdDeviation="15" result="blur-2"/>
      <feFlood flood-color="#517ce3" flood-opacity="0.141"/>
      <feComposite operator="in" in2="blur-2"/>
      <feComposite in="SourceGraphic"/>
    </filter>
    <filter id="Rectangle_6584" x="195" y="205" width="270" height="271" filterUnits="userSpaceOnUse">
      <feOffset input="SourceAlpha"/>
      <feGaussianBlur stdDeviation="15" result="blur-3"/>
      <feFlood flood-color="#517ce3" flood-opacity="0.141"/>
      <feComposite operator="in" in2="blur-3"/>
      <feComposite in="SourceGraphic"/>
    </filter>
    <filter id="Rectangle_6377" x="0" y="0" width="270" height="307" filterUnits="userSpaceOnUse">
      <feOffset input="SourceAlpha"/>
      <feGaussianBlur stdDeviation="15" result="blur-4"/>
      <feFlood flood-color="#517ce3" flood-opacity="0.141"/>
      <feComposite operator="in" in2="blur-4"/>
      <feComposite in="SourceGraphic"/>
    </filter>
  </defs>
  <g id="Group_20284" data-name="Group 20284" transform="translate(-122 -1951)">
    <g id="Rectangle_6646" data-name="Rectangle 6646" transform="translate(135 1970)" fill="#fff" stroke="#707070" stroke-width="1" opacity="0">
      <rect width="438" height="438" stroke="none"/>
      <rect x="0.5" y="0.5" width="437" height="437" fill="none"/>
    </g>
    <g id="Group_19119" data-name="Group 19119" transform="translate(-3653 -1623)">
      <g id="Group_19116" data-name="Group 19116">
        <g transform="matrix(1, 0, 0, 1, 3775, 3574)" filter="url(#Rectangle_6585)">
          <rect id="Rectangle_6585-2" data-name="Rectangle 6585" width="180" height="108" rx="10" transform="translate(45 286)" fill="#fff"/>
        </g>
        <g id="Group_19114" data-name="Group 19114" transform="translate(0 235)">
          <path id="Path_31294" data-name="Path 31294" d="M5.154,3.84A3.351,3.351,0,0,1,6.672,4.2a3.163,3.163,0,0,1,1.2,1.039,2.762,2.762,0,0,1,.472,1.62,2.651,2.651,0,0,1-.451,1.49,3.329,3.329,0,0,1-1.224,1.1,3.553,3.553,0,0,1-1.716.417,5.538,5.538,0,0,1-2.215-.451V13H1.5V3.84ZM2.734,5V8.3a6.037,6.037,0,0,0,.964.28,5.654,5.654,0,0,0,1.21.13,2.238,2.238,0,0,0,1.606-.54,1.737,1.737,0,0,0,.567-1.306,1.569,1.569,0,0,0-.321-1,2.115,2.115,0,0,0-.841-.636A2.75,2.75,0,0,0,4.813,5ZM13,6.027a2.845,2.845,0,0,1,1.2.28,3.142,3.142,0,0,1,1.046.772V6.164h1.121V13H15.244V11.838a3.383,3.383,0,0,1-.964.957,2.425,2.425,0,0,1-1.388.41,3,3,0,0,1-1.6-.444,3.22,3.22,0,0,1-1.155-1.237,3.778,3.778,0,0,1-.431-1.832,4.154,4.154,0,0,1,.431-1.955A3.111,3.111,0,0,1,11.32,6.472,3.243,3.243,0,0,1,13,6.027Zm.205,1.094a2.115,2.115,0,0,0-1.258.369,2.454,2.454,0,0,0-.8.95,2.842,2.842,0,0,0-.28,1.251,2.7,2.7,0,0,0,.273,1.21,2.2,2.2,0,0,0,.772.882,2.055,2.055,0,0,0,1.155.328,1.975,1.975,0,0,0,1.121-.328,2.277,2.277,0,0,0,.779-.909,2.786,2.786,0,0,0,.273-1.306L15.23,8.256a3.6,3.6,0,0,0-.909-.834A2.071,2.071,0,0,0,13.207,7.121Zm5.865-.957L21.465,11.2l2.324-5.031h1.34L20.1,16.281H18.8l1.955-3.691L17.732,6.164Zm8.545,0v.875a3.849,3.849,0,0,1,.841-.69,2.231,2.231,0,0,1,1.21-.321,2.851,2.851,0,0,1,1.381.349,2.309,2.309,0,0,1,.984,1.046,5.856,5.856,0,0,1,1.039-.984,2.163,2.163,0,0,1,1.313-.41,2.853,2.853,0,0,1,1.306.308,2.409,2.409,0,0,1,.984.93,2.983,2.983,0,0,1,.376,1.565V13H35.93l-.014-4.061a1.85,1.85,0,0,0-.458-1.354,1.7,1.7,0,0,0-1.265-.465,1.541,1.541,0,0,0-1.025.369,6.257,6.257,0,0,0-.834.861V13H31.213L31.2,8.939a1.85,1.85,0,0,0-.458-1.354,1.856,1.856,0,0,0-2.283-.137,4.439,4.439,0,0,0-.841.793V13H26.5V6.164Zm14.369-.137a3.236,3.236,0,0,1,1.75.438,2.731,2.731,0,0,1,1.046,1.189,3.984,3.984,0,0,1,.349,1.7v.67h-5.25a2.55,2.55,0,0,0,.4,1.053,2.3,2.3,0,0,0,.82.759,2.358,2.358,0,0,0,1.162.28,2.688,2.688,0,0,0,1.381-.376,5.032,5.032,0,0,0,1.08-.827l-.014,1.217a2.655,2.655,0,0,1-.567.485,3.791,3.791,0,0,1-.861.424,3.044,3.044,0,0,1-1.019.171,3.472,3.472,0,0,1-1.846-.492,3.571,3.571,0,0,1-1.723-3.09,3.844,3.844,0,0,1,.424-1.791A3.428,3.428,0,0,1,40.284,6.52,3.018,3.018,0,0,1,41.986,6.027Zm0,1.094a1.853,1.853,0,0,0-1.395.567,2.544,2.544,0,0,0-.684,1.374h4.115a2.213,2.213,0,0,0-.376-1.094,1.984,1.984,0,0,0-.745-.636A2.076,2.076,0,0,0,41.986,7.121ZM48.1,6.164v1.08a3.8,3.8,0,0,1,.561-.554,3.367,3.367,0,0,1,.772-.472,2.182,2.182,0,0,1,.9-.191,2.649,2.649,0,0,1,1.271.308,2.252,2.252,0,0,1,.916.93,3.222,3.222,0,0,1,.342,1.565V13H51.734l-.014-4.061a2.057,2.057,0,0,0-.39-1.354,1.473,1.473,0,0,0-1.2-.465,1.808,1.808,0,0,0-1.087.4,4.868,4.868,0,0,0-.95.937V13H46.977V6.164ZM56.861,4.2V6.164h2V7.217h-2v4.006a.972.972,0,0,0,.219.67.851.851,0,0,0,.67.246,1.964,1.964,0,0,0,.684-.1,2.932,2.932,0,0,0,.479-.226v.916a2.459,2.459,0,0,1-.581.349,2.168,2.168,0,0,1-.827.13,1.629,1.629,0,0,1-1.319-.526,2.1,2.1,0,0,1-.444-1.4V7.217H54.428V6.889A2.615,2.615,0,0,0,55.549,5.9a7.506,7.506,0,0,0,.793-1.7Zm12.482-.561a4.169,4.169,0,0,1,1.634.273,3.946,3.946,0,0,1,1.114.711V5.973q-.3-.219-.677-.479a4.378,4.378,0,0,0-.875-.458,3.239,3.239,0,0,0-1.2-.2,3.6,3.6,0,0,0-1.832.465A3.39,3.39,0,0,0,66.24,6.581a3.64,3.64,0,0,0-.465,1.839,3.6,3.6,0,0,0,.465,1.832,3.456,3.456,0,0,0,1.271,1.278A3.561,3.561,0,0,0,69.344,12a4.217,4.217,0,0,0,1.8-.349,6.575,6.575,0,0,0,1.224-.718v1.23a4.234,4.234,0,0,1-1.251.731,5.149,5.149,0,0,1-3.685-.068A4.852,4.852,0,0,1,65.9,11.8a4.686,4.686,0,0,1-1.019-1.524,4.917,4.917,0,0,1,0-3.705A4.686,4.686,0,0,1,65.9,5.043,4.852,4.852,0,0,1,67.43,4.011,4.8,4.8,0,0,1,69.344,3.635ZM77.3,6.027a3.472,3.472,0,0,1,1.846.492,3.529,3.529,0,0,1,1.265,1.313,3.612,3.612,0,0,1,.458,1.791,3.571,3.571,0,0,1-1.723,3.09,3.707,3.707,0,0,1-3.691,0,3.571,3.571,0,0,1-1.723-3.09,3.612,3.612,0,0,1,.458-1.791A3.529,3.529,0,0,1,75.455,6.52,3.472,3.472,0,0,1,77.3,6.027Zm0,1.094a2.314,2.314,0,0,0-1.271.349,2.354,2.354,0,0,0-.841.916,2.65,2.65,0,0,0-.294,1.237,2.621,2.621,0,0,0,.294,1.224,2.354,2.354,0,0,0,.841.916,2.505,2.505,0,0,0,2.55,0,2.372,2.372,0,0,0,.834-.916,2.621,2.621,0,0,0,.294-1.224,2.65,2.65,0,0,0-.294-1.237,2.372,2.372,0,0,0-.834-.916A2.3,2.3,0,0,0,77.3,7.121Zm6.535-.957v1.08A3.8,3.8,0,0,1,84.4,6.69a3.367,3.367,0,0,1,.772-.472,2.182,2.182,0,0,1,.9-.191,2.649,2.649,0,0,1,1.271.308,2.252,2.252,0,0,1,.916.93,3.222,3.222,0,0,1,.342,1.565V13H87.473l-.014-4.061a2.057,2.057,0,0,0-.39-1.354,1.473,1.473,0,0,0-1.2-.465,1.808,1.808,0,0,0-1.087.4,4.868,4.868,0,0,0-.95.937V13H82.715V6.164ZM92.6,4.2V6.164h2V7.217h-2v4.006a.972.972,0,0,0,.219.67.851.851,0,0,0,.67.246,1.964,1.964,0,0,0,.684-.1,2.932,2.932,0,0,0,.479-.226v.916a2.459,2.459,0,0,1-.581.349,2.168,2.168,0,0,1-.827.13,1.629,1.629,0,0,1-1.319-.526,2.1,2.1,0,0,1-.444-1.4V7.217H90.166V6.889A2.615,2.615,0,0,0,91.287,5.9a7.506,7.506,0,0,0,.793-1.7Zm5.154,1.969V7.531a3.513,3.513,0,0,1,.957-1.094,1.926,1.926,0,0,1,1.148-.41,1.766,1.766,0,0,1,.711.137v1.3A1.7,1.7,0,0,0,99.7,7.2a1.427,1.427,0,0,0-1.128.492,6.9,6.9,0,0,0-.813,1.176V13H96.633V6.164Zm7.342-.137a3.472,3.472,0,0,1,1.846.492,3.529,3.529,0,0,1,1.265,1.313,3.612,3.612,0,0,1,.458,1.791,3.571,3.571,0,0,1-1.723,3.09,3.707,3.707,0,0,1-3.691,0,3.571,3.571,0,0,1-1.723-3.09,3.612,3.612,0,0,1,.458-1.791A3.529,3.529,0,0,1,103.25,6.52,3.472,3.472,0,0,1,105.1,6.027Zm0,1.094a2.314,2.314,0,0,0-1.271.349,2.354,2.354,0,0,0-.841.916,2.65,2.65,0,0,0-.294,1.237,2.621,2.621,0,0,0,.294,1.224,2.354,2.354,0,0,0,.841.916,2.505,2.505,0,0,0,2.55,0,2.372,2.372,0,0,0,.834-.916,2.621,2.621,0,0,0,.294-1.224,2.65,2.65,0,0,0-.294-1.237,2.372,2.372,0,0,0-.834-.916A2.3,2.3,0,0,0,105.1,7.121Zm6.535-3.965V13H110.51V3.156Z" transform="translate(3872 3671)" fill="#2a2a2a"/>
          <g id="Rectangle_6381" data-name="Rectangle 6381" transform="translate(3832 3659)" fill="none" stroke="#e6e6e6" stroke-width="1">
            <rect width="158" height="54" rx="5" stroke="none"/>
            <rect x="0.5" y="0.5" width="157" height="53" rx="4.5" fill="none"/>
          </g>
          <g id="colour_icon" data-name="colour icon" transform="translate(3842.045 3660.343)">
            <path id="Path_24781" data-name="Path 24781" d="M23.033,23.809v6.948A1.14,1.14,0,0,1,21.9,31.879H3.136A1.14,1.14,0,0,1,2,30.742V20.866A1.136,1.136,0,0,1,3.136,19.73H18.122Z" transform="translate(0 -6.23)" fill="#6d44e5"/>
            <rect id="Rectangle_6587" data-name="Rectangle 6587" width="4.057" height="2.218" transform="translate(4.161 15.993)" fill="#fff"/>
            <path id="Path_24782" data-name="Path 24782" d="M54.571,14.717c-.148,0-.274.422-.274.274V13.346a2.7,2.7,0,1,0-5.391,0v1.645c0,.148-.121-.274-.274-.274s-.274.422-.274.274V13.346a3.246,3.246,0,1,1,6.487,0v1.645C54.845,15.14,54.741,14.717,54.571,14.717Z" transform="translate(-32.124 -2)" fill="#b3b3b3"/>
            <path id="Path_24783" data-name="Path 24783" d="M10.072,45.992H6.891a.181.181,0,0,1,0-.362h3.181a.181.181,0,0,1,0,.362Zm4.911,0H11.816a.185.185,0,0,1-.181-.181.181.181,0,0,1,.181-.181h3.167a.181.181,0,0,1,.181.181A.185.185,0,0,1,14.983,45.992Zm4.925,0H16.742a.185.185,0,0,1-.181-.181.181.181,0,0,1,.181-.181h3.167a.181.181,0,0,1,.181.181.185.185,0,0,1-.181.181Zm4.925,0H21.671a.181.181,0,1,1,0-.362h3.163a.181.181,0,1,1,0,.362Z" transform="translate(-3.005 -22.757)" fill="#fff"/>
            <path id="Path_24784" data-name="Path 24784" d="M47.1,18.13h7.376a.548.548,0,0,1,.548.548V23.35a2.193,2.193,0,0,1-2.194,2.193H48.744A2.193,2.193,0,0,1,46.55,23.35V18.678A.548.548,0,0,1,47.1,18.13Z" transform="translate(-31.309 -5.687)" fill="#85e6c4"/>
            <path id="Path_24785" data-name="Path 24785" d="M55.257,18.71v4.672a2.193,2.193,0,0,1-2.194,2.193H48.978a2.194,2.194,0,0,1-1.908-1.1,2.155,2.155,0,0,0,1.1.3h4.08a2.193,2.193,0,0,0,2.194-2.193V18.2h.269A.548.548,0,0,1,55.257,18.71Z" transform="translate(-31.543 -5.718)" opacity="0.08"/>
            <ellipse id="Ellipse_6080" data-name="Ellipse 6080" cx="0.806" cy="0.806" rx="0.806" ry="0.806" transform="translate(18.674 14.527)" fill="#212c33"/>
            <path id="Path_24786" data-name="Path 24786" d="M54.054,25.758a.274.274,0,0,1-.274-.274v-.96a.274.274,0,0,1,.274-.274.28.28,0,0,1,.274.274v.96A.28.28,0,0,1,54.054,25.758Z" transform="translate(-34.574 -8.451)" fill="#212c33"/>
          </g>
        </g>
      </g>
      <g id="Group_19117" data-name="Group 19117">
        <g transform="matrix(1, 0, 0, 1, 3775, 3574)" filter="url(#Rectangle_6581)">
          <rect id="Rectangle_6581-2" data-name="Rectangle 6581" width="180" height="181" rx="10" transform="translate(240 45)" fill="#fff"/>
        </g>
        <g id="Group_19103" data-name="Group 19103" transform="translate(195 -6)">
          <path id="Path_31290" data-name="Path 31290" d="M5.51-9.365a4.169,4.169,0,0,1,1.634.273,3.946,3.946,0,0,1,1.114.711v1.354q-.3-.219-.677-.479a4.378,4.378,0,0,0-.875-.458,3.239,3.239,0,0,0-1.2-.2A3.6,3.6,0,0,0,3.678-7.7,3.39,3.39,0,0,0,2.406-6.419,3.64,3.64,0,0,0,1.941-4.58a3.6,3.6,0,0,0,.465,1.832A3.456,3.456,0,0,0,3.678-1.47,3.561,3.561,0,0,0,5.51-1a4.217,4.217,0,0,0,1.8-.349,6.575,6.575,0,0,0,1.224-.718v1.23A4.234,4.234,0,0,1,7.28-.1,4.758,4.758,0,0,1,5.51.205,4.8,4.8,0,0,1,3.6-.171,4.852,4.852,0,0,1,2.064-1.2,4.686,4.686,0,0,1,1.046-2.728,4.761,4.761,0,0,1,.684-4.58a4.761,4.761,0,0,1,.362-1.853A4.686,4.686,0,0,1,2.064-7.957,4.852,4.852,0,0,1,3.6-8.989,4.8,4.8,0,0,1,5.51-9.365Zm8.217,2.393A2.649,2.649,0,0,1,15-6.665a2.252,2.252,0,0,1,.916.93,3.222,3.222,0,0,1,.342,1.565V0H15.135l-.014-4.061a2.057,2.057,0,0,0-.39-1.354,1.473,1.473,0,0,0-1.2-.465,1.808,1.808,0,0,0-1.087.4,4.868,4.868,0,0,0-.95.937V0H10.377V-9.844H11.5v4.088a3.8,3.8,0,0,1,.561-.554,3.367,3.367,0,0,1,.772-.472A2.182,2.182,0,0,1,13.727-6.973Zm7.465,0a3.236,3.236,0,0,1,1.75.438,2.731,2.731,0,0,1,1.046,1.189,3.984,3.984,0,0,1,.349,1.7v.67h-5.25a2.55,2.55,0,0,0,.4,1.053,2.3,2.3,0,0,0,.82.759,2.358,2.358,0,0,0,1.162.28,2.688,2.688,0,0,0,1.381-.376,5.032,5.032,0,0,0,1.08-.827L23.912-.875a2.655,2.655,0,0,1-.567.485,3.791,3.791,0,0,1-.861.424,3.044,3.044,0,0,1-1.019.171,3.472,3.472,0,0,1-1.846-.492,3.545,3.545,0,0,1-1.265-1.306A3.575,3.575,0,0,1,17.9-3.377a3.844,3.844,0,0,1,.424-1.791A3.428,3.428,0,0,1,19.489-6.48,3.018,3.018,0,0,1,21.191-6.973Zm0,1.094a1.853,1.853,0,0,0-1.395.567,2.544,2.544,0,0,0-.684,1.374h4.115a2.213,2.213,0,0,0-.376-1.094,1.984,1.984,0,0,0-.745-.636A2.076,2.076,0,0,0,21.191-5.879Zm8.08-1.094a3.224,3.224,0,0,1,1.3.239,2.843,2.843,0,0,1,.752.431v1.135a4.257,4.257,0,0,0-.875-.5,2.962,2.962,0,0,0-1.176-.212A2.314,2.314,0,0,0,28-5.53a2.354,2.354,0,0,0-.841.916,2.65,2.65,0,0,0-.294,1.237,2.621,2.621,0,0,0,.294,1.224A2.354,2.354,0,0,0,28-1.237a2.314,2.314,0,0,0,1.271.349A2.962,2.962,0,0,0,30.447-1.1a4.257,4.257,0,0,0,.875-.5V-.465a2.492,2.492,0,0,1-.752.438,3.307,3.307,0,0,1-1.3.232,3.472,3.472,0,0,1-1.846-.492,3.545,3.545,0,0,1-1.265-1.306A3.575,3.575,0,0,1,25.7-3.377a3.612,3.612,0,0,1,.458-1.791A3.529,3.529,0,0,1,27.426-6.48,3.472,3.472,0,0,1,29.271-6.973Zm9.939.137-3.172,2.98L39.389,0H37.967L35.26-3.117l-.971.9V0H33.168V-9.844h1.121V-3.5l3.4-3.336Zm4.977-2.543a4.255,4.255,0,0,1,1.757.335,2.78,2.78,0,0,1,1.155.909,2.223,2.223,0,0,1,.41,1.326,2.1,2.1,0,0,1-.383,1.224,2.414,2.414,0,0,1-.957.827,2.29,2.29,0,0,1,.807.342,2.122,2.122,0,0,1,.663.711,2.172,2.172,0,0,1,.267,1.121A2.326,2.326,0,0,1,47.469-1.2a2.974,2.974,0,0,1-1.251.978A4.691,4.691,0,0,1,44.3.137a16.048,16.048,0,0,1-1.771-.1q-.923-.1-1.565-.239V-9.037a12.989,12.989,0,0,1,1.552-.253A15.924,15.924,0,0,1,44.188-9.379Zm-.082,1.162q-.574,0-1.032.041a8.745,8.745,0,0,0-.882.123v2.871h2.146a1.976,1.976,0,0,0,1.422-.472,1.479,1.479,0,0,0,.492-1.1,1.143,1.143,0,0,0-.3-.813,1.876,1.876,0,0,0-.786-.485A3.29,3.29,0,0,0,44.105-8.217ZM42.191-1.189a8.19,8.19,0,0,0,1.094.13q.6.034.984.034a3.153,3.153,0,0,0,1.7-.424,1.288,1.288,0,0,0,.677-1.135,1.218,1.218,0,0,0-.663-1.128,3.239,3.239,0,0,0-1.62-.376H42.191ZM53.074-6.973a3.472,3.472,0,0,1,1.846.492,3.529,3.529,0,0,1,1.265,1.313,3.612,3.612,0,0,1,.458,1.791,3.575,3.575,0,0,1-.458,1.784A3.545,3.545,0,0,1,54.92-.287a3.472,3.472,0,0,1-1.846.492,3.472,3.472,0,0,1-1.846-.492,3.545,3.545,0,0,1-1.265-1.306,3.575,3.575,0,0,1-.458-1.784,3.612,3.612,0,0,1,.458-1.791A3.529,3.529,0,0,1,51.229-6.48,3.472,3.472,0,0,1,53.074-6.973Zm0,1.094A2.314,2.314,0,0,0,51.8-5.53a2.354,2.354,0,0,0-.841.916,2.65,2.65,0,0,0-.294,1.237,2.621,2.621,0,0,0,.294,1.224,2.354,2.354,0,0,0,.841.916,2.314,2.314,0,0,0,1.271.349,2.3,2.3,0,0,0,1.278-.349,2.372,2.372,0,0,0,.834-.916,2.621,2.621,0,0,0,.294-1.224,2.65,2.65,0,0,0-.294-1.237,2.372,2.372,0,0,0-.834-.916A2.3,2.3,0,0,0,53.074-5.879ZM64.5-6.836l-2.83,3.281L64.545,0H63.1L60.977-2.83,58.844,0H57.395l2.871-3.555-2.83-3.281h1.449l2.092,2.461,2.078-2.461Z" transform="translate(3877 3684)" fill="#2a2a2a"/>
          <g id="Rectangle_6381-2" data-name="Rectangle 6381" transform="translate(3832 3659)" fill="none" stroke="#e6e6e6" stroke-width="1">
            <rect width="158" height="40" rx="5" stroke="none"/>
            <rect x="0.5" y="0.5" width="157" height="39" rx="4.5" fill="none"/>
          </g>
          <path id="Path_24789" data-name="Path 24789" d="M17.987,10.446a.53.53,0,0,1,.53-.53h6.662a.53.53,0,1,1,0,1.059H18.517A.53.53,0,0,1,17.987,10.446Zm7.191,1.709H17.1a.53.53,0,1,0,0,1.059h8.074a.53.53,0,1,0,0-1.059Zm0,3.787H18.517a.53.53,0,1,0,0,1.059h6.662a.53.53,0,1,0,0-1.059Zm0,2.239H17.1a.53.53,0,0,0,0,1.059h8.074a.53.53,0,1,0,0-1.059ZM14.184,15.116H11.12a.53.53,0,0,0-.53.53V18.71a.53.53,0,0,0,.53.53h3.064a.53.53,0,0,0,.53-.53V15.646A.53.53,0,0,0,14.184,15.116Zm0-6.026H11.12a.53.53,0,0,0-.53.53v3.064a.53.53,0,0,0,.53.53h3.064a.53.53,0,0,0,.53-.53V9.62A.53.53,0,0,0,14.184,9.09Zm0,12.053H11.12a.53.53,0,0,0-.53.53v3.064a.53.53,0,0,0,.53.53h3.064a.53.53,0,0,0,.53-.53V21.672A.53.53,0,0,0,14.184,21.143Zm10.995.825H18.517a.53.53,0,1,0,0,1.059h6.662a.53.53,0,1,0,0-1.059Zm0,2.239H17.1a.53.53,0,0,0,0,1.059h8.074a.53.53,0,1,0,0-1.059Z" transform="translate(3837.209 3661.81)" fill="#6d44e5"/>
          <path id="check" d="M1.339,1.806l.924.924L4.111.75" transform="translate(3847.16 3677.26)" fill="none" stroke="#fff" stroke-linecap="round" stroke-linejoin="round" stroke-width="0.5"/>
          <path id="check-2" data-name="check" d="M1.339,1.806l.924.924L4.111.75" transform="translate(3847.16 3671.26)" fill="none" stroke="#fff" stroke-linecap="round" stroke-linejoin="round" stroke-width="0.5"/>
          <path id="check-3" data-name="check" d="M1.339,1.806l.924.924L4.111.75" transform="translate(3847.16 3683.26)" fill="none" stroke="#fff" stroke-linecap="round" stroke-linejoin="round" stroke-width="0.5"/>
        </g>
      </g>
      <g id="Group_19115" data-name="Group 19115">
        <g id="Group_19104" data-name="Group 19104" transform="translate(195 -6)">
          <path id="Path_31291" data-name="Path 31291" d="M5.018-9.16a4,4,0,0,1,1.518.294,2.834,2.834,0,0,1,1.2.9A2.458,2.458,0,0,1,8.2-6.412a2.181,2.181,0,0,1-.485,1.436,2.985,2.985,0,0,1-1.23.882A4.156,4.156,0,0,1,4.949-3.8q-.246,0-.656-.027L8.559,0H6.672L2.734-3.828V0H1.5V-9.16ZM2.734-8v2.939a7.251,7.251,0,0,0,.984.191A8.273,8.273,0,0,0,4.771-4.8a2.581,2.581,0,0,0,1.606-.437,1.408,1.408,0,0,0,.567-1.176,1.325,1.325,0,0,0-.622-1.176A2.684,2.684,0,0,0,4.813-8Zm9.529,1.025a2.845,2.845,0,0,1,1.2.28,3.142,3.142,0,0,1,1.046.772v-.916h1.121V0H14.506V-1.162a3.383,3.383,0,0,1-.964.957,2.425,2.425,0,0,1-1.388.41,3,3,0,0,1-1.6-.444A3.22,3.22,0,0,1,9.4-1.477a3.778,3.778,0,0,1-.431-1.832A4.154,4.154,0,0,1,9.4-5.264a3.111,3.111,0,0,1,1.183-1.265A3.243,3.243,0,0,1,12.264-6.973Zm.205,1.094a2.115,2.115,0,0,0-1.258.369,2.454,2.454,0,0,0-.8.95,2.842,2.842,0,0,0-.28,1.251A2.7,2.7,0,0,0,10.4-2.1a2.2,2.2,0,0,0,.772.882,2.055,2.055,0,0,0,1.155.328,1.975,1.975,0,0,0,1.121-.328,2.277,2.277,0,0,0,.779-.909,2.786,2.786,0,0,0,.273-1.306l-.014-1.312a3.6,3.6,0,0,0-.909-.834A2.071,2.071,0,0,0,12.469-5.879ZM24.131-9.844V0H23.01V-1.162a3.383,3.383,0,0,1-.964.957,2.425,2.425,0,0,1-1.388.41,3,3,0,0,1-1.6-.444A3.22,3.22,0,0,1,17.9-1.477a3.778,3.778,0,0,1-.431-1.832A4.154,4.154,0,0,1,17.9-5.264a3.111,3.111,0,0,1,1.183-1.265,3.243,3.243,0,0,1,1.682-.444,2.845,2.845,0,0,1,1.2.28,3.142,3.142,0,0,1,1.046.772V-9.844ZM20.973-5.852a2.144,2.144,0,0,0-1.258.362,2.413,2.413,0,0,0-.8.937,2.8,2.8,0,0,0-.28,1.244,2.7,2.7,0,0,0,.273,1.21,2.2,2.2,0,0,0,.772.882,2.055,2.055,0,0,0,1.155.328,1.975,1.975,0,0,0,1.121-.328,2.277,2.277,0,0,0,.779-.909,2.786,2.786,0,0,0,.273-1.306L23-4.744a3.368,3.368,0,0,0-.909-.82A2.147,2.147,0,0,0,20.973-5.852Zm6.576-4.266a.878.878,0,0,1,.663.28.914.914,0,0,1,.267.649.922.922,0,0,1-.267.643.868.868,0,0,1-.663.287.868.868,0,0,1-.663-.287.922.922,0,0,1-.267-.643.914.914,0,0,1,.267-.649A.878.878,0,0,1,27.549-10.117Zm.7,3.281V0H27.125V-5.783h-1.08V-6.836Zm5.51-.137A3.472,3.472,0,0,1,35.6-6.48a3.529,3.529,0,0,1,1.265,1.313,3.612,3.612,0,0,1,.458,1.791,3.575,3.575,0,0,1-.458,1.784A3.545,3.545,0,0,1,35.6-.287a3.472,3.472,0,0,1-1.846.492A3.472,3.472,0,0,1,31.91-.287a3.545,3.545,0,0,1-1.265-1.306,3.575,3.575,0,0,1-.458-1.784,3.612,3.612,0,0,1,.458-1.791A3.529,3.529,0,0,1,31.91-6.48,3.472,3.472,0,0,1,33.756-6.973Zm0,1.094a2.314,2.314,0,0,0-1.271.349,2.354,2.354,0,0,0-.841.916,2.65,2.65,0,0,0-.294,1.237,2.621,2.621,0,0,0,.294,1.224,2.354,2.354,0,0,0,.841.916,2.314,2.314,0,0,0,1.271.349,2.3,2.3,0,0,0,1.278-.349,2.372,2.372,0,0,0,.834-.916,2.621,2.621,0,0,0,.294-1.224,2.65,2.65,0,0,0-.294-1.237,2.372,2.372,0,0,0-.834-.916A2.3,2.3,0,0,0,33.756-5.879Zm8.982-3.5a4.255,4.255,0,0,1,1.757.335,2.78,2.78,0,0,1,1.155.909,2.223,2.223,0,0,1,.41,1.326,2.1,2.1,0,0,1-.383,1.224,2.414,2.414,0,0,1-.957.827,2.29,2.29,0,0,1,.807.342,2.122,2.122,0,0,1,.663.711,2.172,2.172,0,0,1,.267,1.121A2.326,2.326,0,0,1,46.02-1.2a2.974,2.974,0,0,1-1.251.978,4.691,4.691,0,0,1-1.921.362,16.048,16.048,0,0,1-1.771-.1q-.923-.1-1.565-.239V-9.037a12.989,12.989,0,0,1,1.552-.253A15.924,15.924,0,0,1,42.738-9.379Zm-.082,1.162q-.574,0-1.032.041a8.745,8.745,0,0,0-.882.123v2.871h2.146a1.976,1.976,0,0,0,1.422-.472,1.479,1.479,0,0,0,.492-1.1,1.143,1.143,0,0,0-.3-.813,1.876,1.876,0,0,0-.786-.485A3.29,3.29,0,0,0,42.656-8.217ZM40.742-1.189a8.19,8.19,0,0,0,1.094.13q.6.034.984.034a3.153,3.153,0,0,0,1.7-.424A1.288,1.288,0,0,0,45.2-2.584a1.218,1.218,0,0,0-.663-1.128,3.239,3.239,0,0,0-1.62-.376H40.742ZM54.127-6.836v4.047a3.04,3.04,0,0,1-.383,1.559A2.639,2.639,0,0,1,52.705-.219a3.05,3.05,0,0,1-1.477.355,3.05,3.05,0,0,1-1.477-.355A2.639,2.639,0,0,1,48.713-1.23a3.04,3.04,0,0,1-.383-1.559V-6.836h1.162v4.047a1.732,1.732,0,0,0,.526,1.36,1.76,1.76,0,0,0,1.21.472,1.76,1.76,0,0,0,1.21-.472,1.732,1.732,0,0,0,.526-1.36V-6.836ZM58.133-8.8v1.969h2.693a1.466,1.466,0,0,0,1.107-.458,4.025,4.025,0,0,0,.779-1.374h.246v1.832h2v1.053h-2v4.006a.972.972,0,0,0,.219.67.851.851,0,0,0,.67.246,1.964,1.964,0,0,0,.684-.1,2.932,2.932,0,0,0,.479-.226v.916a2.459,2.459,0,0,1-.581.349,2.168,2.168,0,0,1-.827.13,1.629,1.629,0,0,1-1.319-.526,2.1,2.1,0,0,1-.444-1.4V-5.783H58.133v4.006a.972.972,0,0,0,.219.67.851.851,0,0,0,.67.246,1.964,1.964,0,0,0,.684-.1,2.932,2.932,0,0,0,.479-.226v.916A2.459,2.459,0,0,1,59.6.075a2.168,2.168,0,0,1-.827.13,1.629,1.629,0,0,1-1.319-.526,2.1,2.1,0,0,1-.444-1.4V-5.783H55.7v-.328A2.615,2.615,0,0,0,56.82-7.1a7.506,7.506,0,0,0,.793-1.7ZM69.945-6.973a3.472,3.472,0,0,1,1.846.492,3.529,3.529,0,0,1,1.265,1.313,3.612,3.612,0,0,1,.458,1.791,3.575,3.575,0,0,1-.458,1.784A3.545,3.545,0,0,1,71.791-.287a3.472,3.472,0,0,1-1.846.492A3.472,3.472,0,0,1,68.1-.287a3.545,3.545,0,0,1-1.265-1.306,3.575,3.575,0,0,1-.458-1.784,3.612,3.612,0,0,1,.458-1.791A3.529,3.529,0,0,1,68.1-6.48,3.472,3.472,0,0,1,69.945-6.973Zm0,1.094a2.314,2.314,0,0,0-1.271.349,2.354,2.354,0,0,0-.841.916,2.65,2.65,0,0,0-.294,1.237,2.621,2.621,0,0,0,.294,1.224,2.354,2.354,0,0,0,.841.916,2.314,2.314,0,0,0,1.271.349,2.3,2.3,0,0,0,1.278-.349,2.372,2.372,0,0,0,.834-.916,2.621,2.621,0,0,0,.294-1.224,2.65,2.65,0,0,0-.294-1.237,2.372,2.372,0,0,0-.834-.916A2.3,2.3,0,0,0,69.945-5.879Zm6.535-.957v1.08a3.8,3.8,0,0,1,.561-.554,3.367,3.367,0,0,1,.772-.472,2.182,2.182,0,0,1,.9-.191,2.649,2.649,0,0,1,1.271.308,2.252,2.252,0,0,1,.916.93,3.222,3.222,0,0,1,.342,1.565V0H80.117L80.1-4.061a2.057,2.057,0,0,0-.39-1.354,1.473,1.473,0,0,0-1.2-.465,1.808,1.808,0,0,0-1.087.4,4.868,4.868,0,0,0-.95.937V0H75.359V-6.836ZM5,14H9.037v3.76a4.37,4.37,0,0,1-.848.69,4.921,4.921,0,0,1-2.68.759A4.8,4.8,0,0,1,3.6,18.829,4.852,4.852,0,0,1,2.064,17.8a4.686,4.686,0,0,1-1.019-1.524,4.917,4.917,0,0,1,0-3.705,4.686,4.686,0,0,1,1.019-1.524A4.852,4.852,0,0,1,3.6,10.011,4.8,4.8,0,0,1,5.51,9.635a4.169,4.169,0,0,1,1.634.273,3.946,3.946,0,0,1,1.114.711v1.354q-.3-.219-.677-.479a4.378,4.378,0,0,0-.875-.458,3.239,3.239,0,0,0-1.2-.2,3.6,3.6,0,0,0-1.832.465,3.39,3.39,0,0,0-1.271,1.278,3.64,3.64,0,0,0-.465,1.839,3.6,3.6,0,0,0,.465,1.832A3.456,3.456,0,0,0,3.678,17.53,3.561,3.561,0,0,0,5.51,18a3.584,3.584,0,0,0,1.121-.144,2.412,2.412,0,0,0,.67-.328q.246-.185.4-.308l.014-2.133H5Zm6.863-1.832v1.367a3.513,3.513,0,0,1,.957-1.094,1.926,1.926,0,0,1,1.148-.41,1.766,1.766,0,0,1,.711.137v1.3a1.7,1.7,0,0,0-.875-.26,1.427,1.427,0,0,0-1.128.492,6.9,6.9,0,0,0-.813,1.176V19H10.746V12.164Zm7.342-.137a3.472,3.472,0,0,1,1.846.492,3.529,3.529,0,0,1,1.265,1.313,3.612,3.612,0,0,1,.458,1.791,3.571,3.571,0,0,1-1.723,3.09,3.707,3.707,0,0,1-3.691,0,3.571,3.571,0,0,1-1.723-3.09,3.612,3.612,0,0,1,.458-1.791,3.529,3.529,0,0,1,1.265-1.312A3.472,3.472,0,0,1,19.209,12.027Zm0,1.094a2.314,2.314,0,0,0-1.271.349,2.354,2.354,0,0,0-.841.916,2.65,2.65,0,0,0-.294,1.237,2.621,2.621,0,0,0,.294,1.224,2.354,2.354,0,0,0,.841.916,2.505,2.505,0,0,0,2.55,0,2.372,2.372,0,0,0,.834-.916,2.621,2.621,0,0,0,.294-1.224,2.65,2.65,0,0,0-.294-1.237,2.372,2.372,0,0,0-.834-.916A2.3,2.3,0,0,0,19.209,13.121Zm11.006-.957v4.047a3.04,3.04,0,0,1-.383,1.559,2.639,2.639,0,0,1-1.039,1.012,3.244,3.244,0,0,1-2.953,0A2.639,2.639,0,0,1,24.8,17.77a3.04,3.04,0,0,1-.383-1.559V12.164H25.58v4.047a1.732,1.732,0,0,0,.526,1.36,1.788,1.788,0,0,0,2.42,0,1.732,1.732,0,0,0,.526-1.36V12.164Zm5.592-.137a3.062,3.062,0,0,1,1.606.431,3.172,3.172,0,0,1,1.148,1.2,3.66,3.66,0,0,1,.431,1.812,4.248,4.248,0,0,1-.431,1.962,3.24,3.24,0,0,1-1.176,1.306,3.124,3.124,0,0,1-1.688.465,2.593,2.593,0,0,1-1.2-.314,3.589,3.589,0,0,1-1.046-.807v4.2H32.334V12.164h1.121v1.162a3.02,3.02,0,0,1,.964-.923A2.585,2.585,0,0,1,35.807,12.027Zm-.178,1.094a2.047,2.047,0,0,0-1.114.314,2.149,2.149,0,0,0-.779.868,2.825,2.825,0,0,0-.28,1.292l.014,1.313a4.641,4.641,0,0,0,.916.868,1.883,1.883,0,0,0,1.107.335,2.062,2.062,0,0,0,1.258-.383,2.515,2.515,0,0,0,.8-.991,2.99,2.99,0,0,0,.28-1.265,2.557,2.557,0,0,0-.273-1.2,2.162,2.162,0,0,0-.766-.841A2.112,2.112,0,0,0,35.629,13.121Z" transform="translate(3877 3736)" fill="#2a2a2a"/>
          <g id="Rectangle_6382" data-name="Rectangle 6382" transform="translate(3832 3711)" fill="none" stroke="#e6e6e6" stroke-width="1">
            <rect width="158" height="59" rx="5" stroke="none"/>
            <rect x="0.5" y="0.5" width="157" height="58" rx="4.5" fill="none"/>
          </g>
          <g id="Group_19122" data-name="Group 19122" transform="translate(3845.5 3729.5)">
            <g id="Rectangle_6588" data-name="Rectangle 6588" transform="translate(-0.5 0.5)" fill="#6d44e5" stroke="#85e6c4" stroke-width="1">
              <rect width="21" height="20" rx="5" stroke="none"/>
              <rect x="0.5" y="0.5" width="20" height="19" rx="4.5" fill="none"/>
            </g>
            <path id="Path_24787" data-name="Path 24787" d="M8.047,6.524A2.524,2.524,0,1,1,5.524,4,2.524,2.524,0,0,1,8.047,6.524Z" transform="translate(-0.556 -0.556)" fill="#85e6c4"/>
            <path id="Path_24788" data-name="Path 24788" d="M6.285,6.444A.841.841,0,1,1,5.444,5.6.841.841,0,0,1,6.285,6.444Zm-3.785,0A2.944,2.944,0,1,1,5.444,9.388,2.944,2.944,0,0,1,2.5,6.444Zm.841,0a2.1,2.1,0,1,0,2.1-2.1,2.1,2.1,0,0,0-2.1,2.1Zm7.991.421h6.729a.421.421,0,0,0,0-.841H11.332a.421.421,0,1,0,0,.841ZM2.5,14.856A2.944,2.944,0,1,1,5.444,17.8,2.944,2.944,0,0,1,2.5,14.856Zm.841,0a2.1,2.1,0,1,0,2.1-2.1,2.1,2.1,0,0,0-2.1,2.1Zm7.991.421h6.729a.421.421,0,0,0,0-.841H11.332a.421.421,0,1,0,0,.841Z" transform="translate(-0.476 -0.476)" fill="#fff"/>
          </g>
        </g>
        <g transform="matrix(1, 0, 0, 1, 3775, 3574)" filter="url(#Rectangle_6584)">
          <rect id="Rectangle_6584-2" data-name="Rectangle 6584" width="180" height="181" rx="10" transform="translate(240 250)" fill="#fff"/>
        </g>
        <g id="Group_19112" data-name="Group 19112" transform="translate(195 199)">
          <path id="Path_31292" data-name="Path 31292" d="M4.867-9.379a5.1,5.1,0,0,1,2.618.629,4.239,4.239,0,0,1,1.641,1.7,5.112,5.112,0,0,1,.567,2.427,5.112,5.112,0,0,1-.567,2.427,4.239,4.239,0,0,1-1.641,1.7A5.1,5.1,0,0,1,4.867.137a14.549,14.549,0,0,1-1.736-.1Q2.338-.055,1.5-.205V-9.037q.834-.15,1.627-.246A14.549,14.549,0,0,1,4.867-9.379Zm0,1.162q-.492,0-1.053.034t-1.08.1v6.918q.52.055,1.08.1t1.053.041A3.688,3.688,0,0,0,6.774-1.5,3.21,3.21,0,0,0,8-2.782a3.869,3.869,0,0,0,.431-1.839A3.869,3.869,0,0,0,8-6.46a3.21,3.21,0,0,0-1.23-1.285A3.688,3.688,0,0,0,4.867-8.217Zm9.488,1.244a2.845,2.845,0,0,1,1.2.28A3.142,3.142,0,0,1,16.6-5.92v-.916h1.121V0H16.6V-1.162a3.383,3.383,0,0,1-.964.957,2.425,2.425,0,0,1-1.388.41,3,3,0,0,1-1.6-.444,3.22,3.22,0,0,1-1.155-1.237,3.778,3.778,0,0,1-.431-1.832,4.154,4.154,0,0,1,.431-1.955,3.111,3.111,0,0,1,1.183-1.265A3.243,3.243,0,0,1,14.355-6.973Zm.205,1.094A2.115,2.115,0,0,0,13.3-5.51a2.454,2.454,0,0,0-.8.95,2.842,2.842,0,0,0-.28,1.251A2.7,2.7,0,0,0,12.5-2.1a2.2,2.2,0,0,0,.772.882,2.055,2.055,0,0,0,1.155.328,1.975,1.975,0,0,0,1.121-.328,2.277,2.277,0,0,0,.779-.909A2.786,2.786,0,0,0,16.6-3.432l-.014-1.312a3.6,3.6,0,0,0-.909-.834A2.071,2.071,0,0,0,14.561-5.879ZM21.93-8.8v1.969h2v1.053h-2v4.006a.972.972,0,0,0,.219.67.851.851,0,0,0,.67.246,1.964,1.964,0,0,0,.684-.1,2.932,2.932,0,0,0,.479-.226v.916A2.459,2.459,0,0,1,23.4.075a2.168,2.168,0,0,1-.827.13,1.629,1.629,0,0,1-1.319-.526,2.1,2.1,0,0,1-.444-1.4V-5.783H19.5v-.328A2.615,2.615,0,0,0,20.617-7.1a7.506,7.506,0,0,0,.793-1.7Zm6.85,1.832a3.236,3.236,0,0,1,1.75.438,2.731,2.731,0,0,1,1.046,1.189,3.984,3.984,0,0,1,.349,1.7v.67h-5.25a2.55,2.55,0,0,0,.4,1.053,2.3,2.3,0,0,0,.82.759,2.358,2.358,0,0,0,1.162.28,2.688,2.688,0,0,0,1.381-.376,5.032,5.032,0,0,0,1.08-.827L31.5-.875a2.655,2.655,0,0,1-.567.485,3.791,3.791,0,0,1-.861.424,3.044,3.044,0,0,1-1.019.171,3.472,3.472,0,0,1-1.846-.492,3.545,3.545,0,0,1-1.265-1.306,3.575,3.575,0,0,1-.458-1.784,3.844,3.844,0,0,1,.424-1.791A3.428,3.428,0,0,1,27.077-6.48,3.018,3.018,0,0,1,28.779-6.973Zm0,1.094a1.853,1.853,0,0,0-1.395.567A2.544,2.544,0,0,0,26.7-3.937h4.115a2.213,2.213,0,0,0-.376-1.094,1.984,1.984,0,0,0-.745-.636A2.076,2.076,0,0,0,28.779-5.879ZM41.863-9.16a3.351,3.351,0,0,1,1.518.362,3.163,3.163,0,0,1,1.2,1.039,2.762,2.762,0,0,1,.472,1.62,2.651,2.651,0,0,1-.451,1.49,3.329,3.329,0,0,1-1.224,1.1,3.553,3.553,0,0,1-1.716.417,5.328,5.328,0,0,1-1.278-.144,5.357,5.357,0,0,1-.937-.308V0h-1.23V-9.16ZM39.443-8V-4.7a6.037,6.037,0,0,0,.964.28,5.654,5.654,0,0,0,1.21.13,2.238,2.238,0,0,0,1.606-.54,1.737,1.737,0,0,0,.567-1.306,1.569,1.569,0,0,0-.321-1,2.115,2.115,0,0,0-.841-.636A2.75,2.75,0,0,0,41.521-8Zm8.545-2.119a.878.878,0,0,1,.663.28.914.914,0,0,1,.267.649.922.922,0,0,1-.267.643.868.868,0,0,1-.663.287.868.868,0,0,1-.663-.287.922.922,0,0,1-.267-.643.914.914,0,0,1,.267-.649A.878.878,0,0,1,47.988-10.117Zm.7,3.281V0H47.564V-5.783h-1.08V-6.836Zm5.51-.137a3.224,3.224,0,0,1,1.3.239,2.843,2.843,0,0,1,.752.431v1.135a4.257,4.257,0,0,0-.875-.5A2.962,2.962,0,0,0,54.2-5.879a2.314,2.314,0,0,0-1.271.349,2.354,2.354,0,0,0-.841.916,2.65,2.65,0,0,0-.294,1.237,2.621,2.621,0,0,0,.294,1.224,2.354,2.354,0,0,0,.841.916A2.314,2.314,0,0,0,54.2-.889,2.962,2.962,0,0,0,55.371-1.1a4.257,4.257,0,0,0,.875-.5V-.465a2.492,2.492,0,0,1-.752.438,3.307,3.307,0,0,1-1.3.232A3.472,3.472,0,0,1,52.35-.287a3.545,3.545,0,0,1-1.265-1.306,3.575,3.575,0,0,1-.458-1.784,3.612,3.612,0,0,1,.458-1.791A3.529,3.529,0,0,1,52.35-6.48,3.472,3.472,0,0,1,54.2-6.973Zm9.939.137-3.172,2.98L64.313,0H62.891L60.184-3.117l-.971.9V0H58.092V-9.844h1.121V-3.5l3.4-3.336Zm3.814-.137a3.236,3.236,0,0,1,1.75.438,2.731,2.731,0,0,1,1.046,1.189,3.984,3.984,0,0,1,.349,1.7v.67h-5.25a2.55,2.55,0,0,0,.4,1.053,2.3,2.3,0,0,0,.82.759,2.358,2.358,0,0,0,1.162.28A2.688,2.688,0,0,0,69.6-1.265a5.032,5.032,0,0,0,1.08-.827L70.67-.875A2.655,2.655,0,0,1,70.1-.39a3.791,3.791,0,0,1-.861.424,3.044,3.044,0,0,1-1.019.171,3.472,3.472,0,0,1-1.846-.492,3.545,3.545,0,0,1-1.265-1.306,3.575,3.575,0,0,1-.458-1.784,3.844,3.844,0,0,1,.424-1.791A3.428,3.428,0,0,1,66.247-6.48,3.018,3.018,0,0,1,67.949-6.973Zm0,1.094a1.853,1.853,0,0,0-1.395.567,2.544,2.544,0,0,0-.684,1.374h4.115a2.213,2.213,0,0,0-.376-1.094,1.984,1.984,0,0,0-.745-.636A2.076,2.076,0,0,0,67.949-5.879Zm6.111-.957v1.367a3.513,3.513,0,0,1,.957-1.094,1.926,1.926,0,0,1,1.148-.41,1.766,1.766,0,0,1,.711.137v1.3A1.7,1.7,0,0,0,76-5.8a1.427,1.427,0,0,0-1.128.492,6.9,6.9,0,0,0-.813,1.176V0H72.939V-6.836Z" transform="translate(3877 3684)" fill="#2a2a2a"/>
          <g id="Rectangle_6381-3" data-name="Rectangle 6381" transform="translate(3832 3659)" fill="none" stroke="#e6e6e6" stroke-width="1">
            <rect width="158" height="40" rx="5" stroke="none"/>
            <rect x="0.5" y="0.5" width="157" height="39" rx="4.5" fill="none"/>
          </g>
          <g id="Group_19120" data-name="Group 19120" transform="translate(3844.951 3668.089)">
            <path id="Path_24778" data-name="Path 24778" d="M6.8,5.18a.8.8,0,0,1-.8-.8V2.8a.8.8,0,0,1,1.59,0v1.59a.8.8,0,0,1-.794.8Zm7.951,0a.8.8,0,0,1-.8-.8V2.8a.8.8,0,1,1,1.59,0v1.59a.8.8,0,0,1-.794.8Z" transform="translate(-0.82)" fill="#85e6c4"/>
            <path id="Path_24779" data-name="Path 24779" d="M15.517,4h-.8v.8a.8.8,0,0,1-1.59,0V4H6.771v.8a.8.8,0,1,1-1.59,0V4h-.8A2.385,2.385,0,0,0,2,6.385v1.59H17.9V6.385A2.385,2.385,0,0,0,15.517,4Z" transform="translate(0 -0.41)" fill="#6d44e5"/>
            <circle id="Ellipse_6074" data-name="Ellipse 6074" cx="1" cy="1" r="1" transform="translate(5 9.902)" fill="#6d44e5"/>
            <circle id="Ellipse_6075" data-name="Ellipse 6075" cx="1" cy="1" r="1" transform="translate(5 12.902)" fill="#6d44e5"/>
            <circle id="Ellipse_6076" data-name="Ellipse 6076" cx="1" cy="1" r="1" transform="translate(9 9.902)" fill="#6d44e5"/>
            <circle id="Ellipse_6077" data-name="Ellipse 6077" cx="1" cy="1" r="1" transform="translate(9 12.902)" fill="#6d44e5"/>
            <circle id="Ellipse_6078" data-name="Ellipse 6078" cx="1" cy="1" r="1" transform="translate(13 9.902)" fill="#6d44e5"/>
            <circle id="Ellipse_6079" data-name="Ellipse 6079" cx="1" cy="1" r="1" transform="translate(13 12.902)" fill="#6d44e5"/>
            <path id="Path_24780" data-name="Path 24780" d="M2,9v7.951a2.385,2.385,0,0,0,2.385,2.385H15.517A2.385,2.385,0,0,0,17.9,16.951V9Zm3.976,7.156a.8.8,0,1,1,.8-.8A.8.8,0,0,1,5.976,16.156Zm0-3.18a.8.8,0,1,1,.8-.8A.8.8,0,0,1,5.976,12.976Zm3.976,3.18a.8.8,0,1,1,.8-.8A.8.8,0,0,1,9.951,16.156Zm0-3.18a.8.8,0,1,1,.8-.8A.8.8,0,0,1,9.951,12.976Zm3.976,3.18a.8.8,0,1,1,.8-.8A.8.8,0,0,1,13.927,16.156Zm0-3.18a.8.8,0,1,1,.8-.8A.8.8,0,0,1,13.927,12.976Z" transform="translate(0 -1.434)" fill="#85e6c4"/>
          </g>
        </g>
        <g id="Group_19113" data-name="Group 19113" transform="translate(195 199)">
          <path id="Path_31293" data-name="Path 31293" d="M4.867-9.379a5.1,5.1,0,0,1,2.618.629,4.239,4.239,0,0,1,1.641,1.7,5.112,5.112,0,0,1,.567,2.427,5.112,5.112,0,0,1-.567,2.427,4.239,4.239,0,0,1-1.641,1.7A5.1,5.1,0,0,1,4.867.137a14.549,14.549,0,0,1-1.736-.1Q2.338-.055,1.5-.205V-9.037q.834-.15,1.627-.246A14.549,14.549,0,0,1,4.867-9.379Zm0,1.162q-.492,0-1.053.034t-1.08.1v6.918q.52.055,1.08.1t1.053.041A3.688,3.688,0,0,0,6.774-1.5,3.21,3.21,0,0,0,8-2.782a3.869,3.869,0,0,0,.431-1.839A3.869,3.869,0,0,0,8-6.46a3.21,3.21,0,0,0-1.23-1.285A3.688,3.688,0,0,0,4.867-8.217Zm9.488,1.244a2.845,2.845,0,0,1,1.2.28A3.142,3.142,0,0,1,16.6-5.92v-.916h1.121V0H16.6V-1.162a3.383,3.383,0,0,1-.964.957,2.425,2.425,0,0,1-1.388.41,3,3,0,0,1-1.6-.444,3.22,3.22,0,0,1-1.155-1.237,3.778,3.778,0,0,1-.431-1.832,4.154,4.154,0,0,1,.431-1.955,3.111,3.111,0,0,1,1.183-1.265A3.243,3.243,0,0,1,14.355-6.973Zm.205,1.094A2.115,2.115,0,0,0,13.3-5.51a2.454,2.454,0,0,0-.8.95,2.842,2.842,0,0,0-.28,1.251A2.7,2.7,0,0,0,12.5-2.1a2.2,2.2,0,0,0,.772.882,2.055,2.055,0,0,0,1.155.328,1.975,1.975,0,0,0,1.121-.328,2.277,2.277,0,0,0,.779-.909A2.786,2.786,0,0,0,16.6-3.432l-.014-1.312a3.6,3.6,0,0,0-.909-.834A2.071,2.071,0,0,0,14.561-5.879ZM21.93-8.8v1.969h2v1.053h-2v4.006a.972.972,0,0,0,.219.67.851.851,0,0,0,.67.246,1.964,1.964,0,0,0,.684-.1,2.932,2.932,0,0,0,.479-.226v.916A2.459,2.459,0,0,1,23.4.075a2.168,2.168,0,0,1-.827.13,1.629,1.629,0,0,1-1.319-.526,2.1,2.1,0,0,1-.444-1.4V-5.783H19.5v-.328A2.615,2.615,0,0,0,20.617-7.1a7.506,7.506,0,0,0,.793-1.7Zm6.85,1.832a3.236,3.236,0,0,1,1.75.438,2.731,2.731,0,0,1,1.046,1.189,3.984,3.984,0,0,1,.349,1.7v.67h-5.25a2.55,2.55,0,0,0,.4,1.053,2.3,2.3,0,0,0,.82.759,2.358,2.358,0,0,0,1.162.28,2.688,2.688,0,0,0,1.381-.376,5.032,5.032,0,0,0,1.08-.827L31.5-.875a2.655,2.655,0,0,1-.567.485,3.791,3.791,0,0,1-.861.424,3.044,3.044,0,0,1-1.019.171,3.472,3.472,0,0,1-1.846-.492,3.545,3.545,0,0,1-1.265-1.306,3.575,3.575,0,0,1-.458-1.784,3.844,3.844,0,0,1,.424-1.791A3.428,3.428,0,0,1,27.077-6.48,3.018,3.018,0,0,1,28.779-6.973Zm0,1.094a1.853,1.853,0,0,0-1.395.567A2.544,2.544,0,0,0,26.7-3.937h4.115a2.213,2.213,0,0,0-.376-1.094,1.984,1.984,0,0,0-.745-.636A2.076,2.076,0,0,0,28.779-5.879ZM41.727-9.16a4,4,0,0,1,1.518.294,2.834,2.834,0,0,1,1.2.9,2.458,2.458,0,0,1,.472,1.552,2.181,2.181,0,0,1-.485,1.436,2.985,2.985,0,0,1-1.23.882,4.156,4.156,0,0,1-1.538.294q-.246,0-.656-.027L45.268,0H43.381L39.443-3.828V0h-1.23V-9.16ZM39.443-8v2.939a7.251,7.251,0,0,0,.984.191A8.273,8.273,0,0,0,41.48-4.8a2.581,2.581,0,0,0,1.606-.437,1.408,1.408,0,0,0,.567-1.176,1.325,1.325,0,0,0-.622-1.176A2.684,2.684,0,0,0,41.521-8Zm9.529,1.025a2.845,2.845,0,0,1,1.2.28,3.142,3.142,0,0,1,1.046.772v-.916h1.121V0H51.215V-1.162a3.383,3.383,0,0,1-.964.957,2.425,2.425,0,0,1-1.388.41,3,3,0,0,1-1.6-.444,3.22,3.22,0,0,1-1.155-1.237,3.778,3.778,0,0,1-.431-1.832,4.154,4.154,0,0,1,.431-1.955,3.111,3.111,0,0,1,1.183-1.265A3.243,3.243,0,0,1,48.973-6.973Zm.205,1.094a2.115,2.115,0,0,0-1.258.369,2.454,2.454,0,0,0-.8.95,2.842,2.842,0,0,0-.28,1.251,2.7,2.7,0,0,0,.273,1.21,2.2,2.2,0,0,0,.772.882,2.055,2.055,0,0,0,1.155.328,1.975,1.975,0,0,0,1.121-.328,2.277,2.277,0,0,0,.779-.909,2.786,2.786,0,0,0,.273-1.306L51.2-4.744a3.6,3.6,0,0,0-.909-.834A2.071,2.071,0,0,0,49.178-5.879Zm6.6-.957v1.08a3.8,3.8,0,0,1,.561-.554,3.367,3.367,0,0,1,.772-.472,2.182,2.182,0,0,1,.9-.191,2.649,2.649,0,0,1,1.271.308,2.252,2.252,0,0,1,.916.93,3.222,3.222,0,0,1,.342,1.565V0H59.418L59.4-4.061a2.057,2.057,0,0,0-.39-1.354,1.473,1.473,0,0,0-1.2-.465,1.808,1.808,0,0,0-1.087.4,4.868,4.868,0,0,0-.95.937V0H54.66V-6.836Zm9.693-.137a2.845,2.845,0,0,1,1.2.28,3.142,3.142,0,0,1,1.046.772v-.916h1.121v6.7a3.825,3.825,0,0,1-.492,2.023,3.09,3.09,0,0,1-1.312,1.2,4.061,4.061,0,0,1-1.791.4,3.516,3.516,0,0,1-1.073-.144,3.007,3.007,0,0,1-.759-.355q-.314-.212-.574-.4v-1.2q.205.15.54.39a3.924,3.924,0,0,0,.807.431,2.8,2.8,0,0,0,1.06.191,3.027,3.027,0,0,0,1.23-.246,2.144,2.144,0,0,0,.9-.725A1.924,1.924,0,0,0,67.717.273V-1.162a3.383,3.383,0,0,1-.964.957,2.425,2.425,0,0,1-1.388.41,3,3,0,0,1-1.6-.444A3.22,3.22,0,0,1,62.61-1.477a3.778,3.778,0,0,1-.431-1.832,4.154,4.154,0,0,1,.431-1.955,3.111,3.111,0,0,1,1.183-1.265A3.243,3.243,0,0,1,65.475-6.973Zm.205,1.107a2.144,2.144,0,0,0-1.258.362,2.4,2.4,0,0,0-.8.943,2.842,2.842,0,0,0-.28,1.251,2.652,2.652,0,0,0,.273,1.2,2.209,2.209,0,0,0,.772.875A2.055,2.055,0,0,0,65.543-.9a1.975,1.975,0,0,0,1.121-.328,2.287,2.287,0,0,0,.779-.9,2.746,2.746,0,0,0,.273-1.3L67.7-4.744a3.479,3.479,0,0,0-.909-.827A2.108,2.108,0,0,0,65.68-5.865Zm8.3-1.107a3.236,3.236,0,0,1,1.75.438,2.731,2.731,0,0,1,1.046,1.189,3.984,3.984,0,0,1,.349,1.7v.67h-5.25a2.55,2.55,0,0,0,.4,1.053,2.3,2.3,0,0,0,.82.759,2.358,2.358,0,0,0,1.162.28,2.688,2.688,0,0,0,1.381-.376,5.032,5.032,0,0,0,1.08-.827L76.7-.875a2.655,2.655,0,0,1-.567.485,3.791,3.791,0,0,1-.861.424,3.044,3.044,0,0,1-1.019.171,3.472,3.472,0,0,1-1.846-.492,3.545,3.545,0,0,1-1.265-1.306,3.575,3.575,0,0,1-.458-1.784,3.844,3.844,0,0,1,.424-1.791A3.428,3.428,0,0,1,72.276-6.48,3.018,3.018,0,0,1,73.979-6.973Zm0,1.094a1.853,1.853,0,0,0-1.395.567A2.544,2.544,0,0,0,71.9-3.937h4.115a2.213,2.213,0,0,0-.376-1.094,1.984,1.984,0,0,0-.745-.636A2.076,2.076,0,0,0,73.979-5.879ZM5.154,9.84a3.351,3.351,0,0,1,1.518.362,3.163,3.163,0,0,1,1.2,1.039,2.762,2.762,0,0,1,.472,1.62,2.651,2.651,0,0,1-.451,1.49,3.329,3.329,0,0,1-1.224,1.1,3.553,3.553,0,0,1-1.716.417,5.538,5.538,0,0,1-2.215-.451V19H1.5V9.84ZM2.734,11V14.3a6.037,6.037,0,0,0,.964.28,5.654,5.654,0,0,0,1.21.13,2.238,2.238,0,0,0,1.606-.54,1.737,1.737,0,0,0,.567-1.306,1.569,1.569,0,0,0-.321-1,2.115,2.115,0,0,0-.841-.636A2.75,2.75,0,0,0,4.813,11Zm8.545-2.119a.878.878,0,0,1,.663.28.916.916,0,0,1,0,1.292.909.909,0,0,1-1.326,0,.916.916,0,0,1,0-1.292A.878.878,0,0,1,11.279,8.883Zm.7,3.281V19H10.855V13.217H9.775V12.164Zm5.51-.137a3.224,3.224,0,0,1,1.3.239,2.843,2.843,0,0,1,.752.431v1.135a4.257,4.257,0,0,0-.875-.5,2.962,2.962,0,0,0-1.176-.212,2.314,2.314,0,0,0-1.271.349,2.354,2.354,0,0,0-.841.916,2.65,2.65,0,0,0-.294,1.237,2.621,2.621,0,0,0,.294,1.224,2.354,2.354,0,0,0,.841.916,2.314,2.314,0,0,0,1.271.349,2.962,2.962,0,0,0,1.176-.212,4.257,4.257,0,0,0,.875-.5v1.135a2.492,2.492,0,0,1-.752.438,3.307,3.307,0,0,1-1.3.232,3.472,3.472,0,0,1-1.846-.492,3.571,3.571,0,0,1-1.723-3.09,3.612,3.612,0,0,1,.458-1.791,3.529,3.529,0,0,1,1.265-1.312A3.472,3.472,0,0,1,17.486,12.027Zm9.939.137-3.172,2.98L27.6,19H26.182l-2.707-3.117-.971.9V19H21.383V9.156H22.5V15.5l3.4-3.336Zm3.814-.137a3.236,3.236,0,0,1,1.75.438,2.731,2.731,0,0,1,1.046,1.189,3.984,3.984,0,0,1,.349,1.7v.67h-5.25a2.55,2.55,0,0,0,.4,1.053,2.3,2.3,0,0,0,.82.759,2.358,2.358,0,0,0,1.162.28,2.688,2.688,0,0,0,1.381-.376,5.032,5.032,0,0,0,1.08-.827l-.014,1.217a2.655,2.655,0,0,1-.567.485,3.791,3.791,0,0,1-.861.424,3.044,3.044,0,0,1-1.019.171,3.472,3.472,0,0,1-1.846-.492,3.571,3.571,0,0,1-1.723-3.09,3.844,3.844,0,0,1,.424-1.791,3.428,3.428,0,0,1,1.169-1.312A3.018,3.018,0,0,1,31.24,12.027Zm0,1.094a1.853,1.853,0,0,0-1.395.567,2.544,2.544,0,0,0-.684,1.374h4.115a2.213,2.213,0,0,0-.376-1.094,1.984,1.984,0,0,0-.745-.636A2.076,2.076,0,0,0,31.24,13.121Zm6.111-.957v1.367a3.513,3.513,0,0,1,.957-1.094,1.926,1.926,0,0,1,1.148-.41,1.766,1.766,0,0,1,.711.137v1.3a1.7,1.7,0,0,0-.875-.26,1.427,1.427,0,0,0-1.128.492,6.9,6.9,0,0,0-.813,1.176V19H36.23V12.164Z" transform="translate(3877 3736)" fill="#2a2a2a"/>
          <g id="Rectangle_6382-2" data-name="Rectangle 6382" transform="translate(3832 3711)" fill="none" stroke="#e6e6e6" stroke-width="1">
            <rect width="158" height="59" rx="5" stroke="none"/>
            <rect x="0.5" y="0.5" width="157" height="58" rx="4.5" fill="none"/>
          </g>
          <g id="Group_19121" data-name="Group 19121" transform="translate(3844.951 3730.049)">
            <path id="Path_24778-2" data-name="Path 24778" d="M6.8,5.18a.8.8,0,0,1-.8-.8V2.8a.8.8,0,0,1,1.59,0v1.59a.8.8,0,0,1-.794.8Zm7.951,0a.8.8,0,0,1-.8-.8V2.8a.8.8,0,1,1,1.59,0v1.59a.8.8,0,0,1-.794.8Z" transform="translate(-0.82)" fill="#85e6c4"/>
            <path id="Path_24779-2" data-name="Path 24779" d="M15.517,4h-.8v.8a.8.8,0,0,1-1.59,0V4H6.771v.8a.8.8,0,1,1-1.59,0V4h-.8A2.385,2.385,0,0,0,2,6.385v1.59H17.9V6.385A2.385,2.385,0,0,0,15.517,4Z" transform="translate(0 -0.41)" fill="#6d44e5"/>
            <circle id="Ellipse_6074-2" data-name="Ellipse 6074" cx="1" cy="1" r="1" transform="translate(5 9.902)" fill="#6d44e5"/>
            <circle id="Ellipse_6075-2" data-name="Ellipse 6075" cx="1" cy="1" r="1" transform="translate(5 12.902)" fill="#6d44e5"/>
            <circle id="Ellipse_6076-2" data-name="Ellipse 6076" cx="1" cy="1" r="1" transform="translate(9 9.902)" fill="#6d44e5"/>
            <circle id="Ellipse_6077-2" data-name="Ellipse 6077" cx="1" cy="1" r="1" transform="translate(9 12.902)" fill="#6d44e5"/>
            <circle id="Ellipse_6078-2" data-name="Ellipse 6078" cx="1" cy="1" r="1" transform="translate(13 9.902)" fill="#6d44e5"/>
            <circle id="Ellipse_6079-2" data-name="Ellipse 6079" cx="1" cy="1" r="1" transform="translate(13 12.902)" fill="#6d44e5"/>
            <path id="Path_24780-2" data-name="Path 24780" d="M2,9v7.951a2.385,2.385,0,0,0,2.385,2.385H15.517A2.385,2.385,0,0,0,17.9,16.951V9Zm3.976,7.156a.8.8,0,1,1,.8-.8A.8.8,0,0,1,5.976,16.156Zm0-3.18a.8.8,0,1,1,.8-.8A.8.8,0,0,1,5.976,12.976Zm3.976,3.18a.8.8,0,1,1,.8-.8A.8.8,0,0,1,9.951,16.156Zm0-3.18a.8.8,0,1,1,.8-.8A.8.8,0,0,1,9.951,12.976Zm3.976,3.18a.8.8,0,1,1,.8-.8A.8.8,0,0,1,13.927,16.156Zm0-3.18a.8.8,0,1,1,.8-.8A.8.8,0,0,1,13.927,12.976Z" transform="translate(0 -1.434)" fill="#85e6c4"/>
            <g id="Rectangle_6586" data-name="Rectangle 6586" transform="translate(4.049 8.951)" fill="#fff" stroke="#fff" stroke-width="0.2">
              <rect width="12" height="3" rx="1.5" stroke="none"/>
              <rect x="0.1" y="0.1" width="11.8" height="2.8" rx="1.4" fill="none"/>
            </g>
          </g>
        </g>
      </g>
      <g id="Group_19118" data-name="Group 19118">
        <g transform="matrix(1, 0, 0, 1, 3775, 3574)" filter="url(#Rectangle_6377)">
          <rect id="Rectangle_6377-2" data-name="Rectangle 6377" width="180" height="217" rx="10" transform="translate(45 45)" fill="#fff"/>
        </g>
        <g id="Group_19100" data-name="Group 19100" transform="translate(0 -3)">
          <path id="Path_31289" data-name="Path 31289" d="M7.957-9.16V-8H4.8V-.041H3.568V-8H.41V-9.16Zm4.375,2.188a3.236,3.236,0,0,1,1.75.438,2.731,2.731,0,0,1,1.046,1.189,3.984,3.984,0,0,1,.349,1.7v.67h-5.25a2.55,2.55,0,0,0,.4,1.053,2.3,2.3,0,0,0,.82.759,2.358,2.358,0,0,0,1.162.28,2.688,2.688,0,0,0,1.381-.376,5.032,5.032,0,0,0,1.08-.827L15.053-.875a2.655,2.655,0,0,1-.567.485,3.791,3.791,0,0,1-.861.424,3.044,3.044,0,0,1-1.019.171A3.472,3.472,0,0,1,10.76-.287,3.545,3.545,0,0,1,9.5-1.593a3.575,3.575,0,0,1-.458-1.784,3.844,3.844,0,0,1,.424-1.791A3.428,3.428,0,0,1,10.63-6.48,3.018,3.018,0,0,1,12.332-6.973Zm0,1.094a1.853,1.853,0,0,0-1.395.567,2.544,2.544,0,0,0-.684,1.374h4.115a2.213,2.213,0,0,0-.376-1.094,1.984,1.984,0,0,0-.745-.636A2.076,2.076,0,0,0,12.332-5.879ZM23.2-6.836l-2.83,3.281L23.242,0H21.793L19.674-2.83,17.541,0H16.092l2.871-3.555-2.83-3.281h1.449l2.092,2.461,2.078-2.461ZM26.5-8.8v1.969h2v1.053h-2v4.006a.972.972,0,0,0,.219.67.851.851,0,0,0,.67.246,1.964,1.964,0,0,0,.684-.1,2.932,2.932,0,0,0,.479-.226v.916a2.459,2.459,0,0,1-.581.349,2.168,2.168,0,0,1-.827.13,1.629,1.629,0,0,1-1.319-.526,2.1,2.1,0,0,1-.444-1.4V-5.783H24.063v-.328A2.615,2.615,0,0,0,25.184-7.1a7.506,7.506,0,0,0,.793-1.7ZM40.141-4.936v1.162H36.2V0h-1.23V-9.16h5.988V-8H36.2v3.063Zm4.266-5.182a.878.878,0,0,1,.663.28.914.914,0,0,1,.267.649.922.922,0,0,1-.267.643.868.868,0,0,1-.663.287.868.868,0,0,1-.663-.287.922.922,0,0,1-.267-.643.914.914,0,0,1,.267-.649A.878.878,0,0,1,44.406-10.117Zm.7,3.281V0H43.982V-5.783H42.9V-6.836Zm5.236-.137a3.236,3.236,0,0,1,1.75.438,2.731,2.731,0,0,1,1.046,1.189,3.984,3.984,0,0,1,.349,1.7v.67h-5.25a2.55,2.55,0,0,0,.4,1.053,2.3,2.3,0,0,0,.82.759,2.358,2.358,0,0,0,1.162.28,2.688,2.688,0,0,0,1.381-.376,5.032,5.032,0,0,0,1.08-.827L53.061-.875a2.655,2.655,0,0,1-.567.485,3.791,3.791,0,0,1-.861.424,3.044,3.044,0,0,1-1.019.171,3.472,3.472,0,0,1-1.846-.492A3.545,3.545,0,0,1,47.5-1.593a3.575,3.575,0,0,1-.458-1.784,3.844,3.844,0,0,1,.424-1.791A3.428,3.428,0,0,1,48.638-6.48,3.018,3.018,0,0,1,50.34-6.973Zm0,1.094a1.853,1.853,0,0,0-1.395.567,2.544,2.544,0,0,0-.684,1.374h4.115A2.213,2.213,0,0,0,52-5.031a1.984,1.984,0,0,0-.745-.636A2.076,2.076,0,0,0,50.34-5.879Zm6.111-3.965V0H55.33V-9.844Zm8.5,0V0H63.834V-1.162a3.383,3.383,0,0,1-.964.957,2.425,2.425,0,0,1-1.388.41,3,3,0,0,1-1.6-.444,3.22,3.22,0,0,1-1.155-1.237A3.778,3.778,0,0,1,58.3-3.309a4.154,4.154,0,0,1,.431-1.955A3.111,3.111,0,0,1,59.91-6.528a3.243,3.243,0,0,1,1.682-.444,2.845,2.845,0,0,1,1.2.28,3.142,3.142,0,0,1,1.046.772V-9.844ZM61.8-5.852a2.144,2.144,0,0,0-1.258.362,2.413,2.413,0,0,0-.8.937,2.8,2.8,0,0,0-.28,1.244,2.7,2.7,0,0,0,.273,1.21,2.2,2.2,0,0,0,.772.882,2.055,2.055,0,0,0,1.155.328,1.975,1.975,0,0,0,1.121-.328,2.277,2.277,0,0,0,.779-.909,2.786,2.786,0,0,0,.273-1.306L63.82-4.744a3.368,3.368,0,0,0-.909-.82A2.147,2.147,0,0,0,61.8-5.852Z" transform="translate(3873 3684)" fill="#2a2a2a"/>
          <g id="Rectangle_6381-4" data-name="Rectangle 6381" transform="translate(3832 3659)" fill="none" stroke="#e6e6e6" stroke-width="1">
            <rect width="158" height="40" rx="5" stroke="none"/>
            <rect x="0.5" y="0.5" width="157" height="39" rx="4.5" fill="none"/>
          </g>
          <g id="Layer_2" data-name="Layer 2" transform="translate(3842.805 3666.009)">
            <path id="Path_24770" data-name="Path 24770" d="M7.049,10.6a2.154,2.154,0,0,1-.887-.6H3.443A1.447,1.447,0,0,0,2,11.443v5.77a1.447,1.447,0,0,0,1.443,1.443H6.162l.368-.329.52-.27Zm13.7-.6H12.264a2.154,2.154,0,0,1-.887.6v7.458a2.154,2.154,0,0,1,.887.6h8.489A1.447,1.447,0,0,0,22.2,17.213v-5.77A1.447,1.447,0,0,0,20.753,10Z" transform="translate(0 -0.836)" fill="#4c46c8"/>
            <path id="Path_24771" data-name="Path 24771" d="M12.606,18.54h-.721V8.443h.721a.721.721,0,1,0,0-1.443H9.721a.721.721,0,0,0,0,1.443h.721v10.1H9.721a.721.721,0,1,0,0,1.443h2.885a.721.721,0,1,0,0-1.443Z" transform="translate(-1.951)" fill="#85e6c4"/>
          </g>
        </g>
        <g id="Group_19101" data-name="Group 19101" transform="translate(0 -3)">
          <path id="Path_31288" data-name="Path 31288" d="M5.154-9.16A3.351,3.351,0,0,1,6.672-8.8a3.163,3.163,0,0,1,1.2,1.039,2.762,2.762,0,0,1,.472,1.62,2.651,2.651,0,0,1-.451,1.49,3.329,3.329,0,0,1-1.224,1.1,3.553,3.553,0,0,1-1.716.417,5.328,5.328,0,0,1-1.278-.144,5.357,5.357,0,0,1-.937-.308V0H1.5V-9.16ZM2.734-8V-4.7a6.037,6.037,0,0,0,.964.28,5.654,5.654,0,0,0,1.21.13,2.238,2.238,0,0,0,1.606-.54,1.737,1.737,0,0,0,.567-1.306,1.569,1.569,0,0,0-.321-1,2.115,2.115,0,0,0-.841-.636A2.75,2.75,0,0,0,4.813-8ZM13-6.973a2.845,2.845,0,0,1,1.2.28,3.142,3.142,0,0,1,1.046.772v-.916h1.121V0H15.244V-1.162a3.383,3.383,0,0,1-.964.957,2.425,2.425,0,0,1-1.388.41,3,3,0,0,1-1.6-.444,3.22,3.22,0,0,1-1.155-1.237,3.778,3.778,0,0,1-.431-1.832,4.154,4.154,0,0,1,.431-1.955A3.111,3.111,0,0,1,11.32-6.528,3.243,3.243,0,0,1,13-6.973Zm.205,1.094a2.115,2.115,0,0,0-1.258.369,2.454,2.454,0,0,0-.8.95,2.842,2.842,0,0,0-.28,1.251,2.7,2.7,0,0,0,.273,1.21,2.2,2.2,0,0,0,.772.882,2.055,2.055,0,0,0,1.155.328,1.975,1.975,0,0,0,1.121-.328,2.277,2.277,0,0,0,.779-.909,2.786,2.786,0,0,0,.273-1.306L15.23-4.744a3.6,3.6,0,0,0-.909-.834A2.071,2.071,0,0,0,13.207-5.879Zm7.52-1.094a3.567,3.567,0,0,1,1.121.171,2.657,2.657,0,0,1,.752.349v1.2a3.557,3.557,0,0,0-.779-.424,2.607,2.607,0,0,0-1.012-.205,1.365,1.365,0,0,0-.964.3.867.867,0,0,0-.321.629.923.923,0,0,0,.185.526,1.278,1.278,0,0,0,.649.431l1.148.41a2.038,2.038,0,0,1,1,.67,1.661,1.661,0,0,1,.328,1.025,1.849,1.849,0,0,1-.321,1.053,2.236,2.236,0,0,1-.889.759,2.911,2.911,0,0,1-1.306.28,3.57,3.57,0,0,1-.827-.1,4.973,4.973,0,0,1-.772-.246A3.2,3.2,0,0,1,18.211-.4V-1.6a3.958,3.958,0,0,0,.54.308A4.68,4.68,0,0,0,19.5-1a2.635,2.635,0,0,0,.738.116,1.639,1.639,0,0,0,1.019-.287.865.865,0,0,0,.376-.711.617.617,0,0,0-.253-.52,2.921,2.921,0,0,0-.731-.369l-1.012-.369A1.94,1.94,0,0,1,18.58-3.9a2.083,2.083,0,0,1-.26-1.046A1.843,1.843,0,0,1,18.977-6.4,2.563,2.563,0,0,1,20.727-6.973Zm5.852,0A3.567,3.567,0,0,1,27.7-6.8a2.657,2.657,0,0,1,.752.349v1.2a3.557,3.557,0,0,0-.779-.424,2.607,2.607,0,0,0-1.012-.205,1.365,1.365,0,0,0-.964.3.867.867,0,0,0-.321.629.923.923,0,0,0,.185.526,1.278,1.278,0,0,0,.649.431l1.148.41a2.038,2.038,0,0,1,1,.67,1.661,1.661,0,0,1,.328,1.025,1.849,1.849,0,0,1-.321,1.053,2.236,2.236,0,0,1-.889.759,2.911,2.911,0,0,1-1.306.28,3.57,3.57,0,0,1-.827-.1,4.973,4.973,0,0,1-.772-.246A3.2,3.2,0,0,1,24.063-.4V-1.6a3.958,3.958,0,0,0,.54.308A4.68,4.68,0,0,0,25.348-1a2.635,2.635,0,0,0,.738.116A1.639,1.639,0,0,0,27.1-1.176a.865.865,0,0,0,.376-.711.617.617,0,0,0-.253-.52,2.921,2.921,0,0,0-.731-.369l-1.012-.369A1.94,1.94,0,0,1,24.432-3.9a2.083,2.083,0,0,1-.26-1.046A1.843,1.843,0,0,1,24.828-6.4,2.563,2.563,0,0,1,26.578-6.973Zm12.783.137L36.969,0h-.7L34.4-4.826,32.525,0h-.7L29.436-6.836h1.34l1.518,4.8,1.791-4.8h.629l1.791,4.8,1.518-4.8Zm4.457-.137a3.472,3.472,0,0,1,1.846.492,3.529,3.529,0,0,1,1.265,1.313,3.612,3.612,0,0,1,.458,1.791,3.575,3.575,0,0,1-.458,1.784A3.545,3.545,0,0,1,45.664-.287a3.472,3.472,0,0,1-1.846.492,3.472,3.472,0,0,1-1.846-.492,3.545,3.545,0,0,1-1.265-1.306,3.575,3.575,0,0,1-.458-1.784,3.612,3.612,0,0,1,.458-1.791A3.529,3.529,0,0,1,41.973-6.48,3.472,3.472,0,0,1,43.818-6.973Zm0,1.094a2.314,2.314,0,0,0-1.271.349,2.354,2.354,0,0,0-.841.916,2.65,2.65,0,0,0-.294,1.237,2.621,2.621,0,0,0,.294,1.224,2.354,2.354,0,0,0,.841.916,2.314,2.314,0,0,0,1.271.349A2.3,2.3,0,0,0,45.1-1.237a2.372,2.372,0,0,0,.834-.916,2.621,2.621,0,0,0,.294-1.224,2.65,2.65,0,0,0-.294-1.237A2.372,2.372,0,0,0,45.1-5.53,2.3,2.3,0,0,0,43.818-5.879Zm6.535-.957v1.367a3.513,3.513,0,0,1,.957-1.094,1.926,1.926,0,0,1,1.148-.41,1.766,1.766,0,0,1,.711.137v1.3a1.7,1.7,0,0,0-.875-.26,1.427,1.427,0,0,0-1.128.492,6.9,6.9,0,0,0-.813,1.176V0H49.232V-6.836ZM60.785-9.844V0H59.664V-1.162a3.383,3.383,0,0,1-.964.957,2.425,2.425,0,0,1-1.388.41,3,3,0,0,1-1.6-.444,3.22,3.22,0,0,1-1.155-1.237,3.778,3.778,0,0,1-.431-1.832,4.154,4.154,0,0,1,.431-1.955A3.111,3.111,0,0,1,55.74-6.528a3.243,3.243,0,0,1,1.682-.444,2.845,2.845,0,0,1,1.2.28,3.142,3.142,0,0,1,1.046.772V-9.844ZM57.627-5.852a2.144,2.144,0,0,0-1.258.362,2.413,2.413,0,0,0-.8.937,2.8,2.8,0,0,0-.28,1.244,2.7,2.7,0,0,0,.273,1.21,2.2,2.2,0,0,0,.772.882,2.055,2.055,0,0,0,1.155.328,1.975,1.975,0,0,0,1.121-.328,2.277,2.277,0,0,0,.779-.909,2.786,2.786,0,0,0,.273-1.306L59.65-4.744a3.368,3.368,0,0,0-.909-.82A2.147,2.147,0,0,0,57.627-5.852Zm15.094.916v1.162H68.783V0h-1.23V-9.16h5.988V-8H68.783v3.063Zm4.266-5.182a.878.878,0,0,1,.663.28.914.914,0,0,1,.267.649.922.922,0,0,1-.267.643.868.868,0,0,1-.663.287.868.868,0,0,1-.663-.287.922.922,0,0,1-.267-.643.914.914,0,0,1,.267-.649A.878.878,0,0,1,76.986-10.117Zm.7,3.281V0H76.563V-5.783h-1.08V-6.836Zm5.236-.137a3.236,3.236,0,0,1,1.75.438,2.731,2.731,0,0,1,1.046,1.189,3.984,3.984,0,0,1,.349,1.7v.67h-5.25a2.55,2.55,0,0,0,.4,1.053,2.3,2.3,0,0,0,.82.759,2.358,2.358,0,0,0,1.162.28,2.688,2.688,0,0,0,1.381-.376,5.032,5.032,0,0,0,1.08-.827L85.641-.875a2.655,2.655,0,0,1-.567.485,3.791,3.791,0,0,1-.861.424,3.044,3.044,0,0,1-1.019.171,3.472,3.472,0,0,1-1.846-.492,3.545,3.545,0,0,1-1.265-1.306,3.575,3.575,0,0,1-.458-1.784,3.844,3.844,0,0,1,.424-1.791A3.428,3.428,0,0,1,81.218-6.48,3.018,3.018,0,0,1,82.92-6.973Zm0,1.094a1.853,1.853,0,0,0-1.395.567,2.544,2.544,0,0,0-.684,1.374h4.115a2.213,2.213,0,0,0-.376-1.094,1.984,1.984,0,0,0-.745-.636A2.076,2.076,0,0,0,82.92-5.879Zm6.111-3.965V0H87.91V-9.844Zm8.5,0V0H96.414V-1.162a3.383,3.383,0,0,1-.964.957,2.425,2.425,0,0,1-1.388.41,3,3,0,0,1-1.6-.444,3.22,3.22,0,0,1-1.155-1.237,3.778,3.778,0,0,1-.431-1.832,4.154,4.154,0,0,1,.431-1.955A3.111,3.111,0,0,1,92.49-6.528a3.243,3.243,0,0,1,1.682-.444,2.845,2.845,0,0,1,1.2.28,3.142,3.142,0,0,1,1.046.772V-9.844ZM94.377-5.852a2.144,2.144,0,0,0-1.258.362,2.413,2.413,0,0,0-.8.937,2.8,2.8,0,0,0-.28,1.244,2.7,2.7,0,0,0,.273,1.21,2.2,2.2,0,0,0,.772.882,2.055,2.055,0,0,0,1.155.328,1.975,1.975,0,0,0,1.121-.328,2.277,2.277,0,0,0,.779-.909,2.786,2.786,0,0,0,.273-1.306L96.4-4.744a3.368,3.368,0,0,0-.909-.82A2.147,2.147,0,0,0,94.377-5.852Z" transform="translate(3873 3736)" fill="#2a2a2a"/>
          <g id="Rectangle_6382-3" data-name="Rectangle 6382" transform="translate(3832 3711)" fill="none" stroke="#e6e6e6" stroke-width="1">
            <rect width="158" height="40" rx="5" stroke="none"/>
            <rect x="0.5" y="0.5" width="157" height="39" rx="4.5" fill="none"/>
          </g>
          <g id="Group_19097" data-name="Group 19097" transform="translate(3824.555 3557.269)">
            <rect id="Rectangle_6578" data-name="Rectangle 6578" width="21.555" height="7.997" rx="2.5" transform="translate(20.46 169.732)" fill="#6d44e5"/>
            <path id="Path_24772" data-name="Path 24772" d="M39.389,177.729H22.877A2.629,2.629,0,0,1,20.25,175.1v-2.741a2.629,2.629,0,0,1,2.627-2.626H39.389a2.629,2.629,0,0,1,2.627,2.626V175.1A2.629,2.629,0,0,1,39.389,177.729Zm-16.512-7.417a2.054,2.054,0,0,0-2.052,2.051V175.1a2.054,2.054,0,0,0,2.052,2.051H39.389a2.054,2.054,0,0,0,2.052-2.051v-2.741a2.054,2.054,0,0,0-2.052-2.051Z" transform="translate(0 0)" fill="#85e6c4"/>
            <path id="Path_24773" data-name="Path 24773" d="M71.788,222.4a.287.287,0,0,1-.233-.118l-.7-.967-.707.968a.287.287,0,0,1-.464-.339l.706-.967-1.142-.373a.287.287,0,0,1,.178-.546l1.141.373,0-1.2a.287.287,0,0,1,.287-.288h0a.287.287,0,0,1,.287.287l0,1.2,1.139-.373a.287.287,0,0,1,.179.546l-1.14.373.7.967a.287.287,0,0,1-.232.456Zm4.284,0a.287.287,0,0,1-.232-.118l-.705-.968-.707.968a.287.287,0,0,1-.464-.339l.706-.967-1.141-.373a.287.287,0,1,1,.178-.546l1.14.373,0-1.2a.287.287,0,0,1,.287-.288h0a.287.287,0,0,1,.287.287l0,1.2,1.139-.373a.287.287,0,0,1,.179.546l-1.14.373.7.967a.287.287,0,0,1-.232.456Zm2.407,0a.287.287,0,0,1-.232-.456l.7-.967-1.142-.373a.287.287,0,1,1,.178-.546l1.141.373v-1.2a.287.287,0,0,1,.574,0v1.2l1.139-.373a.287.287,0,0,1,.179.546l-1.14.373.7.967a.287.287,0,1,1-.464.338l-.705-.968-.7.968A.287.287,0,0,1,78.478,222.4Zm8.062.68H83.69a.6.6,0,0,1-.6-.6v-2.065a.6.6,0,0,1,.6-.6h2.85a.6.6,0,0,1,.6.6v2.065A.6.6,0,0,1,86.54,223.081Zm-2.85-2.686a.025.025,0,0,0-.024.023v2.065a.024.024,0,0,0,.024.023h2.85a.024.024,0,0,0,.024-.023v-2.065a.025.025,0,0,0-.024-.023Z" transform="translate(-46.549 -46.938)" fill="#fff"/>
            <path id="Path_24774" data-name="Path 24774" d="M390.661,193.932h-2.155a.287.287,0,0,1-.287-.287v-1.078a1.364,1.364,0,1,1,2.729,0v1.078A.287.287,0,0,1,390.661,193.932Zm-1.867-.574h1.58v-.791a.79.79,0,1,0-1.58,0Zm.791,1.867a.5.5,0,1,1,.5-.5A.5.5,0,0,1,389.585,195.225Zm0-.575a.073.073,0,0,0-.074.072.074.074,0,0,0,.074.074.073.073,0,0,0,0-.147Z" transform="translate(-351.018 -20.476)" fill="#fff"/>
            <path id="Path_24775" data-name="Path 24775" d="M411.92,268.242a.287.287,0,0,1-.287-.287v-.513a.287.287,0,1,1,.574,0v.513A.287.287,0,0,1,411.92,268.242Z" transform="translate(-373.353 -92.93)" fill="#fff"/>
          </g>
        </g>
        <g id="Group_19102" data-name="Group 19102" transform="translate(0 -3)">
          <path id="Path_31286" data-name="Path 31286" d="M9.146-9.16V0H8.682L2.734-6.549V0H1.5V-9.16h.465L7.916-2.529V-9.16ZM17.4-6.836v4.047a3.04,3.04,0,0,1-.383,1.559A2.639,2.639,0,0,1,15.982-.219a3.05,3.05,0,0,1-1.477.355,3.05,3.05,0,0,1-1.477-.355A2.639,2.639,0,0,1,11.99-1.23a3.04,3.04,0,0,1-.383-1.559V-6.836H12.77v4.047a1.732,1.732,0,0,0,.526,1.36,1.76,1.76,0,0,0,1.21.472,1.76,1.76,0,0,0,1.21-.472,1.732,1.732,0,0,0,.526-1.36V-6.836Zm3.24,0v.875a3.849,3.849,0,0,1,.841-.69,2.231,2.231,0,0,1,1.21-.321,2.851,2.851,0,0,1,1.381.349,2.309,2.309,0,0,1,.984,1.046A5.856,5.856,0,0,1,26.1-6.562a2.163,2.163,0,0,1,1.313-.41,2.853,2.853,0,0,1,1.306.308,2.409,2.409,0,0,1,.984.93,2.983,2.983,0,0,1,.376,1.565V0H28.957l-.014-4.061a1.85,1.85,0,0,0-.458-1.354,1.7,1.7,0,0,0-1.265-.465A1.541,1.541,0,0,0,26.2-5.51a6.257,6.257,0,0,0-.834.861V0H24.24l-.014-4.061a1.85,1.85,0,0,0-.458-1.354A1.7,1.7,0,0,0,22.5-5.879a1.709,1.709,0,0,0-1.019.328,4.439,4.439,0,0,0-.841.793V0H19.523V-6.836Zm14.916-.137a3.233,3.233,0,0,1,1.688.444,3.126,3.126,0,0,1,1.176,1.265,4.154,4.154,0,0,1,.431,1.955,3.778,3.778,0,0,1-.431,1.832A3.238,3.238,0,0,1,37.276-.239,2.99,2.99,0,0,1,35.67.205a2.425,2.425,0,0,1-1.388-.41,3.383,3.383,0,0,1-.964-.957V0H32.2V-9.844h1.121V-5.92a3.142,3.142,0,0,1,1.046-.772A2.845,2.845,0,0,1,35.561-6.973Zm-.205,1.107a2.073,2.073,0,0,0-1.107.294,3.73,3.73,0,0,0-.916.827l-.014,1.313a2.923,2.923,0,0,0,.28,1.3,2.218,2.218,0,0,0,.779.9A1.984,1.984,0,0,0,35.492-.9a2.046,2.046,0,0,0,1.162-.328,2.228,2.228,0,0,0,.766-.875,2.652,2.652,0,0,0,.273-1.2,2.842,2.842,0,0,0-.28-1.251,2.4,2.4,0,0,0-.8-.943A2.144,2.144,0,0,0,35.355-5.865Zm8.162-1.107a3.236,3.236,0,0,1,1.75.438,2.731,2.731,0,0,1,1.046,1.189,3.984,3.984,0,0,1,.349,1.7v.67h-5.25a2.55,2.55,0,0,0,.4,1.053,2.3,2.3,0,0,0,.82.759,2.358,2.358,0,0,0,1.162.28,2.688,2.688,0,0,0,1.381-.376,5.032,5.032,0,0,0,1.08-.827L46.238-.875a2.655,2.655,0,0,1-.567.485,3.791,3.791,0,0,1-.861.424,3.044,3.044,0,0,1-1.019.171,3.472,3.472,0,0,1-1.846-.492,3.545,3.545,0,0,1-1.265-1.306,3.575,3.575,0,0,1-.458-1.784,3.844,3.844,0,0,1,.424-1.791A3.428,3.428,0,0,1,41.815-6.48,3.018,3.018,0,0,1,43.518-6.973Zm0,1.094a1.853,1.853,0,0,0-1.395.567,2.544,2.544,0,0,0-.684,1.374h4.115a2.213,2.213,0,0,0-.376-1.094,1.984,1.984,0,0,0-.745-.636A2.076,2.076,0,0,0,43.518-5.879Zm6.111-.957v1.367a3.513,3.513,0,0,1,.957-1.094,1.926,1.926,0,0,1,1.148-.41,1.766,1.766,0,0,1,.711.137v1.3a1.7,1.7,0,0,0-.875-.26,1.427,1.427,0,0,0-1.128.492,6.9,6.9,0,0,0-.813,1.176V0H48.508V-6.836Zm13.863,1.9v1.162H59.555V0h-1.23V-9.16h5.988V-8H59.555v3.063Zm4.266-5.182a.878.878,0,0,1,.663.28.914.914,0,0,1,.267.649.922.922,0,0,1-.267.643.868.868,0,0,1-.663.287.868.868,0,0,1-.663-.287.922.922,0,0,1-.267-.643.914.914,0,0,1,.267-.649A.878.878,0,0,1,67.758-10.117Zm.7,3.281V0H67.334V-5.783h-1.08V-6.836Zm5.236-.137a3.236,3.236,0,0,1,1.75.438,2.731,2.731,0,0,1,1.046,1.189,3.984,3.984,0,0,1,.349,1.7v.67h-5.25a2.55,2.55,0,0,0,.4,1.053,2.3,2.3,0,0,0,.82.759,2.358,2.358,0,0,0,1.162.28,2.688,2.688,0,0,0,1.381-.376,5.032,5.032,0,0,0,1.08-.827L76.412-.875a2.655,2.655,0,0,1-.567.485,3.791,3.791,0,0,1-.861.424,3.044,3.044,0,0,1-1.019.171,3.472,3.472,0,0,1-1.846-.492,3.545,3.545,0,0,1-1.265-1.306A3.575,3.575,0,0,1,70.4-3.377a3.844,3.844,0,0,1,.424-1.791A3.428,3.428,0,0,1,71.989-6.48,3.018,3.018,0,0,1,73.691-6.973Zm0,1.094a1.853,1.853,0,0,0-1.395.567,2.544,2.544,0,0,0-.684,1.374h4.115a2.213,2.213,0,0,0-.376-1.094,1.984,1.984,0,0,0-.745-.636A2.076,2.076,0,0,0,73.691-5.879ZM79.8-9.844V0H78.682V-9.844Zm8.5,0V0H87.186V-1.162a3.383,3.383,0,0,1-.964.957,2.425,2.425,0,0,1-1.388.41,3,3,0,0,1-1.6-.444,3.22,3.22,0,0,1-1.155-1.237,3.778,3.778,0,0,1-.431-1.832,4.154,4.154,0,0,1,.431-1.955,3.111,3.111,0,0,1,1.183-1.265,3.243,3.243,0,0,1,1.682-.444,2.845,2.845,0,0,1,1.2.28,3.142,3.142,0,0,1,1.046.772V-9.844ZM85.148-5.852a2.144,2.144,0,0,0-1.258.362,2.413,2.413,0,0,0-.8.937,2.8,2.8,0,0,0-.28,1.244,2.7,2.7,0,0,0,.273,1.21,2.2,2.2,0,0,0,.772.882,2.055,2.055,0,0,0,1.155.328,1.975,1.975,0,0,0,1.121-.328,2.277,2.277,0,0,0,.779-.909,2.786,2.786,0,0,0,.273-1.306l-.014-1.312a3.368,3.368,0,0,0-.909-.82A2.147,2.147,0,0,0,85.148-5.852Z" transform="translate(3873 3788)" fill="#2a2a2a"/>
          <g id="Path_31287" data-name="Path 31287" transform="translate(3832 3763)" fill="none">
            <path d="M5,0H153a5,5,0,0,1,5,5V35a5,5,0,0,1-5,5H5a5,5,0,0,1-5-5V5A5,5,0,0,1,5,0Z" stroke="none"/>
            <path d="M 5 1 C 2.794403076171875 1 1 2.794399261474609 1 5 L 1 35 C 1 37.20560073852539 2.794403076171875 39 5 39 L 153 39 C 155.2055969238281 39 157 37.20560073852539 157 35 L 157 5 C 157 2.794399261474609 155.2055969238281 1 153 1 L 5 1 M 5 0 L 153 0 C 155.7614135742188 0 158 2.238578796386719 158 5 L 158 35 C 158 37.76142120361328 155.7614135742188 40 153 40 L 5 40 C 2.238555908203125 40 0 37.76142120361328 0 35 L 0 5 C 0 2.238578796386719 2.238555908203125 0 5 0 Z" stroke="none" fill="#e6e6e6"/>
          </g>
          <g id="Group_19099" data-name="Group 19099">
            <g id="Rectangle_6580" data-name="Rectangle 6580" transform="translate(3845 3775)" fill="#6d44e5" stroke="#85e6c4" stroke-width="1">
              <rect width="20" height="15" rx="5" stroke="none"/>
              <rect x="0.5" y="0.5" width="19" height="14" rx="4.5" fill="none"/>
            </g>
            <g id="Group_19098" data-name="Group 19098" transform="translate(3848 3776.234)">
              <rect id="Rectangle_6579" data-name="Rectangle 6579" width="13" height="13" transform="translate(0 -0.234)" fill="none"/>
              <line id="Line_123" data-name="Line 123" x2="5" transform="translate(5 5.766)" stroke="#fff" stroke-linecap="round" stroke-linejoin="round" stroke-width="1"/>
              <line id="Line_124" data-name="Line 124" x2="5" transform="translate(5 3.766)" stroke="#fff" stroke-linecap="round" stroke-linejoin="round" stroke-width="1"/>
              <line id="Line_125" data-name="Line 125" x2="5" transform="translate(5 9.766)" stroke="#fff" stroke-linecap="round" stroke-linejoin="round" stroke-width="1"/>
              <path id="Path_24776" data-name="Path 24776" d="M40,52.392,40.784,52v2.745" transform="translate(-38.039 -49.384)" fill="none" stroke="#fff" stroke-linecap="round" stroke-linejoin="round" stroke-width="1"/>
              <path id="Path_24777" data-name="Path 24777" d="M40.054,144.419a.686.686,0,1,1,1.2.651L40,146.745h1.373" transform="translate(-38.039 -136.873)" fill="none" stroke="#fff" stroke-linecap="round" stroke-linejoin="round" stroke-width="1"/>
            </g>
          </g>
        </g>
      </g>
    </g>
  </g>
</svg>
