<svg xmlns="http://www.w3.org/2000/svg" width="25.61" height="30.267" viewBox="0 0 25.61 30.267">
  <g id="Group_8672" data-name="Group 8672" transform="translate(-48.238 0)">
    <path id="Path_78" data-name="Path 78" d="M142.874,725.365a1.808,1.808,0,0,0-1.328.546,1.785,1.785,0,0,0-.546,1.31v7.821a1.863,1.863,0,0,0,1.874,1.874,1.78,1.78,0,0,0,1.318-.546,1.824,1.824,0,0,0,.536-1.328v-7.821a1.863,1.863,0,0,0-1.855-1.856Z" transform="translate(-92.762 -715.562)" fill="#2a2a2a"/>
    <path id="Path_79" data-name="Path 79" d="M158.185,717.783l1.291-2.383a.239.239,0,0,0-.091-.363.252.252,0,0,0-.364.109l-1.309,2.4a9.118,9.118,0,0,0-7.312,0l-1.31-2.4a.251.251,0,0,0-.363-.109.239.239,0,0,0-.091.363l1.291,2.383a7.972,7.972,0,0,0-3.128,2.792,7.05,7.05,0,0,0-1.164,3.921H162.46a7.06,7.06,0,0,0-1.164-3.921A8.012,8.012,0,0,0,158.185,717.783Zm-7.467,3.466a.68.68,0,0,1-.5.209.651.651,0,0,1-.491-.209.727.727,0,0,1,0-1,.654.654,0,0,1,.491-.209.707.707,0,0,1,.5,1.21Zm7.667,0a.652.652,0,0,1-.491.209.709.709,0,0,1,0-1.419.654.654,0,0,1,.491.209.727.727,0,0,1,0,1Z" transform="translate(-93.013 -715)" fill="#2a2a2a"/>
    <path id="Path_80" data-name="Path 80" d="M145.712,737.844a1.986,1.986,0,0,0,2,2h1.346l.019,4.13a1.807,1.807,0,0,0,.545,1.328,1.787,1.787,0,0,0,1.31.546,1.863,1.863,0,0,0,1.874-1.874v-4.129h2.509v4.129a1.873,1.873,0,1,0,3.746,0v-4.129h1.365a1.986,1.986,0,0,0,1.982-2V725.73h-16.7Z" transform="translate(-93.018 -715.581)" fill="#2a2a2a"/>
    <path id="Path_81" data-name="Path 81" d="M165.99,725.365a1.8,1.8,0,0,0-1.309.537,1.776,1.776,0,0,0-.546,1.319v7.821a1.806,1.806,0,0,0,.546,1.328,1.787,1.787,0,0,0,1.309.546,1.863,1.863,0,0,0,1.874-1.874v-7.821a1.776,1.776,0,0,0-.546-1.319A1.826,1.826,0,0,0,165.99,725.365Z" transform="translate(-94.015 -715.562)" fill="#2a2a2a"/>
  </g>
</svg>
