<svg width="40" height="40" viewBox="0 0 40 40" fill="none" xmlns="http://www.w3.org/2000/svg">
<g clip-path="url(#clip0)">
<path d="M38.4456 15.354H1.1399C0.838966 15.3585 0.551613 15.48 0.338799 15.6928C0.125986 15.9056 0.00445896 16.193 0 16.4939V23.1088C0.0215862 23.3975 0.150632 23.6676 0.361663 23.8659C0.572694 24.0641 0.850377 24.176 1.1399 24.1796H2.98791V38.1692C2.9856 38.4103 3.03138 38.6494 3.12257 38.8725C3.21375 39.0957 3.34852 39.2984 3.51898 39.4689C3.68944 39.6393 3.89218 39.7741 4.11534 39.8653C4.3385 39.9565 4.57759 40.0022 4.81865 39.9999H34.7668C35.0079 40.0022 35.247 39.9565 35.4702 39.8653C35.6933 39.7741 35.896 39.6393 36.0665 39.4689C36.237 39.2984 36.3717 39.0957 36.4629 38.8725C36.5541 38.6494 36.5999 38.4103 36.5976 38.1692V24.1796H38.4456C38.7465 24.1751 39.0339 24.0536 39.2467 23.8408C39.4595 23.628 39.581 23.3406 39.5855 23.0397V16.4939C39.581 16.193 39.4595 15.9056 39.2467 15.6928C39.0339 15.48 38.7465 15.3585 38.4456 15.354V15.354Z" fill="url(#paint0_linear)"/>
<path d="M19.5163 17.7202C23.0169 17.7202 25.8548 14.8824 25.8548 11.3817C25.8548 7.88106 23.0169 5.04321 19.5163 5.04321C16.0156 5.04321 13.1777 7.88106 13.1777 11.3817C13.1777 14.8824 16.0156 17.7202 19.5163 17.7202Z" fill="#33EEB1"/>
<path d="M26.7012 -8.06314e-05C25.4621 -0.0018346 24.2497 0.36067 23.2149 1.04236C22.18 1.72406 21.3684 2.69488 20.8809 3.83412C21.0536 3.83412 21.2263 3.83412 21.399 3.83412C22.2314 3.83412 23.0556 3.99807 23.8246 4.31661C24.5937 4.63515 25.2924 5.10204 25.881 5.69062C26.4696 6.27921 26.9365 6.97796 27.255 7.74699C27.5736 8.51601 27.7375 9.34025 27.7375 10.1726C27.7357 11.0394 27.5595 11.897 27.2194 12.6942C28.9027 12.6255 30.4899 11.8909 31.6316 10.652C32.7733 9.41309 33.3762 7.77137 33.3075 6.088C33.2387 4.40463 32.5041 2.81751 31.2652 1.67577C30.0263 0.534031 28.3846 -0.0687896 26.7012 -8.06314e-05V-8.06314e-05Z" fill="#33EEB1"/>
<path d="M13.1777 18.7566H26.2693" stroke="white" stroke-linecap="round" stroke-linejoin="round"/>
<mask id="mask0" mask-type="alpha" maskUnits="userSpaceOnUse" x="0" y="15" width="40" height="25">
<path d="M38.4456 15.3538H1.1399C0.838966 15.3582 0.551613 15.4797 0.338799 15.6926C0.125986 15.9054 0.00445896 16.1927 0 16.4937V23.1085C0.0215862 23.3972 0.150632 23.6674 0.361663 23.8656C0.572694 24.0639 0.850377 24.1758 1.1399 24.1793H2.98791V38.169C2.9856 38.41 3.03138 38.6491 3.12257 38.8723C3.21375 39.0954 3.34852 39.2982 3.51898 39.4686C3.68944 39.6391 3.89218 39.7739 4.11534 39.865C4.3385 39.9562 4.57759 40.002 4.81865 39.9997H34.7668C35.0079 40.002 35.247 39.9562 35.4702 39.865C35.6933 39.7739 35.896 39.6391 36.0665 39.4686C36.237 39.2982 36.3717 39.0954 36.4629 38.8723C36.5541 38.6491 36.5999 38.41 36.5976 38.169V24.1793H38.4456C38.7465 24.1749 39.0339 24.0533 39.2467 23.8405C39.4595 23.6277 39.581 23.3404 39.5855 23.0394V16.4937C39.581 16.1927 39.4595 15.9054 39.2467 15.6926C39.0339 15.4797 38.7465 15.3582 38.4456 15.3538V15.3538Z" fill="url(#paint1_linear)"/>
</mask>
<g mask="url(#mask0)">
<path d="M2.28125 25.095H37.9117" stroke="white" stroke-linecap="round" stroke-linejoin="round"/>
</g>
</g>
<defs>
<linearGradient id="paint0_linear" x1="14.0242" y1="-5.7168" x2="26.3731" y2="50.5526" gradientUnits="userSpaceOnUse">
<stop stop-color="#FFF5E9"/>
<stop offset="0.6" stop-color="#7D95E6"/>
<stop offset="1" stop-color="#3F28DD"/>
</linearGradient>
<linearGradient id="paint1_linear" x1="14.0242" y1="-5.71705" x2="26.3731" y2="50.5524" gradientUnits="userSpaceOnUse">
<stop stop-color="#3F28DD"/>
<stop offset="0.71355" stop-color="#7D95E6"/>
<stop offset="1" stop-color="#FFF5E9"/>
</linearGradient>
<clipPath id="clip0">
<rect width="39.5855" height="40" fill="white"/>
</clipPath>
</defs>
</svg>
