<svg width="40" height="40" viewBox="0 0 40 40" fill="none" xmlns="http://www.w3.org/2000/svg">
<g clip-path="url(#clip0)">
<path d="M29.2913 19.9549V37.5983C29.2913 38.2353 29.0382 38.8462 28.5878 39.2966C28.1374 39.747 27.5265 40.0001 26.8895 40.0001H2.38382C2.06925 40.0001 1.7578 39.9378 1.4674 39.8169C1.17701 39.696 0.913424 39.5188 0.691835 39.2955C0.470246 39.0723 0.295038 38.8073 0.176311 38.516C0.0575838 38.2247 -0.00231465 37.9128 6.84108e-05 37.5983V8.30708C5.04932e-05 7.6732 0.250617 7.06501 0.697145 6.6151C1.14367 6.16519 1.74995 5.91004 2.38382 5.90527H21.9233" fill="url(#paint0_linear)"/>
<path d="M39.1156 5.90524C39.1157 5.60487 38.9989 5.31624 38.7899 5.1005C38.5809 4.88477 38.2962 4.75887 37.9959 4.74948C36.4672 4.57731 34.9897 4.09443 33.6544 3.33048C32.319 2.56653 31.154 1.53766 30.2307 0.307043C30.1563 0.213064 30.0616 0.137131 29.9537 0.0849309C29.8458 0.0327306 29.7275 0.00561523 29.6077 0.00561523C29.4878 0.00561523 29.3695 0.0327306 29.2616 0.0849309C29.1537 0.137131 29.059 0.213064 28.9847 0.307043C28.0543 1.52974 26.8841 2.54961 25.5457 3.30418C24.2074 4.05874 22.7291 4.53212 21.2014 4.69531C20.9043 4.70924 20.6241 4.83714 20.4189 5.05239C20.2138 5.26765 20.0995 5.5537 20.0998 5.85106C19.9914 9.4628 19.6122 13.4538 21.5264 16.5599C23.5197 19.4216 26.1145 21.813 29.1291 23.5666C29.2702 23.6629 29.4369 23.7144 29.6077 23.7144C29.7784 23.7144 29.9452 23.6629 30.0862 23.5666C33.1008 21.813 35.6956 19.4216 37.6889 16.5599C39.6393 13.4538 39.2239 9.51698 39.1156 5.90524Z" fill="#33EEB1"/>
<path d="M6.14062 22.9526H16.1632" stroke="white" stroke-width="2" stroke-linecap="round" stroke-linejoin="round"/>
<path d="M6.14062 31.6208H21.9239" stroke="white" stroke-width="2" stroke-linecap="round" stroke-linejoin="round"/>
<path d="M25.2812 12.3883L27.4844 14.9346C27.5469 14.9815 27.623 15.0068 27.7011 15.0068C27.7793 15.0068 27.8553 14.9815 27.9178 14.9346L33.9314 10.4019" stroke="white" stroke-width="1.5" stroke-linecap="round" stroke-linejoin="round"/>
</g>
<defs>
<linearGradient id="paint0_linear" x1="6.08585" y1="0.505725" x2="21.815" y2="52.8037" gradientUnits="userSpaceOnUse">
<stop stop-color="#FFF5E9"/>
<stop offset="0.6" stop-color="#7D95E6"/>
<stop offset="1" stop-color="#3F28DD"/>
</linearGradient>
<clipPath id="clip0">
<rect width="39.2235" height="40" fill="white"/>
</clipPath>
</defs>
</svg>
