<svg width="39" height="40" viewBox="0 0 39 40" fill="none" xmlns="http://www.w3.org/2000/svg">
<g clip-path="url(#clip0)">
<path d="M17.1682 20.8141V4.37159C17.1637 4.20965 17.127 4.05023 17.0602 3.90261C16.9934 3.755 16.898 3.62214 16.7794 3.51178C16.6608 3.40142 16.5214 3.31575 16.3694 3.25978C16.2174 3.2038 16.0557 3.17864 15.8939 3.18575C14.6897 3.25494 13.4997 3.48103 12.354 3.85831C8.60137 5.11737 5.38753 7.61355 3.239 10.938C1.23577 13.9603 0.116369 17.482 0.00692048 21.1063C-0.102528 24.7306 0.802327 28.3135 2.61953 31.4512C4.65244 34.5633 7.55395 37.0103 10.9644 38.489C14.3748 39.9677 18.1442 40.4131 21.8054 39.7698C32.301 38.2123 35.7346 29.0265 36.0886 22.0707C36.0958 21.9091 36.0699 21.7476 36.0125 21.5964C35.955 21.4451 35.8672 21.3072 35.7545 21.1912C35.6418 21.0751 35.5065 20.9834 35.3569 20.9216C35.2074 20.8597 35.0468 20.8292 34.885 20.8318L17.1682 20.8141Z" fill="url(#paint0_linear)"/>
<path d="M21.0977 8.79646C21.0977 6.47788 21.0977 4.1416 21.0977 1.82301C21.0977 0.247791 21.6286 -0.159288 23.1862 0.0531009C27.1415 0.519161 30.8271 2.29528 33.6561 5.0986C36.4851 7.90192 38.2947 11.5712 38.7968 15.5221C39.0623 17.292 38.6729 17.7876 37.0269 17.7876C32.372 17.7876 27.7171 17.7876 23.08 17.7876C21.7171 17.7876 21.1154 17.292 21.1508 15.9115C21.2039 13.5575 21.0977 11.1504 21.0977 8.79646Z" fill="#33EEB1"/>
<mask id="mask0" mask-type="alpha" maskUnits="userSpaceOnUse" x="-1" y="3" width="38" height="38">
<path d="M17.1663 20.8141V4.37159C17.1617 4.20965 17.125 4.05023 17.0582 3.90261C16.9915 3.755 16.896 3.62214 16.7774 3.51178C16.6588 3.40142 16.5195 3.31575 16.3674 3.25978C16.2154 3.2038 16.0538 3.17864 15.8919 3.18575C14.6877 3.25494 13.4977 3.48103 12.3521 3.85831C8.59941 5.11737 5.38557 7.61355 3.23705 10.938C1.23382 13.9603 0.114416 17.482 0.00496735 21.1063C-0.104481 24.7306 0.800373 28.3135 2.61758 31.4512C4.65049 34.5633 7.55199 37.0103 10.9624 38.489C14.3729 39.9677 18.1423 40.4131 21.8034 39.7698C32.299 38.2123 35.7326 29.0265 36.0866 22.0707C36.0939 21.9091 36.068 21.7476 36.0105 21.5964C35.9531 21.4451 35.8653 21.3072 35.7525 21.1912C35.6398 21.0751 35.5045 20.9834 35.355 20.9216C35.2054 20.8597 35.0448 20.8292 34.8831 20.8318L17.1663 20.8141Z" fill="url(#paint1_linear)"/>
</mask>
<g mask="url(#mask0)">
<path d="M5.24023 34.053L18.1429 20.1946" stroke="white" stroke-linecap="round" stroke-linejoin="round"/>
</g>
</g>
<defs>
<linearGradient id="paint0_linear" x1="7.78768" y1="-12.4249" x2="28.0001" y2="57.8406" gradientUnits="userSpaceOnUse">
<stop stop-color="#FFF5E9"/>
<stop offset="0.6" stop-color="#7D95E6"/>
<stop offset="1" stop-color="#3F28DD"/>
</linearGradient>
<linearGradient id="paint1_linear" x1="7.78572" y1="-12.4249" x2="27.9981" y2="57.8406" gradientUnits="userSpaceOnUse">
<stop stop-color="#FFF5E9"/>
<stop offset="0.6" stop-color="#7D95E6"/>
<stop offset="1" stop-color="#3F28DD"/>
</linearGradient>
<clipPath id="clip0">
<rect width="38.8673" height="40" fill="white"/>
</clipPath>
</defs>
</svg>
