<svg xmlns="http://www.w3.org/2000/svg" width="22.7" height="22.7" viewBox="0 0 22.7 22.7">
  <path id="Path_75" data-name="Path 75" d="M159.018,603H139.676A1.657,1.657,0,0,0,138,604.635v19.427a1.658,1.658,0,0,0,1.676,1.638h19.342a1.662,1.662,0,0,0,1.682-1.638V604.635A1.661,1.661,0,0,0,159.018,603Zm-14.286,19.343h-3.368V611.511h3.368Zm-1.685-12.314a1.952,1.952,0,1,1,1.38-.572A1.95,1.95,0,0,1,143.048,610.029Zm14.294,12.314h-3.363v-5.267c0-1.257-.025-2.872-1.75-2.872-1.753,0-2.019,1.369-2.019,2.782v5.359h-3.365V611.511h3.23v1.479h.045a3.54,3.54,0,0,1,3.187-1.749c3.407,0,4.036,2.242,4.036,5.16v5.942Z" transform="translate(-138 -603)" fill="#2a2a2a"/>
</svg>
