<svg xmlns="http://www.w3.org/2000/svg" width="22.7" height="22.7" viewBox="0 0 22.7 22.7">
  <path id="Path_73" data-name="Path 73" d="M111.447,603H91.253A1.253,1.253,0,0,0,90,604.253v20.195a1.253,1.253,0,0,0,1.253,1.252h10.872v-8.791H99.166v-3.426h2.958v-2.526c0-2.932,1.79-4.529,4.407-4.529a24.031,24.031,0,0,1,2.644.135v3.064h-1.814c-1.423,0-1.7.676-1.7,1.668v2.187h3.392l-.442,3.426h-2.95V625.7h5.785a1.253,1.253,0,0,0,1.252-1.253V604.253A1.253,1.253,0,0,0,111.447,603Z" transform="translate(-90 -603)" fill="#2a2a2a"/>
</svg>
