<svg xmlns="http://www.w3.org/2000/svg" width="25.526" height="30.267" viewBox="0 0 25.526 30.267">
  <path id="Path_82" data-name="Path 82" d="M111.259,744.048c-1.642,1.594-3.453,1.345-5.179.594a6.567,6.567,0,0,0-5.453,0c-2.414,1.042-3.7.739-5.149-.594-8.209-8.45-7-21.324,2.332-21.808,2.262.121,3.847,1.25,5.179,1.345,1.982-.4,3.877-1.557,6-1.406a7.307,7.307,0,0,1,5.725,3.02,6.658,6.658,0,0,0,.814,11.994,17.031,17.031,0,0,1-4.27,6.876Zm-8.451-21.9a6.9,6.9,0,0,1,6.3-7.149C109.589,719.331,105.17,722.572,102.808,722.149Z" transform="translate(-90 -715)" fill="#2a2a2a"/>
</svg>
