<svg xmlns="http://www.w3.org/2000/svg" width="34.034" height="22.701" viewBox="0 0 34.034 22.701">
  <path id="Path_76" data-name="Path 76" d="M273.321,606.562a3.948,3.948,0,0,0-1.086-1.8,4.334,4.334,0,0,0-1.9-1.053c-2.662-.7-13.331-.7-13.331-.7a108.675,108.675,0,0,0-13.314.667,4.48,4.48,0,0,0-1.9,1.077,4.109,4.109,0,0,0-1.1,1.809,44.228,44.228,0,0,0,0,15.58,4.014,4.014,0,0,0,1.1,1.8,4.386,4.386,0,0,0,1.9,1.054c2.7.7,13.314.7,13.314.7a108.977,108.977,0,0,0,13.331-.667,4.324,4.324,0,0,0,1.9-1.052,3.952,3.952,0,0,0,1.085-1.8,40.322,40.322,0,0,0,.71-7.792,37.692,37.692,0,0,0-.709-7.822Zm-19.706,12.643V609.5l8.876,4.854Z" transform="translate(-240 -603)" fill="#2a2a2a"/>
</svg>
