<svg width="57" height="58" viewBox="0 0 57 58" fill="none" xmlns="http://www.w3.org/2000/svg">
<ellipse cx="28.5" cy="28.5504" rx="28.5" ry="28.5504" fill="#4E5FF9"/>
<path d="M38 27.0159C38 34.0283 29 40.0389 29 40.0389C29 40.0389 20 34.0283 20 27.0159C20 24.6248 20.9482 22.3315 22.636 20.6407C24.3239 18.9499 26.6131 18 29 18C31.3869 18 33.6761 18.9499 35.364 20.6407C37.0518 22.3315 38 24.6248 38 27.0159Z" stroke="white" stroke-width="2" stroke-linecap="round" stroke-linejoin="round"/>
<path d="M29 30.0212C30.6569 30.0212 32 28.6757 32 27.0159C32 25.3561 30.6569 24.0106 29 24.0106C27.3431 24.0106 26 25.3561 26 27.0159C26 28.6757 27.3431 30.0212 29 30.0212Z" stroke="white" stroke-width="2" stroke-linecap="round" stroke-linejoin="round"/>
</svg>
