<svg xmlns="http://www.w3.org/2000/svg" width="190.778" height="27.751" viewBox="0 0 190.778 27.751">
  <g id="Group_7952" data-name="Group 7952" transform="translate(-84.185 -7710.379)">
    <g id="Easebuzz_Logo_Unit_-_White_Text" data-name="Easebuzz Logo Unit - White Text" transform="translate(74.185 7705.379)">
      <path id="Path_1111" data-name="Path 1111" d="M425,39.048V13.9a1.506,1.506,0,0,1,1.5-1.5h17.156l-.02,4.532H430.795V23.4h11.152v4.443H430.755v6.61l13.08.02v4.572Z" transform="translate(-373.751 -6.664)" fill="#091b49"/>
      <path id="Path_1112" data-name="Path 1112" d="M634.311,104.889a6.964,6.964,0,0,1-4.572-1.511,5.271,5.271,0,0,1-1.839-4.314,5.441,5.441,0,0,1,2.316-4.751c1.561-1.093,4.016-1.66,7.385-1.7l2.366-.04V91.431a2.563,2.563,0,0,0-.775-2.008,3.232,3.232,0,0,0-2.356-.7,5.1,5.1,0,0,0-2.246.557,2.866,2.866,0,0,0-1.431,1.859h-4.453a5.343,5.343,0,0,1,2.485-4.572,10.846,10.846,0,0,1,5.894-1.471q4.368,0,6.192,1.62a5.551,5.551,0,0,1,1.839,4.4v13.4H640.2v-3.28a5.947,5.947,0,0,1-2.445,2.853A7.088,7.088,0,0,1,634.311,104.889Zm1.8-3.538a4.134,4.134,0,0,0,3.29-1.62,2.521,2.521,0,0,0,.567-1.57V95.338l-1.928.04a10.38,10.38,0,0,0-2.495.318,4.109,4.109,0,0,0-1.879.994,2.458,2.458,0,0,0-.7,1.839,2.538,2.538,0,0,0,.9,2.077A3.431,3.431,0,0,0,636.11,101.351Z" transform="translate(-556.484 -72.138)" fill="#091b49"/>
      <path id="Path_1113" data-name="Path 1113" d="M825.648,104.89a11.459,11.459,0,0,1-3.827-.646,7.68,7.68,0,0,1-3.1-2.067,6.785,6.785,0,0,1-1.62-3.668h4.652a2.9,2.9,0,0,0,1.541,2.117,5.764,5.764,0,0,0,4.8.089,1.606,1.606,0,0,0,.954-1.511,1.505,1.505,0,0,0-.567-1.232,4.1,4.1,0,0,0-1.839-.7l-3.34-.7a9.3,9.3,0,0,1-4.065-1.809,4.573,4.573,0,0,1-1.541-3.648,5.354,5.354,0,0,1,2.018-4.294,9.03,9.03,0,0,1,5.954-1.729,9.169,9.169,0,0,1,5.606,1.57,5.152,5.152,0,0,1,2.147,4.344h-4.483a2.518,2.518,0,0,0-1.1-1.7,3.819,3.819,0,0,0-2.226-.606,4.734,4.734,0,0,0-2.3.5,1.627,1.627,0,0,0-.9,1.511,1.334,1.334,0,0,0,.736,1.193,8.1,8.1,0,0,0,2.276.736l3.091.7a7.371,7.371,0,0,1,3.22,1.511,5.17,5.17,0,0,1,1.511,2.1,5.7,5.7,0,0,1,.408,1.948,5.1,5.1,0,0,1-2.226,4.423A9.768,9.768,0,0,1,825.648,104.89Z" transform="translate(-726.879 -72.139)" fill="#091b49"/>
      <path id="Path_1114" data-name="Path 1114" d="M1002.817,96.312a5.247,5.247,0,0,0,1.044,3.479,3.678,3.678,0,0,0,2.992,1.292,4.817,4.817,0,0,0,2.405-.586,3.14,3.14,0,0,0,1.451-1.938h4.831a6.51,6.51,0,0,1-1.62,3.469,8.516,8.516,0,0,1-3.121,2.2,9.865,9.865,0,0,1-3.817.755,10.085,10.085,0,0,1-4.96-1.183,8.422,8.422,0,0,1-3.33-3.369,10.5,10.5,0,0,1-1.193-5.119,11.774,11.774,0,0,1,1.083-5.139,8.593,8.593,0,0,1,3.141-3.628,10.07,10.07,0,0,1,9.85-.109,7.532,7.532,0,0,1,2.972,3.409,11.8,11.8,0,0,1,1.014,5.029v1.441Zm-.02-3.2h7.753a4.653,4.653,0,0,0-.954-2.952,3.429,3.429,0,0,0-2.882-1.213,3.625,3.625,0,0,0-2.127.606,3.981,3.981,0,0,0-1.322,1.57A4.3,4.3,0,0,0,1002.8,93.112Z" transform="translate(-889.348 -72.229)" fill="#091b49"/>
      <path id="Path_1115" data-name="Path 1115" d="M1208.476,32.751a6.778,6.778,0,0,1-3.1-.626,5.652,5.652,0,0,1-1.928-1.62,7.426,7.426,0,0,1-1.044-2.028v3.906h-4.5V5h4.334a1.054,1.054,0,0,1,1.054,1.054v9.86a5.61,5.61,0,0,1,2.167-2.077,7,7,0,0,1,3.548-.865,6.662,6.662,0,0,1,5.546,2.564c1.352,1.71,2.018,4.115,2.018,7.226a11.831,11.831,0,0,1-2.057,7.276A7.137,7.137,0,0,1,1208.476,32.751Zm-1.173-3.876a3.521,3.521,0,0,0,2.863-1.421c.775-.954,1.163-2.554,1.163-4.791a7.109,7.109,0,0,0-1.1-4.383,3.535,3.535,0,0,0-2.962-1.421q-3.951,0-3.986,5.8c0,2.246.328,3.847.994,4.791A3.422,3.422,0,0,0,1207.3,28.875Z" transform="translate(-1069.829)" fill="#091b49"/>
      <path id="Path_1116" data-name="Path 1116" d="M1409.236,108.222a8.613,8.613,0,0,1-3.419-.716,6.9,6.9,0,0,1-2.733-2.1A5.419,5.419,0,0,1,1402,101.98V88.8h5.367v12.494a2.92,2.92,0,0,0,.865,2.177,3.47,3.47,0,0,0,2.535.845,3.671,3.671,0,0,0,2.5-.815,2.918,2.918,0,0,0,.934-2.306V88.8h5.308v19.054h-4.672v-3.777a4.834,4.834,0,0,1-1.252,2.584,4.749,4.749,0,0,1-2.077,1.213A7.964,7.964,0,0,1,1409.236,108.222Z" transform="translate(-1253.643 -75.471)" fill="#091b49"/>
      <path id="Path_1117" data-name="Path 1117" d="M1595.9,107.854v-2.495a1.484,1.484,0,0,1,.308-.9l9.065-11.888h-8.9V88.8h15.4v3l-9.393,12.285h9.443v3.757H1595.9Z" transform="translate(-1428.27 -75.471)" fill="#091b49"/>
      <path id="Path_1118" data-name="Path 1118" d="M1769.2,107.854v-2.495a1.485,1.485,0,0,1,.308-.9l9.065-11.888h-8.9V88.8h15.4v3l-9.393,12.285h9.443v3.757H1769.2Z" transform="translate(-1584.345 -75.471)" fill="#091b49"/>
      <path id="Path_1119" data-name="Path 1119" d="M13.379,124.1H35.833l-2.525,4.592a3,3,0,0,1-2.634,1.561H10Z" transform="translate(0 -107.262)" fill="#85e6c4"/>
      <path id="Path_1120" data-name="Path 1120" d="M105.479,216.1h22.453l-2.525,4.592a3,3,0,0,1-2.634,1.56H102.1Z" transform="translate(-82.946 -190.118)" fill="#6d44e5"/>
      <path id="Path_1121" data-name="Path 1121" d="M105.479,32h22.453l-2.525,4.592a3,3,0,0,1-2.634,1.56H102.1Z" transform="translate(-82.946 -24.316)" fill="#517ce3"/>
    </g>
  </g>
</svg>
