<svg xmlns="http://www.w3.org/2000/svg" width="55.373" height="51.699" viewBox="0 0 55.373 51.699">
  <g id="Group_4858" data-name="Group 4858" transform="translate(-7561.344 -5603.599)">
    <g id="Group_4857" data-name="Group 4857" transform="translate(-189.865 -236.333)">
      <path id="Path_2278" data-name="Path 2278" d="M109.192,124.326c-1.538-.2-3.082-.362-4.614-.6a48.05,48.05,0,0,1-8.2-2.27c-.15-.052-.247-.3-.337-.472-.042-.081-.008-.2-.008-.3q0-13.2-.012-26.4a.86.86,0,0,1,.573-.923,21.264,21.264,0,0,0,5.128-3.207,13.248,13.248,0,0,0,3.516-5.741,31.745,31.745,0,0,0,1.862-9.84,1.776,1.776,0,0,1,1.579-1.885,8.739,8.739,0,0,1,6.458,1.546,7.194,7.194,0,0,1,3,5.783,34.572,34.572,0,0,1-1.233,9.581c-.135.484-.335.949-.534,1.5h.791q6.538,0,13.075,0a6.488,6.488,0,0,1,4.846,1.835,5.354,5.354,0,0,1,.6,6.759c-.141.2-.286.4-.455.633a5.578,5.578,0,0,1-2.613,9.029c.579,4.24-.113,5.624-3.545,7.347a16.508,16.508,0,0,1,.058,3.079,5.585,5.585,0,0,1-4.558,4.417,3.527,3.527,0,0,0-.4.126Z" transform="translate(7669.953 5767.305)" fill="#00ac1b"/>
      <path id="Path_2279" data-name="Path 2279" d="M1.413,225.982A2.233,2.233,0,0,1,0,223.607c.026-9.491.014-18.981.015-28.472,0-1.748.621-2.373,2.356-2.375q3.222,0,6.443,0c1.6,0,2.275.682,2.276,2.281q0,14.3.011,28.594a2.183,2.183,0,0,1-1.461,2.346Z" transform="translate(7751.208 5665.649)" fill="#00ac1b"/>
    </g>
  </g>
</svg>
