<?xml version="1.0" encoding="utf-8"?>
<!-- Generator: Adobe Illustrator 27.8.1, SVG Export Plug-In . SVG Version: 6.00 Build 0)  -->
<svg version="1.1" id="Layer_1" xmlns="http://www.w3.org/2000/svg" xmlns:xlink="http://www.w3.org/1999/xlink" x="0px" y="0px"
	 viewBox="0 0 22.3 22.7" style="enable-background:new 0 0 22.3 22.7;" xml:space="preserve">
<style type="text/css">
	.st0{fill:#2A2A2A;}
</style>
<g>
	<path class="st0" d="M21.5,0c-0.2,0.2-0.3,0.4-0.5,0.6c-1.4,1.6-2.7,3.2-4.1,4.8c-1.2,1.4-2.4,2.8-3.6,4.2c0,0,0,0.1,0,0.1
		c1,1.5,2.1,3,3.1,4.5c1.1,1.6,2.2,3.1,3.2,4.7c0.9,1.3,1.7,2.5,2.6,3.8c0,0,0,0,0,0.1c0,0,0,0-0.1,0c-2.2,0-4.3,0-6.5,0
		c0,0-0.1,0-0.1,0c-0.8-1.2-1.6-2.4-2.5-3.6c-0.7-1.1-1.5-2.1-2.2-3.2c-0.4-0.6-0.9-1.3-1.3-1.9c0,0,0,0,0,0
		c-0.1,0.1-0.2,0.2-0.3,0.3c-2.2,2.6-4.4,5.1-6.6,7.7c-0.2,0.2-0.4,0.5-0.6,0.7c0,0-0.1,0-0.1,0c-0.6,0-1.3,0-1.9,0c0,0,0,0,0,0
		c0,0,0,0,0,0c0,0,0,0,0,0c1.4-1.6,2.7-3.2,4.1-4.8c1.5-1.7,3-3.5,4.5-5.2c0,0,0-0.1,0-0.1c-0.2-0.3-0.4-0.6-0.6-0.9
		c-0.9-1.2-1.7-2.5-2.6-3.7C4.6,6.7,3.8,5.4,3,4.2C2.1,2.9,1.2,1.6,0.3,0.3C0.2,0.2,0.1,0.1,0.1,0c0,0,0,0,0,0c0,0,0,0,0,0
		c2.2,0,4.4,0,6.6,0c0,0,0,0,0,0.1c0.7,1.1,1.5,2.1,2.2,3.2C10,4.8,11.1,6.4,12.1,8c0.1,0.1,0.2,0.2,0.3,0.4c0,0,0.1-0.1,0.1-0.1
		c1.7-2,3.4-4,5.2-6c0.6-0.7,1.3-1.5,1.9-2.2C20.2,0,20.9,0,21.5,0z M19.6,21.3C19.6,21.2,19.5,21.2,19.6,21.3
		c-1.3-1.8-2.5-3.6-3.8-5.4c-1.5-2.2-3-4.3-4.5-6.5C9.4,6.7,7.6,4.1,5.8,1.5c0,0-0.1,0-0.1,0c-1,0-1.9,0-2.9,0c0,0,0,0-0.1,0
		c0,0,0,0,0,0.1C4.3,3.8,5.9,6,7.4,8.2c1.7,2.4,3.3,4.8,5,7.2c1.4,2,2.7,3.9,4.1,5.9c0,0,0.1,0,0.1,0C17.6,21.3,18.5,21.3,19.6,21.3
		C19.5,21.3,19.5,21.3,19.6,21.3z"/>
</g>
</svg>
