<svg width="35" height="32" viewBox="0 0 35 32" fill="none" xmlns="http://www.w3.org/2000/svg">
<path d="M20.0784 32H3.13725C1.41176 32 0 30.5882 0 28.8627V3.13725C0 1.41176 1.41176 0 3.13725 0H20.0784C21.8039 0 23.2157 1.41176 23.2157 3.13725V28.8627C23.0588 30.5882 21.8039 32 20.0784 32Z" fill="url(#paint0_linear)"/>
<path d="M11.6078 29.9607C12.1276 29.9607 12.549 29.5393 12.549 29.0195C12.549 28.4997 12.1276 28.0784 11.6078 28.0784C11.088 28.0784 10.6666 28.4997 10.6666 29.0195C10.6666 29.5393 11.088 29.9607 11.6078 29.9607Z" fill="white"/>
<mask id="mask0" mask-type="alpha" maskUnits="userSpaceOnUse" x="0" y="0" width="24" height="32">
<path d="M20.0784 32H3.13725C1.41176 32 0 30.5882 0 28.8627V3.13725C0 1.41176 1.41176 0 3.13725 0H20.0784C21.8039 0 23.2157 1.41176 23.2157 3.13725V28.8627C23.0588 30.5882 21.8039 32 20.0784 32Z" fill="url(#paint1_linear)"/>
</mask>
<g mask="url(#mask0)">
<path d="M0 5.64673H23.5294" stroke="white" stroke-width="1.5" stroke-miterlimit="10" stroke-linecap="round" stroke-linejoin="round"/>
<path d="M0 25.8823H25.2549" stroke="white" stroke-width="1.5" stroke-miterlimit="10" stroke-linecap="round" stroke-linejoin="round"/>
</g>
<path d="M10.0392 11.608V16.3139C9.56864 16.3139 8.94118 16.3139 8.4706 16.3139C8.00001 16.3139 7.84315 16.6276 8.15687 17.0982C9.09805 18.3531 10.0392 19.608 11.1373 20.8629C11.451 21.1766 11.6079 21.1766 11.9216 20.8629C12.8628 19.608 13.9608 18.3531 14.902 16.9413C15.2157 16.6276 15.0588 16.3139 14.5882 16.3139C14.1177 16.3139 13.0196 16.3139 13.0196 16.3139C13.0196 16.0001 13.0196 14.4315 13.0196 12.706V11.7648C13.0196 11.4511 12.7059 11.2943 12.549 11.2943H10.6667C10.3529 10.9805 10.0392 11.2943 10.0392 11.608Z" fill="white"/>
<path d="M21.0196 9.72534C21.4902 9.8822 21.8039 10.0391 21.9607 10.3528C22.1176 10.8234 22.1176 11.1371 21.8039 11.4508C21.4902 11.7646 21.1764 12.2351 20.8627 12.5489C19.2941 14.9018 19.6078 18.0391 21.647 20.0783C21.9607 20.392 22.1176 20.7057 22.1176 21.0195C22.1176 21.49 21.8039 21.8038 21.4902 21.9606C21.0196 22.1175 20.7058 21.9606 20.3921 21.6469C19.6078 20.8626 18.9804 20.0783 18.6666 18.9802C17.4117 15.6861 17.8823 12.7057 20.3921 10.0391C20.3921 10.0391 20.7058 9.8822 21.0196 9.72534Z" fill="#33EDB0"/>
<path d="M34.5098 15.8432C34.5098 18.353 33.7255 20.2354 32.1568 21.804C31.6863 22.2746 31.0588 22.4315 30.5882 21.9609C30.1176 21.4903 30.1176 21.0197 30.5882 20.3923C32.1568 18.6668 32.6274 16.6276 32.1568 14.4315C31.8431 13.3334 31.3725 12.5491 30.5882 11.7648C30.2745 11.4511 30.1176 11.1374 30.2745 10.8236C30.2745 10.353 30.5882 10.1962 30.9019 10.0393C31.3725 9.88246 31.6863 10.0393 32 10.353C32.7843 11.1374 33.4117 11.9217 33.7255 13.0197C33.8823 13.4903 34.0392 13.9609 34.1961 14.4315C34.5098 14.9021 34.5098 15.5295 34.5098 15.8432Z" fill="#33EDB0"/>
<path d="M21.3333 15.9998C21.3333 14.5881 21.8039 13.49 22.7451 12.5489C23.2157 12.0783 23.8431 12.0783 24.3137 12.392C24.7843 12.8626 24.6274 13.49 24.1568 13.9606C23.0588 15.2155 23.0588 16.7841 24.1568 18.039C24.6274 18.5096 24.6274 19.1371 24.3137 19.6077C23.8431 20.0783 23.2157 20.0783 22.7451 19.6077C21.8039 18.5096 21.3333 17.4116 21.3333 15.9998Z" fill="#33EDB0"/>
<path d="M31.0587 16.0001C31.0587 17.4119 30.5881 18.5099 29.647 19.4511C29.1764 19.9217 28.5489 19.9217 28.0783 19.6079C27.6077 19.1373 27.7646 18.5099 28.2352 18.0393C29.3332 16.7844 29.3332 15.2158 28.2352 13.9609C27.7646 13.4903 27.7646 12.8628 28.2352 12.3922C28.7058 11.9217 29.3332 11.9217 29.8038 12.3922C30.5881 13.4903 31.0587 14.5883 31.0587 16.0001Z" fill="#33EDB0"/>
<path d="M26.196 14.7449C26.8235 14.7449 27.4509 15.3723 27.4509 15.9998C27.4509 16.6272 26.8235 17.2547 26.196 17.2547C25.5686 17.2547 24.9411 16.6272 24.9411 15.9998C24.9411 15.3723 25.5686 14.7449 26.196 14.7449Z" fill="#33EDB0"/>
<defs>
<linearGradient id="paint0_linear" x1="3.66902" y1="-15.5249" x2="19.2609" y2="46.6063" gradientUnits="userSpaceOnUse">
<stop stop-color="#FFF4E8"/>
<stop offset="0.6046" stop-color="#7D94E5"/>
<stop offset="0.9986" stop-color="#3F28DC"/>
</linearGradient>
<linearGradient id="paint1_linear" x1="3.66902" y1="-15.5249" x2="19.2609" y2="46.6063" gradientUnits="userSpaceOnUse">
<stop stop-color="#FFF4E8"/>
<stop offset="0.6046" stop-color="#7D94E5"/>
<stop offset="0.9986" stop-color="#3F28DC"/>
</linearGradient>
</defs>
</svg>
