<svg width="31" height="32" viewBox="0 0 31 32" fill="none" xmlns="http://www.w3.org/2000/svg">
<path d="M27.9662 19.5905H2.69724C1.27764 19.5905 0 18.4548 0 16.8933V2.69724C0 1.27764 1.13568 0 2.69724 0H27.9662C29.3858 0 30.6634 1.13568 30.6634 2.69724V16.8933C30.6634 18.4548 29.3858 19.5905 27.9662 19.5905Z" fill="url(#paint0_linear)"/>
<path d="M6.10423 13.4862C6.67207 12.9184 9.7952 10.2212 10.2211 9.65331C10.647 9.22743 11.2148 8.94351 11.6407 9.51135C12.2085 9.93723 11.9246 10.5051 11.4987 10.931C10.7889 11.6408 7.52384 14.48 6.81403 15.3317C6.24619 15.8996 5.82031 15.8996 5.25247 15.3317C4.96855 14.9058 3.97483 13.6282 3.54895 13.3443C3.12307 12.9184 3.12307 12.4925 3.54895 12.0666C3.97483 11.6408 4.40071 11.7827 4.82659 12.2086C5.11051 12.2086 5.82031 13.2023 6.10423 13.4862Z" fill="white"/>
<path d="M0 5.96216H30.6634" stroke="white" stroke-miterlimit="10"/>
<path d="M28.2501 20.7264C28.2501 19.5907 27.6823 18.597 26.4046 18.455C26.1207 18.455 25.8368 18.455 25.5529 18.597C25.4109 18.597 24.985 18.597 24.8431 18.597C24.5592 17.4613 23.5654 17.3193 22.5717 17.7452C22.2878 17.7452 21.8619 17.7452 21.8619 17.7452C21.0101 16.7515 20.4423 16.6095 18.8807 16.7515C18.8807 15.6158 18.8807 14.0542 18.7388 12.9186C18.5968 11.215 18.8807 10.0793 16.8933 10.0793C16.4674 10.0793 16.0415 10.2213 15.6157 10.5052C14.7639 11.357 14.9059 12.9186 14.9059 14.0542C14.9059 14.1962 14.7639 22.004 14.7639 22.004L14.6219 22.146C14.338 21.862 14.1961 21.5781 13.9121 21.2942C12.9184 20.4424 11.6408 20.3005 10.789 21.1522C9.79528 22.146 9.65332 23.5656 10.5051 24.5593C11.9247 26.2628 13.3443 27.9663 14.7639 29.6699C15.7576 30.8055 17.0353 31.6573 18.4549 31.7993C19.8745 31.9412 21.436 32.0832 22.8556 31.9412C25.6948 31.6573 27.8242 29.3859 28.1082 26.5467C28.3921 24.5593 28.3921 22.7138 28.2501 20.7264Z" fill="#33EDB0"/>
<path d="M19.1646 16.8936V20.5845" stroke="white" stroke-width="0.5" stroke-miterlimit="10"/>
<path d="M22.2878 17.7451V21.578" stroke="white" stroke-width="0.5" stroke-miterlimit="10"/>
<path d="M25.269 18.739L25.4109 22.1461" stroke="white" stroke-width="0.5" stroke-miterlimit="10"/>
<defs>
<linearGradient id="paint0_linear" x1="7.90065" y1="-7.54093" x2="25.1818" y2="33.0614" gradientUnits="userSpaceOnUse">
<stop stop-color="#FFF4E8"/>
<stop offset="0.6046" stop-color="#7D94E5"/>
<stop offset="0.9986" stop-color="#3F28DC"/>
</linearGradient>
</defs>
</svg>
