<svg width="32" height="32" viewBox="0 0 32 32" fill="none" xmlns="http://www.w3.org/2000/svg">
<path d="M8.11485 18.0667H14.6986C14.6986 18.8323 14.6986 19.5978 14.6986 20.2102C14.6986 20.8227 15.1579 21.1289 15.7704 20.6696C17.6077 19.2916 19.445 17.9136 21.1292 16.5356C21.5885 16.2294 21.5885 15.7701 21.1292 15.4638C19.2919 14.0858 17.4546 12.5547 15.6172 11.1768C15.0048 10.7174 14.6986 11.0236 14.5455 11.7892C14.5455 12.4016 14.5455 13.9327 14.5455 13.9327C14.0861 13.9327 11.7895 13.9327 9.33973 13.9327H7.96174C7.50241 13.9327 7.19619 14.239 7.19619 14.6983V17.3012C7.3493 17.6074 7.65552 18.0667 8.11485 18.0667Z" fill="#33EDB0"/>
<path d="M17.7608 32C16.2297 32 15.1579 32 13.6268 32C12.555 31.8469 12.8612 31.3876 12.7081 29.3971C12.7081 28.6316 12.4019 28.3254 11.6364 28.0191C10.8708 27.866 10.1053 27.1005 9.33971 27.2536C8.57416 27.4067 7.96172 28.1722 7.34928 28.7847C6.88995 29.244 6.43062 29.244 5.97129 28.7847C5.35885 28.1722 4.74641 27.5598 4.13397 26.9474C2.75598 25.5694 2.44976 25.5694 3.98086 23.8852C3.98086 23.8852 3.98086 23.7321 4.13397 23.7321C4.89952 23.1196 4.74641 22.3541 4.44019 21.4354C3.98086 19.7512 3.0622 19.2919 1.37799 19.2919C0.76555 19.2919 0.30622 19.1388 0 18.5263C0 16.9952 0 15.4641 0 13.7799C0.45933 13.6268 0.76555 13.3206 1.22488 13.1675C1.68421 13.0144 2.14354 12.8612 2.60287 12.8612C3.36842 13.0144 3.67464 12.555 3.98086 11.9426C4.13397 11.177 4.89952 10.4115 4.74641 9.64593C4.5933 8.88038 3.82775 8.26794 3.21531 7.6555C2.75598 7.19617 2.75598 6.73684 3.21531 6.27751C3.98086 5.51196 4.5933 4.89952 5.20574 4.28708C6.58373 2.90909 6.58373 2.60287 8.26794 4.13397C8.26794 4.13397 8.42105 4.13397 8.42105 4.28708C9.1866 4.89952 9.79904 4.74641 10.8708 4.44019C12.555 3.98086 13.0144 2.90909 12.8612 1.37799C12.8612 0.76555 13.0144 0.30622 13.6268 0C15.1579 0 17.4545 0 18.9856 0C19.1388 0.45933 19.1388 2.14354 19.1388 2.60287C19.1388 3.36842 19.445 3.82775 20.2105 3.98086C20.9761 4.13397 21.7416 4.89952 22.3541 4.74641C23.1196 4.5933 23.7321 3.82775 24.3445 3.36842C24.9569 2.90909 25.2632 2.90909 25.8756 3.52153C26.6411 4.28708 27.4067 5.05263 28.1722 5.81818C29.0909 6.73684 29.0909 6.88995 28.3254 7.96172C28.1722 8.11483 28.0191 8.42105 27.866 8.57416C27.1005 9.33971 27.2536 9.95215 27.5598 10.8708C28.0191 12.555 28.9378 13.0144 30.622 13.0144C31.2345 13.0144 31.6938 13.1675 32 13.7799C32 15.311 32 16.8421 32 18.5263C31.5407 18.6794 31.2345 18.9856 30.7751 19.1388C30.3158 19.2919 29.8565 19.2919 29.244 19.2919C28.4785 19.2919 28.1722 19.5981 27.866 20.3636C27.7129 21.1292 26.9474 21.8947 27.1005 22.6603C27.2536 23.4258 28.0191 24.0383 28.6316 24.6507C29.0909 25.11 29.0909 25.5694 28.6316 26.0287C28.0191 26.6411 27.4067 27.2536 26.7943 27.866C25.2632 29.3971 25.4163 29.5502 23.5789 28.0191C23.5789 28.0191 23.4258 28.0191 23.4258 27.866C22.8134 27.1005 22.0478 27.2536 21.1292 27.5598C19.445 28.0191 18.9856 28.9378 18.9856 30.622C18.9856 31.2345 18.6794 32 17.7608 32ZM23.8852 16.0766C23.8852 11.7895 20.2105 8.11483 15.9234 8.11483C11.6364 8.11483 7.96172 11.7895 7.96172 16.0766C7.96172 20.5167 11.6364 24.1914 15.9234 24.0383C20.3636 24.0383 23.8852 20.3636 23.8852 16.0766Z" fill="url(#paint0_linear)"/>
<defs>
<linearGradient id="paint0_linear" x1="15.1628" y1="-17.8689" x2="16.8537" y2="57.5919" gradientUnits="userSpaceOnUse">
<stop stop-color="#FFF4E8"/>
<stop offset="0.6046" stop-color="#7D94E5"/>
<stop offset="0.9986" stop-color="#3F28DC"/>
</linearGradient>
</defs>
</svg>
