<svg width="30" height="34" viewBox="0 0 30 34" fill="none" xmlns="http://www.w3.org/2000/svg">
<path d="M1 8.20722C4.02703 3.88289 8.92795 1 14.6937 1C18.009 1 21.0361 2.00901 23.6307 3.5946C25.3604 4.74776 26.946 6.1892 28.0992 7.91893" stroke="#33EDB0" stroke-width="1.5" stroke-miterlimit="10" stroke-linecap="round" stroke-linejoin="round"/>
<path d="M25.0721 7.91868L28.3875 8.78354L29.1082 5.17993" stroke="#33EDB0" stroke-width="1.5" stroke-miterlimit="10" stroke-linecap="round" stroke-linejoin="round"/>
<path d="M29.1082 25.7927C26.0812 30.1171 21.1802 32.9999 15.4145 32.9999C12.0991 32.9999 9.07211 31.9909 6.47751 30.4053C4.74778 29.2522 3.16219 27.8107 2.00903 26.081" stroke="#33EDB0" stroke-width="1.5" stroke-miterlimit="10" stroke-linecap="round" stroke-linejoin="round"/>
<path d="M4.8919 25.9369L1.57658 25.072L1 28.6756" stroke="#33EDB0" stroke-width="1.5" stroke-miterlimit="10" stroke-linecap="round" stroke-linejoin="round"/>
<path d="M14.8379 15.9909H23.7749C24.2073 15.9909 24.4956 15.7026 24.4956 15.2702C24.4956 14.6936 24.3515 13.9729 24.0632 13.3963C23.3424 11.2341 21.901 9.64852 20.1713 8.49537C16.8559 6.3332 12.5316 6.04491 9.07214 8.20708C5.46853 10.3692 3.88294 14.5494 4.60366 18.7296C5.46853 24.4954 10.5136 26.3693 14.2613 26.5134C14.6938 26.5134 14.9821 26.2251 14.9821 25.7927V15.9909H14.8379Z" fill="url(#paint0_linear)"/>
<path d="M21.3244 18.1531C22.6217 18.1531 23.919 18.1531 25.0722 18.1531C25.9371 18.1531 26.0812 18.4414 26.0812 19.3062C25.5046 23.7747 22.1893 27.09 17.7208 27.8108C16.7118 27.9549 16.4235 27.8108 16.4235 26.8017C16.4235 24.2071 16.4235 21.7567 16.4235 19.1621C16.4235 18.4414 16.7118 18.1531 17.4325 18.1531C18.7298 18.1531 20.0271 18.1531 21.3244 18.1531Z" fill="url(#paint1_linear)"/>
<defs>
<linearGradient id="paint0_linear" x1="12.4247" y1="-8.27887" x2="17.6806" y2="57.0448" gradientUnits="userSpaceOnUse">
<stop stop-color="#FFF4E8"/>
<stop offset="0.6046" stop-color="#7D94E5"/>
<stop offset="0.9986" stop-color="#3F28DC"/>
</linearGradient>
<linearGradient id="paint1_linear" x1="18.7654" y1="-8.7891" x2="24.0214" y2="56.5347" gradientUnits="userSpaceOnUse">
<stop stop-color="#FFF4E8"/>
<stop offset="0.6046" stop-color="#7D94E5"/>
<stop offset="0.9986" stop-color="#3F28DC"/>
</linearGradient>
</defs>
</svg>
