<svg width="30" height="32" viewBox="0 0 30 32" fill="none" xmlns="http://www.w3.org/2000/svg">
<path d="M23.1655 12.0701C23.1655 13.0526 23.1655 13.8947 23.1655 14.7368C23.1655 15.5789 22.4637 16.2807 21.762 16.2807C19.5163 16.2807 13.4813 16.2807 9.41108 16.2807C7.86722 16.2807 6.60406 15.0175 6.60406 13.4736C6.60406 11.9298 6.60406 10.2456 6.60406 10.2456C6.60406 8.28066 6.60406 6.59645 6.60406 4.91224C6.60406 3.92978 7.44617 3.22803 8.28828 3.22803C12.6392 3.22803 16.99 3.22803 21.4813 3.22803C22.4637 3.22803 23.1655 3.92978 23.1655 4.91224C23.1655 5.75434 23.1655 6.4561 23.1655 7.2982C22.6041 7.2982 22.0427 7.2982 21.4813 7.2982C20.9199 7.2982 20.4988 7.2982 19.9374 7.2982C18.8146 7.2982 17.8321 7.99996 17.6918 9.12276C17.4111 10.5263 18.3935 11.9298 19.797 12.0701C20.9199 12.0701 22.0427 12.0701 23.1655 12.0701Z" fill="white"/>
<path d="M23.8672 8.00004C23.8672 9.12285 23.8672 10.2457 23.8672 11.5088C22.4637 11.5088 21.0602 11.5088 19.6567 11.5088C18.8145 11.5088 18.1128 10.5264 18.2531 9.68425C18.2531 8.70179 19.0952 8.00004 19.9374 8.00004C21.2005 8.00004 22.4637 8.00004 23.7268 8.00004C23.7268 7.85969 23.8672 7.85969 23.8672 8.00004Z" fill="white"/>
<path d="M11.376 2.52632C11.5164 2.38596 11.5164 2.38596 11.5164 2.24561C12.2181 1.54386 13.0602 0.701754 13.762 0C14.6041 0.842105 15.4462 1.68421 16.2883 2.52632C14.6041 2.52632 13.0602 2.52632 11.376 2.52632Z" fill="white"/>
<path d="M16.99 0C17.8321 0.842105 18.6742 1.68421 19.376 2.52632H17.1304L15.7269 1.12281C16.1479 0.701754 16.569 0.421053 16.99 0Z" fill="white"/>
<path d="M0.00759065 27.7894C0.00759065 25.5438 1.83215 23.8596 4.07777 23.8596C6.32338 23.8596 8.14794 25.6842 8.00759 28.0701C8.00759 30.1754 6.18303 32 3.93742 32C1.6918 31.8596 -0.13276 30.0351 0.00759065 27.7894Z" fill="white"/>
<path d="M10.8146 27.7894C10.8146 25.5438 12.6391 23.8596 14.8848 23.8596C17.1304 23.8596 18.9549 25.6842 18.8146 28.0701C18.8146 30.1754 16.99 32 14.7444 32C12.6391 31.8596 10.8146 30.0351 10.8146 27.7894Z" fill="white"/>
<path d="M21.762 27.7894C21.762 25.5438 23.5865 23.8596 25.8322 23.8596C28.0778 23.8596 29.9023 25.6842 29.762 28.0701C29.762 30.1754 27.9374 32 25.6918 32C23.4462 31.8596 21.6216 30.0351 21.762 27.7894Z" fill="white"/>
<path d="M3.93732 24.7016V19.9297H25.6917V25.1227" stroke="white" stroke-width="1.5" stroke-miterlimit="10" stroke-linecap="round" stroke-linejoin="round"/>
<path d="M14.8848 17.8245V25.1227" stroke="white" stroke-width="1.5" stroke-miterlimit="10" stroke-linecap="round" stroke-linejoin="round"/>
<path d="M3.23561 28.351C3.51632 28.0703 5.06018 26.8072 5.34088 26.5265C5.62158 26.2458 5.76193 26.2458 6.04263 26.3861C6.32333 26.6668 6.18298 26.8072 6.04263 27.0879C5.76193 27.5089 4.07772 28.9125 3.65667 29.1932C3.37597 29.4739 3.23562 29.4739 2.95491 29.1932C2.81456 29.0528 2.25316 28.351 2.11281 28.2107C1.97246 27.93 1.83211 27.7896 2.11281 27.5089C2.39351 27.3686 2.53386 27.3686 2.67421 27.5089C2.67421 27.7896 3.09526 28.2107 3.23561 28.351Z" fill="#4E5FF9"/>
<path d="M14.1831 28.351C14.4638 28.0703 16.0076 26.8072 16.2883 26.5265C16.569 26.2458 16.7094 26.2458 16.9901 26.3861C17.2708 26.6668 17.1304 26.8072 16.9901 27.0879C16.7094 27.5089 15.0252 28.9125 14.6041 29.1932C14.3234 29.4739 14.1831 29.4739 13.9024 29.1932C13.762 29.0528 13.2006 28.351 13.0603 28.2107C12.9199 27.93 12.7796 27.7896 13.0603 27.5089C13.341 27.3686 13.4813 27.3686 13.6217 27.5089C13.762 27.7896 14.1831 28.2107 14.1831 28.351Z" fill="#4E5FF9"/>
<path d="M24.99 28.351C25.2707 28.0703 26.8146 26.8072 27.0953 26.5265C27.376 26.2458 27.5163 26.2458 27.797 26.3861C28.0777 26.6668 27.9374 26.8072 27.797 27.0879C27.5163 27.5089 25.8321 28.9125 25.4111 29.1932C25.1304 29.4739 24.99 29.4739 24.7093 29.1932C24.569 29.0528 24.0076 28.351 23.8672 28.2107C23.7269 27.93 23.5865 27.7896 23.8672 27.5089C24.1479 27.3686 24.2883 27.3686 24.4286 27.5089C24.4286 27.7896 24.8497 28.2107 24.99 28.351Z" fill="#4E5FF9"/>
</svg>
