<svg width="32" height="32" viewBox="0 0 32 32" fill="none" xmlns="http://www.w3.org/2000/svg">
<path d="M29.6184 23.5161H1.78603C0.893017 23.5161 0 22.7719 0 21.7301V1.78603C0 0.893017 0.744181 0 1.78603 0H29.6184C30.5114 0 31.4044 0.744181 31.4044 1.78603V21.7301C31.4044 22.7719 30.5114 23.5161 29.6184 23.5161Z" fill="white"/>
<mask id="mask0" mask-type="alpha" maskUnits="userSpaceOnUse" x="0" y="0" width="32" height="24">
<path d="M29.6184 23.5161H1.78603C0.893017 23.5161 0 22.7719 0 21.7301V1.78603C0 0.893017 0.744181 0 1.78603 0H29.6184C30.5114 0 31.4044 0.744181 31.4044 1.78603V21.7301C31.4044 22.7719 30.5114 23.5161 29.6184 23.5161Z" fill="url(#paint0_linear)"/>
</mask>
<g mask="url(#mask0)">
<path d="M0 5.65576H31.7021" stroke="#4E5FF9" stroke-width="0.8613" stroke-miterlimit="10" stroke-linecap="round" stroke-linejoin="round"/>
</g>
<path d="M16.372 20.5393C15.7767 20.5393 15.479 20.5393 14.8836 20.5393C14.4371 20.3905 14.586 20.3905 14.586 19.6463C14.586 19.3486 14.4371 19.1998 14.2883 19.1998C13.9906 19.051 13.693 18.9021 13.5441 18.9021C13.2464 18.9021 13.0976 19.1998 12.7999 19.4975C12.6511 19.6463 12.5023 19.6463 12.3534 19.4975C12.0558 19.1998 11.9069 19.051 11.6092 18.7533C11.1627 18.3068 11.0139 18.3068 11.6092 17.5626C11.9069 17.2649 11.9069 17.1161 11.7581 16.6696C11.6092 16.0742 11.3116 15.9254 10.7162 15.9254C10.5674 15.9254 10.2697 15.9254 10.2697 15.6277C10.2697 15.0324 10.2697 14.437 10.2697 13.9905C10.1209 13.9905 10.2697 13.8417 10.4186 13.8417C10.5674 13.8417 10.7162 13.8417 11.0139 13.8417C11.3116 13.8417 11.4604 13.6929 11.4604 13.544C11.6092 13.2464 11.7581 12.9487 11.7581 12.7999C11.7581 12.5022 11.4604 12.3533 11.1627 12.0557C11.0139 11.9068 11.0139 11.758 11.1627 11.6092C11.4604 11.0138 11.6092 10.865 11.9069 10.5673C12.3534 10.1208 12.3534 9.97196 12.9488 10.5673C13.2464 10.865 13.3953 10.865 13.8418 10.7161C14.4371 10.5673 14.586 10.1208 14.586 9.67429C14.586 9.52546 14.586 9.22778 14.8836 9.22778C15.479 9.22778 16.2232 9.22778 16.8185 9.22778C16.9673 9.37662 16.9673 9.97196 16.8185 10.1208C16.8185 10.4185 16.9673 10.5673 17.265 10.5673C17.5627 10.5673 17.8604 10.865 18.0092 10.865C18.3069 10.865 18.4557 10.5673 18.7534 10.4185C19.0511 10.2696 19.0511 10.2696 19.3487 10.4185C19.6464 10.7161 19.9441 11.0138 20.2417 11.3115C20.5394 11.6092 20.5394 11.758 20.2417 12.0557C20.2417 12.2045 20.0929 12.2045 20.0929 12.3533C19.7952 12.651 19.9441 12.7999 19.9441 13.2464C20.0929 13.8417 20.3906 13.9905 20.9859 13.9905C21.1348 13.9905 21.4324 13.9905 21.4324 14.2882C21.4324 14.8836 21.4324 15.4789 21.4324 15.9254C21.2836 16.0742 21.1348 16.0742 20.9859 16.2231C20.8371 16.2231 20.6883 16.2231 20.3906 16.2231C20.0929 16.2231 19.9441 16.3719 19.9441 16.5208C19.7952 16.8184 19.6464 17.1161 19.6464 17.2649C19.6464 17.5626 19.9441 17.7114 20.2417 18.0091C20.3906 18.158 20.3906 18.3068 20.2417 18.4556C20.0929 18.6045 19.7952 18.9021 19.6464 19.051C19.0511 19.6463 19.1999 19.6463 18.4557 19.1998C18.158 18.9021 18.0092 18.9021 17.5627 19.051C16.9673 19.1998 16.8185 19.4975 16.8185 20.0928C16.8185 20.2417 16.6697 20.5393 16.372 20.5393ZM18.6045 14.8836C18.6045 13.2464 17.265 12.0557 15.7767 12.0557C14.1395 12.0557 12.9488 13.3952 12.9488 14.8836C12.9488 16.5208 14.2883 17.7114 15.7767 17.7114C17.265 17.7114 18.6045 16.3719 18.6045 14.8836Z" fill="#4E5FF9"/>
<path d="M31.4998 23.3676C31.4998 27.8591 27.8588 31.5001 23.3673 31.5001C18.8758 31.5001 15.2348 27.8591 15.2348 23.3676C15.2348 18.8762 18.8758 15.2351 23.3673 15.2351C27.8588 15.2351 31.4998 18.8762 31.4998 23.3676Z" fill="#4E5FF9" stroke="white"/>
<path d="M22.3255 25.0047C22.9209 24.1117 23.5162 23.3675 23.9627 22.4745C24.4092 21.7303 25.0046 20.9861 25.4511 20.0931C25.7487 19.6466 26.3441 19.6466 26.6418 19.9443C26.9394 20.2419 26.9394 20.5396 26.6418 20.9861C25.8976 22.028 25.1534 23.2187 24.4092 24.2605C23.9627 25.0047 23.3674 25.7489 22.9209 26.4931C22.6232 27.0884 22.0278 27.0884 21.5813 26.6419C20.986 26.0466 20.3906 25.4512 19.7953 24.8559C19.6465 24.707 19.4976 24.4094 19.4976 24.1117C19.6465 23.5163 20.3906 23.3675 20.8371 23.814C21.1348 24.1117 21.5813 24.5582 21.879 24.8559C22.1767 24.8559 22.3255 24.8559 22.3255 25.0047Z" fill="white"/>
<defs>
<linearGradient id="paint0_linear" x1="5.55346" y1="-18.9221" x2="25.6977" y2="42.0024" gradientUnits="userSpaceOnUse">
<stop stop-color="#FFF4E8"/>
<stop offset="0.6046" stop-color="#7D94E5"/>
<stop offset="0.9986" stop-color="#3F28DC"/>
</linearGradient>
</defs>
</svg>
