<svg width="31" height="32" viewBox="0 0 31 32" fill="none" xmlns="http://www.w3.org/2000/svg">
<path d="M27.9662 19.5905H2.69724C1.27764 19.5905 0 18.4548 0 16.8933V2.69724C0 1.27764 1.13568 0 2.69724 0H27.9662C29.3858 0 30.6634 1.13568 30.6634 2.69724V16.8933C30.6634 18.4548 29.3858 19.5905 27.9662 19.5905Z" fill="white"/>
<path d="M6.10425 13.4862C6.67209 12.9184 9.79522 10.2212 10.2211 9.65331C10.647 9.22743 11.2148 8.94351 11.6407 9.51135C12.2085 9.93723 11.9246 10.5051 11.4987 10.931C10.7889 11.6408 7.52385 14.48 6.81405 15.3317C6.24621 15.8996 5.82033 15.8996 5.25249 15.3317C4.96857 14.9058 3.97484 13.6282 3.54896 13.3443C3.12308 12.9184 3.12308 12.4925 3.54896 12.0666C3.97484 11.6408 4.40073 11.7827 4.82661 12.2086C5.11053 12.2086 5.82033 13.2023 6.10425 13.4862Z" fill="#4E5FF9"/>
<path d="M0 5.96216H30.6634" stroke="#4E5FF9" stroke-miterlimit="10"/>
<path d="M27.7501 20.7264V20.7442L27.7514 20.762C27.8917 22.7261 27.8906 24.5341 27.6132 26.476L27.6117 26.4865L27.6106 26.497C27.3488 29.1157 25.3923 31.1851 22.8059 31.4437C21.4435 31.5799 19.9304 31.4443 18.5046 31.3017C17.2553 31.1768 16.0865 30.4206 15.1441 29.3451L10.8892 24.2392L10.8892 24.2392L10.8847 24.2339C10.2315 23.4718 10.3009 22.3475 11.1426 21.5058C11.7438 20.9045 12.7056 20.9278 13.5718 21.6611C13.6789 21.7703 13.7632 21.8816 13.867 22.0201L13.873 22.028C13.9767 22.1663 14.1011 22.3323 14.2684 22.4995L14.6219 22.8531L14.9755 22.4995L15.1174 22.3576L15.2601 22.2149L15.2638 22.0131L14.7639 22.004L15.2638 22.013L15.2638 22.0127L15.2638 22.0117L15.2639 22.0074L15.2642 21.9907L15.2654 21.9254L15.2699 21.6773L15.286 20.7909L15.3348 18.0914C15.3702 16.1272 15.4059 14.1312 15.4059 14.0542C15.4059 13.9012 15.4036 13.7472 15.4014 13.5928C15.3949 13.1373 15.3883 12.6782 15.4383 12.2285C15.5021 11.6537 15.6511 11.1998 15.9362 10.893C16.28 10.6729 16.5969 10.5793 16.8933 10.5793C17.3511 10.5793 17.6146 10.6462 17.7689 10.7267C17.9034 10.7969 17.9832 10.8915 18.0427 11.043C18.1106 11.2157 18.1473 11.452 18.1713 11.7914C18.1795 11.9081 18.1867 12.0525 18.1947 12.2099C18.2066 12.4474 18.22 12.7144 18.2405 12.9601L18.2414 12.9703L18.2426 12.9806C18.3799 14.0788 18.3807 15.6057 18.3807 16.7515V17.299L18.926 17.2494C19.7035 17.1787 20.1462 17.1902 20.4851 17.2987C20.8018 17.4 21.0832 17.605 21.4823 18.0706L21.6319 18.2452H21.8619H21.8619H21.8619H21.862H21.862H21.8621H21.8621H21.8622H21.8623H21.8624H21.8625H21.8626H21.8627H21.8628H21.863H21.8631H21.8633H21.8635H21.8636H21.8638H21.864H21.8642H21.8644H21.8647H21.8649H21.8651H21.8654H21.8656H21.8659H21.8662H21.8665H21.8668H21.8671H21.8674H21.8677H21.868H21.8684H21.8687H21.8691H21.8694H21.8698H21.8702H21.8706H21.871H21.8714H21.8718H21.8722H21.8727H21.8731H21.8736H21.874H21.8745H21.875H21.8755H21.8759H21.8764H21.877H21.8775H21.878H21.8785H21.8791H21.8796H21.8802H21.8808H21.8813H21.8819H21.8825H21.8831H21.8837H21.8843H21.885H21.8856H21.8862H21.8869H21.8875H21.8882H21.8889H21.8895H21.8902H21.8909H21.8916H21.8923H21.8931H21.8938H21.8945H21.8953H21.896H21.8968H21.8975H21.8983H21.8991H21.8999H21.9007H21.9015H21.9023H21.9031H21.9039H21.9047H21.9056H21.9064H21.9073H21.9081H21.909H21.9099H21.9107H21.9116H21.9125H21.9134H21.9143H21.9152H21.9162H21.9171H21.918H21.919H21.9199H21.9209H21.9218H21.9228H21.9238H21.9248H21.9258H21.9268H21.9278H21.9288H21.9298H21.9308H21.9318H21.9329H21.9339H21.935H21.936H21.9371H21.9382H21.9392H21.9403H21.9414H21.9425H21.9436H21.9447H21.9458H21.9469H21.9481H21.9492H21.9503H21.9515H21.9526H21.9538H21.9549H21.9561H21.9573H21.9585H21.9597H21.9608H21.962H21.9632H21.9645H21.9657H21.9669H21.9681H21.9693H21.9706H21.9718H21.9731H21.9743H21.9756H21.9769H21.9781H21.9794H21.9807H21.982H21.9833H21.9846H21.9859H21.9872H21.9885H21.9898H21.9911H21.9925H21.9938H21.9951H21.9965H21.9978H21.9992H22.0006H22.0019H22.0033H22.0047H22.0061H22.0074H22.0088H22.0102H22.0116H22.013H22.0144H22.0159H22.0173H22.0187H22.0201H22.0216H22.023H22.0245H22.0259H22.0274H22.0288H22.0303H22.0317H22.0332H22.0347H22.0362H22.0377H22.0391H22.0406H22.0421H22.0436H22.0452H22.0467H22.0482H22.0497H22.0512H22.0527H22.0543H22.0558H22.0574H22.0589H22.0605H22.062H22.0636H22.0651H22.0667H22.0683H22.0698H22.0714H22.073H22.0746H22.0762H22.0777H22.0793H22.0809H22.0825H22.0842H22.0858H22.0874H22.089H22.0906H22.0922H22.0939H22.0955H22.0971H22.0988H22.1004H22.1021H22.1037H22.1054H22.107H22.1087H22.1103H22.112H22.1137H22.1153H22.117H22.1187H22.1204H22.1221H22.1237H22.1254H22.1271H22.1288H22.1305H22.1322H22.1339H22.1356H22.1374H22.1391H22.1408H22.1425H22.1442H22.1459H22.1477H22.1494H22.1511H22.1529H22.1546H22.1564H22.1581H22.1598H22.1616H22.1633H22.1651H22.1669H22.1686H22.1704H22.1721H22.1739H22.1757H22.1774H22.1792H22.181H22.1828H22.1845H22.1863H22.1881H22.1899H22.1917H22.1935H22.1953H22.197H22.1988H22.2006H22.2024H22.2042H22.206H22.2078H22.2097H22.2115H22.2133H22.2151H22.2169H22.2187H22.2205H22.2224H22.2242H22.226H22.2278H22.2296H22.2315H22.2333H22.2351H22.237H22.2388H22.2406H22.2425H22.2443H22.2461H22.248H22.2498H22.2517H22.2535H22.2553H22.2572H22.259H22.2609H22.2627H22.2646H22.2664H22.2683H22.2701H22.272H22.2738H22.2757H22.2776H22.2794H22.2813H22.2831H22.285H22.2868H22.2887H22.2906H22.2924H22.2943H22.2962H22.298H22.2999H22.3018H22.3036H22.3055H22.3074H22.3092H22.3111H22.313H22.3148H22.3167H22.3186H22.3204H22.3223H22.3242H22.3261H22.3279H22.3298H22.3317H22.3335H22.3354H22.3373H22.3391H22.341H22.3429H22.3448H22.3466H22.3485H22.3504H22.3522H22.3541H22.356H22.3579H22.3597H22.3616H22.3635H22.3653H22.3672H22.3691H22.3709H22.3728H22.3747H22.3766H22.3784H22.3803H22.3821H22.384H22.3859H22.3877H22.3896H22.3915H22.3933H22.3952H22.3971H22.3989H22.4008H22.4026H22.4045H22.4063H22.4082H22.4101H22.4119H22.4138H22.4156H22.4175H22.4193H22.4212H22.423H22.4249H22.4267H22.4285H22.4304H22.4322H22.4341H22.4359H22.4377H22.4396H22.4414H22.4433H22.4451H22.4469H22.4487H22.4506H22.4524H22.4542H22.456H22.4579H22.4597H22.4615H22.4633H22.4651H22.467H22.4688H22.4706H22.4724H22.4742H22.476H22.4778H22.4796H22.4814H22.4832H22.485H22.4868H22.4886H22.4904H22.4922H22.4939H22.4957H22.4975H22.4993H22.5011H22.5028H22.5046H22.5064H22.5081H22.5099H22.5117H22.5134H22.5152H22.5169H22.5187H22.5204H22.5222H22.5239H22.5257H22.5274H22.5292H22.5309H22.5326H22.5344H22.5361H22.5378H22.5395H22.5413H22.543H22.5447H22.5464H22.5481H22.5498H22.5515H22.5532H22.5549H22.5566H22.5583H22.56H22.5617H22.5633H22.565H22.5667H22.5684H22.57H22.5717H22.6743L22.7687 18.2048C23.2042 18.0181 23.5735 17.9864 23.828 18.0638C24.046 18.1302 24.2527 18.2971 24.358 18.7182L24.4527 19.097H24.8431H24.8439H24.8447H24.8456H24.8464H24.8473H24.8482H24.8491H24.8499H24.8508H24.8517H24.8526H24.8535H24.8544H24.8553H24.8563H24.8572H24.8581H24.8591H24.86H24.861H24.8619H24.8629H24.8639H24.8648H24.8658H24.8668H24.8678H24.8688H24.8698H24.8708H24.8719H24.8729H24.8739H24.8749H24.876H24.877H24.8781H24.8791H24.8802H24.8813H24.8823H24.8834H24.8845H24.8856H24.8867H24.8878H24.8889H24.89H24.8911H24.8923H24.8934H24.8945H24.8957H24.8968H24.8979H24.8991H24.9003H24.9014H24.9026H24.9038H24.9049H24.9061H24.9073H24.9085H24.9097H24.9109H24.9121H24.9133H24.9145H24.9158H24.917H24.9182H24.9195H24.9207H24.9219H24.9232H24.9245H24.9257H24.927H24.9282H24.9295H24.9308H24.9321H24.9334H24.9347H24.9359H24.9372H24.9385H24.9399H24.9412H24.9425H24.9438H24.9451H24.9465H24.9478H24.9491H24.9505H24.9518H24.9532H24.9545H24.9559H24.9572H24.9586H24.96H24.9613H24.9627H24.9641H24.9655H24.9669H24.9683H24.9696H24.971H24.9724H24.9739H24.9753H24.9767H24.9781H24.9795H24.9809H24.9824H24.9838H24.9852H24.9867H24.9881H24.9896H24.991H24.9924H24.9939H24.9954H24.9968H24.9983H24.9998H25.0012H25.0027H25.0042H25.0057H25.0071H25.0086H25.0101H25.0116H25.0131H25.0146H25.0161H25.0176H25.0191H25.0206H25.0221H25.0236H25.0251H25.0267H25.0282H25.0297H25.0312H25.0328H25.0343H25.0358H25.0374H25.0389H25.0405H25.042H25.0436H25.0451H25.0467H25.0482H25.0498H25.0513H25.0529H25.0545H25.056H25.0576H25.0592H25.0607H25.0623H25.0639H25.0655H25.067H25.0686H25.0702H25.0718H25.0734H25.075H25.0766H25.0782H25.0798H25.0814H25.083H25.0846H25.0862H25.0878H25.0894H25.091H25.0926H25.0942H25.0958H25.0975H25.0991H25.1007H25.1023H25.1039H25.1056H25.1072H25.1088H25.1104H25.1121H25.1137H25.1153H25.117H25.1186H25.1202H25.1219H25.1235H25.1251H25.1268H25.1284H25.1301H25.1317H25.1333H25.135H25.1366H25.1383H25.1399H25.1416H25.1432H25.1449H25.1465H25.1482H25.1498H25.1515H25.1531H25.1548H25.1564H25.1581H25.1598H25.1614H25.1631H25.1647H25.1664H25.1681H25.1697H25.1714H25.173H25.1747H25.1764H25.178H25.1797H25.1813H25.183H25.1847H25.1863H25.188H25.1897H25.1913H25.193H25.1946H25.1963H25.198H25.1996H25.2013H25.203H25.2046H25.2063H25.208H25.2096H25.2113H25.2129H25.2146H25.2163H25.2179H25.2196H25.2213H25.2229H25.2246H25.2262H25.2279H25.2296H25.2312H25.2329H25.2345H25.2362H25.2378H25.2395H25.2412H25.2428H25.2445H25.2461H25.2478H25.2494H25.2511H25.2527H25.2544H25.256H25.2577H25.2593H25.261H25.2626H25.2642H25.2659H25.2675H25.2692H25.2708H25.2724H25.2741H25.2757H25.2774H25.279H25.2806H25.2823H25.2839H25.2855H25.2871H25.2888H25.2904H25.292H25.2936H25.2953H25.2969H25.2985H25.3001H25.3017H25.3033H25.3049H25.3066H25.3082H25.3098H25.3114H25.313H25.3146H25.3162H25.3178H25.3194H25.321H25.3225H25.3241H25.3257H25.3273H25.3289H25.3305H25.3321H25.3336H25.3352H25.3368H25.3383H25.3399H25.3415H25.343H25.3446H25.3462H25.3477H25.3493H25.3508H25.3524H25.3539H25.3555H25.357H25.3586H25.3601H25.3616H25.3632H25.3647H25.3662H25.3678H25.3693H25.3708H25.3723H25.3738H25.3753H25.3768H25.3784H25.3799H25.3814H25.3829H25.3843H25.3858H25.3873H25.3888H25.3903H25.3918H25.3932H25.3947H25.3962H25.3977H25.3991H25.4006H25.402H25.4035H25.4049H25.4064H25.4078H25.4093H25.4107H25.4121H25.4136H25.415H25.4164H25.4178H25.4193H25.4207H25.4221H25.4235H25.4249H25.4263H25.4277H25.4291H25.4305H25.4319H25.4332H25.4346H25.436H25.4373H25.4387H25.4401H25.4414H25.4428H25.4441H25.4455H25.4468H25.4482H25.4495H25.4508H25.4521H25.4535H25.4548H25.4561H25.4574H25.4587H25.46H25.4613H25.4626H25.4639H25.4651H25.4664H25.4677H25.469H25.4702H25.4715H25.4727H25.474H25.4752H25.4765H25.4777H25.4789H25.4802H25.4814H25.4826H25.4838H25.485H25.4862H25.4874H25.4886H25.4898H25.491H25.4922H25.4934H25.4945H25.4957H25.4968H25.498H25.4991H25.5003H25.5014H25.5026H25.5037H25.5048H25.5059H25.507H25.5081H25.5092H25.5103H25.5114H25.5125H25.5136H25.5147H25.5157H25.5168H25.5179H25.5189H25.52H25.521H25.522H25.5231H25.5241H25.5251H25.5261H25.5271H25.5281H25.5291H25.5301H25.5311H25.5321H25.533H25.534H25.535H25.5359H25.5369H25.5378H25.5387H25.5397H25.5406H25.5415H25.5424H25.5433H25.5442H25.5451H25.546H25.5469H25.5478H25.5486H25.5495H25.5503H25.5512H25.552H25.5529H25.6709L25.7765 19.0442C25.9348 18.965 26.0971 18.9556 26.3757 18.955C26.8691 19.016 27.1937 19.2302 27.4044 19.5152C27.6272 19.8167 27.7501 20.2367 27.7501 20.7264Z" fill="white" stroke="#4E5FF9"/>
<path d="M19.1646 17.8936V21.5845" stroke="#4E5FF9" stroke-miterlimit="10" stroke-linecap="round"/>
<path d="M22.2878 18.7451V22.578" stroke="#4E5FF9" stroke-miterlimit="10" stroke-linecap="round"/>
<path d="M25.269 19.739L25.4109 23.1461" stroke="#4E5FF9" stroke-miterlimit="10" stroke-linecap="round"/>
</svg>
