<svg width="32" height="32" viewBox="0 0 32 32" fill="none" xmlns="http://www.w3.org/2000/svg">
<path d="M22.0942 13.458C22.5428 13.3084 23.1409 13.1589 23.44 12.8598C23.7391 12.5608 23.5895 11.9626 23.5895 11.3645C23.5895 10.0187 23.5895 10.0187 22.2438 9.57013C21.6456 9.4206 21.4961 8.82247 21.7952 8.37387C21.9447 8.22434 21.9447 7.92528 22.0942 7.77574C22.3933 7.32715 22.3933 7.02808 21.9447 6.72902C21.4961 6.42996 21.0475 5.98136 20.7484 5.53277C20.4494 5.08417 20.1503 5.08417 19.7017 5.38323C19.1036 5.6823 18.655 6.13089 17.9073 5.53277C17.9073 6.57949 17.9073 7.62621 17.9073 8.5234C17.9073 8.67294 18.0569 8.82247 18.2064 8.972C19.7017 10.3178 19.7017 12.4112 18.3559 13.757C17.0101 15.1028 14.9167 15.1028 13.5709 13.757C12.0756 12.4112 12.2251 10.3178 13.7204 8.972C13.87 8.82247 14.0195 8.67294 14.0195 8.5234C14.0195 7.62621 14.0195 6.72902 14.0195 5.83183C13.7204 5.83183 13.2718 5.98136 12.9728 5.83183C11.627 5.2337 11.627 5.2337 10.5803 6.28043C9.53354 7.17762 9.53354 7.17762 10.1317 8.5234C10.2812 8.972 10.1317 9.57013 9.68307 9.71966C8.33728 10.1683 8.33728 10.1683 8.33728 11.514C8.33728 13.0094 8.33728 13.0094 9.68307 13.458C10.1317 13.6075 10.4307 14.2056 10.1317 14.6542C9.53354 15.8505 9.53354 15.8505 10.4307 16.8972C11.4775 17.9439 11.4775 17.9439 12.8232 17.3458C13.2718 17.1963 13.87 17.3458 14.0195 17.7944C14.4681 19.1402 14.4681 19.1402 15.8139 19.1402C17.3092 19.1402 17.3092 19.1402 17.7578 17.7944C17.9073 17.3458 18.5055 17.1963 18.8045 17.3458C20.1503 17.9439 20.1503 17.9439 21.197 17.0467C22.2438 16 22.2438 16 21.4961 14.6542C21.4961 14.2056 21.7952 13.6075 22.0942 13.458Z" fill="white"/>
<path d="M14.6176 4.93455C14.6176 7.028 14.6176 9.12145 14.6176 11.2149C14.6176 11.3644 14.6176 11.6635 14.6176 11.813C14.7671 12.4112 15.2157 12.7102 15.6643 12.8597C16.2624 12.8597 16.711 12.5607 17.0101 12.1121C17.1596 11.9626 17.1596 11.6635 17.1596 11.3644C17.1596 9.27098 17.1596 7.028 17.1596 4.93455C17.4587 4.78502 17.6082 4.63549 17.9073 4.48596C19.1035 3.2897 19.1035 1.49532 17.9073 0.299064C17.7577 0.149532 17.4587 0 17.1596 0C17.1596 0.299064 17.0101 0.448596 17.0101 0.74766C17.0101 1.04672 17.0101 1.49532 16.8605 1.79438C16.711 2.09345 16.2624 2.39251 15.9633 2.69158C15.3652 2.09345 14.6176 1.64485 14.9166 0.598128C14.9166 0.448596 14.7671 0.149532 14.7671 0C14.6176 0.149532 14.3185 0.149532 14.169 0.299064C12.9727 1.34579 12.8232 3.2897 13.8699 4.33643C14.0194 4.63549 14.3185 4.78502 14.6176 4.93455Z" fill="white"/>
<path d="M17.4587 27.2148C18.0569 25.1214 18.655 23.1775 19.4027 21.084C19.5522 20.6354 20.0008 20.1868 20.4494 19.8878C21.9447 18.8411 23.44 17.7943 25.0849 16.7476C25.683 16.299 26.1316 16.1495 26.5802 16.7476C27.0288 17.3457 26.8793 17.7943 26.2811 18.2429C25.2344 19.2896 24.0381 20.1868 23.141 21.2336C22.8419 21.5326 22.5428 22.1308 22.6924 22.4298C23.141 23.0279 23.5896 22.7289 24.0381 22.2803C25.2344 21.2336 26.4307 20.0373 27.4774 18.9906C28.225 18.2429 28.3746 17.3457 27.926 16.299C27.7764 15.9999 27.7764 15.5513 27.926 15.2523C28.5241 14.3551 29.1222 13.6074 29.7204 12.7102C30.169 12.1121 30.6176 11.813 31.2157 12.2616C31.6643 12.5607 31.9633 13.3084 31.8138 13.757C31.3652 15.8504 30.7671 18.0934 30.169 20.1868C29.8699 21.3831 29.5708 22.5794 28.9727 23.6261C28.225 24.6728 26.8793 25.57 25.8325 26.1681C23.2905 27.5139 20.2998 27.5139 17.4587 27.2148Z" fill="white"/>
<path d="M14.4681 27.3643C12.3747 27.3643 10.4307 27.3643 8.48682 27.3643C8.18776 27.3643 7.8887 27.2148 7.73916 27.0652C6.54291 26.3176 5.19712 25.5699 4.00087 24.6727C3.25321 24.0746 2.65508 23.3269 2.35601 22.5793C1.45882 19.8877 0.860695 17.0466 0.113036 14.355C-0.0364964 13.6074 -0.186028 12.8597 0.711163 12.4111C1.60836 11.9625 2.05695 12.5606 2.50555 13.3083C2.80461 13.7569 3.10367 14.2055 3.40274 14.5046C4.00087 15.2522 4.59899 15.8503 4.00087 16.8971C3.7018 17.3457 4.1504 18.3924 4.59899 18.9905C5.64572 20.1868 6.99151 21.2335 8.18776 22.4298C8.63636 22.7288 9.08495 23.1774 9.53355 22.5793C9.68308 22.4298 9.38402 21.6821 9.08495 21.383C8.03823 20.3363 6.84197 19.2896 5.79525 18.2429C5.34665 17.7943 5.19712 17.3457 5.64572 16.7475C6.09431 16.1494 6.69244 16.2989 7.14104 16.7475C8.63636 17.7943 10.2812 18.841 11.7765 20.0372C12.2251 20.3363 12.5242 20.6354 12.6737 21.084C13.1223 23.0279 13.7204 25.1213 14.4681 27.3643Z" fill="white"/>
<path d="M8.63638 28.7102C10.7298 28.7102 12.6737 28.7102 14.7672 28.7102C14.7672 29.6074 14.7672 30.3551 14.7672 31.2522C14.7672 31.5513 14.3186 31.9999 14.0195 31.9999C12.5242 31.9999 11.0289 31.9999 9.53357 31.9999C9.23451 31.9999 8.78591 31.5513 8.78591 31.2522C8.48685 30.3551 8.63638 29.4579 8.63638 28.7102Z" fill="white"/>
<path d="M23.2905 28.7101C23.7391 31.8503 23.7391 31.8503 20.7484 31.8503C19.8512 31.8503 19.1036 31.8503 18.2064 31.8503C17.6083 31.8503 17.3092 31.5512 17.3092 30.9531C17.3092 30.2054 17.3092 29.4577 17.3092 28.5605C19.2531 28.7101 21.197 28.7101 23.2905 28.7101Z" fill="white"/>
</svg>
