<svg width="35" height="32" viewBox="0 0 35 32" fill="none" xmlns="http://www.w3.org/2000/svg">
<path d="M20.0784 32H3.13725C1.41176 32 0 30.5882 0 28.8627V3.13725C0 1.41176 1.41176 0 3.13725 0H20.0784C21.8039 0 23.2157 1.41176 23.2157 3.13725V28.8627C23.0588 30.5882 21.8039 32 20.0784 32Z" fill="white"/>
<path d="M11.6078 29.9607C12.1276 29.9607 12.549 29.5393 12.549 29.0195C12.549 28.4997 12.1276 28.0784 11.6078 28.0784C11.088 28.0784 10.6666 28.4997 10.6666 29.0195C10.6666 29.5393 11.088 29.9607 11.6078 29.9607Z" fill="#4E5FF9"/>
<mask id="mask0" mask-type="alpha" maskUnits="userSpaceOnUse" x="0" y="0" width="24" height="32">
<path d="M20.0784 32H3.13725C1.41176 32 0 30.5882 0 28.8627V3.13725C0 1.41176 1.41176 0 3.13725 0H20.0784C21.8039 0 23.2157 1.41176 23.2157 3.13725V28.8627C23.0588 30.5882 21.8039 32 20.0784 32Z" fill="url(#paint0_linear)"/>
</mask>
<g mask="url(#mask0)">
<path d="M0 5.64673H23.5294" stroke="#4E5FF9" stroke-width="1.5" stroke-miterlimit="10" stroke-linecap="round" stroke-linejoin="round"/>
<path d="M0 25.8823H25.2549" stroke="#4E5FF9" stroke-width="1.5" stroke-miterlimit="10" stroke-linecap="round" stroke-linejoin="round"/>
</g>
<path d="M10.0392 11.608V16.3139C9.56864 16.3139 8.94118 16.3139 8.4706 16.3139C8.00001 16.3139 7.84315 16.6276 8.15687 17.0982C9.09805 18.3531 10.0392 19.608 11.1373 20.8629C11.451 21.1766 11.6079 21.1766 11.9216 20.8629C12.8628 19.608 13.9608 18.3531 14.902 16.9413C15.2157 16.6276 15.0588 16.3139 14.5882 16.3139C14.1177 16.3139 13.0196 16.3139 13.0196 16.3139C13.0196 16.0001 13.0196 14.4315 13.0196 12.706V11.7648C13.0196 11.4511 12.7059 11.2943 12.549 11.2943H10.6667C10.3529 10.9805 10.0392 11.2943 10.0392 11.608Z" fill="#4E5FF9"/>
<path d="M20.0231 9.72534C20.4937 9.8822 20.8074 10.0391 20.9643 10.3528C21.1212 10.8234 21.1211 11.1371 20.8074 11.4508C20.4937 11.7646 20.18 12.2351 19.8662 12.5489C18.2976 14.9018 18.6113 18.0391 20.6506 20.0783C20.9643 20.392 21.1212 20.7057 21.1212 21.0195C21.1212 21.49 20.8074 21.8038 20.4937 21.9606C20.0231 22.1175 19.7094 21.9606 19.3957 21.6469C18.6113 20.8626 17.9839 20.0783 17.6702 18.9802C16.4153 15.6861 16.8859 12.7057 19.3957 10.0391C19.3957 10.0391 19.7094 9.8822 20.0231 9.72534Z" fill="#4E5FF9"/>
<path d="M34.5098 15.8432C34.5098 18.353 33.7255 20.2354 32.1568 21.804C31.6863 22.2746 31.0588 22.4315 30.5882 21.9609C30.1176 21.4903 30.1176 21.0197 30.5882 20.3923C32.1568 18.6668 32.6274 16.6276 32.1568 14.4315C31.8431 13.3334 31.3725 12.5491 30.5882 11.7648C30.2745 11.4511 30.1176 11.1374 30.2745 10.8236C30.2745 10.353 30.5882 10.1962 30.9019 10.0393C31.3725 9.88246 31.6863 10.0393 32 10.353C32.7843 11.1374 33.4117 11.9217 33.7255 13.0197C33.8823 13.4903 34.0392 13.9609 34.1961 14.4315C34.5098 14.9021 34.5098 15.5295 34.5098 15.8432Z" fill="white"/>
<path d="M24.6673 12.0384L24.6322 12.0034L24.5911 11.976C23.9421 11.5433 23.0471 11.5398 22.3915 12.1953C21.3564 13.2304 20.8333 14.4557 20.8333 15.9998C20.8333 17.5489 21.3591 18.759 22.3654 19.9331L22.3779 19.9476L22.3915 19.9612C22.7072 20.2769 23.1044 20.4606 23.5294 20.4606C23.9544 20.4606 24.3516 20.2769 24.6673 19.9612L24.7023 19.9262L24.7297 19.885C25.1595 19.2404 25.1659 18.3529 24.5233 17.6985C24.0507 17.1538 23.8333 16.5661 23.8333 15.9998C23.8333 15.4336 24.0506 14.846 24.5232 14.3013C24.8058 14.0145 25.0255 13.6508 25.0832 13.247C25.1447 12.8167 25.0138 12.385 24.6673 12.0384Z" fill="white" stroke="#4E5FF9"/>
<path d="M31.0587 16.0001C31.0587 17.4119 30.5881 18.5099 29.647 19.4511C29.1764 19.9217 28.5489 19.9217 28.0783 19.6079C27.6077 19.1373 27.7646 18.5099 28.2352 18.0393C29.3332 16.7844 29.3332 15.2158 28.2352 13.9609C27.7646 13.4903 27.7646 12.8628 28.2352 12.3922C28.7058 11.9217 29.3332 11.9217 29.8038 12.3922C30.5881 13.4903 31.0587 14.5883 31.0587 16.0001Z" fill="white"/>
<path d="M26.196 14.7449C26.8235 14.7449 27.4509 15.3723 27.4509 15.9998C27.4509 16.6272 26.8235 17.2547 26.196 17.2547C25.5686 17.2547 24.9411 16.6272 24.9411 15.9998C24.9411 15.3723 25.5686 14.7449 26.196 14.7449Z" fill="white"/>
<defs>
<linearGradient id="paint0_linear" x1="3.66902" y1="-15.5249" x2="19.2609" y2="46.6063" gradientUnits="userSpaceOnUse">
<stop stop-color="#FFF4E8"/>
<stop offset="0.6046" stop-color="#7D94E5"/>
<stop offset="0.9986" stop-color="#3F28DC"/>
</linearGradient>
</defs>
</svg>
