<svg width="35" height="32" viewBox="0 0 35 32" fill="none" xmlns="http://www.w3.org/2000/svg">
<path d="M12.7755 14.0411C9.09573 10.3613 9.59752 5.17611 12.441 2.33263C15.2845 -0.510846 19.8006 -0.845373 23.1459 1.83084C26.1566 4.33979 27.1602 9.02317 24.9858 12.0339L22.9786 10.8631C23.8149 9.02317 23.8149 7.18327 22.8113 5.34337C22.1423 4.17253 20.9714 3.33621 19.6333 2.83442C17.1244 1.99811 14.4482 3.16895 13.2773 5.6779C11.9392 8.52138 12.9428 11.3649 16.1208 13.372C15.4517 14.5429 14.7827 15.7137 13.9464 16.8846C13.2773 18.0554 12.441 19.2262 11.7719 20.3971C11.2702 21.2334 10.7684 22.0697 11.1029 23.4078C11.7719 25.0805 10.2666 26.9204 8.59394 27.2549C6.41952 27.5894 4.41236 25.7495 4.74688 23.2406C4.91415 21.7352 6.41952 20.7316 7.92489 20.5643C8.42668 20.5643 8.7612 20.2298 9.09573 19.8953C10.2666 18.0554 11.4374 16.0482 12.7755 14.0411Z" fill="white"/>
<path d="M16.1208 25.0803C14.4482 30.2655 10.6011 32.7744 6.25227 31.7709C2.07068 30.7673 -0.43827 27.0875 0.0635205 22.5714C0.565311 18.8916 4.24511 15.7136 7.75764 15.8808C7.75764 16.7171 7.75764 17.3862 7.75764 18.2225C6.085 18.557 4.57963 19.3934 3.57605 21.066C2.57247 22.5714 2.40521 24.4113 3.07426 26.2512C3.57605 27.7565 5.41595 29.2619 6.92132 29.4292C9.09575 29.7637 10.9356 28.9274 12.2738 27.422C13.2773 26.0839 13.6119 24.5785 13.4446 22.7386C14.4482 22.7386 15.2845 22.7386 16.1208 22.7386C18.2952 22.7386 20.3024 22.7386 22.4768 22.5714C22.8113 22.5714 23.3131 22.4041 23.6477 22.0696C24.6512 20.8987 26.1566 20.3969 27.4947 20.8987C28.8328 21.4005 29.6691 22.7386 29.5019 24.244C29.3346 25.5821 28.331 26.9202 26.9929 27.2547C25.4876 27.5893 24.1495 27.0875 23.1459 25.5821C22.9786 25.4148 22.6441 25.0803 22.4768 25.0803C20.4697 25.0803 18.2952 25.0803 16.1208 25.0803Z" fill="white"/>
<path d="M19.4661 28.0913C20.1351 27.7568 20.8042 27.255 21.6405 26.9205C22.8113 28.4258 24.3167 29.4294 26.1566 29.4294C27.662 29.4294 28.8328 29.0949 30.0037 28.2586C32.1781 26.5859 32.6799 23.7424 31.1745 21.4008C29.6691 18.7245 26.9929 18.2228 23.4804 19.5609C23.1459 19.3936 22.8113 19.3936 22.4768 19.2263C21.1387 16.8846 19.9679 14.543 18.6298 12.2013C18.4625 11.6995 18.128 11.5322 17.4589 11.365C15.9535 11.1977 14.7827 10.0268 14.4482 8.52148C14.2809 7.18337 14.95 5.84526 16.2881 5.17621C17.6262 4.50715 19.2988 4.84168 20.3024 5.84526C21.306 6.84884 21.4732 8.35421 20.8042 9.69232C20.4697 10.1941 20.4697 10.5286 20.8042 11.0304C21.8078 12.8703 22.8113 14.543 23.8149 16.3829C26.4911 15.7138 28.8328 15.8811 31.1745 17.5537C32.5126 18.5573 33.5162 19.8954 34.018 21.4008C35.1888 24.746 33.8507 28.5931 31.0073 30.6003C27.1602 33.2765 21.975 31.9384 19.4661 28.0913Z" fill="white"/>
</svg>
