<svg width="35" height="32" viewBox="0 0 35 32" fill="none" xmlns="http://www.w3.org/2000/svg">
<path d="M20.0784 32H3.13725C1.41176 32 0 30.5882 0 28.8627V3.13725C0 1.41176 1.41176 0 3.13725 0H20.0784C21.8039 0 23.2157 1.41176 23.2157 3.13725V28.8627C23.0588 30.5882 21.8039 32 20.0784 32Z" fill="url(#paint0_linear)"/>
<path d="M11.6078 29.9606C12.1276 29.9606 12.549 29.5392 12.549 29.0194C12.549 28.4996 12.1276 28.0782 11.6078 28.0782C11.088 28.0782 10.6666 28.4996 10.6666 29.0194C10.6666 29.5392 11.088 29.9606 11.6078 29.9606Z" fill="white"/>
<mask id="mask0" mask-type="alpha" maskUnits="userSpaceOnUse" x="0" y="0" width="24" height="32">
<path d="M20.0784 32H3.13725C1.41176 32 0 30.5882 0 28.8627V3.13725C0 1.41176 1.41176 0 3.13725 0H20.0784C21.8039 0 23.2157 1.41176 23.2157 3.13725V28.8627C23.0588 30.5882 21.8039 32 20.0784 32Z" fill="url(#paint1_linear)"/>
</mask>
<g mask="url(#mask0)">
<path d="M0 5.64685H23.5294" stroke="white" stroke-width="0.8613" stroke-miterlimit="10" stroke-linecap="round" stroke-linejoin="round"/>
<path d="M0 25.8823H23.5294" stroke="white" stroke-width="0.8613" stroke-miterlimit="10" stroke-linecap="round" stroke-linejoin="round"/>
</g>
<path d="M34.1961 14.4314H29.4902C29.4902 13.9608 29.4902 13.3334 29.4902 12.8628C29.4902 12.3922 29.1765 12.2354 28.7059 12.5491C27.451 13.4903 26.1961 14.4314 24.9412 15.5295C24.6274 15.8432 24.6274 16.0001 24.9412 16.3138C26.1961 17.255 27.451 18.353 28.8627 19.2942C29.1765 19.6079 29.4902 19.451 29.4902 18.9805C29.4902 18.5099 29.4902 17.4118 29.4902 17.4118C29.8039 17.4118 31.3725 17.4118 33.098 17.4118H34.0392C34.3529 17.4118 34.5098 17.0981 34.5098 16.9412V15.0589C34.6667 14.7452 34.5098 14.4314 34.1961 14.4314Z" fill="#33EDB0"/>
<path d="M7.05886 10.6667C7.52944 10.6667 7.68631 10.8236 7.84317 11.2942C8.00003 11.6079 8.00003 11.9216 7.68631 12.2354C7.52944 12.5491 7.21572 12.8628 7.05886 13.1766C5.80395 15.2158 5.96082 17.8824 7.68631 19.6079C7.84317 19.9216 8.15689 20.0785 8.00003 20.3922C8.00003 20.706 7.84317 21.0197 7.37258 21.1766C7.05885 21.3334 6.74513 21.1766 6.4314 20.8628C5.80395 20.2354 5.33336 19.4511 5.01964 18.6667C3.9216 16.0001 4.39219 13.3334 6.4314 11.1373C6.58827 10.9805 6.90199 10.8236 7.05886 10.6667Z" fill="white"/>
<path d="M18.8236 15.8432C18.8236 18.0393 18.1961 19.6079 16.7843 21.0197C16.3138 21.4903 15.8432 21.4903 15.3726 21.1766C15.0589 20.8628 15.0589 20.2354 15.3726 19.9217C16.7843 18.5099 17.0981 16.7844 16.6275 14.7452C16.4706 13.804 16 13.0197 15.3726 12.3922C15.2157 12.0785 15.0589 11.9217 15.0589 11.6079C15.0589 11.2942 15.3726 10.9805 15.6863 10.9805C16 10.8236 16.3138 10.9805 16.6275 11.2942C17.2549 11.9217 17.7255 12.706 18.0392 13.4903C18.1961 13.9609 18.4443 14.2746 18.4443 14.7452C18.758 15.0589 18.8236 15.4143 18.8236 15.8432Z" fill="white"/>
<path d="M7.37258 16.0001C7.37258 14.902 7.84317 13.804 8.62748 13.0197C9.09807 12.5491 9.56866 12.5491 10.0392 12.8628C10.353 13.1765 10.353 13.804 9.88239 14.1177C8.94121 15.2158 8.94121 16.4707 9.88239 17.5687C10.1961 18.0393 10.353 18.5099 9.88239 18.8236C9.56866 19.1373 8.94121 19.1373 8.62748 18.8236C7.84317 18.1961 7.37258 17.255 7.37258 16.0001Z" fill="white"/>
<path d="M15.6863 16C15.6863 17.098 15.2157 18.1961 14.4314 18.9804C14.1177 19.451 13.4902 19.451 13.1765 19.1372C12.8628 18.8235 12.8628 18.1961 13.3334 17.8823C14.2745 16.7843 14.2745 15.5294 13.3334 14.4314C13.0196 13.9608 12.8628 13.4902 13.3334 13.1765C13.6471 12.8627 14.2745 12.8627 14.5883 13.1765C15.3726 13.8039 15.6863 14.9019 15.6863 16Z" fill="white"/>
<path d="M11.6079 14.902C12.2353 14.902 12.7059 15.3726 12.7059 16C12.7059 16.6275 12.2353 17.0981 11.6079 17.0981C10.9804 17.0981 10.5098 16.6275 10.5098 16C10.5098 15.3726 10.9804 14.902 11.6079 14.902Z" fill="white"/>
<defs>
<linearGradient id="paint0_linear" x1="3.66902" y1="-15.5249" x2="19.2609" y2="46.6063" gradientUnits="userSpaceOnUse">
<stop stop-color="#FFF4E8"/>
<stop offset="0.6046" stop-color="#7D94E5"/>
<stop offset="0.9986" stop-color="#3F28DC"/>
</linearGradient>
<linearGradient id="paint1_linear" x1="3.66902" y1="-15.5249" x2="19.2609" y2="46.6063" gradientUnits="userSpaceOnUse">
<stop stop-color="#FFF4E8"/>
<stop offset="0.6046" stop-color="#7D94E5"/>
<stop offset="0.9986" stop-color="#3F28DC"/>
</linearGradient>
</defs>
</svg>
