<svg width="35" height="34" viewBox="0 0 35 34" fill="none" xmlns="http://www.w3.org/2000/svg">
<path d="M29.4678 5.28137C32.0149 8.27799 33.5132 12.1736 33.5132 16.3689C33.5132 19.815 32.4644 22.9614 30.8163 25.6584C29.6176 27.4563 28.1193 29.1045 26.3214 30.3031" stroke="#33EDB0" stroke-width="1.5" stroke-miterlimit="10" stroke-linecap="round" stroke-linejoin="round"/>
<path d="M5.94442 4.2323C2.79797 7.37875 1 11.574 1 16.3686C1 19.8147 2.04882 22.9612 3.69696 25.6581C4.59594 27.0066 5.64476 28.2052 6.8434 29.2541" stroke="#33EDB0" stroke-width="1.5" stroke-miterlimit="10" stroke-linecap="round" stroke-linejoin="round"/>
<path d="M8.34171 33C9.5002 33 10.4393 32.0608 10.4393 30.9023C10.4393 29.7438 9.5002 28.8047 8.34171 28.8047C7.18322 28.8047 6.24408 29.7438 6.24408 30.9023C6.24408 32.0608 7.18322 33 8.34171 33Z" stroke="#33EDB0" stroke-width="1.5" stroke-miterlimit="10" stroke-linecap="round" stroke-linejoin="round"/>
<path d="M28.3452 5.19526C29.5037 5.19526 30.4428 4.25612 30.4428 3.09763C30.4428 1.93914 29.5037 1 28.3452 1C27.1867 1 26.2475 1.93914 26.2475 3.09763C26.2475 4.25612 27.1867 5.19526 28.3452 5.19526Z" stroke="#33EDB0" stroke-width="1.5" stroke-miterlimit="10" stroke-linecap="round" stroke-linejoin="round"/>
<path d="M12.6868 16.3686C10.8888 16.3686 9.54036 16.2188 8.19188 15.9192C7.74239 15.7693 7.74239 15.7693 7.74239 15.3198C8.04205 14.1212 8.94103 13.2222 10.1397 12.9225C10.2895 12.9225 10.4393 12.9225 10.4393 13.0724C10.739 13.2222 11.1885 13.5219 11.4882 13.8215C11.7878 14.1212 11.7878 14.1212 12.0875 13.8215C12.3871 13.5219 12.8366 13.2222 13.1363 12.9225C13.2861 12.9225 13.2861 12.7727 13.436 12.7727C14.6346 13.0724 15.5336 13.8215 15.8333 15.17C15.9831 15.6195 15.8333 15.7693 15.3838 15.7693C14.4848 16.069 13.2861 16.2188 12.6868 16.3686Z" fill="url(#paint0_linear)"/>
<path d="M9.69019 9.92593C9.69019 8.57745 10.5892 7.67847 11.9376 7.67847C13.1363 7.67847 14.1851 8.72728 14.1851 9.92593C14.1851 11.2744 13.2861 12.1734 11.9376 12.1734C10.5892 12.1734 9.69019 11.1246 9.69019 9.92593Z" fill="url(#paint1_linear)"/>
<path d="M23.3248 16.3686C21.5268 16.3686 20.1783 16.2188 18.8299 15.9191C18.3804 15.7693 18.3804 15.7693 18.3804 15.3198C18.68 14.1211 19.579 13.2221 20.7777 12.9225C20.9275 12.9225 21.0773 12.9225 21.0773 13.0723C21.377 13.372 21.8265 13.6716 22.1262 13.9713C22.4258 14.271 22.4258 14.271 22.7255 13.9713C23.0251 13.6716 23.4746 13.372 23.7743 13.0723C23.9241 13.0723 23.9241 12.9225 24.074 12.9225C25.2726 13.2221 26.1716 13.9713 26.4712 15.3198C26.6211 15.7693 26.4712 15.9191 26.0218 15.9191C25.1228 16.0689 23.9241 16.2188 23.3248 16.3686Z" fill="url(#paint2_linear)"/>
<path d="M20.3282 9.92593C20.3282 8.57745 21.2272 7.67847 22.5756 7.67847C23.7743 7.67847 24.8231 8.72728 24.8231 9.92593C24.8231 11.2744 23.9241 12.1734 22.5756 12.1734C21.2272 12.1734 20.3282 11.1246 20.3282 9.92593Z" fill="url(#paint3_linear)"/>
<path d="M17.4814 25.9578C15.6834 25.9578 14.3349 25.808 12.9865 25.5083C12.537 25.3585 12.537 25.3585 12.537 24.909C12.8366 23.7104 13.7356 22.8114 14.9343 22.5117C15.0841 22.5117 15.2339 22.5117 15.2339 22.6615C15.5336 22.9612 15.9831 23.2609 16.2827 23.5605C16.5824 23.8602 16.5824 23.8602 16.8821 23.5605C17.1817 23.2609 17.6312 22.9612 17.9309 22.6615C18.0807 22.6615 18.0807 22.5117 18.2305 22.5117C19.4292 22.8114 20.3282 23.5605 20.6278 24.909C20.7777 25.3585 20.6278 25.5083 20.1783 25.5083C19.2794 25.6582 18.2305 25.808 17.4814 25.9578Z" fill="url(#paint4_linear)"/>
<path d="M14.4848 19.5152C14.4848 18.1667 15.3838 17.2677 16.7322 17.2677C17.9309 17.2677 18.9797 18.3165 18.9797 19.5152C18.9797 20.8636 18.0807 21.7626 16.7322 21.7626C15.5336 21.7626 14.4848 20.7138 14.4848 19.5152Z" fill="url(#paint5_linear)"/>
<defs>
<linearGradient id="paint0_linear" x1="11.9639" y1="-6.80209" x2="11.6855" y2="49.1274" gradientUnits="userSpaceOnUse">
<stop stop-color="#FFF4E8"/>
<stop offset="0.6046" stop-color="#7D94E5"/>
<stop offset="0.9986" stop-color="#3F28DC"/>
</linearGradient>
<linearGradient id="paint1_linear" x1="11.9562" y1="-10.8221" x2="11.678" y2="45.1073" gradientUnits="userSpaceOnUse">
<stop stop-color="#FFF4E8"/>
<stop offset="0.6046" stop-color="#7D94E5"/>
<stop offset="0.9986" stop-color="#3F28DC"/>
</linearGradient>
<linearGradient id="paint2_linear" x1="22.6153" y1="-5.58717" x2="22.3371" y2="50.3423" gradientUnits="userSpaceOnUse">
<stop stop-color="#FFF4E8"/>
<stop offset="0.6046" stop-color="#7D94E5"/>
<stop offset="0.9986" stop-color="#3F28DC"/>
</linearGradient>
<linearGradient id="paint3_linear" x1="22.6135" y1="-10.7692" x2="22.3353" y2="45.1603" gradientUnits="userSpaceOnUse">
<stop stop-color="#FFF4E8"/>
<stop offset="0.6046" stop-color="#7D94E5"/>
<stop offset="0.9986" stop-color="#3F28DC"/>
</linearGradient>
<linearGradient id="paint4_linear" x1="16.8822" y1="-7.74287" x2="16.604" y2="48.1866" gradientUnits="userSpaceOnUse">
<stop stop-color="#FFF4E8"/>
<stop offset="0.6046" stop-color="#7D94E5"/>
<stop offset="0.9986" stop-color="#3F28DC"/>
</linearGradient>
<linearGradient id="paint5_linear" x1="16.8698" y1="-10.7976" x2="16.5915" y2="45.1317" gradientUnits="userSpaceOnUse">
<stop stop-color="#FFF4E8"/>
<stop offset="0.6046" stop-color="#7D94E5"/>
<stop offset="0.9986" stop-color="#3F28DC"/>
</linearGradient>
</defs>
</svg>
