<svg width="34" height="32" viewBox="0 0 34 32" fill="none" xmlns="http://www.w3.org/2000/svg">
<path d="M24.5332 26.057H2.13332C0.914279 26.057 0 25.1427 0 23.9236V7.31423C0 6.09519 0.914279 5.18091 2.13332 5.18091H24.5332C25.7522 5.18091 26.6665 6.09519 26.6665 7.31423V23.9236C26.5141 24.9903 25.5998 26.057 24.5332 26.057Z" fill="url(#paint0_linear)"/>
<mask id="mask0" mask-type="alpha" maskUnits="userSpaceOnUse" x="0" y="5" width="27" height="22">
<path d="M24.5332 26.0568H2.13336C0.914317 26.0568 3.8147e-05 25.1426 3.8147e-05 23.9235V7.3141C3.8147e-05 6.09507 0.914317 5.18079 2.13336 5.18079H24.5332C25.7522 5.18079 26.6665 6.09507 26.6665 7.3141V23.9235C26.5141 24.9902 25.5999 26.0568 24.5332 26.0568Z" fill="url(#paint1_linear)"/>
</mask>
<g mask="url(#mask0)">
<path d="M17.3713 14.0189H26.8188" stroke="white" stroke-width="0.8613" stroke-miterlimit="10" stroke-linecap="round" stroke-linejoin="round"/>
<path d="M-0.60952 14.0189H9.29517" stroke="white" stroke-width="0.8613" stroke-miterlimit="10" stroke-linecap="round" stroke-linejoin="round"/>
</g>
<path d="M17.0665 12.0381H9.44756V16.7619H17.0665V12.0381Z" stroke="white" stroke-width="0.8613" stroke-miterlimit="10" stroke-linecap="round" stroke-linejoin="round"/>
<path d="M13.257 1.5238C15.3904 1.5238 17.0665 1.5238 17.0665 5.3333H18.5903V3.8095C18.5903 1.67618 16.9142 0 14.7808 0H11.7332C9.59993 0 7.92375 1.67618 7.92375 3.8095V5.3333H9.44755C9.44755 3.19998 9.14279 1.06666 13.257 1.5238Z" fill="url(#paint2_linear)"/>
<path d="M24.6855 32C29.5666 32 33.5235 28.0431 33.5235 23.162C33.5235 18.2809 29.5666 14.324 24.6855 14.324C19.8044 14.324 15.8475 18.2809 15.8475 23.162C15.8475 28.0431 19.8044 32 24.6855 32Z" fill="#33EDB0"/>
<path d="M25.7522 26.3617C24.8379 26.3617 23.9236 26.3617 23.0093 26.3617C22.8569 26.3617 22.7046 26.5141 22.5522 26.5141C21.7903 27.276 21.0284 28.0379 20.2665 28.7998C19.9617 29.1046 19.8093 29.1046 19.5046 28.9522C19.1998 28.7998 19.1998 28.495 19.1998 28.1903C19.1998 27.5808 19.1998 26.9712 19.1998 26.3617C19.1998 26.2093 19.3522 25.9046 19.5046 25.7522C20.2665 24.8379 21.1808 24.076 22.095 23.1617C22.2474 23.0094 22.5522 22.857 22.7046 22.857C24.2284 22.857 25.7522 22.857 27.276 22.857C27.7331 22.857 28.0379 23.1617 28.0379 23.4665C28.0379 23.9236 27.7331 24.076 27.276 24.076C26.6664 24.076 26.2093 24.076 25.5998 24.076C25.4474 24.076 25.4474 24.2284 25.295 24.2284C25.4474 24.2284 25.4474 24.3808 25.5998 24.3808C26.6664 24.3808 27.5807 24.3808 28.6474 24.3808C28.7998 24.3808 28.9521 24.2284 28.9521 24.2284C29.5617 23.6189 30.1712 23.0094 30.9331 22.2475C31.2378 21.9427 31.695 21.9427 31.8474 22.0951C32.1521 22.3998 32.1521 22.7046 31.695 23.0094C30.7807 23.9236 30.0188 24.6855 29.1045 25.5998C28.9521 25.7522 28.6474 25.9046 28.3426 25.9046C27.5807 26.3617 26.6664 26.3617 25.7522 26.3617Z" fill="white"/>
<path d="M26.5141 21.6381C27.524 21.6381 28.3427 20.8194 28.3427 19.8095C28.3427 18.7996 27.524 17.981 26.5141 17.981C25.5042 17.981 24.6856 18.7996 24.6856 19.8095C24.6856 20.8194 25.5042 21.6381 26.5141 21.6381Z" fill="white"/>
<path d="M24.6855 16.7618C23.6189 16.7618 22.857 17.5237 22.857 18.5904C22.857 19.1999 23.4665 19.9618 24.2284 20.1142C24.2284 19.5047 24.076 17.9809 26.2093 17.5237C25.9046 17.0666 25.2951 16.7618 24.6855 16.7618Z" fill="white"/>
<defs>
<linearGradient id="paint0_linear" x1="13.3683" y1="-14.7987" x2="13.195" y2="53.3924" gradientUnits="userSpaceOnUse">
<stop stop-color="#FFF4E8"/>
<stop offset="0.6046" stop-color="#7D94E5"/>
<stop offset="0.9986" stop-color="#3F28DC"/>
</linearGradient>
<linearGradient id="paint1_linear" x1="13.3683" y1="-14.7988" x2="13.1951" y2="53.3923" gradientUnits="userSpaceOnUse">
<stop stop-color="#FFF4E8"/>
<stop offset="0.6046" stop-color="#7D94E5"/>
<stop offset="0.9986" stop-color="#3F28DC"/>
</linearGradient>
<linearGradient id="paint2_linear" x1="14.3502" y1="-10.5069" x2="12.3356" y2="17.9348" gradientUnits="userSpaceOnUse">
<stop stop-color="#FFF4E8"/>
<stop offset="0.6046" stop-color="#7D94E5"/>
<stop offset="0.9986" stop-color="#3F28DC"/>
</linearGradient>
</defs>
</svg>
