<svg width="32" height="32" viewBox="0 0 32 32" fill="none" xmlns="http://www.w3.org/2000/svg">
<path d="M28.878 32H4.99512C3.59024 32 2.34146 30.9073 2.34146 29.3463V2.65366C2.34146 1.24878 3.43414 0 4.99512 0H28.878C30.2829 0 31.5317 1.09268 31.5317 2.65366V29.3463C31.5317 30.7512 30.2829 32 28.878 32Z" fill="url(#paint0_linear)"/>
<path d="M5.15122 8.58533H1.56098C0.780488 8.58533 0 7.96094 0 7.02435C0 6.24387 0.62439 5.46338 1.56098 5.46338H5.15122C5.93171 5.46338 6.7122 6.08777 6.7122 7.02435C6.7122 7.80484 6.0878 8.58533 5.15122 8.58533Z" fill="white"/>
<path d="M5.15122 17.795H1.56098C0.780488 17.795 0 17.1707 0 16.2341C0 15.4536 0.62439 14.6731 1.56098 14.6731H5.15122C5.93171 14.6731 6.7122 15.2975 6.7122 16.2341C6.7122 17.1707 6.0878 17.795 5.15122 17.795Z" fill="white"/>
<path d="M5.15122 27.1608H1.56098C0.780488 27.1608 0 26.5364 0 25.5998C0 24.8193 0.62439 24.0388 1.56098 24.0388H5.15122C5.93171 24.0388 6.7122 24.6632 6.7122 25.5998C6.7122 26.3803 6.0878 27.1608 5.15122 27.1608Z" fill="white"/>
<path d="M11.8634 19.8242H23.8829" stroke="white" stroke-width="1.5" stroke-miterlimit="10" stroke-linecap="round" stroke-linejoin="round"/>
<path d="M13.5804 27.1609C13.8926 26.5365 14.3609 26.0682 14.6731 25.4438C14.9853 24.9755 15.2975 24.3511 15.7658 23.8828C15.9219 23.5706 16.3902 23.5706 16.5463 23.8828C16.7024 24.0389 16.7024 24.3511 16.5463 24.5072C16.078 25.2877 15.6097 25.9121 15.1414 26.6926C14.8292 27.1609 14.517 27.6292 14.2048 28.0975C13.8926 28.4097 13.5804 28.5658 13.2683 28.2536C12.8 27.7853 12.4878 27.4731 12.0195 27.0048C11.8634 26.8487 11.8634 26.6926 11.8634 26.5365C12.0195 26.0682 12.4878 26.0682 12.8 26.2243C12.9561 26.5365 13.2682 26.6926 13.5804 27.1609C13.5804 27.0048 13.5804 27.0048 13.5804 27.1609Z" fill="white"/>
<path d="M18.2634 15.4536C21.798 15.4536 24.6634 12.5882 24.6634 9.05357C24.6634 5.51894 21.798 2.65356 18.2634 2.65356C14.7287 2.65356 11.8634 5.51894 11.8634 9.05357C11.8634 12.5882 14.7287 15.4536 18.2634 15.4536Z" fill="white"/>
<path d="M20.9171 27.1609C21.2293 26.5365 21.6975 26.0682 22.0097 25.4438C22.3219 24.9755 22.6341 24.3511 23.1024 23.8828C23.2585 23.5706 23.7268 23.5706 23.8829 23.8828C24.039 24.0389 24.039 24.3511 23.8829 24.5072C23.4146 25.2877 22.9463 25.9121 22.478 26.6926C22.1658 27.1609 21.8536 27.6292 21.5414 28.0975C21.2292 28.4097 20.9171 28.5658 20.6049 28.2536C20.1366 27.7853 19.8244 27.4731 19.3561 27.0048C19.2 26.8487 19.2 26.6926 19.2 26.5365C19.3561 26.0682 19.8244 26.0682 20.1366 26.2243C20.2927 26.5365 20.4488 26.6926 20.9171 27.1609C20.761 27.0048 20.761 27.0048 20.9171 27.1609Z" fill="white"/>
<path d="M19.2 13.5802C17.3268 13.5802 15.922 13.4241 14.5171 13.1119C14.0488 12.9558 14.0488 12.9558 14.0488 12.4876C14.361 11.0827 15.2976 10.3022 16.5463 9.98999C16.7024 9.98999 16.8585 9.98999 16.8585 10.1461C17.1707 10.4583 17.639 10.7705 17.9512 11.0827C18.2634 11.3949 18.2634 11.3949 18.5756 11.0827C18.8878 10.7705 19.3561 10.4583 19.6683 10.1461C19.8244 10.1461 19.8244 9.98999 19.9805 9.98999C21.2293 10.3022 22.1659 11.0827 22.4781 12.4876C22.6341 12.9558 22.4781 13.1119 22.0098 13.1119C20.761 13.5802 20.2927 13.5802 19.2 13.5802Z" fill="#33EDB0"/>
<path d="M16.078 6.86807C16.078 5.4632 17.0146 4.52661 18.2634 4.52661C19.5122 4.52661 20.6049 5.61929 20.6049 6.86807C20.6049 8.27295 19.6683 9.20954 18.2634 9.20954C17.0146 9.20954 16.078 8.27295 16.078 6.86807Z" fill="#33EDB0"/>
<defs>
<linearGradient id="paint0_linear" x1="17.3737" y1="-15.3163" x2="16.4013" y2="56.2487" gradientUnits="userSpaceOnUse">
<stop stop-color="#FFF4E8"/>
<stop offset="0.6046" stop-color="#7D94E5"/>
<stop offset="0.9986" stop-color="#3F28DC"/>
</linearGradient>
</defs>
</svg>
