<svg xmlns="http://www.w3.org/2000/svg" xmlns:xlink="http://www.w3.org/1999/xlink" width="24" height="24" viewBox="0 0 24 24">
  <defs>
    <linearGradient id="linear-gradient" x1="0.5" y1="-0.297" x2="0.5" y2="1" gradientUnits="objectBoundingBox">
      <stop offset="0" stop-color="#fff4e8"/>
      <stop offset="0.605" stop-color="#7d94e5"/>
      <stop offset="0.999" stop-color="#3f28dc"/>
    </linearGradient>
  </defs>
  <g id="Group_20315" data-name="Group 20315" transform="translate(683 2001)">
    <g id="Customer_experience" transform="translate(-934 -2165)">
      <rect id="Rectangle_2401" data-name="Rectangle 2401" width="24" height="24" transform="translate(251 164)" fill="none"/>
    </g>
    <g id="Group_20314" data-name="Group 20314" transform="translate(-1102.199 -5688.547)">
      <path id="Path_17643" data-name="Path 17643" d="M6.908,6.908a3.326,3.326,0,0,1-2.44-1.015,3.326,3.326,0,0,1-1.015-2.44,3.326,3.326,0,0,1,1.015-2.44A3.326,3.326,0,0,1,6.908,0a3.326,3.326,0,0,1,2.44,1.015,3.326,3.326,0,0,1,1.015,2.44,3.326,3.326,0,0,1-1.015,2.44A3.326,3.326,0,0,1,6.908,6.908ZM0,13.817V11.4A2.576,2.576,0,0,1,1.382,9.11a12.836,12.836,0,0,1,2.72-1,11.952,11.952,0,0,1,5.613,0,12.835,12.835,0,0,1,2.72,1A2.576,2.576,0,0,1,13.817,11.4v2.418Z" transform="translate(424.074 3696.423)" fill="url(#linear-gradient)"/>
      <path id="Path_17644" data-name="Path 17644" d="M3.606,5.635l1.534.928a.369.369,0,0,0,.551-.4L5.284,4.419,6.64,3.244A.369.369,0,0,0,6.43,2.6L4.644,2.446,3.946.8a.37.37,0,0,0-.68,0l-.7,1.645L.782,2.593a.369.369,0,0,0-.211.647L1.928,4.416,1.521,6.16a.369.369,0,0,0,.551.4l1.534-.924Z" transform="translate(427.376 3688.282)" fill="#33edb0"/>
      <path id="Path_17645" data-name="Path 17645" d="M2.821,4.379l1.153.7a.277.277,0,0,0,.414-.3L4.082,3.464,5.1,2.581a.277.277,0,0,0-.158-.486L3.6,1.981,3.076.741a.278.278,0,0,0-.511,0L2.04,1.978.7,2.092a.277.277,0,0,0-.158.486l1.02.884L1.254,4.773a.277.277,0,0,0,.414.3l1.153-.695Z" transform="translate(433.702 3691.305)" fill="#33edb0"/>
      <path id="Path_17647" data-name="Path 17647" d="M2.428,3.75l.963.582a.231.231,0,0,0,.346-.251l-.255-1.1.851-.738A.232.232,0,0,0,4.2,1.843l-1.121-.1L2.642.713a.232.232,0,0,0-.427,0L1.776,1.746l-1.121.1a.232.232,0,0,0-.132.406l.851.738L1.12,4.08a.231.231,0,0,0,.346.251l.963-.58Z" transform="translate(437.882 3695.85)" fill="#33edb0"/>
      <path id="Path_17648" data-name="Path 17648" d="M2.428,3.75l.963.582a.231.231,0,0,0,.346-.251l-.255-1.1.851-.738A.232.232,0,0,0,4.2,1.843l-1.121-.1L2.642.713a.232.232,0,0,0-.427,0L1.776,1.746l-1.121.1a.232.232,0,0,0-.132.406l.851.738L1.12,4.08a.231.231,0,0,0,.346.251l.963-.58Z" transform="translate(419.66 3695.85)" fill="#33edb0"/>
      <path id="Path_17646" data-name="Path 17646" d="M2.821,4.379l1.153.7a.277.277,0,0,0,.414-.3L4.082,3.464,5.1,2.581a.277.277,0,0,0-.158-.486L3.6,1.981,3.076.741a.278.278,0,0,0-.511,0L2.04,1.978.7,2.092a.277.277,0,0,0-.158.486l1.02.884L1.254,4.773a.277.277,0,0,0,.414.3l1.153-.695Z" transform="translate(422.621 3691.305)" fill="#33edb0"/>
    </g>
  </g>
</svg>
