<svg xmlns="http://www.w3.org/2000/svg" width="34.419" height="42" viewBox="0 0 34.419 42">
  <g id="data-cable_5891611" transform="translate(-15.247 -10.146)">
    <g id="Group_19714" data-name="Group 19714" transform="translate(15.247 16.785)">
      <g id="Group_19713" data-name="Group 19713">
        <g id="Group_19712" data-name="Group 19712">
          <g id="Group_19711" data-name="Group 19711">
            <g id="Group_19710" data-name="Group 19710">
              <g id="Group_19709" data-name="Group 19709">
                <path id="Path_26865" data-name="Path 26865" d="M17.84,33.349H30.278L32.6,31.031a.928.928,0,0,0,.278-.659V18.118a.931.931,0,0,0-.928-.928H16.175a.931.931,0,0,0-.928.928V30.372a.959.959,0,0,0,.269.659Z" transform="translate(-15.247 -17.19)" fill="#85e6c4"/>
              </g>
            </g>
          </g>
        </g>
      </g>
    </g>
    <g id="Group_19720" data-name="Group 19720" transform="translate(19.155 32.224)">
      <g id="Group_19719" data-name="Group 19719" transform="translate(0)">
        <g id="Group_19718" data-name="Group 19718">
          <g id="Group_19717" data-name="Group 19717">
            <g id="Group_19716" data-name="Group 19716">
              <g id="Group_19715" data-name="Group 19715">
                <path id="Path_26866" data-name="Path 26866" d="M18.59,32.6v4.523a4.906,4.906,0,1,0,9.812,0V32.6Z" transform="translate(-18.59 -32.603)" fill="#6d44e5"/>
              </g>
            </g>
          </g>
        </g>
      </g>
    </g>
    <g id="Group_19725" data-name="Group 19725" transform="translate(23.06 23.727)">
      <g id="Group_19724" data-name="Group 19724">
        <g id="Group_19723" data-name="Group 19723">
          <g id="Group_19722" data-name="Group 19722">
            <g id="Group_19721" data-name="Group 19721">
              <path id="Path_26867" data-name="Path 26867" d="M30.417,53.96a8.434,8.434,0,0,1-8.424-8.424V42.3a.928.928,0,0,1,1.857,0v3.237a6.567,6.567,0,1,0,13.135,0V31.349a5.807,5.807,0,1,1,11.614,0v18.1a.928.928,0,1,1-1.857,0v-18.1a3.95,3.95,0,1,0-7.9,0V45.536A8.433,8.433,0,0,1,30.417,53.96Z" transform="translate(-21.992 -25.542)" fill="#6d44e5"/>
            </g>
          </g>
        </g>
      </g>
    </g>
    <g id="Group_19730" data-name="Group 19730" transform="translate(18.31 10.146)">
      <g id="Group_19729" data-name="Group 19729">
        <g id="Group_19728" data-name="Group 19728">
          <g id="Group_19727" data-name="Group 19727">
            <g id="Group_19726" data-name="Group 19726">
              <path id="Path_26868" data-name="Path 26868" d="M29.369,11.074v8.234h-11.5V11.074a.925.925,0,0,1,.928-.928h9.645A.931.931,0,0,1,29.369,11.074Z" transform="translate(-17.867 -10.146)" fill="#85e6c4"/>
            </g>
          </g>
        </g>
      </g>
    </g>
  </g>
</svg>
