<svg xmlns="http://www.w3.org/2000/svg" width="42" height="42" viewBox="0 0 42 42">
  <g id="Group_19894" data-name="Group 19894" transform="translate(-6908 5466)">
    <g id="move-button_1723050" transform="translate(6908 -5466)">
      <path id="Path_27066" data-name="Path 27066" d="M21,0A21,21,0,1,0,42,21,21,21,0,0,0,21,0ZM11.242,24.457a1.05,1.05,0,1,1-1.485,1.485l-4.2-4.2a1.05,1.05,0,0,1,0-1.485l4.2-4.2a1.05,1.05,0,0,1,1.485,1.485L7.785,21Zm14.7,7.785-4.2,4.2a1.049,1.049,0,0,1-1.485,0l-4.2-4.2a1.05,1.05,0,0,1,1.485-1.485L21,34.215l3.458-3.458a1.05,1.05,0,0,1,1.485,1.485ZM21,26.25A5.25,5.25,0,1,1,26.25,21,5.25,5.25,0,0,1,21,26.25Zm4.943-15.008a1.05,1.05,0,0,1-1.485,0L21,7.785l-3.458,3.458a1.05,1.05,0,0,1-1.485-1.485l4.2-4.2a1.05,1.05,0,0,1,1.485,0l4.2,4.2A1.05,1.05,0,0,1,25.942,11.242Zm6.3,14.7a1.05,1.05,0,0,1-1.485-1.485L34.215,21l-3.458-3.458a1.05,1.05,0,0,1,1.485-1.485l4.2,4.2a1.049,1.049,0,0,1,0,1.485Zm0,0" fill="#6d44e5"/>
      <path id="Path_27067" data-name="Path 27067" d="M187.516,184.424a3.092,3.092,0,1,1-3.092-3.092A3.092,3.092,0,0,1,187.516,184.424Zm0,0" transform="translate(-163.424 -163.424)" fill="#6d44e5"/>
    </g>
    <ellipse id="Ellipse_6090" data-name="Ellipse 6090" cx="5.5" cy="5" rx="5.5" ry="5" transform="translate(6923.383 -5450.056)" fill="#85e6c4"/>
  </g>
</svg>
