<svg xmlns="http://www.w3.org/2000/svg" width="42" height="42" viewBox="0 0 42 42">
  <g id="translator_2630489" transform="translate(-1.32 -1.288)">
    <path id="Path_27051" data-name="Path 27051" d="M45.762,26.467l-5.152,3.22v3.22a3.864,3.864,0,0,1-3.864,3.864H20a3.864,3.864,0,0,1-3.864-3.864V20.028A3.863,3.863,0,0,1,20,16.164H36.747a3.864,3.864,0,0,1,3.864,3.864v3.22Z" transform="translate(-14.821 -14.863)" fill="#81e6c6"/>
    <path id="Path_27052" data-name="Path 27052" d="M71.367,26.321l-5.152,3.22c0,3.2.08,3.8-.248,4.582-.912.345.022.247-18.1.247A3.864,3.864,0,0,1,44,30.506c0-13.862-.1-13.33.247-14.242.916-.345-.041-.247,18.105-.247a3.864,3.864,0,0,1,3.864,3.864V23.1Z" transform="translate(-40.426 -14.716)" fill="#85e6c4"/>
    <path id="Path_27053" data-name="Path 27053" d="M157.762,244.028c0,13.862.1,13.33-.247,14.242a3.865,3.865,0,0,1-3.617,2.5H137.156a3.864,3.864,0,0,1-3.864-3.864v-3.22l-5.152-3.22,5.152-3.22c0-3.373-.071-3.686.22-4.508h6.22a3.866,3.866,0,0,0,3.644-2.576H153.9A3.864,3.864,0,0,1,157.762,244.028Z" transform="translate(-114.455 -217.482)" fill="#6d44e5"/>
    <path id="Path_27054" data-name="Path 27054" d="M242.357,244.028v12.893a1.608,1.608,0,0,1-1.61,1.6H224a3.864,3.864,0,0,1-3.864-3.864V242.74h4.186a3.863,3.863,0,0,0,3.616-2.5c.061-.023.122-.048.182-.075h10.369A3.864,3.864,0,0,1,242.357,244.028Z" transform="translate(-199.049 -217.482)" fill="#7953e4"/>
    <path id="Path_27055" data-name="Path 27055" d="M384.141,273.452a1.288,1.288,0,0,0,1.288,1.288h1.288A1.288,1.288,0,0,1,388,276.028v1.932a1.288,1.288,0,1,0,2.576,0v-1.932a3.864,3.864,0,0,0-3.864-3.864h-1.288A1.288,1.288,0,0,0,384.141,273.452Z" transform="translate(-349.848 -248.078)" fill="#7263de"/>
    <path id="Path_27056" data-name="Path 27056" d="M110.494,65.022a1.289,1.289,0,0,0-2.412,0l-3.864,10.3a1.288,1.288,0,0,0,2.412.9l.653-1.74h4.01l.653,1.74a1.288,1.288,0,0,0,2.412-.9Zm-2.245,6.892,1.039-2.772,1.039,2.772Z" transform="translate(-94.877 -59.021)" fill="#6d44e5"/>
    <path id="Path_27057" data-name="Path 27057" d="M271.069,277.988c.007-.444.016-.874.026-1.282a6.034,6.034,0,0,1,2.23-.029,1.288,1.288,0,0,0,2.335-1.055c-.561-1.683-2.728-1.706-4.472-1.52.017-.359.028-.57.029-.577a1.288,1.288,0,0,0-2.572-.143c0,.045-.026.473-.054,1.151-1.874.4-3.469.886-3.546.91a1.288,1.288,0,0,0,.378,2.519c.424,0,.631-.207,3.084-.772-.009.421-.016.86-.02,1.31a5.669,5.669,0,0,0-3.641,3.562c-1.016,3.047,1.075,4.867,4.252,4.243.577,1.6,1.807,1.52,2.388.938a1.288,1.288,0,0,0,.061-1.756c-.009-.018-.02-.045-.034-.084a4.42,4.42,0,0,0,2.244-2.6,1.288,1.288,0,0,0-2.5-.625.754.754,0,0,1-.131.251c-.027-.528-.048-1.144-.059-1.861,1.851-.152,3.36.107,3.372,1.908a3.016,3.016,0,0,1-.911,1.657,1.288,1.288,0,0,0,1.821,1.821,5.341,5.341,0,0,0,1.665-3.495C277,279.722,275.131,277.723,271.069,277.988Zm-2.433,5.782a2.007,2.007,0,0,1-1.447-.066,2.616,2.616,0,0,1,1.317-2.365C268.531,282.3,268.576,283.1,268.636,283.77Z" transform="translate(-240.278 -246.908)" fill="#85e6c4"/>
    <path id="Path_27058" data-name="Path 27058" d="M39.4,36.752a2.627,2.627,0,0,1-2.624,2.624H19.715a2.627,2.627,0,0,1-2.624-2.624v-3.28a1.312,1.312,0,0,0-.617-1.113l-3.468-2.167,3.468-2.167a1.312,1.312,0,0,0,.617-1.113v-3.28H22.34a5.262,5.262,0,0,0,4.546-2.624h9.888A2.627,2.627,0,0,1,39.4,23.631Z" transform="translate(2.573 2.576)" fill="#6a4ae6"/>
    <path id="letter-hindi-a" d="M11.958,3H9.345a.523.523,0,1,0,0,1.045h.784V7.18H7.543A2.607,2.607,0,1,0,3.2,4.306a.522.522,0,1,0,.9.523A1.568,1.568,0,1,1,5.466,7.18a.523.523,0,1,0,0,1.045,1.568,1.568,0,1,1-1.358,2.351.522.522,0,1,0-.9.523A2.608,2.608,0,1,0,7.543,8.225h2.586v3.658a.523.523,0,0,0,1.045,0V4.045h.784a.523.523,0,1,0,0-1.045Z" transform="translate(22.83 25.172)" fill="#81e6c6"/>
  </g>
</svg>
