<svg xmlns="http://www.w3.org/2000/svg" width="38" height="42" viewBox="0 0 38 42">
  <g id="Group_19836" data-name="Group 19836" transform="translate(-911 -1526.423)">
    <g id="_x31_5" transform="translate(911 1526.423)">
      <path id="Path_26969" data-name="Path 26969" d="M39.074,36.255a1.773,1.773,0,0,0,1.786-1.75V4.86A3.411,3.411,0,0,0,37.414,1.5H13.271V32.751H9.7V1.5H8.342A5.441,5.441,0,0,0,2.86,6.873V38.128c0,.02.011.036.012.056A5.429,5.429,0,0,0,8.35,43.5H39.068a1.75,1.75,0,1,0,0-3.5H8.35a1.873,1.873,0,1,1-.008-3.745ZM25.234,10a1.781,1.781,0,0,1,1.822,1.751A1.786,1.786,0,1,1,25.234,10Zm-1.749,8.454a1.786,1.786,0,0,1,3.571,0v6.93a1.786,1.786,0,0,1-3.571,0Z" transform="translate(-2.86 -1.5)" fill="#6d44e5"/>
      <g id="Rectangle_6741" data-name="Rectangle 6741" transform="translate(5.193 0)" fill="#85e6c4" stroke="#85e6c4" stroke-width="1">
        <rect width="6.193" height="31.156" stroke="none"/>
        <rect x="0.5" y="0.5" width="5.193" height="30.156" fill="none"/>
      </g>
    </g>
    <g id="Path_26970" data-name="Path 26970" transform="translate(930.742 1533.434)" fill="#85e6c4">
      <path d="M 2.596279621124268 4.692717552185059 C 1.440389633178711 4.692717552185059 0.499999612569809 3.752297639846802 0.499999612569809 2.596357583999634 C 0.499999612569809 1.440417528152466 1.440389633178711 0.4999975860118866 2.596279621124268 0.4999975860118866 C 3.752169609069824 0.4999975860118866 4.692559719085693 1.440417528152466 4.692559719085693 2.596357583999634 C 4.692559719085693 3.752297639846802 3.752169609069824 4.692717552185059 2.596279621124268 4.692717552185059 Z" stroke="none"/>
      <path d="M 2.596279621124268 0.999997615814209 C 1.716089725494385 0.999997615814209 0.9999995231628418 1.71611762046814 0.9999995231628418 2.596357583999634 C 0.9999995231628418 3.476597547531128 1.716089725494385 4.192717552185059 2.596279621124268 4.192717552185059 C 3.47646951675415 4.192717552185059 4.192559719085693 3.476597547531128 4.192559719085693 2.596357583999634 C 4.192559719085693 1.71611762046814 3.47646951675415 0.999997615814209 2.596279621124268 0.999997615814209 M 2.596279621124268 -2.384185791015625e-06 C 4.030169486999512 -2.384185791015625e-06 5.192559719085693 1.162427425384521 5.192559719085693 2.596357583999634 C 5.192559719085693 4.030287742614746 4.030169486999512 5.192717552185059 2.596279621124268 5.192717552185059 C 1.162389755249023 5.192717552185059 -4.76837158203125e-07 4.030287742614746 -4.76837158203125e-07 2.596357583999634 C -4.76837158203125e-07 1.162427425384521 1.162389755249023 -2.384185791015625e-06 2.596279621124268 -2.384185791015625e-06 Z" stroke="none" fill="#85e6c4"/>
    </g>
    <g id="Rectangle_6742" data-name="Rectangle 6742" transform="translate(930.742 1540.486)" fill="#85e6c4" stroke="#85e6c4" stroke-width="1">
      <rect width="5.193" height="12.116" rx="2.596" stroke="none"/>
      <rect x="0.5" y="0.5" width="4.193" height="11.116" rx="2.096" fill="none"/>
    </g>
  </g>
</svg>
