<svg xmlns="http://www.w3.org/2000/svg" xmlns:xlink="http://www.w3.org/1999/xlink" width="190.4" height="41.766" viewBox="0 0 190.4 41.766">
  <defs>
    <linearGradient id="linear-gradient" x1="0.023" y1="0.5" x2="1" y2="0.5" gradientUnits="objectBoundingBox">
      <stop offset="0" stop-color="#a289eb"/>
      <stop offset="0" stop-color="#9f93e7"/>
      <stop offset="1" stop-color="#83e4c2"/>
    </linearGradient>
  </defs>
  <path id="Recurri_Text" data-name="Recurri Text" d="M3.264,54.521V14.581H17.928a16.978,16.978,0,0,1,7.9,1.626A10.961,10.961,0,0,1,30.48,20.6a12.4,12.4,0,0,1,1.541,6.134,12.244,12.244,0,0,1-1.911,6.676A10.844,10.844,0,0,1,24.147,37.8L32.42,54.521H24.033L16.615,38.773H10.567V54.521Zm7.3-21.111h6.9q3.652,0,5.363-1.769a6.443,6.443,0,0,0,1.712-4.679A6.228,6.228,0,0,0,22.863,22.4q-1.683-1.712-5.449-1.712H10.567Zm40.111,21.8A15.449,15.449,0,0,1,43.09,53.38,13.215,13.215,0,0,1,37.9,48.245,15.19,15.19,0,0,1,36.015,40.6a16.149,16.149,0,0,1,1.854-7.817A13.463,13.463,0,0,1,43,27.448a15.086,15.086,0,0,1,7.731-1.911,14.572,14.572,0,0,1,7.36,1.826,13.113,13.113,0,0,1,4.993,4.993,14.024,14.024,0,0,1,1.8,7.047q0,.628-.029,1.312t-.086,1.426H43.261a7.37,7.37,0,0,0,2.311,5.192,7.262,7.262,0,0,0,5.05,1.883,6.637,6.637,0,0,0,3.737-1,6.186,6.186,0,0,0,2.254-2.6H64.03A13.448,13.448,0,0,1,61.377,50.5a13.08,13.08,0,0,1-4.565,3.452A14.431,14.431,0,0,1,50.679,55.206Zm.057-23.736A7.777,7.777,0,0,0,46,32.982a7.007,7.007,0,0,0-2.625,4.593H57.468a6.159,6.159,0,0,0-2.054-4.45A6.832,6.832,0,0,0,50.736,31.47ZM84.913,55.206a15.19,15.19,0,0,1-7.646-1.883,13.706,13.706,0,0,1-5.221-5.249,15.325,15.325,0,0,1-1.911-7.7,15.325,15.325,0,0,1,1.911-7.7,13.706,13.706,0,0,1,5.221-5.249,15.19,15.19,0,0,1,7.646-1.883,14.627,14.627,0,0,1,9.129,2.824,12.627,12.627,0,0,1,4.736,7.788h-7.7a5.63,5.63,0,0,0-2.254-3.224,7.074,7.074,0,0,0-9.1,1.113,8.972,8.972,0,0,0-2.111,6.333A8.972,8.972,0,0,0,79.721,46.7a6.735,6.735,0,0,0,5.135,2.282,6.9,6.9,0,0,0,3.965-1.141,5.518,5.518,0,0,0,2.254-3.252h7.7a12.906,12.906,0,0,1-4.736,7.7A14.334,14.334,0,0,1,84.913,55.206Zm30.982,0q-5.306,0-8.188-3.309t-2.881-9.7V26.221h7.246V41.512a9.066,9.066,0,0,0,1.483,5.592,5.515,5.515,0,0,0,4.679,1.94,6.449,6.449,0,0,0,4.993-2.168,8.672,8.672,0,0,0,1.968-6.048V26.221h7.3v28.3h-6.447l-.571-4.793a9.95,9.95,0,0,1-3.794,3.994A11.072,11.072,0,0,1,115.9,55.206Zm24.078-.685v-28.3h6.5l.685,5.306a11.842,11.842,0,0,1,4.194-4.365,11.718,11.718,0,0,1,6.248-1.626v7.7H155.55a11.6,11.6,0,0,0-4.279.742,5.765,5.765,0,0,0-2.938,2.568,10.2,10.2,0,0,0-1.056,5.078V54.521Zm22.595,0v-28.3h6.5l.685,5.306a11.842,11.842,0,0,1,4.194-4.365,11.718,11.718,0,0,1,6.248-1.626v7.7h-2.054a11.6,11.6,0,0,0-4.279.742,5.765,5.765,0,0,0-2.938,2.568,10.2,10.2,0,0,0-1.056,5.078V54.521ZM189.1,21.827a4.617,4.617,0,0,1-3.281-1.2,3.96,3.96,0,0,1-1.284-3.024,3.871,3.871,0,0,1,1.284-3,5.186,5.186,0,0,1,6.562,0,3.871,3.871,0,0,1,1.284,3,3.96,3.96,0,0,1-1.284,3.024A4.617,4.617,0,0,1,189.1,21.827Zm-3.652,32.694v-28.3h7.3v28.3Z" transform="translate(-3.264 -13.44)" fill="url(#linear-gradient)"/>
</svg>
