<?xml version="1.0" encoding="utf-8"?>
<!-- Generator: Adobe Illustrator 27.4.0, SVG Export Plug-In . SVG Version: 6.00 Build 0)  -->
<svg version="1.1" id="Layer_1" xmlns="http://www.w3.org/2000/svg" xmlns:xlink="http://www.w3.org/1999/xlink" x="0px" y="0px"
	 viewBox="0 0 40.9 40" style="enable-background:new 0 0 40.9 40;" xml:space="preserve">
<style type="text/css">
	.st0{fill:#161E44;}
	.st1{fill:url(#SVGID_1_);}
	.st2{fill:#FFFFFF;}
</style>
<g>
	<path class="st0" d="M18.4,37.7c-3.6-0.5-7.1-2.2-9.9-5c-5.8-5.8-6.7-14.8-2.6-21.6L6,11.2l1.2,1.2L8,13.2c0.1-0.9,0.3-1.8,0.4-2.6
		c0.3-2,0.6-3.9,1-5.9C6.5,5.1,3.7,5.6,0.8,6.1L3,8.3l0.1,0.1c-4.8,7.6-4,17.8,2.6,24.4c3.5,3.5,8,5.4,12.6,5.7c0,0,0,0,0,0
		c0.1,0,0.2,0,0.3-0.1v0C18.8,38.1,18.7,37.7,18.4,37.7z"/>
	<g>
		<linearGradient id="SVGID_1_" gradientUnits="userSpaceOnUse" x1="5.1376" y1="20.0319" x2="35.8958" y2="20.0319">
			<stop  offset="0" style="stop-color:#83E4C2"/>
			<stop  offset="0.9986" style="stop-color:#6C44E3"/>
		</linearGradient>
		<path class="st1" d="M32.6,25.7c0.1,0,0.2-0.1,0.3-0.1c0.3,0,0.6,0.1,0.8,0.3l0.7,0.7c1-2,1.5-4.3,1.5-6.6
			c0-8.5-6.9-15.4-15.3-15.4c-4.2,0-8,1.6-10.7,4.3l-0.7,4.4c-0.1,0.4-0.4,0.8-0.8,0.9c-0.1,0-0.2,0.1-0.3,0.1
			c-0.3,0-0.6-0.1-0.8-0.3l-0.6-0.6c-1,2-1.5,4.2-1.5,6.6c0,8.5,6.9,15.4,15.3,15.4c4.1,0,7.8-1.6,10.6-4.2l0.8-4.6
			C31.9,26.2,32.1,25.9,32.6,25.7z"/>
		<path class="st0" d="M37.8,31.6c4.8-7.6,4-17.8-2.6-24.4c-3.5-3.5-8-5.4-12.6-5.7c0,0,0,0,0,0c-0.1,0-0.2,0-0.3,0.1
			c-0.2,0.2-0.1,0.6,0.2,0.7c3.6,0.5,7.1,2.2,9.9,5c5.8,5.8,6.7,14.8,2.6,21.6l-0.1-0.1l-1.1-1.1l-0.9-0.9c-0.2,1-0.3,2-0.5,3
			c-0.3,1.9-0.6,3.7-0.9,5.6c2.9-0.5,5.7-0.9,8.6-1.4L37.8,31.6L37.8,31.6z"/>
	</g>
	<path class="st2" d="M22.4,18.7c-2.1,0-4.4,0-6.5,0c-0.2,0-0.5,0-0.7,0c-0.5,0-0.9-0.5-0.9-0.9c0-0.5,0.2-0.9,0.9-0.9
		c0.5,0,0.9,0,1.4,0c1.9,0,3.7,0,5.8,0c0-0.2-0.2-0.5-0.2-0.7c-0.7-1.4-1.9-2.1-3.3-2.1c-1.2,0-2.3,0-3.5,0c-0.2,0-0.7-0.2-0.9-0.5
		c-0.5-0.5,0-1.4,0.7-1.4c0.9,0,1.9,0,2.8,0c2.3,0,4.9,0,7.2,0c0.2,0,0.2,0,0.5,0c0.7,0,0.9,0.5,0.9,0.9c0,0.5-0.5,0.9-0.9,0.9
		c-0.7,0-1.4,0-2.1,0c-0.2,0-0.5,0-0.5,0c0.5,0.9,0.9,1.6,1.2,2.6c0.5,0,0.9,0,1.4,0c0.7,0,1.2,0.5,1.2,0.9s-0.5,0.9-0.9,0.9
		s-0.9,0-1.4,0c-0.9,3.5-3.3,4.7-6.8,4.4c0.2,0.2,0.5,0.5,0.5,0.5c1.9,1.9,3.7,3.5,5.6,5.4C24,29,24,29,24.3,29.2
		c0.2,0.5,0.2,0.9,0,1.2c-0.2,0.2-0.7,0.5-1.2,0c-0.2,0-0.2-0.2-0.5-0.2c-2.6-2.3-5.1-4.9-7.5-7.2c-0.5-0.5-0.7-0.7-0.5-1.4
		c0.2-0.5,0.7-0.5,1.2-0.5c1.2,0,2.3,0,3.5,0C20.8,21.3,22.2,20.1,22.4,18.7z"/>
</g>
</svg>
