<svg width="32" height="32" viewBox="0 0 32 32" fill="none" xmlns="http://www.w3.org/2000/svg">
<path d="M22.1128 24.6449V3.41365V3.25158C22.1128 2.6033 21.7886 1.95502 20.9783 1.95502C20.1679 1.95502 20.0059 2.44123 20.0059 3.25158C20.0059 10.5448 20.0059 17.6759 20.0059 24.9691C20.0059 25.6174 20.33 26.1036 20.9783 26.1036C21.7886 26.1036 21.9507 25.6174 21.9507 24.9691C22.2749 24.6449 22.2749 24.6449 22.1128 24.6449Z" fill="#18253E"/>
<path d="M16.1171 0.0101765C12.5515 0.0101765 7.52729 0.0101765 3.96173 0.0101765C1.85481 0.0101765 0.0720315 1.79296 0.0720315 3.89988V10.0586C0.0720315 10.0586 -0.0900394 22.8622 0.0720315 28.8588C0.0720315 30.8036 1.04446 31.1278 3.96173 30.9657C3.96173 30.9657 13.686 30.9657 15.7929 30.9657C19.1964 30.8036 20.3309 30.9657 20.3309 28.5347C20.3309 25.4553 20.3309 22.376 20.3309 19.2966C20.3309 17.3518 20.3309 8.92408 20.3309 3.89988C20.0068 1.63089 18.386 -0.151894 16.1171 0.0101765Z" fill="url(#paint0_linear)"/>
<path d="M29.2444 6.33094C27.7858 6.33094 23.734 6.33094 22.2754 6.33094V22.538C24.2202 22.538 28.4341 22.538 30.2169 22.538C31.6755 22.538 31.9996 22.2139 31.9996 20.9173C31.9996 17.0276 31.9996 13.1379 31.9996 9.24821C31.9996 6.16887 31.8376 6.33094 29.2444 6.33094Z" fill="#33EEB1"/>
<path d="M4.76953 11.1932H14.6559" stroke="#18253E" stroke-miterlimit="10" stroke-linecap="round" stroke-linejoin="round"/>
<path d="M4.76953 18.8104H14.6559" stroke="#18253E" stroke-miterlimit="10" stroke-linecap="round" stroke-linejoin="round"/>
<defs>
<linearGradient id="paint0_linear" x1="-35.1635" y1="-258.681" x2="43.1398" y2="217.85" gradientUnits="userSpaceOnUse">
<stop stop-color="#FFF5E9"/>
<stop offset="0.6046" stop-color="#7D95E6"/>
<stop offset="0.9986" stop-color="#3F28DD"/>
</linearGradient>
</defs>
</svg>
