<svg width="37" height="32" viewBox="0 0 37 32" fill="none" xmlns="http://www.w3.org/2000/svg">
<path d="M34.5199 17.6769V4.83612C34.5199 2.16792 32.352 0 29.6838 0H5.00288C2.33468 0 0.166763 2.16792 0.166763 4.83612L0 17.6769H34.5199Z" fill="#18253E"/>
<path d="M25.5146 25.5146C31.4091 25.5146 36.1874 20.7362 36.1874 14.8418C36.1874 8.94733 31.4091 4.16895 25.5146 4.16895C19.6202 4.16895 14.8418 8.94733 14.8418 14.8418C14.8418 20.7362 19.6202 25.5146 25.5146 25.5146Z" fill="#33EEB1"/>
<path d="M26.8484 12.8406C25.3476 12.8406 23.6799 12.8406 22.1791 12.8406C22.0123 12.8406 21.8455 12.8406 21.6788 12.8406C21.3452 12.8406 21.0117 12.507 21.0117 12.1735C21.0117 11.84 21.1785 11.5065 21.6788 11.5065C22.0123 11.5065 22.3458 11.5065 22.6793 11.5065C24.0134 11.5065 25.3476 11.5065 26.8484 11.5065C26.8484 11.3397 26.6817 11.1729 26.6817 11.0062C26.1814 10.0056 25.3476 9.50531 24.347 9.50531C23.5132 9.50531 22.6793 9.50531 21.8455 9.50531C21.6788 9.50531 21.3452 9.33854 21.1785 9.17178C20.845 8.83826 21.1785 8.1712 21.6788 8.1712C22.3458 8.1712 23.0129 8.1712 23.6799 8.1712C25.3476 8.1712 27.1819 8.1712 28.8496 8.1712C29.0163 8.1712 29.0163 8.1712 29.1831 8.1712C29.6834 8.1712 29.8501 8.50473 29.8501 8.83826C30.0169 9.33854 29.6834 9.50531 29.1831 9.50531C28.6828 9.50531 28.1825 9.50531 27.6822 9.50531C27.5155 9.50531 27.3487 9.50531 27.3487 9.50531C27.6822 10.1724 28.0158 10.6726 28.1825 11.3397C28.516 11.3397 28.8496 11.3397 29.1831 11.3397C29.6834 11.3397 30.0169 11.6732 30.0169 12.0067C30.0169 12.3403 29.6834 12.6738 29.3499 12.6738C29.0163 12.6738 28.6828 12.6738 28.3493 12.6738C27.6822 15.1752 26.0146 16.0091 23.5132 15.8423C23.6799 16.0091 23.8467 16.1758 23.8467 16.1758C25.1808 17.5099 26.5149 18.6773 27.849 20.0114C28.0158 20.1781 28.0158 20.1781 28.1825 20.3449C28.3493 20.6784 28.3493 21.0119 28.1825 21.1787C28.0158 21.3455 27.6822 21.5122 27.3487 21.1787C27.1819 21.1787 27.1819 21.0119 27.0152 21.0119C25.1808 19.3443 23.3464 17.5099 21.6788 15.8423C21.3452 15.5088 21.1785 15.342 21.3452 14.8417C21.512 14.5082 21.8455 14.5082 22.1791 14.5082C23.0129 14.5082 23.8467 14.5082 24.6805 14.5082C25.5143 14.675 26.5149 13.8411 26.8484 12.8406Z" fill="white"/>
<path d="M2.50144 22.3462C1.00058 21.5124 0 20.0115 0 18.1771V4.83612C0 2.16792 2.16792 0 4.83612 0L20.6786 8.00462C26.3485 10.5061 25.5147 12.8407 25.5147 15.5089V28.85C25.5147 31.1847 23.0133 32.6855 21.0121 31.6849L2.50144 22.3462Z" fill="url(#paint0_linear)"/>
<defs>
<linearGradient id="paint0_linear" x1="42.5277" y1="-6.03715" x2="-2.17342" y2="27.6781" gradientUnits="userSpaceOnUse">
<stop stop-color="#FFF5E9"/>
<stop offset="0.6046" stop-color="#7D95E6"/>
<stop offset="0.9986" stop-color="#3F28DD"/>
</linearGradient>
</defs>
</svg>
