<svg width="32" height="31" viewBox="0 0 32 31" fill="none" xmlns="http://www.w3.org/2000/svg">
<path d="M12.5918 19.6532C10.5272 20.7543 7.91198 20.0661 6.81084 18.0015L0.616941 6.43955C-0.621838 4.37492 0.0663727 1.75972 2.13101 0.520936C4.19564 -0.580201 6.81084 0.10801 7.91198 2.17264L14.2435 13.8722C15.3447 15.7992 14.6564 18.4144 12.5918 19.6532Z" fill="url(#paint0_linear)"/>
<path d="M24.8429 19.2403C22.7782 20.3414 20.163 19.6532 19.0619 17.5886L13.8315 8.36654C12.7303 6.30191 13.4186 3.68671 15.4832 2.58557C17.5478 1.48444 20.163 2.17265 21.2642 4.23728L26.4946 13.4593C27.5957 15.5239 26.9075 18.0015 24.8429 19.2403Z" fill="#18253E"/>
<path d="M18.6499 1.48435C16.5852 0.658493 14.1077 1.75963 13.1442 3.82426L9.97841 10.1558L9.70312 10.7064L13.5571 18.8273C13.97 18.6896 19.8886 8.09117 20.5769 6.71475C21.5403 4.65012 20.7145 2.3102 18.6499 1.48435Z" fill="url(#paint1_linear)"/>
<path d="M14.2413 13.8722L10.9379 7.95355C9.56144 10.7064 6.80859 18.0014 6.80859 18.0014C7.90973 20.0661 10.5249 20.7543 12.5896 19.6531C14.6542 18.4144 15.3424 15.7992 14.2413 13.8722Z" fill="#18253E"/>
<path d="M14.7946 22.1307C14.9322 17.4509 18.7862 13.5969 23.466 13.7345C28.2835 13.8722 31.9999 17.7262 31.9999 22.5436C31.8622 27.0858 28.0082 30.9398 23.3284 30.8022C18.5109 30.8022 14.6569 26.8105 14.7946 22.1307ZM29.247 19.9284C29.247 18.2767 28.1459 16.7627 26.4942 16.3497C24.7048 15.9368 22.0896 17.1756 21.4014 18.9649C21.4014 19.1026 21.4014 19.5155 21.5391 19.5155C21.8143 19.6531 22.0896 19.6531 22.2273 19.5155C22.7778 19.1026 23.1908 18.552 23.6037 18.1391C24.7048 17.0379 26.2189 17.0379 27.32 18.0014C28.4212 18.9649 28.2835 20.6166 27.1824 21.7178C26.7695 22.1307 26.2189 22.6813 25.806 23.0942C25.6683 23.2318 25.6683 23.6448 25.806 23.7824C25.806 23.9201 26.3565 23.9201 26.3565 23.9201C27.8706 22.8189 29.247 21.8554 29.247 19.9284ZM17.1345 25.0212C17.1345 26.6729 18.2356 28.187 19.8874 28.5999C21.6767 29.0128 24.2919 27.774 24.9801 25.9847C24.9801 25.847 24.9801 25.4341 24.8425 25.4341C24.5672 25.2965 24.2919 25.2965 24.1543 25.4341C23.6037 25.847 23.1908 26.3976 22.7778 26.8105C21.5391 27.9117 20.025 27.9117 18.9239 26.9482C17.8227 25.9847 17.9604 24.333 19.0615 23.2318C19.4744 22.8189 20.025 22.2683 20.4379 21.8554C20.5756 21.7178 20.5756 21.3049 20.4379 21.1672C20.4379 21.0296 19.8874 21.0296 19.8874 21.0296C18.6486 21.9931 17.1345 23.0942 17.1345 25.0212ZM20.9885 25.0212C21.1261 25.0212 21.2638 25.0212 21.2638 24.8835C22.7778 23.3695 24.4295 21.7178 25.9436 20.2037C26.0812 20.0661 25.9436 19.6531 25.806 19.6531C25.6683 19.5155 25.2554 19.5155 25.1178 19.6531C23.6037 21.1672 22.0896 22.5436 20.7132 24.0577C20.5756 24.1953 20.5756 24.4706 20.5756 24.7459C20.7132 24.8835 20.8508 25.0212 20.9885 25.0212Z" fill="#33EEB1"/>
<defs>
<linearGradient id="paint0_linear" x1="-14.4193" y1="1.19264" x2="23.4735" y2="16.6735" gradientUnits="userSpaceOnUse">
<stop stop-color="#FFF5E9"/>
<stop offset="0.6046" stop-color="#7D95E6"/>
<stop offset="0.9986" stop-color="#3F28DD"/>
</linearGradient>
<linearGradient id="paint1_linear" x1="9.73643" y1="10.033" x2="21.0077" y2="10.033" gradientUnits="userSpaceOnUse">
<stop stop-color="#FFF5E9"/>
<stop offset="0.6046" stop-color="#7D95E6"/>
<stop offset="0.9986" stop-color="#3F28DD"/>
</linearGradient>
</defs>
</svg>
