<svg width="31" height="32" viewBox="0 0 31 32" fill="none" xmlns="http://www.w3.org/2000/svg">
<path d="M21.3333 31.8454H2.00966C0.927535 31.8454 0 30.9178 0 29.8357V2.00966C0 0.927535 0.927535 0 2.00966 0H21.3333C22.4154 0 23.343 0.927535 23.343 2.00966V29.8357C23.343 30.9178 22.4154 31.8454 21.3333 31.8454Z" fill="url(#paint0_linear)"/>
<path d="M10.9736 4.17397C9.11852 6.49281 7.26345 8.81165 5.40838 11.2851C4.94461 11.9034 5.25379 12.5218 6.18133 12.5218C6.95427 12.5218 8.96393 12.3672 8.96393 12.6764C8.96393 13.2947 8.96393 16.2319 8.96393 19.3237V21.3334C8.96393 22.1063 9.58229 22.7247 10.3552 22.7247H11.2828L14.22 19.3237V12.5218C15.1475 12.5218 16.075 12.5218 17.0026 12.5218C17.9301 12.5218 18.0847 11.9034 17.6209 11.1305C15.7659 8.81165 14.0654 6.49281 12.2103 4.17397C11.9011 3.55562 11.4374 3.55562 10.9736 4.17397Z" fill="#18253E"/>
<path d="M20.5578 32C26.0219 32 30.4515 27.5704 30.4515 22.1063C30.4515 16.6421 26.0219 12.2126 20.5578 12.2126C15.0936 12.2126 10.6641 16.6421 10.6641 22.1063C10.6641 27.5704 15.0936 32 20.5578 32Z" fill="#33EEB1"/>
<path d="M21.6391 20.0967C20.2478 20.0967 18.7019 20.0967 17.3106 20.0967C17.1561 20.0967 17.0015 20.0967 16.8469 20.0967C16.5377 20.0967 16.2285 19.7876 16.2285 19.4784C16.2285 19.1692 16.3831 18.86 16.8469 18.86C17.1561 18.86 17.4652 18.86 17.7744 18.86C19.0111 18.86 20.2478 18.86 21.6391 18.86C21.6391 18.7054 21.4845 18.5509 21.4845 18.3963C21.0208 17.4687 20.2478 17.005 19.3203 17.005C18.5474 17.005 17.7744 17.005 17.0015 17.005C16.8469 17.005 16.5377 16.8504 16.3831 16.6958C16.0739 16.3866 16.3831 15.7682 16.8469 15.7682C17.4652 15.7682 18.0836 15.7682 18.7019 15.7682C20.2478 15.7682 21.9483 15.7682 23.4942 15.7682C23.6488 15.7682 23.6488 15.7682 23.8034 15.7682C24.2672 15.7682 24.4217 16.0774 24.4217 16.3866C24.4217 16.6958 24.1126 17.005 23.8034 17.005C23.3396 17.005 22.8758 17.005 22.4121 17.005C22.2575 17.005 22.1029 17.005 22.1029 17.005C22.4121 17.6233 22.7213 18.0871 22.8759 18.7054C23.185 18.7054 23.4942 18.7054 23.8034 18.7054C24.2672 18.7054 24.5763 19.0146 24.5763 19.3238C24.5763 19.633 24.2672 19.9422 23.958 19.9422C23.6488 19.9422 23.3396 19.9422 23.0304 19.9422C22.4121 22.261 20.8662 23.0339 18.5474 22.8794C18.7019 23.0339 18.8565 23.1885 18.8565 23.1885C20.0932 24.4252 21.33 25.5074 22.5667 26.7441C22.7213 26.8987 22.7213 26.8987 22.8759 27.0533C23.0304 27.3624 23.0304 27.6716 22.8759 27.8262C22.7213 27.9808 22.4121 28.1354 22.1029 27.8262C21.9483 27.8262 21.9483 27.6716 21.7937 27.6716C20.0932 26.1257 18.3928 24.4252 16.8469 22.8794C16.5377 22.5702 16.3831 22.4156 16.5377 21.9518C16.6923 21.6426 17.0015 21.6426 17.3106 21.6426C18.0836 21.6426 18.8565 21.6426 19.6295 21.6426C20.557 21.7972 21.4845 21.0243 21.6391 20.0967Z" fill="white"/>
<defs>
<linearGradient id="paint0_linear" x1="8.80401" y1="-10.6881" x2="13.8551" y2="36.6871" gradientUnits="userSpaceOnUse">
<stop stop-color="#FFF5E9"/>
<stop offset="0.6046" stop-color="#7D95E6"/>
<stop offset="0.9986" stop-color="#3F28DD"/>
</linearGradient>
</defs>
</svg>
