<svg width="29" height="32" viewBox="0 0 29 32" fill="none" xmlns="http://www.w3.org/2000/svg">
<path d="M19.7895 0H13.614H12.9123H9.12281C4.07018 0 0 4.07018 0 9.12281V16.1404H12.7719H13.4737H28.7719V9.12281C28.9123 4.07018 24.8421 0 19.7895 0Z" fill="url(#paint0_linear)"/>
<path d="M9.12281 32.0001H15.2982H16H19.6491C24.7018 32.0001 28.7719 27.9299 28.7719 22.8773V15.8597H16H15.2982H0V22.8773C0 27.9299 4.07018 32.0001 9.12281 32.0001Z" fill="#18253E"/>
<path d="M11.9295 25.6844C13.0922 25.6844 14.0347 24.7418 14.0347 23.5791C14.0347 22.4164 13.0922 21.4739 11.9295 21.4739C10.7668 21.4739 9.82422 22.4164 9.82422 23.5791C9.82422 24.7418 10.7668 25.6844 11.9295 25.6844Z" fill="#33EEB1"/>
<path d="M19.5096 25.6844C20.6723 25.6844 21.6148 24.7418 21.6148 23.5791C21.6148 22.4164 20.6723 21.4739 19.5096 21.4739C18.3469 21.4739 17.4043 22.4164 17.4043 23.5791C17.4043 24.7418 18.3469 25.6844 19.5096 25.6844Z" fill="#33EEB1"/>
<path d="M23.0182 9.40369C20.0708 9.40369 15.8603 9.40369 12.0708 9.40369H6.31641C7.15851 12.3511 8.00062 15.5791 8.84272 18.5265C8.98307 19.0879 9.54448 19.5089 10.1059 19.5089H20.7725C22.3164 19.5089 22.4568 17.9651 22.5971 17.6844C22.8778 16.7019 23.7199 13.8949 24.4217 10.8072C24.562 10.1054 23.7199 9.40369 23.0182 9.40369Z" fill="#33EEB1"/>
<path d="M7.71971 10.3861H4.77234C4.49164 10.3861 4.21094 10.2457 4.21094 9.96503C4.21094 9.68433 4.49164 9.40363 4.77234 9.40363H7.71971C8.00041 9.40363 8.28111 9.68433 8.28111 9.96503C8.28111 10.2457 8.00041 10.3861 7.71971 10.3861Z" fill="#33EEB1"/>
<defs>
<linearGradient id="paint0_linear" x1="19.0483" y1="45.0131" x2="11.3851" y2="-9.58709" gradientUnits="userSpaceOnUse">
<stop stop-color="#FFF5E9"/>
<stop offset="0.6046" stop-color="#7D95E6"/>
<stop offset="0.9986" stop-color="#3F28DD"/>
</linearGradient>
</defs>
</svg>
