<svg width="32" height="32" viewBox="0 0 32 32" fill="none" xmlns="http://www.w3.org/2000/svg">
<path d="M24.6798 11.9292C24.6798 13.3003 24.2684 14.6715 23.72 15.7684C27.6963 15.3571 30.85 12.0663 30.85 7.95278C30.85 3.56504 27.285 0 22.8973 0C19.8807 0 17.2755 1.6454 15.9043 4.11351C16.1785 4.11351 16.4528 4.11351 16.727 4.11351C21.2519 4.11351 24.6798 7.67855 24.6798 11.9292Z" fill="#18253E"/>
<path d="M15.0817 4.93619C14.8075 4.93619 14.5332 4.93619 14.259 4.93619C10.2826 5.34754 7.12891 8.77546 7.12891 12.889C7.12891 17.2767 10.6939 20.8417 15.0817 20.8417C18.0983 20.8417 20.7035 19.1963 22.0746 16.7282C22.7602 15.6313 23.0345 14.2601 23.0345 12.889C23.0345 8.50123 19.4694 4.93619 15.0817 4.93619Z" fill="#33EEB1"/>
<path d="M16.0414 11.2435C14.9445 11.2435 13.7104 11.2435 12.6135 11.2435C12.4764 11.2435 12.3393 11.2435 12.3393 11.2435C11.9279 11.2435 11.7908 11.1064 11.7908 10.8321C11.7908 10.5579 11.9279 10.2837 12.3393 10.2837C12.6135 10.2837 12.8877 10.2837 13.0249 10.2837C13.9847 10.2837 15.0816 10.2837 16.0414 10.2837C16.0414 10.1465 15.9043 10.0094 15.9043 9.8723C15.493 9.18672 14.9445 8.77537 14.1218 8.77537C13.4362 8.77537 12.8877 8.77537 12.2022 8.77537C12.2022 8.91249 11.9279 8.77537 11.9279 8.63825C11.6537 8.36402 11.9279 7.95267 12.3393 7.95267C12.8877 7.95267 13.2991 7.95267 13.8476 7.95267C15.0816 7.95267 16.4528 7.95267 17.6868 7.95267C17.8239 7.95267 17.8239 7.95267 17.9611 7.95267C18.2353 7.95267 18.5095 8.08978 18.5095 8.36402C18.5095 8.63825 18.3724 8.91249 17.9611 8.91249C17.5497 8.91249 17.2755 8.91249 16.8641 8.91249C16.727 8.91249 16.5899 8.91249 16.5899 8.91249C16.8641 9.32384 17.0012 9.8723 17.2755 10.2837C17.4126 10.2837 17.6868 10.2837 17.9611 10.2837C18.3724 10.2837 18.5095 10.4208 18.5095 10.8321C18.5095 11.1064 18.2353 11.2435 17.9611 11.2435C17.6868 11.2435 17.4126 11.2435 17.2755 11.2435C16.727 13.026 15.493 13.7116 13.7104 13.5745C13.8476 13.7116 13.8476 13.8487 13.9847 13.8487C14.9445 14.8085 15.9043 15.7683 17.0012 16.7281C17.1384 16.8653 17.1384 16.8653 17.2755 17.0024C17.4126 17.2766 17.4126 17.4137 17.2755 17.688C17.1384 17.8251 16.8641 17.8251 16.5899 17.688C16.4528 17.688 16.4528 17.5508 16.4528 17.5508C15.0816 16.3168 13.8476 14.9456 12.4764 13.7116C11.9279 13.4373 11.6537 13.3002 11.7908 13.026C11.9279 12.7518 12.2022 12.7518 12.4764 12.7518C13.0249 12.7518 13.7104 12.7518 14.2589 12.7518C15.2187 12.7518 15.9043 12.0662 16.0414 11.2435Z" fill="white"/>
<path d="M16.0427 25.3665C13.8488 25.3665 11.6549 25.3665 9.46106 25.3665C9.04971 25.3665 8.63836 25.5036 8.36413 25.7779C6.58161 27.5604 4.66197 29.3429 2.87945 31.1254C2.33099 31.9481 1.6454 32.2224 0.959818 31.811C0.274234 31.5368 0 30.8512 0 30.0285C0 28.5202 0 27.149 0 25.6407C0 25.0923 0.274234 24.5438 0.685584 24.1325C2.74234 22.0757 4.79909 20.019 6.85584 17.9622C7.26719 17.5508 7.95278 17.2766 8.50125 17.2766C12.2034 17.2766 16.0427 17.2766 19.7448 17.2766C20.8418 17.2766 21.5273 17.8251 21.6645 18.7849C21.6645 19.7447 20.9789 20.2932 19.7448 20.2932C18.3737 20.2932 17.0025 20.2932 15.6313 20.2932C15.3571 20.2932 15.22 20.5674 14.9457 20.7045C15.22 20.8417 15.3571 21.1159 15.6313 21.1159C18.0994 21.1159 20.5675 21.1159 23.1728 21.1159C23.447 21.1159 23.8583 20.8417 23.9955 20.7045C25.6409 19.1963 27.1491 17.5508 28.6574 16.0426C29.4801 15.2199 30.4399 15.2199 30.9884 15.9054C31.674 16.591 31.5369 17.4137 30.7142 18.2364C28.6574 20.2932 26.4636 22.4871 24.4068 24.5438C23.9955 24.9552 23.3099 25.2294 22.7614 25.2294C20.4304 25.5036 18.2365 25.3665 16.0427 25.3665Z" fill="url(#paint0_linear)"/>
<defs>
<linearGradient id="paint0_linear" x1="10.1277" y1="2.04855" x2="18.9072" y2="36.2884" gradientUnits="userSpaceOnUse">
<stop stop-color="#FFF5E9"/>
<stop offset="0.6046" stop-color="#7D95E6"/>
<stop offset="0.9986" stop-color="#3F28DD"/>
</linearGradient>
</defs>
</svg>
