<svg width="31" height="33" viewBox="0 0 31 33" fill="none" xmlns="http://www.w3.org/2000/svg">
<path d="M16.2626 14.0622V3.22136C16.2626 2.8044 15.8456 2.38745 15.4287 2.38745C14.7338 2.38745 13.8999 2.52644 13.2049 2.8044C10.5642 3.7773 8.61844 5.44511 7.2286 7.52988C4.72688 11.4214 4.30992 16.8418 6.81164 21.0114C9.45235 25.3199 14.4558 27.1267 19.3203 26.4318C26.1305 25.4589 28.4932 19.3436 28.6322 14.7571C28.6322 14.3401 28.3543 13.9232 27.7983 13.9232H16.2626V14.0622Z" fill="url(#paint0_linear)"/>
<path d="M18.9043 6.14007C18.9043 4.61124 18.9043 3.08241 18.9043 1.55357C18.9043 0.580683 19.1823 0.302713 20.2941 0.441698C25.7145 1.13662 29.7451 5.16717 30.579 10.5876C30.718 11.6994 30.44 12.1164 29.3281 12.1164C26.2705 12.1164 23.2128 12.1164 20.1552 12.1164C19.3213 12.1164 18.9043 11.8384 18.9043 10.8655C18.9043 9.33671 18.9043 7.6689 18.9043 6.14007Z" fill="#18253E"/>
<path d="M0 25.4589C0.138985 21.7063 3.05766 18.7877 6.81024 18.9266C10.5628 18.9266 13.4815 22.1233 13.4815 25.8759C13.3425 29.4895 10.2849 32.4081 6.67126 32.4081C2.91868 32.2692 0 29.2115 0 25.4589Z" fill="#33EEB1"/>
<path d="M7.5032 24.208C6.53031 24.208 5.55742 24.208 4.58452 24.208C4.44554 24.208 4.44554 24.208 4.30655 24.208C4.02859 24.208 3.8896 24.069 3.8896 23.7911C3.8896 23.5131 4.02859 23.3741 4.30655 23.3741C4.58452 23.3741 4.72351 23.3741 5.00148 23.3741C5.83538 23.3741 6.66929 23.3741 7.64218 23.3741C7.64218 23.2351 7.64218 23.0962 7.5032 23.0962C7.08625 22.5402 6.66929 22.2622 5.97437 22.2622C5.41843 22.2622 4.86249 22.2622 4.44554 22.2622C4.30655 22.2622 4.16757 22.1233 4.02859 22.1233C3.8896 21.8453 4.02858 21.5673 4.44554 21.5673C4.86249 21.5673 5.27945 21.5673 5.6964 21.5673C6.80828 21.5673 7.92015 21.5673 8.89305 21.5673C9.03203 21.5673 9.03203 21.5673 9.17102 21.5673C9.44898 21.5673 9.58797 21.7063 9.58797 21.9843C9.58797 22.2622 9.44898 22.4012 9.17102 22.4012C8.89305 22.4012 8.61508 22.4012 8.19812 22.4012C8.05914 22.4012 8.05914 22.4012 7.92015 22.4012C8.05914 22.8182 8.33711 23.2351 8.47609 23.6521C8.61508 23.6521 8.89305 23.6521 9.03203 23.6521C9.31 23.6521 9.44898 23.7911 9.44898 24.069C9.44898 24.347 9.31 24.486 9.03203 24.486C8.75406 24.486 8.61508 24.486 8.33711 24.486C8.05914 25.7369 6.94726 26.4318 5.27945 26.2928C5.41843 26.4318 5.55742 26.4318 5.55742 26.5708C6.39132 27.4047 7.22523 28.2386 8.05914 29.0725L8.19812 29.2115C8.33711 29.3505 8.33711 29.6284 8.19812 29.7674C8.05914 29.9064 7.92015 29.9064 7.64218 29.7674L7.5032 29.6284C6.39132 28.5166 5.27945 27.4047 4.02859 26.2928C3.8896 26.1538 3.75062 26.0148 3.8896 25.7369C4.02859 25.4589 4.16757 25.4589 4.44554 25.4589C5.00148 25.4589 5.41843 25.4589 5.97437 25.4589C6.80828 25.4589 7.36422 24.903 7.5032 24.208Z" fill="white"/>
<defs>
<linearGradient id="paint0_linear" x1="-2.7794" y1="0.278916" x2="28.8725" y2="26.8849" gradientUnits="userSpaceOnUse">
<stop stop-color="#FFF5E9"/>
<stop offset="0.6046" stop-color="#7D95E6"/>
<stop offset="0.9986" stop-color="#3F28DD"/>
</linearGradient>
</defs>
</svg>
