<svg width="31" height="32" viewBox="0 0 31 32" fill="none" xmlns="http://www.w3.org/2000/svg">
<path d="M30.0687 2.89116C29.3459 2.16835 28.6231 1.30099 27.9003 0.433622C27.6112 -6.10352e-05 27.0329 -6.10352e-05 26.5992 0.433622C26.021 1.01187 25.5873 1.73467 24.8645 2.45747C24.2863 1.73467 23.708 1.15643 23.1298 0.433622C22.6961 -0.144622 22.2624 -0.144622 21.8287 0.433622C21.2505 1.01187 20.8168 1.73467 20.094 2.45747C19.3712 1.59011 18.9375 1.01187 18.3593 0.433622C17.9256 -0.144622 17.4919 -0.144622 17.0582 0.433622C16.48 1.01187 16.0463 1.59011 15.3235 2.45747C14.7452 1.73467 14.167 1.15643 13.5888 0.433622C13.2996 -6.10352e-05 12.7214 -6.10352e-05 12.2877 0.433622C11.5649 1.30099 10.8421 2.02379 10.1193 2.89116C9.68561 3.32484 9.39648 4.04764 9.39648 4.77045C9.39648 8.52903 9.39648 17.3472 9.39648 22.2623C9.39648 24.1416 10.6975 25.7318 12.4323 25.7318C14.4561 25.7318 17.3473 25.7318 20.094 25.7318C22.6961 25.7318 25.5873 25.7318 27.7557 25.7318C29.4904 25.7318 30.7915 24.1416 30.7915 22.2623C30.7915 17.3472 30.7915 8.52903 30.7915 4.77045C30.7915 4.04764 30.5024 3.32484 30.0687 2.89116Z" fill="url(#paint0_linear)"/>
<path d="M20.093 15.0343C18.5029 15.0343 17.0573 15.0343 15.4671 15.0343C14.5997 15.0343 14.0215 14.7452 14.0215 14.0224C14.0215 13.4442 14.4552 13.0105 15.3225 13.0105C18.3583 13.0105 21.5386 13.0105 24.5744 13.0105C25.4418 13.0105 26.02 13.2996 26.02 14.0224C26.02 14.7452 25.5864 15.0343 24.5744 15.0343C23.1288 15.0343 21.5387 15.0343 20.093 15.0343Z" fill="#18253E"/>
<path d="M20.093 9.83013C18.5029 9.83013 16.9127 9.83013 15.3225 9.83013C14.4552 9.83013 14.0215 9.39644 14.0215 8.8182C14.0215 8.0954 14.5997 7.80627 15.3225 7.80627C18.5029 7.80627 21.6832 7.80627 24.8636 7.80627C25.5864 7.80627 26.02 8.0954 26.02 8.8182C26.02 9.541 25.4418 9.83013 24.8636 9.83013C23.2734 9.83013 21.6832 9.83013 20.093 9.83013Z" fill="#18253E"/>
<path d="M9.54102 13.0104C9.54102 15.3234 9.54102 17.4918 9.54102 19.8048C9.54102 21.8287 10.6975 22.5515 12.5768 21.8287C14.8898 20.9613 17.3473 19.9494 19.6603 19.082C20.9613 18.5038 22.2624 18.9374 22.8406 20.0939C23.4189 21.2504 22.9852 22.4069 21.8287 23.1297C20.6722 23.8525 19.3712 24.7199 18.2147 25.5872C19.5157 25.5872 20.6722 25.5872 21.9733 25.5872C23.2743 25.5872 23.4189 25.7318 23.4189 27.0328C23.4189 27.6111 23.4189 28.3339 23.4189 28.9121C23.4189 29.7795 23.1297 30.5023 22.2624 30.936C21.5396 31.3697 20.6722 31.2251 20.094 30.6469C19.9494 30.6469 19.9494 30.5023 19.8048 30.5023C18.5038 32.0925 17.2027 32.0925 16.0463 30.5023C14.3115 31.5142 13.4442 31.2251 12.4322 29.7795H12.2877C8.81821 32.0925 4.77051 32.0925 0.867365 31.9479C0.289122 31.9479 0 31.6588 0 31.0805C0 27.0328 0 23.1297 0 19.082C0 18.7929 0.289122 18.3592 0.578243 18.0701C2.45754 16.6245 4.48139 15.1789 6.36068 13.7332C7.22804 13.2996 8.23997 13.0104 9.54102 13.0104Z" fill="#33EEB1"/>
<defs>
<linearGradient id="paint0_linear" x1="3.79012" y1="-10.5422" x2="31.5189" y2="30.6548" gradientUnits="userSpaceOnUse">
<stop stop-color="#FFF5E9"/>
<stop offset="0.6046" stop-color="#7D95E6"/>
<stop offset="0.9986" stop-color="#3F28DD"/>
</linearGradient>
</defs>
</svg>
