<svg xmlns="http://www.w3.org/2000/svg" xmlns:xlink="http://www.w3.org/1999/xlink" width="29.846" height="24" viewBox="0 0 29.846 24">
  <defs>
    <linearGradient id="linear-gradient" x1="0.5" y1="-0.149" x2="0.5" y2="1" gradientUnits="objectBoundingBox">
      <stop offset="0" stop-color="#fff5e9"/>
      <stop offset="0.605" stop-color="#7d95e6"/>
      <stop offset="1" stop-color="#3f28dd"/>
    </linearGradient>
  </defs>
  <g id="Group_3075" data-name="Group 3075" transform="translate(-12.362 -358.677)">
    <g id="Group_2875" data-name="Group 2875" transform="translate(12.362 358.677)" style="isolation: isolate">
      <path id="Path_1338" data-name="Path 1338" d="M222.211,245.107s-7.483,2.7-8.521,3.326a2.731,2.731,0,0,1-2.494.208c-.415-.208-8.106-2.91-7.275-3.326s1.247-.208,4.365.208,3.949-.623,3.535-1.871c-1.663,0-6.859-3.117-10.185-2.91s-7.07,2.7-7.07,2.7-.832,8.106-.208,8.314,17.668,2.287,17.668,2.287,9.77-6.028,11.432-7.691-1.247-1.247-1.247-1.247Z" transform="translate(-194.125 -230.044)" fill="url(#linear-gradient)"/>
      <path id="Path_1340" data-name="Path 1340" d="M463.314,188.44a6.476,6.476,0,1,0,6.476,6.476,6.476,6.476,0,0,0-6.476-6.476Zm-.734,5.088a.8.8,0,0,0,.182.289,1.654,1.654,0,0,0,.331.251,5.309,5.309,0,0,0,.524.239c.331.137.643.273.916.415a2.91,2.91,0,0,1,.71.495,1.879,1.879,0,0,1,.461.648,2.143,2.143,0,0,1,.164.869,2.219,2.219,0,0,1-.148.824,1.892,1.892,0,0,1-.421.625,2.034,2.034,0,0,1-.654.426,2.945,2.945,0,0,1-.847.21v1.035h-.816v-1.03a3.453,3.453,0,0,1-.835-.2,2.235,2.235,0,0,1-.716-.45,2.156,2.156,0,0,1-.5-.739,2.8,2.8,0,0,1-.188-1.075h1.507a1.769,1.769,0,0,0,.091.62,1.056,1.056,0,0,0,.262.392.869.869,0,0,0,.365.21,1.507,1.507,0,0,0,.421.056,1.216,1.216,0,0,0,.426-.069.9.9,0,0,0,.313-.188.773.773,0,0,0,.182-.278.953.953,0,0,0,.069-.358,1.319,1.319,0,0,0-.056-.387.893.893,0,0,0-.188-.3,1.661,1.661,0,0,0-.331-.251,4.3,4.3,0,0,0-.5-.221,8.348,8.348,0,0,1-.927-.4,3.048,3.048,0,0,1-.71-.484,1.928,1.928,0,0,1-.461-.648,2.149,2.149,0,0,1-.165-.876,2.176,2.176,0,0,1,.143-.808,1.916,1.916,0,0,1,.421-.631,2.083,2.083,0,0,1,.643-.442,2.8,2.8,0,0,1,.847-.21v-1.115h.83v1.126a2.625,2.625,0,0,1,.813.256,2.052,2.052,0,0,1,.62.5,2.153,2.153,0,0,1,.392.722,3.072,3.072,0,0,1,.137.938h-1.5a1.414,1.414,0,0,0-.262-.932.847.847,0,0,0-.688-.307,1.089,1.089,0,0,0-.4.068.747.747,0,0,0-.273.193.731.731,0,0,0-.164.289,1.185,1.185,0,0,0-.051.358,1.136,1.136,0,0,0,.052.348Z" transform="translate(-440.673 -188.44)" fill="#33eeb1"/>
    </g>
    <circle id="Ellipse_166" data-name="Ellipse 166" cx="6.076" cy="6.076" r="6.076" transform="translate(28.532 359.034)" fill="#33eeb1"/>
    <path id="Path_14" data-name="Path 14" d="M17.167,14.993H13.742a.475.475,0,0,1-.442-.442.4.4,0,0,1,.442-.442h3.424c0-.11-.11-.221-.11-.331a1.666,1.666,0,0,0-1.547-.994H13.853a.837.837,0,0,1-.442-.221c-.221-.221,0-.663.331-.663h4.971a.4.4,0,0,1,.442.442.475.475,0,0,1-.442.442H17.5A5.92,5.92,0,0,1,18.05,14h.663a.506.506,0,0,1,.552.442.475.475,0,0,1-.442.442h-.663a2.682,2.682,0,0,1-3.2,2.1l.221.221c.884.884,1.767,1.657,2.651,2.541l.221.221a.493.493,0,0,1,0,.552.365.365,0,0,1-.552,0c-.11,0-.11-.11-.221-.11-1.215-1.1-2.43-2.32-3.535-3.424-.221-.221-.331-.331-.221-.663.11-.221.331-.221.552-.221H15.73a1.326,1.326,0,0,0,1.436-1.1Z" transform="translate(18.546 348.837)" fill="#fff"/>
  </g>
</svg>
