<svg id="instacollect" xmlns="http://www.w3.org/2000/svg" xmlns:xlink="http://www.w3.org/1999/xlink" width="14.4" height="24" viewBox="0 0 14.4 24">
  <defs>
    <linearGradient id="linear-gradient" x1="0.5" y1="-0.47" x2="0.5" y2="1.285" gradientUnits="objectBoundingBox">
      <stop offset="0" stop-color="#fff5e9"/>
      <stop offset="0.605" stop-color="#7d95e6"/>
      <stop offset="1" stop-color="#3f28dd"/>
    </linearGradient>
  </defs>
  <path id="Path_1959" data-name="Path 1959" d="M12.7,0H1.7A1.651,1.651,0,0,0,0,1.592V22.408A1.651,1.651,0,0,0,1.7,24H12.7a1.651,1.651,0,0,0,1.7-1.592V1.592A1.651,1.651,0,0,0,12.7,0Z" transform="translate(0 0)" fill="#120d34"/>
  <path id="Path_1960" data-name="Path 1960" d="M12.969,1H1.031A.032.032,0,0,0,1,1.032V22.568a.032.032,0,0,0,.031.032H12.969A.032.032,0,0,0,13,22.568V1.032A.032.032,0,0,0,12.969,1Z" transform="translate(0.2 0.2)" fill="url(#linear-gradient)"/>
  <path id="Path_1961" data-name="Path 1961" d="M8.087.36H4.818a.17.17,0,0,0-.17.17V.564a.17.17,0,0,0,.17.17H8.087a.17.17,0,0,0,.17-.17V.53A.17.17,0,0,0,8.087.36Z" transform="translate(0.93 0.072)" fill="#fff"/>
  <path id="Path_1962" data-name="Path 1962" d="M6.933,15.2a4.6,4.6,0,1,0-4.6-4.6A4.6,4.6,0,0,0,6.933,15.2Z" transform="translate(0.467 1.2)" fill="#33eeb1"/>
  <path id="Path_1963" data-name="Path 1963" d="M7.005,9.39H4.777A.309.309,0,0,1,4.489,9.1a.263.263,0,0,1,.288-.287H7.005c0-.072-.072-.144-.072-.216a1.084,1.084,0,0,0-1.006-.647H4.849a.545.545,0,0,1-.287-.144c-.144-.144,0-.431.216-.431H8.011a.263.263,0,0,1,.287.287.309.309,0,0,1-.287.287H7.221a3.853,3.853,0,0,1,.359.791h.431a.329.329,0,0,1,.359.287.309.309,0,0,1-.288.288H7.652a1.745,1.745,0,0,1-2.084,1.366l.144.144c.575.575,1.15,1.078,1.725,1.653l.144.144a.321.321,0,0,1,0,.359.237.237,0,0,1-.359,0c-.072,0-.072-.072-.144-.072-.791-.719-1.581-1.509-2.3-2.228-.144-.144-.216-.216-.144-.431.072-.144.216-.144.359-.144H6.071A.865.865,0,0,0,7.005,9.39Z" transform="translate(0.898 1.476)" fill="#fff"/>
</svg>
