<?xml version="1.0" encoding="utf-8"?>
<!-- Generator: Adobe Illustrator 27.8.1, SVG Export Plug-In . SVG Version: 6.00 Build 0)  -->
<svg version="1.1" id="Layer_1" xmlns="http://www.w3.org/2000/svg" xmlns:xlink="http://www.w3.org/1999/xlink" x="0px" y="0px"
	 viewBox="0 0 32 32" style="enable-background:new 0 0 32 32;" xml:space="preserve">
<style type="text/css">
	.st0{fill:url(#SVGID_1_);}
	.st1{fill:#33EEB1;}
	.st2{fill:#FFFFFF;}
	.st3{fill:#161E44;}
</style>
<linearGradient id="SVGID_1_" gradientUnits="userSpaceOnUse" x1="5.7881" y1="-2.3745" x2="24.9881" y2="27.3431">
	<stop  offset="0" style="stop-color:#FFF5E9"/>
	<stop  offset="0.6046" style="stop-color:#7D95E6"/>
	<stop  offset="0.9986" style="stop-color:#3F28DD"/>
</linearGradient>
<path class="st0" d="M16.6,9.1c0,1.9,0,3.7,0,5.5c-1.9,0-3.8,0-5.7,0c0-1.9,0.3-3.7,0.8-5.5C13.4,9.1,15,9.1,16.6,9.1z M16.6,15.6
	c-1.9,0-3.8,0-5.7,0c0,1.9,0.3,3.7,0.8,5.5c1.6,0,3.3,0,4.9,0C16.6,19.3,16.6,17.4,16.6,15.6z M22.5,9.1c-1.6,0-3.3,0-4.9,0
	c0,1.9,0,3.7,0,5.5c1.9,0,3.8,0,5.7,0C23.2,12.8,23,10.9,22.5,9.1z M17.6,21.1c1.6,0,3.3,0,4.9,0c0.5-1.8,0.8-3.7,0.8-5.5
	c-1.9,0-3.8,0-5.7,0C17.6,17.4,17.6,19.3,17.6,21.1z M10,15.6c-1.8,0-3.5,0-5.2,0c0,1.6,0.6,4,1.5,5.4c0.1,0.1,0.2,0.2,0.3,0.2
	c1.2,0,2.5,0,3.7,0c0.1,0,0.3,0,0.5,0C10.3,19.3,10.1,17.5,10,15.6z M10.8,9.1c-0.1,0-0.1,0-0.1,0c-1.4,0-2.7,0-4.1,0
	c-0.1,0-0.2,0.1-0.3,0.2c-0.7,1.3-1.1,2.6-1.4,4.1c-0.1,0.4-0.1,0.8-0.1,1.3c1.8,0,3.5,0,5.2,0C10.1,12.8,10.3,10.9,10.8,9.1z
	 M29.4,14.5c-0.1-1.9-0.6-3.6-1.5-5.2c-0.1-0.2-0.2-0.2-0.3-0.2c-1.3,0-2.6,0-3.9,0c-0.1,0-0.2,0-0.3,0c0.5,1.8,0.7,3.7,0.8,5.5
	c1.8,0,3.5,0,5.2,0C29.4,14.6,29.4,14.6,29.4,14.5z M23.5,21.1c1.4,0,2.7,0,4.1,0c0.1,0,0.2-0.1,0.3-0.2c0.5-1,0.9-2,1.2-3.1
	c0.1-0.7,0.2-1.4,0.3-2.2c-1.8,0-3.5,0-5.3,0c0,1.9-0.3,3.7-0.7,5.5C23.5,21.1,23.5,21.1,23.5,21.1z M16.6,2.9c-0.1,0-0.2,0-0.3,0.1
	c-0.9,0.2-1.6,0.8-2.2,1.5c-0.9,1.1-1.6,2.3-2,3.7c0,0,0,0.1,0,0.1c1.5,0,3,0,4.6,0C16.6,6.4,16.6,4.6,16.6,2.9z M22.1,8.1
	c-0.4-1.1-0.9-2.2-1.6-3.2c-0.6-0.8-1.3-1.5-2.3-1.8C18,3,17.8,2.9,17.6,2.9c0,1.8,0,3.6,0,5.3c1.5,0,3,0,4.6,0
	C22.1,8.1,22.1,8.1,22.1,8.1z M12.1,22.2c0.4,1,0.8,2,1.4,2.9c0.6,0.9,1.3,1.6,2.3,2.1c0.3,0.1,0.6,0.2,0.8,0.3c0-1.8,0-3.6,0-5.4
	c-1.5,0-3,0-4.6,0C12.1,22.1,12.1,22.1,12.1,22.2z M17.8,27.3c0.8-0.2,1.5-0.7,2.1-1.3c1-1,1.6-2.3,2.1-3.6c0-0.1,0.1-0.2,0.1-0.4
	c-1.5,0-3.1,0-4.6,0c0,1.8,0,3.5,0,5.3C17.7,27.4,17.7,27.3,17.8,27.3z M20.2,3.2c0.3,0.4,0.6,0.6,0.8,1C22,5.3,22.6,6.6,23,8
	c0.1,0.2,0.1,0.2,0.3,0.2c0.9,0,1.8,0,2.7,0c0.4,0,0.7,0,1.2,0C25.5,5.7,23.2,4.1,20.2,3.2z M27.2,22.1C27.2,22.1,27.2,22,27.2,22.1
	c-1.4,0-2.7,0-3.9-0.1c-0.2,0-0.2,0.1-0.2,0.2c-0.2,0.6-0.4,1.1-0.7,1.7c-0.5,1.1-1.2,2.2-2.1,3.1C23.2,26.2,25.5,24.5,27.2,22.1z
	 M10.7,8.2c0.3,0,0.4-0.1,0.5-0.4c0.5-1.5,1.2-2.8,2.2-4c0.2-0.2,0.3-0.4,0.5-0.5c-2.9,0.8-5.2,2.4-7,4.9C8.2,8.2,9.5,8.2,10.7,8.2z
	 M13.1,26c-0.9-1.1-1.4-2.3-1.9-3.6C11.1,22.1,11,22,10.7,22c-1.2,0-2.3,0-3.5,0c-0.1,0-0.2,0-0.3,0c1.8,2.5,4.1,4.1,6.9,4.9
	C13.6,26.6,13.3,26.3,13.1,26z"/>
<g>
	<path class="st1" d="M24.3,30.5c-3.3,0-6-2.7-5.9-6c0-3.3,2.7-6,6-6s5.9,2.7,5.9,6C30.3,27.9,27.6,30.5,24.3,30.5z"/>
	<path class="st2" d="M25.2,23.3c-1,0-2.1,0-3.1,0c-0.1,0-0.2,0-0.2,0c-0.4,0-0.5-0.1-0.5-0.4c0-0.2,0.1-0.5,0.5-0.5
		c0.2,0,0.5,0,0.6,0c0.9,0,1.9,0,2.7,0c0-0.1-0.1-0.2-0.1-0.4c-0.4-0.6-0.9-1-1.6-1c-0.6,0-1.1,0-1.7,0c0,0.1-0.2,0-0.2-0.1
		c-0.2-0.2,0-0.6,0.4-0.6c0.5,0,0.9,0,1.4,0c1.1,0,2.4,0,3.5,0c0.1,0,0.1,0,0.2,0c0.2,0,0.5,0.1,0.5,0.4c0,0.2-0.1,0.5-0.5,0.5
		s-0.6,0-1,0c-0.1,0-0.2,0-0.2,0c0.2,0.4,0.4,0.9,0.6,1.2c0.1,0,0.4,0,0.6,0c0.4,0,0.5,0.1,0.5,0.5c0,0.2-0.2,0.4-0.5,0.4
		c-0.2,0-0.5,0-0.6,0c-0.5,1.6-1.6,2.2-3.2,2.1c0.1,0.1,0.1,0.2,0.2,0.2c0.9,0.9,1.7,1.7,2.7,2.6c0.1,0.1,0.1,0.1,0.2,0.2
		c0.1,0.2,0.1,0.4,0,0.6c-0.1,0.1-0.4,0.1-0.6,0c-0.1,0-0.1-0.1-0.1-0.1c-1.2-1.1-2.4-2.4-3.6-3.5c-0.5-0.2-0.7-0.4-0.6-0.6
		s0.4-0.2,0.6-0.2c0.5,0,1.1,0,1.6,0C24.4,24.7,25,24.1,25.2,23.3z"/>
</g>
<path class="st3" d="M14.9,28.7C12,28.3,9.3,27,7.1,24.8c-4.6-4.6-5.3-11.6-2-17l1.7,1.7L8,3.4l-6.3,1l1.8,1.8l0,0
	c-3.8,6-3.7,13.5,1.5,18.6c2.8,2.8,6.3,4.2,9.9,4.5l0,0c0.1,0,0.2,0,0.2-0.1l0,0C15.2,29,15.1,28.7,14.9,28.7z"/>
</svg>
