<svg xmlns="http://www.w3.org/2000/svg" xmlns:xlink="http://www.w3.org/1999/xlink" width="39.36" height="24" viewBox="0 0 39.36 24">
  <defs>
    <linearGradient id="linear-gradient" x1="0.074" y1="0.5" x2="0.989" y2="0.549" gradientUnits="objectBoundingBox">
      <stop offset="0" stop-color="#517ce3"/>
      <stop offset="0.498" stop-color="#85e6c4"/>
      <stop offset="1" stop-color="#6d44e5"/>
    </linearGradient>
  </defs>
  <path id="Neo_Icon" d="M0,28.2,3.2,9.96A3.443,3.443,0,0,1,6.613,7.187h0L11.947,18.28l2.24-11.307A3.415,3.415,0,0,1,17.493,4.2h0L14.507,19.987A3.415,3.415,0,0,1,11.2,22.76h0L5.867,11.667l-2.56,13.76A3.415,3.415,0,0,1,0,28.2Zm32.747-5.227a5.068,5.068,0,0,1-2.56-.64,4.376,4.376,0,0,1-1.707-1.707,5.068,5.068,0,0,1-.64-2.56,6.445,6.445,0,0,1,.533-2.56,6.131,6.131,0,0,1,3.52-3.52,6.865,6.865,0,0,1,2.56-.533,5.068,5.068,0,0,1,2.56.64A4.376,4.376,0,0,1,38.72,13.8a5.068,5.068,0,0,1,.64,2.56,6.987,6.987,0,0,1-1.92,4.8,5.683,5.683,0,0,1-2.133,1.387A6.454,6.454,0,0,1,32.747,22.973Zm.427-2.453a3.223,3.223,0,0,0,1.707-.533,3.351,3.351,0,0,0,1.173-1.493,4.329,4.329,0,0,0,.427-2.027,2.608,2.608,0,0,0-.64-1.92,2.171,2.171,0,0,0-1.6-.64,3.223,3.223,0,0,0-1.707.533,2.759,2.759,0,0,0-1.173,1.493,4.329,4.329,0,0,0-.427,2.027,2.608,2.608,0,0,0,.64,1.92A2.171,2.171,0,0,0,33.173,20.52Zm-8.533.213a1.654,1.654,0,0,0-2.133-.427h0a3.472,3.472,0,0,1-1.493.427,2.2,2.2,0,0,1-2.347-2.347V17.96h7.467A1.25,1.25,0,0,0,27.307,17h0a4,4,0,0,0,.107-1.067,4.958,4.958,0,0,0-.533-2.24,5.713,5.713,0,0,0-1.6-1.6,4.791,4.791,0,0,0-2.56-.533,8.012,8.012,0,0,0-2.773.533,5.153,5.153,0,0,0-2.133,1.493,6.091,6.091,0,0,0-1.387,2.24,7.427,7.427,0,0,0-.533,2.667,4.669,4.669,0,0,0,1.28,3.413,4.757,4.757,0,0,0,3.52,1.28,6.327,6.327,0,0,0,2.453-.533,8.114,8.114,0,0,0,2.027-1.28Zm-4.267-6.4a3.441,3.441,0,0,1,1.92-.64,2.4,2.4,0,0,1,1.6.533,2.012,2.012,0,0,1,.64,1.6v.213h-5.44A2.944,2.944,0,0,1,20.373,14.333Z" transform="translate(0 -4.2)" fill="url(#linear-gradient)"/>
</svg>
