<?xml version="1.0" encoding="utf-8"?>
<!-- Generator: Adobe Illustrator 26.3.1, SVG Export Plug-In . SVG Version: 6.00 Build 0)  -->
<svg version="1.1" id="Layer_1" xmlns="http://www.w3.org/2000/svg" xmlns:xlink="http://www.w3.org/1999/xlink" x="0px" y="0px"
	 viewBox="0 0 37 32" style="enable-background:new 0 0 37 32;" xml:space="preserve">
<style type="text/css">
	.st0{fill:url(#SVGID_1_);}
</style>
<linearGradient id="SVGID_1_" gradientUnits="userSpaceOnUse" x1="-2.6646" y1="15.4343" x2="36.0603" y2="15.4343">
	<stop  offset="0" style="stop-color:#3F28DD"/>
	<stop  offset="0.451" style="stop-color:#33EEB1"/>
	<stop  offset="1" style="stop-color:#6D44E5"/>
</linearGradient>
<path class="st0" d="M0,26.7L3,9.6C3.3,8.1,4.6,7,6.2,7h0l5,10.4l2.1-10.6c0.3-1.5,1.6-2.6,3.1-2.6h0L13.6,19
	c-0.3,1.5-1.6,2.6-3.1,2.6h0l-5-10.4L3.1,24.1C2.8,25.6,1.5,26.7,0,26.7L0,26.7z M30.7,21.8c-0.9,0-1.7-0.2-2.4-0.6
	c-0.7-0.4-1.2-0.9-1.6-1.6c-0.4-0.7-0.6-1.5-0.6-2.4c0-0.9,0.2-1.7,0.5-2.4c0.3-0.8,0.7-1.4,1.3-2c0.6-0.6,1.2-1,2-1.3
	c0.7-0.3,1.6-0.5,2.4-0.5c0.9,0,1.7,0.2,2.4,0.6c0.7,0.4,1.2,0.9,1.6,1.6c0.4,0.7,0.6,1.5,0.6,2.4c0,0.9-0.2,1.7-0.5,2.5
	c-0.3,0.8-0.8,1.4-1.3,2c-0.6,0.6-1.2,1-2,1.3C32.4,21.7,31.6,21.8,30.7,21.8z M31.1,19.5c0.6,0,1.1-0.2,1.6-0.5
	c0.5-0.3,0.8-0.8,1.1-1.4c0.3-0.6,0.4-1.2,0.4-1.9c0-0.8-0.2-1.4-0.6-1.8c-0.4-0.4-0.9-0.6-1.5-0.6c-0.6,0-1.1,0.2-1.6,0.5
	c-0.5,0.3-0.9,0.8-1.1,1.4c-0.3,0.6-0.4,1.2-0.4,1.9c0,0.8,0.2,1.4,0.6,1.8C30,19.3,30.5,19.5,31.1,19.5z M23.1,19.7
	c-0.5-0.6-1.3-0.8-2-0.4l0,0c-0.4,0.2-0.9,0.4-1.4,0.4c-0.7,0-1.2-0.2-1.6-0.6c-0.4-0.4-0.6-0.9-0.6-1.6c0-0.1,0-0.2,0-0.4h7
	c0.5,0,1-0.4,1.1-0.9v0c0.1-0.4,0.1-0.7,0.1-1c0-0.8-0.2-1.5-0.5-2.1c-0.4-0.6-0.9-1.1-1.5-1.5c-0.7-0.4-1.4-0.5-2.4-0.5
	c-0.9,0-1.8,0.2-2.6,0.5c-0.8,0.3-1.5,0.8-2,1.4c-0.6,0.6-1,1.3-1.3,2.1c-0.3,0.8-0.5,1.6-0.5,2.5c0,1.3,0.4,2.4,1.2,3.2
	c0.8,0.8,1.9,1.2,3.3,1.2c0.8,0,1.6-0.2,2.3-0.5c0.7-0.3,1.3-0.7,1.9-1.2L23.1,19.7z M19.1,13.7c0.6-0.4,1.2-0.6,1.8-0.6
	c0.6,0,1.2,0.2,1.5,0.5c0.4,0.4,0.6,0.8,0.6,1.5c0,0,0,0.1,0,0.2h-5.1C18.1,14.6,18.5,14.1,19.1,13.7z"/>
</svg>
