<svg width="31" height="32" viewBox="0 0 31 32" fill="none" xmlns="http://www.w3.org/2000/svg">
<path d="M15.1466 23.13C18.538 23.13 21.2873 20.3807 21.2873 16.9893C21.2873 13.5979 18.538 10.8486 15.1466 10.8486C11.7552 10.8486 9.00586 13.5979 9.00586 16.9893C9.00586 20.3807 11.7552 23.13 15.1466 23.13Z" fill="#33EEB1"/>
<path d="M30.2943 16.9893H0C0.136461 25.3134 6.82304 32 15.1472 32C23.4713 32 30.1578 25.3134 30.2943 16.9893Z" fill="url(#paint0_linear)"/>
<path d="M27.0181 4.70782L20.3315 6.48182C20.0586 6.61828 19.9221 6.8912 20.1951 7.02766L21.2868 8.25581C21.4232 8.39227 21.4232 8.66519 21.2868 8.80165L19.6492 10.5756C19.5128 10.7121 19.5128 10.8486 19.6492 10.985L21.1503 12.759C21.2867 12.8955 21.5597 12.8955 21.6961 12.759L23.1972 10.985C23.3337 10.8486 23.6066 10.8486 23.743 10.985L25.1077 12.2132C25.2441 12.3496 25.6535 12.3496 25.6535 12.0767L27.4275 5.25367C27.4275 4.98075 27.1546 4.70782 27.0181 4.70782Z" fill="#18253E"/>
<path d="M9.00597 8.93811C8.86951 8.80165 8.86951 8.52873 9.00597 8.39227L10.0977 7.16412C10.2341 7.02766 10.2341 6.61828 9.9612 6.61828L3.27462 4.70782C3.13816 4.70782 2.86523 4.98075 2.86523 5.25367L4.63923 11.9402C4.63923 12.2132 5.04861 12.3496 5.18507 12.0767L6.8226 10.7121C6.95906 10.5756 7.23198 10.5756 7.36844 10.7121L8.86951 12.759C9.00597 12.8955 9.27889 12.8955 9.41536 12.759L10.78 11.2579C10.9164 11.1215 10.9164 10.8486 10.78 10.7121L9.00597 8.93811Z" fill="#18253E"/>
<path d="M15.4181 0.204691C15.2817 -0.0682304 14.8723 -0.0682304 14.7358 0.204691L11.3243 6.34543C11.1878 6.48189 11.4608 6.75481 11.5972 6.75481L13.5077 6.89127C13.5077 7.30066 13.5077 8.66526 13.5077 9.34757C13.5077 9.62049 13.6441 9.75695 13.9171 9.75695C14.4629 9.75695 15.4181 9.75695 15.964 9.75695C16.2369 9.75695 16.3734 9.62049 16.3734 9.34757C16.3734 8.66526 16.2369 7.30066 16.3734 6.89127L18.5567 6.75481C18.8296 6.75481 18.9661 6.48189 18.8296 6.20897L15.4181 0.204691Z" fill="#18253E"/>
<path d="M9.00586 17.1259C9.00586 20.5374 11.7351 23.2667 15.1466 23.2667C18.5581 23.2667 21.2873 20.5374 21.2873 17.1259H9.00586Z" fill="white"/>
<defs>
<linearGradient id="paint0_linear" x1="9.88728" y1="47.6023" x2="19.1621" y2="-5.23445" gradientUnits="userSpaceOnUse">
<stop stop-color="#FFF5E9"/>
<stop offset="0.6046" stop-color="#7D95E6"/>
<stop offset="0.9986" stop-color="#3F28DD"/>
</linearGradient>
</defs>
</svg>
