<svg xmlns="http://www.w3.org/2000/svg" xmlns:xlink="http://www.w3.org/1999/xlink" width="31.122" height="23.999" viewBox="0 0 31.122 23.999">
  <defs>
    <linearGradient id="linear-gradient" x1="0.5" y1="-0.265" x2="0.5" y2="1" gradientUnits="objectBoundingBox">
      <stop offset="0" stop-color="#fff5e9"/>
      <stop offset="0.605" stop-color="#7d95e6"/>
      <stop offset="1" stop-color="#3f28dd"/>
    </linearGradient>
  </defs>
  <g id="smartx" transform="translate(-1.5 -5.5)">
    <g id="Group_7997" data-name="Group 7997" transform="translate(1.5 5.499)">
      <path id="Path_15534" data-name="Path 15534" d="M8.848,17.411c0,.11-.11.219-.11.329v.11c0,.11-.11.11-.11.219v.11a.236.236,0,0,1-.219.219h0l-.11.11h.219a1.749,1.749,0,0,0,1.534-.877,1.682,1.682,0,0,0,0-1.753A1.749,1.749,0,0,0,8.519,15H8.3l.11.11v.11c.11.11.11.11.11.219v.11c0,.11.11.11.11.219v.11h0c0,.11.11.219.11.329h0v1.1h0c.219-.219.11-.11.11.11Z" transform="translate(-0.848 -4.588)" fill="#18253e"/>
      <path id="Union_14" data-name="Union 14" d="M1.863,18.083a1.582,1.582,0,0,1-1.312-.55A1.8,1.8,0,0,1,0,16.219V7.343H28.492v8.876a2.015,2.015,0,0,1-.551,1.314,1.8,1.8,0,0,1-1.314.55Zm5.807-3.29a2.288,2.288,0,0,0,2.193-1.421,3.023,3.023,0,0,0,0-2.739,2.67,2.67,0,0,0-2.3-1.314,1.961,1.961,0,0,0-1.1.22,3.21,3.21,0,0,0-1.1-.22A2.671,2.671,0,0,0,3.51,10.2a2.621,2.621,0,0,0-.77,1.862,2.385,2.385,0,0,0,.875,1.972,2.862,2.862,0,0,0,1.863.764,1.979,1.979,0,0,0,1.1-.219A3.188,3.188,0,0,0,7.67,14.793Zm5.811-1.641a.47.47,0,0,0,.438.439H25.426a.438.438,0,0,0,0-.877H13.918A.4.4,0,0,0,13.48,13.152Zm0-2.193a.47.47,0,0,0,.438.438H25.426a.438.438,0,0,0,0-.876H13.918A.4.4,0,0,0,13.48,10.959ZM0,3.615V1.863A1.8,1.8,0,0,1,.551.55,1.59,1.59,0,0,1,1.863,0H26.74A2.01,2.01,0,0,1,28.053.55,1.808,1.808,0,0,1,28.6,1.863V3.615Z" transform="translate(0)" fill="url(#linear-gradient)"/>
      <rect id="Rectangle_1690" data-name="Rectangle 1690" width="28.601" height="2.74" transform="translate(0 4.056)" fill="#18253e"/>
      <path id="Path_15537" data-name="Path 15537" d="M6.563,18.516A2.064,2.064,0,0,0,7.44,18.3a1.71,1.71,0,0,0,.877-1.425v-.219a2.064,2.064,0,0,0-.219-.877,1.279,1.279,0,0,0-.658-.658,2.064,2.064,0,0,0-.877-.219,2.277,2.277,0,0,0-1.315.548A1.815,1.815,0,0,0,4.7,16.763a2.022,2.022,0,0,0,.548,1.315A3.115,3.115,0,0,0,6.563,18.516Z" transform="translate(-1.193 -4.598)" fill="#18253e"/>
    </g>
    <path id="Path_15538" data-name="Path 15538" d="M24.927,16.4H24.27a6.046,6.046,0,0,0,.658,12.054,5.864,5.864,0,0,0,5.26-3.068,5.309,5.309,0,0,0,.767-2.849A6.177,6.177,0,0,0,24.927,16.4Z" transform="translate(1.668 1.045)" fill="#33eeb1"/>
    <path id="Path_15539" data-name="Path 15539" d="M25.288,20.93H22.438c-.329,0-.438-.11-.438-.329a.4.4,0,0,1,.438-.438h2.849c0-.11-.11-.219-.11-.329a1.546,1.546,0,0,0-1.315-.877H22.438c0,.11-.219,0-.219-.11-.219-.219,0-.548.329-.548h4.164c.219,0,.438.11.438.329a.4.4,0,0,1-.438.438h-1.1a7.95,7.95,0,0,0,.548.986h.548c.329,0,.438.11.438.438,0,.219-.219.329-.438.329h-.548a2.305,2.305,0,0,1-2.63,1.753c.11.11.11.219.219.219.767.767,1.425,1.425,2.3,2.192l.219.219a.5.5,0,0,1,0,.548.489.489,0,0,1-.548,0,.107.107,0,0,1-.11-.11c-.986-.877-1.973-1.973-2.959-2.849-.438-.219-.658-.329-.548-.548s.329-.219.548-.219h1.315A1.156,1.156,0,0,0,25.288,20.93Z" transform="translate(1.965 1.227)" fill="#fff"/>
  </g>
</svg>
