<svg xmlns="http://www.w3.org/2000/svg" xmlns:xlink="http://www.w3.org/1999/xlink" width="24.499" height="24.498" viewBox="0 0 24.499 24.498">
  <defs>
    <linearGradient id="linear-gradient" x1="0.5" y1="-0.178" x2="0.5" y2="1" gradientUnits="objectBoundingBox">
      <stop offset="0" stop-color="#fff5e9"/>
      <stop offset="0.605" stop-color="#7d95e6"/>
      <stop offset="1" stop-color="#3f28dd"/>
    </linearGradient>
  </defs>
  <g id="Group_5328" data-name="Group 5328" transform="translate(6462.622 -119.161)">
    <path id="Path_4084" data-name="Path 4084" d="M78.743,23.991A8.618,8.618,0,0,0,81.5,13.873a8.413,8.413,0,0,0-3.887-4.295,8.508,8.508,0,0,0-5.748-.845V2.723A2.575,2.575,0,0,1,74.585,0h9.277V4.141a2.575,2.575,0,0,0,2.725,2.713h4.129V21.288a2.572,2.572,0,0,1-2.7,2.7H78.743Zm.006-18.85H76.234a.859.859,0,1,0-.015,1.712h5a.859.859,0,1,0-.012-1.712H78.749m5.955,6h1.686a.857.857,0,1,0-.011-1.712q-1.659,0-3.318,0a.858.858,0,1,0,.011,1.712H84.7m.862,4.284c.286,0,.571.005.856,0a.855.855,0,1,0,0-1.71c-.562-.007-1.125-.007-1.685,0a.855.855,0,0,0,0,1.711c.277.005.553,0,.829,0m.013,4.284c.277,0,.553,0,.829,0a.857.857,0,1,0,.005-1.715q-.843-.01-1.685,0a.855.855,0,0,0-.006,1.71c.285.007.571,0,.856,0" transform="translate(-6528.842 119.166)" fill="url(#linear-gradient)"/>
    <path id="Subtraction_1" data-name="Subtraction 1" d="M6.869,13.71A6.855,6.855,0,1,1,6.815,0h.014A6.852,6.852,0,0,1,11.7,11.689a6.782,6.782,0,0,1-4.819,2.02ZM9.643,7.333h0l.736,1.143h.681L10.027,6.863l1.014-1.631h-.667L9.707,6.363,8.98,5.233H8.3l1.029,1.6L8.312,8.477h.667l.667-1.143Zm-3.749.394H7.162l.26.75h.63L6.866,5.233H6.2L5.013,8.477h.621l.264-.75ZM2.635,5.233v.477h.945V8.476h.593V5.71h.95V5.233ZM7,7.262H6.059l.468-1.35L7,7.262Z" transform="translate(-6462.109 129.448)" fill="#1eefb0" stroke="rgba(0,0,0,0)" stroke-miterlimit="10" stroke-width="1"/>
    <path id="Path_4086" data-name="Path 4086" d="M268.048,13.329c-1.206,0-2.453.007-3.7,0a.815.815,0,0,1-.8-.784c-.014-1.257-.005-2.513-.005-3.721l4.511,4.509" transform="translate(-6706.801 110.976)" fill="#17243f"/>
  </g>
</svg>
