<svg xmlns="http://www.w3.org/2000/svg" xmlns:xlink="http://www.w3.org/1999/xlink" width="32.493" height="32.5" viewBox="0 0 32.493 32.5">
  <defs>
    <linearGradient id="linear-gradient" x1="0.448" y1="-0.164" x2="0.5" y2="0.989" gradientUnits="objectBoundingBox">
      <stop offset="0" stop-color="#fff5e8"/>
      <stop offset="1" stop-color="#515ff0"/>
    </linearGradient>
  </defs>
  <g id="Group_5328" data-name="Group 5328" transform="translate(6462.609 -119.167)">
    <path id="Path_4084" data-name="Path 4084" d="M81.039,32a11.494,11.494,0,0,0,3.683-13.495,11.221,11.221,0,0,0-5.185-5.728,11.348,11.348,0,0,0-7.667-1.127v-.416q0-3.8,0-7.6A3.435,3.435,0,0,1,75.493,0q5.979,0,11.958,0h.415V.384q0,2.571,0,5.141A3.435,3.435,0,0,0,91.5,9.144q2.534,0,5.069,0h.438v.4q0,9.425,0,18.851A3.43,3.43,0,0,1,93.4,32q-5.961,0-11.922,0Zm.008-25.142c-1.118,0-2.237,0-3.355,0a1.146,1.146,0,1,0-.02,2.284q3.338,0,6.675,0a1.146,1.146,0,1,0-.016-2.284c-1.095,0-2.189,0-3.284,0m7.943,8c.75,0,1.5,0,2.249,0a1.143,1.143,0,1,0-.015-2.283q-2.213-.006-4.426,0a1.144,1.144,0,1,0,.015,2.283c.726,0,1.452,0,2.177,0m1.15,5.714c.381,0,.762.007,1.142,0a1.14,1.14,0,1,0,.006-2.281c-.749-.01-1.5-.009-2.248,0a1.141,1.141,0,1,0-.006,2.282c.369.007.738,0,1.106,0m.017,5.714c.369,0,.738.006,1.106,0A1.141,1.141,0,1,0,91.27,24q-1.124-.013-2.248,0a1.14,1.14,0,1,0-.008,2.281c.38.009.761,0,1.142,0" transform="translate(-6527.125 119.166)" fill="url(#linear-gradient)"/>
    <path id="Subtraction_1" data-name="Subtraction 1" d="M9.166,18.286A9.143,9.143,0,0,1,9.094,0h.019a9.139,9.139,0,0,1,6.5,15.591,9.045,9.045,0,0,1-6.427,2.694Zm3.7-8.506v0l.982,1.525h.908L13.378,9.154l1.353-2.175h-.89l-.89,1.508-.97-1.508h-.908l1.372,2.138L11.09,11.306h.89l.889-1.525Zm-5,.525H9.557l.347,1h.84L9.162,6.979h-.89L6.69,11.306h.828l.352-1ZM3.519,6.979v.636H4.78v3.69h.791V7.616H6.838V6.979ZM9.341,9.686H8.086l.624-1.8.63,1.8Z" transform="translate(-6462.109 132.882)" fill="#1eefb0" stroke="rgba(0,0,0,0)" stroke-miterlimit="10" stroke-width="1"/>
    <path id="Path_4086" data-name="Path 4086" d="M269.554,14.834c-1.608,0-3.272.01-4.937-.005a1.087,1.087,0,0,1-1.072-1.046c-.019-1.676-.007-3.352-.007-4.963l6.016,6.014" transform="translate(-6700.508 111.188)" fill="#17243f"/>
  </g>
</svg>
