<svg xmlns="http://www.w3.org/2000/svg" xmlns:xlink="http://www.w3.org/1999/xlink" width="19.232" height="24" viewBox="0 0 19.232 24">
  <defs>
    <linearGradient id="linear-gradient" x1="0.5" y1="-0.222" x2="0.5" y2="1" gradientUnits="objectBoundingBox">
      <stop offset="0" stop-color="#fff5e9"/>
      <stop offset="0.605" stop-color="#7d95e6"/>
      <stop offset="1" stop-color="#3f28dd"/>
    </linearGradient>
  </defs>
  <g id="Vendor_Payout_RGB" data-name="Vendor Payout RGB" transform="translate(-35.3)">
    <path id="Path_16178" data-name="Path 16178" d="M176.026,230.32a13.985,13.985,0,0,1-1.411-.378,5,5,0,1,1,2.525.338.908.908,0,0,0-.182.047C176.653,230.32,176.343,230.32,176.026,230.32Zm1.5-4.26a.282.282,0,0,1-.014.074l-.844.844a.763.763,0,1,0,1.08,1.073c.567-.56,1.127-1.121,1.688-1.688a1.449,1.449,0,0,0,.027-2.066c-.581-.608-1.181-1.2-1.789-1.789a.762.762,0,1,0-1.067,1.087c.257.263.52.52.776.783.04.041.068.088.128.162h-2.241c-.466,0-.938-.014-1.4.007a.754.754,0,0,0-.7.992.766.766,0,0,0,.776.527C175.134,226.067,176.323,226.06,177.524,226.06Z" transform="translate(-126.987 -206.334)" fill="#33eeb1"/>
    <path id="Path_16179" data-name="Path 16179" d="M52.387,14.114a3.114,3.114,0,0,0-2.289-.047,2.874,2.874,0,0,1-3.821-.257c-.115-.115-.25-.209-.371-.311h-.284a3.729,3.729,0,0,0-.358.29,2.9,2.9,0,0,1-4.2-.02,4.1,4.1,0,0,0-.317-.263h-.284a3.756,3.756,0,0,0-.365.284,2.884,2.884,0,0,1-3.855.284.548.548,0,0,0-.878.054c0,1.188-.068,20.928-.068,22.785.338.331.533.331.911.047a2.779,2.779,0,0,1,3.139-.3,6.1,6.1,0,0,1,.77.567c.115.088.23.176.351.27h.284c.122-.108.25-.2.365-.317a2.848,2.848,0,0,1,3.024-.689c.041.014.088.027.115.034-1.917-3.031-1.951-6.015.614-8.648,2.2-2.255,4.888-2.457,7.743-1.168.007-.074.014-.155.014-.236C52.569,23.458,52.387,15.309,52.387,14.114Zm-11.362,13.7a.831.831,0,0,1-.135.014H38.034a.736.736,0,0,1-.176-.02.366.366,0,0,1-.257-.4.361.361,0,0,1,.331-.324h2.984a.374.374,0,0,1,.365.2A.365.365,0,0,1,41.025,27.819Zm0,1.992a.831.831,0,0,1-.135.014H38.034a.736.736,0,0,1-.176-.02.366.366,0,0,1-.257-.4.361.361,0,0,1,.331-.324h2.984a.374.374,0,0,1,.365.2A.362.362,0,0,1,41.025,29.811Z" transform="translate(0 -13.5)" fill="url(#linear-gradient)"/>
    <path id="Path_16180" data-name="Path 16180" d="M74.122,57.021a1.972,1.972,0,0,0-1.83-1.175H70.335a.957.957,0,0,1-.52-.263c-.263-.263,0-.783.392-.783h5.88a.477.477,0,0,1,.52.52.559.559,0,0,1-.52.52H74.649a7.147,7.147,0,0,1,.655,1.438h.783a.6.6,0,0,1,.655.52.559.559,0,0,1-.52.52h-.783c-.52,1.958-1.83,2.613-3.787,2.484l.263.263c1.046,1.046,2.093,1.958,3.139,3l.263.263a.6.6,0,0,1,0,.655.433.433,0,0,1-.655,0c-.128,0-.128-.128-.263-.128-1.438-1.31-2.876-2.748-4.179-4.051-.263-.263-.392-.392-.263-.783.128-.263.392-.263.655-.263h1.958a1.579,1.579,0,0,0,1.7-1.31H70.22a.559.559,0,0,1-.52-.52.474.474,0,0,1,.52-.52H74.27C74.25,57.284,74.122,57.156,74.122,57.021Z" transform="translate(-32.078 -52.012)" fill="#18253e"/>
  </g>
</svg>
