<svg xmlns="http://www.w3.org/2000/svg" xmlns:xlink="http://www.w3.org/1999/xlink" width="52" height="52" viewBox="0 0 52 52">
  <defs>
    <linearGradient id="linear-gradient" x1="0.322" y1="-0.805" x2="0.602" y2="1.258" gradientUnits="objectBoundingBox">
      <stop offset="0" stop-color="#fff5e9"/>
      <stop offset="0.605" stop-color="#7d95e6"/>
      <stop offset="0.999" stop-color="#3f28dd"/>
    </linearGradient>
  </defs>
  <g id="EasyCollect" transform="translate(-663 -55)">
    <rect id="Rectangle_6094" data-name="Rectangle 6094" width="52" height="52" transform="translate(663 55)" fill="none"/>
    <g id="Easy_Collect" data-name="Easy Collect" transform="translate(668.2 60.2)">
      <path id="Path_1928" data-name="Path 1928" d="M23.308,15.908A11.476,11.476,0,0,1,22.06,20.9,10.281,10.281,0,1,0,11.9,5.748h1.07A10.2,10.2,0,0,1,23.308,15.908Z" transform="translate(8.777 -0.4)" fill="#18253e"/>
      <path id="Path_1929" data-name="Path 1929" d="M15.839,4h-1.07a10.367,10.367,0,1,0,10.16,15.33,9.451,9.451,0,0,0,1.248-4.991A10.346,10.346,0,0,0,15.839,4Z" transform="translate(3.769 2.417)" fill="#33eeb1"/>
      <path id="Path_1930" data-name="Path 1930" d="M14.446,10.478H9.633c-.535,0-.713-.178-.713-.535a.653.653,0,0,1,.713-.713h4.813c0-.178-.178-.357-.178-.535A2.569,2.569,0,0,0,11.95,7.27h-2.5c0,.178-.357,0-.357-.178-.357-.357,0-.891.535-.891h7.308c.357,0,.713.178.713.535a.653.653,0,0,1-.713.713H15.159c.357.535.535,1.248.891,1.783h.891c.535,0,.713.178.713.713,0,.357-.356.535-.713.535H16.05c-.713,2.317-2.317,3.209-4.635,3.03.178.178.178.357.357.357,1.248,1.248,2.5,2.5,3.922,3.743l.357.357a.81.81,0,0,1,0,.891.8.8,0,0,1-.891,0,.175.175,0,0,1-.178-.178c-1.783-1.6-3.387-3.387-5.169-4.991-.713-.357-1.07-.535-.891-.891s.535-.357.891-.357h2.317A2.319,2.319,0,0,0,14.446,10.478Z" transform="translate(6.41 4.139)" fill="#fff"/>
      <g id="Group_3251" data-name="Group 3251" transform="translate(0 20.029)">
        <g id="Group_3250" data-name="Group 3250">
          <path id="Path_1931" data-name="Path 1931" d="M21.155,24.584H12.6a2.024,2.024,0,0,0-1.426.535c-2.317,2.317-4.813,4.635-7.13,6.952-.713,1.07-1.6,1.426-2.5.891A2.261,2.261,0,0,1,.3,30.644v-5.7a2.862,2.862,0,0,1,.891-1.961l8.021-8.021a3.289,3.289,0,0,1,2.139-.891H25.968a2.241,2.241,0,0,1,2.5,1.961c0,1.248-.891,1.961-2.5,1.961H20.621c-.357,0-.535.357-.891.535.357.178.535.535.891.535h9.8a2.033,2.033,0,0,0,1.07-.535c2.139-1.961,4.1-4.1,6.061-6.061,1.07-1.07,2.317-1.07,3.03-.178.891.891.713,1.961-.357,3.03l-8.2,8.2a3.289,3.289,0,0,1-2.139.891A72.159,72.159,0,0,1,21.155,24.584Z" transform="translate(-0.3 -11.637)" fill="url(#linear-gradient)"/>
        </g>
      </g>
    </g>
  </g>
</svg>
