<svg xmlns="http://www.w3.org/2000/svg" xmlns:xlink="http://www.w3.org/1999/xlink" width="52" height="52" viewBox="0 0 52 52">
  <defs>
    <linearGradient id="linear-gradient" x1="-1.084" y1="1.322" x2="0.211" y2="1.959" gradientUnits="objectBoundingBox">
      <stop offset="0" stop-color="#fff5e9"/>
      <stop offset="0.605" stop-color="#7d95e6"/>
      <stop offset="1" stop-color="#3f28dd"/>
    </linearGradient>
  </defs>
  <g id="Payment_gateway" data-name="Payment gateway" transform="translate(-760 -55)">
    <rect id="Rectangle_6094" data-name="Rectangle 6094" width="52" height="52" transform="translate(760 55)" fill="none"/>
    <g id="Payment_Gateway-2" data-name="Payment Gateway" transform="translate(762.6 60.2)">
      <path id="Path_1932" data-name="Path 1932" d="M46.076,26.28V9.587A6.291,6.291,0,0,0,39.789,3.3H7.7A6.291,6.291,0,0,0,1.417,9.587L1.2,26.28Z" transform="translate(-1.2 -3.3)" fill="#18253e"/>
      <circle id="Ellipse_184" data-name="Ellipse 184" cx="13.875" cy="13.875" r="13.875" transform="translate(19.294 5.42)" fill="#33eeb1"/>
      <path id="Path_1933" data-name="Path 1933" d="M21.388,14.27H14.667A.933.933,0,0,1,13.8,13.4a.794.794,0,0,1,.867-.867h6.721c0-.217-.217-.434-.217-.65a3.27,3.27,0,0,0-3.035-1.951H14.884a1.644,1.644,0,0,1-.867-.434c-.434-.434,0-1.3.65-1.3h9.756a.794.794,0,0,1,.867.867c.217.65-.217.867-.867.867H22.038a11.618,11.618,0,0,1,1.084,2.385h1.3a.992.992,0,0,1,1.084.867.933.933,0,0,1-.867.867h-1.3c-.867,3.252-3.035,4.336-6.287,4.119l.434.434c1.734,1.734,3.469,3.252,5.2,4.986l.434.434a.968.968,0,0,1,0,1.084.715.715,0,0,1-1.084,0c-.217,0-.217-.217-.434-.217-2.385-2.168-4.769-4.553-6.937-6.721-.434-.434-.65-.65-.434-1.3.217-.434.65-.434,1.084-.434h3.252C19.653,16.655,20.954,15.571,21.388,14.27Z" transform="translate(13.516 2.423)" fill="#fff"/>
      <path id="Path_1934" data-name="Path 1934" d="M4.452,32.35A6.123,6.123,0,0,1,1.2,26.93V9.587A6.291,6.291,0,0,1,7.487,3.3l20.6,10.406c7.371,3.252,6.287,6.287,6.287,9.756V40.8a4.1,4.1,0,0,1-5.853,3.685Z" transform="translate(-1.2 -3.3)" fill="url(#linear-gradient)"/>
    </g>
  </g>
</svg>
