<svg xmlns="http://www.w3.org/2000/svg" xmlns:xlink="http://www.w3.org/1999/xlink" width="52" height="52" viewBox="0 0 52 52">
  <defs>
    <linearGradient id="linear-gradient" x1="-1.864" y1="-0.834" x2="0" y2="6.08" gradientUnits="objectBoundingBox">
      <stop offset="0" stop-color="#fff5e9"/>
      <stop offset="0.605" stop-color="#7d95e6"/>
      <stop offset="1" stop-color="#3f28dd"/>
    </linearGradient>
  </defs>
  <g id="Slices" transform="translate(-432 -55)">
    <rect id="Rectangle_6099" data-name="Rectangle 6099" width="52" height="52" transform="translate(432 55)" fill="none"/>
    <g id="Bridge_Buzz" data-name="Bridge Buzz" transform="translate(438.5 60.2)">
      <ellipse id="Ellipse_180" data-name="Ellipse 180" cx="7.983" cy="7.983" rx="7.983" ry="7.983" transform="translate(11.708 14.103)" fill="#33eeb1"/>
      <path id="Path_1915" data-name="Path 1915" d="M40.283,12.7H.9a19.692,19.692,0,0,0,39.383,0Z" transform="translate(-0.9 9.386)" fill="url(#linear-gradient)"/>
      <g id="Group_3243" data-name="Group 3243" transform="translate(3.725 0)">
        <path id="Path_1916" data-name="Path 1916" d="M24.938,3.7,16.245,6.006c-.355.177-.532.532-.177.71l1.419,1.6a.54.54,0,0,1,0,.71l-2.129,2.306a.333.333,0,0,0,0,.532l1.951,2.306a.54.54,0,0,0,.71,0L19.97,11.86a.54.54,0,0,1,.71,0l1.774,1.6c.177.177.71.177.71-.177L25.47,4.41A.792.792,0,0,0,24.938,3.7Z" transform="translate(6.462 2.42)" fill="#18253e"/>
        <path id="Path_1917" data-name="Path 1917" d="M10.983,9.2a.54.54,0,0,1,0-.71l1.419-1.6c.177-.177.177-.71-.177-.71L3.532,3.7A.792.792,0,0,0,3,4.41L5.306,13.1a.381.381,0,0,0,.71.177l2.129-1.774a.54.54,0,0,1,.71,0l1.951,2.661a.54.54,0,0,0,.71,0l1.774-1.951a.54.54,0,0,0,0-.71Z" transform="translate(-3 2.42)" fill="#18253e"/>
        <path id="Path_1918" data-name="Path 1918" d="M14.543.516a.5.5,0,0,0-.887,0L9.221,8.5c-.177.177.177.532.355.532l2.484.177V12.4a.47.47,0,0,0,.532.532h2.661a.47.47,0,0,0,.532-.532,19.06,19.06,0,0,1,0-3.193l2.838-.177c.355,0,.532-.355.355-.71Z" transform="translate(1.778 -0.25)" fill="#18253e"/>
      </g>
      <path id="Path_1919" data-name="Path 1919" d="M7.5,12.8a7.983,7.983,0,0,0,15.966,0H7.5Z" transform="translate(4.208 9.464)" fill="#fff"/>
    </g>
  </g>
</svg>
