<svg xmlns="http://www.w3.org/2000/svg" width="32" height="25.907" viewBox="0 0 32 25.907">
  <g id="Group_19838" data-name="Group 19838" transform="translate(-143 -3129.998)">
    <path id="Path_27001" data-name="Path 27001" d="M34.183,110.262a.379.379,0,0,1-.2-.059l-8.315-5.253V98.386A7.635,7.635,0,0,0,30.26,89.15L33.982,86.8a.378.378,0,0,1,.383-.012.374.374,0,0,1,.2.329v22.773a.377.377,0,0,1-.376.375Zm-9.269-5.618H17.4a.375.375,0,0,1-.376-.375V96.194a7.691,7.691,0,0,0,7.895,2.441Z" transform="translate(127.043 3045.642)" fill="#81e6c6" fill-rule="evenodd"/>
    <path id="Path_27002" data-name="Path 27002" d="M308.67,196.38a5.059,5.059,0,0,1,0,9.863Z" transform="translate(-146.386 2942.824)" fill="#7de7c8" fill-rule="evenodd"/>
    <path id="Path_27003" data-name="Path 27003" d="M6.994,62.578a6.924,6.924,0,1,1,6.924-6.924A6.932,6.932,0,0,1,6.994,62.578Zm-.893-4.9a.377.377,0,0,1-.263-.107h0l-1.51-1.509a.376.376,0,1,1,.532-.532L6.1,56.769l3.028-3.028a.376.376,0,1,1,.532.532L6.368,57.567h0a.378.378,0,0,1-.228.1H6.1Zm.893,3.048a5.071,5.071,0,1,1,5.07-5.071A5.077,5.077,0,0,1,6.994,60.725Zm0-9.389a4.318,4.318,0,1,0,4.318,4.318,4.323,4.323,0,0,0-4.318-4.318Z" transform="translate(142.93 3081.268)" fill="#6d44e5" fill-rule="evenodd"/>
    <path id="Path_27004" data-name="Path 27004" d="M453.011,169.725a.376.376,0,0,1-.266-.642,9.781,9.781,0,0,0,0-13.816.376.376,0,0,1,.532-.532,10.533,10.533,0,0,1,0,14.88A.375.375,0,0,1,453.011,169.725Z" transform="translate(-281.354 2981.957)" fill="#81e6c6" fill-rule="evenodd"/>
    <path id="Path_27005" data-name="Path 27005" d="M420.152,198.463a.376.376,0,0,1-.267-.642,6.862,6.862,0,0,0,0-9.694.376.376,0,0,1,.533-.532,7.615,7.615,0,0,1,0,10.758A.376.376,0,0,1,420.152,198.463Z" transform="translate(-250.554 2951.161)" fill="rgba(129,230,198,0.8)" fill-rule="evenodd"/>
    <path id="Path_27006" data-name="Path 27006" d="M387.294,227.194a.376.376,0,0,1-.266-.642,3.94,3.94,0,0,0,0-5.572.376.376,0,1,1,.532-.532,4.692,4.692,0,0,1,0,6.636A.375.375,0,0,1,387.294,227.194Z" transform="translate(-219.738 2920.371)" fill="rgba(129,230,198,0.4)" fill-rule="evenodd"/>
  </g>
</svg>
