<svg xmlns="http://www.w3.org/2000/svg" width="32" height="32.2" viewBox="0 0 32 32.2">
  <g id="Customer_Support" data-name="Customer Support" transform="translate(-82 -605)">
    <rect id="Rectangle_2388" data-name="Rectangle 2388" width="32" height="32" transform="translate(82 605)" fill="none"/>
    <g id="Group_9119" data-name="Group 9119" transform="translate(82 605.2)">
      <path id="Path_18019" data-name="Path 18019" d="M16,0A16.018,16.018,0,0,0,0,16v6.629A3.1,3.1,0,0,0,3.2,25.6H4.8A1.6,1.6,0,0,0,6.4,24V15.771a1.6,1.6,0,0,0-1.6-1.6H3.347a12.782,12.782,0,0,1,25.306,0H27.2a1.6,1.6,0,0,0-1.6,1.6V25.6h3.2S32,24.267,32,22.629V16A16.018,16.018,0,0,0,16,0Z" transform="translate(0 0)" fill="#85e6c4"/>
      <path id="Path_18020" data-name="Path 18020" d="M24.5,23.4s-1.435,3.2-3.2,3.2H18.1V25H11.7v4.8h9.6c3.53,0,6.4-6.4,6.4-6.4Z" transform="translate(1.099 2.198)" fill="#6d44e5"/>
    </g>
  </g>
</svg>
