<svg xmlns="http://www.w3.org/2000/svg" width="32" height="27.228" viewBox="0 0 32 27.228">
  <g id="rupee_843780" transform="translate(0 -41.65)">
    <g id="Group_19798" data-name="Group 19798" transform="translate(12.146 52.695)">
      <g id="Group_19797" data-name="Group 19797" transform="translate(0 -2)">
        <path id="Path_27016" data-name="Path 27016" d="M174.123,154.464h-1.053a3.3,3.3,0,0,0-.444-1.03h1.5a.792.792,0,1,0,.008-1.584h-6.139a.792.792,0,1,0,0,1.584h1.758a1.8,1.8,0,0,1,1.663,1.03h-3.422a.792.792,0,0,0,0,1.584h3.422a2.485,2.485,0,0,1-.356.5,1.861,1.861,0,0,1-1.3.531H168a.8.8,0,0,0-.792.816.818.818,0,0,0,.246.57l4.388,4.158a.79.79,0,1,0,1.109-1.125l-.024-.024-2.954-2.8a3.383,3.383,0,0,0,2.194-1,3.349,3.349,0,0,0,.911-1.632h1.046a.792.792,0,0,0,0-1.584Z" transform="translate(-167.2 -151.85)" fill="#6d44e5"/>
      </g>
    </g>
    <g id="Group_19800" data-name="Group 19800" transform="translate(5.773 50.723)">
      <g id="Group_19799" data-name="Group 19799" transform="translate(0 0)">
        <path id="Path_27017" data-name="Path 27017" d="M103.511,166.505l-3.405-5.315a.725.725,0,0,0-.607-.341.716.716,0,0,0-.607.341l-3.413,5.3a.836.836,0,0,0,.192,1.109.732.732,0,0,0,.415.143h2.48a11.729,11.729,0,0,1-3.879,6.867,10.993,10.993,0,0,1-7.048,2.8,11.439,11.439,0,0,1-8.883-4.824.705.705,0,0,0-1.036-.166.824.824,0,0,0-.155,1.109.109.109,0,0,1,.022.032A12.761,12.761,0,0,0,87.639,179a12.4,12.4,0,0,0,7.98-3.16,13.387,13.387,0,0,0,4.442-8.095H102.9a.8.8,0,0,0,.607-1.244Z" transform="translate(-77.417 -160.85)" fill="#85e6c4"/>
      </g>
    </g>
    <g id="Group_19802" data-name="Group 19802" transform="translate(0 41.65)">
      <g id="Group_19801" data-name="Group 19801" transform="translate(0 0)">
        <path id="Path_27018" data-name="Path 27018" d="M26.088,47.123a.109.109,0,0,1-.022-.032A12.762,12.762,0,0,0,16.013,41.65a12.4,12.4,0,0,0-7.98,3.16,13.4,13.4,0,0,0-4.449,8.1H.74a.8.8,0,0,0-.607,1.244l3.42,5.3a.725.725,0,0,0,.607.341.716.716,0,0,0,.607-.341l3.413-5.3a.841.841,0,0,0,.044-.816.734.734,0,0,0-.659-.428H5.086a11.729,11.729,0,0,1,3.879-6.867,10.993,10.993,0,0,1,7.048-2.8A11.439,11.439,0,0,1,24.9,48.066a.706.706,0,0,0,1.036.166A.824.824,0,0,0,26.088,47.123Z" transform="translate(0 -41.65)" fill="#85e6c4"/>
      </g>
    </g>
  </g>
</svg>
