<svg width="14" height="16" viewBox="0 0 14 16" fill="none" xmlns="http://www.w3.org/2000/svg">
<path d="M12.0782 15.1654C11.9618 15.0836 11.8449 14.9847 11.7251 14.8751C11.6041 14.7682 11.4768 14.6558 11.344 14.5385C11.2118 14.4217 11.0741 14.3 10.9315 14.174C10.8606 14.111 10.7886 14.0469 10.7154 13.9818C10.6459 13.9112 10.5754 13.8396 10.5039 13.767C10.2199 13.4781 9.92011 13.1733 9.60964 12.8576C9.318 12.5231 9.01635 12.1771 8.70939 11.8251C8.40713 11.4708 8.12267 11.0848 7.82719 10.7149C7.2713 9.99075 6.75296 9.23933 6.28372 8.5123C9.08358 5.87751 11.9356 3.76886 12.0793 3.62708C13.3773 2.45234 14.0665 1.0173 13.5908 0.334919C13.1131 -0.350679 11.5678 0.0437976 10.2165 1.26688C10.07 1.40999 7.6708 3.91885 5.3375 6.9751C4.38226 5.34972 3.7817 4.10226 3.72538 4.00421C2.90721 2.67859 1.78898 1.89759 1.07926 2.28544C0.367837 2.67298 0.424627 4.2609 1.30791 5.69262C1.37491 5.81207 2.40614 7.22817 3.92008 8.91671C2.79717 10.5259 1.81126 12.1652 1.15016 13.4785C0.967446 13.8503 0.800059 14.1908 0.651813 14.4925C0.523975 14.8048 0.412617 15.0768 0.320959 15.3007C0.140196 15.746 0.0371094 16 0.0371094 16C0.0371094 16 0.179894 15.7688 0.430241 15.3635C0.555022 15.1626 0.706631 14.9186 0.880668 14.6385C1.07293 14.3723 1.29001 14.0718 1.52698 13.7438C2.3631 12.61 3.54323 11.2389 4.84622 9.91627C5.45521 10.5518 6.11479 11.1971 6.80351 11.8039C7.17891 12.1229 7.53947 12.4532 7.91607 12.7515C8.29469 13.0442 8.66681 13.3319 9.02656 13.61C9.40058 13.864 9.76175 14.1093 10.1039 14.3416C10.1891 14.3992 10.273 14.456 10.3557 14.512C10.442 14.5623 10.527 14.6119 10.6105 14.6607C10.7775 14.7572 10.9387 14.8504 11.0934 14.9399C11.2475 15.0288 11.3951 15.114 11.5354 15.195C11.674 15.2782 11.8081 15.3517 11.9405 15.4095C12.1999 15.532 12.4259 15.6387 12.6119 15.7266C12.9814 15.9007 13.1921 16 13.1921 16C13.1921 16 13.0031 15.8585 12.6718 15.6103C12.5073 15.487 12.3075 15.3373 12.0782 15.1654Z" fill="#F44E21"/>
</svg>
