<svg width="32" height="32" viewBox="0 0 32 32" fill="none" xmlns="http://www.w3.org/2000/svg">
<g clip-path="url(#clip0_30_167)">
<rect x="4.26666" y="4.2666" width="23.4667" height="23.4667" fill="#6D44E5"/>
<path fill-rule="evenodd" clip-rule="evenodd" d="M0.711121 7.46674C0.711121 3.73575 3.73569 0.711182 7.46668 0.711182H24.5333C28.2644 0.711182 31.2889 3.73575 31.2889 7.46674V24.5334C31.2889 28.2645 28.2644 31.289 24.5333 31.289H7.46668C3.73569 31.289 0.711121 28.2645 0.711121 24.5334V7.46674ZM19.5987 13.9098C20.0152 13.4933 20.0152 12.8179 19.5987 12.4014C19.1821 11.9848 18.5068 11.9848 18.0903 12.4014L12.4013 18.0903C11.9848 18.5069 11.9848 19.1822 12.4013 19.5987C12.8179 20.0153 13.4932 20.0153 13.9098 19.5987L19.5987 13.9098ZM22.3569 9.64321C21.2025 8.48882 19.3309 8.48882 18.1764 9.64321L15.332 12.4877C14.9154 12.9042 14.2402 12.9042 13.8236 12.4877C13.407 12.0711 13.407 11.3957 13.8236 10.9792L16.668 8.13471C18.6554 6.14721 21.8779 6.14721 23.8653 8.13471C25.8529 10.1222 25.8529 13.3446 23.8653 15.3321L21.0209 18.1765C20.6043 18.5931 19.929 18.5931 19.5125 18.1765C19.0959 17.7599 19.0959 17.0847 19.5125 16.6681L22.3569 13.8236C23.5112 12.6692 23.5112 10.7976 22.3569 9.64321ZM13.8236 22.357C12.6692 23.5113 10.7975 23.5113 9.64315 22.357C8.48876 21.2026 8.48876 19.3309 9.64315 18.1765L12.4876 15.3321C12.9041 14.9155 12.9041 14.2402 12.4876 13.8236C12.071 13.4071 11.3957 13.4071 10.9791 13.8236L8.13465 16.6681C6.14715 18.6555 6.14715 21.878 8.13465 23.8654C10.1221 25.8529 13.3446 25.8529 15.332 23.8654L18.1764 21.0209C18.593 20.6044 18.593 19.9291 18.1764 19.5125C17.7599 19.096 17.0846 19.096 16.668 19.5125L13.8236 22.357Z" fill="#85E6C4"/>
</g>
<defs>
<clipPath id="clip0_30_167">
<rect width="32" height="32" fill="white"/>
</clipPath>
</defs>
</svg>
