<svg width="43" height="32" viewBox="0 0 43 32" fill="none" xmlns="http://www.w3.org/2000/svg">
<path d="M22.3346 25.5529H6.3882C4.69395 25.5529 3.06908 24.8798 1.87106 23.6818C0.673041 22.4838 0 20.8589 0 19.1646L0 10.2212H35.7753V11.3314C35.0094 11.1745 34.2295 11.0955 33.4477 11.0957C31.6858 11.0967 29.9477 11.5023 28.3673 12.2812C26.787 13.0602 25.4066 14.1916 24.3326 15.5883C23.2586 16.985 22.5197 18.6097 22.1728 20.3371C21.826 22.0645 21.8804 23.8485 22.3319 25.5515L22.3346 25.5529ZM6.3882 17.887C6.04935 17.887 5.72438 18.0216 5.48478 18.2612C5.24517 18.5008 5.11056 18.8258 5.11056 19.1646C5.11056 19.5035 5.24517 19.8285 5.48478 20.0681C5.72438 20.3077 6.04935 20.4423 6.3882 20.4423H11.4988C11.8376 20.4423 12.1626 20.3077 12.4022 20.0681C12.6418 19.8285 12.7764 19.5035 12.7764 19.1646C12.7764 18.8258 12.6418 18.5008 12.4022 18.2612C12.1626 18.0216 11.8376 17.887 11.4988 17.887H6.3882ZM35.7753 7.66587H0V6.38823C0 4.69397 0.673041 3.0691 1.87106 1.87108C3.06908 0.673056 4.69395 1.43412e-05 6.3882 1.43412e-05H29.3871C30.2266 -0.00177033 31.0582 0.16303 31.8336 0.484871C32.609 0.806711 33.3128 1.2792 33.9044 1.87496C35.1001 3.07486 35.7739 4.69826 35.7793 6.39224V7.66855L35.7753 7.66587Z" fill="#85E6C4"/>
<path d="M33.449 32C31.5885 32 29.7698 31.4483 28.2228 30.4147C26.6759 29.381 25.4702 27.9119 24.7582 26.193C24.0462 24.4741 23.8599 22.5827 24.2229 20.758C24.5859 18.9332 25.4818 17.2571 26.7974 15.9415C28.1129 14.6259 29.7891 13.73 31.6138 13.367C33.4386 13.0041 35.33 13.1904 37.0489 13.9023C38.7677 14.6143 40.2369 15.82 41.2705 17.367C42.3042 18.9139 42.8559 20.7327 42.8559 22.5932C42.853 25.0871 41.8611 27.4782 40.0975 29.2417C38.334 31.0052 35.943 31.9972 33.449 32ZM30.3687 21.9289C29.9188 21.9289 29.6911 22.111 29.6911 22.4646C29.6892 22.5375 29.7042 22.6098 29.7352 22.6758C29.7661 22.7419 29.812 22.7998 29.8692 22.8449C30.0144 22.9484 30.1907 22.999 30.3687 22.9882H33.0888V25.3841C33.0786 25.5542 33.1295 25.7223 33.2321 25.8582C33.2842 25.9157 33.3485 25.9607 33.4204 25.9899C33.4923 26.0192 33.5698 26.0318 33.6472 26.027C33.728 26.0319 33.809 26.0193 33.8845 25.9902C33.9601 25.9611 34.0285 25.9161 34.0852 25.8582C34.1933 25.7247 34.2478 25.5557 34.2378 25.3841V22.9963H36.9498C37.1255 23.0083 37.2997 22.9575 37.4413 22.853C37.4962 22.8063 37.5399 22.7479 37.5691 22.6821C37.5983 22.6162 37.6123 22.5446 37.6101 22.4726C37.6101 22.1124 37.3877 21.9369 36.9498 21.9369H34.2405V19.4807C34.2518 19.3066 34.1963 19.1346 34.0852 19C34.0283 18.9416 33.9595 18.8963 33.8834 18.8672C33.8073 18.838 33.7258 18.8258 33.6445 18.8312C33.5671 18.8262 33.4895 18.8388 33.4176 18.868C33.3457 18.8972 33.2814 18.9423 33.2294 19C33.1266 19.1358 33.0757 19.304 33.0861 19.4741V21.9289H30.3687Z" fill="#6D44E5"/>
</svg>
