<svg width="32" height="32" viewBox="0 0 32 32" fill="none" xmlns="http://www.w3.org/2000/svg">
<path d="M8 3H19C22.866 3 26 6.13401 26 10V29H8V3Z" fill="#85E6C4"/>
<path d="M18.586 0H8C6.93913 0 5.92172 0.421427 5.17157 1.17157C4.42143 1.92172 4 2.93913 4 4V28C4 29.0609 4.42143 30.0783 5.17157 30.8284C5.92172 31.5786 6.93913 32 8 32H24C25.0609 32 26.0783 31.5786 26.8284 30.8284C27.5786 30.0783 28 29.0609 28 28V9.414C27.9999 8.88361 27.7891 8.37499 27.414 8L20 0.586C19.625 0.210901 19.1164 0.000113275 18.586 0ZM19 7V3L25 9H21C20.4696 9 19.9609 8.78929 19.5858 8.41421C19.2107 8.03914 19 7.53043 19 7ZM11.768 13.36L16 18.438L20.232 13.358C20.402 13.1543 20.646 13.0265 20.9102 13.0027C21.1744 12.9789 21.4373 13.061 21.641 13.231C21.8447 13.401 21.9725 13.645 21.9963 13.9092C22.0201 14.1734 21.938 14.4363 21.768 14.64L17.302 20L21.768 25.36C21.9303 25.5645 22.0061 25.8244 21.9794 26.084C21.9526 26.3437 21.8254 26.5827 21.6248 26.7498C21.4243 26.9169 21.1663 26.999 20.9061 26.9785C20.6458 26.958 20.4039 26.8365 20.232 26.64L16 21.562L11.768 26.642C11.598 26.8457 11.354 26.9735 11.0898 26.9973C10.8256 27.0211 10.5627 26.939 10.359 26.769C10.1553 26.599 10.0275 26.355 10.0037 26.0908C9.97987 25.8266 10.062 25.5637 10.232 25.36L14.698 20L10.232 14.64C10.1442 14.5396 10.0774 14.4227 10.0354 14.2962C9.99346 14.1696 9.97725 14.0359 9.98773 13.903C9.9982 13.7701 10.0352 13.6406 10.0964 13.5221C10.1577 13.4037 10.242 13.2987 10.3445 13.2133C10.4469 13.128 10.5654 13.064 10.6929 13.0251C10.8204 12.9862 10.9545 12.9732 11.0871 12.9868C11.2198 13.0005 11.3483 13.0405 11.4653 13.1046C11.5822 13.1687 11.6851 13.2555 11.768 13.36Z" fill="#6D44E5"/>
</svg>
