<svg width="42" height="33" viewBox="0 0 42 33" fill="none" xmlns="http://www.w3.org/2000/svg">
<path d="M37.6454 9.43068C37.0703 9.4331 36.5034 9.56731 35.988 9.82304C35.4726 10.0788 35.0224 10.4492 34.6718 10.9061C34.3213 11.363 34.0797 11.8941 33.9655 12.459C33.8513 13.0238 33.8676 13.6073 34.013 14.1648L27.3305 20.879C26.6889 20.7092 26.0142 20.7092 25.3726 20.879L20.5729 16.0696C20.7235 15.5107 20.7436 14.9245 20.6317 14.3564C20.5198 13.7884 20.2788 13.2539 19.9275 12.7942C19.5762 12.3346 19.1239 11.9621 18.6058 11.7058C18.0877 11.4495 17.5177 11.3162 16.9399 11.3162C16.3621 11.3162 15.792 11.4495 15.2739 11.7058C14.7558 11.9621 14.3036 12.3346 13.9522 12.7942C13.6009 13.2539 13.36 13.7884 13.248 14.3564C13.1361 14.9245 13.1562 15.5107 13.3068 16.0696L4.72332 24.651C3.92345 24.4391 3.07619 24.4974 2.3127 24.8167C1.5492 25.1361 0.912074 25.6987 0.499948 26.4176C0.087822 27.1364 -0.0763113 27.9713 0.0329598 28.7931C0.142231 29.6148 0.518811 30.3776 1.1044 30.9632C1.68998 31.5488 2.45191 31.9247 3.27222 32.0326C4.09252 32.1405 4.92545 31.9744 5.64204 31.5601C6.35863 31.1457 6.91891 30.5062 7.23614 29.7405C7.55337 28.9749 7.60985 28.1258 7.39684 27.3247L15.9609 18.7239C16.6025 18.8938 17.2772 18.8938 17.9188 18.7239L22.7185 23.5333C22.5679 24.0922 22.5478 24.6785 22.6597 25.2465C22.7716 25.8145 23.0126 26.349 23.3639 26.8087C23.7152 27.2684 24.1675 27.6408 24.6856 27.8971C25.2037 28.1534 25.7737 28.2867 26.3516 28.2867C26.9294 28.2867 27.4994 28.1534 28.0175 27.8971C28.5356 27.6408 28.9879 27.2684 29.3392 26.8087C29.6905 26.349 29.9315 25.8145 30.0434 25.2465C30.1553 24.6785 30.1352 24.0922 29.9846 23.5333L36.6866 16.8424C37.2042 16.9806 37.7452 17.0065 38.2736 16.9182C38.802 16.8299 39.3054 16.6296 39.7503 16.3307C40.1952 16.0317 40.5712 15.641 40.8532 15.1847C41.1353 14.7284 41.3168 14.217 41.3856 13.6847C41.4545 13.1524 41.4091 12.6115 41.2525 12.0982C41.096 11.5849 40.8318 11.1111 40.4777 10.7083C40.1236 10.3056 39.6878 9.98326 39.1993 9.76292C38.7109 9.54258 38.1811 9.42931 37.6454 9.43068Z" fill="#85E6C4"/>
<path d="M26.3522 11.3161L28.1212 7.41177L32.0033 5.65738L28.1212 3.90298L26.3522 0L24.6207 3.90428L20.7049 5.65867L24.6195 7.41307L26.3522 11.3161ZM4.70519 15.0881L5.64597 11.3161L9.41168 10.3734L5.64727 9.43069L4.70519 5.65867L3.76441 9.43069L0 10.3734L3.76441 11.3161L4.70519 15.0881Z" fill="#6D44E5"/>
</svg>
