<svg width="40" height="38" viewBox="0 0 40 38" fill="none" xmlns="http://www.w3.org/2000/svg">
<path fill-rule="evenodd" clip-rule="evenodd" d="M5.419 0C2.94724 0 0.943481 2.00375 0.943481 4.47551V24.5147C0.943481 26.9865 2.94724 28.9902 5.419 28.9902H24.5066C24.9893 25.4344 28.0316 22.6942 31.7126 22.6942C33.6644 22.6942 35.4367 23.4646 36.743 24.7186C36.746 24.651 36.7475 24.583 36.7475 24.5147V4.47552C36.7475 2.00376 34.7438 0 32.272 0H5.419Z" fill="#85E6C4"/>
<g clip-path="url(#clip0_30_202)">
<path d="M15.2312 25.067C15.3848 25.2381 15.6051 25.3361 15.8355 25.3361C16.0365 25.3361 16.2296 25.2619 16.3791 25.1273C16.7121 24.8277 16.7391 24.3125 16.4394 23.979L14.249 21.5455L16.4394 19.1116C16.7391 18.7786 16.7121 18.2634 16.3791 17.9637C16.2177 17.8185 16.0081 17.743 15.7926 17.7561C15.5755 17.7676 15.3762 17.8625 15.2312 18.0236L12.5512 21.0018C12.2723 21.3117 12.2723 21.7793 12.5512 22.0897L15.2312 25.067ZM22.4598 18.0236C22.1602 17.691 21.6456 17.6636 21.312 17.9637C20.979 18.2634 20.952 18.7786 21.2516 19.112L23.442 21.5455L21.2516 23.9794C20.952 24.3125 20.979 24.8277 21.312 25.1277C21.4614 25.2619 21.6545 25.3361 21.8555 25.3361C22.086 25.3361 22.3062 25.2381 22.4598 25.0674L25.1399 22.0893C25.4187 21.7793 25.4187 21.3117 25.1399 21.0018L22.4598 18.0236ZM20.2697 15.7453L20.2689 15.7449C19.8333 15.6393 19.3929 15.9073 19.2865 16.3411L16.826 26.3625C16.719 26.7976 16.9861 27.2386 17.4218 27.3457C17.4851 27.3612 17.5504 27.3691 17.6157 27.3691C17.9908 27.3691 18.3152 27.1147 18.4045 26.75L20.865 16.7285C20.972 16.2935 20.7049 15.8525 20.2697 15.7453Z" fill="#6D44E5"/>
</g>
<path d="M30.9294 21.9094C29.491 21.9094 28.0849 22.3368 26.8889 23.1376C25.6929 23.9383 24.7608 25.0765 24.2103 26.4081C23.6599 27.7397 23.5159 29.2049 23.7965 30.6186C24.0771 32.0322 24.7697 33.3307 25.7869 34.3498C26.804 35.369 28.0998 36.0631 29.5106 36.3442C30.9214 36.6254 32.3837 36.4811 33.7126 35.9296C35.0415 35.378 36.1773 34.4439 36.9764 33.2455C37.7756 32.0471 38.2021 30.6382 38.2021 29.1968C38.2021 28.2399 38.014 27.2922 37.6485 26.4081C37.283 25.5239 36.7473 24.7206 36.072 24.0439C35.3967 23.3672 34.5949 22.8304 33.7126 22.4641C32.8302 22.0979 31.8845 21.9094 30.9294 21.9094ZM33.264 30.5013C33.3321 30.569 33.3862 30.6496 33.4232 30.7384C33.4601 30.8273 33.4791 30.9225 33.4791 31.0187C33.4791 31.1149 33.4601 31.2102 33.4232 31.299C33.3862 31.3878 33.3321 31.4684 33.264 31.5361C33.1964 31.6044 33.1159 31.6586 33.0273 31.6956C32.9387 31.7326 32.8436 31.7517 32.7476 31.7517C32.6516 31.7517 32.5565 31.7326 32.4679 31.6956C32.3793 31.6586 32.2988 31.6044 32.2312 31.5361L30.9294 30.2244L29.6276 31.5361C29.56 31.6044 29.4796 31.6586 29.3909 31.6956C29.3023 31.7326 29.2073 31.7517 29.1112 31.7517C29.0152 31.7517 28.9202 31.7326 28.8316 31.6956C28.7429 31.6586 28.6625 31.6044 28.5949 31.5361C28.5267 31.4684 28.4726 31.3878 28.4357 31.299C28.3988 31.2102 28.3798 31.1149 28.3798 31.0187C28.3798 30.9225 28.3988 30.8273 28.4357 30.7384C28.4726 30.6496 28.5267 30.569 28.5949 30.5013L29.904 29.1968L28.5949 27.8924C28.4579 27.7552 28.381 27.5691 28.381 27.375C28.381 27.1809 28.4579 26.9948 28.5949 26.8576C28.7318 26.7204 28.9176 26.6433 29.1112 26.6433C29.3049 26.6433 29.4907 26.7204 29.6276 26.8576L30.9294 28.1693L32.2312 26.8576C32.3682 26.7204 32.5539 26.6433 32.7476 26.6433C32.9413 26.6433 33.127 26.7204 33.264 26.8576C33.4009 26.9948 33.4778 27.1809 33.4778 27.375C33.4778 27.5691 33.4009 27.7552 33.264 27.8924L31.9549 29.1968L33.264 30.5013Z" fill="#6D44E5"/>
<defs>
<clipPath id="clip0_30_202">
<rect width="13.4265" height="13.4266" fill="white" transform="translate(12.1322 14.8323)"/>
</clipPath>
</defs>
</svg>
