<svg width="32" height="33" viewBox="0 0 32 33" fill="none" xmlns="http://www.w3.org/2000/svg">
<path fill-rule="evenodd" clip-rule="evenodd" d="M13.3334 0H22.2223V2.95895H13.3334V0ZM19.2593 10.3563V19.2332H16.2964V10.3563H19.2593ZM30.2964 7.33819L28.1853 9.44644C30.0149 11.7248 31.1112 14.6098 31.1112 17.7537C31.1112 25.1067 25.1408 31.0689 17.7704 31.0689C17.4846 31.0689 17.2009 31.06 16.9195 31.0423C16.9719 30.8747 17.0001 30.6965 17.0001 30.5117V28.0813C17.2568 28.1003 17.5162 28.11 17.7779 28.11C23.5038 28.11 28.1482 23.4718 28.1482 17.7537C28.1482 12.0355 23.5038 7.39737 17.7779 7.39737C12.0519 7.39737 7.40748 12.0355 7.40748 17.7537C7.40748 19.0009 7.62845 20.1968 8.03342 21.3044H4.9229C4.61106 20.174 4.44452 18.9833 4.44452 17.7537C4.44452 10.4007 10.4001 4.43842 17.7704 4.43842C20.7949 4.43474 23.7298 5.46305 26.089 7.35298L28.2001 5.24473C28.963 5.88091 29.6593 6.57626 30.2964 7.33819Z" fill="#85E6C4"/>
<rect x="2.00006" y="15.033" width="15" height="9.96628" fill="#85E6C4"/>
<path d="M15.339 20.6018H3.43898C2.76268 20.6018 2.11407 20.8701 1.63585 21.3477C1.15764 21.8252 0.888977 22.473 0.888977 23.1483V29.9391C0.888977 30.6145 1.15764 31.2622 1.63585 31.7398C2.11407 32.2174 2.76268 32.4857 3.43898 32.4857H15.339C16.0153 32.4857 16.6639 32.2174 17.1421 31.7398C17.6203 31.2622 17.889 30.6145 17.889 29.9391V23.1483C17.889 22.473 17.6203 21.8252 17.1421 21.3477C16.6639 20.8701 16.0153 20.6018 15.339 20.6018ZM8.53898 29.0903H5.13898C4.91354 29.0903 4.69734 29.0009 4.53794 28.8417C4.37853 28.6825 4.28898 28.4666 4.28898 28.2414C4.28898 28.0163 4.37853 27.8004 4.53794 27.6412C4.69734 27.482 4.91354 27.3926 5.13898 27.3926H8.53898C8.76441 27.3926 8.98061 27.482 9.14002 27.6412C9.29942 27.8004 9.38898 28.0163 9.38898 28.2414C9.38898 28.4666 9.29942 28.6825 9.14002 28.8417C8.98061 29.0009 8.76441 29.0903 8.53898 29.0903ZM13.639 29.0903H11.939C11.7135 29.0903 11.4973 29.0009 11.3379 28.8417C11.1785 28.6825 11.089 28.4666 11.089 28.2414C11.089 28.0163 11.1785 27.8004 11.3379 27.6412C11.4973 27.482 11.7135 27.3926 11.939 27.3926H13.639C13.8644 27.3926 14.0806 27.482 14.24 27.6412C14.3994 27.8004 14.489 28.0163 14.489 28.2414C14.489 28.4666 14.3994 28.6825 14.24 28.8417C14.0806 29.0009 13.8644 29.0903 13.639 29.0903ZM16.189 23.9972H9.38898H2.58898V23.1483C2.58898 22.9232 2.67853 22.7073 2.83794 22.5481C2.99734 22.3889 3.21354 22.2995 3.43898 22.2995H15.339C15.5644 22.2995 15.7806 22.3889 15.94 22.5481C16.0994 22.7073 16.189 22.9232 16.189 23.1483V23.9972Z" fill="#6D44E5"/>
</svg>
