<svg xmlns="http://www.w3.org/2000/svg" width="656.136" height="414.404" viewBox="0 0 656.136 414.404">
  <g id="_5143182_2723478" data-name="5143182_2723478" transform="translate(-750 2595.202)">
    <g id="OBJECTS" transform="translate(703.068 -2638)">
      <g id="Group_25689" data-name="Group 25689">
        <g id="Group_25687" data-name="Group 25687">
          <g id="Group_25664" data-name="Group 25664">
            <path id="Path_27007" data-name="Path 27007" d="M240.485,196.975a144.356,144.356,0,0,1-61.892-20.7c-32.432-20.11,33.29-16.781,87.558-2.357L246.8,193.489Z" fill="#85e6c4" fill-rule="evenodd"/>
            <g id="Group_25661" data-name="Group 25661">
              <path id="Path_27008" data-name="Path 27008" d="M184.066,158.149c11.144,9.351,39.885,27.578,67.88,47.156l29.924,9.561,4.6-18.237c-22.524-31.59-51.948-63.545-76.845-79.215C165.939,89.923,144.958,125.335,184.066,158.149Z" fill="#2fa87e" fill-rule="evenodd"/>
              <path id="Path_27009" data-name="Path 27009" d="M282.1,213.964c-36.98-51.555-103.2-91-103.443-91.143a.918.918,0,0,0-1.31.383,1.1,1.1,0,0,0,.4,1.413c.239.144,65.4,38.959,102.175,89.627l1.949.623Z" fill="#0e2d34" fill-rule="evenodd"/>
            </g>
            <g id="Group_25662" data-name="Group 25662">
              <path id="Path_27010" data-name="Path 27010" d="M245.95,85.475c5.954,14.008,15.488,47.174,26.538,81.423a64.863,64.863,0,0,1-23.439,35.751c-22.855-31.667-43.342-68.374-51.518-97.651C181.526,47.69,223.28,32.145,245.95,85.475Z" fill="#85e6c4" fill-rule="evenodd"/>
              <path id="Path_27011" data-name="Path 27011" d="M261.014,190.679c-32.581-53.711-49.44-119.9-49.511-120.172a1.164,1.164,0,0,1,.749-1.422,1.077,1.077,0,0,1,1.326.813c.07.273,16.739,65.691,48.827,118.9Q261.725,189.751,261.014,190.679Z" fill="#5f9850" fill-rule="evenodd"/>
            </g>
            <g id="Group_25663" data-name="Group 25663">
              <path id="Path_27012" data-name="Path 27012" d="M243.208,86.128c1,14.513,7.833,47.854,13.172,81.6L270.27,195.9l16.317-9.352c7.105-38.142,9.684-81.5,3.682-110.3C279.739,25.722,239.685,35.2,243.208,86.128Z" fill="#2fa87e" fill-rule="evenodd"/>
              <path id="Path_27013" data-name="Path 27013" d="M271.077,195.439c11.442-62.406-6.132-137.455-6.2-137.729a.918.918,0,0,0-1.185-.678,1.094,1.094,0,0,0-.737,1.27c.063.271,17.353,74.121,6.4,135.763l.9,1.835Z" fill="#0e2d34" fill-rule="evenodd"/>
            </g>
          </g>
          <path id="Path_27014" data-name="Path 27014" d="M160.259,345.512H103.19a56.01,56.01,0,0,0-55.845,55.845h0A56.009,56.009,0,0,0,103.19,457.2H602.816c49.734,0,90.428-40.692,90.428-90.428h0c0-49.735-40.692-90.427-90.428-90.428h0a38.348,38.348,0,0,1-38.235-38.235h0a38.348,38.348,0,0,1,38.235-38.235h46.016a39.871,39.871,0,0,0,39.753-39.752h0a39.87,39.87,0,0,0-39.753-39.752H541.256a15.521,15.521,0,0,1-15.476-15.477h0a15.52,15.52,0,0,1,15.476-15.475h10.257a10.712,10.712,0,0,0,10.681-10.681h0a10.712,10.712,0,0,0-10.681-10.68H510.22c-14.177,0-15.755,16.746-51.561,16.746H319.121a13.979,13.979,0,0,0-13.937,13.936h0a13.978,13.978,0,0,0,13.937,13.937h13.385A20.255,20.255,0,0,1,352.7,132.87h0a20.254,20.254,0,0,1-20.194,20.194H312.364c-54.394,0-62.077,14.215-71.6,42.487s-59,30.552-59,30.552h-30.6a30.522,30.522,0,0,0-30.432,30.433h0a30.523,30.523,0,0,0,30.432,30.433h9.106a29.359,29.359,0,0,1,29.272,29.272h0a29.359,29.359,0,0,1-29.273,29.27ZM77.365,286.97A30.433,30.433,0,1,1,107.8,256.537,30.433,30.433,0,0,1,77.365,286.97ZM581.486,89.419a10.681,10.681,0,1,1,10.681-10.681A10.683,10.683,0,0,1,581.486,89.419Z" fill="#e1e8f6" fill-rule="evenodd"/>
          <g id="Group_25669" data-name="Group 25669">
            <g id="Group_25665" data-name="Group 25665">
              <path id="Path_27015" data-name="Path 27015" d="M182.167,431.466c10.724,5.971,32.452,15.072,57.423,25.735h74.648l.177-3.119c-34.449-32.827-77.292-64.5-110.91-77.6C144.526,353.493,127.462,401.005,182.167,431.466Z" fill="#85e6c4" fill-rule="evenodd"/>
              <path id="Path_27016" data-name="Path 27016" d="M291.051,457.2c-54.921-42.18-123.3-66.927-123.588-67.032a1.127,1.127,0,0,0-1.49.766,1.342,1.342,0,0,0,.812,1.607c.278.1,66.284,23.989,120.347,64.659Z" fill="#0e2d34" fill-rule="evenodd"/>
            </g>
            <path id="Path_27017" data-name="Path 27017" d="M155.929,457.2c7.2-9.749,39.128-13.792,85.3,0h-85.3Z" fill="#0e2d34" fill-rule="evenodd"/>
            <g id="Group_25666" data-name="Group 25666">
              <path id="Path_27018" data-name="Path 27018" d="M235.993,443.167c-12.259-10.3-24.85-23.609-33.286-39.6-21.764-41.244-28.529-54.239-39.139-57.722-8.9-2.922,65.713-35.25,138.7,36.536,2.094,2.059,56.478,72.583,58.567,74.816H287.131Z" fill="#2ea87e" fill-rule="evenodd"/>
              <path id="Path_27019" data-name="Path 27019" d="M174.04,339.355c40.407,14.792,80.763,44.685,114.653,75.236,2.242,2.021,28.108,25.383,30.292,27.4q-.921,1.239-1.919,2.465c-2.149-1.994-27.981-25.328-30.188-27.319-34.8-31.412-76.436-62.1-117.8-76.139C170.511,340.443,172.171,339.886,174.04,339.355Z" fill="#1b7154" fill-rule="evenodd"/>
            </g>
            <g id="Group_25667" data-name="Group 25667">
              <path id="Path_27020" data-name="Path 27020" d="M249.608,271.542c12.66,12.69,35.365,41.16,61.345,72.893.005.008,64.542,73.334,42.913,112.767-47.318-30.024-132.131-98.818-158.659-133.383C142.858,255.606,190.465,212.255,249.608,271.542Z" fill="#85e6c4" fill-rule="evenodd"/>
              <path id="Path_27021" data-name="Path 27021" d="M357.949,444.213c-58.026-96.5-146.985-178.041-147.36-178.388a2.112,2.112,0,0,0-2.916-.023,1.956,1.956,0,0,0,.163,2.819c.37.343,87.886,80.57,145.521,175.576C354.876,444.237,356.4,444.249,357.949,444.213Z" fill="#5f9850" fill-rule="evenodd"/>
            </g>
            <g id="Group_25668" data-name="Group 25668">
              <path id="Path_27022" data-name="Path 27022" d="M288.865,454.9c-9-10.735-20.79-22.734-34.876-32.509-34.207-23.735-68.2-10.415-71.443,2.43-1.325,5.24-.148,17.6,5.882,32.38H285.4Q287.182,456.061,288.865,454.9Z" fill="#85e6c4" fill-rule="evenodd"/>
              <path id="Path_27023" data-name="Path 27023" d="M263.712,457.2c-3.04-7.61-8.52-20.664-12.994-27.735-.383-.606-1-.828-1.373-.5a1.4,1.4,0,0,0,.012,1.7c4.219,6.67,9.421,18.989,12.449,26.537Zm-4.2,0H251.66q-3.819-2.279-7.811-4.476c-1.118.9-2.934,2.413-5.164,4.476h-3.692c2.6-2.536,4.843-4.5,6.412-5.8a226.2,226.2,0,0,0-29.365-13.177,39.783,39.783,0,0,0-12.5,11.068c-.3.432-.906.346-1.347-.191a1.58,1.58,0,0,1-.253-1.756A40.158,40.158,0,0,1,208.875,437.1a196.817,196.817,0,0,0-20.588-5.9,3.315,3.315,0,0,1-2.159-2.9c-.127-1.361.634-2.271,1.7-2.028A209.584,209.584,0,0,1,228.7,440.291a165.5,165.5,0,0,0-14.546-24.713,1.52,1.52,0,0,1-.167-1.744c.331-.4.941-.262,1.364.3a172.676,172.676,0,0,1,15.876,27.329A254.572,254.572,0,0,1,259.516,457.2Z" fill="#6d44e5" fill-rule="evenodd"/>
            </g>
          </g>
          <g id="Group_25676" data-name="Group 25676">
            <rect id="Rectangle_6589" data-name="Rectangle 6589" width="127.123" height="46.587" transform="translate(393.521 401.336)" fill="#00000f"/>
            <path id="Path_27024" data-name="Path 27024" d="M247,116.1H686.8a6.457,6.457,0,0,1,6.439,6.439v279.3a6.457,6.457,0,0,1-6.439,6.438H247a6.457,6.457,0,0,1-6.438-6.438v-279.3A6.457,6.457,0,0,1,247,116.1Z" fill="#00000f" fill-rule="evenodd"/>
            <path id="Path_27025" data-name="Path 27025" d="M237.183,116.1h439.8a6.456,6.456,0,0,1,6.438,6.439v279.3a6.456,6.456,0,0,1-6.438,6.438h-439.8a6.457,6.457,0,0,1-6.439-6.438v-279.3A6.458,6.458,0,0,1,237.183,116.1Z" fill="#101537" fill-rule="evenodd"/>
            <path id="Path_27026" data-name="Path 27026" d="M244.215,122.409H669.951a4.211,4.211,0,0,1,4.193,4.194V374.32a2.617,2.617,0,0,1-2.613,2.612h-428.9a2.617,2.617,0,0,1-2.613-2.612V126.6A4.21,4.21,0,0,1,244.215,122.409Z" fill="#3b405f" fill-rule="evenodd"/>
            <rect id="Rectangle_6590" data-name="Rectangle 6590" width="415.759" height="233.811" transform="translate(249.204 132.766)" fill="#fff"/>
            <path id="Path_27027" data-name="Path 27027" d="M332.971,318.854h96.174a4.665,4.665,0,0,1,4.651,4.652v25.637a4.665,4.665,0,0,1-4.651,4.651H332.971a4.666,4.666,0,0,1-4.652-4.651V323.506A4.666,4.666,0,0,1,332.971,318.854Z" fill="#d3c6f7" fill-rule="evenodd"/>
            <path id="Path_27028" data-name="Path 27028" d="M329.571,285.439H432.544a1.256,1.256,0,0,1,1.252,1.253h0a1.256,1.256,0,0,1-1.252,1.252H329.571a1.256,1.256,0,0,1-1.253-1.252h0A1.257,1.257,0,0,1,329.571,285.439Z" fill="#e4e1e8" fill-rule="evenodd"/>
            <path id="Path_27029" data-name="Path 27029" d="M329.571,293.23H432.544a1.256,1.256,0,0,1,1.252,1.253h0a1.255,1.255,0,0,1-1.252,1.252H329.571a1.256,1.256,0,0,1-1.253-1.252h0A1.258,1.258,0,0,1,329.571,293.23Z" fill="#e4e1e8" fill-rule="evenodd"/>
            <path id="Path_27030" data-name="Path 27030" d="M329.571,301.024H432.544a1.255,1.255,0,0,1,1.252,1.252h0a1.257,1.257,0,0,1-1.252,1.253H329.571a1.257,1.257,0,0,1-1.253-1.253h0A1.257,1.257,0,0,1,329.571,301.024Z" fill="#e4e1e8" fill-rule="evenodd"/>
            <path id="Path_27031" data-name="Path 27031" d="M329.571,308.816H432.544a1.256,1.256,0,0,1,1.252,1.252h0a1.256,1.256,0,0,1-1.252,1.252H329.571a1.256,1.256,0,0,1-1.253-1.252h0A1.257,1.257,0,0,1,329.571,308.816Z" fill="#e4e1e8" fill-rule="evenodd"/>
            <path id="Path_27032" data-name="Path 27032" d="M330.328,263.813H431.787a2.015,2.015,0,0,1,2.009,2.009v5.116a2.017,2.017,0,0,1-2.009,2.011H330.328a2.016,2.016,0,0,1-2.009-2.011v-5.116A2.015,2.015,0,0,1,330.328,263.813Z" fill="rgba(109,68,229,0.3)" fill-rule="evenodd"/>
            <path id="Path_27033" data-name="Path 27033" d="M329.571,247.456H432.544a1.255,1.255,0,0,1,1.252,1.251h0a1.257,1.257,0,0,1-1.252,1.253H329.571a1.257,1.257,0,0,1-1.253-1.253h0A1.256,1.256,0,0,1,329.571,247.456Z" fill="#e4e1e8" fill-rule="evenodd"/>
            <path id="Path_27034" data-name="Path 27034" d="M329.571,255.248H432.544A1.255,1.255,0,0,1,433.8,256.5h0a1.256,1.256,0,0,1-1.252,1.252H329.571a1.256,1.256,0,0,1-1.253-1.252h0A1.257,1.257,0,0,1,329.571,255.248Z" fill="#e4e1e8" fill-rule="evenodd"/>
            <path id="Path_27035" data-name="Path 27035" d="M329.571,278.626H432.544a1.256,1.256,0,0,1,1.252,1.252h0a1.257,1.257,0,0,1-1.252,1.253H329.571a1.257,1.257,0,0,1-1.253-1.253h0A1.257,1.257,0,0,1,329.571,278.626Z" fill="#e4e1e8" fill-rule="evenodd"/>
            <path id="Path_27036" data-name="Path 27036" d="M330.328,233.623H431.787a2.015,2.015,0,0,1,2.009,2.009v5.115a2.016,2.016,0,0,1-2.009,2.01H330.328a2.016,2.016,0,0,1-2.009-2.01v-5.115A2.014,2.014,0,0,1,330.328,233.623Z" fill="rgba(133,230,196,0.3)" fill-rule="evenodd"/>
            <path id="Path_27037" data-name="Path 27037" d="M496.4,233.838h72.138a5.806,5.806,0,0,1,5.789,5.789v67.684a5.807,5.807,0,0,1-5.789,5.789H496.4a5.806,5.806,0,0,1-5.789-5.789V239.627A5.807,5.807,0,0,1,496.4,233.838Z" fill="rgba(109,68,229,0.1)" fill-rule="evenodd"/>
            <path id="Path_27038" data-name="Path 27038" d="M585.313,286.262H649.6a1.256,1.256,0,0,1,1.252,1.252h0a1.255,1.255,0,0,1-1.252,1.252h-64.29a1.257,1.257,0,0,1-1.253-1.252h0A1.257,1.257,0,0,1,585.313,286.262Z" fill="#e4e1e8" fill-rule="evenodd"/>
            <g id="Group_25670" data-name="Group 25670">
              <path id="Path_27039" data-name="Path 27039" d="M521.851,259.472a.7.7,0,1,1-1.4-.072c.558-10.856,3.057-17.076,6.027-19.661a5.437,5.437,0,0,1,4.177-1.477,6.464,6.464,0,0,1,3.951,2.118c2.989,3.1,5.111,9.53,4.477,17.919a.7.7,0,1,1-1.4-.105c.6-7.965-1.34-13.994-4.088-16.843a5.1,5.1,0,0,0-3.08-1.7A4.086,4.086,0,0,0,527.4,240.8C524.683,243.162,522.387,249.047,521.851,259.472Z" fill="#3a3938" fill-rule="evenodd"/>
              <path id="Path_27040" data-name="Path 27040" d="M514.171,258.159s-.815.057-1.011,1.235-2.919,42.943-2.919,42.943-.59,2.3,3.144,2.3h33.627c3.732,0,3.144-2.3,3.144-2.3s-2.723-41.765-2.919-42.943-1.011-1.235-1.011-1.235Z" fill="#85e6c4" fill-rule="evenodd"/>
              <path id="Path_27041" data-name="Path 27041" d="M518.709,258.159s-.815.057-1.011,1.235-2.92,42.943-2.92,42.943-.589,2.3,3.144,2.3H551.55c3.732,0,3.144-2.3,3.144-2.3s-2.723-41.765-2.92-42.943-1.011-1.235-1.011-1.235Z" fill="#6d44e5" fill-rule="evenodd"/>
              <path id="Path_27042" data-name="Path 27042" d="M546.1,260.624a.638.638,0,0,1-1.276.026c-.213-9.6-2.024-15.02-4.321-17.24a3.411,3.411,0,0,0-2.76-1.1,4.865,4.865,0,0,0-2.886,1.641c-2.73,2.846-4.816,8.946-4.46,16.821a.639.639,0,0,1-1.277.054c-.373-8.243,1.878-14.7,4.815-17.761a6.09,6.09,0,0,1,3.677-2.026,4.625,4.625,0,0,1,3.778,1.45C543.906,244.919,545.883,250.646,546.1,260.624Z" fill="#3a3938" fill-rule="evenodd"/>
            </g>
            <path id="Path_27043" data-name="Path 27043" d="M585.313,294.055H649.6a1.256,1.256,0,0,1,1.252,1.252h0a1.257,1.257,0,0,1-1.252,1.253h-64.29a1.258,1.258,0,0,1-1.253-1.253h0A1.257,1.257,0,0,1,585.313,294.055Z" fill="#e4e1e8" fill-rule="evenodd"/>
            <path id="Path_27044" data-name="Path 27044" d="M585.313,301.848H649.6a1.256,1.256,0,0,1,1.252,1.252h0a1.255,1.255,0,0,1-1.252,1.251h-64.29a1.256,1.256,0,0,1-1.253-1.251h0A1.256,1.256,0,0,1,585.313,301.848Z" fill="#e4e1e8" fill-rule="evenodd"/>
            <path id="Path_27045" data-name="Path 27045" d="M585.313,309.639H649.6a1.257,1.257,0,0,1,1.252,1.253h0a1.256,1.256,0,0,1-1.252,1.253h-64.29a1.257,1.257,0,0,1-1.253-1.253h0A1.258,1.258,0,0,1,585.313,309.639Z" fill="#e4e1e8" fill-rule="evenodd"/>
            <path id="Path_27046" data-name="Path 27046" d="M614.05,443.472a9.606,9.606,0,0,0-9.578-9.578H309.7a9.607,9.607,0,0,0-9.579,9.578v10.294a3.446,3.446,0,0,0,3.436,3.436H610.615a3.446,3.446,0,0,0,3.435-3.436Z" fill="#00000f" fill-rule="evenodd"/>
            <path id="Path_27047" data-name="Path 27047" d="M595.9,445.052a6.89,6.89,0,0,0-6.869-6.869h-263.9a6.89,6.89,0,0,0-6.869,6.869v9.1a2.471,2.471,0,0,0,2.464,2.464H593.438a2.471,2.471,0,0,0,2.464-2.464v-9.1Z" fill="#101537" fill-rule="evenodd"/>
            <g id="Group_25674" data-name="Group 25674">
              <g id="Group_25671" data-name="Group 25671">
                <path id="Path_27048" data-name="Path 27048" d="M508.739,154.843v15.038a16.039,16.039,0,0,1-15.993,15.992h0a16.039,16.039,0,0,1-15.992-15.992V154.843l14.409-2.711Z" fill="#6d44e5" fill-rule="evenodd"/>
                <path id="Path_27049" data-name="Path 27049" d="M476.754,154.843h31.985l28.237-22.077H504.989Z" fill="#6d44e5" fill-rule="evenodd"/>
                <path id="Path_27050" data-name="Path 27050" d="M540.725,154.843v15.038a16.038,16.038,0,0,1-15.992,15.992h0a16.039,16.039,0,0,1-15.993-15.992V154.843l19.936-4.421Z" fill="#85e6c4" fill-rule="evenodd"/>
                <path id="Path_27051" data-name="Path 27051" d="M508.739,154.843h31.986l28.236-22.077H536.976Z" fill="#85e6c4" fill-rule="evenodd"/>
                <path id="Path_27052" data-name="Path 27052" d="M572.71,154.843v15.038a16.038,16.038,0,0,1-15.992,15.992h0a16.039,16.039,0,0,1-15.993-15.992V154.843l16.621-4.565Z" fill="#6d44e5" fill-rule="evenodd"/>
                <path id="Path_27053" data-name="Path 27053" d="M540.725,154.843H572.71l28.235-22.077H568.961Z" fill="#6d44e5" fill-rule="evenodd"/>
                <path id="Path_27054" data-name="Path 27054" d="M604.7,154.845v15.037A16.039,16.039,0,0,1,588.7,185.874h0a16.039,16.039,0,0,1-15.992-15.992V154.845l15.73-4.992Z" fill="#85e6c4" fill-rule="evenodd"/>
                <path id="Path_27055" data-name="Path 27055" d="M572.71,154.843H604.7l28.237-22.077H600.945Z" fill="#85e6c4" fill-rule="evenodd"/>
                <path id="Path_27056" data-name="Path 27056" d="M636.681,154.843v15.038a16.038,16.038,0,0,1-15.992,15.992h0A16.039,16.039,0,0,1,604.7,169.881V154.843l18.976-3Z" fill="#6d44e5" fill-rule="evenodd"/>
                <path id="Path_27057" data-name="Path 27057" d="M604.7,154.843H636.68l28.282-22.078H632.931Z" fill="#6d44e5" fill-rule="evenodd"/>
              </g>
              <g id="Group_25672" data-name="Group 25672">
                <path id="Path_27058" data-name="Path 27058" d="M380.8,154.843v15.038A16.039,16.039,0,0,1,364.8,185.873h0a16.039,16.039,0,0,1-15.992-15.992V154.843l14.409-2.711Z" fill="#6d44e5" fill-rule="evenodd"/>
                <path id="Path_27059" data-name="Path 27059" d="M348.813,154.843H380.8l28.235-22.077H377.049Z" fill="#6d44e5" fill-rule="evenodd"/>
                <path id="Path_27060" data-name="Path 27060" d="M412.783,154.843v15.038a16.039,16.039,0,0,1-15.993,15.992h0A16.039,16.039,0,0,1,380.8,169.881V154.843l19.937-4.421Z" fill="#85e6c4" fill-rule="evenodd"/>
                <path id="Path_27061" data-name="Path 27061" d="M380.8,154.843h31.985l28.236-22.077H409.033Z" fill="#85e6c4" fill-rule="evenodd"/>
                <path id="Path_27062" data-name="Path 27062" d="M444.769,154.843v15.038a16.039,16.039,0,0,1-15.993,15.992h0a16.039,16.039,0,0,1-15.992-15.992V154.843l16.621-4.565Z" fill="#6d44e5" fill-rule="evenodd"/>
                <path id="Path_27063" data-name="Path 27063" d="M412.783,154.843h31.986l28.236-22.077H441.019Z" fill="#6d44e5" fill-rule="evenodd"/>
                <path id="Path_27064" data-name="Path 27064" d="M476.754,154.845v15.037a16.039,16.039,0,0,1-15.992,15.992h0a16.039,16.039,0,0,1-15.993-15.992V154.845l15.73-4.992Z" fill="#85e6c4" fill-rule="evenodd"/>
                <path id="Path_27065" data-name="Path 27065" d="M444.769,154.843h31.985l28.235-22.077H473.005Z" fill="#85e6c4" fill-rule="evenodd"/>
              </g>
              <g id="Group_25673" data-name="Group 25673">
                <path id="Path_27066" data-name="Path 27066" d="M252.855,154.843v15.038a16.038,16.038,0,0,1-15.992,15.992h0a16.039,16.039,0,0,1-15.992-15.992V154.843l14.409-2.711Z" fill="#6d44e5" fill-rule="evenodd"/>
                <path id="Path_27067" data-name="Path 27067" d="M220.871,154.843h31.984l28.237-22.077H249.106Z" fill="#6d44e5" fill-rule="evenodd"/>
                <path id="Path_27068" data-name="Path 27068" d="M284.841,154.843v15.038a16.039,16.039,0,0,1-15.992,15.992h0a16.039,16.039,0,0,1-15.993-15.992V154.843l19.937-4.421Z" fill="#85e6c4" fill-rule="evenodd"/>
                <path id="Path_27069" data-name="Path 27069" d="M252.855,154.843h31.986l28.236-22.077H281.092Z" fill="#85e6c4" fill-rule="evenodd"/>
                <path id="Path_27070" data-name="Path 27070" d="M316.827,154.843v15.038a16.039,16.039,0,0,1-15.992,15.992h0a16.04,16.04,0,0,1-15.994-15.992V154.843l16.622-4.565Z" fill="#6d44e5" fill-rule="evenodd"/>
                <path id="Path_27071" data-name="Path 27071" d="M284.841,154.843h31.986l28.236-22.077H313.077Z" fill="#6d44e5" fill-rule="evenodd"/>
                <path id="Path_27072" data-name="Path 27072" d="M348.813,154.845v15.037a16.039,16.039,0,0,1-15.993,15.992h0a16.039,16.039,0,0,1-15.992-15.992V154.845l15.73-4.992Z" fill="#85e6c4" fill-rule="evenodd"/>
                <path id="Path_27073" data-name="Path 27073" d="M316.827,154.843h31.986l28.235-22.077H345.063Z" fill="#85e6c4" fill-rule="evenodd"/>
              </g>
            </g>
            <g id="Group_25675" data-name="Group 25675">
              <path id="Path_27074" data-name="Path 27074" d="M356.825,288.652a24.34,24.34,0,0,1,20.807,36.956L358,357.9a1.377,1.377,0,0,1-2.355,0l-19.629-32.293a24.338,24.338,0,0,1,20.806-36.956Zm0,13.71a9.279,9.279,0,1,0,9.279,9.279A9.279,9.279,0,0,0,356.825,302.362Z" fill="#85e6c4" fill-rule="evenodd"/>
              <path id="Path_27075" data-name="Path 27075" d="M366.1,311.642a9.28,9.28,0,0,1-9.279,9.28v37.643A1.342,1.342,0,0,0,358,357.9l19.629-32.293a24.34,24.34,0,0,0-20.807-36.956v13.71A9.279,9.279,0,0,1,366.1,311.642Z" fill="#6d44e5" fill-rule="evenodd"/>
            </g>
            <rect id="Rectangle_6591" data-name="Rectangle 6591" width="173.004" height="14.105" transform="translate(474.521 194.448)" fill="#daf8ec"/>
            <rect id="Rectangle_6592" data-name="Rectangle 6592" width="173.004" height="11.577" transform="translate(474.521 214.008)" fill="#d3c6f7"/>
            <path id="Path_27076" data-name="Path 27076" d="M586.071,264.636h62.774a2.015,2.015,0,0,1,2.01,2.01v5.115a2.015,2.015,0,0,1-2.01,2.01H586.071a2.016,2.016,0,0,1-2.011-2.01v-5.115A2.017,2.017,0,0,1,586.071,264.636Z" fill="#d3c6f7" fill-rule="evenodd"/>
            <path id="Path_27077" data-name="Path 27077" d="M585.313,248.279H649.6a1.256,1.256,0,0,1,1.252,1.253h0a1.256,1.256,0,0,1-1.252,1.252h-64.29a1.257,1.257,0,0,1-1.253-1.252h0A1.257,1.257,0,0,1,585.313,248.279Z" fill="#e4e1e8" fill-rule="evenodd"/>
            <path id="Path_27078" data-name="Path 27078" d="M585.313,256.071H649.6a1.257,1.257,0,0,1,1.252,1.253h0a1.256,1.256,0,0,1-1.252,1.252h-64.29a1.258,1.258,0,0,1-1.253-1.252h0A1.258,1.258,0,0,1,585.313,256.071Z" fill="#e4e1e8" fill-rule="evenodd"/>
            <path id="Path_27079" data-name="Path 27079" d="M585.313,279.449H649.6a1.256,1.256,0,0,1,1.252,1.252h0a1.255,1.255,0,0,1-1.252,1.252h-64.29a1.257,1.257,0,0,1-1.253-1.252h0A1.257,1.257,0,0,1,585.313,279.449Z" fill="#e4e1e8" fill-rule="evenodd"/>
            <path id="Path_27080" data-name="Path 27080" d="M586.071,234.445h62.774a2.015,2.015,0,0,1,2.01,2.009v5.116a2.015,2.015,0,0,1-2.01,2.009H586.071a2.016,2.016,0,0,1-2.011-2.009v-5.116A2.017,2.017,0,0,1,586.071,234.445Z" fill="#daf8ec" fill-rule="evenodd"/>
            <path id="Path_27081" data-name="Path 27081" d="M258.714,233.838h59.907a3.8,3.8,0,0,1,3.787,3.787V281.9a3.8,3.8,0,0,1-3.787,3.787H258.714a3.8,3.8,0,0,1-3.788-3.787v-44.28A3.8,3.8,0,0,1,258.714,233.838Z" fill="#e1e8f6" fill-rule="evenodd"/>
            <path id="Path_27082" data-name="Path 27082" d="M294.151,253.694l9.4.6a2.16,2.16,0,0,1,1.241,3.818l-7.251,6.012,2.333,9.124a2.161,2.161,0,0,1-3.248,2.36l-7.956-5.038-7.957,5.038a2.161,2.161,0,0,1-3.248-2.36l2.332-9.124-7.25-6.012a2.16,2.16,0,0,1,1.241-3.818l9.4-.6,3.476-8.753a2.16,2.16,0,0,1,4.015,0Z" fill="#6d44e5" fill-rule="evenodd"/>
            <path id="Path_27083" data-name="Path 27083" d="M259.4,292.574h58.539a4.484,4.484,0,0,1,4.471,4.472v52.277a4.485,4.485,0,0,1-4.471,4.472H259.4a4.485,4.485,0,0,1-4.472-4.472V297.046A4.485,4.485,0,0,1,259.4,292.574Z" fill="#e1e8f6" fill-rule="evenodd"/>
            <path id="Path_27084" data-name="Path 27084" d="M288.668,307.912a15.271,15.271,0,1,1-15.273,15.272,15.273,15.273,0,0,1,15.273-15.272Zm7.906,17.22a7.907,7.907,0,1,1-15.813,0,.9.9,0,0,0-1.8,0,9.708,9.708,0,0,0,19.417,0,.9.9,0,1,0-1.8,0Zm-13.231-9.486a1.714,1.714,0,0,0-1.708,1.709v3.257a1.714,1.714,0,0,0,1.708,1.708h0a1.712,1.712,0,0,0,1.708-1.708v-3.257a1.712,1.712,0,0,0-1.708-1.709Zm10.648,0a1.715,1.715,0,0,0-1.709,1.709v3.257a1.713,1.713,0,0,0,1.709,1.708h0a1.712,1.712,0,0,0,1.707-1.708v-3.257a1.712,1.712,0,0,0-1.707-1.709Z" fill="#fff" fill-rule="evenodd"/>
            <text id="BUY.COM" transform="translate(254.638 224.441)" fill="none" stroke="#6d44e5" stroke-miterlimit="5" stroke-width="2.835" font-size="38.744" font-family="Helvetica"><tspan x="0" y="0">BUY.COM</tspan></text>
          </g>
          <path id="Path_27085" data-name="Path 27085" d="M329.571,277.646H432.544A1.256,1.256,0,0,1,433.8,278.9h0a1.257,1.257,0,0,1-1.252,1.253H329.571a1.257,1.257,0,0,1-1.253-1.253h0A1.257,1.257,0,0,1,329.571,277.646Z" fill="#e4e1e8" fill-rule="evenodd"/>
          <path id="Path_27086" data-name="Path 27086" d="M585.313,278.47H649.6a1.256,1.256,0,0,1,1.252,1.252h0a1.256,1.256,0,0,1-1.252,1.252h-64.29a1.257,1.257,0,0,1-1.253-1.252h0A1.256,1.256,0,0,1,585.313,278.47Z" fill="#e4e1e8" fill-rule="evenodd"/>
          <g id="Group_25677" data-name="Group 25677">
            <path id="Path_27087" data-name="Path 27087" d="M679.456,375.61a1.14,1.14,0,0,0,2.277-.116c-.908-17.686-4.979-27.82-9.818-32.031a8.857,8.857,0,0,0-6.8-2.4,10.544,10.544,0,0,0-6.438,3.451c-4.869,5.05-8.325,15.525-7.293,29.191a1.142,1.142,0,0,0,2.278-.17c-.981-12.975,2.183-22.8,6.659-27.44a8.313,8.313,0,0,1,5.018-2.764,6.66,6.66,0,0,1,5.079,1.861C674.843,349.041,678.584,358.627,679.456,375.61Z" fill="#00000f" fill-rule="evenodd"/>
            <path id="Path_27088" data-name="Path 27088" d="M695.813,372.134s1.49.1,1.85,2.261,5.343,78.6,5.343,78.6,1.079,4.212-5.754,4.212H635.707c-6.832,0-5.753-4.212-5.753-4.212s4.982-76.438,5.342-78.6,1.849-2.261,1.849-2.261Z" fill="#6d44e5" fill-rule="evenodd"/>
            <path id="Path_27089" data-name="Path 27089" d="M687.507,372.134s1.491.1,1.851,2.261,5.342,78.6,5.342,78.6,1.078,4.212-5.754,4.212H627.4c-6.832,0-5.753-4.212-5.753-4.212s4.982-76.438,5.343-78.6,1.849-2.261,1.849-2.261Z" fill="#85e6c4" fill-rule="evenodd"/>
            <path id="Path_27090" data-name="Path 27090" d="M659.6,457.2H627.4c-6.832,0-5.753-4.212-5.753-4.212s1.844-28.282,3.369-50.925h33.608s.966.066,1.2,1.465,3.462,50.941,3.462,50.941S663.98,457.185,659.6,457.2Z" fill="#6d44e5" fill-rule="evenodd"/>
            <path id="Path_27091" data-name="Path 27091" d="M639.945,377.362a1.139,1.139,0,0,0,2.278.045c.379-17.118,3.61-26.789,7.706-30.75a6.089,6.089,0,0,1,4.924-1.96A8.678,8.678,0,0,1,660,347.624c4.869,5.078,8.59,15.958,7.953,30a1.141,1.141,0,0,0,2.279.1c.665-14.7-3.348-26.218-8.588-31.683a10.878,10.878,0,0,0-6.56-3.614,8.26,8.26,0,0,0-6.737,2.586C643.867,349.347,640.341,359.565,639.945,377.362Z" fill="#101537" fill-rule="evenodd"/>
            <path id="Path_27092" data-name="Path 27092" d="M619.8,404.791a.813.813,0,0,1-1.623-.082c.648-12.6,3.546-19.815,6.993-22.814a6.31,6.31,0,0,1,4.846-1.713,7.5,7.5,0,0,1,4.586,2.457c3.469,3.6,5.931,11.06,5.2,20.794a.814.814,0,0,1-1.623-.122c.7-9.242-1.554-16.237-4.742-19.545a5.928,5.928,0,0,0-3.574-1.968,4.744,4.744,0,0,0-3.618,1.324C623.09,385.867,620.426,392.694,619.8,404.791Z" fill="#00000f" fill-rule="evenodd"/>
            <path id="Path_27093" data-name="Path 27093" d="M610.892,403.27s-.944.065-1.173,1.434-3.387,49.827-3.387,49.827-.684,2.671,3.648,2.671H649c4.331,0,3.646-2.671,3.646-2.671s-3.158-48.461-3.387-49.827-1.172-1.434-1.172-1.434Z" fill="#6d44e5" fill-rule="evenodd"/>
            <path id="Path_27094" data-name="Path 27094" d="M616.156,403.27s-.943.065-1.172,1.434-3.387,49.827-3.387,49.827-.685,2.671,3.647,2.671h39.019c4.331,0,3.648-2.671,3.648-2.671s-3.159-48.461-3.388-49.827-1.173-1.434-1.173-1.434Z" fill="#85e6c4" fill-rule="evenodd"/>
            <path id="Path_27095" data-name="Path 27095" d="M647.946,406.039a.811.811,0,1,1-1.622.031c-.27-12.191-2.572-19.08-5.489-21.9a4.338,4.338,0,0,0-3.508-1.4,6.181,6.181,0,0,0-3.666,2.085c-3.469,3.616-6.119,11.366-5.666,21.37a.811.811,0,1,1-1.621.07c-.475-10.472,2.384-18.674,6.116-22.565a7.745,7.745,0,0,1,4.673-2.574,5.876,5.876,0,0,1,4.8,1.842C645.153,386.085,647.665,393.362,647.946,406.039Z" fill="#101537" fill-rule="evenodd"/>
          </g>
          <g id="Group_25680" data-name="Group 25680">
            <g id="Group_25678" data-name="Group 25678">
              <rect id="Rectangle_6593" data-name="Rectangle 6593" width="55.319" height="57.211" transform="translate(343.88 399.99)" fill="#85e6c4"/>
              <rect id="Rectangle_6594" data-name="Rectangle 6594" width="41.49" height="57.211" transform="translate(311.853 399.99)" fill="#f0ecfd"/>
              <rect id="Rectangle_6595" data-name="Rectangle 6595" width="8.589" height="19.943" transform="translate(328.304 399.99)" fill="#6d44e5"/>
              <rect id="Rectangle_6596" data-name="Rectangle 6596" width="8.589" height="8.661" transform="translate(328.304 426.667)" fill="#6d44e5"/>
            </g>
            <g id="Group_25679" data-name="Group 25679">
              <rect id="Rectangle_6597" data-name="Rectangle 6597" width="31.93" height="33.022" transform="translate(330.318 366.968)" fill="#f0ecfd"/>
              <rect id="Rectangle_6598" data-name="Rectangle 6598" width="23.947" height="33.022" transform="translate(356.786 366.968)" fill="#85e6c4"/>
              <rect id="Rectangle_6599" data-name="Rectangle 6599" width="4.957" height="11.511" transform="translate(366.281 366.968)" fill="#6d44e5"/>
              <rect id="Rectangle_6600" data-name="Rectangle 6600" width="4.957" height="5" transform="translate(366.281 382.365)" fill="#6d44e5"/>
            </g>
          </g>
          <g id="Group_25684" data-name="Group 25684">
            <path id="Path_27096" data-name="Path 27096" d="M130.328,343.916c13.832-7.352,17.344,8.645,11.965,21.891s-32.974,57.8-34.415,75.468c-.559,6.85-1.835,6.1-2.929,1.3C99.5,418.62,111.286,354.036,130.328,343.916Z" fill="#85e6c4" fill-rule="evenodd"/>
            <g id="Group_25681" data-name="Group 25681">
              <path id="Path_27097" data-name="Path 27097" d="M101.039,283.226C85.177,268.945,75.26,288.934,78,308.217s24.527,87.279,20.6,111.111c-1.52,9.238.415,8.672,3.443,2.683C117.156,392.145,122.873,302.883,101.039,283.226Z" fill="#85e6c4" fill-rule="evenodd"/>
              <path id="Path_27098" data-name="Path 27098" d="M98.276,425.951c.339.886,1.092.446,2.1-1.028,16.53-55.065-9.221-137.338-9.3-137.6a.859.859,0,0,0-1.642.507C89.517,288.093,115.619,371.489,98.276,425.951Z" fill="#6d44e5" fill-rule="evenodd"/>
            </g>
            <g id="Group_25682" data-name="Group 25682">
              <path id="Path_27099" data-name="Path 27099" d="M66.4,328.977c-15.369-6.689-17.781,10.668-10.939,24.35s39.991,58.909,43,77.638c1.167,7.26,2.467,6.355,3.232,1.142C105.51,406.1,87.552,338.185,66.4,328.977Z" fill="#85e6c4" fill-rule="evenodd"/>
              <path id="Path_27100" data-name="Path 27100" d="M99.86,435.98c.474.574.925.059,1.312-1.291-1.392-45.131-41.05-100.006-41.177-100.182a.674.674,0,1,0-1.1.786C59.025,335.471,99.225,391.1,99.86,435.98Z" fill="#6d44e5" fill-rule="evenodd"/>
            </g>
            <g id="Group_25683" data-name="Group 25683">
              <path id="Path_27101" data-name="Path 27101" d="M88.037,425.986h29.526l7.709,6.958-6.3,24.257H86.625l-6.3-24.257Z" fill="#3b405f" fill-rule="evenodd"/>
              <path id="Path_27102" data-name="Path 27102" d="M80.328,416.96h44.943a2.451,2.451,0,0,1,2.444,2.444v11.1a2.451,2.451,0,0,1-2.444,2.444H80.328a2.451,2.451,0,0,1-2.444-2.444V419.4A2.45,2.45,0,0,1,80.328,416.96Z" fill="#3b405f" fill-rule="evenodd"/>
              <path id="Path_27103" data-name="Path 27103" d="M125.272,432.944l-1.3,4.986H81.623l-1.295-4.986Z" fill="#101537" fill-rule="evenodd"/>
            </g>
          </g>
          <path id="Path_27104" data-name="Path 27104" d="M118.207,82.641a14.927,14.927,0,1,0,3.241,4.851,14.978,14.978,0,0,0-3.241-4.851Zm-5.377-1.967a13.637,13.637,0,1,1-5.188-1.025,13.558,13.558,0,0,1,5.188,1.025Zm1.65-10.992a24.063,24.063,0,0,1,2.754.982,24.494,24.494,0,0,1,2.644,1.32,24.666,24.666,0,0,1,4.766,3.593,1.561,1.561,0,0,0,1.868.226c2.193-1.267,4.5-2.521,6.65-3.84a.917.917,0,0,1,.322-.1,1,1,0,0,1,.367.028.94.94,0,0,1,.578.44c1.6,2.42,3.2,5.546,4.686,8.112a.911.911,0,0,1,.116.344,1.012,1.012,0,0,1-.027.378.956.956,0,0,1-.164.336.939.939,0,0,1-.276.243c-1.973,1.305-4.516,2.61-6.608,3.818a1.56,1.56,0,0,0-.758,1.066l-.136.045.152.617q.182.728.314,1.452c.086.469.161.961.223,1.473s.106,1,.136,1.486.043.981.043,1.5-.014,1.022-.043,1.5-.076.987-.136,1.487-.138,1-.224,1.473-.194.968-.314,1.453a1.563,1.563,0,0,0,.807,1.765l5.852,3.378,0,0,.694.4a.922.922,0,0,1,.276.242.989.989,0,0,1,.191.713.928.928,0,0,1-.116.345l-4.332,7.507,0,0-.35.606a.949.949,0,0,1-.242.276.994.994,0,0,1-.711.192.945.945,0,0,1-.343-.117c-2.1-1.316-4.461-2.574-6.624-3.822a1.563,1.563,0,0,0-1.862.223l0,0a24.775,24.775,0,0,1-2.276,1.943,24.442,24.442,0,0,1-2.49,1.649,24.3,24.3,0,0,1-5.464,2.322,1.562,1.562,0,0,0-1.135,1.506l0,7.636a.92.92,0,0,1-.071.359.975.975,0,0,1-.208.308.927.927,0,0,1-.667.28h-9.371a.923.923,0,0,1-.359-.071.985.985,0,0,1-.31-.207,1,1,0,0,1-.207-.309.941.941,0,0,1-.07-.359v-7.636a1.58,1.58,0,0,0-1.206-1.525,23.974,23.974,0,0,1-2.753-.981,24.418,24.418,0,0,1-2.645-1.32,24.748,24.748,0,0,1-4.766-3.593,1.57,1.57,0,0,0-1.947-.178l-6.538,3.774a.916.916,0,0,1-.345.116,1.011,1.011,0,0,1-.378-.028.974.974,0,0,1-.336-.164.963.963,0,0,1-.242-.276c-1.553-2.709-3.13-5.4-4.686-8.113a.932.932,0,0,1-.116-.346.981.981,0,0,1,.027-.376.968.968,0,0,1,.163-.337.9.9,0,0,1,.271-.241l6.614-3.819a1.573,1.573,0,0,0,.743-.991l.172-.035-.174-.7c-.12-.484-.225-.969-.313-1.451s-.162-.962-.224-1.475-.106-1-.136-1.487-.043-.979-.043-1.5.014-1.022.043-1.5.075-.985.136-1.486c.063-.518.139-1.012.224-1.478.089-.481.193-.965.313-1.449a1.563,1.563,0,0,0-.1-1.034,1.581,1.581,0,0,0-.7-.731l-6.55-3.781a.916.916,0,0,1-.273-.241.969.969,0,0,1-.163-.337.981.981,0,0,1-.027-.376.921.921,0,0,1,.116-.346c1.6-2.378,3.2-5.555,4.686-8.112a.938.938,0,0,1,.242-.276.995.995,0,0,1,.712-.192.908.908,0,0,1,.346.118l6.618,3.82a1.542,1.542,0,0,0,.993.2,1.57,1.57,0,0,0,.894-.441,24.378,24.378,0,0,1,10.211-5.9,1.562,1.562,0,0,0,1.136-1.506l0-7.637a.916.916,0,0,1,.279-.666.927.927,0,0,1,.667-.28h9.371a.916.916,0,0,1,.359.071.952.952,0,0,1,.587.875v7.637a1.557,1.557,0,0,0,.337.969,1.572,1.572,0,0,0,.868.558Zm3.295-.289a25.544,25.544,0,0,1,2.794,1.4,25.894,25.894,0,0,1,5.032,3.793.173.173,0,0,0,.105.048.185.185,0,0,0,.114-.021q3.338-1.926,6.674-3.854a2.292,2.292,0,0,1,.835-.263,2.363,2.363,0,0,1,1.7.467,2.293,2.293,0,0,1,.6.682c1.612,2.611,3.144,5.44,4.687,8.111a2.314,2.314,0,0,1,.289.863,2.35,2.35,0,0,1-.462,1.725,2.291,2.291,0,0,1-.681.6c-2.128,1.313-4.437,2.562-6.614,3.818a.182.182,0,0,0-.075.087.186.186,0,0,0-.011.116l.152.617-.007,0c.066.3.128.6.185.914.1.529.177,1.051.239,1.562s.109,1.029.142,1.566.049,1.068.049,1.583-.017,1.042-.049,1.582-.08,1.062-.142,1.568-.143,1.031-.239,1.56-.207,1.038-.33,1.534a.175.175,0,0,0,.012.12.184.184,0,0,0,.082.089c2.43,1.3,4.9,2.825,7.3,4.213l-.085.107.073.091a2.353,2.353,0,0,1,.462,1.725,2.284,2.284,0,0,1-.291.862l-5.035,8.72-.093-.056c-.05.045-.1.089-.156.129a2.328,2.328,0,0,1-1.723.462,2.3,2.3,0,0,1-.84-.275c-2.2-1.169-4.47-2.58-6.645-3.837a.195.195,0,0,0-.219.031,26.344,26.344,0,0,1-2.4,2.048,26.022,26.022,0,0,1-2.63,1.741,25.694,25.694,0,0,1-5.777,2.456.182.182,0,0,0-.1.065.17.17,0,0,0-.037.112v7.636a2.328,2.328,0,0,1-.687,1.645,2.359,2.359,0,0,1-.754.506,2.328,2.328,0,0,1-.889.178h-9.371a2.319,2.319,0,0,1-.888-.178,2.4,2.4,0,0,1-.757-.506,2.332,2.332,0,0,1-.5-.756,2.292,2.292,0,0,1-.18-.889v-7.636a.173.173,0,0,0-.14-.179l-.03-.011a25.629,25.629,0,0,1-5.74-2.441,25.974,25.974,0,0,1-5.032-3.793.173.173,0,0,0-.109-.051.185.185,0,0,0-.118.03l-6.614,3.818a2.285,2.285,0,0,1-.858.289,2.336,2.336,0,0,1-1.725-.463,2.276,2.276,0,0,1-.588-.662c-1.737-2.794-3.378-5.854-5.037-8.723l.089-.053c-.016-.073-.029-.147-.039-.22a2.34,2.34,0,0,1,.462-1.723,2.3,2.3,0,0,1,.68-.6l6.615-3.818a.184.184,0,0,0,.075-.086.19.19,0,0,0,.01-.12l-.171-.7.009,0q-.088-.408-.166-.83-.147-.793-.24-1.561t-.142-1.569q-.049-.81-.049-1.582t.049-1.582q.049-.807.142-1.572t.24-1.56q.144-.788.33-1.531a.2.2,0,0,0-.014-.123.186.186,0,0,0-.085-.086l-6.605-3.814a2.28,2.28,0,0,1-.68-.6,2.337,2.337,0,0,1-.461-1.721,2.323,2.323,0,0,1,.279-.843c1.574-2.916,3.38-5.856,5.045-8.741l.093.056c.05-.045.1-.089.156-.13a2.352,2.352,0,0,1,1.724-.462,2.308,2.308,0,0,1,.859.286l.489.282,0,0,6.135,3.54a.188.188,0,0,0,.117.023.184.184,0,0,0,.105-.052l.016-.016a25.788,25.788,0,0,1,2.395-2.04,26.124,26.124,0,0,1,2.618-1.734,25.592,25.592,0,0,1,2.812-1.4,25.859,25.859,0,0,1,2.963-1.051.182.182,0,0,0,.1-.066.171.171,0,0,0,.037-.111V60.52a2.332,2.332,0,0,1,.687-1.646,2.352,2.352,0,0,1,.755-.506,2.3,2.3,0,0,1,.888-.179h9.371a2.31,2.31,0,0,1,.889.179,2.383,2.383,0,0,1,.757.506,2.323,2.323,0,0,1,.685,1.646v7.637a.205.205,0,0,0,.037.116.192.192,0,0,0,.1.063l.03.011A25.677,25.677,0,0,1,117.775,69.393Z" fill="#c0cdea" fill-rule="evenodd"/>
          <path id="Path_27105" data-name="Path 27105" d="M101.993,178.5Zm-3.3-12.55a6.341,6.341,0,1,0,1.857,4.483,6.324,6.324,0,0,0-1.857-4.483Zm-1.37-6.284a11.132,11.132,0,0,1,2.485,1.058,11.317,11.317,0,0,1,2.181,1.643.39.39,0,0,0,.464.057l2.946-1.7.016-.01a.735.735,0,0,1,.982.277l.012.02,2.073,3.59a.734.734,0,0,1-.268,1l-.02.013-2.922,1.687a.39.39,0,0,0-.184.429h0a11.357,11.357,0,0,1,.246,4.072,11.346,11.346,0,0,1-.246,1.339.389.389,0,0,0,.206.442l2.921,1.686h0a.736.736,0,0,1,.268,1L106.4,179.88h0a.736.736,0,0,1-1,.267l-.021-.012-2.926-1.689a.39.39,0,0,0-.463.057,11.277,11.277,0,0,1-2.181,1.643,11.137,11.137,0,0,1-2.5,1.063.391.391,0,0,0-.283.375v3.4a.732.732,0,0,1-.729.729h-4.17a.732.732,0,0,1-.73-.729v-3.4a.389.389,0,0,0-.3-.379,11.174,11.174,0,0,1-4.665-2.7.389.389,0,0,0-.484-.043l-2.926,1.689a.736.736,0,0,1-1-.268l-.013-.021-2.074-3.591h0a.737.737,0,0,1,.267-1l2.944-1.7a.389.389,0,0,0,.184-.43h0a11.554,11.554,0,0,1-.246-1.339,11.349,11.349,0,0,1-.083-1.366,11.3,11.3,0,0,1,.329-2.706.39.39,0,0,0-.206-.442L80.207,165.6a.737.737,0,0,1-.267-1l.012-.022,2.074-3.59h0a.725.725,0,0,1,.443-.339.735.735,0,0,1,.554.07h0l2.946,1.7a.391.391,0,0,0,.473-.064,11.2,11.2,0,0,1,4.673-2.7.391.391,0,0,0,.283-.375v-3.4a.732.732,0,0,1,.73-.729H96.3a.732.732,0,0,1,.729.729v3.4A.4.4,0,0,0,97.327,159.669Z" fill="#c0cdea" fill-rule="evenodd"/>
          <path id="Path_27106" data-name="Path 27106" d="M653.819,86.022Zm-3.3-12.551a6.341,6.341,0,1,0,1.857,4.483,6.32,6.32,0,0,0-1.857-4.483Zm-1.37-6.284a11.092,11.092,0,0,1,2.485,1.058,11.312,11.312,0,0,1,2.181,1.644.389.389,0,0,0,.465.057l2.946-1.7.015-.01a.734.734,0,0,1,.538-.061.727.727,0,0,1,.443.339l.013.02,2.073,3.591a.736.736,0,0,1-.269,1l-.019.013L657.1,74.822a.391.391,0,0,0-.184.429h0a11.6,11.6,0,0,1,.246,1.34,11.241,11.241,0,0,1-.247,4.071.389.389,0,0,0,.206.442l2.921,1.687h0a.724.724,0,0,1,.339.444.733.733,0,0,1-.07.555L658.227,87.4h0a.733.733,0,0,1-1,.267l-.021-.012-2.927-1.689a.392.392,0,0,0-.463.056,11.322,11.322,0,0,1-2.181,1.644,11.119,11.119,0,0,1-2.5,1.063.389.389,0,0,0-.284.375v3.4a.731.731,0,0,1-.729.729h-4.171a.732.732,0,0,1-.515-.214.722.722,0,0,1-.214-.515V89.1a.39.39,0,0,0-.3-.379,11.12,11.12,0,0,1-2.486-1.058,11.367,11.367,0,0,1-2.18-1.644.387.387,0,0,0-.482-.044l-2.927,1.689a.733.733,0,0,1-.555.07.724.724,0,0,1-.442-.338l-.013-.021-2.074-3.592h0a.739.739,0,0,1,.268-1l2.943-1.7a.391.391,0,0,0,.184-.43h0a11.543,11.543,0,0,1-.245-1.339,11.281,11.281,0,0,1,0-2.732,11.612,11.612,0,0,1,.245-1.34.387.387,0,0,0-.205-.441l-2.922-1.688a.718.718,0,0,1-.337-.443.726.726,0,0,1,.069-.554l.012-.021,2.073-3.59h0a.734.734,0,0,1,1-.268h0l2.946,1.7a.39.39,0,0,0,.474-.065,11.259,11.259,0,0,1,2.172-1.635,11.111,11.111,0,0,1,2.5-1.063.39.39,0,0,0,.284-.374v-3.4a.732.732,0,0,1,.729-.729h4.171a.732.732,0,0,1,.729.729v3.4A.391.391,0,0,0,649.153,67.187Z" fill="#c0cdea" fill-rule="evenodd"/>
          <path id="Path_27107" data-name="Path 27107" d="M158.811,322.444Zm-3.3-12.55a6.34,6.34,0,1,0,1.857,4.483,6.321,6.321,0,0,0-1.857-4.483Zm-1.37-6.285a11.039,11.039,0,0,1,2.485,1.058,11.277,11.277,0,0,1,2.181,1.643.388.388,0,0,0,.464.056l2.946-1.7.016-.009a.733.733,0,0,1,.982.277l.012.02,2.073,3.591a.735.735,0,0,1-.267,1l-.021.013-2.922,1.687a.391.391,0,0,0-.183.43h0a11.329,11.329,0,0,1,.247,4.071,11.255,11.255,0,0,1-.247,1.341.39.39,0,0,0,.206.441l2.921,1.686h0a.736.736,0,0,1,.267,1l-2.085,3.61h0a.732.732,0,0,1-.444.339.724.724,0,0,1-.553-.071l-.022-.012-2.926-1.69a.39.39,0,0,0-.463.057,11.192,11.192,0,0,1-4.682,2.707.392.392,0,0,0-.284.375v3.4a.732.732,0,0,1-.729.73h-4.171a.732.732,0,0,1-.728-.73v-3.4a.391.391,0,0,0-.3-.38,11.118,11.118,0,0,1-2.486-1.058,11.3,11.3,0,0,1-2.18-1.645.39.39,0,0,0-.484-.043l-2.926,1.688a.722.722,0,0,1-.554.071.735.735,0,0,1-.444-.339l-.012-.02-2.073-3.592h0a.735.735,0,0,1,.266-1l2.944-1.7a.392.392,0,0,0,.184-.43h0a11.457,11.457,0,0,1-.246-1.341,11.293,11.293,0,0,1,.246-4.071.388.388,0,0,0-.206-.441l-2.922-1.688a.735.735,0,0,1-.266-1l.011-.021,2.073-3.591h0a.734.734,0,0,1,1-.269h0l2.947,1.7a.386.386,0,0,0,.472-.064,11.217,11.217,0,0,1,4.672-2.7.39.39,0,0,0,.284-.374v-3.4a.732.732,0,0,1,.728-.729h4.171a.732.732,0,0,1,.729.729v3.4A.4.4,0,0,0,154.145,303.609Z" fill="#c0cdea" fill-rule="evenodd"/>
          <path id="Path_27108" data-name="Path 27108" d="M151.821,190.8a5.292,5.292,0,0,1,3.753,1.556l0,0a5.31,5.31,0,1,1-7.509,7.509l-.005-.005a5.31,5.31,0,0,1,3.757-9.063Zm2.524,2.788a3.569,3.569,0,0,0-5.048,5.046l0,0a3.569,3.569,0,0,0,5.045-5.049Z" fill="#9fb2d9" fill-rule="evenodd"/>
          <path id="Path_27109" data-name="Path 27109" d="M354.87,56.337a5.294,5.294,0,0,1,3.753,1.556l0,0a5.31,5.31,0,1,1-7.509,7.509l-.005,0a5.311,5.311,0,0,1,3.758-9.064Zm2.523,2.789a3.569,3.569,0,0,0-5.048,5.046l0,0a3.569,3.569,0,0,0,5.045-5.049Z" fill="#9fb2d9" fill-rule="evenodd"/>
          <path id="Path_27110" data-name="Path 27110" d="M611.979,88.846a5.29,5.29,0,0,1,3.753,1.557l0,0a5.31,5.31,0,1,1-7.51,7.509l-.005,0a5.312,5.312,0,0,1,3.758-9.064Zm2.524,2.788a3.569,3.569,0,0,0-5.049,5.047l0,0a3.569,3.569,0,0,0,5.046-5.05Z" fill="#9fb2d9" fill-rule="evenodd"/>
          <path id="Path_27111" data-name="Path 27111" d="M150.345,431.657a5.292,5.292,0,0,1,3.753,1.556l0,0a5.309,5.309,0,1,1-7.508,7.509l-.005-.005a5.311,5.311,0,0,1,3.757-9.064Zm2.524,2.788a3.569,3.569,0,0,0-5.049,5.046l0,0a3.569,3.569,0,0,0,5.045-5.049Z" fill="#9fb2d9" fill-rule="evenodd"/>
          <path id="Path_27112" data-name="Path 27112" d="M440.352,96.124a1.088,1.088,0,1,1,2.175,0v2.557h2.558a1.087,1.087,0,0,1,0,2.175h-2.558v2.558a1.088,1.088,0,0,1-2.175,0v-2.558h-2.558a1.087,1.087,0,1,1,0-2.175h2.558Z" fill="#c0cdea" fill-rule="evenodd"/>
          <path id="Path_27113" data-name="Path 27113" d="M154.38,249.01a1.088,1.088,0,0,1,2.176,0v2.558h2.557a1.088,1.088,0,0,1,0,2.176h-2.557V256.3a1.088,1.088,0,1,1-2.176,0v-2.557h-2.557a1.088,1.088,0,0,1,0-2.176h2.557Z" fill="#c0cdea" fill-rule="evenodd"/>
          <path id="Path_27114" data-name="Path 27114" d="M55.379,160.352a1.087,1.087,0,1,1,2.174,0v2.558H60.11a1.087,1.087,0,0,1,0,2.174H57.553v2.557a1.087,1.087,0,1,1-2.174,0v-2.557H52.822a1.087,1.087,0,1,1,0-2.174h2.557Z" fill="#c0cdea" fill-rule="evenodd"/>
          <path id="Path_27115" data-name="Path 27115" d="M170.634,76.127a1.087,1.087,0,1,1,2.174,0v2.557h2.558a1.087,1.087,0,0,1,0,2.175h-2.558v2.558a1.087,1.087,0,0,1-2.174,0V80.859h-2.557a1.087,1.087,0,1,1,0-2.175h2.557Z" fill="#c0cdea" fill-rule="evenodd"/>
          <path id="Path_27116" data-name="Path 27116" d="M681.9,76.127a1.088,1.088,0,0,1,2.176,0v2.557h2.557a1.087,1.087,0,0,1,0,2.175h-2.557v2.558a1.088,1.088,0,0,1-2.176,0V80.859h-2.557a1.087,1.087,0,1,1,0-2.175H681.9Z" fill="#c0cdea" fill-rule="evenodd"/>
          <g id="Group_25686" data-name="Group 25686">
            <path id="Path_27117" data-name="Path 27117" d="M371.371,66.771H500.293a3.035,3.035,0,0,1,3.026,3.027V99.444a3.035,3.035,0,0,1-3.026,3.027H371.371a3.035,3.035,0,0,1-3.026-3.027V69.8A3.034,3.034,0,0,1,371.371,66.771Z" fill="#6d44e5" fill-rule="evenodd"/>
            <path id="Path_27118" data-name="Path 27118" d="M376.142,72.553h19.817a1.585,1.585,0,0,1,1.581,1.581V95.108a1.586,1.586,0,0,1-1.581,1.582H376.142a1.587,1.587,0,0,1-1.582-1.582V74.134A1.585,1.585,0,0,1,376.142,72.553Z" fill="#fff" fill-rule="evenodd"/>
            <g id="Group_25685" data-name="Group 25685">
              <path id="Path_27119" data-name="Path 27119" d="M407.612,74.286H491.6a1.338,1.338,0,0,1,1.334,1.333h0a1.337,1.337,0,0,1-1.334,1.333H407.612a1.338,1.338,0,0,1-1.333-1.333h0A1.339,1.339,0,0,1,407.612,74.286Z" fill="#fff" fill-rule="evenodd"/>
              <path id="Path_27120" data-name="Path 27120" d="M407.612,83.288H491.6a1.337,1.337,0,0,1,1.334,1.333h0a1.338,1.338,0,0,1-1.334,1.334H407.612a1.338,1.338,0,0,1-1.333-1.334h0A1.338,1.338,0,0,1,407.612,83.288Z" fill="#fff" fill-rule="evenodd"/>
              <path id="Path_27121" data-name="Path 27121" d="M407.612,92.29h37.45a1.337,1.337,0,0,1,1.333,1.333h0a1.338,1.338,0,0,1-1.333,1.334h-37.45a1.339,1.339,0,0,1-1.333-1.334h0A1.337,1.337,0,0,1,407.612,92.29Z" fill="#fff" fill-rule="evenodd"/>
            </g>
          </g>
        </g>
        <g id="Group_25688" data-name="Group 25688">
          <path id="Path_27122" data-name="Path 27122" d="M261.01,272.581c.338-.237,1.7-.3,2.626-.981,2.327-1.72,5.395-4.556,5.98-3.972.607.6-1.192,2.056-1.192,2.056s2.039-1.307,2.2-.575-1.359,2.039-1.359,2.039,1.883-.94,1.935-.052-1.778,2.456-1.778,2.456,2.038-.364,1.255.576-6.265,4.518-7.311,4.256S261.01,272.581,261.01,272.581Z" fill="#f5ac83" fill-rule="evenodd"/>
          <path id="Path_27123" data-name="Path 27123" d="M263.552,271.659l.084-.06c.294-.218.6-.452.91-.7a3.629,3.629,0,0,1,3.156,4.251,4.666,4.666,0,0,0-3.977-3.482C263.655,271.667,263.6,271.664,263.552,271.659Z" fill="#f08e70" fill-rule="evenodd"/>
          <path id="Path_27124" data-name="Path 27124" d="M186.93,349.275c-2.935,9.966-2.861,38.959-3.773,50.939-1.4,18.4-3.958,46.517-3.773,48.006s-7.732,2.435-8.918.053a2.933,2.933,0,0,1-.162-1.623c.081-1.272-1.186-123.868.323-127.008,1.678-3.489,35.16-3.489,36.838,0,1.509,3.14-.663,125.843-.583,127.114a2.919,2.919,0,0,1-.162,1.623c-1.186,2.382-8.249.787-8.064-.7s-2.374-29.605-3.774-48.007c-.911-11.978-2.146-40.9-4.412-51.045C188.445,339.56,188.529,343.846,186.93,349.275Z" fill="#101537" fill-rule="evenodd"/>
          <path id="Path_27125" data-name="Path 27125" d="M207.092,446.224s-.4-1.261-.952-1.261h-3.718c-.519,0-2.373.467-2.373,1.98,0,0-1.176,1.006-1.377,1.25a1.745,1.745,0,0,0-.374,1.334V454.2c0,.6-.167,2.983,3.943,2.983h7.836a2.3,2.3,0,0,0,2.257-2.188c0-1.063-.22-2.141-1.6-4.111s-2.372-3.432-2.372-3.432A3.98,3.98,0,0,0,207.092,446.224Z" fill="#6d44e5" fill-rule="evenodd"/>
          <path id="Path_27126" data-name="Path 27126" d="M212.368,454.781H198.429a.637.637,0,0,0-.636.635v1.15a.638.638,0,0,0,.636.636h13.939a.638.638,0,0,0,.636-.636v-1.15A.637.637,0,0,0,212.368,454.781Z" fill="#fff" fill-rule="evenodd"/>
          <path id="Path_27127" data-name="Path 27127" d="M170.645,446.224s.4-1.261.954-1.261h3.717c.519,0,2.372.467,2.372,1.98,0,0,1.177,1.006,1.378,1.25a1.745,1.745,0,0,1,.374,1.334V454.2c0,.6.167,2.983-3.943,2.983h-7.836a2.3,2.3,0,0,1-2.257-2.188c0-1.063.22-2.141,1.6-4.111s2.372-3.432,2.372-3.432A3.976,3.976,0,0,1,170.645,446.224Z" fill="#6d44e5" fill-rule="evenodd"/>
          <path id="Path_27128" data-name="Path 27128" d="M165.37,454.781h13.94a.637.637,0,0,1,.636.635v1.15a.638.638,0,0,1-.636.636H165.37a.638.638,0,0,1-.636-.636v-1.15A.637.637,0,0,1,165.37,454.781Z" fill="#fff" fill-rule="evenodd"/>
          <path id="Path_27129" data-name="Path 27129" d="M194.74,249.985s-1.552-2.092.582,3.69c1.523,4.13,20.013,19.638,28.394,26.111,8.4,6.485,8.746,5.358,19.752,3.615,8.054-1.275,17.217-3.33,19.364-4.95,0,0,.395-.327-.123-.761s-2.634-1.485-2.848-2.509-.984-.8-1.933-.278-18.683-.572-23.164-.828-20.262-21.054-22.639-23.1S201.1,245.441,194.74,249.985Z" fill="#6d44e5" fill-rule="evenodd"/>
          <path id="Path_27130" data-name="Path 27130" d="M182.4,242.079c7.6,1.205,5.46,1.183,13.116.006l.882.432,12.7,6.2-1.33,22.534c-.083,1.271-.165,2.491-.248,3.669l-.05,2.384s2.544,37.169,2.335,37.972A12.326,12.326,0,0,1,207.911,318c.066.508.139,1.048.216,1.613-3.035,1.271-4.612,7.342-19.723,6.9-7.116.751-20.56-4.715-20.154-7.816,0,0,1.732-2.977,1.524-3.779s.674-37.6.674-37.6l-.05-2.384c-.083-1.178-.165-2.4-.249-3.669l-1.329-22.534,12.7-6.2Z" fill="#6d44e5" fill-rule="evenodd"/>
          <path id="Path_27131" data-name="Path 27131" d="M189.165,242.971l-.286.042-.308-.045c-1.268-.046-2.708-.34-6.175-.89l-.871.438-1.763.861.563.611c5.809,6.3,11.455,6.3,17.263,0l.564-.613-1.758-.859-.882-.432A63.509,63.509,0,0,1,189.165,242.971Z" fill="#fff" fill-rule="evenodd"/>
          <path id="Path_27132" data-name="Path 27132" d="M183.652,227.816l.155,3.643v8.6a3.1,3.1,0,0,1-1.412,2.025c4.681,5.077,8.441,5.077,13.122,0a3.1,3.1,0,0,1-1.412-2.025v-8.6l.155-3.643s-2.611.469-5.3,1.129C186.263,228.285,183.652,227.816,183.652,227.816Z" fill="#e9695b" fill-rule="evenodd"/>
          <path id="Path_27133" data-name="Path 27133" d="M201.971,222.528a3.755,3.755,0,1,0,3.787,3.722A3.754,3.754,0,0,0,201.971,222.528Z" fill="#e26757" fill-rule="evenodd"/>
          <path id="Path_27134" data-name="Path 27134" d="M176.255,222.751a3.754,3.754,0,1,0,3.786,3.721A3.754,3.754,0,0,0,176.255,222.751Z" fill="#e26757" fill-rule="evenodd"/>
          <path id="Path_27135" data-name="Path 27135" d="M188.983,202.692h0a12.9,12.9,0,0,0-12.747,12.97l.1,11.685a12.9,12.9,0,0,0,12.969,12.747h0a12.9,12.9,0,0,0,12.748-12.969l-.1-11.686A12.9,12.9,0,0,0,188.983,202.692Z" fill="#f5ac83" fill-rule="evenodd"/>
          <path id="Path_27136" data-name="Path 27136" d="M189.666,240.086a12.9,12.9,0,0,0,12.388-12.961l-.1-11.685a12.9,12.9,0,0,0-7.478-11.56l-12.21,4.732s-5.782,5.384-4.694,8.473l1.11-.64h16.188c1.665,0,4.441,1.409,4.441,5.21v8.814C199.31,232.87,195.965,239.609,189.666,240.086Z" fill="#f08e70" fill-rule="evenodd"/>
          <path id="Path_27137" data-name="Path 27137" d="M185.68,229.857a3.826,3.826,0,0,0,7.652-.066h-.007a.661.661,0,0,0-.666-.655l-6.318.055a.664.664,0,0,0-.655.667h-.006Z" fill="#fff" fill-rule="evenodd"/>
          <path id="Path_27138" data-name="Path 27138" d="M175.129,222.933a13.188,13.188,0,0,1-1.428-10.351l5.564,2.827s.18,3.346-1.967,4.581v3.141a3,3,0,0,1-1.005,2.309S176.292,222.751,175.129,222.933Z" fill="#00000f" fill-rule="evenodd"/>
          <path id="Path_27139" data-name="Path 27139" d="M194.1,210.757s-15.247,8.322-21.53,2.738c-8.372-7.442,8.93-34.379,27.3-8.242a2.771,2.771,0,0,1,3.221-1.235c2.255.59,4.295,5.1.43,6.766,0,0,2.96,4.142-.668,11.842,0,0-.848.372-.848,2.68v1.182a3.023,3.023,0,0,1-1.035-2.416v-4.617s-3.168-4.242-2.551-7.061C195.618,215.245,192.576,213.973,194.1,210.757Z" fill="#070f2c" fill-rule="evenodd"/>
          <path id="Path_27140" data-name="Path 27140" d="M203.525,210.784s2.96,4.142-.668,11.842c0,0-.848.372-.848,2.68v1.182a3.023,3.023,0,0,1-1.035-2.416v-4.617s-3.167-4.242-2.551-7.06C202.34,215.379,203.525,210.784,203.525,210.784Z" fill="#00000f" fill-rule="evenodd"/>
          <path id="Path_27141" data-name="Path 27141" d="M167.873,320.974a14.975,14.975,0,0,0,2.678,4.155s2.771-3.694,2.4-5.541-3.325-2.77-3.325-2.77Z" fill="#f5ac83" fill-rule="evenodd"/>
          <path id="Path_27142" data-name="Path 27142" d="M168.993,249.231s1.466-2.153-3.295,1.76c-3.4,2.8-10.278,20.541-13.641,30.584-4.574,13.658,4.413,32.454,16.319,40.423.453-1.871.909-4.285,2.62-5.313.264-.158-1.263-1.91-2.328-4.436-2.561-6.068-6.652-16.392-7.2-18.3-1.229-4.317,11.918-26.05,13.072-28.968S175.372,253.746,168.993,249.231Z" fill="#6d44e5" fill-rule="evenodd"/>
          <path id="Path_27143" data-name="Path 27143" d="M259.763,276.274c-1.224-1.916-.093-4.617-.277-5.633s-.282-2.352.647-2.056c1.015.323,1.731,2.771,1.731,3.51s3.764,2.609,4.087,4.041-2.494,2.632-3.879,2.262A4.617,4.617,0,0,1,259.763,276.274Z" fill="#f5ac83" fill-rule="evenodd"/>
          <path id="Path_27144" data-name="Path 27144" d="M262.341,276.893a7.516,7.516,0,0,1-2.976-4.747,10.353,10.353,0,0,0-.162,2.318,3.863,3.863,0,0,0,.56,1.811,4.622,4.622,0,0,0,2.309,2.124,2.432,2.432,0,0,0,.747.064,4.063,4.063,0,0,0,.563-.074c.845.165,4.271-1.909,6.145-3.293a34.227,34.227,0,0,1-3.624,1.657,4.518,4.518,0,0,1-3.346.261C262.485,276.975,262.412,276.935,262.341,276.893Z" fill="#f08e70" fill-rule="evenodd"/>
          <path id="Path_27145" data-name="Path 27145" d="M208.352,261.353l-.321,5.456c5.588,4.908,11.751,9.938,15.685,12.978,8.4,6.485,8.746,5.358,19.752,3.615,8.038-1.272,17.18-3.321,19.351-4.939a2.4,2.4,0,0,1-.747-.064c-.058-.016-.115-.033-.171-.053-4.569,1.538-22.907,4.073-28.273,3.121C228.321,280.524,210.872,263.792,208.352,261.353Z" fill="#6d44e5" fill-rule="evenodd"/>
          <path id="Path_27146" data-name="Path 27146" d="M161.471,293.945c-.813-2.855,4.662-13.326,8.8-20.937-.255-5.046-.187-5.95-.336-5.481-.008.024-.016.055-.026.087-.185.646-10.251,16.532-10.528,21.333s9.143,23.643,9.143,23.643-.01-.266-.026-.755C165.925,305.723,162,295.815,161.471,293.945Z" fill="#6d44e5" fill-rule="evenodd"/>
        </g>
        <path id="Path_27147" data-name="Path 27147" d="M470.682,323.578h34.745a3.335,3.335,0,0,1,3.325,3.325v25.489a3.334,3.334,0,0,1-3.325,3.324H470.682a3.334,3.334,0,0,1-3.324-3.324V326.9A3.334,3.334,0,0,1,470.682,323.578Z" fill="#6d44e5" fill-rule="evenodd"/>
        <text id="_50" data-name="$50" transform="translate(475.038 346.164)" fill="#fff" font-size="14.776" font-family="Helvetica"><tspan x="0" y="0">$50</tspan></text>
        <path id="Path_27148" data-name="Path 27148" d="M522.4,323.578h34.745a3.336,3.336,0,0,1,3.325,3.325v25.489a3.335,3.335,0,0,1-3.325,3.324H522.4a3.333,3.333,0,0,1-3.324-3.324V326.9A3.334,3.334,0,0,1,522.4,323.578Z" fill="#85e6c4" fill-rule="evenodd"/>
        <path id="Path_27149" data-name="Path 27149" d="M574.116,323.578h43.611a3.335,3.335,0,0,1,3.324,3.325v25.489a3.334,3.334,0,0,1-3.324,3.324H574.116a3.334,3.334,0,0,1-3.324-3.324V326.9A3.335,3.335,0,0,1,574.116,323.578Z" fill="#6d44e5" fill-rule="evenodd"/>
        <text id="_70" data-name="$70" transform="translate(526.755 346.164)" fill="#fff" font-size="14.776" font-family="Helvetica"><tspan x="0" y="0">$70</tspan></text>
        <text id="_100" data-name="$100" transform="translate(579.246 346.164)" fill="#fff" font-size="14.776" font-family="Helvetica"><tspan x="0" y="0">$100</tspan></text>
      </g>
    </g>
  </g>
</svg>
