<svg xmlns="http://www.w3.org/2000/svg" width="693.046" height="420.041" viewBox="0 0 693.046 420.041">
  <g id="_20123577_6209994" data-name="20123577_6209994" transform="translate(-27.038 -39.55)">
    <g id="OBJECTS_x0A_">
      <g id="Group_25996" data-name="Group 25996">
        <g id="Group_25987" data-name="Group 25987">
          <g id="Group_25984" data-name="Group 25984">
            <path id="Path_27583" data-name="Path 27583" d="M100.915,317.09H48.325a2.186,2.186,0,0,1-2.186-2.186V277.579A3.577,3.577,0,0,1,49.716,274h51.2a2.186,2.186,0,0,1,2.186,2.186V314.9A2.186,2.186,0,0,1,100.915,317.09Z" fill="#dadef1"/>
          </g>
          <g id="Group_25986" data-name="Group 25986">
            <g id="Group_25985" data-name="Group 25985">
              <path id="Path_27584" data-name="Path 27584" d="M84.1,274.269v42.874a.625.625,0,0,0,1.25,0V274.269a.625.625,0,0,0-1.25,0Z" fill="#b8c1ea"/>
            </g>
          </g>
          <rect id="Rectangle_6607" data-name="Rectangle 6607" width="7.931" height="7.931" transform="translate(61.213 274.001)" fill="#fff"/>
          <rect id="Rectangle_6608" data-name="Rectangle 6608" width="7.931" height="7.931" transform="translate(91.18 309.159)" fill="#fff"/>
          <path id="Path_27585" data-name="Path 27585" d="M46.187,316.417l-.048-40.759a1.78,1.78,0,0,1,1.78-1.78L103.1,274" fill="rgba(0,0,0,0)" stroke="#b8c1ea" stroke-miterlimit="10" stroke-width="1"/>
        </g>
        <g id="Group_25991" data-name="Group 25991">
          <g id="Group_25988" data-name="Group 25988">
            <path id="Path_27586" data-name="Path 27586" d="M131.8,388.294H43.261a2.186,2.186,0,0,1-2.186-2.186V321.586a3.577,3.577,0,0,1,3.577-3.577H131.8a2.186,2.186,0,0,1,2.186,2.186v65.913A2.185,2.185,0,0,1,131.8,388.294Z" fill="#dadef1"/>
          </g>
          <g id="Group_25990" data-name="Group 25990">
            <g id="Group_25989" data-name="Group 25989">
              <path id="Path_27587" data-name="Path 27587" d="M103.389,318.446v69.936a.625.625,0,0,0,1.25,0V318.446a.625.625,0,0,0-1.25,0Z" fill="#b8c1ea"/>
            </g>
          </g>
          <rect id="Rectangle_6609" data-name="Rectangle 6609" width="12.936" height="12.936" transform="translate(65.664 318.009)" fill="#fff"/>
          <rect id="Rectangle_6610" data-name="Rectangle 6610" width="12.936" height="12.936" transform="translate(114.546 375.358)" fill="#fff"/>
          <path id="Path_27588" data-name="Path 27588" d="M41.153,387.2l-.078-66.486a2.9,2.9,0,0,1,2.9-2.9l90.013.2" fill="rgba(0,0,0,0)" stroke="#b8c1ea" stroke-miterlimit="10" stroke-width="1"/>
        </g>
        <g id="Group_25995" data-name="Group 25995">
          <g id="Group_25992" data-name="Group 25992">
            <path id="Path_27589" data-name="Path 27589" d="M118.268,458.535H29.725a2.186,2.186,0,0,1-2.186-2.186V391.827a3.577,3.577,0,0,1,3.577-3.577h87.153a2.186,2.186,0,0,1,2.186,2.186v65.913A2.187,2.187,0,0,1,118.268,458.535Z" fill="#dadef1"/>
          </g>
          <g id="Group_25994" data-name="Group 25994">
            <g id="Group_25993" data-name="Group 25993">
              <path id="Path_27590" data-name="Path 27590" d="M89.853,388.687v69.936a.625.625,0,0,0,1.25,0V388.687a.625.625,0,0,0-1.25,0Z" fill="#b8c1ea"/>
            </g>
          </g>
          <rect id="Rectangle_6611" data-name="Rectangle 6611" width="12.936" height="12.936" transform="translate(52.127 388.25)" fill="#fff"/>
          <rect id="Rectangle_6612" data-name="Rectangle 6612" width="12.936" height="12.936" transform="translate(101.009 445.599)" fill="#fff"/>
          <path id="Path_27591" data-name="Path 27591" d="M27.617,457.439l-.079-66.486a2.9,2.9,0,0,1,2.9-2.9l90.013.2" fill="rgba(0,0,0,0)" stroke="#b8c1ea" stroke-miterlimit="10" stroke-width="1"/>
        </g>
      </g>
      <g id="Group_25999" data-name="Group 25999">
        <g id="Group_25998" data-name="Group 25998">
          <g id="Group_25997" data-name="Group 25997">
            <path id="Path_27592" data-name="Path 27592" d="M239.3,162.213H141.662c-1.312,0-2.682-.113-3.991,0-.059.005-.121,0-.181,0a.625.625,0,0,0,0,1.25h97.634c1.312,0,2.682.113,3.991,0,.059-.005.121,0,.181,0a.625.625,0,0,0,0-1.25Z" fill="#dadef1"/>
          </g>
        </g>
        <path id="Path_27593" data-name="Path 27593" d="M237.946,162.781a4.239,4.239,0,1,0,4.239-4.239A4.239,4.239,0,0,0,237.946,162.781Z" fill="#dadef1"/>
      </g>
      <g id="Group_26002" data-name="Group 26002">
        <g id="Group_26001" data-name="Group 26001">
          <g id="Group_26000" data-name="Group 26000">
            <path id="Path_27594" data-name="Path 27594" d="M133.938,241.378v57.973a.625.625,0,0,0,1.25,0V241.378a.625.625,0,0,0-1.25,0Z" fill="#dadef1"/>
          </g>
        </g>
        <path id="Path_27595" data-name="Path 27595" d="M129.753,300.555a4.239,4.239,0,1,0,4.238-4.239A4.238,4.238,0,0,0,129.753,300.555Z" fill="#dadef1"/>
      </g>
      <g id="Group_26015" data-name="Group 26015">
        <g id="Group_26006" data-name="Group 26006">
          <g id="Group_26003" data-name="Group 26003">
            <path id="Path_27596" data-name="Path 27596" d="M94.2,244.452h64.474a2.187,2.187,0,0,0,2.187-2.186V195.951a3.577,3.577,0,0,0-3.577-3.577H94.2a2.186,2.186,0,0,0-2.186,2.186v47.706A2.186,2.186,0,0,0,94.2,244.452Z" fill="#85e6c4"/>
          </g>
          <g id="Group_26005" data-name="Group 26005">
            <g id="Group_26004" data-name="Group 26004">
              <path id="Path_27597" data-name="Path 27597" d="M113.6,192.7v51.819a.625.625,0,0,0,1.25,0V192.7a.625.625,0,0,0-1.25,0Z" fill="#26244a"/>
            </g>
          </g>
          <rect id="Rectangle_6613" data-name="Rectangle 6613" width="9.585" height="9.585" transform="translate(142.641 201.959) rotate(180)" fill="#dadef1"/>
          <rect id="Rectangle_6614" data-name="Rectangle 6614" width="9.585" height="9.585" transform="translate(106.422 244.451) rotate(180)" fill="#dadef1"/>
        </g>
        <g id="Group_26014" data-name="Group 26014">
          <path id="Path_27598" data-name="Path 27598" d="M106.48,175.184s5.775-7.587,19.957-10.229,19.518,1.754,19.518,1.754,8.051,12.886,4.315,20.876-5.661,19.786,3.219,23.118,19-7.345,21.75-18.868c2.285-9.57,5.238-17.606,1.5-37.387s-44.318-39.829-44.318-39.829-21.348,18.657-30.789,29.076A34.038,34.038,0,0,0,92.8,166.3" fill="#f4b298"/>
          <path id="Path_27599" data-name="Path 27599" d="M132.923,112.14s-24.652,8.215-39.468,20.948c-7.076,6.081-20.929,35.812-28.6,57.172-1.5,4.171-2.773,7.332-3.3,9.007C58.8,208,67.385,217.932,76.484,211.322c7.616-5.533,13.566-24.177,13.566-24.177l21.825-44.775Z" fill="#f4b298"/>
          <path id="Path_27600" data-name="Path 27600" d="M54.692,173.216l37.792-39.192-21.058,52.86a59.409,59.409,0,0,1-7.261,3.372,9.387,9.387,0,0,1-8.791-.9C50.665,185.1,50.362,177.4,54.692,173.216Z" fill="#f4b298"/>
          <path id="Path_27601" data-name="Path 27601" d="M203.331,112.14l-37.464,38.291-25.132-21.2-17.348-13.418,22.387-43.235C166.694,72.214,192.285,87.127,203.331,112.14Z" fill="#f4b298"/>
          <g id="Group_26007" data-name="Group 26007">
            <path id="Path_27602" data-name="Path 27602" d="M89.242,157.046l23.665,2.341c-3.94,4.751-5.681,11.148-6.3,17.371s-.255,12.463-.616,18.7a26.856,26.856,0,0,1-2.248,10.371c-1.573,3.189-4.447,5.874-7.725,6.213a8.927,8.927,0,0,1-7.61-3.628,22.206,22.206,0,0,1-3.76-8.292A61.86,61.86,0,0,1,89.242,157.046Z" fill="#f4b298"/>
          </g>
          <g id="Group_26009" data-name="Group 26009">
            <g id="Group_26008" data-name="Group 26008">
              <path id="Path_27603" data-name="Path 27603" d="M85.247,199.954c-1.108-6.221-2.34-12.574-2.313-18.919.031-7.074,2.56-13.884,6.307-19.818a32.945,32.945,0,0,1,6.547-7.822c.618-.516-.27-1.4-.884-.884-5.147,4.291-8.844,10.718-11.1,16.942a39.086,39.086,0,0,0-1.723,18.041c.474,4.288,1.206,8.547,1.962,12.793.141.79,1.346.455,1.206-.333Z" fill="#ed796a"/>
            </g>
          </g>
          <g id="Group_26011" data-name="Group 26011">
            <g id="Group_26010" data-name="Group 26010">
              <path id="Path_27604" data-name="Path 27604" d="M65.159,192.391q7.871-21.141,17.784-41.436c.352-.72-.726-1.354-1.079-.631q-9.972,20.413-17.91,41.734c-.282.755.926,1.081,1.205.333Z" fill="#ed796a"/>
            </g>
          </g>
          <g id="Group_26013" data-name="Group 26013">
            <g id="Group_26012" data-name="Group 26012">
              <path id="Path_27605" data-name="Path 27605" d="M162.761,133.346A47.874,47.874,0,0,1,177.038,159.6c1.907,9.669,1.656,20.017-1.9,29.268-2,5.207-4.51,10.452-8.139,14.736-2.99,3.529-7.029,6.519-11.872,6.241a9.948,9.948,0,0,1-6.3-2.4,7.814,7.814,0,0,1-2.034-5.42c-.124-4.014,1.269-8.074,2.851-11.711,2.568-5.9,3.136-12.282.327-18.235a58.625,58.625,0,0,0-6.784-10.542c-.485-.628-1.571-.006-1.079.631a64.408,64.408,0,0,1,6.361,9.69,19.2,19.2,0,0,1,2.177,9.384,24.647,24.647,0,0,1-2.331,9.028c-1.581,3.744-2.97,7.91-2.76,12.028a9.327,9.327,0,0,0,1.781,5.338,9.439,9.439,0,0,0,5.418,3.112c10.731,2.562,17.9-8.732,21.681-16.991a51.39,51.39,0,0,0,4.835-17.716,64.255,64.255,0,0,0-.646-14.59,49.387,49.387,0,0,0-14.978-28.988c-.591-.549-1.477.333-.886.882Z" fill="#ed796a"/>
            </g>
          </g>
        </g>
      </g>
      <g id="Group_26017" data-name="Group 26017">
        <g id="Group_26016" data-name="Group 26016">
          <path id="Path_27606" data-name="Path 27606" d="M510.125,165.941H636.14a7.686,7.686,0,0,0,1.722,0,.944.944,0,0,1,.219,0l-.625-.625V278.55c0,1.51-.125,3.081,0,4.588.005.066,0,.134,0,.2a.625.625,0,0,0,1.25,0V170.1c0-1.51.125-3.081,0-4.588-.005-.066,0-.134,0-.2a.634.634,0,0,0-.625-.625H515.352c-1.652,0-3.359-.123-5.009,0-.072.005-.147,0-.219,0a.625.625,0,0,0,0,1.25Z" fill="#dadef1"/>
        </g>
      </g>
      <g id="Group_26037" data-name="Group 26037">
        <g id="Group_26019" data-name="Group 26019">
          <g id="Group_26018" data-name="Group 26018">
            <path id="Path_27607" data-name="Path 27607" d="M378.826,126.16q1.455-2.028,2.916-4.062" fill="rgba(0,0,0,0)" stroke="#b8c1ea" stroke-linecap="round" stroke-linejoin="round" stroke-width="3"/>
            <path id="Path_27608" data-name="Path 27608" d="M393.164,107.33c8.209-9.459,17.611-17.2,30.053-20.035a56.121,56.121,0,0,1,68.263,48" fill="rgba(0,0,0,0)" stroke="#b8c1ea" stroke-linecap="round" stroke-linejoin="round" stroke-width="3" stroke-dasharray="9.337 18.675"/>
            <path id="Path_27609" data-name="Path 27609" d="M491.9,144.615q-.1,2.5-.429,4.981" fill="rgba(0,0,0,0)" stroke="#b8c1ea" stroke-linecap="round" stroke-linejoin="round" stroke-width="3"/>
          </g>
        </g>
        <path id="Path_27610" data-name="Path 27610" d="M352.964,125.227c-30.26-8.313-65.233,5.734-81.337,32.668s-11.922,64.39,9.723,87.111" fill="rgba(0,0,0,0)" stroke="#b8c1ea" stroke-linecap="round" stroke-linejoin="round" stroke-miterlimit="10" stroke-width="3" stroke-dasharray="10 20"/>
        <path id="Path_27611" data-name="Path 27611" d="M533.863,122.528a13.474,13.474,0,0,0-16.45-2.647,14.137,14.137,0,0,0-5.93,6.109,11.349,11.349,0,0,0-.7,1.882l-3.578,12.239a3.1,3.1,0,0,0,2.823,3.968l9.085.451c.857.043,2.506.085,3.981.1a13.756,13.756,0,0,0,7.89-2.294l.053-.036C537.666,137.7,539.129,128.518,533.863,122.528Zm-14.011,13.093a5.8,5.8,0,1,1,5.927.95A5.649,5.649,0,0,1,519.852,135.621Z" fill="#dadef1"/>
        <g id="Group_26036" data-name="Group 26036">
          <circle id="Ellipse_402" data-name="Ellipse 402" cx="99.82" cy="99.82" r="99.82" transform="translate(255.105 193.052) rotate(-45)" fill="#b8c1ea"/>
          <g id="Group_26021" data-name="Group 26021">
            <g id="Group_26020" data-name="Group 26020">
              <path id="Path_27612" data-name="Path 27612" d="M393.956,93.185c-17.022,1.629-33.155,8.026-46.046,19.364a94.478,94.478,0,0,0-24.115,34.2c-8.291,19.642-9.655,41.645-6.4,62.557,3.089,19.871,10.388,39.513,23.285,55.145,12.094,14.658,29.474,25.417,48.511,27.73a62.984,62.984,0,0,0,7.132.451.625.625,0,0,0,0-1.25c-19.049-.142-37.154-9.272-50.275-22.8-13.851-14.275-22.117-33.174-26.147-52.46-4.232-20.254-4.162-41.824,2.318-61.6a95.652,95.652,0,0,1,22.428-37.176,78.108,78.108,0,0,1,42.227-21.97c2.349-.412,4.712-.719,7.086-.947.794-.076.8-1.327,0-1.25Z" fill="#f5f5f5"/>
            </g>
          </g>
          <g id="Group_26023" data-name="Group 26023">
            <g id="Group_26022" data-name="Group 26022">
              <path id="Path_27613" data-name="Path 27613" d="M393.641,93.27c-12.221,7.039-21.963,18.5-29.446,30.273a94.85,94.85,0,0,0-9.441,18.9,113.554,113.554,0,0,0-5.369,24.2,199.508,199.508,0,0,0-1.3,26.275c.082,8.706.451,17.431,1.244,26.1a165.466,165.466,0,0,0,4.159,25.523c1.9,7.519,4.328,15.142,8.4,21.8,7.1,11.6,18.46,19.775,30.734,25.212q2.286,1.012,4.619,1.915c.75.292,1.075-.916.332-1.2-12.424-4.836-24.328-12.144-32.279-23.07-4.4-6.054-7.127-12.946-9.253-20.082a146.3,146.3,0,0,1-4.936-25c-.97-8.4-1.424-16.856-1.657-25.3a235.6,235.6,0,0,1,.506-25.392A133.415,133.415,0,0,1,354.318,148a85.477,85.477,0,0,1,8.1-19.072c6.95-12.243,16.289-24.023,27.941-32.1q1.906-1.321,3.918-2.48a.626.626,0,0,0-.631-1.08Z" fill="#f5f5f5"/>
            </g>
          </g>
          <g id="Group_26025" data-name="Group 26025">
            <g id="Group_26024" data-name="Group 26024">
              <path id="Path_27614" data-name="Path 27614" d="M398.027,292.01c-2.535-25.553-4.017-51.2-4.776-76.868-.774-26.139-.793-52.3-.2-78.443q.488-21.453,1.53-42.889c.039-.8-1.211-.8-1.25,0q-1.865,38.49-1.943,77.038c-.033,26.143.587,52.294,2.078,78.4q1.224,21.414,3.31,42.767c.078.792,1.329.8,1.25,0Z" fill="#f5f5f5"/>
            </g>
          </g>
          <g id="Group_26027" data-name="Group 26027">
            <g id="Group_26026" data-name="Group 26026">
              <path id="Path_27615" data-name="Path 27615" d="M397.844,293.312a145.426,145.426,0,0,0,33.41-36.667,116.658,116.658,0,0,0,17.057-45.579,127.573,127.573,0,0,0,.8-24.588,161.193,161.193,0,0,0-2.975-23.749c-2.92-14.287-8.046-28.309-16.213-40.46A78.956,78.956,0,0,0,399.61,95.315c-1.527-.754-3.08-1.45-4.65-2.108-.741-.31-1.065.9-.332,1.205a76.661,76.661,0,0,1,31.788,25.053c8.518,11.443,14.068,24.853,17.415,38.661a151.4,151.4,0,0,1,3.666,23,141.875,141.875,0,0,1,.2,24.413,113.1,113.1,0,0,1-14.765,45.876,140.792,140.792,0,0,1-31.269,37.176q-2.314,1.965-4.7,3.836c-.633.5.257,1.376.883.885Z" fill="#f5f5f5"/>
            </g>
          </g>
          <g id="Group_26029" data-name="Group 26029">
            <g id="Group_26028" data-name="Group 26028">
              <path id="Path_27616" data-name="Path 27616" d="M394.793,94.435c7.723,0,15.357,2.063,22.5,4.862a108.487,108.487,0,0,1,22.658,12.3,92.04,92.04,0,0,1,18.365,16.636c5.666,6.9,9.527,15.172,12.276,23.623,6.228,19.148,6.436,39.989,3.074,59.71a127.907,127.907,0,0,1-8.359,28.985c-3.785,8.814-8.7,17.436-15.157,24.579a83.759,83.759,0,0,1-21.213,16.6,86.473,86.473,0,0,1-25.268,9.579q-3.113.621-6.271.937c-.793.079-.8,1.33,0,1.25a79.942,79.942,0,0,0,25.656-7.348A91.333,91.333,0,0,0,446.3,270.779c14.506-13.311,22.853-32.546,27.111-51.463,4.456-19.8,5.241-41,.377-60.8-2.277-9.269-5.8-18.65-11.167-26.6a79.633,79.633,0,0,0-16.853-17.53A112.941,112.941,0,0,0,423.3,100.516a76.819,76.819,0,0,0-23.076-7.007,45.783,45.783,0,0,0-5.427-.324.625.625,0,0,0,0,1.25Z" fill="#f5f5f5"/>
            </g>
          </g>
          <g id="Group_26031" data-name="Group 26031">
            <g id="Group_26030" data-name="Group 26030">
              <path id="Path_27617" data-name="Path 27617" d="M296.6,197.727h199.5a.625.625,0,0,0,0-1.25H296.6a.625.625,0,0,0,0,1.25Z" fill="#f5f5f5"/>
            </g>
          </g>
          <g id="Group_26033" data-name="Group 26033">
            <g id="Group_26032" data-name="Group 26032">
              <path id="Path_27618" data-name="Path 27618" d="M311.224,141.4H472.345c2.157,0,4.347.11,6.5,0,.093-.005.188,0,.281,0a.625.625,0,0,0,0-1.25H318.007c-2.157,0-4.347-.11-6.5,0-.093.005-.188,0-.281,0a.625.625,0,0,0,0,1.25Z" fill="#f5f5f5"/>
            </g>
          </g>
          <g id="Group_26035" data-name="Group 26035">
            <g id="Group_26034" data-name="Group 26034">
              <path id="Path_27619" data-name="Path 27619" d="M319.57,254.052H472.981a.625.625,0,0,0,0-1.25H319.57a.625.625,0,0,0,0,1.25Z" fill="#f5f5f5"/>
            </g>
          </g>
        </g>
      </g>
      <g id="Group_26062" data-name="Group 26062">
        <g id="Group_26041" data-name="Group 26041">
          <g id="Group_26038" data-name="Group 26038">
            <path id="Path_27620" data-name="Path 27620" d="M139.065,381.142H70.585a2.186,2.186,0,0,1-2.186-2.186V329.612a3.577,3.577,0,0,1,3.577-3.577h67.088a2.186,2.186,0,0,1,2.186,2.186v50.735A2.185,2.185,0,0,1,139.065,381.142Z" fill="#6d44e5"/>
          </g>
          <g id="Group_26040" data-name="Group 26040">
            <g id="Group_26039" data-name="Group 26039">
              <path id="Path_27621" data-name="Path 27621" d="M117.122,326.377V381.21a.625.625,0,0,0,1.25,0V326.377a.625.625,0,0,0-1.25,0Z" fill="#26244a"/>
            </g>
          </g>
          <rect id="Rectangle_6615" data-name="Rectangle 6615" width="10.143" height="10.143" transform="translate(87.678 326.034)" fill="#dadef1"/>
          <rect id="Rectangle_6616" data-name="Rectangle 6616" width="10.143" height="10.143" transform="translate(126.005 370.999)" fill="#dadef1"/>
        </g>
        <g id="Group_26045" data-name="Group 26045">
          <g id="Group_26042" data-name="Group 26042">
            <path id="Path_27622" data-name="Path 27622" d="M206.456,380.512H137.977a2.186,2.186,0,0,1-2.186-2.186V328.982a3.577,3.577,0,0,1,3.577-3.577h67.088a2.186,2.186,0,0,1,2.186,2.186v50.735A2.185,2.185,0,0,1,206.456,380.512Z" fill="#85e6c4"/>
          </g>
          <g id="Group_26044" data-name="Group 26044">
            <g id="Group_26043" data-name="Group 26043">
              <path id="Path_27623" data-name="Path 27623" d="M184.514,325.747V380.58a.625.625,0,0,0,1.25,0V325.747a.625.625,0,0,0-1.25,0Z" fill="#26244a"/>
            </g>
          </g>
          <rect id="Rectangle_6617" data-name="Rectangle 6617" width="10.143" height="10.143" transform="translate(155.07 325.404)" fill="#dadef1"/>
          <rect id="Rectangle_6618" data-name="Rectangle 6618" width="10.143" height="10.143" transform="translate(193.396 370.369)" fill="#dadef1"/>
        </g>
        <g id="Group_26049" data-name="Group 26049">
          <g id="Group_26046" data-name="Group 26046">
            <path id="Path_27624" data-name="Path 27624" d="M138.008,436.51H69.529a2.186,2.186,0,0,1-2.186-2.186V384.98A3.577,3.577,0,0,1,70.92,381.4h67.088a2.186,2.186,0,0,1,2.186,2.186v50.735A2.185,2.185,0,0,1,138.008,436.51Z" fill="#85e6c4"/>
          </g>
          <g id="Group_26048" data-name="Group 26048">
            <g id="Group_26047" data-name="Group 26047">
              <path id="Path_27625" data-name="Path 27625" d="M116.066,381.745v54.834a.625.625,0,0,0,1.25,0V381.745a.625.625,0,0,0-1.25,0Z" fill="#26244a"/>
            </g>
          </g>
          <rect id="Rectangle_6619" data-name="Rectangle 6619" width="10.143" height="10.143" transform="translate(86.622 381.402)" fill="#dadef1"/>
          <rect id="Rectangle_6620" data-name="Rectangle 6620" width="10.143" height="10.143" transform="translate(124.948 426.367)" fill="#dadef1"/>
          <path id="Path_27626" data-name="Path 27626" d="M67.4,435.651l-.062-52.129a2.277,2.277,0,0,1,2.277-2.277l70.575.157" fill="rgba(0,0,0,0)" stroke="#26244a" stroke-miterlimit="10" stroke-width="1"/>
        </g>
        <g id="Group_26053" data-name="Group 26053">
          <g id="Group_26050" data-name="Group 26050">
            <path id="Path_27627" data-name="Path 27627" d="M206.468,436.51H137.989a2.186,2.186,0,0,1-2.186-2.186V384.98a3.577,3.577,0,0,1,3.577-3.577h67.088a2.186,2.186,0,0,1,2.186,2.186v50.735A2.185,2.185,0,0,1,206.468,436.51Z" fill="#85e6c4"/>
          </g>
          <g id="Group_26052" data-name="Group 26052">
            <g id="Group_26051" data-name="Group 26051">
              <path id="Path_27628" data-name="Path 27628" d="M184.526,381.745v54.834a.625.625,0,0,0,1.25,0V381.745a.625.625,0,0,0-1.25,0Z" fill="#26244a"/>
            </g>
          </g>
          <rect id="Rectangle_6621" data-name="Rectangle 6621" width="10.143" height="10.143" transform="translate(155.082 381.402)" fill="#dadef1"/>
          <rect id="Rectangle_6622" data-name="Rectangle 6622" width="10.143" height="10.143" transform="translate(193.408 426.367)" fill="#dadef1"/>
          <path id="Path_27629" data-name="Path 27629" d="M135.864,435.651l-.061-52.129a2.277,2.277,0,0,1,2.277-2.277l70.575.157" fill="rgba(0,0,0,0)" stroke="#26244a" stroke-miterlimit="10" stroke-width="1"/>
        </g>
        <path id="Path_27630" data-name="Path 27630" d="M211.452,440.21H62.233a1.816,1.816,0,0,1-1.816-1.816h0a1.816,1.816,0,0,1,1.816-1.816H211.452a1.816,1.816,0,0,1,1.816,1.816h0A1.816,1.816,0,0,1,211.452,440.21Z" fill="#545dbf"/>
        <path id="Path_27631" data-name="Path 27631" d="M211.452,458.347H62.233a1.816,1.816,0,0,1-1.816-1.816h0a1.816,1.816,0,0,1,1.816-1.816H211.452a1.816,1.816,0,0,1,1.816,1.816h0A1.816,1.816,0,0,1,211.452,458.347Z" fill="#545dbf"/>
        <rect id="Rectangle_6623" data-name="Rectangle 6623" width="18.595" height="15.547" transform="translate(62.914 439.169)" fill="#6d44e5"/>
        <rect id="Rectangle_6624" data-name="Rectangle 6624" width="18.595" height="15.547" transform="translate(127.844 439.169)" fill="#6d44e5"/>
        <rect id="Rectangle_6625" data-name="Rectangle 6625" width="18.595" height="15.547" transform="translate(192.774 439.169)" fill="#6d44e5"/>
        <g id="Group_26055" data-name="Group 26055">
          <g id="Group_26054" data-name="Group 26054">
            <path id="Path_27632" data-name="Path 27632" d="M62.5,441.122H211.452a.625.625,0,0,0,0-1.25H62.5a.625.625,0,0,0,0,1.25Z" fill="#26244a"/>
          </g>
        </g>
        <g id="Group_26057" data-name="Group 26057">
          <g id="Group_26056" data-name="Group 26056">
            <path id="Path_27633" data-name="Path 27633" d="M62.5,455.34H211.452a.625.625,0,0,0,0-1.25H62.5a.625.625,0,0,0,0,1.25Z" fill="#26244a"/>
          </g>
        </g>
        <g id="Group_26059" data-name="Group 26059">
          <g id="Group_26058" data-name="Group 26058">
            <path id="Path_27634" data-name="Path 27634" d="M69.9,326.023H208.266a.625.625,0,0,0,0-1.25H69.906a.625.625,0,0,0,0,1.25Z" fill="#26244a"/>
          </g>
        </g>
        <g id="Group_26061" data-name="Group 26061">
          <g id="Group_26060" data-name="Group 26060">
            <path id="Path_27635" data-name="Path 27635" d="M136.488,380.217V325.4a.625.625,0,0,0-1.25,0v54.819a.625.625,0,0,0,1.25,0Z" fill="#26244a"/>
          </g>
        </g>
      </g>
      <g id="Group_26101" data-name="Group 26101">
        <g id="Group_26064" data-name="Group 26064">
          <g id="Group_26063" data-name="Group 26063">
            <path id="Path_27636" data-name="Path 27636" d="M333.528,425c0,10.711-4.331,24.336-10.766,31.041-3,3.125-12.111,2.762-19.156,2.762-16.526,0-29.922-15.134-29.922-33.8s13.4-33.8,29.922-33.8c1.258,0,11.865-.164,13.081.007C331.461,393.269,333.528,407.751,333.528,425Z" fill="#26244a"/>
            <ellipse id="Ellipse_403" data-name="Ellipse 403" cx="29.922" cy="33.803" rx="29.922" ry="33.803" transform="translate(286.765 391.203)" fill="#6d44e5"/>
            <ellipse id="Ellipse_404" data-name="Ellipse 404" cx="13.081" cy="15.163" rx="13.081" ry="15.163" transform="translate(303.606 409.843)" fill="#b8c1ea"/>
          </g>
          <rect id="Rectangle_6626" data-name="Rectangle 6626" width="129.776" height="10.086" transform="translate(234.074 425.359)" fill="#26244a"/>
          <rect id="Rectangle_6627" data-name="Rectangle 6627" width="475.62" height="59.72" transform="translate(209.318 367.806)" fill="#26244a"/>
        </g>
        <g id="Group_26071" data-name="Group 26071">
          <g id="Group_26065" data-name="Group 26065">
            <path id="Path_27637" data-name="Path 27637" d="M665.019,425.482c0,10.711-4.331,24.336-10.766,31.041-3,3.125-12.112,2.762-19.156,2.762-16.526,0-29.922-15.134-29.922-33.8s13.4-33.8,29.922-33.8c1.258,0,11.865-.164,13.081.007C662.951,393.751,665.019,408.234,665.019,425.482Z" fill="#26244a"/>
            <ellipse id="Ellipse_405" data-name="Ellipse 405" cx="29.922" cy="33.803" rx="29.922" ry="33.803" transform="translate(618.256 391.685)" fill="#6d44e5"/>
            <ellipse id="Ellipse_406" data-name="Ellipse 406" cx="13.081" cy="15.163" rx="13.081" ry="15.163" transform="translate(635.097 410.325)" fill="#b8c1ea"/>
          </g>
          <path id="Path_27638" data-name="Path 27638" d="M697.14,337.306a18.153,18.153,0,0,0-15.416-12.33L639.6,320.224l-23.29-47.063a14.474,14.474,0,0,0-3.215-4.276c-4.162-3.8-12.873-3.183-16.078-3.2-10.706-.038-26.08-.072-26.08,0V419.93h34.818c4.664,0,7.411-11.858,8.21-15.895.038-.19.058-.3.069-.357s.027-.115.044-.191c3.173-13.891,7.451-15.875,9.849-18.5,5-5.471,14.237-7.135,20.97-7.135,29.111-1.666,34.79,23.252,34.79,23.252l2.524,14.042h15.787V342.9A18.67,18.67,0,0,0,697.14,337.306Z" fill="#85e6c4"/>
          <rect id="Rectangle_6628" data-name="Rectangle 6628" width="127.061" height="14.759" transform="translate(570.934 350.797)" fill="#6d44e5"/>
          <g id="Group_26067" data-name="Group 26067">
            <g id="Group_26066" data-name="Group 26066">
              <path id="Path_27639" data-name="Path 27639" d="M570.934,406.048h33.139a.632.632,0,0,0,.625-.625,40.926,40.926,0,0,1,1.612-11.7c2.108-7.733,6.449-14.921,13.391-19.194,5.312-3.27,11.522-4.537,17.7-4.645a.636.636,0,0,0,.625-.625q-.012-13.508-.025-27.015-.006-6.948-.013-13.895a5.733,5.733,0,0,0-.117-1.9,23.627,23.627,0,0,0-1.251-2.495q-7.341-14.643-14.683-29.285l-6.019-12c-.371-.739-.719-1.5-1.134-2.211a16.979,16.979,0,0,0-10.015-7.381c-4.6-1.37-9.694-.924-14.441-.924H573.183a.625.625,0,0,0,0,1.25c8.328,0,16.656-.016,24.984,0,6.587.013,13.114,2.8,16.163,8.887L619.4,292.39l15.061,30.038,1.963,3.915c.127.254.258.506.382.761-.152-.312-.039-.3-.067.09-.094,1.333,0,2.708,0,4.043q0,3.686.007,7.372.013,15.021.028,30.042c0,.2,0,.4,0,.6l.625-.625c-10.362.182-20.261,3.9-26.533,12.436-4.2,5.717-6.387,12.756-7.161,19.751a33.6,33.6,0,0,0-.258,4.606l.625-.625H570.935a.625.625,0,0,0,0,1.25Z" fill="#26244a"/>
            </g>
          </g>
          <g id="Group_26068" data-name="Group 26068">
            <path id="Path_27640" data-name="Path 27640" d="M574.112,318.683q.66-17.583,1.321-35.165c.063-1.683.205-3.554,1.383-4.7,1.115-1.079,2.784-1.14,4.3-1.14l13.488,0c3.807,0,7.794.043,11.146,1.941,3.316,1.877,5.706,5.192,7.6,8.613,6.909,12.471,10.949,21.119,16.18,31.872,1.909,3.926-.75,8.6-4.944,8.649-13.736.159-30.685,1.239-42.312.434-2.108-.146-4.377-.363-5.978-1.812C574.057,325.349,574,321.788,574.112,318.683Z" fill="#dadef1"/>
          </g>
          <path id="Path_27641" data-name="Path 27641" d="M624.1,308.854,600.45,329.115c-6.651.119-20.81,1.139-23.595-1.3l40-33.113Z" fill="#fff" opacity="0.5"/>
          <path id="Path_27642" data-name="Path 27642" d="M613.352,288.232l-39.274,33.259.281-9.373,35.218-29.354Z" fill="#fff" opacity="0.5"/>
          <path id="Path_27643" data-name="Path 27643" d="M625.69,328.823v-16.8L630,320.9a1.624,1.624,0,0,1,.163.711v5.578a1.63,1.63,0,0,1-1.63,1.63H625.69Z" fill="#26244a"/>
          <g id="Group_26070" data-name="Group 26070">
            <g id="Group_26069" data-name="Group 26069">
              <path id="Path_27644" data-name="Path 27644" d="M615.159,311.8c1.584,1.635,2.966,3.523,4.422,5.27q3.352,4.021,6.7,8.05l1.526,1.837c.514.62,1.394-.269.884-.884q-5.463-6.578-10.941-13.142c-.561-.67-1.1-1.387-1.705-2.016-.56-.578-1.444.307-.883.885Z" fill="#26244a"/>
            </g>
          </g>
          <path id="Path_27645" data-name="Path 27645" d="M609.309,308.735V322.5a2.9,2.9,0,0,0,2.714,3.061h4.705a2.9,2.9,0,0,0,2.714-3.061V308.962a2.923,2.923,0,0,0-2.6-3.059l-4.705-.227A2.886,2.886,0,0,0,609.309,308.735Z" fill="#6d44e5"/>
          <path id="Path_27646" data-name="Path 27646" d="M683.387,325.24s-2.239,10.977,2.184,13,12.029.854,12.029.854S695.953,326.432,683.387,325.24Z" fill="#6d44e5"/>
          <path id="Path_27647" data-name="Path 27647" d="M699.719,426.955h-16.9l-8.16-36.23h25.058A5.977,5.977,0,0,1,705.7,396.7v24.276A5.977,5.977,0,0,1,699.719,426.955Z" fill="#26244a"/>
          <path id="Path_27648" data-name="Path 27648" d="M697.995,383.764h-7.44a4.4,4.4,0,0,1-4.4-4.4h0a4.4,4.4,0,0,1,4.4-4.4h7.44Z" fill="#dadef1"/>
        </g>
        <g id="Group_26100" data-name="Group 26100">
          <rect id="Rectangle_6629" data-name="Rectangle 6629" width="100.279" height="195.878" transform="translate(186.269 227.069)" fill="#b8c1ea"/>
          <path id="Path_27649" data-name="Path 27649" d="M286.548,418.121v-191h273.31a12.486,12.486,0,0,1,12.486,12.486V418.121H439.822v-4.357a34.787,34.787,0,0,0-34.787-34.787H384.084c-13.944,0-22.094,9.339-23.762,23.183l-5.39,15.96H286.548Z" fill="#dadef1"/>
          <rect id="Rectangle_6630" data-name="Rectangle 6630" width="84.178" height="61.518" transform="translate(194.963 241.752)" fill="#545dbf"/>
          <rect id="Rectangle_6631" data-name="Rectangle 6631" width="84.178" height="107.654" transform="translate(194.963 303.27)" fill="#545dbf"/>
          <path id="Path_27650" data-name="Path 27650" d="M279.142,332.071l-84.179-28.8h84.179Z" fill="#26244a"/>
          <g id="Group_26072" data-name="Group 26072">
            <path id="Path_27651" data-name="Path 27651" d="M285.011,402.111a1.79,1.79,0,1,1-1.79-1.79A1.789,1.789,0,0,1,285.011,402.111Z" fill="#f2a441"/>
            <path id="Path_27652" data-name="Path 27652" d="M285.011,407.412a1.79,1.79,0,1,1-1.79-1.79A1.789,1.789,0,0,1,285.011,407.412Z" fill="#f2a441"/>
            <path id="Path_27653" data-name="Path 27653" d="M285.011,412.713a1.79,1.79,0,1,1-1.79-1.79A1.789,1.789,0,0,1,285.011,412.713Z" fill="#f2a441"/>
          </g>
          <g id="Group_26073" data-name="Group 26073">
            <path id="Path_27654" data-name="Path 27654" d="M192.2,402.111a1.79,1.79,0,1,1-1.79-1.79A1.789,1.789,0,0,1,192.2,402.111Z" fill="#f2a441"/>
            <path id="Path_27655" data-name="Path 27655" d="M192.2,407.412a1.79,1.79,0,1,1-1.79-1.79A1.789,1.789,0,0,1,192.2,407.412Z" fill="#f2a441"/>
            <path id="Path_27656" data-name="Path 27656" d="M192.2,412.713a1.79,1.79,0,1,1-1.79-1.79A1.789,1.789,0,0,1,192.2,412.713Z" fill="#f2a441"/>
          </g>
          <g id="Group_26075" data-name="Group 26075">
            <g id="Group_26074" data-name="Group 26074">
              <path id="Path_27657" data-name="Path 27657" d="M195.718,290.488h83.045a.625.625,0,0,0,0-1.25H195.718a.625.625,0,0,0,0,1.25Z" fill="#26244a"/>
            </g>
          </g>
          <g id="Group_26077" data-name="Group 26077">
            <g id="Group_26076" data-name="Group 26076">
              <path id="Path_27658" data-name="Path 27658" d="M195.718,276.247h83.045a.625.625,0,0,0,0-1.25H195.718a.625.625,0,0,0,0,1.25Z" fill="#26244a"/>
            </g>
          </g>
          <g id="Group_26079" data-name="Group 26079">
            <g id="Group_26078" data-name="Group 26078">
              <path id="Path_27659" data-name="Path 27659" d="M195.718,262.007h83.045a.625.625,0,0,0,0-1.25H195.718a.625.625,0,0,0,0,1.25Z" fill="#26244a"/>
            </g>
          </g>
          <g id="Group_26081" data-name="Group 26081">
            <g id="Group_26080" data-name="Group 26080">
              <path id="Path_27660" data-name="Path 27660" d="M195.342,248.726h83.045a.625.625,0,0,0,0-1.25H195.342a.625.625,0,0,0,0,1.25Z" fill="#26244a"/>
            </g>
          </g>
          <rect id="Rectangle_6632" data-name="Rectangle 6632" width="87.039" height="5.982" transform="translate(192.102 410.923)" fill="#dadef1"/>
          <g id="Group_26082" data-name="Group 26082">
            <path id="Path_27661" data-name="Path 27661" d="M420.765,424.424c0,10.711-4.331,24.336-10.766,31.041-3,3.125-12.112,2.762-19.156,2.762-16.526,0-29.923-15.134-29.923-33.8s13.4-33.8,29.923-33.8c1.257,0,11.865-.164,13.081.007C418.7,392.694,420.765,407.176,420.765,424.424Z" fill="#26244a"/>
            <ellipse id="Ellipse_407" data-name="Ellipse 407" cx="29.922" cy="33.803" rx="29.922" ry="33.803" transform="translate(374.002 390.628)" fill="#6d44e5"/>
            <ellipse id="Ellipse_408" data-name="Ellipse 408" cx="13.081" cy="15.163" rx="13.081" ry="15.163" transform="translate(390.843 409.268)" fill="#b8c1ea"/>
          </g>
          <g id="Group_26086" data-name="Group 26086">
            <g id="Group_26083" data-name="Group 26083">
              <path id="Path_27662" data-name="Path 27662" d="M270.648,410.855H202.169a2.186,2.186,0,0,1-2.186-2.186V359.325a3.577,3.577,0,0,1,3.577-3.577h67.088a2.186,2.186,0,0,1,2.186,2.186v50.735A2.185,2.185,0,0,1,270.648,410.855Z" fill="#85e6c4"/>
            </g>
            <g id="Group_26085" data-name="Group 26085">
              <g id="Group_26084" data-name="Group 26084">
                <path id="Path_27663" data-name="Path 27663" d="M248.706,356.09v54.834a.625.625,0,0,0,1.25,0V356.09a.625.625,0,0,0-1.25,0Z" fill="#26244a"/>
              </g>
            </g>
            <rect id="Rectangle_6633" data-name="Rectangle 6633" width="10.143" height="10.143" transform="translate(219.262 355.747)" fill="#dadef1"/>
            <rect id="Rectangle_6634" data-name="Rectangle 6634" width="10.143" height="10.143" transform="translate(257.588 400.712)" fill="#dadef1"/>
          </g>
          <path id="Path_27664" data-name="Path 27664" d="M244.217,298.2H230.264a1.631,1.631,0,0,1-1.631-1.631h0a1.631,1.631,0,0,1,1.631-1.631h13.953a1.631,1.631,0,0,1,1.631,1.631h0A1.631,1.631,0,0,1,244.217,298.2Z" fill="#26244a"/>
          <g id="Group_26088" data-name="Group 26088">
            <g id="Group_26087" data-name="Group 26087">
              <path id="Path_27665" data-name="Path 27665" d="M287.42,298.822c14.944.263,27.488-9.757,37.356-19.986,11.073-11.477,19.5-25.206,30.7-36.583,6.011-6.1,12.878-11.586,20.99-14.582.748-.276.425-1.485-.332-1.205-13.972,5.16-24.223,17.021-33.261,28.353-9.949,12.473-19.249,25.568-32.473,34.865-6.808,4.787-14.548,8.036-22.982,7.888a.625.625,0,0,0,0,1.25Z" fill="#fff"/>
            </g>
          </g>
          <g id="Group_26090" data-name="Group 26090">
            <g id="Group_26089" data-name="Group 26089">
              <path id="Path_27666" data-name="Path 27666" d="M404.8,228.184c-12.525,10.752-24.677,21.947-36.22,33.75A410.192,410.192,0,0,0,336.3,298.969q-7.52,9.8-14.32,20.126c-4.423,6.737-8.71,13.7-11.312,21.376-2.279,6.719-3.1,13.895-1.365,20.836,1.5,5.976,4.787,11.667,9.911,15.227,6.121,4.252,14.011,4.491,20.948,2.3,7.532-2.378,13.783-7.459,19.349-12.9,12.031-11.768,22.945-24.612,35.43-35.931,12.14-11.006,25.772-20.728,41.317-26.265a75.075,75.075,0,0,1,23.416-4.535c6.329-.141,13.807.95,18.162,6.042,5.386,6.3,2.656,15.184-.87,21.657-3.784,6.944-8.883,13.3-14.121,19.2-10.6,11.923-22.96,22.112-35.545,31.848q-4.754,3.678-9.55,7.3c-.632.48-.01,1.566.631,1.079,12.629-9.594,25.292-19.24,36.682-30.311a156.1,156.1,0,0,0,15.759-17.667c4.549-6.013,9.271-12.628,10.845-20.143,1.392-6.642-.657-13.318-6.645-16.927-5.712-3.443-12.852-3.648-19.309-3.111-15.772,1.312-30.666,7.877-43.673,16.656-13.893,9.377-25.764,21.357-37.28,33.442-5.744,6.028-11.335,12.251-17.378,17.983-5.91,5.606-12.7,10.625-20.853,12.227-7.5,1.473-15.154-.472-20.3-6.267-4.4-4.957-6.545-11.766-6.64-18.325-.118-8.06,2.888-15.887,6.638-22.892a198.509,198.509,0,0,1,13.3-20.743,379.685,379.685,0,0,1,31.56-38.631c11.225-12.105,23.124-23.575,35.45-34.552q4.537-4.041,9.152-8c.612-.523-.276-1.4-.883-.883Z" fill="#fff"/>
            </g>
          </g>
          <g id="Group_26092" data-name="Group 26092">
            <g id="Group_26091" data-name="Group 26091">
              <path id="Path_27667" data-name="Path 27667" d="M451.59,415.044A100.728,100.728,0,0,1,510.9,369.58c5.426-1.573,10.926-2.908,16.266-4.766a54.074,54.074,0,0,0,14.4-7.257,54.708,54.708,0,0,0,10.746-10.651c3.868-4.995,6.87-10.533,9.9-16.057,3.27-5.961,6.462-11.966,9.822-17.877a.625.625,0,0,0-1.079-.631c-2.967,5.22-5.8,10.513-8.678,15.784a166.1,166.1,0,0,1-8.726,14.982,58.022,58.022,0,0,1-10.675,11.855,49.947,49.947,0,0,1-14.816,8.21C518,366.848,507.418,368.7,497.568,373a101.789,101.789,0,0,0-24.989,15.635,107.068,107.068,0,0,0-22.068,25.778c-.422.689.659,1.317,1.079.632Z" fill="#fff"/>
            </g>
          </g>
          <g id="Group_26094" data-name="Group 26094">
            <g id="Group_26093" data-name="Group 26093">
              <path id="Path_27668" data-name="Path 27668" d="M450.721,228.374c-8.226,7.73-18.213,18.177-14.5,30.6,1.624,5.439,6.11,9.221,10.97,11.787a54.853,54.853,0,0,0,17.221,5.522c12.783,1.978,25.747.234,38.285-2.477,13.577-2.936,27.051-7.2,40.936-8.462,6.524-.592,14.622-.441,19.852,4.112,4.423,3.849,5.823,10.154,7.407,15.537a.625.625,0,0,0,1.205-.332c-1.384-4.7-2.619-9.8-5.613-13.784-3.118-4.153-8.086-6.013-13.1-6.691-6.242-.846-12.6.089-18.757,1.168-6.767,1.187-13.447,2.806-20.123,4.418-12.846,3.1-25.827,6.2-39.126,6.116a66.524,66.524,0,0,1-18.62-2.6c-5.629-1.681-11.605-4.211-15.724-8.543-4.947-5.2-5.187-12.623-2.607-19.032,2.669-6.628,8.078-11.67,13.177-16.461.59-.553-.3-1.436-.882-.885Z" fill="#fff"/>
            </g>
          </g>
          <g id="Group_26096" data-name="Group 26096">
            <g id="Group_26095" data-name="Group 26095">
              <path id="Path_27669" data-name="Path 27669" d="M286.931,392.04a108.315,108.315,0,0,1,17.01-3.688,45.11,45.11,0,0,1,15.728.3,24.83,24.83,0,0,1,12.517,6.662,61.674,61.674,0,0,1,7.555,10.166,86.119,86.119,0,0,1,6.328,11.739c.315.737,1.393.1,1.079-.631a84.722,84.722,0,0,0-5.855-10.976,70,70,0,0,0-7.642-10.558c-6.949-7.631-17.692-9.171-27.487-8.2a105.908,105.908,0,0,0-19.566,3.985.625.625,0,0,0,.333,1.2Z" fill="#fff"/>
            </g>
          </g>
          <g id="Group_26098" data-name="Group 26098">
            <g id="Group_26097" data-name="Group 26097">
              <path id="Path_27670" data-name="Path 27670" d="M490.931,420.534a89.687,89.687,0,0,1,46.079-23.489c5.752-1.035,11.6-1.426,17.39-2.191,6.224-.822,12.478-1.949,18.259-4.485.735-.322.1-1.4-.631-1.079-10.863,4.766-23.04,4.445-34.538,6.408a90.829,90.829,0,0,0-47.442,23.953c-.583.557.3,1.44.883.883Z" fill="#fff"/>
            </g>
          </g>
          <g id="Group_26099" data-name="Group 26099">
            <path id="Path_27671" data-name="Path 27671" d="M183.752,424.611c7.5-.237,15.043-.019,22.548.017q22.3.108,44.594.272,23.85.162,47.7.336,16.248.115,32.5.213a71.444,71.444,0,0,0,14.608-1.005c6.564-1.328,12.448-4.694,16.031-10.472,3-4.84,4.013-10.977,6.208-15.855,2.265-5.034,5.523-9.429,10.782-11.607,6-2.485,12.928-2.343,19.3-2.424s13.212-.046,19.038,2.915a23.223,23.223,0,0,1,6.639,4.948,25.409,25.409,0,0,1,4.225,7.125c.028.063.373.856.12.259q.125.3.243.593c.169.425.336.85.495,1.279.385,1.038.735,2.088,1.093,3.135.495,1.443.982,2.876,1.575,4.28a31.315,31.315,0,0,0,6.033,9.513,16.3,16.3,0,0,0,11.814,5.332c1.274.006,2.548-.017,3.822-.026q18.121-.123,36.243-.252l47.893-.336,30.409-.214,1.534-.011c5.861-.041,5.874-9.153,0-9.111l-21.915.154-46.354.325-41.586.29c-3.361.023-6.725.087-10.087.069-.1,0-.189,0-.284,0-.218,0-.434-.015-.651-.021-.729-.02.647.161-.047,0-.472-.111-.929-.233-1.388-.388.788.266-.668-.366-.918-.52-.219-.134-1.208-.877-.563-.35a15.724,15.724,0,0,1-1.2-1.094c-.333-.334-.64-.688-.956-1.037-.134-.148-.258-.3-.384-.459.617.75-.168-.236-.232-.327a29.537,29.537,0,0,1-2.528-4.347c-.138-.29-.26-.59-.4-.878-.333-.672.4,1.128.144.342-.091-.285-.217-.571-.319-.853-1.787-4.936-3.269-10.172-6.093-14.647a31.315,31.315,0,0,0-15.118-12.125c-6.6-2.634-13.976-2.774-20.988-2.665-6.861.107-14.126.194-20.64,2.6a28.48,28.48,0,0,0-14.706,12.26c-3.124,5.185-4.313,11-6.577,16.535a15,15,0,0,1-4.228,6.066,17.714,17.714,0,0,1-7.3,3.085,43.188,43.188,0,0,1-9.359.819c-8.608,0-17.217-.094-25.825-.153q-22.932-.159-45.864-.324-23.55-.165-47.1-.3c-9.837-.055-19.676-.145-29.513-.1-.823,0-1.646,0-2.469.03-5.844.183-5.87,9.295,0,9.11Z" fill="#b8c1ea"/>
          </g>
        </g>
      </g>
      <path id="Path_27672" data-name="Path 27672" d="M642.212,283.339a4.238,4.238,0,1,1-4.238-4.238A4.239,4.239,0,0,1,642.212,283.339Z" fill="#dadef1"/>
      <path id="Path_27673" data-name="Path 27673" d="M512.585,165.316a4.239,4.239,0,1,1-4.239-4.239A4.238,4.238,0,0,1,512.585,165.316Z" fill="#dadef1"/>
      <g id="Group_26115" data-name="Group 26115">
        <g id="Group_26108" data-name="Group 26108">
          <g id="Group_26107" data-name="Group 26107">
            <path id="Path_27674" data-name="Path 27674" d="M672.5,234.413l-76-.148a8.042,8.042,0,0,1-8.026-8.057l.286-146.628a8.042,8.042,0,0,1,8.057-8.026l76,.148a8.042,8.042,0,0,1,8.026,8.057l-.286,146.628A8.04,8.04,0,0,1,672.5,234.413Z" fill="#26244a"/>
            <rect id="Rectangle_6635" data-name="Rectangle 6635" width="83.854" height="122.733" transform="matrix(1, 0.002, -0.002, 1, 592.693, 86.246)" fill="#fff"/>
            <path id="Path_27675" data-name="Path 27675" d="M645.33,80.523l-21.063-.244a.838.838,0,0,1-.828-.847l0-.184a.838.838,0,0,1,.848-.828l21.063.244a.838.838,0,0,1,.828.848l0,.184A.84.84,0,0,1,645.33,80.523Z" fill="#545dbf"/>
            <g id="Group_26102" data-name="Group 26102">
              <path id="Path_27676" data-name="Path 27676" d="M643.244,220.916a7.926,7.926,0,1,1-7.833-8.017A7.927,7.927,0,0,1,643.244,220.916Z" fill="#545dbf"/>
            </g>
            <g id="Group_26106" data-name="Group 26106">
              <g id="Group_26103" data-name="Group 26103">
                <path id="Path_27677" data-name="Path 27677" d="M663.844,173.128l-56.177-.109a2.185,2.185,0,0,1-2.182-2.191l.078-40.039a3.577,3.577,0,0,1,3.584-3.57l54.786.107a2.187,2.187,0,0,1,2.182,2.191l-.081,41.43A2.184,2.184,0,0,1,663.844,173.128Z" fill="#6d44e5"/>
              </g>
              <g id="Group_26105" data-name="Group 26105">
                <g id="Group_26104" data-name="Group 26104">
                  <path id="Path_27678" data-name="Path 27678" d="M645.959,127.577q-.045,22.787-.089,45.574a.625.625,0,0,0,1.25,0q.045-22.786.089-45.574a.625.625,0,0,0-1.25,0Z" fill="#26244a"/>
                </g>
              </g>
              <rect id="Rectangle_6636" data-name="Rectangle 6636" width="8.43" height="8.43" transform="translate(621.589 127.27) rotate(0.115)" fill="#dadef1"/>
              <rect id="Rectangle_6637" data-name="Rectangle 6637" width="8.43" height="8.43" transform="matrix(1, 0.002, -0.002, 1, 653.384, 164.648)" fill="#dadef1"/>
            </g>
          </g>
        </g>
        <circle id="Ellipse_409" data-name="Ellipse 409" cx="21.11" cy="21.11" r="21.11" transform="translate(614.209 186.784) rotate(-81.842)" fill="#85e6c4"/>
        <g id="Group_26110" data-name="Group 26110">
          <g id="Group_26109" data-name="Group 26109">
            <path id="Path_27679" data-name="Path 27679" d="M627.9,169.741l6.174,6.873a2.52,2.52,0,0,0,3.535,0l9.456-10.257,1.335-1.449a2.553,2.553,0,0,0,0-3.536,2.527,2.527,0,0,0-3.535,0l-9.456,10.257-1.335,1.449h3.535l-6.174-6.873a2.5,2.5,0,1,0-3.535,3.536Z" fill="#fff"/>
          </g>
        </g>
        <g id="Group_26112" data-name="Group 26112">
          <g id="Group_26111" data-name="Group 26111">
            <path id="Path_27680" data-name="Path 27680" d="M609.755,112.67h53.484a.625.625,0,0,0,0-1.25H609.755a.625.625,0,0,0,0,1.25Z" fill="#26244a"/>
          </g>
        </g>
        <g id="Group_26114" data-name="Group 26114">
          <g id="Group_26113" data-name="Group 26113">
            <path id="Path_27681" data-name="Path 27681" d="M628.114,106.529h16.767a.625.625,0,0,0,0-1.25H628.114a.625.625,0,0,0,0,1.25Z" fill="#26244a"/>
          </g>
        </g>
      </g>
      <path id="Path_27682" data-name="Path 27682" d="M249.476,115.011a10.876,10.876,0,0,0-1.172,13.4,11.413,11.413,0,0,0,5.264,4.419,9.107,9.107,0,0,0,1.556.452l10.063,2.167a2.5,2.5,0,0,0,3.03-2.5l-.167-7.342c-.015-.693-.078-2.023-.156-3.211a11.109,11.109,0,0,0-2.307-6.219l-.032-.04A10.773,10.773,0,0,0,249.476,115.011Zm11.36,10.519a4.686,4.686,0,1,1,.419-4.828A4.606,4.606,0,0,1,260.836,125.53Z" fill="#dadef1"/>
      <path id="Path_27683" data-name="Path 27683" d="M674.81,265.576A14.073,14.073,0,0,0,662.72,278.1a14.771,14.771,0,0,0,1.7,8.731,11.836,11.836,0,0,0,1.2,1.722l8.354,10.374a3.24,3.24,0,0,0,5.087-.051l5.81-7.518c.549-.709,1.569-2.1,2.459-3.356a14.364,14.364,0,0,0,2.744-8.133V279.8C690.082,271.373,683.089,264.639,674.81,265.576Zm2.857,19.827a6.063,6.063,0,1,1,4.354-4.514A5.96,5.96,0,0,1,677.667,285.4Z" fill="#dadef1"/>
      <g id="Group_26124" data-name="Group 26124">
        <g id="Group_26116" data-name="Group 26116">
          <path id="Path_27684" data-name="Path 27684" d="M719.157,119.007c2-2.68.563-6.966-2.429-8.463s-6.814-.513-9.266,1.764c2.193-2.325,1.044-6.557-1.719-8.162s-6.382-1-9.1.684-4.73,4.269-6.681,6.8a3.668,3.668,0,0,0-3.486-3.54,6.233,6.233,0,0,0-4.771,2.336,30.652,30.652,0,0,0-5.44,8.967Z" fill="#b8c1ea"/>
        </g>
        <g id="Group_26117" data-name="Group 26117">
          <path id="Path_27685" data-name="Path 27685" d="M527.37,87.178c2-2.68.563-6.966-2.429-8.463s-6.814-.513-9.266,1.764c2.193-2.325,1.044-6.557-1.719-8.162s-6.382-1-9.1.684-4.73,4.269-6.681,6.8a3.667,3.667,0,0,0-3.486-3.54,6.235,6.235,0,0,0-4.771,2.335,30.652,30.652,0,0,0-5.44,8.967Z" fill="#dadef1"/>
        </g>
        <g id="Group_26118" data-name="Group 26118">
          <path id="Path_27686" data-name="Path 27686" d="M156.88,62.071c2-2.68.563-6.966-2.429-8.463s-6.814-.513-9.266,1.764c2.193-2.325,1.044-6.557-1.719-8.162s-6.382-1-9.1.685-4.73,4.269-6.681,6.8a3.667,3.667,0,0,0-3.486-3.54,6.233,6.233,0,0,0-4.771,2.336,30.652,30.652,0,0,0-5.44,8.967Z" fill="#f5f5f5"/>
        </g>
        <g id="Group_26119" data-name="Group 26119">
          <path id="Path_27687" data-name="Path 27687" d="M622.033,55.349c2-2.68.563-6.966-2.429-8.463s-6.814-.514-9.266,1.764c2.193-2.325,1.044-6.557-1.719-8.163s-6.382-1-9.1.684-4.73,4.269-6.681,6.8a3.668,3.668,0,0,0-3.486-3.54,6.235,6.235,0,0,0-4.771,2.335,30.664,30.664,0,0,0-5.44,8.967Z" fill="#f5f5f5"/>
        </g>
        <g id="Group_26120" data-name="Group 26120">
          <path id="Path_27688" data-name="Path 27688" d="M441.716,57.038c2-2.68.563-6.966-2.429-8.463s-6.814-.513-9.266,1.764c2.193-2.325,1.044-6.557-1.719-8.162s-6.382-1-9.1.684-4.73,4.269-6.681,6.8a3.667,3.667,0,0,0-3.486-3.54,6.233,6.233,0,0,0-4.771,2.336,30.629,30.629,0,0,0-5.44,8.967Z" fill="#f5f5f5"/>
        </g>
        <g id="Group_26121" data-name="Group 26121">
          <path id="Path_27689" data-name="Path 27689" d="M545.619,212.028c2-2.68.563-6.966-2.429-8.463s-6.814-.513-9.266,1.764c2.193-2.325,1.044-6.557-1.719-8.162s-6.382-1-9.1.684-4.73,4.269-6.681,6.8a3.667,3.667,0,0,0-3.486-3.54,6.233,6.233,0,0,0-4.771,2.336,30.652,30.652,0,0,0-5.44,8.967Z" fill="#f5f5f5"/>
        </g>
        <g id="Group_26122" data-name="Group 26122">
          <path id="Path_27690" data-name="Path 27690" d="M267.4,80.353c2-2.68.563-6.966-2.429-8.463s-6.814-.513-9.266,1.764c2.193-2.325,1.044-6.557-1.719-8.162s-6.382-1-9.1.684-4.73,4.269-6.681,6.8a3.667,3.667,0,0,0-3.486-3.54,6.233,6.233,0,0,0-4.771,2.336,30.652,30.652,0,0,0-5.44,8.967Z" fill="#b8c1ea"/>
        </g>
        <g id="Group_26123" data-name="Group 26123">
          <path id="Path_27691" data-name="Path 27691" d="M79.578,122.326c2-2.68.563-6.966-2.429-8.463s-6.814-.513-9.266,1.764c2.193-2.325,1.044-6.557-1.719-8.162s-6.382-1-9.1.685-4.73,4.269-6.681,6.8a3.667,3.667,0,0,0-3.486-3.54,6.233,6.233,0,0,0-4.771,2.336,30.652,30.652,0,0,0-5.44,8.967Z" fill="#b8c1ea"/>
        </g>
      </g>
      <path id="Path_27692" data-name="Path 27692" d="M330.877,43.643C321.955,47.116,316.513,56.858,318,66.7a22.416,22.416,0,0,0,5.875,12.153A17.971,17.971,0,0,0,326.3,80.92L342.579,92.9a4.917,4.917,0,0,0,7.444-2.049l5.608-13.286c.531-1.253,1.489-3.687,2.3-5.878a21.8,21.8,0,0,0,.87-13c-.008-.033-.017-.066-.026-.1C355.535,46.222,342.661,39.055,330.877,43.643Zm11.887,27.983c-5.86,3.076-12.78-1.156-13.1-8.013A8.958,8.958,0,0,1,334.3,55.3c5.861-3.077,12.781,1.156,13.1,8.013A8.96,8.96,0,0,1,342.764,71.626Z" fill="#6d44e5"/>
      <g id="Group_26133" data-name="Group 26133">
        <g id="Group_26128" data-name="Group 26128">
          <g id="Group_26125" data-name="Group 26125">
            <path id="Path_27693" data-name="Path 27693" d="M526.449,390.929H481.767a2.186,2.186,0,0,1-2.186-2.186V357.4a3.577,3.577,0,0,1,3.577-3.577h43.291a2.186,2.186,0,0,1,2.186,2.186v32.734A2.186,2.186,0,0,1,526.449,390.929Z" fill="#6d44e5"/>
          </g>
          <g id="Group_26127" data-name="Group 26127">
            <g id="Group_26126" data-name="Group 26126">
              <path id="Path_27694" data-name="Path 27694" d="M512.184,354.053v36.922a.625.625,0,0,0,1.25,0V354.053a.625.625,0,0,0-1.25,0Z" fill="#26244a"/>
            </g>
          </g>
          <rect id="Rectangle_6638" data-name="Rectangle 6638" width="6.83" height="6.83" transform="translate(492.562 353.822)" fill="#dadef1"/>
          <rect id="Rectangle_6639" data-name="Rectangle 6639" width="6.83" height="6.83" transform="translate(518.369 384.099)" fill="#dadef1"/>
          <path id="Path_27695" data-name="Path 27695" d="M479.622,390.35l-.041-35.1a1.533,1.533,0,0,1,1.533-1.533l47.522.106" fill="rgba(0,0,0,0)" stroke="#26244a" stroke-miterlimit="10" stroke-width="1"/>
        </g>
        <g id="Group_26132" data-name="Group 26132">
          <g id="Group_26129" data-name="Group 26129">
            <path id="Path_27696" data-name="Path 27696" d="M548.6,458.611H464.173a2.186,2.186,0,0,1-2.186-2.186V395.016a3.577,3.577,0,0,1,3.577-3.577H548.6a2.186,2.186,0,0,1,2.186,2.186v62.8A2.185,2.185,0,0,1,548.6,458.611Z" fill="#85e6c4"/>
          </g>
          <g id="Group_26131" data-name="Group 26131">
            <g id="Group_26130" data-name="Group 26130">
              <path id="Path_27697" data-name="Path 27697" d="M521.514,391.856v66.839a.625.625,0,0,0,1.25,0V391.856a.625.625,0,0,0-1.25,0Z" fill="#26244a"/>
            </g>
          </g>
          <rect id="Rectangle_6640" data-name="Rectangle 6640" width="12.363" height="12.363" transform="translate(485.487 391.438)" fill="#dadef1"/>
          <rect id="Rectangle_6641" data-name="Rectangle 6641" width="12.363" height="12.363" transform="translate(532.204 446.247)" fill="#dadef1"/>
          <path id="Path_27698" data-name="Path 27698" d="M462.062,457.563l-.075-63.542a2.774,2.774,0,0,1,2.775-2.775l86.027.192" fill="rgba(0,0,0,0)" stroke="#26244a" stroke-miterlimit="10" stroke-width="1"/>
        </g>
      </g>
      <g id="Group_26135" data-name="Group 26135">
        <g id="Group_26134" data-name="Group 26134">
          <path id="Path_27699" data-name="Path 27699" d="M36.657,459.591H713.344a.625.625,0,0,0,0-1.25H36.658a.625.625,0,0,0,0,1.25Z" fill="#26244a"/>
        </g>
      </g>
    </g>
  </g>
</svg>
