<svg width="52" height="52" viewBox="0 0 52 52" fill="none" xmlns="http://www.w3.org/2000/svg">
<path d="M39.6501 19.7167C39.6501 21.8834 39.0001 24.05 38.1334 25.7834C44.4168 25.1334 49.4001 19.9334 49.4001 13.4334C49.4001 6.50003 43.7668 0.866699 36.8334 0.866699C32.0668 0.866699 27.9501 3.4667 25.7834 7.3667C26.2168 7.3667 26.6501 7.3667 27.0834 7.3667C34.2334 7.3667 39.6501 13 39.6501 19.7167Z" fill="#18253E"/>
<path d="M24.4834 8.66675C24.0501 8.66675 23.6167 8.66675 23.1834 8.66675C16.9001 9.31675 11.9167 14.7334 11.9167 21.2334C11.9167 28.1667 17.5501 33.8001 24.4834 33.8001C29.2501 33.8001 33.3667 31.2001 35.5334 27.3001C36.6167 25.5667 37.0501 23.4001 37.0501 21.2334C37.0501 14.3001 31.4167 8.66675 24.4834 8.66675Z" fill="#33EEB1"/>
<path d="M25.9999 18.6334C24.2666 18.6334 22.3166 18.6334 20.5832 18.6334C20.3666 18.6334 20.1499 18.6334 20.1499 18.6334C19.4999 18.6334 19.2832 18.4167 19.2832 17.9834C19.2832 17.55 19.4999 17.1167 20.1499 17.1167C20.5832 17.1167 21.0166 17.1167 21.2332 17.1167C22.7499 17.1167 24.4832 17.1167 25.9999 17.1167C25.9999 16.9 25.7832 16.6833 25.7832 16.4667C25.1332 15.3833 24.2666 14.7334 22.9666 14.7334C21.8832 14.7334 21.0166 14.7334 19.9332 14.7334C19.9332 14.95 19.4999 14.7333 19.4999 14.5167C19.0666 14.0833 19.4999 13.4333 20.1499 13.4333C21.0166 13.4333 21.6666 13.4333 22.5332 13.4333C24.4832 13.4333 26.6499 13.4333 28.5999 13.4333C28.8166 13.4333 28.8166 13.4333 29.0332 13.4333C29.4666 13.4333 29.8999 13.65 29.8999 14.0834C29.8999 14.5167 29.6832 14.95 29.0332 14.95C28.3832 14.95 27.9499 14.95 27.2999 14.95C27.0832 14.95 26.8666 14.95 26.8666 14.95C27.2999 15.6 27.5166 16.4667 27.9499 17.1167C28.1666 17.1167 28.5999 17.1167 29.0332 17.1167C29.6832 17.1167 29.8999 17.3334 29.8999 17.9834C29.8999 18.4167 29.4666 18.6334 29.0332 18.6334C28.5999 18.6334 28.1666 18.6334 27.9499 18.6334C27.0832 21.45 25.1332 22.5334 22.3166 22.3167C22.5332 22.5334 22.5332 22.75 22.7499 22.75C24.2666 24.2667 25.7832 25.7834 27.5166 27.3C27.7332 27.5167 27.7332 27.5167 27.9499 27.7334C28.1666 28.1667 28.1666 28.3834 27.9499 28.8167C27.7332 29.0334 27.2999 29.0334 26.8666 28.8167C26.6499 28.8167 26.6499 28.6 26.6499 28.6C24.4832 26.65 22.5332 24.4833 20.3666 22.5333C19.4999 22.1 19.0666 21.8833 19.2832 21.45C19.4999 21.0167 19.9332 21.0167 20.3666 21.0167C21.2332 21.0167 22.3166 21.0167 23.1832 21.0167C24.6999 21.0167 25.7832 19.9334 25.9999 18.6334Z" fill="white"/>
<path d="M25.9999 40.9499C22.5332 40.9499 19.0666 40.9499 15.5999 40.9499C14.9499 40.9499 14.2999 41.1666 13.8666 41.5999C11.0499 44.4166 8.01657 47.2332 5.1999 50.0499C4.33324 51.3499 3.2499 51.7832 2.16657 51.1332C1.08324 50.6999 0.649902 49.6166 0.649902 48.3166C0.649902 45.9332 0.649902 43.7666 0.649902 41.3832C0.649902 40.5166 1.08324 39.6499 1.73324 38.9999C4.98324 35.7499 8.23324 32.4999 11.4832 29.2499C12.1332 28.5999 13.2166 28.1666 14.0832 28.1666C19.9332 28.1666 25.9999 28.1666 31.8499 28.1666C33.5832 28.1666 34.6666 29.0332 34.8832 30.5499C34.8832 32.0666 33.7999 32.9332 31.8499 32.9332C29.6832 32.9332 27.5166 32.9332 25.3499 32.9332C24.9166 32.9332 24.6999 33.3666 24.2666 33.5832C24.6999 33.7999 24.9166 34.2332 25.3499 34.2332C29.2499 34.2332 33.1499 34.2332 37.2666 34.2332C37.6999 34.2332 38.3499 33.7999 38.5666 33.5832C41.1666 31.1999 43.5499 28.5999 45.9332 26.2166C47.2332 24.9166 48.7499 24.9166 49.6166 25.9999C50.6999 27.0832 50.4832 28.3832 49.1832 29.6832C45.9332 32.9332 42.4666 36.3999 39.2166 39.6499C38.5666 40.2999 37.4832 40.7332 36.6166 40.7332C32.9332 41.1666 29.4666 40.9499 25.9999 40.9499Z" fill="url(#paint0_linear_94_415)"/>
<defs>
<linearGradient id="paint0_linear_94_415" x1="16.6533" y1="4.1038" x2="30.5263" y2="58.2083" gradientUnits="userSpaceOnUse">
<stop stop-color="#FFF5E9"/>
<stop offset="0.6046" stop-color="#7D95E6"/>
<stop offset="0.9986" stop-color="#3F28DD"/>
</linearGradient>
</defs>
</svg>
