<svg xmlns="http://www.w3.org/2000/svg" xmlns:xlink="http://www.w3.org/1999/xlink" width="41.586" height="41.424" viewBox="0 0 41.586 41.424">
  <defs>
    <linearGradient id="linear-gradient" x1="0.525" y1="-0.145" x2="0.5" y2="1.235" gradientUnits="objectBoundingBox">
      <stop offset="0" stop-color="#fff5e8"/>
      <stop offset="1" stop-color="#3e16e1"/>
    </linearGradient>
  </defs>
  <g id="pos" transform="translate(0 -1)">
    <path id="Path_1107" data-name="Path 1107" d="M95,95h10.559v7.96H95Z" transform="translate(-87.284 -86.365)" fill="#091b49"/>
    <path id="Path_1108" data-name="Path 1108" d="M349.018,230.2h13.238v-1.543A3.659,3.659,0,0,0,358.6,225h-9.583Z" transform="translate(-320.67 -205.806)" fill="#1eefb0"/>
    <path id="Path_1109" data-name="Path 1109" d="M349.018,319v10.4H358.6a3.659,3.659,0,0,0,3.655-3.655V319Z" transform="translate(-320.67 -292.171)" fill="#1eefb0"/>
    <path id="Path_1110" data-name="Path 1110" d="M25.91,4.655A3.659,3.659,0,0,0,22.255,1H3.655A3.659,3.659,0,0,0,0,4.655V38.769a3.659,3.659,0,0,0,3.655,3.655h18.6a3.659,3.659,0,0,0,3.655-3.655ZM9.009,34.828a1.218,1.218,0,1,1-.974-1.315A1.218,1.218,0,0,1,9.009,34.828Zm0-5.2a1.218,1.218,0,1,1-.974-1.314,1.219,1.219,0,0,1,.974,1.314Zm0-5.2a1.218,1.218,0,1,1-.974-1.315,1.22,1.22,0,0,1,.974,1.315Zm5.2,10.4A1.218,1.218,0,1,1,13.116,33.5a1.229,1.229,0,0,1,1.093,1.333Zm-.44-4.376a1.218,1.218,0,1,1,.089-1.8A1.22,1.22,0,0,1,13.768,30.452Zm0-5.2a1.218,1.218,0,1,1,.089-1.8A1.22,1.22,0,0,1,13.768,25.253Zm5.639,9.575a1.219,1.219,0,1,1-.975-1.315A1.22,1.22,0,0,1,19.407,34.828Zm0-5.2a1.219,1.219,0,1,1-.975-1.314,1.219,1.219,0,0,1,.975,1.314Zm0-5.2a1.219,1.219,0,1,1-.975-1.315A1.22,1.22,0,0,1,19.407,24.431Zm1.305-6.618a1.218,1.218,0,0,1-1.218,1.218H6.5A1.218,1.218,0,0,1,5.28,17.813V7.417A1.218,1.218,0,0,1,6.5,6.2h13a1.218,1.218,0,0,1,1.218,1.218Z" fill="url(#linear-gradient)"/>
  </g>
</svg>
