<svg width="52" height="52" viewBox="0 0 52 52" fill="none" xmlns="http://www.w3.org/2000/svg">
<path d="M46.8 45.2833H5.85C4.33333 45.2833 3.25 44.2 3.25 42.6833V9.1C3.25 7.58333 4.55 6.5 5.85 6.5H42.25C46.15 6.5 49.1833 9.53333 49.1833 13.4333V42.6833C49.4 44.2 48.3167 45.2833 46.8 45.2833Z" fill="url(#paint0_linear_184_1110)"/>
<path d="M42.2501 6.28345H34.0167L14.7334 45.2834H46.1501C48.5334 45.2834 50.7001 43.3334 50.7001 40.7334V14.7334C50.7001 9.96678 47.0167 6.28345 42.2501 6.28345Z" fill="#18253E"/>
<path d="M41.8166 39.8667H32.7166C30.9832 39.8667 29.4666 38.3501 29.4666 36.6167V27.7334C29.4666 26.0001 30.9832 24.4834 32.7166 24.4834H41.8166C43.5499 24.4834 45.0666 26.0001 45.0666 27.7334V36.6167C45.0666 38.3501 43.5499 39.8667 41.8166 39.8667Z" fill="#33EEB1"/>
<path d="M19.5 25.1334H10.1833C8.45002 25.1334 6.93335 23.6168 6.93335 21.8834V12.7834C6.93335 11.0501 8.45002 9.53345 10.1833 9.53345H19.5C21.2334 9.53345 22.75 11.0501 22.75 12.7834V21.6668C22.5334 23.6168 21.2334 25.1334 19.5 25.1334Z" fill="white"/>
<defs>
<linearGradient id="paint0_linear_184_1110" x1="5.17963" y1="-1.3208" x2="45.6486" y2="53.4142" gradientUnits="userSpaceOnUse">
<stop stop-color="#FFF5E9"/>
<stop offset="0.6046" stop-color="#7D95E6"/>
<stop offset="0.9986" stop-color="#3F28DD"/>
</linearGradient>
</defs>
</svg>
