<svg width="32" height="52" viewBox="0 0 32 52" fill="none" xmlns="http://www.w3.org/2000/svg">
<g clip-path="url(#clip0_94_480)">
<path d="M27.507 0H3.69296C1.65339 0 0 1.54451 0 3.44976V48.5503C0 50.4556 1.65339 52 3.69296 52H27.507C29.5467 52 31.2 50.4556 31.2 48.5503V3.44976C31.2 1.54451 29.5467 0 27.507 0Z" fill="#120D34"/>
<path d="M28.5325 2.6001H2.66762C2.63034 2.6001 2.6001 2.63125 2.6001 2.66965V49.3304C2.6001 49.3689 2.63034 49.4001 2.66762 49.4001H28.5325C28.5699 49.4001 28.6001 49.3689 28.6001 49.3304V2.66965C28.6001 2.63125 28.5699 2.6001 28.5325 2.6001Z" fill="url(#paint0_linear_94_480)"/>
<path d="M19.5363 0.935547H12.4539C12.25 0.935547 12.0847 1.10084 12.0847 1.30475V1.37755C12.0847 1.58145 12.25 1.74675 12.4539 1.74675H19.5363C19.7402 1.74675 19.9055 1.58145 19.9055 1.37755V1.30475C19.9055 1.10084 19.7402 0.935547 19.5363 0.935547Z" fill="white"/>
<path d="M16.0334 35.5335C21.5378 35.5335 26 31.0711 26 25.5668C26 20.0623 21.5378 15.6001 16.0334 15.6001C10.5289 15.6001 6.06665 20.0623 6.06665 25.5668C6.06665 31.0711 10.5289 35.5335 16.0334 35.5335Z" fill="#33EEB1"/>
<path d="M17.1231 23.5423C15.7216 23.5423 14.1643 23.5423 12.7627 23.5423C12.607 23.5423 12.4513 23.5423 12.2955 23.5423C11.9841 23.5423 11.6726 23.2308 11.6726 22.9194C11.6726 22.6079 11.8283 22.2965 12.2955 22.2965C12.607 22.2965 12.9184 22.2965 13.2299 22.2965C14.4757 22.2965 15.7216 22.2965 17.1231 22.2965C17.1231 22.1407 16.9674 21.985 16.9674 21.8293C16.5002 20.8949 15.7216 20.4277 14.7872 20.4277C14.0086 20.4277 13.2299 20.4277 12.4513 20.4277C12.2955 20.4277 11.9841 20.272 11.8283 20.1162C11.5169 19.8048 11.8283 19.1819 12.2955 19.1819C12.9184 19.1819 13.5414 19.1819 14.1643 19.1819C15.7216 19.1819 17.4346 19.1819 18.9919 19.1819C19.1476 19.1819 19.1476 19.1819 19.3034 19.1819C19.7705 19.1819 19.9263 19.4933 19.9263 19.8048C19.9263 20.1162 19.6148 20.4277 19.3034 20.4277C18.8362 20.4277 18.369 20.4277 17.9018 20.4277C17.7461 20.4277 17.5903 20.4277 17.5903 20.4277C17.9018 21.0506 18.2132 21.5178 18.369 22.1407C18.6804 22.1407 18.9919 22.1407 19.3034 22.1407C19.7705 22.1407 20.082 22.4522 20.082 22.7636C20.082 23.0751 19.7705 23.3866 19.4591 23.3866C19.1476 23.3866 18.8362 23.3866 18.5247 23.3866C17.9018 25.7225 16.3445 26.5012 14.0086 26.3454C14.1643 26.5012 14.32 26.6569 14.32 26.6569C15.5658 27.9028 16.8117 28.9927 18.0575 30.2387C18.2132 30.3944 18.2132 30.3944 18.369 30.5502C18.5247 30.8616 18.5247 31.1731 18.369 31.3288C18.2132 31.4846 17.9018 31.6403 17.5903 31.3288C17.4346 31.3288 17.4346 31.1731 17.2789 31.1731C15.5658 29.6157 13.8528 27.9028 12.2955 26.3454C11.9841 26.034 11.8283 25.8782 11.9841 25.4111C12.1398 25.0996 12.4513 25.0996 12.7627 25.0996C13.5414 25.0996 14.32 25.0996 15.0987 25.0996C16.033 25.2553 16.9674 24.4767 17.1231 23.5423Z" fill="white"/>
</g>
<defs>
<linearGradient id="paint0_linear_94_480" x1="10.4001" y1="-31.1999" x2="15.6001" y2="114.4" gradientUnits="userSpaceOnUse">
<stop stop-color="#FFF5E8"/>
<stop offset="0.598958" stop-color="#7D95E6"/>
<stop offset="1" stop-color="#3F28DD"/>
</linearGradient>
<clipPath id="clip0_94_480">
<rect width="31.2" height="52" fill="white"/>
</clipPath>
</defs>
</svg>
