<svg width="52" height="52" viewBox="0 0 52 52" fill="none" xmlns="http://www.w3.org/2000/svg">
<path d="M20.7999 32.5C17.5499 34.2334 13.4332 33.15 11.6999 29.9L1.94991 11.7C-9.41157e-05 8.45004 1.08324 4.33338 4.33324 2.38338C7.58324 0.650043 11.6999 1.73338 13.4332 4.98338L23.3999 23.4C25.1332 26.4334 24.0499 30.55 20.7999 32.5Z" fill="url(#paint0_linear_94_380)"/>
<path d="M40.0833 31.85C36.8333 33.5834 32.7166 32.5 30.9833 29.25L22.75 14.7334C21.0166 11.4834 22.1 7.36671 25.35 5.63338C28.6 3.90004 32.7166 4.98338 34.45 8.23338L42.6833 22.75C44.4166 26 43.3333 29.9 40.0833 31.85Z" fill="#18253E"/>
<path d="M30.3333 3.90007C27.0833 2.60007 23.1833 4.3334 21.6667 7.5834L16.6833 17.5501L16.25 18.4167L22.3167 31.2001C22.9667 30.9834 32.2833 14.3001 33.3667 12.1334C34.8833 8.8834 33.5833 5.20007 30.3333 3.90007Z" fill="url(#paint1_linear_94_380)"/>
<path d="M23.4 23.4L18.2 14.0834C16.0333 18.4167 11.7 29.9 11.7 29.9C13.4333 33.15 17.55 34.2334 20.8 32.5C24.05 30.55 25.1333 26.4334 23.4 23.4Z" fill="#18253E"/>
<path d="M39.4334 46.8C45.1772 46.8 49.8334 42.1438 49.8334 36.4C49.8334 30.6562 45.1772 26 39.4334 26C33.6897 26 29.0334 30.6562 29.0334 36.4C29.0334 42.1438 33.6897 46.8 39.4334 46.8Z" fill="white"/>
<path d="M24.2666 36.4C24.4833 29.0334 30.5499 22.9667 37.9166 23.1834C45.4999 23.4 51.35 29.4667 51.35 37.05C51.1333 44.2 45.0666 50.2667 37.6999 50.05C30.1166 50.05 24.0499 43.7667 24.2666 36.4ZM47.0166 32.9334C47.0166 30.3334 45.2833 27.95 42.6833 27.3C39.8666 26.65 35.7499 28.6 34.6666 31.4167C34.6666 31.6334 34.6666 32.2834 34.8833 32.2834C35.3166 32.5 35.7499 32.5 35.9666 32.2834C36.8333 31.6334 37.4833 30.7667 38.1333 30.1167C39.8666 28.3834 42.2499 28.3834 43.9833 29.9C45.7166 31.4167 45.5 34.0167 43.7666 35.75C43.1166 36.4 42.25 37.2667 41.6 37.9167C41.3833 38.1334 41.3833 38.7834 41.6 39C41.6 39.2167 42.4666 39.2167 42.4666 39.2167C44.85 37.4834 47.0166 35.9667 47.0166 32.9334ZM27.9499 40.95C27.9499 43.55 29.6833 45.9334 32.2833 46.5834C35.0999 47.2334 39.2166 45.2834 40.2999 42.4667C40.2999 42.25 40.2999 41.6 40.0833 41.6C39.6499 41.3834 39.2166 41.3834 38.9999 41.6C38.1333 42.25 37.4833 43.1167 36.8333 43.7667C34.8833 45.5 32.4999 45.5 30.7666 43.9834C29.0333 42.4667 29.2499 39.8667 30.9833 38.1334C31.6333 37.4834 32.4999 36.6167 33.1499 35.9667C33.3666 35.75 33.3666 35.1 33.1499 34.8834C33.1499 34.6667 32.2833 34.6667 32.2833 34.6667C30.3333 36.1834 27.9499 37.9167 27.9499 40.95ZM34.0166 40.95C34.2333 40.95 34.4499 40.95 34.4499 40.7334C36.8333 38.35 39.4333 35.75 41.8166 33.3667C42.0333 33.15 41.8166 32.5 41.6 32.5C41.3833 32.2834 40.7333 32.2834 40.5166 32.5C38.1333 34.8834 35.7499 37.05 33.5833 39.4334C33.3666 39.65 33.3666 40.0834 33.3666 40.5167C33.5833 40.7334 33.7999 40.95 34.0166 40.95Z" fill="#33EEB1"/>
<defs>
<linearGradient id="paint0_linear_94_380" x1="-21.7191" y1="3.44073" x2="37.9291" y2="27.8096" gradientUnits="userSpaceOnUse">
<stop stop-color="#FFF5E9"/>
<stop offset="0.6046" stop-color="#7D95E6"/>
<stop offset="0.9986" stop-color="#3F28DD"/>
</linearGradient>
<linearGradient id="paint1_linear_94_380" x1="16.3024" y1="17.3568" x2="34.0448" y2="17.3568" gradientUnits="userSpaceOnUse">
<stop stop-color="#FFF5E9"/>
<stop offset="0.6046" stop-color="#7D95E6"/>
<stop offset="0.9986" stop-color="#3F28DD"/>
</linearGradient>
</defs>
</svg>
