<svg width="52" height="52" viewBox="0 0 52 52" fill="none" xmlns="http://www.w3.org/2000/svg">
<path d="M47.4501 30.1167V13.4334C47.4501 9.96669 44.6334 7.15002 41.1668 7.15002H9.1001C5.63343 7.15002 2.81676 9.96669 2.81676 13.4334L2.6001 30.1167H47.4501Z" fill="#18253E"/>
<path d="M35.75 40.3C43.4083 40.3 49.6166 34.0917 49.6166 26.4333C49.6166 18.775 43.4083 12.5667 35.75 12.5667C28.0916 12.5667 21.8833 18.775 21.8833 26.4333C21.8833 34.0917 28.0916 40.3 35.75 40.3Z" fill="#33EEB1"/>
<path d="M37.4832 23.8334C35.5332 23.8334 33.3666 23.8334 31.4166 23.8334C31.1999 23.8334 30.9832 23.8334 30.7666 23.8334C30.3332 23.8334 29.8999 23.4001 29.8999 22.9667C29.8999 22.5334 30.1166 22.1001 30.7666 22.1001C31.1999 22.1001 31.6332 22.1001 32.0666 22.1001C33.7999 22.1001 35.5332 22.1001 37.4832 22.1001C37.4832 21.8834 37.2666 21.6667 37.2666 21.4501C36.6166 20.1501 35.5332 19.5001 34.2332 19.5001C33.1499 19.5001 32.0666 19.5001 30.9832 19.5001C30.7666 19.5001 30.3332 19.2834 30.1166 19.0667C29.6832 18.6334 30.1166 17.7667 30.7666 17.7667C31.6332 17.7667 32.4999 17.7667 33.3666 17.7667C35.5332 17.7667 37.9166 17.7667 40.0832 17.7667C40.2999 17.7667 40.2999 17.7667 40.5166 17.7667C41.1666 17.7667 41.3832 18.2001 41.3832 18.6334C41.5999 19.2834 41.1666 19.5001 40.5166 19.5001C39.8666 19.5001 39.2166 19.5001 38.5666 19.5001C38.3499 19.5001 38.1332 19.5001 38.1332 19.5001C38.5666 20.3667 38.9999 21.0167 39.2166 21.8834C39.6499 21.8834 40.0832 21.8834 40.5166 21.8834C41.1666 21.8834 41.5999 22.3167 41.5999 22.7501C41.5999 23.1834 41.1666 23.6167 40.7332 23.6167C40.2999 23.6167 39.8666 23.6167 39.4332 23.6167C38.5666 26.8667 36.3999 27.9501 33.1499 27.7334C33.3666 27.9501 33.5832 28.1667 33.5832 28.1667C35.3166 29.9001 37.0499 31.4167 38.7832 33.1501C38.9999 33.3667 38.9999 33.3667 39.2166 33.5834C39.4332 34.0167 39.4332 34.4501 39.2166 34.6667C38.9999 34.8834 38.5666 35.1001 38.1332 34.6667C37.9166 34.6667 37.9166 34.4501 37.6999 34.4501C35.3166 32.2834 32.9332 29.9001 30.7666 27.7334C30.3332 27.3001 30.1166 27.0834 30.3332 26.4334C30.5499 26.0001 30.9832 26.0001 31.4166 26.0001C32.4999 26.0001 33.5832 26.0001 34.6666 26.0001C35.7499 26.2167 37.0499 25.1334 37.4832 23.8334Z" fill="white"/>
<path d="M5.8501 36.1834C3.9001 35.1 2.6001 33.15 2.6001 30.7667V13.4334C2.6001 9.96669 5.41676 7.15002 8.88343 7.15002L29.4668 17.55C36.8334 20.8 35.7501 23.8334 35.7501 27.3V44.6334C35.7501 47.6667 32.5001 49.6167 29.9001 48.3167L5.8501 36.1834Z" fill="url(#paint0_linear_94_343)"/>
<defs>
<linearGradient id="paint0_linear_94_343" x1="57.8542" y1="-0.693743" x2="-0.223712" y2="43.1108" gradientUnits="userSpaceOnUse">
<stop stop-color="#FFF5E9"/>
<stop offset="0.6046" stop-color="#7D95E6"/>
<stop offset="0.9986" stop-color="#3F28DD"/>
</linearGradient>
</defs>
</svg>
