<svg width="52" height="52" viewBox="0 0 52 52" fill="none" xmlns="http://www.w3.org/2000/svg">
<path d="M26 37.2666C31.3848 37.2666 35.75 32.9014 35.75 27.5166C35.75 22.1318 31.3848 17.7666 26 17.7666C20.6152 17.7666 16.25 22.1318 16.25 27.5166C16.25 32.9014 20.6152 37.2666 26 37.2666Z" fill="#33EEB1"/>
<path d="M50.05 27.5166H1.94995C2.16662 40.7333 12.7833 51.3499 26 51.3499C39.2166 51.3499 49.8333 40.7333 50.05 27.5166Z" fill="url(#paint0_linear_96_2728)"/>
<path d="M44.85 8.01685L34.2334 10.8335C33.8 11.0502 33.5834 11.4835 34.0167 11.7002L35.75 13.6502C35.9667 13.8668 35.9667 14.3002 35.75 14.5168L33.15 17.3335C32.9334 17.5502 32.9334 17.7668 33.15 17.9835L35.5334 20.8002C35.75 21.0168 36.1834 21.0168 36.4 20.8002L38.7834 17.9835C39 17.7668 39.4334 17.7668 39.65 17.9835L41.8167 19.9335C42.0334 20.1502 42.6834 20.1502 42.6834 19.7168L45.5 8.88351C45.5 8.45018 45.0667 8.01685 44.85 8.01685Z" fill="#18253E"/>
<path d="M16.25 14.7335C16.0333 14.5168 16.0333 14.0835 16.25 13.8668L17.9833 11.9168C18.2 11.7002 18.2 11.0502 17.7667 11.0502L7.15 8.01685C6.93333 8.01685 6.5 8.45018 6.5 8.88351L9.31667 19.5002C9.31667 19.9335 9.96667 20.1502 10.1833 19.7168L12.7833 17.5502C13 17.3335 13.4333 17.3335 13.65 17.5502L16.0333 20.8002C16.25 21.0168 16.6833 21.0168 16.9 20.8002L19.0667 18.4168C19.2833 18.2002 19.2833 17.7668 19.0667 17.5502L16.25 14.7335Z" fill="#18253E"/>
<path d="M26.4333 0.866748C26.2167 0.433415 25.5667 0.433415 25.35 0.866748L19.9333 10.6167C19.7167 10.8334 20.15 11.2667 20.3667 11.2667L23.4 11.4834C23.4 12.1334 23.4 14.3001 23.4 15.3834C23.4 15.8167 23.6167 16.0334 24.05 16.0334C24.9167 16.0334 26.4333 16.0334 27.3 16.0334C27.7333 16.0334 27.95 15.8167 27.95 15.3834C27.95 14.3001 27.7333 12.1334 27.95 11.4834L31.4167 11.2667C31.85 11.2667 32.0667 10.8334 31.85 10.4001L26.4333 0.866748Z" fill="#18253E"/>
<path d="M16.25 27.7334C16.25 33.1501 20.5833 37.4834 26 37.4834C31.4167 37.4834 35.75 33.1501 35.75 27.7334H16.25Z" fill="white"/>
<defs>
<linearGradient id="paint0_linear_96_2728" x1="17.6486" y1="76.1226" x2="32.3746" y2="-7.76935" gradientUnits="userSpaceOnUse">
<stop stop-color="#FFF5E9"/>
<stop offset="0.6046" stop-color="#7D95E6"/>
<stop offset="0.9986" stop-color="#3F28DD"/>
</linearGradient>
</defs>
</svg>
