<svg width="47" height="49" viewBox="0 0 47 49" fill="none" xmlns="http://www.w3.org/2000/svg">
<path d="M45.1 4.71663C44.0167 3.6333 42.9334 2.3333 41.85 1.0333C41.4167 0.383301 40.55 0.383301 39.9 1.0333C39.0334 1.89997 38.3834 2.9833 37.3 4.06663C36.4334 2.9833 35.5667 2.11663 34.7 1.0333C34.05 0.166634 33.4 0.166634 32.75 1.0333C31.8834 1.89997 31.2334 2.9833 30.15 4.06663C29.0667 2.76663 28.4167 1.89997 27.55 1.0333C26.9 0.166634 26.25 0.166634 25.6 1.0333C24.7334 1.89997 24.0834 2.76663 23 4.06663C22.1334 2.9833 21.2667 2.11663 20.4 1.0333C19.9667 0.383301 19.1 0.383301 18.45 1.0333C17.3667 2.3333 16.2834 3.41663 15.2 4.71663C14.55 5.36663 14.1167 6.44997 14.1167 7.5333C14.1167 13.1666 14.1167 26.3833 14.1167 33.75C14.1167 36.5666 16.0667 38.95 18.6667 38.95C21.7 38.95 26.0334 38.95 30.15 38.95C34.05 38.95 38.3834 38.95 41.6334 38.95C44.2334 38.95 46.1834 36.5666 46.1834 33.75C46.1834 26.3833 46.1834 13.1666 46.1834 7.5333C46.1834 6.44997 45.75 5.36663 45.1 4.71663Z" fill="url(#paint0_linear_94_447)"/>
<path d="M30.1498 22.9166C27.7665 22.9166 25.5998 22.9166 23.2165 22.9166C21.9165 22.9166 21.0498 22.4833 21.0498 21.4C21.0498 20.5333 21.6998 19.8833 22.9998 19.8833C27.5498 19.8833 32.3165 19.8833 36.8665 19.8833C38.1665 19.8833 39.0331 20.3166 39.0331 21.4C39.0331 22.4833 38.3831 22.9166 36.8665 22.9166C34.6998 22.9166 32.3165 22.9166 30.1498 22.9166Z" fill="#18253E"/>
<path d="M30.1498 15.1166C27.7665 15.1166 25.3831 15.1166 22.9998 15.1166C21.6998 15.1166 21.0498 14.4666 21.0498 13.5999C21.0498 12.5166 21.9165 12.0833 22.9998 12.0833C27.7665 12.0833 32.5331 12.0833 37.2998 12.0833C38.3831 12.0833 39.0331 12.5166 39.0331 13.5999C39.0331 14.6833 38.1665 15.1166 37.2998 15.1166C34.9165 15.1166 32.5331 15.1166 30.1498 15.1166Z" fill="#18253E"/>
<path d="M14.3332 19.8833C14.3332 23.35 14.3332 26.6 14.3332 30.0666C14.3332 33.1 16.0665 34.1833 18.8832 33.1C22.3499 31.8 26.0332 30.2833 29.4999 28.9833C31.4499 28.1166 33.3999 28.7666 34.2665 30.5C35.1332 32.2333 34.4832 33.9666 32.7499 35.05C31.0165 36.1333 29.0665 37.4333 27.3332 38.7333C29.2832 38.7333 31.0165 38.7333 32.9665 38.7333C34.9165 38.7333 35.1332 38.95 35.1332 40.9C35.1332 41.7666 35.1332 42.85 35.1332 43.7166C35.1332 45.0166 34.6999 46.1 33.3999 46.75C32.3165 47.4 31.0165 47.1833 30.1499 46.3166C29.9332 46.3166 29.9332 46.1 29.7165 46.1C27.7665 48.4833 25.8165 48.4833 24.0832 46.1C21.4832 47.6166 20.1832 47.1833 18.6665 45.0166H18.4499C13.2499 48.4833 7.1832 48.4833 1.3332 48.2666C0.466537 48.2666 0.0332031 47.8333 0.0332031 46.9666C0.0332031 40.9 0.0332031 35.05 0.0332031 28.9833C0.0332031 28.55 0.466536 27.9 0.89987 27.4666C3.71654 25.3 6.74987 23.1333 9.56654 20.9666C10.8665 20.3166 12.3832 19.8833 14.3332 19.8833Z" fill="#33EEB1"/>
<defs>
<linearGradient id="paint0_linear_94_447" x1="5.71393" y1="-15.4171" x2="47.2736" y2="46.3286" gradientUnits="userSpaceOnUse">
<stop stop-color="#FFF5E9"/>
<stop offset="0.6046" stop-color="#7D95E6"/>
<stop offset="0.9986" stop-color="#3F28DD"/>
</linearGradient>
</defs>
</svg>
