<svg width="52" height="52" viewBox="0 0 52 52" fill="none" xmlns="http://www.w3.org/2000/svg">
<path d="M34.2331 1.30005H24.6998H23.6164H17.7664C9.96644 1.30005 3.68311 7.58338 3.68311 15.3834V26.2167H23.3998H24.4831H48.0998V15.3834C48.3164 7.58338 42.0331 1.30005 34.2331 1.30005Z" fill="url(#paint0_linear_101_5386)"/>
<path d="M17.7664 50.7H27.2998H28.3831H34.0164C41.8164 50.7 48.0998 44.4167 48.0998 36.6167V25.7833H28.3831H27.2998H3.68311V36.6167C3.68311 44.4167 9.96644 50.7 17.7664 50.7Z" fill="#18253E"/>
<path d="M22.0996 40.95C23.8945 40.95 25.3496 39.4949 25.3496 37.7C25.3496 35.905 23.8945 34.45 22.0996 34.45C20.3047 34.45 18.8496 35.905 18.8496 37.7C18.8496 39.4949 20.3047 40.95 22.0996 40.95Z" fill="#33EEB1"/>
<path d="M33.7998 40.95C35.5947 40.95 37.0498 39.4949 37.0498 37.7C37.0498 35.905 35.5947 34.45 33.7998 34.45C32.0049 34.45 30.5498 35.905 30.5498 37.7C30.5498 39.4949 32.0049 40.95 33.7998 40.95Z" fill="#33EEB1"/>
<path d="M39.2164 15.8167C34.6664 15.8167 28.1664 15.8167 22.3164 15.8167H13.4331C14.7331 20.3667 16.0331 25.35 17.3331 29.9C17.5498 30.7667 18.4164 31.4167 19.2831 31.4167H35.7498C38.1331 31.4167 38.3498 29.0333 38.5664 28.6C38.9998 27.0833 40.2998 22.75 41.3831 17.9833C41.5998 16.9 40.2998 15.8167 39.2164 15.8167Z" fill="#33EEB1"/>
<path d="M15.5998 17.3333H11.0498C10.6164 17.3333 10.1831 17.1166 10.1831 16.6833C10.1831 16.25 10.6164 15.8167 11.0498 15.8167H15.5998C16.0331 15.8167 16.4664 16.25 16.4664 16.6833C16.4664 17.1166 16.0331 17.3333 15.5998 17.3333Z" fill="#33EEB1"/>
<defs>
<linearGradient id="paint0_linear_101_5386" x1="33.0889" y1="70.7889" x2="21.2589" y2="-13.5" gradientUnits="userSpaceOnUse">
<stop stop-color="#FFF5E9"/>
<stop offset="0.6046" stop-color="#7D95E6"/>
<stop offset="0.9986" stop-color="#3F28DD"/>
</linearGradient>
</defs>
</svg>
