<svg xmlns="http://www.w3.org/2000/svg" width="29.331" height="30.967" viewBox="0 0 29.331 30.967">
  <g id="automated_payments" data-name="automated payments" transform="translate(-15.127 -2.809)">
    <path id="Path_6585" data-name="Path 6585" d="M32.381,27.715l-.335-.3a14.146,14.146,0,0,1-2.47-2.884A12.434,12.434,0,0,1,28.247,19.8V14.939A10.64,10.64,0,0,0,18.956,4.359V3.089a1.314,1.314,0,0,0-2.628,0V4.378A10.64,10.64,0,0,0,7.145,14.939V19.8a12.432,12.432,0,0,1-1.329,4.734A14.173,14.173,0,0,1,3.385,27.42l-.335.3V30.49H32.381Z" transform="translate(12.077 1.033)" fill="#85e6c4"/>
    <path id="Path_6586" data-name="Path 6586" d="M15.32,32a2.608,2.608,0,0,0,5.167,0Z" transform="translate(11.889 -0.476)" fill="#6d44e5"/>
  </g>
</svg>
