<svg xmlns="http://www.w3.org/2000/svg" width="40" height="40" viewBox="0 0 40 40">
  <g id="automated" transform="translate(-256 -426)">
    <rect id="Rectangle_6089" data-name="Rectangle 6089" width="40" height="40" transform="translate(256 426)" fill="none"/>
    <g id="Group_6120" data-name="Group 6120" transform="translate(260.39 434)">
      <path id="Path_599" data-name="Path 599" d="M12.488,0a1.693,1.693,0,0,0-1.01.335L.7,8.353a1.721,1.721,0,0,0,.84,3.091h21.9a1.721,1.721,0,0,0,.84-3.091L13.5.335A1.694,1.694,0,0,0,12.488,0Zm1.2,7.508a1.693,1.693,0,0,1-2.408,0,1.727,1.727,0,0,1,0-2.428,1.693,1.693,0,0,1,2.408,0,1.727,1.727,0,0,1,0,2.428Zm7.877,5.082H18.731v3.493a9.305,9.305,0,0,1,2.838-1.072Zm-6.807,8.015a9.42,9.42,0,0,0-.583,5.151H.852a.85.85,0,0,1-.6-.252A.865.865,0,0,1,0,24.9v-.572a3.736,3.736,0,0,1,1.081-2.631A3.675,3.675,0,0,1,3.69,20.6H14.762Zm1.7-2.684a9.394,9.394,0,0,0-1.128,1.537h-1.71V12.59h2.838Zm-5.109-5.329v6.868H8.514V12.591Zm-5.108,0v6.868H3.406V12.591Z" transform="translate(0)" fill="#85e6c4" fill-rule="evenodd"/>
      <g id="Group_6121" data-name="Group 6121" transform="translate(15.61 16.39)">
        <path id="Path_600" data-name="Path 600" d="M27.8,21a7.8,7.8,0,1,0,7.8,7.8A7.805,7.805,0,0,0,27.8,21Zm3.383,6.485a.71.71,0,1,0-1.09-.908l-3.051,3.66-1.579-1.579a.71.71,0,0,0-1,1l2.129,2.129a.709.709,0,0,0,1.047-.048Z" transform="translate(-20 -21)" fill="#6d44e5" fill-rule="evenodd"/>
      </g>
    </g>
  </g>
</svg>
