<svg xmlns="http://www.w3.org/2000/svg" width="34.101" height="36" viewBox="0 0 34.101 36">
  <g id="Group_20272" data-name="Group 20272" transform="translate(-518.172 -4045)">
    <g id="Group_18795" data-name="Group 18795" transform="translate(535.222 4079) rotate(-90)">
      <path id="Path_23768" data-name="Path 23768" d="M32,8.889H22.405a8.89,8.89,0,0,1-4.1-1A8.89,8.89,0,0,1,15.124,5.1l-.914-1.3A8.889,8.889,0,0,0,6.928,0h.005" transform="translate(0 0)" fill="none" stroke="#6d44e5" stroke-linecap="round" stroke-linejoin="round" stroke-width="4"/>
      <path id="Path_23769" data-name="Path 23769" d="M0,10.667,5.333,5.333,0,0" transform="translate(26.667 3.556)" fill="none" stroke="#6d44e5" stroke-linecap="round" stroke-linejoin="round" stroke-width="4"/>
    </g>
    <g id="Group_18794" data-name="Group 18794" transform="translate(521 4079) rotate(-90)">
      <path id="Path_23768-2" data-name="Path 23768" d="M6.928,8.889h.005A8.89,8.89,0,0,0,11.04,7.883a8.89,8.89,0,0,0,3.177-2.79l.907-1.3A8.889,8.889,0,0,1,22.409,0H32" transform="translate(0 5.333)" fill="none" stroke="#85e6c4" stroke-linecap="round" stroke-linejoin="round" stroke-width="4"/>
      <path id="Path_23769-2" data-name="Path 23769" d="M0,10.667,5.333,5.333,0,0" transform="translate(26.667)" fill="none" stroke="#85e6c4" stroke-linecap="round" stroke-linejoin="round" stroke-width="4"/>
    </g>
  </g>
</svg>
