<svg xmlns="http://www.w3.org/2000/svg" width="32" height="32" viewBox="0 0 32 32">
  <g id="Group_20276" data-name="Group 20276" transform="translate(-911 -1587)">
    <path id="Path_24117" data-name="Path 24117" d="M4.778,17.222A1.746,1.746,0,0,1,3,15.444V4.778A1.746,1.746,0,0,1,4.778,3H15.444a1.746,1.746,0,0,1,1.778,1.778V15.444a1.746,1.746,0,0,1-1.778,1.778Zm17.778,0a1.746,1.746,0,0,1-1.778-1.778V4.778A1.746,1.746,0,0,1,22.556,3H33.222A1.746,1.746,0,0,1,35,4.778V15.444a1.746,1.746,0,0,1-1.778,1.778ZM4.778,35A1.746,1.746,0,0,1,3,33.222V22.556a1.746,1.746,0,0,1,1.778-1.778H15.444a1.746,1.746,0,0,1,1.778,1.778V33.222A1.746,1.746,0,0,1,15.444,35Z" transform="translate(908 1584)" fill="#85e6c4"/>
    <path id="Path_24118" data-name="Path 24118" d="M33.444,40.556a1.746,1.746,0,0,1-1.778-1.778V35.222h-3.6a1.646,1.646,0,0,1-1.244-.512,1.762,1.762,0,0,1-.489-1.266,1.746,1.746,0,0,1,1.778-1.778h3.556v-3.6a1.646,1.646,0,0,1,.512-1.244,1.762,1.762,0,0,1,1.266-.489,1.746,1.746,0,0,1,1.778,1.778v3.556h3.6a1.646,1.646,0,0,1,1.244.512,1.762,1.762,0,0,1,.489,1.266,1.746,1.746,0,0,1-1.778,1.778H35.222v3.6a1.646,1.646,0,0,1-.512,1.244A1.762,1.762,0,0,1,33.444,40.556Z" transform="translate(902.444 1578.444)" fill="#6d44e5"/>
  </g>
</svg>
