<svg xmlns="http://www.w3.org/2000/svg" width="29.384" height="32" viewBox="0 0 29.384 32">
  <g id="Group_9120" data-name="Group 9120" transform="translate(-496 -411.543)">
    <path id="Path_17937" data-name="Path 17937" d="M10.737,14.523a3.765,3.765,0,1,1,2.662-1.1A3.765,3.765,0,0,1,10.737,14.523ZM18.73,11.8a8.358,8.358,0,0,0,.075-1.043,9.2,9.2,0,0,0-.075-1.076L21,7.928a.543.543,0,0,0,.129-.688L18.977,3.518a.529.529,0,0,0-.656-.237L15.643,4.357A7.8,7.8,0,0,0,13.825,3.3l-.4-2.851A.544.544,0,0,0,12.889,0h-4.3a.544.544,0,0,0-.538.452L7.65,3.3A7.8,7.8,0,0,0,5.832,4.357L3.153,3.281a.529.529,0,0,0-.656.237L.345,7.24a.53.53,0,0,0,.129.688l2.27,1.753a9.2,9.2,0,0,0-.075,1.076A8.358,8.358,0,0,0,2.744,11.8L.474,13.587a.53.53,0,0,0-.129.688L2.5,18a.541.541,0,0,0,.656.237l2.679-1.087A7.471,7.471,0,0,0,7.65,18.213l.4,2.851a.544.544,0,0,0,.538.452h4.3a.544.544,0,0,0,.538-.452l.4-2.851a7.833,7.833,0,0,0,1.818-1.065l2.679,1.087A.541.541,0,0,0,18.977,18l2.152-3.722A.543.543,0,0,0,21,13.587Z" transform="translate(495.729 422.028)" fill="#85e6c4"/>
    <path id="Path_17938" data-name="Path 17938" d="M7.517,10.054A2.607,2.607,0,1,1,9.36,9.291,2.607,2.607,0,0,1,7.517,10.054ZM13.05,8.17a5.786,5.786,0,0,0,.052-.722A6.368,6.368,0,0,0,13.05,6.7l1.571-1.214a.376.376,0,0,0,.089-.477l-1.49-2.577a.366.366,0,0,0-.454-.164l-1.854.745a5.4,5.4,0,0,0-1.259-.73L9.379.313A.377.377,0,0,0,9.006,0H6.027a.377.377,0,0,0-.372.313L5.379,2.286a5.4,5.4,0,0,0-1.259.73L2.266,2.271a.366.366,0,0,0-.454.164L.322,5.012a.367.367,0,0,0,.089.477L1.983,6.7a6.368,6.368,0,0,0-.052.745,5.786,5.786,0,0,0,.052.722L.412,9.406a.367.367,0,0,0-.089.477l1.49,2.577a.374.374,0,0,0,.454.164l1.854-.752a5.173,5.173,0,0,0,1.259.737l.276,1.974a.377.377,0,0,0,.372.313H9.006a.377.377,0,0,0,.372-.313l.276-1.974a5.423,5.423,0,0,0,1.259-.737l1.854.752a.374.374,0,0,0,.454-.164l1.49-2.577a.376.376,0,0,0-.089-.477Z" transform="translate(510.624 411.543)" fill="#6d44e5"/>
  </g>
</svg>
