<svg xmlns="http://www.w3.org/2000/svg" width="41.067" height="28" viewBox="0 0 41.067 28">
  <g id="Group_20337" data-name="Group 20337" transform="translate(-521 -4265)">
    <path id="Path_24770" data-name="Path 24770" d="M21.533,27.833a9.334,9.334,0,1,1,6.6-2.734A9.333,9.333,0,0,1,21.533,27.833Zm0-23.333A22.077,22.077,0,0,0,1,18.5a22.058,22.058,0,0,0,41.067,0A22.077,22.077,0,0,0,21.533,4.5Z" transform="translate(520 4260.5)" fill="#85e6c4"/>
    <path id="Path_24956" data-name="Path 24956" d="M24.467,14.1a6.4,6.4,0,1,0,4.525,1.875A6.4,6.4,0,0,0,24.467,14.1Z" transform="translate(517 4258.5)" fill="#6d44e5"/>
  </g>
</svg>
