<svg xmlns="http://www.w3.org/2000/svg" width="29.331" height="32.001" viewBox="0 0 29.331 32.001">
  <g id="Group_18406" data-name="Group 18406" transform="translate(-897 -4237)">
    <path id="Subtraction_55" data-name="Subtraction 55" d="M-3872.34,5542a2.605,2.605,0,0,1-1.713-.643,2.609,2.609,0,0,1-.871-1.609h5.167a2.6,2.6,0,0,1-.871,1.609A2.594,2.594,0,0,1-3872.34,5542Zm14.671-3.285H-3887v-2.776l.334-.295a14.191,14.191,0,0,0,2.431-2.883,12.355,12.355,0,0,0,1.328-4.734v-4.862a10.634,10.634,0,0,1,2.612-7,10.637,10.637,0,0,1,6.572-3.558v-1.289a1.3,1.3,0,0,1,.385-.929,1.305,1.305,0,0,1,.929-.385,1.323,1.323,0,0,1,.929.385,1.306,1.306,0,0,1,.385.929v1.27a10.53,10.53,0,0,1,1.063.191,5.454,5.454,0,0,0-.469,2.225,5.506,5.506,0,0,0,5.5,5.5,5.506,5.506,0,0,0,2.664-.687,10.624,10.624,0,0,1,.532,3.352v4.862a12.376,12.376,0,0,0,1.33,4.734,14.1,14.1,0,0,0,2.47,2.883l.335.295v2.775Z" transform="translate(4784 -1273)" fill="#85e6c4"/>
    <circle id="Ellipse_343" data-name="Ellipse 343" cx="4" cy="4" r="4" transform="translate(915 4238)" fill="#6d44e5"/>
  </g>
</svg>
