<svg id="Group_35" data-name="Group 35" xmlns="http://www.w3.org/2000/svg" width="40.976" height="42" viewBox="0 0 40.976 42">
  <path id="Path_599" data-name="Path 599" d="M16.39,0a2.223,2.223,0,0,0-1.326.44L.912,10.964a2.259,2.259,0,0,0,1.1,4.056h28.75a2.258,2.258,0,0,0,1.1-4.056L17.716.44A2.223,2.223,0,0,0,16.39,0Zm1.58,9.855a2.222,2.222,0,0,1-3.161,0,2.267,2.267,0,0,1,0-3.187,2.222,2.222,0,0,1,3.161,0,2.267,2.267,0,0,1,0,3.187Zm10.339,6.67H24.584v4.585A12.213,12.213,0,0,1,28.309,19.7Zm-8.935,10.52a12.364,12.364,0,0,0-.766,6.761H1.118a1.116,1.116,0,0,1-.79-.331,1.135,1.135,0,0,1-.328-.8v-.751a4.9,4.9,0,0,1,1.418-3.453,4.823,4.823,0,0,1,3.424-1.43v0Zm2.231-3.523a12.329,12.329,0,0,0-1.48,2.018H17.88V16.524h3.725ZM14.9,16.526V25.54H11.175V16.526Zm-6.7,0V25.54H4.471V16.526Z" transform="translate(0)" fill="#6d44e5" fill-rule="evenodd"/>
  <path id="Subtraction_2" data-name="Subtraction 2" d="M10.245,20.488A10.244,10.244,0,1,1,20.489,10.244,10.256,10.256,0,0,1,10.245,20.488ZM6.884,9.521c-.489,0-.738.2-.738.59a.511.511,0,0,0,.194.415.849.849,0,0,0,.544.157H9.853v2.6a.781.781,0,0,0,.157.516.562.562,0,0,0,.452.184.615.615,0,0,0,.479-.184.75.75,0,0,0,.166-.516v-2.6h2.95a.809.809,0,0,0,.535-.157.523.523,0,0,0,.184-.415c0-.392-.242-.59-.719-.59h-2.95V6.847a.747.747,0,0,0-.166-.516.613.613,0,0,0-.479-.184.56.56,0,0,0-.452.184.777.777,0,0,0-.157.516V9.521Z" transform="translate(20.487 21.512)" fill="#85e6c4"/>
</svg>
