<svg xmlns="http://www.w3.org/2000/svg" width="41.945" height="42" viewBox="0 0 41.945 42">
  <g id="Group_20273" data-name="Group 20273" transform="translate(-2 -2)">
    <path id="Path_24772" data-name="Path 24772" d="M32.462,2H32.6c1.854,0,3.349,0,4.551.115a7.438,7.438,0,0,1,3.295.963,7.31,7.31,0,0,1,2.416,2.416,7.466,7.466,0,0,1,.965,3.293c.113,1.2.113,2.7.113,4.553v.147c0,1.216,0,2.231-.078,3.058a5.458,5.458,0,0,1-.713,2.406,5.336,5.336,0,0,1-1.772,1.77,5.449,5.449,0,0,1-2.4.713c-.826.078-1.843.078-3.062.078H33.6a35.931,35.931,0,0,1-4.375-.155,5.319,5.319,0,0,1-3.219-1.416,5.314,5.314,0,0,1-1.416-3.219,35.931,35.931,0,0,1-.155-4.375v-2.32c0-1.216,0-2.234.078-3.06a5.449,5.449,0,0,1,.713-2.4A5.336,5.336,0,0,1,27,2.791,5.458,5.458,0,0,1,29.4,2.078C30.227,2,31.244,2,32.462,2ZM34.19,14.193c-1.007,0-1.51,0-1.864-.252A1.367,1.367,0,0,1,32,13.619c-.252-.357-.252-.86-.252-1.864s0-1.508.252-1.862a1.365,1.365,0,0,1,.323-.325c.357-.252.86-.252,1.864-.252s1.508,0,1.862.252a1.406,1.406,0,0,1,.325.325c.252.354.252.858.252,1.862s0,1.51-.252,1.864a1.364,1.364,0,0,1-.325.323C35.7,14.193,35.195,14.193,34.19,14.193ZM18.946,2.791a5.433,5.433,0,0,0-2.4-.713C15.716,2,14.7,2,13.482,2H13.34c-1.854,0-3.349,0-4.551.115a7.438,7.438,0,0,0-3.295.963A7.31,7.31,0,0,0,3.078,5.494a7.466,7.466,0,0,0-.965,3.293C2,9.99,2,11.488,2,13.34v.147c0,1.216,0,2.231.078,3.058a5.458,5.458,0,0,0,.713,2.406,5.336,5.336,0,0,0,1.772,1.77,5.449,5.449,0,0,0,2.4.713c.826.078,1.841.078,3.062.078h2.315a35.931,35.931,0,0,0,4.375-.155,5.319,5.319,0,0,0,3.219-1.416,5.314,5.314,0,0,0,1.416-3.219,35.931,35.931,0,0,0,.155-4.375v-2.32c0-1.216,0-2.234-.078-3.06a5.449,5.449,0,0,0-.713-2.4,5.367,5.367,0,0,0-1.77-1.772ZM9.894,13.942c.354.252.858.252,1.862.252s1.51,0,1.864-.252a1.363,1.363,0,0,0,.323-.323c.252-.357.252-.86.252-1.864s0-1.508-.252-1.862a1.363,1.363,0,0,0-.323-.325c-.357-.252-.86-.252-1.864-.252s-1.508,0-1.862.252a1.365,1.365,0,0,0-.325.325c-.252.354-.252.858-.252,1.862s0,1.51.252,1.864A1.363,1.363,0,0,0,9.894,13.942Zm6.824,10.65a5.319,5.319,0,0,1,3.219,1.416,5.314,5.314,0,0,1,1.416,3.219,35.931,35.931,0,0,1,.155,4.375v2.317c0,1.216,0,2.234-.078,3.06a5.449,5.449,0,0,1-.713,2.4,5.336,5.336,0,0,1-1.77,1.772,5.458,5.458,0,0,1-2.406.713c-.826.078-1.841.078-3.06.078H13.34c-1.854,0-3.349,0-4.551-.115a7.438,7.438,0,0,1-3.295-.963,7.318,7.318,0,0,1-2.416-2.416,7.466,7.466,0,0,1-.965-3.293C2,35.954,2,34.459,2,32.6v-.147c0-1.216,0-2.234.078-3.058a5.458,5.458,0,0,1,.713-2.406,5.336,5.336,0,0,1,1.772-1.77,5.449,5.449,0,0,1,2.4-.713c.826-.078,1.841-.078,3.062-.078h2.315a35.931,35.931,0,0,1,4.375.155ZM11.754,36.629c-1.007,0-1.508,0-1.862-.252a1.367,1.367,0,0,1-.325-.325c-.252-.354-.252-.858-.252-1.862s0-1.51.252-1.864A1.365,1.365,0,0,1,9.892,32c.354-.252.858-.252,1.862-.252s1.51,0,1.864.252a1.43,1.43,0,0,1,.323.323c.252.357.252.86.252,1.864s0,1.508-.252,1.862a1.364,1.364,0,0,1-.323.325C13.262,36.629,12.759,36.629,11.754,36.629Z" transform="translate(0 0)" fill="#6d44e5" fill-rule="evenodd"/>
    <path id="Path_24773" data-name="Path 24773" d="M12.7,20.915v.073h2.926c0-1.4,0-2.341.075-3.058a2.589,2.589,0,0,1,.336-1.223,2.433,2.433,0,0,1,.671-.673,2.609,2.609,0,0,1,1.225-.336c.717-.073,1.657-.075,3.058-.075h3.9V12.7H20.916c-1.307,0-2.4,0-3.28.088a5.432,5.432,0,0,0-2.552.816A5.3,5.3,0,0,0,13.6,15.083a5.432,5.432,0,0,0-.816,2.552C12.7,18.516,12.7,19.606,12.7,20.915ZM32.207,24.94v-.048H29.281c0,.929,0,1.552-.034,2.034a2.716,2.716,0,0,1-.153.849A2.436,2.436,0,0,1,27.773,29.1a2.754,2.754,0,0,1-.847.151c-.482.031-1.105.034-2.034.034h-3.9v2.926H24.94c.868,0,1.592,0,2.185-.042A5.493,5.493,0,0,0,28.9,31.8a5.367,5.367,0,0,0,2.9-2.9,5.5,5.5,0,0,0,.369-1.77C32.207,26.531,32.207,25.808,32.207,24.94Zm-16.583,5.8a1.464,1.464,0,1,1-2.926,0V24.891h2.926ZM30.743,12.7a1.464,1.464,0,0,0-1.462,1.462v6.829h2.926V14.16A1.464,1.464,0,0,0,30.743,12.7Zm-10.96,8.219a5.244,5.244,0,0,0-.159,1.852,5.244,5.244,0,0,0,.159,1.852,2.1,2.1,0,0,0,1.135,1.133,5.179,5.179,0,0,0,1.852.161,5.244,5.244,0,0,0,1.852-.159,2.1,2.1,0,0,0,1.133-1.135,5.179,5.179,0,0,0,.161-1.852,5.244,5.244,0,0,0-.159-1.852,2.1,2.1,0,0,0-1.135-1.133,5.179,5.179,0,0,0-1.852-.161,5.244,5.244,0,0,0-1.852.159A2.1,2.1,0,0,0,19.783,20.917Z" transform="translate(11.738 11.738)" fill="#85e6c4"/>
  </g>
</svg>
