<svg xmlns="http://www.w3.org/2000/svg" width="40.607" height="42" viewBox="0 0 40.607 42">
  <g id="Customer_experience" transform="translate(-257.859 -170.86)">
    <path id="Subtraction_54" data-name="Subtraction 54" d="M22.956,36.621H0V30.213a6.833,6.833,0,0,1,3.662-6.065,34.2,34.2,0,0,1,7.21-2.663,31.693,31.693,0,0,1,14.878,0,33.959,33.959,0,0,1,6.676,2.4l-.18,0A9.762,9.762,0,0,0,22.956,36.62ZM18.312,18.311a8.859,8.859,0,0,1-6.466-2.689A8.854,8.854,0,0,1,9.157,9.155a8.854,8.854,0,0,1,2.689-6.466A8.854,8.854,0,0,1,18.312,0a8.849,8.849,0,0,1,6.465,2.689,8.855,8.855,0,0,1,2.69,6.466,8.855,8.855,0,0,1-2.69,6.466A8.853,8.853,0,0,1,18.312,18.311Z" transform="translate(257.859 170.86)" fill="#85e6c4"/>
    <path id="Subtraction_53" data-name="Subtraction 53" d="M8.361,16.721a8.361,8.361,0,1,1,8.361-8.361A8.371,8.371,0,0,1,8.361,16.721ZM5.619,7.771c-.4,0-.6.162-.6.481a.417.417,0,0,0,.158.339.693.693,0,0,0,.444.128H8.042v2.122a.637.637,0,0,0,.128.421.459.459,0,0,0,.369.151.5.5,0,0,0,.391-.151.612.612,0,0,0,.135-.421V8.719h2.408a.66.66,0,0,0,.436-.128.427.427,0,0,0,.151-.339c0-.32-.2-.481-.587-.481H9.065V5.588a.61.61,0,0,0-.135-.421.5.5,0,0,0-.391-.151.457.457,0,0,0-.369.151.634.634,0,0,0-.128.421V7.771Z" transform="translate(281.744 196.139)" fill="#6d44e5"/>
  </g>
</svg>
