<svg xmlns="http://www.w3.org/2000/svg" width="44.8" height="42" viewBox="0 0 44.8 42">
  <g id="Group_20275" data-name="Group 20275" transform="translate(-2 -3)">
    <path id="Path_24775" data-name="Path 24775" d="M10.44,20.72H33.4v4.312h2.24V18.48H23.04V14H20.8v4.48H8.2v6.552h2.24Z" transform="translate(2.48 4.4)" fill="#6d44e5"/>
    <path id="Path_24776" data-name="Path 24776" d="M18.8,23H4.8A2.8,2.8,0,0,0,2,25.8v8.4A2.8,2.8,0,0,0,4.8,37h14a2.8,2.8,0,0,0,2.8-2.8V25.8A2.8,2.8,0,0,0,18.8,23Z" transform="translate(0 8)" fill="#85e6c4"/>
    <path id="Path_24777" data-name="Path 24777" d="M36.8,23h-14A2.8,2.8,0,0,0,20,25.8v8.4A2.8,2.8,0,0,0,22.8,37h14a2.8,2.8,0,0,0,2.8-2.8V25.8A2.8,2.8,0,0,0,36.8,23Z" transform="translate(7.2 8)" fill="#85e6c4"/>
    <path id="Path_24778" data-name="Path 24778" d="M27.8,3h-14A2.8,2.8,0,0,0,11,5.8v8.4A2.8,2.8,0,0,0,13.8,17h14a2.8,2.8,0,0,0,2.8-2.8V5.8A2.8,2.8,0,0,0,27.8,3Z" transform="translate(3.6)" fill="#6d44e5"/>
  </g>
</svg>
