<svg xmlns="http://www.w3.org/2000/svg" width="42" height="41.88" viewBox="0 0 42 41.88">
  <g id="Group_20317" data-name="Group 20317" transform="translate(-535 -1653)">
    <path id="Path_24774" data-name="Path 24774" d="M6.081,12.161H30.4V8.108H6.081ZM0,38.511V4.054A3.905,3.905,0,0,1,1.192,1.19,3.9,3.9,0,0,1,4.054,0H32.43a3.905,3.905,0,0,1,2.864,1.192,3.9,3.9,0,0,1,1.19,2.862v13.53a12.4,12.4,0,0,0-2.965-1.04,14.781,14.781,0,0,0-3.115-.328H6.081v4.054H20.472a15.5,15.5,0,0,0-1.6,1.875,14.139,14.139,0,0,0-1.293,2.179H6.081v4.054H16.367a6.988,6.988,0,0,0-.128.989q-.026.483-.024,1.038a13.931,13.931,0,0,0,2.331,7.8l-.3.3-3.04-3.04-3.04,3.04-3.04-3.04-3.04,3.04-3.04-3.04Z" transform="translate(535 1653)" fill="#6d44e5"/>
    <g id="Group_20274" data-name="Group 20274" transform="translate(553.836 1671.715)">
      <path id="Path_600" data-name="Path 600" d="M31.582,21A11.582,11.582,0,1,0,43.164,32.582,11.582,11.582,0,0,0,31.582,21Zm5.02,9.624a1.053,1.053,0,1,0-1.617-1.348l-4.528,5.432-2.343-2.344a1.053,1.053,0,0,0-1.489,1.489l3.159,3.159a1.053,1.053,0,0,0,1.553-.071Z" transform="translate(-20 -21)" fill="#85e6c4" fill-rule="evenodd"/>
    </g>
  </g>
</svg>
