<svg xmlns="http://www.w3.org/2000/svg" width="45.021" height="45.042" viewBox="0 0 45.021 45.042">
  <g id="refund" transform="translate(-521.318 -167.395)">
    <g id="Group_8640" data-name="Group 8640" transform="translate(-185.999 -3717.564)">
      <path id="Path_17639" data-name="Path 17639" d="M1.379-4.621q.615.039,1.276.039a8.464,8.464,0,0,0,1.3-.1A5.812,5.812,0,0,0,5.16-5a3.53,3.53,0,0,0,1.034-.615A3.077,3.077,0,0,0,6.946-6.6a4.079,4.079,0,0,0,.373-1.433H.816a4.325,4.325,0,0,1,.216-.386l.373-.621q.236-.379.523-.824H6.992a1.017,1.017,0,0,0-.327-.687,3.594,3.594,0,0,0-.792-.621,5.7,5.7,0,0,0-.949-.451,2.441,2.441,0,0,0-.8-.177H.816a3.073,3.073,0,0,1,.229-.471q.177-.314.373-.621l.347-.543a1.487,1.487,0,0,1,.164-.236h10.9l-.072.144q-.072.144-.19.347t-.262.445l-.268.451q-.124.209-.209.347l-.085.137H8.876a8.4,8.4,0,0,1,.478.949,3.4,3.4,0,0,1,.255.988h3.219L11.741-8.036H9.726a5.208,5.208,0,0,1-.687,2.08,5.057,5.057,0,0,1-1.3,1.433,5.915,5.915,0,0,1-1.707.877A10.025,10.025,0,0,1,4.1-3.221a.324.324,0,0,0,.046.085q.046.072.111.164a2.675,2.675,0,0,0,.157.222l5.809,8.02V5.6H7.738L1.379-2.894Z" transform="translate(724.164 3913.052)" fill="#85e6c4"/>
      <path id="Path_17640" data-name="Path 17640" d="M1.05,24.769a21,21,0,1,0,1.313-10.5M1.05,3.769v10.5h10.5" transform="translate(707.949 3885.46)" fill="none" stroke="#6d44e5" stroke-linecap="round" stroke-linejoin="round" stroke-width="3"/>
    </g>
  </g>
</svg>
