<svg id="Easy_Collect" data-name="Easy Collect" xmlns="http://www.w3.org/2000/svg" xmlns:xlink="http://www.w3.org/1999/xlink" width="23.57" height="24" viewBox="0 0 23.57 24">
  <defs>
    <linearGradient id="linear-gradient" x1="0.322" y1="-0.805" x2="0.602" y2="1.258" gradientUnits="objectBoundingBox">
      <stop offset="0" stop-color="#fff5e9"/>
      <stop offset="0.605" stop-color="#7d95e6"/>
      <stop offset="0.999" stop-color="#3f28dd"/>
    </linearGradient>
  </defs>
  <path id="Path_1928" data-name="Path 1928" d="M18.482,9.347a6.621,6.621,0,0,1-.72,2.879A5.932,5.932,0,1,0,11.9,3.485h.617A5.882,5.882,0,0,1,18.482,9.347Z" transform="translate(0.029 -0.4)" fill="#18253e"/>
  <path id="Path_1929" data-name="Path 1929" d="M11.465,4h-.617a5.981,5.981,0,1,0,5.862,8.844,5.453,5.453,0,0,0,.72-2.879A5.969,5.969,0,0,0,11.465,4Z" transform="translate(-0.152 -0.298)" fill="#33eeb1"/>
  <path id="Path_1930" data-name="Path 1930" d="M12.089,8.668H9.312c-.309,0-.411-.1-.411-.309a.377.377,0,0,1,.411-.411h2.777c0-.1-.1-.206-.1-.309a1.482,1.482,0,0,0-1.337-.823H9.209c0,.1-.206,0-.206-.1C8.8,6.509,9,6.2,9.312,6.2h4.216c.206,0,.411.1.411.309a.377.377,0,0,1-.411.411H12.5c.206.309.309.72.514,1.028h.514c.309,0,.411.1.411.411,0,.206-.206.309-.411.309h-.514a2.308,2.308,0,0,1-2.674,1.748c.1.1.1.206.206.206.72.72,1.44,1.44,2.262,2.16l.206.206a.467.467,0,0,1,0,.514.459.459,0,0,1-.514,0,.1.1,0,0,1-.1-.1c-1.028-.926-1.954-1.954-2.982-2.879C9,10.313,8.8,10.211,8.9,10s.309-.206.514-.206h1.337A1.338,1.338,0,0,0,12.089,8.668Z" transform="translate(-0.057 -0.235)" fill="#fff"/>
  <g id="Group_3251" data-name="Group 3251" transform="translate(0 11.555)">
    <g id="Group_3250" data-name="Group 3250">
      <path id="Path_1931" data-name="Path 1931" d="M12.332,19.106H7.4a1.168,1.168,0,0,0-.823.309C5.236,20.751,3.8,22.088,2.46,23.425c-.411.617-.926.823-1.44.514A1.3,1.3,0,0,1,.3,22.6V19.312a1.651,1.651,0,0,1,.514-1.131l4.628-4.628a1.9,1.9,0,0,1,1.234-.514h8.433a1.293,1.293,0,0,1,1.44,1.131c0,.72-.514,1.131-1.44,1.131H12.023c-.206,0-.309.206-.514.309.206.1.309.309.514.309H17.68a1.173,1.173,0,0,0,.617-.309c1.234-1.131,2.365-2.365,3.5-3.5.617-.617,1.337-.617,1.748-.1.514.514.411,1.131-.206,1.748l-4.731,4.731A1.9,1.9,0,0,1,17.371,19,41.63,41.63,0,0,1,12.332,19.106Z" transform="translate(-0.3 -11.637)" fill="url(#linear-gradient)"/>
    </g>
  </g>
</svg>
