<svg xmlns="http://www.w3.org/2000/svg" xmlns:xlink="http://www.w3.org/1999/xlink" width="22.959" height="24" viewBox="0 0 22.959 24">
  <defs>
    <linearGradient id="linear-gradient" x1="-0.049" y1="0.092" x2="0.798" y2="0.923" gradientUnits="objectBoundingBox">
      <stop offset="0" stop-color="#fff5e9"/>
      <stop offset="0.605" stop-color="#7d95e6"/>
      <stop offset="1" stop-color="#3f28dd"/>
    </linearGradient>
  </defs>
  <g id="_7FeesBuzz" data-name="7FeesBuzz" transform="translate(0 -0.408)">
    <path id="Path_1964" data-name="Path 1964" d="M13.48,11.144V3.013a.673.673,0,0,0-.625-.625,4.722,4.722,0,0,0-1.668.313A9.03,9.03,0,0,0,6.7,6.244a9.783,9.783,0,0,0-.313,10.111,9.256,9.256,0,0,0,9.382,4.065c5.108-.73,6.88-5.316,6.984-8.756a.6.6,0,0,0-.625-.625H13.48Z" transform="translate(-1.283 -0.495)" fill="url(#linear-gradient)"/>
    <path id="Path_1965" data-name="Path 1965" d="M18.9,4.707V1.267c0-.73.208-.938,1.042-.834A8.85,8.85,0,0,1,27.66,8.043c.1.834-.1,1.147-.938,1.147h-6.88c-.625,0-.938-.208-.938-.938Z" transform="translate(-4.726 0)" fill="#18253e"/>
    <path id="Path_1966" data-name="Path 1966" d="M0,23.825a4.939,4.939,0,0,1,5.108-4.9A5.056,5.056,0,1,1,5,29.037,5.186,5.186,0,0,1,0,23.825Z" transform="translate(0 -4.628)" fill="#33eeb1"/>
    <path id="Path_1967" data-name="Path 1967" d="M6.585,23.548h-2.4a.313.313,0,1,1,0-.625h2.5c0-.1,0-.208-.1-.208a1.308,1.308,0,0,0-1.147-.626H4.292c-.1,0-.208-.1-.313-.1-.1-.208,0-.417.313-.417H7.836a.313.313,0,1,1,0,.625H6.9c.1.313.313.625.417.938h.417a.313.313,0,0,1,0,.625H7.211c-.208.938-1.042,1.459-2.293,1.355.1.1.208.1.208.208L7,27.2l.1.1a.317.317,0,0,1,0,.417c-.1.1-.208.1-.417,0l-.1-.1c-.834-.834-1.668-1.668-2.606-2.5-.1-.1-.208-.209-.1-.417s.208-.208.417-.208H5.439A1.134,1.134,0,0,0,6.585,23.548Z" transform="translate(-0.958 -5.29)" fill="#fff"/>
  </g>
</svg>
