<svg id="Group_9030" data-name="Group 9030" xmlns="http://www.w3.org/2000/svg" xmlns:xlink="http://www.w3.org/1999/xlink" width="294.128" height="74.952" viewBox="0 0 294.128 74.952">
  <defs>
    <linearGradient id="linear-gradient" y1="0.5" x2="1" y2="0.5" gradientUnits="objectBoundingBox">
      <stop offset="0" stop-color="#83e4c2"/>
      <stop offset="1" stop-color="#6c44e3"/>
    </linearGradient>
    <clipPath id="clip-path">
      <rect id="Rectangle_2311" data-name="Rectangle 2311" width="294.128" height="74.952" fill="none"/>
    </clipPath>
    <clipPath id="clip-path-2">
      <path id="Path_17928" data-name="Path 17928" d="M2555.011,119.658a2.139,2.139,0,0,1-2.115,2.114h-5.989a2.916,2.916,0,0,0-2.55,1.5l-2.438,4.394,13.084,0v8.625a2.518,2.518,0,0,0,1.362,2.237l4.534,2.344V129.781a2.135,2.135,0,0,1,2.114-2.114H2569a2.916,2.916,0,0,0,2.549-1.5l2.438-4.394-13.084,0v-8.557a2.629,2.629,0,0,0-1.422-2.336l-4.473-2.313Z" transform="translate(-2541.92 -108.569)" fill="url(#linear-gradient)"/>
    </clipPath>
  </defs>
  <g id="Group_8905" data-name="Group 8905" transform="translate(262.058 11.193)">
    <g id="Group_8904" data-name="Group 8904" clip-path="url(#clip-path-2)">
      <rect id="Rectangle_2312" data-name="Rectangle 2312" width="32.07" height="32.3" transform="translate(0 0)" fill="url(#linear-gradient)"/>
    </g>
  </g>
  <g id="Group_8907" data-name="Group 8907">
    <g id="Group_8906" data-name="Group 8906" clip-path="url(#clip-path)">
      <path id="Path_17929" data-name="Path 17929" d="M35.053,278.132c1.559-7.779-3.1-12.91-12.088-12.91H7.74L0,303.839H6.786l2.488-12.413h7.668c8.5,0,16.354-4.523,18.089-13.185Zm-6.929.165-.023.11c-.807,4.027-4.581,6.9-9.712,6.9H10.5l2.786-13.9h7.889c5.075,0,7.855,2.372,6.948,6.9" transform="translate(0 -237.879)" fill="#fff"/>
      <path id="Path_17930" data-name="Path 17930" d="M357.847,352.982a28.268,28.268,0,0,0-11.575,2.427l.748,5.351a22.908,22.908,0,0,1,8.695-1.821c4.634,0,6.73,2.207,5.923,6.234l-.111.551a22.364,22.364,0,0,0-7.811-1.213c-6.785,0-12.425,3.09-13.718,9.544l-.022.111c-1.172,5.848,3.052,8.992,8.569,8.992a14.49,14.49,0,0,0,10.274-4.192l-.718,3.586h6.62l3.461-17.267c1.559-7.779-1.727-12.3-10.334-12.3m2.53,19.033c-.73,3.641-4.538,6.124-8.95,6.124-3.145,0-5.318-1.545-4.765-4.3l.022-.111c.564-2.814,3.389-4.523,7.582-4.523a17.174,17.174,0,0,1,6.443,1.158Z" transform="translate(-304.75 -316.591)" fill="#fff"/>
      <path id="Path_17931" data-name="Path 17931" d="M653.344,357.263l-11.892,21.626-3.941-21.626h-7.117l6.3,29.128c-1.612,2.538-2.936,3.365-4.812,3.365a7.02,7.02,0,0,1-3.7-1.1l-3.257,4.965a11.749,11.749,0,0,0,6.542,1.765c4.69,0,7.725-2.206,11.236-8.165L660.3,357.263Z" transform="translate(-560.502 -320.431)" fill="#fff"/>
      <path id="Path_17932" data-name="Path 17932" d="M1007.081,351.377c-4.413,0-7.912,2.041-10.9,5.131-.926-3.09-3.441-5.131-7.633-5.131-4.469,0-7.493,2.427-9.888,5.02l.884-4.414h-6.675l-5.838,29.128H973.7l3.284-16.384c.907-4.524,4-7.282,7.693-7.282s5.395,2.537,4.488,7.061l-3.328,16.605h6.675l3.3-16.44c.94-4.69,4.041-7.227,7.682-7.227,3.752,0,5.405,2.483,4.477,7.117l-3.317,16.55h6.675l3.726-18.592c1.426-7.116-1.628-11.144-7.972-11.144" transform="translate(-867.333 -315.152)" fill="#fff"/>
      <path id="Path_17933" data-name="Path 17933" d="M1502.232,351.377c-8.33,0-15.6,6.841-17.274,15.171l-.022.11c-1.8,8.992,3.48,15.116,11.921,15.116a18.172,18.172,0,0,0,13.011-5.462l-3.22-3.476c-2.771,2.262-5.331,3.476-8.586,3.476-4.3,0-7.138-2.648-6.9-7.392h21.405c.188-.662.364-1.268.486-1.876,1.681-8.385-1.549-15.667-10.817-15.667m4.705,13.13h-14.95c1.514-4.524,5.012-7.669,9.095-7.669,4.413,0,6.276,3.365,5.855,7.669" transform="translate(-1331.532 -315.152)" fill="#fff"/>
      <path id="Path_17934" data-name="Path 17934" d="M1820.382,351.377c-4.524,0-7.7,2.372-10.131,5.131l.907-4.524h-6.675l-5.838,29.128h6.675l3.3-16.44c.906-4.524,4.151-7.227,8.013-7.227,3.972,0,5.715,2.593,4.808,7.117l-3.317,16.55h6.675l3.714-18.536c1.36-6.785-1.562-11.2-8.127-11.2" transform="translate(-1613.215 -315.152)" fill="#fff"/>
      <path id="Path_17935" data-name="Path 17935" d="M2167.044,315.806l1.095-5.462a10.228,10.228,0,0,1-4.337.993c-2.262,0-3.376-1.048-2.856-3.641l2.864-14.289h7.834l1.15-5.737h-7.834l1.6-8h-6.676l-1.6,8h-3.7l-1.15,5.737h3.7l-3.074,15.337c-1.282,6.4,1.762,8.551,6.672,8.551a13.4,13.4,0,0,0,6.312-1.49" transform="translate(-1931.43 -250.838)" fill="#fff"/>
      <path id="Path_17936" data-name="Path 17936" d="M2351.048,364.863l-1.129-.388c-2.729-.943-4.988-1.848-4.618-3.695l.022-.11c.343-1.71,2.075-2.924,4.668-2.924a11.981,11.981,0,0,1,4.749,1.115l3.986-4.641a17.323,17.323,0,0,0-7.508-1.77c-5.793,0-11.046,3.365-12.152,8.881l-.022.111c-1.026,5.121,2.647,7.025,6.4,8.242.33.107.661.211.989.309,3.21,1.048,6.145,1.82,5.691,4.082l-.022.111c-.387,1.931-2.285,3.144-5.154,3.144a12.785,12.785,0,0,1-6.465-1.87,15.162,15.162,0,0,1-2.36-1.715l-3.886,4.524a15.08,15.08,0,0,0,2.318,1.764,17.476,17.476,0,0,0,9.166,2.594c6.068,0,11.421-3.034,12.647-9.158l.023-.111c1.05-5.241-3.362-7.172-7.345-8.5" transform="translate(-2093.591 -316.115)" fill="#fff"/>
    </g>
  </g>
</svg>
