<svg id="Smart_Billing" data-name="Smart Billing" xmlns="http://www.w3.org/2000/svg" xmlns:xlink="http://www.w3.org/1999/xlink" width="23.094" height="24" viewBox="0 0 23.094 24">
  <defs>
    <linearGradient id="linear-gradient" x1="-0.262" y1="-0.41" x2="1.034" y2="1.191" gradientUnits="objectBoundingBox">
      <stop offset="0" stop-color="#fff5e9"/>
      <stop offset="0.605" stop-color="#7d95e6"/>
      <stop offset="0.999" stop-color="#3f28dd"/>
    </linearGradient>
  </defs>
  <path id="Path_1940" data-name="Path 1940" d="M23.4,3.268c-.542-.542-1.084-1.193-1.626-1.843a.608.608,0,0,0-.976,0c-.434.434-.759.976-1.3,1.518-.434-.542-.867-.976-1.3-1.518q-.488-.651-.976,0c-.434.434-.759.976-1.3,1.518-.542-.651-.867-1.084-1.3-1.518q-.488-.651-.976,0c-.434.434-.759.867-1.3,1.518-.434-.542-.867-.976-1.3-1.518a.608.608,0,0,0-.976,0c-.542.651-1.084,1.193-1.626,1.843A2.061,2.061,0,0,0,7.9,4.678V17.8a2.444,2.444,0,0,0,2.277,2.6H21.669a2.444,2.444,0,0,0,2.277-2.6V4.678A2.061,2.061,0,0,0,23.4,3.268Z" transform="translate(-0.853 -1.1)" fill="url(#linear-gradient)"/>
  <g id="Group_3255" data-name="Group 3255" transform="translate(10.517 5.855)">
    <path id="Path_1941" data-name="Path 1941" d="M15.654,11.618H12.184c-.651,0-1.084-.217-1.084-.759,0-.434.325-.759.976-.759h6.939c.651,0,1.084.217,1.084.759s-.325.759-1.084.759Z" transform="translate(-11.1 -6.197)" fill="#18253e"/>
    <path id="Path_1942" data-name="Path 1942" d="M15.654,8.018H12.076c-.651,0-.976-.325-.976-.759,0-.542.434-.759.976-.759h7.156c.542,0,.867.217.867.759a.768.768,0,0,1-.867.759Z" transform="translate(-11.1 -6.5)" fill="#18253e"/>
  </g>
  <path id="Path_1943" data-name="Path 1943" d="M8.556,10.1v5.1c0,1.518.867,2.06,2.277,1.518,1.735-.651,3.578-1.409,5.313-2.06a1.749,1.749,0,0,1,2.385.759,1.686,1.686,0,0,1-.759,2.277c-.867.542-1.843,1.193-2.711,1.843H17.88c.976,0,1.084.108,1.084,1.084v1.409a1.539,1.539,0,0,1-.867,1.518,1.314,1.314,0,0,1-1.626-.217c-.108,0-.108-.108-.217-.108-.976,1.193-1.952,1.193-2.819,0-1.3.759-1.952.542-2.711-.542h-.108c-2.6,1.735-5.638,1.735-8.565,1.626a.575.575,0,0,1-.651-.651v-9a1.377,1.377,0,0,1,.434-.759c1.409-1.084,2.927-2.168,4.337-3.253A5.169,5.169,0,0,1,8.556,10.1Z" transform="translate(-1.4 -0.342)" fill="#33eeb1"/>
</svg>
