<svg id="Web_Store" data-name="Web Store" xmlns="http://www.w3.org/2000/svg" xmlns:xlink="http://www.w3.org/1999/xlink" width="21.582" height="24" viewBox="0 0 21.582 24">
  <defs>
    <linearGradient id="linear-gradient" x1="0.662" y1="2.789" x2="0.396" y2="-0.594" gradientUnits="objectBoundingBox">
      <stop offset="0" stop-color="#fff5e9"/>
      <stop offset="0.605" stop-color="#7d95e6"/>
      <stop offset="0.999" stop-color="#3f28dd"/>
    </linearGradient>
  </defs>
  <g id="Group_3260" data-name="Group 3260" transform="translate(0 0)">
    <path id="Path_1952" data-name="Path 1952" d="M16.542.6h-8A6.828,6.828,0,0,0,1.7,7.442v5.263H23.279V7.442A6.675,6.675,0,0,0,16.542.6Z" transform="translate(-1.7 -0.6)" fill="url(#linear-gradient)"/>
    <path id="Path_1953" data-name="Path 1953" d="M8.542,24.005h7.895a6.828,6.828,0,0,0,6.842-6.842V11.9H1.7v5.263A6.828,6.828,0,0,0,8.542,24.005Z" transform="translate(-1.7 -0.005)" fill="#18253e"/>
  </g>
  <g id="Group_3264" data-name="Group 3264" transform="translate(3.158 7.053)">
    <g id="Group_3263" data-name="Group 3263" transform="translate(1.579 0)">
      <ellipse id="Ellipse_186" data-name="Ellipse 186" cx="1.579" cy="1.579" rx="1.579" ry="1.579" transform="translate(2.632 9.053)" fill="#33eeb1"/>
      <ellipse id="Ellipse_187" data-name="Ellipse 187" cx="1.579" cy="1.579" rx="1.579" ry="1.579" transform="translate(8.316 9.053)" fill="#33eeb1"/>
      <g id="Group_3262" data-name="Group 3262">
        <g id="Group_3261" data-name="Group 3261">
          <path id="Path_1954" data-name="Path 1954" d="M18.726,7.3H6.2c.632,2.211,1.263,4.632,1.895,6.842a1.011,1.011,0,0,0,.947.737h8c1.158,0,1.263-1.158,1.368-1.368.211-.737.842-2.842,1.368-5.158C19.884,7.826,19.253,7.3,18.726,7.3Z" transform="translate(-6.2 -7.3)" fill="#33eeb1"/>
        </g>
      </g>
    </g>
    <path id="Path_1955" data-name="Path 1955" d="M7.332,8.037H5.121c-.211,0-.421-.105-.421-.316h0A.453.453,0,0,1,5.121,7.3H7.332a.453.453,0,0,1,.421.421h0C7.753,7.932,7.542,8.037,7.332,8.037Z" transform="translate(-4.7 -7.3)" fill="#33eeb1"/>
  </g>
</svg>
