<svg width="34" height="32" viewBox="0 0 34 32" fill="none" xmlns="http://www.w3.org/2000/svg">
<path d="M22.8242 25.4383V3.52365V3.35636C22.8242 2.68722 22.4897 2.01807 21.6532 2.01807C20.8168 2.01807 20.6495 2.51993 20.6495 3.35636C20.6495 10.8843 20.6495 18.2449 20.6495 25.7729C20.6495 26.442 20.9841 26.9439 21.6532 26.9439C22.4897 26.9439 22.657 26.442 22.657 25.7729C22.9915 25.4383 22.9915 25.4383 22.8242 25.4383Z" fill="#18253E"/>
<path d="M16.6358 0.010567C12.9555 0.010567 7.76957 0.010567 4.08925 0.010567C1.91451 0.010567 0.0743499 1.85073 0.0743499 4.02546V10.3824C0.0743499 10.3824 -0.0929374 23.5981 0.0743499 29.7877C0.0743499 31.7952 1.07807 32.1297 4.08925 31.9624C4.08925 31.9624 14.1265 31.9624 16.3012 31.9624C19.8143 31.7952 20.9853 31.9624 20.9853 29.4531C20.9853 26.2747 20.9853 23.0962 20.9853 19.9178C20.9853 17.9103 20.9853 9.21137 20.9853 4.02546C20.6507 1.68344 18.9778 -0.15672 16.6358 0.010567Z" fill="url(#paint0_linear)"/>
<path d="M30.1856 6.53472C28.68 6.53472 24.4978 6.53472 22.9922 6.53472V23.2635C24.9997 23.2635 29.3491 23.2635 31.1893 23.2635C32.6949 23.2635 33.0295 22.9289 33.0295 21.5906C33.0295 17.5757 33.0295 13.5608 33.0295 9.54589C33.0295 6.36743 32.8622 6.53472 30.1856 6.53472Z" fill="#33EEB1"/>
<path d="M4.92389 11.5535H15.1284" stroke="#18253E" stroke-miterlimit="10" stroke-linecap="round" stroke-linejoin="round"/>
<path d="M4.92468 19.4158H15.1292" stroke="#18253E" stroke-miterlimit="10" stroke-linecap="round" stroke-linejoin="round"/>
<defs>
<linearGradient id="paint0_linear" x1="-36.2952" y1="-267.007" x2="44.5283" y2="224.862" gradientUnits="userSpaceOnUse">
<stop stop-color="#FFF5E9"/>
<stop offset="0.6046" stop-color="#7D95E6"/>
<stop offset="0.9986" stop-color="#3F28DD"/>
</linearGradient>
</defs>
</svg>
