<svg width="34" height="32" viewBox="0 0 34 32" fill="none" xmlns="http://www.w3.org/2000/svg">
<path d="M22.9903 19.7282C22.835 19.8835 22.6796 19.8835 22.5243 19.8835C22.3689 19.8835 22.2136 19.8835 22.0583 19.7282L18.9515 17.2427L16.1553 19.7282C16 19.8835 15.8447 19.8835 15.6893 19.8835C15.534 19.8835 15.3786 19.8835 15.2233 19.7282L11.9612 17.0874L9.00971 19.7282C8.85437 19.8835 8.69903 19.8835 8.54369 19.8835C8.38835 19.8835 8.23301 19.8835 8.07767 19.7282L4.97087 17.2427L2.17476 19.7282C2.01942 19.8835 1.86408 19.8835 1.70874 19.8835C1.5534 19.8835 1.39806 19.8835 1.24272 19.7282L0 18.6408C0 22.6796 0 26.5631 0 29.3592C0 30.7573 1.08738 32 2.64078 32H21.1262C23.1456 31.8447 23.767 31.068 23.767 29.3592C23.767 27.1845 23.767 22.2136 23.767 18.6408L22.9903 19.7282Z" fill="#33EDB0"/>
<path d="M2.01938 18.4854L4.34947 16.466C5.12617 15.534 6.05821 16.3107 6.05821 16.466L8.69899 18.6408C8.69899 18.6408 11.4951 16.1553 11.4951 16C11.9611 15.534 12.7378 16 12.7378 16.1553L15.6893 18.6408L18.0194 16.6214C18.7961 15.8447 19.7281 16.466 19.7281 16.6214L22.3689 18.7961L23.9223 17.3981C23.9223 16.932 23.9223 16.6214 23.9223 16.3107C23.9223 13.9806 23.9223 6.83495 23.9223 2.95146C23.9223 1.24272 22.5242 0 20.8155 0C16.1553 0 7.61161 0 3.10676 0C1.55336 0 0.310638 1.24272 0.310638 2.79612V5.43689C0.310638 5.43689 0.310638 11.1845 0.310638 17.3981L2.01938 18.4854Z" fill="url(#paint0_linear)"/>
<path d="M7.14563 6.05884H20.1942" stroke="white" stroke-width="0.8613" stroke-miterlimit="10" stroke-linecap="round" stroke-linejoin="round"/>
<path d="M7.14563 12.1169H17.3981" stroke="white" stroke-width="0.8613" stroke-miterlimit="10" stroke-linecap="round" stroke-linejoin="round"/>
<path d="M7.92231 24.5442C6.83493 24.5442 5.90289 24.5442 4.81551 24.5442C4.66017 24.5442 4.66017 24.5442 4.50483 24.5442C4.19416 24.5442 4.03882 24.3889 4.03882 24.0782C4.03882 23.7675 4.19416 23.6122 4.50483 23.6122C4.66017 23.6122 4.97085 23.6122 5.12619 23.6122C6.05823 23.6122 6.99027 23.6122 7.92231 23.6122C7.92231 23.4569 7.92231 23.4569 7.76697 23.3015C7.45629 22.6802 6.83493 22.3695 6.21357 22.3695C5.59221 22.3695 5.12619 22.3695 4.50483 22.3695C4.34949 22.3695 4.19416 22.2141 4.03882 22.2141C3.88348 21.9035 4.03882 21.5928 4.3495 21.5928C4.81551 21.5928 5.28153 21.5928 5.74755 21.5928C6.83493 21.5928 8.07765 21.5928 9.16503 21.5928C9.32037 21.5928 9.32037 21.5928 9.47571 21.5928C9.78639 21.5928 9.94173 21.7481 9.94173 22.0588C9.94173 22.3695 9.78639 22.5248 9.47571 22.5248C9.16503 22.5248 8.85435 22.5248 8.54367 22.5248C8.38833 22.5248 8.38833 22.5248 8.23299 22.5248C8.38833 22.9908 8.69901 23.3015 8.85435 23.7675C9.00969 23.7675 9.32037 23.7675 9.47571 23.7675C9.78639 23.7675 9.94173 23.9229 9.94173 24.2336C9.94173 24.5442 9.78639 24.6996 9.47571 24.6996C9.32037 24.6996 9.00969 24.6996 8.85435 24.6996C8.38833 26.4083 7.30095 27.0297 5.59221 26.8743C5.74755 27.0297 5.74755 27.0297 5.90289 27.185C6.83493 28.117 7.76697 28.8937 8.54367 29.8258L8.69901 29.9811C8.85435 30.1365 8.85435 30.4471 8.69901 30.6025C8.54367 30.7578 8.38833 30.7578 8.07765 30.6025L7.92231 30.4471C6.67959 29.2044 5.43687 28.117 4.3495 26.8743C4.19416 26.719 4.03882 26.5636 4.19415 26.253C4.34949 25.9423 4.50483 25.9423 4.81551 25.9423C5.43687 25.9423 5.90289 25.9423 6.52425 25.9423C7.14561 25.7869 7.76697 25.1656 7.92231 24.5442Z" fill="white"/>
<path d="M31.8446 13.5152V8.85505C32.3106 8.85505 32.932 8.85505 33.398 8.85505C33.864 8.85505 34.0194 8.54437 33.7087 8.07835C32.7767 6.83563 31.8446 5.59292 30.7573 4.3502C30.4466 4.03952 30.2912 4.03952 29.9806 4.3502C29.0485 5.59292 27.9611 6.83563 27.0291 8.23369C26.7184 8.54437 26.8738 8.85505 27.3398 8.85505C27.8058 8.85505 28.8932 8.85505 28.8932 8.85505C28.8932 9.16573 28.8932 10.7191 28.8932 12.4279V13.3599C28.8932 13.6706 29.2039 13.8259 29.3592 13.8259H31.2233C31.6893 13.9813 31.8446 13.8259 31.8446 13.5152Z" fill="url(#paint1_linear)"/>
<path d="M28.8932 18.3306V22.9908C28.4272 22.9908 27.8058 22.9908 27.3398 22.9908C26.8738 22.9908 26.7184 23.3015 27.0291 23.7675C27.9611 25.0102 28.8932 26.2529 29.9806 27.4957C30.2912 27.8063 30.4466 27.8063 30.7573 27.4957C31.6893 26.2529 32.7767 25.0102 33.7087 23.6122C34.0194 23.3015 33.864 22.9908 33.398 22.9908C32.932 22.9908 31.8446 22.9908 31.8446 22.9908C31.8446 22.6801 31.8446 21.1267 31.8446 19.418V18.4859C31.8446 18.1753 31.5339 18.0199 31.3786 18.0199H29.5145C29.2039 17.8646 28.8932 18.0199 28.8932 18.3306Z" fill="#33EDB0"/>
<defs>
<linearGradient id="paint0_linear" x1="-19.4259" y1="-182.878" x2="35.6082" y2="152.044" gradientUnits="userSpaceOnUse">
<stop stop-color="#FFF4E8"/>
<stop offset="0.6046" stop-color="#7D94E5"/>
<stop offset="0.9986" stop-color="#3F28DC"/>
</linearGradient>
<linearGradient id="paint1_linear" x1="30.5522" y1="-1.87909" x2="30.2651" y2="16.7834" gradientUnits="userSpaceOnUse">
<stop stop-color="#FFF4E8"/>
<stop offset="0.6046" stop-color="#7D94E5"/>
<stop offset="0.9986" stop-color="#3F28DC"/>
</linearGradient>
</defs>
</svg>
