<svg width="34" height="32" viewBox="0 0 34 32" fill="none" xmlns="http://www.w3.org/2000/svg">
<path d="M16.6698 25.6001C18.3071 25.4513 18.7536 24.8559 18.7536 23.5164C18.7536 21.135 18.7536 14.8838 18.7536 12.5024C18.7536 10.7163 18.7536 5.507 18.7536 2.38141C18.7536 1.04187 17.7117 0 16.3722 0C12.6512 0 5.80468 0 2.23257 0C0.893027 0 0 1.04187 0 2.23257V3.72095C0 3.72095 0 17.2652 0 23.3675C0 24.5582 0.893027 25.4513 2.08373 25.4513H16.6698V25.6001Z" fill="url(#paint0_linear)"/>
<path d="M23.3676 15.6279C23.3676 13.8418 23.3676 8.63249 23.3676 5.50689C23.3676 4.16735 22.3257 3.12549 20.9862 3.12549C17.2652 3.12549 10.4187 3.12549 6.84659 3.12549C5.35821 3.12549 4.31635 4.16735 4.31635 5.35806V6.84643C4.31635 6.84643 4.31635 20.3907 4.31635 26.493C4.31635 27.6837 5.20937 28.5768 6.40008 28.5768H21.2839C22.9211 28.4279 23.3676 27.8326 23.3676 26.493C23.3676 24.2605 23.3676 17.8604 23.3676 15.6279Z" fill="white"/>
<path d="M22.3257 29.6187C23.9629 29.4698 24.4095 28.8745 24.4095 27.5349C24.4095 25.1535 24.4095 18.9023 24.4095 16.5209C24.4095 14.7349 24.4095 9.52556 24.4095 6.39996C24.4095 5.06042 23.3676 4.01855 22.0281 4.01855C18.3071 4.01855 11.4606 4.01855 7.88845 4.01855C6.54891 4.01855 5.65588 5.06042 5.65588 6.25112V7.7395C5.65588 7.7395 5.65588 21.2837 5.65588 27.3861C5.65588 28.5768 6.54891 29.4698 7.73961 29.4698H22.3257V29.6187Z" fill="url(#paint1_linear)"/>
<path d="M9.97223 9.07886H20.3909" stroke="white" stroke-width="0.8613" stroke-miterlimit="10" stroke-linecap="round" stroke-linejoin="round"/>
<path d="M9.97223 13.8416H18.1583" stroke="white" stroke-width="0.8613" stroke-miterlimit="10" stroke-linecap="round" stroke-linejoin="round"/>
<path d="M13.3955 21.1349C12.5025 21.1349 11.6095 21.1349 10.7165 21.1349C10.5676 21.1349 10.5676 21.1349 10.4188 21.1349C10.2699 21.1349 10.1211 20.9861 9.97227 20.8372C9.97227 20.6884 10.1211 20.5395 10.4188 20.3907C10.5676 20.3907 10.8653 20.3907 11.0141 20.3907C11.7583 20.3907 12.5025 20.3907 13.3955 20.3907C13.3955 20.2419 13.3955 20.2419 13.2467 20.093C12.949 19.4977 12.5025 19.3488 11.9072 19.3488C11.4606 19.3488 11.0141 19.3488 10.4188 19.3488C10.4188 19.2 10.2699 19.2 10.1211 19.0512C9.97227 18.7535 10.1211 18.4558 10.4188 18.4558C10.8653 18.4558 11.163 18.4558 11.6095 18.4558C12.6513 18.4558 13.5444 18.4558 14.5862 18.4558H14.7351C15.0328 18.4558 15.1816 18.6046 15.1816 18.7535C15.1816 18.9023 15.0328 19.2 14.7351 19.2C14.4374 19.2 14.1397 19.2 13.8421 19.2C13.6932 19.2 13.6932 19.2 13.5444 19.2C13.6932 19.4977 13.8421 19.9442 13.9909 20.2419C14.1397 20.2419 14.2886 20.2419 14.5862 20.2419C14.8839 20.2419 15.0328 20.3907 15.0328 20.6884C15.0328 20.8372 14.8839 20.9861 14.5862 20.9861C14.4374 20.9861 14.1397 20.9861 13.9909 20.9861C13.5444 22.3256 12.6514 22.9209 11.163 22.7721C11.3118 22.9209 11.3118 22.9209 11.3118 22.9209C12.056 23.6651 12.8002 24.4093 13.5444 25.1535L13.6932 25.3024C13.8421 25.4512 13.8421 25.6 13.6932 25.7489C13.5444 25.8977 13.3955 25.8977 13.2467 25.7489L13.0979 25.6C12.056 24.5582 11.0141 23.6651 9.97227 22.6233C9.82343 22.4744 9.67459 22.3256 9.82343 22.0279C10.2699 22.1768 10.4188 22.1768 10.5676 22.1768C11.0141 22.1768 11.4606 22.1768 11.9072 22.1768C12.6514 22.1768 13.2467 21.7302 13.3955 21.1349Z" fill="white"/>
<path d="M24.4095 32.0001C29.1771 32.0001 33.042 28.1351 33.042 23.3675C33.042 18.5998 29.1771 14.7349 24.4095 14.7349C19.6418 14.7349 15.7769 18.5998 15.7769 23.3675C15.7769 28.1351 19.6418 32.0001 24.4095 32.0001Z" fill="#33EDB0"/>
<path d="M25.8979 29.47V25.749C26.3444 25.749 26.9397 25.749 27.3862 25.749C27.8328 25.749 27.9816 25.4514 27.6839 25.0048C26.7909 23.8141 25.8979 22.6234 24.856 21.4327C24.5583 21.1351 24.4095 21.1351 24.1118 21.4327C23.2188 22.6234 22.1769 23.8141 21.2839 25.1537C20.9862 25.4514 21.1351 25.749 21.5816 25.749C22.0281 25.749 23.07 25.749 23.07 25.749C23.07 26.0467 23.07 26.9397 23.07 28.4281V29.3211C23.07 29.6188 23.3676 29.7677 23.5165 29.7677H25.3025C25.749 29.9165 25.8979 29.7677 25.8979 29.47Z" fill="white"/>
<path d="M20.0931 19.4976H28.8746" stroke="white" stroke-width="0.8613" stroke-miterlimit="10" stroke-linecap="round" stroke-linejoin="round"/>
<defs>
<linearGradient id="paint0_linear" x1="-30.9004" y1="-230.866" x2="38.9352" y2="194.134" gradientUnits="userSpaceOnUse">
<stop stop-color="#FFF4E8"/>
<stop offset="0.6046" stop-color="#7D94E5"/>
<stop offset="0.9986" stop-color="#3F28DC"/>
</linearGradient>
<linearGradient id="paint1_linear" x1="-25.153" y1="-226.847" x2="44.6827" y2="198.152" gradientUnits="userSpaceOnUse">
<stop stop-color="#FFF4E8"/>
<stop offset="0.6046" stop-color="#7D94E5"/>
<stop offset="0.9986" stop-color="#3F28DC"/>
</linearGradient>
</defs>
</svg>
