<svg width="34" height="32" viewBox="0 0 34 32" fill="none" xmlns="http://www.w3.org/2000/svg">
<path d="M21.2293 32C23.2585 31.8439 23.8829 31.0634 23.8829 29.3463C23.8829 26.3805 23.8829 18.5756 23.8829 15.6098C23.8829 13.2683 23.8829 6.86829 23.8829 2.96585C23.8829 1.24878 22.4781 0 20.761 0C16.0781 0 7.49268 0 2.96585 0C1.40488 0 0.156098 1.24878 0.156098 2.80976V4.68293C0.156098 4.68293 0 21.5415 0 29.3463C0 30.7512 1.09268 32 2.65366 32H21.2293Z" fill="url(#paint0_linear)"/>
<path d="M5.77563 6.39941H18.8878" stroke="white" stroke-width="0.8613" stroke-miterlimit="10" stroke-linecap="round" stroke-linejoin="round"/>
<path d="M5.77563 12.3311H16.0781" stroke="white" stroke-width="0.8613" stroke-miterlimit="10" stroke-linecap="round" stroke-linejoin="round"/>
<path d="M9.9902 21.3849C8.89752 21.3849 7.80483 21.3849 6.71215 21.3849C6.55605 21.3849 6.55605 21.3849 6.39995 21.3849C6.08776 21.3849 5.93166 21.2288 5.93166 20.9166C5.93166 20.6044 6.08776 20.4483 6.39995 20.4483C6.71215 20.4483 6.86825 20.4483 7.18044 20.4483C8.11703 20.4483 9.05361 20.4483 10.1463 20.4483C10.1463 20.2922 10.1463 20.1361 9.9902 20.1361C9.678 19.5117 9.05361 19.1995 8.27313 19.0434C7.64874 19.0434 7.02435 19.0434 6.55605 19.0434C6.39995 19.0434 6.24386 18.8873 6.08776 18.8873C5.93166 18.5751 6.08776 18.2629 6.55605 18.2629C7.02435 18.2629 7.49264 18.2629 7.96093 18.2629C9.20971 18.2629 10.4585 18.2629 11.5512 18.2629C11.7073 18.2629 11.7073 18.2629 11.8634 18.2629C12.1756 18.2629 12.3317 18.419 12.3317 18.7312C12.3317 19.0434 12.1756 19.1995 11.8634 19.1995C11.5512 19.1995 11.239 19.1995 10.7707 19.1995C10.6146 19.1995 10.6146 19.1995 10.4585 19.1995C10.6146 19.6678 10.9268 20.1361 11.0829 20.6044C11.239 20.6044 11.5512 20.6044 11.7073 20.6044C12.0195 20.6044 12.1756 20.7605 12.1756 21.0727C12.1756 21.3849 12.0195 21.541 11.7073 21.541C11.3951 21.541 11.239 21.541 10.9268 21.541C10.4585 23.2581 9.20971 24.0385 7.49264 23.8825C7.64874 23.8825 7.64874 23.8825 7.80483 24.0386C8.74142 24.9751 9.678 25.9117 10.6146 26.8483L10.7707 27.0044C10.9268 27.1605 10.9268 27.4727 10.7707 27.6288C10.6146 27.7849 10.4585 27.7849 10.1463 27.6288L9.9902 27.4727C8.74142 26.2239 7.49264 24.9751 6.08776 23.7264C5.93166 23.5703 5.77556 23.4142 5.93166 23.102C6.08776 22.7898 6.24386 22.7898 6.55605 22.7898C7.18044 22.7898 7.64874 22.7898 8.27313 22.7898C9.05361 22.7898 9.8341 22.1654 9.9902 21.3849Z" fill="white"/>
<path d="M24.6634 31.9999C29.6636 31.9999 33.7171 27.9464 33.7171 22.9462C33.7171 17.946 29.6636 13.8926 24.6634 13.8926C19.6632 13.8926 15.6097 17.946 15.6097 22.9462C15.6097 27.9464 19.6632 31.9999 24.6634 31.9999Z" fill="#33EDB0"/>
<path d="M25.4439 26.224C24.5073 26.224 23.5707 26.224 22.6341 26.224C22.478 26.224 22.3219 26.3801 22.1658 26.3801C21.3853 27.1606 20.6049 27.9411 19.8244 28.7216C19.5122 29.0338 19.3561 29.0338 19.0439 28.8777C18.7317 28.7216 18.7317 28.4094 18.7317 28.0972C18.7317 27.4728 18.7317 26.8484 18.7317 26.224C18.7317 26.0679 18.8878 25.7557 19.0439 25.5996C19.8244 24.663 20.761 23.8825 21.6975 22.9459C21.8536 22.7899 22.1658 22.6338 22.3219 22.6338C23.8829 22.6338 25.4439 22.6338 27.0049 22.6338C27.4732 22.6338 27.7853 22.9459 27.7853 23.2581C27.7853 23.7264 27.4732 23.8825 27.0049 23.8825C26.3805 23.8825 25.9122 23.8825 25.2878 23.8825C25.1317 23.8825 25.1317 24.0386 24.9756 24.0386C25.1317 24.0386 25.1317 24.1947 25.2878 24.1947C26.3805 24.1947 27.3171 24.1947 28.4097 24.1947C28.5658 24.1947 28.7219 24.0386 28.7219 24.0386C29.3463 23.4142 29.9707 22.7899 30.7512 22.0094C31.0634 21.6972 31.5317 21.6972 31.6878 21.8533C32 22.1655 32 22.4777 31.5317 22.7898C30.5951 23.7264 29.8146 24.5069 28.878 25.4435C28.7219 25.5996 28.4097 25.7557 28.0975 25.7557C27.3171 26.224 26.3805 26.224 25.4439 26.224Z" fill="white"/>
<path d="M26.2244 21.2288C27.2589 21.2288 28.0975 20.3901 28.0975 19.3556C28.0975 18.3211 27.2589 17.4824 26.2244 17.4824C25.1898 17.4824 24.3512 18.3211 24.3512 19.3556C24.3512 20.3901 25.1898 21.2288 26.2244 21.2288Z" fill="white"/>
<path d="M24.3513 16.2339C23.2586 16.2339 22.4781 17.0144 22.4781 18.1071C22.4781 18.7314 23.1025 19.5119 23.883 19.668C23.883 19.1997 23.7269 17.6388 25.9122 17.1705C25.6 16.7022 24.9756 16.2339 24.3513 16.2339Z" fill="white"/>
<defs>
<linearGradient id="paint0_linear" x1="-38.1744" y1="-288.574" x2="49.125" y2="242.705" gradientUnits="userSpaceOnUse">
<stop stop-color="#FFF4E8"/>
<stop offset="0.6046" stop-color="#7D94E5"/>
<stop offset="0.9986" stop-color="#3F28DC"/>
</linearGradient>
</defs>
</svg>
