<svg width="32" height="32" viewBox="0 0 32 32" fill="none" xmlns="http://www.w3.org/2000/svg">
<path d="M0.143471 7.46631C3.44331 7.46631 6.74315 7.46631 10.1865 7.46631C10.9038 7.46631 11.1908 7.60978 11.3342 8.32714C11.6212 9.18796 12.0516 10.0488 12.3385 10.9096C12.482 11.34 12.769 11.4835 13.1994 11.4835C16.9296 11.4835 20.6599 11.4835 24.2467 11.4835C24.5336 11.4835 24.8205 11.4835 25.1075 11.4835C25.1075 12.2009 25.1075 12.7747 25.1075 13.4921C26.6857 13.4921 28.1204 13.4921 29.6986 13.4921C28.1204 19.6614 26.5422 25.8306 24.964 31.9999C24.6771 31.9999 24.3901 31.9999 24.1032 31.9999C16.3557 31.9999 8.75175 31.9999 1.0043 31.9999C0.717357 31.9999 0.430414 31.9999 0 31.9999C0.143471 23.822 0.143471 15.6442 0.143471 7.46631ZM25.1075 26.8349C25.1075 26.8349 25.251 26.8349 25.1075 26.8349C26.2553 22.8177 27.403 18.6571 28.4073 14.6399C27.2596 14.6399 26.2553 14.6399 25.1075 14.6399C25.1075 18.6571 25.1075 22.6743 25.1075 26.8349Z" fill="url(#paint0_linear)"/>
<path d="M11.4777 28.9872H4.0172C3.58679 28.9872 3.15637 28.5568 3.15637 28.1264V24.2527C3.15637 23.8223 3.58679 23.3918 4.0172 23.3918H11.4777C11.9081 23.3918 12.3385 23.8223 12.3385 24.2527V28.1264C12.3385 28.5568 11.9081 28.9872 11.4777 28.9872Z" fill="white"/>
<path d="M15.208 12.7751C15.3514 9.47526 15.4949 6.3189 15.7819 3.01905C15.9253 3.01905 15.9253 3.16252 16.0688 3.16252C17.9339 4.02335 19.7991 4.3103 21.8077 3.87988C22.9554 3.59294 24.1032 3.306 25.251 3.01905C27.5465 2.44517 29.6986 2.73211 31.7072 3.73641C31.5637 7.03625 31.4202 10.1926 31.1333 13.4925C30.8464 13.349 30.7029 13.349 30.4159 13.2055C28.8378 12.4882 27.1161 12.2012 25.3944 12.6316C24.2467 12.7751 23.0989 13.2055 22.0946 13.4925C19.7991 14.0663 17.36 13.7794 15.208 12.7751ZM16.3557 11.3404C17.2166 11.4839 17.647 11.6273 17.7905 12.2012C17.9339 12.4882 18.0774 12.6316 18.3643 12.6316C19.6556 12.7751 20.8034 12.6316 22.0946 12.3447C23.3858 12.0577 24.5336 11.6273 25.8249 11.4839C26.6857 11.3404 27.5465 11.4839 28.4073 11.4839C28.6943 10.7665 29.2682 10.3361 30.129 10.4796C30.2725 8.75791 30.2725 7.03625 30.4159 5.3146C29.6986 5.3146 29.2682 5.17112 28.9812 4.45377C28.8378 4.16682 28.5508 4.02335 28.2639 4.02335C26.8292 3.87988 25.5379 4.16682 24.1032 4.59724C22.2381 5.17112 20.3729 5.45807 18.5078 5.3146C18.3643 5.3146 18.3643 5.45807 18.2209 5.45807C17.9339 6.03195 17.5035 6.31889 16.7862 6.31889C16.6427 6.31889 16.6427 6.31889 16.4992 6.31889C16.4992 7.89708 16.4992 9.61874 16.3557 11.3404Z" fill="#33EDB0"/>
<path d="M16.3557 11.3404C16.4992 9.6187 16.4992 7.89705 16.6427 6.17539C16.7862 6.17539 16.7862 6.17539 16.9296 6.17539C17.647 6.17539 18.0774 5.88845 18.3643 5.31456C18.3643 5.17109 18.5078 5.17109 18.6513 5.17109C20.5164 5.45804 22.3815 5.02762 24.2467 4.45374C25.5379 4.02332 26.9726 3.73638 28.4073 3.87985C28.6943 3.87985 28.9812 4.02332 29.1247 4.31026C29.4116 4.88415 29.9855 5.17109 30.5594 5.17109C30.4159 6.89275 30.4159 8.61441 30.2725 10.3361C29.4116 10.1926 28.8378 10.623 28.5508 11.3404C27.69 11.3404 26.8292 11.1969 25.9683 11.3404C24.6771 11.4838 23.5293 11.9142 22.2381 12.2012C20.9468 12.4881 19.7991 12.6316 18.5078 12.4881C18.2209 12.4881 18.0774 12.4881 17.9339 12.0577C17.647 11.6273 17.2166 11.4838 16.3557 11.3404ZM25.5379 8.47093C25.5379 7.89705 25.3944 7.32316 25.1075 6.89275C24.5336 5.74498 23.2424 5.45803 22.2381 6.31886C21.0903 7.32316 20.9468 9.33176 21.9511 10.4795C22.6685 11.1969 23.5293 11.1969 24.3901 10.623C25.251 10.0491 25.5379 9.33176 25.5379 8.47093ZM19.0817 8.04052C18.6513 8.04052 18.2209 8.32746 18.2209 8.90135C18.2209 9.33176 18.5078 9.76218 19.0817 9.76218C19.5121 9.76218 19.9425 9.47523 19.9425 8.90135C19.9425 8.47093 19.6556 8.04052 19.0817 8.04052ZM27.69 8.47093C28.1204 8.47093 28.5508 8.18399 28.5508 7.61011C28.5508 7.17969 28.2639 6.74928 27.69 6.74928C27.2596 6.74928 26.8292 7.03622 26.8292 7.61011C26.8292 8.04052 27.2596 8.47093 27.69 8.47093Z" fill="white"/>
<path d="M24.6771 8.47086C24.6771 8.90128 24.5336 9.33169 24.1032 9.61864C23.6728 9.90558 23.0989 9.90558 22.6685 9.47516C22.0946 8.90128 22.0946 7.61004 22.812 7.03615C23.3859 6.60574 24.1032 6.74921 24.3902 7.32309C24.6771 7.89698 24.6771 8.18392 24.6771 8.47086Z" fill="#33EDB0"/>
<path d="M19.0817 8.04053C19.6556 8.04053 19.9425 8.47094 19.9425 8.90136C19.9425 9.33177 19.5121 9.76218 19.0817 9.61871C18.6513 9.61871 18.2209 9.1883 18.2209 8.75788C18.2209 8.32747 18.6513 8.04053 19.0817 8.04053Z" fill="#33EDB0"/>
<path d="M27.69 8.47092C27.2596 8.47092 26.8292 8.04051 26.8292 7.6101C26.8292 7.17968 27.2596 6.74927 27.69 6.74927C28.1204 6.74927 28.5508 7.17968 28.5508 7.6101C28.5508 8.18398 28.1204 8.47092 27.69 8.47092Z" fill="#33EDB0"/>
<path d="M15.208 10.0485C15.3514 6.7487 15.6384 3.59233 15.7819 0.292491C15.9253 0.292491 15.9253 0.435962 16.0688 0.435962C17.9339 1.29679 19.7991 1.58373 21.8077 1.15332C22.9554 0.866377 24.1032 0.579434 25.251 0.292491C27.5465 -0.281394 29.6986 0.00554834 31.7072 1.00985C31.5637 4.16622 31.4202 7.46606 31.2768 10.7659C30.9898 10.6224 30.8464 10.6224 30.5594 10.479C28.9812 9.7616 27.2596 9.47466 25.5379 9.90507C24.3901 10.0485 23.2424 10.479 22.2381 10.7659C19.7991 11.3398 17.5035 11.0528 15.208 10.0485ZM16.4992 8.61383C17.36 8.7573 17.7905 8.90077 17.9339 9.47466C18.0774 9.7616 18.2209 9.90507 18.5078 9.90507C19.7991 10.0485 20.9468 9.90507 22.2381 9.61813C23.5293 9.33119 24.6771 8.90077 25.9683 8.7573C26.8292 8.61383 27.69 8.7573 28.5508 8.7573C28.8378 8.03994 29.4116 7.60953 30.2725 7.753C30.4159 6.03135 30.4159 4.30969 30.5594 2.58803C29.8421 2.58803 29.4116 2.44456 29.1247 1.7272C28.9812 1.44026 28.6943 1.29679 28.4073 1.29679C26.9726 1.00985 25.6814 1.29679 24.2467 1.7272C22.3815 2.30109 20.5164 2.58803 18.6513 2.44456C18.5078 2.44456 18.5078 2.58803 18.3643 2.58803C18.0774 3.16192 17.647 3.44886 16.9296 3.44886C16.7862 3.44886 16.7862 3.44886 16.6427 3.44886C16.6427 5.17052 16.6427 6.89217 16.4992 8.61383Z" fill="#33EDB0"/>
<path d="M16.4992 8.6138C16.6427 6.89214 16.6427 5.17049 16.7861 3.44883C16.9296 3.44883 16.9296 3.44883 17.0731 3.44883C17.7904 3.44883 18.2209 3.16189 18.5078 2.588C18.5078 2.44453 18.6513 2.44453 18.7947 2.44453C20.6599 2.588 22.525 2.30106 24.2467 1.72717C25.5379 1.29676 26.9726 1.00982 28.4073 1.15329C28.6943 1.15329 28.9812 1.29676 29.1247 1.5837C29.4116 2.15759 29.9855 2.44453 30.5594 2.44453C30.4159 4.16619 30.4159 5.88784 30.2725 7.6095C29.4116 7.46603 28.8377 7.89644 28.5508 8.6138C27.69 8.6138 26.8291 8.47033 25.9683 8.6138C24.6771 8.75727 23.5293 9.18768 22.2381 9.47463C20.9468 9.76157 19.799 9.90504 18.5078 9.76157C18.2209 9.76157 18.0774 9.76157 17.9339 9.33116C17.7904 8.90074 17.36 8.75727 16.4992 8.6138ZM19.2252 5.31396C18.7947 5.31396 18.3643 5.6009 18.3643 6.17479C18.3643 6.6052 18.6513 7.03561 19.2252 7.03561C19.6556 7.03561 20.086 6.74867 20.086 6.31826C20.086 5.74437 19.799 5.31396 19.2252 5.31396ZM27.8334 5.74437C28.2639 5.74437 28.6943 5.45743 28.6943 4.88354C28.6943 4.45313 28.4073 4.02272 27.8334 4.02272C27.403 4.02272 26.9726 4.30966 26.9726 4.88354C26.9726 5.31396 27.2596 5.74437 27.8334 5.74437Z" fill="white"/>
<path d="M24.8206 5.7443C24.8206 6.17472 24.6771 6.60513 24.2467 6.89207C23.8163 7.17902 23.2424 7.17902 22.812 6.7486C22.2381 6.17472 22.2381 4.88347 22.9554 4.30959C23.5293 3.87917 24.2467 4.02265 24.5336 4.59653C24.8206 5.02694 24.8206 5.45736 24.8206 5.7443Z" fill="#33EDB0"/>
<path d="M19.2252 5.31396C19.6556 5.31396 20.086 5.74438 19.9425 6.17479C19.9425 6.60521 19.5121 7.03562 19.0817 6.89215C18.6513 6.89215 18.2209 6.46174 18.2209 6.03132C18.3644 5.60091 18.7948 5.31396 19.2252 5.31396Z" fill="#33EDB0"/>
<path d="M27.8335 5.74461C27.403 5.74461 26.9726 5.31419 26.9726 4.88378C26.9726 4.45336 27.403 4.02295 27.8335 4.02295C28.2639 4.02295 28.6943 4.45336 28.6943 4.88378C28.6943 5.31419 28.2639 5.74461 27.8335 5.74461Z" fill="#33EDB0"/>
<defs>
<linearGradient id="paint0_linear" x1="11.7312" y1="-8.07724" x2="17.4686" y2="47.8627" gradientUnits="userSpaceOnUse">
<stop stop-color="#FFF4E8"/>
<stop offset="0.6046" stop-color="#7D94E5"/>
<stop offset="0.9986" stop-color="#3F28DC"/>
</linearGradient>
</defs>
</svg>
