<svg width="34" height="32" viewBox="0 0 34 32" fill="none" xmlns="http://www.w3.org/2000/svg">
<path d="M21.2293 32C23.2585 31.8439 23.8829 31.0634 23.8829 29.3463C23.8829 26.3805 23.8829 18.5756 23.8829 15.6098C23.8829 13.2683 23.8829 6.86829 23.8829 2.96585C23.8829 1.24878 22.478 0 20.761 0C16.078 0 7.49268 0 2.96585 0C1.40488 0 0.156098 1.24878 0.156098 2.80976V4.68293C0.156098 4.68293 0 21.5415 0 29.3463C0 30.7512 1.09268 32 2.65366 32H21.2293Z" fill="url(#paint0_linear)"/>
<path d="M5.77563 6.40015H18.8878" stroke="white" stroke-width="1.5" stroke-miterlimit="10" stroke-linecap="round" stroke-linejoin="round"/>
<path d="M5.77563 12.332H16.0781" stroke="white" stroke-width="1.5" stroke-miterlimit="10" stroke-linecap="round" stroke-linejoin="round"/>
<path d="M9.99024 21.3856C8.89755 21.3856 7.80487 21.3856 6.71219 21.3856C6.55609 21.3856 6.55609 21.3856 6.39999 21.3856C6.0878 21.3856 5.9317 21.2295 5.9317 20.9173C5.9317 20.6051 6.0878 20.449 6.39999 20.449C6.71219 20.449 6.86829 20.449 7.18048 20.449C8.11707 20.449 9.05365 20.449 10.1463 20.449C10.1463 20.2929 10.1463 20.1368 9.99024 20.1368C9.67804 19.5125 9.05365 19.2003 8.27316 19.0442C7.64877 19.0442 7.02438 19.0442 6.55609 19.0442C6.39999 19.0442 6.2439 18.8881 6.0878 18.8881C5.9317 18.5759 6.0878 18.2637 6.55609 18.2637C7.02438 18.2637 7.49268 18.2637 7.96097 18.2637C9.20975 18.2637 10.4585 18.2637 11.5512 18.2637C11.7073 18.2637 11.7073 18.2637 11.8634 18.2637C12.1756 18.2637 12.3317 18.4198 12.3317 18.732C12.3317 19.0442 12.1756 19.2003 11.8634 19.2003C11.5512 19.2003 11.239 19.2003 10.7707 19.2003C10.6146 19.2003 10.6146 19.2003 10.4585 19.2003C10.6146 19.6685 10.9268 20.1368 11.0829 20.6051C11.239 20.6051 11.5512 20.6051 11.7073 20.6051C12.0195 20.6051 12.1756 20.7612 12.1756 21.0734C12.1756 21.3856 12.0195 21.5417 11.7073 21.5417C11.3951 21.5417 11.239 21.5417 10.9268 21.5417C10.4585 23.2588 9.20975 24.0393 7.49268 23.8832C7.64877 24.0393 7.64877 24.0393 7.80487 24.1954C8.74146 25.132 9.67804 26.0686 10.6146 27.0051L10.7707 27.1612C10.9268 27.3173 10.9268 27.6295 10.7707 27.7856C10.6146 27.9417 10.4585 27.9417 10.1463 27.7856L9.99024 27.6295C8.74146 26.3807 7.49268 25.132 6.0878 23.8832C5.9317 23.7271 5.7756 23.571 5.9317 23.2588C6.0878 22.9466 6.24389 22.9466 6.55609 22.9466C7.18048 22.9466 7.64877 22.9466 8.27316 22.9466C9.05365 22.7905 9.83414 22.1661 9.99024 21.3856Z" fill="white"/>
<path d="M24.6634 31.9999C29.6636 31.9999 33.7171 27.9464 33.7171 22.9462C33.7171 17.946 29.6636 13.8926 24.6634 13.8926C19.6632 13.8926 15.6098 17.946 15.6098 22.9462C15.6098 27.9464 19.6632 31.9999 24.6634 31.9999Z" fill="#33EDB0"/>
<path d="M23.7268 17.7953C25.2878 17.9514 26.8488 19.0441 27.161 20.9173C27.4732 22.4783 26.6927 24.1953 25.1317 25.1319C23.5707 26.0685 21.8536 25.6002 20.6049 24.5075C19.3561 23.4148 19.0439 21.5417 19.6683 19.9807C20.6049 18.2636 22.1658 17.6392 23.7268 17.7953ZM23.4146 18.7319C21.8536 18.7319 20.4488 19.9807 20.4488 21.6978C20.4488 23.2587 21.6975 24.6636 23.4146 24.6636C24.9756 24.6636 26.3805 23.4148 26.3805 21.6978C26.2244 19.9807 24.9756 18.7319 23.4146 18.7319Z" fill="white"/>
<path d="M28.7219 28.0978C28.5658 27.9417 28.2536 27.7856 28.0976 27.6296C27.4732 27.0052 26.6927 26.2247 26.0683 25.6003L25.9122 25.4442C26.3805 24.9759 26.8488 24.5076 27.3171 24.0393C27.7854 24.5076 28.2536 24.9759 28.7219 25.4442C29.0341 25.7564 29.1902 25.9125 29.5024 26.2247C29.6585 26.3808 29.8146 26.693 29.9707 26.8491C29.9707 27.0052 29.9707 27.1613 29.9707 27.1613C29.8146 27.6296 29.6585 27.7856 29.1902 27.9417C28.878 28.0978 28.878 28.0978 28.7219 28.0978Z" fill="white"/>
<defs>
<linearGradient id="paint0_linear" x1="-38.1562" y1="-288.566" x2="49.1431" y2="242.712" gradientUnits="userSpaceOnUse">
<stop stop-color="#FFF4E8"/>
<stop offset="0.6046" stop-color="#7D94E5"/>
<stop offset="0.9986" stop-color="#3F28DC"/>
</linearGradient>
</defs>
</svg>
