<svg width="37" height="32" viewBox="0 0 37 32" fill="none" xmlns="http://www.w3.org/2000/svg">
<path d="M11.5598 32C8.9523 26.9589 6.171 21.9178 3.56354 16.7029C3.73737 16.7029 3.9112 16.7029 4.08503 16.7029C7.56165 16.3552 10.8644 14.9645 13.4719 12.5309C15.0364 11.1403 16.427 9.57578 17.9915 8.01131C20.9466 5.23001 24.4233 3.66553 28.4214 3.31787C31.0288 8.35897 33.8101 13.4001 36.4176 18.615C36.0699 18.615 35.5484 18.7888 35.2008 18.7888C32.2456 19.3103 29.4643 20.3533 27.2045 22.2654C25.6401 23.6561 24.4233 25.0467 22.8588 26.6112C19.556 29.7402 15.9055 31.4785 11.5598 32ZM12.0813 28.6972C13.4719 28.0019 14.3411 28.0019 15.0364 28.6972C15.5579 29.0449 15.9055 29.0449 16.2532 28.6972C18.3392 27.828 20.0775 26.4374 21.642 24.8729C23.2064 23.3084 24.7709 21.7439 26.5092 20.3533C27.726 19.4841 29.1167 18.7888 30.3335 17.9197C29.9858 16.529 30.6812 15.486 32.0718 14.7907C30.6812 12.0094 29.2905 9.40195 27.8999 6.79449C26.8569 7.48981 25.9877 7.66364 24.9447 6.96832C24.4233 6.62066 24.0756 6.62066 23.5541 6.96832C21.2943 8.01131 19.3822 9.57579 17.8177 11.4879C15.5579 13.9216 13.1242 16.1814 9.99528 17.572C9.82145 17.572 9.82145 17.9197 9.82145 18.0935C9.99528 19.3103 9.47379 20.1795 8.4308 20.701C8.25697 20.701 8.25697 20.8748 8.08314 20.8748C9.29996 23.3084 10.6906 25.9159 12.0813 28.6972Z" fill="#33EDB0"/>
<path d="M12.0813 28.6972C10.6906 25.9159 9.29996 23.3084 7.90932 20.7009C8.08315 20.7009 8.25698 20.5271 8.25698 20.5271C9.29997 20.0056 9.64763 19.1365 9.64763 17.9197C9.64763 17.7458 9.64763 17.3982 9.82146 17.3982C12.9504 16.0075 15.384 13.9215 17.6438 11.3141C19.3822 9.40194 21.1205 7.83746 23.3803 6.79447C23.9018 6.62064 24.2494 6.44681 24.7709 6.79447C25.6401 7.4898 26.6831 7.31597 27.726 6.62064C29.1167 9.40194 30.5073 12.0094 31.898 14.6169C30.5073 15.3122 29.9858 16.3552 30.1597 17.7458C28.769 18.615 27.3784 19.1365 26.3354 20.1795C24.5971 21.5701 23.0326 23.1346 21.4681 24.6991C19.9037 26.2635 18.1653 27.6542 16.0794 28.5233C15.7317 28.6972 15.384 28.871 14.8626 28.5233C14.3411 28.0018 13.4719 28.0018 12.0813 28.6972ZM13.2981 21.2224C12.6028 21.5701 12.2551 22.4393 12.6028 23.3084C12.9504 24.0037 13.8196 24.3514 14.5149 24.0037C15.2102 23.6561 15.5579 22.7869 15.2102 22.0916C14.8626 21.0486 13.9934 20.8748 13.2981 21.2224ZM26.6831 14.0954C27.3784 13.7477 27.726 12.7047 27.3784 12.0094C27.0307 11.3141 25.9877 10.9664 25.2924 11.4879C24.5971 11.8356 24.2494 12.7047 24.7709 13.4C24.9447 14.2692 25.8139 14.443 26.6831 14.0954Z" fill="white"/>
<path d="M22.1635 16.8766C22.5111 17.5719 22.6849 18.4411 22.3373 19.1364C21.9896 20.0056 21.1205 20.5271 20.0775 20.1794C18.513 19.8318 17.6438 17.9196 18.1653 16.3551C18.513 15.1383 19.7298 14.7907 20.9466 15.486C21.4681 15.8336 21.8158 16.3551 22.1635 16.8766Z" fill="#33EDB0"/>
<path d="M13.2981 21.2223C13.9934 20.8747 14.8626 21.0485 15.3841 21.9176C15.7317 22.613 15.3841 23.4821 14.6887 23.8298C13.9934 24.1774 13.1242 24.0036 12.7766 23.1345C12.2551 22.4391 12.6028 21.57 13.2981 21.2223Z" fill="#33EDB0"/>
<path d="M26.683 14.0955C25.9877 14.4432 25.1186 14.2693 24.5971 13.4002C24.2494 12.7049 24.4232 11.8357 25.1186 11.488C25.8139 11.1404 26.683 11.3142 27.2045 12.0095C27.726 12.8787 27.3784 13.7478 26.683 14.0955Z" fill="#33EDB0"/>
<path d="M25.9877 8.35956C25.2924 8.53339 24.5971 8.70722 24.0756 8.53339C22.5111 8.35956 21.2943 8.0119 20.2513 7.14274C19.2083 6.27359 18.1653 6.27359 16.9485 7.14274C13.8196 9.05488 12.7766 12.5315 8.95229 13.9221C7.90931 14.2698 5.99717 14.096 5.30184 13.9221C3.21587 13.5745 1.65139 11.4885 0.260746 9.75021C-0.0869155 9.40255 -0.0869155 9.05488 0.260746 8.53339C2.17289 5.40443 4.43269 2.79697 7.21398 0.363336C7.56165 0.0156745 8.25697 -0.158157 8.60463 0.189505C9.64762 0.710998 10.6906 1.58015 11.7336 2.27548C12.0812 2.44931 12.7766 2.44931 13.1242 2.44931C15.0364 2.27548 17.1223 1.92781 19.0345 1.58015C20.599 1.23249 21.9896 1.92781 23.2064 3.31846C24.0756 4.18762 25.2924 4.88294 26.5092 5.57826C28.0737 6.44742 28.4214 7.14274 27.2045 7.83807C26.8569 8.0119 26.5092 8.18573 25.9877 8.35956Z" fill="url(#paint0_linear)"/>
<defs>
<linearGradient id="paint0_linear" x1="10.9274" y1="-8.8125" x2="18.2745" y2="31.7897" gradientUnits="userSpaceOnUse">
<stop stop-color="#FFF4E8"/>
<stop offset="0.6046" stop-color="#7D94E5"/>
<stop offset="0.9986" stop-color="#3F28DC"/>
</linearGradient>
</defs>
</svg>
