<svg width="34" height="32" viewBox="0 0 34 32" fill="none" xmlns="http://www.w3.org/2000/svg">
<path d="M21.2293 32C23.2585 31.8439 23.8829 31.0634 23.8829 29.3463C23.8829 26.3805 23.8829 18.5756 23.8829 15.6098C23.8829 13.2683 23.8829 6.86829 23.8829 2.96585C23.8829 1.24878 22.4781 0 20.761 0C16.0781 0 7.49268 0 2.96585 0C1.40488 0 0.156098 1.24878 0.156098 2.80976V4.68293C0.156098 4.68293 0 21.5415 0 29.3463C0 30.7512 1.09268 32 2.65366 32H21.2293Z" fill="url(#paint0_linear)"/>
<path d="M5.77563 6.39941H18.8878" stroke="white" stroke-width="0.8613" stroke-miterlimit="10" stroke-linecap="round" stroke-linejoin="round"/>
<path d="M5.77563 12.3311H16.0781" stroke="white" stroke-width="0.8613" stroke-miterlimit="10" stroke-linecap="round" stroke-linejoin="round"/>
<path d="M9.99024 21.3849C8.89755 21.3849 7.80487 21.3849 6.71219 21.3849C6.55609 21.3849 6.55609 21.3849 6.39999 21.3849C6.0878 21.3849 5.9317 21.2288 5.9317 20.9166C5.9317 20.6044 6.0878 20.4483 6.39999 20.4483C6.71219 20.4483 6.86829 20.4483 7.18048 20.4483C8.11707 20.4483 9.05365 20.4483 10.1463 20.4483C10.1463 20.2922 10.1463 20.1361 9.99024 20.1361C9.67804 19.5117 9.05365 19.1995 8.27316 19.0434C7.64877 19.0434 7.02438 19.0434 6.55609 19.0434C6.39999 19.0434 6.2439 18.8873 6.0878 18.8873C5.9317 18.5751 6.0878 18.2629 6.55609 18.2629C7.02438 18.2629 7.49268 18.2629 7.96097 18.2629C9.20975 18.2629 10.4585 18.2629 11.5512 18.2629C11.7073 18.2629 11.7073 18.2629 11.8634 18.2629C12.1756 18.2629 12.3317 18.419 12.3317 18.7312C12.3317 19.0434 12.1756 19.1995 11.8634 19.1995C11.5512 19.1995 11.239 19.1995 10.7707 19.1995C10.6146 19.1995 10.6146 19.1995 10.4585 19.1995C10.6146 19.6678 10.9268 20.1361 11.0829 20.6044C11.239 20.6044 11.5512 20.6044 11.7073 20.6044C12.0195 20.6044 12.1756 20.7605 12.1756 21.0727C12.1756 21.3849 12.0195 21.541 11.7073 21.541C11.3951 21.541 11.239 21.541 10.9268 21.541C10.4585 23.2581 9.20975 24.0385 7.49268 23.8825C7.64877 23.8825 7.64877 23.8825 7.80487 24.0386C8.74146 24.9751 9.67804 25.9117 10.6146 26.8483L10.7707 27.0044C10.9268 27.1605 10.9268 27.4727 10.7707 27.6288C10.6146 27.7849 10.4585 27.7849 10.1463 27.6288L9.99024 27.4727C8.74146 26.2239 7.49268 24.9751 6.0878 23.7264C5.9317 23.5703 5.7756 23.4142 5.9317 23.102C6.0878 22.7898 6.2439 22.7898 6.55609 22.7898C7.18048 22.7898 7.64877 22.7898 8.27316 22.7898C9.05365 22.7898 9.83414 22.1654 9.99024 21.3849Z" fill="white"/>
<path d="M24.6634 31.9999C29.6636 31.9999 33.7171 27.9464 33.7171 22.9462C33.7171 17.946 29.6636 13.8926 24.6634 13.8926C19.6632 13.8926 15.6098 17.946 15.6098 22.9462C15.6098 27.9464 19.6632 31.9999 24.6634 31.9999Z" fill="#33EDB0"/>
<path d="M27.161 26.5367C27.161 25.6001 27.161 24.5075 27.161 23.5709C27.161 23.4148 27.161 23.4148 27.161 23.2587C27.161 22.9465 27.4732 22.6343 27.7854 22.6343C28.0976 22.6343 28.4098 22.9465 28.4098 23.2587C28.4098 24.1953 28.4098 24.9757 28.4098 25.9123C28.4098 26.3806 28.4098 26.6928 28.4098 27.1611C28.4098 27.6294 28.0976 27.7855 27.7854 27.7855C27.6293 27.7855 27.4732 27.7855 27.161 27.7855C24.9756 27.7855 22.6341 27.7855 20.4488 27.7855C19.8244 27.7855 19.5122 27.6294 19.5122 26.8489C19.5122 24.5075 19.5122 22.166 19.5122 19.8245C19.5122 19.2001 19.6683 18.8879 20.4488 18.8879C21.6976 18.8879 22.7902 18.8879 24.039 18.8879C24.3512 18.8879 24.5073 19.044 24.6634 19.2001C24.9756 19.6684 24.5073 20.1367 24.039 20.1367C23.1024 20.1367 22.1659 20.1367 21.2293 20.1367C21.0732 20.1367 21.0732 20.1367 20.9171 20.1367C20.9171 22.166 20.9171 24.1953 20.9171 26.2245C23.1024 26.5367 25.1317 26.5367 27.161 26.5367Z" fill="white"/>
<path d="M27.4732 19.2C27.0049 19.2 26.6927 19.2 26.2244 19.2C25.7561 19.2 25.4439 18.8878 25.4439 18.5756C25.4439 18.1073 25.7561 17.9512 26.2244 17.9512C27.161 17.9512 27.9415 17.9512 28.878 17.9512C29.3463 17.9512 29.6585 18.2634 29.6585 18.7317C29.6585 19.6682 29.6585 20.4487 29.6585 21.3853C29.6585 21.8536 29.3463 22.1658 29.0341 22.1658C28.7219 22.1658 28.4097 21.8536 28.4097 21.3853C28.4097 21.0731 28.4097 20.7609 28.4097 20.4487C28.4097 20.4487 28.4097 20.4487 28.2537 20.2926C28.2537 20.4487 28.2537 20.4487 28.0976 20.6048C27.0049 21.6975 25.9122 22.7902 24.8195 23.8829C24.6634 24.039 24.5073 24.1951 24.3512 24.1951C24.039 24.1951 23.8829 24.039 23.7268 23.8829C23.5707 23.7268 23.5707 23.4146 23.7268 23.2585C23.7268 23.1024 23.8829 23.1024 23.8829 23.1024C24.9756 22.0097 26.0683 20.917 27.161 19.8243C27.161 19.5121 27.3171 19.3561 27.4732 19.2Z" fill="white"/>
<defs>
<linearGradient id="paint0_linear" x1="-38.1744" y1="-288.574" x2="49.125" y2="242.705" gradientUnits="userSpaceOnUse">
<stop stop-color="#FFF4E8"/>
<stop offset="0.6046" stop-color="#7D94E5"/>
<stop offset="0.9986" stop-color="#3F28DC"/>
</linearGradient>
</defs>
</svg>
