<svg width="36" height="32" viewBox="0 0 36 32" fill="none" xmlns="http://www.w3.org/2000/svg">
<path d="M0.163837 20.3679C9.50253 23.9723 18.6774 23.9723 28.0161 20.3679C28.0161 20.5318 28.0161 21.0233 28.0161 21.3509C28.0161 22.6616 28.0161 23.9723 28.0161 25.4469C28.0161 26.7576 27.5246 27.7406 26.3777 28.2321C24.7393 28.8874 23.101 29.7066 21.4626 30.0343C15.7283 31.1811 10.1579 31.1811 4.42359 29.5428C3.27674 29.2151 2.12988 28.5598 1.14686 27.9044C0.327673 27.4129 0 26.5937 0 25.7745C0.163837 23.8085 0.163837 22.1701 0.163837 20.3679Z" fill="url(#paint0_linear)"/>
<path d="M28.0161 9.71851C28.0161 11.5207 28.0161 13.4868 28.0161 15.4528C28.0161 16.272 27.3607 16.9273 26.7054 17.4188C25.2309 18.0742 23.9202 18.8934 22.2818 19.221C16.3837 20.6956 10.3217 20.5317 4.58744 18.8934C3.44058 18.5657 2.29373 17.9103 1.31071 17.255C0.491522 16.7635 0.163849 16.1081 0.163849 15.1251C0.163849 13.3229 0.163849 11.5207 0.163849 9.88234C9.50254 13.4868 18.6774 13.4868 28.0161 9.71851Z" fill="url(#paint1_linear)"/>
<path d="M14.09 9.39089C10.4856 9.39089 7.04499 9.22705 3.76825 7.91636C2.78523 7.58868 1.80221 7.09717 0.983028 6.44183C-0.327666 5.45881 -0.163829 4.14811 0.983028 3.16509C2.45756 1.8544 4.09593 1.36289 5.89813 1.03521C12.1239 -0.439318 18.3497 -0.439318 24.5755 1.69056C25.3947 2.01823 26.2139 2.34591 26.8692 2.83742C28.5076 3.98427 28.5076 5.62264 26.8692 6.60566C25.5585 7.42485 24.2478 7.91636 22.7733 8.40787C19.9881 9.22705 17.039 9.55472 14.09 9.39089Z" fill="url(#paint2_linear)"/>
<path d="M25.7224 31.9999C30.9705 31.9999 35.2249 27.7455 35.2249 22.4974C35.2249 17.2493 30.9705 12.9949 25.7224 12.9949C20.4743 12.9949 16.2199 17.2493 16.2199 22.4974C16.2199 27.7455 20.4743 31.9999 25.7224 31.9999Z" fill="#33EDB0"/>
<path d="M20.9711 22.9892L23.9202 25.9383L30.4737 19.0571" stroke="white" stroke-width="0.8613" stroke-miterlimit="10" stroke-linecap="round" stroke-linejoin="round"/>
<defs>
<linearGradient id="paint0_linear" x1="13.527" y1="-12.5721" x2="14.4266" y2="48.0044" gradientUnits="userSpaceOnUse">
<stop stop-color="#FFF4E8"/>
<stop offset="0.6046" stop-color="#7D94E5"/>
<stop offset="0.9986" stop-color="#3F28DC"/>
</linearGradient>
<linearGradient id="paint1_linear" x1="13.6748" y1="-12.5743" x2="14.5744" y2="48.0022" gradientUnits="userSpaceOnUse">
<stop stop-color="#FFF4E8"/>
<stop offset="0.6046" stop-color="#7D94E5"/>
<stop offset="0.9986" stop-color="#3F28DC"/>
</linearGradient>
<linearGradient id="paint2_linear" x1="13.8073" y1="-12.5762" x2="14.7071" y2="48.0003" gradientUnits="userSpaceOnUse">
<stop stop-color="#FFF4E8"/>
<stop offset="0.6046" stop-color="#7D94E5"/>
<stop offset="0.9986" stop-color="#3F28DC"/>
</linearGradient>
</defs>
</svg>
