<svg width="34" height="32" viewBox="0 0 34 32" fill="none" xmlns="http://www.w3.org/2000/svg">
<path d="M23.8595 25.263H9.26312C8.14032 25.263 7.15787 24.2805 7.15787 23.1577V8.56131C7.15787 7.43851 8.14032 6.45605 9.26312 6.45605H23.8595C24.9824 6.45605 25.9648 7.43851 25.9648 8.56131V23.1577C25.9648 24.2805 24.9824 25.263 23.8595 25.263Z" fill="url(#paint0_linear)"/>
<path d="M4.35086 8.70172C6.75377 8.70172 8.70172 6.75377 8.70172 4.35086C8.70172 1.94795 6.75377 0 4.35086 0C1.94795 0 0 1.94795 0 4.35086C0 6.75377 1.94795 8.70172 4.35086 8.70172Z" fill="#33EDB0"/>
<path d="M4.35086 31.9998C6.75377 31.9998 8.70172 30.0519 8.70172 27.649C8.70172 25.246 6.75377 23.2981 4.35086 23.2981C1.94795 23.2981 0 25.246 0 27.649C0 30.0519 1.94795 31.9998 4.35086 31.9998Z" fill="#33EDB0"/>
<path d="M28.7718 8.70172C31.1747 8.70172 33.1227 6.75377 33.1227 4.35086C33.1227 1.94795 31.1747 0 28.7718 0C26.3689 0 24.421 1.94795 24.421 4.35086C24.421 6.75377 26.3689 8.70172 28.7718 8.70172Z" fill="#33EDB0"/>
<path d="M28.7718 31.9998C31.1747 31.9998 33.1227 30.0519 33.1227 27.649C33.1227 25.246 31.1747 23.2981 28.7718 23.2981C26.3689 23.2981 24.421 25.246 24.421 27.649C24.421 30.0519 26.3689 31.9998 28.7718 31.9998Z" fill="#33EDB0"/>
<defs>
<linearGradient id="paint0_linear" x1="15.9037" y1="-12.3402" x2="17.2476" y2="44.7056" gradientUnits="userSpaceOnUse">
<stop stop-color="#FFF4E8"/>
<stop offset="0.6046" stop-color="#7D94E5"/>
<stop offset="0.9986" stop-color="#3F28DC"/>
</linearGradient>
</defs>
</svg>
