<?xml version="1.0" encoding="utf-8"?>
<!-- Generator: Adobe Illustrator 25.0.0, SVG Export Plug-In . SVG Version: 6.00 Build 0)  -->
<svg version="1.1" id="Layer_1" xmlns="http://www.w3.org/2000/svg" xmlns:xlink="http://www.w3.org/1999/xlink" x="0px" y="0px"
	 viewBox="0 0 24 24" style="enable-background:new 0 0 24 24;" xml:space="preserve">
<style type="text/css">
	.st0{fill:#FBFBFC;}
	.st1{fill:#5363F6;}
	.st2{fill:none;stroke:#5363F6;stroke-width:0.8613;stroke-linecap:round;stroke-linejoin:round;stroke-miterlimit:10;}
</style>
<g>
	<g>
		<g>
			<g>
				<path class="st0" d="M12.3,18.3c1.1-0.1,1.4-0.5,1.4-1.4c0-1.6,0-5.8,0-7.4c0-1.2,0-4.7,0-6.8c0-0.9-0.7-1.6-1.6-1.6
					c-2.5,0-7.1,0-9.5,0c-0.9,0-1.5,0.7-1.5,1.5v1c0,0,0,9.1,0,13.2c0,0.8,0.6,1.4,1.4,1.4h9.8V18.3z"/>
			</g>
		</g>
	</g>
</g>
<path class="st1" d="M16.8,11.6c0-1.2,0-4.7,0-6.8c0-0.9-0.7-1.6-1.6-1.6c-2.5,0-7.1,0-9.5,0C4.7,3.2,4,3.9,4,4.7v1
	c0,0,0,9.1,0,13.2c0,0.8,0.6,1.4,1.4,1.4h10c1.1-0.1,1.4-0.5,1.4-1.4C16.8,17.4,16.8,13.1,16.8,11.6z"/>
<g>
	<g>
		<g>
			<g>
				<path class="st0" d="M16.1,21c1.1-0.1,1.4-0.5,1.4-1.4c0-1.6,0-5.8,0-7.4c0-1.2,0-4.7,0-6.8c0-0.9-0.7-1.6-1.6-1.6
					c-2.5,0-7.1,0-9.5,0c-0.9,0-1.5,0.7-1.5,1.5v1c0,0,0,9.1,0,13.2c0,0.8,0.6,1.4,1.4,1.4h9.8V21z"/>
			</g>
		</g>
	</g>
	<g>
		<line class="st2" x1="7.1" y1="7.2" x2="14.1" y2="7.2"/>
		<line class="st2" x1="7.1" y1="10.4" x2="12.6" y2="10.4"/>
	</g>
	<path class="st1" d="M9.1,15.3c-0.6,0-1,0-1.6,0c-0.1,0-0.1,0-0.2,0S7,15.3,7,15.1c0-0.1-0.1-0.3,0.3-0.3c0.1,0,0.3,0,0.4,0
		c0.5,0,0.8,0,1.4,0c0.1-0.3-0.4-0.7-0.8-0.7c-0.3,0-0.6,0-1,0c-0.1,0-0.2,0-0.3-0.1c-0.1-0.2,0-0.4,0.2-0.4c0.3,0,0.5,0,0.8,0
		c0.7,0,1.3,0,2,0h0.1c0.2,0,0.3,0.1,0.3,0.2c0,0.1-0.1,0.3-0.3,0.3s-0.4,0-0.6,0c-0.1,0-0.1,0-0.2,0c0.3,0.3,0.2,0.5,0.3,0.7
		c0.1,0,0.2,0,0.4,0s0.3,0.1,0.3,0.3c0,0.1-0.1,0.2-0.3,0.2c-0.1,0-0.3,0-0.4,0c-0.3,0.9-0.9,1.3-1.9,1.2c0.1,0.1,0.1,0.1,0.1,0.1
		c0.5,0.5,1,1,1.5,1.5l0.1,0.1c0.1,0.1,0.1,0.2,0,0.3c-0.1,0.1-0.2,0.1-0.3,0L9,18.4c-0.7-0.7-1.4-1.3-2.1-2
		c-0.1-0.1-0.2-0.1-0.1-0.3C6.8,16,7.3,16,7.5,16c0.3,0,0.6,0,0.9,0C8.8,16,9,15.7,9.1,15.3z"/>
</g>
<path class="st1" d="M22.7,16.8c0,3.5-2.6,6.3-5.8,6.3s-5.8-2.8-5.8-6.3s2.8-6.3,6.3-6.3C20.6,10.4,22.7,13.3,22.7,16.8z"/>
<circle class="st0" cx="17.5" cy="16.8" r="5.8"/>
<g>
	<path class="st1" d="M18.5,20.9v-2.5c0.3,0,0.7,0,1,0s0.4-0.2,0.2-0.5c-0.6-0.8-1.2-1.6-1.9-2.4c-0.2-0.2-0.3-0.2-0.5,0
		c-0.6,0.8-1.3,1.6-1.9,2.5c-0.2,0.2-0.1,0.4,0.2,0.4s1,0,1,0c0,0.2,0,0.8,0,1.8v0.6c0,0.2,0.2,0.3,0.3,0.3h1.2
		C18.4,21.2,18.5,21.1,18.5,20.9z"/>
</g>
<line class="st2" x1="14.6" y1="14.2" x2="20.5" y2="14.2"/>
</svg>
