<?xml version="1.0" encoding="utf-8"?>
<!-- Generator: Adobe Illustrator 25.0.0, SVG Export Plug-In . SVG Version: 6.00 Build 0)  -->
<svg version="1.1" id="Layer_1" xmlns="http://www.w3.org/2000/svg" xmlns:xlink="http://www.w3.org/1999/xlink" x="0px" y="0px"
	 viewBox="0 0 24 24" style="enable-background:new 0 0 24 24;" xml:space="preserve">
<style type="text/css">
	.st0{fill:#FBFBFC;}
	.st1{fill:#5363F6;}
	.st2{fill:none;stroke:#5363F6;stroke-width:0.8613;stroke-linecap:round;stroke-linejoin:round;stroke-miterlimit:10;}
</style>
<g>
	<g>
		<g>
			<path class="st0" d="M14.8,22.2c1.3-0.1,1.7-0.6,1.7-1.7c0-1.9,0-6.9,0-8.8c0-1.5,0-5.6,0-8.1c0-1.1-0.9-1.9-2-1.9
				c-3,0-8.5,0-11.4,0c-1,0-1.8,0.8-1.8,1.8v1.2c0,0-0.1,10.8-0.1,15.8c0,0.9,0.7,1.7,1.7,1.7H14.8z"/>
		</g>
	</g>
</g>
<g>
	<g>
		<g>
			<path class="st1" d="M2.8,16.6c0.3,1.7,1.3,4.9-2.1,5.1c0.1,0.8,2.9,0.5,3.9,0.5h11.9c1.3-0.1,1.7-0.6,1.7-1.7
				c0-0.8-0.1-3.1-0.1-4.5H3.2C2.9,16.1,2.7,16.3,2.8,16.6z"/>
		</g>
	</g>
</g>
<g>
	<g>
		<g>
			<path class="st0" d="M3.9,17.5c0.2,1.5,1.3,4.1-2.2,4.2c0.1,0.8,2.9,0.5,3.9,0.5h11.9c1.3-0.1,1.7-0.6,1.7-1.7c0-0.8,0-2.1,0-3.5
				H4.3C4.1,17,3.9,17.3,3.9,17.5z"/>
		</g>
	</g>
</g>
<g>
	<line class="st2" x1="11.3" y1="9.4" x2="9.4" y2="9.4"/>
	<line class="st2" x1="7.3" y1="9.4" x2="3.8" y2="9.4"/>
	<line class="st2" x1="9.7" y1="13.7" x2="3.8" y2="13.7"/>
	<line class="st2" x1="13.3" y1="4.9" x2="3.8" y2="4.9"/>
</g>
<ellipse class="st1" cx="16" cy="16.3" rx="5.8" ry="6.4"/>
<circle class="st0" cx="17" cy="16.4" r="5.8"/>
<path class="st1" d="M19.5,14.7c-0.2-1.1-0.8-1.8-1.9-2.1c-1-0.3-1.9,0-2.6,0.8c-0.7,0.8-0.8,1.8-0.3,2.7c0.4,0.8,1.3,2.7,1.9,3.8
	c0.2,0.3,0.6,0.3,0.8,0c0.5-1,1.4-2.8,1.9-3.8C19.5,15.7,19.6,15.2,19.5,14.7z M17,15.8c-0.6,0-1.1-0.5-1.1-1.1s0.5-1.1,1.1-1.1
	s1.1,0.5,1.1,1.1C18.1,15.4,17.6,15.8,17,15.8z"/>
</svg>
