<?xml version="1.0" encoding="utf-8"?>
<!-- Generator: Adobe Illustrator 25.0.0, SVG Export Plug-In . SVG Version: 6.00 Build 0)  -->
<svg version="1.1" id="Layer_1" xmlns="http://www.w3.org/2000/svg" xmlns:xlink="http://www.w3.org/1999/xlink" x="0px" y="0px"
	 viewBox="0 0 24 24" style="enable-background:new 0 0 24 24;" xml:space="preserve">
<style type="text/css">
	.st0{fill:#FBFBFC;}
	.st1{fill:none;stroke:#5363F6;stroke-width:0.8613;stroke-linecap:round;stroke-linejoin:round;stroke-miterlimit:10;}
	.st2{fill:#5363F6;}
</style>
<g>
	<g>
		<g>
			<path class="st0" d="M15.1,22.4c1.3-0.1,1.7-0.6,1.7-1.7c0-1.9,0-6.9,0-8.8c0-1.5,0-5.6,0-8.1c0-1.1-0.9-1.9-2-1.9
				c-3,0-8.5,0-11.4,0c-1,0-1.8,0.8-1.8,1.8v1.2c0,0-0.1,10.8-0.1,15.8c0,0.9,0.7,1.7,1.7,1.7H15.1z"/>
		</g>
	</g>
</g>
<g>
	<line class="st1" x1="5.2" y1="6" x2="13.6" y2="6"/>
	<line class="st1" x1="5.2" y1="9.8" x2="11.8" y2="9.8"/>
</g>
<path class="st2" d="M7.9,15.6c-0.7,0-1.4,0-2.1,0c-0.1,0-0.1,0-0.2,0c-0.2,0-0.3-0.1-0.3-0.3S5.4,15,5.6,15c0.2,0,0.3,0,0.5,0
	c0.6,0,1.2,0,1.9,0c0-0.1,0-0.2-0.1-0.2c-0.2-0.4-0.6-0.6-1.1-0.7c-0.4,0-0.8,0-1.1,0c-0.1,0-0.2-0.1-0.3-0.1
	c-0.1-0.2,0-0.4,0.3-0.4s0.6,0,0.9,0c0.8,0,1.6,0,2.3,0c0.1,0,0.1,0,0.2,0c0.2,0,0.3,0.1,0.3,0.3s-0.1,0.3-0.3,0.3s-0.4,0-0.7,0
	c-0.1,0-0.1,0-0.2,0c0.1,0.3,0.3,0.6,0.4,0.9c0.1,0,0.3,0,0.4,0c0.2,0,0.3,0.1,0.3,0.3S9.2,15.7,9,15.7s-0.3,0-0.5,0
	c-0.3,1.1-1.1,1.6-2.2,1.5c0.1,0.1,0.1,0.1,0.2,0.2c0.6,0.6,1.2,1.2,1.8,1.8l0.1,0.1c0.1,0.1,0.1,0.3,0,0.4s-0.2,0.1-0.4,0l-0.1-0.1
	c-0.8-0.8-1.6-1.6-2.5-2.4c-0.1-0.1-0.2-0.2-0.1-0.4c0.1-0.2,0.2-0.2,0.4-0.2c0.4,0,0.7,0,1.1,0C7.3,16.5,7.8,16.1,7.9,15.6z"/>
<path class="st2" d="M16.6,10c3.2,0,5.8,3,5.8,6.6s-2.6,6.6-5.8,6.6s-6-3-6-6.6S13.4,10,16.6,10z"/>
<circle class="st0" cx="17.3" cy="16.6" r="5.8"/>
<g>
	<g>
		<path class="st2" d="M16.7,13.3c1,0.1,2,0.8,2.2,2c0.2,1-0.3,2.1-1.3,2.7s-2.1,0.3-2.9-0.4c-0.8-0.7-1-1.9-0.6-2.9
			C14.7,13.6,15.7,13.2,16.7,13.3z M16.5,13.9c-1,0-1.9,0.8-1.9,1.9c0,1,0.8,1.9,1.9,1.9c1,0,1.9-0.8,1.9-1.9
			C18.3,14.7,17.5,13.9,16.5,13.9z"/>
		<path class="st2" d="M19.9,19.9c-0.2,0-0.3-0.2-0.5-0.4c-0.1-0.1-0.3-0.3-0.4-0.4c-0.3-0.3-0.5-0.5-0.8-0.8c0,0,0,0,0-0.1
			c0,0,0-0.1,0-0.1c0.3-0.3,0.5-0.5,0.8-0.8c0.5,0.5,0.9,0.9,1.4,1.4c0.2,0.2,0.3,0.4,0.3,0.6c0,0.2-0.2,0.4-0.4,0.5
			C20.1,19.9,20,19.9,19.9,19.9z"/>
	</g>
</g>
</svg>
