<?xml version="1.0" encoding="utf-8"?>
<!-- Generator: Adobe Illustrator 25.0.0, SVG Export Plug-In . SVG Version: 6.00 Build 0)  -->
<svg version="1.1" id="Layer_1" xmlns="http://www.w3.org/2000/svg" xmlns:xlink="http://www.w3.org/1999/xlink" x="0px" y="0px"
	 viewBox="0 0 24 24" style="enable-background:new 0 0 24 24;" xml:space="preserve">
<style type="text/css">
	.st0{fill:#FBFBFC;}
	.st1{fill:#5363F6;}
	.st2{fill:none;stroke:#5363F6;stroke-width:0.8613;stroke-linecap:round;stroke-linejoin:round;stroke-miterlimit:10;}
</style>
<g>
	<g>
		<defs>
			<rect id="SVGID_1_" x="-968" y="317.7" width="1075.6" height="1294.4"/>
		</defs>
		<clipPath id="SVGID_2_">
			<use xlink:href="#SVGID_1_"  style="overflow:visible;"/>
		</clipPath>
	</g>
</g>
<g>
	<g>
		<path class="st0" d="M1.7,15.3c5.7,2.2,11.3,2.2,17,0c0,0.1,0,0.4,0,0.6c0,0.8,0,1.6,0,2.5c0,0.8-0.3,1.4-1,1.7
			c-1,0.4-2,0.9-3,1.1c-3.5,0.7-6.9,0.7-10.4-0.3c-0.7-0.2-1.4-0.6-2-1c-0.5-0.3-0.7-0.8-0.7-1.3C1.7,17.4,1.7,16.4,1.7,15.3z"/>
		<path class="st0" d="M18.7,8.8c0,1.1,0,2.3,0,3.5c0,0.5-0.4,0.9-0.8,1.2c-0.9,0.4-1.7,0.9-2.7,1.1c-3.6,0.9-7.3,0.8-10.8-0.2
			c-0.7-0.2-1.4-0.6-2-1c-0.5-0.3-0.7-0.7-0.7-1.3c0-1.1,0-2.2,0-3.2C7.4,11.1,13,11.1,18.7,8.8z"/>
		<path class="st0" d="M10.2,8.6C8,8.6,5.9,8.5,3.9,7.7C3.3,7.5,2.7,7.2,2.2,6.8c-0.8-0.6-0.7-1.4,0-2c0.9-0.8,1.9-1.1,3-1.3
			C9,2.6,12.8,2.6,16.6,3.9c0.5,0.2,1,0.4,1.4,0.7c1,0.7,1,1.7,0,2.3c-0.8,0.5-1.6,0.8-2.5,1.1C13.8,8.5,12,8.7,10.2,8.6z"/>
	</g>
</g>
<circle class="st1" cx="17.2" cy="16.6" r="6.6"/>
<circle class="st0" cx="17.3" cy="16.6" r="5.8"/>
<g>
	<polyline class="st2" points="14.4,16.9 16.2,18.7 20.2,14.5 	"/>
</g>
</svg>
