<?xml version="1.0" encoding="utf-8"?>
<!-- Generator: Adobe Illustrator 25.0.0, SVG Export Plug-In . SVG Version: 6.00 Build 0)  -->
<svg version="1.1" id="Layer_1" xmlns="http://www.w3.org/2000/svg" xmlns:xlink="http://www.w3.org/1999/xlink" x="0px" y="0px"
	 viewBox="0 0 24 24" style="enable-background:new 0 0 24 24;" xml:space="preserve">
<style type="text/css">
	.st0{fill:#FBFBFC;}
	.st1{fill:none;stroke:#5363F6;stroke-width:0.8613;stroke-linecap:round;stroke-linejoin:round;stroke-miterlimit:10;}
	.st2{fill:#5363F6;}
</style>
<g>
	<path class="st0" d="M15.4,14.5c-0.1,0.1-0.2,0.1-0.3,0.1s-0.2,0-0.3-0.1l-2-1.6L11,14.5c-0.1,0.1-0.2,0.1-0.3,0.1s-0.2,0-0.3-0.1
		l-2.1-1.7l-1.9,1.7c-0.1,0.1-0.2,0.1-0.3,0.1c-0.1,0-0.2,0-0.3-0.1l-2-1.6L2,14.5c-0.1,0.1-0.2,0.1-0.3,0.1c-0.1,0-0.2,0-0.3-0.1
		l-0.8-0.7c0,2.6,0,5.1,0,6.9c0,0.9,0.7,1.7,1.7,1.7h11.9c1.3-0.1,1.7-0.6,1.7-1.7c0-1.4,0-4.6,0-6.9L15.4,14.5z"/>
</g>
<path class="st0" d="M1.9,13.7l1.5-1.3c0.5-0.6,1.1-0.1,1.1,0l1.7,1.4c0,0,1.8-1.6,1.8-1.7c0.3-0.3,0.8,0,0.8,0.1l1.9,1.6l1.5-1.3
	c0.5-0.5,1.1-0.1,1.1,0l1.7,1.4l1-0.9c0-0.3,0-0.5,0-0.7c0-1.5,0-6.1,0-8.6c0-1.1-0.9-1.9-2-1.9c-3,0-8.5,0-11.4,0
	c-1,0-1.8,0.8-1.8,1.8v1.7c0,0,0,3.7,0,7.7L1.9,13.7z"/>
<g>
	<g>
		<defs>
			<rect id="SVGID_1_" x="-1007.6" y="317.7" width="1075.6" height="1294.4"/>
		</defs>
		<clipPath id="SVGID_2_">
			<use xlink:href="#SVGID_1_"  style="overflow:visible;"/>
		</clipPath>
	</g>
</g>
<g>
	<line class="st1" x1="5.2" y1="5.7" x2="13.6" y2="5.7"/>
	<line class="st1" x1="5.2" y1="9.6" x2="11.8" y2="9.6"/>
</g>
<path class="st2" d="M5.7,17.6c-0.7,0-1.3,0-2,0c-0.1,0-0.1,0-0.2,0c-0.2,0-0.3-0.1-0.3-0.3c0-0.2,0.1-0.3,0.3-0.3
	c0.1,0,0.3,0,0.4,0c0.6,0,1.2,0,1.8,0c0-0.1,0-0.1-0.1-0.2c-0.2-0.4-0.6-0.6-1-0.6s-0.7,0-1.1,0c-0.1,0-0.2-0.1-0.3-0.1
	c-0.1-0.2,0-0.4,0.2-0.4c0.3,0,0.6,0,0.9,0c0.7,0,1.5,0,2.2,0c0.1,0,0.1,0,0.2,0C6.9,15.7,7,15.8,7,16c0,0.2-0.1,0.3-0.3,0.3
	c-0.2,0-0.4,0-0.6,0c-0.1,0-0.1,0-0.2,0c0.1,0.3,0.3,0.5,0.4,0.8c0.1,0,0.3,0,0.4,0c0.2,0,0.3,0.1,0.3,0.3c0,0.2-0.1,0.3-0.3,0.3
	c-0.1,0-0.3,0-0.4,0c-0.3,1.1-1,1.5-2.1,1.4c0.1,0.1,0.1,0.1,0.2,0.2C5,19.9,5.6,20.4,6.1,21l0.1,0.1c0.1,0.1,0.1,0.3,0,0.4
	s-0.2,0.1-0.4,0l-0.1-0.1c-0.8-0.8-1.6-1.5-2.3-2.3c-0.1-0.1-0.2-0.2-0.1-0.4c0.1-0.2,0.2-0.2,0.4-0.2c0.4,0,0.7,0,1.1,0
	C5.2,18.4,5.6,18,5.7,17.6z"/>
<g>
	<path class="st0" d="M21.1,10.5v-3c0.3,0,0.7,0,1,0s0.4-0.2,0.2-0.5c-0.6-0.8-1.2-1.6-1.9-2.4c-0.2-0.2-0.3-0.2-0.5,0
		c-0.6,0.8-1.3,1.6-1.9,2.5c-0.2,0.2-0.1,0.4,0.2,0.4c0.3,0,1,0,1,0c0,0.2,0,1.2,0,2.3v0.6c0,0.2,0.2,0.3,0.3,0.3h1.2
		C21,10.8,21.1,10.7,21.1,10.5z"/>
</g>
<g>
	<path class="st0" d="M19.2,13.6v3c-0.3,0-0.7,0-1,0s-0.4,0.2-0.2,0.5c0.6,0.8,1.2,1.6,1.9,2.4c0.2,0.2,0.3,0.2,0.5,0
		c0.6-0.8,1.3-1.6,1.9-2.5c0.2-0.2,0.1-0.4-0.2-0.4c-0.3,0-1,0-1,0c0-0.2,0-1.2,0-2.3v-0.6c0-0.2-0.2-0.3-0.3-0.3h-1.2
		C19.4,13.3,19.2,13.4,19.2,13.6z"/>
</g>
</svg>
