<?xml version="1.0" encoding="utf-8"?>
<!-- Generator: Adobe Illustrator 25.0.0, SVG Export Plug-In . SVG Version: 6.00 Build 0)  -->
<svg version="1.1" id="Layer_1" xmlns="http://www.w3.org/2000/svg" xmlns:xlink="http://www.w3.org/1999/xlink" x="0px" y="0px"
	 viewBox="0 0 24 24" style="enable-background:new 0 0 24 24;" xml:space="preserve">
<style type="text/css">
	.st0{fill:#FBFBFC;}
	.st1{fill:#5363F6;}
	.st2{fill:#33EDB0;}
	.st3{fill:#FFFFFF;}
</style>
<g>
	<g>
		<path class="st0" d="M1.2,6c2.3,0,4.6,0,7,0C8.7,6,8.9,6.1,9,6.6c0.2,0.6,0.5,1.2,0.7,1.8c0.1,0.3,0.3,0.4,0.6,0.4
			c2.6,0,5.2,0,7.7,0c0.2,0,0.4,0,0.6,0c0,0.5,0,0.9,0,1.4c1.1,0,2.1,0,3.2,0c-1.1,4.3-2.2,8.6-3.3,12.9c-0.2,0-0.4,0-0.6,0
			c-5.4,0-10.7,0-16.1,0c-0.2,0-0.4,0-0.7,0C1.2,17.4,1.2,11.7,1.2,6z M18.6,19.5C18.6,19.5,18.7,19.5,18.6,19.5
			c0.8-2.8,1.6-5.7,2.3-8.5c-0.8,0-1.5,0-2.3,0C18.6,13.8,18.6,16.6,18.6,19.5z"/>
		<path class="st1" d="M9.1,21H3.9c-0.3,0-0.6-0.3-0.6-0.6v-2.7c0-0.3,0.3-0.6,0.6-0.6h5.2c0.3,0,0.6,0.3,0.6,0.6v2.7
			C9.7,20.7,9.4,21,9.1,21z"/>
	</g>
</g>
<g>
	<g>
		<path class="st0" d="M11.7,9.7c0.1-2.3,0.2-4.5,0.4-6.8c0.1,0,0.1,0.1,0.2,0.1c1.3,0.6,2.6,0.8,4,0.5c0.8-0.2,1.6-0.4,2.4-0.6
			c1.6-0.4,3.1-0.2,4.5,0.5c-0.1,2.3-0.2,4.5-0.4,6.8c-0.2-0.1-0.3-0.1-0.5-0.2c-1.1-0.5-2.3-0.7-3.5-0.4c-0.8,0.1-1.6,0.4-2.3,0.6
			C14.9,10.6,13.2,10.4,11.7,9.7z M12.5,8.7c0.6,0.1,0.9,0.2,1,0.6c0.1,0.2,0.2,0.3,0.4,0.3c0.9,0.1,1.7,0,2.6-0.2
			c0.9-0.2,1.7-0.5,2.6-0.6c0.6-0.1,1.2,0,1.8,0c0.2-0.5,0.6-0.8,1.2-0.7c0.1-1.2,0.1-2.4,0.2-3.6c-0.5,0-0.8-0.1-1-0.6
			c-0.1-0.2-0.3-0.3-0.5-0.3c-1-0.1-1.9,0.1-2.9,0.4c-1.3,0.4-2.6,0.6-3.9,0.5c-0.1,0-0.1,0.1-0.2,0.1c-0.2,0.4-0.5,0.6-1,0.6
			c-0.1,0-0.1,0-0.2,0C12.6,6.3,12.6,7.5,12.5,8.7z"/>
		<path class="st1" d="M12.5,8.7c0.1-1.2,0.1-2.4,0.2-3.6c0.1,0,0.1,0,0.2,0c0.5,0,0.8-0.2,1-0.6c0-0.1,0.1-0.1,0.2-0.1
			c1.3,0.2,2.6-0.1,3.9-0.5c0.9-0.3,1.9-0.5,2.9-0.4c0.2,0,0.4,0.1,0.5,0.3c0.2,0.4,0.6,0.6,1,0.6c-0.1,1.2-0.1,2.4-0.2,3.6
			c-0.6-0.1-1,0.2-1.2,0.7c-0.6,0-1.2-0.1-1.8,0c-0.9,0.1-1.7,0.4-2.6,0.6c-0.9,0.2-1.7,0.3-2.6,0.2c-0.2,0-0.3,0-0.4-0.3
			C13.4,8.9,13.1,8.8,12.5,8.7z M18.9,6.7c0-0.4-0.1-0.8-0.3-1.1c-0.4-0.8-1.3-1-2-0.4c-0.8,0.7-0.9,2.1-0.2,2.9
			c0.5,0.5,1.1,0.5,1.7,0.1C18.7,7.8,18.9,7.3,18.9,6.7z M14.4,6.4c-0.3,0-0.6,0.2-0.6,0.6c0,0.3,0.2,0.6,0.6,0.6
			C14.7,7.6,15,7.4,15,7C15,6.7,14.8,6.4,14.4,6.4z M20.4,6.7c0.3,0,0.6-0.2,0.6-0.6c0-0.3-0.2-0.6-0.6-0.6c-0.3,0-0.6,0.2-0.6,0.6
			C19.8,6.4,20.1,6.7,20.4,6.7z"/>
		<path class="st1" d="M18.3,6.7c0,0.3-0.1,0.6-0.4,0.8c-0.3,0.2-0.7,0.2-1-0.1C16.5,7,16.5,6.1,17,5.7c0.4-0.3,0.9-0.2,1.1,0.2
			C18.3,6.3,18.3,6.5,18.3,6.7z"/>
		<path class="st2" d="M14.4,6.4C14.8,6.4,15,6.7,15,7s-0.3,0.6-0.6,0.5c-0.3,0-0.6-0.3-0.6-0.6C13.8,6.6,14.1,6.4,14.4,6.4z"/>
		<path class="st2" d="M20.4,6.7c-0.3,0-0.6-0.3-0.6-0.6c0-0.3,0.3-0.6,0.6-0.6c0.3,0,0.6,0.3,0.6,0.6C21,6.5,20.7,6.7,20.4,6.7z"/>
	</g>
</g>
<g>
	<g>
		<path class="st3" d="M11.7,7.8C11.8,5.5,12,3.3,12.1,1c0.1,0,0.1,0.1,0.2,0.1c1.3,0.6,2.6,0.8,4,0.5c0.8-0.2,1.6-0.4,2.4-0.6
			c1.6-0.4,3.1-0.2,4.5,0.5C23.1,3.7,23,6,22.9,8.3c-0.2-0.1-0.3-0.1-0.5-0.2c-1.1-0.5-2.3-0.7-3.5-0.4c-0.8,0.1-1.6,0.4-2.3,0.6
			C14.9,8.7,13.3,8.5,11.7,7.8z M12.6,6.8c0.6,0.1,0.9,0.2,1,0.6c0.1,0.2,0.2,0.3,0.4,0.3c0.9,0.1,1.7,0,2.6-0.2
			c0.9-0.2,1.7-0.5,2.6-0.6c0.6-0.1,1.2,0,1.8,0c0.2-0.5,0.6-0.8,1.2-0.7c0.1-1.2,0.1-2.4,0.2-3.6c-0.5,0-0.8-0.1-1-0.6
			c-0.1-0.2-0.3-0.3-0.5-0.3c-1-0.2-1.9,0-2.9,0.3c-1.3,0.4-2.6,0.6-3.9,0.5c-0.1,0-0.1,0.1-0.2,0.1c-0.2,0.4-0.5,0.6-1,0.6
			c-0.1,0-0.1,0-0.2,0C12.7,4.4,12.7,5.6,12.6,6.8z"/>
		<path class="st1" d="M12.6,6.8c0.1-1.2,0.1-2.4,0.2-3.6c0.1,0,0.1,0,0.2,0c0.5,0,0.8-0.2,1-0.6c0-0.1,0.1-0.1,0.2-0.1
			C15.5,2.6,16.8,2.4,18,2c0.9-0.3,1.9-0.5,2.9-0.4c0.2,0,0.4,0.1,0.5,0.3c0.2,0.4,0.6,0.6,1,0.6c-0.1,1.2-0.1,2.4-0.2,3.6
			c-0.6-0.1-1,0.2-1.2,0.7c-0.6,0-1.2-0.1-1.8,0c-0.9,0.1-1.7,0.4-2.6,0.6S14.9,7.7,14,7.6c-0.2,0-0.3,0-0.4-0.3
			C13.5,7,13.2,6.9,12.6,6.8z M14.5,4.5c-0.3,0-0.6,0.2-0.6,0.6c0,0.3,0.2,0.6,0.6,0.6c0.3,0,0.6-0.2,0.6-0.5
			C15.1,4.8,14.9,4.5,14.5,4.5z M20.5,4.8c0.3,0,0.6-0.2,0.6-0.6c0-0.3-0.2-0.6-0.6-0.6c-0.3,0-0.6,0.2-0.6,0.6
			C19.9,4.5,20.1,4.8,20.5,4.8z"/>
		<path class="st3" d="M18.4,4.8c0,0.3-0.1,0.6-0.4,0.8c-0.3,0.2-0.7,0.2-1-0.1c-0.4-0.4-0.4-1.3,0.1-1.7C17.5,3.5,18,3.6,18.2,4
			C18.4,4.3,18.4,4.6,18.4,4.8z"/>
		<path class="st3" d="M14.5,4.5c0.3,0,0.6,0.3,0.5,0.6c0,0.3-0.3,0.6-0.6,0.5c-0.3,0-0.6-0.3-0.6-0.6C13.9,4.7,14.2,4.5,14.5,4.5z"
			/>
		<path class="st3" d="M20.5,4.8c-0.3,0-0.6-0.3-0.6-0.6s0.3-0.6,0.6-0.6c0.3,0,0.6,0.3,0.6,0.6S20.8,4.8,20.5,4.8z"/>
	</g>
</g>
</svg>
