<?xml version="1.0" encoding="utf-8"?>
<!-- Generator: Adobe Illustrator 25.0.0, SVG Export Plug-In . SVG Version: 6.00 Build 0)  -->
<svg version="1.1" id="Layer_1" xmlns="http://www.w3.org/2000/svg" xmlns:xlink="http://www.w3.org/1999/xlink" x="0px" y="0px"
	 viewBox="0 0 24 24" style="enable-background:new 0 0 24 24;" xml:space="preserve">
<style type="text/css">
	.st0{fill:#FBFBFC;}
	.st1{fill:none;stroke:#5363F6;stroke-width:0.8613;stroke-linecap:round;stroke-linejoin:round;stroke-miterlimit:10;}
	.st2{fill:#5363F6;}
</style>
<g>
	<g>
		<defs>
			<rect id="SVGID_1_" x="-973.5" y="272.3" width="1075.6" height="1294.4"/>
		</defs>
		<clipPath id="SVGID_2_">
			<use xlink:href="#SVGID_1_"  style="overflow:visible;"/>
		</clipPath>
	</g>
</g>
<g>
	<g>
		<g>
			<path class="st0" d="M15,22.2c1.3-0.1,1.7-0.6,1.7-1.7c0-1.9,0-6.9,0-8.8c0-1.5,0-5.6,0-8.1c0-1.1-0.9-1.9-2-1.9
				c-3,0-8.5,0-11.4,0c-1,0-1.8,0.8-1.8,1.8v1.2c0,0-0.1,10.8-0.1,15.8c0,0.9,0.7,1.7,1.7,1.7H15z"/>
		</g>
	</g>
</g>
<g>
	<line class="st1" x1="5.1" y1="5.8" x2="13.5" y2="5.8"/>
	<line class="st1" x1="5.1" y1="9.6" x2="11.7" y2="9.6"/>
</g>
<path class="st2" d="M7.8,15.4c-0.7,0-1.4,0-2.1,0c-0.1,0-0.1,0-0.2,0c-0.2,0-0.3-0.1-0.3-0.3s0.1-0.3,0.3-0.3c0.2,0,0.3,0,0.5,0
	c0.6,0,1.2,0,1.9,0c0-0.1,0-0.2-0.1-0.2c-0.2-0.4-0.6-0.6-1.1-0.7c-0.4,0-0.8,0-1.1,0c-0.1,0-0.2-0.1-0.3-0.1
	c-0.1-0.2,0-0.4,0.3-0.4s0.6,0,0.9,0c0.8,0,1.6,0,2.3,0c0.1,0,0.1,0,0.2,0c0.2,0,0.3,0.1,0.3,0.3S9.2,14,9,14s-0.4,0-0.7,0
	c-0.1,0-0.1,0-0.2,0c0.1,0.3,0.3,0.6,0.4,0.9c0.1,0,0.3,0,0.4,0c0.2,0,0.3,0.1,0.3,0.3s-0.1,0.3-0.3,0.3s-0.3,0-0.5,0
	c-0.3,1.1-1.1,1.6-2.2,1.5c0.1,0,0.1,0,0.2,0.1c0.6,0.6,1.2,1.2,1.8,1.8L8.3,19c0.1,0.1,0.1,0.3,0,0.4s-0.2,0.1-0.4,0l-0.1-0.1
	c-0.8-0.8-1.6-1.6-2.5-2.4c-0.1-0.1-0.2-0.2-0.1-0.4c0.1-0.2,0.2-0.2,0.4-0.2c0.4,0,0.7,0,1.1,0C7.2,16.3,7.7,15.9,7.8,15.4z"/>
<ellipse class="st2" cx="16.4" cy="16.4" rx="5.9" ry="6.5"/>
<circle class="st0" cx="17.2" cy="16.4" r="5.8"/>
<g>
	<g>
		<path class="st2" d="M18.8,18.7c0-0.6,0-1.3,0-1.9c0-0.1,0-0.1,0-0.2c0-0.2,0.2-0.4,0.4-0.4c0.2,0,0.4,0.2,0.4,0.4
			c0,0.6,0,1.1,0,1.7c0,0.3,0,0.5,0,0.8s-0.2,0.4-0.4,0.4c-0.1,0-0.2,0-0.4,0c-1.4,0-2.9,0-4.3,0c-0.4,0-0.6-0.1-0.6-0.6
			c0-1.5,0-3,0-4.5c0-0.4,0.1-0.6,0.6-0.6c0.8,0,1.5,0,2.3,0c0.2,0,0.3,0.1,0.4,0.2c0.2,0.3-0.1,0.6-0.4,0.6c-0.6,0-1.2,0-1.8,0
			c-0.1,0-0.1,0-0.2,0c0,1.3,0,2.6,0,3.9C16.2,18.7,17.5,18.7,18.8,18.7z"/>
		<path class="st2" d="M19,14c-0.3,0-0.5,0-0.8,0s-0.5-0.2-0.5-0.4c0-0.3,0.2-0.4,0.5-0.4c0.6,0,1.1,0,1.7,0c0.3,0,0.5,0.2,0.5,0.5
			c0,0.6,0,1.1,0,1.7c0,0.3-0.2,0.5-0.4,0.5c-0.2,0-0.4-0.2-0.4-0.5c0-0.2,0-0.4,0-0.6c0,0,0,0-0.1-0.1c0,0.1,0,0.1-0.1,0.2
			c-0.7,0.7-1.4,1.4-2.1,2.1c-0.1,0.1-0.2,0.2-0.3,0.2c-0.2,0-0.3-0.1-0.4-0.2s-0.1-0.3,0-0.4c0-0.1,0.1-0.1,0.1-0.1
			c0.7-0.7,1.4-1.4,2.1-2.1C18.8,14.2,18.9,14.1,19,14z"/>
	</g>
</g>
</svg>
