<?xml version="1.0" encoding="utf-8"?>
<!-- Generator: Adobe Illustrator 25.0.0, SVG Export Plug-In . SVG Version: 6.00 Build 0)  -->
<svg version="1.1" id="Layer_1" xmlns="http://www.w3.org/2000/svg" xmlns:xlink="http://www.w3.org/1999/xlink" x="0px" y="0px"
	 viewBox="0 0 24 24" style="enable-background:new 0 0 24 24;" xml:space="preserve">
<style type="text/css">
	.st0{fill:#FBFBFC;}
	.st1{fill:#5363F6;}
</style>
<g>
	<g>
		<path class="st0" d="M18,4.9c-1.8,0.2-3.5,0.8-4.9,1.8c0,0,0.1,0,0.1,0.1c0.1,0.1,0.2,0.2,0.3,0.3l0.1,0.1l0,0
			c0.1,0.1,0.3,0.2,0.4,0.3c0.3-0.2,0.7-0.4,1.1-0.6c0.3-0.1,0.5-0.2,0.8,0c0.5,0.4,1.1,0.3,1.7-0.1c0.8,1.6,1.6,3.1,2.4,4.6
			c-0.8,0.4-1.1,1-1,1.8c-0.8,0.5-1.6,0.8-2.2,1.4c-1,0.8-1.9,1.7-2.8,2.6c-0.9,0.9-1.9,1.7-3.1,2.2c-0.2,0.1-0.4,0.2-0.7,0
			c-0.4-0.4-0.9-0.3-1.7,0c-0.8-1.6-1.6-3.1-2.4-4.6c0.1,0,0.2-0.1,0.2-0.1c0.6-0.3,0.8-0.8,0.8-1.5c0-0.1,0-0.3,0.1-0.3
			c1.8-0.8,3.2-2,4.5-3.5c0.4-0.5,0.9-0.9,1.4-1.3l0,0c0-0.1-0.1-0.2-0.3-0.3l-0.1-0.1l0,0l0,0c-0.1-0.1-0.3-0.2-0.4-0.3
			c-0.1,0.1-0.2,0.1-0.3,0.2c-0.9,0.8-1.7,1.8-2.6,2.6C7.9,11.6,6,12.3,4,12.6c-0.1,0-0.2,0-0.3,0c1.5,2.9,3.1,5.8,4.6,8.8
			c2.5-0.3,4.7-1.3,6.4-3.1c0.8-0.8,1.6-1.7,2.5-2.5c1.3-1.2,2.9-1.8,4.6-2c0.2,0,0.5-0.1,0.7-0.1C21,10.8,19.5,7.9,18,4.9z"/>
		<path class="st1" d="M8.6,19.5c-0.8-1.6-1.6-3.1-2.4-4.6c0.1,0,0.2-0.1,0.2-0.1C7,14.5,7.2,14,7.2,13.3c0-0.1,0-0.3,0.1-0.3
			c1.8-0.8,3.2-2,4.5-3.5c1-1.1,2-2,3.3-2.6c0.3-0.1,0.5-0.2,0.8,0c0.5,0.4,1.1,0.3,1.7-0.1c0.8,1.6,1.6,3.1,2.4,4.6
			c-0.8,0.4-1.1,1-1,1.8c-0.8,0.5-1.6,0.8-2.2,1.4c-1,0.8-1.9,1.7-2.8,2.6c-0.9,0.9-1.9,1.7-3.1,2.2c-0.2,0.1-0.4,0.2-0.7,0
			C9.9,19.1,9.4,19.1,8.6,19.5z M9.3,15.2c-0.4,0.2-0.6,0.7-0.4,1.2c0.2,0.4,0.7,0.6,1.1,0.4c0.4-0.2,0.6-0.7,0.4-1.1
			C10.2,15.1,9.7,15,9.3,15.2z M17,11.1c0.4-0.2,0.6-0.8,0.4-1.2s-0.8-0.6-1.2-0.3c-0.4,0.2-0.6,0.7-0.3,1.1
			C16,11.2,16.5,11.3,17,11.1z"/>
		<path class="st0" d="M14.4,12.7c0.2,0.4,0.3,0.9,0.1,1.3c-0.2,0.5-0.7,0.8-1.3,0.6c-0.9-0.2-1.4-1.3-1.1-2.2
			c0.2-0.7,0.9-0.9,1.6-0.5C14,12.1,14.2,12.4,14.4,12.7z"/>
		<path class="st0" d="M9.3,15.2c0.4-0.2,0.9-0.1,1.2,0.4c0.2,0.4,0,0.9-0.4,1.1c-0.4,0.2-0.9,0.1-1.1-0.4
			C8.7,15.9,8.9,15.4,9.3,15.2z"/>
		<path class="st0" d="M17,11.1c-0.4,0.2-0.9,0.1-1.2-0.4c-0.2-0.4-0.1-0.9,0.3-1.1c0.4-0.2,0.9-0.1,1.2,0.3
			C17.6,10.4,17.4,10.9,17,11.1z"/>
	</g>
</g>
<g>
	<g>
		<path class="st0" d="M16.6,7.8c-0.4,0.1-0.8,0.2-1.1,0.1c-0.9-0.1-1.6-0.3-2.2-0.8c-0.6-0.5-1.2-0.5-1.9,0C9.6,8.2,9,10.2,6.8,11
			c-0.6,0.2-1.7,0.1-2.1,0c-1.2-0.2-2.1-1.4-2.9-2.4c-0.2-0.2-0.2-0.4,0-0.7c1.1-1.8,2.4-3.3,4-4.7C6,3,6.4,2.9,6.6,3.1
			c0.6,0.3,1.2,0.8,1.8,1.2C8.6,4.4,9,4.4,9.2,4.4c1.1-0.1,2.3-0.3,3.4-0.5c0.9-0.2,1.7,0.2,2.4,1c0.5,0.5,1.2,0.9,1.9,1.3
			c0.9,0.5,1.1,0.9,0.4,1.3C17.1,7.6,16.9,7.7,16.6,7.8z"/>
	</g>
</g>
</svg>
