<svg width="33" height="32" viewBox="0 0 33 32" fill="none" xmlns="http://www.w3.org/2000/svg">
<path d="M24.1137 31.6967H4.09479C1.81991 31.6967 0 29.8768 0 27.6019V4.09479C0 1.81991 1.81991 0 4.09479 0H24.1137C26.3886 0 28.2085 1.81991 28.2085 4.09479V27.4502C28.3602 29.8768 26.3886 31.6967 24.1137 31.6967Z" fill="url(#paint0_linear)"/>
<mask id="mask0" mask-type="alpha" maskUnits="userSpaceOnUse" x="0" y="0" width="29" height="32">
<path d="M24.1137 31.6967H4.09479C1.81991 31.6967 0 29.8768 0 27.6019V4.09479C0 1.81991 1.81991 0 4.09479 0H24.1137C26.3886 0 28.2085 1.81991 28.2085 4.09479V27.4502C28.3602 29.8768 26.3886 31.6967 24.1137 31.6967Z" fill="url(#paint1_linear)"/>
</mask>
<g mask="url(#mask0)">
<path d="M-0.909962 4.24707H30.0284" stroke="white" stroke-width="0.8613" stroke-miterlimit="10" stroke-linecap="round" stroke-linejoin="round"/>
<path d="M-0.909962 27.4502H30.0284" stroke="white" stroke-width="0.8613" stroke-miterlimit="10" stroke-linecap="round" stroke-linejoin="round"/>
</g>
<path d="M12.436 12.588V10.3131C12.436 9.40312 11.6777 8.49316 10.6161 8.49316H5.61138C4.70142 8.49316 3.79147 9.25146 3.79147 10.3131V12.588C3.79147 13.4979 4.54976 14.4079 5.61138 14.4079H10.6161C11.5261 14.4079 12.436 13.6496 12.436 12.588Z" fill="white"/>
<path d="M12.436 21.5357V19.2608C12.436 18.3509 11.6777 17.4409 10.6161 17.4409H5.61138C4.70142 17.4409 3.79147 18.1992 3.79147 19.2608V21.5357C3.79147 22.4457 4.54976 23.3556 5.61138 23.3556H10.6161C11.5261 23.3556 12.436 22.5973 12.436 21.5357Z" fill="white"/>
<path d="M23.9621 32.0001C28.8201 32.0001 32.7583 28.0619 32.7583 23.2039C32.7583 18.3459 28.8201 14.4077 23.9621 14.4077C19.1041 14.4077 15.1659 18.3459 15.1659 23.2039C15.1659 28.0619 19.1041 32.0001 23.9621 32.0001Z" fill="#33EDB0"/>
<path d="M25.0238 28.3603C22.5972 28.3603 20.7773 28.2087 19.1091 27.7537C18.5025 27.602 18.5025 27.4504 18.6541 26.9954C19.1091 25.3271 20.1707 24.2655 21.839 23.8105C21.9906 23.8105 22.1423 23.8105 22.2939 23.9622C22.7489 24.4172 23.2039 24.7205 23.6589 25.1755C24.1138 25.4788 24.1138 25.4788 24.5688 25.1755C25.0238 24.7205 25.4788 24.4172 25.9337 23.9622C26.0854 23.8105 26.2371 23.8105 26.3887 23.8105C27.9053 24.2655 29.1186 25.3271 29.5736 26.8437C29.7252 27.4504 29.5736 27.602 29.1186 27.7537C27.2987 28.057 25.9337 28.2087 25.0238 28.3603Z" fill="white"/>
<path d="M21.0807 19.8672C21.0807 18.1989 22.2939 16.834 23.9622 16.834C25.6304 16.834 26.8437 18.1989 26.8437 19.8672C26.8437 21.5354 25.6304 22.9003 23.9622 22.9003C22.2939 22.9003 21.0807 21.5354 21.0807 19.8672Z" fill="white"/>
<defs>
<linearGradient id="paint0_linear" x1="10.528" y1="-13.8589" x2="18.4816" y2="51.1416" gradientUnits="userSpaceOnUse">
<stop stop-color="#FFF4E8"/>
<stop offset="0.6046" stop-color="#7D94E5"/>
<stop offset="0.9986" stop-color="#3F28DC"/>
</linearGradient>
<linearGradient id="paint1_linear" x1="10.528" y1="-13.8589" x2="18.4816" y2="51.1416" gradientUnits="userSpaceOnUse">
<stop stop-color="#FFF4E8"/>
<stop offset="0.6046" stop-color="#7D94E5"/>
<stop offset="0.9986" stop-color="#3F28DC"/>
</linearGradient>
</defs>
</svg>
