<svg width="32" height="32" viewBox="0 0 32 32" fill="none" xmlns="http://www.w3.org/2000/svg">
<path d="M28.2353 25.1946H15.3484C13.3213 25.1946 11.7285 23.6018 11.7285 21.5747V3.61991C11.7285 1.59276 13.3213 0 15.3484 0H28.2353C30.2625 0 31.8552 1.59276 31.8552 3.61991V21.5747C31.8552 23.457 30.2625 25.1946 28.2353 25.1946Z" fill="url(#paint0_linear)"/>
<path d="M15.0588 31.9998H3.04072C1.30317 31.9998 0 30.5518 0 28.9591V14.6242C0 12.8867 1.44796 11.5835 3.04072 11.5835H15.0588C16.7964 11.5835 18.0996 13.0315 18.0996 14.6242V28.9591C18.2443 30.6966 16.7964 31.9998 15.0588 31.9998Z" fill="#33EDB0"/>
<path d="M14.6244 18.8238H3.47511C3.04072 18.8238 2.75113 18.5342 2.75113 18.0998V15.4935C2.75113 15.0591 3.04072 14.7695 3.47511 14.7695H14.6244C15.0588 14.7695 15.3484 15.0591 15.3484 15.4935V18.0998C15.3484 18.5342 15.0588 18.8238 14.6244 18.8238Z" fill="white"/>
<path d="M21.7195 6.08154V9.70145" stroke="white" stroke-width="1.5" stroke-miterlimit="10" stroke-linecap="round" stroke-linejoin="round"/>
<path d="M16.7964 7.81934V9.70169" stroke="white" stroke-width="1.5" stroke-miterlimit="10" stroke-linecap="round" stroke-linejoin="round"/>
<path d="M26.9321 3.47559V9.70183" stroke="white" stroke-width="1.5" stroke-miterlimit="10" stroke-linecap="round" stroke-linejoin="round"/>
<path d="M20.8507 15.6387H27.8009" stroke="white" stroke-width="1.5" stroke-miterlimit="10" stroke-linecap="round" stroke-linejoin="round"/>
<path d="M20.8507 19.9824H27.8009" stroke="white" stroke-width="1.5" stroke-miterlimit="10" stroke-linecap="round" stroke-linejoin="round"/>
<path d="M4.19912 24.4705C4.7589 24.4705 5.2127 24.0167 5.2127 23.4569C5.2127 22.8972 4.7589 22.4434 4.19912 22.4434C3.63934 22.4434 3.18555 22.8972 3.18555 23.4569C3.18555 24.0167 3.63934 24.4705 4.19912 24.4705Z" fill="white"/>
<path d="M9.12219 24.4705C9.68197 24.4705 10.1358 24.0167 10.1358 23.4569C10.1358 22.8972 9.68197 22.4434 9.12219 22.4434C8.5624 22.4434 8.10861 22.8972 8.10861 23.4569C8.10861 24.0167 8.5624 24.4705 9.12219 24.4705Z" fill="white"/>
<path d="M14.1901 24.4705C14.7498 24.4705 15.2036 24.0167 15.2036 23.4569C15.2036 22.8972 14.7498 22.4434 14.1901 22.4434C13.6303 22.4434 13.1765 22.8972 13.1765 23.4569C13.1765 24.0167 13.6303 24.4705 14.1901 24.4705Z" fill="white"/>
<path d="M4.19912 28.8143C4.7589 28.8143 5.2127 28.3605 5.2127 27.8007C5.2127 27.2409 4.7589 26.7871 4.19912 26.7871C3.63934 26.7871 3.18555 27.2409 3.18555 27.8007C3.18555 28.3605 3.63934 28.8143 4.19912 28.8143Z" fill="white"/>
<path d="M9.12219 28.8143C9.68197 28.8143 10.1358 28.3605 10.1358 27.8007C10.1358 27.2409 9.68197 26.7871 9.12219 26.7871C8.5624 26.7871 8.10861 27.2409 8.10861 27.8007C8.10861 28.3605 8.5624 28.8143 9.12219 28.8143Z" fill="white"/>
<path d="M14.1901 28.8143C14.7498 28.8143 15.2036 28.3605 15.2036 27.8007C15.2036 27.2409 14.7498 26.7871 14.1901 26.7871C13.6303 26.7871 13.1765 27.2409 13.1765 27.8007C13.1765 28.3605 13.6303 28.8143 14.1901 28.8143Z" fill="white"/>
<defs>
<linearGradient id="paint0_linear" x1="18.9527" y1="-4.67692" x2="25.1068" y2="32.8846" gradientUnits="userSpaceOnUse">
<stop stop-color="#FFF4E8"/>
<stop offset="0.6046" stop-color="#7D94E5"/>
<stop offset="0.9986" stop-color="#3F28DC"/>
</linearGradient>
</defs>
</svg>
