<svg width="30" height="34" viewBox="0 0 30 34" fill="none" xmlns="http://www.w3.org/2000/svg">
<path d="M14.9822 28.9642C21.5102 28.9642 26.8021 23.6722 26.8021 17.1442C26.8021 10.6162 21.5102 5.32422 14.9822 5.32422C8.45417 5.32422 3.16219 10.6162 3.16219 17.1442C3.16219 23.6722 8.45417 28.9642 14.9822 28.9642Z" fill="url(#paint0_linear)"/>
<path d="M16.4236 14.694C14.6939 14.694 12.9641 14.694 11.2344 14.694C11.0902 14.694 10.9461 14.694 10.8019 14.694C10.3695 14.694 10.0812 14.4057 10.0812 13.9733C10.0812 13.5409 10.3695 13.2526 10.8019 13.2526C11.2344 13.2526 11.5227 13.2526 11.9551 13.2526C13.3966 13.2526 14.9822 13.2526 16.5678 13.2526C16.4236 13.1084 16.4236 12.8201 16.4236 12.676C15.847 11.667 14.9822 11.0904 13.829 11.0904C12.9641 11.0904 11.9551 11.0904 11.0902 11.0904C10.8019 11.0904 10.5136 10.9462 10.3695 10.8021C10.0812 10.3697 10.3695 9.79307 10.9461 9.64893C11.6668 9.64893 12.5317 9.64893 13.2524 9.64893C15.1263 9.64893 17.1444 9.64893 19.0183 9.64893C19.1624 9.64893 19.3066 9.64893 19.4507 9.64893C19.8831 9.64893 20.1714 9.93722 20.1714 10.3697C20.1714 10.8021 19.8831 11.0904 19.3066 11.0904C18.73 11.0904 18.2975 11.0904 17.7209 11.0904C17.5768 11.0904 17.4327 11.0904 17.2885 11.0904C17.5768 11.8111 18.0092 12.5318 18.2975 13.2526C18.5858 13.2526 19.0183 13.2526 19.3066 13.2526C19.8831 13.2526 20.1714 13.5409 20.1714 13.9733C20.1714 14.4057 19.8831 14.694 19.3066 14.694C18.8741 14.694 18.5858 14.694 18.1534 14.694C17.4327 17.4328 15.5588 18.4418 12.6758 18.2977C12.82 18.4418 12.9641 18.586 13.1083 18.7301C14.5497 20.1716 16.1353 21.613 17.5768 23.0545C17.7209 23.1987 17.8651 23.3428 17.8651 23.3428C18.1534 23.6311 18.0092 24.0635 17.7209 24.3518C17.4327 24.6401 17.1444 24.6401 16.7119 24.496C16.5678 24.496 16.5678 24.3518 16.4236 24.2077C14.4056 22.1896 12.3875 20.3157 10.3695 18.4418C10.0812 18.1535 9.79291 17.8653 10.0812 17.4328C10.2254 17.0004 10.6578 17.0004 11.0902 17.0004C11.9551 17.0004 12.9641 17.0004 13.829 17.0004C15.1263 16.8562 16.2795 15.8472 16.4236 14.694Z" fill="white"/>
<path d="M1 8.2073C4.02707 3.88292 8.92803 1 14.6939 1C18.0092 1 21.0363 2.00902 23.6309 3.59463C25.3607 4.7478 26.9463 6.18926 28.0995 7.91901" stroke="#33EDB0" stroke-width="1.5" stroke-miterlimit="10" stroke-linecap="round" stroke-linejoin="round"/>
<path d="M25.0724 7.91895L28.3877 8.78383L29.1085 5.18018" stroke="#33EDB0" stroke-width="1.5" stroke-miterlimit="10" stroke-linecap="round" stroke-linejoin="round"/>
<path d="M29.1085 25.7925C26.0814 30.1169 21.1804 32.9998 15.4146 32.9998C12.0992 32.9998 9.07217 31.9908 6.47755 30.4052C4.74779 29.252 3.16219 27.8105 2.00902 26.0808" stroke="#33EDB0" stroke-width="1.5" stroke-miterlimit="10" stroke-linecap="round" stroke-linejoin="round"/>
<path d="M4.89194 25.9367L1.57658 25.0718L1 28.6754" stroke="#33EDB0" stroke-width="1.5" stroke-miterlimit="10" stroke-linecap="round" stroke-linejoin="round"/>
<defs>
<linearGradient id="paint0_linear" x1="11.6739" y1="-12.3092" x2="17.4094" y2="38.0076" gradientUnits="userSpaceOnUse">
<stop stop-color="#FFF4E8"/>
<stop offset="0.6046" stop-color="#7D94E5"/>
<stop offset="0.9986" stop-color="#3F28DC"/>
</linearGradient>
</defs>
</svg>
