<svg width="34" height="32" viewBox="0 0 34 32" fill="none" xmlns="http://www.w3.org/2000/svg">
<path d="M20.7239 31.2382C22.7049 31.0859 23.3144 30.3239 23.3144 28.6478C23.3144 25.7525 23.3144 18.1334 23.3144 15.2382C23.3144 12.9524 23.3144 6.70479 23.3144 2.89525C23.3144 1.21905 21.943 0 20.2668 0C15.6953 0 7.31432 0 2.89525 0C1.37144 0 0.152382 1.21905 0.152382 2.74287V4.57145C0.152382 4.72383 0 21.181 0 28.6478C0 30.0192 1.06667 31.2382 2.59049 31.2382H20.7239Z" fill="url(#paint0_linear)"/>
<path d="M5.63814 6.09521H18.2858" stroke="white" stroke-width="0.8613" stroke-miterlimit="10" stroke-linecap="round" stroke-linejoin="round"/>
<path d="M5.63814 12.0381H15.6953" stroke="white" stroke-width="0.8613" stroke-miterlimit="10" stroke-linecap="round" stroke-linejoin="round"/>
<path d="M24.3811 32C29.2623 32 33.2192 28.043 33.2192 23.1619C33.2192 18.2807 29.2623 14.3237 24.3811 14.3237C19.4999 14.3237 15.5429 18.2807 15.5429 23.1619C15.5429 28.043 19.4999 32 24.3811 32Z" fill="#33EDB0"/>
<path d="M9.75241 20.8758C8.68574 20.8758 7.61907 20.8758 6.5524 20.8758C6.40002 20.8758 6.40002 20.8758 6.24763 20.8758C5.94287 20.8758 5.79049 20.7234 5.79049 20.4186C5.79049 20.1139 5.94287 19.9615 6.24763 19.9615C6.5524 19.9615 6.70478 19.9615 7.00954 19.9615C7.92383 19.9615 8.83812 19.9615 9.90479 19.9615C9.90479 19.8091 9.90479 19.6567 9.75241 19.6567C9.44765 19.0472 8.83812 18.7424 8.07621 18.59C7.46669 18.59 6.85716 18.59 6.40002 18.59C6.24763 18.59 6.09525 18.4377 5.94287 18.4377C5.79049 18.1329 5.94287 17.8281 6.40002 17.8281C6.85716 17.8281 7.31431 17.8281 7.77145 17.8281C8.9905 17.8281 10.2096 17.8281 11.2762 17.8281C11.4286 17.8281 11.4286 17.8281 11.581 17.8281C11.8858 17.8281 12.0381 17.9805 12.0381 18.2853C12.0381 18.59 11.8858 18.7424 11.581 18.7424C11.2762 18.7424 10.9715 18.7424 10.5143 18.7424C10.3619 18.7424 10.3619 18.7424 10.2096 18.7424C10.3619 19.0472 10.5143 19.5043 10.6667 19.9615C10.8191 19.9615 11.1238 19.9615 11.2762 19.9615C11.581 19.9615 11.7334 20.1139 11.7334 20.4186C11.7334 20.7234 11.581 20.8758 11.2762 20.8758C10.9715 20.8758 10.8191 20.8758 10.5143 20.8758C10.0572 22.552 8.83812 23.3139 7.16192 23.1615C7.31431 23.3139 7.31431 23.3139 7.46669 23.4662C8.38098 24.3805 9.29527 25.2948 10.2096 26.2091L10.3619 26.3615C10.5143 26.5139 10.5143 26.8186 10.3619 26.971C10.2096 27.1234 10.0572 27.1234 9.75241 26.971L9.60003 26.8186C8.38098 25.5996 7.16192 24.3805 5.79049 23.1615C5.63811 23.0091 5.48573 22.8567 5.63811 22.552C5.79049 22.2472 5.94287 22.2472 6.24763 22.2472C6.85716 22.2472 7.31431 22.2472 7.92383 22.2472C8.83812 22.0948 9.60003 21.4853 9.75241 20.8758Z" fill="white"/>
<path d="M28.1906 20.5712C27.8859 18.895 26.9716 17.8283 25.2954 17.3712C23.7716 16.914 22.4001 17.3712 21.3335 18.5902C20.2668 19.8093 20.1144 21.3331 20.8763 22.7045C21.4858 23.9236 22.8573 26.8188 23.7716 28.495C24.0763 28.9522 24.6858 28.9522 24.9906 28.495C25.7525 26.9712 27.124 24.2283 27.8859 22.7045C28.1906 22.095 28.343 21.3331 28.1906 20.5712ZM24.3811 22.2474C23.4668 22.2474 22.7049 21.4855 22.7049 20.5712C22.7049 19.6569 23.4668 18.895 24.3811 18.895C25.2954 18.895 26.0573 19.6569 26.0573 20.5712C26.0573 21.6378 25.2954 22.2474 24.3811 22.2474Z" fill="white"/>
<defs>
<linearGradient id="paint0_linear" x1="-37.3099" y1="-281.775" x2="47.9114" y2="236.857" gradientUnits="userSpaceOnUse">
<stop stop-color="#FFF4E8"/>
<stop offset="0.6046" stop-color="#7D94E5"/>
<stop offset="0.9986" stop-color="#3F28DC"/>
</linearGradient>
</defs>
</svg>
