<svg width="34" height="32" viewBox="0 0 34 32" fill="none" xmlns="http://www.w3.org/2000/svg">
<path d="M0 4.8999V27.7132C0 28.9381 0.918658 29.8568 2.14354 29.8568H26.6411C27.866 29.8568 28.7846 28.9381 28.7846 27.7132V4.8999H0Z" fill="url(#paint0_linear)"/>
<path d="M27.5597 0C28.1722 0 28.6315 0.459329 28.6315 0.918658V3.2153C28.6315 3.67463 28.1722 4.13396 27.5597 4.13396H0.765549C0.30622 4.28707 0 3.82774 0 3.52152V0.765548C0 0.306219 0.459329 0 0.918658 0H27.5597Z" fill="url(#paint1_linear)"/>
<path d="M2.60286 3.36815C3.19479 3.36815 3.67463 2.8883 3.67463 2.29638C3.67463 1.70446 3.19479 1.22461 2.60286 1.22461C2.01094 1.22461 1.5311 1.70446 1.5311 2.29638C1.5311 2.8883 2.01094 3.36815 2.60286 3.36815Z" fill="white"/>
<path d="M6.43061 3.36815C7.02253 3.36815 7.50238 2.8883 7.50238 2.29638C7.50238 1.70446 7.02253 1.22461 6.43061 1.22461C5.83869 1.22461 5.35884 1.70446 5.35884 2.29638C5.35884 2.8883 5.83869 3.36815 6.43061 3.36815Z" fill="white"/>
<path d="M10.5645 3.36815C11.1564 3.36815 11.6363 2.8883 11.6363 2.29638C11.6363 1.70446 11.1564 1.22461 10.5645 1.22461C9.97257 1.22461 9.49272 1.70446 9.49272 2.29638C9.49272 2.8883 9.97257 3.36815 10.5645 3.36815Z" fill="white"/>
<path d="M14.0861 26.3355C18.8214 26.3355 22.6602 22.2911 22.6602 17.302C22.6602 12.313 18.8214 8.26855 14.0861 8.26855C9.35069 8.26855 5.51192 12.313 5.51192 17.302C5.51192 22.2911 9.35069 26.3355 14.0861 26.3355Z" stroke="white" stroke-width="0.8613" stroke-miterlimit="10" stroke-linecap="round" stroke-linejoin="round"/>
<path d="M14.0861 8.42188V26.0295" stroke="white" stroke-width="0.8613" stroke-miterlimit="10" stroke-linecap="round" stroke-linejoin="round"/>
<path d="M14.0861 8.42188C16.9951 11.331 18.5262 14.3932 18.5262 17.3022C18.5262 20.2113 17.1483 23.2735 14.3923 26.1826" stroke="white" stroke-width="0.8613" stroke-miterlimit="10" stroke-linecap="round" stroke-linejoin="round"/>
<path d="M20.0573 11.0247C18.22 12.2496 16.3827 12.862 14.3923 12.862C12.4018 12.862 10.4114 12.2496 8.42099 10.8716" stroke="white" stroke-width="0.8613" stroke-miterlimit="10" stroke-linecap="round" stroke-linejoin="round"/>
<path d="M20.0573 23.7323L19.9042 23.5792C18.0669 22.3543 16.2296 21.895 14.3923 21.895C12.4018 21.895 10.4114 22.5075 8.42099 23.8854" stroke="white" stroke-width="0.8613" stroke-miterlimit="10" stroke-linecap="round" stroke-linejoin="round"/>
<path d="M13.9329 8.42188C11.0239 11.331 9.64587 14.3932 9.64587 17.3022C9.64587 20.2113 11.0239 23.1204 13.7798 26.0295" stroke="white" stroke-width="0.8613" stroke-miterlimit="10" stroke-linecap="round" stroke-linejoin="round"/>
<path d="M5.51192 17.4551H22.6602" stroke="white" stroke-width="0.8613" stroke-miterlimit="10" stroke-linecap="round" stroke-linejoin="round"/>
<path d="M24.3444 31.9995C29.2489 31.9995 33.2248 28.0236 33.2248 23.1191C33.2248 18.2146 29.2489 14.2388 24.3444 14.2388C19.4399 14.2388 15.4641 18.2146 15.4641 23.1191C15.4641 28.0236 19.4399 31.9995 24.3444 31.9995Z" fill="#33EDB0"/>
<path d="M25.4162 23.1198L28.4784 19.9045C28.7846 19.5983 28.7846 18.9859 28.4784 18.6796C28.1721 18.3734 27.5597 18.3734 27.2535 18.6796L24.1913 21.7418L21.2822 18.5265C20.976 18.2203 20.3636 18.2203 20.0573 18.5265C19.7511 18.8328 19.7511 19.4452 20.0573 19.7514L22.9664 22.9667L19.9042 26.182C19.598 26.4882 19.598 27.1007 19.9042 27.4069C20.2104 27.7131 20.5167 27.7131 20.6698 27.7131C20.8229 27.7131 21.1291 27.56 21.2822 27.4069L24.3444 24.3447L27.2535 27.56C27.4066 27.7131 27.7128 27.8662 27.8659 27.8662C28.019 27.8662 28.3253 27.8662 28.4784 27.7131C28.7846 27.4069 28.7846 26.7945 28.4784 26.4882L25.4162 23.1198Z" fill="white"/>
<defs>
<linearGradient id="paint0_linear" x1="4.80397" y1="-3.07619" x2="26.5593" y2="41.6848" gradientUnits="userSpaceOnUse">
<stop stop-color="#FFF4E8"/>
<stop offset="0.6046" stop-color="#7D94E5"/>
<stop offset="0.9986" stop-color="#3F28DC"/>
</linearGradient>
<linearGradient id="paint1_linear" x1="13.8659" y1="-5.41671" x2="14.8787" y2="12.4226" gradientUnits="userSpaceOnUse">
<stop stop-color="#FFF4E8"/>
<stop offset="0.6046" stop-color="#7D94E5"/>
<stop offset="0.9986" stop-color="#3F28DC"/>
</linearGradient>
</defs>
</svg>
