<svg width="34" height="32" viewBox="0 0 34 32" fill="none" xmlns="http://www.w3.org/2000/svg">
<path d="M16.2255 0.901855L0.751181 1.05209C0.300472 1.05209 0 1.5028 0 1.95351V17.5781C0 18.0288 0.300472 18.4795 0.901417 18.4795H13.2208C13.371 18.4795 13.6715 18.6297 13.8217 18.78L15.925 20.8833C16.2255 21.1837 16.8264 21.1837 17.1269 20.8833L19.2302 18.78C19.3805 18.6297 19.5307 18.4795 19.8312 18.4795H32.1505C32.6012 18.4795 33.0519 18.179 33.0519 17.5781V1.95351C33.0519 1.5028 32.7515 1.05209 32.3008 1.05209L16.2255 0.901855Z" fill="url(#paint0_linear)"/>
<path d="M2.10333 1.20189V15.0236C2.10333 15.6246 2.55404 16.0753 3.15499 16.0753H13.0706C13.371 16.0753 13.6715 16.2255 13.8217 16.3757L15.7748 18.3288V2.25354C15.7748 1.80283 15.6246 1.50236 15.1739 1.35213L13.6715 0.300472C13.5213 0.150236 13.371 0 13.0706 0H3.30522C2.70428 0 2.10333 0.600945 2.10333 1.20189Z" fill="url(#paint1_linear)"/>
<path d="M4.80756 4.05664H12.9203" stroke="white" stroke-width="0.8613" stroke-miterlimit="10" stroke-linecap="round" stroke-linejoin="round"/>
<path d="M4.80756 8.41309H12.9203" stroke="white" stroke-width="0.8613" stroke-miterlimit="10" stroke-linecap="round" stroke-linejoin="round"/>
<path d="M4.80756 12.77H10.817" stroke="white" stroke-width="0.8613" stroke-miterlimit="10" stroke-linecap="round" stroke-linejoin="round"/>
<path d="M30.4979 1.20196V15.0237C30.4979 15.6246 30.0472 16.0753 29.4463 16.0753H19.5307C19.2302 16.0753 18.9298 16.2256 18.7795 16.3758L16.8264 18.3289V2.25361C16.8264 1.8029 16.9767 1.50243 17.4274 1.35219L19.2302 0.300538C19.3805 0.150302 19.6809 0.150302 19.8312 0.150302H29.7468C30.0472 6.63251e-05 30.4979 0.601011 30.4979 1.20196Z" fill="url(#paint2_linear)"/>
<path d="M27.7937 4.05664H19.8312" stroke="white" stroke-width="0.8613" stroke-miterlimit="10" stroke-linecap="round" stroke-linejoin="round"/>
<path d="M27.7937 8.41309H19.8312" stroke="white" stroke-width="0.8613" stroke-miterlimit="10" stroke-linecap="round" stroke-linejoin="round"/>
<path d="M27.7937 12.77H21.7842" stroke="white" stroke-width="0.8613" stroke-miterlimit="10" stroke-linecap="round" stroke-linejoin="round"/>
<path d="M30.1974 32H19.6809C18.1785 32 16.9767 30.7981 16.9767 29.2958V16.6759C16.9767 15.1736 18.1785 13.9717 19.6809 13.9717H30.1974C31.6998 13.9717 32.9017 15.1736 32.9017 16.6759V29.2958C32.9017 30.7981 31.6998 32 30.1974 32Z" fill="#33EDB0"/>
<path d="M29.897 20.432H20.1316C19.8312 20.432 19.5307 20.1315 19.5307 19.831V17.5775C19.5307 17.277 19.8312 16.9766 20.1316 16.9766H29.897C30.1975 16.9766 30.4979 17.277 30.4979 17.5775V19.831C30.4979 20.1315 30.1975 20.432 29.897 20.432Z" fill="white"/>
<path d="M20.7326 25.3893C21.2304 25.3893 21.634 24.9857 21.634 24.4878C21.634 23.99 21.2304 23.5864 20.7326 23.5864C20.2347 23.5864 19.8311 23.99 19.8311 24.4878C19.8311 24.9857 20.2347 25.3893 20.7326 25.3893Z" fill="white"/>
<path d="M24.9392 25.3893C25.437 25.3893 25.8406 24.9857 25.8406 24.4878C25.8406 23.99 25.437 23.5864 24.9392 23.5864C24.4414 23.5864 24.0378 23.99 24.0378 24.4878C24.0378 24.9857 24.4414 25.3893 24.9392 25.3893Z" fill="white"/>
<path d="M29.5965 25.3893C30.0943 25.3893 30.4979 24.9857 30.4979 24.4878C30.4979 23.99 30.0943 23.5864 29.5965 23.5864C29.0986 23.5864 28.695 23.99 28.695 24.4878C28.695 24.9857 29.0986 25.3893 29.5965 25.3893Z" fill="white"/>
<path d="M20.7326 29.2955C21.2304 29.2955 21.634 28.8919 21.634 28.3941C21.634 27.8963 21.2304 27.4927 20.7326 27.4927C20.2347 27.4927 19.8311 27.8963 19.8311 28.3941C19.8311 28.8919 20.2347 29.2955 20.7326 29.2955Z" fill="white"/>
<path d="M24.9392 29.2955C25.437 29.2955 25.8406 28.8919 25.8406 28.3941C25.8406 27.8963 25.437 27.4927 24.9392 27.4927C24.4414 27.4927 24.0378 27.8963 24.0378 28.3941C24.0378 28.8919 24.4414 29.2955 24.9392 29.2955Z" fill="white"/>
<path d="M29.5965 29.2955C30.0943 29.2955 30.4979 28.8919 30.4979 28.3941C30.4979 27.8963 30.0943 27.4927 29.5965 27.4927C29.0986 27.4927 28.695 27.8963 28.695 28.3941C28.695 28.8919 29.0986 29.2955 29.5965 29.2955Z" fill="white"/>
<defs>
<linearGradient id="paint0_linear" x1="16.216" y1="-2.66911" x2="16.3099" y2="27.3852" gradientUnits="userSpaceOnUse">
<stop stop-color="#FFF4E8"/>
<stop offset="0.6046" stop-color="#7D94E5"/>
<stop offset="0.9986" stop-color="#3F28DC"/>
</linearGradient>
<linearGradient id="paint1_linear" x1="9.80594" y1="-8.65991" x2="8.59053" y2="21.1543" gradientUnits="userSpaceOnUse">
<stop stop-color="#FFF4E8"/>
<stop offset="0.6046" stop-color="#7D94E5"/>
<stop offset="0.9986" stop-color="#3F28DC"/>
</linearGradient>
<linearGradient id="paint2_linear" x1="24.2779" y1="-8.09871" x2="23.0623" y2="21.7155" gradientUnits="userSpaceOnUse">
<stop stop-color="#FFF4E8"/>
<stop offset="0.6046" stop-color="#7D94E5"/>
<stop offset="0.9986" stop-color="#3F28DC"/>
</linearGradient>
</defs>
</svg>
