<svg width="35" height="32" viewBox="0 0 35 32" fill="none" xmlns="http://www.w3.org/2000/svg">
<path d="M14.8071 1.793L2.22107 0.0161455C1.0365 -0.131926 0 0.756501 0 1.94107V17.1924C0 18.2289 0.740356 18.9693 1.77685 19.1173L14.3629 20.45C15.5475 20.598 16.4359 19.7096 16.4359 18.525V3.56985C16.4359 2.68143 15.6955 1.94107 14.8071 1.793Z" fill="url(#paint0_linear)"/>
<path d="M3.25757 8.16064L8.29199 8.75293" stroke="white" stroke-width="0.8613" stroke-miterlimit="10" stroke-linecap="round" stroke-linejoin="round"/>
<path d="M3.1095 4.16211L12.1418 5.19861" stroke="white" stroke-width="0.8613" stroke-miterlimit="10" stroke-linecap="round" stroke-linejoin="round"/>
<path d="M4.88635 13.9345C4.29407 13.9345 3.70178 13.7864 3.1095 13.7864H2.96143C2.81335 13.7864 2.66528 13.6384 2.66528 13.4903C2.66528 13.3422 2.81335 13.1942 2.96143 13.1942C3.1095 13.1942 3.25757 13.1942 3.40564 13.1942C3.99792 13.1942 4.44214 13.3422 5.03442 13.3422C5.03442 13.1942 5.03442 13.1942 5.03442 13.1942C4.73828 12.75 4.44214 12.6019 3.99792 12.6019C3.70178 12.6019 3.40564 12.6019 2.96143 12.4538C2.81335 12.4538 2.81335 12.4538 2.66528 12.3057C2.51721 12.1577 2.66528 11.8615 2.96143 12.0096C3.25757 12.0096 3.55371 12.0096 3.70178 12.0096C4.44214 12.0096 5.03442 12.1577 5.77478 12.1577H5.92285C6.07092 12.1577 6.21899 12.3057 6.21899 12.4538C6.21899 12.6019 6.07092 12.7499 5.92285 12.7499C5.77478 12.7499 5.47864 12.7499 5.33056 12.7499H5.18249C5.33056 13.0461 5.33056 13.1942 5.47864 13.4903C5.62671 13.4903 5.77478 13.4903 5.77478 13.4903C5.92285 13.4903 6.07092 13.6384 6.07092 13.7864C6.07092 13.9345 5.92285 14.0826 5.77478 14.0826C5.62671 14.0826 5.47864 14.0826 5.33056 14.0826C5.03442 14.971 4.29407 15.4152 3.25757 15.2672C3.25757 15.4152 3.40564 15.4152 3.40564 15.4152C3.84985 16.0075 4.44214 16.4517 4.88635 17.044L5.03442 17.1921C5.03442 17.3402 5.03442 17.4882 5.03442 17.4882C4.88635 17.6363 4.73828 17.6363 4.73828 17.4882C4.73828 17.4882 4.73828 17.4882 4.59021 17.3402C3.99792 16.5998 3.25757 15.8594 2.66528 15.1191C2.51721 14.971 2.51721 14.8229 2.51721 14.6749C2.66528 14.5268 2.81335 14.5268 2.96143 14.5268C3.25757 14.5268 3.55371 14.5268 3.99792 14.5268C4.44214 14.5268 4.73828 14.2307 4.88635 13.9345Z" fill="white" stroke="white" stroke-width="0.2601" stroke-miterlimit="10"/>
<path d="M19.2492 1.793L31.8353 0.0161455C33.0199 -0.131926 34.0564 0.756501 34.0564 1.94107V17.1924C34.0564 18.2289 33.316 18.9693 32.2795 19.1173L19.6934 20.45C18.5089 20.598 17.6205 19.7096 17.6205 18.525V3.56985C17.6205 2.68143 18.3608 1.94107 19.2492 1.793Z" fill="url(#paint1_linear)"/>
<path d="M30.7988 8.30811L25.7644 8.90039" stroke="white" stroke-width="0.8613" stroke-miterlimit="10" stroke-linecap="round" stroke-linejoin="round"/>
<path d="M30.9469 4.16211L21.9145 5.19861" stroke="white" stroke-width="0.8613" stroke-miterlimit="10" stroke-linecap="round" stroke-linejoin="round"/>
<path d="M30.0584 13.4908C29.4661 13.4908 28.8738 13.6389 28.2816 13.6389H28.1335C27.9854 13.6389 27.8373 13.4908 27.8373 13.3428C27.8373 13.1947 27.9854 13.0466 28.1335 13.0466C28.2816 13.0466 28.4296 13.0466 28.5777 13.0466C29.17 13.0466 29.6142 13.0466 30.2065 12.8986C30.2065 12.8986 30.2065 12.7505 30.0584 12.7505C29.9103 12.4543 29.4661 12.1582 29.17 12.3063C28.8738 12.3063 28.5777 12.3063 28.1335 12.3063C27.9854 12.3063 27.9854 12.3063 27.8373 12.1582C27.6893 12.0101 27.8373 11.714 27.9854 11.714C28.2816 11.714 28.5777 11.714 28.7258 11.714C29.4661 11.714 30.0584 11.5659 30.7988 11.5659H30.9468C31.0949 11.5659 31.243 11.714 31.243 11.8621C31.243 12.0101 31.0949 12.1582 30.9468 12.1582C30.7988 12.1582 30.5026 12.1582 30.3545 12.1582H30.2065C30.3545 12.4543 30.3546 12.6024 30.5026 12.8986C30.6507 12.8986 30.7988 12.8986 30.7988 12.8986C30.9468 12.8986 31.0949 13.0466 31.0949 13.1947C31.0949 13.3428 30.9468 13.4908 30.7988 13.4908C30.6507 13.4908 30.5026 13.4908 30.3545 13.4908C30.2065 14.5273 29.4661 14.8235 28.5777 14.8235L28.7258 14.9716C29.3181 15.4158 29.7623 15.86 30.3545 16.4523C30.3545 16.4523 30.5026 16.4523 30.5026 16.6003C30.6507 16.7484 30.6507 16.8965 30.5026 16.8965C30.3546 17.0446 30.3545 17.0446 30.2065 16.8965C30.2065 16.8965 30.2065 16.8965 30.0584 16.7484C29.3181 16.1561 28.5777 15.4158 27.8373 14.8235C27.6893 14.6754 27.6893 14.6754 27.6893 14.5273C27.6893 14.3793 27.8373 14.3793 27.9854 14.3793C28.2816 14.3793 28.5777 14.3793 29.0219 14.3793C29.6142 14.2312 29.9103 13.787 30.0584 13.4908Z" fill="white" stroke="white" stroke-width="0.2601" stroke-miterlimit="10"/>
<path d="M16.4359 26.6689C19.8706 26.6689 22.6549 23.8846 22.6549 20.4499C22.6549 17.0153 19.8706 14.231 16.4359 14.231C13.0013 14.231 10.2169 17.0153 10.2169 20.4499C10.2169 23.8846 13.0013 26.6689 16.4359 26.6689Z" fill="white"/>
<path d="M17.6205 32.0002C16.584 32.0002 15.8436 32.0002 14.8071 32.0002C14.0668 31.8522 14.2148 31.556 14.2148 30.2234C14.2148 29.6311 14.0668 29.483 13.4745 29.3349C12.8822 29.1869 12.438 28.7427 11.9938 28.7427C11.5496 28.8907 11.1053 29.3349 10.6611 29.7792C10.365 30.0753 10.0688 30.0753 9.62463 29.7792C9.18042 29.3349 8.7362 28.8907 8.29199 28.4465C7.40356 27.5581 7.10742 27.5581 8.14392 26.3735C8.14392 26.3735 8.14392 26.3735 8.14392 26.2255C8.7362 25.7812 8.58813 25.337 8.44006 24.5967C8.14392 23.4121 7.40356 23.116 6.36707 23.116C5.92285 23.116 5.62671 22.9679 5.47864 22.6717C5.47864 21.6352 5.47864 20.5987 5.47864 19.5622C5.77478 19.4142 5.92285 19.2661 6.21899 19.118C6.51514 18.97 6.81128 18.97 7.25549 18.97C7.84778 18.97 7.99585 18.8219 8.14392 18.2296C8.29199 17.6373 8.7362 17.1931 8.7362 16.7489C8.7362 16.3047 8.14392 16.0085 7.84778 15.5643C7.55163 15.2682 7.55163 14.972 7.84778 14.5278C8.29199 14.0836 8.7362 13.6394 9.18042 13.1952C10.0688 12.3068 10.0688 12.0106 11.2534 13.0471C11.2534 13.0471 11.2534 13.0471 11.4015 13.0471C11.8457 13.6394 12.2899 13.4913 13.0303 13.3433C14.2148 13.0471 14.511 12.3068 14.3629 11.2703C14.3629 10.9741 14.511 10.5299 14.8071 10.3818C15.8436 10.3818 17.3243 10.3818 18.3608 10.3818C18.5089 10.678 18.5089 11.8625 18.5089 12.1587C18.5089 12.751 18.657 13.0471 19.2493 13.0471C19.6935 13.1952 20.2858 13.6394 20.73 13.4913C21.1742 13.3433 21.6184 12.899 22.0626 12.4548C22.5068 12.1587 22.6549 12.1587 23.0991 12.4548C23.6914 12.899 24.1356 13.4913 24.7279 14.0836C25.3202 14.6759 25.3202 14.824 24.876 15.5643C24.7279 15.7124 24.7279 15.8605 24.5798 16.0085C23.9875 16.4528 24.1356 16.897 24.2837 17.6373C24.5798 18.8219 25.3202 19.118 26.3567 19.118C26.6528 19.118 27.097 19.2661 27.2451 19.5622C27.2451 20.5987 27.2451 21.6352 27.2451 22.6717C26.949 22.8198 26.8009 22.9679 26.5047 23.116C26.0605 23.4121 25.7644 23.4121 25.4682 23.4121C25.024 23.4121 24.7279 23.5602 24.5798 24.1525C24.4317 24.7447 23.9875 25.189 23.9875 25.6332C24.1356 26.0774 24.5798 26.5216 25.024 26.9658C25.3202 27.2619 25.3202 27.5581 25.024 28.0023C24.5798 28.4465 24.1356 28.8907 23.8395 29.1869C22.803 30.2234 22.951 30.3714 21.6184 29.3349C21.6184 29.3349 21.6184 29.3349 21.4703 29.3349C21.0261 28.7427 20.5819 28.8907 19.8415 29.0388C18.657 29.3349 18.3608 30.0753 18.3608 31.1118C18.5089 31.4079 18.2128 32.0002 17.6205 32.0002ZM21.7665 21.191C21.7665 18.2296 19.2493 15.8605 16.2878 15.8605C13.3264 15.8605 10.9573 18.3777 10.8092 21.191C10.8092 24.1525 13.3264 26.6697 16.2878 26.6697C19.3973 26.6697 21.9145 24.1525 21.7665 21.191Z" fill="#33EDB0"/>
<defs>
<linearGradient id="paint0_linear" x1="7.46205" y1="-6.5517" x2="9.17745" y2="31.4203" gradientUnits="userSpaceOnUse">
<stop stop-color="#FFF4E8"/>
<stop offset="0.6046" stop-color="#7D94E5"/>
<stop offset="0.9986" stop-color="#3F28DC"/>
</linearGradient>
<linearGradient id="paint1_linear" x1="26.5943" y1="-6.5517" x2="24.879" y2="31.4203" gradientUnits="userSpaceOnUse">
<stop stop-color="#FFF4E8"/>
<stop offset="0.6046" stop-color="#7D94E5"/>
<stop offset="0.9986" stop-color="#3F28DC"/>
</linearGradient>
</defs>
</svg>
