<svg width="33" height="32" viewBox="0 0 33 32" fill="none" xmlns="http://www.w3.org/2000/svg">
<path d="M24.8504 7.98268C24.2951 16.3124 20.8244 22.6986 14.1606 27.1411C12.217 28.3906 12.6335 28.3906 10.6898 27.1411C4.85902 23.2539 1.52712 17.9784 0.277658 11.1758C0.138829 10.2039 0.138829 8.95448 0 7.84385C0 7.28853 0.138829 6.87205 0.694146 6.59439C4.30371 4.51195 8.05209 2.29068 11.6617 0.208244C12.217 -0.0694146 12.6335 -0.0694146 13.1888 0.208244C16.6595 2.29068 20.2691 4.37312 23.7398 6.45556C24.5728 6.87205 24.9893 7.42736 24.8504 7.98268Z" fill="url(#paint0_linear)"/>
<path d="M23.4621 32C28.2159 32 32.0696 28.1463 32.0696 23.3926C32.0696 18.6388 28.2159 14.7852 23.4621 14.7852C18.7084 14.7852 14.8547 18.6388 14.8547 23.3926C14.8547 28.1463 18.7084 32 23.4621 32Z" fill="#33EDB0"/>
<path d="M16.243 10.7596C16.243 8.67718 14.577 7.01123 12.4946 7.01123C10.4122 7.01123 8.74622 8.67718 8.74622 10.7596C8.74622 12.1479 9.57919 13.3974 10.8287 14.0915C10.8287 14.2304 10.8287 14.3692 10.8287 14.508V19.2282C10.8287 20.2 11.6616 21.033 12.6334 21.033C13.6052 21.033 14.4382 20.2 14.4382 19.2282V14.3692C14.4382 14.2304 14.4382 14.0915 14.4382 13.9527C15.41 13.3974 16.243 12.1479 16.243 10.7596Z" fill="white"/>
<path d="M24.4339 22.4208C23.7398 22.4208 23.0456 22.4208 22.3515 22.4208H22.2127C22.0738 22.4208 21.935 22.282 21.935 22.1432C21.935 22.0043 22.0738 21.8655 22.2127 21.8655C22.3515 21.8655 22.4903 21.8655 22.6292 21.8655C23.1845 21.8655 23.8786 21.8655 24.5728 21.8655C24.5728 21.7267 24.5728 21.7267 24.4339 21.5878C24.1563 21.1714 23.8786 20.8937 23.3233 20.8937C22.9068 20.8937 22.4903 20.8937 22.2127 20.8937C22.0738 20.8937 21.935 20.8937 21.935 20.7549C21.7962 20.616 21.935 20.3384 22.2127 20.3384C22.4903 20.3384 22.9068 20.3384 23.1845 20.3384C24.0175 20.3384 24.7116 20.3384 25.5446 20.3384H25.6834C25.8222 20.3384 25.9611 20.4772 25.9611 20.616C25.9611 20.7549 25.8222 20.8937 25.6834 20.8937C25.4057 20.8937 25.2669 20.8937 24.9893 20.8937H24.8504C24.9893 21.1714 25.1281 21.449 25.2669 21.7267C25.4057 21.7267 25.5446 21.7267 25.6834 21.7267C25.9611 21.7267 26.0999 21.8655 25.9611 22.0043C25.9611 22.1432 25.8222 22.282 25.6834 22.282C25.5446 22.282 25.4057 22.282 25.2669 22.282C24.9893 23.3926 24.1563 23.8091 23.0456 23.8091C22.9068 24.0868 22.9068 24.0868 23.0456 24.0868C23.601 24.6421 24.2951 25.3362 24.8504 25.8915L24.9893 26.0304C25.1281 26.1692 25.1281 26.308 24.9893 26.4469C24.8504 26.5857 24.7116 26.5857 24.5728 26.4469L24.4339 26.308C23.601 25.4751 22.768 24.6421 21.935 23.9479C21.7962 23.8091 21.6574 23.6703 21.7962 23.5315C21.935 23.3926 22.0738 23.3926 22.2127 23.3926C22.6292 23.3926 22.9068 23.3926 23.3233 23.3926C23.8786 23.3926 24.2951 22.9761 24.4339 22.4208Z" fill="white" stroke="white" stroke-width="0.25" stroke-miterlimit="10"/>
<path d="M18.0478 19.7837C19.2973 17.979 21.3797 16.7295 23.7398 16.7295C25.1281 16.7295 26.3775 17.146 27.4882 17.8401C28.1823 18.2566 28.8765 18.9508 29.293 19.6449" stroke="white" stroke-width="0.8613" stroke-miterlimit="10" stroke-linecap="round" stroke-linejoin="round"/>
<path d="M29.5706 27.0024C28.3212 28.8072 26.2387 30.0567 23.8786 30.0567C22.4903 30.0567 21.2409 29.6402 20.1303 28.946C19.4361 28.5296 18.742 27.8354 18.3255 27.1413" stroke="white" stroke-width="0.8613" stroke-miterlimit="10" stroke-linecap="round" stroke-linejoin="round"/>
<defs>
<linearGradient id="paint0_linear" x1="6.22205" y1="-8.23979" x2="21.8811" y2="36.3974" gradientUnits="userSpaceOnUse">
<stop stop-color="#FFF4E8"/>
<stop offset="0.6046" stop-color="#7D94E5"/>
<stop offset="0.9986" stop-color="#3F28DC"/>
</linearGradient>
</defs>
</svg>
