<svg xmlns="http://www.w3.org/2000/svg" width="32" height="32" viewBox="0 0 32 32">
  <g id="Group_19154" data-name="Group 19154" transform="translate(-991 -2811)">
    <path id="Path_24662" data-name="Path 24662" d="M25.6,12.8V9.6h3.2v3.2Zm0,3.2V12.8H22.4V16Zm0-6.4V6.4H22.4V9.6ZM22.4,1.344V3.2h3.2A16.832,16.832,0,0,0,22.4,1.344ZM25.6,3.2V6.4h3.2A17.819,17.819,0,0,0,25.6,3.2Zm3.2,3.2V9.6h1.856A16.832,16.832,0,0,0,28.8,6.4ZM32,16a16.32,16.32,0,0,0-.32-3.2H28.8V16ZM22.4,6.4V3.2H19.2V6.4Zm0,16h3.2V19.2H22.4Zm3.2,3.2h3.2V22.4H25.6Zm-3.2,3.2h3.2V25.6H22.4Zm-3.2,2.88a15.555,15.555,0,0,0,3.2-1.024V28.8H19.2ZM25.6,19.2h3.2V16H25.6ZM22.4,9.6H19.2v3.2h3.2Zm6.4,12.8h1.856a15.555,15.555,0,0,0,1.024-3.2H28.8ZM22.4,16H19.2v3.2h3.2ZM16,25.6V22.4h3.2V19.2H16V16h3.2V12.8H16V9.6h3.2V6.4H16V3.2h3.2V.32A16.015,16.015,0,0,0,0,16,16.047,16.047,0,0,0,16,32V28.8h3.2V25.6Zm3.2,0h3.2V22.4H19.2Z" transform="translate(991 2811)" fill="#6d44e5"/>
    <path id="Path_24663" data-name="Path 24663" d="M25.6,12.8V9.6h3.2v3.2Zm0,3.2V12.8H22.4V16Zm0-6.4V6.4H22.4V9.6ZM22.4,1.344V3.2h3.2A16.832,16.832,0,0,0,22.4,1.344ZM25.6,3.2V6.4h3.2A17.819,17.819,0,0,0,25.6,3.2Zm3.2,3.2V9.6h1.856A16.832,16.832,0,0,0,28.8,6.4ZM32,16a16.32,16.32,0,0,0-.32-3.2H28.8V16ZM22.4,6.4V3.2H19.2V6.4Zm0,16h3.2V19.2H22.4Zm3.2,3.2h3.2V22.4H25.6Zm-3.2,3.2h3.2V25.6H22.4Zm-3.2,2.88a15.555,15.555,0,0,0,3.2-1.024V28.8H19.2ZM25.6,19.2h3.2V16H25.6ZM22.4,9.6H19.2v3.2h3.2Zm6.4,12.8h1.856a15.555,15.555,0,0,0,1.024-3.2H28.8ZM22.4,16H19.2v3.2h3.2ZM16,25.6V22.4h3.2V19.2H16V16h3.2V12.8H16V9.6h3.2V6.4H16V3.2h3.2V.32A31.317,31.317,0,0,0,16,0V28.8h3.2V25.6Zm3.2,0h3.2V22.4H19.2Z" transform="translate(991 2811)" fill="#85e6c4"/>
  </g>
</svg>
