<svg xmlns="http://www.w3.org/2000/svg" width="273" height="97" viewBox="0 0 273 97">
  <g id="Group_19155" data-name="Group 19155" transform="translate(-149 -4125)">
    <rect id="Rectangle_6593" data-name="Rectangle 6593" width="273" height="97" rx="10" transform="translate(149 4125)" fill="#fff"/>
    <g id="Group_18823" data-name="Group 18823" transform="translate(-210.692 -2438.934)">
      <rect id="Rectangle_6307" data-name="Rectangle 6307" width="189" height="71" transform="translate(401.692 6576.933)" fill="#fff"/>
      <g id="_1b1b1bff" data-name="#1b1b1bff" transform="translate(415.556 6584.25)">
        <path id="Path_24212" data-name="Path 24212" d="M603.078.74c1.2,1.872,2.209,3.863,3.337,5.78q3.506,6.2,7.017,12.389-10.322.015-20.642,0C596.206,12.846,599.655,6.8,603.078.74Z" transform="translate(-473.624 -0.74)" fill="#1b1b1b"/>
        <path id="Path_24213" data-name="Path 24213" d="M6.43,125.157c2.193-13.1,4.341-26.211,6.564-39.307,4.219.022,8.44,0,12.661.008,3.565.018,7.192-.163,10.678.744a12.773,12.773,0,0,1,7.383,4.587,15.139,15.139,0,0,1,2.518,9.31,32.006,32.006,0,0,1-3.073,12.846,20.954,20.954,0,0,1-5.877,7.534,20.556,20.556,0,0,1-10.426,4.065,55.723,55.723,0,0,1-6.694.213H6.43M23.483,95.034q-1.75,10.474-3.491,20.949c2.187-.039,4.439.187,6.552-.51a9.187,9.187,0,0,0,5.406-4.579,21.247,21.247,0,0,0,2.138-9.56c-.037-1.807-.339-3.989-2.04-5.01C29.492,94.739,26.353,95.083,23.483,95.034Z" transform="translate(-6.43 -68.553)" fill="#1b1b1b"/>
        <path id="Path_24214" data-name="Path 24214" d="M205.484,85.894q6.015,0,12.033,0-2.512,15.062-5.018,30.125c5.51-.006,11.019,0,16.529,0-.512,3.059-1.01,6.121-1.536,9.18q-14.276-.015-28.552,0Q202.2,105.54,205.484,85.894Z" transform="translate(-159.816 -68.587)" fill="#1b1b1b"/>
        <path id="Path_24215" data-name="Path 24215" d="M362.312,85.894q14.285,0,28.568,0c-.5,3.055-1.022,6.105-1.522,9.16-5.512.035-11.023,0-16.537.018q-.588,3.57-1.189,7.139c4.386,0,8.771.018,13.157-.01-.475,3.063-1.02,6.115-1.512,9.178-4.39.01-8.782,0-13.171.006q-1.146,6.9-2.3,13.805-6.021,0-12.039,0Q359.041,105.541,362.312,85.894Z" transform="translate(-284.774 -68.587)" fill="#1b1b1b"/>
        <path id="Path_24216" data-name="Path 24216" d="M596.75,96.942q9.517-.006,19.034,0-4.749,8.4-9.513,16.793Q601.491,105.35,596.75,96.942Z" transform="translate(-476.779 -77.389)" fill="#1b1b1b"/>
        <path id="Path_24217" data-name="Path 24217" d="M540.24,114.386q4.969-8.725,9.914-17.466,4.966,8.734,9.92,17.478C553.462,114.392,546.851,114.414,540.24,114.386Z" transform="translate(-431.754 -77.373)" fill="#1b1b1b"/>
        <path id="Path_24218" data-name="Path 24218" d="M649.18,114.392q4.966-8.728,9.913-17.472,4.963,8.737,9.916,17.48C662.4,114.392,655.789,114.41,649.18,114.392Z" transform="translate(-518.554 -77.373)" fill="#1b1b1b"/>
        <path id="Path_24219" data-name="Path 24219" d="M495.984,189.65c3.467,6.054,6.894,12.135,10.332,18.205q-10.325.006-20.646,0Q490.819,198.747,495.984,189.65Z" transform="translate(-388.274 -151.258)" fill="#1b1b1b"/>
        <path id="Path_24220" data-name="Path 24220" d="M544.22,189.7c6.347.01,12.694,0,19.041,0-3.114,5.512-6.253,11.009-9.359,16.525-.1.364-.352.02-.4-.142C550.42,200.615,547.307,195.165,544.22,189.7Z" transform="translate(-434.925 -151.298)" fill="#1b1b1b"/>
        <path id="Path_24221" data-name="Path 24221" d="M649.26,189.72q9.517-.006,19.038,0-4.758,8.4-9.521,16.795Q654.022,198.114,649.26,189.72Z" transform="translate(-518.618 -151.312)" fill="#1b1b1b"/>
        <path id="Path_24222" data-name="Path 24222" d="M710.153,189.78c1.7,2.784,3.231,5.676,4.872,8.5q2.74,4.844,5.489,9.68-10.328,0-20.654,0C703.286,201.894,706.735,195.846,710.153,189.78Z" transform="translate(-558.934 -151.361)" fill="#1b1b1b"/>
        <path id="Path_24223" data-name="Path 24223" d="M604.837,193.18c3.356,5.8,6.607,11.659,9.908,17.49q-9.9,0-19.794,0C598.236,204.835,601.567,199.025,604.837,193.18Z" transform="translate(-475.345 -154.07)" fill="#1b1b1b"/>
      </g>
    </g>
  </g>
</svg>
