<svg xmlns="http://www.w3.org/2000/svg" width="160" height="60" viewBox="0 0 160 60">
  <g id="Group_18823" data-name="Group 18823" transform="translate(-402 -6577.174)">
    <rect id="Rectangle_6307" data-name="Rectangle 6307" width="160" height="60" transform="translate(402 6577.174)" fill="#fff"/>
    <g id="_1b1b1bff" data-name="#1b1b1bff" transform="translate(407.064 6582.434)">
      <path id="Path_24212" data-name="Path 24212" d="M601.513.74c1.018,1.587,1.873,3.276,2.83,4.9q2.973,5.255,5.95,10.505-8.752.013-17.5,0C595.687,11.006,598.611,5.881,601.513.74Z" transform="translate(-485.314 0)" fill="#1b1b1b"/>
      <path id="Path_24213" data-name="Path 24213" d="M6.43,119.18C8.289,108.07,10.111,96.955,12,85.85c3.578.019,7.157,0,10.736.007,3.023.016,6.1-.138,9.054.631a10.831,10.831,0,0,1,6.261,3.889,12.837,12.837,0,0,1,2.135,7.894,27.139,27.139,0,0,1-2.606,10.893,17.768,17.768,0,0,1-4.984,6.388A17.43,17.43,0,0,1,23.752,119a47.248,47.248,0,0,1-5.676.181H6.43M20.89,93.637q-1.484,8.882-2.961,17.763a18.541,18.541,0,0,0,5.556-.433,7.79,7.79,0,0,0,4.584-3.883,18.016,18.016,0,0,0,1.813-8.106c-.031-1.532-.288-3.383-1.73-4.248C25.986,93.388,23.323,93.679,20.89,93.637Z" transform="translate(0 -70.443)" fill="#1b1b1b"/>
      <path id="Path_24214" data-name="Path 24214" d="M204.489,85.894q5.1,0,10.2,0-2.13,12.772-4.255,25.544c4.672-.005,9.344,0,14.015,0-.434,2.594-.856,5.191-1.3,7.784q-12.105-.013-24.21,0Q201.706,102.553,204.489,85.894Z" transform="translate(-159.335 -70.478)" fill="#1b1b1b"/>
      <path id="Path_24215" data-name="Path 24215" d="M361.317,85.894q12.113,0,24.224,0c-.426,2.59-.867,5.177-1.291,7.767-4.673.029-9.347,0-14.022.016q-.5,3.027-1.008,6.054c3.719,0,7.438.016,11.156-.009-.4,2.6-.865,5.185-1.282,7.782-3.722.009-7.446,0-11.169.005q-.972,5.852-1.947,11.706-5.105,0-10.209,0Q358.544,102.553,361.317,85.894Z" transform="translate(-289.139 -70.478)" fill="#1b1b1b"/>
      <path id="Path_24216" data-name="Path 24216" d="M596.75,96.942q8.07-.005,16.14,0-4.027,7.124-8.067,14.239Q600.77,104.071,596.75,96.942Z" transform="translate(-488.592 -79.622)" fill="#1b1b1b"/>
      <path id="Path_24217" data-name="Path 24217" d="M540.24,111.73q4.213-7.4,8.406-14.81,4.211,7.406,8.411,14.82C551.452,111.735,545.846,111.754,540.24,111.73Z" transform="translate(-441.82 -79.606)" fill="#1b1b1b"/>
      <path id="Path_24218" data-name="Path 24218" d="M649.18,111.735q4.211-7.4,8.406-14.815,4.208,7.408,8.408,14.822C660.388,111.735,654.784,111.75,649.18,111.735Z" transform="translate(-531.987 -79.606)" fill="#1b1b1b"/>
      <path id="Path_24219" data-name="Path 24219" d="M494.416,189.65c2.94,5.134,5.845,10.29,8.761,15.437q-8.755.005-17.507,0Q490.036,197.363,494.416,189.65Z" transform="translate(-396.654 -156.356)" fill="#1b1b1b"/>
      <path id="Path_24220" data-name="Path 24220" d="M544.22,189.7c5.382.009,10.764,0,16.145,0-2.64,4.674-5.3,9.335-7.936,14.012-.081.308-.3.017-.341-.121C549.478,198.956,546.838,194.334,544.22,189.7Z" transform="translate(-445.114 -156.397)" fill="#1b1b1b"/>
      <path id="Path_24221" data-name="Path 24221" d="M649.26,189.72q8.07-.005,16.144,0-4.035,7.121-8.073,14.241Q653.3,196.838,649.26,189.72Z" transform="translate(-532.053 -156.412)" fill="#1b1b1b"/>
      <path id="Path_24222" data-name="Path 24222" d="M708.588,189.78c1.444,2.361,2.74,4.813,4.131,7.207q2.324,4.107,4.655,8.208-8.758,0-17.514,0C702.765,200.052,705.69,194.924,708.588,189.78Z" transform="translate(-573.933 -156.463)" fill="#1b1b1b"/>
      <path id="Path_24223" data-name="Path 24223" d="M603.334,193.18c2.845,4.917,5.6,9.886,8.4,14.83q-8.393,0-16.785,0C597.736,203.063,600.561,198.136,603.334,193.18Z" transform="translate(-487.102 -159.277)" fill="#1b1b1b"/>
    </g>
  </g>
</svg>
