<svg id="Easy_Collect" data-name="Easy Collect" xmlns="http://www.w3.org/2000/svg" xmlns:xlink="http://www.w3.org/1999/xlink" width="41.248" height="42" viewBox="0 0 41.248 42">
  <defs>
    <linearGradient id="linear-gradient" x1="0.322" y1="-0.805" x2="0.602" y2="1.258" gradientUnits="objectBoundingBox">
      <stop offset="0" stop-color="#fff5e9"/>
      <stop offset="0.605" stop-color="#7d95e6"/>
      <stop offset="0.999" stop-color="#3f28dd"/>
    </linearGradient>
  </defs>
  <path id="Path_1928" data-name="Path 1928" d="M23.418,16.057a11.586,11.586,0,0,1-1.26,5.039A10.38,10.38,0,1,0,11.9,5.8h1.08A10.294,10.294,0,0,1,23.418,16.057Z" transform="translate(8.976 -0.4)" fill="#18253e"/>
  <path id="Path_1929" data-name="Path 1929" d="M15.938,4h-1.08A10.467,10.467,0,1,0,25.116,19.477a9.542,9.542,0,0,0,1.26-5.039A10.445,10.445,0,0,0,15.938,4Z" transform="translate(3.858 2.479)" fill="#33eeb1"/>
  <path id="Path_1930" data-name="Path 1930" d="M14.5,10.519H9.64c-.54,0-.72-.18-.72-.54a.659.659,0,0,1,.72-.72H14.5c0-.18-.18-.36-.18-.54a2.594,2.594,0,0,0-2.34-1.44H9.46c0,.18-.36,0-.36-.18-.36-.36,0-.9.54-.9h7.379c.36,0,.72.18.72.54a.659.659,0,0,1-.72.72h-1.8c.36.54.54,1.26.9,1.8h.9c.54,0,.72.18.72.72,0,.36-.36.54-.72.54h-.9c-.72,2.34-2.34,3.239-4.679,3.059.18.18.18.36.36.36,1.26,1.26,2.52,2.52,3.959,3.779l.36.36a.817.817,0,0,1,0,.9.8.8,0,0,1-.9,0,.176.176,0,0,1-.18-.18c-1.8-1.62-3.419-3.419-5.219-5.039-.72-.36-1.08-.54-.9-.9s.54-.36.9-.36h2.34A2.341,2.341,0,0,0,14.5,10.519Z" transform="translate(6.557 4.238)" fill="#fff"/>
  <g id="Group_3251" data-name="Group 3251" transform="translate(0 20.222)">
    <g id="Group_3250" data-name="Group 3250">
      <path id="Path_1931" data-name="Path 1931" d="M21.356,24.708H12.718a2.044,2.044,0,0,0-1.44.54c-2.34,2.34-4.859,4.679-7.2,7.019-.72,1.08-1.62,1.44-2.52.9A2.283,2.283,0,0,1,.3,30.827V25.068a2.89,2.89,0,0,1,.9-1.98l8.1-8.1a3.32,3.32,0,0,1,2.16-.9H26.215a2.263,2.263,0,0,1,2.52,1.98c0,1.26-.9,1.98-2.52,1.98h-5.4c-.36,0-.54.36-.9.54.36.18.54.54.9.54h9.9a2.053,2.053,0,0,0,1.08-.54c2.16-1.98,4.139-4.139,6.119-6.119,1.08-1.08,2.34-1.08,3.059-.18.9.9.72,1.98-.36,3.059l-8.278,8.278a3.32,3.32,0,0,1-2.16.9A72.852,72.852,0,0,1,21.356,24.708Z" transform="translate(-0.3 -11.637)" fill="url(#linear-gradient)"/>
    </g>
  </g>
</svg>
