<svg xmlns="http://www.w3.org/2000/svg" xmlns:xlink="http://www.w3.org/1999/xlink" width="37.796" height="42" viewBox="0 0 37.796 42">
  <defs>
    <linearGradient id="linear-gradient" x1="0.5" y1="-0.297" x2="0.5" y2="1" gradientUnits="objectBoundingBox">
      <stop offset="0" stop-color="#fff5e9"/>
      <stop offset="0.605" stop-color="#7d95e6"/>
      <stop offset="0.999" stop-color="#3f28dd"/>
    </linearGradient>
  </defs>
  <g id="Group_6037" data-name="Group 6037" transform="translate(-2162 -4954.996)">
    <path id="Path_4751" data-name="Path 4751" d="M42.418,12.6V10.966A10.825,10.825,0,0,0,32.969.047,10.51,10.51,0,0,0,21.419,10.5v2.1Zm-16.8-2.1a6.3,6.3,0,1,1,12.6,0v2.1H25.62Z" transform="translate(2148.814 4955)" fill="#33eeb1"/>
    <path id="Path_4752" data-name="Path 4752" d="M43.911,45.823v4.2h-4.2v-4.2Zm-21,0h4.2v4.2h-4.2Z" transform="translate(2147.486 4925.974)" fill="#18253e"/>
    <path id="Path_4750" data-name="Path 4750" d="M4.2,63.765H33.6a4.2,4.2,0,0,0,4.2-4.2l-1.866-23.1a2.1,2.1,0,0,0-2.1-2.1H3.966a2.1,2.1,0,0,0-2.1,2.1L0,59.565a4.2,4.2,0,0,0,4.2,4.2Zm25.2-25.2v4.2H25.2v-4.2Zm-4.2-4.2Zm-16.8,4.2h4.2v4.2H8.4Z" transform="translate(2162 4933.23)" fill="url(#linear-gradient)"/>
  </g>
</svg>
