<svg width="44" height="41" viewBox="0 0 44 41" fill="none" xmlns="http://www.w3.org/2000/svg">
<path d="M37.0489 30.6548L36.6873 30.3477C35.663 29.4815 34.7664 28.4883 34.0218 27.3948C33.2088 25.8868 32.7213 24.2399 32.5876 22.5508V17.5738C32.5944 14.9192 31.5793 12.3535 29.7331 10.3589C27.8868 8.36417 25.3365 7.07772 22.5611 6.74116V5.44083C22.5611 5.08402 22.4117 4.74182 22.1457 4.48951C21.8798 4.2372 21.5191 4.09546 21.143 4.09546C20.7669 4.09546 20.4063 4.2372 20.1403 4.48951C19.8744 4.74182 19.725 5.08402 19.725 5.44083V6.76061C16.9743 7.12138 14.4546 8.41568 12.6325 10.4038C10.8104 12.3919 9.80948 14.9392 9.81502 17.5738V22.5508C9.68184 24.241 9.19423 25.8889 8.3808 27.3979C7.64904 28.4894 6.76674 29.4832 5.75735 30.3528L5.39583 30.66V33.4961H37.0489V30.6548Z" fill="#85E6C4"/>
<path d="M18.4289 34.5549C18.5219 35.1938 18.8554 35.7792 19.3679 36.2029C19.8804 36.6266 20.5372 36.8601 21.217 36.8601C21.8967 36.8601 22.5535 36.6266 23.066 36.2029C23.5785 35.7792 23.912 35.1938 24.005 34.5549H18.4289Z" fill="#6D44E5"/>
</svg>
