<svg width="44" height="49" viewBox="0 0 44 49" fill="none" xmlns="http://www.w3.org/2000/svg">
<path d="M33.4542 40.6891H9.71251C8.28198 40.6872 6.91052 40.0456 5.89898 38.9051C4.88743 37.7645 4.31839 36.2182 4.31668 34.6052L4.31668 14.066C4.31839 12.453 4.88743 10.9067 5.89898 9.76613C6.91052 8.62559 8.28198 7.98399 9.71251 7.98206L33.4542 7.98206C34.8847 7.98399 36.2562 8.62559 37.2677 9.76613C38.2793 10.9067 38.8483 12.453 38.85 14.066V34.6052C38.8483 36.2182 38.2793 37.7645 37.2677 38.9051C36.2562 40.0456 34.8847 40.6872 33.4542 40.6891ZM15.022 9.53954C14.8171 9.53954 14.6168 9.60804 14.4464 9.7364C14.2761 9.86475 14.1433 10.0472 14.0649 10.2606C13.9865 10.4741 13.9659 10.7089 14.0059 10.9355C14.0459 11.1621 14.1446 11.3703 14.2895 11.5336C14.4343 11.697 14.6189 11.8082 14.8199 11.8533C15.0209 11.8984 15.2292 11.8753 15.4185 11.7868C15.6078 11.6984 15.7696 11.5487 15.8834 11.3566C15.9973 11.1645 16.058 10.9387 16.058 10.7076C16.0577 10.3979 15.9485 10.101 15.7543 9.88202C15.56 9.66303 15.2967 9.53986 15.022 9.53954ZM11.5687 9.53954C11.3637 9.5393 11.1633 9.6076 10.9928 9.73581C10.8223 9.86401 10.6894 10.0464 10.6108 10.2598C10.5322 10.4732 10.5115 10.7081 10.5514 10.9348C10.5912 11.1615 10.6898 11.3697 10.8347 11.5332C10.9795 11.6967 11.1641 11.8081 11.3651 11.8532C11.5661 11.8984 11.7744 11.8753 11.9638 11.787C12.1532 11.6986 12.315 11.5489 12.4289 11.3567C12.5428 11.1646 12.6036 10.9387 12.6036 10.7076C12.6033 10.3982 12.4942 10.1014 12.3002 9.88245C12.1062 9.66349 11.8432 9.54018 11.5687 9.53954ZM8.11535 9.53954C7.91045 9.53954 7.71015 9.60804 7.53978 9.7364C7.36941 9.86475 7.23662 10.0472 7.15821 10.2606C7.0798 10.4741 7.05928 10.7089 7.09925 10.9355C7.13923 11.1621 7.2379 11.3703 7.38278 11.5336C7.52767 11.697 7.71227 11.8082 7.91323 11.8533C8.1142 11.8984 8.3225 11.8753 8.51181 11.7868C8.70111 11.6984 8.86291 11.5487 8.97675 11.3566C9.09059 11.1645 9.15135 10.9387 9.15135 10.7076C9.15106 10.3979 9.04182 10.101 8.84759 9.88202C8.65337 9.66303 8.39002 9.53986 8.11535 9.53954Z" fill="#85E6C4"/>
<path d="M38.8204 13.4332H4.34538C4.48411 11.9374 5.10935 10.5525 6.10042 9.54577C7.09149 8.5391 8.37815 7.98202 9.71208 7.98206L33.4537 7.98206C34.7875 7.98199 36.074 8.5389 37.0651 9.54532C38.0561 10.5517 38.6815 11.9376 38.8204 13.4332ZM15.0216 9.53954C14.8167 9.53954 14.6164 9.60804 14.446 9.7364C14.2756 9.86475 14.1429 10.0472 14.0644 10.2606C13.986 10.4741 13.9655 10.7089 14.0055 10.9355C14.0455 11.1621 14.1441 11.3703 14.289 11.5336C14.4339 11.697 14.6185 11.8082 14.8195 11.8533C15.0204 11.8984 15.2287 11.8753 15.418 11.7868C15.6073 11.6984 15.7691 11.5487 15.883 11.3566C15.9968 11.1645 16.0576 10.9387 16.0576 10.7076C16.0573 10.3979 15.9481 10.101 15.7538 9.88202C15.5596 9.66303 15.2963 9.53986 15.0216 9.53954ZM11.5682 9.53954C11.3633 9.5393 11.1629 9.6076 10.9924 9.73581C10.8219 9.86401 10.6889 10.0464 10.6103 10.2598C10.5318 10.4732 10.5111 10.7081 10.5509 10.9348C10.5908 11.1615 10.6894 11.3697 10.8342 11.5332C10.9791 11.6967 11.1637 11.8081 11.3647 11.8532C11.5656 11.8984 11.774 11.8753 11.9634 11.787C12.1527 11.6986 12.3146 11.5489 12.4285 11.3567C12.5424 11.1646 12.6032 10.9387 12.6032 10.7076C12.6029 10.3982 12.4938 10.1014 12.2998 9.88245C12.1058 9.66349 11.8427 9.54018 11.5682 9.53954ZM8.11491 9.53954C7.91001 9.53954 7.70971 9.60804 7.53934 9.7364C7.36897 9.86475 7.23619 10.0472 7.15777 10.2606C7.07936 10.4741 7.05884 10.7089 7.09882 10.9355C7.13879 11.1621 7.23746 11.3703 7.38235 11.5336C7.52724 11.697 7.71183 11.8082 7.9128 11.8533C8.11376 11.8984 8.32207 11.8753 8.51137 11.7868C8.70068 11.6984 8.86248 11.5487 8.97631 11.3566C9.09015 11.1645 9.15091 10.9387 9.15091 10.7076C9.15063 10.3979 9.04139 10.101 8.84716 9.88202C8.65293 9.66303 8.38959 9.53986 8.11491 9.53954Z" fill="#6D44E5"/>
<path d="M13.7118 17.0679H9.42429C8.82828 17.0679 8.34512 17.6126 8.34512 18.2847V20.3933C8.34512 21.0653 8.82828 21.6101 9.42429 21.6101H13.7118C14.3078 21.6101 14.791 21.0653 14.791 20.3933V18.2847C14.791 17.6126 14.3078 17.0679 13.7118 17.0679Z" fill="#6D44E5"/>
<path d="M16.9353 24.3356H9.42429C8.82828 24.3356 8.34512 24.8803 8.34512 25.5524V27.661C8.34512 28.333 8.82828 28.8778 9.42429 28.8778H16.9353C17.5313 28.8778 18.0145 28.333 18.0145 27.661V25.5524C18.0145 24.8803 17.5313 24.3356 16.9353 24.3356Z" fill="#6D44E5"/>
<path d="M20.1588 31.6035H9.42429C8.82828 31.6035 8.34512 32.1483 8.34512 32.8203V34.929C8.34512 35.601 8.82828 36.1458 9.42429 36.1458H20.1588C20.7548 36.1458 21.2379 35.601 21.2379 34.929V32.8203C21.2379 32.1483 20.7548 31.6035 20.1588 31.6035Z" fill="#6D44E5"/>
</svg>
