<svg width="44" height="42" viewBox="0 0 44 42" fill="none" xmlns="http://www.w3.org/2000/svg">
<rect x="6.16669" y="8.94763" width="22.6111" height="25.8488" fill="#6D44E5"/>
<path d="M34.1736 20.8779H39.5694V34.7965C39.5694 35.7193 39.1904 36.6044 38.5158 37.257C37.8412 37.9095 36.9263 38.2761 35.9722 38.2761H34.1736V20.8779ZM30.5764 6.95927V38.2761H7.19445C6.24041 38.2761 5.32544 37.9095 4.65083 37.257C3.97622 36.6044 3.59723 35.7193 3.59723 34.7965V6.95927C3.59723 6.0364 3.97622 5.15134 4.65083 4.49878C5.32544 3.84622 6.24041 3.47961 7.19445 3.47961H26.9792C27.9332 3.47961 28.8482 3.84622 29.5228 4.49878C30.1974 5.15134 30.5764 6.0364 30.5764 6.95927ZM17.9861 27.8372H8.99306V31.3168H17.9861V27.8372ZM25.1806 19.138H8.99306V22.6177H25.1806V19.138ZM25.1806 10.4389H8.99306V13.9186H25.1806V10.4389Z" fill="#85E6C4"/>
</svg>
