<svg width="44" height="44" viewBox="0 0 44 44" fill="none" xmlns="http://www.w3.org/2000/svg">
<path d="M34.1578 9.98901L24.5284 36.005L18.0415 24.9501L7.20883 18.7566L34.1578 9.98901Z" fill="#6D44E5"/>
<path fill-rule="evenodd" clip-rule="evenodd" d="M37.5237 4.4007L4.99762 15.5294C4.81547 15.5921 4.65505 15.7061 4.53549 15.858C4.41592 16.0099 4.34225 16.1931 4.32326 16.386C4.30426 16.5788 4.34075 16.7731 4.42836 16.9457C4.51597 17.1182 4.65101 17.2618 4.81739 17.3592L14.8795 23.2507C15.0462 23.3482 15.2371 23.3953 15.4297 23.3864C15.6222 23.3776 15.8081 23.3131 15.9652 23.2007L27.4195 14.9633L27.522 14.9057C27.6267 14.8625 27.7428 14.8561 27.8515 14.8877C27.9602 14.9192 28.0552 14.9869 28.1209 15.0796L28.1803 15.1882C28.2105 15.2665 28.2209 15.351 28.2105 15.4343C28.2002 15.5176 28.1694 15.597 28.1209 15.6653L19.984 27.1352C19.8709 27.2937 19.8059 27.4818 19.7967 27.6767C19.7875 27.8717 19.8346 28.0651 19.9322 28.2337L25.9259 38.616C26.0229 38.7831 26.1655 38.9187 26.3368 39.0067C26.5081 39.0946 26.7009 39.1311 26.8922 39.1118C27.0835 39.0926 27.2654 39.0185 27.416 38.8982C27.5667 38.7779 27.6799 38.6166 27.7421 38.4334L38.7982 5.68177C38.8584 5.50305 38.8677 5.31091 38.8251 5.12713C38.7824 4.94335 38.6895 4.77527 38.5569 4.64193C38.4242 4.50859 38.2571 4.41531 38.0745 4.37268C37.8919 4.33004 37.7011 4.33975 37.5237 4.4007Z" fill="#85E6C4"/>
</svg>
