<svg width="44" height="34" viewBox="0 0 44 34" fill="none" xmlns="http://www.w3.org/2000/svg">
<path d="M23.0002 26.5944H6.57857C4.83383 26.5944 3.16054 25.8939 1.92682 24.6471C0.693097 23.4002 0 21.7091 0 19.9458L0 10.6378H36.8414V11.7933C36.0526 11.6299 35.2495 11.5478 34.4444 11.5479C32.63 11.549 30.8401 11.9712 29.2127 12.7818C27.5852 13.5925 26.1637 14.7701 25.0577 16.2237C23.9517 17.6773 23.1908 19.3682 22.8336 21.166C22.4764 22.9639 22.5324 24.8206 22.9974 26.593L23.0002 26.5944ZM6.57857 18.6161C6.22962 18.6161 5.89496 18.7562 5.64822 19.0056C5.40148 19.2549 5.26286 19.5932 5.26286 19.9458C5.26286 20.2985 5.40148 20.6367 5.64822 20.8861C5.89496 21.1354 6.22962 21.2755 6.57857 21.2755H11.8414C12.1904 21.2755 12.525 21.1354 12.7718 20.8861C13.0185 20.6367 13.1571 20.2985 13.1571 19.9458C13.1571 19.5932 13.0185 19.2549 12.7718 19.0056C12.525 18.7562 12.1904 18.6161 11.8414 18.6161H6.57857ZM36.8414 7.97833H0V6.64861C0 4.8853 0.693097 3.1942 1.92682 1.94734C3.16054 0.70049 4.83383 1.49258e-05 6.57857 1.49258e-05H30.2628C31.1274 -0.00184249 31.9837 0.169675 32.7822 0.504634C33.5807 0.839594 34.3055 1.33134 34.9147 1.95139C36.1461 3.2002 36.84 4.88976 36.8455 6.6528V7.98112L36.8414 7.97833Z" fill="#85E6C4"/>
<path d="M34.3065 13.6556C32.3903 13.6556 30.5171 14.2299 28.9238 15.3058C27.3305 16.3818 26.0887 17.911 25.3554 19.7002C24.6221 21.4894 24.4303 23.4582 24.8041 25.3576C25.1779 27.257 26.1007 29.0017 27.4556 30.3711C28.8106 31.7405 30.5369 32.6731 32.4163 33.0509C34.2957 33.4287 36.2438 33.2348 38.0141 32.4937C39.7845 31.7526 41.2976 30.4976 42.3622 28.8873C43.4268 27.2771 43.995 25.384 43.995 23.4473C43.995 20.8504 42.9743 18.3599 41.1573 16.5236C39.3404 14.6873 36.8761 13.6556 34.3065 13.6556ZM37.8296 24.3375H34.3065C34.0729 24.3375 33.8489 24.2437 33.6837 24.0768C33.5185 23.9098 33.4257 23.6834 33.4257 23.4473V18.1064C33.4257 17.8703 33.5185 17.6439 33.6837 17.477C33.8489 17.31 34.0729 17.2163 34.3065 17.2163C34.5401 17.2163 34.7641 17.31 34.9293 17.477C35.0945 17.6439 35.1873 17.8703 35.1873 18.1064V22.5572H37.8296C38.0632 22.5572 38.2872 22.651 38.4524 22.8179C38.6176 22.9848 38.7104 23.2113 38.7104 23.4473C38.7104 23.6834 38.6176 23.9098 38.4524 24.0768C38.2872 24.2437 38.0632 24.3375 37.8296 24.3375Z" fill="#6D44E5"/>
</svg>
