<svg width="44" height="45" viewBox="0 0 44 45" fill="none" xmlns="http://www.w3.org/2000/svg">
<g clip-path="url(#clip0_30_95)">
<path d="M24.2238 18.1674H25.2208V5.04031C25.2208 2.26696 22.9745 0 20.2356 0H5.70648C2.96567 0 0.725311 2.26696 0.725311 5.04031V19.7399C0.725311 22.5153 2.96567 24.7823 5.70648 24.7823H17.27C17.3814 23.0731 18.0676 21.4728 19.2855 20.2444C20.6031 18.9032 22.3587 18.1674 24.2238 18.1674ZM4.88148 14.755V10.0252H14.1147V6.77721L21.0118 12.3912L14.1128 18.0052V14.7551H4.88148V14.755Z" fill="#6D44E5"/>
<path d="M38.2915 19.738H23.7624C21.0235 19.738 18.7812 22.005 18.7812 24.7804V39.482C18.7812 42.2514 21.0216 44.5223 23.7624 44.5223H38.2915C41.0285 44.5223 43.2747 42.2533 43.2747 39.482V24.7804C43.2727 22.007 41.0304 19.738 38.2915 19.738ZM39.1165 34.4971H29.8833V37.7452L22.9843 32.1332L29.8833 26.5212V29.7693H39.1165V34.4971Z" fill="#85E6C4"/>
</g>
<defs>
<clipPath id="clip0_30_95">
<rect width="44" height="44.5224" fill="white"/>
</clipPath>
</defs>
</svg>
