<svg width="40" height="40" viewBox="0 0 40 40" fill="none" xmlns="http://www.w3.org/2000/svg">
<path d="M35.9808 40H2.87081C1.33971 40 0 38.6603 0 37.1292V12.2489C0 10.7178 1.33971 9.37805 2.87081 9.37805H35.9808C37.5119 9.37805 38.8516 10.7178 38.8516 12.2489V37.1292C38.8516 38.8517 37.7033 40 35.9808 40Z" fill="url(#paint0_linear)"/>
<path d="M37.5119 0C38.2775 0 39.043 0.765549 39.043 1.5311V5.55023C38.8516 6.50717 38.2775 7.27272 37.5119 7.27272H1.33971C0.574162 7.27272 0 6.69856 0 5.93301V1.33971C0 0.574162 0.574162 0 1.14832 0H37.5119Z" fill="url(#paint1_linear)"/>
<mask id="mask0" mask-type="alpha" maskUnits="userSpaceOnUse" x="0" y="9" width="39" height="31">
<path d="M35.9808 40H2.87081C1.33971 40 0 38.6603 0 37.1292V12.2489C0 10.7178 1.33971 9.37805 2.87081 9.37805H35.9808C37.5119 9.37805 38.8516 10.7178 38.8516 12.2489V37.1292C38.8516 38.8517 37.7033 40 35.9808 40Z" fill="url(#paint2_linear)"/>
</mask>
<g mask="url(#mask0)">
<path d="M-2.67944 40H40.5741" stroke="white" stroke-width="0.8613" stroke-miterlimit="10" stroke-linecap="round" stroke-linejoin="round"/>
</g>
<path d="M6.50726 5.55028C7.56426 5.55028 8.42113 4.69341 8.42113 3.63641C8.42113 2.5794 7.56426 1.72253 6.50726 1.72253C5.45025 1.72253 4.59338 2.5794 4.59338 3.63641C4.59338 4.69341 5.45025 5.55028 6.50726 5.55028Z" fill="white"/>
<path d="M13.2057 5.55028C14.2627 5.55028 15.1196 4.69341 15.1196 3.63641C15.1196 2.5794 14.2627 1.72253 13.2057 1.72253C12.1487 1.72253 11.2919 2.5794 11.2919 3.63641C11.2919 4.69341 12.1487 5.55028 13.2057 5.55028Z" fill="white"/>
<path d="M22.0095 35.9808C20.8611 35.9808 19.7128 35.9808 18.7559 35.9808C18.5645 35.7894 18.3731 35.4066 18.3731 35.2153C18.1817 34.8325 18.1817 34.4497 18.1817 34.2583C18.1817 33.6842 17.9903 33.4928 17.4162 33.3014C16.842 33.11 16.2678 32.7272 15.8851 32.7272C15.3109 32.7272 14.9281 33.4928 14.354 33.8755C13.9712 34.2583 13.5884 34.0669 13.397 33.8755C13.0143 33.4928 12.4401 32.9186 12.0573 32.5358C11.1004 31.5789 10.909 31.5789 11.8659 30.2392C12.4401 29.665 12.2487 29.2822 12.0573 28.5167C11.6745 27.3684 11.1004 26.9856 9.95205 26.9856C9.56928 26.9856 9.1865 26.7942 8.99512 26.4114C8.99512 25.2631 8.99512 24.1148 8.99512 23.1578C9.1865 22.9665 9.56928 22.7751 9.76067 22.7751C10.1434 22.5837 10.5262 22.5837 10.7176 22.5837C11.2918 22.5837 11.4832 22.3923 11.6745 21.8181C11.8659 21.244 12.2487 20.6698 12.2487 20.287C12.2487 19.7129 11.4832 19.3301 11.1004 18.7559C10.7176 18.3732 10.909 17.9904 11.1004 17.799C11.4832 17.4162 12.0573 16.8421 12.4401 16.4593C13.397 15.5024 13.397 15.311 14.5454 16.2679C15.1195 16.8421 15.5023 16.6507 16.2678 16.4593C17.4162 16.0765 17.7989 15.5024 17.7989 14.354C17.7989 13.9713 17.9903 13.5885 18.3731 13.3971C19.5214 13.3971 20.6697 13.3971 21.6267 13.3971C21.8181 13.5885 22.0095 13.9713 22.0095 14.1626C22.2008 14.5454 22.2008 14.7368 22.2008 15.1196C22.2008 15.6937 22.3922 16.0765 22.9664 16.0765C23.5406 16.2679 24.1147 16.6507 24.4975 16.6507C25.0717 16.6507 25.4544 16.0765 25.8372 15.6937C26.22 15.311 26.6028 15.311 26.9855 15.6937C27.5597 16.2679 28.1339 16.8421 28.708 17.4162C29.4736 18.1818 29.4736 18.1818 28.8994 18.9473C28.708 19.1387 28.708 19.3301 28.5166 19.3301C27.9425 19.9043 28.1339 20.287 28.3252 21.0526C28.708 22.2009 29.2822 22.5837 30.4305 22.5837C30.8133 22.5837 31.196 22.7751 31.3874 23.1578C31.3874 24.3062 31.3874 25.4545 31.3874 26.4114C31.196 26.6028 30.8133 26.7942 30.6219 26.7942C30.2391 26.9856 29.8563 26.9856 29.6649 26.9856C29.0908 26.9856 28.8994 27.177 28.708 27.7511C28.5166 28.3253 28.1339 28.8995 28.1339 29.2822C28.1339 29.8564 28.8994 30.2392 29.2822 30.8133C29.665 31.1961 29.4736 31.5789 29.2822 31.7703C28.8994 32.1531 28.3252 32.7272 27.9425 33.11C26.9855 34.0669 26.9855 34.2583 25.6458 33.3014C25.0717 32.7272 24.6889 32.9186 23.9233 33.11C22.775 33.4928 22.3922 34.0669 22.3922 35.2153C22.3922 35.4066 22.3922 35.7894 22.0095 35.9808ZM26.0286 24.4976C26.0286 21.4354 23.3492 18.7559 20.287 18.7559C17.2248 18.7559 14.5454 21.4354 14.5454 24.4976C14.5454 27.5598 17.2248 30.2392 20.287 30.2392C23.3492 30.2392 26.0286 27.7511 26.0286 24.4976Z" fill="#33EDB0"/>
<defs>
<linearGradient id="paint0_linear" x1="15.021" y1="-1.88662" x2="23.9596" y2="51.5365" gradientUnits="userSpaceOnUse">
<stop stop-color="#FFF4E8"/>
<stop offset="0.6046" stop-color="#7D94E5"/>
<stop offset="0.9986" stop-color="#3F28DC"/>
</linearGradient>
<linearGradient id="paint1_linear" x1="18.7787" y1="-8.72363" x2="20.4289" y2="20.3445" gradientUnits="userSpaceOnUse">
<stop stop-color="#FFF4E8"/>
<stop offset="0.6046" stop-color="#7D94E5"/>
<stop offset="0.9986" stop-color="#3F28DC"/>
</linearGradient>
<linearGradient id="paint2_linear" x1="15.021" y1="-1.88662" x2="23.9596" y2="51.5365" gradientUnits="userSpaceOnUse">
<stop stop-color="#FFF4E8"/>
<stop offset="0.6046" stop-color="#7D94E5"/>
<stop offset="0.9986" stop-color="#3F28DC"/>
</linearGradient>
</defs>
</svg>
