<svg width="40" height="39" viewBox="0 0 40 39" fill="none" xmlns="http://www.w3.org/2000/svg">
<path d="M11.5837 23.1673C17.9812 23.1673 23.1673 17.9812 23.1673 11.5837C23.1673 5.18619 17.9812 0 11.5837 0C5.18619 0 0 5.18619 0 11.5837C0 17.9812 5.18619 23.1673 11.5837 23.1673Z" fill="url(#paint0_linear)"/>
<path d="M13.0316 9.23073C11.4026 9.23073 9.59269 9.23073 7.96374 9.23073C7.78275 9.23073 7.60175 9.23073 7.42076 9.23073C7.05877 9.23073 6.69678 8.86874 6.69678 8.50675C6.69678 8.14476 6.87777 7.78277 7.42076 7.78277C7.78275 7.78277 8.14474 7.78277 8.50673 7.78277C9.95469 7.78277 11.4026 7.78277 13.0316 7.78277C13.0316 7.60178 12.8506 7.42078 12.8506 7.23979C12.3076 6.33482 11.4026 5.79183 10.3167 5.79183C9.4117 5.79183 8.50673 5.79183 7.60175 5.79183C7.42076 5.79183 7.05877 5.61084 6.87777 5.42984C6.51578 5.06785 6.87777 4.34387 7.42076 4.34387C8.14474 4.34387 8.86872 4.34387 9.5927 4.34387C11.4026 4.34387 13.3936 4.34387 15.2035 4.34387C15.3845 4.34387 15.3845 4.34387 15.5655 4.34387C16.1085 4.34387 16.2895 4.70586 16.2895 5.06785C16.2895 5.42984 15.9275 5.79183 15.5655 5.79183C15.0225 5.79183 14.4796 5.79183 13.9366 5.79183C13.7556 5.79183 13.5746 5.79183 13.5746 5.79183C13.9366 6.51581 14.2986 7.0588 14.4796 7.78277C14.8415 7.78277 15.2035 7.78277 15.5655 7.78277C16.1085 7.78277 16.4705 8.14476 16.4705 8.50675C16.4705 8.86874 16.1085 9.23073 15.7465 9.23073C15.3845 9.23073 15.0225 9.23073 14.6606 9.23073C13.9366 11.9457 12.1266 12.8506 9.4117 12.6696C9.4117 13.0316 9.5927 13.0316 9.5927 13.2126C11.0407 14.6606 12.4886 15.9275 13.9366 17.3755C14.1176 17.5565 14.1176 17.5565 14.2986 17.7375C14.4796 18.0995 14.4796 18.4615 14.2986 18.6425C14.1176 18.8235 13.7556 19.0045 13.3936 18.6425C13.2126 18.6425 13.2126 18.4615 13.0316 18.4615C11.0407 16.6515 9.04971 14.6606 7.23976 12.8506C6.87777 12.4886 6.69678 12.1267 6.87777 11.7647C7.05877 11.4027 7.42076 11.4027 7.78275 11.4027C8.68772 11.4027 9.5927 11.4027 10.4977 11.4027C11.7646 11.4027 12.8506 10.4977 13.0316 9.23073Z" fill="white"/>
<path d="M28.5971 38.9138C27.3301 38.9138 25.8821 38.9138 24.6152 38.9138C24.4342 38.5518 24.2532 38.1898 24.0722 38.0088C23.8912 37.6468 23.8912 37.1038 23.8912 36.7419C23.8912 36.0179 23.7102 35.8369 22.9862 35.6559C22.2622 35.4749 21.7192 34.9319 20.9953 34.9319C20.4523 35.1129 19.9093 35.6559 19.3663 36.1989C19.0043 36.5609 18.4613 36.5609 18.0994 36.1989C17.5564 35.6559 17.0134 35.1129 16.4704 34.5699C15.2034 33.303 15.0224 33.4839 16.2894 31.855C16.2894 31.855 16.2894 31.855 16.2894 31.674C17.0134 31.131 16.8324 30.588 16.6514 29.6831C16.2894 28.2351 15.3844 27.8731 14.1175 27.8731C13.5745 27.8731 13.2125 27.6921 13.0315 27.3301C13.0315 26.0632 13.0315 24.6152 13.0315 23.3482C13.3935 23.1672 13.7555 22.9862 13.9365 22.8052C14.2985 22.6243 14.8414 22.6243 15.2034 22.6243C15.9274 22.6243 16.1084 22.4433 16.2894 21.7193C16.4704 20.9953 17.0134 20.4523 17.0134 19.7283C16.8324 19.1854 16.2894 18.6424 15.7464 18.0994C15.3844 17.7374 15.3844 17.1944 15.7464 16.8324C16.2894 16.2894 16.8324 15.7464 17.3754 15.2035C18.6423 14.2985 18.6423 13.9365 20.0903 15.2035C20.0903 15.2035 20.0903 15.2035 20.2713 15.2035C20.8143 15.9274 21.5383 15.7464 22.2622 15.5655C23.7102 15.2035 24.0722 14.2985 24.0722 13.0315C24.0722 12.4885 24.2532 12.1266 24.6152 11.9456C25.8821 11.9456 27.3301 11.9456 28.5971 11.9456C28.778 12.3075 28.959 12.6695 29.14 12.8505C29.321 13.2125 29.321 13.5745 29.321 14.1175C29.321 14.8415 29.502 15.2035 30.226 15.3845C30.95 15.5655 31.493 16.1084 32.036 16.1084C32.5789 15.9274 33.1219 15.3845 33.6649 14.8415C34.2079 14.4795 34.5699 14.4795 34.9319 14.8415C35.6559 15.5655 36.1988 16.1084 36.9228 16.8324C37.6468 17.5564 37.6468 17.7374 37.1038 18.6424C36.9228 18.8234 36.7418 19.0044 36.7418 19.1854C36.0178 19.7283 36.1988 20.2713 36.3798 21.1763C36.7418 22.6243 37.6468 22.9862 38.9138 22.9862C39.4567 22.9862 39.8187 23.1672 39.9997 23.5292C39.9997 24.7962 39.9997 26.2442 39.9997 27.5111C39.6377 27.6921 39.2758 27.8731 39.0948 28.0541C38.7328 28.0541 38.3708 28.0541 37.8278 28.0541C37.1038 28.0541 36.9228 28.2351 36.7418 28.9591C36.5608 29.6831 36.0178 30.226 36.0178 30.95C36.1988 31.493 36.7418 32.036 37.2848 32.579C37.6468 32.941 37.6468 33.4839 37.2848 33.8459C36.7418 34.3889 36.1988 34.9319 35.6559 35.4749C34.3889 36.7419 34.3889 36.9229 32.9409 35.6559C32.9409 35.6559 32.9409 35.6559 32.7599 35.6559C32.217 34.9319 31.674 35.1129 30.769 35.2939C29.321 35.6559 28.959 36.5609 28.959 37.8278C29.14 38.1898 29.14 38.7328 28.5971 38.9138ZM33.4839 25.3392C33.4839 21.7193 30.407 18.6424 26.7871 18.6424C23.1672 18.6424 20.0903 21.7193 20.0903 25.3392C20.0903 29.1401 23.1672 32.217 26.9681 32.217C30.407 32.217 33.4839 29.1401 33.4839 25.3392Z" fill="#33EDB0"/>
<defs>
<linearGradient id="paint0_linear" x1="8.34658" y1="-16.9867" x2="13.9256" y2="31.9563" gradientUnits="userSpaceOnUse">
<stop stop-color="#FFF4E8"/>
<stop offset="0.6046" stop-color="#7D94E5"/>
<stop offset="0.9986" stop-color="#3F28DC"/>
</linearGradient>
</defs>
</svg>
