<svg width="35" height="40" viewBox="0 0 35 40" fill="none" xmlns="http://www.w3.org/2000/svg">
<path d="M17.0909 39.9999C26.5299 39.9999 34.1818 32.3481 34.1818 22.909C34.1818 13.47 26.5299 5.81812 17.0909 5.81812C7.65186 5.81812 0 13.47 0 22.909C0 32.3481 7.65186 39.9999 17.0909 39.9999Z" fill="url(#paint0_linear)"/>
<path d="M14.0002 32.5455C15.1048 32.5455 16.0002 31.6501 16.0002 30.5455C16.0002 29.441 15.1048 28.5455 14.0002 28.5455C12.8957 28.5455 12.0002 29.441 12.0002 30.5455C12.0002 31.6501 12.8957 32.5455 14.0002 32.5455Z" fill="white"/>
<path d="M21.0908 32.5455C22.1954 32.5455 23.0908 31.6501 23.0908 30.5455C23.0908 29.441 22.1954 28.5455 21.0908 28.5455C19.9862 28.5455 19.0908 29.441 19.0908 30.5455C19.0908 31.6501 19.9862 32.5455 21.0908 32.5455Z" fill="white"/>
<path d="M24.3638 17.0909C21.4547 17.0909 17.6366 17.0909 14.0002 17.0909H10.0002C10.0002 17.0909 10.0002 17.0909 9.81838 17.0909H7.09111C6.72747 17.0909 6.54565 17.2728 6.54565 17.6364C6.54565 18 6.72747 18.1819 7.09111 18.1819H8.72747C9.45474 20.7273 10.182 23.4546 10.9093 25.8182C11.0911 26.3637 11.6366 26.7273 12.182 26.7273H22.3638C23.8184 26.7273 24.0002 25.2728 24.0002 24.9091C24.182 24 25.0911 21.2728 25.8184 18.3637C26.0002 17.8182 25.2729 17.0909 24.3638 17.0909Z" fill="white"/>
<path d="M14.909 0.90909V8C14.1818 8 13.2727 8 12.5454 8C11.8181 8 11.6363 8.54545 11.9999 9.0909C13.4545 10.9091 14.909 12.9091 16.5454 14.9091C16.909 15.4545 17.2727 15.4545 17.8181 14.9091C19.0908 12.9091 20.7272 10.9091 22.1817 8.90909C22.5454 8.36363 22.3636 7.81818 21.6363 7.81818C21.0908 7.81818 19.2727 7.81818 19.2727 7.81818C19.2727 7.27272 19.2727 4.90909 19.2727 2.36364V0.90909C19.2727 0.363636 18.909 0 18.3636 0H15.4545C15.0908 0.181818 14.909 0.545454 14.909 0.90909Z" fill="#33EDB0"/>
<defs>
<linearGradient id="paint0_linear" x1="42.2561" y1="20.1084" x2="-16.7025" y2="26.5934" gradientUnits="userSpaceOnUse">
<stop stop-color="#FFF4E8"/>
<stop offset="0.6046" stop-color="#7D94E5"/>
<stop offset="0.9986" stop-color="#3F28DC"/>
</linearGradient>
</defs>
</svg>
