<svg width="40" height="40" viewBox="0 0 40 40" fill="none" xmlns="http://www.w3.org/2000/svg">
<path d="M18.2648 32.1462C15.7077 32.1462 13.3333 32.1462 10.7762 32.1462C10.4109 32.1462 9.863 32.3289 9.4977 32.6942C7.48857 34.7033 5.2968 36.7124 3.28767 38.9042C2.73972 39.6348 2.00913 39.8174 1.09589 39.4521C0.182648 39.0868 0 38.3562 0 37.443C0 35.7992 0 34.1553 0 32.5115C0 31.9636 0.365296 31.233 0.730592 30.8677C2.92237 28.4933 5.2968 26.1188 7.67122 23.927C8.03652 23.5618 8.94976 23.1965 9.4977 23.1965C13.6986 23.1965 17.8995 23.1965 22.2831 23.1965C23.5616 23.1965 24.2922 23.927 24.2922 24.8403C24.2922 25.9362 23.5616 26.6668 22.1004 26.6668C20.6392 26.6668 18.9954 26.6668 17.5342 26.6668C17.3516 26.6668 16.9863 27.0321 16.8036 27.2147C16.9863 27.3974 17.3516 27.7627 17.5342 27.7627C20.2739 27.7627 23.1963 27.7627 25.936 27.7627C26.3013 27.7627 26.6666 27.58 26.8493 27.2147C28.6758 25.3882 30.3196 23.7444 32.1461 21.9179C33.0593 21.0047 34.1552 21.0047 34.8858 21.7353C35.6164 22.4659 35.6164 23.5618 34.5205 24.475C32.1461 26.8494 29.7716 29.2238 27.3972 31.5983C26.8493 31.9636 26.1187 32.3289 25.5707 32.3289C23.1963 32.3289 20.8219 32.1462 18.2648 32.1462Z" fill="url(#paint0_linear)"/>
<path d="M26.6667 2.73994C25.0228 3.65318 23.5616 4.56642 21.9178 5.29701C20.274 6.0276 16.2557 6.57555 14.6119 7.12349C13.516 7.48879 12.2375 7.48879 10.9589 7.85408C9.86303 8.03673 9.13243 8.94997 9.31508 10.0459C9.49773 11.1417 9.49773 12.4203 9.68038 13.5162C9.86303 14.7947 10.7763 15.3427 12.6027 15.3427C13.1507 16.9865 13.6986 18.4477 14.4292 20.0915C14.7945 21.1874 15.3425 21.5527 16.4384 21.1874C16.2557 19.1783 15.8904 16.9865 15.7078 14.9774C16.9863 14.7947 19.726 14.4294 20.4566 14.4294L22.6484 14.6121C25.0228 14.9774 27.3972 15.5253 29.589 16.6212C29.9543 16.8038 29.9543 17.7171 30.137 18.265C30.6849 18.265 31.4155 18.0824 31.9634 18.0824C31.2329 12.055 30.5023 6.21025 29.7717 0.182861C29.2237 0.365509 28.6758 0.365509 27.9452 0.548157C28.1278 1.64405 27.5799 2.37464 26.6667 2.73994Z" fill="#33EDB0"/>
<path d="M36.1646 9.86319C37.4431 9.68055 38.7217 9.4979 40.0002 9.1326C39.8176 8.58466 39.8176 8.03671 39.6349 7.48877C38.539 7.67142 37.2605 7.85407 35.7993 8.03671C35.982 8.58466 36.1646 9.1326 36.1646 9.86319Z" fill="#33EDB0"/>
<path d="M36.7126 1.09589C36.1647 0.730593 35.6167 0.365296 35.0688 0C34.3382 0.913241 33.6076 2.00913 32.6943 3.10502C33.2423 3.47031 33.7902 3.83561 34.1555 4.38355C35.0688 3.28767 35.7994 2.19178 36.7126 1.09589Z" fill="#33EDB0"/>
<path d="M34.3379 15.1599C35.4338 15.8905 36.347 16.6211 37.4429 17.5343C37.8082 16.9864 38.1735 16.6211 38.7214 16.0732C37.8082 15.3426 36.7123 14.612 35.6164 13.6987C35.0685 14.064 34.7032 14.612 34.3379 15.1599Z" fill="#33EDB0"/>
<defs>
<linearGradient id="paint0_linear" x1="11.5845" y1="5.74041" x2="21.5284" y2="44.5217" gradientUnits="userSpaceOnUse">
<stop stop-color="#FFF4E8"/>
<stop offset="0.6046" stop-color="#7D94E5"/>
<stop offset="0.9986" stop-color="#3F28DC"/>
</linearGradient>
</defs>
</svg>
