<svg width="40" height="38" viewBox="0 0 40 38" fill="none" xmlns="http://www.w3.org/2000/svg">
<path d="M11.3274 22.6549C17.5834 22.6549 22.6549 17.5834 22.6549 11.3274C22.6549 5.07146 17.5834 0 11.3274 0C5.07147 0 0 5.07146 0 11.3274C0 17.5834 5.07147 22.6549 11.3274 22.6549Z" fill="url(#paint0_linear)"/>
<path d="M15.2209 7.6106L6.37134 16.6371" stroke="white" stroke-width="0.8613" stroke-miterlimit="10" stroke-linecap="round" stroke-linejoin="round"/>
<path d="M6.54844 9.02658C7.81919 9.02658 8.84933 7.99643 8.84933 6.72569C8.84933 5.45495 7.81919 4.4248 6.54844 4.4248C5.2777 4.4248 4.24756 5.45495 4.24756 6.72569C4.24756 7.99643 5.2777 9.02658 6.54844 9.02658Z" fill="white"/>
<path d="M16.1058 18.4072C17.3766 18.4072 18.4067 17.377 18.4067 16.1063C18.4067 14.8356 17.3766 13.8054 16.1058 13.8054C14.8351 13.8054 13.8049 14.8356 13.8049 16.1063C13.8049 17.377 14.8351 18.4072 16.1058 18.4072Z" fill="white"/>
<path d="M25.8407 18.4068C23.8938 19.1148 22.1239 19.9998 20 20.5307C18.0531 21.0617 13.2744 21.0617 11.3275 21.4157C9.91153 21.4157 8.4956 21.2387 6.90268 21.4157C5.66374 21.4157 4.77879 22.4776 4.6018 23.7166C4.6018 24.9555 4.4248 26.3714 4.4248 27.7874C4.4248 29.3803 5.30976 30.0883 7.43365 30.4422C7.78764 32.3891 8.14162 34.1591 8.67259 36.106C9.02657 37.5219 9.38056 37.8759 10.7965 37.8759C10.7965 35.575 10.9735 33.0971 10.9735 30.6192C12.3894 30.6192 15.5752 30.7962 16.4602 30.7962L18.9381 31.5042C21.5929 32.2122 24.0708 33.4511 26.3717 34.867C26.7257 35.044 26.7257 36.106 26.7257 36.8139C27.4337 36.8139 28.1416 36.8139 28.8496 36.8139C29.0266 29.9113 29.2036 23.0086 29.3806 16.106C28.8496 16.106 28.1416 16.106 27.2567 16.2829C27.7876 17.3449 27.0797 17.8759 25.8407 18.4068Z" fill="#33EDB0"/>
<path d="M35.3982 27.9647C36.9911 27.9647 38.407 27.9647 40 27.9647C40 27.4338 40 26.7258 39.823 26.0178C38.407 26.0178 36.9911 26.0178 35.3982 26.0178C35.5752 26.3718 35.5752 27.2568 35.3982 27.9647Z" fill="#33EDB0"/>
<path d="M37.5222 18.2301C36.9912 17.6992 36.4602 17.1682 35.9292 16.6372C34.8673 17.6992 33.8054 18.5841 32.7434 19.6461C33.2744 20.177 33.8054 20.708 34.3363 21.239C35.3983 20.177 36.4602 19.2921 37.5222 18.2301Z" fill="#33EDB0"/>
<path d="M32.3894 33.6282C33.4514 34.6901 34.3363 35.7521 35.3983 36.814C35.9292 36.2831 36.4602 35.7521 36.9912 35.2211C35.9292 34.1592 35.0443 33.0972 33.9823 32.0353C33.4514 32.5663 32.9204 33.0972 32.3894 33.6282Z" fill="#33EDB0"/>
<defs>
<linearGradient id="paint0_linear" x1="8.16195" y1="-16.5522" x2="13.6175" y2="31.308" gradientUnits="userSpaceOnUse">
<stop stop-color="#FFF4E8"/>
<stop offset="0.6046" stop-color="#7D94E5"/>
<stop offset="0.9986" stop-color="#3F28DC"/>
</linearGradient>
</defs>
</svg>
