<svg width="37" height="40" viewBox="0 0 37 40" fill="none" xmlns="http://www.w3.org/2000/svg">
<path d="M33.8902 19.8895L35.7522 19.5171C35.1936 16.7239 33.1453 13.1859 31.2832 11.1376C28.8625 8.7169 27.3728 8.34448 27.3728 8.34448C26.8142 8.53069 21.7865 8.34448 21.4141 8.7169C21.4141 8.7169 18.621 10.0204 17.3175 11.3238C14.3381 14.117 12.8484 17.8412 13.7795 21.7516H25.6969L27.0004 26.0344L30.166 22.6826L33.8902 19.8895Z" fill="#33EDB0"/>
<path d="M24.3934 7.22706C22.1589 7.41327 21.414 6.66843 20.2968 5.17875C19.7381 4.2477 18.8071 3.31665 18.0623 2.57182C17.5036 1.82698 17.5036 1.08214 18.2485 0.523508C18.8071 -0.0351215 19.5519 -0.0351215 20.1106 0.523508C21.6002 1.82698 22.5313 1.82698 24.021 0.523508C24.5796 -0.0351215 25.1382 -0.0351215 25.6969 0.523508C27.1865 1.82698 28.1176 1.82698 29.6073 0.523508C30.3521 -0.0351215 30.9107 -0.221331 31.4694 0.337298C32.2142 0.895927 32.2142 1.64077 31.6556 2.38561C30.5383 3.87528 29.2348 5.36496 28.1176 6.66843C27.9314 6.85464 27.3727 7.04085 27.0003 7.22706C26.2555 7.22706 25.5107 7.22706 24.3934 7.22706Z" fill="#33EDB0"/>
<path d="M18.621 32.3654C16.014 32.3654 13.5933 32.3654 10.9864 32.3654C10.614 32.3654 10.0553 32.5516 9.68291 32.924C7.6346 34.9723 5.40008 37.0206 3.35178 39.2551C2.79315 40 2.04831 40.1862 1.11726 39.8138C0.18621 39.4413 0 38.6965 0 37.7654C0 36.0896 0 34.4137 0 32.7378C0 32.1792 0.372419 31.4343 0.744839 31.0619C2.97936 28.6412 5.40008 26.2204 7.82081 23.9859C8.19323 23.6135 9.12428 23.2411 9.68291 23.2411C13.9657 23.2411 18.2486 23.2411 22.7176 23.2411C24.0211 23.2411 24.7659 23.9859 24.7659 24.917C24.7659 26.0342 24.0211 26.7791 22.5314 26.7791C21.0417 26.7791 19.3658 26.7791 17.8761 26.7791C17.6899 26.7791 17.3175 27.1515 17.1313 27.3377C17.3175 27.5239 17.6899 27.8963 17.8761 27.8963C20.6693 27.8963 23.6486 27.8963 26.4418 27.8963C26.8142 27.8963 27.1866 27.7101 27.3728 27.3377C29.2349 25.4756 30.9108 23.7997 32.7729 21.9376C33.704 21.0066 34.8212 21.0066 35.5661 21.7514C36.3109 22.4962 36.3109 23.6135 35.1936 24.5446C32.7729 26.9653 30.3522 29.386 27.9315 31.8067C27.3728 32.1792 26.628 32.5516 26.0694 32.5516C23.6486 32.5516 21.2279 32.3654 18.621 32.3654Z" fill="url(#paint0_linear)"/>
<defs>
<linearGradient id="paint0_linear" x1="11.8104" y1="5.44465" x2="21.9482" y2="44.9822" gradientUnits="userSpaceOnUse">
<stop stop-color="#FFF4E8"/>
<stop offset="0.6046" stop-color="#7D94E5"/>
<stop offset="0.9986" stop-color="#3F28DC"/>
</linearGradient>
</defs>
</svg>
