<svg width="39" height="40" viewBox="0 0 39 40" fill="none" xmlns="http://www.w3.org/2000/svg">
<path d="M33.0841 40.0001C34.2056 39.6263 34.5794 38.8786 34.5794 37.7571C34.5794 33.4581 34.5794 18.3179 34.5794 14.0188C34.5794 13.4581 34.3925 13.2711 33.8318 13.2711V34.9534H4.29905V13.0842C4.11214 13.2711 3.55139 13.0842 3.55139 13.645C3.55139 18.131 3.55139 33.4581 3.55139 37.944C3.55139 40.0001 5.04672 39.8132 5.04672 40.0001H33.0841ZM19.0654 36.2618C19.6262 36.2618 20.3738 36.8225 20.3738 37.5702C20.3738 38.131 19.8131 38.6917 19.2523 38.6917C18.6916 38.6917 18.1308 38.131 17.9439 37.5702C17.757 37.0095 18.3177 36.2618 19.0654 36.2618Z" fill="url(#paint0_linear)"/>
<path d="M35.8878 13.084H1.86914V7.47653C1.86914 6.54195 2.6168 5.9812 3.36447 5.9812H34.3925C35.3271 5.9812 35.8878 6.72887 35.8878 7.47653V13.084Z" fill="white"/>
<path d="M38.1308 12.1495L37.9439 11.9626C37.1963 10.0935 36.4486 8.41121 35.8878 6.54206V1.49533C35.8878 0.747663 35.3271 0 34.3925 0H3.36449C2.61682 0 1.86916 0.560748 1.86916 1.49533V6.16822C1.86916 6.35514 1.86916 6.35514 1.68224 6.54206V6.72897C1.1215 8.59813 0.560748 10.4673 0 12.5234C0 12.7103 0 12.8972 0 13.0841C1.1215 14.2056 3.5514 14.3925 4.48598 13.0841C4.85981 12.8972 4.85981 12.5234 5.04673 12.3364C5.42056 10.4673 5.60748 8.41121 5.98131 6.54206H9.15888C8.97196 8.41121 8.59813 10.4673 8.41121 12.3364C8.41121 12.8972 8.59813 13.4579 9.15888 13.6449C10.2804 14.2056 11.4019 14.0187 12.5234 13.4579C13.0841 13.271 13.271 12.7103 13.271 12.1495C13.271 11.028 13.271 8.97196 13.4579 8.97196C13.4579 8.2243 13.4579 7.28972 13.4579 6.54206H17.0093C17.0093 8.2243 17.1963 11.4019 17.1963 12.3364C17.1963 12.8972 17.3832 13.271 17.9439 13.6449C19.0654 14.2056 20.1869 14.2056 21.3084 13.8318C21.8692 13.6449 22.0561 13.271 22.0561 12.5234C21.8692 10.6542 21.4953 8.59813 21.3084 6.72897H24.6729C25.0467 8.59813 25.2336 10.6542 25.6075 12.5234C25.6075 12.8972 25.7944 13.0841 25.9813 13.271C27.1028 14.3925 29.5327 14.3925 30.4673 13.271C30.4673 13.0841 30.4673 12.8972 30.4673 12.7103C30.4673 12.5234 30.2804 12.5234 30.2804 12.3364C29.7196 10.4673 29.1589 8.59813 28.5981 6.54206H31.5888C32.1495 8.59813 32.7103 10.4673 33.271 12.5234C33.271 12.7103 33.4579 13.0841 33.6449 13.271C34.7664 14.3925 37.1963 14.0187 38.1308 12.7103C38.1308 12.5234 38.1308 12.3364 38.1308 12.1495Z" fill="url(#paint1_linear)"/>
<path d="M22.6168 19.4393C22.4299 19.4393 22.4299 19.4393 22.6168 19.4393C19.0654 22.8038 15.8878 26.1683 12.5233 29.5328C12.3364 29.7197 12.3364 29.7197 12.3364 29.9066C12.3364 31.0281 12.3364 32.1496 12.3364 33.2711C13.4579 33.2711 14.3925 33.2711 15.3271 33.2711C15.7009 33.2711 15.8878 33.0842 16.2617 32.8973C18.8785 30.2805 21.3084 27.8506 23.9252 25.2337C24.6729 24.4861 25.4205 23.7384 26.1682 22.9907C24.8598 21.6823 23.7383 20.5608 22.6168 19.4393ZM27.1028 21.8692C27.6635 21.3085 28.2243 20.7477 28.785 20.187C29.1589 19.8132 29.1589 19.2524 28.785 18.8786C28.0374 18.1309 27.2897 17.3833 26.542 16.6356C26.1682 16.2618 25.6075 16.2618 25.2336 16.6356C24.6729 17.1963 24.1121 17.7571 23.5514 18.3178L27.1028 21.8692Z" fill="#33EDB0"/>
<path d="M27.1028 21.8692C25.9813 20.7477 24.8598 19.4393 23.5514 18.3178C24.1121 17.7571 24.6729 17.1963 25.2336 16.6356C25.6075 16.2618 26.1682 16.2618 26.542 16.6356C27.2897 17.3833 28.0374 18.1309 28.785 18.8786C29.1589 19.2524 29.1589 19.8132 28.785 20.187C28.2243 20.7477 27.6635 21.3085 27.1028 21.8692Z" fill="#33EDB0"/>
<defs>
<linearGradient id="paint0_linear" x1="15.372" y1="-7.86587" x2="23.3606" y2="65.3622" gradientUnits="userSpaceOnUse">
<stop stop-color="#FFF4E8"/>
<stop offset="0.6046" stop-color="#7D94E5"/>
<stop offset="0.9986" stop-color="#3F28DC"/>
</linearGradient>
<linearGradient id="paint1_linear" x1="16.249" y1="-10.6824" x2="21.4067" y2="32.2981" gradientUnits="userSpaceOnUse">
<stop stop-color="#FFF4E8"/>
<stop offset="0.6046" stop-color="#7D94E5"/>
<stop offset="0.9986" stop-color="#3F28DC"/>
</linearGradient>
</defs>
</svg>
