<svg width="39" height="40" viewBox="0 0 39 40" fill="none" xmlns="http://www.w3.org/2000/svg">
<path d="M35.8095 40H2.85714C1.33333 40 0 38.6667 0 37.1429V12.3809C0 10.8571 1.33333 9.5238 2.85714 9.5238H35.8095C37.3333 9.5238 38.6667 10.8571 38.6667 12.3809V37.1429C38.6667 38.6667 37.3333 40 35.8095 40Z" fill="url(#paint0_linear)"/>
<path d="M37.1429 0C37.9048 0 38.6667 0.761905 38.6667 1.52381V5.52381C38.6667 6.47619 38.0952 7.04762 37.1429 7.04762H1.14286C0.571428 7.23809 0 6.66667 0 5.90476V1.33333C0 0.571429 0.571428 0 1.14286 0H37.1429Z" fill="url(#paint1_linear)"/>
<path d="M19.0476 24V16.381C19.0476 16 18.6666 15.8096 18.4762 15.8096C17.9047 15.8096 17.3333 16 16.9524 16.1905C15.2381 16.762 13.7143 17.9048 12.7619 19.4286C10.8571 22.2858 10.6666 25.9048 12.3809 28.9524C14.2857 32 17.7143 33.3334 21.3333 32.762C26.2857 32 27.8095 27.8096 28 24.5715C28 24.1905 27.8095 24 27.4285 24H19.0476Z" fill="white"/>
<path d="M20.9524 18.4763C20.9524 17.3334 20.9524 16.3811 20.9524 15.2382C20.9524 14.4763 21.1429 14.2858 21.9048 14.4763C25.7143 15.0477 28.5714 17.7144 29.1429 21.7144C29.3333 22.4763 29.1429 22.6668 28.381 22.8572C26.2857 22.8572 24 22.8572 21.9048 22.8572C21.3333 22.8572 20.9524 22.6668 20.9524 21.9049C20.9524 20.5715 20.9524 19.6191 20.9524 18.4763Z" fill="#33EDB0"/>
<path d="M6.28587 5.71431C7.33784 5.71431 8.19063 4.86152 8.19063 3.80955C8.19063 2.75758 7.33784 1.90479 6.28587 1.90479C5.23389 1.90479 4.3811 2.75758 4.3811 3.80955C4.3811 4.86152 5.23389 5.71431 6.28587 5.71431Z" fill="#33EDB0"/>
<path d="M12.9524 5.71431C14.0043 5.71431 14.8571 4.86152 14.8571 3.80955C14.8571 2.75758 14.0043 1.90479 12.9524 1.90479C11.9004 1.90479 11.0476 2.75758 11.0476 3.80955C11.0476 4.86152 11.9004 5.71431 12.9524 5.71431Z" fill="#33EDB0"/>
<defs>
<linearGradient id="paint0_linear" x1="8.21105" y1="1.98609" x2="34.0019" y2="55.0499" gradientUnits="userSpaceOnUse">
<stop stop-color="#FFF4E8"/>
<stop offset="0.6046" stop-color="#7D94E5"/>
<stop offset="0.9986" stop-color="#3F28DC"/>
</linearGradient>
<linearGradient id="paint1_linear" x1="18.5829" y1="-8.58648" x2="20.2251" y2="20.3432" gradientUnits="userSpaceOnUse">
<stop stop-color="#FFF4E8"/>
<stop offset="0.6046" stop-color="#7D94E5"/>
<stop offset="0.9986" stop-color="#3F28DC"/>
</linearGradient>
</defs>
</svg>
