<svg width="40" height="39" viewBox="0 0 40 39" fill="none" xmlns="http://www.w3.org/2000/svg">
<path d="M28.5971 38.9138C27.3302 38.9138 25.8822 38.9138 24.6152 38.9138C24.4342 38.5518 24.2532 38.1898 24.0722 38.0088C23.8912 37.6468 23.8912 37.1038 23.8912 36.7419C23.8912 36.0179 23.7103 35.8369 22.9863 35.6559C22.2623 35.4749 21.7193 34.9319 20.9953 34.9319C20.4523 35.1129 19.9094 35.6559 19.3664 36.1989C19.0044 36.5609 18.4614 36.5609 18.0994 36.1989C17.5564 35.6559 17.0134 35.1129 16.4705 34.5699C15.2035 33.303 15.0225 33.4839 16.2895 31.855C16.2895 31.855 16.2895 31.855 16.2895 31.674C17.0134 31.131 16.8324 30.588 16.6515 29.6831C16.2895 28.2351 15.3845 27.8731 14.1175 27.8731C13.5745 27.8731 13.2126 27.6921 13.0316 27.3301C13.0316 26.0632 13.0316 24.6152 13.0316 23.3482C13.3935 23.1672 13.7555 22.9862 13.9365 22.8052C14.2985 22.6243 14.8415 22.6243 15.2035 22.6243C15.9275 22.6243 16.1085 22.4433 16.2895 21.7193C16.4705 20.9953 17.0134 20.4523 17.0134 19.7283C16.8324 19.1854 16.2895 18.6424 15.7465 18.0994C15.3845 17.7374 15.3845 17.1944 15.7465 16.8324C16.2895 16.2894 16.8324 15.7464 17.3754 15.2035C18.6424 14.2985 18.6424 13.9365 20.0904 15.2035C20.0904 15.2035 20.0904 15.2035 20.2713 15.2035C20.8143 15.9274 21.5383 15.7464 22.2623 15.5655C23.7103 15.2035 24.0722 14.2985 24.0722 13.0315C24.0722 12.4885 24.2532 12.1266 24.6152 11.9456C25.8822 11.9456 27.3302 11.9456 28.5971 11.9456C28.7781 12.3075 28.9591 12.6695 29.1401 12.8505C29.3211 13.2125 29.3211 13.5745 29.3211 14.1175C29.3211 14.8415 29.5021 15.2035 30.2261 15.3845C30.95 15.5655 31.493 16.1084 32.036 16.1084C32.579 15.9274 33.122 15.3845 33.665 14.8415C34.208 14.4795 34.5699 14.4795 34.9319 14.8415C35.6559 15.5655 36.1989 16.1084 36.9229 16.8324C37.6469 17.5564 37.6469 17.7374 37.1039 18.6424C36.9229 18.8234 36.7419 19.0044 36.7419 19.1854C36.0179 19.7283 36.1989 20.2713 36.3799 21.1763C36.7419 22.6243 37.6469 22.9862 38.9138 22.9862C39.4568 22.9862 39.8188 23.1672 39.9998 23.5292C39.9998 24.7962 39.9998 26.2442 39.9998 27.5111C39.6378 27.6921 39.2758 27.8731 39.0948 28.0541C38.7328 28.0541 38.3708 28.0541 37.8279 28.0541C37.1039 28.0541 36.9229 28.2351 36.7419 28.9591C36.5609 29.6831 36.0179 30.226 36.0179 30.95C36.1989 31.493 36.7419 32.036 37.2849 32.579C37.6469 32.941 37.6469 33.4839 37.2849 33.8459C36.7419 34.3889 36.1989 34.9319 35.6559 35.4749C34.389 36.7419 34.389 36.9229 32.941 35.6559C32.941 35.6559 32.941 35.6559 32.76 35.6559C32.217 34.9319 31.674 35.1129 30.7691 35.2939C29.3211 35.6559 28.9591 36.5609 28.9591 37.8278C29.1401 38.1898 29.1401 38.7328 28.5971 38.9138ZM33.484 25.3392C33.484 21.7193 30.4071 18.6424 26.7872 18.6424C23.1673 18.6424 20.0904 21.7193 20.0904 25.3392C20.0904 29.1401 23.1673 32.217 26.9682 32.217C30.4071 32.217 33.484 29.1401 33.484 25.3392Z" fill="white"/>
<path d="M22.6673 11.5837C22.6673 17.705 17.705 22.6673 11.5837 22.6673C5.46233 22.6673 0.5 17.705 0.5 11.5837C0.5 5.46233 5.46233 0.5 11.5837 0.5C17.705 0.5 22.6673 5.46233 22.6673 11.5837Z" fill="white" stroke="#4E5FF9"/>
<path d="M13.0315 9.23086C11.4026 9.23086 9.59263 9.23086 7.96368 9.23086C7.78269 9.23086 7.60169 9.23086 7.4207 9.23086C7.05871 9.23086 6.69672 8.86887 6.69672 8.50688C6.69672 8.14489 6.87771 7.7829 7.4207 7.7829C7.78269 7.7829 8.14468 7.7829 8.50667 7.7829C9.95462 7.7829 11.4026 7.7829 13.0315 7.7829C13.0315 7.6019 12.8505 7.42091 12.8505 7.23991C12.3076 6.33494 11.4026 5.79195 10.3166 5.79195C9.41164 5.79195 8.50667 5.79195 7.60169 5.79195C7.4207 5.79195 7.05871 5.61096 6.87771 5.42996C6.51572 5.06797 6.87771 4.34399 7.4207 4.34399C8.14468 4.34399 8.86865 4.34399 9.59263 4.34399C11.4026 4.34399 13.3935 4.34399 15.2035 4.34399C15.3845 4.34399 15.3845 4.34399 15.5655 4.34399C16.1084 4.34399 16.2894 4.70598 16.2894 5.06797C16.2894 5.42996 15.9275 5.79195 15.5655 5.79195C15.0225 5.79195 14.4795 5.79195 13.9365 5.79195C13.7555 5.79195 13.5745 5.79195 13.5745 5.79195C13.9365 6.51593 14.2985 7.05892 14.4795 7.7829C14.8415 7.7829 15.2035 7.7829 15.5655 7.7829C16.1084 7.7829 16.4704 8.14489 16.4704 8.50688C16.4704 8.86887 16.1084 9.23086 15.7465 9.23086C15.3845 9.23086 15.0225 9.23086 14.6605 9.23086C13.9365 11.9458 12.1266 12.8508 9.41164 12.6698C9.41164 13.0317 9.59263 13.0317 9.59263 13.2127C11.0406 14.6607 12.4886 15.9277 13.9365 17.3756C14.1175 17.5566 14.1175 17.5566 14.2985 17.7376C14.4795 18.0996 14.4795 18.4616 14.2985 18.6426C14.1175 18.8236 13.7555 19.0046 13.3935 18.6426C13.2125 18.6426 13.2125 18.4616 13.0315 18.4616C11.0406 16.6516 9.04965 14.6607 7.2397 12.8508C6.87771 12.4888 6.69672 12.1268 6.87771 11.7648C7.05871 11.4028 7.4207 11.4028 7.78269 11.4028C8.68766 11.4028 9.59263 11.4028 10.4976 11.4028C11.7646 11.4028 12.8505 10.4978 13.0315 9.23086Z" fill="#4E5FF9"/>
</svg>
