<svg width="30" height="40" viewBox="0 0 30 40" fill="none" xmlns="http://www.w3.org/2000/svg">
<path d="M14.7331 39.9998C7.37402 39.9998 1.95151 36.1266 0.402219 29.5421C-0.759747 24.507 0.59588 20.0528 4.4691 16.3732C6.21205 14.6302 8.14866 12.8873 10.0853 11.338C10.6663 10.9507 17.2507 11.1443 17.8317 10.9507C17.8317 10.9507 19.962 11.1443 23.0606 14.6302C25.5782 17.3415 28.0958 19.6654 29.0641 23.345C31.0007 31.8661 24.8035 39.6125 15.8951 39.9998C15.5078 39.9998 15.1205 39.9998 14.7331 39.9998Z" fill="white"/>
<path d="M14.1521 9.40155C11.0535 9.59521 10.0852 8.82056 8.72958 6.69029C7.95494 5.52833 6.79297 4.36636 5.82467 3.20439C5.05002 2.23609 5.05002 1.26778 6.01833 0.493138C6.79297 -0.281506 7.56762 -0.087845 8.53592 0.686799C10.4725 2.42975 11.8282 2.42975 13.5711 0.686799C14.3458 -0.087845 14.9267 -0.087845 15.895 0.686799C17.8317 2.42975 19.1873 2.42975 20.9302 0.686799C21.7049 -0.087845 22.6732 -0.0878452 23.4478 0.493138C24.4161 1.26778 24.4161 2.23609 23.6415 3.20439C22.0922 5.141 20.5429 7.07762 18.9936 8.82056C18.6063 9.20789 18.0253 9.40155 17.638 9.40155C16.476 9.40155 15.5077 9.40155 14.1521 9.40155Z" fill="white"/>
<path d="M8.92349 23.9263C7.76152 23.9263 6.59956 23.9263 5.43759 23.9263C5.24393 23.9263 5.24393 23.9263 5.05027 23.9263C4.66295 23.9263 4.46928 23.7327 4.46928 23.539C4.46928 23.3453 4.66295 22.958 5.05027 22.958C5.24393 22.958 5.63125 22.958 5.82491 22.958C6.79322 22.958 7.76152 22.958 8.92349 22.958C8.92349 22.7644 8.92349 22.7644 8.72983 22.5707C8.34251 21.7961 7.76152 21.4087 6.98688 21.4087C6.4059 21.4087 5.63125 21.4087 5.05027 21.4087C4.85661 21.4087 4.66295 21.2151 4.46928 21.2151C4.27562 20.8278 4.46928 20.4404 4.85661 20.4404C5.43759 20.4404 5.82491 20.4404 6.4059 20.4404C7.76152 20.4404 8.92349 20.4404 10.2791 20.4404H10.4728C10.8601 20.4404 11.0538 20.6341 11.0538 20.8278C11.0538 21.2151 10.8601 21.4087 10.4728 21.4087C10.0855 21.4087 9.69813 21.4087 9.31081 21.4087C9.11715 21.4087 9.11715 21.4087 8.92349 21.4087C9.11715 21.7961 9.31081 22.377 9.50447 22.7644C9.69813 22.7644 9.8918 22.7644 10.2791 22.7644C10.6664 22.7644 10.8601 22.958 10.8601 23.3453C10.8601 23.539 10.6664 23.7327 10.2791 23.7327C10.0855 23.7327 9.69813 23.7327 9.50447 23.7327C8.92349 25.6693 7.76152 26.2503 5.82491 26.2503C6.4059 26.4439 6.4059 26.4439 6.59956 26.6376C7.56786 27.6059 8.53617 28.5742 9.50447 29.5425L9.69813 29.7362C9.89179 29.9298 9.89179 30.1235 9.69813 30.3171C9.50447 30.5108 9.31081 30.5108 9.11715 30.3171L8.92349 30.1235C7.56786 28.7679 6.21223 27.4122 4.85661 26.2503C4.66295 26.0566 4.46928 25.8629 4.66295 25.4756C4.85661 25.282 5.05027 25.0883 5.24393 25.0883C5.82491 25.0883 6.40589 25.0883 7.18054 25.0883C7.95518 25.282 8.72983 24.701 8.92349 23.9263Z" fill="#4E5FF9"/>
<path d="M22.867 23.3454C22.867 28.1869 21.124 30.8982 17.8318 30.8982C15.1206 30.8982 13.1839 28.3806 13.1839 23.5391C13.1839 18.6975 15.3142 16.1799 18.2191 16.1799C21.124 16.1799 22.867 18.6975 22.867 23.3454ZM15.1206 23.5391C15.1206 27.2186 16.2825 29.3489 18.0255 29.3489C19.9621 29.3489 20.9304 27.025 20.9304 23.3454C20.9304 19.8595 19.9621 17.5356 18.0255 17.5356C16.2825 17.5356 15.1206 19.6658 15.1206 23.5391Z" fill="#4E5FF9"/>
</svg>
