<svg width="39" height="40" viewBox="0 0 39 40" fill="none" xmlns="http://www.w3.org/2000/svg">
<path d="M35.8095 40.0001H2.85714C1.33333 40.0001 0 38.6668 0 37.143V12.3811C0 10.8573 1.33333 9.52393 2.85714 9.52393H35.8095C37.3333 9.52393 38.6667 10.8573 38.6667 12.3811V37.143C38.6667 38.6668 37.3333 40.0001 35.8095 40.0001Z" fill="white"/>
<path d="M37.1429 0C37.9048 0 38.6667 0.761905 38.6667 1.52381V5.52381C38.6667 6.47619 38.0952 7.04762 37.1429 7.04762H1.14286C0.571428 7.23809 0 6.66667 0 5.90476V1.33333C0 0.571429 0.571428 0 1.14286 0H37.1429Z" fill="white"/>
<path d="M19.0476 24V16.381C19.0476 16 18.6666 15.8096 18.4762 15.8096C17.9047 15.8096 17.3333 16 16.9524 16.1905C15.2381 16.762 13.7143 17.9048 12.7619 19.4286C10.8571 22.2858 10.6666 25.9048 12.3809 28.9524C14.2857 32 17.7143 33.3334 21.3333 32.762C26.2857 32 27.8095 27.8096 28 24.5715C28 24.1905 27.8095 24 27.4285 24H19.0476Z" fill="#4E5FF9"/>
<path d="M20.9524 18.4762C20.9524 17.3333 20.9524 16.3809 20.9524 15.2381C20.9524 14.4762 21.1429 14.2857 21.9048 14.4762C25.7143 15.0476 28.5714 17.7143 29.1429 21.7143C29.3333 22.4762 29.1429 22.6666 28.381 22.8571C26.2857 22.8571 24 22.8571 21.9048 22.8571C21.3333 22.8571 20.9524 22.6666 20.9524 21.9047C20.9524 20.5714 20.9524 19.619 20.9524 18.4762Z" fill="#4E5FF9"/>
<path d="M6.2858 5.71431C7.33778 5.71431 8.19057 4.86152 8.19057 3.80955C8.19057 2.75758 7.33778 1.90479 6.2858 1.90479C5.23383 1.90479 4.38104 2.75758 4.38104 3.80955C4.38104 4.86152 5.23383 5.71431 6.2858 5.71431Z" fill="#4E5FF9"/>
<path d="M12.9525 5.71431C14.0045 5.71431 14.8573 4.86152 14.8573 3.80955C14.8573 2.75758 14.0045 1.90479 12.9525 1.90479C11.9005 1.90479 11.0477 2.75758 11.0477 3.80955C11.0477 4.86152 11.9005 5.71431 12.9525 5.71431Z" fill="#4E5FF9"/>
</svg>
