<svg width="35" height="40" viewBox="0 0 35 40" fill="none" xmlns="http://www.w3.org/2000/svg">
<path d="M17.0909 39.9999C26.5299 39.9999 34.1818 32.3481 34.1818 22.909C34.1818 13.47 26.5299 5.81812 17.0909 5.81812C7.65186 5.81812 0 13.47 0 22.909C0 32.3481 7.65186 39.9999 17.0909 39.9999Z" fill="white"/>
<path d="M14.0002 32.5457C15.1048 32.5457 16.0002 31.6502 16.0002 30.5457C16.0002 29.4411 15.1048 28.5457 14.0002 28.5457C12.8956 28.5457 12.0002 29.4411 12.0002 30.5457C12.0002 31.6502 12.8956 32.5457 14.0002 32.5457Z" fill="#4E5FF9"/>
<path d="M21.0909 32.5457C22.1954 32.5457 23.0909 31.6502 23.0909 30.5457C23.0909 29.4411 22.1954 28.5457 21.0909 28.5457C19.9863 28.5457 19.0909 29.4411 19.0909 30.5457C19.0909 31.6502 19.9863 32.5457 21.0909 32.5457Z" fill="#4E5FF9"/>
<path d="M24.3638 17.0911C21.4547 17.0911 17.6366 17.0911 14.0002 17.0911H10.0002C10.0002 17.0911 10.0002 17.0911 9.81838 17.0911H7.09111C6.72747 17.0911 6.54565 17.2729 6.54565 17.6365C6.54565 18.0002 6.72747 18.182 7.09111 18.182H8.72747C9.45474 20.7274 10.182 23.4547 10.9093 25.8183C11.0911 26.3638 11.6366 26.7274 12.182 26.7274H22.3638C23.8184 26.7274 24.0002 25.2729 24.0002 24.9092C24.182 24.0002 25.0911 21.2729 25.8184 18.3638C26.0002 17.8183 25.2729 17.0911 24.3638 17.0911Z" fill="#4E5FF9"/>
<path d="M14.9091 0.90909V8C14.1818 8 13.2727 8 12.5454 8C11.8182 8 11.6364 8.54545 12 9.0909C13.4545 10.9091 14.9091 12.9091 16.5454 14.9091C16.9091 15.4545 17.2727 15.4545 17.8182 14.9091C19.0909 12.9091 20.7273 10.9091 22.1818 8.90909C22.5454 8.36363 22.3636 7.81818 21.6364 7.81818C21.0909 7.81818 19.2727 7.81818 19.2727 7.81818C19.2727 7.27272 19.2727 4.90909 19.2727 2.36364V0.90909C19.2727 0.363636 18.9091 0 18.3636 0H15.4545C15.0909 0.181818 14.9091 0.545454 14.9091 0.90909Z" fill="#4E5FF9"/>
</svg>
