<svg width="40" height="40" viewBox="0 0 40 40" fill="none" xmlns="http://www.w3.org/2000/svg">
<path d="M35.9808 39.9999H2.87081C1.33971 39.9999 0 38.6602 0 37.1291V12.2487C0 10.7176 1.33971 9.37793 2.87081 9.37793H35.9808C37.5119 9.37793 38.8516 10.7176 38.8516 12.2487V37.1291C38.8516 38.8516 37.7033 39.9999 35.9808 39.9999Z" fill="white"/>
<path d="M37.5119 0C38.2775 0 39.043 0.765549 39.043 1.5311V5.55023C38.8516 6.50717 38.2775 7.27272 37.5119 7.27272H1.33971C0.574162 7.27272 0 6.69856 0 5.93301V1.33971C0 0.574162 0.574162 0 1.14832 0H37.5119Z" fill="white"/>
<path d="M6.50723 5.55016C7.56423 5.55016 8.4211 4.69329 8.4211 3.63629C8.4211 2.57928 7.56423 1.72241 6.50723 1.72241C5.45022 1.72241 4.59335 2.57928 4.59335 3.63629C4.59335 4.69329 5.45022 5.55016 6.50723 5.55016Z" fill="#4E5FF9"/>
<path d="M13.2057 5.55016C14.2627 5.55016 15.1196 4.69329 15.1196 3.63629C15.1196 2.57928 14.2627 1.72241 13.2057 1.72241C12.1487 1.72241 11.2919 2.57928 11.2919 3.63629C11.2919 4.69329 12.1487 5.55016 13.2057 5.55016Z" fill="#4E5FF9"/>
<path d="M22.0095 35.9809C20.8611 35.9809 19.7128 35.9809 18.7559 35.9809C18.5645 35.7895 18.3731 35.4068 18.3731 35.2154C18.1817 34.8326 18.1817 34.4498 18.1817 34.2584C18.1817 33.6843 17.9903 33.4929 17.4162 33.3015C16.842 33.1101 16.2678 32.7273 15.8851 32.7273C15.3109 32.7273 14.9281 33.4929 14.354 33.8757C13.9712 34.2584 13.5884 34.067 13.397 33.8757C13.0143 33.4929 12.4401 32.9187 12.0573 32.536C11.1004 31.579 10.909 31.579 11.8659 30.2393C12.4401 29.6651 12.2487 29.2824 12.0573 28.5168C11.6745 27.3685 11.1004 26.9857 9.95205 26.9857C9.56928 26.9857 9.1865 26.7943 8.99512 26.4116C8.99512 25.2632 8.99512 24.1149 8.99512 23.158C9.1865 22.9666 9.56928 22.7752 9.76067 22.7752C10.1434 22.5838 10.5262 22.5838 10.7176 22.5838C11.2918 22.5838 11.4832 22.3924 11.6745 21.8183C11.8659 21.2441 12.2487 20.6699 12.2487 20.2872C12.2487 19.713 11.4832 19.3302 11.1004 18.7561C10.7176 18.3733 10.909 17.9905 11.1004 17.7991C11.4832 17.4164 12.0573 16.8422 12.4401 16.4594C13.397 15.5025 13.397 15.3111 14.5454 16.268C15.1195 16.8422 15.5023 16.6508 16.2678 16.4594C17.4162 16.0766 17.7989 15.5025 17.7989 14.3542C17.7989 13.9714 17.9903 13.5886 18.3731 13.3972C19.5214 13.3972 20.6697 13.3972 21.6267 13.3972C21.8181 13.5886 22.0095 13.9714 22.0095 14.1628C22.2008 14.5455 22.2008 14.7369 22.2008 15.1197C22.2008 15.6939 22.3922 16.0766 22.9664 16.0766C23.5406 16.268 24.1147 16.6508 24.4975 16.6508C25.0717 16.6508 25.4544 16.0766 25.8372 15.6939C26.22 15.3111 26.6028 15.3111 26.9855 15.6939C27.5597 16.268 28.1339 16.8422 28.708 17.4164C29.4736 18.1819 29.4736 18.1819 28.8994 18.9475C28.708 19.1388 28.708 19.3302 28.5166 19.3302C27.9425 19.9044 28.1339 20.2872 28.3252 21.0527C28.708 22.201 29.2822 22.5838 30.4305 22.5838C30.8133 22.5838 31.196 22.7752 31.3874 23.158C31.3874 24.3063 31.3874 25.4546 31.3874 26.4116C31.196 26.6029 30.8133 26.7943 30.6219 26.7943C30.2391 26.9857 29.8563 26.9857 29.6649 26.9857C29.0908 26.9857 28.8994 27.1771 28.708 27.7513C28.5166 28.3254 28.1339 28.8996 28.1339 29.2824C28.1339 29.8565 28.8994 30.2393 29.2822 30.8135C29.665 31.1962 29.4736 31.579 29.2822 31.7704C28.8994 32.1532 28.3252 32.7273 27.9425 33.1101C26.9855 34.067 26.9855 34.2584 25.6458 33.3015C25.0717 32.7273 24.6889 32.9187 23.9233 33.1101C22.775 33.4929 22.3922 34.067 22.3922 35.2154C22.3922 35.4068 22.3922 35.7895 22.0095 35.9809ZM26.0286 24.4977C26.0286 21.4355 23.3492 18.7561 20.287 18.7561C17.2248 18.7561 14.5454 21.4355 14.5454 24.4977C14.5454 27.5599 17.2248 30.2393 20.287 30.2393C23.3492 30.2393 26.0286 27.7513 26.0286 24.4977Z" fill="#4E5FF9"/>
</svg>
