<svg width="40" height="38" viewBox="0 0 40 38" fill="none" xmlns="http://www.w3.org/2000/svg">
<path d="M25.8407 18.4068C23.8938 19.1148 22.1239 19.9998 20 20.5307C18.0531 21.0617 13.2743 21.0617 11.3274 21.4157C9.91147 21.4157 8.49554 21.2387 6.90262 21.4157C5.66368 21.4157 4.77873 22.4776 4.60173 23.7166C4.60173 24.9555 4.42474 26.3714 4.42474 27.7874C4.42474 29.3803 5.3097 30.0883 7.43359 30.4422C7.78758 32.3891 8.14156 34.1591 8.67253 36.106C9.02651 37.5219 9.3805 37.8759 10.7964 37.8759C10.7964 35.575 10.9734 33.0971 10.9734 30.6192C12.3893 30.6192 15.5752 30.7962 16.4601 30.7962L18.938 31.5042C21.5929 32.2122 24.0708 33.4511 26.3716 34.867C26.7256 35.044 26.7256 36.106 26.7256 36.8139C27.4336 36.8139 28.1416 36.8139 28.8495 36.8139C29.0265 29.9113 29.2035 23.0086 29.3805 16.106C28.8495 16.106 28.1416 16.106 27.2566 16.2829C27.7876 17.3449 27.0796 17.8759 25.8407 18.4068Z" fill="white"/>
<path d="M35.3982 27.9647C36.9911 27.9647 38.407 27.9647 40 27.9647C40 27.4338 40 26.7258 39.823 26.0178C38.407 26.0178 36.9911 26.0178 35.3982 26.0178C35.5752 26.3718 35.5752 27.2568 35.3982 27.9647Z" fill="white"/>
<path d="M37.5221 18.2301C36.9911 17.6992 36.4602 17.1682 35.9292 16.6372C34.8672 17.6992 33.8053 18.5841 32.7433 19.6461C33.2743 20.177 33.8053 20.708 34.3363 21.239C35.3982 20.177 36.4602 19.2921 37.5221 18.2301Z" fill="white"/>
<path d="M32.3894 33.6281C33.4514 34.69 34.3363 35.752 35.3983 36.8139C35.9293 36.2829 36.4602 35.752 36.9912 35.221C35.9293 34.1591 35.0443 33.0971 33.9824 32.0352C33.4514 32.5661 32.9204 33.0971 32.3894 33.6281Z" fill="white"/>
<path d="M22.1549 11.3274C22.1549 17.3073 17.3073 22.1549 11.3274 22.1549C5.34761 22.1549 0.5 17.3073 0.5 11.3274C0.5 5.34761 5.34761 0.5 11.3274 0.5C17.3073 0.5 22.1549 5.34761 22.1549 11.3274Z" fill="white" stroke="#4E5FF9"/>
<path d="M15.221 7.6106L6.37149 16.6371" stroke="#4E5FF9" stroke-width="0.8613" stroke-miterlimit="10" stroke-linecap="round" stroke-linejoin="round"/>
<path d="M6.54851 9.02658C7.81925 9.02658 8.84939 7.99643 8.84939 6.72569C8.84939 5.45495 7.81925 4.4248 6.54851 4.4248C5.27776 4.4248 4.24762 5.45495 4.24762 6.72569C4.24762 7.99643 5.27776 9.02658 6.54851 9.02658Z" fill="#4E5FF9"/>
<path d="M16.1059 18.4072C17.3767 18.4072 18.4068 17.377 18.4068 16.1063C18.4068 14.8356 17.3767 13.8054 16.1059 13.8054C14.8352 13.8054 13.805 14.8356 13.805 16.1063C13.805 17.377 14.8352 18.4072 16.1059 18.4072Z" fill="#4E5FF9"/>
</svg>
