<svg width="39" height="40" viewBox="0 0 39 40" fill="none" xmlns="http://www.w3.org/2000/svg">
<path d="M33.0842 40.0001C34.2057 39.6263 34.5795 38.8786 34.5795 37.7571C34.5795 33.4581 34.5795 18.3179 34.5795 14.0188C34.5795 13.4581 34.3926 13.2711 33.8318 13.2711V34.9534H4.29912V13.0842C4.1122 13.2711 3.55145 13.0842 3.55145 13.645C3.55145 18.131 3.55145 33.4581 3.55145 37.944C3.55145 40.0001 5.04678 39.8132 5.04678 40.0001H33.0842ZM19.0655 36.2618C19.6262 36.2618 20.3739 36.8225 20.3739 37.5702C20.3739 38.131 19.8131 38.6917 19.2524 38.6917C18.6916 38.6917 18.1309 38.131 17.944 37.5702C17.7571 37.0095 18.3178 36.2618 19.0655 36.2618Z" fill="white"/>
<path d="M35.8878 13.084H1.86916V7.47653C1.86916 6.54195 2.61682 5.9812 3.36448 5.9812H34.3925C35.3271 5.9812 35.8878 6.72887 35.8878 7.47653V13.084V13.084Z" fill="#4E5FF9"/>
<path d="M38.1308 12.1495L37.9439 11.9626C37.1963 10.0935 36.4486 8.41121 35.8878 6.54206V1.49533C35.8878 0.747663 35.3271 0 34.3925 0H3.36449C2.61682 0 1.86916 0.560748 1.86916 1.49533V6.16822C1.86916 6.35514 1.86916 6.35514 1.68224 6.54206V6.72897C1.1215 8.59813 0.560748 10.4673 0 12.5234C0 12.7103 0 12.8972 0 13.0841C1.1215 14.2056 3.5514 14.3925 4.48598 13.0841C4.85981 12.8972 4.85981 12.5234 5.04673 12.3364C5.42056 10.4673 5.60748 8.41121 5.98131 6.54206H9.15888C8.97196 8.41121 8.59813 10.4673 8.41121 12.3364C8.41121 12.8972 8.59813 13.4579 9.15888 13.6449C10.2804 14.2056 11.4019 14.0187 12.5234 13.4579C13.0841 13.271 13.271 12.7103 13.271 12.1495C13.271 11.028 13.271 8.97196 13.4579 8.97196C13.4579 8.2243 13.4579 7.28972 13.4579 6.54206H17.0093C17.0093 8.2243 17.1963 11.4019 17.1963 12.3364C17.1963 12.8972 17.3832 13.271 17.9439 13.6449C19.0654 14.2056 20.1869 14.2056 21.3084 13.8318C21.8692 13.6449 22.0561 13.271 22.0561 12.5234C21.8692 10.6542 21.4953 8.59813 21.3084 6.72897H24.6729C25.0467 8.59813 25.2336 10.6542 25.6075 12.5234C25.6075 12.8972 25.7944 13.0841 25.9813 13.271C27.1028 14.3925 29.5327 14.3925 30.4673 13.271C30.4673 13.0841 30.4673 12.8972 30.4673 12.7103C30.4673 12.5234 30.2804 12.5234 30.2804 12.3364C29.7196 10.4673 29.1589 8.59813 28.5981 6.54206H31.5888C32.1495 8.59813 32.7103 10.4673 33.271 12.5234C33.271 12.7103 33.4579 13.0841 33.6449 13.271C34.7664 14.3925 37.1963 14.0187 38.1308 12.7103C38.1308 12.5234 38.1308 12.3364 38.1308 12.1495Z" fill="white"/>
<path d="M22.6168 19.4393C22.4299 19.4393 22.4299 19.4393 22.6168 19.4393C19.0654 22.8038 15.8878 26.1683 12.5233 29.5328C12.3364 29.7197 12.3364 29.7197 12.3364 29.9066C12.3364 31.0281 12.3364 32.1496 12.3364 33.2711C13.4579 33.2711 14.3925 33.2711 15.327 33.2711C15.7009 33.2711 15.8878 33.0842 16.2616 32.8973C18.8785 30.2805 21.3084 27.8506 23.9252 25.2337C24.6728 24.4861 25.4205 23.7384 26.1682 22.9907C24.8598 21.6823 23.7383 20.5608 22.6168 19.4393ZM27.1027 21.8692C27.6635 21.3085 28.2242 20.7477 28.785 20.187C29.1588 19.8132 29.1588 19.2524 28.785 18.8786C28.0373 18.1309 27.2897 17.3833 26.542 16.6356C26.1682 16.2618 25.6074 16.2618 25.2336 16.6356C24.6728 17.1963 24.1121 17.7571 23.5513 18.3178L27.1027 21.8692Z" fill="white"/>
<path d="M27.1027 21.8692C25.9812 20.7477 24.8597 19.4393 23.5513 18.3178C24.1121 17.7571 24.6728 17.1963 25.2336 16.6356C25.6074 16.2618 26.1682 16.2618 26.542 16.6356C27.2896 17.3833 28.0373 18.1309 28.785 18.8786C29.1588 19.2524 29.1588 19.8132 28.785 20.187C28.2242 20.7477 27.6635 21.3085 27.1027 21.8692Z" fill="white"/>
</svg>
