<svg width="31" height="32" viewBox="0 0 31 32" fill="none" xmlns="http://www.w3.org/2000/svg">
<path d="M26.4674 32C27.3645 31.7009 27.6636 31.1028 27.6636 30.2056C27.6636 26.7663 27.6636 14.6542 27.6636 11.2149C27.6636 10.7664 27.5141 10.6168 27.0655 10.6168V27.9626H3.43932V10.4673C3.28978 10.6168 2.84119 10.4673 2.84119 10.9159C2.84119 14.5047 2.84119 26.7663 2.84119 30.3551C2.84119 32 4.03745 31.8505 4.03745 32H26.4674ZM15.2524 29.0093C15.701 29.0093 16.2991 29.4579 16.2991 30.0561C16.2991 30.5047 15.8505 30.9533 15.4019 30.9533C14.9533 30.9533 14.5047 30.5047 14.3552 30.0561C14.2057 29.6075 14.6543 29.0093 15.2524 29.0093Z" fill="url(#paint0_linear)"/>
<path d="M28.7103 10.4672H1.49536V5.98117C1.49536 5.23351 2.09349 4.78491 2.69162 4.78491H27.5141C28.2617 4.78491 28.7103 5.38304 28.7103 5.98117V10.4672Z" fill="white"/>
<path d="M30.5047 9.71963L30.3551 9.57009C29.757 8.07477 29.1589 6.72897 28.7103 5.23364V1.19626C28.7103 0.598131 28.2617 0 27.514 0H2.69159C2.09346 0 1.49533 0.448598 1.49533 1.19626V4.93458C1.49533 5.08411 1.49533 5.08411 1.34579 5.23364V5.38318C0.897196 6.8785 0.448598 8.37383 0 10.0187C0 10.1682 0 10.3178 0 10.4673C0.897196 11.3645 2.84112 11.514 3.58878 10.4673C3.88785 10.3178 3.88785 10.0187 4.03738 9.86916C4.33645 8.37383 4.48598 6.72897 4.78505 5.23364H7.3271C7.17757 6.72897 6.8785 8.37383 6.72897 9.86916C6.72897 10.3178 6.8785 10.7664 7.3271 10.9159C8.2243 11.3645 9.12149 11.215 10.0187 10.7664C10.4673 10.6168 10.6168 10.1682 10.6168 9.71963C10.6168 8.82243 10.6168 7.17757 10.7664 7.17757C10.7664 6.57944 10.7664 5.83178 10.7664 5.23364H13.6075C13.6075 6.57944 13.757 9.1215 13.757 9.86916C13.757 10.3178 13.9065 10.6168 14.3551 10.9159C15.2523 11.3645 16.1495 11.3645 17.0467 11.0654C17.4953 10.9159 17.6449 10.6168 17.6449 10.0187C17.4953 8.52336 17.1963 6.8785 17.0467 5.38318H19.7383C20.0374 6.8785 20.1869 8.52336 20.486 10.0187C20.486 10.3178 20.6355 10.4673 20.785 10.6168C21.6822 11.514 23.6262 11.514 24.3738 10.6168C24.3738 10.4673 24.3738 10.3178 24.3738 10.1682C24.3738 10.0187 24.2243 10.0187 24.2243 9.86916C23.7757 8.37383 23.3271 6.8785 22.8785 5.23364H25.271C25.7196 6.8785 26.1682 8.37383 26.6168 10.0187C26.6168 10.1682 26.7664 10.4673 26.9159 10.6168C27.8131 11.514 29.757 11.215 30.5047 10.1682C30.5047 10.0187 30.5047 9.86916 30.5047 9.71963Z" fill="url(#paint1_linear)"/>
<path d="M16.2991 23.028C16.7477 21.6822 17.1963 20.3364 17.6449 18.9906C17.7944 18.6915 18.0935 18.3924 18.243 18.2429C19.2897 17.4952 20.3365 16.7476 21.3832 16.1494C21.6823 15.8504 22.1308 15.8504 22.4299 16.1494C22.729 16.598 22.5794 16.8971 22.2804 17.1962C21.5327 17.9438 20.7851 18.542 20.1869 19.2896C20.0374 19.4392 19.7383 19.8878 19.8879 20.0373C20.1869 20.4859 20.486 20.1868 20.7851 19.8878C21.5327 19.1401 22.4299 18.3924 23.1776 17.6448C23.6262 17.1962 23.7757 16.598 23.4766 15.8504C23.3271 15.7008 23.4766 15.4018 23.4766 15.2523C23.7757 14.6541 24.2243 14.056 24.6729 13.6074C24.972 13.3083 25.271 13.0093 25.7196 13.3083C26.0187 13.4579 26.1682 14.056 26.1682 14.2055C25.8692 15.7008 25.4206 17.0466 24.972 18.542C24.8224 19.2896 24.6729 20.1868 24.0748 20.9345C23.6262 21.6822 22.729 22.2803 21.9813 22.5794C20.1869 23.1775 18.243 23.1775 16.2991 23.028Z" fill="#33EDB0"/>
<path d="M14.2055 23.028C12.7102 23.028 11.514 23.028 10.1682 23.028C10.0186 23.028 9.8691 22.8785 9.71956 22.8785C8.82237 22.4299 7.92517 21.8317 7.17751 21.2336C6.72891 20.9345 6.28031 20.3364 6.13078 19.7383C5.53265 17.9439 5.08405 16 4.63545 14.2056C4.48592 13.757 4.48592 13.1588 4.93452 13.0093C5.53265 12.7102 5.83171 13.1588 6.13078 13.6074C6.28031 13.9065 6.57938 14.2056 6.72891 14.5046C7.02798 14.9532 7.47657 15.4018 7.17751 16.1495C7.02798 16.4486 7.17751 17.1962 7.47657 17.4953C8.22424 18.3925 9.12143 18.9906 9.8691 19.8878C10.1682 20.1869 10.4672 20.3364 10.7663 20.0373C10.9158 19.8878 10.6168 19.4392 10.4672 19.2897C9.71956 18.542 8.9719 17.9439 8.22424 17.1962C7.92517 16.7476 7.77564 16.299 8.0747 16C8.37377 15.5514 8.82237 15.7009 9.12143 16C10.1682 16.7476 11.2149 17.4953 12.2616 18.243C12.5607 18.3925 12.7102 18.6916 12.8598 18.9906C13.3083 20.1869 13.7569 21.5327 14.2055 23.028Z" fill="#33EDB0"/>
<path d="M10.3176 23.9253C11.6634 23.9253 13.0092 23.9253 14.5045 23.9253C14.5045 24.5234 14.5045 25.1216 14.5045 25.5702C14.5045 25.7197 14.2055 26.0188 14.0559 26.0188C13.0092 26.0188 11.9625 26.0188 11.0653 26.0188C10.9158 26.0188 10.6167 25.7197 10.6167 25.5702C10.1681 25.1216 10.3176 24.5234 10.3176 23.9253Z" fill="#33EDB0"/>
<path d="M20.1868 23.9253C20.1868 24.0748 20.1868 24.0748 20.1868 23.9253C20.4859 26.0187 20.4859 26.0187 18.5419 26.0187C17.9438 26.0187 17.3457 26.0187 16.7475 26.0187C16.2989 26.0187 16.1494 25.8692 16.1494 25.4206C16.1494 24.972 16.1494 24.3739 16.1494 23.7758C17.4952 23.9253 18.841 23.9253 20.1868 23.9253Z" fill="#33EDB0"/>
<defs>
<linearGradient id="paint0_linear" x1="12.2976" y1="-6.29279" x2="18.6885" y2="52.2896" gradientUnits="userSpaceOnUse">
<stop stop-color="#FFF4E8"/>
<stop offset="0.6046" stop-color="#7D94E5"/>
<stop offset="0.9986" stop-color="#3F28DC"/>
</linearGradient>
<linearGradient id="paint1_linear" x1="12.9418" y1="-10.6647" x2="16.5383" y2="21.8835" gradientUnits="userSpaceOnUse">
<stop stop-color="#FFF4E8"/>
<stop offset="0.6046" stop-color="#7D94E5"/>
<stop offset="0.9986" stop-color="#3F28DC"/>
</linearGradient>
</defs>
</svg>
