<svg width="31" height="32" viewBox="0 0 31 32" fill="none" xmlns="http://www.w3.org/2000/svg">
<path d="M26.4672 32C27.3644 31.7009 27.6635 31.1028 27.6635 30.2056C27.6635 26.7663 27.6635 14.6542 27.6635 11.2149C27.6635 10.7664 27.514 10.6168 27.0654 10.6168V27.9626H3.4392V10.4673C3.28966 10.6168 2.84106 10.4673 2.84106 10.9159C2.84106 14.5047 2.84106 26.7663 2.84106 30.3551C2.84106 32 4.03733 31.8505 4.03733 32H26.4672ZM15.2523 29.0093C15.7009 29.0093 16.299 29.4579 16.299 30.0561C16.299 30.5047 15.8504 30.9533 15.4018 30.9533C14.9532 30.9533 14.5046 30.5047 14.3551 30.0561C14.2055 29.6075 14.6541 29.0093 15.2523 29.0093Z" fill="url(#paint0_linear)"/>
<path d="M28.7103 10.4673H1.49536V5.9813C1.49536 5.23363 2.09349 4.78503 2.69162 4.78503H27.5141C28.2617 4.78503 28.7103 5.38317 28.7103 5.9813V10.4673Z" fill="white"/>
<path d="M30.5047 9.71963L30.3551 9.57009C29.757 8.07477 29.1589 6.72897 28.7103 5.23364V1.19626C28.7103 0.598131 28.2617 0 27.514 0H2.69159C2.09346 0 1.49533 0.448598 1.49533 1.19626V4.93458C1.49533 5.08411 1.49533 5.08411 1.34579 5.23364V5.38318C0.897196 6.8785 0.448598 8.37383 0 10.0187C0 10.1682 0 10.3178 0 10.4673C0.897196 11.3645 2.84112 11.514 3.58878 10.4673C3.88785 10.3178 3.88785 10.0187 4.03738 9.86916C4.33645 8.37383 4.48598 6.72897 4.78505 5.23364H7.3271C7.17757 6.72897 6.8785 8.37383 6.72897 9.86916C6.72897 10.3178 6.8785 10.7664 7.3271 10.9159C8.2243 11.3645 9.12149 11.215 10.0187 10.7664C10.4673 10.6168 10.6168 10.1682 10.6168 9.71963C10.6168 8.82243 10.6168 7.17757 10.7664 7.17757C10.7664 6.57944 10.7664 5.83178 10.7664 5.23364H13.6075C13.6075 6.57944 13.757 9.1215 13.757 9.86916C13.757 10.3178 13.9065 10.6168 14.3551 10.9159C15.2523 11.3645 16.1495 11.3645 17.0467 11.0654C17.4953 10.9159 17.6449 10.6168 17.6449 10.0187C17.4953 8.52336 17.1963 6.8785 17.0467 5.38318H19.7383C20.0374 6.8785 20.1869 8.52336 20.486 10.0187C20.486 10.3178 20.6355 10.4673 20.785 10.6168C21.6822 11.514 23.6262 11.514 24.3738 10.6168C24.3738 10.4673 24.3738 10.3178 24.3738 10.1682C24.3738 10.0187 24.2243 10.0187 24.2243 9.86916C23.7757 8.37383 23.3271 6.8785 22.8785 5.23364H25.271C25.7196 6.8785 26.1682 8.37383 26.6168 10.0187C26.6168 10.1682 26.7664 10.4673 26.9159 10.6168C27.8131 11.514 29.757 11.215 30.5047 10.1682C30.5047 10.0187 30.5047 9.86916 30.5047 9.71963Z" fill="url(#paint1_linear)"/>
<path d="M16.2989 26.1682C15.7008 26.1682 14.9531 26.1682 14.355 26.1682C14.2054 26.0187 14.2054 25.8691 14.0559 25.7196C14.0559 25.5701 13.9064 25.271 13.9064 25.1215C13.9064 24.8224 13.7568 24.6729 13.4578 24.5233C13.1587 24.3738 12.8596 24.0748 12.5606 24.2243C12.2615 24.2243 11.9624 24.6729 11.6634 24.8224C11.5138 24.9719 11.2148 24.9719 11.0652 24.8224C10.7662 24.5233 10.4671 24.2243 10.3176 24.0748C9.71945 23.4766 9.56992 23.4766 10.3176 22.729C10.6167 22.4299 10.6167 22.1308 10.4671 21.6822C10.3176 20.9346 9.86899 20.785 9.12132 20.785C8.82226 20.785 8.67273 20.785 8.52319 20.486C8.52319 19.8878 8.52319 19.1402 8.52319 18.542C8.67273 18.3925 8.82226 18.3925 8.97179 18.243C9.12132 18.243 9.42039 18.0934 9.56992 18.0934C9.86899 18.0934 10.0185 17.9439 10.1681 17.6448C10.3176 17.3458 10.6167 17.0467 10.4671 16.7476C10.4671 16.4486 10.0185 16.1495 9.86899 15.8505C9.71945 15.7009 9.71945 15.4019 9.86899 15.2523C10.1681 14.9533 10.4671 14.8037 10.7662 14.5047C11.3643 13.9065 11.3643 13.757 12.112 14.3551C12.411 14.6542 12.7101 14.6542 13.1587 14.5047C13.9064 14.3551 14.0559 13.9065 14.0559 13.3084C14.0559 13.0093 14.0559 12.8598 14.355 12.7103C14.9531 12.7103 15.7008 12.7103 16.2989 12.7103C16.4484 12.8598 16.4484 13.0093 16.598 13.1589C16.598 13.3084 16.7475 13.6075 16.598 13.757C16.598 14.0561 16.7475 14.2056 17.0466 14.3551C17.3456 14.5047 17.6447 14.6542 17.9438 14.6542C18.2428 14.6542 18.5419 14.2056 18.8409 14.0561C19.14 13.9065 19.2895 13.9065 19.4391 14.0561C19.7381 14.3551 20.0372 14.6542 20.4858 15.1028C20.9344 15.5514 20.9344 15.5514 20.4858 16C20.4858 16.1495 20.3363 16.1495 20.3363 16.2991C20.0372 16.5981 20.0372 16.8972 20.1867 17.3458C20.3363 18.0934 20.7849 18.243 21.5325 18.243C21.8316 18.243 21.9811 18.243 22.1307 18.542C22.1307 19.1402 22.1307 19.8878 22.1307 20.486C21.9811 20.6355 21.8316 20.6355 21.6821 20.785C21.5325 20.785 21.2335 20.9346 21.0839 20.9346C20.7849 20.9346 20.6353 21.0841 20.4858 21.3832C20.3363 21.6822 20.0372 21.9813 20.1867 22.2804C20.1867 22.5794 20.6353 22.8785 20.7849 23.1776C20.9344 23.3271 20.9344 23.6262 20.7849 23.7757C20.4858 24.0748 20.3363 24.2243 20.0372 24.5233C19.4391 25.1215 19.4391 25.271 18.6914 24.6729C18.3924 24.3738 18.0933 24.3738 17.6447 24.5233C16.897 24.6729 16.7475 25.1215 16.7475 25.8691C16.598 25.8691 16.4484 26.0187 16.2989 26.1682ZM18.6914 19.4392C18.6914 17.6448 17.1961 16 15.2522 16C13.4578 16 11.8129 17.4953 11.8129 19.4392C11.8129 21.2336 13.3082 22.8785 15.2522 22.8785C17.0466 22.8785 18.6914 21.2336 18.6914 19.4392Z" fill="#33EDB0"/>
<defs>
<linearGradient id="paint0_linear" x1="12.2975" y1="-6.29279" x2="18.6884" y2="52.2896" gradientUnits="userSpaceOnUse">
<stop stop-color="#FFF4E8"/>
<stop offset="0.6046" stop-color="#7D94E5"/>
<stop offset="0.9986" stop-color="#3F28DC"/>
</linearGradient>
<linearGradient id="paint1_linear" x1="12.9418" y1="-10.6647" x2="16.5383" y2="21.8835" gradientUnits="userSpaceOnUse">
<stop stop-color="#FFF4E8"/>
<stop offset="0.6046" stop-color="#7D94E5"/>
<stop offset="0.9986" stop-color="#3F28DC"/>
</linearGradient>
</defs>
</svg>
