<svg width="31" height="32" viewBox="0 0 31 32" fill="none" xmlns="http://www.w3.org/2000/svg">
<path d="M26.4672 32C27.3644 31.7009 27.6635 31.1028 27.6635 30.2056C27.6635 26.7663 27.6635 14.6542 27.6635 11.2149C27.6635 10.7664 27.514 10.6168 27.0654 10.6168V27.9626H3.4392V10.4673C3.28966 10.6168 2.84106 10.4673 2.84106 10.9159C2.84106 14.5047 2.84106 26.7663 2.84106 30.3551C2.84106 32 4.03733 31.8505 4.03733 32H26.4672ZM15.2523 29.0093C15.7009 29.0093 16.299 29.4579 16.299 30.0561C16.299 30.5047 15.8504 30.9533 15.4018 30.9533C14.9532 30.9533 14.5046 30.5047 14.3551 30.0561C14.2055 29.6075 14.6541 29.0093 15.2523 29.0093Z" fill="url(#paint0_linear)"/>
<path d="M28.7103 10.4672H1.49536V5.98117C1.49536 5.23351 2.09349 4.78491 2.69162 4.78491H27.5141C28.2617 4.78491 28.7103 5.38304 28.7103 5.98117V10.4672Z" fill="white"/>
<path d="M30.5047 9.71963L30.3551 9.57009C29.757 8.07477 29.1589 6.72897 28.7103 5.23364V1.19626C28.7103 0.598131 28.2617 0 27.514 0H2.69159C2.09346 0 1.49533 0.448598 1.49533 1.19626V4.93458C1.49533 5.08411 1.49533 5.08411 1.34579 5.23364V5.38318C0.897196 6.8785 0.448598 8.37383 0 10.0187C0 10.1682 0 10.3178 0 10.4673C0.897196 11.3645 2.84112 11.514 3.58878 10.4673C3.88785 10.3178 3.88785 10.0187 4.03738 9.86916C4.33645 8.37383 4.48598 6.72897 4.78505 5.23364H7.3271C7.17757 6.72897 6.8785 8.37383 6.72897 9.86916C6.72897 10.3178 6.8785 10.7664 7.3271 10.9159C8.2243 11.3645 9.12149 11.215 10.0187 10.7664C10.4673 10.6168 10.6168 10.1682 10.6168 9.71963C10.6168 8.82243 10.6168 7.17757 10.7664 7.17757C10.7664 6.57944 10.7664 5.83178 10.7664 5.23364H13.6075C13.6075 6.57944 13.757 9.1215 13.757 9.86916C13.757 10.3178 13.9065 10.6168 14.3551 10.9159C15.2523 11.3645 16.1495 11.3645 17.0467 11.0654C17.4953 10.9159 17.6449 10.6168 17.6449 10.0187C17.4953 8.52336 17.1963 6.8785 17.0467 5.38318H19.7383C20.0374 6.8785 20.1869 8.52336 20.486 10.0187C20.486 10.3178 20.6355 10.4673 20.785 10.6168C21.6822 11.514 23.6262 11.514 24.3738 10.6168C24.3738 10.4673 24.3738 10.3178 24.3738 10.1682C24.3738 10.0187 24.2243 10.0187 24.2243 9.86916C23.7757 8.37383 23.3271 6.8785 22.8785 5.23364H25.271C25.7196 6.8785 26.1682 8.37383 26.6168 10.0187C26.6168 10.1682 26.7664 10.4673 26.9159 10.6168C27.8131 11.514 29.757 11.215 30.5047 10.1682C30.5047 10.0187 30.5047 9.86916 30.5047 9.71963Z" fill="url(#paint1_linear)"/>
<path d="M14.8034 12.8596C16.7473 13.0091 18.5417 14.3549 18.9903 16.5979C19.2894 18.5418 18.3922 20.6353 16.5978 21.5325C14.8034 22.4297 12.5604 22.1306 11.2146 20.7848C9.7193 19.439 9.42023 17.196 10.1679 15.4016C11.0651 13.6072 13.009 12.71 14.8034 12.8596ZM14.3548 13.9063C12.4109 13.9063 10.9156 15.5512 10.9156 17.3456C10.9156 19.2895 12.5604 20.7848 14.3548 20.7848C16.2987 20.7848 17.7941 19.14 17.9436 17.3456C17.9436 15.5512 16.2987 13.9063 14.3548 13.9063Z" fill="#33EDB0"/>
<path d="M20.7851 25.2709C20.486 25.1214 20.1869 24.9718 20.0374 24.6728C19.1402 23.9251 18.3926 23.0279 17.6449 22.2802L17.4954 22.1307C18.0935 21.5326 18.5421 21.084 19.1402 20.4858C19.7384 21.084 20.3365 21.6821 20.9346 22.2802C21.2337 22.5793 21.5327 22.8784 21.8318 23.1774C21.9813 23.4765 22.1309 23.7756 22.4299 23.9251C22.4299 24.0746 22.4299 24.2242 22.4299 24.3737C22.2804 24.8223 21.9813 25.1214 21.5327 25.2709C21.0841 25.2709 20.9346 25.2709 20.7851 25.2709Z" fill="#33EDB0"/>
<defs>
<linearGradient id="paint0_linear" x1="12.2975" y1="-6.29279" x2="18.6884" y2="52.2896" gradientUnits="userSpaceOnUse">
<stop stop-color="#FFF4E8"/>
<stop offset="0.6046" stop-color="#7D94E5"/>
<stop offset="0.9986" stop-color="#3F28DC"/>
</linearGradient>
<linearGradient id="paint1_linear" x1="12.9418" y1="-10.6647" x2="16.5383" y2="21.8835" gradientUnits="userSpaceOnUse">
<stop stop-color="#FFF4E8"/>
<stop offset="0.6046" stop-color="#7D94E5"/>
<stop offset="0.9986" stop-color="#3F28DC"/>
</linearGradient>
</defs>
</svg>
