<svg width="36" height="40" viewBox="0 0 36 40" fill="none" xmlns="http://www.w3.org/2000/svg">
<path d="M24.7368 0H17.0175H16.1404H11.4035C5.08772 0 0 5.08772 0 11.4035V20.1754H15.9649H16.8421H35.9649V11.4035C36.1404 5.08772 31.0526 0 24.7368 0Z" fill="url(#paint0_linear)"/>
<path d="M11.4035 40.0001H19.1228H20H24.5614C30.8772 40.0001 35.9649 34.9124 35.9649 28.5966V19.8247H20H19.1228H0V28.5966C0 34.9124 5.08772 40.0001 11.4035 40.0001Z" fill="#18253E"/>
<path d="M14.9123 32.1054C16.3657 32.1054 17.5439 30.9272 17.5439 29.4739C17.5439 28.0205 16.3657 26.8423 14.9123 26.8423C13.459 26.8423 12.2808 28.0205 12.2808 29.4739C12.2808 30.9272 13.459 32.1054 14.9123 32.1054Z" fill="#33EEB1"/>
<path d="M24.3857 32.1054C25.8391 32.1054 27.0173 30.9272 27.0173 29.4739C27.0173 28.0205 25.8391 26.8423 24.3857 26.8423C22.9323 26.8423 21.7542 28.0205 21.7542 29.4739C21.7542 30.9272 22.9323 32.1054 24.3857 32.1054Z" fill="#33EEB1"/>
<path d="M28.772 11.7544C25.0878 11.7544 19.8246 11.7544 15.0878 11.7544H7.89478C8.94741 15.4386 10 19.4737 11.0527 23.1579C11.2281 23.8597 11.9299 24.386 12.6316 24.386H25.965C27.8948 24.386 28.0702 22.4561 28.2457 22.1053C28.5965 20.8772 29.6492 17.3684 30.5264 13.5088C30.7018 12.6316 29.6492 11.7544 28.772 11.7544Z" fill="#33EEB1"/>
<path d="M9.64915 12.9825H5.96494C5.61406 12.9825 5.26318 12.807 5.26318 12.4561C5.26318 12.1053 5.61406 11.7544 5.96494 11.7544H9.64915C10 11.7544 10.3509 12.1053 10.3509 12.4561C10.3509 12.807 10 12.9825 9.64915 12.9825Z" fill="#33EEB1"/>
<defs>
<linearGradient id="paint0_linear" x1="23.8104" y1="56.2663" x2="14.2314" y2="-11.9839" gradientUnits="userSpaceOnUse">
<stop stop-color="#FFF5E9"/>
<stop offset="0.6046" stop-color="#7D95E6"/>
<stop offset="0.9986" stop-color="#3F28DD"/>
</linearGradient>
</defs>
</svg>
