<svg xmlns="http://www.w3.org/2000/svg" width="48" height="48" viewBox="0 0 48 48">
  <g id="HRM" transform="translate(-511 -1215)">
    <rect id="Rectangle_6603" data-name="Rectangle 6603" width="48" height="48" transform="translate(511 1215)" fill="none"/>
    <g id="Group_19138" data-name="Group 19138" transform="translate(-1.139 -1.487)">
      <path id="Path_24643" data-name="Path 24643" d="M8.759,9.642a5.172,5.172,0,0,1,2.68.736,9.7,9.7,0,0,0,1.98,6.937,5.252,5.252,0,1,1-4.66-7.673Zm24.526,0a5.256,5.256,0,1,1-4.66,7.673,9.7,9.7,0,0,0,1.98-6.937A5.172,5.172,0,0,1,33.285,9.642ZM0,30.665V28.037c0-2.435,3.311-4.485,7.8-5.08A7.085,7.085,0,0,0,6.132,27.6v3.066Zm42.045,0H35.913V27.6a7.085,7.085,0,0,0-1.664-4.642c4.485.6,7.8,2.645,7.8,5.08Z" transform="translate(515.117 1222.225)" fill="#85e6c4"/>
      <path id="Path_24644" data-name="Path 24644" d="M20.5,5.5a6.132,6.132,0,1,1-4.336,1.8A6.132,6.132,0,0,1,20.5,5.5ZM9.113,27.836c0-3.626,5.1-6.569,11.387-6.569s11.387,2.943,11.387,6.569V30.9H9.113Z" transform="translate(515.639 1221.987)" fill="#6d44e5"/>
    </g>
  </g>
</svg>
