<svg xmlns="http://www.w3.org/2000/svg" width="48" height="48" viewBox="0 0 48 48">
  <g id="Group_19139" data-name="Group 19139" transform="translate(-887 -1215)">
    <rect id="Rectangle_6606" data-name="Rectangle 6606" width="48" height="48" transform="translate(887 1215)" fill="#fff"/>
    <g id="IT">
      <path id="Subtraction_71" data-name="Subtraction 71" d="M21.533,25.735H0a3.031,3.031,0,0,1-3.028-3.028H3.028A3.032,3.032,0,0,1,0,19.679V3.028A3.031,3.031,0,0,1,3.028,0H27.248a3.031,3.031,0,0,1,3.028,3.028l-.008,8.721h-3.02V3.028H3.028V19.679H21.533v6.054Zm-6.4-4.541a1.514,1.514,0,1,0,1.514,1.514A1.516,1.516,0,0,0,15.138,21.193Z" transform="translate(893.584 1224.602)" fill="#6d44e5"/>
      <path id="Path_24646" data-name="Path 24646" d="M.837,1h13.4a.838.838,0,0,1,.837.837v3.35a.837.837,0,0,1-.837.837H.837A.837.837,0,0,1,0,5.187V1.837A.837.837,0,0,1,.837,1Zm0,5.518h13.4a.838.838,0,0,1,.837.837v3.35a.838.838,0,0,1-.837.837H.837A.838.838,0,0,1,0,10.705V7.355a.837.837,0,0,1,.837-.837Zm0,5.518h13.4a.838.838,0,0,1,.837.837v3.35a.838.838,0,0,1-.837.837H.837A.838.838,0,0,1,0,16.223v-3.35a.838.838,0,0,1,.837-.837ZM5.025,4.35h.837V2.675H5.025Zm0,5.518h.837V8.193H5.025Zm0,5.518h.837V13.71H5.025ZM1.675,2.675V4.35H3.35V2.675Zm0,5.518V9.868H3.35V8.193Zm0,5.518v1.675H3.35V13.71Z" transform="translate(916.368 1236.338)" fill="#85e6c4"/>
    </g>
  </g>
</svg>
