<svg xmlns="http://www.w3.org/2000/svg" width="48" height="48" viewBox="0 0 48 48">
  <g id="marketing" transform="translate(-135 -1300)">
    <rect id="Rectangle_6602" data-name="Rectangle 6602" width="48" height="48" transform="translate(135 1300)" fill="none"/>
    <g id="Group_19136" data-name="Group 19136" transform="translate(7.499 -0.955)">
      <g id="Group_19135" data-name="Group 19135" transform="translate(143.493 1308.955)">
        <path id="Path_24634" data-name="Path 24634" d="M331.123,7.131,335.9,2.4a.456.456,0,0,1,.7.069l1.1,1.633a.456.456,0,0,1-.165.658l-5.883,3.1a.456.456,0,0,1-.534-.727Zm.791,4.066a.363.363,0,0,0,.389.288l5.269-.492a.363.363,0,0,0,.322-.434l-.314-1.536a.363.363,0,0,0-.493-.263l-4.955,2.028a.363.363,0,0,0-.218.409Zm-3.934-5.592a.363.363,0,0,0,.479-.071l3.378-4.074a.363.363,0,0,0-.079-.534L330.449.062a.363.363,0,0,0-.534.163l-2.07,4.938a.363.363,0,0,0,.135.443Z" transform="translate(-306.997 -0.002)" fill="#6d44e5"/>
        <path id="Path_24635" data-name="Path 24635" d="M113.325,360.4l-1.018.6a1.735,1.735,0,0,1-2.374-.622l-2.7-4.614a1.735,1.735,0,0,1,.622-2.374l1.018-.6a1.735,1.735,0,0,1,2.374.622l2.7,4.614A1.735,1.735,0,0,1,113.325,360.4Z" transform="translate(-100.234 -330.113)" fill="#6d44e5"/>
        <path id="Path_24636" data-name="Path 24636" d="M7.6,170.476l9.861-5.369-6.741-10.555-8.914,6.622c-.057.037-2.467,2.241.179,6.384S7.6,170.476,7.6,170.476Z" transform="translate(-0.749 -144.715)" fill="#6d44e5"/>
        <path id="Path_24637" data-name="Path 24637" d="M227.464,35.54c2.949,4.618,4.736,9.621,3.5,10.409s-5.021-2.937-7.971-7.555-4.736-9.621-3.5-10.409S224.515,30.922,227.464,35.54Z" transform="translate(-205.199 -26.105)" fill="#6d44e5"/>
        <path id="Path_24638" data-name="Path 24638" d="M246.048,130.935c1.022-.653.729-2.938-.654-5.1s-3.334-3.393-4.356-2.74-.729,2.938.654,5.1S245.026,131.588,246.048,130.935Z" transform="translate(-225.171 -115.092)" fill="#6d44e5"/>
        <path id="Path_24639" data-name="Path 24639" d="M145.121,46.86c-1.078.688-4.739-3.118-7.688-7.736s-4.863-9.54-3.785-10.228a.584.584,0,0,1,.208-.08,1.419,1.419,0,0,0-1.3.817c-1.3,2.484-4.614,8-4.614,8s-1.645,2.215,1.247,6.743,5.684,3.961,5.684,3.961,6.343-.648,9.13-.781a1.413,1.413,0,0,0,1.31-.892A.6.6,0,0,1,145.121,46.86Z" transform="translate(-119.407 -26.981)" fill="#6d44e5"/>
        <path id="Path_24640" data-name="Path 24640" d="M27.69,243.164a.9.9,0,0,1-.483-1.652l3.686-2.354a.9.9,0,0,1,.965,1.511l-3.686,2.354A.892.892,0,0,1,27.69,243.164Z" transform="translate(-25.135 -223.802)" fill="#6d44e5"/>
      </g>
      <path id="Subtraction_70" data-name="Subtraction 70" d="M10.867,28.807a1.1,1.1,0,0,1-.283-.037,14.85,14.85,0,0,1-3.616-1.5,1.1,1.1,0,0,1-.37-.348,1.118,1.118,0,0,1-.173-.478l-.382-3.274c-.136-.13-.275-.269-.413-.413L2.363,22.4a1.1,1.1,0,0,1-.827-.541,14.841,14.841,0,0,1-1.5-3.614,1.1,1.1,0,0,1,.2-.972L2.292,14.7v-.595L.248,11.55a1.1,1.1,0,0,1-.205-.972,14.807,14.807,0,0,1,1.5-3.614,1.1,1.1,0,0,1,.348-.369,1.109,1.109,0,0,1,.478-.173l3.276-.376c.135-.141.274-.28.413-.413l.364-3.271a1.11,1.11,0,0,1,.173-.477,1.1,1.1,0,0,1,.368-.349,14.833,14.833,0,0,1,3.616-1.5,1.106,1.106,0,0,1,.511-.013,1.117,1.117,0,0,1,.462.217l2.567,2.05h.6L17.272.248a1.1,1.1,0,0,1,.689-.241,1.09,1.09,0,0,1,.284.038,14.794,14.794,0,0,1,3.616,1.495,1.119,1.119,0,0,1,.369.349,1.1,1.1,0,0,1,.173.478l.385,3.273.009.009.007.007-4.493,4.86a5.508,5.508,0,1,0-6.96,8.471,5.545,5.545,0,0,0,2.262.87l1.167,6.723-.07-.056c-.1,0-.2,0-.3,0s-.2,0-.3,0l-2.56,2.043a1.1,1.1,0,0,1-.689.242Z" transform="translate(129.501 1308.955)" fill="#85e6c4"/>
    </g>
  </g>
</svg>
