<svg xmlns="http://www.w3.org/2000/svg" width="48" height="48" viewBox="0 0 48 48">
  <g id="finance_accounting" data-name="finance &amp; accounting" transform="translate(-511 -1300)">
    <rect id="Rectangle_6604" data-name="Rectangle 6604" width="48" height="48" transform="translate(511 1300)" fill="none"/>
    <g id="Group_19142" data-name="Group 19142" transform="translate(1)">
      <path id="Subtraction_73" data-name="Subtraction 73" d="M248.5,2581H237a5.006,5.006,0,0,1-5-5v-23a5.006,5.006,0,0,1,5-5h16a5.006,5.006,0,0,1,5,5v12.5h-6a3.5,3.5,0,0,0-3.5,3.5v12Zm-4.654-27.359a1.194,1.194,0,0,0-.139.008l-.069.013-.172.042a6.376,6.376,0,1,0,7.808,7.609.645.645,0,0,0,.016-.144,1.273,1.273,0,0,0-1.273-1.275H245.69l-.075,0a.638.638,0,0,1-.562-.634v-4.463l0-.066-.015-.107a1.209,1.209,0,0,0-1.189-.978Zm3.118.2a.611.611,0,0,0-.089.006.637.637,0,0,0-.549.631v3.506a.638.638,0,0,0,.636.638h3.5a.641.641,0,0,0,.293-.071.648.648,0,0,0,.227-.2.642.642,0,0,0,.081-.581,6.369,6.369,0,0,0-3.888-3.9A.641.641,0,0,0,246.965,2553.836Z" transform="translate(285 -1243)" fill="#6d44e5"/>
      <path id="Path_24651" data-name="Path 24651" d="M3,0A3,3,0,0,0,0,3V17a3,3,0,0,0,3,3H13a3,3,0,0,0,3-3V3a3,3,0,0,0-3-3ZM3,4A1,1,0,0,1,4,3h8a1,1,0,0,1,1,1V8a1,1,0,0,1-1,1H4A1,1,0,0,1,3,8Zm1,7a1,1,0,0,0,0,2h.01a1,1,0,0,0,0-2Zm3,1a1,1,0,0,1,1-1h.01a1,1,0,0,1,0,2H8a1,1,0,0,1-1-1Zm1,2a1,1,0,0,0,0,2h.01a1,1,0,0,0,0-2ZM3,15a1,1,0,0,1,1-1h.01a1,1,0,0,1,0,2H4a1,1,0,0,1-1-1Zm10-3a1,1,0,0,0-2,0v3a1,1,0,0,0,2,0Z" transform="translate(535 1324)" fill="#85e6c4" fill-rule="evenodd"/>
    </g>
  </g>
</svg>
