<svg xmlns="http://www.w3.org/2000/svg" width="48" height="48" viewBox="0 0 48 48">
  <g id="plugin" transform="translate(-158 -211)">
    <g id="API" transform="translate(164.113 217.119)">
      <path id="Path_6572" data-name="Path 6572" d="M35.747,2.06,33.888.2a.344.344,0,0,0-.25-.1.363.363,0,0,0-.25.1L30.052,3.537A8.778,8.778,0,0,0,18.934,4.6L14.466,9.07a.352.352,0,0,0,0,.5L26.378,21.478a.344.344,0,0,0,.25.1.371.371,0,0,0,.25-.1l4.468-4.468A8.777,8.777,0,0,0,32.411,5.9L35.747,2.56a.357.357,0,0,0,0-.5ZM20.893,19.5a.352.352,0,0,0-.5,0l-2.92,2.92-3.959-3.959,2.924-2.924a.352.352,0,0,0,0-.5l-1.6-1.6a.352.352,0,0,0-.5,0l-2.924,2.924L9.543,14.489a.344.344,0,0,0-.25-.1.371.371,0,0,0-.25.1L4.58,18.957A8.777,8.777,0,0,0,3.514,30.071L.178,33.407a.352.352,0,0,0,0,.5l1.859,1.859a.344.344,0,0,0,.25.1.363.363,0,0,0,.25-.1l3.336-3.336A8.778,8.778,0,0,0,16.991,31.36l4.468-4.468a.352.352,0,0,0,0-.5l-1.885-1.885L22.5,21.587a.352.352,0,0,0,0-.5l-1.6-1.587Z" transform="translate(-0.076 -0.1)" fill="#85e6c4"/>
      <path id="Path_15134" data-name="Path 15134" d="M36.641,2.06,34.782.2a.344.344,0,0,0-.25-.1.363.363,0,0,0-.25.1L30.946,3.537A8.778,8.778,0,0,0,19.828,4.6L15.36,9.07a.352.352,0,0,0,0,.5L27.272,21.478a.344.344,0,0,0,.25.1.371.371,0,0,0,.25-.1L32.24,17.01A8.777,8.777,0,0,0,33.3,5.9L36.641,2.56a.357.357,0,0,0,0-.5Z" transform="translate(-0.97 -0.1)" fill="#6d44e5"/>
    </g>
    <rect id="Rectangle_2407" data-name="Rectangle 2407" width="48" height="48" transform="translate(158 211)" fill="none"/>
  </g>
</svg>
