<svg xmlns="http://www.w3.org/2000/svg" xmlns:xlink="http://www.w3.org/1999/xlink" width="455" height="310" viewBox="0 0 455 310">
  <defs>
    <filter id="Rectangle_6471" x="12" y="6" width="430" height="298" filterUnits="userSpaceOnUse">
      <feOffset input="SourceAlpha"/>
      <feGaussianBlur stdDeviation="5" result="blur"/>
      <feFlood flood-opacity="0.161"/>
      <feComposite operator="in" in2="blur"/>
      <feComposite in="SourceGraphic"/>
    </filter>
    <linearGradient id="linear-gradient" x1="0.5" y1="-0.413" x2="0.5" y2="1" gradientUnits="objectBoundingBox">
      <stop offset="0" stop-color="#091b49" stop-opacity="0"/>
      <stop offset="1" stop-color="#091b49"/>
    </linearGradient>
  </defs>
  <g id="Group_18930" data-name="Group 18930" transform="translate(-518 -60)">
    <rect id="Rectangle_6350" data-name="Rectangle 6350" width="455" height="310" transform="translate(518 60)" fill="none"/>
    <g id="Group_18898" data-name="Group 18898" transform="translate(-2469 3152)">
      <g transform="matrix(1, 0, 0, 1, 2987, -3092)" filter="url(#Rectangle_6471)">
        <rect id="Rectangle_6471-2" data-name="Rectangle 6471" width="400" height="268" rx="10" transform="translate(27 21)" fill="#091b49"/>
      </g>
      <path id="Path_24481" data-name="Path 24481" d="M4.158,14.168a3.515,3.515,0,0,1-1.785-.455,3.271,3.271,0,0,1-1.246-1.274,3.871,3.871,0,0,1-.455-1.911,3.871,3.871,0,0,1,.455-1.911A3.271,3.271,0,0,1,2.373,7.343a3.515,3.515,0,0,1,1.785-.455,3.335,3.335,0,0,1,2.079.644A2.806,2.806,0,0,1,7.308,9.254H6.1a1.543,1.543,0,0,0-.686-1A2.275,2.275,0,0,0,4.144,7.9,2.175,2.175,0,0,0,2.2,9.072a3,3,0,0,0-.322,1.456A3,3,0,0,0,2.2,11.984a2.243,2.243,0,0,0,.84.889,2.166,2.166,0,0,0,1.106.3,2.275,2.275,0,0,0,1.274-.357A1.549,1.549,0,0,0,6.1,11.8h1.2A2.78,2.78,0,0,1,6.244,13.51,3.316,3.316,0,0,1,4.158,14.168Zm7.322,0a2.607,2.607,0,0,1-1.96-.749,3.194,3.194,0,0,1-.728-2.3V7.056H9.968V10.99q0,2.17,1.778,2.17a1.951,1.951,0,0,0,1.5-.651,2.653,2.653,0,0,0,.6-1.855v-3.6h1.176V14H13.958l-.084-1.246a2.418,2.418,0,0,1-.959,1.036A2.758,2.758,0,0,1,11.48,14.168ZM16.954,14V7.056h1.064l.1,1.33a2.517,2.517,0,0,1,.98-1.092,3.038,3.038,0,0,1,1.624-.406V8.12H20.4a2.906,2.906,0,0,0-1.134.217,1.722,1.722,0,0,0-.826.735A2.8,2.8,0,0,0,18.13,10.5V14Zm5.082,0V3.92h1.176V14Zm6.678-3.57V9.436h5.544v.994Zm7.182,0V9.436H41.44v.994ZM43.218,14V7.056h1.064l.1,1.33a2.517,2.517,0,0,1,.98-1.092,3.038,3.038,0,0,1,1.624-.406V8.12h-.322a2.906,2.906,0,0,0-1.134.217,1.722,1.722,0,0,0-.826.735,2.8,2.8,0,0,0-.308,1.428V14Zm7.938.168a3.4,3.4,0,0,1-1.764-.455,3.23,3.23,0,0,1-1.211-1.267,3.96,3.96,0,0,1-.441-1.918,4.023,4.023,0,0,1,.434-1.911,3.156,3.156,0,0,1,1.211-1.274,3.494,3.494,0,0,1,1.8-.455,3.245,3.245,0,0,1,1.743.455,3.083,3.083,0,0,1,1.127,1.2,3.366,3.366,0,0,1,.392,1.6q0,.154-.007.308t-.007.35H48.9a2.729,2.729,0,0,0,.371,1.323,2.184,2.184,0,0,0,1.883,1.057,2.1,2.1,0,0,0,1.218-.336,1.922,1.922,0,0,0,.714-.91H54.25a3.05,3.05,0,0,1-3.094,2.24Zm0-6.286a2.348,2.348,0,0,0-1.491.511,2.059,2.059,0,0,0-.749,1.491h4.368a1.986,1.986,0,0,0-.644-1.47A2.161,2.161,0,0,0,51.156,7.882ZM61.7,17.08V12.852a3.251,3.251,0,0,1-.966.91,2.866,2.866,0,0,1-1.582.406,3.4,3.4,0,0,1-1.813-.476,3.241,3.241,0,0,1-1.2-1.3,4.026,4.026,0,0,1-.427-1.876,3.931,3.931,0,0,1,.434-1.869,3.269,3.269,0,0,1,1.2-1.288,3.43,3.43,0,0,1,1.82-.469,3.171,3.171,0,0,1,1.512.35,2.522,2.522,0,0,1,1.022.98l.112-1.162h1.064V17.08Zm-2.422-3.934a2.33,2.33,0,0,0,1.239-.329,2.25,2.25,0,0,0,.84-.917,2.972,2.972,0,0,0,.3-1.372,2.972,2.972,0,0,0-.3-1.372,2.25,2.25,0,0,0-.84-.917,2.33,2.33,0,0,0-1.239-.329,2.3,2.3,0,0,0-1.225.329,2.25,2.25,0,0,0-.84.917,2.972,2.972,0,0,0-.3,1.372,2.972,2.972,0,0,0,.3,1.372,2.25,2.25,0,0,0,.84.917A2.3,2.3,0,0,0,59.276,13.146Zm8.05,1.022a2.607,2.607,0,0,1-1.96-.749,3.194,3.194,0,0,1-.728-2.3V7.056h1.176V10.99q0,2.17,1.778,2.17a1.951,1.951,0,0,0,1.5-.651,2.653,2.653,0,0,0,.6-1.855v-3.6h1.176V14H69.8l-.084-1.246a2.418,2.418,0,0,1-.959,1.036A2.758,2.758,0,0,1,67.326,14.168Zm8.6,0a3.4,3.4,0,0,1-1.764-.455,3.23,3.23,0,0,1-1.211-1.267,3.96,3.96,0,0,1-.441-1.918,4.023,4.023,0,0,1,.434-1.911,3.156,3.156,0,0,1,1.211-1.274,3.494,3.494,0,0,1,1.8-.455,3.245,3.245,0,0,1,1.743.455,3.083,3.083,0,0,1,1.127,1.2,3.366,3.366,0,0,1,.392,1.6q0,.154-.007.308t-.007.35h-5.53a2.729,2.729,0,0,0,.371,1.323,2.184,2.184,0,0,0,1.883,1.057,2.1,2.1,0,0,0,1.218-.336,1.922,1.922,0,0,0,.714-.91h1.162a3.05,3.05,0,0,1-3.094,2.24Zm0-6.286a2.348,2.348,0,0,0-1.491.511,2.059,2.059,0,0,0-.749,1.491H78.05a1.986,1.986,0,0,0-.644-1.47A2.16,2.16,0,0,0,75.922,7.882Zm7.5,6.286a3.318,3.318,0,0,1-2.072-.63,2.456,2.456,0,0,1-.966-1.708h1.2a1.661,1.661,0,0,0,.581.945,1.891,1.891,0,0,0,1.267.4,1.6,1.6,0,0,0,1.092-.315.975.975,0,0,0,.35-.749.831.831,0,0,0-.455-.84,6.056,6.056,0,0,0-1.281-.378,7.221,7.221,0,0,1-1.12-.322,2.544,2.544,0,0,1-.938-.595A1.386,1.386,0,0,1,80.71,8.96a1.873,1.873,0,0,1,.679-1.491,2.738,2.738,0,0,1,1.841-.581,2.855,2.855,0,0,1,1.813.553,2.207,2.207,0,0,1,.819,1.575H84.7a1.211,1.211,0,0,0-.455-.833,1.626,1.626,0,0,0-1.029-.3,1.557,1.557,0,0,0-.973.266.843.843,0,0,0-.343.7.727.727,0,0,0,.441.658,4.735,4.735,0,0,0,1.2.406,10.426,10.426,0,0,1,1.225.343,2.315,2.315,0,0,1,.952.6,1.636,1.636,0,0,1,.371,1.155,1.9,1.9,0,0,1-.707,1.547A2.929,2.929,0,0,1,83.426,14.168ZM90.2,14a2.247,2.247,0,0,1-1.5-.462,2.1,2.1,0,0,1-.546-1.666V8.05h-1.2V7.056h1.2l.154-1.666h1.022V7.056h2.044V8.05H89.334v3.822a1.155,1.155,0,0,0,.266.889,1.45,1.45,0,0,0,.938.231h.728V14Zm6.454,0V4.2h3.22a4.153,4.153,0,0,1,1.89.378,2.519,2.519,0,0,1,1.1,1.022,2.952,2.952,0,0,1,.357,1.456,2.97,2.97,0,0,1-.35,1.442,2.515,2.515,0,0,1-1.092,1.029,4.124,4.124,0,0,1-1.9.385H97.832V14Zm1.176-5.082h2.016a2.313,2.313,0,0,0,1.673-.5,1.845,1.845,0,0,0,.5-1.365,1.864,1.864,0,0,0-.5-1.379,2.313,2.313,0,0,0-1.673-.5H97.832Zm11.382,5.25a4.9,4.9,0,0,1-2.527-.637,4.431,4.431,0,0,1-1.694-1.785,5.562,5.562,0,0,1-.609-2.646,5.52,5.52,0,0,1,.609-2.639,4.491,4.491,0,0,1,1.694-1.785,5.307,5.307,0,0,1,5.068,0,4.442,4.442,0,0,1,1.687,1.785,5.573,5.573,0,0,1,.6,2.639,5.615,5.615,0,0,1-.6,2.646,4.384,4.384,0,0,1-1.687,1.785A4.927,4.927,0,0,1,109.214,14.168Zm0-1.036a3.664,3.664,0,0,0,1.9-.483,3.277,3.277,0,0,0,1.274-1.386A4.759,4.759,0,0,0,112.84,9.1a4.714,4.714,0,0,0-.455-2.156,3.286,3.286,0,0,0-1.274-1.379,3.967,3.967,0,0,0-3.794,0,3.286,3.286,0,0,0-1.274,1.379,4.714,4.714,0,0,0-.455,2.156,4.759,4.759,0,0,0,.455,2.163,3.277,3.277,0,0,0,1.274,1.386A3.664,3.664,0,0,0,109.214,13.132Zm9.646,1.036a4.209,4.209,0,0,1-1.876-.392,2.929,2.929,0,0,1-1.232-1.092,3.018,3.018,0,0,1-.434-1.624h1.232a2.155,2.155,0,0,0,.266,1.057,1.958,1.958,0,0,0,.777.77,2.557,2.557,0,0,0,1.267.287,2.27,2.27,0,0,0,1.54-.476,1.514,1.514,0,0,0,.546-1.19,1.606,1.606,0,0,0-.252-.945,1.884,1.884,0,0,0-.679-.581,5.639,5.639,0,0,0-.98-.392q-.553-.168-1.155-.378a4.124,4.124,0,0,1-1.68-.973,2.128,2.128,0,0,1-.546-1.519,2.5,2.5,0,0,1,.364-1.393,2.566,2.566,0,0,1,1.071-.952,3.671,3.671,0,0,1,1.645-.343,3.575,3.575,0,0,1,1.631.35,2.645,2.645,0,0,1,1.078.966,2.68,2.68,0,0,1,.4,1.4H120.61a1.713,1.713,0,0,0-.21-.805,1.639,1.639,0,0,0-.637-.651,2.079,2.079,0,0,0-1.071-.252,1.938,1.938,0,0,0-1.309.406,1.422,1.422,0,0,0-.511,1.162,1.263,1.263,0,0,0,.357.966,2.7,2.7,0,0,0,1,.553l1.484.5a7.153,7.153,0,0,1,1.26.588,2.475,2.475,0,0,1,.875.868,2.635,2.635,0,0,1,.315,1.358,2.581,2.581,0,0,1-.364,1.323,2.7,2.7,0,0,1-1.1,1.015A3.882,3.882,0,0,1,118.86,14.168ZM125.888,14V5.166h-2.926V4.2h7.028v.966h-2.926V14Zm12.138,1.33L134.5,3.3h1.176l3.5,12.026ZM8.246,28.43v-.994H13.79v.994Zm7.182,0v-.994h5.544v.994Zm9.856,3.738a2.607,2.607,0,0,1-1.96-.749,3.194,3.194,0,0,1-.728-2.3v-4.06h1.176V28.99q0,2.17,1.778,2.17a1.951,1.951,0,0,0,1.505-.651,2.653,2.653,0,0,0,.6-1.855v-3.6h1.176V32H27.762l-.084-1.246a2.418,2.418,0,0,1-.959,1.036A2.758,2.758,0,0,1,25.284,32.168ZM30.758,32V25.056h1.064l.1,1.33a2.517,2.517,0,0,1,.98-1.092,3.038,3.038,0,0,1,1.624-.406V26.12H34.2a2.906,2.906,0,0,0-1.134.217,1.722,1.722,0,0,0-.826.735,2.8,2.8,0,0,0-.308,1.428V32Zm5.082,0V21.92h1.176V32Zm6.818,0V21.92h1.176v4.326a2.473,2.473,0,0,1,.994-1,2.84,2.84,0,0,1,1.4-.357,2.571,2.571,0,0,1,1.932.749,3.194,3.194,0,0,1,.728,2.3V32H47.726V28.066q0-2.17-1.75-2.17a2.016,2.016,0,0,0-1.526.651,2.6,2.6,0,0,0-.616,1.855V32ZM53.41,32a2.247,2.247,0,0,1-1.5-.462,2.1,2.1,0,0,1-.546-1.666V26.05h-1.2v-.994h1.2l.154-1.666h1.022v1.666h2.044v.994H52.542v3.822a1.155,1.155,0,0,0,.266.889,1.45,1.45,0,0,0,.938.231h.728V32Zm5.418,0a2.247,2.247,0,0,1-1.5-.462,2.1,2.1,0,0,1-.546-1.666V26.05h-1.2v-.994h1.2l.154-1.666H57.96v1.666H60v.994H57.96v3.822a1.155,1.155,0,0,0,.266.889,1.45,1.45,0,0,0,.938.231h.728V32ZM61.5,35.08V25.056h1.064l.112,1.148a3.278,3.278,0,0,1,.959-.91,2.858,2.858,0,0,1,1.589-.406,3.365,3.365,0,0,1,1.806.476,3.257,3.257,0,0,1,1.2,1.3,4.025,4.025,0,0,1,.427,1.876,3.983,3.983,0,0,1-.427,1.869,3.2,3.2,0,0,1-1.2,1.288,3.44,3.44,0,0,1-1.813.469,3.212,3.212,0,0,1-1.519-.35,2.421,2.421,0,0,1-1.015-.98V35.08Zm3.584-3.934A2.246,2.246,0,0,0,67.158,29.9a3.21,3.21,0,0,0,0-2.744,2.325,2.325,0,0,0-4.144,0,3.21,3.21,0,0,0,0,2.744,2.246,2.246,0,0,0,2.072,1.246Zm7.868,1.022a3.318,3.318,0,0,1-2.072-.63,2.456,2.456,0,0,1-.966-1.708h1.2a1.661,1.661,0,0,0,.581.945,1.891,1.891,0,0,0,1.267.4,1.6,1.6,0,0,0,1.092-.315.975.975,0,0,0,.35-.749.831.831,0,0,0-.455-.84,6.056,6.056,0,0,0-1.281-.378,7.221,7.221,0,0,1-1.12-.322,2.544,2.544,0,0,1-.938-.595,1.386,1.386,0,0,1-.378-1.015,1.873,1.873,0,0,1,.679-1.491,2.738,2.738,0,0,1,1.841-.581,2.855,2.855,0,0,1,1.813.553,2.207,2.207,0,0,1,.819,1.575H74.228a1.211,1.211,0,0,0-.455-.833,1.626,1.626,0,0,0-1.029-.3,1.557,1.557,0,0,0-.973.266.843.843,0,0,0-.343.7.727.727,0,0,0,.441.658,4.735,4.735,0,0,0,1.2.406,10.426,10.426,0,0,1,1.225.343,2.315,2.315,0,0,1,.952.6,1.636,1.636,0,0,1,.371,1.155,1.9,1.9,0,0,1-.707,1.547A2.929,2.929,0,0,1,72.954,32.168Zm4.746-.1a.788.788,0,0,1-.581-.231.811.811,0,0,1,0-1.134.788.788,0,0,1,.581-.231.8.8,0,1,1,0,1.6Zm0-5.586a.788.788,0,0,1-.581-.231.811.811,0,0,1,0-1.134.788.788,0,0,1,.581-.231.8.8,0,1,1,0,1.6Zm1.806,6.846L83.02,21.3h1.162L80.668,33.33Zm3.794,0L86.814,21.3h1.162L84.462,33.33ZM92.092,32a2.247,2.247,0,0,1-1.5-.462,2.1,2.1,0,0,1-.546-1.666V26.05h-1.2v-.994h1.2L90.2,23.39h1.022v1.666h2.044v.994H91.224v3.822a1.155,1.155,0,0,0,.266.889,1.45,1.45,0,0,0,.938.231h.728V32Zm5.6.168a3.4,3.4,0,0,1-1.764-.455,3.23,3.23,0,0,1-1.211-1.267,3.96,3.96,0,0,1-.441-1.918,4.023,4.023,0,0,1,.434-1.911,3.156,3.156,0,0,1,1.211-1.274,3.494,3.494,0,0,1,1.8-.455,3.245,3.245,0,0,1,1.743.455,3.083,3.083,0,0,1,1.127,1.2,3.366,3.366,0,0,1,.392,1.6q0,.154-.007.308t-.007.35h-5.53a2.729,2.729,0,0,0,.371,1.323,2.184,2.184,0,0,0,1.883,1.057,2.1,2.1,0,0,0,1.218-.336,1.922,1.922,0,0,0,.714-.91h1.162a3.05,3.05,0,0,1-3.094,2.24Zm0-6.286a2.348,2.348,0,0,0-1.491.511,2.059,2.059,0,0,0-.749,1.491H99.82a1.986,1.986,0,0,0-.644-1.47A2.161,2.161,0,0,0,97.692,25.882Zm7.5,6.286a3.318,3.318,0,0,1-2.072-.63,2.456,2.456,0,0,1-.966-1.708h1.2a1.661,1.661,0,0,0,.581.945,1.891,1.891,0,0,0,1.267.4,1.6,1.6,0,0,0,1.092-.315.975.975,0,0,0,.35-.749.831.831,0,0,0-.455-.84,6.056,6.056,0,0,0-1.281-.378,7.221,7.221,0,0,1-1.12-.322,2.544,2.544,0,0,1-.938-.595,1.386,1.386,0,0,1-.378-1.015,1.873,1.873,0,0,1,.679-1.491A2.738,2.738,0,0,1,105,24.888a2.855,2.855,0,0,1,1.813.553,2.207,2.207,0,0,1,.819,1.575H106.47a1.211,1.211,0,0,0-.455-.833,1.626,1.626,0,0,0-1.029-.3,1.557,1.557,0,0,0-.973.266.843.843,0,0,0-.343.7.727.727,0,0,0,.441.658,4.735,4.735,0,0,0,1.2.406,10.427,10.427,0,0,1,1.225.343,2.315,2.315,0,0,1,.952.6,1.636,1.636,0,0,1,.371,1.155,1.9,1.9,0,0,1-.707,1.547A2.929,2.929,0,0,1,105.2,32.168ZM111.972,32a2.247,2.247,0,0,1-1.5-.462,2.1,2.1,0,0,1-.546-1.666V26.05h-1.2v-.994h1.2l.154-1.666H111.1v1.666h2.044v.994H111.1v3.822a1.155,1.155,0,0,0,.266.889,1.45,1.45,0,0,0,.938.231h.728V32Zm2.674,3.08V25.056h1.064l.112,1.148a3.278,3.278,0,0,1,.959-.91,2.858,2.858,0,0,1,1.589-.406,3.365,3.365,0,0,1,1.806.476,3.257,3.257,0,0,1,1.2,1.3,4.025,4.025,0,0,1,.427,1.876,3.983,3.983,0,0,1-.427,1.869,3.2,3.2,0,0,1-1.2,1.288,3.44,3.44,0,0,1-1.813.469,3.212,3.212,0,0,1-1.519-.35,2.421,2.421,0,0,1-1.015-.98V35.08Zm3.584-3.934A2.246,2.246,0,0,0,120.3,29.9a3.21,3.21,0,0,0,0-2.744,2.325,2.325,0,0,0-4.144,0,3.21,3.21,0,0,0,0,2.744,2.246,2.246,0,0,0,2.072,1.246Zm7.518,1.022a3.147,3.147,0,0,1-1.442-.294,2,2,0,0,1-.854-.784,2.108,2.108,0,0,1-.28-1.064,1.886,1.886,0,0,1,.812-1.638,3.77,3.77,0,0,1,2.212-.574h1.876V27.73a1.853,1.853,0,0,0-.476-1.379,1.736,1.736,0,0,0-1.274-.469,2.031,2.031,0,0,0-1.183.343,1.5,1.5,0,0,0-.623,1h-1.2a2.228,2.228,0,0,1,.511-1.274,2.856,2.856,0,0,1,1.1-.791,3.617,3.617,0,0,1,1.4-.273,2.629,2.629,0,0,1,2.926,2.842V32H128.2l-.07-1.246a2.754,2.754,0,0,1-.861,1A2.526,2.526,0,0,1,125.748,32.168Zm.182-.994a1.915,1.915,0,0,0,1.155-.35,2.234,2.234,0,0,0,.735-.91,2.834,2.834,0,0,0,.252-1.176v-.014h-1.778a2.308,2.308,0,0,0-1.463.357,1.113,1.113,0,0,0-.427.889,1.077,1.077,0,0,0,.4.875A1.726,1.726,0,0,0,125.93,31.174Zm5.628,3.906,1.722-3.752h-.406l-2.758-6.272h1.274l2.3,5.4,2.436-5.4h1.218L132.79,35.08ZM138,32.07a.788.788,0,0,1-.581-.231.811.811,0,0,1,0-1.134.788.788,0,0,1,.581-.231.8.8,0,1,1,0,1.6Zm5.446.1a3.4,3.4,0,0,1-1.764-.455,3.23,3.23,0,0,1-1.211-1.267,3.96,3.96,0,0,1-.441-1.918,4.023,4.023,0,0,1,.434-1.911,3.156,3.156,0,0,1,1.211-1.274,3.494,3.494,0,0,1,1.8-.455,3.245,3.245,0,0,1,1.743.455,3.083,3.083,0,0,1,1.127,1.2,3.366,3.366,0,0,1,.392,1.6q0,.154-.007.308t-.007.35h-5.53a2.729,2.729,0,0,0,.371,1.323,2.184,2.184,0,0,0,1.883,1.057,2.1,2.1,0,0,0,1.218-.336,1.922,1.922,0,0,0,.714-.91h1.162a3.05,3.05,0,0,1-3.094,2.24Zm0-6.286a2.349,2.349,0,0,0-1.491.511,2.059,2.059,0,0,0-.749,1.491h4.368a1.986,1.986,0,0,0-.644-1.47A2.161,2.161,0,0,0,143.444,25.882Zm7.154,6.286a3.147,3.147,0,0,1-1.442-.294,2,2,0,0,1-.854-.784,2.108,2.108,0,0,1-.28-1.064,1.886,1.886,0,0,1,.812-1.638,3.77,3.77,0,0,1,2.212-.574h1.876V27.73a1.853,1.853,0,0,0-.476-1.379,1.736,1.736,0,0,0-1.274-.469,2.031,2.031,0,0,0-1.183.343,1.5,1.5,0,0,0-.623,1h-1.2a2.228,2.228,0,0,1,.511-1.274,2.856,2.856,0,0,1,1.1-.791,3.617,3.617,0,0,1,1.4-.273A2.629,2.629,0,0,1,154.1,27.73V32h-1.05l-.07-1.246a2.754,2.754,0,0,1-.861,1A2.526,2.526,0,0,1,150.6,32.168Zm.182-.994a1.915,1.915,0,0,0,1.155-.35,2.234,2.234,0,0,0,.735-.91,2.834,2.834,0,0,0,.252-1.176v-.014h-1.778a2.308,2.308,0,0,0-1.463.357,1.113,1.113,0,0,0-.427.889,1.077,1.077,0,0,0,.4.875A1.726,1.726,0,0,0,150.78,31.174Zm7.742.994a3.318,3.318,0,0,1-2.072-.63,2.456,2.456,0,0,1-.966-1.708h1.2a1.661,1.661,0,0,0,.581.945,1.891,1.891,0,0,0,1.267.4,1.6,1.6,0,0,0,1.092-.315.975.975,0,0,0,.35-.749.831.831,0,0,0-.455-.84,6.056,6.056,0,0,0-1.281-.378,7.22,7.22,0,0,1-1.12-.322,2.544,2.544,0,0,1-.938-.595,1.386,1.386,0,0,1-.378-1.015,1.873,1.873,0,0,1,.679-1.491,2.738,2.738,0,0,1,1.841-.581,2.855,2.855,0,0,1,1.813.553,2.207,2.207,0,0,1,.819,1.575H159.8a1.211,1.211,0,0,0-.455-.833,1.626,1.626,0,0,0-1.029-.3,1.557,1.557,0,0,0-.973.266.843.843,0,0,0-.343.7.727.727,0,0,0,.441.658,4.734,4.734,0,0,0,1.2.406,10.426,10.426,0,0,1,1.225.343,2.315,2.315,0,0,1,.952.6,1.636,1.636,0,0,1,.371,1.155,1.9,1.9,0,0,1-.707,1.547A2.929,2.929,0,0,1,158.522,32.168Zm7.462,0a3.4,3.4,0,0,1-1.764-.455,3.23,3.23,0,0,1-1.211-1.267,3.96,3.96,0,0,1-.441-1.918A4.023,4.023,0,0,1,163,26.617a3.156,3.156,0,0,1,1.211-1.274,3.494,3.494,0,0,1,1.8-.455,3.245,3.245,0,0,1,1.743.455,3.083,3.083,0,0,1,1.127,1.2,3.366,3.366,0,0,1,.392,1.6q0,.154-.007.308t-.007.35h-5.53a2.729,2.729,0,0,0,.371,1.323,2.184,2.184,0,0,0,1.883,1.057,2.1,2.1,0,0,0,1.218-.336,1.922,1.922,0,0,0,.714-.91h1.162a3.05,3.05,0,0,1-3.094,2.24Zm0-6.286a2.349,2.349,0,0,0-1.491.511,2.059,2.059,0,0,0-.749,1.491h4.368a1.986,1.986,0,0,0-.644-1.47A2.161,2.161,0,0,0,165.984,25.882Zm8.554,6.286a3.212,3.212,0,0,1-1.519-.35,2.421,2.421,0,0,1-1.015-.98L171.892,32h-1.064V21.92H172V26.2a3.278,3.278,0,0,1,.959-.91,2.858,2.858,0,0,1,1.589-.406,3.365,3.365,0,0,1,1.806.476,3.257,3.257,0,0,1,1.2,1.3,4.025,4.025,0,0,1,.427,1.876,3.983,3.983,0,0,1-.427,1.869,3.2,3.2,0,0,1-1.2,1.288A3.44,3.44,0,0,1,174.538,32.168Zm-.126-1.022a2.246,2.246,0,0,0,2.072-1.246,3.21,3.21,0,0,0,0-2.744,2.325,2.325,0,0,0-4.144,0,3.21,3.21,0,0,0,0,2.744,2.246,2.246,0,0,0,2.072,1.246Zm7.742,1.022a2.607,2.607,0,0,1-1.96-.749,3.194,3.194,0,0,1-.728-2.3v-4.06h1.176V28.99q0,2.17,1.778,2.17a1.951,1.951,0,0,0,1.5-.651,2.653,2.653,0,0,0,.6-1.855v-3.6H185.7V32h-1.064l-.084-1.246a2.417,2.417,0,0,1-.959,1.036A2.758,2.758,0,0,1,182.154,32.168Zm5-.168v-.966l3.864-5h-3.794v-.98h5.11v.966l-3.864,5H192.4V32Zm6.328,0v-.966l3.864-5H193.55v-.98h5.11v.966l-3.864,5h3.934V32Zm7.21.07a.788.788,0,0,1-.581-.231.811.811,0,0,1,0-1.134.788.788,0,0,1,.581-.231.8.8,0,1,1,0,1.6Zm3.038-8.554a.79.79,0,0,1-.812-.812.748.748,0,0,1,.231-.56.856.856,0,0,1,1.155,0,.737.737,0,0,1,.238.56.776.776,0,0,1-.238.581A.794.794,0,0,1,203.728,23.516ZM203.14,32V25.056h1.176V32Zm3.22,0V25.056h1.064l.07,1.246a2.522,2.522,0,0,1,.966-1.036,2.721,2.721,0,0,1,1.428-.378,2.631,2.631,0,0,1,1.967.749,3.174,3.174,0,0,1,.735,2.3V32h-1.176V28.066q0-2.17-1.792-2.17a1.935,1.935,0,0,0-1.491.651,2.653,2.653,0,0,0-.6,1.855V32Zm7.434,1.33L217.308,21.3h1.162L214.956,33.33Zm6.048,1.75V25.056h1.064l.112,1.148a3.278,3.278,0,0,1,.959-.91,2.858,2.858,0,0,1,1.589-.406,3.365,3.365,0,0,1,1.806.476,3.257,3.257,0,0,1,1.2,1.3A4.025,4.025,0,0,1,227,28.542a3.983,3.983,0,0,1-.427,1.869,3.2,3.2,0,0,1-1.2,1.288,3.44,3.44,0,0,1-1.813.469,3.212,3.212,0,0,1-1.519-.35,2.421,2.421,0,0,1-1.015-.98V35.08Zm3.584-3.934A2.246,2.246,0,0,0,225.5,29.9a3.21,3.21,0,0,0,0-2.744,2.325,2.325,0,0,0-4.144,0,3.21,3.21,0,0,0,0,2.744,2.246,2.246,0,0,0,2.072,1.246Zm7.518,1.022a3.147,3.147,0,0,1-1.442-.294,2,2,0,0,1-.854-.784,2.108,2.108,0,0,1-.28-1.064,1.886,1.886,0,0,1,.812-1.638,3.77,3.77,0,0,1,2.212-.574h1.876V27.73a1.853,1.853,0,0,0-.476-1.379,1.736,1.736,0,0,0-1.274-.469,2.031,2.031,0,0,0-1.183.343,1.5,1.5,0,0,0-.623,1h-1.2a2.228,2.228,0,0,1,.511-1.274,2.856,2.856,0,0,1,1.1-.791,3.617,3.617,0,0,1,1.4-.273,2.629,2.629,0,0,1,2.926,2.842V32h-1.05l-.07-1.246a2.754,2.754,0,0,1-.861,1A2.526,2.526,0,0,1,230.944,32.168Zm.182-.994a1.915,1.915,0,0,0,1.155-.35,2.234,2.234,0,0,0,.735-.91,2.834,2.834,0,0,0,.252-1.176v-.014H231.49a2.308,2.308,0,0,0-1.463.357,1.113,1.113,0,0,0-.427.889,1.077,1.077,0,0,0,.4.875A1.726,1.726,0,0,0,231.126,31.174Zm5.628,3.906,1.722-3.752h-.406l-2.758-6.272h1.274l2.3,5.4,2.436-5.4h1.218l-4.55,10.024ZM243.782,32V25.056h1.064l.084,1.008a2.352,2.352,0,0,1,.9-.868,2.571,2.571,0,0,1,1.26-.308,2.845,2.845,0,0,1,1.421.336,2.21,2.21,0,0,1,.917,1.022,2.658,2.658,0,0,1,1-.994,2.733,2.733,0,0,1,1.379-.364,2.673,2.673,0,0,1,1.988.749,3.155,3.155,0,0,1,.742,2.3V32h-1.162V28.066a2.573,2.573,0,0,0-.434-1.624,1.5,1.5,0,0,0-1.246-.546,1.751,1.751,0,0,0-1.393.651,2.786,2.786,0,0,0-.553,1.855V32H248.57V28.066a2.573,2.573,0,0,0-.434-1.624,1.5,1.5,0,0,0-1.246-.546,1.737,1.737,0,0,0-1.379.651,2.786,2.786,0,0,0-.553,1.855V32Zm15.652.168a3.4,3.4,0,0,1-1.764-.455,3.23,3.23,0,0,1-1.211-1.267,3.961,3.961,0,0,1-.441-1.918,4.023,4.023,0,0,1,.434-1.911,3.156,3.156,0,0,1,1.211-1.274,3.494,3.494,0,0,1,1.8-.455,3.245,3.245,0,0,1,1.743.455,3.082,3.082,0,0,1,1.127,1.2,3.366,3.366,0,0,1,.392,1.6q0,.154-.007.308t-.007.35h-5.53a2.728,2.728,0,0,0,.371,1.323,2.184,2.184,0,0,0,1.883,1.057,2.1,2.1,0,0,0,1.218-.336,1.922,1.922,0,0,0,.714-.91h1.162a3.05,3.05,0,0,1-3.094,2.24Zm0-6.286a2.348,2.348,0,0,0-1.491.511,2.059,2.059,0,0,0-.749,1.491h4.368a1.986,1.986,0,0,0-.644-1.47A2.161,2.161,0,0,0,259.434,25.882ZM264.278,32V25.056h1.064l.07,1.246a2.522,2.522,0,0,1,.966-1.036,2.721,2.721,0,0,1,1.428-.378,2.631,2.631,0,0,1,1.967.749,3.174,3.174,0,0,1,.735,2.3V32h-1.176V28.066q0-2.17-1.792-2.17a1.935,1.935,0,0,0-1.491.651,2.653,2.653,0,0,0-.6,1.855V32Zm10.752,0a2.247,2.247,0,0,1-1.5-.462,2.1,2.1,0,0,1-.546-1.666V26.05h-1.2v-.994h1.2l.154-1.666h1.022v1.666h2.044v.994h-2.044v3.822a1.155,1.155,0,0,0,.266.889,1.45,1.45,0,0,0,.938.231h.728V32Zm2.1,1.33L280.644,21.3h1.162L278.292,33.33ZM1.68,41.516A.79.79,0,0,1,.868,40.7a.748.748,0,0,1,.231-.56.8.8,0,0,1,.581-.224.808.808,0,0,1,.574.224.737.737,0,0,1,.238.56.776.776,0,0,1-.238.581A.794.794,0,0,1,1.68,41.516ZM1.092,50V43.056H2.268V50Zm3.22,0V43.056H5.376l.07,1.246a2.522,2.522,0,0,1,.966-1.036,2.721,2.721,0,0,1,1.428-.378,2.631,2.631,0,0,1,1.967.749,3.174,3.174,0,0,1,.735,2.3V50H9.366V46.066q0-2.17-1.792-2.17a1.935,1.935,0,0,0-1.491.651,2.653,2.653,0,0,0-.6,1.855V50Zm8.722-8.484a.79.79,0,0,1-.812-.812.748.748,0,0,1,.231-.56.856.856,0,0,1,1.155,0,.737.737,0,0,1,.238.56.776.776,0,0,1-.238.581A.794.794,0,0,1,13.034,41.516ZM12.446,50V43.056h1.176V50Zm5.964,0a2.247,2.247,0,0,1-1.5-.462,2.1,2.1,0,0,1-.546-1.666V44.05h-1.2v-.994h1.2l.154-1.666h1.022v1.666h2.044v.994H17.542v3.822a1.155,1.155,0,0,0,.266.889,1.45,1.45,0,0,0,.938.231h.728V50ZM21.8,41.516a.79.79,0,0,1-.812-.812.748.748,0,0,1,.231-.56.856.856,0,0,1,1.155,0,.737.737,0,0,1,.238.56.776.776,0,0,1-.238.581A.794.794,0,0,1,21.8,41.516ZM21.21,50V43.056h1.176V50Zm5.53.168a3.147,3.147,0,0,1-1.442-.294,2,2,0,0,1-.854-.784,2.108,2.108,0,0,1-.28-1.064,1.886,1.886,0,0,1,.812-1.638,3.77,3.77,0,0,1,2.212-.574h1.876V45.73a1.853,1.853,0,0,0-.476-1.379,1.736,1.736,0,0,0-1.274-.469,2.031,2.031,0,0,0-1.183.343,1.5,1.5,0,0,0-.623,1H24.3a2.228,2.228,0,0,1,.511-1.274,2.856,2.856,0,0,1,1.1-.791,3.617,3.617,0,0,1,1.4-.273A2.629,2.629,0,0,1,30.24,45.73V50H29.19l-.07-1.246a2.754,2.754,0,0,1-.861,1A2.526,2.526,0,0,1,26.74,50.168Zm.182-.994a1.915,1.915,0,0,0,1.155-.35,2.234,2.234,0,0,0,.735-.91,2.834,2.834,0,0,0,.252-1.176v-.014H27.286a2.308,2.308,0,0,0-1.463.357,1.113,1.113,0,0,0-.427.889,1.077,1.077,0,0,0,.4.875A1.726,1.726,0,0,0,26.922,49.174Zm7.63.826a2.247,2.247,0,0,1-1.5-.462,2.1,2.1,0,0,1-.546-1.666V44.05H31.3v-.994h1.2l.154-1.666h1.022v1.666h2.044v.994H33.684v3.822a1.155,1.155,0,0,0,.266.889,1.45,1.45,0,0,0,.938.231h.728V50Zm5.6.168a3.4,3.4,0,0,1-1.764-.455,3.23,3.23,0,0,1-1.211-1.267,3.96,3.96,0,0,1-.441-1.918,4.023,4.023,0,0,1,.434-1.911,3.156,3.156,0,0,1,1.211-1.274,3.494,3.494,0,0,1,1.8-.455,3.245,3.245,0,0,1,1.743.455,3.083,3.083,0,0,1,1.127,1.2,3.366,3.366,0,0,1,.392,1.6q0,.154-.007.308t-.007.35H37.9a2.729,2.729,0,0,0,.371,1.323,2.184,2.184,0,0,0,1.883,1.057,2.1,2.1,0,0,0,1.218-.336,1.922,1.922,0,0,0,.714-.91h1.162a3.05,3.05,0,0,1-3.094,2.24Zm0-6.286a2.348,2.348,0,0,0-1.491.511,2.059,2.059,0,0,0-.749,1.491H42.28a1.986,1.986,0,0,0-.644-1.47A2.16,2.16,0,0,0,40.152,43.882ZM45.066,50V40.2h1.176v8.862h4.564V50Zm7.994-8.484a.79.79,0,0,1-.812-.812.748.748,0,0,1,.231-.56.856.856,0,0,1,1.155,0,.737.737,0,0,1,.238.56.776.776,0,0,1-.238.581A.794.794,0,0,1,53.06,41.516ZM52.472,50V43.056h1.176V50Zm3.22,0V43.056h1.064l.07,1.246a2.522,2.522,0,0,1,.966-1.036,2.721,2.721,0,0,1,1.428-.378,2.631,2.631,0,0,1,1.967.749,3.174,3.174,0,0,1,.735,2.3V50H60.746V46.066q0-2.17-1.792-2.17a1.935,1.935,0,0,0-1.491.651,2.653,2.653,0,0,0-.6,1.855V50ZM63.7,50V39.92h1.176v6.062l2.842-2.926H69.16l-3.08,3.136L69.552,50h-1.5l-3.178-3.6V50Zm13.72,1.33L73.892,39.3h1.176l3.5,12.026ZM8.246,64.43v-.994H13.79v.994Zm7.182,0v-.994h5.544v.994ZM22.75,68V57.92h1.176v4.326a2.473,2.473,0,0,1,.994-1,2.84,2.84,0,0,1,1.4-.357,2.571,2.571,0,0,1,1.932.749,3.194,3.194,0,0,1,.728,2.3V68H27.818V64.066q0-2.17-1.75-2.17a2.016,2.016,0,0,0-1.526.651,2.6,2.6,0,0,0-.616,1.855V68Zm11.13.168a3.4,3.4,0,0,1-1.764-.455A3.23,3.23,0,0,1,30.9,66.446a3.96,3.96,0,0,1-.441-1.918,4.023,4.023,0,0,1,.434-1.911,3.156,3.156,0,0,1,1.211-1.274,3.494,3.494,0,0,1,1.8-.455,3.245,3.245,0,0,1,1.743.455,3.083,3.083,0,0,1,1.127,1.2,3.366,3.366,0,0,1,.392,1.6q0,.154-.007.308t-.007.35h-5.53A2.729,2.729,0,0,0,32,66.117a2.184,2.184,0,0,0,1.883,1.057,2.1,2.1,0,0,0,1.218-.336,1.922,1.922,0,0,0,.714-.91h1.162a3.05,3.05,0,0,1-3.094,2.24Zm0-6.286a2.348,2.348,0,0,0-1.491.511,2.059,2.059,0,0,0-.749,1.491h4.368a1.986,1.986,0,0,0-.644-1.47A2.16,2.16,0,0,0,33.88,61.882Zm7.154,6.286a3.147,3.147,0,0,1-1.442-.294,2,2,0,0,1-.854-.784,2.108,2.108,0,0,1-.28-1.064,1.886,1.886,0,0,1,.812-1.638,3.77,3.77,0,0,1,2.212-.574h1.876V63.73a1.853,1.853,0,0,0-.476-1.379,1.736,1.736,0,0,0-1.274-.469,2.031,2.031,0,0,0-1.183.343,1.5,1.5,0,0,0-.623,1H38.6a2.228,2.228,0,0,1,.511-1.274,2.856,2.856,0,0,1,1.1-.791,3.617,3.617,0,0,1,1.4-.273,2.629,2.629,0,0,1,2.926,2.842V68h-1.05l-.07-1.246a2.754,2.754,0,0,1-.861,1A2.526,2.526,0,0,1,41.034,68.168Zm.182-.994a1.915,1.915,0,0,0,1.155-.35,2.234,2.234,0,0,0,.735-.91,2.834,2.834,0,0,0,.252-1.176v-.014H41.58a2.308,2.308,0,0,0-1.463.357,1.113,1.113,0,0,0-.427.889,1.077,1.077,0,0,0,.4.875A1.726,1.726,0,0,0,41.216,67.174Zm8.232.994a3.4,3.4,0,0,1-1.813-.476,3.241,3.241,0,0,1-1.2-1.3A4.026,4.026,0,0,1,46,64.514a3.931,3.931,0,0,1,.434-1.869,3.269,3.269,0,0,1,1.2-1.288,3.43,3.43,0,0,1,1.82-.469,3.171,3.171,0,0,1,1.512.35,2.522,2.522,0,0,1,1.022.98v-4.3h1.176V68H52.108L52,66.852a3.251,3.251,0,0,1-.966.91A2.866,2.866,0,0,1,49.448,68.168Zm.126-1.022a2.33,2.33,0,0,0,1.239-.329,2.25,2.25,0,0,0,.84-.917,3.277,3.277,0,0,0,0-2.744,2.25,2.25,0,0,0-.84-.917,2.33,2.33,0,0,0-1.239-.329,2.3,2.3,0,0,0-1.225.329,2.25,2.25,0,0,0-.84.917,3.277,3.277,0,0,0,0,2.744,2.25,2.25,0,0,0,.84.917A2.3,2.3,0,0,0,49.574,67.146Zm8.638,1.022a3.4,3.4,0,0,1-1.764-.455,3.23,3.23,0,0,1-1.211-1.267,3.96,3.96,0,0,1-.441-1.918,4.023,4.023,0,0,1,.434-1.911,3.156,3.156,0,0,1,1.211-1.274,3.494,3.494,0,0,1,1.8-.455,3.245,3.245,0,0,1,1.743.455,3.083,3.083,0,0,1,1.127,1.2,3.366,3.366,0,0,1,.392,1.6q0,.154-.007.308t-.007.35h-5.53a2.729,2.729,0,0,0,.371,1.323,2.184,2.184,0,0,0,1.883,1.057,2.1,2.1,0,0,0,1.218-.336,1.922,1.922,0,0,0,.714-.91h1.162a3.05,3.05,0,0,1-3.094,2.24Zm0-6.286a2.348,2.348,0,0,0-1.491.511,2.059,2.059,0,0,0-.749,1.491H60.34a1.986,1.986,0,0,0-.644-1.47A2.16,2.16,0,0,0,58.212,61.882ZM63.056,68V61.056H64.12l.1,1.33a2.517,2.517,0,0,1,.98-1.092,3.038,3.038,0,0,1,1.624-.406V62.12H66.5a2.906,2.906,0,0,0-1.134.217,1.722,1.722,0,0,0-.826.735,2.8,2.8,0,0,0-.308,1.428V68Zm8.526-7.812L71.4,57.43h1.162l-.168,2.758Zm6.832,7.98a4.676,4.676,0,0,1-2.485-.637,4.3,4.3,0,0,1-1.617-1.778,6.386,6.386,0,0,1,0-5.292,4.342,4.342,0,0,1,1.617-1.785,4.636,4.636,0,0,1,2.485-.644,4.394,4.394,0,0,1,2.737.805A3.62,3.62,0,0,1,82.5,61.084H81.2a2.612,2.612,0,0,0-.917-1.463,2.913,2.913,0,0,0-1.869-.553,3.425,3.425,0,0,0-1.834.483,3.173,3.173,0,0,0-1.211,1.386,5.692,5.692,0,0,0,0,4.326,3.173,3.173,0,0,0,1.211,1.386,3.425,3.425,0,0,0,1.834.483,2.966,2.966,0,0,0,1.869-.539,2.541,2.541,0,0,0,.917-1.435h1.3a3.575,3.575,0,0,1-1.351,2.212A4.421,4.421,0,0,1,78.414,68.168Zm8.876,0a3.492,3.492,0,0,1-1.764-.448,3.236,3.236,0,0,1-1.239-1.267,3.9,3.9,0,0,1-.455-1.925,3.854,3.854,0,0,1,.462-1.925,3.27,3.27,0,0,1,1.253-1.267,3.53,3.53,0,0,1,1.771-.448,3.492,3.492,0,0,1,1.764.448A3.236,3.236,0,0,1,90.321,62.6a3.9,3.9,0,0,1,.455,1.925,3.854,3.854,0,0,1-.462,1.925,3.27,3.27,0,0,1-1.253,1.267A3.53,3.53,0,0,1,87.29,68.168Zm0-1.008a2.231,2.231,0,0,0,1.12-.294,2.193,2.193,0,0,0,.84-.882,3,3,0,0,0,.322-1.456,3.054,3.054,0,0,0-.315-1.456,2.148,2.148,0,0,0-.833-.882,2.205,2.205,0,0,0-1.106-.294,2.231,2.231,0,0,0-1.12.294,2.193,2.193,0,0,0-.84.882,3.453,3.453,0,0,0,0,2.912,2.209,2.209,0,0,0,.833.882A2.167,2.167,0,0,0,87.29,67.16Zm5.124.84V61.056h1.064l.07,1.246a2.522,2.522,0,0,1,.966-1.036,2.721,2.721,0,0,1,1.428-.378,2.631,2.631,0,0,1,1.967.749,3.174,3.174,0,0,1,.735,2.3V68H97.468V64.066q0-2.17-1.792-2.17a1.935,1.935,0,0,0-1.491.651,2.653,2.653,0,0,0-.6,1.855V68Zm10.752,0a2.247,2.247,0,0,1-1.5-.462,2.1,2.1,0,0,1-.546-1.666V62.05h-1.2v-.994h1.2l.154-1.666H102.3v1.666h2.044v.994H102.3v3.822a1.155,1.155,0,0,0,.266.889,1.45,1.45,0,0,0,.938.231h.728V68Zm5.6.168A3.4,3.4,0,0,1,107,67.713a3.23,3.23,0,0,1-1.211-1.267,3.96,3.96,0,0,1-.441-1.918,4.023,4.023,0,0,1,.434-1.911A3.156,3.156,0,0,1,107,61.343a3.494,3.494,0,0,1,1.8-.455,3.245,3.245,0,0,1,1.743.455,3.083,3.083,0,0,1,1.127,1.2,3.366,3.366,0,0,1,.392,1.6q0,.154-.007.308t-.007.35h-5.53a2.729,2.729,0,0,0,.371,1.323,2.184,2.184,0,0,0,1.883,1.057,2.1,2.1,0,0,0,1.218-.336,1.922,1.922,0,0,0,.714-.91h1.162a3.05,3.05,0,0,1-3.094,2.24Zm0-6.286a2.348,2.348,0,0,0-1.491.511,2.059,2.059,0,0,0-.749,1.491h4.368a1.986,1.986,0,0,0-.644-1.47A2.16,2.16,0,0,0,108.766,61.882ZM113.61,68V61.056h1.064l.07,1.246a2.522,2.522,0,0,1,.966-1.036,2.721,2.721,0,0,1,1.428-.378,2.631,2.631,0,0,1,1.967.749,3.174,3.174,0,0,1,.735,2.3V68h-1.176V64.066q0-2.17-1.792-2.17a1.935,1.935,0,0,0-1.491.651,2.653,2.653,0,0,0-.6,1.855V68Zm10.752,0a2.247,2.247,0,0,1-1.5-.462,2.1,2.1,0,0,1-.546-1.666V62.05h-1.2v-.994h1.2l.154-1.666h1.022v1.666h2.044v.994h-2.044v3.822a1.155,1.155,0,0,0,.266.889,1.45,1.45,0,0,0,.938.231h.728V68Zm2.534-3.57v-.994h5.544v.994ZM135.884,68V59.166h-2.926V58.2h7.028v.966H137.06V68Zm5.53,3.08,1.722-3.752h-.406l-2.758-6.272h1.274l2.3,5.4,2.436-5.4H147.2l-4.55,10.024Zm7.028,0V61.056h1.064l.112,1.148a3.278,3.278,0,0,1,.959-.91,2.858,2.858,0,0,1,1.589-.406,3.365,3.365,0,0,1,1.806.476,3.257,3.257,0,0,1,1.2,1.3,4.025,4.025,0,0,1,.427,1.876,3.983,3.983,0,0,1-.427,1.869,3.2,3.2,0,0,1-1.2,1.288,3.44,3.44,0,0,1-1.813.469,3.213,3.213,0,0,1-1.519-.35,2.421,2.421,0,0,1-1.015-.98V71.08Zm3.584-3.934A2.246,2.246,0,0,0,154.1,65.9a3.21,3.21,0,0,0,0-2.744,2.325,2.325,0,0,0-4.144,0,3.21,3.21,0,0,0,0,2.744,2.246,2.246,0,0,0,2.072,1.246Zm8.33,1.022a3.4,3.4,0,0,1-1.764-.455,3.23,3.23,0,0,1-1.211-1.267,3.96,3.96,0,0,1-.441-1.918,4.023,4.023,0,0,1,.434-1.911,3.155,3.155,0,0,1,1.211-1.274,3.494,3.494,0,0,1,1.8-.455,3.245,3.245,0,0,1,1.743.455,3.083,3.083,0,0,1,1.127,1.2,3.366,3.366,0,0,1,.392,1.6q0,.154-.007.308t-.007.35H158.1a2.729,2.729,0,0,0,.371,1.323,2.184,2.184,0,0,0,1.883,1.057,2.1,2.1,0,0,0,1.218-.336,1.922,1.922,0,0,0,.714-.91h1.162a3.05,3.05,0,0,1-3.094,2.24Zm0-6.286a2.348,2.348,0,0,0-1.491.511,2.059,2.059,0,0,0-.749,1.491h4.368a1.986,1.986,0,0,0-.644-1.47A2.161,2.161,0,0,0,160.356,61.882Zm5.25,6.188a.788.788,0,0,1-.581-.231.811.811,0,0,1,0-1.134.788.788,0,0,1,.581-.231.8.8,0,1,1,0,1.6Zm0-5.586a.788.788,0,0,1-.581-.231.811.811,0,0,1,0-1.134.788.788,0,0,1,.581-.231.8.8,0,1,1,0,1.6Zm8.4,5.684a3.147,3.147,0,0,1-1.442-.294,2,2,0,0,1-.854-.784,2.108,2.108,0,0,1-.28-1.064,1.886,1.886,0,0,1,.812-1.638,3.77,3.77,0,0,1,2.212-.574h1.876V63.73a1.853,1.853,0,0,0-.476-1.379,1.736,1.736,0,0,0-1.274-.469,2.031,2.031,0,0,0-1.183.343,1.5,1.5,0,0,0-.623,1h-1.2a2.228,2.228,0,0,1,.511-1.274,2.856,2.856,0,0,1,1.1-.791,3.617,3.617,0,0,1,1.4-.273,2.629,2.629,0,0,1,2.926,2.842V68h-1.05l-.07-1.246a2.754,2.754,0,0,1-.861,1A2.526,2.526,0,0,1,174.006,68.168Zm.182-.994a1.915,1.915,0,0,0,1.155-.35,2.234,2.234,0,0,0,.735-.91,2.834,2.834,0,0,0,.252-1.176v-.014h-1.778a2.308,2.308,0,0,0-1.463.357,1.113,1.113,0,0,0-.427.889,1.077,1.077,0,0,0,.4.875A1.726,1.726,0,0,0,174.188,67.174Zm5.082,3.906V61.056h1.064l.112,1.148a3.278,3.278,0,0,1,.959-.91,2.858,2.858,0,0,1,1.589-.406,3.365,3.365,0,0,1,1.806.476,3.257,3.257,0,0,1,1.2,1.3,4.025,4.025,0,0,1,.427,1.876A3.983,3.983,0,0,1,186,66.411a3.2,3.2,0,0,1-1.2,1.288,3.44,3.44,0,0,1-1.813.469,3.213,3.213,0,0,1-1.519-.35,2.421,2.421,0,0,1-1.015-.98V71.08Zm3.584-3.934a2.246,2.246,0,0,0,2.072-1.246,3.21,3.21,0,0,0,0-2.744,2.325,2.325,0,0,0-4.144,0,3.21,3.21,0,0,0,0,2.744,2.246,2.246,0,0,0,2.072,1.246Zm5.208,3.934V61.056h1.064l.112,1.148a3.278,3.278,0,0,1,.959-.91,2.858,2.858,0,0,1,1.589-.406,3.365,3.365,0,0,1,1.806.476,3.257,3.257,0,0,1,1.2,1.3,4.025,4.025,0,0,1,.427,1.876,3.983,3.983,0,0,1-.427,1.869,3.2,3.2,0,0,1-1.2,1.288,3.44,3.44,0,0,1-1.813.469,3.213,3.213,0,0,1-1.519-.35,2.421,2.421,0,0,1-1.015-.98V71.08Zm3.584-3.934a2.246,2.246,0,0,0,2.072-1.246,3.21,3.21,0,0,0,0-2.744,2.325,2.325,0,0,0-4.144,0,3.21,3.21,0,0,0,0,2.744,2.246,2.246,0,0,0,2.072,1.246Zm5.208.854V57.92h1.176V68Zm3.822-8.484a.79.79,0,0,1-.812-.812.748.748,0,0,1,.231-.56.856.856,0,0,1,1.155,0,.737.737,0,0,1,.238.56.776.776,0,0,1-.238.581A.794.794,0,0,1,200.676,59.516ZM200.088,68V61.056h1.176V68Zm6.412.168a3.515,3.515,0,0,1-1.785-.455,3.271,3.271,0,0,1-1.246-1.274,4.241,4.241,0,0,1,0-3.822,3.271,3.271,0,0,1,1.246-1.274,3.515,3.515,0,0,1,1.785-.455,3.335,3.335,0,0,1,2.079.644,2.806,2.806,0,0,1,1.071,1.722h-1.2a1.543,1.543,0,0,0-.686-1,2.275,2.275,0,0,0-1.274-.357,2.175,2.175,0,0,0-1.946,1.176,3.453,3.453,0,0,0,0,2.912,2.243,2.243,0,0,0,.84.889,2.166,2.166,0,0,0,1.106.3,2.275,2.275,0,0,0,1.274-.357,1.549,1.549,0,0,0,.686-1.015h1.2a2.78,2.78,0,0,1-1.064,1.708A3.316,3.316,0,0,1,206.5,68.168Zm7.1,0a3.147,3.147,0,0,1-1.442-.294,2,2,0,0,1-.854-.784,2.108,2.108,0,0,1-.28-1.064,1.886,1.886,0,0,1,.812-1.638,3.77,3.77,0,0,1,2.212-.574h1.876V63.73a1.853,1.853,0,0,0-.476-1.379,1.736,1.736,0,0,0-1.274-.469,2.031,2.031,0,0,0-1.183.343,1.5,1.5,0,0,0-.623,1h-1.2a2.228,2.228,0,0,1,.511-1.274,2.856,2.856,0,0,1,1.1-.791,3.617,3.617,0,0,1,1.4-.273A2.629,2.629,0,0,1,217.1,63.73V68h-1.05l-.07-1.246a2.754,2.754,0,0,1-.861,1A2.526,2.526,0,0,1,213.6,68.168Zm.182-.994a1.915,1.915,0,0,0,1.155-.35,2.234,2.234,0,0,0,.735-.91,2.834,2.834,0,0,0,.252-1.176v-.014h-1.778a2.308,2.308,0,0,0-1.463.357,1.113,1.113,0,0,0-.427.889,1.077,1.077,0,0,0,.4.875A1.726,1.726,0,0,0,213.78,67.174Zm7.63.826a2.247,2.247,0,0,1-1.5-.462,2.1,2.1,0,0,1-.546-1.666V62.05h-1.2v-.994h1.2l.154-1.666h1.022v1.666h2.044v.994h-2.044v3.822a1.155,1.155,0,0,0,.266.889,1.45,1.45,0,0,0,.938.231h.728V68Zm3.388-8.484a.79.79,0,0,1-.812-.812.748.748,0,0,1,.231-.56.856.856,0,0,1,1.155,0,.737.737,0,0,1,.238.56.776.776,0,0,1-.238.581A.794.794,0,0,1,224.8,59.516ZM224.21,68V61.056h1.176V68Zm6.384.168a3.492,3.492,0,0,1-1.764-.448,3.236,3.236,0,0,1-1.239-1.267,3.9,3.9,0,0,1-.455-1.925A3.854,3.854,0,0,1,227.6,62.6a3.27,3.27,0,0,1,1.253-1.267,3.53,3.53,0,0,1,1.771-.448,3.492,3.492,0,0,1,1.764.448,3.236,3.236,0,0,1,1.239,1.267,3.9,3.9,0,0,1,.455,1.925,3.854,3.854,0,0,1-.462,1.925,3.27,3.27,0,0,1-1.253,1.267A3.53,3.53,0,0,1,230.594,68.168Zm0-1.008a2.231,2.231,0,0,0,1.12-.294,2.193,2.193,0,0,0,.84-.882,3,3,0,0,0,.322-1.456,3.054,3.054,0,0,0-.315-1.456,2.148,2.148,0,0,0-.833-.882,2.205,2.205,0,0,0-1.106-.294,2.231,2.231,0,0,0-1.12.294,2.193,2.193,0,0,0-.84.882,3.453,3.453,0,0,0,0,2.912,2.209,2.209,0,0,0,.833.882A2.167,2.167,0,0,0,230.594,67.16Zm5.124.84V61.056h1.064l.07,1.246a2.522,2.522,0,0,1,.966-1.036,2.721,2.721,0,0,1,1.428-.378,2.631,2.631,0,0,1,1.967.749,3.174,3.174,0,0,1,.735,2.3V68h-1.176V64.066q0-2.17-1.792-2.17a1.935,1.935,0,0,0-1.491.651,2.653,2.653,0,0,0-.6,1.855V68Zm7.434,1.33L246.666,57.3h1.162L244.314,69.33ZM248.5,68l2.408-3.472L248.5,61.056h1.274l1.946,2.87,1.96-2.87h1.26l-2.408,3.472L254.94,68h-1.26l-1.96-2.87L249.774,68Zm7.532-3.57v-.994h5.544v.994ZM2.366,86,.336,79.056H1.512L2.982,84.5l1.624-5.446h1.33L7.574,84.5,9.03,79.056h1.19L8.19,86h-1.2L5.278,80.274,3.57,86Zm10.556,0-2.03-6.944h1.176l1.47,5.446,1.624-5.446h1.33L18.13,84.5l1.456-5.446h1.19L18.746,86h-1.2l-1.708-5.726L14.126,86Zm10.556,0-2.03-6.944h1.176l1.47,5.446,1.624-5.446h1.33L28.686,84.5l1.456-5.446h1.19L29.3,86H28.1L26.39,80.274,24.682,86Zm9.016-3.57v-.994h5.544v.994Zm7.7,3.57V80.05h-1.05v-.994h1.05v-1.2a1.907,1.907,0,0,1,.5-1.47,2.1,2.1,0,0,1,1.47-.462h.7v1.008H42.35a1.068,1.068,0,0,0-.756.217,1,1,0,0,0-.224.735v1.176h1.708v.994H41.37V86Zm7.168.168A3.492,3.492,0,0,1,45.6,85.72a3.236,3.236,0,0,1-1.239-1.267,3.9,3.9,0,0,1-.455-1.925,3.854,3.854,0,0,1,.462-1.925,3.27,3.27,0,0,1,1.253-1.267,3.53,3.53,0,0,1,1.771-.448,3.492,3.492,0,0,1,1.764.448A3.236,3.236,0,0,1,50.393,80.6a3.9,3.9,0,0,1,.455,1.925,3.854,3.854,0,0,1-.462,1.925,3.27,3.27,0,0,1-1.253,1.267A3.53,3.53,0,0,1,47.362,86.168Zm0-1.008a2.231,2.231,0,0,0,1.12-.294,2.193,2.193,0,0,0,.84-.882,3,3,0,0,0,.322-1.456,3.054,3.054,0,0,0-.315-1.456,2.148,2.148,0,0,0-.833-.882A2.205,2.205,0,0,0,47.39,79.9a2.231,2.231,0,0,0-1.12.294,2.193,2.193,0,0,0-.84.882,3.453,3.453,0,0,0,0,2.912,2.209,2.209,0,0,0,.833.882A2.167,2.167,0,0,0,47.362,85.16Zm5.124.84V79.056H53.55l.1,1.33a2.517,2.517,0,0,1,.98-1.092,3.038,3.038,0,0,1,1.624-.406V80.12H55.93a2.906,2.906,0,0,0-1.134.217,1.722,1.722,0,0,0-.826.735,2.8,2.8,0,0,0-.308,1.428V86Zm5.082,0V79.056h1.064l.084,1.008a2.352,2.352,0,0,1,.9-.868,2.571,2.571,0,0,1,1.26-.308,2.845,2.845,0,0,1,1.421.336,2.21,2.21,0,0,1,.917,1.022,2.658,2.658,0,0,1,1-.994,2.733,2.733,0,0,1,1.379-.364,2.673,2.673,0,0,1,1.988.749,3.155,3.155,0,0,1,.742,2.3V86H67.158V82.066a2.573,2.573,0,0,0-.434-1.624,1.5,1.5,0,0,0-1.246-.546,1.751,1.751,0,0,0-1.393.651,2.786,2.786,0,0,0-.553,1.855V86H62.356V82.066a2.573,2.573,0,0,0-.434-1.624,1.5,1.5,0,0,0-1.246-.546,1.737,1.737,0,0,0-1.379.651,2.786,2.786,0,0,0-.553,1.855V86Zm12.39-3.57v-.994H75.5v.994Zm9.856,3.738a2.607,2.607,0,0,1-1.96-.749,3.194,3.194,0,0,1-.728-2.3v-4.06H78.3V82.99q0,2.17,1.778,2.17a1.951,1.951,0,0,0,1.505-.651,2.653,2.653,0,0,0,.595-1.855v-3.6h1.176V86H82.292l-.084-1.246a2.418,2.418,0,0,1-.959,1.036A2.758,2.758,0,0,1,79.814,86.168ZM85.288,86V79.056h1.064l.1,1.33a2.517,2.517,0,0,1,.98-1.092,3.038,3.038,0,0,1,1.624-.406V80.12h-.322a2.906,2.906,0,0,0-1.134.217,1.722,1.722,0,0,0-.826.735,2.8,2.8,0,0,0-.308,1.428V86Zm5.082,0V75.92h1.176V86Zm6.23.168a3.4,3.4,0,0,1-1.764-.455,3.23,3.23,0,0,1-1.211-1.267,3.96,3.96,0,0,1-.441-1.918,4.023,4.023,0,0,1,.434-1.911,3.156,3.156,0,0,1,1.211-1.274,3.494,3.494,0,0,1,1.8-.455,3.245,3.245,0,0,1,1.743.455,3.083,3.083,0,0,1,1.127,1.2,3.366,3.366,0,0,1,.392,1.6q0,.154-.007.308t-.007.35h-5.53a2.729,2.729,0,0,0,.371,1.323A2.184,2.184,0,0,0,96.6,85.174a2.1,2.1,0,0,0,1.218-.336,1.922,1.922,0,0,0,.714-.91h1.162a3.05,3.05,0,0,1-3.094,2.24Zm0-6.286a2.349,2.349,0,0,0-1.491.511,2.059,2.059,0,0,0-.749,1.491h4.368a1.986,1.986,0,0,0-.644-1.47A2.16,2.16,0,0,0,96.6,79.882ZM101.444,86V79.056h1.064l.07,1.246a2.522,2.522,0,0,1,.966-1.036,2.721,2.721,0,0,1,1.428-.378,2.631,2.631,0,0,1,1.967.749,3.174,3.174,0,0,1,.735,2.3V86H106.5V82.066q0-2.17-1.792-2.17a1.935,1.935,0,0,0-1.491.651,2.653,2.653,0,0,0-.6,1.855V86Zm11.2.168a3.515,3.515,0,0,1-1.785-.455,3.271,3.271,0,0,1-1.246-1.274,4.241,4.241,0,0,1,0-3.822,3.271,3.271,0,0,1,1.246-1.274,3.515,3.515,0,0,1,1.785-.455,3.335,3.335,0,0,1,2.079.644,2.806,2.806,0,0,1,1.071,1.722h-1.2a1.543,1.543,0,0,0-.686-1,2.275,2.275,0,0,0-1.274-.357,2.175,2.175,0,0,0-1.946,1.176,3.453,3.453,0,0,0,0,2.912,2.243,2.243,0,0,0,.84.889,2.166,2.166,0,0,0,1.106.3,2.275,2.275,0,0,0,1.274-.357,1.549,1.549,0,0,0,.686-1.015h1.2a2.78,2.78,0,0,1-1.064,1.708A3.316,3.316,0,0,1,112.644,86.168Zm7.952,0a3.492,3.492,0,0,1-1.764-.448,3.236,3.236,0,0,1-1.239-1.267,3.9,3.9,0,0,1-.455-1.925A3.854,3.854,0,0,1,117.6,80.6a3.27,3.27,0,0,1,1.253-1.267,3.53,3.53,0,0,1,1.771-.448,3.492,3.492,0,0,1,1.764.448,3.236,3.236,0,0,1,1.239,1.267,3.9,3.9,0,0,1,.455,1.925,3.854,3.854,0,0,1-.462,1.925,3.27,3.27,0,0,1-1.253,1.267A3.53,3.53,0,0,1,120.6,86.168Zm0-1.008a2.231,2.231,0,0,0,1.12-.294,2.193,2.193,0,0,0,.84-.882,3,3,0,0,0,.322-1.456,3.054,3.054,0,0,0-.315-1.456,2.148,2.148,0,0,0-.833-.882,2.205,2.205,0,0,0-1.106-.294,2.231,2.231,0,0,0-1.12.294,2.193,2.193,0,0,0-.84.882,3.453,3.453,0,0,0,0,2.912,2.209,2.209,0,0,0,.833.882A2.167,2.167,0,0,0,120.6,85.16Zm8.274,1.008a3.4,3.4,0,0,1-1.813-.476,3.241,3.241,0,0,1-1.2-1.3,4.025,4.025,0,0,1-.427-1.876,3.93,3.93,0,0,1,.434-1.869,3.269,3.269,0,0,1,1.2-1.288,3.43,3.43,0,0,1,1.82-.469,3.171,3.171,0,0,1,1.512.35,2.522,2.522,0,0,1,1.022.98v-4.3h1.176V86H131.53l-.112-1.148a3.251,3.251,0,0,1-.966.91A2.866,2.866,0,0,1,128.87,86.168ZM129,85.146a2.33,2.33,0,0,0,1.239-.329,2.25,2.25,0,0,0,.84-.917,3.277,3.277,0,0,0,0-2.744,2.25,2.25,0,0,0-.84-.917A2.33,2.33,0,0,0,129,79.91a2.3,2.3,0,0,0-1.225.329,2.25,2.25,0,0,0-.84.917,3.277,3.277,0,0,0,0,2.744,2.25,2.25,0,0,0,.84.917A2.3,2.3,0,0,0,129,85.146Zm8.638,1.022a3.4,3.4,0,0,1-1.764-.455,3.23,3.23,0,0,1-1.211-1.267,3.96,3.96,0,0,1-.441-1.918,4.023,4.023,0,0,1,.434-1.911,3.156,3.156,0,0,1,1.211-1.274,3.494,3.494,0,0,1,1.8-.455,3.245,3.245,0,0,1,1.743.455,3.083,3.083,0,0,1,1.127,1.2,3.366,3.366,0,0,1,.392,1.6q0,.154-.007.308t-.007.35h-5.53a2.729,2.729,0,0,0,.371,1.323,2.184,2.184,0,0,0,1.883,1.057,2.1,2.1,0,0,0,1.218-.336,1.922,1.922,0,0,0,.714-.91h1.162a3.05,3.05,0,0,1-3.094,2.24Zm0-6.286a2.349,2.349,0,0,0-1.491.511,2.059,2.059,0,0,0-.749,1.491h4.368a1.986,1.986,0,0,0-.644-1.47A2.161,2.161,0,0,0,137.634,79.882Zm7.994,6.286a3.4,3.4,0,0,1-1.813-.476,3.241,3.241,0,0,1-1.2-1.3,4.025,4.025,0,0,1-.427-1.876,3.93,3.93,0,0,1,.434-1.869,3.268,3.268,0,0,1,1.2-1.288,3.43,3.43,0,0,1,1.82-.469,3.171,3.171,0,0,1,1.512.35,2.522,2.522,0,0,1,1.022.98v-4.3h1.176V86h-1.064l-.112-1.148a3.251,3.251,0,0,1-.966.91A2.866,2.866,0,0,1,145.628,86.168Zm.126-1.022a2.33,2.33,0,0,0,1.239-.329,2.25,2.25,0,0,0,.84-.917,3.277,3.277,0,0,0,0-2.744,2.25,2.25,0,0,0-.84-.917,2.33,2.33,0,0,0-1.239-.329,2.3,2.3,0,0,0-1.225.329,2.25,2.25,0,0,0-.84.917,3.277,3.277,0,0,0,0,2.744,2.25,2.25,0,0,0,.84.917A2.3,2.3,0,0,0,145.754,85.146ZM151,78.188l-.182-2.758h1.162l-.168,2.758Zm9.128,9.142L156.6,75.3h1.176l3.5,12.026ZM8.246,100.43v-.994H13.79v.994Zm7.182,0v-.994h5.544v.994ZM25.9,104.168a3.4,3.4,0,0,1-1.813-.476,3.241,3.241,0,0,1-1.2-1.3,4.026,4.026,0,0,1-.427-1.876,3.931,3.931,0,0,1,.434-1.869,3.269,3.269,0,0,1,1.2-1.288,3.43,3.43,0,0,1,1.82-.469,3.171,3.171,0,0,1,1.512.35,2.522,2.522,0,0,1,1.022.98v-4.3h1.176V104H28.56l-.112-1.148a3.251,3.251,0,0,1-.966.91A2.866,2.866,0,0,1,25.9,104.168Zm.126-1.022a2.33,2.33,0,0,0,1.239-.329,2.25,2.25,0,0,0,.84-.917,3.277,3.277,0,0,0,0-2.744,2.25,2.25,0,0,0-.84-.917,2.33,2.33,0,0,0-1.239-.329,2.3,2.3,0,0,0-1.225.329,2.25,2.25,0,0,0-.84.917,3.277,3.277,0,0,0,0,2.744,2.25,2.25,0,0,0,.84.917A2.3,2.3,0,0,0,26.026,103.146Zm7.826,1.022a3.147,3.147,0,0,1-1.442-.294,2,2,0,0,1-.854-.784,2.108,2.108,0,0,1-.28-1.064,1.886,1.886,0,0,1,.812-1.638,3.77,3.77,0,0,1,2.212-.574h1.876V99.73a1.853,1.853,0,0,0-.476-1.379,1.736,1.736,0,0,0-1.274-.469,2.031,2.031,0,0,0-1.183.343,1.5,1.5,0,0,0-.623,1h-1.2a2.228,2.228,0,0,1,.511-1.274,2.856,2.856,0,0,1,1.1-.791,3.617,3.617,0,0,1,1.4-.273,2.629,2.629,0,0,1,2.926,2.842V104H36.3l-.07-1.246a2.754,2.754,0,0,1-.861,1A2.526,2.526,0,0,1,33.852,104.168Zm.182-.994a1.915,1.915,0,0,0,1.155-.35,2.234,2.234,0,0,0,.735-.91,2.834,2.834,0,0,0,.252-1.176v-.014H34.4a2.308,2.308,0,0,0-1.463.357,1.113,1.113,0,0,0-.427.889,1.077,1.077,0,0,0,.4.875A1.726,1.726,0,0,0,34.034,103.174Zm7.63.826a2.247,2.247,0,0,1-1.5-.462,2.1,2.1,0,0,1-.546-1.666V98.05h-1.2v-.994h1.2l.154-1.666H40.8v1.666H42.84v.994H40.8v3.822a1.155,1.155,0,0,0,.266.889,1.45,1.45,0,0,0,.938.231h.728V104Zm4.984.168a3.147,3.147,0,0,1-1.442-.294,2,2,0,0,1-.854-.784,2.108,2.108,0,0,1-.28-1.064,1.886,1.886,0,0,1,.812-1.638,3.77,3.77,0,0,1,2.212-.574h1.876V99.73a1.853,1.853,0,0,0-.476-1.379,1.736,1.736,0,0,0-1.274-.469,2.031,2.031,0,0,0-1.183.343,1.5,1.5,0,0,0-.623,1h-1.2a2.228,2.228,0,0,1,.511-1.274,2.856,2.856,0,0,1,1.1-.791,3.617,3.617,0,0,1,1.4-.273,2.629,2.629,0,0,1,2.926,2.842V104H49.1l-.07-1.246a2.754,2.754,0,0,1-.861,1A2.526,2.526,0,0,1,46.648,104.168Zm.182-.994a1.915,1.915,0,0,0,1.155-.35,2.234,2.234,0,0,0,.735-.91,2.834,2.834,0,0,0,.252-1.176v-.014H47.194a2.308,2.308,0,0,0-1.463.357,1.113,1.113,0,0,0-.427.889,1.077,1.077,0,0,0,.4.875A1.726,1.726,0,0,0,46.83,103.174Zm8.792.826V93.92H56.8v6.062l2.842-2.926h1.442L58,100.192,61.474,104h-1.5L56.8,100.4V104Zm9.674.168a3.4,3.4,0,0,1-1.764-.455,3.23,3.23,0,0,1-1.211-1.267,3.96,3.96,0,0,1-.441-1.918,4.023,4.023,0,0,1,.434-1.911,3.156,3.156,0,0,1,1.211-1.274,3.494,3.494,0,0,1,1.8-.455,3.245,3.245,0,0,1,1.743.455,3.083,3.083,0,0,1,1.127,1.2,3.366,3.366,0,0,1,.392,1.6q0,.154-.007.308t-.007.35h-5.53a2.729,2.729,0,0,0,.371,1.323,2.184,2.184,0,0,0,1.883,1.057,2.1,2.1,0,0,0,1.218-.336,1.922,1.922,0,0,0,.714-.91H68.39a3.05,3.05,0,0,1-3.094,2.24Zm0-6.286a2.349,2.349,0,0,0-1.491.511,2.059,2.059,0,0,0-.749,1.491h4.368a1.986,1.986,0,0,0-.644-1.47A2.16,2.16,0,0,0,65.3,97.882Zm5.32,9.2,1.722-3.752h-.406l-2.758-6.272h1.274l2.3,5.4,2.436-5.4H76.4l-4.55,10.024Zm6.944-8.106V97.966h5.586v1.008Zm0,2.912v-1.008h5.586v1.008Zm14.1,3.444L88.13,93.3h1.176l3.5,12.026ZM8.246,118.43v-.994H13.79v.994Zm7.182,0v-.994h5.544v.994ZM25.9,122.168a3.4,3.4,0,0,1-1.813-.476,3.241,3.241,0,0,1-1.2-1.3,4.026,4.026,0,0,1-.427-1.876,3.931,3.931,0,0,1,.434-1.869,3.269,3.269,0,0,1,1.2-1.288,3.43,3.43,0,0,1,1.82-.469,3.171,3.171,0,0,1,1.512.35,2.522,2.522,0,0,1,1.022.98v-4.3h1.176V122H28.56l-.112-1.148a3.251,3.251,0,0,1-.966.91A2.866,2.866,0,0,1,25.9,122.168Zm.126-1.022a2.33,2.33,0,0,0,1.239-.329,2.25,2.25,0,0,0,.84-.917,3.277,3.277,0,0,0,0-2.744,2.25,2.25,0,0,0-.84-.917,2.33,2.33,0,0,0-1.239-.329,2.3,2.3,0,0,0-1.225.329,2.25,2.25,0,0,0-.84.917,3.277,3.277,0,0,0,0,2.744,2.25,2.25,0,0,0,.84.917A2.3,2.3,0,0,0,26.026,121.146Zm7.826,1.022a3.147,3.147,0,0,1-1.442-.294,2,2,0,0,1-.854-.784,2.108,2.108,0,0,1-.28-1.064,1.886,1.886,0,0,1,.812-1.638,3.77,3.77,0,0,1,2.212-.574h1.876v-.084a1.853,1.853,0,0,0-.476-1.379,1.736,1.736,0,0,0-1.274-.469,2.031,2.031,0,0,0-1.183.343,1.5,1.5,0,0,0-.623,1h-1.2a2.228,2.228,0,0,1,.511-1.274,2.856,2.856,0,0,1,1.1-.791,3.617,3.617,0,0,1,1.4-.273,2.629,2.629,0,0,1,2.926,2.842V122H36.3l-.07-1.246a2.754,2.754,0,0,1-.861,1A2.526,2.526,0,0,1,33.852,122.168Zm.182-.994a1.915,1.915,0,0,0,1.155-.35,2.234,2.234,0,0,0,.735-.91,2.834,2.834,0,0,0,.252-1.176v-.014H34.4a2.308,2.308,0,0,0-1.463.357,1.113,1.113,0,0,0-.427.889,1.077,1.077,0,0,0,.4.875A1.726,1.726,0,0,0,34.034,121.174Zm7.63.826a2.247,2.247,0,0,1-1.5-.462,2.1,2.1,0,0,1-.546-1.666V116.05h-1.2v-.994h1.2l.154-1.666H40.8v1.666H42.84v.994H40.8v3.822a1.155,1.155,0,0,0,.266.889,1.45,1.45,0,0,0,.938.231h.728V122Zm4.984.168a3.147,3.147,0,0,1-1.442-.294,2,2,0,0,1-.854-.784,2.108,2.108,0,0,1-.28-1.064,1.886,1.886,0,0,1,.812-1.638,3.77,3.77,0,0,1,2.212-.574h1.876v-.084a1.853,1.853,0,0,0-.476-1.379,1.736,1.736,0,0,0-1.274-.469,2.031,2.031,0,0,0-1.183.343,1.5,1.5,0,0,0-.623,1h-1.2a2.228,2.228,0,0,1,.511-1.274,2.856,2.856,0,0,1,1.1-.791,3.617,3.617,0,0,1,1.4-.273,2.629,2.629,0,0,1,2.926,2.842V122H49.1l-.07-1.246a2.754,2.754,0,0,1-.861,1A2.526,2.526,0,0,1,46.648,122.168Zm.182-.994a1.915,1.915,0,0,0,1.155-.35,2.234,2.234,0,0,0,.735-.91,2.834,2.834,0,0,0,.252-1.176v-.014H47.194a2.308,2.308,0,0,0-1.463.357,1.113,1.113,0,0,0-.427.889,1.077,1.077,0,0,0,.4.875A1.726,1.726,0,0,0,46.83,121.174ZM58.366,122a2.247,2.247,0,0,1-1.5-.462,2.1,2.1,0,0,1-.546-1.666V116.05h-1.2v-.994h1.2l.154-1.666H57.5v1.666h2.044v.994H57.5v3.822a1.155,1.155,0,0,0,.266.889,1.45,1.45,0,0,0,.938.231h.728V122Zm1.974,0,2.408-3.472-2.408-3.472h1.274l1.946,2.87,1.96-2.87h1.26l-2.408,3.472L66.78,122H65.52l-1.96-2.87L61.614,122Zm7.672,0v-6.944h1.064l.07,1.246a2.522,2.522,0,0,1,.966-1.036,2.721,2.721,0,0,1,1.428-.378,2.631,2.631,0,0,1,1.967.749,3.174,3.174,0,0,1,.735,2.3V122H73.066v-3.934q0-2.17-1.792-2.17a1.935,1.935,0,0,0-1.491.651,2.653,2.653,0,0,0-.6,1.855V122Zm8.722-8.484a.79.79,0,0,1-.812-.812.748.748,0,0,1,.231-.56.856.856,0,0,1,1.155,0,.737.737,0,0,1,.238.56.776.776,0,0,1-.238.581A.794.794,0,0,1,76.734,113.516ZM76.146,122v-6.944h1.176V122Zm6.37.168a3.4,3.4,0,0,1-1.813-.476,3.241,3.241,0,0,1-1.2-1.3,4.025,4.025,0,0,1-.427-1.876,3.93,3.93,0,0,1,.434-1.869,3.269,3.269,0,0,1,1.2-1.288,3.43,3.43,0,0,1,1.82-.469,3.171,3.171,0,0,1,1.512.35,2.522,2.522,0,0,1,1.022.98v-4.3H86.24V122H85.176l-.112-1.148a3.251,3.251,0,0,1-.966.91A2.866,2.866,0,0,1,82.516,122.168Zm.126-1.022a2.33,2.33,0,0,0,1.239-.329,2.25,2.25,0,0,0,.84-.917,3.277,3.277,0,0,0,0-2.744,2.25,2.25,0,0,0-.84-.917,2.33,2.33,0,0,0-1.239-.329,2.3,2.3,0,0,0-1.225.329,2.25,2.25,0,0,0-.84.917,3.277,3.277,0,0,0,0,2.744,2.25,2.25,0,0,0,.84.917A2.3,2.3,0,0,0,82.642,121.146Zm5.432-4.172v-1.008H93.66v1.008Zm0,2.912v-1.008H93.66v1.008Zm14.1,3.444L98.644,111.3H99.82l3.5,12.026ZM8.246,136.43v-.994H13.79v.994Zm7.182,0v-.994h5.544v.994ZM25.9,140.168a3.4,3.4,0,0,1-1.813-.476,3.241,3.241,0,0,1-1.2-1.3,4.026,4.026,0,0,1-.427-1.876,3.931,3.931,0,0,1,.434-1.869,3.269,3.269,0,0,1,1.2-1.288,3.43,3.43,0,0,1,1.82-.469,3.171,3.171,0,0,1,1.512.35,2.522,2.522,0,0,1,1.022.98v-4.3h1.176V140H28.56l-.112-1.148a3.251,3.251,0,0,1-.966.91A2.866,2.866,0,0,1,25.9,140.168Zm.126-1.022a2.33,2.33,0,0,0,1.239-.329,2.25,2.25,0,0,0,.84-.917,3.277,3.277,0,0,0,0-2.744,2.25,2.25,0,0,0-.84-.917,2.33,2.33,0,0,0-1.239-.329,2.3,2.3,0,0,0-1.225.329,2.25,2.25,0,0,0-.84.917,3.277,3.277,0,0,0,0,2.744,2.25,2.25,0,0,0,.84.917A2.3,2.3,0,0,0,26.026,139.146Zm7.826,1.022a3.147,3.147,0,0,1-1.442-.294,2,2,0,0,1-.854-.784,2.108,2.108,0,0,1-.28-1.064,1.886,1.886,0,0,1,.812-1.638,3.77,3.77,0,0,1,2.212-.574h1.876v-.084a1.853,1.853,0,0,0-.476-1.379,1.736,1.736,0,0,0-1.274-.469,2.031,2.031,0,0,0-1.183.343,1.5,1.5,0,0,0-.623,1h-1.2a2.228,2.228,0,0,1,.511-1.274,2.856,2.856,0,0,1,1.1-.791,3.617,3.617,0,0,1,1.4-.273,2.629,2.629,0,0,1,2.926,2.842V140H36.3l-.07-1.246a2.754,2.754,0,0,1-.861,1A2.526,2.526,0,0,1,33.852,140.168Zm.182-.994a1.915,1.915,0,0,0,1.155-.35,2.234,2.234,0,0,0,.735-.91,2.834,2.834,0,0,0,.252-1.176v-.014H34.4a2.308,2.308,0,0,0-1.463.357,1.113,1.113,0,0,0-.427.889,1.077,1.077,0,0,0,.4.875A1.726,1.726,0,0,0,34.034,139.174Zm7.63.826a2.247,2.247,0,0,1-1.5-.462,2.1,2.1,0,0,1-.546-1.666V134.05h-1.2v-.994h1.2l.154-1.666H40.8v1.666H42.84v.994H40.8v3.822a1.155,1.155,0,0,0,.266.889,1.45,1.45,0,0,0,.938.231h.728V140Zm4.984.168a3.147,3.147,0,0,1-1.442-.294,2,2,0,0,1-.854-.784,2.108,2.108,0,0,1-.28-1.064,1.886,1.886,0,0,1,.812-1.638,3.77,3.77,0,0,1,2.212-.574h1.876v-.084a1.853,1.853,0,0,0-.476-1.379,1.736,1.736,0,0,0-1.274-.469,2.031,2.031,0,0,0-1.183.343,1.5,1.5,0,0,0-.623,1h-1.2a2.228,2.228,0,0,1,.511-1.274,2.856,2.856,0,0,1,1.1-.791,3.617,3.617,0,0,1,1.4-.273,2.629,2.629,0,0,1,2.926,2.842V140H49.1l-.07-1.246a2.754,2.754,0,0,1-.861,1A2.526,2.526,0,0,1,46.648,140.168Zm.182-.994a1.915,1.915,0,0,0,1.155-.35,2.234,2.234,0,0,0,.735-.91,2.834,2.834,0,0,0,.252-1.176v-.014H47.194a2.308,2.308,0,0,0-1.463.357,1.113,1.113,0,0,0-.427.889,1.077,1.077,0,0,0,.4.875A1.726,1.726,0,0,0,46.83,139.174Zm11.1.994a3.147,3.147,0,0,1-1.442-.294,2,2,0,0,1-.854-.784,2.108,2.108,0,0,1-.28-1.064,1.886,1.886,0,0,1,.812-1.638,3.77,3.77,0,0,1,2.212-.574h1.876v-.084a1.853,1.853,0,0,0-.476-1.379,1.736,1.736,0,0,0-1.274-.469,2.031,2.031,0,0,0-1.183.343,1.5,1.5,0,0,0-.623,1H55.5a2.228,2.228,0,0,1,.511-1.274,2.856,2.856,0,0,1,1.1-.791,3.617,3.617,0,0,1,1.4-.273,2.629,2.629,0,0,1,2.926,2.842V140h-1.05l-.07-1.246a2.754,2.754,0,0,1-.861,1A2.526,2.526,0,0,1,57.932,140.168Zm.182-.994a1.915,1.915,0,0,0,1.155-.35,2.234,2.234,0,0,0,.735-.91,2.834,2.834,0,0,0,.252-1.176v-.014H58.478a2.308,2.308,0,0,0-1.463.357,1.113,1.113,0,0,0-.427.889,1.077,1.077,0,0,0,.4.875A1.726,1.726,0,0,0,58.114,139.174ZM63.2,140v-6.944H64.26l.084,1.008a2.352,2.352,0,0,1,.9-.868,2.571,2.571,0,0,1,1.26-.308,2.845,2.845,0,0,1,1.421.336,2.21,2.21,0,0,1,.917,1.022,2.658,2.658,0,0,1,1-.994,2.733,2.733,0,0,1,1.379-.364,2.673,2.673,0,0,1,1.988.749,3.155,3.155,0,0,1,.742,2.3V140H72.786v-3.934a2.573,2.573,0,0,0-.434-1.624,1.5,1.5,0,0,0-1.246-.546,1.751,1.751,0,0,0-1.393.651,2.786,2.786,0,0,0-.553,1.855V140H67.984v-3.934a2.573,2.573,0,0,0-.434-1.624A1.5,1.5,0,0,0,66.3,133.9a1.737,1.737,0,0,0-1.379.651,2.786,2.786,0,0,0-.553,1.855V140Zm15.694.168a3.492,3.492,0,0,1-1.764-.448,3.236,3.236,0,0,1-1.239-1.267,3.9,3.9,0,0,1-.455-1.925,3.854,3.854,0,0,1,.462-1.925,3.27,3.27,0,0,1,1.253-1.267,3.53,3.53,0,0,1,1.771-.448,3.492,3.492,0,0,1,1.764.448,3.236,3.236,0,0,1,1.239,1.267,3.9,3.9,0,0,1,.455,1.925,3.854,3.854,0,0,1-.462,1.925,3.27,3.27,0,0,1-1.253,1.267A3.53,3.53,0,0,1,78.89,140.168Zm0-1.008a2.231,2.231,0,0,0,1.12-.294,2.193,2.193,0,0,0,.84-.882,3,3,0,0,0,.322-1.456,3.054,3.054,0,0,0-.315-1.456,2.148,2.148,0,0,0-.833-.882,2.205,2.205,0,0,0-1.106-.294,2.231,2.231,0,0,0-1.12.294,2.193,2.193,0,0,0-.84.882,3.453,3.453,0,0,0,0,2.912,2.209,2.209,0,0,0,.833.882A2.167,2.167,0,0,0,78.89,139.16Zm7.658,1.008a2.607,2.607,0,0,1-1.96-.749,3.194,3.194,0,0,1-.728-2.3v-4.06h1.176v3.934q0,2.17,1.778,2.17a1.951,1.951,0,0,0,1.505-.651,2.653,2.653,0,0,0,.595-1.855v-3.6H90.09V140H89.026l-.084-1.246a2.417,2.417,0,0,1-.959,1.036A2.758,2.758,0,0,1,86.548,140.168ZM92.022,140v-6.944h1.064l.07,1.246a2.522,2.522,0,0,1,.966-1.036,2.721,2.721,0,0,1,1.428-.378,2.631,2.631,0,0,1,1.967.749,3.174,3.174,0,0,1,.735,2.3V140H97.076v-3.934q0-2.17-1.792-2.17a1.935,1.935,0,0,0-1.491.651,2.653,2.653,0,0,0-.6,1.855V140Zm10.752,0a2.247,2.247,0,0,1-1.5-.462,2.1,2.1,0,0,1-.546-1.666V134.05h-1.2v-.994h1.2l.154-1.666h1.022v1.666h2.044v.994h-2.044v3.822a1.155,1.155,0,0,0,.266.889,1.45,1.45,0,0,0,.938.231h.728V140Zm2.59-5.026v-1.008h5.586v1.008Zm0,2.912v-1.008h5.586v1.008Zm7.35,2.114v-.826q.994-.784,1.883-1.589A20.252,20.252,0,0,0,116.179,136a7.975,7.975,0,0,0,1.092-1.54,3.118,3.118,0,0,0,.4-1.456,2.632,2.632,0,0,0-.175-.966,1.544,1.544,0,0,0-.567-.721,1.833,1.833,0,0,0-1.064-.273,1.913,1.913,0,0,0-1.078.287,1.784,1.784,0,0,0-.651.763,2.434,2.434,0,0,0-.217,1.022h-1.134a3.226,3.226,0,0,1,.406-1.659A2.709,2.709,0,0,1,114.3,130.4a3.378,3.378,0,0,1,1.582-.364,3.108,3.108,0,0,1,2.135.735,2.768,2.768,0,0,1,.833,2.191,3.725,3.725,0,0,1-.434,1.715,8.569,8.569,0,0,1-1.106,1.638,15.333,15.333,0,0,1-1.435,1.477q-.763.686-1.421,1.232h4.732V140Zm8.5.07a.788.788,0,0,1-.581-.231.811.811,0,0,1,0-1.134.788.788,0,0,1,.581-.231.8.8,0,1,1,0,1.6Zm3.038-.07v-8.484l-1.582.35v-.812l1.974-.854h.8V140Zm9.856,1.33L130.578,129.3h1.176l3.5,12.026ZM8.246,154.43v-.994H13.79v.994Zm7.182,0v-.994h5.544v.994ZM25.9,158.168a3.4,3.4,0,0,1-1.813-.476,3.241,3.241,0,0,1-1.2-1.3,4.026,4.026,0,0,1-.427-1.876,3.931,3.931,0,0,1,.434-1.869,3.269,3.269,0,0,1,1.2-1.288,3.43,3.43,0,0,1,1.82-.469,3.171,3.171,0,0,1,1.512.35,2.522,2.522,0,0,1,1.022.98v-4.3h1.176V158H28.56l-.112-1.148a3.251,3.251,0,0,1-.966.91A2.866,2.866,0,0,1,25.9,158.168Zm.126-1.022a2.33,2.33,0,0,0,1.239-.329,2.25,2.25,0,0,0,.84-.917,3.277,3.277,0,0,0,0-2.744,2.25,2.25,0,0,0-.84-.917,2.33,2.33,0,0,0-1.239-.329,2.3,2.3,0,0,0-1.225.329,2.25,2.25,0,0,0-.84.917,3.277,3.277,0,0,0,0,2.744,2.25,2.25,0,0,0,.84.917A2.3,2.3,0,0,0,26.026,157.146Zm7.826,1.022a3.147,3.147,0,0,1-1.442-.294,2,2,0,0,1-.854-.784,2.108,2.108,0,0,1-.28-1.064,1.886,1.886,0,0,1,.812-1.638,3.77,3.77,0,0,1,2.212-.574h1.876v-.084a1.853,1.853,0,0,0-.476-1.379,1.736,1.736,0,0,0-1.274-.469,2.031,2.031,0,0,0-1.183.343,1.5,1.5,0,0,0-.623,1h-1.2a2.228,2.228,0,0,1,.511-1.274,2.856,2.856,0,0,1,1.1-.791,3.617,3.617,0,0,1,1.4-.273,2.629,2.629,0,0,1,2.926,2.842V158H36.3l-.07-1.246a2.754,2.754,0,0,1-.861,1A2.526,2.526,0,0,1,33.852,158.168Zm.182-.994a1.915,1.915,0,0,0,1.155-.35,2.234,2.234,0,0,0,.735-.91,2.834,2.834,0,0,0,.252-1.176v-.014H34.4a2.308,2.308,0,0,0-1.463.357,1.113,1.113,0,0,0-.427.889,1.077,1.077,0,0,0,.4.875A1.726,1.726,0,0,0,34.034,157.174Zm7.63.826a2.247,2.247,0,0,1-1.5-.462,2.1,2.1,0,0,1-.546-1.666V152.05h-1.2v-.994h1.2l.154-1.666H40.8v1.666H42.84v.994H40.8v3.822a1.155,1.155,0,0,0,.266.889,1.45,1.45,0,0,0,.938.231h.728V158Zm4.984.168a3.147,3.147,0,0,1-1.442-.294,2,2,0,0,1-.854-.784,2.108,2.108,0,0,1-.28-1.064,1.886,1.886,0,0,1,.812-1.638,3.77,3.77,0,0,1,2.212-.574h1.876v-.084a1.853,1.853,0,0,0-.476-1.379,1.736,1.736,0,0,0-1.274-.469,2.031,2.031,0,0,0-1.183.343,1.5,1.5,0,0,0-.623,1h-1.2a2.228,2.228,0,0,1,.511-1.274,2.856,2.856,0,0,1,1.1-.791,3.617,3.617,0,0,1,1.4-.273,2.629,2.629,0,0,1,2.926,2.842V158H49.1l-.07-1.246a2.754,2.754,0,0,1-.861,1A2.526,2.526,0,0,1,46.648,158.168Zm.182-.994a1.915,1.915,0,0,0,1.155-.35,2.234,2.234,0,0,0,.735-.91,2.834,2.834,0,0,0,.252-1.176v-.014H47.194a2.308,2.308,0,0,0-1.463.357,1.113,1.113,0,0,0-.427.889,1.077,1.077,0,0,0,.4.875A1.726,1.726,0,0,0,46.83,157.174Zm8.792,3.906V151.056h1.064L56.8,152.2a3.278,3.278,0,0,1,.959-.91,2.858,2.858,0,0,1,1.589-.406,3.365,3.365,0,0,1,1.806.476,3.257,3.257,0,0,1,1.2,1.3,4.026,4.026,0,0,1,.427,1.876,3.983,3.983,0,0,1-.427,1.869,3.2,3.2,0,0,1-1.2,1.288,3.44,3.44,0,0,1-1.813.469,3.212,3.212,0,0,1-1.519-.35,2.421,2.421,0,0,1-1.015-.98v4.242Zm3.584-3.934a2.246,2.246,0,0,0,2.072-1.246,3.21,3.21,0,0,0,0-2.744,2.325,2.325,0,0,0-4.144,0,3.21,3.21,0,0,0,0,2.744,2.246,2.246,0,0,0,2.072,1.246Zm5.208.854v-6.944h1.064l.1,1.33a2.517,2.517,0,0,1,.98-1.092,3.038,3.038,0,0,1,1.624-.406v1.232h-.322a2.906,2.906,0,0,0-1.134.217,1.722,1.722,0,0,0-.826.735,2.8,2.8,0,0,0-.308,1.428V158Zm7.98.168a3.492,3.492,0,0,1-1.764-.448,3.236,3.236,0,0,1-1.239-1.267,3.9,3.9,0,0,1-.455-1.925A3.854,3.854,0,0,1,69.4,152.6a3.27,3.27,0,0,1,1.253-1.267,3.53,3.53,0,0,1,1.771-.448,3.492,3.492,0,0,1,1.764.448,3.236,3.236,0,0,1,1.239,1.267,3.9,3.9,0,0,1,.455,1.925,3.854,3.854,0,0,1-.462,1.925,3.27,3.27,0,0,1-1.253,1.267A3.53,3.53,0,0,1,72.394,158.168Zm0-1.008a2.231,2.231,0,0,0,1.12-.294,2.193,2.193,0,0,0,.84-.882,3,3,0,0,0,.322-1.456,3.054,3.054,0,0,0-.315-1.456,2.148,2.148,0,0,0-.833-.882,2.205,2.205,0,0,0-1.106-.294,2.231,2.231,0,0,0-1.12.294,2.193,2.193,0,0,0-.84.882,3.453,3.453,0,0,0,0,2.912,2.209,2.209,0,0,0,.833.882A2.167,2.167,0,0,0,72.394,157.16Zm8.274,1.008a3.4,3.4,0,0,1-1.813-.476,3.241,3.241,0,0,1-1.2-1.3,4.025,4.025,0,0,1-.427-1.876,3.931,3.931,0,0,1,.434-1.869,3.269,3.269,0,0,1,1.2-1.288,3.43,3.43,0,0,1,1.82-.469,3.171,3.171,0,0,1,1.512.35,2.522,2.522,0,0,1,1.022.98v-4.3h1.176V158H83.328l-.112-1.148a3.251,3.251,0,0,1-.966.91A2.866,2.866,0,0,1,80.668,158.168Zm.126-1.022a2.33,2.33,0,0,0,1.239-.329,2.25,2.25,0,0,0,.84-.917,3.277,3.277,0,0,0,0-2.744,2.25,2.25,0,0,0-.84-.917,2.33,2.33,0,0,0-1.239-.329,2.3,2.3,0,0,0-1.225.329,2.25,2.25,0,0,0-.84.917,3.277,3.277,0,0,0,0,2.744,2.25,2.25,0,0,0,.84.917A2.3,2.3,0,0,0,80.794,157.146Zm8.05,1.022a2.607,2.607,0,0,1-1.96-.749,3.194,3.194,0,0,1-.728-2.3v-4.06h1.176v3.934q0,2.17,1.778,2.17a1.951,1.951,0,0,0,1.505-.651,2.653,2.653,0,0,0,.595-1.855v-3.6h1.176V158H91.322l-.084-1.246a2.417,2.417,0,0,1-.959,1.036A2.758,2.758,0,0,1,88.844,158.168Zm8.666,0a3.515,3.515,0,0,1-1.785-.455,3.271,3.271,0,0,1-1.246-1.274,4.241,4.241,0,0,1,0-3.822,3.271,3.271,0,0,1,1.246-1.274,3.515,3.515,0,0,1,1.785-.455,3.335,3.335,0,0,1,2.079.644,2.806,2.806,0,0,1,1.071,1.722h-1.2a1.543,1.543,0,0,0-.686-1A2.275,2.275,0,0,0,97.5,151.9a2.175,2.175,0,0,0-1.946,1.176,3.453,3.453,0,0,0,0,2.912,2.243,2.243,0,0,0,.84.889,2.166,2.166,0,0,0,1.106.3,2.275,2.275,0,0,0,1.274-.357,1.549,1.549,0,0,0,.686-1.015h1.2A2.78,2.78,0,0,1,99.6,157.51,3.316,3.316,0,0,1,97.51,158.168Zm7.336-.168a2.247,2.247,0,0,1-1.5-.462,2.1,2.1,0,0,1-.546-1.666V152.05h-1.2v-.994h1.2l.154-1.666h1.022v1.666h2.044v.994h-2.044v3.822a1.155,1.155,0,0,0,.266.889,1.45,1.45,0,0,0,.938.231h.728V158Zm3.388-8.484a.79.79,0,0,1-.812-.812.748.748,0,0,1,.231-.56.856.856,0,0,1,1.155,0,.737.737,0,0,1,.238.56.776.776,0,0,1-.238.581A.794.794,0,0,1,108.234,149.516ZM107.646,158v-6.944h1.176V158Zm3.22,0v-6.944h1.064L112,152.3a2.522,2.522,0,0,1,.966-1.036,2.721,2.721,0,0,1,1.428-.378,2.631,2.631,0,0,1,1.967.749,3.174,3.174,0,0,1,.735,2.3V158H115.92v-3.934q0-2.17-1.792-2.17a1.935,1.935,0,0,0-1.491.651,2.653,2.653,0,0,0-.6,1.855V158Zm8.386,0v-5.95H118.2v-.994h1.05v-1.2a1.907,1.907,0,0,1,.5-1.47,2.1,2.1,0,0,1,1.47-.462h.7v1.008h-.518a1.068,1.068,0,0,0-.756.217,1,1,0,0,0-.224.735v1.176h1.708v.994h-1.708V158Zm7.168.168a3.492,3.492,0,0,1-1.764-.448,3.236,3.236,0,0,1-1.239-1.267,3.9,3.9,0,0,1-.455-1.925,3.854,3.854,0,0,1,.462-1.925,3.27,3.27,0,0,1,1.253-1.267,3.53,3.53,0,0,1,1.771-.448,3.492,3.492,0,0,1,1.764.448,3.236,3.236,0,0,1,1.239,1.267,3.9,3.9,0,0,1,.455,1.925,3.854,3.854,0,0,1-.462,1.925,3.27,3.27,0,0,1-1.253,1.267A3.53,3.53,0,0,1,126.42,158.168Zm0-1.008a2.231,2.231,0,0,0,1.12-.294,2.193,2.193,0,0,0,.84-.882,3,3,0,0,0,.322-1.456,3.054,3.054,0,0,0-.315-1.456,2.148,2.148,0,0,0-.833-.882,2.205,2.205,0,0,0-1.106-.294,2.231,2.231,0,0,0-1.12.294,2.193,2.193,0,0,0-.84.882,3.453,3.453,0,0,0,0,2.912,2.209,2.209,0,0,0,.833.882A2.167,2.167,0,0,0,126.42,157.16Zm5.04-4.186v-1.008h5.586v1.008Zm0,2.912v-1.008h5.586v1.008Zm14.1,3.444L142.03,147.3h1.176l3.5,12.026ZM8.246,172.43v-.994H13.79v.994Zm7.182,0v-.994h5.544v.994ZM25.9,176.168a3.4,3.4,0,0,1-1.813-.476,3.241,3.241,0,0,1-1.2-1.3,4.026,4.026,0,0,1-.427-1.876,3.931,3.931,0,0,1,.434-1.869,3.269,3.269,0,0,1,1.2-1.288,3.43,3.43,0,0,1,1.82-.469,3.171,3.171,0,0,1,1.512.35,2.522,2.522,0,0,1,1.022.98v-4.3h1.176V176H28.56l-.112-1.148a3.251,3.251,0,0,1-.966.91A2.866,2.866,0,0,1,25.9,176.168Zm.126-1.022a2.33,2.33,0,0,0,1.239-.329,2.25,2.25,0,0,0,.84-.917,3.277,3.277,0,0,0,0-2.744,2.25,2.25,0,0,0-.84-.917,2.33,2.33,0,0,0-1.239-.329,2.3,2.3,0,0,0-1.225.329,2.25,2.25,0,0,0-.84.917,3.277,3.277,0,0,0,0,2.744,2.25,2.25,0,0,0,.84.917A2.3,2.3,0,0,0,26.026,175.146Zm7.826,1.022a3.147,3.147,0,0,1-1.442-.294,2,2,0,0,1-.854-.784,2.108,2.108,0,0,1-.28-1.064,1.886,1.886,0,0,1,.812-1.638,3.77,3.77,0,0,1,2.212-.574h1.876v-.084a1.853,1.853,0,0,0-.476-1.379,1.736,1.736,0,0,0-1.274-.469,2.031,2.031,0,0,0-1.183.343,1.5,1.5,0,0,0-.623,1h-1.2a2.228,2.228,0,0,1,.511-1.274,2.856,2.856,0,0,1,1.1-.791,3.617,3.617,0,0,1,1.4-.273,2.629,2.629,0,0,1,2.926,2.842V176H36.3l-.07-1.246a2.754,2.754,0,0,1-.861,1A2.526,2.526,0,0,1,33.852,176.168Zm.182-.994a1.915,1.915,0,0,0,1.155-.35,2.234,2.234,0,0,0,.735-.91,2.834,2.834,0,0,0,.252-1.176v-.014H34.4a2.308,2.308,0,0,0-1.463.357,1.113,1.113,0,0,0-.427.889,1.077,1.077,0,0,0,.4.875A1.726,1.726,0,0,0,34.034,175.174Zm7.63.826a2.247,2.247,0,0,1-1.5-.462,2.1,2.1,0,0,1-.546-1.666V170.05h-1.2v-.994h1.2l.154-1.666H40.8v1.666H42.84v.994H40.8v3.822a1.155,1.155,0,0,0,.266.889,1.45,1.45,0,0,0,.938.231h.728V176Zm4.984.168a3.147,3.147,0,0,1-1.442-.294,2,2,0,0,1-.854-.784,2.108,2.108,0,0,1-.28-1.064,1.886,1.886,0,0,1,.812-1.638,3.77,3.77,0,0,1,2.212-.574h1.876v-.084a1.853,1.853,0,0,0-.476-1.379,1.736,1.736,0,0,0-1.274-.469,2.031,2.031,0,0,0-1.183.343,1.5,1.5,0,0,0-.623,1h-1.2a2.228,2.228,0,0,1,.511-1.274,2.856,2.856,0,0,1,1.1-.791,3.617,3.617,0,0,1,1.4-.273,2.629,2.629,0,0,1,2.926,2.842V176H49.1l-.07-1.246a2.754,2.754,0,0,1-.861,1A2.526,2.526,0,0,1,46.648,176.168Zm.182-.994a1.915,1.915,0,0,0,1.155-.35,2.234,2.234,0,0,0,.735-.91,2.834,2.834,0,0,0,.252-1.176v-.014H47.194a2.308,2.308,0,0,0-1.463.357,1.113,1.113,0,0,0-.427.889,1.077,1.077,0,0,0,.4.875A1.726,1.726,0,0,0,46.83,175.174ZM56,176v-5.95H54.95v-.994H56v-1.2a1.907,1.907,0,0,1,.5-1.47,2.1,2.1,0,0,1,1.47-.462h.7v1.008h-.518a1.068,1.068,0,0,0-.756.217,1,1,0,0,0-.224.735v1.176h4.312V176H60.312v-5.95H57.176V176Zm4.914-8.274a.794.794,0,0,1-.574-.231.776.776,0,0,1-.238-.581.737.737,0,0,1,.238-.56.856.856,0,0,1,1.155,0,.748.748,0,0,1,.231.56.79.79,0,0,1-.812.812ZM63.56,176v-6.944h1.064l.1,1.33a2.517,2.517,0,0,1,.98-1.092,3.038,3.038,0,0,1,1.624-.406v1.232H67a2.906,2.906,0,0,0-1.134.217,1.722,1.722,0,0,0-.826.735,2.8,2.8,0,0,0-.308,1.428V176Zm7.742.168a3.318,3.318,0,0,1-2.072-.63,2.456,2.456,0,0,1-.966-1.708h1.2a1.661,1.661,0,0,0,.581.945,1.891,1.891,0,0,0,1.267.4,1.6,1.6,0,0,0,1.092-.315.975.975,0,0,0,.35-.749.831.831,0,0,0-.455-.84,6.056,6.056,0,0,0-1.281-.378,7.22,7.22,0,0,1-1.12-.322,2.544,2.544,0,0,1-.938-.6,1.386,1.386,0,0,1-.378-1.015,1.874,1.874,0,0,1,.679-1.491,2.738,2.738,0,0,1,1.841-.581,2.855,2.855,0,0,1,1.813.553,2.207,2.207,0,0,1,.819,1.575H72.576a1.211,1.211,0,0,0-.455-.833,1.626,1.626,0,0,0-1.029-.3,1.558,1.558,0,0,0-.973.266.843.843,0,0,0-.343.7.727.727,0,0,0,.441.658,4.734,4.734,0,0,0,1.2.406,10.428,10.428,0,0,1,1.225.343,2.315,2.315,0,0,1,.952.6,1.636,1.636,0,0,1,.371,1.155,1.9,1.9,0,0,1-.707,1.547A2.93,2.93,0,0,1,71.3,176.168ZM78.078,176a2.247,2.247,0,0,1-1.5-.462,2.1,2.1,0,0,1-.546-1.666V170.05h-1.2v-.994h1.2l.154-1.666H77.21v1.666h2.044v.994H77.21v3.822a1.155,1.155,0,0,0,.266.889,1.45,1.45,0,0,0,.938.231h.728V176Zm2.674,0v-6.944h1.064l.07,1.246a2.522,2.522,0,0,1,.966-1.036,2.721,2.721,0,0,1,1.428-.378,2.631,2.631,0,0,1,1.967.749,3.174,3.174,0,0,1,.735,2.3V176H85.806v-3.934q0-2.17-1.792-2.17a1.935,1.935,0,0,0-1.491.651,2.653,2.653,0,0,0-.6,1.855V176Zm10.318.168a3.147,3.147,0,0,1-1.442-.294,2,2,0,0,1-.854-.784,2.108,2.108,0,0,1-.28-1.064,1.886,1.886,0,0,1,.812-1.638,3.77,3.77,0,0,1,2.212-.574h1.876v-.084a1.853,1.853,0,0,0-.476-1.379,1.736,1.736,0,0,0-1.274-.469,2.031,2.031,0,0,0-1.183.343,1.5,1.5,0,0,0-.623,1h-1.2a2.228,2.228,0,0,1,.511-1.274,2.856,2.856,0,0,1,1.1-.791,3.617,3.617,0,0,1,1.4-.273,2.629,2.629,0,0,1,2.926,2.842V176H93.52l-.07-1.246a2.754,2.754,0,0,1-.861,1A2.526,2.526,0,0,1,91.07,176.168Zm.182-.994a1.915,1.915,0,0,0,1.155-.35,2.234,2.234,0,0,0,.735-.91,2.834,2.834,0,0,0,.252-1.176v-.014H91.616a2.308,2.308,0,0,0-1.463.357,1.113,1.113,0,0,0-.427.889,1.077,1.077,0,0,0,.4.875A1.726,1.726,0,0,0,91.252,175.174Zm5.082.826v-6.944H97.4l.084,1.008a2.352,2.352,0,0,1,.9-.868,2.571,2.571,0,0,1,1.26-.308,2.845,2.845,0,0,1,1.421.336,2.21,2.21,0,0,1,.917,1.022,2.658,2.658,0,0,1,1-.994,2.733,2.733,0,0,1,1.379-.364,2.673,2.673,0,0,1,1.988.749,3.155,3.155,0,0,1,.742,2.3V176h-1.162v-3.934a2.573,2.573,0,0,0-.434-1.624,1.5,1.5,0,0,0-1.246-.546,1.751,1.751,0,0,0-1.393.651,2.786,2.786,0,0,0-.553,1.855V176h-1.176v-3.934a2.573,2.573,0,0,0-.434-1.624,1.5,1.5,0,0,0-1.246-.546,1.737,1.737,0,0,0-1.379.651,2.786,2.786,0,0,0-.553,1.855V176Zm15.652.168a3.4,3.4,0,0,1-1.764-.455,3.23,3.23,0,0,1-1.211-1.267,3.96,3.96,0,0,1-.441-1.918,4.023,4.023,0,0,1,.434-1.911,3.156,3.156,0,0,1,1.211-1.274,3.494,3.494,0,0,1,1.8-.455,3.245,3.245,0,0,1,1.743.455,3.083,3.083,0,0,1,1.127,1.2,3.366,3.366,0,0,1,.392,1.6q0,.154-.007.308t-.007.35h-5.53a2.729,2.729,0,0,0,.371,1.323,2.184,2.184,0,0,0,1.883,1.057,2.1,2.1,0,0,0,1.218-.336,1.922,1.922,0,0,0,.714-.91h1.162a3.05,3.05,0,0,1-3.094,2.24Zm0-6.286a2.348,2.348,0,0,0-1.491.511,2.059,2.059,0,0,0-.749,1.491h4.368a1.986,1.986,0,0,0-.644-1.47A2.161,2.161,0,0,0,111.986,169.882Zm4.76,1.092v-1.008h5.586v1.008Zm0,2.912v-1.008h5.586v1.008Zm14.1,3.444L127.316,165.3h1.176l3.5,12.026Zm-122.6,13.1v-.994H13.79v.994Zm7.182,0v-.994h5.544v.994ZM25.9,194.168a3.4,3.4,0,0,1-1.813-.476,3.241,3.241,0,0,1-1.2-1.3,4.026,4.026,0,0,1-.427-1.876,3.931,3.931,0,0,1,.434-1.869,3.269,3.269,0,0,1,1.2-1.288,3.43,3.43,0,0,1,1.82-.469,3.171,3.171,0,0,1,1.512.35,2.522,2.522,0,0,1,1.022.98v-4.3h1.176V194H28.56l-.112-1.148a3.251,3.251,0,0,1-.966.91A2.866,2.866,0,0,1,25.9,194.168Zm.126-1.022a2.33,2.33,0,0,0,1.239-.329,2.25,2.25,0,0,0,.84-.917,3.277,3.277,0,0,0,0-2.744,2.25,2.25,0,0,0-.84-.917,2.33,2.33,0,0,0-1.239-.329,2.3,2.3,0,0,0-1.225.329,2.25,2.25,0,0,0-.84.917,3.277,3.277,0,0,0,0,2.744,2.25,2.25,0,0,0,.84.917A2.3,2.3,0,0,0,26.026,193.146Zm7.826,1.022a3.147,3.147,0,0,1-1.442-.294,2,2,0,0,1-.854-.784,2.108,2.108,0,0,1-.28-1.064,1.886,1.886,0,0,1,.812-1.638,3.77,3.77,0,0,1,2.212-.574h1.876v-.084a1.853,1.853,0,0,0-.476-1.379,1.736,1.736,0,0,0-1.274-.469,2.031,2.031,0,0,0-1.183.343,1.5,1.5,0,0,0-.623,1h-1.2a2.228,2.228,0,0,1,.511-1.274,2.856,2.856,0,0,1,1.1-.791,3.617,3.617,0,0,1,1.4-.273,2.629,2.629,0,0,1,2.926,2.842V194H36.3l-.07-1.246a2.754,2.754,0,0,1-.861,1A2.526,2.526,0,0,1,33.852,194.168Zm.182-.994a1.915,1.915,0,0,0,1.155-.35,2.234,2.234,0,0,0,.735-.91,2.834,2.834,0,0,0,.252-1.176v-.014H34.4a2.308,2.308,0,0,0-1.463.357,1.113,1.113,0,0,0-.427.889,1.077,1.077,0,0,0,.4.875A1.726,1.726,0,0,0,34.034,193.174Zm7.63.826a2.247,2.247,0,0,1-1.5-.462,2.1,2.1,0,0,1-.546-1.666V188.05h-1.2v-.994h1.2l.154-1.666H40.8v1.666H42.84v.994H40.8v3.822a1.155,1.155,0,0,0,.266.889,1.45,1.45,0,0,0,.938.231h.728V194Zm4.984.168a3.147,3.147,0,0,1-1.442-.294,2,2,0,0,1-.854-.784,2.108,2.108,0,0,1-.28-1.064,1.886,1.886,0,0,1,.812-1.638,3.77,3.77,0,0,1,2.212-.574h1.876v-.084a1.853,1.853,0,0,0-.476-1.379,1.736,1.736,0,0,0-1.274-.469,2.031,2.031,0,0,0-1.183.343,1.5,1.5,0,0,0-.623,1h-1.2a2.228,2.228,0,0,1,.511-1.274,2.856,2.856,0,0,1,1.1-.791,3.617,3.617,0,0,1,1.4-.273,2.629,2.629,0,0,1,2.926,2.842V194H49.1l-.07-1.246a2.754,2.754,0,0,1-.861,1A2.526,2.526,0,0,1,46.648,194.168Zm.182-.994a1.915,1.915,0,0,0,1.155-.35,2.234,2.234,0,0,0,.735-.91,2.834,2.834,0,0,0,.252-1.176v-.014H47.194a2.308,2.308,0,0,0-1.463.357,1.113,1.113,0,0,0-.427.889,1.077,1.077,0,0,0,.4.875A1.726,1.726,0,0,0,46.83,193.174Zm8.792,3.906V187.056h1.064L56.8,188.2a3.278,3.278,0,0,1,.959-.91,2.858,2.858,0,0,1,1.589-.406,3.365,3.365,0,0,1,1.806.476,3.257,3.257,0,0,1,1.2,1.3,4.026,4.026,0,0,1,.427,1.876,3.983,3.983,0,0,1-.427,1.869,3.2,3.2,0,0,1-1.2,1.288,3.44,3.44,0,0,1-1.813.469,3.212,3.212,0,0,1-1.519-.35,2.421,2.421,0,0,1-1.015-.98v4.242Zm3.584-3.934a2.246,2.246,0,0,0,2.072-1.246,3.21,3.21,0,0,0,0-2.744,2.325,2.325,0,0,0-4.144,0,3.21,3.21,0,0,0,0,2.744,2.246,2.246,0,0,0,2.072,1.246Zm5.208.854V183.92H65.59v4.326a2.473,2.473,0,0,1,.994-1,2.84,2.84,0,0,1,1.4-.357,2.571,2.571,0,0,1,1.932.749,3.194,3.194,0,0,1,.728,2.3V194H69.482v-3.934q0-2.17-1.75-2.17a2.016,2.016,0,0,0-1.526.651,2.6,2.6,0,0,0-.616,1.855V194Zm11.172.168a3.492,3.492,0,0,1-1.764-.448,3.236,3.236,0,0,1-1.239-1.267,3.9,3.9,0,0,1-.455-1.925,3.854,3.854,0,0,1,.462-1.925,3.27,3.27,0,0,1,1.253-1.267,3.53,3.53,0,0,1,1.771-.448,3.492,3.492,0,0,1,1.764.448,3.236,3.236,0,0,1,1.239,1.267,3.9,3.9,0,0,1,.455,1.925,3.854,3.854,0,0,1-.462,1.925,3.27,3.27,0,0,1-1.253,1.267A3.53,3.53,0,0,1,75.586,194.168Zm0-1.008a2.231,2.231,0,0,0,1.12-.294,2.193,2.193,0,0,0,.84-.882,3,3,0,0,0,.322-1.456,3.054,3.054,0,0,0-.315-1.456,2.148,2.148,0,0,0-.833-.882,2.205,2.205,0,0,0-1.106-.294,2.231,2.231,0,0,0-1.12.294,2.193,2.193,0,0,0-.84.882,3.453,3.453,0,0,0,0,2.912,2.209,2.209,0,0,0,.833.882A2.167,2.167,0,0,0,75.586,193.16Zm5.124.84v-6.944h1.064l.07,1.246a2.522,2.522,0,0,1,.966-1.036,2.721,2.721,0,0,1,1.428-.378,2.631,2.631,0,0,1,1.967.749,3.174,3.174,0,0,1,.735,2.3V194H85.764v-3.934q0-2.17-1.792-2.17a1.935,1.935,0,0,0-1.491.651,2.653,2.653,0,0,0-.6,1.855V194Zm11.13.168a3.4,3.4,0,0,1-1.764-.455,3.23,3.23,0,0,1-1.211-1.267,3.96,3.96,0,0,1-.441-1.918,4.023,4.023,0,0,1,.434-1.911,3.156,3.156,0,0,1,1.211-1.274,3.494,3.494,0,0,1,1.8-.455,3.245,3.245,0,0,1,1.743.455,3.083,3.083,0,0,1,1.127,1.2,3.366,3.366,0,0,1,.392,1.6q0,.154-.007.308t-.007.35h-5.53a2.729,2.729,0,0,0,.371,1.323,2.184,2.184,0,0,0,1.883,1.057,2.1,2.1,0,0,0,1.218-.336,1.922,1.922,0,0,0,.714-.91h1.162a3.05,3.05,0,0,1-3.094,2.24Zm0-6.286a2.348,2.348,0,0,0-1.491.511,2.059,2.059,0,0,0-.749,1.491h4.368a1.986,1.986,0,0,0-.644-1.47A2.161,2.161,0,0,0,91.84,187.882Zm4.76,1.092v-1.008h5.586v1.008Zm0,2.912v-1.008h5.586v1.008Zm14.1,3.444L107.17,183.3h1.176l3.5,12.026ZM8.246,208.43v-.994H13.79v.994Zm7.182,0v-.994h5.544v.994ZM25.9,212.168a3.4,3.4,0,0,1-1.813-.476,3.241,3.241,0,0,1-1.2-1.3,4.026,4.026,0,0,1-.427-1.876,3.931,3.931,0,0,1,.434-1.869,3.269,3.269,0,0,1,1.2-1.288,3.43,3.43,0,0,1,1.82-.469,3.171,3.171,0,0,1,1.512.35,2.522,2.522,0,0,1,1.022.98v-4.3h1.176V212H28.56l-.112-1.148a3.251,3.251,0,0,1-.966.91A2.866,2.866,0,0,1,25.9,212.168Zm.126-1.022a2.33,2.33,0,0,0,1.239-.329,2.25,2.25,0,0,0,.84-.917,3.277,3.277,0,0,0,0-2.744,2.25,2.25,0,0,0-.84-.917,2.33,2.33,0,0,0-1.239-.329,2.3,2.3,0,0,0-1.225.329,2.25,2.25,0,0,0-.84.917,3.277,3.277,0,0,0,0,2.744,2.25,2.25,0,0,0,.84.917A2.3,2.3,0,0,0,26.026,211.146Zm7.826,1.022a3.147,3.147,0,0,1-1.442-.294,2,2,0,0,1-.854-.784,2.108,2.108,0,0,1-.28-1.064,1.886,1.886,0,0,1,.812-1.638,3.77,3.77,0,0,1,2.212-.574h1.876v-.084a1.853,1.853,0,0,0-.476-1.379,1.736,1.736,0,0,0-1.274-.469,2.031,2.031,0,0,0-1.183.343,1.5,1.5,0,0,0-.623,1h-1.2a2.228,2.228,0,0,1,.511-1.274,2.856,2.856,0,0,1,1.1-.791,3.617,3.617,0,0,1,1.4-.273,2.629,2.629,0,0,1,2.926,2.842V212H36.3l-.07-1.246a2.754,2.754,0,0,1-.861,1A2.526,2.526,0,0,1,33.852,212.168Zm.182-.994a1.915,1.915,0,0,0,1.155-.35,2.234,2.234,0,0,0,.735-.91,2.834,2.834,0,0,0,.252-1.176v-.014H34.4a2.308,2.308,0,0,0-1.463.357,1.113,1.113,0,0,0-.427.889,1.077,1.077,0,0,0,.4.875A1.726,1.726,0,0,0,34.034,211.174Zm7.63.826a2.247,2.247,0,0,1-1.5-.462,2.1,2.1,0,0,1-.546-1.666V206.05h-1.2v-.994h1.2l.154-1.666H40.8v1.666H42.84v.994H40.8v3.822a1.155,1.155,0,0,0,.266.889,1.45,1.45,0,0,0,.938.231h.728V212Zm4.984.168a3.147,3.147,0,0,1-1.442-.294,2,2,0,0,1-.854-.784,2.108,2.108,0,0,1-.28-1.064,1.886,1.886,0,0,1,.812-1.638,3.77,3.77,0,0,1,2.212-.574h1.876v-.084a1.853,1.853,0,0,0-.476-1.379,1.736,1.736,0,0,0-1.274-.469,2.031,2.031,0,0,0-1.183.343,1.5,1.5,0,0,0-.623,1h-1.2a2.228,2.228,0,0,1,.511-1.274,2.856,2.856,0,0,1,1.1-.791,3.617,3.617,0,0,1,1.4-.273,2.629,2.629,0,0,1,2.926,2.842V212H49.1l-.07-1.246a2.754,2.754,0,0,1-.861,1A2.526,2.526,0,0,1,46.648,212.168Zm.182-.994a1.915,1.915,0,0,0,1.155-.35,2.234,2.234,0,0,0,.735-.91,2.834,2.834,0,0,0,.252-1.176v-.014H47.194a2.308,2.308,0,0,0-1.463.357,1.113,1.113,0,0,0-.427.889,1.077,1.077,0,0,0,.4.875A1.726,1.726,0,0,0,46.83,211.174Zm11.914.994a3.4,3.4,0,0,1-1.764-.455,3.23,3.23,0,0,1-1.211-1.267,3.96,3.96,0,0,1-.441-1.918,4.023,4.023,0,0,1,.434-1.911,3.156,3.156,0,0,1,1.211-1.274,3.494,3.494,0,0,1,1.8-.455,3.245,3.245,0,0,1,1.743.455,3.083,3.083,0,0,1,1.127,1.2,3.366,3.366,0,0,1,.392,1.6q0,.154-.007.308t-.007.35H56.49a2.729,2.729,0,0,0,.371,1.323,2.184,2.184,0,0,0,1.883,1.057,2.1,2.1,0,0,0,1.218-.336,1.922,1.922,0,0,0,.714-.91h1.162a3.05,3.05,0,0,1-3.094,2.24Zm0-6.286a2.348,2.348,0,0,0-1.491.511,2.059,2.059,0,0,0-.749,1.491h4.368a1.986,1.986,0,0,0-.644-1.47A2.161,2.161,0,0,0,58.744,205.882ZM63.588,212v-6.944h1.064l.084,1.008a2.352,2.352,0,0,1,.9-.868,2.571,2.571,0,0,1,1.26-.308,2.845,2.845,0,0,1,1.421.336,2.21,2.21,0,0,1,.917,1.022,2.658,2.658,0,0,1,1-.994,2.733,2.733,0,0,1,1.379-.364,2.673,2.673,0,0,1,1.988.749,3.155,3.155,0,0,1,.742,2.3V212H73.178v-3.934a2.573,2.573,0,0,0-.434-1.624A1.5,1.5,0,0,0,71.5,205.9a1.751,1.751,0,0,0-1.393.651,2.786,2.786,0,0,0-.553,1.855V212H68.376v-3.934a2.573,2.573,0,0,0-.434-1.624A1.5,1.5,0,0,0,66.7,205.9a1.737,1.737,0,0,0-1.379.651,2.786,2.786,0,0,0-.553,1.855V212Zm14.84.168a3.147,3.147,0,0,1-1.442-.294,2,2,0,0,1-.854-.784,2.108,2.108,0,0,1-.28-1.064,1.886,1.886,0,0,1,.812-1.638,3.77,3.77,0,0,1,2.212-.574h1.876v-.084a1.853,1.853,0,0,0-.476-1.379A1.736,1.736,0,0,0,79,205.882a2.031,2.031,0,0,0-1.183.343,1.5,1.5,0,0,0-.623,1h-1.2a2.228,2.228,0,0,1,.511-1.274,2.856,2.856,0,0,1,1.1-.791,3.617,3.617,0,0,1,1.4-.273,2.629,2.629,0,0,1,2.926,2.842V212h-1.05l-.07-1.246a2.754,2.754,0,0,1-.861,1A2.526,2.526,0,0,1,78.428,212.168Zm.182-.994a1.915,1.915,0,0,0,1.155-.35,2.234,2.234,0,0,0,.735-.91,2.834,2.834,0,0,0,.252-1.176v-.014H78.974a2.308,2.308,0,0,0-1.463.357,1.113,1.113,0,0,0-.427.889,1.077,1.077,0,0,0,.4.875A1.726,1.726,0,0,0,78.61,211.174Zm5.8-7.658a.79.79,0,0,1-.812-.812.748.748,0,0,1,.231-.56.856.856,0,0,1,1.155,0,.737.737,0,0,1,.238.56.776.776,0,0,1-.238.581A.794.794,0,0,1,84.406,203.516ZM83.818,212v-6.944h1.176V212Zm3.22,0V201.92h1.176V212Zm3.024-5.026v-1.008h5.586v1.008Zm0,2.912v-1.008h5.586v1.008Zm14.1,3.444L100.632,201.3h1.176l3.5,12.026Z" transform="translate(3048 -3021)" fill="#fff" opacity="0.8"/>
      <path id="Rectangle_6472" data-name="Rectangle 6472" d="M0,0H400a0,0,0,0,1,0,0V50a10,10,0,0,1-10,10H10A10,10,0,0,1,0,50V0A0,0,0,0,1,0,0Z" transform="translate(3014 -2863)" fill="url(#linear-gradient)"/>
      <path id="Rectangle_6473" data-name="Rectangle 6473" d="M10,0H390a10,10,0,0,1,10,10V36a0,0,0,0,1,0,0H0a0,0,0,0,1,0,0V10A10,10,0,0,1,10,0Z" transform="translate(3014 -3071)" fill="#fff" opacity="0.12"/>
      <path id="Path_24482" data-name="Path 24482" d="M.888,0V-8.4H3.6a3.483,3.483,0,0,1,1.608.324,2.114,2.114,0,0,1,.924.888,2.615,2.615,0,0,1,.3,1.248,2.508,2.508,0,0,1-.426,1.428,2.3,2.3,0,0,1-1.326.9L6.516,0H5.328l-1.7-3.468H1.9V0ZM1.9-4.26H3.528a1.875,1.875,0,0,0,1.416-.468,1.673,1.673,0,0,0,.444-1.2A1.6,1.6,0,0,0,4.95-7.11a1.972,1.972,0,0,0-1.434-.438H1.9ZM10.26.144a2.916,2.916,0,0,1-1.512-.39A2.769,2.769,0,0,1,7.71-1.332a3.4,3.4,0,0,1-.378-1.644A3.448,3.448,0,0,1,7.7-4.614,2.7,2.7,0,0,1,8.742-5.706a3,3,0,0,1,1.542-.39,2.781,2.781,0,0,1,1.494.39,2.642,2.642,0,0,1,.966,1.026,2.885,2.885,0,0,1,.336,1.368q0,.132-.006.264t-.006.3H8.328a2.339,2.339,0,0,0,.318,1.134,1.88,1.88,0,0,0,.708.678,1.892,1.892,0,0,0,.906.228A1.8,1.8,0,0,0,11.3-1a1.648,1.648,0,0,0,.612-.78h1A2.686,2.686,0,0,1,11.994-.4,2.677,2.677,0,0,1,10.26.144Zm0-5.388a2.013,2.013,0,0,0-1.278.438A1.765,1.765,0,0,0,8.34-3.528h3.744a1.7,1.7,0,0,0-.552-1.26A1.852,1.852,0,0,0,10.26-5.244ZM19.3,2.64V-.984a2.787,2.787,0,0,1-.828.78,2.457,2.457,0,0,1-1.356.348,2.915,2.915,0,0,1-1.554-.408A2.778,2.778,0,0,1,14.526-1.38a3.45,3.45,0,0,1-.366-1.608,3.369,3.369,0,0,1,.372-1.6,2.8,2.8,0,0,1,1.032-1.1,2.94,2.94,0,0,1,1.56-.4,2.718,2.718,0,0,1,1.3.3,2.162,2.162,0,0,1,.876.84l.1-1H20.3V2.64ZM17.22-.732a2,2,0,0,0,1.062-.282A1.929,1.929,0,0,0,19-1.8a2.548,2.548,0,0,0,.258-1.176A2.548,2.548,0,0,0,19-4.152a1.929,1.929,0,0,0-.72-.786A2,2,0,0,0,17.22-5.22a1.975,1.975,0,0,0-1.05.282,1.929,1.929,0,0,0-.72.786,2.548,2.548,0,0,0-.258,1.176A2.548,2.548,0,0,0,15.45-1.8a1.929,1.929,0,0,0,.72.786A1.975,1.975,0,0,0,17.22-.732Zm6.9.876A2.235,2.235,0,0,1,22.44-.5a2.737,2.737,0,0,1-.624-1.974v-3.48h1.008V-2.58q0,1.86,1.524,1.86a1.672,1.672,0,0,0,1.29-.558,2.274,2.274,0,0,0,.51-1.59V-5.952h1.008V0h-.912l-.072-1.068a2.072,2.072,0,0,1-.822.888A2.364,2.364,0,0,1,24.12.144Zm7.368,0a2.916,2.916,0,0,1-1.512-.39,2.769,2.769,0,0,1-1.038-1.086,3.4,3.4,0,0,1-.378-1.644,3.448,3.448,0,0,1,.372-1.638A2.7,2.7,0,0,1,29.97-5.706a3,3,0,0,1,1.542-.39,2.781,2.781,0,0,1,1.494.39,2.642,2.642,0,0,1,.966,1.026,2.885,2.885,0,0,1,.336,1.368q0,.132-.006.264t-.006.3h-4.74a2.339,2.339,0,0,0,.318,1.134,1.88,1.88,0,0,0,.708.678,1.892,1.892,0,0,0,.906.228A1.8,1.8,0,0,0,32.532-1a1.648,1.648,0,0,0,.612-.78h1A2.686,2.686,0,0,1,33.222-.4,2.677,2.677,0,0,1,31.488.144Zm0-5.388a2.013,2.013,0,0,0-1.278.438,1.765,1.765,0,0,0-.642,1.278h3.744a1.7,1.7,0,0,0-.552-1.26A1.852,1.852,0,0,0,31.488-5.244ZM37.92.144A2.844,2.844,0,0,1,36.144-.4a2.105,2.105,0,0,1-.828-1.464h1.032a1.424,1.424,0,0,0,.5.81,1.621,1.621,0,0,0,1.086.342,1.37,1.37,0,0,0,.936-.27.836.836,0,0,0,.3-.642.713.713,0,0,0-.39-.72,5.191,5.191,0,0,0-1.1-.324,6.189,6.189,0,0,1-.96-.276,2.181,2.181,0,0,1-.8-.51,1.188,1.188,0,0,1-.324-.87A1.606,1.606,0,0,1,36.174-5.6a2.347,2.347,0,0,1,1.578-.5,2.447,2.447,0,0,1,1.554.474,1.892,1.892,0,0,1,.7,1.35h-1a1.038,1.038,0,0,0-.39-.714,1.394,1.394,0,0,0-.882-.258,1.335,1.335,0,0,0-.834.228.723.723,0,0,0-.294.6.623.623,0,0,0,.378.564,4.058,4.058,0,0,0,1.026.348,8.937,8.937,0,0,1,1.05.294,1.984,1.984,0,0,1,.816.516,1.4,1.4,0,0,1,.318.99,1.626,1.626,0,0,1-.606,1.326A2.511,2.511,0,0,1,37.92.144ZM43.728,0a1.926,1.926,0,0,1-1.284-.4,1.8,1.8,0,0,1-.468-1.428V-5.1H40.944v-.852h1.032l.132-1.428h.876v1.428h1.752V-5.1H42.984v3.276a.99.99,0,0,0,.228.762,1.243,1.243,0,0,0,.8.2h.624V0Zm8.208.144a3.608,3.608,0,0,1-1.608-.336,2.511,2.511,0,0,1-1.056-.936A2.587,2.587,0,0,1,48.9-2.52h1.056a1.847,1.847,0,0,0,.228.906,1.678,1.678,0,0,0,.666.66,2.192,2.192,0,0,0,1.086.246,1.946,1.946,0,0,0,1.32-.408,1.3,1.3,0,0,0,.468-1.02,1.377,1.377,0,0,0-.216-.81,1.615,1.615,0,0,0-.582-.5,4.834,4.834,0,0,0-.84-.336q-.474-.144-.99-.324a3.535,3.535,0,0,1-1.44-.834,1.824,1.824,0,0,1-.468-1.3A2.142,2.142,0,0,1,49.5-7.434a2.2,2.2,0,0,1,.918-.816,3.146,3.146,0,0,1,1.41-.294,3.065,3.065,0,0,1,1.4.3,2.267,2.267,0,0,1,.924.828,2.3,2.3,0,0,1,.342,1.2H53.436a1.468,1.468,0,0,0-.18-.69,1.405,1.405,0,0,0-.546-.558,1.782,1.782,0,0,0-.918-.216,1.661,1.661,0,0,0-1.122.348,1.219,1.219,0,0,0-.438,1,1.082,1.082,0,0,0,.306.828,2.317,2.317,0,0,0,.858.474l1.272.426a6.131,6.131,0,0,1,1.08.5,2.122,2.122,0,0,1,.75.744,2.258,2.258,0,0,1,.27,1.164,2.212,2.212,0,0,1-.312,1.134,2.318,2.318,0,0,1-.942.87A3.328,3.328,0,0,1,51.936.144Zm6.18,0A2.7,2.7,0,0,1,56.88-.108a1.713,1.713,0,0,1-.732-.672,1.807,1.807,0,0,1-.24-.912,1.616,1.616,0,0,1,.7-1.4,3.232,3.232,0,0,1,1.9-.492h1.608V-3.66A1.588,1.588,0,0,0,59.7-4.842a1.488,1.488,0,0,0-1.092-.4,1.741,1.741,0,0,0-1.014.294,1.288,1.288,0,0,0-.534.858H56.028a1.91,1.91,0,0,1,.438-1.092,2.448,2.448,0,0,1,.942-.678,3.1,3.1,0,0,1,1.2-.234,2.466,2.466,0,0,1,1.878.666,2.47,2.47,0,0,1,.63,1.77V0h-.9l-.06-1.068a2.361,2.361,0,0,1-.738.858A2.165,2.165,0,0,1,58.116.144Zm.156-.852a1.642,1.642,0,0,0,.99-.3,1.915,1.915,0,0,0,.63-.78A2.429,2.429,0,0,0,60.108-2.8v-.012H58.584A1.978,1.978,0,0,0,57.33-2.5a.954.954,0,0,0-.366.762.923.923,0,0,0,.342.75A1.479,1.479,0,0,0,58.272-.708ZM62.628,0V-5.952h.912l.072.864a2.016,2.016,0,0,1,.768-.744A2.2,2.2,0,0,1,65.46-6.1a2.439,2.439,0,0,1,1.218.288,1.9,1.9,0,0,1,.786.876,2.279,2.279,0,0,1,.858-.852A2.342,2.342,0,0,1,69.5-6.1a2.291,2.291,0,0,1,1.7.642,2.7,2.7,0,0,1,.636,1.974V0h-1V-3.372a2.206,2.206,0,0,0-.372-1.392,1.284,1.284,0,0,0-1.068-.468,1.5,1.5,0,0,0-1.194.558,2.388,2.388,0,0,0-.474,1.59V0H66.732V-3.372a2.206,2.206,0,0,0-.372-1.392,1.284,1.284,0,0,0-1.068-.468,1.489,1.489,0,0,0-1.182.558,2.388,2.388,0,0,0-.474,1.59V0Zm10.74,2.64V-5.952h.912l.1.984a2.809,2.809,0,0,1,.822-.78A2.45,2.45,0,0,1,76.56-6.1a2.884,2.884,0,0,1,1.548.408,2.792,2.792,0,0,1,1.026,1.116A3.45,3.45,0,0,1,79.5-2.964a3.414,3.414,0,0,1-.366,1.6A2.746,2.746,0,0,1,78.1-.258a2.948,2.948,0,0,1-1.554.4,2.754,2.754,0,0,1-1.3-.3,2.075,2.075,0,0,1-.87-.84V2.64ZM76.44-.732A1.966,1.966,0,0,0,77.5-1.014a1.985,1.985,0,0,0,.72-.786,2.5,2.5,0,0,0,.264-1.176,2.5,2.5,0,0,0-.264-1.176,1.985,1.985,0,0,0-.72-.786A1.966,1.966,0,0,0,76.44-5.22a1.966,1.966,0,0,0-1.056.282,1.985,1.985,0,0,0-.72.786A2.5,2.5,0,0,0,74.4-2.976,2.5,2.5,0,0,0,74.664-1.8a1.985,1.985,0,0,0,.72.786A1.966,1.966,0,0,0,76.44-.732ZM80.9,0V-8.64h1.008V0Zm5.34.144a2.916,2.916,0,0,1-1.512-.39,2.769,2.769,0,0,1-1.038-1.086,3.4,3.4,0,0,1-.378-1.644,3.448,3.448,0,0,1,.372-1.638,2.7,2.7,0,0,1,1.038-1.092,3,3,0,0,1,1.542-.39,2.781,2.781,0,0,1,1.494.39,2.642,2.642,0,0,1,.966,1.026,2.885,2.885,0,0,1,.336,1.368q0,.132-.006.264t-.006.3h-4.74a2.339,2.339,0,0,0,.318,1.134,1.88,1.88,0,0,0,.708.678,1.892,1.892,0,0,0,.906.228A1.8,1.8,0,0,0,87.288-1a1.648,1.648,0,0,0,.612-.78h1A2.686,2.686,0,0,1,87.978-.4,2.677,2.677,0,0,1,86.244.144Zm0-5.388a2.013,2.013,0,0,0-1.278.438,1.765,1.765,0,0,0-.642,1.278h3.744a1.7,1.7,0,0,0-.552-1.26A1.852,1.852,0,0,0,86.244-5.244Zm7.68,5.3a.675.675,0,0,1-.5-.2.661.661,0,0,1-.2-.486.661.661,0,0,1,.2-.486.675.675,0,0,1,.5-.2.661.661,0,0,1,.486.2.661.661,0,0,1,.2.486.661.661,0,0,1-.2.486A.661.661,0,0,1,93.924.06Zm0-4.788a.675.675,0,0,1-.5-.2.661.661,0,0,1-.2-.486.661.661,0,0,1,.2-.486.675.675,0,0,1,.5-.2.661.661,0,0,1,.486.2.661.661,0,0,1,.2.486.661.661,0,0,1-.2.486A.661.661,0,0,1,93.924-4.728ZM101.88.144a3.608,3.608,0,0,1-1.608-.336,2.511,2.511,0,0,1-1.056-.936,2.587,2.587,0,0,1-.372-1.392H99.9a1.847,1.847,0,0,0,.228.906,1.678,1.678,0,0,0,.666.66,2.192,2.192,0,0,0,1.086.246,1.946,1.946,0,0,0,1.32-.408,1.3,1.3,0,0,0,.468-1.02,1.377,1.377,0,0,0-.216-.81,1.615,1.615,0,0,0-.582-.5,4.833,4.833,0,0,0-.84-.336q-.474-.144-.99-.324a3.535,3.535,0,0,1-1.44-.834,1.824,1.824,0,0,1-.468-1.3,2.142,2.142,0,0,1,.312-1.194,2.2,2.2,0,0,1,.918-.816,3.146,3.146,0,0,1,1.41-.294,3.065,3.065,0,0,1,1.4.3,2.267,2.267,0,0,1,.924.828,2.3,2.3,0,0,1,.342,1.2H103.38a1.468,1.468,0,0,0-.18-.69,1.405,1.405,0,0,0-.546-.558,1.782,1.782,0,0,0-.918-.216,1.661,1.661,0,0,0-1.122.348,1.219,1.219,0,0,0-.438,1,1.082,1.082,0,0,0,.306.828,2.317,2.317,0,0,0,.858.474l1.272.426a6.131,6.131,0,0,1,1.08.5,2.122,2.122,0,0,1,.75.744,2.258,2.258,0,0,1,.27,1.164,2.212,2.212,0,0,1-.312,1.134,2.318,2.318,0,0,1-.942.87A3.328,3.328,0,0,1,101.88.144ZM106.08,0V-8.64h1.008v3.708a2.12,2.12,0,0,1,.852-.858,2.434,2.434,0,0,1,1.2-.306,2.2,2.2,0,0,1,1.656.642,2.737,2.737,0,0,1,.624,1.974V0h-1V-3.372q0-1.86-1.5-1.86a1.728,1.728,0,0,0-1.308.558,2.225,2.225,0,0,0-.528,1.59V0Zm9.54.144a2.916,2.916,0,0,1-1.512-.39,2.769,2.769,0,0,1-1.038-1.086,3.4,3.4,0,0,1-.378-1.644,3.448,3.448,0,0,1,.372-1.638A2.7,2.7,0,0,1,114.1-5.706a3,3,0,0,1,1.542-.39,2.781,2.781,0,0,1,1.494.39A2.642,2.642,0,0,1,118.1-4.68a2.885,2.885,0,0,1,.336,1.368q0,.132-.006.264t-.006.3h-4.74a2.339,2.339,0,0,0,.318,1.134,1.88,1.88,0,0,0,.708.678,1.892,1.892,0,0,0,.906.228A1.8,1.8,0,0,0,116.664-1a1.648,1.648,0,0,0,.612-.78h1A2.686,2.686,0,0,1,117.354-.4,2.677,2.677,0,0,1,115.62.144Zm0-5.388a2.013,2.013,0,0,0-1.278.438,1.765,1.765,0,0,0-.642,1.278h3.744a1.7,1.7,0,0,0-.552-1.26A1.852,1.852,0,0,0,115.62-5.244ZM119.772,0V-8.64h1.008V0Zm2.664,0V-8.64h1.008V0Zm5.352,1.14L130.8-9.168h1L128.784,1.14Zm11.1-1a3.013,3.013,0,0,1-1.53-.39,2.8,2.8,0,0,1-1.068-1.092,3.318,3.318,0,0,1-.39-1.638,3.318,3.318,0,0,1,.39-1.638,2.8,2.8,0,0,1,1.068-1.092,3.013,3.013,0,0,1,1.53-.39,2.858,2.858,0,0,1,1.782.552,2.4,2.4,0,0,1,.918,1.476h-1.032a1.323,1.323,0,0,0-.588-.858,1.95,1.95,0,0,0-1.092-.306,1.89,1.89,0,0,0-.948.252,1.88,1.88,0,0,0-.72.756,2.571,2.571,0,0,0-.276,1.248,2.571,2.571,0,0,0,.276,1.248,1.923,1.923,0,0,0,.72.762,1.856,1.856,0,0,0,.948.258,1.95,1.95,0,0,0,1.092-.306,1.328,1.328,0,0,0,.588-.87h1.032a2.383,2.383,0,0,1-.912,1.464A2.842,2.842,0,0,1,138.888.144Zm7.2,0A3.528,3.528,0,0,1,144.522-.2,2.606,2.606,0,0,1,143.4-1.26a3.6,3.6,0,0,1-.42-1.836V-8.4h1.008v5.316a2.34,2.34,0,0,0,.588,1.776,2.153,2.153,0,0,0,1.536.552,2.111,2.111,0,0,0,1.524-.552,2.37,2.37,0,0,0,.576-1.776V-8.4h1.008v5.3a3.6,3.6,0,0,1-.42,1.836A2.6,2.6,0,0,1,147.672-.2,3.594,3.594,0,0,1,146.088.144ZM150.924,0V-8.4h2.712a3.483,3.483,0,0,1,1.608.324,2.114,2.114,0,0,1,.924.888,2.616,2.616,0,0,1,.3,1.248,2.508,2.508,0,0,1-.426,1.428,2.3,2.3,0,0,1-1.326.9L156.552,0h-1.188l-1.7-3.468h-1.728V0Zm1.008-4.26h1.632a1.875,1.875,0,0,0,1.416-.468,1.673,1.673,0,0,0,.444-1.2,1.6,1.6,0,0,0-.438-1.182,1.972,1.972,0,0,0-1.434-.438h-1.62ZM158.04,0V-8.4h1.008V-.8h3.912V0Z" transform="translate(3048 -3049)" fill="#fff"/>
      <g id="arrow-down-sign-to-navigate" transform="translate(3226.008 -3050.848) rotate(180)">
        <path id="Path_1110" data-name="Path 1110" d="M4.52,97.141a.631.631,0,0,0-.447.185L.186,101.212a.633.633,0,0,0,.9.9L4.52,98.668l3.438,3.438a.633.633,0,0,0,.895-.9L4.967,97.326A.631.631,0,0,0,4.52,97.141Z" transform="translate(-0.001 -97.141)" fill="#fff"/>
      </g>
      <g id="Group_18895" data-name="Group 18895" transform="translate(3371 -3062)">
        <path id="Path_24479" data-name="Path 24479" d="M4,8.941c0-2.329,0-3.494.721-4.217S6.6,4,8.92,4h2.46c2.319,0,3.479,0,4.2.724s.721,1.888.721,4.217v4.118c0,2.329,0,3.494-.721,4.217S13.7,18,11.38,18H8.92c-2.319,0-3.479,0-4.2-.724S4,15.388,4,13.059Z" transform="translate(-0.9 -1)" fill="none" stroke="#fff" stroke-width="0.7"/>
        <path id="Path_24480" data-name="Path 24480" d="M3.46,15A2.465,2.465,0,0,1,1,12.529V7.588c0-3.106,0-4.659.961-5.623S4.468,1,7.56,1h3.28A2.465,2.465,0,0,1,13.3,3.471" fill="none" stroke="#fff" stroke-width="0.7"/>
      </g>
      <rect id="Rectangle_6474" data-name="Rectangle 6474" width="2" height="72" rx="1" transform="translate(3405 -3027)" fill="#8f93a8"/>
    </g>
  </g>
</svg>
