<svg xmlns="http://www.w3.org/2000/svg" width="32.126" height="32" viewBox="0 0 32.126 32">
  <g id="connection" transform="translate(0 -1)">
    <path id="Path_24644" data-name="Path 24644" d="M334.518,426a2.513,2.513,0,0,0-2.326,1.569H330v1.882h2.192A2.51,2.51,0,1,0,334.518,426Z" transform="translate(-309.294 -398.333)" fill="#85e6c4"/>
    <path id="Path_24645" data-name="Path 24645" d="M338.91,312.882a2.493,2.493,0,0,0-1.145.278l-2.33-1.942a.941.941,0,0,0-.6-.218H330v1.882h4.491l2.043,1.7a2.509,2.509,0,1,0,2.376-1.7Z" transform="translate(-309.294 -290.549)" fill="#85e6c4"/>
    <path id="Path_24646" data-name="Path 24646" d="M338.91,216a2.513,2.513,0,0,0-2.326,1.569H330v1.882h6.584A2.51,2.51,0,1,0,338.91,216Z" transform="translate(-309.294 -201.51)" fill="#85e6c4"/>
    <path id="Path_24647" data-name="Path 24647" d="M335.434,97.684l2.33-1.942a2.511,2.511,0,1,0-1.23-1.425l-2.043,1.7H330V97.9h4.831A.941.941,0,0,0,335.434,97.684Z" transform="translate(-309.294 -84.353)" fill="#85e6c4"/>
    <path id="Path_24648" data-name="Path 24648" d="M334.518,11.02a2.51,2.51,0,1,0-2.326-3.451H330V9.451h2.192A2.513,2.513,0,0,0,334.518,11.02Z" transform="translate(-309.294 -4.686)" fill="#85e6c4"/>
    <path id="Path_24649" data-name="Path 24649" d="M150,157.588a6.587,6.587,0,0,0,9.412,5.952v-11.9A6.587,6.587,0,0,0,150,157.588Z" transform="translate(-140.588 -140.588)" fill="#6d44e5"/>
    <path id="Path_24650" data-name="Path 24650" d="M17.882,1H14.118a.941.941,0,0,0-.941.941V3.166A14.122,14.122,0,0,0,8.215,5.222l-.867-.866a.941.941,0,0,0-1.331,0L3.355,7.017a.941.941,0,0,0,0,1.331l.866.867a14.122,14.122,0,0,0-2.055,4.962H.941A.941.941,0,0,0,0,15.118v3.765a.941.941,0,0,0,.941.941H2.166a14.122,14.122,0,0,0,2.055,4.962l-.867.867a.941.941,0,0,0,0,1.331l2.662,2.662a.941.941,0,0,0,1.331,0l.867-.866a14.123,14.123,0,0,0,4.962,2.055v1.225a.941.941,0,0,0,.941.941h3.765a.941.941,0,0,0,.941-.941V24.986a8.471,8.471,0,1,1,0-15.972V1.941A.941.941,0,0,0,17.882,1Z" fill="#6d44e5"/>
  </g>
</svg>
