<svg xmlns="http://www.w3.org/2000/svg" width="24" height="32" viewBox="0 0 24 32">
  <g id="Group_8642" data-name="Group 8642" transform="translate(-880.634 -627.06)">
    <path id="Path_15373" data-name="Path 15373" d="M22.5,0h-3a1.9,1.9,0,0,0-1.061.3A.9.9,0,0,0,18,1.029v17.49h6V1.029A.9.9,0,0,0,23.561.3,1.9,1.9,0,0,0,22.5,0Zm-9,6.176h-3a1.9,1.9,0,0,0-1.061.3A.9.9,0,0,0,9,7.2V18.519h6V7.2a.9.9,0,0,0-.439-.728A1.9,1.9,0,0,0,13.5,6.176Zm-9,6.176h-3a1.9,1.9,0,0,0-1.061.3A.9.9,0,0,0,0,13.381v5.138H6V13.381a.9.9,0,0,0-.439-.728A1.9,1.9,0,0,0,4.5,12.351Z" transform="translate(880.634 640.541)" fill="#6d44e5"/>
    <path id="Path_15374" data-name="Path 15374" d="M15.7,3.921H0V6.535H15.7v3.921l5.215-5.228L15.7,0Z" transform="translate(880.634 637.516) rotate(-30)" fill="#85e6c4"/>
  </g>
</svg>
