<svg xmlns="http://www.w3.org/2000/svg" width="26.72" height="32.425" viewBox="0 0 26.72 32.425">
  <g id="Group_9068" data-name="Group 9068" transform="translate(-145 -4211)">
    <path id="Subtraction_18" data-name="Subtraction 18" d="M-4511.256,32a.909.909,0,0,1-.271-.045.765.765,0,0,1-.592-.792V19.528h-3.253a1.581,1.581,0,0,1-1.161-.469A1.577,1.577,0,0,1-4517,17.9V1.627a1.585,1.585,0,0,1,.467-1.16A1.584,1.584,0,0,1-4515.372,0h12.123a1.573,1.573,0,0,1,1.383.732,1.517,1.517,0,0,1,.123,1.546l-5.493,12.367h3.662a1.562,1.562,0,0,1,1.083.392A9.5,9.5,0,0,0-4508.5,24a9.954,9.954,0,0,0,.493,3.109l-2.606,4.46A.732.732,0,0,1-4511.256,32Z" transform="translate(4662 4211)" fill="#6d44e5"/>
    <path id="Path_17633" data-name="Path 17633" d="M16,6.04,17.344,4.7a13.645,13.645,0,0,0-1.333-1.333L14.669,4.726a8.378,8.378,0,0,0-5.312-1.89A8.521,8.521,0,1,0,16,6.04Zm-5.7,6.248H8.412V5.671H10.3ZM12.193,0H6.521V1.89h5.671Z" transform="translate(153.856 4223.575)" fill="#85e6c4"/>
  </g>
</svg>
