<svg xmlns="http://www.w3.org/2000/svg" width="60.175" height="32.001" viewBox="0 0 60.175 32.001">
  <g id="Group_18941" data-name="Group 18941" transform="translate(-145 -3202)">
    <path id="Subtraction_59" data-name="Subtraction 59" d="M-1303.887,6073h-23.1a2,2,0,0,1-1.421-.588,2,2,0,0,1-.588-1.42v-5.856h1.036a4.989,4.989,0,0,0,2.017-.424,4.988,4.988,0,0,0,1.7-1.224,4.967,4.967,0,0,0,1.053-1.808,5,5,0,0,0,.224-2.079,5.17,5.17,0,0,0-1.745-3.251,5.184,5.184,0,0,0-3.386-1.261H-1329v-7.2a2,2,0,0,1,.588-1.42,2,2,0,0,1,1.421-.588h7.032a5,5,0,0,1,.476-2,4.993,4.993,0,0,1,1.233-1.638,4.98,4.98,0,0,1,1.786-1.007,5.015,5.015,0,0,1,1.527-.238,5.109,5.109,0,0,1,.512.026,5.177,5.177,0,0,1,3.135,1.608,5.165,5.165,0,0,1,1.375,3.245h6.028a2.022,2.022,0,0,1,1.421.588,2,2,0,0,1,.588,1.42v7.2h.9a5.183,5.183,0,0,1,3.386,1.261,5.161,5.161,0,0,1,1.745,3.251,4.972,4.972,0,0,1-.224,2.079,4.988,4.988,0,0,1-1.052,1.808,5,5,0,0,1-1.7,1.224,4.988,4.988,0,0,1-2.017.424h-1.036v5.857a2,2,0,0,1-.588,1.42A2.022,2.022,0,0,1-1303.887,6073Z" transform="translate(1501 -2838.999)" fill="#85e6c4"/>
    <path id="Subtraction_60" data-name="Subtraction 60" d="M-1303.887,6073h-23.1a2,2,0,0,1-1.421-.588,2,2,0,0,1-.588-1.42v-5.856h1.036a4.989,4.989,0,0,0,2.017-.424,4.988,4.988,0,0,0,1.7-1.224,4.967,4.967,0,0,0,1.053-1.808,5,5,0,0,0,.224-2.079,5.17,5.17,0,0,0-1.745-3.251,5.184,5.184,0,0,0-3.386-1.261H-1329v-7.2a2,2,0,0,1,.588-1.42,2,2,0,0,1,1.421-.588h7.032a5,5,0,0,1,.476-2,4.993,4.993,0,0,1,1.233-1.638,4.98,4.98,0,0,1,1.786-1.007,5.015,5.015,0,0,1,1.527-.238,5.109,5.109,0,0,1,.512.026,5.177,5.177,0,0,1,3.135,1.608,5.165,5.165,0,0,1,1.375,3.245h6.028a2.022,2.022,0,0,1,1.421.588,2,2,0,0,1,.588,1.42v7.2h.9a5.183,5.183,0,0,1,3.386,1.261,5.161,5.161,0,0,1,1.745,3.251,4.972,4.972,0,0,1-.224,2.079,4.988,4.988,0,0,1-1.052,1.808,5,5,0,0,1-1.7,1.224,4.988,4.988,0,0,1-2.017.424h-1.036v5.857a2,2,0,0,1-.588,1.42A2.022,2.022,0,0,1-1303.887,6073Z" transform="translate(1474 -2838.999)" fill="#6d44e5"/>
  </g>
</svg>
