<svg xmlns="http://www.w3.org/2000/svg" xmlns:xlink="http://www.w3.org/1999/xlink" width="455" height="324" viewBox="0 0 455 324">
  <defs>
    <filter id="Path_24483">
      <feOffset dy="3" input="SourceAlpha"/>
      <feGaussianBlur stdDeviation="3" result="blur"/>
      <feFlood flood-color="#fff" flood-opacity="0.161" result="color"/>
      <feComposite operator="out" in="SourceGraphic" in2="blur"/>
      <feComposite operator="in" in="color"/>
      <feComposite operator="in" in2="SourceGraphic"/>
    </filter>
    <filter id="Rectangle_6478" x="13" y="0" width="430" height="298" filterUnits="userSpaceOnUse">
      <feOffset input="SourceAlpha"/>
      <feGaussianBlur stdDeviation="5" result="blur-2"/>
      <feFlood flood-opacity="0.059"/>
      <feComposite operator="in" in2="blur-2"/>
      <feComposite in="SourceGraphic"/>
    </filter>
    <clipPath id="clip-path">
      <path id="Rectangle_6485" data-name="Rectangle 6485" d="M0,0H400a0,0,0,0,1,0,0V0a9,9,0,0,1-9,9H9A9,9,0,0,1,0,0V0A0,0,0,0,1,0,0Z" transform="translate(3467 -2500)" fill="#fff"/>
    </clipPath>
    <linearGradient id="linear-gradient" x1="0.5" y1="-0.413" x2="0.5" y2="1" gradientUnits="objectBoundingBox">
      <stop offset="0" stop-color="#fff" stop-opacity="0"/>
      <stop offset="1" stop-color="#fff"/>
    </linearGradient>
    <filter id="Path_24487" x="47" y="39" width="210" height="285" filterUnits="userSpaceOnUse">
      <feOffset input="SourceAlpha"/>
      <feGaussianBlur stdDeviation="5" result="blur-3"/>
      <feFlood flood-opacity="0.161"/>
      <feComposite operator="in" in2="blur-3"/>
      <feComposite in="SourceGraphic"/>
    </filter>
  </defs>
  <g id="Group_18917" data-name="Group 18917" transform="translate(-2963 2759)">
    <g transform="matrix(1, 0, 0, 1, 2963, -2759)" filter="url(#Path_24483)">
      <path id="Path_24483-2" data-name="Path 24483" d="M0,0H455V310H0Z" transform="translate(0 7)" fill="#fff"/>
    </g>
    <g id="Group_18906" data-name="Group 18906" transform="translate(-476 15)">
      <g transform="matrix(1, 0, 0, 1, 3439, -2774)" filter="url(#Rectangle_6478)">
        <rect id="Rectangle_6478-2" data-name="Rectangle 6478" width="400" height="268" rx="10" transform="translate(28 15)" fill="#fff"/>
      </g>
      <path id="Rectangle_6479" data-name="Rectangle 6479" d="M10,0H390a10,10,0,0,1,10,10V36a0,0,0,0,1,0,0H0a0,0,0,0,1,0,0V10A10,10,0,0,1,10,0Z" transform="translate(3467 -2759)" fill="#f0ecfd"/>
      <path id="Path_24519" data-name="Path 24519" d="M.71,0V-7H1.77V-.84H4.95V0ZM7.73.12A2.273,2.273,0,0,1,6.69-.09a1.438,1.438,0,0,1-.61-.555,1.479,1.479,0,0,1-.2-.755,1.35,1.35,0,0,1,.56-1.14,2.628,2.628,0,0,1,1.6-.42h1.3v-.09a1.125,1.125,0,0,0-.315-.87,1.156,1.156,0,0,0-.815-.29A1.354,1.354,0,0,0,7.445-4a.9.9,0,0,0-.395.635H5.99a1.667,1.667,0,0,1,.365-.925,2.041,2.041,0,0,1,.8-.59,2.708,2.708,0,0,1,1.065-.2,2.237,2.237,0,0,1,1.61.545A1.957,1.957,0,0,1,10.4-3.05V0H9.48L9.39-.85a1.885,1.885,0,0,1-.61.69A1.794,1.794,0,0,1,7.73.12Zm.21-.86a1.239,1.239,0,0,0,.725-.2,1.387,1.387,0,0,0,.46-.545,2.19,2.19,0,0,0,.2-.75H8.15a1.414,1.414,0,0,0-.895.22.686.686,0,0,0-.265.55.637.637,0,0,0,.255.535A1.118,1.118,0,0,0,7.94-.74Zm6.49.86a2.2,2.2,0,0,1-1.025-.23A1.767,1.767,0,0,1,12.7-.76L12.59,0h-.95V-7.2H12.7v3.01a2.277,2.277,0,0,1,.66-.62,1.965,1.965,0,0,1,1.08-.27,2.365,2.365,0,0,1,1.27.34,2.4,2.4,0,0,1,.865.93,2.8,2.8,0,0,1,.315,1.34,2.771,2.771,0,0,1-.315,1.335,2.371,2.371,0,0,1-.865.92A2.412,2.412,0,0,1,14.43.12ZM14.25-.8a1.475,1.475,0,0,0,1.12-.465,1.7,1.7,0,0,0,.44-1.215,1.84,1.84,0,0,0-.2-.87,1.505,1.505,0,0,0-.55-.595,1.516,1.516,0,0,0-.81-.215,1.451,1.451,0,0,0-1.115.47A1.711,1.711,0,0,0,12.7-2.48a1.707,1.707,0,0,0,.435,1.215A1.459,1.459,0,0,0,14.25-.8Zm6.11.92a2.55,2.55,0,0,1-1.3-.325,2.311,2.311,0,0,1-.885-.905,2.75,2.75,0,0,1-.32-1.35,2.866,2.866,0,0,1,.315-1.37,2.294,2.294,0,0,1,.88-.92,2.56,2.56,0,0,1,1.315-.33,2.416,2.416,0,0,1,1.27.325,2.3,2.3,0,0,1,.84.865,2.409,2.409,0,0,1,.3,1.19q0,.1,0,.215t-.015.255H18.9a1.533,1.533,0,0,0,.475,1.1,1.444,1.444,0,0,0,.985.375,1.323,1.323,0,0,0,.755-.205,1.242,1.242,0,0,0,.455-.555h1.06a2.251,2.251,0,0,1-.8,1.17A2.306,2.306,0,0,1,20.36.12Zm0-4.33a1.5,1.5,0,0,0-.94.315,1.378,1.378,0,0,0-.5.945h2.8a1.266,1.266,0,0,0-.41-.92A1.372,1.372,0,0,0,20.36-4.21ZM23.88,0V-7.2h1.06V0Z" transform="translate(3517 -2737)" fill="#2a2a2a"/>
      <path id="Path_24520" data-name="Path 24520" d="M.71,0V-7H2.98a4.231,4.231,0,0,1,2.025.43,2.717,2.717,0,0,1,1.18,1.215A4.194,4.194,0,0,1,6.57-3.49a4.17,4.17,0,0,1-.385,1.855,2.689,2.689,0,0,1-1.18,1.21A4.272,4.272,0,0,1,2.98,0ZM1.77-.9H2.94a3.1,3.1,0,0,0,1.505-.31,1.793,1.793,0,0,0,.8-.89A3.563,3.563,0,0,0,5.49-3.49a3.638,3.638,0,0,0-.245-1.4,1.812,1.812,0,0,0-.8-.905A3.053,3.053,0,0,0,2.94-6.11H1.77ZM10.02.12a2.55,2.55,0,0,1-1.3-.325A2.311,2.311,0,0,1,7.84-1.11a2.75,2.75,0,0,1-.32-1.35,2.866,2.866,0,0,1,.315-1.37,2.294,2.294,0,0,1,.88-.92,2.56,2.56,0,0,1,1.315-.33,2.416,2.416,0,0,1,1.27.325,2.3,2.3,0,0,1,.84.865,2.409,2.409,0,0,1,.3,1.19q0,.1-.005.215t-.015.255H8.56a1.533,1.533,0,0,0,.475,1.1,1.444,1.444,0,0,0,.985.375,1.323,1.323,0,0,0,.755-.205,1.242,1.242,0,0,0,.455-.555h1.06a2.251,2.251,0,0,1-.8,1.17A2.306,2.306,0,0,1,10.02.12Zm0-4.33a1.5,1.5,0,0,0-.94.315,1.378,1.378,0,0,0-.5.945h2.8a1.266,1.266,0,0,0-.41-.92A1.372,1.372,0,0,0,10.02-4.21ZM15.52.12a2.5,2.5,0,0,1-1.55-.46,1.723,1.723,0,0,1-.7-1.22h1.07a1.059,1.059,0,0,0,.38.585,1.21,1.21,0,0,0,.79.245,1.021,1.021,0,0,0,.7-.2.607.607,0,0,0,.22-.46.51.51,0,0,0-.305-.515,4.271,4.271,0,0,0-.845-.245,6.4,6.4,0,0,1-.835-.24,1.846,1.846,0,0,1-.69-.425,1.007,1.007,0,0,1-.275-.745,1.38,1.38,0,0,1,.5-1.085,2.065,2.065,0,0,1,1.4-.435,2.131,2.131,0,0,1,1.345.4,1.613,1.613,0,0,1,.6,1.13H16.31a.734.734,0,0,0-.3-.5,1.082,1.082,0,0,0-.655-.18,1.016,1.016,0,0,0-.62.165.509.509,0,0,0-.22.425.457.457,0,0,0,.3.41,3.954,3.954,0,0,0,.805.27,8.574,8.574,0,0,1,.925.255,1.633,1.633,0,0,1,.685.425,1.164,1.164,0,0,1,.26.82,1.387,1.387,0,0,1-.525,1.13A2.189,2.189,0,0,1,15.52.12Zm5.49,0A2.574,2.574,0,0,1,19.7-.21a2.351,2.351,0,0,1-.9-.915A2.744,2.744,0,0,1,18.48-2.48a2.744,2.744,0,0,1,.325-1.355,2.351,2.351,0,0,1,.9-.915,2.574,2.574,0,0,1,1.305-.33,2.461,2.461,0,0,1,1.545.48,2.167,2.167,0,0,1,.805,1.3H22.25a1.044,1.044,0,0,0-.44-.64,1.393,1.393,0,0,0-.8-.23,1.39,1.39,0,0,0-.72.195,1.417,1.417,0,0,0-.53.57,1.947,1.947,0,0,0-.2.925,1.947,1.947,0,0,0,.2.925,1.453,1.453,0,0,0,.53.575,1.363,1.363,0,0,0,.72.2,1.393,1.393,0,0,0,.8-.23,1.047,1.047,0,0,0,.44-.65h1.11a2.148,2.148,0,0,1-.8,1.29A2.448,2.448,0,0,1,21.01.12ZM24.51,0V-4.96h.95l.09.94a1.98,1.98,0,0,1,.725-.775A2.113,2.113,0,0,1,27.4-5.08v1.11h-.29a2.01,2.01,0,0,0-.785.145,1.149,1.149,0,0,0-.55.49,1.873,1.873,0,0,0-.2.955V0Zm4.4-5.9a.69.69,0,0,1-.5-.185.614.614,0,0,1-.195-.465.614.614,0,0,1,.195-.465.69.69,0,0,1,.5-.185.69.69,0,0,1,.495.185.614.614,0,0,1,.195.465.614.614,0,0,1-.195.465A.69.69,0,0,1,28.91-5.9ZM28.38,0V-4.96h1.06V0Zm2.46,2.2V-4.96h.95l.11.77a2.277,2.277,0,0,1,.66-.62,1.965,1.965,0,0,1,1.08-.27,2.365,2.365,0,0,1,1.27.34,2.4,2.4,0,0,1,.865.93,2.8,2.8,0,0,1,.315,1.34,2.771,2.771,0,0,1-.315,1.335,2.371,2.371,0,0,1-.865.92A2.411,2.411,0,0,1,33.63.12,2.2,2.2,0,0,1,32.6-.11a1.767,1.767,0,0,1-.7-.65V2.2Zm2.61-3a1.475,1.475,0,0,0,1.12-.465,1.7,1.7,0,0,0,.44-1.215,1.84,1.84,0,0,0-.2-.87,1.505,1.505,0,0,0-.55-.595,1.516,1.516,0,0,0-.81-.215,1.451,1.451,0,0,0-1.115.47A1.711,1.711,0,0,0,31.9-2.48a1.707,1.707,0,0,0,.435,1.215A1.459,1.459,0,0,0,33.45-.8Zm5.67.8a1.766,1.766,0,0,1-1.16-.355,1.568,1.568,0,0,1-.43-1.265V-4.07h-.85v-.89h.85l.13-1.26h.93v1.26h1.4v.89h-1.4v2.45a.734.734,0,0,0,.175.565.916.916,0,0,0,.6.155h.57V0Zm2.56-5.9a.69.69,0,0,1-.495-.185.614.614,0,0,1-.195-.465.614.614,0,0,1,.195-.465A.69.69,0,0,1,41.68-7.2a.69.69,0,0,1,.495.185.614.614,0,0,1,.195.465.614.614,0,0,1-.195.465A.69.69,0,0,1,41.68-5.9ZM41.15,0V-4.96h1.06V0Zm4.78.12a2.511,2.511,0,0,1-1.275-.325,2.372,2.372,0,0,1-.9-.91,2.732,2.732,0,0,1-.33-1.365,2.7,2.7,0,0,1,.335-1.365,2.4,2.4,0,0,1,.9-.91,2.518,2.518,0,0,1,1.27-.325,2.511,2.511,0,0,1,1.275.325,2.408,2.408,0,0,1,.9.91A2.7,2.7,0,0,1,48.45-2.48a2.7,2.7,0,0,1-.335,1.365,2.4,2.4,0,0,1-.9.91A2.538,2.538,0,0,1,45.93.12Zm0-.91a1.373,1.373,0,0,0,.7-.19,1.393,1.393,0,0,0,.525-.565,1.97,1.97,0,0,0,.2-.935,2.013,2.013,0,0,0-.195-.935,1.361,1.361,0,0,0-.52-.565,1.373,1.373,0,0,0-.7-.19,1.373,1.373,0,0,0-.7.19,1.393,1.393,0,0,0-.525.565,1.97,1.97,0,0,0-.2.935,1.97,1.97,0,0,0,.2.935,1.405,1.405,0,0,0,.52.565A1.346,1.346,0,0,0,45.93-.79ZM49.6,0V-4.96h.94l.08.87a1.727,1.727,0,0,1,.675-.725A1.965,1.965,0,0,1,52.32-5.08a1.827,1.827,0,0,1,1.415.56,2.391,2.391,0,0,1,.515,1.67V0H53.2V-2.74q0-1.44-1.18-1.44a1.265,1.265,0,0,0-.975.42,1.713,1.713,0,0,0-.385,1.2V0Z" transform="translate(3613 -2737)" fill="#2a2a2a"/>
      <path id="Path_24521" data-name="Path 24521" d="M3.02.12A3.168,3.168,0,0,1,1.67-.15a2.116,2.116,0,0,1-.9-.77A2.2,2.2,0,0,1,.43-2.11H1.55a1.347,1.347,0,0,0,.39.95,1.425,1.425,0,0,0,1.07.39,1.423,1.423,0,0,0,.955-.3A.949.949,0,0,0,4.31-1.82a1.006,1.006,0,0,0-.165-.6A1.268,1.268,0,0,0,3.7-2.8a4.172,4.172,0,0,0-.655-.27q-.37-.12-.78-.26a2.9,2.9,0,0,1-1.215-.7A1.581,1.581,0,0,1,.64-5.16,1.794,1.794,0,0,1,.915-6.19a1.9,1.9,0,0,1,.8-.685A2.777,2.777,0,0,1,2.92-7.12a2.706,2.706,0,0,1,1.2.25,1.955,1.955,0,0,1,.8.695,1.914,1.914,0,0,1,.3,1.035H4.1a1.023,1.023,0,0,0-.14-.515,1.112,1.112,0,0,0-.41-.4,1.274,1.274,0,0,0-.66-.16,1.238,1.238,0,0,0-.825.25.871.871,0,0,0-.325.72.812.812,0,0,0,.24.63,1.869,1.869,0,0,0,.66.365q.42.145.96.335a4.771,4.771,0,0,1,.93.41,1.884,1.884,0,0,1,.655.63,1.831,1.831,0,0,1,.245.99A1.9,1.9,0,0,1,5.16-.9a1.992,1.992,0,0,1-.81.74A2.823,2.823,0,0,1,3.02.12ZM8.63,0A1.766,1.766,0,0,1,7.47-.355,1.568,1.568,0,0,1,7.04-1.62V-4.07H6.19v-.89h.85l.13-1.26H8.1v1.26H9.5v.89H8.1v2.45a.734.734,0,0,0,.175.565A.916.916,0,0,0,8.88-.9h.57V0Zm3.64.12a2.273,2.273,0,0,1-1.04-.21,1.438,1.438,0,0,1-.61-.555,1.479,1.479,0,0,1-.2-.755,1.35,1.35,0,0,1,.56-1.14,2.628,2.628,0,0,1,1.6-.42h1.3v-.09a1.125,1.125,0,0,0-.315-.87,1.156,1.156,0,0,0-.815-.29A1.354,1.354,0,0,0,11.985-4a.9.9,0,0,0-.4.635H10.53a1.667,1.667,0,0,1,.365-.925,2.041,2.041,0,0,1,.8-.59,2.708,2.708,0,0,1,1.065-.2,2.237,2.237,0,0,1,1.61.545,1.957,1.957,0,0,1,.57,1.485V0h-.92l-.09-.85a1.885,1.885,0,0,1-.61.69A1.794,1.794,0,0,1,12.27.12Zm.21-.86a1.239,1.239,0,0,0,.725-.2,1.387,1.387,0,0,0,.46-.545,2.19,2.19,0,0,0,.2-.75H12.69a1.414,1.414,0,0,0-.9.22.686.686,0,0,0-.265.55.637.637,0,0,0,.255.535A1.118,1.118,0,0,0,12.48-.74ZM18.16,0A1.766,1.766,0,0,1,17-.355a1.568,1.568,0,0,1-.43-1.265V-4.07h-.85v-.89h.85l.13-1.26h.93v1.26h1.4v.89h-1.4v2.45a.734.734,0,0,0,.175.565.916.916,0,0,0,.6.155h.57V0Zm3.79.12a1.827,1.827,0,0,1-1.415-.56,2.391,2.391,0,0,1-.515-1.67V-4.96h1.06v2.74q0,1.44,1.18,1.44a1.25,1.25,0,0,0,.97-.42,1.728,1.728,0,0,0,.38-1.2V-4.96h1.06V0h-.94l-.08-.87a1.727,1.727,0,0,1-.675.725A1.965,1.965,0,0,1,21.95.12ZM28,.12a2.5,2.5,0,0,1-1.55-.46,1.723,1.723,0,0,1-.7-1.22h1.07a1.059,1.059,0,0,0,.38.585,1.21,1.21,0,0,0,.79.245,1.021,1.021,0,0,0,.7-.2.607.607,0,0,0,.22-.46.51.51,0,0,0-.305-.515,4.271,4.271,0,0,0-.845-.245,6.4,6.4,0,0,1-.835-.24,1.846,1.846,0,0,1-.69-.425,1.007,1.007,0,0,1-.275-.745,1.38,1.38,0,0,1,.5-1.085,2.065,2.065,0,0,1,1.4-.435,2.131,2.131,0,0,1,1.345.4,1.613,1.613,0,0,1,.605,1.13H28.79a.734.734,0,0,0-.3-.5,1.082,1.082,0,0,0-.655-.18,1.016,1.016,0,0,0-.62.165A.509.509,0,0,0,27-3.64a.457.457,0,0,0,.305.41,3.954,3.954,0,0,0,.805.27,8.574,8.574,0,0,1,.925.255,1.633,1.633,0,0,1,.685.425,1.164,1.164,0,0,1,.26.82,1.387,1.387,0,0,1-.525,1.13A2.189,2.189,0,0,1,28,.12Z" transform="translate(3726 -2737)" fill="#2a2a2a"/>
      <path id="Path_24522" data-name="Path 24522" d="M.26,0,2.84-7H4L6.56,0H5.44l-.6-1.71H1.98L1.38,0ZM2.28-2.55H4.54L3.41-5.74ZM9.6.12A2.574,2.574,0,0,1,8.3-.21a2.351,2.351,0,0,1-.9-.915A2.744,2.744,0,0,1,7.07-2.48a2.744,2.744,0,0,1,.325-1.355,2.351,2.351,0,0,1,.9-.915A2.574,2.574,0,0,1,9.6-5.08a2.461,2.461,0,0,1,1.545.48,2.167,2.167,0,0,1,.8,1.3H10.84a1.044,1.044,0,0,0-.44-.64,1.393,1.393,0,0,0-.8-.23,1.39,1.39,0,0,0-.72.195,1.417,1.417,0,0,0-.53.57,1.947,1.947,0,0,0-.2.925,1.947,1.947,0,0,0,.2.925,1.453,1.453,0,0,0,.53.575,1.363,1.363,0,0,0,.72.2,1.393,1.393,0,0,0,.8-.23,1.047,1.047,0,0,0,.44-.65h1.11a2.148,2.148,0,0,1-.8,1.29A2.448,2.448,0,0,1,9.6.12ZM15.08,0a1.766,1.766,0,0,1-1.16-.355,1.568,1.568,0,0,1-.43-1.265V-4.07h-.85v-.89h.85l.13-1.26h.93v1.26h1.4v.89h-1.4v2.45a.734.734,0,0,0,.175.565.916.916,0,0,0,.6.155h.57V0Zm2.56-5.9a.69.69,0,0,1-.5-.185.614.614,0,0,1-.195-.465.614.614,0,0,1,.195-.465.69.69,0,0,1,.5-.185.69.69,0,0,1,.495.185.614.614,0,0,1,.195.465.614.614,0,0,1-.195.465A.69.69,0,0,1,17.64-5.9ZM17.11,0V-4.96h1.06V0Zm4.78.12a2.511,2.511,0,0,1-1.275-.325,2.372,2.372,0,0,1-.9-.91,2.732,2.732,0,0,1-.33-1.365,2.7,2.7,0,0,1,.335-1.365,2.4,2.4,0,0,1,.9-.91A2.518,2.518,0,0,1,21.9-5.08a2.511,2.511,0,0,1,1.275.325,2.408,2.408,0,0,1,.9.91A2.7,2.7,0,0,1,24.41-2.48a2.7,2.7,0,0,1-.335,1.365,2.4,2.4,0,0,1-.9.91A2.538,2.538,0,0,1,21.89.12Zm0-.91a1.373,1.373,0,0,0,.7-.19,1.393,1.393,0,0,0,.525-.565,1.97,1.97,0,0,0,.2-.935,2.013,2.013,0,0,0-.195-.935,1.361,1.361,0,0,0-.52-.565,1.373,1.373,0,0,0-.7-.19,1.373,1.373,0,0,0-.7.19,1.393,1.393,0,0,0-.525.565,1.97,1.97,0,0,0-.2.935,1.97,1.97,0,0,0,.2.935,1.405,1.405,0,0,0,.52.565A1.346,1.346,0,0,0,21.89-.79ZM25.56,0V-4.96h.94l.08.87a1.727,1.727,0,0,1,.675-.725A1.965,1.965,0,0,1,28.28-5.08a1.827,1.827,0,0,1,1.415.56,2.391,2.391,0,0,1,.515,1.67V0H29.16V-2.74q0-1.44-1.18-1.44A1.265,1.265,0,0,0,27-3.76a1.713,1.713,0,0,0-.385,1.2V0Z" transform="translate(3802 -2737)" fill="#2a2a2a"/>
      <g id="Group_18908" data-name="Group 18908">
        <path id="Path_24516" data-name="Path 24516" d="M6,0H52a6,6,0,0,1,0,12H6A6,6,0,0,1,6,0Z" transform="translate(3501 -2709)" fill="#f5f6fa"/>
        <path id="Path_24517" data-name="Path 24517" d="M6,0H108a6,6,0,0,1,0,12H6A6,6,0,0,1,6,0Z" transform="translate(3584 -2709)" fill="#f5f6fa"/>
        <path id="Path_24484" data-name="Path 24484" d="M3,0A3,3,0,1,1,0,3,3,3,0,0,1,3,0Z" transform="translate(3725 -2706)" fill="#69d57a"/>
        <path id="Path_24518" data-name="Path 24518" d="M.24,0,2.3-5.6h.712L5.072,0H4.36L3.848-1.44H1.464L.944,0ZM1.664-1.984H3.648L2.656-4.752ZM7.472.1a2.008,2.008,0,0,1-1.02-.26A1.869,1.869,0,0,1,5.74-.892a2.212,2.212,0,0,1-.26-1.092,2.212,2.212,0,0,1,.26-1.092A1.869,1.869,0,0,1,6.452-3.8a2.008,2.008,0,0,1,1.02-.26A1.906,1.906,0,0,1,8.66-3.7a1.6,1.6,0,0,1,.612.984H8.584a.882.882,0,0,0-.392-.572,1.3,1.3,0,0,0-.728-.2,1.26,1.26,0,0,0-.632.168,1.253,1.253,0,0,0-.48.5,1.714,1.714,0,0,0-.184.832,1.714,1.714,0,0,0,.184.832,1.282,1.282,0,0,0,.48.508,1.238,1.238,0,0,0,.632.172,1.3,1.3,0,0,0,.728-.2.885.885,0,0,0,.392-.58h.688a1.589,1.589,0,0,1-.608.976A1.9,1.9,0,0,1,7.472.1ZM11.664,0a1.284,1.284,0,0,1-.856-.264,1.2,1.2,0,0,1-.312-.952V-3.4H9.808v-.568H10.5l.088-.952h.584v.952h1.168V-3.4H11.168v2.184a.66.66,0,0,0,.152.508.828.828,0,0,0,.536.132h.416V0ZM13.6-4.848a.45.45,0,0,1-.332-.132.45.45,0,0,1-.132-.332.427.427,0,0,1,.132-.32A.458.458,0,0,1,13.6-5.76a.461.461,0,0,1,.328.128.421.421,0,0,1,.136.32.443.443,0,0,1-.136.332A.454.454,0,0,1,13.6-4.848ZM13.264,0V-3.968h.672V0Zm2.984,0-1.5-3.968h.7L16.64-.648l1.2-3.32h.688L17.024,0Zm4.608.1a1.944,1.944,0,0,1-1.008-.26,1.846,1.846,0,0,1-.692-.724,2.263,2.263,0,0,1-.252-1.1,2.3,2.3,0,0,1,.248-1.092,1.8,1.8,0,0,1,.692-.728,2,2,0,0,1,1.028-.26,1.854,1.854,0,0,1,1,.26,1.762,1.762,0,0,1,.644.684,1.923,1.923,0,0,1,.224.912q0,.088,0,.176t0,.2h-3.16a1.559,1.559,0,0,0,.212.756,1.253,1.253,0,0,0,.472.452,1.261,1.261,0,0,0,.6.152,1.2,1.2,0,0,0,.7-.192,1.1,1.1,0,0,0,.408-.52h.664a1.791,1.791,0,0,1-.612.916A1.785,1.785,0,0,1,20.856.1Zm0-3.592A1.342,1.342,0,0,0,20-3.2a1.176,1.176,0,0,0-.428.852h2.5a1.135,1.135,0,0,0-.368-.84A1.235,1.235,0,0,0,20.856-3.5Z" transform="translate(3735 -2700)" fill="#2a2a2a"/>
        <g id="Group_18907" data-name="Group 18907" transform="translate(93 -53)">
          <g id="Rectangle_6484" data-name="Rectangle 6484" transform="translate(3696 -2657)" fill="#f5f6fa" stroke="#e6e6e6" stroke-width="1">
            <rect width="58" height="14" rx="2" stroke="none"/>
            <rect x="0.5" y="0.5" width="57" height="13" rx="1.5" fill="none"/>
          </g>
          <text id="Action" transform="translate(3704 -2647)" fill="#2a2a2a" font-size="8" font-family="DMSans-Regular, DM Sans"><tspan x="0" y="0">Action</tspan></text>
          <g id="arrow-down-sign-to-navigate" transform="translate(3746.008 -2647.58) rotate(180)">
            <path id="Path_1110" data-name="Path 1110" d="M3,97.141a.419.419,0,0,0-.3.123l-2.58,2.58a.42.42,0,1,0,.594.594L3,98.155l2.283,2.283a.42.42,0,1,0,.594-.594L3.3,97.263A.419.419,0,0,0,3,97.141Z" transform="translate(-0.001 -97.141)" fill="#2a2a2a"/>
          </g>
        </g>
      </g>
      <g id="Group_18908-2" data-name="Group 18908" transform="translate(0 30)">
        <path id="Path_24513" data-name="Path 24513" d="M6,0H52a6,6,0,0,1,0,12H6A6,6,0,0,1,6,0Z" transform="translate(3501 -2709)" fill="#f5f6fa"/>
        <path id="Path_24514" data-name="Path 24514" d="M6,0H108a6,6,0,0,1,0,12H6A6,6,0,0,1,6,0Z" transform="translate(3584 -2709)" fill="#f5f6fa"/>
        <path id="Path_24484-2" data-name="Path 24484" d="M3,0A3,3,0,1,1,0,3,3,3,0,0,1,3,0Z" transform="translate(3725 -2706)" fill="#69d57a"/>
        <path id="Path_24515" data-name="Path 24515" d="M.24,0,2.3-5.6h.712L5.072,0H4.36L3.848-1.44H1.464L.944,0ZM1.664-1.984H3.648L2.656-4.752ZM7.472.1a2.008,2.008,0,0,1-1.02-.26A1.869,1.869,0,0,1,5.74-.892a2.212,2.212,0,0,1-.26-1.092,2.212,2.212,0,0,1,.26-1.092A1.869,1.869,0,0,1,6.452-3.8a2.008,2.008,0,0,1,1.02-.26A1.906,1.906,0,0,1,8.66-3.7a1.6,1.6,0,0,1,.612.984H8.584a.882.882,0,0,0-.392-.572,1.3,1.3,0,0,0-.728-.2,1.26,1.26,0,0,0-.632.168,1.253,1.253,0,0,0-.48.5,1.714,1.714,0,0,0-.184.832,1.714,1.714,0,0,0,.184.832,1.282,1.282,0,0,0,.48.508,1.238,1.238,0,0,0,.632.172,1.3,1.3,0,0,0,.728-.2.885.885,0,0,0,.392-.58h.688a1.589,1.589,0,0,1-.608.976A1.9,1.9,0,0,1,7.472.1ZM11.664,0a1.284,1.284,0,0,1-.856-.264,1.2,1.2,0,0,1-.312-.952V-3.4H9.808v-.568H10.5l.088-.952h.584v.952h1.168V-3.4H11.168v2.184a.66.66,0,0,0,.152.508.828.828,0,0,0,.536.132h.416V0ZM13.6-4.848a.45.45,0,0,1-.332-.132.45.45,0,0,1-.132-.332.427.427,0,0,1,.132-.32A.458.458,0,0,1,13.6-5.76a.461.461,0,0,1,.328.128.421.421,0,0,1,.136.32.443.443,0,0,1-.136.332A.454.454,0,0,1,13.6-4.848ZM13.264,0V-3.968h.672V0Zm2.984,0-1.5-3.968h.7L16.64-.648l1.2-3.32h.688L17.024,0Zm4.608.1a1.944,1.944,0,0,1-1.008-.26,1.846,1.846,0,0,1-.692-.724,2.263,2.263,0,0,1-.252-1.1,2.3,2.3,0,0,1,.248-1.092,1.8,1.8,0,0,1,.692-.728,2,2,0,0,1,1.028-.26,1.854,1.854,0,0,1,1,.26,1.762,1.762,0,0,1,.644.684,1.923,1.923,0,0,1,.224.912q0,.088,0,.176t0,.2h-3.16a1.559,1.559,0,0,0,.212.756,1.253,1.253,0,0,0,.472.452,1.261,1.261,0,0,0,.6.152,1.2,1.2,0,0,0,.7-.192,1.1,1.1,0,0,0,.408-.52h.664a1.791,1.791,0,0,1-.612.916A1.785,1.785,0,0,1,20.856.1Zm0-3.592A1.342,1.342,0,0,0,20-3.2a1.176,1.176,0,0,0-.428.852h2.5a1.135,1.135,0,0,0-.368-.84A1.235,1.235,0,0,0,20.856-3.5Z" transform="translate(3735 -2700)" fill="#2a2a2a"/>
        <g id="Group_18907-2" data-name="Group 18907" transform="translate(93 -53)">
          <g id="Rectangle_6484-2" data-name="Rectangle 6484" transform="translate(3696 -2657)" fill="#f5f6fa" stroke="#e6e6e6" stroke-width="1">
            <rect width="58" height="14" rx="2" stroke="none"/>
            <rect x="0.5" y="0.5" width="57" height="13" rx="1.5" fill="none"/>
          </g>
          <text id="Action-2" data-name="Action" transform="translate(3704 -2647)" fill="#2a2a2a" font-size="8" font-family="DMSans-Regular, DM Sans"><tspan x="0" y="0">Action</tspan></text>
          <g id="arrow-down-sign-to-navigate-2" data-name="arrow-down-sign-to-navigate" transform="translate(3746.008 -2647.58) rotate(180)">
            <path id="Path_1110-2" data-name="Path 1110" d="M3,97.141a.419.419,0,0,0-.3.123l-2.58,2.58a.42.42,0,1,0,.594.594L3,98.155l2.283,2.283a.42.42,0,1,0,.594-.594L3.3,97.263A.419.419,0,0,0,3,97.141Z" transform="translate(-0.001 -97.141)" fill="#2a2a2a"/>
          </g>
        </g>
      </g>
      <g id="Group_18908-3" data-name="Group 18908" transform="translate(0 60)">
        <path id="Path_24510" data-name="Path 24510" d="M6,0H52a6,6,0,0,1,0,12H6A6,6,0,0,1,6,0Z" transform="translate(3501 -2709)" fill="#f5f6fa"/>
        <path id="Path_24511" data-name="Path 24511" d="M6,0H108a6,6,0,0,1,0,12H6A6,6,0,0,1,6,0Z" transform="translate(3584 -2709)" fill="#f5f6fa"/>
        <path id="Path_24484-3" data-name="Path 24484" d="M3,0A3,3,0,1,1,0,3,3,3,0,0,1,3,0Z" transform="translate(3725 -2706)" fill="#cc5564"/>
        <path id="Path_24512" data-name="Path 24512" d="M.592,0V-5.6h.672V0ZM2.408,0V-3.968h.608l.04.712a1.441,1.441,0,0,1,.552-.592,1.555,1.555,0,0,1,.816-.216,1.5,1.5,0,0,1,1.124.428,1.814,1.814,0,0,1,.42,1.316V0H5.3V-2.248q0-1.24-1.024-1.24a1.106,1.106,0,0,0-.852.372,1.516,1.516,0,0,0-.34,1.06V0ZM8.3.1A1.8,1.8,0,0,1,7.48-.072,1.142,1.142,0,0,1,6.992-.52a1.2,1.2,0,0,1-.16-.608A1.077,1.077,0,0,1,7.3-2.064,2.154,2.154,0,0,1,8.56-2.392H9.632V-2.44a1.059,1.059,0,0,0-.272-.788A.992.992,0,0,0,8.632-3.5a1.161,1.161,0,0,0-.676.2.859.859,0,0,0-.356.572H6.912A1.273,1.273,0,0,1,7.2-3.456a1.632,1.632,0,0,1,.628-.452,2.067,2.067,0,0,1,.8-.156,1.644,1.644,0,0,1,1.252.444,1.647,1.647,0,0,1,.42,1.18V0H9.7l-.04-.712a1.574,1.574,0,0,1-.492.572A1.444,1.444,0,0,1,8.3.1Zm.1-.568a1.094,1.094,0,0,0,.66-.2,1.277,1.277,0,0,0,.42-.52,1.619,1.619,0,0,0,.144-.672v-.008H8.616a1.319,1.319,0,0,0-.836.2.636.636,0,0,0-.244.508.615.615,0,0,0,.228.5A.986.986,0,0,0,8.408-.472ZM13.136.1a2.008,2.008,0,0,1-1.02-.26A1.869,1.869,0,0,1,11.4-.892a2.212,2.212,0,0,1-.26-1.092,2.212,2.212,0,0,1,.26-1.092,1.869,1.869,0,0,1,.712-.728,2.008,2.008,0,0,1,1.02-.26,1.906,1.906,0,0,1,1.188.368,1.6,1.6,0,0,1,.612.984h-.688a.882.882,0,0,0-.392-.572,1.3,1.3,0,0,0-.728-.2,1.26,1.26,0,0,0-.632.168,1.253,1.253,0,0,0-.48.5,1.714,1.714,0,0,0-.184.832,1.714,1.714,0,0,0,.184.832,1.282,1.282,0,0,0,.48.508,1.238,1.238,0,0,0,.632.172,1.3,1.3,0,0,0,.728-.2.885.885,0,0,0,.392-.58h.688a1.589,1.589,0,0,1-.608.976A1.9,1.9,0,0,1,13.136.1ZM17.328,0a1.284,1.284,0,0,1-.856-.264,1.2,1.2,0,0,1-.312-.952V-3.4h-.688v-.568h.688l.088-.952h.584v.952H18V-3.4H16.832v2.184a.66.66,0,0,0,.152.508.828.828,0,0,0,.536.132h.416V0Zm1.936-4.848a.45.45,0,0,1-.332-.132.45.45,0,0,1-.132-.332.427.427,0,0,1,.132-.32.458.458,0,0,1,.332-.128.461.461,0,0,1,.328.128.421.421,0,0,1,.136.32.443.443,0,0,1-.136.332A.454.454,0,0,1,19.264-4.848ZM18.928,0V-3.968H19.6V0Zm2.984,0-1.5-3.968h.7L22.3-.648l1.2-3.32h.688L22.688,0ZM26.52.1a1.944,1.944,0,0,1-1.008-.26,1.846,1.846,0,0,1-.692-.724,2.263,2.263,0,0,1-.252-1.1,2.3,2.3,0,0,1,.248-1.092,1.8,1.8,0,0,1,.692-.728,2,2,0,0,1,1.028-.26,1.854,1.854,0,0,1,1,.26,1.762,1.762,0,0,1,.644.684,1.923,1.923,0,0,1,.224.912q0,.088,0,.176t0,.2h-3.16a1.559,1.559,0,0,0,.212.756,1.253,1.253,0,0,0,.472.452,1.261,1.261,0,0,0,.6.152,1.2,1.2,0,0,0,.7-.192,1.1,1.1,0,0,0,.408-.52h.664a1.791,1.791,0,0,1-.612.916A1.785,1.785,0,0,1,26.52.1Zm0-3.592a1.342,1.342,0,0,0-.852.292,1.176,1.176,0,0,0-.428.852h2.5a1.135,1.135,0,0,0-.368-.84A1.235,1.235,0,0,0,26.52-3.5Z" transform="translate(3735 -2700)" fill="#2a2a2a"/>
        <g id="Group_18907-3" data-name="Group 18907" transform="translate(93 -53)">
          <g id="Rectangle_6484-3" data-name="Rectangle 6484" transform="translate(3696 -2657)" fill="#f5f6fa" stroke="#e6e6e6" stroke-width="1">
            <rect width="58" height="14" rx="2" stroke="none"/>
            <rect x="0.5" y="0.5" width="57" height="13" rx="1.5" fill="none"/>
          </g>
          <text id="Action-3" data-name="Action" transform="translate(3704 -2647)" fill="#2a2a2a" font-size="8" font-family="DMSans-Regular, DM Sans"><tspan x="0" y="0">Action</tspan></text>
          <g id="arrow-down-sign-to-navigate-3" data-name="arrow-down-sign-to-navigate" transform="translate(3746.008 -2647.58) rotate(180)">
            <path id="Path_1110-3" data-name="Path 1110" d="M3,97.141a.419.419,0,0,0-.3.123l-2.58,2.58a.42.42,0,1,0,.594.594L3,98.155l2.283,2.283a.42.42,0,1,0,.594-.594L3.3,97.263A.419.419,0,0,0,3,97.141Z" transform="translate(-0.001 -97.141)" fill="#2a2a2a"/>
          </g>
        </g>
      </g>
      <g id="Group_18908-4" data-name="Group 18908" transform="translate(0 90)">
        <path id="Path_24507" data-name="Path 24507" d="M6,0H52a6,6,0,0,1,0,12H6A6,6,0,0,1,6,0Z" transform="translate(3501 -2709)" fill="#f5f6fa"/>
        <path id="Path_24508" data-name="Path 24508" d="M6,0H108a6,6,0,0,1,0,12H6A6,6,0,0,1,6,0Z" transform="translate(3584 -2709)" fill="#f5f6fa"/>
        <path id="Path_24484-4" data-name="Path 24484" d="M3,0A3,3,0,1,1,0,3,3,3,0,0,1,3,0Z" transform="translate(3725 -2706)" fill="#69d57a"/>
        <path id="Path_24509" data-name="Path 24509" d="M.24,0,2.3-5.6h.712L5.072,0H4.36L3.848-1.44H1.464L.944,0ZM1.664-1.984H3.648L2.656-4.752ZM7.472.1a2.008,2.008,0,0,1-1.02-.26A1.869,1.869,0,0,1,5.74-.892a2.212,2.212,0,0,1-.26-1.092,2.212,2.212,0,0,1,.26-1.092A1.869,1.869,0,0,1,6.452-3.8a2.008,2.008,0,0,1,1.02-.26A1.906,1.906,0,0,1,8.66-3.7a1.6,1.6,0,0,1,.612.984H8.584a.882.882,0,0,0-.392-.572,1.3,1.3,0,0,0-.728-.2,1.26,1.26,0,0,0-.632.168,1.253,1.253,0,0,0-.48.5,1.714,1.714,0,0,0-.184.832,1.714,1.714,0,0,0,.184.832,1.282,1.282,0,0,0,.48.508,1.238,1.238,0,0,0,.632.172,1.3,1.3,0,0,0,.728-.2.885.885,0,0,0,.392-.58h.688a1.589,1.589,0,0,1-.608.976A1.9,1.9,0,0,1,7.472.1ZM11.664,0a1.284,1.284,0,0,1-.856-.264,1.2,1.2,0,0,1-.312-.952V-3.4H9.808v-.568H10.5l.088-.952h.584v.952h1.168V-3.4H11.168v2.184a.66.66,0,0,0,.152.508.828.828,0,0,0,.536.132h.416V0ZM13.6-4.848a.45.45,0,0,1-.332-.132.45.45,0,0,1-.132-.332.427.427,0,0,1,.132-.32A.458.458,0,0,1,13.6-5.76a.461.461,0,0,1,.328.128.421.421,0,0,1,.136.32.443.443,0,0,1-.136.332A.454.454,0,0,1,13.6-4.848ZM13.264,0V-3.968h.672V0Zm2.984,0-1.5-3.968h.7L16.64-.648l1.2-3.32h.688L17.024,0Zm4.608.1a1.944,1.944,0,0,1-1.008-.26,1.846,1.846,0,0,1-.692-.724,2.263,2.263,0,0,1-.252-1.1,2.3,2.3,0,0,1,.248-1.092,1.8,1.8,0,0,1,.692-.728,2,2,0,0,1,1.028-.26,1.854,1.854,0,0,1,1,.26,1.762,1.762,0,0,1,.644.684,1.923,1.923,0,0,1,.224.912q0,.088,0,.176t0,.2h-3.16a1.559,1.559,0,0,0,.212.756,1.253,1.253,0,0,0,.472.452,1.261,1.261,0,0,0,.6.152,1.2,1.2,0,0,0,.7-.192,1.1,1.1,0,0,0,.408-.52h.664a1.791,1.791,0,0,1-.612.916A1.785,1.785,0,0,1,20.856.1Zm0-3.592A1.342,1.342,0,0,0,20-3.2a1.176,1.176,0,0,0-.428.852h2.5a1.135,1.135,0,0,0-.368-.84A1.235,1.235,0,0,0,20.856-3.5Z" transform="translate(3735 -2700)" fill="#2a2a2a"/>
        <g id="Group_18907-4" data-name="Group 18907" transform="translate(93 -53)">
          <g id="Rectangle_6484-4" data-name="Rectangle 6484" transform="translate(3696 -2657)" fill="#f5f6fa" stroke="#e6e6e6" stroke-width="1">
            <rect width="58" height="14" rx="2" stroke="none"/>
            <rect x="0.5" y="0.5" width="57" height="13" rx="1.5" fill="none"/>
          </g>
          <text id="Action-4" data-name="Action" transform="translate(3704 -2647)" fill="#2a2a2a" font-size="8" font-family="DMSans-Regular, DM Sans"><tspan x="0" y="0">Action</tspan></text>
          <g id="arrow-down-sign-to-navigate-4" data-name="arrow-down-sign-to-navigate" transform="translate(3746.008 -2647.58) rotate(180)">
            <path id="Path_1110-4" data-name="Path 1110" d="M3,97.141a.419.419,0,0,0-.3.123l-2.58,2.58a.42.42,0,1,0,.594.594L3,98.155l2.283,2.283a.42.42,0,1,0,.594-.594L3.3,97.263A.419.419,0,0,0,3,97.141Z" transform="translate(-0.001 -97.141)" fill="#2a2a2a"/>
          </g>
        </g>
      </g>
      <g id="Group_18908-5" data-name="Group 18908" transform="translate(0 120)">
        <path id="Path_24498" data-name="Path 24498" d="M6,0H52a6,6,0,0,1,0,12H6A6,6,0,0,1,6,0Z" transform="translate(3501 -2709)" fill="#f5f6fa"/>
        <path id="Path_24499" data-name="Path 24499" d="M6,0H108a6,6,0,0,1,0,12H6A6,6,0,0,1,6,0Z" transform="translate(3584 -2709)" fill="#f5f6fa"/>
        <path id="Path_24484-5" data-name="Path 24484" d="M3,0A3,3,0,1,1,0,3,3,3,0,0,1,3,0Z" transform="translate(3725 -2706)" fill="#69d57a"/>
        <path id="Path_24500" data-name="Path 24500" d="M.24,0,2.3-5.6h.712L5.072,0H4.36L3.848-1.44H1.464L.944,0ZM1.664-1.984H3.648L2.656-4.752ZM7.472.1a2.008,2.008,0,0,1-1.02-.26A1.869,1.869,0,0,1,5.74-.892a2.212,2.212,0,0,1-.26-1.092,2.212,2.212,0,0,1,.26-1.092A1.869,1.869,0,0,1,6.452-3.8a2.008,2.008,0,0,1,1.02-.26A1.906,1.906,0,0,1,8.66-3.7a1.6,1.6,0,0,1,.612.984H8.584a.882.882,0,0,0-.392-.572,1.3,1.3,0,0,0-.728-.2,1.26,1.26,0,0,0-.632.168,1.253,1.253,0,0,0-.48.5,1.714,1.714,0,0,0-.184.832,1.714,1.714,0,0,0,.184.832,1.282,1.282,0,0,0,.48.508,1.238,1.238,0,0,0,.632.172,1.3,1.3,0,0,0,.728-.2.885.885,0,0,0,.392-.58h.688a1.589,1.589,0,0,1-.608.976A1.9,1.9,0,0,1,7.472.1ZM11.664,0a1.284,1.284,0,0,1-.856-.264,1.2,1.2,0,0,1-.312-.952V-3.4H9.808v-.568H10.5l.088-.952h.584v.952h1.168V-3.4H11.168v2.184a.66.66,0,0,0,.152.508.828.828,0,0,0,.536.132h.416V0ZM13.6-4.848a.45.45,0,0,1-.332-.132.45.45,0,0,1-.132-.332.427.427,0,0,1,.132-.32A.458.458,0,0,1,13.6-5.76a.461.461,0,0,1,.328.128.421.421,0,0,1,.136.32.443.443,0,0,1-.136.332A.454.454,0,0,1,13.6-4.848ZM13.264,0V-3.968h.672V0Zm2.984,0-1.5-3.968h.7L16.64-.648l1.2-3.32h.688L17.024,0Zm4.608.1a1.944,1.944,0,0,1-1.008-.26,1.846,1.846,0,0,1-.692-.724,2.263,2.263,0,0,1-.252-1.1,2.3,2.3,0,0,1,.248-1.092,1.8,1.8,0,0,1,.692-.728,2,2,0,0,1,1.028-.26,1.854,1.854,0,0,1,1,.26,1.762,1.762,0,0,1,.644.684,1.923,1.923,0,0,1,.224.912q0,.088,0,.176t0,.2h-3.16a1.559,1.559,0,0,0,.212.756,1.253,1.253,0,0,0,.472.452,1.261,1.261,0,0,0,.6.152,1.2,1.2,0,0,0,.7-.192,1.1,1.1,0,0,0,.408-.52h.664a1.791,1.791,0,0,1-.612.916A1.785,1.785,0,0,1,20.856.1Zm0-3.592A1.342,1.342,0,0,0,20-3.2a1.176,1.176,0,0,0-.428.852h2.5a1.135,1.135,0,0,0-.368-.84A1.235,1.235,0,0,0,20.856-3.5Z" transform="translate(3735 -2700)" fill="#2a2a2a"/>
        <g id="Group_18907-5" data-name="Group 18907" transform="translate(93 -53)">
          <g id="Rectangle_6484-5" data-name="Rectangle 6484" transform="translate(3696 -2657)" fill="#f5f6fa" stroke="#e6e6e6" stroke-width="1">
            <rect width="58" height="14" rx="2" stroke="none"/>
            <rect x="0.5" y="0.5" width="57" height="13" rx="1.5" fill="none"/>
          </g>
          <text id="Action-5" data-name="Action" transform="translate(3704 -2647)" fill="#2a2a2a" font-size="8" font-family="DMSans-Regular, DM Sans"><tspan x="0" y="0">Action</tspan></text>
          <g id="arrow-down-sign-to-navigate-5" data-name="arrow-down-sign-to-navigate" transform="translate(3746.008 -2647.58) rotate(180)">
            <path id="Path_1110-5" data-name="Path 1110" d="M3,97.141a.419.419,0,0,0-.3.123l-2.58,2.58a.42.42,0,1,0,.594.594L3,98.155l2.283,2.283a.42.42,0,1,0,.594-.594L3.3,97.263A.419.419,0,0,0,3,97.141Z" transform="translate(-0.001 -97.141)" fill="#2a2a2a"/>
          </g>
        </g>
      </g>
      <g id="Group_18908-6" data-name="Group 18908" transform="translate(0 150)">
        <path id="Path_24501" data-name="Path 24501" d="M6,0H52a6,6,0,0,1,0,12H6A6,6,0,0,1,6,0Z" transform="translate(3501 -2709)" fill="#f5f6fa"/>
        <path id="Path_24502" data-name="Path 24502" d="M6,0H108a6,6,0,0,1,0,12H6A6,6,0,0,1,6,0Z" transform="translate(3584 -2709)" fill="#f5f6fa"/>
        <path id="Path_24484-6" data-name="Path 24484" d="M3,0A3,3,0,1,1,0,3,3,3,0,0,1,3,0Z" transform="translate(3725 -2706)" fill="#cc5564"/>
        <path id="Path_24503" data-name="Path 24503" d="M.592,0V-5.6h.672V0ZM2.408,0V-3.968h.608l.04.712a1.441,1.441,0,0,1,.552-.592,1.555,1.555,0,0,1,.816-.216,1.5,1.5,0,0,1,1.124.428,1.814,1.814,0,0,1,.42,1.316V0H5.3V-2.248q0-1.24-1.024-1.24a1.106,1.106,0,0,0-.852.372,1.516,1.516,0,0,0-.34,1.06V0ZM8.3.1A1.8,1.8,0,0,1,7.48-.072,1.142,1.142,0,0,1,6.992-.52a1.2,1.2,0,0,1-.16-.608A1.077,1.077,0,0,1,7.3-2.064,2.154,2.154,0,0,1,8.56-2.392H9.632V-2.44a1.059,1.059,0,0,0-.272-.788A.992.992,0,0,0,8.632-3.5a1.161,1.161,0,0,0-.676.2.859.859,0,0,0-.356.572H6.912A1.273,1.273,0,0,1,7.2-3.456a1.632,1.632,0,0,1,.628-.452,2.067,2.067,0,0,1,.8-.156,1.644,1.644,0,0,1,1.252.444,1.647,1.647,0,0,1,.42,1.18V0H9.7l-.04-.712a1.574,1.574,0,0,1-.492.572A1.444,1.444,0,0,1,8.3.1Zm.1-.568a1.094,1.094,0,0,0,.66-.2,1.277,1.277,0,0,0,.42-.52,1.619,1.619,0,0,0,.144-.672v-.008H8.616a1.319,1.319,0,0,0-.836.2.636.636,0,0,0-.244.508.615.615,0,0,0,.228.5A.986.986,0,0,0,8.408-.472ZM13.136.1a2.008,2.008,0,0,1-1.02-.26A1.869,1.869,0,0,1,11.4-.892a2.212,2.212,0,0,1-.26-1.092,2.212,2.212,0,0,1,.26-1.092,1.869,1.869,0,0,1,.712-.728,2.008,2.008,0,0,1,1.02-.26,1.906,1.906,0,0,1,1.188.368,1.6,1.6,0,0,1,.612.984h-.688a.882.882,0,0,0-.392-.572,1.3,1.3,0,0,0-.728-.2,1.26,1.26,0,0,0-.632.168,1.253,1.253,0,0,0-.48.5,1.714,1.714,0,0,0-.184.832,1.714,1.714,0,0,0,.184.832,1.282,1.282,0,0,0,.48.508,1.238,1.238,0,0,0,.632.172,1.3,1.3,0,0,0,.728-.2.885.885,0,0,0,.392-.58h.688a1.589,1.589,0,0,1-.608.976A1.9,1.9,0,0,1,13.136.1ZM17.328,0a1.284,1.284,0,0,1-.856-.264,1.2,1.2,0,0,1-.312-.952V-3.4h-.688v-.568h.688l.088-.952h.584v.952H18V-3.4H16.832v2.184a.66.66,0,0,0,.152.508.828.828,0,0,0,.536.132h.416V0Zm1.936-4.848a.45.45,0,0,1-.332-.132.45.45,0,0,1-.132-.332.427.427,0,0,1,.132-.32.458.458,0,0,1,.332-.128.461.461,0,0,1,.328.128.421.421,0,0,1,.136.32.443.443,0,0,1-.136.332A.454.454,0,0,1,19.264-4.848ZM18.928,0V-3.968H19.6V0Zm2.984,0-1.5-3.968h.7L22.3-.648l1.2-3.32h.688L22.688,0ZM26.52.1a1.944,1.944,0,0,1-1.008-.26,1.846,1.846,0,0,1-.692-.724,2.263,2.263,0,0,1-.252-1.1,2.3,2.3,0,0,1,.248-1.092,1.8,1.8,0,0,1,.692-.728,2,2,0,0,1,1.028-.26,1.854,1.854,0,0,1,1,.26,1.762,1.762,0,0,1,.644.684,1.923,1.923,0,0,1,.224.912q0,.088,0,.176t0,.2h-3.16a1.559,1.559,0,0,0,.212.756,1.253,1.253,0,0,0,.472.452,1.261,1.261,0,0,0,.6.152,1.2,1.2,0,0,0,.7-.192,1.1,1.1,0,0,0,.408-.52h.664a1.791,1.791,0,0,1-.612.916A1.785,1.785,0,0,1,26.52.1Zm0-3.592a1.342,1.342,0,0,0-.852.292,1.176,1.176,0,0,0-.428.852h2.5a1.135,1.135,0,0,0-.368-.84A1.235,1.235,0,0,0,26.52-3.5Z" transform="translate(3735 -2700)" fill="#2a2a2a"/>
        <g id="Group_18907-6" data-name="Group 18907" transform="translate(93 -53)">
          <g id="Rectangle_6484-6" data-name="Rectangle 6484" transform="translate(3696 -2657)" fill="#f5f6fa" stroke="#e6e6e6" stroke-width="1">
            <rect width="58" height="14" rx="2" stroke="none"/>
            <rect x="0.5" y="0.5" width="57" height="13" rx="1.5" fill="none"/>
          </g>
          <text id="Action-6" data-name="Action" transform="translate(3704 -2647)" fill="#2a2a2a" font-size="8" font-family="DMSans-Regular, DM Sans"><tspan x="0" y="0">Action</tspan></text>
          <g id="arrow-down-sign-to-navigate-6" data-name="arrow-down-sign-to-navigate" transform="translate(3746.008 -2647.58) rotate(180)">
            <path id="Path_1110-6" data-name="Path 1110" d="M3,97.141a.419.419,0,0,0-.3.123l-2.58,2.58a.42.42,0,1,0,.594.594L3,98.155l2.283,2.283a.42.42,0,1,0,.594-.594L3.3,97.263A.419.419,0,0,0,3,97.141Z" transform="translate(-0.001 -97.141)" fill="#2a2a2a"/>
          </g>
        </g>
      </g>
      <g id="Group_18908-7" data-name="Group 18908" transform="translate(0 180)">
        <path id="Path_24504" data-name="Path 24504" d="M6,0H52a6,6,0,0,1,0,12H6A6,6,0,0,1,6,0Z" transform="translate(3501 -2709)" fill="#f5f6fa"/>
        <path id="Path_24505" data-name="Path 24505" d="M6,0H108a6,6,0,0,1,0,12H6A6,6,0,0,1,6,0Z" transform="translate(3584 -2709)" fill="#f5f6fa"/>
        <path id="Path_24484-7" data-name="Path 24484" d="M3,0A3,3,0,1,1,0,3,3,3,0,0,1,3,0Z" transform="translate(3725 -2706)" fill="#69d57a"/>
        <path id="Path_24506" data-name="Path 24506" d="M.24,0,2.3-5.6h.712L5.072,0H4.36L3.848-1.44H1.464L.944,0ZM1.664-1.984H3.648L2.656-4.752ZM7.472.1a2.008,2.008,0,0,1-1.02-.26A1.869,1.869,0,0,1,5.74-.892a2.212,2.212,0,0,1-.26-1.092,2.212,2.212,0,0,1,.26-1.092A1.869,1.869,0,0,1,6.452-3.8a2.008,2.008,0,0,1,1.02-.26A1.906,1.906,0,0,1,8.66-3.7a1.6,1.6,0,0,1,.612.984H8.584a.882.882,0,0,0-.392-.572,1.3,1.3,0,0,0-.728-.2,1.26,1.26,0,0,0-.632.168,1.253,1.253,0,0,0-.48.5,1.714,1.714,0,0,0-.184.832,1.714,1.714,0,0,0,.184.832,1.282,1.282,0,0,0,.48.508,1.238,1.238,0,0,0,.632.172,1.3,1.3,0,0,0,.728-.2.885.885,0,0,0,.392-.58h.688a1.589,1.589,0,0,1-.608.976A1.9,1.9,0,0,1,7.472.1ZM11.664,0a1.284,1.284,0,0,1-.856-.264,1.2,1.2,0,0,1-.312-.952V-3.4H9.808v-.568H10.5l.088-.952h.584v.952h1.168V-3.4H11.168v2.184a.66.66,0,0,0,.152.508.828.828,0,0,0,.536.132h.416V0ZM13.6-4.848a.45.45,0,0,1-.332-.132.45.45,0,0,1-.132-.332.427.427,0,0,1,.132-.32A.458.458,0,0,1,13.6-5.76a.461.461,0,0,1,.328.128.421.421,0,0,1,.136.32.443.443,0,0,1-.136.332A.454.454,0,0,1,13.6-4.848ZM13.264,0V-3.968h.672V0Zm2.984,0-1.5-3.968h.7L16.64-.648l1.2-3.32h.688L17.024,0Zm4.608.1a1.944,1.944,0,0,1-1.008-.26,1.846,1.846,0,0,1-.692-.724,2.263,2.263,0,0,1-.252-1.1,2.3,2.3,0,0,1,.248-1.092,1.8,1.8,0,0,1,.692-.728,2,2,0,0,1,1.028-.26,1.854,1.854,0,0,1,1,.26,1.762,1.762,0,0,1,.644.684,1.923,1.923,0,0,1,.224.912q0,.088,0,.176t0,.2h-3.16a1.559,1.559,0,0,0,.212.756,1.253,1.253,0,0,0,.472.452,1.261,1.261,0,0,0,.6.152,1.2,1.2,0,0,0,.7-.192,1.1,1.1,0,0,0,.408-.52h.664a1.791,1.791,0,0,1-.612.916A1.785,1.785,0,0,1,20.856.1Zm0-3.592A1.342,1.342,0,0,0,20-3.2a1.176,1.176,0,0,0-.428.852h2.5a1.135,1.135,0,0,0-.368-.84A1.235,1.235,0,0,0,20.856-3.5Z" transform="translate(3735 -2700)" fill="#2a2a2a"/>
        <g id="Group_18907-7" data-name="Group 18907" transform="translate(93 -53)">
          <g id="Rectangle_6484-7" data-name="Rectangle 6484" transform="translate(3696 -2657)" fill="#f5f6fa" stroke="#e6e6e6" stroke-width="1">
            <rect width="58" height="14" rx="2" stroke="none"/>
            <rect x="0.5" y="0.5" width="57" height="13" rx="1.5" fill="none"/>
          </g>
          <text id="Action-7" data-name="Action" transform="translate(3704 -2647)" fill="#2a2a2a" font-size="8" font-family="DMSans-Regular, DM Sans"><tspan x="0" y="0">Action</tspan></text>
          <g id="arrow-down-sign-to-navigate-7" data-name="arrow-down-sign-to-navigate" transform="translate(3746.008 -2647.58) rotate(180)">
            <path id="Path_1110-7" data-name="Path 1110" d="M3,97.141a.419.419,0,0,0-.3.123l-2.58,2.58a.42.42,0,1,0,.594.594L3,98.155l2.283,2.283a.42.42,0,1,0,.594-.594L3.3,97.263A.419.419,0,0,0,3,97.141Z" transform="translate(-0.001 -97.141)" fill="#2a2a2a"/>
          </g>
        </g>
      </g>
      <g id="Mask_Group_8935" data-name="Mask Group 8935" clip-path="url(#clip-path)">
        <g id="Group_18908-8" data-name="Group 18908" transform="translate(0 210)">
          <rect id="Rectangle_6480" data-name="Rectangle 6480" width="58" height="12" rx="6" transform="translate(3501 -2709)" fill="#f5f6fa"/>
          <rect id="Rectangle_6483" data-name="Rectangle 6483" width="114" height="12" rx="6" transform="translate(3584 -2709)" fill="#f5f6fa"/>
          <path id="Path_24484-8" data-name="Path 24484" d="M3,0A3,3,0,1,1,0,3,3,3,0,0,1,3,0Z" transform="translate(3725 -2706)" fill="#69d57a"/>
          <text id="Active" transform="translate(3735 -2700)" fill="#2a2a2a" font-size="8" font-family="DMSans-Regular, DM Sans"><tspan x="0" y="0">Active</tspan></text>
          <g id="Group_18907-8" data-name="Group 18907" transform="translate(93 -53)">
            <g id="Rectangle_6484-8" data-name="Rectangle 6484" transform="translate(3696 -2657)" fill="#f5f6fa" stroke="#e6e6e6" stroke-width="1">
              <rect width="58" height="14" rx="2" stroke="none"/>
              <rect x="0.5" y="0.5" width="57" height="13" rx="1.5" fill="none"/>
            </g>
            <text id="Action-8" data-name="Action" transform="translate(3704 -2647)" fill="#2a2a2a" font-size="8" font-family="DMSans-Regular, DM Sans"><tspan x="0" y="0">Action</tspan></text>
            <g id="arrow-down-sign-to-navigate-8" data-name="arrow-down-sign-to-navigate" transform="translate(3746.008 -2647.58) rotate(180)">
              <path id="Path_1110-8" data-name="Path 1110" d="M3,97.141a.419.419,0,0,0-.3.123l-2.58,2.58a.42.42,0,1,0,.594.594L3,98.155l2.283,2.283a.42.42,0,1,0,.594-.594L3.3,97.263A.419.419,0,0,0,3,97.141Z" transform="translate(-0.001 -97.141)" fill="#2a2a2a"/>
            </g>
          </g>
        </g>
      </g>
      <path id="Rectangle_6486" data-name="Rectangle 6486" d="M0,0H400a0,0,0,0,1,0,0V50a10,10,0,0,1-10,10H10A10,10,0,0,1,0,50V0A0,0,0,0,1,0,0Z" transform="translate(3467 -2551)" fill="url(#linear-gradient)"/>
    </g>
    <g id="Group_18905" data-name="Group 18905" transform="translate(-148 17)">
      <g transform="matrix(1, 0, 0, 1, 3111, -2776)" filter="url(#Path_24487)">
        <path id="Path_24487-2" data-name="Path 24487" d="M10,0H170a10,10,0,0,1,10,10V245a10,10,0,0,1-10,10H10A10,10,0,0,1,0,245V10A10,10,0,0,1,10,0Z" transform="translate(62 54)" fill="#fff"/>
      </g>
      <path id="Path_24488" data-name="Path 24488" d="M-62.112.144A4.175,4.175,0,0,1-64.3-.4a3.644,3.644,0,0,1-1.4-1.524,4.969,4.969,0,0,1-.492-2.262A5.007,5.007,0,0,1-65.7-6.456a3.675,3.675,0,0,1,1.4-1.536,4.139,4.139,0,0,1,2.184-.552,3.923,3.923,0,0,1,2.478.75,3.276,3.276,0,0,1,1.206,2.106H-60.12a1.808,1.808,0,0,0-.666-1.074,2.165,2.165,0,0,0-1.35-.39,2.246,2.246,0,0,0-1.824.792,3.291,3.291,0,0,0-.66,2.172,3.267,3.267,0,0,0,.66,2.166,2.253,2.253,0,0,0,1.824.786,2.267,2.267,0,0,0,1.35-.366,1.689,1.689,0,0,0,.666-1.014h1.692A3.164,3.164,0,0,1-59.634-.588,3.99,3.99,0,0,1-62.112.144Zm5-.144V-5.952h1.368l.144,1.116a2.49,2.49,0,0,1,.882-.918A2.464,2.464,0,0,1-53.4-6.1v1.62h-.432a2.44,2.44,0,0,0-.9.156,1.212,1.212,0,0,0-.618.54,2.145,2.145,0,0,0-.222,1.068V0Zm7.536.144a3.249,3.249,0,0,1-1.6-.384A2.779,2.779,0,0,1-52.26-1.32a3.2,3.2,0,0,1-.4-1.608,3.4,3.4,0,0,1,.39-1.644,2.831,2.831,0,0,1,1.08-1.122,3.173,3.173,0,0,1,1.626-.4,3.065,3.065,0,0,1,1.548.384,2.758,2.758,0,0,1,1.05,1.05,2.949,2.949,0,0,1,.378,1.482q0,.132-.006.276t-.018.3h-4.524a1.55,1.55,0,0,0,.486,1.092,1.527,1.527,0,0,0,1.062.4,1.4,1.4,0,0,0,.786-.21,1.3,1.3,0,0,0,.474-.546h1.56a2.828,2.828,0,0,1-.558,1.026,2.751,2.751,0,0,1-.96.726A3.035,3.035,0,0,1-49.572.144Zm.012-4.992a1.636,1.636,0,0,0-1,.318,1.474,1.474,0,0,0-.552.966h2.964a1.3,1.3,0,0,0-.432-.936A1.437,1.437,0,0,0-49.56-4.848ZM-43.236.144A2.816,2.816,0,0,1-44.5-.1a1.7,1.7,0,0,1-.732-.654,1.742,1.742,0,0,1-.24-.9A1.638,1.638,0,0,1-44.82-3a3.081,3.081,0,0,1,1.944-.516h1.512V-3.66a1.1,1.1,0,0,0-.348-.9,1.31,1.31,0,0,0-.864-.288,1.484,1.484,0,0,0-.816.222.956.956,0,0,0-.432.654h-1.5A2.093,2.093,0,0,1-44.886-5.1a2.452,2.452,0,0,1,.978-.738A3.37,3.37,0,0,1-42.564-6.1a2.953,2.953,0,0,1,2,.636,2.257,2.257,0,0,1,.732,1.8V0h-1.308l-.144-.96a2.218,2.218,0,0,1-.738.792A2.176,2.176,0,0,1-43.236.144Zm.348-1.2a1.271,1.271,0,0,0,1.026-.432A2.1,2.1,0,0,0-41.4-2.556h-1.308a1.364,1.364,0,0,0-.876.222.687.687,0,0,0-.264.546.629.629,0,0,0,.264.54A1.157,1.157,0,0,0-42.888-1.056ZM-35.8,0a2.314,2.314,0,0,1-1.5-.456,1.983,1.983,0,0,1-.564-1.62V-4.668h-1.02V-5.952h1.02l.18-1.6h1.356v1.6h1.608v1.284h-1.608v2.6a.764.764,0,0,0,.186.594.984.984,0,0,0,.642.162h.744V0Zm5.136.144a3.249,3.249,0,0,1-1.6-.384,2.779,2.779,0,0,1-1.092-1.08,3.2,3.2,0,0,1-.4-1.608,3.4,3.4,0,0,1,.39-1.644,2.831,2.831,0,0,1,1.08-1.122,3.173,3.173,0,0,1,1.626-.4,3.065,3.065,0,0,1,1.548.384,2.758,2.758,0,0,1,1.05,1.05,2.949,2.949,0,0,1,.378,1.482q0,.132-.006.276t-.018.3H-32.22a1.55,1.55,0,0,0,.486,1.092,1.527,1.527,0,0,0,1.062.4,1.4,1.4,0,0,0,.786-.21,1.3,1.3,0,0,0,.474-.546h1.56A2.828,2.828,0,0,1-28.41-.846a2.751,2.751,0,0,1-.96.726A3.035,3.035,0,0,1-30.66.144Zm.012-4.992a1.636,1.636,0,0,0-1,.318,1.474,1.474,0,0,0-.552.966h2.964a1.3,1.3,0,0,0-.432-.936A1.437,1.437,0,0,0-30.648-4.848ZM-21.048,0-24.12-8.4h1.644L-20.1-1.572-17.712-8.4h1.62L-19.164,0ZM-14.3-6.876a.971.971,0,0,1-.69-.252.833.833,0,0,1-.27-.636.814.814,0,0,1,.27-.63.985.985,0,0,1,.69-.246.985.985,0,0,1,.69.246.814.814,0,0,1,.27.63.833.833,0,0,1-.27.636A.971.971,0,0,1-14.3-6.876ZM-15.072,0V-5.952h1.536V0Zm3.144,0V-5.952h1.368l.144,1.116a2.49,2.49,0,0,1,.882-.918A2.464,2.464,0,0,1-8.22-6.1v1.62h-.432a2.44,2.44,0,0,0-.9.156,1.212,1.212,0,0,0-.618.54,2.145,2.145,0,0,0-.222,1.068V0Zm7.4,0a2.314,2.314,0,0,1-1.5-.456,1.983,1.983,0,0,1-.564-1.62V-4.668h-1.02V-5.952h1.02l.18-1.6h1.356v1.6h1.608v1.284H-5.052v2.6a.764.764,0,0,0,.186.594.984.984,0,0,0,.642.162h.744V0ZM.108.144a2.161,2.161,0,0,1-1.722-.7,3.023,3.023,0,0,1-.606-2.04v-3.36H-.7v3.216A1.907,1.907,0,0,0-.384-1.56,1.16,1.16,0,0,0,.6-1.152a1.356,1.356,0,0,0,1.05-.456A1.824,1.824,0,0,0,2.064-2.88V-5.952H3.6V0H2.244l-.12-1.008a2.093,2.093,0,0,1-.8.84A2.329,2.329,0,0,1,.108.144Zm7.116,0A2.816,2.816,0,0,1,5.964-.1a1.7,1.7,0,0,1-.732-.654,1.742,1.742,0,0,1-.24-.9A1.638,1.638,0,0,1,5.64-3a3.082,3.082,0,0,1,1.944-.516H9.1V-3.66a1.1,1.1,0,0,0-.348-.9,1.31,1.31,0,0,0-.864-.288,1.484,1.484,0,0,0-.816.222.956.956,0,0,0-.432.654h-1.5A2.093,2.093,0,0,1,5.574-5.1a2.452,2.452,0,0,1,.978-.738A3.37,3.37,0,0,1,7.9-6.1a2.953,2.953,0,0,1,2,.636,2.257,2.257,0,0,1,.732,1.8V0H9.324L9.18-.96a2.218,2.218,0,0,1-.738.792A2.176,2.176,0,0,1,7.224.144Zm.348-1.2A1.271,1.271,0,0,0,8.6-1.488,2.1,2.1,0,0,0,9.06-2.556H7.752a1.364,1.364,0,0,0-.876.222.687.687,0,0,0-.264.546.629.629,0,0,0,.264.54A1.157,1.157,0,0,0,7.572-1.056ZM12.1,0V-8.64h1.536V0Zm5.46,0,3.072-8.4h1.728L25.428,0H23.8l-.672-1.944H19.848L19.164,0Zm2.712-3.144H22.7L21.48-6.636ZM29.112.144a3.2,3.2,0,0,1-1.608-.4,2.883,2.883,0,0,1-1.1-1.1,3.223,3.223,0,0,1-.4-1.62,3.223,3.223,0,0,1,.4-1.62,2.883,2.883,0,0,1,1.1-1.1,3.2,3.2,0,0,1,1.608-.4,3.076,3.076,0,0,1,1.92.594,2.656,2.656,0,0,1,1,1.638h-1.62a1.184,1.184,0,0,0-.474-.678,1.425,1.425,0,0,0-.834-.246,1.416,1.416,0,0,0-1.08.48,1.887,1.887,0,0,0-.444,1.332,1.887,1.887,0,0,0,.444,1.332,1.416,1.416,0,0,0,1.08.48,1.45,1.45,0,0,0,.834-.24,1.16,1.16,0,0,0,.474-.684h1.62a2.714,2.714,0,0,1-1,1.62A3.015,3.015,0,0,1,29.112.144Zm7.2,0a3.2,3.2,0,0,1-1.608-.4,2.883,2.883,0,0,1-1.1-1.1,3.223,3.223,0,0,1-.4-1.62,3.223,3.223,0,0,1,.4-1.62,2.883,2.883,0,0,1,1.1-1.1,3.2,3.2,0,0,1,1.608-.4,3.076,3.076,0,0,1,1.92.594,2.656,2.656,0,0,1,1,1.638h-1.62a1.184,1.184,0,0,0-.474-.678,1.425,1.425,0,0,0-.834-.246,1.416,1.416,0,0,0-1.08.48,1.887,1.887,0,0,0-.444,1.332,1.887,1.887,0,0,0,.444,1.332,1.416,1.416,0,0,0,1.08.48,1.45,1.45,0,0,0,.834-.24,1.16,1.16,0,0,0,.474-.684h1.62a2.714,2.714,0,0,1-1,1.62A3.015,3.015,0,0,1,36.312.144Zm7.14,0a3.065,3.065,0,0,1-1.554-.4,2.907,2.907,0,0,1-1.092-1.1,3.214,3.214,0,0,1-.4-1.626A3.177,3.177,0,0,1,40.812-4.6a2.951,2.951,0,0,1,1.1-1.1,3.065,3.065,0,0,1,1.554-.4,3.042,3.042,0,0,1,1.542.4A2.907,2.907,0,0,1,46.1-4.6a3.214,3.214,0,0,1,.4,1.626,3.214,3.214,0,0,1-.4,1.626A2.9,2.9,0,0,1,45-.252,3.075,3.075,0,0,1,43.452.144Zm0-1.332a1.42,1.42,0,0,0,1.044-.45,1.831,1.831,0,0,0,.444-1.338A1.831,1.831,0,0,0,44.5-4.314a1.406,1.406,0,0,0-1.032-.45,1.413,1.413,0,0,0-1.05.45,1.846,1.846,0,0,0-.438,1.338,1.846,1.846,0,0,0,.438,1.338A1.4,1.4,0,0,0,43.452-1.188ZM50.1.144a2.161,2.161,0,0,1-1.722-.7,3.023,3.023,0,0,1-.606-2.04v-3.36H49.3v3.216a1.907,1.907,0,0,0,.312,1.176,1.16,1.16,0,0,0,.984.408,1.356,1.356,0,0,0,1.05-.456,1.824,1.824,0,0,0,.414-1.272V-5.952h1.536V0H52.236l-.12-1.008a2.093,2.093,0,0,1-.8.84A2.329,2.329,0,0,1,50.1.144ZM55.164,0V-5.952H56.52l.12,1.008a2.093,2.093,0,0,1,.8-.84,2.352,2.352,0,0,1,1.23-.312,2.165,2.165,0,0,1,1.716.7A3,3,0,0,1,61-3.36V0H59.46V-3.216a1.907,1.907,0,0,0-.312-1.176,1.146,1.146,0,0,0-.972-.408,1.37,1.37,0,0,0-1.062.456A1.824,1.824,0,0,0,56.7-3.072V0Zm9.948,0a2.314,2.314,0,0,1-1.5-.456,1.983,1.983,0,0,1-.564-1.62V-4.668h-1.02V-5.952h1.02l.18-1.6h1.356v1.6h1.608v1.284H64.584v2.6a.764.764,0,0,0,.186.594.984.984,0,0,0,.642.162h.744V0Z" transform="translate(3263 -2694)" fill="#2a2a2a"/>
      <g id="Group_18900" data-name="Group 18900" transform="translate(0 -3)">
        <path id="Path_24491" data-name="Path 24491" d="M.592,0V-5.6h.672V-.536H3.872V0Zm5.48.1a1.8,1.8,0,0,1-.824-.168A1.142,1.142,0,0,1,4.76-.52a1.2,1.2,0,0,1-.16-.608,1.077,1.077,0,0,1,.464-.936,2.154,2.154,0,0,1,1.264-.328H7.4V-2.44a1.059,1.059,0,0,0-.272-.788A.992.992,0,0,0,6.4-3.5a1.161,1.161,0,0,0-.676.2.859.859,0,0,0-.356.572H4.68a1.273,1.273,0,0,1,.292-.728A1.632,1.632,0,0,1,5.6-3.908a2.067,2.067,0,0,1,.8-.156,1.644,1.644,0,0,1,1.252.444,1.647,1.647,0,0,1,.42,1.18V0h-.6l-.04-.712A1.574,1.574,0,0,1,6.94-.14,1.444,1.444,0,0,1,6.072.1Zm.1-.568a1.094,1.094,0,0,0,.66-.2,1.277,1.277,0,0,0,.42-.52A1.619,1.619,0,0,0,7.4-1.864v-.008H6.384a1.319,1.319,0,0,0-.836.2A.636.636,0,0,0,5.3-1.16a.615.615,0,0,0,.228.5A.986.986,0,0,0,6.176-.472ZM11.2.1a1.836,1.836,0,0,1-.868-.2,1.383,1.383,0,0,1-.58-.56L9.688,0H9.08V-5.76h.672v2.448a1.873,1.873,0,0,1,.548-.52,1.633,1.633,0,0,1,.908-.232,1.923,1.923,0,0,1,1.032.272,1.861,1.861,0,0,1,.684.744,2.3,2.3,0,0,1,.244,1.072,2.276,2.276,0,0,1-.244,1.068,1.831,1.831,0,0,1-.688.736A1.966,1.966,0,0,1,11.2.1Zm-.072-.584a1.311,1.311,0,0,0,.7-.188,1.323,1.323,0,0,0,.48-.524,1.666,1.666,0,0,0,.176-.784,1.666,1.666,0,0,0-.176-.784,1.323,1.323,0,0,0-.48-.524,1.311,1.311,0,0,0-.7-.188,1.311,1.311,0,0,0-.7.188,1.323,1.323,0,0,0-.48.524,1.666,1.666,0,0,0-.176.784,1.666,1.666,0,0,0,.176.784,1.323,1.323,0,0,0,.48.524A1.311,1.311,0,0,0,11.128-.488ZM15.888.1a1.944,1.944,0,0,1-1.008-.26,1.846,1.846,0,0,1-.692-.724,2.263,2.263,0,0,1-.252-1.1,2.3,2.3,0,0,1,.248-1.092,1.8,1.8,0,0,1,.692-.728,2,2,0,0,1,1.028-.26,1.854,1.854,0,0,1,1,.26,1.762,1.762,0,0,1,.644.684,1.923,1.923,0,0,1,.224.912q0,.088,0,.176t0,.2H14.6a1.559,1.559,0,0,0,.212.756,1.253,1.253,0,0,0,.472.452,1.261,1.261,0,0,0,.6.152,1.2,1.2,0,0,0,.7-.192,1.1,1.1,0,0,0,.408-.52h.664a1.791,1.791,0,0,1-.612.916A1.785,1.785,0,0,1,15.888.1Zm0-3.592a1.342,1.342,0,0,0-.852.292,1.176,1.176,0,0,0-.428.852h2.5a1.135,1.135,0,0,0-.368-.84A1.235,1.235,0,0,0,15.888-3.5ZM18.656,0V-5.76h.672V0Z" transform="translate(3189 -2667)" fill="#2a2a2a"/>
        <path id="Path_24490" data-name="Path 24490" d="M1.664-2.88,1.76-4.1l-.992.7L.488-3.9,1.6-4.384.5-4.864.76-5.336l1.008.7L1.656-5.864H2.2L2.08-4.64l1-.7.256.464-1.1.5,1.112.488-.264.472-1-.688L2.192-2.88Z" transform="translate(3209 -2667)" fill="#cc5564"/>
        <g id="Rectangle_6477" data-name="Rectangle 6477" transform="translate(3189 -2663)" fill="#fff" stroke="#e6e6e6" stroke-width="1">
          <rect width="148" height="20" rx="2" stroke="none"/>
          <rect x="0.5" y="0.5" width="147" height="19" rx="1.5" fill="none"/>
        </g>
      </g>
      <g id="Group_18901" data-name="Group 18901" transform="translate(0 38)">
        <path id="Path_24492" data-name="Path 24492" d="M2.28,0,.176-5.6H.9L2.672-.712,4.456-5.6h.712L3.064,0ZM6.3-4.848a.45.45,0,0,1-.332-.132.45.45,0,0,1-.132-.332.427.427,0,0,1,.132-.32A.458.458,0,0,1,6.3-5.76a.461.461,0,0,1,.328.128.421.421,0,0,1,.136.32.443.443,0,0,1-.136.332A.454.454,0,0,1,6.3-4.848ZM5.968,0V-3.968H6.64V0Zm1.84,0V-3.968h.608l.056.76a1.438,1.438,0,0,1,.56-.624,1.736,1.736,0,0,1,.928-.232v.7H9.776a1.66,1.66,0,0,0-.648.124.984.984,0,0,0-.472.42A1.6,1.6,0,0,0,8.48-2V0ZM12.28,0a1.284,1.284,0,0,1-.856-.264,1.2,1.2,0,0,1-.312-.952V-3.4h-.688v-.568h.688L11.2-4.92h.584v.952h1.168V-3.4H11.784v2.184a.66.66,0,0,0,.152.508.828.828,0,0,0,.536.132h.416V0Zm2.976.1a1.49,1.49,0,0,1-1.12-.428,1.825,1.825,0,0,1-.416-1.316v-2.32h.672V-1.72q0,1.24,1.016,1.24a1.115,1.115,0,0,0,.86-.372,1.516,1.516,0,0,0,.34-1.06V-3.968h.672V0h-.608l-.048-.712a1.381,1.381,0,0,1-.548.592A1.576,1.576,0,0,1,15.256.1ZM19.7.1a1.8,1.8,0,0,1-.824-.168,1.142,1.142,0,0,1-.488-.448,1.2,1.2,0,0,1-.16-.608,1.077,1.077,0,0,1,.464-.936,2.154,2.154,0,0,1,1.264-.328h1.072V-2.44a1.059,1.059,0,0,0-.272-.788.992.992,0,0,0-.728-.268,1.161,1.161,0,0,0-.676.2A.859.859,0,0,0,19-2.728h-.688a1.273,1.273,0,0,1,.292-.728,1.632,1.632,0,0,1,.628-.452,2.067,2.067,0,0,1,.8-.156,1.644,1.644,0,0,1,1.252.444,1.647,1.647,0,0,1,.42,1.18V0h-.6l-.04-.712a1.574,1.574,0,0,1-.492.572A1.444,1.444,0,0,1,19.7.1Zm.1-.568a1.094,1.094,0,0,0,.66-.2,1.277,1.277,0,0,0,.42-.52,1.619,1.619,0,0,0,.144-.672v-.008H20.016a1.319,1.319,0,0,0-.836.2.636.636,0,0,0-.244.508.615.615,0,0,0,.228.5A.986.986,0,0,0,19.808-.472Zm2.9.472V-5.76h.672V0Zm5.216.1A1.8,1.8,0,0,1,27.1-.072a1.142,1.142,0,0,1-.488-.448,1.2,1.2,0,0,1-.16-.608,1.077,1.077,0,0,1,.464-.936,2.154,2.154,0,0,1,1.264-.328h1.072V-2.44a1.059,1.059,0,0,0-.272-.788.992.992,0,0,0-.728-.268,1.161,1.161,0,0,0-.676.2.859.859,0,0,0-.356.572h-.688a1.273,1.273,0,0,1,.292-.728,1.632,1.632,0,0,1,.628-.452,2.067,2.067,0,0,1,.8-.156,1.644,1.644,0,0,1,1.252.444,1.647,1.647,0,0,1,.42,1.18V0h-.6l-.04-.712A1.574,1.574,0,0,1,28.8-.14,1.444,1.444,0,0,1,27.928.1Zm.1-.568a1.094,1.094,0,0,0,.66-.2,1.277,1.277,0,0,0,.42-.52,1.619,1.619,0,0,0,.144-.672v-.008H28.24a1.319,1.319,0,0,0-.836.2.636.636,0,0,0-.244.508.615.615,0,0,0,.228.5A.986.986,0,0,0,28.032-.472ZM32.76.1a2.008,2.008,0,0,1-1.02-.26,1.869,1.869,0,0,1-.712-.728,2.212,2.212,0,0,1-.26-1.092,2.212,2.212,0,0,1,.26-1.092A1.869,1.869,0,0,1,31.74-3.8a2.008,2.008,0,0,1,1.02-.26,1.906,1.906,0,0,1,1.188.368,1.6,1.6,0,0,1,.612.984h-.688a.882.882,0,0,0-.392-.572,1.3,1.3,0,0,0-.728-.2,1.26,1.26,0,0,0-.632.168,1.253,1.253,0,0,0-.48.5,1.714,1.714,0,0,0-.184.832,1.714,1.714,0,0,0,.184.832,1.282,1.282,0,0,0,.48.508,1.238,1.238,0,0,0,.632.172,1.3,1.3,0,0,0,.728-.2.885.885,0,0,0,.392-.58h.688a1.588,1.588,0,0,1-.608.976A1.9,1.9,0,0,1,32.76.1Zm4.56,0a2.008,2.008,0,0,1-1.02-.26,1.869,1.869,0,0,1-.712-.728,2.212,2.212,0,0,1-.26-1.092,2.212,2.212,0,0,1,.26-1.092A1.869,1.869,0,0,1,36.3-3.8a2.008,2.008,0,0,1,1.02-.26,1.906,1.906,0,0,1,1.188.368,1.6,1.6,0,0,1,.612.984h-.688a.882.882,0,0,0-.392-.572,1.3,1.3,0,0,0-.728-.2,1.26,1.26,0,0,0-.632.168,1.253,1.253,0,0,0-.48.5,1.714,1.714,0,0,0-.184.832,1.714,1.714,0,0,0,.184.832,1.282,1.282,0,0,0,.48.508,1.238,1.238,0,0,0,.632.172,1.3,1.3,0,0,0,.728-.2.885.885,0,0,0,.392-.58h.688a1.589,1.589,0,0,1-.608.976A1.9,1.9,0,0,1,37.32.1Zm4.544,0A2,2,0,0,1,40.856-.16a1.849,1.849,0,0,1-.708-.724,2.229,2.229,0,0,1-.26-1.1,2.2,2.2,0,0,1,.264-1.1,1.869,1.869,0,0,1,.716-.724,2.017,2.017,0,0,1,1.012-.256,2,2,0,0,1,1.008.256,1.849,1.849,0,0,1,.708.724,2.229,2.229,0,0,1,.26,1.1,2.2,2.2,0,0,1-.264,1.1,1.869,1.869,0,0,1-.716.724A2.017,2.017,0,0,1,41.864.1Zm0-.576a1.275,1.275,0,0,0,.64-.168,1.253,1.253,0,0,0,.48-.5,1.714,1.714,0,0,0,.184-.832,1.745,1.745,0,0,0-.18-.832,1.227,1.227,0,0,0-.476-.5,1.26,1.26,0,0,0-.632-.168,1.275,1.275,0,0,0-.64.168,1.253,1.253,0,0,0-.48.5,1.714,1.714,0,0,0-.184.832,1.714,1.714,0,0,0,.184.832,1.262,1.262,0,0,0,.476.5A1.238,1.238,0,0,0,41.864-.48ZM46.24.1a1.49,1.49,0,0,1-1.12-.428A1.825,1.825,0,0,1,44.7-1.648v-2.32h.672V-1.72q0,1.24,1.016,1.24a1.115,1.115,0,0,0,.86-.372,1.516,1.516,0,0,0,.34-1.06V-3.968h.672V0h-.608l-.048-.712a1.381,1.381,0,0,1-.548.592A1.576,1.576,0,0,1,46.24.1ZM49.368,0V-3.968h.608l.04.712a1.441,1.441,0,0,1,.552-.592,1.555,1.555,0,0,1,.816-.216,1.5,1.5,0,0,1,1.124.428,1.814,1.814,0,0,1,.42,1.316V0h-.672V-2.248q0-1.24-1.024-1.24a1.106,1.106,0,0,0-.852.372,1.516,1.516,0,0,0-.34,1.06V0Zm6.144,0a1.284,1.284,0,0,1-.856-.264,1.2,1.2,0,0,1-.312-.952V-3.4h-.688v-.568h.688l.088-.952h.584v.952h1.168V-3.4H55.016v2.184a.66.66,0,0,0,.152.508.828.828,0,0,0,.536.132h.416V0ZM59.16,0V-3.968h.608l.04.712a1.441,1.441,0,0,1,.552-.592,1.555,1.555,0,0,1,.816-.216,1.5,1.5,0,0,1,1.124.428,1.814,1.814,0,0,1,.42,1.316V0h-.672V-2.248q0-1.24-1.024-1.24a1.106,1.106,0,0,0-.852.372,1.516,1.516,0,0,0-.34,1.06V0Zm6.024.1a1.49,1.49,0,0,1-1.12-.428,1.825,1.825,0,0,1-.416-1.316v-2.32h.672V-1.72q0,1.24,1.016,1.24a1.115,1.115,0,0,0,.86-.372,1.516,1.516,0,0,0,.34-1.06V-3.968h.672V0H66.6l-.048-.712A1.381,1.381,0,0,1,66-.12,1.576,1.576,0,0,1,65.184.1ZM68.312,0V-3.968h.608l.048.576a1.344,1.344,0,0,1,.512-.5,1.469,1.469,0,0,1,.72-.176,1.626,1.626,0,0,1,.812.192,1.263,1.263,0,0,1,.524.584,1.519,1.519,0,0,1,.572-.568,1.562,1.562,0,0,1,.788-.208,1.527,1.527,0,0,1,1.136.428,1.8,1.8,0,0,1,.424,1.316V0h-.664V-2.248a1.471,1.471,0,0,0-.248-.928.856.856,0,0,0-.712-.312,1,1,0,0,0-.8.372,1.592,1.592,0,0,0-.316,1.06V0h-.672V-2.248a1.471,1.471,0,0,0-.248-.928.856.856,0,0,0-.712-.312.992.992,0,0,0-.788.372,1.592,1.592,0,0,0-.316,1.06V0Zm9.28.1a1.836,1.836,0,0,1-.868-.2,1.383,1.383,0,0,1-.58-.56L76.08,0h-.608V-5.76h.672v2.448a1.873,1.873,0,0,1,.548-.52,1.633,1.633,0,0,1,.908-.232,1.923,1.923,0,0,1,1.032.272,1.861,1.861,0,0,1,.684.744,2.3,2.3,0,0,1,.244,1.072,2.276,2.276,0,0,1-.244,1.068,1.831,1.831,0,0,1-.688.736A1.966,1.966,0,0,1,77.592.1ZM77.52-.488a1.311,1.311,0,0,0,.7-.188A1.323,1.323,0,0,0,78.7-1.2a1.666,1.666,0,0,0,.176-.784,1.666,1.666,0,0,0-.176-.784,1.323,1.323,0,0,0-.48-.524,1.311,1.311,0,0,0-.7-.188,1.311,1.311,0,0,0-.7.188,1.323,1.323,0,0,0-.48.524,1.666,1.666,0,0,0-.176.784,1.666,1.666,0,0,0,.176.784,1.323,1.323,0,0,0,.48.524A1.311,1.311,0,0,0,77.52-.488ZM82.28.1a1.944,1.944,0,0,1-1.008-.26,1.846,1.846,0,0,1-.692-.724,2.263,2.263,0,0,1-.252-1.1,2.3,2.3,0,0,1,.248-1.092,1.8,1.8,0,0,1,.692-.728,2,2,0,0,1,1.028-.26,1.854,1.854,0,0,1,1,.26,1.761,1.761,0,0,1,.644.684,1.923,1.923,0,0,1,.224.912q0,.088,0,.176t0,.2h-3.16a1.559,1.559,0,0,0,.212.756,1.253,1.253,0,0,0,.472.452,1.261,1.261,0,0,0,.6.152,1.2,1.2,0,0,0,.7-.192,1.1,1.1,0,0,0,.408-.52h.664a1.791,1.791,0,0,1-.612.916A1.785,1.785,0,0,1,82.28.1Zm0-3.592a1.342,1.342,0,0,0-.852.292A1.176,1.176,0,0,0,81-2.352h2.5a1.135,1.135,0,0,0-.368-.84A1.235,1.235,0,0,0,82.28-3.5ZM85.048,0V-3.968h.608l.056.76a1.438,1.438,0,0,1,.56-.624,1.736,1.736,0,0,1,.928-.232v.7h-.184a1.66,1.66,0,0,0-.648.124.984.984,0,0,0-.472.42A1.6,1.6,0,0,0,85.72-2V0Z" transform="translate(3189 -2667)" fill="#2a2a2a"/>
        <g id="Rectangle_6477-2" data-name="Rectangle 6477" transform="translate(3189 -2663)" fill="#fff" stroke="#e6e6e6" stroke-width="1">
          <rect width="148" height="20" rx="2" stroke="none"/>
          <rect x="0.5" y="0.5" width="147" height="19" rx="1.5" fill="none"/>
        </g>
        <path id="Path_24493" data-name="Path 24493" d="M1.144,0V-4.848l-.9.2v-.464L1.368-5.6h.456V0ZM3.56,0V-4.848l-.9.2v-.464L3.784-5.6H4.24V0ZM5.976,0V-4.848l-.9.2v-.464L6.2-5.6h.456V0ZM7.752,0V-.472Q8.32-.92,8.828-1.38a11.572,11.572,0,0,0,.9-.908,4.558,4.558,0,0,0,.624-.88A1.782,1.782,0,0,0,10.584-4a1.5,1.5,0,0,0-.1-.552.882.882,0,0,0-.324-.412,1.048,1.048,0,0,0-.608-.156,1.093,1.093,0,0,0-.616.164,1.019,1.019,0,0,0-.372.436,1.391,1.391,0,0,0-.124.584H7.792a1.843,1.843,0,0,1,.232-.948,1.548,1.548,0,0,1,.632-.6,1.93,1.93,0,0,1,.9-.208,1.776,1.776,0,0,1,1.22.42,1.582,1.582,0,0,1,.476,1.252,2.129,2.129,0,0,1-.248.98,4.9,4.9,0,0,1-.632.936,8.762,8.762,0,0,1-.82.844q-.436.392-.812.7h2.7V0Zm4.576,0V-.472Q12.9-.92,13.4-1.38a11.572,11.572,0,0,0,.9-.908,4.558,4.558,0,0,0,.624-.88A1.782,1.782,0,0,0,15.16-4a1.5,1.5,0,0,0-.1-.552.882.882,0,0,0-.324-.412,1.048,1.048,0,0,0-.608-.156,1.093,1.093,0,0,0-.616.164,1.019,1.019,0,0,0-.372.436,1.391,1.391,0,0,0-.124.584h-.648a1.843,1.843,0,0,1,.232-.948,1.548,1.548,0,0,1,.632-.6,1.93,1.93,0,0,1,.9-.208,1.776,1.776,0,0,1,1.22.42,1.582,1.582,0,0,1,.476,1.252,2.129,2.129,0,0,1-.248.98,4.9,4.9,0,0,1-.632.936,8.762,8.762,0,0,1-.82.844q-.436.392-.812.7h2.7V0ZM16.9,0V-.472q.568-.448,1.076-.908a11.572,11.572,0,0,0,.9-.908,4.558,4.558,0,0,0,.624-.88A1.782,1.782,0,0,0,19.736-4a1.5,1.5,0,0,0-.1-.552.882.882,0,0,0-.324-.412A1.048,1.048,0,0,0,18.7-5.12a1.093,1.093,0,0,0-.616.164,1.019,1.019,0,0,0-.372.436,1.391,1.391,0,0,0-.124.584h-.648a1.843,1.843,0,0,1,.232-.948,1.548,1.548,0,0,1,.632-.6,1.93,1.93,0,0,1,.9-.208,1.776,1.776,0,0,1,1.22.42,1.582,1.582,0,0,1,.476,1.252,2.129,2.129,0,0,1-.248.98,4.9,4.9,0,0,1-.632.936,8.762,8.762,0,0,1-.82.844q-.436.392-.812.7h2.7V0Z" transform="translate(3197 -2650)" fill="#2a2a2a" opacity="0.6"/>
        <line id="Line_130" data-name="Line 130" y2="19" transform="translate(3226.5 -2662.5)" fill="none" stroke="#e6e6e6" stroke-width="1"/>
      </g>
      <g id="Group_18902" data-name="Group 18902" transform="translate(0 79)">
        <path id="Path_24494" data-name="Path 24494" d="M2.28,0,.176-5.6H.9L2.672-.712,4.456-5.6h.712L3.064,0ZM6.3-4.848a.45.45,0,0,1-.332-.132.45.45,0,0,1-.132-.332.427.427,0,0,1,.132-.32A.458.458,0,0,1,6.3-5.76a.461.461,0,0,1,.328.128.421.421,0,0,1,.136.32.443.443,0,0,1-.136.332A.454.454,0,0,1,6.3-4.848ZM5.968,0V-3.968H6.64V0Zm1.84,0V-3.968h.608l.056.76a1.438,1.438,0,0,1,.56-.624,1.736,1.736,0,0,1,.928-.232v.7H9.776a1.66,1.66,0,0,0-.648.124.984.984,0,0,0-.472.42A1.6,1.6,0,0,0,8.48-2V0ZM12.28,0a1.284,1.284,0,0,1-.856-.264,1.2,1.2,0,0,1-.312-.952V-3.4h-.688v-.568h.688L11.2-4.92h.584v.952h1.168V-3.4H11.784v2.184a.66.66,0,0,0,.152.508.828.828,0,0,0,.536.132h.416V0Zm2.976.1a1.49,1.49,0,0,1-1.12-.428,1.825,1.825,0,0,1-.416-1.316v-2.32h.672V-1.72q0,1.24,1.016,1.24a1.115,1.115,0,0,0,.86-.372,1.516,1.516,0,0,0,.34-1.06V-3.968h.672V0h-.608l-.048-.712a1.381,1.381,0,0,1-.548.592A1.576,1.576,0,0,1,15.256.1ZM19.7.1a1.8,1.8,0,0,1-.824-.168,1.142,1.142,0,0,1-.488-.448,1.2,1.2,0,0,1-.16-.608,1.077,1.077,0,0,1,.464-.936,2.154,2.154,0,0,1,1.264-.328h1.072V-2.44a1.059,1.059,0,0,0-.272-.788.992.992,0,0,0-.728-.268,1.161,1.161,0,0,0-.676.2A.859.859,0,0,0,19-2.728h-.688a1.273,1.273,0,0,1,.292-.728,1.632,1.632,0,0,1,.628-.452,2.067,2.067,0,0,1,.8-.156,1.644,1.644,0,0,1,1.252.444,1.647,1.647,0,0,1,.42,1.18V0h-.6l-.04-.712a1.574,1.574,0,0,1-.492.572A1.444,1.444,0,0,1,19.7.1Zm.1-.568a1.094,1.094,0,0,0,.66-.2,1.277,1.277,0,0,0,.42-.52,1.619,1.619,0,0,0,.144-.672v-.008H20.016a1.319,1.319,0,0,0-.836.2.636.636,0,0,0-.244.508.615.615,0,0,0,.228.5A.986.986,0,0,0,19.808-.472Zm2.9.472V-5.76h.672V0Zm3.9,1.76V-3.968h.608l.064.656a1.873,1.873,0,0,1,.548-.52,1.633,1.633,0,0,1,.908-.232,1.923,1.923,0,0,1,1.032.272,1.861,1.861,0,0,1,.684.744A2.3,2.3,0,0,1,30.7-1.976a2.276,2.276,0,0,1-.244,1.068,1.831,1.831,0,0,1-.688.736A1.966,1.966,0,0,1,28.728.1a1.836,1.836,0,0,1-.868-.2,1.383,1.383,0,0,1-.58-.56V1.76ZM28.656-.488a1.311,1.311,0,0,0,.7-.188,1.323,1.323,0,0,0,.48-.524,1.666,1.666,0,0,0,.176-.784,1.666,1.666,0,0,0-.176-.784,1.323,1.323,0,0,0-.48-.524,1.311,1.311,0,0,0-.7-.188,1.311,1.311,0,0,0-.7.188,1.323,1.323,0,0,0-.48.524,1.666,1.666,0,0,0-.176.784,1.666,1.666,0,0,0,.176.784,1.323,1.323,0,0,0,.48.524A1.311,1.311,0,0,0,28.656-.488Zm4.3.584a1.8,1.8,0,0,1-.824-.168A1.142,1.142,0,0,1,31.64-.52a1.2,1.2,0,0,1-.16-.608,1.077,1.077,0,0,1,.464-.936,2.154,2.154,0,0,1,1.264-.328H34.28V-2.44a1.059,1.059,0,0,0-.272-.788A.992.992,0,0,0,33.28-3.5a1.161,1.161,0,0,0-.676.2.859.859,0,0,0-.356.572H31.56a1.273,1.273,0,0,1,.292-.728,1.632,1.632,0,0,1,.628-.452,2.067,2.067,0,0,1,.8-.156,1.644,1.644,0,0,1,1.252.444,1.647,1.647,0,0,1,.42,1.18V0h-.6l-.04-.712a1.574,1.574,0,0,1-.492.572A1.444,1.444,0,0,1,32.952.1Zm.1-.568a1.094,1.094,0,0,0,.66-.2,1.277,1.277,0,0,0,.42-.52,1.619,1.619,0,0,0,.144-.672v-.008H33.264a1.319,1.319,0,0,0-.836.2.636.636,0,0,0-.244.508.615.615,0,0,0,.228.5A.986.986,0,0,0,33.056-.472ZM36.272,1.76l.984-2.144h-.232L35.448-3.968h.728L37.488-.88,38.88-3.968h.7l-2.6,5.728ZM40.288,0V-3.968H40.9l.048.576a1.344,1.344,0,0,1,.512-.5,1.469,1.469,0,0,1,.72-.176,1.626,1.626,0,0,1,.812.192,1.263,1.263,0,0,1,.524.584,1.519,1.519,0,0,1,.572-.568,1.562,1.562,0,0,1,.788-.208,1.527,1.527,0,0,1,1.136.428,1.8,1.8,0,0,1,.424,1.316V0h-.664V-2.248a1.471,1.471,0,0,0-.248-.928.856.856,0,0,0-.712-.312,1,1,0,0,0-.8.372,1.592,1.592,0,0,0-.316,1.06V0h-.672V-2.248a1.471,1.471,0,0,0-.248-.928.856.856,0,0,0-.712-.312.992.992,0,0,0-.788.372,1.592,1.592,0,0,0-.316,1.06V0Zm8.944.1a1.944,1.944,0,0,1-1.008-.26,1.846,1.846,0,0,1-.692-.724,2.263,2.263,0,0,1-.252-1.1,2.3,2.3,0,0,1,.248-1.092A1.8,1.8,0,0,1,48.22-3.8a2,2,0,0,1,1.028-.26,1.854,1.854,0,0,1,1,.26,1.762,1.762,0,0,1,.644.684,1.923,1.923,0,0,1,.224.912q0,.088,0,.176t0,.2h-3.16a1.559,1.559,0,0,0,.212.756,1.253,1.253,0,0,0,.472.452,1.261,1.261,0,0,0,.6.152,1.2,1.2,0,0,0,.7-.192,1.1,1.1,0,0,0,.408-.52H51a1.791,1.791,0,0,1-.612.916A1.785,1.785,0,0,1,49.232.1Zm0-3.592a1.342,1.342,0,0,0-.852.292,1.176,1.176,0,0,0-.428.852h2.5a1.135,1.135,0,0,0-.368-.84A1.235,1.235,0,0,0,49.232-3.5ZM52,0V-3.968h.608l.04.712a1.441,1.441,0,0,1,.552-.592,1.555,1.555,0,0,1,.816-.216,1.5,1.5,0,0,1,1.124.428,1.814,1.814,0,0,1,.42,1.316V0h-.672V-2.248q0-1.24-1.024-1.24a1.106,1.106,0,0,0-.852.372,1.516,1.516,0,0,0-.34,1.06V0Zm6.144,0a1.284,1.284,0,0,1-.856-.264,1.2,1.2,0,0,1-.312-.952V-3.4h-.688v-.568h.688l.088-.952h.584v.952h1.168V-3.4H57.648v2.184a.66.66,0,0,0,.152.508.828.828,0,0,0,.536.132h.416V0Zm4.968.1a1.8,1.8,0,0,1-.824-.168A1.142,1.142,0,0,1,61.8-.52a1.2,1.2,0,0,1-.16-.608,1.078,1.078,0,0,1,.464-.936,2.154,2.154,0,0,1,1.264-.328H64.44V-2.44a1.059,1.059,0,0,0-.272-.788A.992.992,0,0,0,63.44-3.5a1.161,1.161,0,0,0-.676.2.859.859,0,0,0-.356.572H61.72a1.273,1.273,0,0,1,.292-.728,1.632,1.632,0,0,1,.628-.452,2.067,2.067,0,0,1,.8-.156,1.644,1.644,0,0,1,1.252.444,1.647,1.647,0,0,1,.42,1.18V0h-.6l-.04-.712a1.574,1.574,0,0,1-.492.572A1.444,1.444,0,0,1,63.112.1Zm.1-.568a1.094,1.094,0,0,0,.66-.2,1.277,1.277,0,0,0,.42-.52,1.619,1.619,0,0,0,.144-.672v-.008H63.424a1.319,1.319,0,0,0-.836.2.636.636,0,0,0-.244.508.615.615,0,0,0,.228.5A.986.986,0,0,0,63.216-.472ZM67.92.1a1.943,1.943,0,0,1-1.036-.272A1.852,1.852,0,0,1,66.2-.92a2.3,2.3,0,0,1-.244-1.072A2.246,2.246,0,0,1,66.2-3.06a1.868,1.868,0,0,1,.688-.736,1.96,1.96,0,0,1,1.04-.268,1.812,1.812,0,0,1,.864.2,1.441,1.441,0,0,1,.584.56V-5.76h.672V0H69.44l-.064-.656a1.858,1.858,0,0,1-.552.52A1.638,1.638,0,0,1,67.92.1Zm.072-.584A1.331,1.331,0,0,0,68.7-.676a1.286,1.286,0,0,0,.48-.524,1.7,1.7,0,0,0,.172-.784,1.7,1.7,0,0,0-.172-.784,1.286,1.286,0,0,0-.48-.524,1.331,1.331,0,0,0-.708-.188,1.316,1.316,0,0,0-.7.188,1.286,1.286,0,0,0-.48.524,1.7,1.7,0,0,0-.172.784,1.7,1.7,0,0,0,.172.784,1.286,1.286,0,0,0,.48.524A1.316,1.316,0,0,0,67.992-.488ZM72.944.1a1.943,1.943,0,0,1-1.036-.272A1.852,1.852,0,0,1,71.22-.92a2.3,2.3,0,0,1-.244-1.072,2.246,2.246,0,0,1,.248-1.068,1.868,1.868,0,0,1,.688-.736,1.96,1.96,0,0,1,1.04-.268,1.812,1.812,0,0,1,.864.2,1.441,1.441,0,0,1,.584.56V-5.76h.672V0h-.608L74.4-.656a1.858,1.858,0,0,1-.552.52A1.638,1.638,0,0,1,72.944.1Zm.072-.584a1.331,1.331,0,0,0,.708-.188A1.286,1.286,0,0,0,74.2-1.2a1.7,1.7,0,0,0,.172-.784,1.7,1.7,0,0,0-.172-.784,1.286,1.286,0,0,0-.48-.524,1.331,1.331,0,0,0-.708-.188,1.316,1.316,0,0,0-.7.188,1.286,1.286,0,0,0-.48.524,1.7,1.7,0,0,0-.172.784,1.7,1.7,0,0,0,.172.784,1.286,1.286,0,0,0,.48.524A1.316,1.316,0,0,0,73.016-.488ZM76.168,0V-3.968h.608l.056.76a1.438,1.438,0,0,1,.56-.624,1.736,1.736,0,0,1,.928-.232v.7h-.184a1.66,1.66,0,0,0-.648.124.984.984,0,0,0-.472.42A1.6,1.6,0,0,0,76.84-2V0ZM80.7.1A1.944,1.944,0,0,1,79.7-.164,1.846,1.846,0,0,1,79-.888a2.263,2.263,0,0,1-.252-1.1A2.3,2.3,0,0,1,79-3.076a1.8,1.8,0,0,1,.692-.728,2,2,0,0,1,1.028-.26,1.854,1.854,0,0,1,1,.26,1.761,1.761,0,0,1,.644.684,1.923,1.923,0,0,1,.224.912q0,.088,0,.176t0,.2h-3.16a1.559,1.559,0,0,0,.212.756,1.253,1.253,0,0,0,.472.452,1.261,1.261,0,0,0,.6.152,1.2,1.2,0,0,0,.7-.192,1.1,1.1,0,0,0,.408-.52h.664a1.791,1.791,0,0,1-.612.916A1.785,1.785,0,0,1,80.7.1Zm0-3.592a1.342,1.342,0,0,0-.852.292,1.176,1.176,0,0,0-.428.852h2.5a1.135,1.135,0,0,0-.368-.84A1.235,1.235,0,0,0,80.7-3.5ZM84.992.1a1.9,1.9,0,0,1-1.184-.36,1.4,1.4,0,0,1-.552-.976h.688a.949.949,0,0,0,.332.54A1.081,1.081,0,0,0,85-.472a.913.913,0,0,0,.624-.18.557.557,0,0,0,.2-.428.475.475,0,0,0-.26-.48,3.461,3.461,0,0,0-.732-.216,4.126,4.126,0,0,1-.64-.184,1.454,1.454,0,0,1-.536-.34.792.792,0,0,1-.216-.58,1.071,1.071,0,0,1,.388-.852,1.565,1.565,0,0,1,1.052-.332,1.632,1.632,0,0,1,1.036.316,1.261,1.261,0,0,1,.468.9H85.72a.692.692,0,0,0-.26-.476.929.929,0,0,0-.588-.172.89.89,0,0,0-.556.152.482.482,0,0,0-.2.4.416.416,0,0,0,.252.376,2.705,2.705,0,0,0,.684.232,5.958,5.958,0,0,1,.7.2A1.323,1.323,0,0,1,86.3-1.8a.935.935,0,0,1,.212.66,1.084,1.084,0,0,1-.4.884A1.674,1.674,0,0,1,84.992.1Zm4,0a1.9,1.9,0,0,1-1.184-.36,1.4,1.4,0,0,1-.552-.976h.688a.949.949,0,0,0,.332.54A1.081,1.081,0,0,0,89-.472a.913.913,0,0,0,.624-.18.557.557,0,0,0,.2-.428.475.475,0,0,0-.26-.48,3.461,3.461,0,0,0-.732-.216,4.126,4.126,0,0,1-.64-.184,1.454,1.454,0,0,1-.536-.34.792.792,0,0,1-.216-.58,1.071,1.071,0,0,1,.388-.852,1.565,1.565,0,0,1,1.052-.332,1.632,1.632,0,0,1,1.036.316,1.261,1.261,0,0,1,.468.9H89.72a.692.692,0,0,0-.26-.476.929.929,0,0,0-.588-.172.89.89,0,0,0-.556.152.482.482,0,0,0-.2.4.416.416,0,0,0,.252.376,2.705,2.705,0,0,0,.684.232,5.958,5.958,0,0,1,.7.2A1.323,1.323,0,0,1,90.3-1.8a.935.935,0,0,1,.212.66,1.084,1.084,0,0,1-.4.884A1.674,1.674,0,0,1,88.992.1Z" transform="translate(3189 -2667)" fill="#2a2a2a"/>
        <g id="Path_24495" data-name="Path 24495" transform="translate(3189 -2663)" fill="#fff">
          <path d="M 146 19.5 L 2 19.5 C 1.172899961471558 19.5 0.5 18.82710075378418 0.5 18 L 0.5 2 C 0.5 1.172899961471558 1.172899961471558 0.5 2 0.5 L 146 0.5 C 146.8271026611328 0.5 147.5 1.172899961471558 147.5 2 L 147.5 18 C 147.5 18.82710075378418 146.8271026611328 19.5 146 19.5 Z" stroke="none"/>
          <path d="M 2 1 C 1.448593139648438 1 1 1.448600769042969 1 2 L 1 18 C 1 18.55139923095703 1.448593139648438 19 2 19 L 146 19 C 146.5514068603516 19 147 18.55139923095703 147 18 L 147 2 C 147 1.448600769042969 146.5514068603516 1 146 1 L 2 1 M 2 0 L 146 0 C 147.1045532226562 0 148 0.8954200744628906 148 2 L 148 18 C 148 19.10457992553711 147.1045532226562 20 146 20 L 2 20 C 0.895416259765625 20 0 19.10457992553711 0 18 L 0 2 C 0 0.8954200744628906 0.895416259765625 0 2 0 Z" stroke="none" fill="#e6e6e6"/>
        </g>
        <path id="Path_24496" data-name="Path 24496" d="M3.456,1.592a3.263,3.263,0,0,1-1.5-.328,2.4,2.4,0,0,1-1-.928A2.74,2.74,0,0,1,.6-1.088,4.205,4.205,0,0,1,.9-2.672,3.937,3.937,0,0,1,1.728-3.96a3.762,3.762,0,0,1,1.264-.856,4.112,4.112,0,0,1,1.6-.3,3.312,3.312,0,0,1,1.544.34,2.457,2.457,0,0,1,1.012.944,2.713,2.713,0,0,1,.356,1.4,3.666,3.666,0,0,1-.112.9,2.825,2.825,0,0,1-.332.8,1.828,1.828,0,0,1-.536.568A1.269,1.269,0,0,1,5.8.048.85.85,0,0,1,5.18-.16a.833.833,0,0,1-.236-.56,1.77,1.77,0,0,1-.628.564,1.676,1.676,0,0,1-.8.2A1.227,1.227,0,0,1,2.564-.32a1.4,1.4,0,0,1-.34-.992,2.559,2.559,0,0,1,.14-.844,2.361,2.361,0,0,1,.4-.72,1.922,1.922,0,0,1,.608-.5,1.666,1.666,0,0,1,.784-.184A1,1,0,0,1,5.2-2.9l.1-.576h.568l-.4,2.288a1,1,0,0,0,.036.556A.378.378,0,0,0,5.9-.416.663.663,0,0,0,6.352-.6a1.427,1.427,0,0,0,.336-.48,2.92,2.92,0,0,0,.2-.648A3.522,3.522,0,0,0,6.96-2.4a2.129,2.129,0,0,0-.652-1.648,2.551,2.551,0,0,0-1.8-.6,3.262,3.262,0,0,0-1.34.272A3.315,3.315,0,0,0,2.1-3.624,3.456,3.456,0,0,0,1.4-2.512a3.66,3.66,0,0,0-.252,1.368A2.378,2.378,0,0,0,1.44.08a1.923,1.923,0,0,0,.84.768,2.942,2.942,0,0,0,1.3.264,3.54,3.54,0,0,0,.688-.068A2.852,2.852,0,0,0,4.9.84l.112.456A4.063,4.063,0,0,1,3.456,1.592ZM3.712-.464a1.15,1.15,0,0,0,.632-.184,1.423,1.423,0,0,0,.472-.508A1.848,1.848,0,0,0,5.04-1.9a1.177,1.177,0,0,0-.164-.808.784.784,0,0,0-.708-.336,1.111,1.111,0,0,0-.708.236A1.519,1.519,0,0,0,3-2.2a1.982,1.982,0,0,0-.16.784,1.036,1.036,0,0,0,.22.692A.806.806,0,0,0,3.712-.464ZM8.928,1.76,9.912-.384H9.68L8.1-3.968h.728L10.144-.88l1.392-3.088h.7L9.632,1.76ZM14.352.1a1.944,1.944,0,0,1-1.008-.26,1.846,1.846,0,0,1-.692-.724,2.263,2.263,0,0,1-.252-1.1,2.3,2.3,0,0,1,.248-1.092A1.8,1.8,0,0,1,13.34-3.8a2,2,0,0,1,1.028-.26,1.854,1.854,0,0,1,1,.26,1.762,1.762,0,0,1,.644.684,1.923,1.923,0,0,1,.224.912q0,.088,0,.176t0,.2h-3.16a1.559,1.559,0,0,0,.212.756,1.253,1.253,0,0,0,.472.452,1.261,1.261,0,0,0,.6.152,1.2,1.2,0,0,0,.7-.192,1.1,1.1,0,0,0,.408-.52h.664a1.791,1.791,0,0,1-.612.916A1.785,1.785,0,0,1,14.352.1Zm0-3.592A1.342,1.342,0,0,0,13.5-3.2a1.176,1.176,0,0,0-.428.852h2.5a1.135,1.135,0,0,0-.368-.84A1.235,1.235,0,0,0,14.352-3.5ZM18.64.1a1.9,1.9,0,0,1-1.184-.36A1.4,1.4,0,0,1,16.9-1.24h.688a.949.949,0,0,0,.332.54,1.081,1.081,0,0,0,.724.228.913.913,0,0,0,.624-.18.557.557,0,0,0,.2-.428.475.475,0,0,0-.26-.48,3.461,3.461,0,0,0-.732-.216,4.126,4.126,0,0,1-.64-.184A1.454,1.454,0,0,1,17.3-2.3a.792.792,0,0,1-.216-.58,1.071,1.071,0,0,1,.388-.852,1.565,1.565,0,0,1,1.052-.332,1.632,1.632,0,0,1,1.036.316,1.261,1.261,0,0,1,.468.9h-.664a.692.692,0,0,0-.26-.476A.929.929,0,0,0,18.52-3.5a.89.89,0,0,0-.556.152.482.482,0,0,0-.2.4.416.416,0,0,0,.252.376,2.705,2.705,0,0,0,.684.232,5.958,5.958,0,0,1,.7.2,1.323,1.323,0,0,1,.544.344.935.935,0,0,1,.212.66,1.084,1.084,0,0,1-.4.884A1.674,1.674,0,0,1,18.64.1Zm4.6,0a1.836,1.836,0,0,1-.868-.2,1.383,1.383,0,0,1-.58-.56L21.728,0H21.12V-5.76h.672v2.448a1.873,1.873,0,0,1,.548-.52,1.633,1.633,0,0,1,.908-.232,1.923,1.923,0,0,1,1.032.272,1.861,1.861,0,0,1,.684.744,2.3,2.3,0,0,1,.244,1.072,2.276,2.276,0,0,1-.244,1.068,1.831,1.831,0,0,1-.688.736A1.966,1.966,0,0,1,23.24.1Zm-.072-.584a1.311,1.311,0,0,0,.7-.188,1.323,1.323,0,0,0,.48-.524,1.666,1.666,0,0,0,.176-.784,1.666,1.666,0,0,0-.176-.784,1.323,1.323,0,0,0-.48-.524,1.311,1.311,0,0,0-.7-.188,1.311,1.311,0,0,0-.7.188,1.323,1.323,0,0,0-.48.524,1.666,1.666,0,0,0-.176.784,1.666,1.666,0,0,0,.176.784,1.323,1.323,0,0,0,.48.524A1.311,1.311,0,0,0,23.168-.488Zm4.3.584a1.8,1.8,0,0,1-.824-.168,1.142,1.142,0,0,1-.488-.448,1.2,1.2,0,0,1-.16-.608,1.077,1.077,0,0,1,.464-.936,2.154,2.154,0,0,1,1.264-.328h1.072V-2.44a1.059,1.059,0,0,0-.272-.788.992.992,0,0,0-.728-.268,1.161,1.161,0,0,0-.676.2.859.859,0,0,0-.356.572h-.688a1.273,1.273,0,0,1,.292-.728,1.632,1.632,0,0,1,.628-.452,2.067,2.067,0,0,1,.8-.156,1.644,1.644,0,0,1,1.252.444,1.647,1.647,0,0,1,.42,1.18V0h-.6l-.04-.712a1.574,1.574,0,0,1-.492.572A1.444,1.444,0,0,1,27.464.1Zm.1-.568a1.094,1.094,0,0,0,.66-.2,1.277,1.277,0,0,0,.42-.52,1.619,1.619,0,0,0,.144-.672v-.008H27.776a1.319,1.319,0,0,0-.836.2.636.636,0,0,0-.244.508.615.615,0,0,0,.228.5A.986.986,0,0,0,27.568-.472Zm2.9.472V-3.968h.608l.04.712a1.441,1.441,0,0,1,.552-.592,1.555,1.555,0,0,1,.816-.216,1.5,1.5,0,0,1,1.124.428,1.814,1.814,0,0,1,.42,1.316V0H33.36V-2.248q0-1.24-1.024-1.24a1.106,1.106,0,0,0-.852.372,1.516,1.516,0,0,0-.34,1.06V0Zm4.576,0V-5.76h.672V-2.3l1.624-1.672h.824l-1.76,1.792L38.392,0h-.856L35.72-2.056V0Z" transform="translate(3293 -2650)" fill="#2a2a2a" opacity="0.6"/>
      </g>
      <g id="Group_18903" data-name="Group 18903" transform="translate(0 120)">
        <path id="Path_24497" data-name="Path 24497" d="M.24,0,2.3-5.6h.712L5.072,0H4.36L3.848-1.44H1.464L.944,0ZM1.664-1.984H3.648L2.656-4.752ZM7.224.1A1.49,1.49,0,0,1,6.1-.332a1.825,1.825,0,0,1-.416-1.316v-2.32H6.36V-1.72q0,1.24,1.016,1.24a1.115,1.115,0,0,0,.86-.372,1.516,1.516,0,0,0,.34-1.06V-3.968h.672V0H8.64L8.592-.712a1.381,1.381,0,0,1-.548.592A1.576,1.576,0,0,1,7.224.1Zm4.7-.1a1.284,1.284,0,0,1-.856-.264,1.2,1.2,0,0,1-.312-.952V-3.4h-.688v-.568h.688l.088-.952h.584v.952h1.168V-3.4H11.424v2.184a.66.66,0,0,0,.152.508.828.828,0,0,0,.536.132h.416V0Zm3.224.1A2,2,0,0,1,14.136-.16a1.849,1.849,0,0,1-.708-.724,2.229,2.229,0,0,1-.26-1.1,2.2,2.2,0,0,1,.264-1.1,1.869,1.869,0,0,1,.716-.724,2.017,2.017,0,0,1,1.012-.256,2,2,0,0,1,1.008.256,1.849,1.849,0,0,1,.708.724,2.229,2.229,0,0,1,.26,1.1,2.2,2.2,0,0,1-.264,1.1,1.869,1.869,0,0,1-.716.724A2.017,2.017,0,0,1,15.144.1Zm0-.576a1.275,1.275,0,0,0,.64-.168,1.253,1.253,0,0,0,.48-.5,1.714,1.714,0,0,0,.184-.832,1.745,1.745,0,0,0-.18-.832,1.227,1.227,0,0,0-.476-.5,1.26,1.26,0,0,0-.632-.168,1.275,1.275,0,0,0-.64.168,1.253,1.253,0,0,0-.48.5,1.714,1.714,0,0,0-.184.832,1.714,1.714,0,0,0,.184.832,1.262,1.262,0,0,0,.476.5A1.238,1.238,0,0,0,15.144-.48ZM21.992.1a1.943,1.943,0,0,1-1.036-.272,1.852,1.852,0,0,1-.688-.744,2.3,2.3,0,0,1-.244-1.072,2.246,2.246,0,0,1,.248-1.068A1.868,1.868,0,0,1,20.96-3.8,1.96,1.96,0,0,1,22-4.064a1.812,1.812,0,0,1,.864.2,1.441,1.441,0,0,1,.584.56V-5.76h.672V0h-.608l-.064-.656a1.858,1.858,0,0,1-.552.52A1.638,1.638,0,0,1,21.992.1Zm.072-.584a1.331,1.331,0,0,0,.708-.188,1.286,1.286,0,0,0,.48-.524,1.7,1.7,0,0,0,.172-.784,1.7,1.7,0,0,0-.172-.784,1.286,1.286,0,0,0-.48-.524,1.331,1.331,0,0,0-.708-.188,1.317,1.317,0,0,0-.7.188,1.286,1.286,0,0,0-.48.524,1.7,1.7,0,0,0-.172.784,1.7,1.7,0,0,0,.172.784,1.286,1.286,0,0,0,.48.524A1.317,1.317,0,0,0,22.064-.488ZM27,.1a1.944,1.944,0,0,1-1.008-.26A1.846,1.846,0,0,1,25.3-.888a2.263,2.263,0,0,1-.252-1.1A2.3,2.3,0,0,1,25.3-3.076a1.8,1.8,0,0,1,.692-.728,2,2,0,0,1,1.028-.26,1.854,1.854,0,0,1,1,.26,1.762,1.762,0,0,1,.644.684,1.923,1.923,0,0,1,.224.912q0,.088,0,.176t0,.2h-3.16a1.559,1.559,0,0,0,.212.756,1.253,1.253,0,0,0,.472.452,1.261,1.261,0,0,0,.6.152,1.2,1.2,0,0,0,.7-.192,1.1,1.1,0,0,0,.408-.52h.664a1.791,1.791,0,0,1-.612.916A1.785,1.785,0,0,1,27,.1ZM27-3.5a1.342,1.342,0,0,0-.852.292,1.176,1.176,0,0,0-.428.852h2.5a1.135,1.135,0,0,0-.368-.84A1.235,1.235,0,0,0,27-3.5ZM31.088.1a1.8,1.8,0,0,1-.824-.168,1.142,1.142,0,0,1-.488-.448,1.2,1.2,0,0,1-.16-.608,1.077,1.077,0,0,1,.464-.936,2.154,2.154,0,0,1,1.264-.328h1.072V-2.44a1.059,1.059,0,0,0-.272-.788.992.992,0,0,0-.728-.268,1.161,1.161,0,0,0-.676.2.859.859,0,0,0-.356.572H29.7a1.273,1.273,0,0,1,.292-.728,1.632,1.632,0,0,1,.628-.452,2.067,2.067,0,0,1,.8-.156,1.644,1.644,0,0,1,1.252.444,1.647,1.647,0,0,1,.42,1.18V0h-.6l-.04-.712a1.574,1.574,0,0,1-.492.572A1.444,1.444,0,0,1,31.088.1Zm.1-.568a1.094,1.094,0,0,0,.66-.2,1.277,1.277,0,0,0,.42-.52,1.619,1.619,0,0,0,.144-.672v-.008H31.4a1.319,1.319,0,0,0-.836.2.636.636,0,0,0-.244.508.615.615,0,0,0,.228.5A.986.986,0,0,0,31.192-.472ZM35.92.1a2.008,2.008,0,0,1-1.02-.26,1.869,1.869,0,0,1-.712-.728,2.212,2.212,0,0,1-.26-1.092,2.212,2.212,0,0,1,.26-1.092A1.869,1.869,0,0,1,34.9-3.8a2.008,2.008,0,0,1,1.02-.26,1.906,1.906,0,0,1,1.188.368,1.6,1.6,0,0,1,.612.984h-.688a.882.882,0,0,0-.392-.572,1.3,1.3,0,0,0-.728-.2,1.26,1.26,0,0,0-.632.168,1.253,1.253,0,0,0-.48.5,1.714,1.714,0,0,0-.184.832,1.714,1.714,0,0,0,.184.832,1.282,1.282,0,0,0,.48.508,1.238,1.238,0,0,0,.632.172,1.3,1.3,0,0,0,.728-.2.885.885,0,0,0,.392-.58h.688a1.589,1.589,0,0,1-.608.976A1.9,1.9,0,0,1,35.92.1ZM40.112,0a1.284,1.284,0,0,1-.856-.264,1.2,1.2,0,0,1-.312-.952V-3.4h-.688v-.568h.688l.088-.952h.584v.952h1.168V-3.4H39.616v2.184a.66.66,0,0,0,.152.508.828.828,0,0,0,.536.132h.416V0Zm1.936-4.848a.45.45,0,0,1-.332-.132.45.45,0,0,1-.132-.332.427.427,0,0,1,.132-.32.458.458,0,0,1,.332-.128.461.461,0,0,1,.328.128.421.421,0,0,1,.136.32.443.443,0,0,1-.136.332A.454.454,0,0,1,42.048-4.848ZM41.712,0V-3.968h.672V0ZM44.7,0l-1.5-3.968h.7l1.192,3.32,1.2-3.32h.688L45.472,0ZM48.84.1a1.8,1.8,0,0,1-.824-.168,1.142,1.142,0,0,1-.488-.448,1.2,1.2,0,0,1-.16-.608,1.078,1.078,0,0,1,.464-.936A2.154,2.154,0,0,1,49.1-2.392h1.072V-2.44a1.059,1.059,0,0,0-.272-.788.992.992,0,0,0-.728-.268,1.161,1.161,0,0,0-.676.2.859.859,0,0,0-.356.572h-.688a1.273,1.273,0,0,1,.292-.728,1.632,1.632,0,0,1,.628-.452,2.067,2.067,0,0,1,.8-.156,1.644,1.644,0,0,1,1.252.444,1.647,1.647,0,0,1,.42,1.18V0h-.6L50.2-.712a1.574,1.574,0,0,1-.492.572A1.444,1.444,0,0,1,48.84.1Zm.1-.568a1.094,1.094,0,0,0,.66-.2,1.277,1.277,0,0,0,.42-.52,1.619,1.619,0,0,0,.144-.672v-.008H49.152a1.319,1.319,0,0,0-.836.2.636.636,0,0,0-.244.508.615.615,0,0,0,.228.5A.986.986,0,0,0,48.944-.472ZM53.3,0a1.284,1.284,0,0,1-.856-.264,1.2,1.2,0,0,1-.312-.952V-3.4h-.688v-.568h.688l.088-.952h.584v.952h1.168V-3.4H52.808v2.184a.66.66,0,0,0,.152.508.828.828,0,0,0,.536.132h.416V0Zm3.2.1A1.944,1.944,0,0,1,55.5-.164,1.846,1.846,0,0,1,54.8-.888a2.263,2.263,0,0,1-.252-1.1A2.3,2.3,0,0,1,54.8-3.076a1.8,1.8,0,0,1,.692-.728,2,2,0,0,1,1.028-.26,1.854,1.854,0,0,1,1,.26,1.762,1.762,0,0,1,.644.684,1.923,1.923,0,0,1,.224.912q0,.088,0,.176t0,.2h-3.16a1.559,1.559,0,0,0,.212.756,1.253,1.253,0,0,0,.472.452,1.261,1.261,0,0,0,.6.152,1.2,1.2,0,0,0,.7-.192,1.1,1.1,0,0,0,.408-.52h.664a1.791,1.791,0,0,1-.612.916A1.785,1.785,0,0,1,56.5.1Zm0-3.592a1.342,1.342,0,0,0-.852.292,1.176,1.176,0,0,0-.428.852h2.5a1.135,1.135,0,0,0-.368-.84A1.235,1.235,0,0,0,56.5-3.5ZM63.192.1a1.943,1.943,0,0,1-1.036-.272,1.852,1.852,0,0,1-.688-.744,2.3,2.3,0,0,1-.244-1.072,2.246,2.246,0,0,1,.248-1.068A1.868,1.868,0,0,1,62.16-3.8a1.96,1.96,0,0,1,1.04-.268,1.812,1.812,0,0,1,.864.2,1.441,1.441,0,0,1,.584.56V-5.76h.672V0h-.608l-.064-.656a1.858,1.858,0,0,1-.552.52A1.638,1.638,0,0,1,63.192.1Zm.072-.584a1.331,1.331,0,0,0,.708-.188,1.286,1.286,0,0,0,.48-.524,1.7,1.7,0,0,0,.172-.784,1.7,1.7,0,0,0-.172-.784,1.286,1.286,0,0,0-.48-.524,1.331,1.331,0,0,0-.708-.188,1.317,1.317,0,0,0-.7.188,1.286,1.286,0,0,0-.48.524,1.7,1.7,0,0,0-.172.784,1.7,1.7,0,0,0,.172.784,1.286,1.286,0,0,0,.48.524A1.317,1.317,0,0,0,63.264-.488ZM67.736.1a1.8,1.8,0,0,1-.824-.168,1.142,1.142,0,0,1-.488-.448,1.2,1.2,0,0,1-.16-.608,1.077,1.077,0,0,1,.464-.936,2.154,2.154,0,0,1,1.264-.328h1.072V-2.44a1.059,1.059,0,0,0-.272-.788.992.992,0,0,0-.728-.268,1.161,1.161,0,0,0-.676.2.859.859,0,0,0-.356.572h-.688a1.273,1.273,0,0,1,.292-.728,1.632,1.632,0,0,1,.628-.452,2.067,2.067,0,0,1,.8-.156,1.644,1.644,0,0,1,1.252.444,1.647,1.647,0,0,1,.42,1.18V0h-.6L69.1-.712A1.574,1.574,0,0,1,68.6-.14,1.444,1.444,0,0,1,67.736.1Zm.1-.568a1.094,1.094,0,0,0,.66-.2,1.277,1.277,0,0,0,.42-.52,1.619,1.619,0,0,0,.144-.672v-.008H68.048a1.319,1.319,0,0,0-.836.2.636.636,0,0,0-.244.508.615.615,0,0,0,.228.5A.986.986,0,0,0,67.84-.472ZM72.2,0a1.284,1.284,0,0,1-.856-.264,1.2,1.2,0,0,1-.312-.952V-3.4h-.688v-.568h.688l.088-.952H71.7v.952h1.168V-3.4H71.7v2.184a.66.66,0,0,0,.152.508.828.828,0,0,0,.536.132h.416V0Zm3.2.1a1.944,1.944,0,0,1-1.008-.26A1.846,1.846,0,0,1,73.7-.888a2.263,2.263,0,0,1-.252-1.1A2.3,2.3,0,0,1,73.7-3.076a1.8,1.8,0,0,1,.692-.728,2,2,0,0,1,1.028-.26,1.854,1.854,0,0,1,1,.26,1.761,1.761,0,0,1,.644.684,1.923,1.923,0,0,1,.224.912q0,.088,0,.176t0,.2h-3.16a1.559,1.559,0,0,0,.212.756,1.253,1.253,0,0,0,.472.452,1.261,1.261,0,0,0,.6.152,1.2,1.2,0,0,0,.7-.192,1.1,1.1,0,0,0,.408-.52h.664a1.791,1.791,0,0,1-.612.916A1.785,1.785,0,0,1,75.4.1Zm0-3.592a1.342,1.342,0,0,0-.852.292,1.176,1.176,0,0,0-.428.852h2.5a1.135,1.135,0,0,0-.368-.84A1.235,1.235,0,0,0,75.4-3.5Z" transform="translate(3189 -2667)" fill="#2a2a2a"/>
        <g id="Rectangle_6477-3" data-name="Rectangle 6477" transform="translate(3189 -2663)" fill="#fff" stroke="#e6e6e6" stroke-width="1">
          <rect width="148" height="20" rx="2" stroke="none"/>
          <rect x="0.5" y="0.5" width="147" height="19" rx="1.5" fill="none"/>
        </g>
      </g>
      <g id="Group_18904" data-name="Group 18904" transform="translate(14 -159)">
        <rect id="background_" data-name="background " width="72" height="28" rx="5" transform="translate(3213 -2352)" fill="#6d44e5"/>
        <path id="label_" data-name="label " d="M-16.23.144a3.608,3.608,0,0,1-1.608-.336,2.511,2.511,0,0,1-1.056-.936,2.587,2.587,0,0,1-.372-1.392h1.056a1.847,1.847,0,0,0,.228.906,1.678,1.678,0,0,0,.666.66,2.192,2.192,0,0,0,1.086.246,1.946,1.946,0,0,0,1.32-.408,1.3,1.3,0,0,0,.468-1.02,1.377,1.377,0,0,0-.216-.81,1.615,1.615,0,0,0-.582-.5,4.834,4.834,0,0,0-.84-.336q-.474-.144-.99-.324a3.535,3.535,0,0,1-1.44-.834,1.824,1.824,0,0,1-.468-1.3,2.142,2.142,0,0,1,.312-1.194,2.2,2.2,0,0,1,.918-.816,3.146,3.146,0,0,1,1.41-.294,3.065,3.065,0,0,1,1.4.3,2.267,2.267,0,0,1,.924.828,2.3,2.3,0,0,1,.342,1.2H-14.73a1.468,1.468,0,0,0-.18-.69,1.405,1.405,0,0,0-.546-.558,1.782,1.782,0,0,0-.918-.216,1.661,1.661,0,0,0-1.122.348,1.219,1.219,0,0,0-.438,1,1.082,1.082,0,0,0,.306.828,2.317,2.317,0,0,0,.858.474l1.272.426a6.131,6.131,0,0,1,1.08.5,2.122,2.122,0,0,1,.75.744A2.258,2.258,0,0,1-13.4-2.2a2.212,2.212,0,0,1-.312,1.134,2.318,2.318,0,0,1-.942.87A3.328,3.328,0,0,1-16.23.144Zm6.372,0A2.235,2.235,0,0,1-11.538-.5a2.737,2.737,0,0,1-.624-1.974v-3.48h1.008V-2.58q0,1.86,1.524,1.86a1.672,1.672,0,0,0,1.29-.558,2.274,2.274,0,0,0,.51-1.59V-5.952h1.008V0h-.912l-.072-1.068a2.072,2.072,0,0,1-.822.888A2.364,2.364,0,0,1-9.858.144Zm7.872,0a2.754,2.754,0,0,1-1.3-.3A2.075,2.075,0,0,1-4.158-1l-.1,1h-.912V-8.64h1.008v3.672a2.809,2.809,0,0,1,.822-.78A2.45,2.45,0,0,1-1.974-6.1a2.884,2.884,0,0,1,1.548.408A2.792,2.792,0,0,1,.6-4.572,3.45,3.45,0,0,1,.966-2.964,3.414,3.414,0,0,1,.6-1.362,2.746,2.746,0,0,1-.432-.258,2.948,2.948,0,0,1-1.986.144Zm-.108-.876a1.966,1.966,0,0,0,1.056-.282A1.985,1.985,0,0,0-.318-1.8,2.5,2.5,0,0,0-.054-2.976,2.5,2.5,0,0,0-.318-4.152a1.985,1.985,0,0,0-.72-.786A1.966,1.966,0,0,0-2.094-5.22a1.966,1.966,0,0,0-1.056.282,1.985,1.985,0,0,0-.72.786,2.5,2.5,0,0,0-.264,1.176A2.5,2.5,0,0,0-3.87-1.8a1.985,1.985,0,0,0,.72.786A1.966,1.966,0,0,0-2.094-.732ZM2.37,0V-5.952h.912l.072.864a2.016,2.016,0,0,1,.768-.744A2.2,2.2,0,0,1,5.2-6.1a2.439,2.439,0,0,1,1.218.288,1.9,1.9,0,0,1,.786.876,2.279,2.279,0,0,1,.858-.852A2.342,2.342,0,0,1,9.246-6.1a2.291,2.291,0,0,1,1.7.642,2.7,2.7,0,0,1,.636,1.974V0h-1V-3.372a2.206,2.206,0,0,0-.372-1.392A1.284,1.284,0,0,0,9.15-5.232a1.5,1.5,0,0,0-1.194.558,2.388,2.388,0,0,0-.474,1.59V0H6.474V-3.372A2.206,2.206,0,0,0,6.1-4.764a1.284,1.284,0,0,0-1.068-.468,1.489,1.489,0,0,0-1.182.558,2.388,2.388,0,0,0-.474,1.59V0ZM13.722-7.272a.675.675,0,0,1-.5-.2.675.675,0,0,1-.2-.5.641.641,0,0,1,.2-.48.687.687,0,0,1,.5-.192.692.692,0,0,1,.492.192.632.632,0,0,1,.2.48.665.665,0,0,1-.2.5A.681.681,0,0,1,13.722-7.272ZM13.218,0V-5.952h1.008V0ZM18.33,0a1.926,1.926,0,0,1-1.284-.4,1.8,1.8,0,0,1-.468-1.428V-5.1H15.546v-.852h1.032L16.71-7.38h.876v1.428h1.752V-5.1H17.586v3.276a.99.99,0,0,0,.228.762,1.243,1.243,0,0,0,.8.2h.624V0Z" transform="translate(3249 -2334)" fill="#fff"/>
      </g>
      <path id="Path_24489" data-name="Path 24489" d="M0,0V19" transform="translate(3289.5 -2583.5)" fill="none" stroke="#e6e6e6" stroke-width="1"/>
    </g>
  </g>
</svg>
