<svg width="52" height="52" viewBox="0 0 52 52" fill="none" xmlns="http://www.w3.org/2000/svg">
<g clip-path="url(#clip0_0_26)">
<path d="M40.1072 19.3852C40.0659 21.5557 39.5325 23.6885 38.5472 25.623C40.7419 25.3784 42.8367 24.5724 44.6293 23.2828C46.422 21.9931 47.8521 20.2633 48.7818 18.2602C49.7115 16.2571 50.1094 14.0482 49.9371 11.8466C49.7648 9.64494 49.0281 7.52485 47.7981 5.69075C46.5681 3.85665 44.8862 2.37042 42.9148 1.37537C40.9433 0.38033 38.7487 -0.0899502 36.5426 0.0098847C34.3365 0.10972 32.1933 0.776301 30.3198 1.94535C28.4462 3.11439 26.9055 4.74646 25.8462 6.68416H27.183C28.868 6.66038 30.5411 6.97102 32.1053 7.59811C33.6694 8.2252 35.0937 9.15629 36.2957 10.3375C37.4976 11.5187 38.4534 12.9265 39.1076 14.4796C39.7619 16.0326 40.1016 17.7 40.1072 19.3852Z" fill="#18253E"/>
<path d="M24.5115 8.021H23.1747C20.9602 8.25518 18.8434 9.05606 17.0285 10.3464C15.2136 11.6367 13.7618 13.373 12.8132 15.3877C11.8646 17.4024 11.4512 19.6275 11.6128 21.8485C11.7744 24.0695 12.5056 26.2113 13.7359 28.0675C14.9662 29.9236 16.654 31.4314 18.6366 32.4454C20.6192 33.4594 22.8297 33.9454 25.0547 33.8565C27.2798 33.7676 29.4444 33.1068 31.3398 31.9379C33.2352 30.769 34.7974 29.1314 35.8757 27.183C36.9624 25.2879 37.5024 23.1287 37.4357 20.9452C37.4334 17.5182 36.071 14.2322 33.6477 11.8089C31.2245 9.38568 27.9385 8.0233 24.5115 8.021Z" fill="#33EEB1"/>
<path d="M26.0693 18.2715H20.0525C19.383 18.2715 19.162 18.0548 19.162 17.602C19.1506 17.4822 19.1658 17.3614 19.2065 17.2482C19.2473 17.135 19.3125 17.0322 19.3976 16.9471C19.4826 16.862 19.5855 16.7968 19.6987 16.756C19.8119 16.7153 19.9327 16.7001 20.0525 16.7115H26.0693C26.0693 16.4948 25.8527 16.2652 25.8527 16.042C25.5852 15.5033 25.1719 15.0506 24.6598 14.7353C24.1476 14.42 23.5572 14.2549 22.9558 14.2588H19.8293C19.8293 14.4755 19.383 14.2588 19.383 14.0422C18.9432 13.5937 19.3765 12.9242 20.0525 12.9242H29.1871C29.6335 12.9242 30.0777 13.1408 30.0777 13.5937C30.089 13.7134 30.0738 13.8343 30.0331 13.9475C29.9924 14.0607 29.9272 14.1635 29.8421 14.2486C29.757 14.3337 29.6542 14.3989 29.541 14.4396C29.4277 14.4803 29.3069 14.4956 29.1871 14.4842H26.9598C27.4062 15.1537 27.6293 16.0442 28.0735 16.7115H29.1871C29.8566 16.7115 30.0777 16.9282 30.0777 17.602C30.0777 18.0483 29.6313 18.2715 29.1871 18.2715H28.0735C27.7826 19.5281 27.0174 20.6238 25.9378 21.3295C24.8582 22.0353 23.5476 22.2966 22.2798 22.0588C22.4965 22.2755 22.4965 22.5052 22.7261 22.5052C24.2861 24.0652 25.8461 25.6252 27.6271 27.1852L28.0735 27.6315C28.1824 27.7968 28.2405 27.9904 28.2405 28.1883C28.2405 28.3863 28.1824 28.5799 28.0735 28.7452C27.909 28.8563 27.7151 28.9157 27.5167 28.9157C27.3182 28.9157 27.1243 28.8563 26.9598 28.7452C26.9024 28.7452 26.8472 28.7223 26.8066 28.6817C26.766 28.6411 26.7431 28.586 26.7431 28.5285C24.5158 26.5222 22.5095 24.2948 20.2822 22.2907C19.3765 21.8357 18.9431 21.6147 19.1598 21.1575C19.3765 20.7003 19.8293 20.7112 20.2735 20.7112H23.1703C23.8658 20.7199 24.5413 20.4784 25.0735 20.0305C25.6057 19.5826 25.9592 18.9583 26.0693 18.2715Z" fill="white"/>
<path d="M26.0693 41.2187H15.3833C14.7244 41.2011 14.0847 41.4413 13.6002 41.8882C10.6947 44.7828 7.58334 47.6797 4.68001 50.5765C3.78951 51.9133 2.67367 52.3597 1.56001 51.6902C1.02841 51.4315 0.591687 51.0121 0.311703 50.4914C0.0317189 49.9707 -0.0773296 49.3751 5.41482e-06 48.789V41.665C0.03803 40.7343 0.437568 39.8552 1.11367 39.2145L11.141 29.1872C11.8679 28.5043 12.818 28.1086 13.8147 28.0735H32.0862C32.452 28.029 32.823 28.0572 33.178 28.1563C33.5329 28.2555 33.8648 28.4237 34.1547 28.6513C34.4445 28.879 34.6866 29.1616 34.867 29.4829C35.0474 29.8042 35.1627 30.158 35.2062 30.524C35.2062 32.084 34.0925 32.9745 32.0862 32.9745H25.3998C24.9535 32.9745 24.7303 33.4208 24.2862 33.644C24.7325 33.8607 24.9557 34.3135 25.3998 34.3135H37.6567C38.1593 34.2294 38.6251 33.9962 38.9935 33.644C41.6672 31.1935 44.1177 28.5198 46.5768 26.0607C47.9137 24.7238 49.4737 24.7238 50.3642 25.844C51.4778 26.9577 51.2547 28.2945 49.9178 29.6313L39.6673 39.8818C38.9378 40.5637 37.9853 40.9572 36.9872 40.989C33.3559 41.286 29.7099 41.3627 26.0693 41.2187Z" fill="url(#paint0_linear_0_26)"/>
</g>
<defs>
<linearGradient id="paint0_linear_0_26" x1="16.4304" y1="3.3194" x2="20.4682" y2="59.6914" gradientUnits="userSpaceOnUse">
<stop stop-color="#FFF5E9"/>
<stop offset="0.605" stop-color="#7D95E6"/>
<stop offset="0.999" stop-color="#3F28DD"/>
</linearGradient>
<clipPath id="clip0_0_26">
<rect width="51.0683" height="52" fill="white"/>
</clipPath>
</defs>
</svg>
