<svg width="52" height="52" viewBox="0 0 52 52" fill="none" xmlns="http://www.w3.org/2000/svg">
<path d="M20.8 32.5C17.55 34.2333 13.4333 33.15 11.7 29.9L1.95 11.7C1.3113e-06 8.45 1.08333 4.33333 4.33333 2.38333C7.58333 0.650001 11.7 1.73333 13.4333 4.98333L23.4 23.4C25.1333 26.4333 24.05 30.55 20.8 32.5Z" fill="url(#paint0_linear_0_61)"/>
<path d="M40.0833 31.85C36.8333 33.5833 32.7167 32.5 30.9833 29.25L22.75 14.7333C21.0167 11.4833 22.1 7.36667 25.35 5.63333C28.6 3.9 32.7167 4.98333 34.45 8.23333L42.6833 22.75C44.4167 26 43.3333 29.9 40.0833 31.85Z" fill="#18253E"/>
<path d="M30.3333 3.9C27.0833 2.6 23.1833 4.33333 21.6667 7.58333L16.6833 17.55L16.25 18.4167L22.3167 31.2C22.9667 30.9833 32.2833 14.3 33.3667 12.1333C34.8833 8.88333 33.5833 5.2 30.3333 3.9Z" fill="url(#paint1_linear_0_61)"/>
<path d="M23.4 23.4L18.2 14.0833C16.0333 18.4167 11.7 29.9 11.7 29.9C13.4333 33.15 17.55 34.2333 20.8 32.5C24.05 30.55 25.1333 26.4333 23.4 23.4Z" fill="#18253E"/>
<path d="M39.4333 46.8C45.1771 46.8 49.8333 42.1438 49.8333 36.4C49.8333 30.6562 45.1771 26 39.4333 26C33.6896 26 29.0333 30.6562 29.0333 36.4C29.0333 42.1438 33.6896 46.8 39.4333 46.8Z" fill="white"/>
<path d="M24.2667 36.4C24.4833 29.0333 30.55 22.9667 37.9167 23.1833C45.5 23.4 51.35 29.4667 51.35 37.05C51.1333 44.2 45.0667 50.2667 37.7 50.05C30.1167 50.05 24.05 43.7667 24.2667 36.4ZM47.0167 32.9333C47.0167 30.3333 45.2833 27.95 42.6833 27.3C39.8667 26.65 35.75 28.6 34.6667 31.4167C34.6667 31.6333 34.6667 32.2833 34.8833 32.2833C35.3167 32.5 35.75 32.5 35.9667 32.2833C36.8333 31.6333 37.4833 30.7667 38.1333 30.1167C39.8667 28.3833 42.25 28.3833 43.9833 29.9C45.7167 31.4167 45.5 34.0167 43.7667 35.75C43.1167 36.4 42.25 37.2667 41.6 37.9167C41.3833 38.1333 41.3833 38.7833 41.6 39C41.6 39.2167 42.4667 39.2167 42.4667 39.2167C44.85 37.4833 47.0167 35.9667 47.0167 32.9333ZM27.95 40.95C27.95 43.55 29.6833 45.9333 32.2833 46.5833C35.1 47.2333 39.2167 45.2833 40.3 42.4667C40.3 42.25 40.3 41.6 40.0833 41.6C39.65 41.3833 39.2167 41.3833 39 41.6C38.1333 42.25 37.4833 43.1167 36.8333 43.7667C34.8833 45.5 32.5 45.5 30.7667 43.9833C29.0333 42.4667 29.25 39.8667 30.9833 38.1333C31.6333 37.4833 32.5 36.6167 33.15 35.9667C33.3667 35.75 33.3667 35.1 33.15 34.8833C33.15 34.6667 32.2833 34.6667 32.2833 34.6667C30.3333 36.1833 27.95 37.9167 27.95 40.95ZM34.0167 40.95C34.2333 40.95 34.45 40.95 34.45 40.7333C36.8333 38.35 39.4333 35.75 41.8167 33.3667C42.0333 33.15 41.8167 32.5 41.6 32.5C41.3833 32.2833 40.7333 32.2833 40.5167 32.5C38.1333 34.8833 35.75 37.05 33.5833 39.4333C33.3667 39.65 33.3667 40.0833 33.3667 40.5167C33.5833 40.7333 33.8 40.95 34.0167 40.95Z" fill="#33EEB1"/>
<defs>
<linearGradient id="paint0_linear_0_61" x1="-21.719" y1="3.44069" x2="37.9292" y2="27.8095" gradientUnits="userSpaceOnUse">
<stop stop-color="#FFF5E9"/>
<stop offset="0.6046" stop-color="#7D95E6"/>
<stop offset="0.9986" stop-color="#3F28DD"/>
</linearGradient>
<linearGradient id="paint1_linear_0_61" x1="16.3024" y1="17.3567" x2="34.0448" y2="17.3567" gradientUnits="userSpaceOnUse">
<stop stop-color="#FFF5E9"/>
<stop offset="0.6046" stop-color="#7D95E6"/>
<stop offset="0.9986" stop-color="#3F28DD"/>
</linearGradient>
</defs>
</svg>
