<svg width="52" height="52" viewBox="0 0 52 52" fill="none" xmlns="http://www.w3.org/2000/svg">
<path d="M47.45 30.1167V13.4333C47.45 9.96666 44.6333 7.15 41.1667 7.15H9.10001C5.63334 7.15 2.81667 9.96666 2.81667 13.4333L2.60001 30.1167H47.45Z" fill="#18253E"/>
<path d="M35.75 40.3C43.4083 40.3 49.6167 34.0917 49.6167 26.4333C49.6167 18.775 43.4083 12.5667 35.75 12.5667C28.0916 12.5667 21.8833 18.775 21.8833 26.4333C21.8833 34.0917 28.0916 40.3 35.75 40.3Z" fill="#33EEB1"/>
<path d="M37.4833 23.8333C35.5333 23.8333 33.3667 23.8333 31.4167 23.8333C31.2 23.8333 30.9833 23.8333 30.7667 23.8333C30.3333 23.8333 29.9 23.4 29.9 22.9667C29.9 22.5333 30.1167 22.1 30.7667 22.1C31.2 22.1 31.6333 22.1 32.0667 22.1C33.8 22.1 35.5333 22.1 37.4833 22.1C37.4833 21.8833 37.2667 21.6667 37.2667 21.45C36.6167 20.15 35.5333 19.5 34.2333 19.5C33.15 19.5 32.0667 19.5 30.9833 19.5C30.7667 19.5 30.3333 19.2833 30.1167 19.0667C29.6833 18.6333 30.1167 17.7667 30.7667 17.7667C31.6333 17.7667 32.5 17.7667 33.3667 17.7667C35.5333 17.7667 37.9167 17.7667 40.0833 17.7667C40.3 17.7667 40.3 17.7667 40.5167 17.7667C41.1667 17.7667 41.3833 18.2 41.3833 18.6333C41.6 19.2833 41.1667 19.5 40.5167 19.5C39.8667 19.5 39.2167 19.5 38.5667 19.5C38.35 19.5 38.1333 19.5 38.1333 19.5C38.5667 20.3667 39 21.0167 39.2167 21.8833C39.65 21.8833 40.0833 21.8833 40.5167 21.8833C41.1667 21.8833 41.6 22.3167 41.6 22.75C41.6 23.1833 41.1667 23.6167 40.7333 23.6167C40.3 23.6167 39.8667 23.6167 39.4333 23.6167C38.5667 26.8667 36.4 27.95 33.15 27.7333C33.3667 27.95 33.5833 28.1667 33.5833 28.1667C35.3167 29.9 37.05 31.4167 38.7833 33.15C39 33.3667 39 33.3667 39.2167 33.5833C39.4333 34.0167 39.4333 34.45 39.2167 34.6667C39 34.8833 38.5667 35.1 38.1333 34.6667C37.9167 34.6667 37.9167 34.45 37.7 34.45C35.3167 32.2833 32.9333 29.9 30.7667 27.7333C30.3333 27.3 30.1167 27.0833 30.3333 26.4333C30.55 26 30.9833 26 31.4167 26C32.5 26 33.5833 26 34.6667 26C35.75 26.2167 37.05 25.1333 37.4833 23.8333Z" fill="white"/>
<path d="M5.85001 36.1833C3.90001 35.1 2.60001 33.15 2.60001 30.7667V13.4333C2.60001 9.96666 5.41667 7.15 8.88334 7.15L29.4667 17.55C36.8333 20.8 35.75 23.8333 35.75 27.3V44.6333C35.75 47.6667 32.5 49.6167 29.9 48.3167L5.85001 36.1833Z" fill="url(#paint0_linear_0_19)"/>
<defs>
<linearGradient id="paint0_linear_0_19" x1="57.8541" y1="-0.69377" x2="-0.223803" y2="43.1108" gradientUnits="userSpaceOnUse">
<stop stop-color="#FFF5E9"/>
<stop offset="0.6046" stop-color="#7D95E6"/>
<stop offset="0.9986" stop-color="#3F28DD"/>
</linearGradient>
</defs>
</svg>
