<svg xmlns="http://www.w3.org/2000/svg" xmlns:xlink="http://www.w3.org/1999/xlink" width="297.991" height="203.23" viewBox="0 0 297.991 203.23">
  <defs>
    <radialGradient id="radial-gradient" cx="0.018" cy="0.044" r="0.726" gradientTransform="matrix(1, -0.013, 0.021, 1.634, -0.001, -0.028)" gradientUnits="objectBoundingBox">
      <stop offset="0" stop-color="#7d0eff"/>
      <stop offset="1" stop-color="#3f0780"/>
    </radialGradient>
    <filter id="Path_1855" x="0" y="0" width="297.991" height="203.23" filterUnits="userSpaceOnUse">
      <feOffset input="SourceAlpha"/>
      <feGaussianBlur stdDeviation="10" result="blur"/>
      <feFlood flood-color="#721bf5" flood-opacity="0.392"/>
      <feComposite operator="in" in2="blur"/>
      <feComposite in="SourceGraphic"/>
    </filter>
    <clipPath id="clip-path">
      <rect id="Rectangle_2889" data-name="Rectangle 2889" width="39.53" height="24.377" fill="none"/>
    </clipPath>
  </defs>
  <g id="Group_2208" data-name="Group 2208" transform="translate(-5137.927 -8415.598)">
    <g transform="matrix(1, 0, 0, 1, 5137.93, 8415.6)" filter="url(#Path_1855)">
      <path id="Path_1855-2" data-name="Path 1855" d="M11.284,0H226.707a11.284,11.284,0,0,1,11.284,11.284V131.946a11.284,11.284,0,0,1-11.284,11.284H11.284A11.284,11.284,0,0,1,0,131.946V11.284A11.284,11.284,0,0,1,11.284,0Z" transform="translate(30 30)" fill="url(#radial-gradient)"/>
    </g>
    <path id="Path_1797" data-name="Path 1797" d="M40.054,94.189V95.7H41.87v9.08h1.515V94.189Z" transform="translate(5151.822 8441.006)" fill="none"/>
    <path id="Path_1798" data-name="Path 1798" d="M45.68,94.189a1.45,1.45,0,0,0-.587.12,1.619,1.619,0,0,0-.483.325,1.49,1.49,0,0,0-.443,1.067v1.368H45.68V95.7h4.794V97.9l-5.252,2.468a2.682,2.682,0,0,0-.477.291,1.381,1.381,0,0,0-.518.787,2.255,2.255,0,0,0-.062.554v2.785H52.18v-2.874H50.665v1.36H45.68v-1.529l5.244-2.46a2.611,2.611,0,0,0,.488-.3,1.5,1.5,0,0,0,.331-.35,1.391,1.391,0,0,0,.187-.439,2.372,2.372,0,0,0,.06-.556V95.7a1.425,1.425,0,0,0-.123-.586,1.525,1.525,0,0,0-.8-.806,1.444,1.444,0,0,0-.587-.12Z" transform="translate(5154.221 8441.006)" fill="none"/>
    <path id="Path_1799" data-name="Path 1799" d="M53.481,94.189a2.274,2.274,0,0,0-2.57,2.577V97.4h1.483v-.562a1.243,1.243,0,0,1,.268-.885,1.136,1.136,0,0,1,.863-.282H56.28a1.157,1.157,0,0,1,.869.282,1.243,1.243,0,0,1,.269.885v.7a1.28,1.28,0,0,1-.241.853,1.061,1.061,0,0,1-.793.3H53.3v1.477h3.132a1.174,1.174,0,0,1,.871.272,1.221,1.221,0,0,1,.268.879v.822a1.23,1.23,0,0,1-.268.877,1.149,1.149,0,0,1-.871.282H53.376a1.147,1.147,0,0,1-.869-.282,1.237,1.237,0,0,1-.268-.877v-.562H50.756v.636a2.276,2.276,0,0,0,2.577,2.57h3.146a2.272,2.272,0,0,0,2.571-2.57v-.534a3.085,3.085,0,0,0-.355-1.588,1.722,1.722,0,0,0-1.028-.8,1.949,1.949,0,0,0,.914-.86,3.081,3.081,0,0,0,.313-1.474v-.192a2.251,2.251,0,0,0-2.571-2.577Z" transform="translate(5158.064 8441.006)" fill="none"/>
    <path id="Path_1800" data-name="Path 1800" d="M62.533,96.021v5.111H58.694Zm-.264-1.832-5.221,6.942v1.455h5.486v2.194H64.05v-2.194h1.425v-1.455H64.05V94.189Z" transform="translate(5161.733 8441.006)" fill="none"/>
    <path id="Path_1801" data-name="Path 1801" d="M70.022,94.189v5.37H75.09a1.166,1.166,0,0,1,.871.275,1.227,1.227,0,0,1,.266.876v1.426a1.237,1.237,0,0,1-.266.877,1.154,1.154,0,0,1-.871.282H72.342a1.153,1.153,0,0,1-.871-.282,1.237,1.237,0,0,1-.266-.877v-.562H69.72v.636a2.275,2.275,0,0,0,2.577,2.57h2.845a2.584,2.584,0,0,0,1.919-.64,2.724,2.724,0,0,0,.651-1.93v-1.559a2.254,2.254,0,0,0-2.57-2.571H71.538V95.7h5.9V94.189Z" transform="translate(5169.125 8441.006)" fill="none"/>
    <path id="Path_1802" data-name="Path 1802" d="M78,100.245h4.838v3.022H78Zm0-6.056a1.455,1.455,0,0,0-.587.12,1.6,1.6,0,0,0-.483.325,1.54,1.54,0,0,0-.326.481,1.5,1.5,0,0,0-.117.586v7.566a1.5,1.5,0,0,0,.117.586,1.529,1.529,0,0,0,.326.483,1.508,1.508,0,0,0,1.07.445h4.838a1.476,1.476,0,0,0,.587-.119,1.5,1.5,0,0,0,.926-1.395v-3.022a1.516,1.516,0,0,0-.116-.586,1.555,1.555,0,0,0-.326-.484,1.519,1.519,0,0,0-.484-.326,1.5,1.5,0,0,0-.587-.117H78V95.7h4.838v1.368h1.514V95.7a1.48,1.48,0,0,0-.442-1.067,1.626,1.626,0,0,0-.484-.325,1.45,1.45,0,0,0-.587-.12Z" transform="translate(5173.071 8441.006)" fill="none"/>
    <path id="Path_1803" data-name="Path 1803" d="M82.988,94.189V95.7H88.9l-4.75,9.08h1.751l5.253-10.136v-.456Z" transform="translate(5176.863 8441.006)" fill="none"/>
    <path id="Path_1804" data-name="Path 1804" d="M90.946,103.014a1.237,1.237,0,0,1-.268-.877v-.822a1.228,1.228,0,0,1,.268-.879,1.179,1.179,0,0,1,.871-.272h3.051a1.174,1.174,0,0,1,.871.272,1.221,1.221,0,0,1,.268.879v.822a1.23,1.23,0,0,1-.268.877,1.149,1.149,0,0,1-.871.282H91.817a1.153,1.153,0,0,1-.871-.282m.13-4.626a1.28,1.28,0,0,1-.242-.853v-.7a1.243,1.243,0,0,1,.268-.885,1.142,1.142,0,0,1,.864-.282H94.72a1.138,1.138,0,0,1,.863.282,1.243,1.243,0,0,1,.266.885v.7a1.3,1.3,0,0,1-.234.853,1.052,1.052,0,0,1-.792.3H91.863a1.051,1.051,0,0,1-.787-.3m.845-4.2a2.274,2.274,0,0,0-2.57,2.577v.192a3.063,3.063,0,0,0,.313,1.474,1.952,1.952,0,0,0,.912.86,1.714,1.714,0,0,0-1.026.8,3.068,3.068,0,0,0-.356,1.588v.534a2.276,2.276,0,0,0,2.579,2.57H94.92a2.272,2.272,0,0,0,2.57-2.57v-.534a3.069,3.069,0,0,0-.355-1.588,1.714,1.714,0,0,0-1.026-.8,1.945,1.945,0,0,0,.912-.86,3.063,3.063,0,0,0,.313-1.474v-.192a2.274,2.274,0,0,0-2.57-2.577Z" transform="translate(5180.483 8441.006)" fill="none"/>
    <path id="Path_1805" data-name="Path 1805" d="M104.064,95.7H108.9V98.73h-4.838Zm0-1.512a1.45,1.45,0,0,0-.587.12,1.618,1.618,0,0,0-.483.325,1.49,1.49,0,0,0-.443,1.067v3.03a1.5,1.5,0,0,0,.117.587,1.464,1.464,0,0,0,.326.48,1.618,1.618,0,0,0,.483.325,1.451,1.451,0,0,0,.587.122H108.9v3.022h-4.838v-1.36H102.55v1.36a1.5,1.5,0,0,0,.117.586,1.478,1.478,0,0,0,.326.483,1.512,1.512,0,0,0,.483.326,1.476,1.476,0,0,0,.587.119H108.9a1.508,1.508,0,0,0,1.07-.445,1.529,1.529,0,0,0,.326-.483,1.5,1.5,0,0,0,.119-.586V95.7a1.5,1.5,0,0,0-.119-.586,1.54,1.54,0,0,0-.326-.481,1.58,1.58,0,0,0-.483-.325,1.455,1.455,0,0,0-.587-.12Z" transform="translate(5188.271 8441.006)" fill="none"/>
    <path id="Path_1806" data-name="Path 1806" d="M111.041,95.7h5.3v7.565h-5.3Zm0-1.512a1.457,1.457,0,0,0-.589.12,1.639,1.639,0,0,0-.483.325,1.507,1.507,0,0,0-.443,1.067v7.566a1.515,1.515,0,0,0,.443,1.069,1.53,1.53,0,0,0,.483.326,1.483,1.483,0,0,0,.589.119h5.3a1.476,1.476,0,0,0,.587-.119,1.512,1.512,0,0,0,.483-.326,1.5,1.5,0,0,0,.443-1.069V95.7a1.472,1.472,0,0,0-.117-.586,1.488,1.488,0,0,0-.326-.481,1.618,1.618,0,0,0-.483-.325,1.45,1.45,0,0,0-.587-.12Z" transform="translate(5192.341 8441.006)" fill="none"/>
    <path id="Path_1807" data-name="Path 1807" d="M116.214,94.189V95.7h1.818v9.08h1.515V94.189Z" transform="translate(5196.241 8441.006)" fill="none"/>
    <path id="Path_1808" data-name="Path 1808" d="M121.841,94.189a1.455,1.455,0,0,0-.587.12,1.619,1.619,0,0,0-.483.325,1.54,1.54,0,0,0-.326.481,1.5,1.5,0,0,0-.117.586v1.368h1.514V95.7h4.8V97.9l-5.255,2.468a2.651,2.651,0,0,0-.473.291,1.494,1.494,0,0,0-.331.35,1.469,1.469,0,0,0-.187.437,2.252,2.252,0,0,0-.063.554v2.785h8.014v-2.874h-1.515v1.36h-4.986v-1.529l5.245-2.46a2.72,2.72,0,0,0,.488-.3,1.453,1.453,0,0,0,.328-.35,1.394,1.394,0,0,0,.188-.439,2.376,2.376,0,0,0,.059-.556V95.7a1.448,1.448,0,0,0-.12-.586,1.625,1.625,0,0,0-.326-.481,1.564,1.564,0,0,0-.48-.325,1.448,1.448,0,0,0-.586-.12Z" transform="translate(5198.64 8441.006)" fill="none"/>
    <path id="Path_1809" data-name="Path 1809" d="M135.945,94.189a2.275,2.275,0,0,0-2.571,2.577V97.4h1.485v-.562a1.259,1.259,0,0,1,.264-.885,1.149,1.149,0,0,1,.866-.282h2.755a1.155,1.155,0,0,1,.868.282,1.236,1.236,0,0,1,.269.885v.7a1.28,1.28,0,0,1-.239.853,1.065,1.065,0,0,1-.795.3H135.76v1.477h3.132a1.183,1.183,0,0,1,.872.272,1.235,1.235,0,0,1,.266.879v.822a1.244,1.244,0,0,1-.266.877,1.157,1.157,0,0,1-.872.282h-3.051a1.157,1.157,0,0,1-.872-.282,1.244,1.244,0,0,1-.264-.877v-.562h-1.485v.636a2.276,2.276,0,0,0,2.577,2.57h3.147a2.272,2.272,0,0,0,2.57-2.57v-.534a3.1,3.1,0,0,0-.353-1.588,1.727,1.727,0,0,0-1.028-.8,1.952,1.952,0,0,0,.912-.86,3.062,3.062,0,0,0,.315-1.474v-.192a2.254,2.254,0,0,0-2.571-2.577Z" transform="translate(5206.159 8441.006)" fill="none"/>
    <path id="Path_1810" data-name="Path 1810" d="M145,96.021v5.111h-3.842Zm-.268-1.832-5.221,6.942v1.455H145v2.194h1.514v-2.194h1.425v-1.455h-1.425V94.189Z" transform="translate(5209.828 8441.006)" fill="none"/>
    <path id="Path_1811" data-name="Path 1811" d="M146.183,94.189v5.37h5.068a1.163,1.163,0,0,1,.871.275,1.227,1.227,0,0,1,.266.876v1.426a1.237,1.237,0,0,1-.266.877,1.151,1.151,0,0,1-.871.282H148.5a1.151,1.151,0,0,1-.871-.282,1.237,1.237,0,0,1-.268-.877v-.562h-1.483v.636a2.276,2.276,0,0,0,2.578,2.57H151.3a2.592,2.592,0,0,0,1.922-.64,2.731,2.731,0,0,0,.649-1.93v-1.559a2.253,2.253,0,0,0-2.571-2.571h-3.6V95.7h5.9V94.189Z" transform="translate(5213.544 8441.006)" fill="none"/>
    <path id="Path_1812" data-name="Path 1812" d="M154.164,100.245H159v3.022h-4.838Zm0-6.056a1.452,1.452,0,0,0-.589.12,1.6,1.6,0,0,0-.483.325,1.5,1.5,0,0,0-.445,1.067v7.566a1.523,1.523,0,0,0,.928,1.395,1.478,1.478,0,0,0,.589.119H159a1.476,1.476,0,0,0,.587-.119,1.5,1.5,0,0,0,.483-.326,1.5,1.5,0,0,0,.443-1.069v-3.022a1.462,1.462,0,0,0-.117-.586,1.508,1.508,0,0,0-1.4-.928h-4.837V95.7H159v1.368h1.514V95.7a1.472,1.472,0,0,0-.117-.586,1.488,1.488,0,0,0-.326-.481,1.6,1.6,0,0,0-.483-.325,1.45,1.45,0,0,0-.587-.12Z" transform="translate(5217.49 8441.006)" fill="none"/>
    <path id="Path_1813" data-name="Path 1813" d="M41.465,105.749v4.968h-.709v-4.259H39.9v-.709Z" transform="translate(5151.735 8447.747)" fill="#fff" opacity="0.4"/>
    <path id="Path_1814" data-name="Path 1814" d="M42.542,106.458v.641h-.711v-.641a.713.713,0,0,1,.055-.275.686.686,0,0,1,.154-.223.707.707,0,0,1,.226-.154.681.681,0,0,1,.275-.057H44.79a.687.687,0,0,1,.275.057.73.73,0,0,1,.377.377.715.715,0,0,1,.057.275v.907a1.149,1.149,0,0,1-.027.26.679.679,0,0,1-.089.207.723.723,0,0,1-.155.165,1.544,1.544,0,0,1-.228.139l-2.459,1.153V110H44.88v-.636h.711v1.349h-3.76v-1.308a1.073,1.073,0,0,1,.03-.26.7.7,0,0,1,.087-.2.721.721,0,0,1,.155-.165,1.369,1.369,0,0,1,.223-.136l2.464-1.157v-1.029Z" transform="translate(5152.859 8447.748)" fill="#fff" opacity="0.4"/>
    <path id="Path_1815" data-name="Path 1815" d="M44.922,109.212h.7v.264a.577.577,0,0,0,.125.412.541.541,0,0,0,.407.131h1.433a.548.548,0,0,0,.408-.131.584.584,0,0,0,.123-.412v-.385a.586.586,0,0,0-.123-.413.554.554,0,0,0-.408-.128H46.114v-.692h1.447a.5.5,0,0,0,.372-.139.6.6,0,0,0,.114-.4v-.326a.6.6,0,0,0-.127-.416.546.546,0,0,0-.407-.131H46.22a.542.542,0,0,0-.405.131.606.606,0,0,0-.125.416v.264h-.7v-.3a1.068,1.068,0,0,1,1.206-1.21h1.331a1.059,1.059,0,0,1,1.206,1.21v.09a1.434,1.434,0,0,1-.147.69.9.9,0,0,1-.427.4.808.808,0,0,1,.483.375,1.468,1.468,0,0,1,.165.744v.249a1.066,1.066,0,0,1-1.2,1.206H46.132a1.068,1.068,0,0,1-1.21-1.206Z" transform="translate(5154.662 8447.747)" fill="#fff" opacity="0.4"/>
    <path id="Path_1816" data-name="Path 1816" d="M47.872,109l2.449-3.257h.834V109h.668v.682h-.668v1.029h-.711v-1.029H47.872Zm2.573,0v-2.4l-1.8,2.4Z" transform="translate(5156.383 8447.747)" fill="#fff" opacity="0.4"/>
    <path id="Path_1817" data-name="Path 1817" d="M147.192,118.687a.685.685,0,0,1-.207.5.732.732,0,0,1-.228.154.7.7,0,0,1-.274.055H144a.708.708,0,0,1-.275-.055.751.751,0,0,1-.228-.154.741.741,0,0,1-.152-.225.716.716,0,0,1-.055-.277v-3.548a.7.7,0,0,1,.055-.274.722.722,0,0,1,.152-.225.781.781,0,0,1,.228-.154.681.681,0,0,1,.275-.057h2.484a.674.674,0,0,1,.274.057.761.761,0,0,1,.228.154.685.685,0,0,1,.207.5Zm-3.193,0h2.482v-3.546H144Z" transform="translate(5212.032 8452.811)" fill="#fff" opacity="0.4"/>
    <path id="Path_1818" data-name="Path 1818" d="M146.693,115.139a.695.695,0,0,1,.209-.5.753.753,0,0,1,.226-.154.674.674,0,0,1,.274-.057h2.27a.681.681,0,0,1,.275.057.761.761,0,0,1,.228.154.722.722,0,0,1,.152.225.673.673,0,0,1,.055.274v.643h-.711v-.643H147.4v1.422h2.27a.707.707,0,0,1,.275.055.728.728,0,0,1,.228.152.769.769,0,0,1,.152.226.68.68,0,0,1,.055.275v1.417a.688.688,0,0,1-.055.277.74.74,0,0,1-.152.225.732.732,0,0,1-.228.154.707.707,0,0,1-.275.055H147.4a.7.7,0,0,1-.274-.055.731.731,0,0,1-.38-.378.716.716,0,0,1-.055-.277Zm.709,3.548h2.27V117.27H147.4Z" transform="translate(5214.018 8452.811)" fill="#fff" opacity="0.4"/>
    <path id="Path_1819" data-name="Path 1819" d="M149.742,119.881l1.882-5.674h.686l-1.917,5.674Z" transform="translate(5215.796 8452.681)" fill="#fff" opacity="0.4"/>
    <path id="Path_1820" data-name="Path 1820" d="M151.9,117.894h.7v.264a.577.577,0,0,0,.125.412.543.543,0,0,0,.408.131h1.431a.539.539,0,0,0,.407-.131.577.577,0,0,0,.127-.412v-.385a.579.579,0,0,0-.127-.413.545.545,0,0,0-.407-.128h-1.469v-.692h1.447a.5.5,0,0,0,.374-.139.607.607,0,0,0,.112-.4v-.326a.59.59,0,0,0-.127-.416.545.545,0,0,0-.405-.131H153.2a.54.54,0,0,0-.405.131.6.6,0,0,0-.125.416v.264h-.7v-.3a1.068,1.068,0,0,1,1.206-1.21h1.333a1.234,1.234,0,0,1,.91.3,1.247,1.247,0,0,1,.294.91v.09a1.454,1.454,0,0,1-.146.69.908.908,0,0,1-.429.4.808.808,0,0,1,.483.375,1.452,1.452,0,0,1,.166.744v.249a1.066,1.066,0,0,1-1.206,1.206h-1.474a1.067,1.067,0,0,1-1.21-1.206Z" transform="translate(5217.055 8452.811)" fill="#fff" opacity="0.4"/>
    <path id="Path_1821" data-name="Path 1821" d="M159.069,118.687a.715.715,0,0,1-.055.277.713.713,0,0,1-.382.378.694.694,0,0,1-.274.055h-2.484a.714.714,0,0,1-.276-.055.731.731,0,0,1-.38-.378.715.715,0,0,1-.055-.277v-3.548a.7.7,0,0,1,.055-.274.726.726,0,0,1,.154-.225.774.774,0,0,1,.226-.154.687.687,0,0,1,.276-.057h2.484a.668.668,0,0,1,.274.057.768.768,0,0,1,.23.154.722.722,0,0,1,.152.225.7.7,0,0,1,.055.274Zm-3.195,0h2.482v-3.546h-2.482Z" transform="translate(5218.957 8452.811)" fill="#fff" opacity="0.4"/>
    <path id="Path_1822" data-name="Path 1822" d="M131.005,116.482l-1.252-3.247h.5l1.012,2.672,1.012-2.672h.494l-1.251,3.247Z" transform="translate(5204.137 8452.113)" fill="#fff" opacity="0.4"/>
    <path id="Path_1823" data-name="Path 1823" d="M133.432,113.235l1.252,3.247h-.464l-.288-.749h-1.464l-.288.749h-.464l1.252-3.247Zm-.788,2.034h1.11l-.553-1.43Z" transform="translate(5205.282 8452.114)" fill="#fff" opacity="0.4"/>
    <path id="Path_1824" data-name="Path 1824" d="M134.494,113.235v2.783h1.67v.464H134.03v-3.247Z" transform="translate(5206.632 8452.114)" fill="#fff" opacity="0.4"/>
    <rect id="Rectangle_2877" data-name="Rectangle 2877" width="0.464" height="3.247" transform="translate(5343.491 8565.35)" fill="#fff" opacity="0.4"/>
    <path id="Path_1825" data-name="Path 1825" d="M136.725,116.482v-3.247h1.651a1.293,1.293,0,0,1,.469.081.975.975,0,0,1,.587.587,1.293,1.293,0,0,1,.081.469v.974a1.3,1.3,0,0,1-.081.469.986.986,0,0,1-.587.587,1.329,1.329,0,0,1-.469.081Zm1.651-.464a.608.608,0,0,0,.673-.673v-.974a.823.823,0,0,0-.048-.283.5.5,0,0,0-.133-.212.557.557,0,0,0-.209-.133.872.872,0,0,0-.283-.044H137.19v2.319Z" transform="translate(5208.204 8452.114)" fill="#fff" opacity="0.4"/>
    <path id="Path_1826" data-name="Path 1826" d="M130.018,116.75h2.6v.464h-1.066V120h-.465v-2.783h-1.066Z" transform="translate(5204.292 8454.163)" fill="#fff" opacity="0.4"/>
    <path id="Path_1827" data-name="Path 1827" d="M134.885,116.75V120h-.464v-1.39h-1.859V120H132.1V116.75h.464v1.393h1.859V116.75Z" transform="translate(5205.506 8454.163)" fill="#fff" opacity="0.4"/>
    <path id="Path_1828" data-name="Path 1828" d="M137.038,117.91q0,.679-.579.774l.614,1.312h-.516l-.6-1.3h-1.02V120h-.464v-3.247h1.776a.7.7,0,0,1,.788.792Zm-2.1.326h1.289a.3.3,0,0,0,.347-.35v-.323a.3.3,0,0,0-.347-.35h-1.289Z" transform="translate(5206.89 8454.163)" fill="#fff" opacity="0.4"/>
    <path id="Path_1829" data-name="Path 1829" d="M136.671,116.749h.464v2.783h1.854v-2.783h.465v2.783a.422.422,0,0,1-.038.179.46.46,0,0,1-.1.149.448.448,0,0,1-.149.1.466.466,0,0,1-.18.036h-1.854a.446.446,0,0,1-.179-.036.392.392,0,0,1-.149-.1.443.443,0,0,1-.1-.149.474.474,0,0,1-.035-.179Z" transform="translate(5208.172 8454.163)" fill="#fff" opacity="0.4"/>
    <path id="Path_1830" data-name="Path 1830" d="M139.87,114.645v4.091l2.541-2.046Z" transform="translate(5210.038 8452.938)" fill="#fff" opacity="0.4"/>
    <g id="Group_2207" data-name="Group 2207" transform="translate(5167.927 8445.598)">
      <rect id="Rectangle_2857" data-name="Rectangle 2857" width="237.991" height="143.23" rx="8.368" fill="none" opacity="0.4"/>
      <path id="Path_1831" data-name="Path 1831" d="M40.25,115.593a.855.855,0,0,1,.066-.329A.8.8,0,0,1,40.5,115a.907.907,0,0,1,.269-.182.805.805,0,0,1,.328-.068h3.212a.8.8,0,0,1,.328.068A.868.868,0,0,1,44.9,115a.831.831,0,0,1,.184.268.855.855,0,0,1,.066.329v.763h-.847v-.763H41.1v4.226h3.212v-.76h.847v.76a.861.861,0,0,1-.066.329.881.881,0,0,1-.184.271.848.848,0,0,1-.6.247H41.1a.831.831,0,0,1-.328-.066.843.843,0,0,1-.451-.451.861.861,0,0,1-.066-.329Z" transform="translate(-15.99 7.397)" fill="#fff" opacity="0.4"/>
      <path id="Path_1832" data-name="Path 1832" d="M47.17,114.745l2.283,5.92h-.847l-.524-1.362H45.411l-.522,1.362h-.847l2.281-5.92Zm-1.436,3.711h2.022l-1.005-2.609Z" transform="translate(-13.778 7.397)" fill="#fff" opacity="0.4"/>
      <path id="Path_1833" data-name="Path 1833" d="M52.939,116.86q0,1.237-1.058,1.412L53,120.666h-.937l-1.1-2.365H49.108v2.365h-.847v-5.92H51.5a1.273,1.273,0,0,1,1.438,1.441Zm-3.831.6h2.348a.542.542,0,0,0,.636-.635v-.591a.542.542,0,0,0-.636-.636H49.108Z" transform="translate(-11.318 7.397)" fill="#fff" opacity="0.4"/>
      <path id="Path_1834" data-name="Path 1834" d="M52.267,120.666v-5.92h3.01a2.366,2.366,0,0,1,.857.147,1.8,1.8,0,0,1,1.069,1.07,2.375,2.375,0,0,1,.147.855v1.776a2.372,2.372,0,0,1-.147.853,1.8,1.8,0,0,1-1.069,1.07,2.366,2.366,0,0,1-.857.147Zm3.01-.847a1.108,1.108,0,0,0,1.225-1.224v-1.776a1.5,1.5,0,0,0-.082-.516,1.013,1.013,0,0,0-.629-.627,1.481,1.481,0,0,0-.515-.082H53.114v4.226Z" transform="translate(-8.981 7.397)" fill="#fff" opacity="0.4"/>
      <path id="Path_1835" data-name="Path 1835" d="M61.573,114.746v5.92h-.845v-2.533h-3.39v2.533h-.847v-5.92h.847v2.539h3.39v-2.539Z" transform="translate(-6.518 7.397)" fill="#fff" opacity="0.4"/>
      <path id="Path_1836" data-name="Path 1836" d="M65.894,119.819a.833.833,0,0,1-.066.329.843.843,0,0,1-.451.451.826.826,0,0,1-.328.066H61.666a.825.825,0,0,1-.328-.066.856.856,0,0,1-.269-.18.91.91,0,0,1-.184-.271.86.86,0,0,1-.065-.329v-4.226a.817.817,0,0,1,.249-.6.887.887,0,0,1,.269-.182.8.8,0,0,1,.328-.068h3.382a.8.8,0,0,1,.328.068.888.888,0,0,1,.269.182.8.8,0,0,1,.182.268.827.827,0,0,1,.066.329Zm-4.227,0h3.382v-4.226H61.666Z" transform="translate(-3.992 7.397)" fill="#fff" opacity="0.4"/>
      <path id="Path_1837" data-name="Path 1837" d="M65.99,114.746v5.073h3.043v.847H65.145v-5.92Z" transform="translate(-1.471 7.397)" fill="#fff" opacity="0.4"/>
      <path id="Path_1838" data-name="Path 1838" d="M68.4,120.666v-5.92h3.01a2.372,2.372,0,0,1,.857.147,1.8,1.8,0,0,1,1.069,1.07,2.41,2.41,0,0,1,.147.855v1.776a2.407,2.407,0,0,1-.147.853,1.8,1.8,0,0,1-1.069,1.07,2.372,2.372,0,0,1-.857.147Zm3.01-.847a1.106,1.106,0,0,0,1.224-1.224v-1.776a1.536,1.536,0,0,0-.081-.516,1.047,1.047,0,0,0-.242-.386,1.059,1.059,0,0,0-.386-.241,1.487,1.487,0,0,0-.515-.082H69.248v4.226Z" transform="translate(0.43 7.397)" fill="#fff" opacity="0.4"/>
      <path id="Path_1839" data-name="Path 1839" d="M72.627,114.746h4.314v.847H73.472v1.692h2.959v.847H73.472v1.686h3.469v.847H72.627Z" transform="translate(2.893 7.397)" fill="#fff" opacity="0.4"/>
      <path id="Path_1840" data-name="Path 1840" d="M80.99,116.86q0,1.237-1.058,1.412l1.115,2.394H80.11l-1.1-2.365H77.159v2.365h-.847v-5.92h3.241a1.273,1.273,0,0,1,1.438,1.441Zm-3.831.6h2.348a.542.542,0,0,0,.636-.635v-.591a.542.542,0,0,0-.636-.636H77.159Z" transform="translate(5.043 7.397)" fill="#fff" opacity="0.4"/>
      <path id="Path_1841" data-name="Path 1841" d="M82.925,120.666h-.845v-5.92h.845l3.558,4.59v-4.59h.847v5.92h-.847l-3.558-4.59Z" transform="translate(8.406 7.397)" fill="#fff" opacity="0.4"/>
      <path id="Path_1842" data-name="Path 1842" d="M89.323,114.745l2.283,5.92h-.849l-.522-1.362H87.564l-.524,1.362h-.845l2.281-5.92Zm-1.438,3.711h2.022L88.9,115.847Z" transform="translate(10.807 7.397)" fill="#fff" opacity="0.4"/>
      <path id="Path_1843" data-name="Path 1843" d="M93.468,120.666l-2.209-4.338v4.338h-.847v-5.92h.925l2.255,4.458,2.259-4.458h.92v5.92H95.93v-4.338l-2.21,4.338Z" transform="translate(13.266 7.397)" fill="#fff" opacity="0.4"/>
      <path id="Path_1844" data-name="Path 1844" d="M95.551,114.746h4.314v.847H96.4v1.692h2.959v.847H96.4v1.686h3.469v.847H95.551Z" transform="translate(16.263 7.397)" fill="#fff" opacity="0.4"/>
    </g>
    <rect id="Rectangle_2879" data-name="Rectangle 2879" width="39.53" height="24.377" rx="3" transform="translate(5191.807 8488.922)" fill="#9f9970"/>
    <path id="Rectangle_2880" data-name="Rectangle 2880" d="M3.225,0H36.3A3.226,3.226,0,0,1,39.53,3.226V21.153a3.224,3.224,0,0,1-3.224,3.224H3.225A3.225,3.225,0,0,1,0,21.152V3.225A3.225,3.225,0,0,1,3.225,0Z" transform="translate(5191.807 8488.922)" fill="none"/>
    <g id="Group_2201" data-name="Group 2201" transform="translate(5191.808 8488.924)" style="mix-blend-mode: overlay;isolation: isolate">
      <g id="Group_2200" data-name="Group 2200" transform="translate(0 0)">
        <g id="Group_2199" data-name="Group 2199" clip-path="url(#clip-path)">
          <path id="Path_1853" data-name="Path 1853" d="M54.217,83.983a4.671,4.671,0,0,1-2.981-8.272,4.678,4.678,0,1,1,5.962,0,4.671,4.671,0,0,1-2.981,8.272m0-15.756a3.881,3.881,0,0,0-2.1,7.151l.516.332-.516.331a3.887,3.887,0,1,0,4.192,0l-.516-.331.516-.332a3.881,3.881,0,0,0-2.1-7.151" transform="translate(-34.454 -63.521)" fill="#070a10"/>
          <rect id="Rectangle_2881" data-name="Rectangle 2881" width="15.763" height="0.792" transform="translate(0 6.699)" fill="#070a10"/>
          <rect id="Rectangle_2882" data-name="Rectangle 2882" width="15.482" height="0.792" transform="translate(24.047 6.699)" fill="#070a10"/>
          <rect id="Rectangle_2883" data-name="Rectangle 2883" width="15.763" height="0.792" transform="translate(0 16.774)" fill="#070a10"/>
          <rect id="Rectangle_2884" data-name="Rectangle 2884" width="15.482" height="0.792" transform="translate(24.047 16.774)" fill="#070a10"/>
          <rect id="Rectangle_2885" data-name="Rectangle 2885" width="0.792" height="24.375" transform="translate(7.484 0.002)" fill="#070a10"/>
          <rect id="Rectangle_2886" data-name="Rectangle 2886" width="0.792" height="10.076" transform="translate(29.113 7.094)" fill="#070a10"/>
          <rect id="Rectangle_2887" data-name="Rectangle 2887" width="0.792" height="7.093" transform="translate(32.765 0.002)" fill="#070a10"/>
          <rect id="Rectangle_2888" data-name="Rectangle 2888" width="0.792" height="7.207" transform="translate(32.765 17.17)" fill="#070a10"/>
        </g>
      </g>
    </g>
    <g id="Group_2202" data-name="Group 2202" transform="translate(5190.208 8540.49)" opacity="0.4">
      <path id="Path_1854" data-name="Path 1854" d="M5.847-3.926l-2.44,3.2L5.847,2.29H4.734L2.86-.141,1.079,2.29H.059L2.387-.818.059-3.926H1.172L2.934-1.393l1.8-2.533Zm5.974,0-2.44,3.2,2.44,3.015H10.708L8.834-.141,7.053,2.29H6.033L8.361-.818,6.033-3.926H7.146L8.909-1.393l1.8-2.533Zm5.974,0-2.44,3.2L17.8,2.29H16.682L14.809-.141,13.027,2.29h-1.02L14.335-.818,12.007-3.926H13.12l1.763,2.533,1.8-2.533Zm5.974,0-2.44,3.2L23.77,2.29H22.657L20.783-.141,19,2.29h-1.02L20.31-.818,17.981-3.926h1.113l1.763,2.533,1.8-2.533Z" transform="translate(-0.059 3.926)" fill="#fff"/>
    </g>
    <g id="Group_2204" data-name="Group 2204" transform="translate(5225.039 8540.49)" opacity="0.4">
      <path id="Path_1854-2" data-name="Path 1854" d="M5.847-3.926l-2.44,3.2L5.847,2.29H4.734L2.86-.141,1.079,2.29H.059L2.387-.818.059-3.926H1.172L2.934-1.393l1.8-2.533Zm5.974,0-2.44,3.2,2.44,3.015H10.708L8.834-.141,7.053,2.29H6.033L8.361-.818,6.033-3.926H7.146L8.909-1.393l1.8-2.533Zm5.974,0-2.44,3.2L17.8,2.29H16.682L14.809-.141,13.027,2.29h-1.02L14.335-.818,12.007-3.926H13.12l1.763,2.533,1.8-2.533Zm5.974,0-2.44,3.2L23.77,2.29H22.657L20.783-.141,19,2.29h-1.02L20.31-.818,17.981-3.926h1.113l1.763,2.533,1.8-2.533Z" transform="translate(-0.059 3.926)" fill="#fff"/>
    </g>
    <g id="Group_2205" data-name="Group 2205" transform="translate(5259.87 8540.49)" opacity="0.4">
      <path id="Path_1854-3" data-name="Path 1854" d="M5.847-3.926l-2.44,3.2L5.847,2.29H4.734L2.86-.141,1.079,2.29H.059L2.387-.818.059-3.926H1.172L2.934-1.393l1.8-2.533Zm5.974,0-2.44,3.2,2.44,3.015H10.708L8.834-.141,7.053,2.29H6.033L8.361-.818,6.033-3.926H7.146L8.909-1.393l1.8-2.533Zm5.974,0-2.44,3.2L17.8,2.29H16.682L14.809-.141,13.027,2.29h-1.02L14.335-.818,12.007-3.926H13.12l1.763,2.533,1.8-2.533Zm5.974,0-2.44,3.2L23.77,2.29H22.657L20.783-.141,19,2.29h-1.02L20.31-.818,17.981-3.926h1.113l1.763,2.533,1.8-2.533Z" transform="translate(-0.059 3.926)" fill="#fff"/>
    </g>
    <g id="Group_2206" data-name="Group 2206" transform="translate(5294.701 8540.49)" opacity="0.4">
      <path id="Path_1854-4" data-name="Path 1854" d="M5.847-3.926l-2.44,3.2L5.847,2.29H4.734L2.86-.141,1.079,2.29H.059L2.387-.818.059-3.926H1.172L2.934-1.393l1.8-2.533Zm5.974,0-2.44,3.2,2.44,3.015H10.708L8.834-.141,7.053,2.29H6.033L8.361-.818,6.033-3.926H7.146L8.909-1.393l1.8-2.533Zm5.974,0-2.44,3.2L17.8,2.29H16.682L14.809-.141,13.027,2.29h-1.02L14.335-.818,12.007-3.926H13.12l1.763,2.533,1.8-2.533Zm5.974,0-2.44,3.2L23.77,2.29H22.657L20.783-.141,19,2.29h-1.02L20.31-.818,17.981-3.926h1.113l1.763,2.533,1.8-2.533Z" transform="translate(-0.059 3.926)" fill="#fff"/>
    </g>
    <g id="Easebuzz_Logo_Unit_-_White" data-name="Easebuzz Logo Unit - White" transform="translate(5312.609 8459.122)">
      <path id="Path_1033" data-name="Path 1033" d="M425,20.381V12.85a.451.451,0,0,1,.45-.45h5.138l-.006,1.357h-3.846V15.7h3.34v1.331h-3.352v1.98l3.918.006v1.369Z" transform="translate(-402.646 -7.18)" fill="#fff"/>
      <path id="Path_1034" data-name="Path 1034" d="M629.82,91.027a2.086,2.086,0,0,1-1.369-.452,1.579,1.579,0,0,1-.551-1.292,1.629,1.629,0,0,1,.694-1.423,4,4,0,0,1,2.212-.509l.708-.012V87a.768.768,0,0,0-.232-.6.968.968,0,0,0-.706-.208,1.529,1.529,0,0,0-.673.167.858.858,0,0,0-.429.557h-1.334a1.6,1.6,0,0,1,.744-1.369,3.248,3.248,0,0,1,1.765-.441,2.783,2.783,0,0,1,1.855.485,1.663,1.663,0,0,1,.551,1.319v4.013h-1.474v-.982a1.781,1.781,0,0,1-.732.854A2.123,2.123,0,0,1,629.82,91.027Zm.539-1.06a1.238,1.238,0,0,0,.985-.485.755.755,0,0,0,.17-.47v-.845l-.577.012a3.109,3.109,0,0,0-.747.1,1.231,1.231,0,0,0-.563.3.736.736,0,0,0-.208.551.76.76,0,0,0,.271.622A1.027,1.027,0,0,0,630.359,89.967Z" transform="translate(-599.506 -77.716)" fill="#fff"/>
      <path id="Path_1035" data-name="Path 1035" d="M819.66,91.027a3.432,3.432,0,0,1-1.146-.194,2.3,2.3,0,0,1-.929-.619,2.032,2.032,0,0,1-.485-1.1h1.393a.867.867,0,0,0,.461.634,1.726,1.726,0,0,0,1.438.027.481.481,0,0,0,.286-.452.451.451,0,0,0-.17-.369,1.227,1.227,0,0,0-.551-.208l-1-.208A2.787,2.787,0,0,1,817.74,88a1.369,1.369,0,0,1-.461-1.093,1.6,1.6,0,0,1,.6-1.286,2.7,2.7,0,0,1,1.783-.518,2.746,2.746,0,0,1,1.679.47,1.543,1.543,0,0,1,.643,1.3h-1.343a.754.754,0,0,0-.33-.509,1.144,1.144,0,0,0-.667-.182,1.418,1.418,0,0,0-.688.149.487.487,0,0,0-.271.452.4.4,0,0,0,.22.357,2.425,2.425,0,0,0,.682.22l.926.208a2.208,2.208,0,0,1,.965.452,1.548,1.548,0,0,1,.452.628,1.705,1.705,0,0,1,.122.583,1.526,1.526,0,0,1-.667,1.325A2.925,2.925,0,0,1,819.66,91.027Z" transform="translate(-783.074 -77.716)" fill="#fff"/>
      <path id="Path_1036" data-name="Path 1036" d="M999.092,88.528a1.571,1.571,0,0,0,.313,1.042,1.1,1.1,0,0,0,.9.387,1.443,1.443,0,0,0,.72-.176.94.94,0,0,0,.435-.58h1.447a1.95,1.95,0,0,1-.485,1.039,2.551,2.551,0,0,1-.935.658,2.955,2.955,0,0,1-1.143.226,3.02,3.02,0,0,1-1.485-.354,2.522,2.522,0,0,1-1-1.009,3.145,3.145,0,0,1-.357-1.533,3.527,3.527,0,0,1,.324-1.539,2.573,2.573,0,0,1,.941-1.087,3.016,3.016,0,0,1,2.95-.033,2.256,2.256,0,0,1,.89,1.021,3.534,3.534,0,0,1,.3,1.506v.432Zm-.006-.959h2.322a1.393,1.393,0,0,0-.286-.884,1.027,1.027,0,0,0-.863-.363,1.086,1.086,0,0,0-.637.182,1.193,1.193,0,0,0-.4.47A1.288,1.288,0,0,0,999.086,87.57Z" transform="translate(-958.103 -77.813)" fill="#fff"/>
      <path id="Path_1037" data-name="Path 1037" d="M1201.067,13.311a2.03,2.03,0,0,1-.929-.188,1.693,1.693,0,0,1-.578-.485,2.221,2.221,0,0,1-.313-.607V13.2H1197.9V5h1.3a.316.316,0,0,1,.315.316V8.269a1.68,1.68,0,0,1,.649-.622,2.1,2.1,0,0,1,1.063-.259,2,2,0,0,1,1.661.768,3.41,3.41,0,0,1,.6,2.164,3.544,3.544,0,0,1-.616,2.179A2.138,2.138,0,0,1,1201.067,13.311Zm-.351-1.161a1.055,1.055,0,0,0,.857-.426,2.3,2.3,0,0,0,.348-1.435,2.129,2.129,0,0,0-.33-1.313,1.059,1.059,0,0,0-.887-.426q-1.183,0-1.194,1.738a2.582,2.582,0,0,0,.3,1.435A1.025,1.025,0,0,0,1200.716,12.15Z" transform="translate(-1152.538)" fill="#fff"/>
      <path id="Path_1038" data-name="Path 1038" d="M1404.167,94.617a2.58,2.58,0,0,1-1.024-.214,2.065,2.065,0,0,1-.819-.628,1.623,1.623,0,0,1-.324-1.027V88.8h1.607v3.742a.875.875,0,0,0,.259.652,1.039,1.039,0,0,0,.759.253,1.1,1.1,0,0,0,.75-.244.874.874,0,0,0,.28-.691V88.8h1.59v5.707h-1.4V93.375a1.448,1.448,0,0,1-.375.774,1.422,1.422,0,0,1-.622.363A2.386,2.386,0,0,1,1404.167,94.617Z" transform="translate(-1350.562 -81.305)" fill="#fff"/>
      <path id="Path_1039" data-name="Path 1039" d="M1595.9,94.507v-.747a.445.445,0,0,1,.092-.271l2.715-3.56h-2.664V88.8h4.611v.9l-2.813,3.679h2.828V94.5H1595.9Z" transform="translate(-1538.69 -81.305)" fill="#fff"/>
      <path id="Path_1040" data-name="Path 1040" d="M1769.2,94.507v-.747a.444.444,0,0,1,.092-.271l2.715-3.56h-2.664V88.8h4.611v.9l-2.813,3.679h2.828V94.5H1769.2Z" transform="translate(-1706.831 -81.305)" fill="#fff"/>
      <path id="Path_1041" data-name="Path 1041" d="M11.012,124.1h6.725l-.756,1.375a.9.9,0,0,1-.789.467H10Z" transform="translate(0 -115.555)" fill="#fff"/>
      <path id="Path_1042" data-name="Path 1042" d="M103.112,216.1h6.725l-.756,1.375a.9.9,0,0,1-.789.467H102.1Z" transform="translate(-89.358 -204.816)" fill="#fff"/>
      <path id="Path_1043" data-name="Path 1043" d="M103.112,32h6.725l-.756,1.375a.9.9,0,0,1-.789.467H102.1Z" transform="translate(-89.358 -26.196)" fill="#fff"/>
    </g>
    <path id="Path_1885" data-name="Path 1885" d="M-27.983-6.67a3.258,3.258,0,0,1,1.035.156,3.59,3.59,0,0,1,.791.361v1.338a7.438,7.438,0,0,0-.752-.4,2.136,2.136,0,0,0-.908-.186,1.671,1.671,0,0,0-.5.078,1.014,1.014,0,0,0-.41.234.533.533,0,0,0-.161.4.533.533,0,0,0,.283.488,5.366,5.366,0,0,0,.693.332l.8.332a2.452,2.452,0,0,1,1.006.713,1.53,1.53,0,0,1,.322.957,1.658,1.658,0,0,1-.337,1.03,2.281,2.281,0,0,1-.9.7,2.988,2.988,0,0,1-1.245.254,3.152,3.152,0,0,1-1.1-.2,3.808,3.808,0,0,1-.918-.479V-1.895a4.6,4.6,0,0,0,.947.527,2.849,2.849,0,0,0,1.1.215,1.439,1.439,0,0,0,.7-.161.52.52,0,0,0,.293-.483.484.484,0,0,0-.239-.415A2.551,2.551,0,0,0-28-2.48l-1.006-.391a1.91,1.91,0,0,1-1.03-.767,2.091,2.091,0,0,1-.269-1.05,1.707,1.707,0,0,1,.327-1.04,2.214,2.214,0,0,1,.854-.693A2.642,2.642,0,0,1-27.983-6.67Zm4.59,1.738v.625a2.837,2.837,0,0,1,.542-.518,1.337,1.337,0,0,1,.815-.234,1.86,1.86,0,0,1,.938.239,1.617,1.617,0,0,1,.654.718,3,3,0,0,1,.684-.679,1.525,1.525,0,0,1,.908-.278,1.828,1.828,0,0,1,.908.229,1.7,1.7,0,0,1,.659.679,2.293,2.293,0,0,1,.249,1.123V0h-1.24l-.01-2.861a.975.975,0,0,0-.259-.742.949.949,0,0,0-.679-.244.829.829,0,0,0-.557.2,2.935,2.935,0,0,0-.439.474V0h-1.24l-.01-2.861a.975.975,0,0,0-.259-.742.935.935,0,0,0-.669-.244.881.881,0,0,0-.557.19,2.471,2.471,0,0,0-.439.444V0h-1.24V-4.932Zm9.727-.127a1.955,1.955,0,0,1,.811.186,1.975,1.975,0,0,1,.684.5v-.557h1.24V0h-1.24V-.83a1.99,1.99,0,0,1-.625.688,1.623,1.623,0,0,1-.957.288,2.091,2.091,0,0,1-1.1-.3,2.179,2.179,0,0,1-.806-.879,2.97,2.97,0,0,1-.3-1.4,2.99,2.99,0,0,1,.308-1.406,2.255,2.255,0,0,1,.83-.9A2.186,2.186,0,0,1-13.667-5.059Zm.254,1.211a1.115,1.115,0,0,0-.669.2,1.365,1.365,0,0,0-.435.522,1.568,1.568,0,0,0-.156.693,1.4,1.4,0,0,0,.337.947,1.122,1.122,0,0,0,.894.391,1.17,1.17,0,0,0,.62-.176,1.341,1.341,0,0,0,.469-.493,1.526,1.526,0,0,0,.181-.767v-.7a2.227,2.227,0,0,0-.571-.449A1.386,1.386,0,0,0-13.413-3.848Zm7.109.3a1.316,1.316,0,0,0-.654-.176.976.976,0,0,0-.713.278,2.734,2.734,0,0,0-.5.688V0h-1.24V-4.932h1.24V-4a2.743,2.743,0,0,1,.6-.732,1.185,1.185,0,0,1,.786-.293,1.253,1.253,0,0,1,.479.088ZM-3.56-6.367v1.436h1.367V-3.9H-3.56v2.129a.818.818,0,0,0,.151.522.545.545,0,0,0,.454.19A1.554,1.554,0,0,0-2.5-1.113a1.423,1.423,0,0,0,.356-.166v.986A1.568,1.568,0,0,1-2.607.02a1.684,1.684,0,0,1-.7.127A1.442,1.442,0,0,1-4.385-.278,1.6,1.6,0,0,1-4.8-1.445V-3.9h-.889v-.635a2.059,2.059,0,0,0,.864-.625,3.369,3.369,0,0,0,.63-1.211Zm8.516-.176L2.573-3.281,4.956,0H3.247L1.665-2.256.122,0h-1.66L.835-3.252-1.538-6.543H.171L1.753-4.219,3.247-6.543Zm6.924-.146a2.992,2.992,0,0,1,1.064.171,2.524,2.524,0,0,1,.781.464v1.367q-.234-.176-.488-.342a2.508,2.508,0,0,0-.571-.273,2.335,2.335,0,0,0-.747-.107,2.051,2.051,0,0,0-1.064.283,2.135,2.135,0,0,0-.762.762A2.106,2.106,0,0,0,9.81-3.271a2.114,2.114,0,0,0,.283,1.089,2.085,2.085,0,0,0,.762.762,2.078,2.078,0,0,0,1.064.278,2.672,2.672,0,0,0,1.1-.2,3.658,3.658,0,0,0,.806-.493V-.518a2.46,2.46,0,0,1-.83.483A3.247,3.247,0,0,1,11.88.146,3.555,3.555,0,0,1,10.552-.1a3.433,3.433,0,0,1-1.1-.7A3.285,3.285,0,0,1,8.7-1.885a3.423,3.423,0,0,1-.273-1.387A3.423,3.423,0,0,1,8.7-4.658a3.285,3.285,0,0,1,.752-1.079,3.433,3.433,0,0,1,1.1-.7A3.555,3.555,0,0,1,11.88-6.689Zm5.1,1.631a1.955,1.955,0,0,1,.811.186,1.975,1.975,0,0,1,.684.5v-.557h1.24V0h-1.24V-.83a1.99,1.99,0,0,1-.625.688,1.623,1.623,0,0,1-.957.288,2.091,2.091,0,0,1-1.1-.3,2.179,2.179,0,0,1-.806-.879,2.97,2.97,0,0,1-.3-1.4,2.99,2.99,0,0,1,.308-1.406,2.255,2.255,0,0,1,.83-.9A2.186,2.186,0,0,1,16.978-5.059Zm.254,1.211a1.115,1.115,0,0,0-.669.2,1.365,1.365,0,0,0-.435.522,1.568,1.568,0,0,0-.156.693,1.4,1.4,0,0,0,.337.947,1.122,1.122,0,0,0,.894.391,1.17,1.17,0,0,0,.62-.176,1.341,1.341,0,0,0,.469-.493,1.526,1.526,0,0,0,.181-.767v-.7a2.227,2.227,0,0,0-.571-.449A1.386,1.386,0,0,0,17.231-3.848Zm7.109.3a1.316,1.316,0,0,0-.654-.176.976.976,0,0,0-.713.278,2.734,2.734,0,0,0-.5.688V0h-1.24V-4.932h1.24V-4a2.743,2.743,0,0,1,.6-.732,1.185,1.185,0,0,1,.786-.293,1.253,1.253,0,0,1,.479.088Zm5.645-3.486V0h-1.24V-.83a1.99,1.99,0,0,1-.625.688,1.623,1.623,0,0,1-.957.288,2.091,2.091,0,0,1-1.1-.3,2.179,2.179,0,0,1-.806-.879,2.97,2.97,0,0,1-.3-1.4,2.99,2.99,0,0,1,.308-1.406,2.255,2.255,0,0,1,.83-.9,2.186,2.186,0,0,1,1.157-.317,1.955,1.955,0,0,1,.811.186,1.975,1.975,0,0,1,.684.5V-7.031ZM27.5-3.838a1.115,1.115,0,0,0-.669.2,1.374,1.374,0,0,0-.435.518,1.537,1.537,0,0,0-.156.688,1.4,1.4,0,0,0,.337.947,1.122,1.122,0,0,0,.894.391,1.17,1.17,0,0,0,.62-.176,1.341,1.341,0,0,0,.469-.493,1.526,1.526,0,0,0,.181-.767v-.7a2.137,2.137,0,0,0-.571-.444A1.42,1.42,0,0,0,27.5-3.838Z" transform="translate(5220.917 8472.123)" fill="#fff"/>
  </g>
</svg>
