<?xml version="1.0" encoding="utf-8"?>
<!-- Generator: Adobe Illustrator 26.3.1, SVG Export Plug-In . SVG Version: 6.00 Build 0)  -->
<svg version="1.1" id="Layer_1" xmlns="http://www.w3.org/2000/svg" xmlns:xlink="http://www.w3.org/1999/xlink" x="0px" y="0px"
	 viewBox="0 0 32 32" style="enable-background:new 0 0 32 32;" xml:space="preserve">
<style type="text/css">
	.st0{fill:#18253E;}
	.st1{fill:#33EEB1;}
	.st2{fill:#FFFFFF;}
	.st3{fill:url(#SVGID_1_);}
	.st4{fill:url(#SVGID_00000172400399577222296120000017981364366574988477_);}
	.st5{fill:url(#SVGID_00000183943539450778530210000014061108219728786354_);}
	.st6{fill:url(#SVGID_00000181791017909857996360000001037639719787162266_);}
	.st7{fill:url(#SVGID_00000046329331447241166550000014084183046117113022_);}
</style>
<g>
	<path class="st0" d="M8.8,17.2c0,0.1-0.1,0.2-0.1,0.3c0,0,0,0,0,0.1c0,0.1-0.1,0.1-0.1,0.2l0,0.1c0,0.1-0.1,0.2-0.2,0.2l0,0
		c0,0-0.1,0.1-0.1,0.1c0.1,0,0.1,0,0.2,0c0.6,0,1.1-0.3,1.4-0.8c0.3-0.5,0.3-1.1,0-1.6c-0.3-0.5-0.8-0.8-1.4-0.8c-0.1,0-0.1,0-0.2,0
		c0,0,0.1,0.1,0.1,0.1l0,0.1c0.1,0.1,0.1,0.1,0.1,0.2c0,0,0,0,0,0.1c0,0.1,0.1,0.1,0.1,0.2c0,0,0,0,0,0.1v0c0,0.1,0.1,0.2,0.1,0.3
		c0,0,0,0,0,0c0,0.1,0,0.2,0,0.2c0,0,0,0.1,0,0.1c0,0.2,0,0.4,0,0.6c0,0,0,0.1,0,0.1h0C8.9,16.9,8.8,17,8.8,17.2
		C8.8,17.1,8.8,17.1,8.8,17.2z"/>
	<linearGradient id="SVGID_1_" gradientUnits="userSpaceOnUse" x1="13.428" y1="-5.617" x2="15.028" y2="26.2888">
		<stop  offset="0" style="stop-color:#FFF5E9"/>
		<stop  offset="0.6046" style="stop-color:#7D95E6"/>
		<stop  offset="0.9986" style="stop-color:#3F28DD"/>
	</linearGradient>
	<path class="st3" d="M1.5,20.3c0,0.5,0.2,0.9,0.5,1.2C2.3,21.9,2.8,22,3.2,22h22.6c0.5,0,0.9-0.2,1.2-0.5c0.3-0.3,0.5-0.8,0.5-1.2
		v-8.1H1.5L1.5,20.3z M14.2,15.1h10.5c0.2,0,0.4,0.2,0.4,0.4c0,0.2-0.2,0.4-0.4,0.4H14.2c-0.2,0-0.4-0.2-0.4-0.4
		C13.8,15.3,13.9,15.1,14.2,15.1z M14.2,17.1h10.5c0.2,0,0.4,0.2,0.4,0.4s-0.2,0.4-0.4,0.4H14.2c-0.2,0-0.4-0.2-0.4-0.4
		S13.9,17.1,14.2,17.1z M4,16.5c0-0.7,0.3-1.3,0.7-1.7C5.2,14.3,5.8,14,6.4,14c0.4,0,0.7,0.1,1,0.2c0.3-0.2,0.7-0.2,1-0.2
		c0.9,0,1.7,0.5,2.1,1.2c0.4,0.8,0.4,1.7,0,2.5C10.2,18.5,9.4,19,8.5,19c-0.4,0-0.7-0.1-1-0.2c-0.3,0.2-0.7,0.2-1,0.2
		c-0.6,0-1.3-0.3-1.7-0.7C4.2,17.8,4,17.2,4,16.5L4,16.5z"/>
	
		<linearGradient id="SVGID_00000060017697854576771070000008590998728339121310_" gradientUnits="userSpaceOnUse" x1="13.8415" y1="-5.6377" x2="15.4415" y2="26.2681">
		<stop  offset="0" style="stop-color:#FFF5E9"/>
		<stop  offset="0.6046" style="stop-color:#7D95E6"/>
		<stop  offset="0.9986" style="stop-color:#3F28DD"/>
	</linearGradient>
	<path style="fill:url(#SVGID_00000060017697854576771070000008590998728339121310_);" d="M27.1,6c-0.3-0.3-0.8-0.5-1.2-0.5l0,0
		h-4.2h-2.2H3.2C2.8,5.5,2.3,5.6,2,6C1.7,6.3,1.5,6.7,1.5,7.2v1.6h26.1V7.2C27.6,6.7,27.4,6.3,27.1,6z"/>
	<rect x="1.5" y="9.2" class="st0" width="26.1" height="2.5"/>
	<path class="st0" d="M6.4,18.2c0.3,0,0.6-0.1,0.8-0.2C7.7,17.7,8,17.2,8,16.7c0-0.1,0-0.2,0-0.2c0-0.3-0.1-0.6-0.2-0.8
		c-0.1-0.2-0.3-0.5-0.6-0.6C7,15,6.7,14.9,6.4,14.9c-0.4,0-0.8,0.2-1.2,0.5c-0.3,0.3-0.5,0.7-0.5,1.2c0,0.4,0.2,0.9,0.5,1.2
		C5.6,18,6,18.2,6.4,18.2z"/>
</g>
<path class="st1" d="M24.4,16.4c-0.2,0-0.4,0-0.6,0c-2.7,0.3-4.9,2.6-4.9,5.5c0,3,2.4,5.5,5.5,5.5c2.1,0,3.9-1.1,4.8-2.8
	c0.5-0.8,0.7-1.7,0.7-2.6C29.8,18.9,27.4,16.4,24.4,16.4z"/>
<path class="st2" d="M25,20.7c-0.8,0-1.6,0-2.4,0c-0.1,0-0.2,0-0.2,0c-0.3,0-0.4-0.1-0.4-0.3c0-0.2,0.1-0.4,0.4-0.4
	c0.2,0,0.4,0,0.5,0c0.7,0,1.4,0,2.1,0c0-0.1-0.1-0.2-0.1-0.3c-0.3-0.5-0.7-0.8-1.2-0.8c-0.5,0-0.8,0-1.3,0c0,0.1-0.2,0-0.2-0.1
	c-0.2-0.2,0-0.5,0.3-0.5c0.4,0,0.7,0,1,0c0.8,0,1.8,0,2.6,0c0.1,0,0.1,0,0.2,0c0.2,0,0.4,0.1,0.4,0.3c0,0.2-0.1,0.4-0.4,0.4
	c-0.3,0-0.5,0-0.8,0c-0.1,0-0.2,0-0.2,0c0.2,0.3,0.3,0.7,0.5,0.9c0.1,0,0.3,0,0.5,0c0.3,0,0.4,0.1,0.4,0.4c0,0.2-0.2,0.3-0.4,0.3
	c-0.2,0-0.4,0-0.5,0c-0.4,1.2-1.2,1.7-2.4,1.6c0.1,0.1,0.1,0.2,0.2,0.2c0.7,0.7,1.3,1.3,2.1,2c0.1,0.1,0.1,0.1,0.2,0.2
	c0.1,0.2,0.1,0.3,0,0.5c-0.1,0.1-0.3,0.1-0.5,0c-0.1,0-0.1-0.1-0.1-0.1c-0.9-0.8-1.8-1.8-2.7-2.6c-0.4-0.2-0.6-0.3-0.5-0.5
	c0.1-0.2,0.3-0.2,0.5-0.2c0.4,0,0.8,0,1.2,0C24.5,21.8,24.9,21.3,25,20.7z"/>
</svg>
