<svg xmlns="http://www.w3.org/2000/svg" xmlns:xlink="http://www.w3.org/1999/xlink" width="212.067" height="43.692" viewBox="0 0 212.067 43.692">
  <defs>
    <linearGradient id="linear-gradient" x1="0.773" y1="0.5" x2="0.157" y2="0.5" gradientUnits="objectBoundingBox">
      <stop offset="0" stop-color="#6458a6"/>
      <stop offset="0.025" stop-color="#6458a6"/>
      <stop offset="0.988" stop-color="#91d1bb"/>
      <stop offset="1" stop-color="#91d1bb"/>
    </linearGradient>
  </defs>
  <g id="Group_2235" data-name="Group 2235" transform="translate(-11848.89 -7939)">
    <g id="Group_2234" data-name="Group 2234" transform="translate(11848.89 7939)">
      <g id="Group_2233" data-name="Group 2233" transform="translate(0 0)">
        <path id="Path_1912" data-name="Path 1912" d="M49.817,66.482a19.845,19.845,0,0,1-8.211-1.6A13.154,13.154,0,0,1,35.994,60.3a12.865,12.865,0,0,1-2.114-7.274h8.15A7.22,7.22,0,0,0,44.172,58a7.548,7.548,0,0,0,5.584,2.025,7.52,7.52,0,0,0,4.893-1.478A4.857,4.857,0,0,0,56.462,54.6a5.173,5.173,0,0,0-1.6-4.044A12.045,12.045,0,0,0,50.6,48.2l-5.673-1.93a18.725,18.725,0,0,1-7.459-4.345,9.739,9.739,0,0,1-2.566-7.062,10.758,10.758,0,0,1,1.779-6.425,12.088,12.088,0,0,1,5.043-4.167,17.377,17.377,0,0,1,7.363-1.478A17.449,17.449,0,0,1,56.55,24.3a12.207,12.207,0,0,1,5.071,4.222,11.985,11.985,0,0,1,1.964,6.46H55.312a5.807,5.807,0,0,0-1.718-3.955,6.112,6.112,0,0,0-4.619-1.718,6.571,6.571,0,0,0-4.256,1.239A4.428,4.428,0,0,0,43,34.32a4.375,4.375,0,0,0,1.328,3.353,10.572,10.572,0,0,0,3.62,2.08q2.289.852,5.248,1.813a35.276,35.276,0,0,1,5.734,2.539A11.765,11.765,0,0,1,63.1,47.938a10.936,10.936,0,0,1,1.567,6.124,11.8,11.8,0,0,1-1.69,6.159,12.177,12.177,0,0,1-5.009,4.557A17.793,17.793,0,0,1,49.817,66.482Z" transform="translate(-33.88 -22.79)" fill="#fff"/>
        <path id="Path_1913" data-name="Path 1913" d="M88.49,71.43V41.485h6.822l.664,4.044a10.587,10.587,0,0,1,3.832-3.469,11.393,11.393,0,0,1,5.522-1.3q6.939,0,9.84,5.372a11.621,11.621,0,0,1,4.379-3.921,12.7,12.7,0,0,1,6.008-1.451q5.851,0,8.992,3.5t3.141,10.264v16.9h-7.726V55.253a10.053,10.053,0,0,0-1.478-5.919,5.238,5.238,0,0,0-4.557-2.053,6.239,6.239,0,0,0-5.043,2.292,9.761,9.761,0,0,0-1.9,6.4V71.423h-7.726V55.253a9.9,9.9,0,0,0-1.512-5.919,5.391,5.391,0,0,0-4.646-2.053,6.165,6.165,0,0,0-4.982,2.292,9.743,9.743,0,0,0-1.9,6.4V71.43Z" transform="translate(-51.121 -28.463)" fill="#fff"/>
        <path id="Path_1914" data-name="Path 1914" d="M181.052,72.155a14.12,14.12,0,0,1-6.337-1.239,8.518,8.518,0,0,1-3.681-3.291,8.733,8.733,0,0,1-1.2-4.53,8.245,8.245,0,0,1,3.257-6.761q3.264-2.6,9.778-2.593h7.609v-.725a5.538,5.538,0,0,0-1.752-4.53,6.6,6.6,0,0,0-4.345-1.451,7.471,7.471,0,0,0-4.106,1.115,4.8,4.8,0,0,0-2.176,3.291h-7.548a10.5,10.5,0,0,1,2.2-5.673,12.306,12.306,0,0,1,4.92-3.709,16.993,16.993,0,0,1,6.761-1.3q6.395,0,10.08,3.2t3.681,9.053V71.423h-6.583l-.725-4.831a11.118,11.118,0,0,1-3.716,3.983A10.827,10.827,0,0,1,181.052,72.155ZM182.8,66.12a6.389,6.389,0,0,0,5.16-2.176,10.629,10.629,0,0,0,2.327-5.372h-6.583q-3.079,0-4.407,1.115a3.468,3.468,0,0,0-1.328,2.744,3.166,3.166,0,0,0,1.328,2.717A5.79,5.79,0,0,0,182.8,66.12Z" transform="translate(-76.801 -28.463)" fill="#fff"/>
        <path id="Path_1915" data-name="Path 1915" d="M222.05,71.43V41.485h6.884l.725,5.611a12.6,12.6,0,0,1,4.434-4.619,12.373,12.373,0,0,1,6.61-1.718v8.15h-2.176A12.211,12.211,0,0,0,234,49.7a6.1,6.1,0,0,0-3.107,2.717,10.773,10.773,0,0,0-1.115,5.372V71.43H222.05Z" transform="translate(-93.287 -28.463)" fill="#fff"/>
        <path id="Path_1916" data-name="Path 1916" d="M269.32,68.061a11.671,11.671,0,0,1-7.548-2.292q-2.843-2.289-2.84-8.15V44.576H253.8v-6.46h5.132l.9-8.027h6.822v8.027h8.088v6.46h-8.081v13.1a3.859,3.859,0,0,0,.937,2.99,4.96,4.96,0,0,0,3.23.814h3.743v6.583Z" transform="translate(-103.311 -25.095)" fill="#fff"/>
      </g>
    </g>
    <path id="Path_1917" data-name="Path 1917" d="M291.3,66.085l13.22-21.37L291.12,23.83H300l9.477,14.726,8.69-14.726h8.7L313.64,45.077l13.522,21.008h-8.875l-9.6-14.911L300,66.085Z" transform="translate(11733.796 7915.882)" fill="url(#linear-gradient)"/>
  </g>
</svg>
