<svg xmlns="http://www.w3.org/2000/svg" width="18.717" height="18.718" viewBox="0 0 18.717 18.718">
  <path id="Path_75" data-name="Path 75" d="M18.3.388a1.37,1.37,0,0,1,.415.961V17.367a1.37,1.37,0,0,1-1.387,1.351H1.382A1.367,1.367,0,0,1,0,17.367V1.348A1.366,1.366,0,0,1,1.382,0H17.33A1.37,1.37,0,0,1,18.3.388ZM5.551,7.018H2.774v8.932H5.551ZM4.162,5.8A1.61,1.61,0,1,0,3.14,5.431,1.608,1.608,0,0,0,4.162,5.8ZM15.948,11.05c0-2.406-.519-4.255-3.328-4.255A2.919,2.919,0,0,0,9.993,8.237H9.956V7.018H7.292v8.933h2.775V11.532c0-1.165.219-2.294,1.665-2.294,1.422,0,1.443,1.332,1.443,2.368v4.343h2.773Z" transform="translate(0)" fill="#517ce3"/>
</svg>
