<svg id="Group_19084" data-name="Group 19084" xmlns="http://www.w3.org/2000/svg" xmlns:xlink="http://www.w3.org/1999/xlink" width="18.313" height="18.718" viewBox="0 0 18.313 18.718">
  <defs>
    <clipPath id="clip-path">
      <rect id="Rectangle_6163" data-name="Rectangle 6163" width="18.313" height="18.718" fill="#517ce3"/>
    </clipPath>
  </defs>
  <g id="Group_19083" data-name="Group 19083" clip-path="url(#clip-path)">
    <path id="Path_23420" data-name="Path 23420" d="M17.716,0c-.132.155-.263.31-.4.464L13.943,4.39q-1.5,1.747-3.008,3.494a.059.059,0,0,0,0,.088q1.274,1.85,2.545,3.7l2.669,3.883,2.142,3.117c.008.012.015.024.026.042l-.049,0H12.907a.074.074,0,0,1-.069-.036q-1.014-1.479-2.031-2.956L8.992,13.085,7.9,11.493l-.031-.041-.248.288L2.14,18.108c-.165.192-.33.383-.494.575a.09.09,0,0,1-.077.035H0v-.01a.436.436,0,0,0,.034-.032l3.387-3.936Q5.266,12.6,7.113,10.452a.064.064,0,0,0,.006-.1c-.179-.257-.356-.516-.533-.774L4.471,6.506,2.4,3.491.187.273C.126.184.062.1,0,.01,0,.007,0,0,0,0H5.457c.009.015.018.03.028.044l1.8,2.625L9.973,6.576l.21.3.085-.1,4.266-4.958L16.1,0ZM16.1,17.555l-.03-.046-3.1-4.44L9.227,7.719Q6.967,4.487,4.708,1.254a.083.083,0,0,0-.079-.039H2.2c.014.022.022.035.031.048l3.845,5.5,4.129,5.906q1.694,2.423,3.388,4.847a.087.087,0,0,0,.082.041H16.1Z" transform="translate(0 0)" fill="#517ce3"/>
  </g>
</svg>
