<svg xmlns="http://www.w3.org/2000/svg" width="32" height="32" viewBox="0 0 32 32">
  <path id="Path_23301" data-name="Path 23301" d="M30,5.2H25.2V2.8a.8.8,0,1,0-1.6,0V5.2H12.4V2.8a.8.8,0,0,0-1.6,0V5.2H6a4,4,0,0,0-4,4V30a4,4,0,0,0,4,4H30a4,4,0,0,0,4-4V9.2a4,4,0,0,0-4-4ZM32.4,30A2.4,2.4,0,0,1,30,32.4H6A2.4,2.4,0,0,1,3.6,30V16.4H32.4Zm0-15.2H3.6V9.2A2.4,2.4,0,0,1,6,6.8h4.8V9.2a.8.8,0,0,0,1.6,0V6.8H23.6V9.2a.8.8,0,1,0,1.6,0V6.8H30a2.4,2.4,0,0,1,2.4,2.4Z" transform="translate(-2 -2)" fill="#85e6c4"/>
</svg>
