<svg xmlns="http://www.w3.org/2000/svg" width="41" height="31.999" viewBox="0 0 41 31.999">
  <path id="Union_3" data-name="Union 3" d="M5710.714-13225v-5.712a5.718,5.718,0,0,0-1.677-4.039,5.717,5.717,0,0,0-4.036-1.677v-2.282a8,8,0,0,1,5.653,2.345,8.008,8.008,0,0,1,2.346,5.653v5.712Zm-9.143,0v-5.712a5.718,5.718,0,0,0-1.677-4.039,5.722,5.722,0,0,0-4.036-1.677H5689a5.724,5.724,0,0,0-4.039,1.677,5.73,5.73,0,0,0-1.677,4.039v5.712H5681v-5.712a8.008,8.008,0,0,1,2.346-5.653,8,8,0,0,1,5.656-2.345h6.857a8,8,0,0,1,5.653,2.345,8.006,8.006,0,0,1,2.345,5.653v5.712Zm-29.571,0v-5.712a8.008,8.008,0,0,1,2.346-5.653,8,8,0,0,1,5.656-2.345v2.282a5.724,5.724,0,0,0-4.039,1.677,5.732,5.732,0,0,0-1.677,4.039v5.712Zm18.868-16.152a7.992,7.992,0,0,1-4.1-2.189,8.015,8.015,0,0,1-2.189-4.1,7.99,7.99,0,0,1,.456-4.621,7.989,7.989,0,0,1,2.945-3.59,7.989,7.989,0,0,1,4.445-1.351,8,8,0,0,1,5.656,2.346,8,8,0,0,1,2.346,5.655,7.994,7.994,0,0,1-1.351,4.445,7.987,7.987,0,0,1-3.59,2.944,7.99,7.99,0,0,1-3.061.609A8.017,8.017,0,0,1,5690.868-13241.154Zm-2.479-11.888a5.721,5.721,0,0,0-1.673,4.042,5.7,5.7,0,0,0,.961,3.175,5.711,5.711,0,0,0,2.565,2.105,5.693,5.693,0,0,0,3.3.323,5.709,5.709,0,0,0,2.928-1.564,5.729,5.729,0,0,0,1.563-2.924,5.719,5.719,0,0,0-.326-3.3,5.709,5.709,0,0,0-2.106-2.565,5.694,5.694,0,0,0-3.174-.961A5.711,5.711,0,0,0,5688.389-13253.042Zm13.182,9.755a5.717,5.717,0,0,0,4.042-1.674,5.715,5.715,0,0,0,1.674-4.039,5.722,5.722,0,0,0-1.674-4.042,5.713,5.713,0,0,0-4.042-1.67V-13257a8,8,0,0,1,5.656,2.346,8,8,0,0,1,2.346,5.655,8,8,0,0,1-2.346,5.656,7.993,7.993,0,0,1-5.656,2.343Zm-23.8-.057a7.994,7.994,0,0,1-2.342-5.656,7.994,7.994,0,0,1,2.342-5.655,8,8,0,0,1,5.656-2.346v2.289a5.724,5.724,0,0,0-4.042,1.67,5.718,5.718,0,0,0-1.67,4.042,5.712,5.712,0,0,0,1.67,4.039,5.728,5.728,0,0,0,4.042,1.674v2.286A7.993,7.993,0,0,1,5677.772-13243.344Z" transform="translate(-5672 13257.001)" fill="#85e6c4"/>
</svg>
