<svg xmlns="http://www.w3.org/2000/svg" width="33.374" height="33.574" viewBox="0 0 33.374 33.574">
  <g id="Group_18406" data-name="Group 18406" transform="translate(-725.916 -1300.155)">
    <g id="Group_8640" data-name="Group 8640" transform="translate(726.997 1300.935)">
      <path id="Path_17639" data-name="Path 17639" d="M1.241-6.849q.464.03.962.03a6.38,6.38,0,0,0,.976-.074,4.381,4.381,0,0,0,.912-.242A2.661,2.661,0,0,0,4.87-7.6a2.319,2.319,0,0,0,.567-.745,3.075,3.075,0,0,0,.281-1.08H.816a3.261,3.261,0,0,1,.163-.291l.281-.469q.178-.286.395-.621H5.472a.767.767,0,0,0-.247-.518,2.71,2.71,0,0,0-.6-.469,4.3,4.3,0,0,0-.715-.34,1.84,1.84,0,0,0-.6-.133H.816a2.317,2.317,0,0,1,.173-.355q.133-.237.281-.469l.261-.409a1.12,1.12,0,0,1,.123-.178H9.871l-.054.108q-.054.109-.143.261t-.2.335l-.2.34q-.094.158-.158.261l-.064.1H6.892a6.328,6.328,0,0,1,.36.715,2.564,2.564,0,0,1,.192.745H9.871L9.052-9.424H7.533a3.926,3.926,0,0,1-.518,1.568,3.813,3.813,0,0,1-.976,1.08,4.459,4.459,0,0,1-1.287.661,7.557,7.557,0,0,1-1.46.321.244.244,0,0,0,.035.064q.035.054.084.123a2.018,2.018,0,0,0,.118.168L7.908.607V.854H6.034l-4.794-6.4Z" transform="translate(11.231 23.382)" fill="#85e6c4"/>
      <path id="Path_17640" data-name="Path 17640" d="M32.456,18.835A15.831,15.831,0,0,0,2.04,11.013M1.05,3.1v7.916H8.966" transform="translate(-1.05 -1.04)" fill="none" stroke="#85e6c4" stroke-linecap="round" stroke-linejoin="round" stroke-width="1.5"/>
    </g>
    <g id="Group_18405" data-name="Group 18405" transform="matrix(-1, -0.017, 0.017, -1, 758.215, 1332.935)">
      <path id="Path_17640-2" data-name="Path 17640" d="M31.406,17.795A15.831,15.831,0,0,0,.989,9.973M0,2.058V9.973H7.916" fill="none" stroke="#85e6c4" stroke-linecap="round" stroke-linejoin="round" stroke-width="1.5"/>
    </g>
  </g>
</svg>
