<svg xmlns="http://www.w3.org/2000/svg" xmlns:xlink="http://www.w3.org/1999/xlink" width="32" height="32" viewBox="0 0 32 32">
  <defs>
    <clipPath id="clip-path">
      <rect id="Rectangle_6084" data-name="Rectangle 6084" width="32" height="32" fill="#85e6c4"/>
    </clipPath>
  </defs>
  <g id="Group_18407" data-name="Group 18407" clip-path="url(#clip-path)">
    <path id="Path_23306" data-name="Path 23306" d="M16.178,19.556a.889.889,0,0,0-.889-.889H9.956a.889.889,0,0,0,0,1.778h5.333a.889.889,0,0,0,.889-.889Z" transform="translate(3.022 6.222)" fill="#85e6c4"/>
    <path id="Path_23307" data-name="Path 23307" d="M16.582,16H11.249a.889.889,0,1,0,0,1.778h5.333a.889.889,0,0,0,0-1.778Z" transform="translate(3.453 5.333)" fill="#85e6c4"/>
    <path id="Path_23308" data-name="Path 23308" d="M16.222,21.333H10.889a.889.889,0,0,0,0,1.778h5.333a.889.889,0,1,0,0-1.778Z" transform="translate(3.333 7.111)" fill="#85e6c4"/>
    <path id="Path_23309" data-name="Path 23309" d="M23.578,21.333H17.356a.889.889,0,0,0,0,1.778h6.222a.889.889,0,1,0,0-1.778Z" transform="translate(5.489 7.111)" fill="#85e6c4"/>
    <path id="Path_23310" data-name="Path 23310" d="M24.244,18.667H18.022a.889.889,0,0,0,0,1.778h6.222a.889.889,0,0,0,0-1.778Z" transform="translate(5.711 6.222)" fill="#85e6c4"/>
    <path id="Path_23311" data-name="Path 23311" d="M29.535,22.667a24.89,24.89,0,0,0-2.507-9A17.991,17.991,0,0,0,21.41,7.3l2.133-4.7a.874.874,0,0,0-.773-1.262H8.255A.889.889,0,0,0,7.446,2.6l2.178,4.72a18.071,18.071,0,0,0-5.582,6.356A26.958,26.958,0,0,0,1.375,24.587,3.2,3.2,0,0,0,2.264,27a3.368,3.368,0,0,0,2.436.951H10.21V26.222H4.628a1.492,1.492,0,0,1-1.076-.462,1.44,1.44,0,0,1-.4-1.093A25.971,25.971,0,0,1,5.606,14.489,16,16,0,0,1,11.17,8.444h.889a27.385,27.385,0,0,0-1.662,2.6A20.249,20.249,0,0,0,9.09,14.009l1.218.818a21.335,21.335,0,0,1,1.324-3.084,25.869,25.869,0,0,1,2.178-3.3H14.7a19.067,19.067,0,0,1,1.253,4.444,20.033,20.033,0,0,1,.284,3.431l1.4-.987a21.456,21.456,0,0,0-.285-2.667,22.055,22.055,0,0,0-1.138-4.222h.693l.809-1.778H11.286L9.641,3.111H21.384L19.161,7.973a8.83,8.83,0,0,1,1.093.693,16.56,16.56,0,0,1,5.209,5.84,23.633,23.633,0,0,1,2.285,8.16Z" transform="translate(0.456 0.444)" fill="#85e6c4"/>
  </g>
</svg>
