<svg xmlns="http://www.w3.org/2000/svg" width="29.096" height="30.961" viewBox="0 0 29.096 30.961">
  <g id="Group_18796" data-name="Group 18796" transform="translate(-518.879 -4045.5)">
    <g id="Group_18795" data-name="Group 18795" transform="translate(517 4077.96) rotate(-90)">
      <path id="Path_23768" data-name="Path 23768" d="M30.961,22.534H22.577a7.767,7.767,0,0,1-6.363-3.313l-.8-1.14a7.767,7.767,0,0,0-6.363-3.313h0" transform="translate(0 1.66)" fill="none" stroke="#6d44e5" stroke-linecap="round" stroke-linejoin="round" stroke-width="3"/>
      <path id="Path_23769" data-name="Path 23769" d="M18,28.854l4.66-4.66L18,19.534" transform="translate(8.3)" fill="none" stroke="#6d44e5" stroke-linecap="round" stroke-linejoin="round" stroke-width="3"/>
    </g>
    <g id="Group_18794" data-name="Group 18794" transform="translate(517 4077.96) rotate(-90)">
      <path id="Path_23768-2" data-name="Path 23768" d="M9.053,14.767h0a7.766,7.766,0,0,0,6.364-3.316l.792-1.134A7.767,7.767,0,0,1,22.58,7h8.38" transform="translate(0 1.66)" fill="none" stroke="#85e6c4" stroke-linecap="round" stroke-linejoin="round" stroke-width="3"/>
      <path id="Path_23769-2" data-name="Path 23769" d="M18,13.32l4.66-4.66L18,4" transform="translate(8.3)" fill="none" stroke="#85e6c4" stroke-linecap="round" stroke-linejoin="round" stroke-width="3"/>
    </g>
  </g>
</svg>
