<svg xmlns="http://www.w3.org/2000/svg" xmlns:xlink="http://www.w3.org/1999/xlink" width="32.821" height="32" viewBox="0 0 32.821 32">
  <defs>
    <clipPath id="clip-path">
      <rect id="Rectangle_6303" data-name="Rectangle 6303" width="32.821" height="26.257" transform="translate(0 0)" fill="#85e6c4"/>
    </clipPath>
  </defs>
  <g id="Group_18798" data-name="Group 18798" transform="translate(-897 -4230)">
    <g id="Group_18797" data-name="Group 18797" transform="translate(897 4235.744)" clip-path="url(#clip-path)">
      <path id="Path_23770" data-name="Path 23770" d="M2.051,4A2.051,2.051,0,0,1,4.1,6.051v8.215a3.283,3.283,0,0,0,.959,2.323L7.682,19.21a1.258,1.258,0,1,0,1.78-1.78l-.779-.779L7.041,15.01a1.643,1.643,0,0,1,2.323-2.323l1.641,1.641.779.779,1.3,1.3a5.745,5.745,0,0,1,1.682,4.062v4.046A2.462,2.462,0,0,1,12.3,26.975H8.887a3.283,3.283,0,0,1-2.323-.959L1.441,20.893A4.921,4.921,0,0,1,0,17.41V6.051A2.051,2.051,0,0,1,2.051,4ZM30.77,4a2.051,2.051,0,0,1,2.051,2.051V17.41a4.921,4.921,0,0,1-1.441,3.482l-5.123,5.123a3.283,3.283,0,0,1-2.323.959H20.513a2.462,2.462,0,0,1-2.462-2.462V20.467a5.745,5.745,0,0,1,1.682-4.062l1.3-1.3.779-.779,1.641-1.641a1.643,1.643,0,1,1,2.323,2.323l-1.641,1.641-.779.779a1.258,1.258,0,1,0,1.78,1.78l2.621-2.621a3.283,3.283,0,0,0,.959-2.323V6.051A2.051,2.051,0,0,1,30.764,4Z" transform="translate(0 -0.718)" fill="#85e6c4"/>
    </g>
    <path id="Subtraction_56" data-name="Subtraction 56" d="M8.148,16.3A8.149,8.149,0,1,1,16.3,8.149,8.158,8.158,0,0,1,8.148,16.3ZM5.543,7.871V8.7l3.043,4.064h1.19V12.6L7,8.765a1.086,1.086,0,0,1-.075-.105c-.018-.025-.039-.054-.054-.079a.13.13,0,0,1-.021-.041,4.828,4.828,0,0,0,.926-.2,2.857,2.857,0,0,0,.818-.42,2.388,2.388,0,0,0,.948-1.682H10.5l.52-.876H9.482a1.621,1.621,0,0,0-.122-.473,4.172,4.172,0,0,0-.229-.455H10.5s.01-.015.041-.065l.1-.167.04-.066.022-.037.066-.112c.031-.051.059-.1.086-.147l.04-.067c.039-.065.069-.123.09-.166l.035-.068H5.806a.723.723,0,0,0-.079.112l-.071.112L5.65,3.77l-.088.139c-.067.1-.125.2-.178.3a1.535,1.535,0,0,0-.11.225H6.858a1.186,1.186,0,0,1,.382.085,2.79,2.79,0,0,1,.455.216,1.763,1.763,0,0,1,.378.3.493.493,0,0,1,.157.33H5.806c-.08.123-.162.252-.251.4-.062.1-.121.2-.178.3s-.092.157-.1.185H8.386a1.951,1.951,0,0,1-.178.686,1.478,1.478,0,0,1-.359.474,1.722,1.722,0,0,1-.5.294,2.822,2.822,0,0,1-.58.153,4.044,4.044,0,0,1-.619.047C5.941,7.889,5.742,7.883,5.543,7.871Z" transform="translate(905.205 4230)" fill="#6d44e5"/>
  </g>
</svg>
