<svg xmlns="http://www.w3.org/2000/svg" width="38.566" height="42" viewBox="0 0 38.566 42">
  <g id="Group_9120" data-name="Group 9120" transform="translate(-496 -411.543)">
    <path id="Path_17937" data-name="Path 17937" d="M14.008,19.061A4.942,4.942,0,1,1,17.5,17.614,4.942,4.942,0,0,1,14.008,19.061ZM24.5,15.489a10.97,10.97,0,0,0,.1-1.37,12.073,12.073,0,0,0-.1-1.412l2.979-2.3a.712.712,0,0,0,.169-.9L24.823,4.617a.694.694,0,0,0-.861-.311L20.446,5.718A10.235,10.235,0,0,0,18.06,4.335L17.538.593A.714.714,0,0,0,16.832,0H11.184a.714.714,0,0,0-.706.593L9.956,4.335A10.235,10.235,0,0,0,7.569,5.718L4.054,4.306a.694.694,0,0,0-.861.311L.369,9.5a.7.7,0,0,0,.169.9l2.979,2.3a12.073,12.073,0,0,0-.1,1.412,10.97,10.97,0,0,0,.1,1.37L.538,17.833a.7.7,0,0,0-.169.9l2.824,4.885a.71.71,0,0,0,.861.311l3.516-1.426a9.806,9.806,0,0,0,2.386,1.4l.522,3.742a.714.714,0,0,0,.706.593h5.648a.714.714,0,0,0,.706-.593L18.06,23.9a10.281,10.281,0,0,0,2.386-1.4l3.516,1.426a.71.71,0,0,0,.861-.311l2.824-4.885a.712.712,0,0,0-.169-.9Z" transform="translate(495.729 425.305)" fill="#85e6c4"/>
    <path id="Path_17938" data-name="Path 17938" d="M9.781,13.2a3.421,3.421,0,1,1,2.419-1A3.421,3.421,0,0,1,9.781,13.2Zm7.263-2.473a7.594,7.594,0,0,0,.068-.948,8.358,8.358,0,0,0-.068-.977L19.106,7.2a.493.493,0,0,0,.117-.626L17.269,3.2a.48.48,0,0,0-.6-.215l-2.434.977A7.085,7.085,0,0,0,12.586,3L12.225.411A.495.495,0,0,0,11.736,0H7.826a.494.494,0,0,0-.489.411L6.976,3a7.085,7.085,0,0,0-1.652.958L2.89,2.981a.48.48,0,0,0-.6.215L.339,6.578A.482.482,0,0,0,.456,7.2L2.518,8.8a8.358,8.358,0,0,0-.068.977,7.6,7.6,0,0,0,.068.948L.456,12.346a.482.482,0,0,0-.117.626l1.955,3.382a.491.491,0,0,0,.6.215l2.434-.987a6.789,6.789,0,0,0,1.652.968l.362,2.59a.494.494,0,0,0,.489.411h3.91a.494.494,0,0,0,.489-.411l.362-2.59a7.118,7.118,0,0,0,1.652-.968l2.434.987a.491.491,0,0,0,.6-.215l1.955-3.382a.493.493,0,0,0-.117-.626Z" transform="translate(515.279 411.543)" fill="#6d44e5"/>
  </g>
</svg>
