<svg xmlns="http://www.w3.org/2000/svg" width="50" height="41.999" viewBox="0 0 50 41.999">
  <g id="Group_19089" data-name="Group 19089" transform="translate(-5643 -1409)">
    <path id="Subtraction_50" data-name="Subtraction 50" d="M45,42H5a5.006,5.006,0,0,1-5-5V5A5.006,5.006,0,0,1,5,0H45a5.006,5.006,0,0,1,5,5V37A5.005,5.005,0,0,1,45,42ZM15.5,2A1.5,1.5,0,1,0,17,3.5,1.5,1.5,0,0,0,15.5,2Zm-5,0A1.5,1.5,0,1,0,12,3.5,1.5,1.5,0,0,0,10.5,2Zm-5,0A1.5,1.5,0,1,0,7,3.5,1.5,1.5,0,0,0,5.5,2Z" transform="translate(5643 1409)" fill="#85e6c4"/>
    <path id="Subtraction_48" data-name="Subtraction 48" d="M49.958,7h-50V5a5.006,5.006,0,0,1,5-5h40a5.006,5.006,0,0,1,5,5V7Zm-34.5-5a1.5,1.5,0,1,0,1.5,1.5A1.5,1.5,0,0,0,15.457,2Zm-5,0a1.5,1.5,0,1,0,1.5,1.5A1.5,1.5,0,0,0,10.458,2Zm-5,0a1.5,1.5,0,1,0,1.5,1.5A1.5,1.5,0,0,0,5.458,2Z" transform="translate(5643.042 1409)" fill="#6d44e5"/>
    <rect id="Rectangle_2392" data-name="Rectangle 2392" width="9.333" height="5.833" rx="1" transform="translate(5648.833 1420.667)" fill="#6d44e5"/>
    <rect id="Rectangle_2393" data-name="Rectangle 2393" width="14" height="5.833" rx="1" transform="translate(5648.833 1430)" fill="#6d44e5"/>
    <rect id="Rectangle_2394" data-name="Rectangle 2394" width="18.667" height="5.833" rx="1" transform="translate(5648.833 1439.333)" fill="#6d44e5"/>
  </g>
</svg>
