<svg xmlns="http://www.w3.org/2000/svg" width="35.774" height="42" viewBox="0 0 35.774 42">
  <g id="success_rate" data-name="success rate" transform="translate(-503.372 -419)">
    <g id="Group_9121" data-name="Group 9121" transform="translate(6.372 8)">
      <path id="Path_15374" data-name="Path 15374" d="M25.786,4.518H0V7.53H25.786v4.518l8.567-6.024L25.786,0Z" transform="translate(497 428.177) rotate(-30)" fill="#6d44e5"/>
      <path id="Rectangle_2306" data-name="Rectangle 2306" d="M2,0H7A2,2,0,0,1,9,2V12a0,0,0,0,1,0,0H0a0,0,0,0,1,0,0V2A2,2,0,0,1,2,0Z" transform="translate(497 441)" fill="#85e6c4"/>
      <path id="Rectangle_2307" data-name="Rectangle 2307" d="M2,0H7A2,2,0,0,1,9,2V17a0,0,0,0,1,0,0H0a0,0,0,0,1,0,0V2A2,2,0,0,1,2,0Z" transform="translate(509 436)" fill="#85e6c4"/>
      <path id="Rectangle_2308" data-name="Rectangle 2308" d="M2,0H7A2,2,0,0,1,9,2V22a0,0,0,0,1,0,0H0a0,0,0,0,1,0,0V2A2,2,0,0,1,2,0Z" transform="translate(521 431)" fill="#85e6c4"/>
    </g>
  </g>
</svg>
