<svg id="integration" xmlns="http://www.w3.org/2000/svg" width="42" height="42" viewBox="0 0 42 42">
  <path id="Path_24617" data-name="Path 24617" d="M269.551,6.194a4.332,4.332,0,0,1,0,8.574v4.994h7.425v1.856a1.856,1.856,0,0,0,3.712,0V19.763h8.625A21.023,21.023,0,0,0,269.551,0Z" transform="translate(-247.314 0)" fill="#85e6c4"/>
  <path id="Path_24618" data-name="Path 24618" d="M6.194,19.763a4.332,4.332,0,0,1,8.574,0h4.994V12.338h1.856a1.856,1.856,0,0,0,0-3.712H19.763V0A21.023,21.023,0,0,0,0,19.763Z" transform="translate(0)" fill="#6d44e5"/>
  <path id="Path_24619" data-name="Path 24619" d="M19.763,241.832a4.332,4.332,0,0,1,0-8.574v-4.994H12.338v-1.856a1.856,1.856,0,0,0-3.712,0v1.856H0a21.023,21.023,0,0,0,19.763,19.763Z" transform="translate(0 -206.026)" fill="#6d44e5"/>
  <path id="Path_24620" data-name="Path 24620" d="M241.832,269.551a4.332,4.332,0,0,1-8.574,0h-4.994v7.425h-1.856a1.856,1.856,0,0,0,0,3.712h1.856v8.625a21.023,21.023,0,0,0,19.763-19.763Z" transform="translate(-206.026 -247.314)" fill="#6d44e5"/>
</svg>
