<svg xmlns="http://www.w3.org/2000/svg" width="34.61" height="42" viewBox="0 0 34.61 42">
  <g id="Group_9068" data-name="Group 9068" transform="translate(-145 -4211)">
    <path id="Subtraction_18" data-name="Subtraction 18" d="M7.44,41.45a1.178,1.178,0,0,1-.351-.058.991.991,0,0,1-.767-1.026V25.294H2.108A2.071,2.071,0,0,1,0,23.185V2.107A2.067,2.067,0,0,1,2.108,0h15.7A2.038,2.038,0,0,1,19.6.949a1.965,1.965,0,0,1,.158,2L12.647,18.97h4.742a2.024,2.024,0,0,1,1.4.508A12.3,12.3,0,0,0,11.01,31.087a12.886,12.886,0,0,0,.639,4.027L8.273,40.891A.948.948,0,0,1,7.44,41.45Z" transform="translate(145 4211)" fill="#85e6c4"/>
    <path id="Path_17633" data-name="Path 17633" d="M20.476,7.824l1.739-1.739a17.675,17.675,0,0,0-1.726-1.726L18.75,6.122a10.852,10.852,0,0,0-6.881-2.449,11.037,11.037,0,1,0,8.607,4.151Zm-7.383,8.093H10.645V7.346h2.449ZM15.542,0H8.2V2.449h7.346Z" transform="translate(156.722 4227.289)" fill="#6d44e5"/>
  </g>
</svg>
