<svg xmlns="http://www.w3.org/2000/svg" xmlns:xlink="http://www.w3.org/1999/xlink" width="469.658" height="350.186" viewBox="0 0 469.658 350.186">
  <defs>
    <filter id="Subtraction_71" x="193.752" y="45.814" width="206" height="304.372" filterUnits="userSpaceOnUse">
      <feOffset dx="10" input="SourceAlpha"/>
      <feGaussianBlur stdDeviation="10" result="blur"/>
      <feFlood flood-color="#6d44e5" flood-opacity="0.251"/>
      <feComposite operator="in" in2="blur"/>
      <feComposite in="SourceGraphic"/>
    </filter>
    <linearGradient id="linear-gradient" x1="-0.049" y1="0.092" x2="0.798" y2="0.923" gradientUnits="objectBoundingBox">
      <stop offset="0" stop-color="#fff5e9"/>
      <stop offset="0.605" stop-color="#7d95e6"/>
      <stop offset="1" stop-color="#3f28dd"/>
    </linearGradient>
    <filter id="Subtraction_70" x="69.752" y="45.814" width="182.928" height="304.372" filterUnits="userSpaceOnUse">
      <feOffset dx="-10" input="SourceAlpha"/>
      <feGaussianBlur stdDeviation="10" result="blur-2"/>
      <feFlood flood-color="#6d44e5" flood-opacity="0.251"/>
      <feComposite operator="in" in2="blur-2"/>
      <feComposite in="SourceGraphic"/>
    </filter>
    <linearGradient id="linear-gradient-2" x1="0.042" y1="-0.202" x2="0.922" y2="1.21" gradientUnits="objectBoundingBox">
      <stop offset="0" stop-color="#fff5e9"/>
      <stop offset="0.605" stop-color="#7d95e6"/>
      <stop offset="0.999" stop-color="#3f28dd"/>
    </linearGradient>
  </defs>
  <g id="Group_19099" data-name="Group 19099" transform="translate(-139.248 -4841)">
    <g transform="matrix(1, 0, 0, 1, 139.25, 4841)" filter="url(#Subtraction_71)">
      <g id="Subtraction_71-2" data-name="Subtraction 71" transform="translate(359.75 319.99) rotate(180)" fill="#f0ecfd">
        <path d="M 118.6189041137695 243.6707458496094 C 110.5717697143555 243.4360961914062 102.5434875488281 242.4062652587891 94.75627899169922 240.6097564697266 C 87.14358520507812 238.8535003662109 79.66658782958984 236.3432769775391 72.53292846679688 233.1488189697266 C 65.52043151855469 230.0086212158203 58.76546478271484 226.1744384765625 52.45561981201172 221.7528076171875 C 46.19952392578125 217.3688049316406 40.32265090942383 212.3667144775391 34.98818206787109 206.8854064941406 C 29.65015029907227 201.4004364013672 24.80761909484863 195.3865966796875 20.59502601623535 189.0109710693359 C 16.34080696105957 182.5722503662109 12.68874454498291 175.7029724121094 9.740275382995605 168.5939331054688 C 6.73743200302124 161.3538055419922 4.431807041168213 153.78515625 2.887432098388672 146.0981903076172 C 1.303244590759277 138.2131195068359 0.4999945759773254 130.1006317138672 0.4999945759773254 121.9860000610352 C 0.4999945759773254 113.8712844848633 1.303244590759277 105.758659362793 2.887432098388672 97.87356567382812 C 4.431807041168213 90.18653106689453 6.73743200302124 82.61784362792969 9.740275382995605 75.377685546875 C 12.68874454498291 68.26865386962891 16.34080696105957 61.39937591552734 20.59502601623535 54.96065521240234 C 24.80758857727051 48.58502960205078 29.65015029907227 42.57122039794922 34.98818206787109 37.08628082275391 C 40.32265090942383 31.60499954223633 46.19952392578125 26.60293769836426 52.45561981201172 22.2189998626709 C 58.76543045043945 17.7973747253418 65.52043151855469 13.96325016021729 72.53292846679688 10.82309341430664 C 79.66655731201172 7.628656387329102 87.14358520507812 5.118468761444092 94.75624084472656 3.362250089645386 C 102.5434875488281 1.565733075141907 110.57177734375 0.5359330177307129 118.6189117431641 0.301284521818161 C 119.6626052856445 0.46192666888237 120.620246887207 0.9896607398986816 121.319465637207 1.790468811988831 C 122.0345230102539 2.609406232833862 122.4283065795898 3.659875154495239 122.4283065795898 4.748406410217285 L 122.4283065795898 106.3447189331055 L 122.4283065795898 107.1015319824219 L 123.1244659423828 106.8046264648438 C 125.1188659667969 105.9540939331055 127.2388076782227 105.5228118896484 129.4253997802734 105.5228118896484 C 133.7190856933594 105.5228118896484 137.7557373046875 107.1948089599609 140.7917785644531 110.230842590332 C 143.8278045654297 113.2668762207031 145.4998016357422 117.3035278320312 145.4998016357422 121.5972213745117 C 145.4998016357422 125.8908767700195 143.8278045654297 129.9275360107422 140.7917785644531 132.9635620117188 C 137.7557373046875 135.9995880126953 133.7190856933594 137.6716003417969 129.4253997802734 137.6716003417969 C 127.2388076782227 137.6716003417969 125.1188659667969 137.2403106689453 123.1244659423828 136.3897857666016 L 122.4283065795898 136.0928802490234 L 122.4283065795898 136.8496856689453 L 122.4283065795898 239.2235870361328 C 122.4283065795898 240.3121185302734 122.0344924926758 241.3625946044922 121.319465637207 242.1815338134766 C 120.620246887207 242.9823455810547 119.66259765625 243.5100708007812 118.6189041137695 243.6707458496094 Z" stroke="none"/>
        <path d="M 118.5866546630859 0.80242919921875 C 110.5881500244141 1.038742065429688 102.6086578369141 2.063812255859375 94.86865234375 3.849441528320312 C 87.28746032714844 5.598373413085938 79.84140014648438 8.098190307617188 72.73727416992188 11.27940368652344 C 65.75365447998047 14.40666198730469 59.02646636962891 18.22500610351562 52.7425537109375 22.62846374511719 C 46.51205444335938 26.99447631835938 40.6591796875 31.97608947753906 35.34649658203125 37.43499755859375 C 30.0302734375 42.89753723144531 25.20752716064453 48.88674926757812 21.01221466064453 55.23631286621094 C 16.77546691894531 61.64852905273438 13.138427734375 68.489501953125 10.20211791992188 75.56924438476562 C 7.211715698242188 82.77943420410156 4.915618896484375 90.31681823730469 3.37762451171875 97.97203063964844 C 1.7999267578125 105.8248138427734 1 113.9042816162109 1 121.9860000610352 C 1 130.067626953125 1.7999267578125 138.1470031738281 3.37762451171875 145.9996948242188 C 4.915618896484375 153.6548461914062 7.211715698242188 161.1922302246094 10.20211791992188 168.4023742675781 C 13.138427734375 175.4820861816406 16.77546691894531 182.3230590820312 21.01221466064453 188.7353210449219 C 25.20752716064453 195.0848388671875 30.0302734375 201.0740966796875 35.34649658203125 206.5366516113281 C 40.6591796875 211.9955902099609 46.51205444335938 216.9772491455078 52.7425537109375 221.3433074951172 C 59.02646636962891 225.7467803955078 65.75365447998047 229.565185546875 72.73727416992188 232.6924743652344 C 79.84140014648438 235.8736877441406 87.28749084472656 238.37353515625 94.86865234375 240.1225280761719 C 102.6086883544922 241.9081573486328 110.5881652832031 242.9332275390625 118.586669921875 243.1695404052734 C 119.4968872070312 243.0189514160156 120.3309631347656 242.5534057617188 120.9428405761719 241.8526916503906 C 121.5783081054688 241.1248474121094 121.9283065795898 240.191162109375 121.9283065795898 239.2235870361328 L 121.9283065795898 135.3360595703125 L 123.3205871582031 135.9298400878906 C 125.2526550292969 136.7538146972656 127.3066177368164 137.1716003417969 129.4253997802734 137.1716003417969 C 133.5855255126953 137.1716003417969 137.4966125488281 135.5516052246094 140.4382171630859 132.6100006103516 C 143.3798065185547 129.6683959960938 144.9998016357422 125.7573471069336 144.9998016357422 121.5972213745117 C 144.9998016357422 117.4370956420898 143.3798065185547 113.5260009765625 140.4382171630859 110.5844116210938 C 137.4966125488281 107.6428070068359 133.5855255126953 106.0228118896484 129.4253997802734 106.0228118896484 C 127.3066177368164 106.0228118896484 125.2526550292969 106.4405975341797 123.3205871582031 107.2645568847656 L 121.9283065795898 107.8583374023438 L 121.9283065795898 4.7484130859375 C 121.9283065795898 3.780838012695312 121.5783081054688 2.847152709960938 120.9428405761719 2.119308471679688 C 120.3309631347656 1.418563842773438 119.4968795776367 0.9530487060546875 118.5866546630859 0.80242919921875 M 118.6488037109375 -0.1998138427734375 C 121.0689010620117 0.1493988037109375 122.9283065795898 2.23199462890625 122.9283065795898 4.7484130859375 L 122.9283065795898 106.3447113037109 C 124.9232482910156 105.4939422607422 127.1196212768555 105.0228118896484 129.4253997802734 105.0228118896484 C 138.5792999267578 105.0228118896484 145.9998016357422 112.4433135986328 145.9998016357422 121.5972213745117 C 145.9998016357422 130.7510986328125 138.5792999267578 138.1716003417969 129.4253997802734 138.1716003417969 C 127.1196212768555 138.1716003417969 124.9232482910156 137.7004699707031 122.9283065795898 136.8496856689453 L 122.9283065795898 239.2235870361328 C 122.9283065795898 241.7400054931641 121.0689010620117 243.8226013183594 118.6488037109375 244.1717834472656 C 52.79671478271484 242.2754974365234 0 188.2961883544922 0 121.9860000610352 C 0 55.67491149902344 52.79671478271484 1.696502685546875 118.6488037109375 -0.1998138427734375 Z" stroke="none" fill="#6d44e5"/>
      </g>
    </g>
    <path id="Path_24820" data-name="Path 24820" d="M-34.456,0V-11.2h7.232v1.648h-5.184v3.136h4.192V-4.8h-4.192V0Zm12.208.192A4.332,4.332,0,0,1-24.376-.32a3.706,3.706,0,0,1-1.456-1.44A4.26,4.26,0,0,1-26.36-3.9,4.528,4.528,0,0,1-25.84-6.1a3.775,3.775,0,0,1,1.44-1.5,4.23,4.23,0,0,1,2.168-.536,4.086,4.086,0,0,1,2.064.512,3.677,3.677,0,0,1,1.4,1.4,3.933,3.933,0,0,1,.5,1.976q0,.176-.008.368t-.024.4h-6.032a2.067,2.067,0,0,0,.648,1.456,2.036,2.036,0,0,0,1.416.528,1.861,1.861,0,0,0,1.048-.28,1.735,1.735,0,0,0,.632-.728h2.08a3.771,3.771,0,0,1-.744,1.368,3.668,3.668,0,0,1-1.28.968A4.047,4.047,0,0,1-22.248.192Zm.016-6.656a2.181,2.181,0,0,0-1.328.424A1.965,1.965,0,0,0-24.3-4.752h3.952A1.727,1.727,0,0,0-20.92-6,1.916,1.916,0,0,0-22.232-6.464ZM-12.68.192A4.332,4.332,0,0,1-14.808-.32a3.706,3.706,0,0,1-1.456-1.44A4.26,4.26,0,0,1-16.792-3.9a4.528,4.528,0,0,1,.52-2.192,3.775,3.775,0,0,1,1.44-1.5,4.23,4.23,0,0,1,2.168-.536,4.086,4.086,0,0,1,2.064.512,3.677,3.677,0,0,1,1.4,1.4A3.932,3.932,0,0,1-8.7-4.24q0,.176-.008.368t-.024.4H-14.76a2.067,2.067,0,0,0,.648,1.456,2.036,2.036,0,0,0,1.416.528,1.861,1.861,0,0,0,1.048-.28,1.735,1.735,0,0,0,.632-.728h2.08A3.771,3.771,0,0,1-9.68-1.128a3.668,3.668,0,0,1-1.28.968A4.047,4.047,0,0,1-12.68.192Zm.016-6.656a2.181,2.181,0,0,0-1.328.424,1.965,1.965,0,0,0-.736,1.288h3.952A1.727,1.727,0,0,0-11.352-6,1.916,1.916,0,0,0-12.664-6.464ZM-3.688.192A4.665,4.665,0,0,1-5.544-.152,3.206,3.206,0,0,1-6.824-1.1,2.756,2.756,0,0,1-7.4-2.512h2.064a1.329,1.329,0,0,0,.52.792,1.74,1.74,0,0,0,1.1.328,1.475,1.475,0,0,0,.984-.272.811.811,0,0,0,.312-.624.687.687,0,0,0-.448-.7,7.894,7.894,0,0,0-1.248-.36q-.512-.112-1.04-.272a4.8,4.8,0,0,1-.968-.408,2.116,2.116,0,0,1-.712-.64,1.657,1.657,0,0,1-.272-.968,2.25,2.25,0,0,1,.84-1.776,3.517,3.517,0,0,1,2.36-.72,3.555,3.555,0,0,1,2.248.656,2.659,2.659,0,0,1,1,1.808H-2.6q-.176-.88-1.328-.88a1.506,1.506,0,0,0-.888.224.668.668,0,0,0-.312.56q0,.352.464.56a6.815,6.815,0,0,0,1.232.384q.832.192,1.528.424A2.568,2.568,0,0,1-.792-3.7,1.868,1.868,0,0,1-.376-2.4,2.228,2.228,0,0,1-.76-1.072a2.653,2.653,0,0,1-1.152.928A4.325,4.325,0,0,1-3.688.192ZM1.48,0V-11.2h4.5a3.919,3.919,0,0,1,2.664.808A2.633,2.633,0,0,1,9.56-8.32a2.43,2.43,0,0,1-.568,1.688,2.833,2.833,0,0,1-1.384.856,2.67,2.67,0,0,1,1.584.952,2.7,2.7,0,0,1,.624,1.768,2.82,2.82,0,0,1-.96,2.192A3.927,3.927,0,0,1,6.136,0ZM3.528-6.5H5.672A1.975,1.975,0,0,0,7-6.9a1.419,1.419,0,0,0,.464-1.136,1.417,1.417,0,0,0-.456-1.112A2,2,0,0,0,5.64-9.552H3.528Zm0,4.832H5.816a2.137,2.137,0,0,0,1.416-.424,1.472,1.472,0,0,0,.5-1.192,1.53,1.53,0,0,0-.528-1.232A2.129,2.129,0,0,0,5.784-4.96H3.528ZM14.5.192a2.881,2.881,0,0,1-2.3-.928,4.031,4.031,0,0,1-.808-2.72v-4.48h2.032v4.288a2.542,2.542,0,0,0,.416,1.568,1.546,1.546,0,0,0,1.312.544,1.808,1.808,0,0,0,1.4-.608,2.432,2.432,0,0,0,.552-1.7v-4.1H19.16V0H17.352l-.16-1.344a2.79,2.79,0,0,1-1.064,1.12A3.1,3.1,0,0,1,14.5.192ZM20.744,0V-1.648L24.792-6.24h-4v-1.7h6.336v1.648L23.016-1.7h4.192V0Zm7.664,0V-1.648L32.456-6.24h-4v-1.7h6.336v1.648L30.68-1.7h4.192V0Z" transform="translate(436 5068.814)" fill="#2a2a2a"/>
    <g id="FeesBuzz" transform="translate(353 4915.814)">
      <rect id="Rectangle_6093" data-name="Rectangle 6093" width="40" height="40" transform="translate(63 89)" fill="none"/>
      <g id="_7FeesBuzz" data-name="7FeesBuzz" transform="translate(64.824 89.592)">
        <path id="Path_1964" data-name="Path 1964" d="M18.35,16.251V3.378a1.065,1.065,0,0,0-.99-.99,7.476,7.476,0,0,0-2.641.5,14.3,14.3,0,0,0-7.1,5.612,15.49,15.49,0,0,0-.5,16.009c3.136,5.116,9.077,7.262,14.854,6.437,8.087-1.155,10.893-8.417,11.058-13.864a.951.951,0,0,0-.99-.99H18.35Z" transform="translate(0.962 0.371)" fill="url(#linear-gradient)"/>
        <path id="Path_1965" data-name="Path 1965" d="M18.9,7.215V1.768c0-1.155.33-1.485,1.65-1.32A14.012,14.012,0,0,1,32.768,12.5c.165,1.32-.165,1.815-1.485,1.815H20.39c-.99,0-1.485-.33-1.485-1.485Z" transform="translate(3.545 0)" fill="#18253e"/>
        <path id="Path_1966" data-name="Path 1966" d="M0,26.685a7.821,7.821,0,0,1,8.087-7.757,8.005,8.005,0,1,1-.165,16.009A8.211,8.211,0,0,1,0,26.685Z" transform="translate(0 3.471)" fill="#33eeb1"/>
        <path id="Path_1967" data-name="Path 1967" d="M8.192,24.7H4.4a.5.5,0,1,1,0-.99H8.357c0-.165,0-.33-.165-.33a2.071,2.071,0,0,0-1.815-.99H4.561c-.165,0-.33-.165-.5-.165-.165-.33,0-.66.5-.66h5.612a.5.5,0,1,1,0,.99H8.687c.165.5.5.99.66,1.485h.66a.5.5,0,1,1,0,.99H9.182c-.33,1.485-1.65,2.311-3.631,2.146.165.165.33.165.33.33L8.852,30.48l.165.165a.5.5,0,0,1,0,.66c-.165.165-.33.165-.66,0l-.165-.165c-1.32-1.32-2.641-2.641-4.126-3.961-.165-.165-.33-.33-.165-.66s.33-.33.66-.33H6.376A1.8,1.8,0,0,0,8.192,24.7Z" transform="translate(0.719 3.967)" fill="#fff"/>
      </g>
    </g>
    <g transform="matrix(1, 0, 0, 1, 139.25, 4841)" filter="url(#Subtraction_70)">
      <g id="Subtraction_70-2" data-name="Subtraction 70" transform="translate(109.75 75.64)" fill="#f0ecfd">
        <path d="M 118.6188735961914 244.0424499511719 C 110.5718612670898 243.8078002929688 102.5436248779297 242.7779998779297 94.75627899169922 240.9814605712891 C 87.14369201660156 239.2252960205078 79.66665649414062 236.7151031494141 72.53287506103516 233.5206451416016 C 65.52056121826172 230.3805847167969 58.76556396484375 226.5464477539062 52.45559310913086 222.1247711181641 C 46.19965744018555 217.7409820556641 40.32275009155273 212.7389221191406 34.98812484741211 207.2575531005859 C 29.6502513885498 201.7727355957031 24.80768775939941 195.7589874267578 20.59500122070312 189.3832702636719 C 16.34078216552734 182.9445495605469 12.68868827819824 176.0753021240234 9.740220069885254 168.9663543701172 C 6.737375736236572 161.7261352539062 4.431782245635986 154.1575469970703 2.887469530105591 146.4707336425781 C 1.303250908851624 138.5857696533203 0.5000008344650269 130.4732666015625 0.5000008344650269 122.3586120605469 C 0.5000008344650269 114.2438583374023 1.303250908851624 106.131233215332 2.887469530105591 98.24613952636719 C 4.431782245635986 90.55923461914062 6.737375736236572 82.99048614501953 9.740220069885254 75.75017547607422 C 12.68875122070312 68.64108276367188 16.34081268310547 61.77173614501953 20.59500122070312 55.33295440673828 C 24.8078441619873 48.95698547363281 29.65037536621094 42.94311141967773 34.98812484741211 37.45842361450195 C 40.32271957397461 31.97701644897461 46.1995964050293 26.97489166259766 52.45559310913086 22.59098625183105 C 58.76556396484375 18.16923522949219 65.52056121826172 14.33504772186279 72.53287506103516 11.19492244720459 C 79.66637420654297 8.000485420227051 87.14340972900391 5.490266799926758 94.75627899169922 3.733954191207886 C 102.5435256958008 1.937437176704407 110.5718078613281 0.9076061248779297 118.6189117431641 0.6729574799537659 C 119.6626663208008 0.8336305022239685 120.6203155517578 1.361396551132202 121.3194351196289 2.162235498428345 C 122.0345001220703 2.98136043548584 122.4283142089844 4.03214168548584 122.4283142089844 5.121016502380371 L 122.4283142089844 102.8506927490234 C 121.5556182861328 102.732292175293 120.6688385009766 102.6723937988281 119.7845916748047 102.6723937988281 C 117.1584091186523 102.6723937988281 114.6104354858398 103.1868286132812 112.2114715576172 104.2014236450195 C 109.8946914672852 105.1812973022461 107.8140640258789 106.5840148925781 106.0273742675781 108.3706130981445 C 104.2406539916992 110.1572647094727 102.8378753662109 112.2378921508789 101.8579406738281 114.5546722412109 C 100.8432846069336 116.9537048339844 100.3288116455078 119.5018005371094 100.3288116455078 122.1282043457031 C 100.3288116455078 124.75439453125 100.8432846069336 127.302360534668 101.8579406738281 129.7013549804688 C 102.8379058837891 132.0181732177734 104.2406921386719 134.0988006591797 106.02734375 135.8854522705078 C 107.8139419555664 137.6720428466797 109.8945617675781 139.0748291015625 112.2114410400391 140.0548248291016 C 114.6104049682617 141.0695190429688 117.1583786010742 141.583984375 119.7845916748047 141.583984375 C 120.6688613891602 141.583984375 121.5556640625 141.5240783691406 122.4283447265625 141.4056854248047 L 122.4283142089844 239.5952911376953 C 122.4283142089844 240.6837005615234 122.0344085693359 241.7341766357422 121.3191223144531 242.5532379150391 C 120.6198196411133 243.3540496826172 119.6622695922852 243.8817749023438 118.6188735961914 244.0424499511719 Z" stroke="none"/>
        <path d="M 118.5866012573242 243.5412750244141 C 119.4965591430664 243.3906860351562 120.3305358886719 242.9251098632812 120.9425354003906 242.2243347167969 C 121.5782165527344 241.4963989257812 121.9283142089844 240.5627288818359 121.9283142089844 239.5952911376953 L 121.9283447265625 141.9698638916016 C 121.2176895141602 142.0457153320312 120.5003509521484 142.083984375 119.7845916748047 142.083984375 C 117.0910949707031 142.083984375 114.4775924682617 141.5561981201172 112.0166549682617 140.5153350830078 C 109.6401901245117 139.5101165771484 107.5061569213867 138.0713653564453 105.6738128662109 136.2389831542969 C 103.8413772583008 134.4065856933594 102.4026260375977 132.2725524902344 101.3974380493164 129.8961029052734 C 100.356559753418 127.435173034668 99.82881164550781 124.8216705322266 99.82881164550781 122.1282043457031 C 99.82881164550781 119.4345169067383 100.356559753418 116.8208923339844 101.3974380493164 114.3598937988281 C 102.4025650024414 111.983512878418 103.8413467407227 109.8494873046875 105.6738128662109 108.0170516967773 C 107.5062789916992 106.1847076416016 109.6403121948242 104.7459869384766 112.0166854858398 103.7408905029297 C 114.4776229858398 102.7001113891602 117.0911254882812 102.1723937988281 119.7845916748047 102.1723937988281 C 120.5003356933594 102.1723937988281 121.217658996582 102.2106552124023 121.9283142089844 102.286506652832 L 121.9283142089844 5.121016502380371 C 121.9283142089844 4.153079032897949 121.5783157348633 3.219079256057739 120.9427490234375 2.491079092025757 C 120.3309936523438 1.790293216705322 119.4969177246094 1.324754118919373 118.586669921875 1.174138307571411 C 110.5881958007812 1.410443663597107 102.6087265014648 2.435518264770508 94.86865997314453 4.22117280960083 C 87.28731536865234 5.97020435333252 79.84121704101562 8.470047950744629 72.73722076416016 11.65123558044434 C 65.7537841796875 14.7784538269043 59.02659606933594 18.59686088562012 52.74253082275391 23.00045394897461 C 46.51212692260742 27.36642265319824 40.65925216674805 32.34811019897461 35.34646987915039 37.8071403503418 C 30.03053283691406 43.26942443847656 25.20778274536133 49.25870513916016 21.01218795776367 55.60857772827148 C 16.77546882629395 62.02089309692383 13.13843822479248 68.86192321777344 10.20209503173828 75.94170379638672 C 7.211657047271729 83.15207672119141 4.915594577789307 90.68951416015625 3.377657175064087 98.34461212158203 C 1.799969553947449 106.1973571777344 1.000000834465027 114.2768630981445 1.000000834465027 122.3586120605469 C 1.000000834465027 130.4402618408203 1.799969553947449 138.5196380615234 3.377657175064087 146.3722686767578 C 4.915594577789307 154.0272674560547 7.211657047271729 161.5645446777344 10.20206356048584 168.7747955322266 C 13.13840675354004 175.8544158935547 16.77543830871582 182.6953887939453 21.01215744018555 189.1076049804688 C 25.20762634277344 195.4572296142578 30.03037643432617 201.4464263916016 35.34643936157227 206.9088287353516 C 40.6593132019043 212.3678283691406 46.51218795776367 217.3494262695312 52.74253082275391 221.7153015136719 C 59.02659606933594 226.1188354492188 65.7537841796875 229.9371795654297 72.73722076416016 233.0643005371094 C 79.84149932861328 236.2455444335938 87.28759765625 238.745361328125 94.86865997314453 240.4942626953125 C 102.6088180541992 242.2798919677734 110.5882263183594 243.3049621582031 118.5866012573242 243.5412750244141 M 118.648811340332 244.5435180664062 C 110.5540313720703 244.3104248046875 102.4775924682617 243.2758941650391 94.64387512207031 241.4686737060547 C 86.99968719482422 239.7052001953125 79.49172210693359 237.1846160888672 72.32852935791016 233.9769897460938 C 65.28725433349609 230.8239593505859 58.50450134277344 226.9740447998047 52.16865539550781 222.5342407226562 C 45.8870964050293 218.1324920654297 39.98618698120117 213.1099853515625 34.62981414794922 207.6062622070312 C 29.27009391784668 202.0990447998047 24.40775108337402 196.0606689453125 20.1778450012207 189.6588897705078 C 15.90606307983398 183.193603515625 12.23896980285645 176.2960815429688 9.278375625610352 169.1579284667969 C 6.263125896453857 161.8878021240234 3.947969675064087 154.2878570556641 2.397250890731812 146.5692291259766 C 0.806532084941864 138.6517944335938 8.544922138753464e-07 130.5061798095703 8.544922138753464e-07 122.3586120605469 C 8.544922138753464e-07 114.2109527587891 0.806532084941864 106.0652008056641 2.397250890731812 98.14764404296875 C 3.947969675064087 90.42892456054688 6.263125896453857 82.828857421875 9.278375625610352 75.55860900878906 C 12.23896980285645 68.42039489746094 15.90603256225586 61.52276611328125 20.1778450012207 55.05732727050781 C 24.40775108337402 48.655517578125 29.27003288269043 42.61704635620117 34.62981414794922 37.10970306396484 C 39.98615646362305 31.60592269897461 45.88706207275391 26.58336067199707 52.16865539550781 22.18151664733887 C 58.50450134277344 17.74164199829102 65.28725433349609 13.89167308807373 72.32852935791016 10.73857879638672 C 79.49165344238281 7.530891895294189 86.99965667724609 5.010297775268555 94.64387512207031 3.246766567230225 C 102.4775619506836 1.439516663551331 110.5540008544922 0.4049853980541229 118.648811340332 0.1718916594982147 C 119.8269348144531 0.3418916761875153 120.9091262817383 0.9319541454315186 121.6960983276367 1.833422899246216 C 122.4906921386719 2.74364161491394 122.9283142089844 3.911172866821289 122.9283142089844 5.121016502380371 L 122.9283142089844 103.4319229125977 C 121.8985290527344 103.2600479125977 120.8412170410156 103.1723937988281 119.7845916748047 103.1723937988281 C 117.2256240844727 103.1723937988281 114.7432174682617 103.6735458374023 112.4062194824219 104.6619262695312 C 110.1489410400391 105.6166381835938 108.1217803955078 106.9833908081055 106.3809051513672 108.7241744995117 C 104.6400299072266 110.4650192260742 103.2731857299805 112.4922027587891 102.3184356689453 114.7494506835938 C 101.3300323486328 117.08642578125 100.8288116455078 119.5689849853516 100.8288116455078 122.1282043457031 C 100.8288116455078 124.6872024536133 101.3300323486328 127.1696395874023 102.3184356689453 129.5065765380859 C 103.2731857299805 131.7637634277344 104.6399993896484 133.7909851074219 106.3809051513672 135.5318908691406 C 108.1218109130859 137.2727966308594 110.1490631103516 138.6395721435547 112.4062194824219 139.5943298339844 C 114.7432174682617 140.5827941894531 117.2256240844727 141.083984375 119.7845916748047 141.083984375 C 120.8388442993164 141.083984375 121.8965301513672 140.9966735839844 122.9283447265625 140.8244476318359 L 122.9283142089844 239.5952911376953 C 122.9283142089844 240.8046722412109 122.490592956543 241.971923828125 121.6957473754883 242.8821105957031 C 120.9085922241211 243.7834777832031 119.826530456543 244.3735198974609 118.648811340332 244.5435180664062 Z" stroke="none" fill="#6d44e5"/>
      </g>
    </g>
    <path id="Path_24819" data-name="Path 24819" d="M-22.824,0V-11.2h7.232v1.648h-5.184v3.136h4.192V-4.8h-4.192V0Zm12.16.192a4.087,4.087,0,0,1-2.072-.528A3.877,3.877,0,0,1-14.192-1.8a4.286,4.286,0,0,1-.536-2.168,4.236,4.236,0,0,1,.544-2.168A3.935,3.935,0,0,1-12.72-7.6a4.087,4.087,0,0,1,2.072-.528A4.056,4.056,0,0,1-8.592-7.6,3.877,3.877,0,0,1-7.136-6.136,4.286,4.286,0,0,1-6.6-3.968,4.286,4.286,0,0,1-7.136-1.8,3.86,3.86,0,0,1-8.6-.336,4.1,4.1,0,0,1-10.664.192Zm0-1.776a1.893,1.893,0,0,0,1.392-.6A2.441,2.441,0,0,0-8.68-3.968a2.441,2.441,0,0,0-.592-1.784,1.875,1.875,0,0,0-1.376-.6,1.885,1.885,0,0,0-1.4.6,2.462,2.462,0,0,0-.584,1.784,2.462,2.462,0,0,0,.584,1.784A1.867,1.867,0,0,0-10.664-1.584ZM-4.776,0V-7.936h1.824l.192,1.488A3.321,3.321,0,0,1-1.584-7.672,3.286,3.286,0,0,1,.168-8.128v2.16H-.408a3.254,3.254,0,0,0-1.2.208,1.616,1.616,0,0,0-.824.72,2.86,2.86,0,0,0-.3,1.424V0ZM1.56,0V-7.936H3.368l.176,1.072a2.818,2.818,0,0,1,1.016-.92,3.014,3.014,0,0,1,1.464-.344A2.72,2.72,0,0,1,8.632-6.7a3.083,3.083,0,0,1,1.16-1.04,3.36,3.36,0,0,1,1.592-.384,3.036,3.036,0,0,1,2.384.928A3.952,3.952,0,0,1,14.6-4.48V0H12.552V-4.288a2.659,2.659,0,0,0-.392-1.568A1.389,1.389,0,0,0,10.952-6.4a1.649,1.649,0,0,0-1.336.608,2.584,2.584,0,0,0-.5,1.7V0H7.064V-4.288a2.618,2.618,0,0,0-.4-1.568A1.428,1.428,0,0,0,5.432-6.4a1.632,1.632,0,0,0-1.32.608,2.584,2.584,0,0,0-.5,1.7V0ZM19.832.192a4.665,4.665,0,0,1-1.856-.344A3.206,3.206,0,0,1,16.7-1.1a2.756,2.756,0,0,1-.576-1.408h2.064a1.329,1.329,0,0,0,.52.792,1.74,1.74,0,0,0,1.1.328,1.475,1.475,0,0,0,.984-.272.811.811,0,0,0,.312-.624.687.687,0,0,0-.448-.7,7.894,7.894,0,0,0-1.248-.36q-.512-.112-1.04-.272a4.8,4.8,0,0,1-.968-.408,2.116,2.116,0,0,1-.712-.64,1.657,1.657,0,0,1-.272-.968,2.25,2.25,0,0,1,.84-1.776,3.517,3.517,0,0,1,2.36-.72,3.555,3.555,0,0,1,2.248.656,2.659,2.659,0,0,1,1,1.808H20.92q-.176-.88-1.328-.88a1.506,1.506,0,0,0-.888.224.668.668,0,0,0-.312.56q0,.352.464.56a6.815,6.815,0,0,0,1.232.384q.832.192,1.528.424a2.568,2.568,0,0,1,1.112.688,1.868,1.868,0,0,1,.416,1.3,2.228,2.228,0,0,1-.384,1.328,2.653,2.653,0,0,1-1.152.928A4.325,4.325,0,0,1,19.832.192Z" transform="translate(313 5068.814)" fill="#2a2a2a"/>
    <g id="Forms" transform="translate(-299 4949.814)">
      <rect id="Rectangle_6094" data-name="Rectangle 6094" width="40" height="40" transform="translate(592 55)" fill="none"/>
      <g id="Build_Buzz" data-name="Build Buzz" transform="translate(593 59)">
        <path id="Path_1920" data-name="Path 1920" d="M37.233,34.822H3.633A2.054,2.054,0,0,1,1.5,32.689V5.133A2.162,2.162,0,0,1,3.633,3H33.5a5.616,5.616,0,0,1,5.689,5.689v24A1.832,1.832,0,0,1,37.233,34.822Z" transform="translate(-1.5 -2.822)" fill="url(#linear-gradient-2)"/>
        <path id="Path_1921" data-name="Path 1921" d="M29.378,2.9H22.622L6.8,34.9H32.578a3.755,3.755,0,0,0,3.733-3.733V9.833A6.831,6.831,0,0,0,29.378,2.9Z" transform="translate(2.622 -2.9)" fill="#18253e"/>
        <path id="Path_1922" data-name="Path 1922" d="M23.733,23.922H16.267A2.734,2.734,0,0,1,13.6,21.256V13.967A2.734,2.734,0,0,1,16.267,11.3h7.467A2.734,2.734,0,0,1,26.4,13.967v7.289A2.734,2.734,0,0,1,23.733,23.922Z" transform="translate(7.911 3.633)" fill="#33eeb1"/>
        <path id="Path_1923" data-name="Path 1923" d="M13.511,17.2H5.867A2.734,2.734,0,0,1,3.2,14.533V7.067A2.734,2.734,0,0,1,5.867,4.4h7.644a2.734,2.734,0,0,1,2.667,2.667v7.289A2.9,2.9,0,0,1,13.511,17.2Z" transform="translate(-0.178 -1.733)" fill="#fff"/>
      </g>
    </g>
    <g id="Group_19038" data-name="Group 19038" transform="translate(-618 54)">
      <path id="Path_24822" data-name="Path 24822" d="M35.307,14.168a4.209,4.209,0,0,1-1.876-.392A2.929,2.929,0,0,1,32.2,12.684a3.018,3.018,0,0,1-.434-1.624H33a2.155,2.155,0,0,0,.266,1.057,1.958,1.958,0,0,0,.777.77,2.557,2.557,0,0,0,1.267.287,2.27,2.27,0,0,0,1.54-.476,1.514,1.514,0,0,0,.546-1.19,1.606,1.606,0,0,0-.252-.945,1.884,1.884,0,0,0-.679-.581,5.639,5.639,0,0,0-.98-.392q-.553-.168-1.155-.378a4.124,4.124,0,0,1-1.68-.973A2.128,2.128,0,0,1,32.1,6.72a2.5,2.5,0,0,1,.364-1.393,2.566,2.566,0,0,1,1.071-.952,3.671,3.671,0,0,1,1.645-.343,3.575,3.575,0,0,1,1.631.35,2.645,2.645,0,0,1,1.078.966,2.68,2.68,0,0,1,.4,1.4H37.057a1.713,1.713,0,0,0-.21-.805,1.639,1.639,0,0,0-.637-.651,2.079,2.079,0,0,0-1.071-.252,1.938,1.938,0,0,0-1.309.406,1.422,1.422,0,0,0-.511,1.162,1.263,1.263,0,0,0,.357.966,2.7,2.7,0,0,0,1,.553l1.484.5a7.153,7.153,0,0,1,1.26.588,2.475,2.475,0,0,1,.875.868,2.635,2.635,0,0,1,.315,1.358,2.581,2.581,0,0,1-.364,1.323,2.7,2.7,0,0,1-1.1,1.015A3.882,3.882,0,0,1,35.307,14.168ZM42.951,14a2.247,2.247,0,0,1-1.5-.462,2.1,2.1,0,0,1-.546-1.666V8.05H39.7V7.056h1.2l.154-1.666h1.022V7.056h2.044V8.05H42.083v3.822a1.155,1.155,0,0,0,.266.889,1.45,1.45,0,0,0,.938.231h.728V14Zm5.208.168a2.607,2.607,0,0,1-1.96-.749,3.194,3.194,0,0,1-.728-2.3V7.056h1.176V10.99q0,2.17,1.778,2.17a1.951,1.951,0,0,0,1.505-.651,2.653,2.653,0,0,0,.6-1.855v-3.6H51.7V14H50.637l-.084-1.246a2.418,2.418,0,0,1-.959,1.036A2.758,2.758,0,0,1,48.159,14.168Zm8.624,0a3.4,3.4,0,0,1-1.813-.476,3.241,3.241,0,0,1-1.2-1.3,4.026,4.026,0,0,1-.427-1.876,3.931,3.931,0,0,1,.434-1.869,3.269,3.269,0,0,1,1.2-1.288,3.43,3.43,0,0,1,1.82-.469,3.171,3.171,0,0,1,1.512.35,2.522,2.522,0,0,1,1.022.98V3.92h1.176V14H59.443l-.112-1.148a3.251,3.251,0,0,1-.966.91A2.866,2.866,0,0,1,56.783,14.168Zm.126-1.022a2.33,2.33,0,0,0,1.239-.329,2.25,2.25,0,0,0,.84-.917,2.972,2.972,0,0,0,.3-1.372,2.972,2.972,0,0,0-.3-1.372,2.25,2.25,0,0,0-.84-.917,2.33,2.33,0,0,0-1.239-.329,2.3,2.3,0,0,0-1.225.329,2.25,2.25,0,0,0-.84.917,2.972,2.972,0,0,0-.3,1.372,2.972,2.972,0,0,0,.3,1.372,2.25,2.25,0,0,0,.84.917A2.3,2.3,0,0,0,56.909,13.146Zm8.638,1.022a3.4,3.4,0,0,1-1.764-.455,3.23,3.23,0,0,1-1.211-1.267,3.96,3.96,0,0,1-.441-1.918,4.023,4.023,0,0,1,.434-1.911,3.156,3.156,0,0,1,1.211-1.274,3.494,3.494,0,0,1,1.8-.455,3.245,3.245,0,0,1,1.743.455,3.083,3.083,0,0,1,1.127,1.2,3.366,3.366,0,0,1,.392,1.6q0,.154-.007.308t-.007.35h-5.53a2.729,2.729,0,0,0,.371,1.323,2.184,2.184,0,0,0,1.883,1.057,2.1,2.1,0,0,0,1.218-.336,1.922,1.922,0,0,0,.714-.91h1.162a3.05,3.05,0,0,1-3.094,2.24Zm0-6.286a2.348,2.348,0,0,0-1.491.511,2.059,2.059,0,0,0-.749,1.491h4.368a1.986,1.986,0,0,0-.644-1.47A2.16,2.16,0,0,0,65.547,7.882ZM70.391,14V7.056h1.064l.07,1.246a2.522,2.522,0,0,1,.966-1.036,2.721,2.721,0,0,1,1.428-.378,2.631,2.631,0,0,1,1.967.749,3.174,3.174,0,0,1,.735,2.3V14H75.445V10.066q0-2.17-1.792-2.17a1.935,1.935,0,0,0-1.491.651,2.653,2.653,0,0,0-.6,1.855V14Zm10.752,0a2.247,2.247,0,0,1-1.5-.462,2.1,2.1,0,0,1-.546-1.666V8.05h-1.2V7.056h1.2l.154-1.666h1.022V7.056h2.044V8.05H80.275v3.822a1.155,1.155,0,0,0,.266.889,1.45,1.45,0,0,0,.938.231h.728V14ZM4.248,32V25.056H5.312l.1,1.33a2.517,2.517,0,0,1,.98-1.092,3.038,3.038,0,0,1,1.624-.406V26.12H7.692a2.906,2.906,0,0,0-1.134.217,1.722,1.722,0,0,0-.826.735A2.8,2.8,0,0,0,5.424,28.5V32Zm7.938.168a3.4,3.4,0,0,1-1.764-.455,3.23,3.23,0,0,1-1.211-1.267,3.96,3.96,0,0,1-.441-1.918A4.023,4.023,0,0,1,9.2,26.617a3.156,3.156,0,0,1,1.211-1.274,3.494,3.494,0,0,1,1.8-.455,3.245,3.245,0,0,1,1.743.455,3.083,3.083,0,0,1,1.127,1.2,3.366,3.366,0,0,1,.392,1.6q0,.154-.007.308t-.007.35H9.932a2.729,2.729,0,0,0,.371,1.323,2.184,2.184,0,0,0,1.883,1.057,2.1,2.1,0,0,0,1.218-.336,1.922,1.922,0,0,0,.714-.91H15.28a3.05,3.05,0,0,1-3.094,2.24Zm0-6.286a2.348,2.348,0,0,0-1.491.511,2.059,2.059,0,0,0-.749,1.491h4.368a1.986,1.986,0,0,0-.644-1.47A2.161,2.161,0,0,0,12.186,25.882Zm7.546,3.934a3.582,3.582,0,0,1-1.078-.154l-.7.658a1.41,1.41,0,0,0,.385.189,4.08,4.08,0,0,0,.665.14q.434.063,1.218.133a3.312,3.312,0,0,1,2,.644,1.837,1.837,0,0,1,.6,1.428A2.191,2.191,0,0,1,22.5,34a2.441,2.441,0,0,1-1.008.9,3.8,3.8,0,0,1-1.743.35A5.215,5.215,0,0,1,18.08,35a2.415,2.415,0,0,1-1.134-.742,1.916,1.916,0,0,1-.406-1.253,2.034,2.034,0,0,1,.21-.847,2.264,2.264,0,0,1,.784-.861,2.886,2.886,0,0,1-.525-.273,2.72,2.72,0,0,1-.4-.329v-.322L17.8,29.2a2.3,2.3,0,0,1-.826-1.848,2.455,2.455,0,0,1,.322-1.246,2.3,2.3,0,0,1,.938-.889,3.144,3.144,0,0,1,1.5-.329,3.352,3.352,0,0,1,1.092.168h2.562v.882l-1.3.056a2.331,2.331,0,0,1,.406,1.358,2.414,2.414,0,0,1-.329,1.246,2.362,2.362,0,0,1-.938.889A3.1,3.1,0,0,1,19.732,29.816Zm0-.966a1.735,1.735,0,0,0,1.183-.385,1.4,1.4,0,0,0,.441-1.113,1.381,1.381,0,0,0-.441-1.1,1.735,1.735,0,0,0-1.183-.385,1.757,1.757,0,0,0-1.2.385,1.381,1.381,0,0,0-.441,1.1,1.4,1.4,0,0,0,.441,1.113A1.757,1.757,0,0,0,19.732,28.85ZM17.688,32.9a1.128,1.128,0,0,0,.588,1.043,2.879,2.879,0,0,0,1.47.343,2.334,2.334,0,0,0,1.393-.378,1.182,1.182,0,0,0,.525-1.008,1.015,1.015,0,0,0-.364-.777,2.242,2.242,0,0,0-1.344-.385q-.77-.056-1.33-.14a1.723,1.723,0,0,0-.756.665A1.434,1.434,0,0,0,17.688,32.9Zm7.742-9.38a.79.79,0,0,1-.812-.812.748.748,0,0,1,.231-.56.856.856,0,0,1,1.155,0,.737.737,0,0,1,.238.56.776.776,0,0,1-.238.581A.794.794,0,0,1,25.43,23.516ZM24.842,32V25.056h1.176V32Zm5.88.168a3.318,3.318,0,0,1-2.072-.63,2.456,2.456,0,0,1-.966-1.708h1.2a1.661,1.661,0,0,0,.581.945,1.891,1.891,0,0,0,1.267.4,1.6,1.6,0,0,0,1.092-.315.975.975,0,0,0,.35-.749.831.831,0,0,0-.455-.84,6.056,6.056,0,0,0-1.281-.378,7.22,7.22,0,0,1-1.12-.322,2.544,2.544,0,0,1-.938-.595,1.386,1.386,0,0,1-.378-1.015,1.873,1.873,0,0,1,.679-1.491,2.738,2.738,0,0,1,1.841-.581,2.855,2.855,0,0,1,1.813.553,2.207,2.207,0,0,1,.819,1.575H32a1.211,1.211,0,0,0-.455-.833,1.626,1.626,0,0,0-1.029-.3,1.557,1.557,0,0,0-.973.266.843.843,0,0,0-.343.7.727.727,0,0,0,.441.658,4.735,4.735,0,0,0,1.2.406,10.427,10.427,0,0,1,1.225.343,2.315,2.315,0,0,1,.952.6,1.636,1.636,0,0,1,.371,1.155,1.9,1.9,0,0,1-.707,1.547A2.929,2.929,0,0,1,30.722,32.168ZM37.5,32a2.247,2.247,0,0,1-1.5-.462,2.1,2.1,0,0,1-.546-1.666V26.05h-1.2v-.994h1.2l.154-1.666H36.63v1.666h2.044v.994H36.63v3.822a1.155,1.155,0,0,0,.266.889,1.45,1.45,0,0,0,.938.231h.728V32Zm2.674,0V25.056h1.064l.1,1.33a2.517,2.517,0,0,1,.98-1.092,3.038,3.038,0,0,1,1.624-.406V26.12h-.322a2.906,2.906,0,0,0-1.134.217,1.722,1.722,0,0,0-.826.735,2.8,2.8,0,0,0-.308,1.428V32Zm7.392.168a3.147,3.147,0,0,1-1.442-.294,2,2,0,0,1-.854-.784,2.108,2.108,0,0,1-.28-1.064,1.886,1.886,0,0,1,.812-1.638,3.77,3.77,0,0,1,2.212-.574h1.876V27.73a1.853,1.853,0,0,0-.476-1.379,1.736,1.736,0,0,0-1.274-.469,2.031,2.031,0,0,0-1.183.343,1.5,1.5,0,0,0-.623,1h-1.2a2.228,2.228,0,0,1,.511-1.274,2.856,2.856,0,0,1,1.1-.791,3.617,3.617,0,0,1,1.4-.273,2.629,2.629,0,0,1,2.926,2.842V32h-1.05l-.07-1.246a2.754,2.754,0,0,1-.861,1A2.526,2.526,0,0,1,47.564,32.168Zm.182-.994a1.915,1.915,0,0,0,1.155-.35,2.234,2.234,0,0,0,.735-.91,2.834,2.834,0,0,0,.252-1.176v-.014H48.11a2.308,2.308,0,0,0-1.463.357,1.113,1.113,0,0,0-.427.889,1.077,1.077,0,0,0,.4.875A1.726,1.726,0,0,0,47.746,31.174Zm7.63.826a2.247,2.247,0,0,1-1.5-.462,2.1,2.1,0,0,1-.546-1.666V26.05h-1.2v-.994h1.2l.154-1.666h1.022v1.666h2.044v.994H54.508v3.822a1.155,1.155,0,0,0,.266.889,1.45,1.45,0,0,0,.938.231h.728V32Zm3.388-8.484a.79.79,0,0,1-.812-.812.748.748,0,0,1,.231-.56.856.856,0,0,1,1.155,0,.737.737,0,0,1,.238.56.776.776,0,0,1-.238.581A.794.794,0,0,1,58.764,23.516ZM58.176,32V25.056h1.176V32Zm6.384.168A3.492,3.492,0,0,1,62.8,31.72a3.236,3.236,0,0,1-1.239-1.267,3.9,3.9,0,0,1-.455-1.925,3.854,3.854,0,0,1,.462-1.925,3.27,3.27,0,0,1,1.253-1.267,3.53,3.53,0,0,1,1.771-.448,3.492,3.492,0,0,1,1.764.448A3.236,3.236,0,0,1,67.591,26.6a3.9,3.9,0,0,1,.455,1.925,3.854,3.854,0,0,1-.462,1.925,3.27,3.27,0,0,1-1.253,1.267A3.53,3.53,0,0,1,64.56,32.168Zm0-1.008a2.231,2.231,0,0,0,1.12-.294,2.193,2.193,0,0,0,.84-.882,3,3,0,0,0,.322-1.456,3.054,3.054,0,0,0-.315-1.456,2.148,2.148,0,0,0-.833-.882,2.205,2.205,0,0,0-1.106-.294,2.231,2.231,0,0,0-1.12.294,2.193,2.193,0,0,0-.84.882,3.453,3.453,0,0,0,0,2.912,2.209,2.209,0,0,0,.833.882A2.167,2.167,0,0,0,64.56,31.16Zm5.124.84V25.056h1.064l.07,1.246a2.522,2.522,0,0,1,.966-1.036,2.721,2.721,0,0,1,1.428-.378,2.631,2.631,0,0,1,1.967.749,3.174,3.174,0,0,1,.735,2.3V32H74.738V28.066q0-2.17-1.792-2.17a1.935,1.935,0,0,0-1.491.651,2.653,2.653,0,0,0-.6,1.855V32Zm12.1,0V26.05H80.73v-.994h1.05v-1.2a1.907,1.907,0,0,1,.5-1.47,2.1,2.1,0,0,1,1.47-.462h.7v1.008h-.518a1.068,1.068,0,0,0-.756.217,1,1,0,0,0-.224.735v1.176h1.708v.994H82.956V32Zm7.168.168a3.492,3.492,0,0,1-1.764-.448,3.236,3.236,0,0,1-1.239-1.267,3.9,3.9,0,0,1-.455-1.925,3.854,3.854,0,0,1,.462-1.925,3.27,3.27,0,0,1,1.253-1.267,3.53,3.53,0,0,1,1.771-.448,3.492,3.492,0,0,1,1.764.448A3.236,3.236,0,0,1,91.979,26.6a3.9,3.9,0,0,1,.455,1.925,3.854,3.854,0,0,1-.462,1.925,3.27,3.27,0,0,1-1.253,1.267A3.53,3.53,0,0,1,88.948,32.168Zm0-1.008a2.231,2.231,0,0,0,1.12-.294,2.193,2.193,0,0,0,.84-.882,3,3,0,0,0,.322-1.456,3.054,3.054,0,0,0-.315-1.456,2.148,2.148,0,0,0-.833-.882,2.205,2.205,0,0,0-1.106-.294,2.231,2.231,0,0,0-1.12.294,2.193,2.193,0,0,0-.84.882,3.453,3.453,0,0,0,0,2.912,2.209,2.209,0,0,0,.833.882A2.167,2.167,0,0,0,88.948,31.16Zm5.124.84V25.056h1.064l.1,1.33a2.517,2.517,0,0,1,.98-1.092,3.038,3.038,0,0,1,1.624-.406V26.12h-.322a2.906,2.906,0,0,0-1.134.217,1.722,1.722,0,0,0-.826.735,2.8,2.8,0,0,0-.308,1.428V32Zm5.082,0V25.056h1.064l.084,1.008a2.352,2.352,0,0,1,.9-.868,2.571,2.571,0,0,1,1.26-.308,2.845,2.845,0,0,1,1.421.336,2.21,2.21,0,0,1,.917,1.022,2.658,2.658,0,0,1,1-.994,2.733,2.733,0,0,1,1.379-.364,2.673,2.673,0,0,1,1.988.749,3.155,3.155,0,0,1,.742,2.3V32h-1.162V28.066a2.574,2.574,0,0,0-.434-1.624,1.5,1.5,0,0,0-1.246-.546,1.751,1.751,0,0,0-1.393.651,2.786,2.786,0,0,0-.553,1.855V32h-1.176V28.066a2.574,2.574,0,0,0-.434-1.624,1.5,1.5,0,0,0-1.246-.546,1.737,1.737,0,0,0-1.379.651,2.786,2.786,0,0,0-.553,1.855V32Z" transform="translate(753 4927)" fill="#fff"/>
      <path id="correct" d="M9,0a9,9,0,1,0,9,9A8.992,8.992,0,0,0,9,0Zm4.355,7.134L8.025,12.442a.819.819,0,0,1-.581.249.785.785,0,0,1-.581-.249L4.23,9.83A.836.836,0,0,1,5.412,8.647L7.445,10.68l4.728-4.728a.826.826,0,0,1,1.182,0A.865.865,0,0,1,13.355,7.134Z" transform="translate(801 4904)" fill="#85e6c4"/>
    </g>
    <g id="Group_19040" data-name="Group 19040" transform="translate(-618 54)">
      <path id="Path_24824" data-name="Path 24824" d="M35.272,14l3.612-9.8H40.13l3.6,9.8H42.482l-.9-2.52H37.414L36.5,14Zm2.492-3.472h3.472L39.5,5.684ZM45.114,14V3.92H46.29V14Zm5.642.168a2.607,2.607,0,0,1-1.96-.749,3.194,3.194,0,0,1-.728-2.3V7.056h1.176V10.99q0,2.17,1.778,2.17a1.951,1.951,0,0,0,1.505-.651,2.653,2.653,0,0,0,.6-1.855v-3.6H54.3V14H53.234l-.084-1.246a2.418,2.418,0,0,1-.959,1.036A2.758,2.758,0,0,1,50.756,14.168ZM56.23,14V7.056h1.064l.084,1.008a2.352,2.352,0,0,1,.9-.868,2.571,2.571,0,0,1,1.26-.308,2.845,2.845,0,0,1,1.421.336,2.21,2.21,0,0,1,.917,1.022,2.658,2.658,0,0,1,1-.994,2.733,2.733,0,0,1,1.379-.364,2.673,2.673,0,0,1,1.988.749,3.155,3.155,0,0,1,.742,2.3V14H65.82V10.066a2.574,2.574,0,0,0-.434-1.624A1.5,1.5,0,0,0,64.14,7.9a1.751,1.751,0,0,0-1.393.651,2.786,2.786,0,0,0-.553,1.855V14H61.018V10.066a2.573,2.573,0,0,0-.434-1.624A1.5,1.5,0,0,0,59.338,7.9a1.737,1.737,0,0,0-1.379.651,2.786,2.786,0,0,0-.553,1.855V14Zm12.53,0V7.056h1.064l.07,1.246a2.522,2.522,0,0,1,.966-1.036,2.721,2.721,0,0,1,1.428-.378,2.631,2.631,0,0,1,1.967.749,3.174,3.174,0,0,1,.735,2.3V14H73.814V10.066q0-2.17-1.792-2.17a1.935,1.935,0,0,0-1.491.651,2.653,2.653,0,0,0-.6,1.855V14Zm8.722-8.484A.79.79,0,0,1,76.67,4.7a.748.748,0,0,1,.231-.56.856.856,0,0,1,1.155,0,.737.737,0,0,1,.238.56.776.776,0,0,1-.238.581A.794.794,0,0,1,77.482,5.516ZM76.894,14V7.056H78.07V14ZM4.248,32V25.056H5.312l.1,1.33a2.517,2.517,0,0,1,.98-1.092,3.038,3.038,0,0,1,1.624-.406V26.12H7.692a2.906,2.906,0,0,0-1.134.217,1.722,1.722,0,0,0-.826.735A2.8,2.8,0,0,0,5.424,28.5V32Zm7.938.168a3.4,3.4,0,0,1-1.764-.455,3.23,3.23,0,0,1-1.211-1.267,3.96,3.96,0,0,1-.441-1.918A4.023,4.023,0,0,1,9.2,26.617a3.156,3.156,0,0,1,1.211-1.274,3.494,3.494,0,0,1,1.8-.455,3.245,3.245,0,0,1,1.743.455,3.083,3.083,0,0,1,1.127,1.2,3.366,3.366,0,0,1,.392,1.6q0,.154-.007.308t-.007.35H9.932a2.729,2.729,0,0,0,.371,1.323,2.184,2.184,0,0,0,1.883,1.057,2.1,2.1,0,0,0,1.218-.336,1.922,1.922,0,0,0,.714-.91H15.28a3.05,3.05,0,0,1-3.094,2.24Zm0-6.286a2.348,2.348,0,0,0-1.491.511,2.059,2.059,0,0,0-.749,1.491h4.368a1.986,1.986,0,0,0-.644-1.47A2.161,2.161,0,0,0,12.186,25.882Zm7.546,3.934a3.582,3.582,0,0,1-1.078-.154l-.7.658a1.41,1.41,0,0,0,.385.189,4.08,4.08,0,0,0,.665.14q.434.063,1.218.133a3.312,3.312,0,0,1,2,.644,1.837,1.837,0,0,1,.6,1.428A2.191,2.191,0,0,1,22.5,34a2.441,2.441,0,0,1-1.008.9,3.8,3.8,0,0,1-1.743.35A5.215,5.215,0,0,1,18.08,35a2.415,2.415,0,0,1-1.134-.742,1.916,1.916,0,0,1-.406-1.253,2.034,2.034,0,0,1,.21-.847,2.264,2.264,0,0,1,.784-.861,2.886,2.886,0,0,1-.525-.273,2.72,2.72,0,0,1-.4-.329v-.322L17.8,29.2a2.3,2.3,0,0,1-.826-1.848,2.455,2.455,0,0,1,.322-1.246,2.3,2.3,0,0,1,.938-.889,3.144,3.144,0,0,1,1.5-.329,3.352,3.352,0,0,1,1.092.168h2.562v.882l-1.3.056a2.331,2.331,0,0,1,.406,1.358,2.414,2.414,0,0,1-.329,1.246,2.362,2.362,0,0,1-.938.889A3.1,3.1,0,0,1,19.732,29.816Zm0-.966a1.735,1.735,0,0,0,1.183-.385,1.4,1.4,0,0,0,.441-1.113,1.381,1.381,0,0,0-.441-1.1,1.735,1.735,0,0,0-1.183-.385,1.757,1.757,0,0,0-1.2.385,1.381,1.381,0,0,0-.441,1.1,1.4,1.4,0,0,0,.441,1.113A1.757,1.757,0,0,0,19.732,28.85ZM17.688,32.9a1.128,1.128,0,0,0,.588,1.043,2.879,2.879,0,0,0,1.47.343,2.334,2.334,0,0,0,1.393-.378,1.182,1.182,0,0,0,.525-1.008,1.015,1.015,0,0,0-.364-.777,2.242,2.242,0,0,0-1.344-.385q-.77-.056-1.33-.14a1.723,1.723,0,0,0-.756.665A1.434,1.434,0,0,0,17.688,32.9Zm7.742-9.38a.79.79,0,0,1-.812-.812.748.748,0,0,1,.231-.56.856.856,0,0,1,1.155,0,.737.737,0,0,1,.238.56.776.776,0,0,1-.238.581A.794.794,0,0,1,25.43,23.516ZM24.842,32V25.056h1.176V32Zm5.88.168a3.318,3.318,0,0,1-2.072-.63,2.456,2.456,0,0,1-.966-1.708h1.2a1.661,1.661,0,0,0,.581.945,1.891,1.891,0,0,0,1.267.4,1.6,1.6,0,0,0,1.092-.315.975.975,0,0,0,.35-.749.831.831,0,0,0-.455-.84,6.056,6.056,0,0,0-1.281-.378,7.22,7.22,0,0,1-1.12-.322,2.544,2.544,0,0,1-.938-.595,1.386,1.386,0,0,1-.378-1.015,1.873,1.873,0,0,1,.679-1.491,2.738,2.738,0,0,1,1.841-.581,2.855,2.855,0,0,1,1.813.553,2.207,2.207,0,0,1,.819,1.575H32a1.211,1.211,0,0,0-.455-.833,1.626,1.626,0,0,0-1.029-.3,1.557,1.557,0,0,0-.973.266.843.843,0,0,0-.343.7.727.727,0,0,0,.441.658,4.735,4.735,0,0,0,1.2.406,10.427,10.427,0,0,1,1.225.343,2.315,2.315,0,0,1,.952.6,1.636,1.636,0,0,1,.371,1.155,1.9,1.9,0,0,1-.707,1.547A2.929,2.929,0,0,1,30.722,32.168ZM37.5,32a2.247,2.247,0,0,1-1.5-.462,2.1,2.1,0,0,1-.546-1.666V26.05h-1.2v-.994h1.2l.154-1.666H36.63v1.666h2.044v.994H36.63v3.822a1.155,1.155,0,0,0,.266.889,1.45,1.45,0,0,0,.938.231h.728V32Zm2.674,0V25.056h1.064l.1,1.33a2.517,2.517,0,0,1,.98-1.092,3.038,3.038,0,0,1,1.624-.406V26.12h-.322a2.906,2.906,0,0,0-1.134.217,1.722,1.722,0,0,0-.826.735,2.8,2.8,0,0,0-.308,1.428V32Zm7.392.168a3.147,3.147,0,0,1-1.442-.294,2,2,0,0,1-.854-.784,2.108,2.108,0,0,1-.28-1.064,1.886,1.886,0,0,1,.812-1.638,3.77,3.77,0,0,1,2.212-.574h1.876V27.73a1.853,1.853,0,0,0-.476-1.379,1.736,1.736,0,0,0-1.274-.469,2.031,2.031,0,0,0-1.183.343,1.5,1.5,0,0,0-.623,1h-1.2a2.228,2.228,0,0,1,.511-1.274,2.856,2.856,0,0,1,1.1-.791,3.617,3.617,0,0,1,1.4-.273,2.629,2.629,0,0,1,2.926,2.842V32h-1.05l-.07-1.246a2.754,2.754,0,0,1-.861,1A2.526,2.526,0,0,1,47.564,32.168Zm.182-.994a1.915,1.915,0,0,0,1.155-.35,2.234,2.234,0,0,0,.735-.91,2.834,2.834,0,0,0,.252-1.176v-.014H48.11a2.308,2.308,0,0,0-1.463.357,1.113,1.113,0,0,0-.427.889,1.077,1.077,0,0,0,.4.875A1.726,1.726,0,0,0,47.746,31.174Zm7.63.826a2.247,2.247,0,0,1-1.5-.462,2.1,2.1,0,0,1-.546-1.666V26.05h-1.2v-.994h1.2l.154-1.666h1.022v1.666h2.044v.994H54.508v3.822a1.155,1.155,0,0,0,.266.889,1.45,1.45,0,0,0,.938.231h.728V32Zm3.388-8.484a.79.79,0,0,1-.812-.812.748.748,0,0,1,.231-.56.856.856,0,0,1,1.155,0,.737.737,0,0,1,.238.56.776.776,0,0,1-.238.581A.794.794,0,0,1,58.764,23.516ZM58.176,32V25.056h1.176V32Zm6.384.168A3.492,3.492,0,0,1,62.8,31.72a3.236,3.236,0,0,1-1.239-1.267,3.9,3.9,0,0,1-.455-1.925,3.854,3.854,0,0,1,.462-1.925,3.27,3.27,0,0,1,1.253-1.267,3.53,3.53,0,0,1,1.771-.448,3.492,3.492,0,0,1,1.764.448A3.236,3.236,0,0,1,67.591,26.6a3.9,3.9,0,0,1,.455,1.925,3.854,3.854,0,0,1-.462,1.925,3.27,3.27,0,0,1-1.253,1.267A3.53,3.53,0,0,1,64.56,32.168Zm0-1.008a2.231,2.231,0,0,0,1.12-.294,2.193,2.193,0,0,0,.84-.882,3,3,0,0,0,.322-1.456,3.054,3.054,0,0,0-.315-1.456,2.148,2.148,0,0,0-.833-.882,2.205,2.205,0,0,0-1.106-.294,2.231,2.231,0,0,0-1.12.294,2.193,2.193,0,0,0-.84.882,3.453,3.453,0,0,0,0,2.912,2.209,2.209,0,0,0,.833.882A2.167,2.167,0,0,0,64.56,31.16Zm5.124.84V25.056h1.064l.07,1.246a2.522,2.522,0,0,1,.966-1.036,2.721,2.721,0,0,1,1.428-.378,2.631,2.631,0,0,1,1.967.749,3.174,3.174,0,0,1,.735,2.3V32H74.738V28.066q0-2.17-1.792-2.17a1.935,1.935,0,0,0-1.491.651,2.653,2.653,0,0,0-.6,1.855V32Zm12.1,0V26.05H80.73v-.994h1.05v-1.2a1.907,1.907,0,0,1,.5-1.47,2.1,2.1,0,0,1,1.47-.462h.7v1.008h-.518a1.068,1.068,0,0,0-.756.217,1,1,0,0,0-.224.735v1.176h1.708v.994H82.956V32Zm7.168.168a3.492,3.492,0,0,1-1.764-.448,3.236,3.236,0,0,1-1.239-1.267,3.9,3.9,0,0,1-.455-1.925,3.854,3.854,0,0,1,.462-1.925,3.27,3.27,0,0,1,1.253-1.267,3.53,3.53,0,0,1,1.771-.448,3.492,3.492,0,0,1,1.764.448A3.236,3.236,0,0,1,91.979,26.6a3.9,3.9,0,0,1,.455,1.925,3.854,3.854,0,0,1-.462,1.925,3.27,3.27,0,0,1-1.253,1.267A3.53,3.53,0,0,1,88.948,32.168Zm0-1.008a2.231,2.231,0,0,0,1.12-.294,2.193,2.193,0,0,0,.84-.882,3,3,0,0,0,.322-1.456,3.054,3.054,0,0,0-.315-1.456,2.148,2.148,0,0,0-.833-.882,2.205,2.205,0,0,0-1.106-.294,2.231,2.231,0,0,0-1.12.294,2.193,2.193,0,0,0-.84.882,3.453,3.453,0,0,0,0,2.912,2.209,2.209,0,0,0,.833.882A2.167,2.167,0,0,0,88.948,31.16Zm5.124.84V25.056h1.064l.1,1.33a2.517,2.517,0,0,1,.98-1.092,3.038,3.038,0,0,1,1.624-.406V26.12h-.322a2.906,2.906,0,0,0-1.134.217,1.722,1.722,0,0,0-.826.735,2.8,2.8,0,0,0-.308,1.428V32Zm5.082,0V25.056h1.064l.084,1.008a2.352,2.352,0,0,1,.9-.868,2.571,2.571,0,0,1,1.26-.308,2.845,2.845,0,0,1,1.421.336,2.21,2.21,0,0,1,.917,1.022,2.658,2.658,0,0,1,1-.994,2.733,2.733,0,0,1,1.379-.364,2.673,2.673,0,0,1,1.988.749,3.155,3.155,0,0,1,.742,2.3V32h-1.162V28.066a2.574,2.574,0,0,0-.434-1.624,1.5,1.5,0,0,0-1.246-.546,1.751,1.751,0,0,0-1.393.651,2.786,2.786,0,0,0-.553,1.855V32h-1.176V28.066a2.574,2.574,0,0,0-.434-1.624,1.5,1.5,0,0,0-1.246-.546,1.737,1.737,0,0,0-1.379.651,2.786,2.786,0,0,0-.553,1.855V32Z" transform="translate(1117 4927)" fill="#fff"/>
      <path id="correct-2" data-name="correct" d="M9,0a9,9,0,1,0,9,9A8.992,8.992,0,0,0,9,0Zm4.355,7.134L8.025,12.442a.819.819,0,0,1-.581.249.785.785,0,0,1-.581-.249L4.23,9.83A.836.836,0,0,1,5.412,8.647L7.445,10.68l4.728-4.728a.826.826,0,0,1,1.182,0A.865.865,0,0,1,13.355,7.134Z" transform="translate(1165 4904)" fill="#85e6c4"/>
    </g>
    <g id="Group_19037" data-name="Group 19037" transform="translate(-608 35)">
      <path id="Path_24818" data-name="Path 24818" d="M38.373,14.168a4.676,4.676,0,0,1-2.485-.637,4.3,4.3,0,0,1-1.617-1.778A5.83,5.83,0,0,1,33.7,9.1a5.8,5.8,0,0,1,.574-2.639,4.342,4.342,0,0,1,1.617-1.785,4.636,4.636,0,0,1,2.485-.644,4.394,4.394,0,0,1,2.737.805,3.62,3.62,0,0,1,1.351,2.247h-1.3a2.612,2.612,0,0,0-.917-1.463,2.913,2.913,0,0,0-1.869-.553,3.425,3.425,0,0,0-1.834.483,3.173,3.173,0,0,0-1.211,1.386A5.023,5.023,0,0,0,34.9,9.1a5.023,5.023,0,0,0,.427,2.163,3.173,3.173,0,0,0,1.211,1.386,3.425,3.425,0,0,0,1.834.483,2.966,2.966,0,0,0,1.869-.539,2.541,2.541,0,0,0,.917-1.435h1.3A3.575,3.575,0,0,1,41.11,13.37,4.421,4.421,0,0,1,38.373,14.168Zm8.876,0a3.492,3.492,0,0,1-1.764-.448,3.236,3.236,0,0,1-1.239-1.267,3.9,3.9,0,0,1-.455-1.925A3.854,3.854,0,0,1,44.253,8.6a3.27,3.27,0,0,1,1.253-1.267,3.53,3.53,0,0,1,1.771-.448,3.492,3.492,0,0,1,1.764.448A3.236,3.236,0,0,1,50.28,8.6a3.9,3.9,0,0,1,.455,1.925,3.854,3.854,0,0,1-.462,1.925A3.27,3.27,0,0,1,49.02,13.72,3.53,3.53,0,0,1,47.249,14.168Zm0-1.008a2.231,2.231,0,0,0,1.12-.294,2.193,2.193,0,0,0,.84-.882,3,3,0,0,0,.322-1.456,3.054,3.054,0,0,0-.315-1.456,2.148,2.148,0,0,0-.833-.882A2.205,2.205,0,0,0,47.277,7.9a2.231,2.231,0,0,0-1.12.294,2.193,2.193,0,0,0-.84.882A3,3,0,0,0,45,10.528a3,3,0,0,0,.322,1.456,2.209,2.209,0,0,0,.833.882A2.167,2.167,0,0,0,47.249,13.16Zm5.124.84V3.92h1.176V14Zm3.108,0V3.92h1.176V14Zm6.23.168a3.4,3.4,0,0,1-1.764-.455,3.23,3.23,0,0,1-1.211-1.267,3.96,3.96,0,0,1-.441-1.918,4.023,4.023,0,0,1,.434-1.911A3.156,3.156,0,0,1,59.94,7.343a3.494,3.494,0,0,1,1.8-.455,3.245,3.245,0,0,1,1.743.455,3.083,3.083,0,0,1,1.127,1.2,3.366,3.366,0,0,1,.392,1.6q0,.154-.007.308t-.007.35h-5.53a2.729,2.729,0,0,0,.371,1.323,2.184,2.184,0,0,0,1.883,1.057,2.1,2.1,0,0,0,1.218-.336,1.922,1.922,0,0,0,.714-.91h1.162a3.05,3.05,0,0,1-3.094,2.24Zm0-6.286a2.348,2.348,0,0,0-1.491.511,2.059,2.059,0,0,0-.749,1.491h4.368a1.986,1.986,0,0,0-.644-1.47A2.161,2.161,0,0,0,61.711,7.882Zm7.546,3.934a3.582,3.582,0,0,1-1.078-.154l-.7.658a1.41,1.41,0,0,0,.385.189,4.08,4.08,0,0,0,.665.14q.434.063,1.218.133a3.312,3.312,0,0,1,2,.644,1.837,1.837,0,0,1,.6,1.428A2.191,2.191,0,0,1,72.022,16a2.441,2.441,0,0,1-1.008.9,3.8,3.8,0,0,1-1.743.35A5.215,5.215,0,0,1,67.6,17a2.415,2.415,0,0,1-1.134-.742,1.916,1.916,0,0,1-.406-1.253,2.034,2.034,0,0,1,.21-.847,2.264,2.264,0,0,1,.784-.861,2.886,2.886,0,0,1-.525-.273,2.72,2.72,0,0,1-.4-.329v-.322l1.19-1.176A2.3,2.3,0,0,1,66.5,9.352a2.455,2.455,0,0,1,.322-1.246,2.3,2.3,0,0,1,.938-.889,3.144,3.144,0,0,1,1.5-.329,3.352,3.352,0,0,1,1.092.168h2.562v.882l-1.3.056a2.331,2.331,0,0,1,.406,1.358,2.414,2.414,0,0,1-.329,1.246,2.362,2.362,0,0,1-.938.889A3.1,3.1,0,0,1,69.257,11.816Zm0-.966a1.735,1.735,0,0,0,1.183-.385,1.4,1.4,0,0,0,.441-1.113,1.381,1.381,0,0,0-.441-1.1,1.735,1.735,0,0,0-1.183-.385,1.757,1.757,0,0,0-1.2.385,1.381,1.381,0,0,0-.441,1.1,1.4,1.4,0,0,0,.441,1.113A1.757,1.757,0,0,0,69.257,10.85ZM67.213,14.9a1.128,1.128,0,0,0,.588,1.043,2.879,2.879,0,0,0,1.47.343,2.334,2.334,0,0,0,1.393-.378,1.182,1.182,0,0,0,.525-1.008,1.015,1.015,0,0,0-.364-.777,2.242,2.242,0,0,0-1.344-.385q-.77-.056-1.33-.14a1.723,1.723,0,0,0-.756.665A1.434,1.434,0,0,0,67.213,14.9Zm9.87-.728a3.4,3.4,0,0,1-1.764-.455,3.23,3.23,0,0,1-1.211-1.267,3.96,3.96,0,0,1-.441-1.918A4.023,4.023,0,0,1,74.1,8.617a3.156,3.156,0,0,1,1.211-1.274,3.494,3.494,0,0,1,1.8-.455,3.245,3.245,0,0,1,1.743.455,3.083,3.083,0,0,1,1.127,1.2,3.366,3.366,0,0,1,.392,1.6q0,.154-.007.308t-.007.35h-5.53a2.729,2.729,0,0,0,.371,1.323,2.184,2.184,0,0,0,1.883,1.057,2.1,2.1,0,0,0,1.218-.336,1.922,1.922,0,0,0,.714-.91h1.162a3.05,3.05,0,0,1-3.094,2.24Zm0-6.286a2.348,2.348,0,0,0-1.491.511,2.059,2.059,0,0,0-.749,1.491h4.368a1.986,1.986,0,0,0-.644-1.47A2.16,2.16,0,0,0,77.083,7.882ZM7.265,32.168a3.147,3.147,0,0,1-1.442-.294,2,2,0,0,1-.854-.784,2.108,2.108,0,0,1-.28-1.064A1.886,1.886,0,0,1,5.5,28.388a3.77,3.77,0,0,1,2.212-.574H9.589V27.73a1.853,1.853,0,0,0-.476-1.379,1.736,1.736,0,0,0-1.274-.469,2.031,2.031,0,0,0-1.183.343,1.5,1.5,0,0,0-.623,1h-1.2a2.228,2.228,0,0,1,.511-1.274,2.856,2.856,0,0,1,1.1-.791,3.617,3.617,0,0,1,1.4-.273,2.877,2.877,0,0,1,2.191.777,2.882,2.882,0,0,1,.735,2.065V32H9.715l-.07-1.246a2.754,2.754,0,0,1-.861,1A2.526,2.526,0,0,1,7.265,32.168Zm.182-.994a1.915,1.915,0,0,0,1.155-.35,2.234,2.234,0,0,0,.735-.91,2.834,2.834,0,0,0,.252-1.176v-.014H7.811a2.308,2.308,0,0,0-1.463.357,1.113,1.113,0,0,0-.427.889,1.077,1.077,0,0,0,.4.875A1.726,1.726,0,0,0,7.447,31.174Zm5.082,3.906V25.056h1.064l.112,1.148a3.278,3.278,0,0,1,.959-.91,2.858,2.858,0,0,1,1.589-.406,3.365,3.365,0,0,1,1.806.476,3.257,3.257,0,0,1,1.2,1.3,4.025,4.025,0,0,1,.427,1.876,3.983,3.983,0,0,1-.427,1.869,3.2,3.2,0,0,1-1.2,1.288,3.44,3.44,0,0,1-1.813.469,3.212,3.212,0,0,1-1.519-.35,2.421,2.421,0,0,1-1.015-.98V35.08Zm3.584-3.934A2.246,2.246,0,0,0,18.185,29.9a3.21,3.21,0,0,0,0-2.744,2.325,2.325,0,0,0-4.144,0,3.21,3.21,0,0,0,0,2.744,2.246,2.246,0,0,0,2.072,1.246Zm5.208,3.934V25.056h1.064L22.5,26.2a3.278,3.278,0,0,1,.959-.91,2.858,2.858,0,0,1,1.589-.406,3.365,3.365,0,0,1,1.806.476,3.257,3.257,0,0,1,1.2,1.3,4.025,4.025,0,0,1,.427,1.876,3.983,3.983,0,0,1-.427,1.869,3.2,3.2,0,0,1-1.2,1.288,3.44,3.44,0,0,1-1.813.469,3.212,3.212,0,0,1-1.519-.35,2.421,2.421,0,0,1-1.015-.98V35.08Zm3.584-3.934A2.246,2.246,0,0,0,26.977,29.9a3.21,3.21,0,0,0,0-2.744,2.325,2.325,0,0,0-4.144,0,3.21,3.21,0,0,0,0,2.744,2.246,2.246,0,0,0,2.072,1.246ZM30.113,32V21.92h1.176V32Zm3.822-8.484a.79.79,0,0,1-.812-.812.748.748,0,0,1,.231-.56.856.856,0,0,1,1.155,0,.737.737,0,0,1,.238.56.776.776,0,0,1-.238.581A.794.794,0,0,1,33.935,23.516ZM33.347,32V25.056h1.176V32Zm6.412.168a3.515,3.515,0,0,1-1.785-.455,3.271,3.271,0,0,1-1.246-1.274,4.241,4.241,0,0,1,0-3.822,3.271,3.271,0,0,1,1.246-1.274,3.515,3.515,0,0,1,1.785-.455,3.335,3.335,0,0,1,2.079.644,2.806,2.806,0,0,1,1.071,1.722h-1.2a1.543,1.543,0,0,0-.686-1,2.275,2.275,0,0,0-1.274-.357A2.175,2.175,0,0,0,37.8,27.072a3.453,3.453,0,0,0,0,2.912,2.243,2.243,0,0,0,.84.889,2.166,2.166,0,0,0,1.106.3,2.275,2.275,0,0,0,1.274-.357,1.549,1.549,0,0,0,.686-1.015h1.2a2.78,2.78,0,0,1-1.064,1.708A3.316,3.316,0,0,1,39.759,32.168Zm7.1,0a3.147,3.147,0,0,1-1.442-.294,2,2,0,0,1-.854-.784,2.108,2.108,0,0,1-.28-1.064,1.886,1.886,0,0,1,.812-1.638,3.77,3.77,0,0,1,2.212-.574h1.876V27.73a1.853,1.853,0,0,0-.476-1.379,1.736,1.736,0,0,0-1.274-.469,2.031,2.031,0,0,0-1.183.343,1.5,1.5,0,0,0-.623,1h-1.2a2.228,2.228,0,0,1,.511-1.274,2.856,2.856,0,0,1,1.1-.791,3.617,3.617,0,0,1,1.4-.273,2.629,2.629,0,0,1,2.926,2.842V32h-1.05l-.07-1.246a2.754,2.754,0,0,1-.861,1A2.526,2.526,0,0,1,46.857,32.168Zm.182-.994a1.915,1.915,0,0,0,1.155-.35,2.234,2.234,0,0,0,.735-.91,2.834,2.834,0,0,0,.252-1.176v-.014H47.4a2.308,2.308,0,0,0-1.463.357,1.113,1.113,0,0,0-.427.889,1.077,1.077,0,0,0,.4.875A1.726,1.726,0,0,0,47.039,31.174Zm7.63.826a2.247,2.247,0,0,1-1.5-.462,2.1,2.1,0,0,1-.546-1.666V26.05h-1.2v-.994h1.2l.154-1.666H53.8v1.666h2.044v.994H53.8v3.822a1.155,1.155,0,0,0,.266.889,1.45,1.45,0,0,0,.938.231h.728V32Zm3.388-8.484a.79.79,0,0,1-.812-.812.748.748,0,0,1,.231-.56.856.856,0,0,1,1.155,0,.737.737,0,0,1,.238.56.776.776,0,0,1-.238.581A.794.794,0,0,1,58.057,23.516ZM57.469,32V25.056h1.176V32Zm6.384.168a3.492,3.492,0,0,1-1.764-.448,3.236,3.236,0,0,1-1.239-1.267,3.9,3.9,0,0,1-.455-1.925,3.854,3.854,0,0,1,.462-1.925,3.27,3.27,0,0,1,1.253-1.267,3.53,3.53,0,0,1,1.771-.448,3.492,3.492,0,0,1,1.764.448A3.236,3.236,0,0,1,66.884,26.6a3.9,3.9,0,0,1,.455,1.925,3.854,3.854,0,0,1-.462,1.925,3.27,3.27,0,0,1-1.253,1.267A3.53,3.53,0,0,1,63.853,32.168Zm0-1.008a2.231,2.231,0,0,0,1.12-.294,2.193,2.193,0,0,0,.84-.882,3,3,0,0,0,.322-1.456,3.054,3.054,0,0,0-.315-1.456,2.148,2.148,0,0,0-.833-.882,2.205,2.205,0,0,0-1.106-.294,2.231,2.231,0,0,0-1.12.294,2.193,2.193,0,0,0-.84.882,3.453,3.453,0,0,0,0,2.912,2.209,2.209,0,0,0,.833.882A2.167,2.167,0,0,0,63.853,31.16Zm5.124.84V25.056h1.064l.07,1.246a2.522,2.522,0,0,1,.966-1.036,2.721,2.721,0,0,1,1.428-.378,2.631,2.631,0,0,1,1.967.749,3.174,3.174,0,0,1,.735,2.3V32H74.031V28.066q0-2.17-1.792-2.17a1.935,1.935,0,0,0-1.491.651,2.653,2.653,0,0,0-.6,1.855V32Zm12.1,0V26.05h-1.05v-.994h1.05v-1.2a1.907,1.907,0,0,1,.5-1.47,2.1,2.1,0,0,1,1.47-.462h.7v1.008h-.518a1.068,1.068,0,0,0-.756.217,1,1,0,0,0-.224.735v1.176h1.708v.994H82.249V32Zm7.168.168a3.492,3.492,0,0,1-1.764-.448,3.236,3.236,0,0,1-1.239-1.267,3.9,3.9,0,0,1-.455-1.925,3.854,3.854,0,0,1,.462-1.925A3.27,3.27,0,0,1,86.5,25.336a3.53,3.53,0,0,1,1.771-.448,3.492,3.492,0,0,1,1.764.448A3.236,3.236,0,0,1,91.272,26.6a3.9,3.9,0,0,1,.455,1.925,3.854,3.854,0,0,1-.462,1.925,3.27,3.27,0,0,1-1.253,1.267A3.53,3.53,0,0,1,88.241,32.168Zm0-1.008a2.231,2.231,0,0,0,1.12-.294,2.193,2.193,0,0,0,.84-.882,3,3,0,0,0,.322-1.456,3.054,3.054,0,0,0-.315-1.456,2.148,2.148,0,0,0-.833-.882,2.205,2.205,0,0,0-1.106-.294,2.231,2.231,0,0,0-1.12.294,2.193,2.193,0,0,0-.84.882,3.453,3.453,0,0,0,0,2.912,2.209,2.209,0,0,0,.833.882A2.167,2.167,0,0,0,88.241,31.16Zm5.124.84V25.056h1.064l.1,1.33a2.517,2.517,0,0,1,.98-1.092,3.038,3.038,0,0,1,1.624-.406V26.12h-.322a2.906,2.906,0,0,0-1.134.217,1.722,1.722,0,0,0-.826.735,2.8,2.8,0,0,0-.308,1.428V32Zm5.082,0V25.056h1.064l.084,1.008a2.352,2.352,0,0,1,.9-.868,2.571,2.571,0,0,1,1.26-.308,2.845,2.845,0,0,1,1.421.336,2.21,2.21,0,0,1,.917,1.022,2.658,2.658,0,0,1,1-.994,2.733,2.733,0,0,1,1.379-.364,2.673,2.673,0,0,1,1.988.749,3.155,3.155,0,0,1,.742,2.3V32h-1.162V28.066a2.574,2.574,0,0,0-.434-1.624,1.5,1.5,0,0,0-1.246-.546,1.751,1.751,0,0,0-1.393.651,2.786,2.786,0,0,0-.553,1.855V32h-1.176V28.066a2.574,2.574,0,0,0-.434-1.624,1.5,1.5,0,0,0-1.246-.546,1.737,1.737,0,0,0-1.379.651,2.786,2.786,0,0,0-.553,1.855V32Z" transform="translate(753 5115)" fill="#fff"/>
      <path id="correct-3" data-name="correct" d="M9,0a9,9,0,1,0,9,9A8.992,8.992,0,0,0,9,0Zm4.355,7.134L8.025,12.442a.819.819,0,0,1-.581.249.785.785,0,0,1-.581-.249L4.23,9.83A.836.836,0,0,1,5.412,8.647L7.445,10.68l4.728-4.728a.826.826,0,0,1,1.182,0A.865.865,0,0,1,13.355,7.134Z" transform="translate(801 5092)" fill="#85e6c4"/>
    </g>
    <g id="Group_19035" data-name="Group 19035" transform="translate(-628 35)">
      <path id="Path_24823" data-name="Path 24823" d="M12.536,14.168a4.209,4.209,0,0,1-1.876-.392,2.929,2.929,0,0,1-1.232-1.092,3.018,3.018,0,0,1-.434-1.624h1.232a2.155,2.155,0,0,0,.266,1.057,1.958,1.958,0,0,0,.777.77,2.557,2.557,0,0,0,1.267.287,2.27,2.27,0,0,0,1.54-.476,1.514,1.514,0,0,0,.546-1.19,1.606,1.606,0,0,0-.252-.945,1.884,1.884,0,0,0-.679-.581,5.639,5.639,0,0,0-.98-.392q-.553-.168-1.155-.378a4.124,4.124,0,0,1-1.68-.973A2.128,2.128,0,0,1,9.33,6.72a2.5,2.5,0,0,1,.364-1.393,2.566,2.566,0,0,1,1.071-.952,3.671,3.671,0,0,1,1.645-.343,3.575,3.575,0,0,1,1.631.35,2.645,2.645,0,0,1,1.078.966,2.68,2.68,0,0,1,.4,1.4H14.286a1.713,1.713,0,0,0-.21-.805,1.639,1.639,0,0,0-.637-.651,2.079,2.079,0,0,0-1.071-.252,1.938,1.938,0,0,0-1.309.406,1.422,1.422,0,0,0-.511,1.162,1.263,1.263,0,0,0,.357.966,2.7,2.7,0,0,0,1,.553l1.484.5a7.153,7.153,0,0,1,1.26.588,2.475,2.475,0,0,1,.875.868,2.635,2.635,0,0,1,.315,1.358,2.581,2.581,0,0,1-.364,1.323,2.7,2.7,0,0,1-1.1,1.015A3.882,3.882,0,0,1,12.536,14.168ZM20.18,14a2.247,2.247,0,0,1-1.5-.462,2.1,2.1,0,0,1-.546-1.666V8.05h-1.2V7.056h1.2L18.29,5.39h1.022V7.056h2.044V8.05H19.312v3.822a1.155,1.155,0,0,0,.266.889,1.45,1.45,0,0,0,.938.231h.728V14Zm5.208.168a2.607,2.607,0,0,1-1.96-.749,3.194,3.194,0,0,1-.728-2.3V7.056h1.176V10.99q0,2.17,1.778,2.17a1.951,1.951,0,0,0,1.5-.651,2.653,2.653,0,0,0,.595-1.855v-3.6H28.93V14H27.866l-.084-1.246a2.418,2.418,0,0,1-.959,1.036A2.758,2.758,0,0,1,25.388,14.168Zm8.624,0a3.4,3.4,0,0,1-1.813-.476,3.241,3.241,0,0,1-1.2-1.3,4.026,4.026,0,0,1-.427-1.876A3.931,3.931,0,0,1,31,8.645a3.269,3.269,0,0,1,1.2-1.288,3.43,3.43,0,0,1,1.82-.469,3.171,3.171,0,0,1,1.512.35,2.522,2.522,0,0,1,1.022.98V3.92h1.176V14H36.672l-.112-1.148a3.251,3.251,0,0,1-.966.91A2.866,2.866,0,0,1,34.012,14.168Zm.126-1.022a2.33,2.33,0,0,0,1.239-.329,2.25,2.25,0,0,0,.84-.917,2.972,2.972,0,0,0,.3-1.372,2.972,2.972,0,0,0-.3-1.372,2.25,2.25,0,0,0-.84-.917,2.33,2.33,0,0,0-1.239-.329,2.3,2.3,0,0,0-1.225.329,2.25,2.25,0,0,0-.84.917,2.972,2.972,0,0,0-.3,1.372,2.972,2.972,0,0,0,.3,1.372,2.25,2.25,0,0,0,.84.917A2.3,2.3,0,0,0,34.138,13.146Zm8.638,1.022a3.4,3.4,0,0,1-1.764-.455A3.23,3.23,0,0,1,39.8,12.446a3.96,3.96,0,0,1-.441-1.918,4.023,4.023,0,0,1,.434-1.911A3.156,3.156,0,0,1,41,7.343a3.494,3.494,0,0,1,1.8-.455,3.245,3.245,0,0,1,1.743.455,3.083,3.083,0,0,1,1.127,1.2,3.366,3.366,0,0,1,.392,1.6q0,.154-.007.308t-.007.35h-5.53a2.729,2.729,0,0,0,.371,1.323,2.184,2.184,0,0,0,1.883,1.057,2.1,2.1,0,0,0,1.218-.336,1.922,1.922,0,0,0,.714-.91H45.87a3.05,3.05,0,0,1-3.094,2.24Zm0-6.286a2.348,2.348,0,0,0-1.491.511,2.059,2.059,0,0,0-.749,1.491H44.9a1.986,1.986,0,0,0-.644-1.47A2.161,2.161,0,0,0,42.776,7.882ZM47.62,14V7.056h1.064l.07,1.246a2.522,2.522,0,0,1,.966-1.036,2.721,2.721,0,0,1,1.428-.378,2.631,2.631,0,0,1,1.967.749,3.174,3.174,0,0,1,.735,2.3V14H52.674V10.066q0-2.17-1.792-2.17a1.935,1.935,0,0,0-1.491.651,2.653,2.653,0,0,0-.6,1.855V14Zm10.752,0a2.247,2.247,0,0,1-1.5-.462,2.1,2.1,0,0,1-.546-1.666V8.05h-1.2V7.056h1.2l.154-1.666H57.5V7.056h2.044V8.05H57.5v3.822a1.155,1.155,0,0,0,.266.889,1.45,1.45,0,0,0,.938.231h.728V14ZM67.5,14a2.247,2.247,0,0,1-1.5-.462,2.1,2.1,0,0,1-.546-1.666V8.05h-1.2V7.056h1.2L65.61,5.39h1.022V7.056h2.044V8.05H66.632v3.822a1.155,1.155,0,0,0,.266.889,1.45,1.45,0,0,0,.938.231h.728V14Zm5.208.168a2.607,2.607,0,0,1-1.96-.749,3.194,3.194,0,0,1-.728-2.3V7.056H71.2V10.99q0,2.17,1.778,2.17a1.951,1.951,0,0,0,1.505-.651,2.653,2.653,0,0,0,.595-1.855v-3.6H76.25V14H75.186L75.1,12.754a2.418,2.418,0,0,1-.959,1.036A2.758,2.758,0,0,1,72.708,14.168ZM78.9,5.516a.79.79,0,0,1-.812-.812.748.748,0,0,1,.231-.56.856.856,0,0,1,1.155,0,.737.737,0,0,1,.238.56.776.776,0,0,1-.238.581A.794.794,0,0,1,78.9,5.516ZM78.308,14V7.056h1.176V14Zm5.964,0a2.247,2.247,0,0,1-1.5-.462,2.1,2.1,0,0,1-.546-1.666V8.05h-1.2V7.056h1.2l.154-1.666H83.4V7.056h2.044V8.05H83.4v3.822a1.155,1.155,0,0,0,.266.889,1.45,1.45,0,0,0,.938.231h.728V14ZM87.66,5.516a.79.79,0,0,1-.812-.812.748.748,0,0,1,.231-.56.856.856,0,0,1,1.155,0,.737.737,0,0,1,.238.56.776.776,0,0,1-.238.581A.794.794,0,0,1,87.66,5.516ZM87.072,14V7.056h1.176V14Zm6.384.168a3.492,3.492,0,0,1-1.764-.448,3.236,3.236,0,0,1-1.239-1.267A3.9,3.9,0,0,1,90,10.528,3.854,3.854,0,0,1,90.46,8.6a3.27,3.27,0,0,1,1.253-1.267,3.53,3.53,0,0,1,1.771-.448,3.492,3.492,0,0,1,1.764.448A3.236,3.236,0,0,1,96.487,8.6a3.9,3.9,0,0,1,.455,1.925,3.854,3.854,0,0,1-.462,1.925,3.27,3.27,0,0,1-1.253,1.267A3.53,3.53,0,0,1,93.456,14.168Zm0-1.008a2.231,2.231,0,0,0,1.12-.294,2.193,2.193,0,0,0,.84-.882,3,3,0,0,0,.322-1.456,3.054,3.054,0,0,0-.315-1.456,2.148,2.148,0,0,0-.833-.882A2.205,2.205,0,0,0,93.484,7.9a2.231,2.231,0,0,0-1.12.294,2.193,2.193,0,0,0-.84.882,3,3,0,0,0-.322,1.456,3,3,0,0,0,.322,1.456,2.209,2.209,0,0,0,.833.882A2.167,2.167,0,0,0,93.456,13.16ZM98.58,14V7.056h1.064l.07,1.246a2.522,2.522,0,0,1,.966-1.036,2.721,2.721,0,0,1,1.428-.378,2.631,2.631,0,0,1,1.967.749,3.174,3.174,0,0,1,.735,2.3V14h-1.176V10.066q0-2.17-1.792-2.17a1.935,1.935,0,0,0-1.491.651,2.653,2.653,0,0,0-.6,1.855V14ZM4.248,32V25.056H5.312l.1,1.33a2.517,2.517,0,0,1,.98-1.092,3.038,3.038,0,0,1,1.624-.406V26.12H7.692a2.906,2.906,0,0,0-1.134.217,1.722,1.722,0,0,0-.826.735A2.8,2.8,0,0,0,5.424,28.5V32Zm7.938.168a3.4,3.4,0,0,1-1.764-.455,3.23,3.23,0,0,1-1.211-1.267,3.96,3.96,0,0,1-.441-1.918A4.023,4.023,0,0,1,9.2,26.617a3.156,3.156,0,0,1,1.211-1.274,3.494,3.494,0,0,1,1.8-.455,3.245,3.245,0,0,1,1.743.455,3.083,3.083,0,0,1,1.127,1.2,3.366,3.366,0,0,1,.392,1.6q0,.154-.007.308t-.007.35H9.932a2.729,2.729,0,0,0,.371,1.323,2.184,2.184,0,0,0,1.883,1.057,2.1,2.1,0,0,0,1.218-.336,1.922,1.922,0,0,0,.714-.91H15.28a3.05,3.05,0,0,1-3.094,2.24Zm0-6.286a2.348,2.348,0,0,0-1.491.511,2.059,2.059,0,0,0-.749,1.491h4.368a1.986,1.986,0,0,0-.644-1.47A2.161,2.161,0,0,0,12.186,25.882Zm7.546,3.934a3.582,3.582,0,0,1-1.078-.154l-.7.658a1.41,1.41,0,0,0,.385.189,4.08,4.08,0,0,0,.665.14q.434.063,1.218.133a3.312,3.312,0,0,1,2,.644,1.837,1.837,0,0,1,.6,1.428A2.191,2.191,0,0,1,22.5,34a2.441,2.441,0,0,1-1.008.9,3.8,3.8,0,0,1-1.743.35A5.215,5.215,0,0,1,18.08,35a2.415,2.415,0,0,1-1.134-.742,1.916,1.916,0,0,1-.406-1.253,2.034,2.034,0,0,1,.21-.847,2.264,2.264,0,0,1,.784-.861,2.886,2.886,0,0,1-.525-.273,2.72,2.72,0,0,1-.4-.329v-.322L17.8,29.2a2.3,2.3,0,0,1-.826-1.848,2.455,2.455,0,0,1,.322-1.246,2.3,2.3,0,0,1,.938-.889,3.144,3.144,0,0,1,1.5-.329,3.352,3.352,0,0,1,1.092.168h2.562v.882l-1.3.056a2.331,2.331,0,0,1,.406,1.358,2.414,2.414,0,0,1-.329,1.246,2.362,2.362,0,0,1-.938.889A3.1,3.1,0,0,1,19.732,29.816Zm0-.966a1.735,1.735,0,0,0,1.183-.385,1.4,1.4,0,0,0,.441-1.113,1.381,1.381,0,0,0-.441-1.1,1.735,1.735,0,0,0-1.183-.385,1.757,1.757,0,0,0-1.2.385,1.381,1.381,0,0,0-.441,1.1,1.4,1.4,0,0,0,.441,1.113A1.757,1.757,0,0,0,19.732,28.85ZM17.688,32.9a1.128,1.128,0,0,0,.588,1.043,2.879,2.879,0,0,0,1.47.343,2.334,2.334,0,0,0,1.393-.378,1.182,1.182,0,0,0,.525-1.008,1.015,1.015,0,0,0-.364-.777,2.242,2.242,0,0,0-1.344-.385q-.77-.056-1.33-.14a1.723,1.723,0,0,0-.756.665A1.434,1.434,0,0,0,17.688,32.9Zm7.742-9.38a.79.79,0,0,1-.812-.812.748.748,0,0,1,.231-.56.856.856,0,0,1,1.155,0,.737.737,0,0,1,.238.56.776.776,0,0,1-.238.581A.794.794,0,0,1,25.43,23.516ZM24.842,32V25.056h1.176V32Zm5.88.168a3.318,3.318,0,0,1-2.072-.63,2.456,2.456,0,0,1-.966-1.708h1.2a1.661,1.661,0,0,0,.581.945,1.891,1.891,0,0,0,1.267.4,1.6,1.6,0,0,0,1.092-.315.975.975,0,0,0,.35-.749.831.831,0,0,0-.455-.84,6.056,6.056,0,0,0-1.281-.378,7.22,7.22,0,0,1-1.12-.322,2.544,2.544,0,0,1-.938-.595,1.386,1.386,0,0,1-.378-1.015,1.873,1.873,0,0,1,.679-1.491,2.738,2.738,0,0,1,1.841-.581,2.855,2.855,0,0,1,1.813.553,2.207,2.207,0,0,1,.819,1.575H32a1.211,1.211,0,0,0-.455-.833,1.626,1.626,0,0,0-1.029-.3,1.557,1.557,0,0,0-.973.266.843.843,0,0,0-.343.7.727.727,0,0,0,.441.658,4.735,4.735,0,0,0,1.2.406,10.427,10.427,0,0,1,1.225.343,2.315,2.315,0,0,1,.952.6,1.636,1.636,0,0,1,.371,1.155,1.9,1.9,0,0,1-.707,1.547A2.929,2.929,0,0,1,30.722,32.168ZM37.5,32a2.247,2.247,0,0,1-1.5-.462,2.1,2.1,0,0,1-.546-1.666V26.05h-1.2v-.994h1.2l.154-1.666H36.63v1.666h2.044v.994H36.63v3.822a1.155,1.155,0,0,0,.266.889,1.45,1.45,0,0,0,.938.231h.728V32Zm2.674,0V25.056h1.064l.1,1.33a2.517,2.517,0,0,1,.98-1.092,3.038,3.038,0,0,1,1.624-.406V26.12h-.322a2.906,2.906,0,0,0-1.134.217,1.722,1.722,0,0,0-.826.735,2.8,2.8,0,0,0-.308,1.428V32Zm7.392.168a3.147,3.147,0,0,1-1.442-.294,2,2,0,0,1-.854-.784,2.108,2.108,0,0,1-.28-1.064,1.886,1.886,0,0,1,.812-1.638,3.77,3.77,0,0,1,2.212-.574h1.876V27.73a1.853,1.853,0,0,0-.476-1.379,1.736,1.736,0,0,0-1.274-.469,2.031,2.031,0,0,0-1.183.343,1.5,1.5,0,0,0-.623,1h-1.2a2.228,2.228,0,0,1,.511-1.274,2.856,2.856,0,0,1,1.1-.791,3.617,3.617,0,0,1,1.4-.273,2.629,2.629,0,0,1,2.926,2.842V32h-1.05l-.07-1.246a2.754,2.754,0,0,1-.861,1A2.526,2.526,0,0,1,47.564,32.168Zm.182-.994a1.915,1.915,0,0,0,1.155-.35,2.234,2.234,0,0,0,.735-.91,2.834,2.834,0,0,0,.252-1.176v-.014H48.11a2.308,2.308,0,0,0-1.463.357,1.113,1.113,0,0,0-.427.889,1.077,1.077,0,0,0,.4.875A1.726,1.726,0,0,0,47.746,31.174Zm7.63.826a2.247,2.247,0,0,1-1.5-.462,2.1,2.1,0,0,1-.546-1.666V26.05h-1.2v-.994h1.2l.154-1.666h1.022v1.666h2.044v.994H54.508v3.822a1.155,1.155,0,0,0,.266.889,1.45,1.45,0,0,0,.938.231h.728V32Zm3.388-8.484a.79.79,0,0,1-.812-.812.748.748,0,0,1,.231-.56.856.856,0,0,1,1.155,0,.737.737,0,0,1,.238.56.776.776,0,0,1-.238.581A.794.794,0,0,1,58.764,23.516ZM58.176,32V25.056h1.176V32Zm6.384.168A3.492,3.492,0,0,1,62.8,31.72a3.236,3.236,0,0,1-1.239-1.267,3.9,3.9,0,0,1-.455-1.925,3.854,3.854,0,0,1,.462-1.925,3.27,3.27,0,0,1,1.253-1.267,3.53,3.53,0,0,1,1.771-.448,3.492,3.492,0,0,1,1.764.448A3.236,3.236,0,0,1,67.591,26.6a3.9,3.9,0,0,1,.455,1.925,3.854,3.854,0,0,1-.462,1.925,3.27,3.27,0,0,1-1.253,1.267A3.53,3.53,0,0,1,64.56,32.168Zm0-1.008a2.231,2.231,0,0,0,1.12-.294,2.193,2.193,0,0,0,.84-.882,3,3,0,0,0,.322-1.456,3.054,3.054,0,0,0-.315-1.456,2.148,2.148,0,0,0-.833-.882,2.205,2.205,0,0,0-1.106-.294,2.231,2.231,0,0,0-1.12.294,2.193,2.193,0,0,0-.84.882,3.453,3.453,0,0,0,0,2.912,2.209,2.209,0,0,0,.833.882A2.167,2.167,0,0,0,64.56,31.16Zm5.124.84V25.056h1.064l.07,1.246a2.522,2.522,0,0,1,.966-1.036,2.721,2.721,0,0,1,1.428-.378,2.631,2.631,0,0,1,1.967.749,3.174,3.174,0,0,1,.735,2.3V32H74.738V28.066q0-2.17-1.792-2.17a1.935,1.935,0,0,0-1.491.651,2.653,2.653,0,0,0-.6,1.855V32Zm12.1,0V26.05H80.73v-.994h1.05v-1.2a1.907,1.907,0,0,1,.5-1.47,2.1,2.1,0,0,1,1.47-.462h.7v1.008h-.518a1.068,1.068,0,0,0-.756.217,1,1,0,0,0-.224.735v1.176h1.708v.994H82.956V32Zm7.168.168a3.492,3.492,0,0,1-1.764-.448,3.236,3.236,0,0,1-1.239-1.267,3.9,3.9,0,0,1-.455-1.925,3.854,3.854,0,0,1,.462-1.925,3.27,3.27,0,0,1,1.253-1.267,3.53,3.53,0,0,1,1.771-.448,3.492,3.492,0,0,1,1.764.448A3.236,3.236,0,0,1,91.979,26.6a3.9,3.9,0,0,1,.455,1.925,3.854,3.854,0,0,1-.462,1.925,3.27,3.27,0,0,1-1.253,1.267A3.53,3.53,0,0,1,88.948,32.168Zm0-1.008a2.231,2.231,0,0,0,1.12-.294,2.193,2.193,0,0,0,.84-.882,3,3,0,0,0,.322-1.456,3.054,3.054,0,0,0-.315-1.456,2.148,2.148,0,0,0-.833-.882,2.205,2.205,0,0,0-1.106-.294,2.231,2.231,0,0,0-1.12.294,2.193,2.193,0,0,0-.84.882,3.453,3.453,0,0,0,0,2.912,2.209,2.209,0,0,0,.833.882A2.167,2.167,0,0,0,88.948,31.16Zm5.124.84V25.056h1.064l.1,1.33a2.517,2.517,0,0,1,.98-1.092,3.038,3.038,0,0,1,1.624-.406V26.12h-.322a2.906,2.906,0,0,0-1.134.217,1.722,1.722,0,0,0-.826.735,2.8,2.8,0,0,0-.308,1.428V32Zm5.082,0V25.056h1.064l.084,1.008a2.352,2.352,0,0,1,.9-.868,2.571,2.571,0,0,1,1.26-.308,2.845,2.845,0,0,1,1.421.336,2.21,2.21,0,0,1,.917,1.022,2.658,2.658,0,0,1,1-.994,2.733,2.733,0,0,1,1.379-.364,2.673,2.673,0,0,1,1.988.749,3.155,3.155,0,0,1,.742,2.3V32h-1.162V28.066a2.574,2.574,0,0,0-.434-1.624,1.5,1.5,0,0,0-1.246-.546,1.751,1.751,0,0,0-1.393.651,2.786,2.786,0,0,0-.553,1.855V32h-1.176V28.066a2.574,2.574,0,0,0-.434-1.624,1.5,1.5,0,0,0-1.246-.546,1.737,1.737,0,0,0-1.379.651,2.786,2.786,0,0,0-.553,1.855V32Z" transform="translate(1117 5115)" fill="#fff"/>
      <path id="correct-4" data-name="correct" d="M9,0a9,9,0,1,0,9,9A8.992,8.992,0,0,0,9,0Zm4.355,7.134L8.025,12.442a.819.819,0,0,1-.581.249.785.785,0,0,1-.581-.249L4.23,9.83A.836.836,0,0,1,5.412,8.647L7.445,10.68l4.728-4.728a.826.826,0,0,1,1.182,0A.865.865,0,0,1,13.355,7.134Z" transform="translate(1165 5092)" fill="#85e6c4"/>
    </g>
    <g id="Group_19039" data-name="Group 19039" transform="translate(-618)">
      <path id="Path_24821" data-name="Path 24821" d="M29.507,14.168a4.676,4.676,0,0,1-2.485-.637,4.3,4.3,0,0,1-1.617-1.778A5.83,5.83,0,0,1,24.831,9.1a5.8,5.8,0,0,1,.574-2.639,4.342,4.342,0,0,1,1.617-1.785,4.636,4.636,0,0,1,2.485-.644,4.394,4.394,0,0,1,2.737.805A3.62,3.62,0,0,1,33.6,7.084h-1.3a2.612,2.612,0,0,0-.917-1.463,2.913,2.913,0,0,0-1.869-.553,3.425,3.425,0,0,0-1.834.483,3.173,3.173,0,0,0-1.211,1.386A5.023,5.023,0,0,0,26.035,9.1a5.023,5.023,0,0,0,.427,2.163,3.173,3.173,0,0,0,1.211,1.386,3.425,3.425,0,0,0,1.834.483,2.966,2.966,0,0,0,1.869-.539,2.541,2.541,0,0,0,.917-1.435h1.3a3.575,3.575,0,0,1-1.351,2.212A4.421,4.421,0,0,1,29.507,14.168Zm8.876,0a3.492,3.492,0,0,1-1.764-.448,3.236,3.236,0,0,1-1.239-1.267,3.9,3.9,0,0,1-.455-1.925A3.854,3.854,0,0,1,35.387,8.6,3.27,3.27,0,0,1,36.64,7.336a3.53,3.53,0,0,1,1.771-.448,3.492,3.492,0,0,1,1.764.448A3.236,3.236,0,0,1,41.414,8.6a3.9,3.9,0,0,1,.455,1.925,3.854,3.854,0,0,1-.462,1.925,3.27,3.27,0,0,1-1.253,1.267A3.53,3.53,0,0,1,38.383,14.168Zm0-1.008a2.231,2.231,0,0,0,1.12-.294,2.193,2.193,0,0,0,.84-.882,3,3,0,0,0,.322-1.456,3.054,3.054,0,0,0-.315-1.456,2.148,2.148,0,0,0-.833-.882A2.205,2.205,0,0,0,38.411,7.9a2.231,2.231,0,0,0-1.12.294,2.193,2.193,0,0,0-.84.882,3,3,0,0,0-.322,1.456,3,3,0,0,0,.322,1.456,2.209,2.209,0,0,0,.833.882A2.167,2.167,0,0,0,38.383,13.16Zm5.124.84V3.92h1.176V14Zm3.108,0V3.92h1.176V14Zm6.23.168a3.4,3.4,0,0,1-1.764-.455,3.23,3.23,0,0,1-1.211-1.267,3.96,3.96,0,0,1-.441-1.918,4.023,4.023,0,0,1,.434-1.911,3.156,3.156,0,0,1,1.211-1.274,3.494,3.494,0,0,1,1.8-.455,3.245,3.245,0,0,1,1.743.455,3.083,3.083,0,0,1,1.127,1.2,3.366,3.366,0,0,1,.392,1.6q0,.154-.007.308t-.007.35h-5.53a2.729,2.729,0,0,0,.371,1.323,2.184,2.184,0,0,0,1.883,1.057,2.1,2.1,0,0,0,1.218-.336,1.922,1.922,0,0,0,.714-.91h1.162a3.05,3.05,0,0,1-3.094,2.24Zm0-6.286a2.348,2.348,0,0,0-1.491.511A2.059,2.059,0,0,0,50.6,9.884h4.368a1.986,1.986,0,0,0-.644-1.47A2.161,2.161,0,0,0,52.845,7.882Zm7.546,3.934a3.582,3.582,0,0,1-1.078-.154l-.7.658a1.41,1.41,0,0,0,.385.189,4.08,4.08,0,0,0,.665.14q.434.063,1.218.133a3.312,3.312,0,0,1,2,.644,1.837,1.837,0,0,1,.6,1.428A2.191,2.191,0,0,1,63.156,16a2.441,2.441,0,0,1-1.008.9,3.8,3.8,0,0,1-1.743.35A5.215,5.215,0,0,1,58.739,17a2.415,2.415,0,0,1-1.134-.742,1.916,1.916,0,0,1-.406-1.253,2.034,2.034,0,0,1,.21-.847,2.264,2.264,0,0,1,.784-.861,2.886,2.886,0,0,1-.525-.273,2.72,2.72,0,0,1-.4-.329v-.322l1.19-1.176a2.3,2.3,0,0,1-.826-1.848,2.455,2.455,0,0,1,.322-1.246,2.3,2.3,0,0,1,.938-.889,3.144,3.144,0,0,1,1.5-.329,3.352,3.352,0,0,1,1.092.168h2.562v.882l-1.3.056a2.331,2.331,0,0,1,.406,1.358A2.414,2.414,0,0,1,62.82,10.6a2.362,2.362,0,0,1-.938.889A3.1,3.1,0,0,1,60.391,11.816Zm0-.966a1.735,1.735,0,0,0,1.183-.385,1.4,1.4,0,0,0,.441-1.113,1.381,1.381,0,0,0-.441-1.1,1.735,1.735,0,0,0-1.183-.385,1.757,1.757,0,0,0-1.2.385,1.381,1.381,0,0,0-.441,1.1,1.4,1.4,0,0,0,.441,1.113A1.757,1.757,0,0,0,60.391,10.85ZM58.347,14.9a1.128,1.128,0,0,0,.588,1.043,2.879,2.879,0,0,0,1.47.343A2.334,2.334,0,0,0,61.8,15.9a1.182,1.182,0,0,0,.525-1.008,1.015,1.015,0,0,0-.364-.777,2.242,2.242,0,0,0-1.344-.385q-.77-.056-1.33-.14a1.723,1.723,0,0,0-.756.665A1.433,1.433,0,0,0,58.347,14.9Zm9.87-.728a3.4,3.4,0,0,1-1.764-.455,3.23,3.23,0,0,1-1.211-1.267,3.96,3.96,0,0,1-.441-1.918,4.023,4.023,0,0,1,.434-1.911,3.156,3.156,0,0,1,1.211-1.274,3.494,3.494,0,0,1,1.8-.455,3.245,3.245,0,0,1,1.743.455,3.083,3.083,0,0,1,1.127,1.2,3.366,3.366,0,0,1,.392,1.6q0,.154-.007.308t-.007.35h-5.53a2.729,2.729,0,0,0,.371,1.323,2.184,2.184,0,0,0,1.883,1.057,2.1,2.1,0,0,0,1.218-.336,1.922,1.922,0,0,0,.714-.91h1.162a3.05,3.05,0,0,1-3.094,2.24Zm0-6.286a2.348,2.348,0,0,0-1.491.511,2.059,2.059,0,0,0-.749,1.491h4.368a1.986,1.986,0,0,0-.644-1.47A2.16,2.16,0,0,0,68.217,7.882Zm11.676,6.286a3.4,3.4,0,0,1-1.764-.455,3.23,3.23,0,0,1-1.211-1.267,3.96,3.96,0,0,1-.441-1.918,4.023,4.023,0,0,1,.434-1.911,3.156,3.156,0,0,1,1.211-1.274,3.494,3.494,0,0,1,1.8-.455,3.245,3.245,0,0,1,1.743.455,3.083,3.083,0,0,1,1.127,1.2,3.366,3.366,0,0,1,.392,1.6q0,.154-.007.308t-.007.35h-5.53a2.729,2.729,0,0,0,.371,1.323,2.184,2.184,0,0,0,1.883,1.057,2.1,2.1,0,0,0,1.218-.336,1.922,1.922,0,0,0,.714-.91h1.162a3.05,3.05,0,0,1-3.094,2.24Zm0-6.286a2.348,2.348,0,0,0-1.491.511,2.059,2.059,0,0,0-.749,1.491h4.368a1.986,1.986,0,0,0-.644-1.47A2.16,2.16,0,0,0,79.893,7.882ZM86.459,14,83.827,7.056h1.232l2.086,5.81,2.1-5.81h1.2L87.817,14Zm8.064.168a3.4,3.4,0,0,1-1.764-.455,3.23,3.23,0,0,1-1.211-1.267,3.96,3.96,0,0,1-.441-1.918,4.023,4.023,0,0,1,.434-1.911,3.156,3.156,0,0,1,1.211-1.274,3.494,3.494,0,0,1,1.8-.455,3.245,3.245,0,0,1,1.743.455,3.083,3.083,0,0,1,1.127,1.2,3.366,3.366,0,0,1,.392,1.6q0,.154-.007.308t-.007.35h-5.53a2.729,2.729,0,0,0,.371,1.323,2.184,2.184,0,0,0,1.883,1.057,2.1,2.1,0,0,0,1.218-.336,1.922,1.922,0,0,0,.714-.91h1.162a3.05,3.05,0,0,1-3.094,2.24Zm0-6.286a2.348,2.348,0,0,0-1.491.511,2.059,2.059,0,0,0-.749,1.491h4.368a1.986,1.986,0,0,0-.644-1.47A2.16,2.16,0,0,0,94.523,7.882ZM99.367,14V7.056h1.064L100.5,8.3a2.522,2.522,0,0,1,.966-1.036,2.721,2.721,0,0,1,1.428-.378,2.631,2.631,0,0,1,1.967.749,3.174,3.174,0,0,1,.735,2.3V14h-1.176V10.066q0-2.17-1.792-2.17a1.935,1.935,0,0,0-1.491.651,2.653,2.653,0,0,0-.6,1.855V14Zm10.752,0a2.247,2.247,0,0,1-1.5-.462,2.1,2.1,0,0,1-.546-1.666V8.05h-1.2V7.056h1.2l.154-1.666h1.022V7.056h2.044V8.05h-2.044v3.822a1.155,1.155,0,0,0,.266.889,1.45,1.45,0,0,0,.938.231h.728V14ZM15.248,32V25.056h1.064l.1,1.33a2.517,2.517,0,0,1,.98-1.092,3.038,3.038,0,0,1,1.624-.406V26.12h-.322a2.906,2.906,0,0,0-1.134.217,1.722,1.722,0,0,0-.826.735,2.8,2.8,0,0,0-.308,1.428V32Zm7.938.168a3.4,3.4,0,0,1-1.764-.455,3.23,3.23,0,0,1-1.211-1.267,3.96,3.96,0,0,1-.441-1.918,4.023,4.023,0,0,1,.434-1.911,3.156,3.156,0,0,1,1.211-1.274,3.494,3.494,0,0,1,1.8-.455,3.245,3.245,0,0,1,1.743.455,3.083,3.083,0,0,1,1.127,1.2,3.366,3.366,0,0,1,.392,1.6q0,.154-.007.308t-.007.35h-5.53a2.729,2.729,0,0,0,.371,1.323,2.184,2.184,0,0,0,1.883,1.057,2.1,2.1,0,0,0,1.218-.336,1.922,1.922,0,0,0,.714-.91H26.28a3.05,3.05,0,0,1-3.094,2.24Zm0-6.286a2.348,2.348,0,0,0-1.491.511,2.059,2.059,0,0,0-.749,1.491h4.368a1.986,1.986,0,0,0-.644-1.47A2.161,2.161,0,0,0,23.186,25.882Zm7.546,3.934a3.582,3.582,0,0,1-1.078-.154l-.7.658a1.41,1.41,0,0,0,.385.189,4.08,4.08,0,0,0,.665.14q.434.063,1.218.133a3.312,3.312,0,0,1,2,.644,1.837,1.837,0,0,1,.6,1.428A2.191,2.191,0,0,1,33.5,34a2.441,2.441,0,0,1-1.008.9,3.8,3.8,0,0,1-1.743.35A5.215,5.215,0,0,1,29.08,35a2.415,2.415,0,0,1-1.134-.742,1.916,1.916,0,0,1-.406-1.253,2.034,2.034,0,0,1,.21-.847,2.264,2.264,0,0,1,.784-.861,2.886,2.886,0,0,1-.525-.273,2.72,2.72,0,0,1-.4-.329v-.322L28.8,29.2a2.3,2.3,0,0,1-.826-1.848,2.455,2.455,0,0,1,.322-1.246,2.3,2.3,0,0,1,.938-.889,3.144,3.144,0,0,1,1.5-.329,3.352,3.352,0,0,1,1.092.168h2.562v.882l-1.3.056a2.331,2.331,0,0,1,.406,1.358,2.414,2.414,0,0,1-.329,1.246,2.362,2.362,0,0,1-.938.889A3.1,3.1,0,0,1,30.732,29.816Zm0-.966a1.735,1.735,0,0,0,1.183-.385,1.4,1.4,0,0,0,.441-1.113,1.381,1.381,0,0,0-.441-1.1,1.735,1.735,0,0,0-1.183-.385,1.757,1.757,0,0,0-1.2.385,1.381,1.381,0,0,0-.441,1.1,1.4,1.4,0,0,0,.441,1.113A1.757,1.757,0,0,0,30.732,28.85ZM28.688,32.9a1.128,1.128,0,0,0,.588,1.043,2.879,2.879,0,0,0,1.47.343,2.334,2.334,0,0,0,1.393-.378,1.182,1.182,0,0,0,.525-1.008,1.015,1.015,0,0,0-.364-.777,2.242,2.242,0,0,0-1.344-.385q-.77-.056-1.33-.14a1.723,1.723,0,0,0-.756.665A1.434,1.434,0,0,0,28.688,32.9Zm7.742-9.38a.79.79,0,0,1-.812-.812.748.748,0,0,1,.231-.56.856.856,0,0,1,1.155,0,.737.737,0,0,1,.238.56.776.776,0,0,1-.238.581A.794.794,0,0,1,36.43,23.516ZM35.842,32V25.056h1.176V32Zm5.88.168a3.318,3.318,0,0,1-2.072-.63,2.456,2.456,0,0,1-.966-1.708h1.2a1.661,1.661,0,0,0,.581.945,1.891,1.891,0,0,0,1.267.4,1.6,1.6,0,0,0,1.092-.315.975.975,0,0,0,.35-.749.831.831,0,0,0-.455-.84,6.056,6.056,0,0,0-1.281-.378,7.22,7.22,0,0,1-1.12-.322,2.544,2.544,0,0,1-.938-.595,1.386,1.386,0,0,1-.378-1.015,1.873,1.873,0,0,1,.679-1.491,2.738,2.738,0,0,1,1.841-.581,2.855,2.855,0,0,1,1.813.553,2.207,2.207,0,0,1,.819,1.575H43a1.211,1.211,0,0,0-.455-.833,1.626,1.626,0,0,0-1.029-.3,1.557,1.557,0,0,0-.973.266.843.843,0,0,0-.343.7.727.727,0,0,0,.441.658,4.735,4.735,0,0,0,1.2.406,10.427,10.427,0,0,1,1.225.343,2.315,2.315,0,0,1,.952.6,1.636,1.636,0,0,1,.371,1.155,1.9,1.9,0,0,1-.707,1.547A2.929,2.929,0,0,1,41.722,32.168ZM48.5,32a2.247,2.247,0,0,1-1.5-.462,2.1,2.1,0,0,1-.546-1.666V26.05h-1.2v-.994h1.2l.154-1.666H47.63v1.666h2.044v.994H47.63v3.822a1.155,1.155,0,0,0,.266.889,1.45,1.45,0,0,0,.938.231h.728V32Zm2.674,0V25.056h1.064l.1,1.33a2.517,2.517,0,0,1,.98-1.092,3.038,3.038,0,0,1,1.624-.406V26.12h-.322a2.906,2.906,0,0,0-1.134.217,1.722,1.722,0,0,0-.826.735,2.8,2.8,0,0,0-.308,1.428V32Zm7.392.168a3.147,3.147,0,0,1-1.442-.294,2,2,0,0,1-.854-.784,2.108,2.108,0,0,1-.28-1.064,1.886,1.886,0,0,1,.812-1.638,3.77,3.77,0,0,1,2.212-.574h1.876V27.73a1.853,1.853,0,0,0-.476-1.379,1.736,1.736,0,0,0-1.274-.469,2.031,2.031,0,0,0-1.183.343,1.5,1.5,0,0,0-.623,1h-1.2a2.228,2.228,0,0,1,.511-1.274,2.856,2.856,0,0,1,1.1-.791,3.617,3.617,0,0,1,1.4-.273,2.629,2.629,0,0,1,2.926,2.842V32h-1.05l-.07-1.246a2.754,2.754,0,0,1-.861,1A2.526,2.526,0,0,1,58.564,32.168Zm.182-.994a1.915,1.915,0,0,0,1.155-.35,2.234,2.234,0,0,0,.735-.91,2.834,2.834,0,0,0,.252-1.176v-.014H59.11a2.308,2.308,0,0,0-1.463.357,1.113,1.113,0,0,0-.427.889,1.077,1.077,0,0,0,.4.875A1.726,1.726,0,0,0,58.746,31.174Zm7.63.826a2.247,2.247,0,0,1-1.5-.462,2.1,2.1,0,0,1-.546-1.666V26.05h-1.2v-.994h1.2l.154-1.666h1.022v1.666h2.044v.994H65.508v3.822a1.155,1.155,0,0,0,.266.889,1.45,1.45,0,0,0,.938.231h.728V32Zm3.388-8.484a.79.79,0,0,1-.812-.812.748.748,0,0,1,.231-.56.856.856,0,0,1,1.155,0,.737.737,0,0,1,.238.56.776.776,0,0,1-.238.581A.794.794,0,0,1,69.764,23.516ZM69.176,32V25.056h1.176V32Zm6.384.168A3.492,3.492,0,0,1,73.8,31.72a3.236,3.236,0,0,1-1.239-1.267,3.9,3.9,0,0,1-.455-1.925,3.854,3.854,0,0,1,.462-1.925,3.27,3.27,0,0,1,1.253-1.267,3.53,3.53,0,0,1,1.771-.448,3.492,3.492,0,0,1,1.764.448A3.236,3.236,0,0,1,78.591,26.6a3.9,3.9,0,0,1,.455,1.925,3.854,3.854,0,0,1-.462,1.925,3.27,3.27,0,0,1-1.253,1.267A3.53,3.53,0,0,1,75.56,32.168Zm0-1.008a2.231,2.231,0,0,0,1.12-.294,2.193,2.193,0,0,0,.84-.882,3,3,0,0,0,.322-1.456,3.054,3.054,0,0,0-.315-1.456,2.148,2.148,0,0,0-.833-.882,2.205,2.205,0,0,0-1.106-.294,2.231,2.231,0,0,0-1.12.294,2.193,2.193,0,0,0-.84.882,3.453,3.453,0,0,0,0,2.912,2.209,2.209,0,0,0,.833.882A2.167,2.167,0,0,0,75.56,31.16Zm5.124.84V25.056h1.064l.07,1.246a2.522,2.522,0,0,1,.966-1.036,2.721,2.721,0,0,1,1.428-.378,2.631,2.631,0,0,1,1.967.749,3.174,3.174,0,0,1,.735,2.3V32H85.738V28.066q0-2.17-1.792-2.17a1.935,1.935,0,0,0-1.491.651,2.653,2.653,0,0,0-.6,1.855V32Zm12.1,0V26.05H91.73v-.994h1.05v-1.2a1.907,1.907,0,0,1,.5-1.47,2.1,2.1,0,0,1,1.47-.462h.7v1.008h-.518a1.068,1.068,0,0,0-.756.217,1,1,0,0,0-.224.735v1.176h1.708v.994H93.956V32Zm7.168.168a3.492,3.492,0,0,1-1.764-.448,3.236,3.236,0,0,1-1.239-1.267,3.9,3.9,0,0,1-.455-1.925,3.854,3.854,0,0,1,.462-1.925,3.27,3.27,0,0,1,1.253-1.267,3.53,3.53,0,0,1,1.771-.448,3.492,3.492,0,0,1,1.764.448,3.236,3.236,0,0,1,1.239,1.267,3.9,3.9,0,0,1,.455,1.925,3.854,3.854,0,0,1-.462,1.925,3.27,3.27,0,0,1-1.253,1.267A3.53,3.53,0,0,1,99.948,32.168Zm0-1.008a2.231,2.231,0,0,0,1.12-.294,2.193,2.193,0,0,0,.84-.882,3,3,0,0,0,.322-1.456,3.054,3.054,0,0,0-.315-1.456,2.148,2.148,0,0,0-.833-.882,2.205,2.205,0,0,0-1.106-.294,2.231,2.231,0,0,0-1.12.294,2.193,2.193,0,0,0-.84.882,3.453,3.453,0,0,0,0,2.912,2.209,2.209,0,0,0,.833.882A2.167,2.167,0,0,0,99.948,31.16Zm5.124.84V25.056h1.064l.1,1.33a2.517,2.517,0,0,1,.98-1.092,3.038,3.038,0,0,1,1.624-.406V26.12h-.322a2.906,2.906,0,0,0-1.134.217,1.722,1.722,0,0,0-.826.735,2.8,2.8,0,0,0-.308,1.428V32Zm5.082,0V25.056h1.064l.084,1.008a2.352,2.352,0,0,1,.9-.868,2.571,2.571,0,0,1,1.26-.308,2.845,2.845,0,0,1,1.421.336,2.21,2.21,0,0,1,.917,1.022,2.658,2.658,0,0,1,1-.994,2.733,2.733,0,0,1,1.379-.364,2.673,2.673,0,0,1,1.988.749,3.155,3.155,0,0,1,.742,2.3V32h-1.162V28.066a2.574,2.574,0,0,0-.434-1.624,1.5,1.5,0,0,0-1.246-.546,1.751,1.751,0,0,0-1.393.651,2.786,2.786,0,0,0-.553,1.855V32h-1.176V28.066a2.574,2.574,0,0,0-.434-1.624,1.5,1.5,0,0,0-1.246-.546,1.737,1.737,0,0,0-1.379.651,2.786,2.786,0,0,0-.553,1.855V32Z" transform="translate(924 4864)" fill="#fff"/>
      <path id="correct-5" data-name="correct" d="M9,0a9,9,0,1,0,9,9A8.992,8.992,0,0,0,9,0Zm4.355,7.134L8.025,12.442a.819.819,0,0,1-.581.249.785.785,0,0,1-.581-.249L4.23,9.83A.836.836,0,0,1,5.412,8.647L7.445,10.68l4.728-4.728a.826.826,0,0,1,1.182,0A.865.865,0,0,1,13.355,7.134Z" transform="translate(983 4841)" fill="#85e6c4"/>
    </g>
  </g>
</svg>
