<svg xmlns="http://www.w3.org/2000/svg" xmlns:xlink="http://www.w3.org/1999/xlink" width="528" height="585" viewBox="0 0 528 585">
  <defs>
    <filter id="Path_24820" x="0" y="0" width="270" height="410.999" filterUnits="userSpaceOnUse">
      <feOffset input="SourceAlpha"/>
      <feGaussianBlur stdDeviation="15" result="blur"/>
      <feFlood flood-color="#517ce3" flood-opacity="0.141"/>
      <feComposite operator="in" in2="blur"/>
      <feComposite in="SourceGraphic"/>
    </filter>
    <filter id="Path_24821" x="0" y="376" width="270" height="209" filterUnits="userSpaceOnUse">
      <feOffset input="SourceAlpha"/>
      <feGaussianBlur stdDeviation="15" result="blur-2"/>
      <feFlood flood-color="#517ce3" flood-opacity="0.141"/>
      <feComposite operator="in" in2="blur-2"/>
      <feComposite in="SourceGraphic"/>
    </filter>
    <filter id="Path_24822" x="258" y="30" width="270" height="381" filterUnits="userSpaceOnUse">
      <feOffset input="SourceAlpha"/>
      <feGaussianBlur stdDeviation="15" result="blur-3"/>
      <feFlood flood-color="#517ce3" flood-opacity="0.141"/>
      <feComposite operator="in" in2="blur-3"/>
      <feComposite in="SourceGraphic"/>
    </filter>
    <linearGradient id="linear-gradient" x1="0.5" x2="0.5" y2="1" gradientUnits="objectBoundingBox">
      <stop offset="0" stop-color="#fff" stop-opacity="0"/>
      <stop offset="1" stop-color="#fff"/>
    </linearGradient>
    <clipPath id="clip-path">
      <rect id="Rectangle_6390" data-name="Rectangle 6390" width="53" height="21.131" fill="none"/>
    </clipPath>
    <linearGradient id="linear-gradient-2" x1="-0.049" y1="0.092" x2="0.798" y2="0.923" gradientUnits="objectBoundingBox">
      <stop offset="0" stop-color="#fff5e9"/>
      <stop offset="0.605" stop-color="#7d95e6"/>
      <stop offset="1" stop-color="#3f28dd"/>
    </linearGradient>
    <linearGradient id="linear-gradient-3" x1="-1.084" y1="1.322" x2="0.211" y2="1.959" xlink:href="#linear-gradient-2"/>
    <linearGradient id="linear-gradient-4" x1="0.5" y1="-0.255" x2="0.5" y2="1" gradientUnits="objectBoundingBox">
      <stop offset="0" stop-color="#fff5e9"/>
      <stop offset="0.605" stop-color="#7d95e6"/>
      <stop offset="0.999" stop-color="#3f28dd"/>
    </linearGradient>
  </defs>
  <g id="Group_19109" data-name="Group 19109" transform="translate(-748 -2435)">
    <path id="Path_24164" data-name="Path 24164" d="M0,0H78" transform="translate(973.5 2673)" fill="none" stroke="#6d44e5" stroke-width="1" stroke-dasharray="4"/>
    <path id="Path_24819" data-name="Path 24819" d="M0,70V0" transform="translate(883 2801)" fill="none" stroke="#6d44e5" stroke-width="1" stroke-dasharray="4"/>
    <g transform="matrix(1, 0, 0, 1, 748, 2435)" filter="url(#Path_24820)">
      <path id="Path_24820-2" data-name="Path 24820" d="M262,3261a10,10,0,0,1-10-10V2980a10,10,0,0,1,10-10h50a30,30,0,0,1,60,0h50a10,10,0,0,1,10,10v271a10,10,0,0,1-10,10Z" transform="translate(-207 -2895)" fill="#fff"/>
    </g>
    <g transform="matrix(1, 0, 0, 1, 748, 2435)" filter="url(#Path_24821)">
      <path id="Path_24821-2" data-name="Path 24821" d="M262,3059a10,10,0,0,1-10-10v-69a10,10,0,0,1,10-10h50a30,30,0,0,1,60,0h50a10,10,0,0,1,10,10v69a10,10,0,0,1-10,10Z" transform="translate(-207 -2519)" fill="#fff"/>
    </g>
    <g transform="matrix(1, 0, 0, 1, 748, 2435)" filter="url(#Path_24822)">
      <path id="Path_24822-2" data-name="Path 24822" d="M10,0H170a10,10,0,0,1,10,10V281a10,10,0,0,1-10,10H10A10,10,0,0,1,0,281V10A10,10,0,0,1,10,0Z" transform="translate(303 75)" fill="#fff"/>
    </g>
    <path id="Path_24823" data-name="Path 24823" d="M-62.925-9.3a3.314,3.314,0,0,1,1.333.232,6.412,6.412,0,0,1,.923.492V-7.3a5.159,5.159,0,0,0-.93-.54,2.8,2.8,0,0,0-1.189-.253,2.776,2.776,0,0,0-.854.144,1.76,1.76,0,0,0-.745.458,1.119,1.119,0,0,0-.3.807.966.966,0,0,0,.4.834,5.771,5.771,0,0,0,.957.547l1.258.574a4.325,4.325,0,0,1,1.422.943,1.958,1.958,0,0,1,.479,1.381,2.1,2.1,0,0,1-.437,1.319,3.015,3.015,0,0,1-1.148.9,3.674,3.674,0,0,1-1.559.328,3.835,3.835,0,0,1-1.463-.273,6.026,6.026,0,0,1-1.162-.615V-2.023a6.876,6.876,0,0,0,1.224.663,3.962,3.962,0,0,0,1.565.294,2.139,2.139,0,0,0,1.2-.342,1.072,1.072,0,0,0,.52-.943.871.871,0,0,0-.212-.588,2.037,2.037,0,0,0-.513-.424,5.137,5.137,0,0,0-.588-.3l-1.518-.684A2.86,2.86,0,0,1-65.6-5.373a2.564,2.564,0,0,1-.355-1.354,2.186,2.186,0,0,1,.417-1.306,2.927,2.927,0,0,1,1.114-.923A3.371,3.371,0,0,1-62.925-9.3Zm6.48.492v1.969h2v1.053h-2v4.006a.972.972,0,0,0,.219.67.851.851,0,0,0,.67.246,1.964,1.964,0,0,0,.684-.1,2.932,2.932,0,0,0,.479-.226v.916a2.459,2.459,0,0,1-.581.349,2.168,2.168,0,0,1-.827.13,1.629,1.629,0,0,1-1.319-.526,2.1,2.1,0,0,1-.444-1.4V-5.783h-1.312v-.328A2.615,2.615,0,0,0-57.757-7.1a7.506,7.506,0,0,0,.793-1.7Zm9.625,1.969v4.047A3.04,3.04,0,0,1-47.2-1.23,2.639,2.639,0,0,1-48.241-.219a3.05,3.05,0,0,1-1.477.355,3.05,3.05,0,0,1-1.477-.355A2.639,2.639,0,0,1-52.233-1.23a3.04,3.04,0,0,1-.383-1.559V-6.836h1.162v4.047a1.732,1.732,0,0,0,.526,1.36,1.76,1.76,0,0,0,1.21.472,1.76,1.76,0,0,0,1.21-.472,1.732,1.732,0,0,0,.526-1.36V-6.836Zm8.3-3.008V0h-1.121V-1.162a3.383,3.383,0,0,1-.964.957,2.425,2.425,0,0,1-1.388.41,3,3,0,0,1-1.6-.444,3.22,3.22,0,0,1-1.155-1.237,3.778,3.778,0,0,1-.431-1.832,4.154,4.154,0,0,1,.431-1.955,3.111,3.111,0,0,1,1.183-1.265,3.243,3.243,0,0,1,1.682-.444,2.845,2.845,0,0,1,1.2.28,3.142,3.142,0,0,1,1.046.772V-9.844Zm-3.158,3.992a2.144,2.144,0,0,0-1.258.362,2.413,2.413,0,0,0-.8.937,2.8,2.8,0,0,0-.28,1.244,2.7,2.7,0,0,0,.273,1.21,2.2,2.2,0,0,0,.772.882,2.055,2.055,0,0,0,1.155.328,1.975,1.975,0,0,0,1.121-.328,2.277,2.277,0,0,0,.779-.909,2.786,2.786,0,0,0,.273-1.306l-.014-1.312a3.368,3.368,0,0,0-.909-.82A2.147,2.147,0,0,0-41.679-5.852Zm8.3-1.121a3.236,3.236,0,0,1,1.75.438,2.731,2.731,0,0,1,1.046,1.189,3.984,3.984,0,0,1,.349,1.7v.67h-5.25a2.55,2.55,0,0,0,.4,1.053,2.3,2.3,0,0,0,.82.759,2.358,2.358,0,0,0,1.162.28,2.688,2.688,0,0,0,1.381-.376,5.032,5.032,0,0,0,1.08-.827l-.014,1.217a2.655,2.655,0,0,1-.567.485,3.791,3.791,0,0,1-.861.424,3.044,3.044,0,0,1-1.019.171,3.472,3.472,0,0,1-1.846-.492,3.545,3.545,0,0,1-1.265-1.306,3.575,3.575,0,0,1-.458-1.784,3.844,3.844,0,0,1,.424-1.791A3.428,3.428,0,0,1-35.082-6.48,3.018,3.018,0,0,1-33.38-6.973Zm0,1.094a1.853,1.853,0,0,0-1.395.567,2.544,2.544,0,0,0-.684,1.374h4.115a2.213,2.213,0,0,0-.376-1.094,1.984,1.984,0,0,0-.745-.636A2.076,2.076,0,0,0-33.38-5.879Zm6.111-.957v1.08a3.8,3.8,0,0,1,.561-.554,3.367,3.367,0,0,1,.772-.472,2.182,2.182,0,0,1,.9-.191,2.649,2.649,0,0,1,1.271.308,2.252,2.252,0,0,1,.916.93,3.222,3.222,0,0,1,.342,1.565V0h-1.121l-.014-4.061a2.057,2.057,0,0,0-.39-1.354,1.473,1.473,0,0,0-1.2-.465,1.808,1.808,0,0,0-1.087.4,4.868,4.868,0,0,0-.95.937V0H-28.39V-6.836ZM-18.5-8.8v1.969h2v1.053h-2v4.006a.972.972,0,0,0,.219.67.851.851,0,0,0,.67.246,1.964,1.964,0,0,0,.684-.1,2.932,2.932,0,0,0,.479-.226v.916a2.459,2.459,0,0,1-.581.349,2.168,2.168,0,0,1-.827.13,1.629,1.629,0,0,1-1.319-.526,2.1,2.1,0,0,1-.444-1.4V-5.783h-1.312v-.328A2.615,2.615,0,0,0-19.817-7.1a7.506,7.506,0,0,0,.793-1.7Zm9.256,1.969v1.367a3.513,3.513,0,0,1,.957-1.094,1.926,1.926,0,0,1,1.148-.41,1.766,1.766,0,0,1,.711.137v1.3a1.7,1.7,0,0,0-.875-.26A1.427,1.427,0,0,0-8.436-5.3a6.9,6.9,0,0,0-.813,1.176V0H-10.37V-6.836Zm7.068-.137a3.236,3.236,0,0,1,1.75.438A2.731,2.731,0,0,1,.615-5.346a3.984,3.984,0,0,1,.349,1.7v.67h-5.25a2.55,2.55,0,0,0,.4,1.053,2.3,2.3,0,0,0,.82.759,2.358,2.358,0,0,0,1.162.28A2.688,2.688,0,0,0-.526-1.265a5.032,5.032,0,0,0,1.08-.827L.54-.875A2.655,2.655,0,0,1-.027-.39,3.791,3.791,0,0,1-.889.034,3.044,3.044,0,0,1-1.907.205,3.472,3.472,0,0,1-3.753-.287,3.545,3.545,0,0,1-5.018-1.593a3.575,3.575,0,0,1-.458-1.784,3.844,3.844,0,0,1,.424-1.791A3.428,3.428,0,0,1-3.883-6.48,3.018,3.018,0,0,1-2.181-6.973Zm0,1.094a1.853,1.853,0,0,0-1.395.567,2.544,2.544,0,0,0-.684,1.374H-.144A2.213,2.213,0,0,0-.52-5.031a1.984,1.984,0,0,0-.745-.636A2.076,2.076,0,0,0-2.181-5.879ZM5.626-6.973a2.845,2.845,0,0,1,1.2.28,3.142,3.142,0,0,1,1.046.772v-.916H8.989v6.7A3.825,3.825,0,0,1,8.5,1.887a3.09,3.09,0,0,1-1.312,1.2,4.061,4.061,0,0,1-1.791.4A3.516,3.516,0,0,1,4.32,3.343a3.007,3.007,0,0,1-.759-.355q-.314-.212-.574-.4v-1.2q.205.15.54.39a3.924,3.924,0,0,0,.807.431,2.8,2.8,0,0,0,1.06.191,3.027,3.027,0,0,0,1.23-.246,2.144,2.144,0,0,0,.9-.725A1.924,1.924,0,0,0,7.868.273V-1.162A3.383,3.383,0,0,1,6.9-.205a2.425,2.425,0,0,1-1.388.41,3,3,0,0,1-1.6-.444A3.22,3.22,0,0,1,2.762-1.477a3.778,3.778,0,0,1-.431-1.832,4.154,4.154,0,0,1,.431-1.955A3.111,3.111,0,0,1,3.944-6.528,3.243,3.243,0,0,1,5.626-6.973Zm.205,1.107A2.144,2.144,0,0,0,4.573-5.5a2.4,2.4,0,0,0-.8.943,2.842,2.842,0,0,0-.28,1.251,2.652,2.652,0,0,0,.273,1.2,2.209,2.209,0,0,0,.772.875A2.055,2.055,0,0,0,5.694-.9,1.975,1.975,0,0,0,6.815-1.23a2.287,2.287,0,0,0,.779-.9,2.746,2.746,0,0,0,.273-1.3L7.854-4.744a3.479,3.479,0,0,0-.909-.827A2.108,2.108,0,0,0,5.831-5.865Zm6.576-4.252a.878.878,0,0,1,.663.28.914.914,0,0,1,.267.649.922.922,0,0,1-.267.643.868.868,0,0,1-.663.287.868.868,0,0,1-.663-.287.922.922,0,0,1-.267-.643.914.914,0,0,1,.267-.649A.878.878,0,0,1,12.407-10.117Zm.7,3.281V0H11.983V-5.783H10.9V-6.836Zm4.457-.137a3.567,3.567,0,0,1,1.121.171,2.657,2.657,0,0,1,.752.349v1.2a3.557,3.557,0,0,0-.779-.424,2.607,2.607,0,0,0-1.012-.205,1.365,1.365,0,0,0-.964.3.867.867,0,0,0-.321.629.923.923,0,0,0,.185.526,1.278,1.278,0,0,0,.649.431l1.148.41a2.038,2.038,0,0,1,1,.67,1.661,1.661,0,0,1,.328,1.025,1.849,1.849,0,0,1-.321,1.053,2.236,2.236,0,0,1-.889.759,2.911,2.911,0,0,1-1.306.28,3.57,3.57,0,0,1-.827-.1,4.973,4.973,0,0,1-.772-.246A3.2,3.2,0,0,1,15.046-.4V-1.6a3.959,3.959,0,0,0,.54.308A4.68,4.68,0,0,0,16.331-1a2.635,2.635,0,0,0,.738.116,1.639,1.639,0,0,0,1.019-.287.865.865,0,0,0,.376-.711.617.617,0,0,0-.253-.52,2.921,2.921,0,0,0-.731-.369l-1.012-.369A1.94,1.94,0,0,1,15.415-3.9a2.083,2.083,0,0,1-.26-1.046A1.843,1.843,0,0,1,15.812-6.4,2.563,2.563,0,0,1,17.562-6.973Zm5.7-1.832v1.969h2v1.053h-2v4.006a.972.972,0,0,0,.219.67.851.851,0,0,0,.67.246,1.964,1.964,0,0,0,.684-.1,2.932,2.932,0,0,0,.479-.226v.916a2.459,2.459,0,0,1-.581.349,2.168,2.168,0,0,1-.827.13,1.629,1.629,0,0,1-1.319-.526,2.1,2.1,0,0,1-.444-1.4V-5.783H20.829v-.328A2.615,2.615,0,0,0,21.95-7.1a7.506,7.506,0,0,0,.793-1.7Zm5.154,1.969v1.367a3.513,3.513,0,0,1,.957-1.094,1.926,1.926,0,0,1,1.148-.41,1.766,1.766,0,0,1,.711.137v1.3a1.7,1.7,0,0,0-.875-.26A1.427,1.427,0,0,0,29.23-5.3a6.9,6.9,0,0,0-.813,1.176V0H27.3V-6.836Zm7.068-.137a2.845,2.845,0,0,1,1.2.28,3.142,3.142,0,0,1,1.046.772v-.916h1.121V0H37.728V-1.162a3.383,3.383,0,0,1-.964.957,2.425,2.425,0,0,1-1.388.41,3,3,0,0,1-1.6-.444,3.22,3.22,0,0,1-1.155-1.237,3.778,3.778,0,0,1-.431-1.832,4.154,4.154,0,0,1,.431-1.955A3.111,3.111,0,0,1,33.8-6.528,3.243,3.243,0,0,1,35.485-6.973Zm.205,1.094a2.115,2.115,0,0,0-1.258.369,2.454,2.454,0,0,0-.8.95,2.842,2.842,0,0,0-.28,1.251,2.7,2.7,0,0,0,.273,1.21,2.2,2.2,0,0,0,.772.882,2.055,2.055,0,0,0,1.155.328,1.975,1.975,0,0,0,1.121-.328,2.277,2.277,0,0,0,.779-.909,2.786,2.786,0,0,0,.273-1.306l-.014-1.312a3.6,3.6,0,0,0-.909-.834A2.071,2.071,0,0,0,35.69-5.879ZM43.06-8.8v1.969h2v1.053h-2v4.006a.972.972,0,0,0,.219.67.851.851,0,0,0,.67.246,1.964,1.964,0,0,0,.684-.1,2.932,2.932,0,0,0,.479-.226v.916a2.459,2.459,0,0,1-.581.349,2.168,2.168,0,0,1-.827.13,1.629,1.629,0,0,1-1.319-.526,2.1,2.1,0,0,1-.444-1.4V-5.783H40.626v-.328A2.615,2.615,0,0,0,41.747-7.1a7.506,7.506,0,0,0,.793-1.7Zm5.127-1.312a.878.878,0,0,1,.663.28.914.914,0,0,1,.267.649.922.922,0,0,1-.267.643.868.868,0,0,1-.663.287.868.868,0,0,1-.663-.287.922.922,0,0,1-.267-.643.914.914,0,0,1,.267-.649A.878.878,0,0,1,48.187-10.117Zm.7,3.281V0H47.763V-5.783h-1.08V-6.836Zm5.51-.137a3.472,3.472,0,0,1,1.846.492A3.529,3.529,0,0,1,57.5-5.168a3.612,3.612,0,0,1,.458,1.791A3.575,3.575,0,0,1,57.5-1.593,3.545,3.545,0,0,1,56.239-.287a3.472,3.472,0,0,1-1.846.492,3.472,3.472,0,0,1-1.846-.492,3.545,3.545,0,0,1-1.265-1.306,3.575,3.575,0,0,1-.458-1.784,3.612,3.612,0,0,1,.458-1.791A3.529,3.529,0,0,1,52.548-6.48,3.472,3.472,0,0,1,54.394-6.973Zm0,1.094a2.314,2.314,0,0,0-1.271.349,2.354,2.354,0,0,0-.841.916,2.65,2.65,0,0,0-.294,1.237,2.621,2.621,0,0,0,.294,1.224,2.354,2.354,0,0,0,.841.916,2.314,2.314,0,0,0,1.271.349,2.3,2.3,0,0,0,1.278-.349,2.372,2.372,0,0,0,.834-.916A2.621,2.621,0,0,0,56.8-3.377a2.65,2.65,0,0,0-.294-1.237,2.372,2.372,0,0,0-.834-.916A2.3,2.3,0,0,0,54.394-5.879Zm6.535-.957v1.08a3.8,3.8,0,0,1,.561-.554,3.367,3.367,0,0,1,.772-.472,2.182,2.182,0,0,1,.9-.191,2.649,2.649,0,0,1,1.271.308,2.252,2.252,0,0,1,.916.93,3.222,3.222,0,0,1,.342,1.565V0H64.565l-.014-4.061a2.057,2.057,0,0,0-.39-1.354,1.473,1.473,0,0,0-1.2-.465,1.808,1.808,0,0,0-1.087.4,4.868,4.868,0,0,0-.95.937V0H59.808V-6.836Zm-92.08,19v4.047a3.04,3.04,0,0,1-.383,1.559,2.639,2.639,0,0,1-1.039,1.012,3.05,3.05,0,0,1-1.477.355,3.05,3.05,0,0,1-1.477-.355,2.639,2.639,0,0,1-1.039-1.012,3.04,3.04,0,0,1-.383-1.559V12.164h1.162v4.047a1.732,1.732,0,0,0,.526,1.36,1.76,1.76,0,0,0,1.21.472,1.76,1.76,0,0,0,1.21-.472,1.732,1.732,0,0,0,.526-1.36V12.164ZM-27,12.027a3.567,3.567,0,0,1,1.121.171,2.657,2.657,0,0,1,.752.349v1.2a3.557,3.557,0,0,0-.779-.424,2.607,2.607,0,0,0-1.012-.205,1.365,1.365,0,0,0-.964.3.867.867,0,0,0-.321.629.923.923,0,0,0,.185.526,1.278,1.278,0,0,0,.649.431l1.148.41a2.038,2.038,0,0,1,1,.67,1.661,1.661,0,0,1,.328,1.025,1.849,1.849,0,0,1-.321,1.053,2.236,2.236,0,0,1-.889.759,2.911,2.911,0,0,1-1.306.28,3.57,3.57,0,0,1-.827-.1A4.973,4.973,0,0,1-29,18.856a3.2,3.2,0,0,1-.506-.253V17.4a3.958,3.958,0,0,0,.54.308,4.68,4.68,0,0,0,.745.287,2.635,2.635,0,0,0,.738.116,1.639,1.639,0,0,0,1.019-.287.865.865,0,0,0,.376-.711.617.617,0,0,0-.253-.52,2.921,2.921,0,0,0-.731-.369l-1.012-.369a1.94,1.94,0,0,1-1.053-.759,2.083,2.083,0,0,1-.26-1.046,1.843,1.843,0,0,1,.656-1.449A2.563,2.563,0,0,1-27,12.027Zm4.908-3.145a.878.878,0,0,1,.663.28.914.914,0,0,1,.267.649.922.922,0,0,1-.267.643.868.868,0,0,1-.663.287.868.868,0,0,1-.663-.287.922.922,0,0,1-.267-.643.914.914,0,0,1,.267-.649A.878.878,0,0,1-22.087,8.883Zm.7,3.281V19h-1.121V13.217h-1.08V12.164Zm3.541,0v1.08a3.8,3.8,0,0,1,.561-.554,3.367,3.367,0,0,1,.772-.472,2.182,2.182,0,0,1,.9-.191,2.649,2.649,0,0,1,1.271.308,2.252,2.252,0,0,1,.916.93,3.222,3.222,0,0,1,.342,1.565V19h-1.121l-.014-4.061a2.057,2.057,0,0,0-.39-1.354,1.473,1.473,0,0,0-1.2-.465,1.808,1.808,0,0,0-1.087.4,4.868,4.868,0,0,0-.95.937V19H-18.97V12.164Zm9.693-.137a2.845,2.845,0,0,1,1.2.28,3.142,3.142,0,0,1,1.046.772v-.916h1.121v6.7a3.825,3.825,0,0,1-.492,2.023A3.09,3.09,0,0,1-6.6,22.09a4.061,4.061,0,0,1-1.791.4,3.516,3.516,0,0,1-1.073-.144,3.007,3.007,0,0,1-.759-.355q-.314-.212-.574-.4v-1.2q.205.15.54.39a3.924,3.924,0,0,0,.807.431,2.8,2.8,0,0,0,1.06.191,3.027,3.027,0,0,0,1.23-.246,2.144,2.144,0,0,0,.9-.725,1.924,1.924,0,0,0,.342-1.148V17.838a3.383,3.383,0,0,1-.964.957,2.425,2.425,0,0,1-1.388.41,3,3,0,0,1-1.6-.444,3.22,3.22,0,0,1-1.155-1.237,3.778,3.778,0,0,1-.431-1.832,4.154,4.154,0,0,1,.431-1.955,3.111,3.111,0,0,1,1.183-1.265A3.243,3.243,0,0,1-8.155,12.027Zm.205,1.107a2.144,2.144,0,0,0-1.258.362,2.4,2.4,0,0,0-.8.943,2.842,2.842,0,0,0-.28,1.251,2.652,2.652,0,0,0,.273,1.2,2.209,2.209,0,0,0,.772.875,2.055,2.055,0,0,0,1.155.328,1.975,1.975,0,0,0,1.121-.328,2.287,2.287,0,0,0,.779-.9,2.746,2.746,0,0,0,.273-1.3l-.014-1.312a3.479,3.479,0,0,0-.909-.827A2.108,2.108,0,0,0-7.95,13.135Zm13.125-.971v1.053h-2V19H2.058V13.217H.978V12.164h1.08v-.875A2.491,2.491,0,0,1,2.372,9.97,2.028,2.028,0,0,1,3.179,9.2a2.163,2.163,0,0,1,1-.253,1.7,1.7,0,0,1,1.135.369V10.3a1.748,1.748,0,0,0-.492-.219,1.771,1.771,0,0,0-.574-.068,1.051,1.051,0,0,0-.786.321,1.6,1.6,0,0,0-.28,1.073v.752Zm4.58-.137a3.472,3.472,0,0,1,1.846.492,3.529,3.529,0,0,1,1.265,1.313,3.612,3.612,0,0,1,.458,1.791,3.571,3.571,0,0,1-1.723,3.09,3.472,3.472,0,0,1-1.846.492,3.472,3.472,0,0,1-1.846-.492,3.571,3.571,0,0,1-1.723-3.09,3.612,3.612,0,0,1,.458-1.791A3.529,3.529,0,0,1,7.909,12.52,3.472,3.472,0,0,1,9.755,12.027Zm0,1.094a2.314,2.314,0,0,0-1.271.349,2.354,2.354,0,0,0-.841.916,2.65,2.65,0,0,0-.294,1.237,2.621,2.621,0,0,0,.294,1.224,2.354,2.354,0,0,0,.841.916,2.314,2.314,0,0,0,1.271.349,2.3,2.3,0,0,0,1.278-.349,2.372,2.372,0,0,0,.834-.916,2.621,2.621,0,0,0,.294-1.224,2.65,2.65,0,0,0-.294-1.237,2.372,2.372,0,0,0-.834-.916A2.3,2.3,0,0,0,9.755,13.121Zm6.535-.957v1.367a3.513,3.513,0,0,1,.957-1.094,1.926,1.926,0,0,1,1.148-.41,1.766,1.766,0,0,1,.711.137v1.3a1.7,1.7,0,0,0-.875-.26A1.427,1.427,0,0,0,17.1,13.7a6.9,6.9,0,0,0-.813,1.176V19H15.169V12.164Zm5.373,0v.875a3.849,3.849,0,0,1,.841-.69,2.231,2.231,0,0,1,1.21-.321,2.851,2.851,0,0,1,1.381.349,2.309,2.309,0,0,1,.984,1.046,5.856,5.856,0,0,1,1.039-.984,2.163,2.163,0,0,1,1.313-.41,2.853,2.853,0,0,1,1.306.308,2.409,2.409,0,0,1,.984.93A2.983,2.983,0,0,1,31.1,14.83V19H29.976l-.014-4.061a1.85,1.85,0,0,0-.458-1.354,1.7,1.7,0,0,0-1.265-.465,1.541,1.541,0,0,0-1.025.369,6.257,6.257,0,0,0-.834.861V19H25.259l-.014-4.061a1.85,1.85,0,0,0-.458-1.354,1.856,1.856,0,0,0-2.283-.137,4.439,4.439,0,0,0-.841.793V19H20.542V12.164Zm13.59-.137a3.567,3.567,0,0,1,1.121.171,2.657,2.657,0,0,1,.752.349v1.2a3.557,3.557,0,0,0-.779-.424,2.607,2.607,0,0,0-1.012-.205,1.365,1.365,0,0,0-.964.3.867.867,0,0,0-.321.629.923.923,0,0,0,.185.526,1.278,1.278,0,0,0,.649.431l1.148.41a2.038,2.038,0,0,1,1,.67,1.661,1.661,0,0,1,.328,1.025,1.849,1.849,0,0,1-.321,1.053,2.236,2.236,0,0,1-.889.759,2.911,2.911,0,0,1-1.306.28,3.57,3.57,0,0,1-.827-.1,4.973,4.973,0,0,1-.772-.246,3.2,3.2,0,0,1-.506-.253V17.4a3.958,3.958,0,0,0,.54.308,4.68,4.68,0,0,0,.745.287,2.635,2.635,0,0,0,.738.116,1.639,1.639,0,0,0,1.019-.287.865.865,0,0,0,.376-.711.617.617,0,0,0-.253-.52,2.921,2.921,0,0,0-.731-.369l-1.012-.369a1.94,1.94,0,0,1-1.053-.759,2.083,2.083,0,0,1-.26-1.046A1.843,1.843,0,0,1,33.5,12.6,2.563,2.563,0,0,1,35.253,12.027Z" transform="translate(883 2637)" fill="#2a2a2a"/>
    <path id="Path_24824" data-name="Path 24824" d="M5.154-9.16A3.351,3.351,0,0,1,6.672-8.8a3.163,3.163,0,0,1,1.2,1.039,2.762,2.762,0,0,1,.472,1.62,2.651,2.651,0,0,1-.451,1.49,3.329,3.329,0,0,1-1.224,1.1,3.553,3.553,0,0,1-1.716.417,5.328,5.328,0,0,1-1.278-.144,5.357,5.357,0,0,1-.937-.308V0H1.5V-9.16ZM2.734-8V-4.7a6.037,6.037,0,0,0,.964.28,5.654,5.654,0,0,0,1.21.13,2.238,2.238,0,0,0,1.606-.54,1.737,1.737,0,0,0,.567-1.306,1.569,1.569,0,0,0-.321-1,2.115,2.115,0,0,0-.841-.636A2.75,2.75,0,0,0,4.813-8ZM13-6.973a2.845,2.845,0,0,1,1.2.28,3.142,3.142,0,0,1,1.046.772v-.916h1.121V0H15.244V-1.162a3.383,3.383,0,0,1-.964.957,2.425,2.425,0,0,1-1.388.41,3,3,0,0,1-1.6-.444,3.22,3.22,0,0,1-1.155-1.237,3.778,3.778,0,0,1-.431-1.832,4.154,4.154,0,0,1,.431-1.955A3.111,3.111,0,0,1,11.32-6.528,3.243,3.243,0,0,1,13-6.973Zm.205,1.094a2.115,2.115,0,0,0-1.258.369,2.454,2.454,0,0,0-.8.95,2.842,2.842,0,0,0-.28,1.251,2.7,2.7,0,0,0,.273,1.21,2.2,2.2,0,0,0,.772.882,2.055,2.055,0,0,0,1.155.328,1.975,1.975,0,0,0,1.121-.328,2.277,2.277,0,0,0,.779-.909,2.786,2.786,0,0,0,.273-1.306L15.23-4.744a3.6,3.6,0,0,0-.909-.834A2.071,2.071,0,0,0,13.207-5.879Zm5.865-.957L21.465-1.8l2.324-5.031h1.34L20.1,3.281H18.8L20.754-.41,17.732-6.836Zm8.545,0v.875a3.849,3.849,0,0,1,.841-.69,2.231,2.231,0,0,1,1.21-.321,2.851,2.851,0,0,1,1.381.349,2.309,2.309,0,0,1,.984,1.046,5.856,5.856,0,0,1,1.039-.984,2.163,2.163,0,0,1,1.313-.41,2.853,2.853,0,0,1,1.306.308,2.409,2.409,0,0,1,.984.93,2.983,2.983,0,0,1,.376,1.565V0H35.93l-.014-4.061a1.85,1.85,0,0,0-.458-1.354,1.7,1.7,0,0,0-1.265-.465,1.541,1.541,0,0,0-1.025.369,6.257,6.257,0,0,0-.834.861V0H31.213L31.2-4.061a1.85,1.85,0,0,0-.458-1.354,1.7,1.7,0,0,0-1.265-.465,1.709,1.709,0,0,0-1.019.328,4.439,4.439,0,0,0-.841.793V0H26.5V-6.836Zm14.369-.137a3.236,3.236,0,0,1,1.75.438,2.731,2.731,0,0,1,1.046,1.189,3.984,3.984,0,0,1,.349,1.7v.67h-5.25a2.55,2.55,0,0,0,.4,1.053,2.3,2.3,0,0,0,.82.759,2.358,2.358,0,0,0,1.162.28,2.688,2.688,0,0,0,1.381-.376,5.032,5.032,0,0,0,1.08-.827L44.707-.875a2.655,2.655,0,0,1-.567.485,3.791,3.791,0,0,1-.861.424A3.044,3.044,0,0,1,42.26.205a3.472,3.472,0,0,1-1.846-.492,3.545,3.545,0,0,1-1.265-1.306,3.575,3.575,0,0,1-.458-1.784,3.844,3.844,0,0,1,.424-1.791A3.428,3.428,0,0,1,40.284-6.48,3.018,3.018,0,0,1,41.986-6.973Zm0,1.094a1.853,1.853,0,0,0-1.395.567,2.544,2.544,0,0,0-.684,1.374h4.115a2.213,2.213,0,0,0-.376-1.094,1.984,1.984,0,0,0-.745-.636A2.076,2.076,0,0,0,41.986-5.879ZM48.1-6.836v1.08a3.8,3.8,0,0,1,.561-.554,3.367,3.367,0,0,1,.772-.472,2.182,2.182,0,0,1,.9-.191,2.649,2.649,0,0,1,1.271.308,2.252,2.252,0,0,1,.916.93,3.222,3.222,0,0,1,.342,1.565V0H51.734l-.014-4.061a2.057,2.057,0,0,0-.39-1.354,1.473,1.473,0,0,0-1.2-.465,1.808,1.808,0,0,0-1.087.4,4.868,4.868,0,0,0-.95.937V0H46.977V-6.836ZM56.861-8.8v1.969h2v1.053h-2v4.006a.972.972,0,0,0,.219.67.851.851,0,0,0,.67.246,1.964,1.964,0,0,0,.684-.1,2.932,2.932,0,0,0,.479-.226v.916a2.459,2.459,0,0,1-.581.349,2.168,2.168,0,0,1-.827.13,1.629,1.629,0,0,1-1.319-.526,2.1,2.1,0,0,1-.444-1.4V-5.783H54.428v-.328A2.615,2.615,0,0,0,55.549-7.1a7.506,7.506,0,0,0,.793-1.7ZM4.635,12.027a3.062,3.062,0,0,1,1.606.431,3.172,3.172,0,0,1,1.148,1.2,3.66,3.66,0,0,1,.431,1.812,4.248,4.248,0,0,1-.431,1.962A3.24,3.24,0,0,1,6.214,18.74a3.124,3.124,0,0,1-1.688.465,2.593,2.593,0,0,1-1.2-.314,3.589,3.589,0,0,1-1.046-.807v4.2H1.162V12.164H2.283v1.162a3.02,3.02,0,0,1,.964-.923A2.585,2.585,0,0,1,4.635,12.027Zm-.178,1.094a2.047,2.047,0,0,0-1.114.314,2.149,2.149,0,0,0-.779.868,2.825,2.825,0,0,0-.28,1.292L2.3,16.908a4.641,4.641,0,0,0,.916.868,1.883,1.883,0,0,0,1.107.335,2.062,2.062,0,0,0,1.258-.383,2.515,2.515,0,0,0,.8-.991,2.99,2.99,0,0,0,.28-1.265,2.557,2.557,0,0,0-.273-1.2,2.162,2.162,0,0,0-.766-.841A2.112,2.112,0,0,0,4.457,13.121Zm6.33-.957v1.367a3.513,3.513,0,0,1,.957-1.094,1.926,1.926,0,0,1,1.148-.41,1.766,1.766,0,0,1,.711.137v1.3a1.7,1.7,0,0,0-.875-.26A1.427,1.427,0,0,0,11.6,13.7a6.9,6.9,0,0,0-.813,1.176V19H9.666V12.164Zm7.342-.137a3.472,3.472,0,0,1,1.846.492,3.529,3.529,0,0,1,1.265,1.313,3.612,3.612,0,0,1,.458,1.791,3.571,3.571,0,0,1-1.723,3.09,3.707,3.707,0,0,1-3.691,0,3.571,3.571,0,0,1-1.723-3.09,3.612,3.612,0,0,1,.458-1.791,3.529,3.529,0,0,1,1.265-1.312A3.472,3.472,0,0,1,18.129,12.027Zm0,1.094a2.314,2.314,0,0,0-1.271.349,2.354,2.354,0,0,0-.841.916,2.65,2.65,0,0,0-.294,1.237,2.621,2.621,0,0,0,.294,1.224,2.354,2.354,0,0,0,.841.916,2.505,2.505,0,0,0,2.55,0,2.372,2.372,0,0,0,.834-.916,2.621,2.621,0,0,0,.294-1.224,2.65,2.65,0,0,0-.294-1.237,2.372,2.372,0,0,0-.834-.916A2.3,2.3,0,0,0,18.129,13.121Zm8.5-1.094a3.224,3.224,0,0,1,1.3.239,2.843,2.843,0,0,1,.752.431v1.135a4.257,4.257,0,0,0-.875-.5,2.962,2.962,0,0,0-1.176-.212,2.314,2.314,0,0,0-1.271.349,2.354,2.354,0,0,0-.841.916,2.65,2.65,0,0,0-.294,1.237,2.621,2.621,0,0,0,.294,1.224,2.354,2.354,0,0,0,.841.916,2.314,2.314,0,0,0,1.271.349,2.962,2.962,0,0,0,1.176-.212,4.257,4.257,0,0,0,.875-.5v1.135a2.492,2.492,0,0,1-.752.438,3.307,3.307,0,0,1-1.3.232,3.472,3.472,0,0,1-1.846-.492,3.571,3.571,0,0,1-1.723-3.09,3.612,3.612,0,0,1,.458-1.791,3.529,3.529,0,0,1,1.265-1.312A3.472,3.472,0,0,1,26.633,12.027Zm6.713,0a3.236,3.236,0,0,1,1.75.438,2.731,2.731,0,0,1,1.046,1.189,3.984,3.984,0,0,1,.349,1.7v.67H31.24a2.55,2.55,0,0,0,.4,1.053,2.3,2.3,0,0,0,.82.759,2.358,2.358,0,0,0,1.162.28A2.688,2.688,0,0,0,35,17.735a5.032,5.032,0,0,0,1.08-.827l-.014,1.217a2.655,2.655,0,0,1-.567.485,3.791,3.791,0,0,1-.861.424,3.044,3.044,0,0,1-1.019.171,3.472,3.472,0,0,1-1.846-.492,3.571,3.571,0,0,1-1.723-3.09,3.844,3.844,0,0,1,.424-1.791,3.428,3.428,0,0,1,1.169-1.312A3.018,3.018,0,0,1,33.346,12.027Zm0,1.094a1.853,1.853,0,0,0-1.395.567,2.544,2.544,0,0,0-.684,1.374h4.115a2.213,2.213,0,0,0-.376-1.094,1.984,1.984,0,0,0-.745-.636A2.076,2.076,0,0,0,33.346,13.121Zm7.027-1.094a3.567,3.567,0,0,1,1.121.171,2.657,2.657,0,0,1,.752.349v1.2a3.557,3.557,0,0,0-.779-.424,2.607,2.607,0,0,0-1.012-.205,1.365,1.365,0,0,0-.964.3.867.867,0,0,0-.321.629.923.923,0,0,0,.185.526,1.278,1.278,0,0,0,.649.431l1.148.41a2.038,2.038,0,0,1,1,.67,1.661,1.661,0,0,1,.328,1.025,1.849,1.849,0,0,1-.321,1.053,2.236,2.236,0,0,1-.889.759,2.911,2.911,0,0,1-1.306.28,3.57,3.57,0,0,1-.827-.1,4.973,4.973,0,0,1-.772-.246,3.2,3.2,0,0,1-.506-.253V17.4a3.958,3.958,0,0,0,.54.308,4.68,4.68,0,0,0,.745.287,2.635,2.635,0,0,0,.738.116,1.639,1.639,0,0,0,1.019-.287.865.865,0,0,0,.376-.711.617.617,0,0,0-.253-.52,2.921,2.921,0,0,0-.731-.369l-1.012-.369a1.94,1.94,0,0,1-1.053-.759,2.083,2.083,0,0,1-.26-1.046,1.843,1.843,0,0,1,.656-1.449A2.563,2.563,0,0,1,40.373,12.027Zm5.852,0a3.567,3.567,0,0,1,1.121.171,2.657,2.657,0,0,1,.752.349v1.2a3.557,3.557,0,0,0-.779-.424,2.607,2.607,0,0,0-1.012-.205,1.365,1.365,0,0,0-.964.3.867.867,0,0,0-.321.629.923.923,0,0,0,.185.526,1.278,1.278,0,0,0,.649.431l1.148.41a2.038,2.038,0,0,1,1,.67,1.661,1.661,0,0,1,.328,1.025,1.849,1.849,0,0,1-.321,1.053,2.236,2.236,0,0,1-.889.759,2.911,2.911,0,0,1-1.306.28,3.57,3.57,0,0,1-.827-.1,4.973,4.973,0,0,1-.772-.246,3.2,3.2,0,0,1-.506-.253V17.4a3.958,3.958,0,0,0,.54.308,4.68,4.68,0,0,0,.745.287,2.635,2.635,0,0,0,.738.116,1.639,1.639,0,0,0,1.019-.287.865.865,0,0,0,.376-.711.617.617,0,0,0-.253-.52,2.921,2.921,0,0,0-.731-.369l-1.012-.369a1.94,1.94,0,0,1-1.053-.759,2.083,2.083,0,0,1-.26-1.046,1.843,1.843,0,0,1,.656-1.449A2.563,2.563,0,0,1,46.225,12.027Zm4.908-3.145a.878.878,0,0,1,.663.28.916.916,0,0,1,0,1.292.909.909,0,0,1-1.326,0,.916.916,0,0,1,0-1.292A.878.878,0,0,1,51.133,8.883Zm.7,3.281V19H50.709V13.217h-1.08V12.164Zm3.541,0v1.08a3.8,3.8,0,0,1,.561-.554,3.367,3.367,0,0,1,.772-.472,2.182,2.182,0,0,1,.9-.191,2.649,2.649,0,0,1,1.271.308,2.252,2.252,0,0,1,.916.93,3.222,3.222,0,0,1,.342,1.565V19H59.008l-.014-4.061a2.057,2.057,0,0,0-.39-1.354,1.473,1.473,0,0,0-1.2-.465,1.808,1.808,0,0,0-1.087.4,4.868,4.868,0,0,0-.95.937V19H54.25V12.164Zm9.693-.137a2.845,2.845,0,0,1,1.2.28,3.142,3.142,0,0,1,1.046.772v-.916h1.121v6.7a3.825,3.825,0,0,1-.492,2.023,3.09,3.09,0,0,1-1.312,1.2,4.061,4.061,0,0,1-1.791.4,3.516,3.516,0,0,1-1.073-.144A3.007,3.007,0,0,1,63,21.987q-.314-.212-.574-.4v-1.2q.205.15.54.39a3.924,3.924,0,0,0,.807.431,2.8,2.8,0,0,0,1.06.191,3.027,3.027,0,0,0,1.23-.246,2.144,2.144,0,0,0,.9-.725,1.924,1.924,0,0,0,.342-1.148V17.838a3.383,3.383,0,0,1-.964.957,2.425,2.425,0,0,1-1.388.41,3,3,0,0,1-1.6-.444A3.22,3.22,0,0,1,62.2,17.523a3.778,3.778,0,0,1-.431-1.832,4.154,4.154,0,0,1,.431-1.955,3.111,3.111,0,0,1,1.183-1.265A3.243,3.243,0,0,1,65.064,12.027Zm.205,1.107a2.144,2.144,0,0,0-1.258.362,2.4,2.4,0,0,0-.8.943,2.842,2.842,0,0,0-.28,1.251,2.652,2.652,0,0,0,.273,1.2,2.209,2.209,0,0,0,.772.875,2.055,2.055,0,0,0,1.155.328,1.975,1.975,0,0,0,1.121-.328,2.287,2.287,0,0,0,.779-.9,2.746,2.746,0,0,0,.273-1.3l-.014-1.312a3.479,3.479,0,0,0-.909-.827A2.108,2.108,0,0,0,65.27,13.135Z" transform="translate(889 2824)" fill="#6d44e5"/>
    <path id="Path_24825" data-name="Path 24825" d="M3.719-9.3a3.314,3.314,0,0,1,1.333.232,6.412,6.412,0,0,1,.923.492V-7.3a5.159,5.159,0,0,0-.93-.54,2.8,2.8,0,0,0-1.189-.253A2.776,2.776,0,0,0,3-7.95a1.76,1.76,0,0,0-.745.458,1.119,1.119,0,0,0-.3.807.966.966,0,0,0,.4.834,5.771,5.771,0,0,0,.957.547l1.258.574a4.325,4.325,0,0,1,1.422.943,1.958,1.958,0,0,1,.479,1.381,2.1,2.1,0,0,1-.437,1.319,3.015,3.015,0,0,1-1.148.9A3.674,3.674,0,0,1,3.322.137,3.835,3.835,0,0,1,1.859-.137,6.026,6.026,0,0,1,.7-.752V-2.023a6.876,6.876,0,0,0,1.224.663,3.962,3.962,0,0,0,1.565.294,2.139,2.139,0,0,0,1.2-.342,1.072,1.072,0,0,0,.52-.943A.871.871,0,0,0,5-2.939a2.037,2.037,0,0,0-.513-.424,5.137,5.137,0,0,0-.588-.3L2.379-4.348a2.86,2.86,0,0,1-1.34-1.025A2.564,2.564,0,0,1,.684-6.727,2.186,2.186,0,0,1,1.1-8.032a2.927,2.927,0,0,1,1.114-.923A3.371,3.371,0,0,1,3.719-9.3ZM8.7-6.836,11.088-1.8l2.324-5.031h1.34L9.721,3.281h-1.3L10.377-.41,7.355-6.836Zm8.545,0v1.08A3.8,3.8,0,0,1,17.8-6.31a3.367,3.367,0,0,1,.772-.472,2.182,2.182,0,0,1,.9-.191,2.649,2.649,0,0,1,1.271.308,2.252,2.252,0,0,1,.916.93A3.222,3.222,0,0,1,22-4.17V0H20.877l-.014-4.061a2.057,2.057,0,0,0-.39-1.354,1.473,1.473,0,0,0-1.2-.465,1.808,1.808,0,0,0-1.087.4,4.868,4.868,0,0,0-.95.937V0H16.119V-6.836Zm9.967-.137a3.224,3.224,0,0,1,1.3.239,2.843,2.843,0,0,1,.752.431v1.135a4.257,4.257,0,0,0-.875-.5,2.962,2.962,0,0,0-1.176-.212,2.314,2.314,0,0,0-1.271.349,2.354,2.354,0,0,0-.841.916A2.65,2.65,0,0,0,24.8-3.377a2.621,2.621,0,0,0,.294,1.224,2.354,2.354,0,0,0,.841.916,2.314,2.314,0,0,0,1.271.349A2.962,2.962,0,0,0,28.383-1.1a4.257,4.257,0,0,0,.875-.5V-.465a2.492,2.492,0,0,1-.752.438,3.307,3.307,0,0,1-1.3.232,3.472,3.472,0,0,1-1.846-.492A3.545,3.545,0,0,1,24.1-1.593a3.575,3.575,0,0,1-.458-1.784A3.612,3.612,0,0,1,24.1-5.168,3.529,3.529,0,0,1,25.361-6.48,3.472,3.472,0,0,1,27.207-6.973Z" transform="translate(998 2665)" fill="#6d44e5"/>
    <path id="Path_24826" data-name="Path 24826" d="M-28.3-5.875v1.953h-4.109V0h-2.172V-10.469h7.141v1.953h-4.969v2.641Zm6.75-2.219a3.81,3.81,0,0,1,1.992.5,3.318,3.318,0,0,1,1.281,1.383,4.469,4.469,0,0,1,.445,2.039v.844h-5.719a2.071,2.071,0,0,0,.781,1.281,2.424,2.424,0,0,0,1.531.484,3.51,3.51,0,0,0,1.563-.344,5.4,5.4,0,0,0,1.125-.7L-18.57-.766A4.621,4.621,0,0,1-19.687-.1,3.914,3.914,0,0,1-21.32.234,4.334,4.334,0,0,1-23.453-.3,4.1,4.1,0,0,1-24.984-1.75a3.927,3.927,0,0,1-.57-2.109,4.361,4.361,0,0,1,.516-2.109,4.162,4.162,0,0,1,1.422-1.539A3.715,3.715,0,0,1-21.555-8.094ZM-21.6-6.359a1.77,1.77,0,0,0-1.234.453,2.349,2.349,0,0,0-.687,1.219h3.781a1.619,1.619,0,0,0-.625-1.258A2.037,2.037,0,0,0-21.6-6.359Zm9.031-1.734a3.81,3.81,0,0,1,1.992.5A3.318,3.318,0,0,1-9.3-6.211a4.469,4.469,0,0,1,.445,2.039v.844H-14.57a2.071,2.071,0,0,0,.781,1.281,2.424,2.424,0,0,0,1.531.484A3.51,3.51,0,0,0-10.7-1.906a5.4,5.4,0,0,0,1.125-.7L-9.586-.766A4.621,4.621,0,0,1-10.7-.1a3.914,3.914,0,0,1-1.633.336A4.334,4.334,0,0,1-14.469-.3,4.1,4.1,0,0,1-16-1.75a3.927,3.927,0,0,1-.57-2.109,4.361,4.361,0,0,1,.516-2.109,4.162,4.162,0,0,1,1.422-1.539A3.715,3.715,0,0,1-12.57-8.094Zm-.047,1.734a1.77,1.77,0,0,0-1.234.453,2.349,2.349,0,0,0-.687,1.219h3.781a1.619,1.619,0,0,0-.625-1.258A2.037,2.037,0,0,0-12.617-6.359Zm8.125-1.734a4.088,4.088,0,0,1,1.359.219,3.211,3.211,0,0,1,.969.5v1.75a5.889,5.889,0,0,0-.914-.484A2.774,2.774,0,0,0-4.2-6.344a1.436,1.436,0,0,0-.891.25.732.732,0,0,0-.328.594.68.68,0,0,0,.188.461,1.567,1.567,0,0,0,.719.367l.891.3A2.11,2.11,0,0,1-1.82-2.3a2.164,2.164,0,0,1-.414,1.3,2.834,2.834,0,0,1-1.109.9A3.561,3.561,0,0,1-4.883.234,4.86,4.86,0,0,1-6.43-.016,4.015,4.015,0,0,1-7.57-.562V-2.3a4.549,4.549,0,0,0,.719.391,5.607,5.607,0,0,0,.875.3,3.331,3.331,0,0,0,.828.117A1.66,1.66,0,0,0-4.234-1.7a.678.678,0,0,0,.32-.6.532.532,0,0,0-.266-.469,3.566,3.566,0,0,0-.781-.344l-.969-.344A2.22,2.22,0,0,1-7.18-4.3a2.386,2.386,0,0,1-.344-1.3,2.24,2.24,0,0,1,.383-1.3,2.6,2.6,0,0,1,1.07-.875A3.7,3.7,0,0,1-4.492-8.094Zm8.656-2.625a5.432,5.432,0,0,1,2.125.383A3.364,3.364,0,0,1,7.7-9.281a2.5,2.5,0,0,1,.508,1.547A2.416,2.416,0,0,1,7.8-6.344a2.84,2.84,0,0,1-1.039.938,3.079,3.079,0,0,1,.906.414,2.306,2.306,0,0,1,.719.766,2.354,2.354,0,0,1,.281,1.211,2.653,2.653,0,0,1-.531,1.6A3.7,3.7,0,0,1,6.648-.25,5.271,5.271,0,0,1,4.43.188q-.687,0-1.484-.055T1.43-.023Q.711-.125.211-.234V-10.328A17.216,17.216,0,0,1,2.1-10.617Q3.117-10.719,4.164-10.719Zm0,1.984a9.139,9.139,0,0,0-1.781.156v2.531H4.336a1.884,1.884,0,0,0,1.258-.391,1.252,1.252,0,0,0,.461-1A1.063,1.063,0,0,0,5.5-8.4,2.532,2.532,0,0,0,4.164-8.734ZM2.383-1.953A5.826,5.826,0,0,0,3.391-1.8q.57.039.914.039A2.814,2.814,0,0,0,5.8-2.125a1.13,1.13,0,0,0,.586-1.016,1.04,1.04,0,0,0-.609-.977A3.121,3.121,0,0,0,4.3-4.437H2.383ZM17.7-7.891v4.7a3.362,3.362,0,0,1-.469,1.8A3.122,3.122,0,0,1,15.953-.219a3.983,3.983,0,0,1-1.82.406A4.018,4.018,0,0,1,12.3-.219a3.07,3.07,0,0,1-1.266-1.164,3.406,3.406,0,0,1-.461-1.8v-4.7h2l.016,4.344a1.957,1.957,0,0,0,.422,1.375,1.464,1.464,0,0,0,1.125.453,1.47,1.47,0,0,0,1.117-.453,1.934,1.934,0,0,0,.43-1.375V-7.891Zm8.813,0v.484L22.43-1.7h4.234V0H19.57V-.5l3.906-5.7H19.8V-7.891Zm8.7,0v.484L31.133-1.7h4.234V0H28.273V-.5L32.18-6.2H28.508V-7.891Z" transform="translate(883 2560)" fill="#2a2a2a"/>
    <path id="Path_24827" data-name="Path 24827" d="M-65.406-10.469a4.261,4.261,0,0,1,1.438.25,4.045,4.045,0,0,1,1.273.734,3.607,3.607,0,0,1,.906,1.164,3.464,3.464,0,0,1,.336,1.555,3.35,3.35,0,0,1-.539,1.883,3.794,3.794,0,0,1-1.43,1.289,4.1,4.1,0,0,1-1.937.469,5.228,5.228,0,0,1-1.266-.141,4.628,4.628,0,0,1-.937-.328V0h-2.172V-10.469Zm-2.156,2.031v3.094a4.787,4.787,0,0,0,.836.242,4.974,4.974,0,0,0,1.008.1,2.086,2.086,0,0,0,1.492-.523,1.652,1.652,0,0,0,.555-1.242,1.41,1.41,0,0,0-.625-1.25,2.562,2.562,0,0,0-1.469-.422Zm11.078.344a3.128,3.128,0,0,1,1.3.3,3.161,3.161,0,0,1,1.094.8v-.891h1.984V0h-1.984V-1.328a3.185,3.185,0,0,1-1,1.1,2.6,2.6,0,0,1-1.531.461A3.346,3.346,0,0,1-58.383-.25a3.486,3.486,0,0,1-1.289-1.406,4.752,4.752,0,0,1-.484-2.234,4.784,4.784,0,0,1,.492-2.25,3.609,3.609,0,0,1,1.328-1.445A3.5,3.5,0,0,1-56.484-8.094Zm.406,1.938a1.784,1.784,0,0,0-1.07.32,2.183,2.183,0,0,0-.7.836,2.509,2.509,0,0,0-.25,1.109,2.241,2.241,0,0,0,.539,1.516,1.8,1.8,0,0,0,1.43.625,1.871,1.871,0,0,0,.992-.281,2.145,2.145,0,0,0,.75-.789,2.442,2.442,0,0,0,.289-1.227V-5.172a3.564,3.564,0,0,0-.914-.719A2.218,2.218,0,0,0-56.078-6.156Zm7.656-1.734,2.25,5.031,2.188-5.031h2.266L-47.453,3.75H-49.7l2.375-4.328-3.406-7.312Zm10.063,0v1a4.539,4.539,0,0,1,.867-.828,2.14,2.14,0,0,1,1.3-.375,2.976,2.976,0,0,1,1.5.383,2.588,2.588,0,0,1,1.047,1.148,4.807,4.807,0,0,1,1.094-1.086,2.44,2.44,0,0,1,1.453-.445,2.925,2.925,0,0,1,1.453.367,2.718,2.718,0,0,1,1.055,1.086,3.669,3.669,0,0,1,.4,1.8V0h-1.984l-.016-4.578A1.559,1.559,0,0,0-30.6-5.766a1.518,1.518,0,0,0-1.086-.391,1.327,1.327,0,0,0-.891.32,4.7,4.7,0,0,0-.7.758V0h-1.984l-.016-4.578A1.559,1.559,0,0,0-35.7-5.766a1.5,1.5,0,0,0-1.07-.391,1.409,1.409,0,0,0-.891.3,3.953,3.953,0,0,0-.7.711V0h-1.984V-7.891Zm15.891-.2a3.81,3.81,0,0,1,1.992.5A3.318,3.318,0,0,1-19.2-6.211a4.469,4.469,0,0,1,.445,2.039v.844h-5.719a2.071,2.071,0,0,0,.781,1.281,2.424,2.424,0,0,0,1.531.484,3.51,3.51,0,0,0,1.563-.344,5.4,5.4,0,0,0,1.125-.7l-.016,1.844A4.621,4.621,0,0,1-20.6-.1a3.914,3.914,0,0,1-1.633.336A4.334,4.334,0,0,1-24.367-.3,4.1,4.1,0,0,1-25.9-1.75a3.927,3.927,0,0,1-.57-2.109,4.361,4.361,0,0,1,.516-2.109,4.162,4.162,0,0,1,1.422-1.539A3.715,3.715,0,0,1-22.469-8.094Zm-.047,1.734a1.77,1.77,0,0,0-1.234.453,2.349,2.349,0,0,0-.687,1.219h3.781a1.619,1.619,0,0,0-.625-1.258A2.037,2.037,0,0,0-22.516-6.359Zm7.563-1.531v1.125a4.028,4.028,0,0,1,.977-.906,2.446,2.446,0,0,1,1.414-.422,2.737,2.737,0,0,1,2.016.813,3.311,3.311,0,0,1,.813,2.438V0h-1.984l-.016-4.578a1.636,1.636,0,0,0-.383-1.187,1.409,1.409,0,0,0-1.055-.391,1.628,1.628,0,0,0-.992.344A3.54,3.54,0,0,0-14.953-5V0h-1.984V-7.891Zm10.125-2.3v2.3h2.188v1.656H-4.828v3.406a1.309,1.309,0,0,0,.242.836.872.872,0,0,0,.727.3,2.486,2.486,0,0,0,.727-.094,2.278,2.278,0,0,0,.57-.266V-.469a2.508,2.508,0,0,1-.742.5,2.694,2.694,0,0,1-1.117.2,2.307,2.307,0,0,1-1.727-.68,2.557,2.557,0,0,1-.664-1.867V-6.234H-8.234V-7.25a3.294,3.294,0,0,0,1.383-1,5.39,5.39,0,0,0,1.008-1.937ZM9.547-5.672h3.563v4.266A5.546,5.546,0,0,1,11.445-.242,5.254,5.254,0,0,1,9.172.234a5.688,5.688,0,0,1-2.125-.4A5.493,5.493,0,0,1,5.281-1.289a5.256,5.256,0,0,1-1.2-1.727,5.477,5.477,0,0,1-.437-2.219,5.477,5.477,0,0,1,.438-2.219,5.256,5.256,0,0,1,1.2-1.727A5.493,5.493,0,0,1,7.047-10.3a5.688,5.688,0,0,1,2.125-.4,4.787,4.787,0,0,1,1.7.273,4.039,4.039,0,0,1,1.25.742V-7.5q-.375-.281-.781-.547a4.012,4.012,0,0,0-.914-.437,3.736,3.736,0,0,0-1.2-.172,3.281,3.281,0,0,0-1.7.453A3.416,3.416,0,0,0,6.313-6.984a3.37,3.37,0,0,0-.453,1.75,3.382,3.382,0,0,0,.453,1.742A3.336,3.336,0,0,0,7.531-2.273a3.325,3.325,0,0,0,1.7.445A3.222,3.222,0,0,0,10.391-2a2.607,2.607,0,0,0,.688-.375l.016-1.734H9.547Zm8.719-2.422a3.128,3.128,0,0,1,1.3.3,3.16,3.16,0,0,1,1.094.8v-.891h1.984V0H20.656V-1.328a3.185,3.185,0,0,1-1,1.1,2.6,2.6,0,0,1-1.531.461A3.346,3.346,0,0,1,16.367-.25a3.486,3.486,0,0,1-1.289-1.406,4.752,4.752,0,0,1-.484-2.234,4.784,4.784,0,0,1,.492-2.25,3.609,3.609,0,0,1,1.328-1.445A3.5,3.5,0,0,1,18.266-8.094Zm.406,1.938a1.784,1.784,0,0,0-1.07.32,2.183,2.183,0,0,0-.7.836,2.509,2.509,0,0,0-.25,1.109A2.241,2.241,0,0,0,17.2-2.375a1.8,1.8,0,0,0,1.43.625,1.871,1.871,0,0,0,.992-.281,2.145,2.145,0,0,0,.75-.789,2.442,2.442,0,0,0,.289-1.227V-5.172a3.564,3.564,0,0,0-.914-.719A2.218,2.218,0,0,0,18.672-6.156Zm9.266-4.031v2.3h2.188v1.656H27.938v3.406a1.309,1.309,0,0,0,.242.836.872.872,0,0,0,.727.3,2.486,2.486,0,0,0,.727-.094,2.278,2.278,0,0,0,.57-.266V-.469a2.508,2.508,0,0,1-.742.5,2.694,2.694,0,0,1-1.117.2,2.307,2.307,0,0,1-1.727-.68,2.557,2.557,0,0,1-.664-1.867V-6.234H24.531V-7.25a3.294,3.294,0,0,0,1.383-1,5.39,5.39,0,0,0,1.008-1.937Zm7.672,2.094a3.81,3.81,0,0,1,1.992.5,3.318,3.318,0,0,1,1.281,1.383,4.469,4.469,0,0,1,.445,2.039v.844H33.609a2.071,2.071,0,0,0,.781,1.281,2.424,2.424,0,0,0,1.531.484,3.51,3.51,0,0,0,1.563-.344,5.4,5.4,0,0,0,1.125-.7L38.594-.766A4.621,4.621,0,0,1,37.477-.1a3.914,3.914,0,0,1-1.633.336A4.334,4.334,0,0,1,33.711-.3,4.1,4.1,0,0,1,32.18-1.75a3.927,3.927,0,0,1-.57-2.109,4.361,4.361,0,0,1,.516-2.109,4.162,4.162,0,0,1,1.422-1.539A3.715,3.715,0,0,1,35.609-8.094Zm-.047,1.734a1.77,1.77,0,0,0-1.234.453,2.349,2.349,0,0,0-.687,1.219h3.781A1.619,1.619,0,0,0,36.8-5.945,2.037,2.037,0,0,0,35.563-6.359ZM52.109-7.891,49.375,0H47.938L46.094-5.109,44.25,0H42.8L40.078-7.891h2.156l1.453,4.672,1.7-4.672h1.422L48.5-3.219l1.453-4.672Zm4.188-.2a3.128,3.128,0,0,1,1.3.3,3.161,3.161,0,0,1,1.094.8v-.891h1.984V0H58.688V-1.328a3.185,3.185,0,0,1-1,1.1,2.6,2.6,0,0,1-1.531.461A3.346,3.346,0,0,1,54.4-.25a3.486,3.486,0,0,1-1.289-1.406,4.752,4.752,0,0,1-.484-2.234,4.784,4.784,0,0,1,.492-2.25,3.609,3.609,0,0,1,1.328-1.445A3.5,3.5,0,0,1,56.3-8.094ZM56.7-6.156a1.784,1.784,0,0,0-1.07.32,2.183,2.183,0,0,0-.7.836,2.509,2.509,0,0,0-.25,1.109,2.241,2.241,0,0,0,.539,1.516,1.8,1.8,0,0,0,1.43.625,1.871,1.871,0,0,0,.992-.281,2.145,2.145,0,0,0,.75-.789,2.442,2.442,0,0,0,.289-1.227V-5.172a3.564,3.564,0,0,0-.914-.719A2.218,2.218,0,0,0,56.7-6.156Zm7.656-1.734,2.25,5.031L68.8-7.891h2.266L65.328,3.75h-2.25L65.453-.578,62.047-7.891Z" transform="translate(883 2943)" fill="#2a2a2a"/>
    <path id="Path_24828" data-name="Path 24828" d="M-73.352-10.547-68.477,0h-2.547l-.8-1.953h-4.141L-76.758,0H-79.3l4.875-10.547ZM-73.883-7-75.2-3.8h2.625Zm10.375-1.094a3.211,3.211,0,0,1,1.438.281,4.96,4.96,0,0,1,.891.547v1.828a4.158,4.158,0,0,0-.914-.5,3.353,3.353,0,0,0-1.242-.2,2.145,2.145,0,0,0-1.1.3,2.227,2.227,0,0,0-.8.8,2.191,2.191,0,0,0-.3,1.141,2.159,2.159,0,0,0,.625,1.594,2.139,2.139,0,0,0,1.578.625,3.474,3.474,0,0,0,1.242-.2,3.933,3.933,0,0,0,.914-.492V-.562a3.819,3.819,0,0,1-.891.539,3.463,3.463,0,0,1-1.437.258,4,4,0,0,1-2.133-.57,4.181,4.181,0,0,1-1.469-1.516,4.077,4.077,0,0,1-.539-2.055,4.153,4.153,0,0,1,.3-1.578,4.189,4.189,0,0,1,.867-1.336,4.238,4.238,0,0,1,1.32-.93A3.943,3.943,0,0,1-63.508-8.094Zm7.688,0a3.211,3.211,0,0,1,1.438.281,4.96,4.96,0,0,1,.891.547v1.828a4.158,4.158,0,0,0-.914-.5,3.353,3.353,0,0,0-1.242-.2,2.145,2.145,0,0,0-1.1.3,2.227,2.227,0,0,0-.8.8,2.191,2.191,0,0,0-.3,1.141,2.159,2.159,0,0,0,.625,1.594,2.139,2.139,0,0,0,1.578.625,3.474,3.474,0,0,0,1.242-.2,3.933,3.933,0,0,0,.914-.492V-.562a3.819,3.819,0,0,1-.891.539A3.463,3.463,0,0,1-55.82.234a4,4,0,0,1-2.133-.57,4.181,4.181,0,0,1-1.469-1.516,4.077,4.077,0,0,1-.539-2.055,4.153,4.153,0,0,1,.3-1.578,4.189,4.189,0,0,1,.867-1.336,4.238,4.238,0,0,1,1.32-.93A3.943,3.943,0,0,1-55.82-8.094Zm7.766,0a4.117,4.117,0,0,1,2.109.555,4.375,4.375,0,0,1,1.539,1.5,3.937,3.937,0,0,1,.586,2.117,3.9,3.9,0,0,1-.586,2.109A4.4,4.4,0,0,1-45.945-.32a4.117,4.117,0,0,1-2.109.555,4.13,4.13,0,0,1-2.1-.555A4.312,4.312,0,0,1-51.7-1.812a3.937,3.937,0,0,1-.578-2.109A3.977,3.977,0,0,1-51.7-6.039a4.291,4.291,0,0,1,1.539-1.5A4.13,4.13,0,0,1-48.055-8.094Zm0,1.922a2.143,2.143,0,0,0-1.047.266,1.986,1.986,0,0,0-.773.766,2.4,2.4,0,0,0-.289,1.219A2.4,2.4,0,0,0-49.875-2.7a1.931,1.931,0,0,0,.773.758,2.194,2.194,0,0,0,1.047.258,2.194,2.194,0,0,0,1.047-.258,1.984,1.984,0,0,0,.781-.758,2.348,2.348,0,0,0,.3-1.219,2.348,2.348,0,0,0-.3-1.219,2.04,2.04,0,0,0-.781-.766A2.143,2.143,0,0,0-48.055-6.172Zm13.078-1.719v4.7a3.362,3.362,0,0,1-.469,1.8A3.122,3.122,0,0,1-36.719-.219a3.983,3.983,0,0,1-1.82.406,4.018,4.018,0,0,1-1.836-.406,3.07,3.07,0,0,1-1.266-1.164,3.406,3.406,0,0,1-.461-1.8v-4.7h2l.016,4.344a1.957,1.957,0,0,0,.422,1.375,1.464,1.464,0,0,0,1.125.453,1.47,1.47,0,0,0,1.117-.453,1.934,1.934,0,0,0,.43-1.375V-7.891Zm4.25,0v1.125a4.028,4.028,0,0,1,.977-.906,2.446,2.446,0,0,1,1.414-.422,2.737,2.737,0,0,1,2.016.813,3.311,3.311,0,0,1,.813,2.438V0h-1.984l-.016-4.578a1.636,1.636,0,0,0-.383-1.187,1.409,1.409,0,0,0-1.055-.391,1.628,1.628,0,0,0-.992.344A3.54,3.54,0,0,0-30.727-5V0h-1.984V-7.891Zm10.125-2.3v2.3h2.188v1.656H-20.6v3.406a1.309,1.309,0,0,0,.242.836.872.872,0,0,0,.727.3,2.486,2.486,0,0,0,.727-.094,2.278,2.278,0,0,0,.57-.266V-.469a2.508,2.508,0,0,1-.742.5,2.694,2.694,0,0,1-1.117.2,2.307,2.307,0,0,1-1.727-.68,2.557,2.557,0,0,1-.664-1.867V-6.234h-1.422V-7.25a3.294,3.294,0,0,0,1.383-1,5.39,5.39,0,0,0,1.008-1.937ZM-14.648-12a1.336,1.336,0,0,1,.969.4,1.28,1.28,0,0,1,.406.945,1.288,1.288,0,0,1-.406.938,1.323,1.323,0,0,1-.969.406,1.3,1.3,0,0,1-.961-.406,1.3,1.3,0,0,1-.4-.937,1.292,1.292,0,0,1,.4-.945A1.31,1.31,0,0,1-14.648-12Zm1.156,4.109V0h-1.984V-6.2h-1.266V-7.891Zm4.484,0v1.125a4.028,4.028,0,0,1,.977-.906,2.446,2.446,0,0,1,1.414-.422A2.737,2.737,0,0,1-4.6-7.281a3.311,3.311,0,0,1,.813,2.438V0H-5.773l-.016-4.578a1.636,1.636,0,0,0-.383-1.187,1.409,1.409,0,0,0-1.055-.391,1.628,1.628,0,0,0-.992.344A3.54,3.54,0,0,0-9.008-5V0h-1.984V-7.891Zm10.625-.2a3.128,3.128,0,0,1,1.3.3A3.16,3.16,0,0,1,4.008-7v-.891H5.992V-.2A4.139,4.139,0,0,1,5.4,2.07,3.92,3.92,0,0,1,3.82,3.492a4.753,4.753,0,0,1-2.156.492A4.089,4.089,0,0,1-.055,3.672,8.136,8.136,0,0,1-1.3,2.953V1.078q.359.219.758.469a4.281,4.281,0,0,0,.906.422,3.68,3.68,0,0,0,1.18.172A2.928,2.928,0,0,0,2.8,1.875a2.135,2.135,0,0,0,.883-.742A1.9,1.9,0,0,0,4.008.047V-1.328a3.185,3.185,0,0,1-1,1.1A2.6,2.6,0,0,1,1.477.234,3.346,3.346,0,0,1-.281-.25,3.486,3.486,0,0,1-1.57-1.656a4.752,4.752,0,0,1-.484-2.234,4.784,4.784,0,0,1,.492-2.25A3.609,3.609,0,0,1-.234-7.586,3.5,3.5,0,0,1,1.617-8.094Zm.406,1.953a1.784,1.784,0,0,0-1.07.32,2.2,2.2,0,0,0-.7.828,2.46,2.46,0,0,0-.25,1.1A2.212,2.212,0,0,0,.547-2.383a1.8,1.8,0,0,0,1.43.617,1.911,1.911,0,0,0,.992-.273,2.083,2.083,0,0,0,.75-.781,2.442,2.442,0,0,0,.289-1.227V-5.172a3.42,3.42,0,0,0-.914-.711A2.272,2.272,0,0,0,2.023-6.141ZM15.664-8.094a4.088,4.088,0,0,1,1.359.219,3.211,3.211,0,0,1,.969.5v1.75a5.889,5.889,0,0,0-.914-.484,2.774,2.774,0,0,0-1.117-.234,1.436,1.436,0,0,0-.891.25.732.732,0,0,0-.328.594.68.68,0,0,0,.188.461,1.567,1.567,0,0,0,.719.367l.891.3a2.11,2.11,0,0,1,1.8,2.078,2.164,2.164,0,0,1-.414,1.3,2.834,2.834,0,0,1-1.109.9,3.561,3.561,0,0,1-1.539.328,4.86,4.86,0,0,1-1.547-.25,4.015,4.015,0,0,1-1.141-.547V-2.3a4.549,4.549,0,0,0,.719.391,5.607,5.607,0,0,0,.875.3,3.331,3.331,0,0,0,.828.117,1.66,1.66,0,0,0,.914-.211.678.678,0,0,0,.32-.6.532.532,0,0,0-.266-.469,3.566,3.566,0,0,0-.781-.344l-.969-.344a2.22,2.22,0,0,1-1.25-.844,2.386,2.386,0,0,1-.344-1.3,2.24,2.24,0,0,1,.383-1.3,2.6,2.6,0,0,1,1.07-.875A3.7,3.7,0,0,1,15.664-8.094Zm8.031,0a4.117,4.117,0,0,1,2.109.555,4.375,4.375,0,0,1,1.539,1.5,3.937,3.937,0,0,1,.586,2.117,3.9,3.9,0,0,1-.586,2.109A4.4,4.4,0,0,1,25.8-.32,4.117,4.117,0,0,1,23.7.234a4.13,4.13,0,0,1-2.1-.555,4.312,4.312,0,0,1-1.539-1.492,3.937,3.937,0,0,1-.578-2.109,3.977,3.977,0,0,1,.578-2.117,4.291,4.291,0,0,1,1.539-1.5A4.13,4.13,0,0,1,23.7-8.094Zm0,1.922a2.143,2.143,0,0,0-1.047.266,1.986,1.986,0,0,0-.773.766,2.4,2.4,0,0,0-.289,1.219A2.4,2.4,0,0,0,21.875-2.7a1.931,1.931,0,0,0,.773.758,2.194,2.194,0,0,0,1.047.258,2.194,2.194,0,0,0,1.047-.258,1.984,1.984,0,0,0,.781-.758,2.348,2.348,0,0,0,.3-1.219,2.348,2.348,0,0,0-.3-1.219,2.04,2.04,0,0,0-.781-.766A2.143,2.143,0,0,0,23.7-6.172ZM34.43-7.891v1.656H32.383V0H30.4V-6.234H29.2V-7.891h1.2v-.7a3.005,3.005,0,0,1,.383-1.555,2.632,2.632,0,0,1,1.008-.992,2.806,2.806,0,0,1,1.375-.344,3.138,3.138,0,0,1,.875.109,2.373,2.373,0,0,1,.656.3v1.656a2.146,2.146,0,0,0-1.187-.3,1.229,1.229,0,0,0-.8.3,1.2,1.2,0,0,0-.328.945v.578Zm4.5-2.3v2.3h2.188v1.656H38.93v3.406a1.309,1.309,0,0,0,.242.836.872.872,0,0,0,.727.3,2.486,2.486,0,0,0,.727-.094,2.278,2.278,0,0,0,.57-.266V-.469a2.508,2.508,0,0,1-.742.5,2.694,2.694,0,0,1-1.117.2,2.307,2.307,0,0,1-1.727-.68,2.557,2.557,0,0,1-.664-1.867V-6.234H35.523V-7.25a3.294,3.294,0,0,0,1.383-1,5.39,5.39,0,0,0,1.008-1.937ZM54.2-7.891,51.461,0H50.023L48.18-5.109,46.336,0H44.883L42.164-7.891H44.32l1.453,4.672,1.7-4.672H48.9l1.688,4.672,1.453-4.672Zm4.188-.2a3.128,3.128,0,0,1,1.3.3,3.161,3.161,0,0,1,1.094.8v-.891h1.984V0H60.773V-1.328a3.185,3.185,0,0,1-1,1.1,2.6,2.6,0,0,1-1.531.461A3.346,3.346,0,0,1,56.484-.25,3.486,3.486,0,0,1,55.2-1.656a4.752,4.752,0,0,1-.484-2.234,4.784,4.784,0,0,1,.492-2.25,3.609,3.609,0,0,1,1.328-1.445A3.5,3.5,0,0,1,58.383-8.094Zm.406,1.938a1.784,1.784,0,0,0-1.07.32,2.183,2.183,0,0,0-.7.836,2.509,2.509,0,0,0-.25,1.109,2.241,2.241,0,0,0,.539,1.516,1.8,1.8,0,0,0,1.43.625,1.871,1.871,0,0,0,.992-.281,2.145,2.145,0,0,0,.75-.789,2.442,2.442,0,0,0,.289-1.227V-5.172a3.564,3.564,0,0,0-.914-.719A2.218,2.218,0,0,0,58.789-6.156Zm11.375.484a2.105,2.105,0,0,0-1.047-.281,1.561,1.561,0,0,0-1.141.445,4.374,4.374,0,0,0-.8,1.1V0H65.2V-7.891H67.18v1.484a4.389,4.389,0,0,1,.961-1.172A1.9,1.9,0,0,1,69.4-8.047a2,2,0,0,1,.766.141Zm4.984-2.422a3.81,3.81,0,0,1,1.992.5,3.318,3.318,0,0,1,1.281,1.383,4.469,4.469,0,0,1,.445,2.039v.844H73.148a2.071,2.071,0,0,0,.781,1.281,2.424,2.424,0,0,0,1.531.484,3.51,3.51,0,0,0,1.563-.344,5.4,5.4,0,0,0,1.125-.7L78.133-.766A4.621,4.621,0,0,1,77.016-.1a3.914,3.914,0,0,1-1.633.336A4.334,4.334,0,0,1,73.25-.3,4.1,4.1,0,0,1,71.719-1.75a3.927,3.927,0,0,1-.57-2.109,4.361,4.361,0,0,1,.516-2.109,4.162,4.162,0,0,1,1.422-1.539A3.715,3.715,0,0,1,75.148-8.094ZM75.1-6.359a1.77,1.77,0,0,0-1.234.453,2.349,2.349,0,0,0-.687,1.219h3.781a1.619,1.619,0,0,0-.625-1.258A2.037,2.037,0,0,0,75.1-6.359Z" transform="translate(1141 2560)" fill="#2a2a2a"/>
    <path id="Path_24829" data-name="Path 24829" d="M-48.774-1.162V0h-4.32V-1.162h1.545V-8h-1.545V-9.16h4.32V-8h-1.545v6.836Zm3.787-5.674v1.08a3.8,3.8,0,0,1,.561-.554,3.367,3.367,0,0,1,.772-.472,2.182,2.182,0,0,1,.9-.191,2.649,2.649,0,0,1,1.271.308,2.252,2.252,0,0,1,.916.93,3.222,3.222,0,0,1,.342,1.565V0h-1.121l-.014-4.061a2.057,2.057,0,0,0-.39-1.354,1.473,1.473,0,0,0-1.2-.465,1.808,1.808,0,0,0-1.087.4,4.868,4.868,0,0,0-.95.937V0h-1.121V-6.836Zm8.914-.137a3.567,3.567,0,0,1,1.121.171,2.657,2.657,0,0,1,.752.349v1.2a3.557,3.557,0,0,0-.779-.424,2.607,2.607,0,0,0-1.012-.205,1.365,1.365,0,0,0-.964.3.867.867,0,0,0-.321.629.923.923,0,0,0,.185.526,1.278,1.278,0,0,0,.649.431l1.148.41a2.038,2.038,0,0,1,1,.67,1.661,1.661,0,0,1,.328,1.025,1.849,1.849,0,0,1-.321,1.053,2.236,2.236,0,0,1-.889.759,2.911,2.911,0,0,1-1.306.28,3.57,3.57,0,0,1-.827-.1,4.973,4.973,0,0,1-.772-.246A3.2,3.2,0,0,1-38.589-.4V-1.6a3.959,3.959,0,0,0,.54.308A4.68,4.68,0,0,0-37.3-1a2.635,2.635,0,0,0,.738.116,1.639,1.639,0,0,0,1.019-.287.865.865,0,0,0,.376-.711.617.617,0,0,0-.253-.52,2.921,2.921,0,0,0-.731-.369l-1.012-.369A1.94,1.94,0,0,1-38.22-3.9a2.083,2.083,0,0,1-.26-1.046A1.843,1.843,0,0,1-37.823-6.4,2.563,2.563,0,0,1-36.073-6.973Zm5.7-1.832v1.969h2v1.053h-2v4.006a.972.972,0,0,0,.219.67.851.851,0,0,0,.67.246,1.964,1.964,0,0,0,.684-.1,2.932,2.932,0,0,0,.479-.226v.916A2.459,2.459,0,0,1-28.9.075a2.168,2.168,0,0,1-.827.13,1.629,1.629,0,0,1-1.319-.526,2.1,2.1,0,0,1-.444-1.4V-5.783h-1.312v-.328A2.615,2.615,0,0,0-31.685-7.1a7.506,7.506,0,0,0,.793-1.7Zm6.85,1.832a2.845,2.845,0,0,1,1.2.28,3.142,3.142,0,0,1,1.046.772v-.916h1.121V0H-21.28V-1.162a3.383,3.383,0,0,1-.964.957,2.425,2.425,0,0,1-1.388.41,3,3,0,0,1-1.6-.444,3.22,3.22,0,0,1-1.155-1.237,3.778,3.778,0,0,1-.431-1.832,4.154,4.154,0,0,1,.431-1.955A3.111,3.111,0,0,1-25.2-6.528,3.243,3.243,0,0,1-23.522-6.973Zm.205,1.094a2.115,2.115,0,0,0-1.258.369,2.454,2.454,0,0,0-.8.95,2.842,2.842,0,0,0-.28,1.251,2.7,2.7,0,0,0,.273,1.21,2.2,2.2,0,0,0,.772.882,2.055,2.055,0,0,0,1.155.328,1.975,1.975,0,0,0,1.121-.328,2.277,2.277,0,0,0,.779-.909,2.786,2.786,0,0,0,.273-1.306l-.014-1.312a3.6,3.6,0,0,0-.909-.834A2.071,2.071,0,0,0-23.317-5.879Zm6.6-3.965V0h-1.121V-9.844Zm3.445,0V0H-14.39V-9.844Zm3.445,3.008v.875a3.849,3.849,0,0,1,.841-.69,2.231,2.231,0,0,1,1.21-.321,2.851,2.851,0,0,1,1.381.349,2.309,2.309,0,0,1,.984,1.046,5.856,5.856,0,0,1,1.039-.984,2.163,2.163,0,0,1,1.313-.41,2.853,2.853,0,0,1,1.306.308,2.409,2.409,0,0,1,.984.93A2.983,2.983,0,0,1-.39-4.17V0H-1.511l-.014-4.061a1.85,1.85,0,0,0-.458-1.354,1.7,1.7,0,0,0-1.265-.465,1.541,1.541,0,0,0-1.025.369,6.257,6.257,0,0,0-.834.861V0H-6.228l-.014-4.061A1.85,1.85,0,0,0-6.7-5.414a1.7,1.7,0,0,0-1.265-.465,1.709,1.709,0,0,0-1.019.328,4.439,4.439,0,0,0-.841.793V0h-1.121V-6.836ZM4.546-6.973a3.236,3.236,0,0,1,1.75.438A2.731,2.731,0,0,1,7.342-5.346a3.984,3.984,0,0,1,.349,1.7v.67H2.44a2.55,2.55,0,0,0,.4,1.053,2.3,2.3,0,0,0,.82.759,2.358,2.358,0,0,0,1.162.28A2.688,2.688,0,0,0,6.2-1.265a5.032,5.032,0,0,0,1.08-.827L7.267-.875A2.655,2.655,0,0,1,6.7-.39a3.791,3.791,0,0,1-.861.424A3.044,3.044,0,0,1,4.819.205,3.472,3.472,0,0,1,2.974-.287,3.545,3.545,0,0,1,1.709-1.593a3.575,3.575,0,0,1-.458-1.784,3.844,3.844,0,0,1,.424-1.791A3.428,3.428,0,0,1,2.844-6.48,3.018,3.018,0,0,1,4.546-6.973Zm0,1.094a1.853,1.853,0,0,0-1.395.567,2.544,2.544,0,0,0-.684,1.374H6.583a2.213,2.213,0,0,0-.376-1.094,1.984,1.984,0,0,0-.745-.636A2.076,2.076,0,0,0,4.546-5.879Zm6.111-.957v1.08a3.8,3.8,0,0,1,.561-.554,3.367,3.367,0,0,1,.772-.472,2.182,2.182,0,0,1,.9-.191,2.649,2.649,0,0,1,1.271.308,2.252,2.252,0,0,1,.916.93,3.222,3.222,0,0,1,.342,1.565V0H14.294L14.28-4.061a2.057,2.057,0,0,0-.39-1.354,1.473,1.473,0,0,0-1.2-.465,1.808,1.808,0,0,0-1.087.4,4.868,4.868,0,0,0-.95.937V0H9.536V-6.836ZM19.421-8.8v1.969h2v1.053h-2v4.006a.972.972,0,0,0,.219.67.851.851,0,0,0,.67.246,1.964,1.964,0,0,0,.684-.1,2.932,2.932,0,0,0,.479-.226v.916a2.459,2.459,0,0,1-.581.349,2.168,2.168,0,0,1-.827.13,1.629,1.629,0,0,1-1.319-.526,2.1,2.1,0,0,1-.444-1.4V-5.783H16.987v-.328A2.615,2.615,0,0,0,18.108-7.1,7.506,7.506,0,0,0,18.9-8.8Zm17.1,1.969L34.132,0h-.7L31.562-4.826,29.688,0h-.7L26.6-6.836h1.34l1.518,4.8,1.791-4.8h.629l1.791,4.8,1.518-4.8Zm2.461-3.281a.878.878,0,0,1,.663.28.914.914,0,0,1,.267.649.922.922,0,0,1-.267.643.868.868,0,0,1-.663.287.868.868,0,0,1-.663-.287.922.922,0,0,1-.267-.643.914.914,0,0,1,.267-.649A.878.878,0,0,1,38.985-10.117Zm.7,3.281V0H38.562V-5.783h-1.08V-6.836Zm4.457-.137a3.567,3.567,0,0,1,1.121.171,2.657,2.657,0,0,1,.752.349v1.2a3.557,3.557,0,0,0-.779-.424,2.607,2.607,0,0,0-1.012-.205,1.365,1.365,0,0,0-.964.3.867.867,0,0,0-.321.629.923.923,0,0,0,.185.526,1.278,1.278,0,0,0,.649.431l1.148.41a2.038,2.038,0,0,1,1,.67,1.661,1.661,0,0,1,.328,1.025,1.849,1.849,0,0,1-.321,1.053,2.236,2.236,0,0,1-.889.759,2.911,2.911,0,0,1-1.306.28A3.57,3.57,0,0,1,42.9.1a4.973,4.973,0,0,1-.772-.246A3.2,3.2,0,0,1,41.624-.4V-1.6a3.959,3.959,0,0,0,.54.308A4.68,4.68,0,0,0,42.909-1a2.635,2.635,0,0,0,.738.116,1.639,1.639,0,0,0,1.019-.287.865.865,0,0,0,.376-.711.617.617,0,0,0-.253-.52,2.921,2.921,0,0,0-.731-.369l-1.012-.369A1.94,1.94,0,0,1,41.993-3.9a2.083,2.083,0,0,1-.26-1.046A1.843,1.843,0,0,1,42.39-6.4,2.563,2.563,0,0,1,44.14-6.973Zm6.631,0a3.236,3.236,0,0,1,1.75.438,2.731,2.731,0,0,1,1.046,1.189,3.984,3.984,0,0,1,.349,1.7v.67h-5.25a2.55,2.55,0,0,0,.4,1.053,2.3,2.3,0,0,0,.82.759,2.358,2.358,0,0,0,1.162.28,2.688,2.688,0,0,0,1.381-.376,5.032,5.032,0,0,0,1.08-.827L53.491-.875a2.655,2.655,0,0,1-.567.485,3.791,3.791,0,0,1-.861.424,3.044,3.044,0,0,1-1.019.171A3.472,3.472,0,0,1,49.2-.287a3.545,3.545,0,0,1-1.265-1.306,3.575,3.575,0,0,1-.458-1.784A3.844,3.844,0,0,1,47.9-5.168,3.428,3.428,0,0,1,49.068-6.48,3.018,3.018,0,0,1,50.771-6.973Zm0,1.094a1.853,1.853,0,0,0-1.395.567,2.544,2.544,0,0,0-.684,1.374h4.115a2.213,2.213,0,0,0-.376-1.094,1.984,1.984,0,0,0-.745-.636A2.076,2.076,0,0,0,50.771-5.879ZM-42.5,12.164v1.053h-2V19h-1.121V13.217H-46.7V12.164h1.08v-.875A2.491,2.491,0,0,1-45.3,9.97,2.028,2.028,0,0,1-44.5,9.2a2.163,2.163,0,0,1,1-.253,1.7,1.7,0,0,1,1.135.369V10.3a1.748,1.748,0,0,0-.492-.219,1.771,1.771,0,0,0-.574-.068,1.051,1.051,0,0,0-.786.321,1.6,1.6,0,0,0-.28,1.073v.752Zm4.307-.137a3.236,3.236,0,0,1,1.75.438A2.731,2.731,0,0,1-35.4,13.654a3.984,3.984,0,0,1,.349,1.7v.67H-40.3a2.55,2.55,0,0,0,.4,1.053,2.3,2.3,0,0,0,.82.759,2.358,2.358,0,0,0,1.162.28,2.688,2.688,0,0,0,1.381-.376,5.032,5.032,0,0,0,1.08-.827l-.014,1.217a2.655,2.655,0,0,1-.567.485,3.791,3.791,0,0,1-.861.424,3.044,3.044,0,0,1-1.019.171,3.472,3.472,0,0,1-1.846-.492,3.545,3.545,0,0,1-1.265-1.306,3.575,3.575,0,0,1-.458-1.784,3.844,3.844,0,0,1,.424-1.791,3.428,3.428,0,0,1,1.169-1.312A3.018,3.018,0,0,1-38.192,12.027Zm0,1.094a1.853,1.853,0,0,0-1.395.567,2.544,2.544,0,0,0-.684,1.374h4.115a2.213,2.213,0,0,0-.376-1.094,1.984,1.984,0,0,0-.745-.636A2.076,2.076,0,0,0-38.192,13.121Zm7.807-1.094a3.236,3.236,0,0,1,1.75.438,2.731,2.731,0,0,1,1.046,1.189,3.984,3.984,0,0,1,.349,1.7v.67h-5.25a2.55,2.55,0,0,0,.4,1.053,2.3,2.3,0,0,0,.82.759,2.358,2.358,0,0,0,1.162.28,2.688,2.688,0,0,0,1.381-.376,5.032,5.032,0,0,0,1.08-.827l-.014,1.217a2.655,2.655,0,0,1-.567.485,3.791,3.791,0,0,1-.861.424,3.044,3.044,0,0,1-1.019.171,3.472,3.472,0,0,1-1.846-.492,3.545,3.545,0,0,1-1.265-1.306,3.575,3.575,0,0,1-.458-1.784,3.844,3.844,0,0,1,.424-1.791,3.428,3.428,0,0,1,1.169-1.312A3.018,3.018,0,0,1-30.386,12.027Zm0,1.094a1.853,1.853,0,0,0-1.395.567,2.544,2.544,0,0,0-.684,1.374h4.115a2.213,2.213,0,0,0-.376-1.094,1.984,1.984,0,0,0-.745-.636A2.076,2.076,0,0,0-30.386,13.121Zm7.027-1.094a3.567,3.567,0,0,1,1.121.171,2.657,2.657,0,0,1,.752.349v1.2a3.557,3.557,0,0,0-.779-.424,2.607,2.607,0,0,0-1.012-.205,1.365,1.365,0,0,0-.964.3.867.867,0,0,0-.321.629.923.923,0,0,0,.185.526,1.278,1.278,0,0,0,.649.431l1.148.41a2.038,2.038,0,0,1,1,.67,1.661,1.661,0,0,1,.328,1.025,1.849,1.849,0,0,1-.321,1.053,2.236,2.236,0,0,1-.889.759,2.911,2.911,0,0,1-1.306.28,3.57,3.57,0,0,1-.827-.1,4.973,4.973,0,0,1-.772-.246,3.2,3.2,0,0,1-.506-.253V17.4a3.958,3.958,0,0,0,.54.308,4.68,4.68,0,0,0,.745.287,2.635,2.635,0,0,0,.738.116,1.639,1.639,0,0,0,1.019-.287.865.865,0,0,0,.376-.711.617.617,0,0,0-.253-.52,2.921,2.921,0,0,0-.731-.369l-1.012-.369A1.94,1.94,0,0,1-25.5,15.1a2.083,2.083,0,0,1-.26-1.046,1.843,1.843,0,0,1,.656-1.449A2.563,2.563,0,0,1-23.358,12.027Zm11.006,0a3.224,3.224,0,0,1,1.3.239,2.843,2.843,0,0,1,.752.431v1.135a4.257,4.257,0,0,0-.875-.5,2.962,2.962,0,0,0-1.176-.212,2.314,2.314,0,0,0-1.271.349,2.354,2.354,0,0,0-.841.916,2.65,2.65,0,0,0-.294,1.237,2.621,2.621,0,0,0,.294,1.224,2.354,2.354,0,0,0,.841.916,2.314,2.314,0,0,0,1.271.349,2.962,2.962,0,0,0,1.176-.212,4.257,4.257,0,0,0,.875-.5v1.135a2.492,2.492,0,0,1-.752.438,3.307,3.307,0,0,1-1.3.232,3.472,3.472,0,0,1-1.846-.492,3.545,3.545,0,0,1-1.265-1.306,3.575,3.575,0,0,1-.458-1.784,3.612,3.612,0,0,1,.458-1.791A3.529,3.529,0,0,1-14.2,12.52,3.472,3.472,0,0,1-12.353,12.027Zm6.986,0a3.472,3.472,0,0,1,1.846.492,3.529,3.529,0,0,1,1.265,1.313A3.612,3.612,0,0,1-1.8,15.623a3.575,3.575,0,0,1-.458,1.784,3.545,3.545,0,0,1-1.265,1.306,3.472,3.472,0,0,1-1.846.492,3.472,3.472,0,0,1-1.846-.492,3.545,3.545,0,0,1-1.265-1.306,3.575,3.575,0,0,1-.458-1.784,3.612,3.612,0,0,1,.458-1.791A3.529,3.529,0,0,1-7.212,12.52,3.472,3.472,0,0,1-5.366,12.027Zm0,1.094a2.314,2.314,0,0,0-1.271.349,2.354,2.354,0,0,0-.841.916,2.65,2.65,0,0,0-.294,1.237,2.621,2.621,0,0,0,.294,1.224,2.354,2.354,0,0,0,.841.916,2.314,2.314,0,0,0,1.271.349,2.3,2.3,0,0,0,1.278-.349,2.372,2.372,0,0,0,.834-.916,2.621,2.621,0,0,0,.294-1.224,2.65,2.65,0,0,0-.294-1.237,2.372,2.372,0,0,0-.834-.916A2.3,2.3,0,0,0-5.366,13.121ZM1.169,9.156V19H.048V9.156Zm3.445,0V19H3.493V9.156Zm5.141,2.871a3.236,3.236,0,0,1,1.75.438,2.731,2.731,0,0,1,1.046,1.189,3.984,3.984,0,0,1,.349,1.7v.67H7.649a2.55,2.55,0,0,0,.4,1.053,2.3,2.3,0,0,0,.82.759,2.358,2.358,0,0,0,1.162.28,2.688,2.688,0,0,0,1.381-.376,5.032,5.032,0,0,0,1.08-.827l-.014,1.217a2.655,2.655,0,0,1-.567.485,3.791,3.791,0,0,1-.861.424,3.044,3.044,0,0,1-1.019.171,3.472,3.472,0,0,1-1.846-.492,3.571,3.571,0,0,1-1.723-3.09,3.844,3.844,0,0,1,.424-1.791A3.428,3.428,0,0,1,8.053,12.52,3.018,3.018,0,0,1,9.755,12.027Zm0,1.094a1.853,1.853,0,0,0-1.395.567,2.544,2.544,0,0,0-.684,1.374h4.115a2.213,2.213,0,0,0-.376-1.094,1.984,1.984,0,0,0-.745-.636A2.076,2.076,0,0,0,9.755,13.121Zm8.08-1.094a3.224,3.224,0,0,1,1.3.239,2.843,2.843,0,0,1,.752.431v1.135a4.257,4.257,0,0,0-.875-.5,2.962,2.962,0,0,0-1.176-.212,2.314,2.314,0,0,0-1.271.349,2.354,2.354,0,0,0-.841.916,2.65,2.65,0,0,0-.294,1.237,2.621,2.621,0,0,0,.294,1.224,2.354,2.354,0,0,0,.841.916,2.314,2.314,0,0,0,1.271.349,2.962,2.962,0,0,0,1.176-.212,4.257,4.257,0,0,0,.875-.5v1.135a2.492,2.492,0,0,1-.752.438,3.307,3.307,0,0,1-1.3.232,3.472,3.472,0,0,1-1.846-.492,3.571,3.571,0,0,1-1.723-3.09,3.612,3.612,0,0,1,.458-1.791,3.529,3.529,0,0,1,1.265-1.312A3.472,3.472,0,0,1,17.835,12.027ZM23.618,10.2v1.969h2v1.053h-2v4.006a.972.972,0,0,0,.219.67.851.851,0,0,0,.67.246,1.964,1.964,0,0,0,.684-.1,2.932,2.932,0,0,0,.479-.226v.916a2.459,2.459,0,0,1-.581.349,2.168,2.168,0,0,1-.827.13,1.629,1.629,0,0,1-1.319-.526,2.1,2.1,0,0,1-.444-1.4V13.217H21.185v-.328a2.615,2.615,0,0,0,1.121-.991,7.506,7.506,0,0,0,.793-1.7Zm5.127-1.312a.878.878,0,0,1,.663.28.916.916,0,0,1,0,1.292.909.909,0,0,1-1.326,0,.916.916,0,0,1,0-1.292A.878.878,0,0,1,28.745,8.883Zm.7,3.281V19H28.321V13.217h-1.08V12.164Zm5.51-.137a3.472,3.472,0,0,1,1.846.492,3.529,3.529,0,0,1,1.265,1.313,3.612,3.612,0,0,1,.458,1.791,3.571,3.571,0,0,1-1.723,3.09,3.707,3.707,0,0,1-3.691,0,3.571,3.571,0,0,1-1.723-3.09,3.612,3.612,0,0,1,.458-1.791,3.529,3.529,0,0,1,1.265-1.312A3.472,3.472,0,0,1,34.952,12.027Zm0,1.094a2.314,2.314,0,0,0-1.271.349,2.354,2.354,0,0,0-.841.916,2.65,2.65,0,0,0-.294,1.237,2.621,2.621,0,0,0,.294,1.224,2.354,2.354,0,0,0,.841.916,2.505,2.505,0,0,0,2.55,0,2.372,2.372,0,0,0,.834-.916,2.621,2.621,0,0,0,.294-1.224,2.65,2.65,0,0,0-.294-1.237,2.372,2.372,0,0,0-.834-.916A2.3,2.3,0,0,0,34.952,13.121Zm6.535-.957v1.08a3.8,3.8,0,0,1,.561-.554,3.367,3.367,0,0,1,.772-.472,2.182,2.182,0,0,1,.9-.191,2.649,2.649,0,0,1,1.271.308,2.252,2.252,0,0,1,.916.93,3.222,3.222,0,0,1,.342,1.565V19H45.124l-.014-4.061a2.057,2.057,0,0,0-.39-1.354,1.473,1.473,0,0,0-1.2-.465,1.808,1.808,0,0,0-1.087.4,4.868,4.868,0,0,0-.95.937V19H40.366V12.164Z" transform="translate(883 2742)" fill="#2a2a2a"/>
    <path id="Path_24830" data-name="Path 24830" d="M-6.1-5.277v1.162h-4.457v2.953h5.045V0h-6.275V-9.16h6.275V-8h-5.045v2.721ZM.595-9.16a4,4,0,0,1,1.518.294,2.834,2.834,0,0,1,1.2.9A2.458,2.458,0,0,1,3.78-6.412a2.181,2.181,0,0,1-.485,1.436,2.985,2.985,0,0,1-1.23.882A4.156,4.156,0,0,1,.526-3.8Q.28-3.8-.13-3.828L4.136,0H2.249L-1.688-3.828V0h-1.23V-9.16ZM-1.688-8v2.939A7.251,7.251,0,0,0-.7-4.867,8.273,8.273,0,0,0,.349-4.8a2.581,2.581,0,0,0,1.606-.437,1.408,1.408,0,0,0,.567-1.176A1.325,1.325,0,0,0,1.9-7.588,2.684,2.684,0,0,0,.39-8ZM9.427-9.16a3.351,3.351,0,0,1,1.518.362,3.163,3.163,0,0,1,1.2,1.039,2.762,2.762,0,0,1,.472,1.62,2.651,2.651,0,0,1-.451,1.49,3.329,3.329,0,0,1-1.224,1.1,3.553,3.553,0,0,1-1.716.417,5.328,5.328,0,0,1-1.278-.144,5.357,5.357,0,0,1-.937-.308V0H5.776V-9.16ZM7.007-8V-4.7a6.037,6.037,0,0,0,.964.28,5.654,5.654,0,0,0,1.21.13,2.238,2.238,0,0,0,1.606-.54,1.737,1.737,0,0,0,.567-1.306,1.569,1.569,0,0,0-.321-1,2.115,2.115,0,0,0-.841-.636A2.75,2.75,0,0,0,9.085-8Z" transform="translate(1141 2657)" fill="#2a2a2a"/>
    <path id="Path_24831" data-name="Path 24831" d="M-9.208-9.365a4.169,4.169,0,0,1,1.634.273,3.946,3.946,0,0,1,1.114.711v1.354q-.3-.219-.677-.479a4.378,4.378,0,0,0-.875-.458,3.239,3.239,0,0,0-1.2-.2A3.6,3.6,0,0,0-11.04-7.7a3.39,3.39,0,0,0-1.271,1.278,3.64,3.64,0,0,0-.465,1.839,3.6,3.6,0,0,0,.465,1.832A3.456,3.456,0,0,0-11.04-1.47,3.561,3.561,0,0,0-9.208-1a4.217,4.217,0,0,0,1.8-.349,6.575,6.575,0,0,0,1.224-.718v1.23A4.234,4.234,0,0,1-7.437-.1,4.758,4.758,0,0,1-9.208.205a4.8,4.8,0,0,1-1.914-.376A4.852,4.852,0,0,1-12.653-1.2a4.686,4.686,0,0,1-1.019-1.524,4.761,4.761,0,0,1-.362-1.853,4.761,4.761,0,0,1,.362-1.853,4.686,4.686,0,0,1,1.019-1.524,4.852,4.852,0,0,1,1.531-1.032A4.8,4.8,0,0,1-9.208-9.365Zm8.723.205a4,4,0,0,1,1.518.294,2.834,2.834,0,0,1,1.2.9A2.458,2.458,0,0,1,2.7-6.412a2.181,2.181,0,0,1-.485,1.436,2.985,2.985,0,0,1-1.23.882A4.156,4.156,0,0,1-.554-3.8q-.246,0-.656-.027L3.056,0H1.169L-2.769-3.828V0H-4V-9.16ZM-2.769-8v2.939a7.251,7.251,0,0,0,.984.191A8.273,8.273,0,0,0-.731-4.8,2.581,2.581,0,0,0,.875-5.236a1.408,1.408,0,0,0,.567-1.176A1.325,1.325,0,0,0,.82-7.588,2.684,2.684,0,0,0-.69-8ZM13.214-9.16V0h-1.23V-6.631L9.153-3.609H8.825l-2.9-3.021V0H4.7V-9.16h.383l3.91,4.2,3.842-4.2Z" transform="translate(1141 2709)" fill="#2a2a2a"/>
    <g id="Path_24832" data-name="Path 24832" transform="translate(1111 2480)" fill="#fff">
      <path d="M 30 59.5 C 26.01730918884277 59.5 22.15401077270508 58.72008895874023 18.51741981506348 57.18194961547852 C 15.00463962554932 55.69617080688477 11.84974002838135 53.56903839111328 9.140350341796875 50.85964965820312 C 6.430960178375244 48.15026092529297 4.303830146789551 44.995361328125 2.818049907684326 41.48257827758789 C 1.27990996837616 37.84598922729492 0.5 33.98268890380859 0.5 30 C 0.5 26.01730918884277 1.27990996837616 22.15401077270508 2.818049907684326 18.51741981506348 C 4.303830146789551 15.00463962554932 6.430960178375244 11.84974002838135 9.140350341796875 9.140350341796875 C 11.84974002838135 6.430960178375244 15.00463962554932 4.303830146789551 18.51741981506348 2.818049907684326 C 22.15401077270508 1.27990996837616 26.01730918884277 0.5 30 0.5 C 33.98268890380859 0.5 37.84598922729492 1.27990996837616 41.48257827758789 2.818049907684326 C 44.995361328125 4.303830146789551 48.15026092529297 6.430960178375244 50.85964965820312 9.140350341796875 C 53.56903839111328 11.84974002838135 55.69617080688477 15.00463962554932 57.18194961547852 18.51741981506348 C 58.72008895874023 22.15401077270508 59.5 26.01730918884277 59.5 30 C 59.5 33.98268890380859 58.72008895874023 37.84598922729492 57.18194961547852 41.48257827758789 C 55.69617080688477 44.995361328125 53.56903839111328 48.15026092529297 50.85964965820312 50.85964965820312 C 48.15026092529297 53.56903839111328 44.995361328125 55.69617080688477 41.48257827758789 57.18194961547852 C 37.84598922729492 58.72008895874023 33.98268890380859 59.5 30 59.5 Z" stroke="none"/>
      <path d="M 30 1 C 26.08457946777344 1 22.28681945800781 1.766620635986328 18.71220016479492 3.278549194335938 C 15.2590217590332 4.739128112792969 12.15753936767578 6.830268859863281 9.493900299072266 9.493900299072266 C 6.830268859863281 12.15753936767578 4.739128112792969 15.2590217590332 3.278549194335938 18.71220016479492 C 1.766620635986328 22.28681945800781 1 26.08457946777344 1 30 C 1 33.91542053222656 1.766620635986328 37.71318054199219 3.278549194335938 41.28779983520508 C 4.739128112792969 44.74098205566406 6.830268859863281 47.84246063232422 9.493900299072266 50.50609970092773 C 12.15753936767578 53.16973114013672 15.2590217590332 55.26087188720703 18.71220016479492 56.72145080566406 C 22.28681945800781 58.23337936401367 26.08457946777344 59 30 59 C 33.91542053222656 59 37.71318054199219 58.23337936401367 41.28779983520508 56.72145080566406 C 44.74098205566406 55.26087188720703 47.84246063232422 53.16973114013672 50.50609970092773 50.50609970092773 C 53.16973114013672 47.84246063232422 55.26087188720703 44.74098205566406 56.72145080566406 41.28779983520508 C 58.23337936401367 37.71318054199219 59 33.91542053222656 59 30 C 59 26.08457946777344 58.23337936401367 22.28681945800781 56.72145080566406 18.71220016479492 C 55.26087188720703 15.2590217590332 53.16973114013672 12.15753936767578 50.50609970092773 9.493900299072266 C 47.84246063232422 6.830268859863281 44.74098205566406 4.739128112792969 41.28779983520508 3.278549194335938 C 37.71318054199219 1.766620635986328 33.91542053222656 1 30 1 M 30 0 C 46.56853866577148 0 60 13.43146133422852 60 30 C 60 46.56853866577148 46.56853866577148 60 30 60 C 13.43146133422852 60 0 46.56853866577148 0 30 C 0 13.43146133422852 13.43146133422852 0 30 0 Z" stroke="none" fill="#85e6c4"/>
    </g>
    <g id="Path_24156" data-name="Path 24156" transform="translate(853 2480)" fill="#fff">
      <path d="M 30 59.5 C 26.01730918884277 59.5 22.15401077270508 58.72008895874023 18.51741981506348 57.18194961547852 C 15.00463962554932 55.69617080688477 11.84974002838135 53.56903839111328 9.140350341796875 50.85964965820312 C 6.430960178375244 48.15026092529297 4.303830146789551 44.995361328125 2.818049907684326 41.48257827758789 C 1.27990996837616 37.84598922729492 0.5 33.98268890380859 0.5 30 C 0.5 26.01730918884277 1.27990996837616 22.15401077270508 2.818049907684326 18.51741981506348 C 4.303830146789551 15.00463962554932 6.430960178375244 11.84974002838135 9.140350341796875 9.140350341796875 C 11.84974002838135 6.430960178375244 15.00463962554932 4.303830146789551 18.51741981506348 2.818049907684326 C 22.15401077270508 1.27990996837616 26.01730918884277 0.5 30 0.5 C 33.98268890380859 0.5 37.84598922729492 1.27990996837616 41.48257827758789 2.818049907684326 C 44.995361328125 4.303830146789551 48.15026092529297 6.430960178375244 50.85964965820312 9.140350341796875 C 53.56903839111328 11.84974002838135 55.69617080688477 15.00463962554932 57.18194961547852 18.51741981506348 C 58.72008895874023 22.15401077270508 59.5 26.01730918884277 59.5 30 C 59.5 33.98268890380859 58.72008895874023 37.84598922729492 57.18194961547852 41.48257827758789 C 55.69617080688477 44.995361328125 53.56903839111328 48.15026092529297 50.85964965820312 50.85964965820312 C 48.15026092529297 53.56903839111328 44.995361328125 55.69617080688477 41.48257827758789 57.18194961547852 C 37.84598922729492 58.72008895874023 33.98268890380859 59.5 30 59.5 Z" stroke="none"/>
      <path d="M 30 1 C 26.08457946777344 1 22.28681945800781 1.766620635986328 18.71220016479492 3.278549194335938 C 15.2590217590332 4.739128112792969 12.15753936767578 6.830268859863281 9.493900299072266 9.493900299072266 C 6.830268859863281 12.15753936767578 4.739128112792969 15.2590217590332 3.278549194335938 18.71220016479492 C 1.766620635986328 22.28681945800781 1 26.08457946777344 1 30 C 1 33.91542053222656 1.766620635986328 37.71318054199219 3.278549194335938 41.28779983520508 C 4.739128112792969 44.74098205566406 6.830268859863281 47.84246063232422 9.493900299072266 50.50609970092773 C 12.15753936767578 53.16973114013672 15.2590217590332 55.26087188720703 18.71220016479492 56.72145080566406 C 22.28681945800781 58.23337936401367 26.08457946777344 59 30 59 C 33.91542053222656 59 37.71318054199219 58.23337936401367 41.28779983520508 56.72145080566406 C 44.74098205566406 55.26087188720703 47.84246063232422 53.16973114013672 50.50609970092773 50.50609970092773 C 53.16973114013672 47.84246063232422 55.26087188720703 44.74098205566406 56.72145080566406 41.28779983520508 C 58.23337936401367 37.71318054199219 59 33.91542053222656 59 30 C 59 26.08457946777344 58.23337936401367 22.28681945800781 56.72145080566406 18.71220016479492 C 55.26087188720703 15.2590217590332 53.16973114013672 12.15753936767578 50.50609970092773 9.493900299072266 C 47.84246063232422 6.830268859863281 44.74098205566406 4.739128112792969 41.28779983520508 3.278549194335938 C 37.71318054199219 1.766620635986328 33.91542053222656 1 30 1 M 30 0 C 46.56853866577148 0 60 13.43146133422852 60 30 C 60 46.56853866577148 46.56853866577148 60 30 60 C 13.43146133422852 60 0 46.56853866577148 0 30 C 0 13.43146133422852 13.43146133422852 0 30 0 Z" stroke="none" fill="#6d44e5"/>
    </g>
    <g id="Path_24833" data-name="Path 24833" transform="translate(853 2856)" fill="#fff">
      <path d="M 30 59.5 C 26.01730918884277 59.5 22.15401077270508 58.72008895874023 18.51741981506348 57.18194961547852 C 15.00463962554932 55.69617080688477 11.84974002838135 53.56903839111328 9.140350341796875 50.85964965820312 C 6.430960178375244 48.15026092529297 4.303830146789551 44.995361328125 2.818049907684326 41.48257827758789 C 1.27990996837616 37.84598922729492 0.5 33.98268890380859 0.5 30 C 0.5 26.01730918884277 1.27990996837616 22.15401077270508 2.818049907684326 18.51741981506348 C 4.303830146789551 15.00463962554932 6.430960178375244 11.84974002838135 9.140350341796875 9.140350341796875 C 11.84974002838135 6.430960178375244 15.00463962554932 4.303830146789551 18.51741981506348 2.818049907684326 C 22.15401077270508 1.27990996837616 26.01730918884277 0.5 30 0.5 C 33.98268890380859 0.5 37.84598922729492 1.27990996837616 41.48257827758789 2.818049907684326 C 44.995361328125 4.303830146789551 48.15026092529297 6.430960178375244 50.85964965820312 9.140350341796875 C 53.56903839111328 11.84974002838135 55.69617080688477 15.00463962554932 57.18194961547852 18.51741981506348 C 58.72008895874023 22.15401077270508 59.5 26.01730918884277 59.5 30 C 59.5 33.98268890380859 58.72008895874023 37.84598922729492 57.18194961547852 41.48257827758789 C 55.69617080688477 44.995361328125 53.56903839111328 48.15026092529297 50.85964965820312 50.85964965820312 C 48.15026092529297 53.56903839111328 44.995361328125 55.69617080688477 41.48257827758789 57.18194961547852 C 37.84598922729492 58.72008895874023 33.98268890380859 59.5 30 59.5 Z" stroke="none"/>
      <path d="M 30 1 C 26.08457946777344 1 22.28681945800781 1.766620635986328 18.71220016479492 3.278549194335938 C 15.2590217590332 4.739128112792969 12.15753936767578 6.830268859863281 9.493900299072266 9.493900299072266 C 6.830268859863281 12.15753936767578 4.739128112792969 15.2590217590332 3.278549194335938 18.71220016479492 C 1.766620635986328 22.28681945800781 1 26.08457946777344 1 30 C 1 33.91542053222656 1.766620635986328 37.71318054199219 3.278549194335938 41.28779983520508 C 4.739128112792969 44.74098205566406 6.830268859863281 47.84246063232422 9.493900299072266 50.50609970092773 C 12.15753936767578 53.16973114013672 15.2590217590332 55.26087188720703 18.71220016479492 56.72145080566406 C 22.28681945800781 58.23337936401367 26.08457946777344 59 30 59 C 33.91542053222656 59 37.71318054199219 58.23337936401367 41.28779983520508 56.72145080566406 C 44.74098205566406 55.26087188720703 47.84246063232422 53.16973114013672 50.50609970092773 50.50609970092773 C 53.16973114013672 47.84246063232422 55.26087188720703 44.74098205566406 56.72145080566406 41.28779983520508 C 58.23337936401367 37.71318054199219 59 33.91542053222656 59 30 C 59 26.08457946777344 58.23337936401367 22.28681945800781 56.72145080566406 18.71220016479492 C 55.26087188720703 15.2590217590332 53.16973114013672 12.15753936767578 50.50609970092773 9.493900299072266 C 47.84246063232422 6.830268859863281 44.74098205566406 4.739128112792969 41.28779983520508 3.278549194335938 C 37.71318054199219 1.766620635986328 33.91542053222656 1 30 1 M 30 0 C 46.56853866577148 0 60 13.43146133422852 60 30 C 60 46.56853866577148 46.56853866577148 60 30 60 C 13.43146133422852 60 0 46.56853866577148 0 30 C 0 13.43146133422852 13.43146133422852 0 30 0 Z" stroke="none" fill="#6d44e5"/>
    </g>
    <g id="Path_24834" data-name="Path 24834" transform="translate(1062 2580)" fill="none">
      <path d="M5,0H153a5,5,0,0,1,5,5V35a5,5,0,0,1-5,5H5a5,5,0,0,1-5-5V5A5,5,0,0,1,5,0Z" stroke="none"/>
      <path d="M 5 1 C 2.794403076171875 1 1 2.794399261474609 1 5 L 1 35 C 1 37.20560073852539 2.794403076171875 39 5 39 L 153 39 C 155.2055969238281 39 157 37.20560073852539 157 35 L 157 5 C 157 2.794399261474609 155.2055969238281 1 153 1 L 5 1 M 5 0 L 153 0 C 155.7614135742188 0 158 2.238578796386719 158 5 L 158 35 C 158 37.76142120361328 155.7614135742188 40 153 40 L 5 40 C 2.238555908203125 40 0 37.76142120361328 0 35 L 0 5 C 0 2.238578796386719 2.238555908203125 0 5 0 Z" stroke="none" fill="#e6e6e6"/>
    </g>
    <g id="Path_24835" data-name="Path 24835" transform="translate(1062 2632)" fill="none">
      <path d="M5,0H153a5,5,0,0,1,5,5V35a5,5,0,0,1-5,5H5a5,5,0,0,1-5-5V5A5,5,0,0,1,5,0Z" stroke="none"/>
      <path d="M 5 1 C 2.794403076171875 1 1 2.794399261474609 1 5 L 1 35 C 1 37.20560073852539 2.794403076171875 39 5 39 L 153 39 C 155.2055969238281 39 157 37.20560073852539 157 35 L 157 5 C 157 2.794399261474609 155.2055969238281 1 153 1 L 5 1 M 5 0 L 153 0 C 155.7614135742188 0 158 2.238578796386719 158 5 L 158 35 C 158 37.76142120361328 155.7614135742188 40 153 40 L 5 40 C 2.238555908203125 40 0 37.76142120361328 0 35 L 0 5 C 0 2.238578796386719 2.238555908203125 0 5 0 Z" stroke="none" fill="#e6e6e6"/>
    </g>
    <g id="Path_24836" data-name="Path 24836" transform="translate(1062 2684)" fill="none">
      <path d="M5,0H153a5,5,0,0,1,5,5V35a5,5,0,0,1-5,5H5a5,5,0,0,1-5-5V5A5,5,0,0,1,5,0Z" stroke="none"/>
      <path d="M 5 1 C 2.794403076171875 1 1 2.794399261474609 1 5 L 1 35 C 1 37.20560073852539 2.794403076171875 39 5 39 L 153 39 C 155.2055969238281 39 157 37.20560073852539 157 35 L 157 5 C 157 2.794399261474609 155.2055969238281 1 153 1 L 5 1 M 5 0 L 153 0 C 155.7614135742188 0 158 2.238578796386719 158 5 L 158 35 C 158 37.76142120361328 155.7614135742188 40 153 40 L 5 40 C 2.238555908203125 40 0 37.76142120361328 0 35 L 0 5 C 0 2.238578796386719 2.238555908203125 0 5 0 Z" stroke="none" fill="#e6e6e6"/>
    </g>
    <g id="Path_24837" data-name="Path 24837" transform="translate(1062 2736)" fill="none">
      <path d="M5,0H153a5,5,0,0,1,5,5V35a5,5,0,0,1-5,5H5a5,5,0,0,1-5-5V5A5,5,0,0,1,5,0Z" stroke="none"/>
      <path d="M 5 1 C 2.794403076171875 1 1 2.794399261474609 1 5 L 1 35 C 1 37.20560073852539 2.794403076171875 39 5 39 L 153 39 C 155.2055969238281 39 157 37.20560073852539 157 35 L 157 5 C 157 2.794399261474609 155.2055969238281 1 153 1 L 5 1 M 5 0 L 153 0 C 155.7614135742188 0 158 2.238578796386719 158 5 L 158 35 C 158 37.76142120361328 155.7614135742188 40 153 40 L 5 40 C 2.238555908203125 40 0 37.76142120361328 0 35 L 0 5 C 0 2.238578796386719 2.238555908203125 0 5 0 Z" stroke="none" fill="#e6e6e6"/>
    </g>
    <path id="Path_24838" data-name="Path 24838" d="M10,0H94a10,10,0,0,1,0,20H10A10,10,0,0,1,10,0Z" transform="translate(1089 2746)" fill="#f5f6fa"/>
    <path id="Path_24839" data-name="Path 24839" d="M0,0H180V73a10,10,0,0,1-10,10H10A10,10,0,0,1,0,73Z" transform="translate(1051 2718)" fill="url(#linear-gradient)"/>
    <g id="Group_18943" data-name="Group 18943" transform="translate(1114.5 2589.435)">
      <g id="Group_18942" data-name="Group 18942" clip-path="url(#clip-path)">
        <path id="Path_24140" data-name="Path 24140" d="M.591,172.758H.914c.3,0,.453.146.453.43s-.154.422-.453.422H.591Zm0,2.535v-1.206H.852c.753,0,1.106-.33,1.106-.9S1.605,172.3.852,172.3H0v3Z" transform="translate(0 -154.162)" fill="#1a1818" fill-rule="evenodd"/>
        <path id="Path_24141" data-name="Path 24141" d="M30.147,172.344c0-.322.154-.415.384-.415.253,0,.392.092.392.415v1.229c0,.338-.138.43-.392.43-.231,0-.384-.092-.384-.43Zm-.591,1.152a.881.881,0,0,0,.975,1.014.89.89,0,0,0,1-1.014v-1.075a.885.885,0,0,0-1-1,.876.876,0,0,0-.975,1Z" transform="translate(-26.445 -153.379)" fill="#1a1818" fill-rule="evenodd"/>
        <path id="Path_24142" data-name="Path 24142" d="M59.326,175.293h.568l.484-2.059.438,2.059h.576l.7-3H61.53l-.423,1.951h-.015l-.43-1.951h-.576l-.423,1.951h-.015l-.422-1.951h-.553Z" transform="translate(-52.497 -154.162)" fill="#1a1818" fill-rule="evenodd"/>
        <path id="Path_24143" data-name="Path 24143" d="M103.768,175.293v-.507h-1.083v-.791h.791v-.507h-.791V172.8h1.037V172.3h-1.629v3Z" transform="translate(-91.347 -154.162)" fill="#1a1818" fill-rule="evenodd"/>
        <path id="Path_24144" data-name="Path 24144" d="M130.578,172.758h.315a.419.419,0,0,1,0,.837h-.315Zm1.444,2.535-.592-1.344a.7.7,0,0,0,.469-.76c0-.568-.338-.891-1.06-.891h-.868v3h.607v-1.221h.277l.53,1.221Z" transform="translate(-116.291 -154.162)" fill="#1a1818" fill-rule="evenodd"/>
        <path id="Path_24145" data-name="Path 24145" d="M179.31,172.344c0-.322.154-.415.392-.415s.4.092.4.415v1.229c0,.338-.154.43-.4.43s-.392-.092-.392-.43Zm-.591,1.152a.987.987,0,1,0,1.974,0v-1.075a.987.987,0,1,0-1.974,0Z" transform="translate(-159.908 -153.379)" fill="#1a1818" fill-rule="evenodd"/>
        <path id="Path_24146" data-name="Path 24146" d="M210.048,175.293v-1.3h.745v-.507h-.745V172.8h.96V172.3h-1.567v3Z" transform="translate(-187.397 -154.162)" fill="#1a1818" fill-rule="evenodd"/>
        <path id="Path_24147" data-name="Path 24147" d="M254.851,172.152a.927.927,0,0,0-.96-.73c-.622,0-.952.33-.952.837,0,.853,1.336.853,1.336,1.413a.337.337,0,0,1-.353.361c-.192,0-.407-.13-.469-.492l-.591.115a1,1,0,0,0,1.029.853c.622,0,.991-.338.991-.868,0-.937-1.337-.968-1.337-1.413a.3.3,0,0,1,.33-.33c.2,0,.338.123.43.407Z" transform="translate(-226.247 -153.379)" fill="#1a1818" fill-rule="evenodd"/>
        <rect id="Rectangle_6387" data-name="Rectangle 6387" width="0.607" height="2.996" transform="translate(29.834 18.135)" fill="#1a1818"/>
        <path id="Path_24148" data-name="Path 24148" d="M301.249,175.293v-2.358l.638,2.358h.445l.638-2.358h.015v2.358h.515v-3h-.837l-.545,1.966H302.1l-.53-1.966h-.837v3Z" transform="translate(-269.08 -154.162)" fill="#1a1818" fill-rule="evenodd"/>
        <path id="Path_24149" data-name="Path 24149" d="M338.69,172.758h.323c.3,0,.453.146.453.43s-.154.422-.453.422h-.323Zm0,2.535v-1.206h.261c.745,0,1.106-.33,1.106-.9s-.361-.891-1.106-.891H338.1v3Z" transform="translate(-302.512 -154.162)" fill="#1a1818" fill-rule="evenodd"/>
        <path id="Path_24150" data-name="Path 24150" d="M367.533,175.293v-.507h-.953V172.3h-.607v3Z" transform="translate(-327.453 -154.162)" fill="#1a1818" fill-rule="evenodd"/>
        <rect id="Rectangle_6388" data-name="Rectangle 6388" width="0.591" height="2.996" transform="translate(41.133 18.135)" fill="#1a1818"/>
        <path id="Path_24151" data-name="Path 24151" d="M407.8,172.344c0-.322.154-.415.392-.415s.4.092.4.415v.092h.591v-.015a.987.987,0,1,0-1.974,0V173.5a.987.987,0,1,0,1.974,0v-.123h-.591v.2c0,.338-.154.43-.4.43s-.392-.092-.392-.43Z" transform="translate(-364.344 -153.379)" fill="#1a1818" fill-rule="evenodd"/>
        <rect id="Rectangle_6389" data-name="Rectangle 6389" width="0.591" height="2.996" transform="translate(46.141 18.135)" fill="#1a1818"/>
        <path id="Path_24152" data-name="Path 24152" d="M454.349,172.3v.507h.7v2.489h.591V172.8h.7V172.3Z" transform="translate(-406.526 -154.162)" fill="#1a1818" fill-rule="evenodd"/>
        <path id="Path_24153" data-name="Path 24153" d="M482.133,172.3H481.5l.853,1.79v1.206h.607v-1.206l.86-1.79h-.638l-.515,1.206Z" transform="translate(-430.815 -154.162)" fill="#1a1818" fill-rule="evenodd"/>
        <path id="Path_24154" data-name="Path 24154" d="M111.888,12.08a9.432,9.432,0,0,0,1.337-1.436c.061-.108.238-.292.031-.468s-.361-.077-.584.031a18.056,18.056,0,0,0-1.605,1.16c-.361.292-1.29,1.106-1.29,1.106s-.507.446-.338.668c.192.215.353.138.638.062a14.736,14.736,0,0,0,1.813-1.122m20.778,5.285c.138.061.484.154.453.484a3.255,3.255,0,0,1-.422.7c-.131.061-.346.061-.853-.138-.491-.192-2.742-.768-3.357-.891-.6-.123-1.989-.346-1.989-.346s-.169-.108-.453.33c-.284.453-1.183,1.744-1.183,1.744a.262.262,0,0,1-.223.177,3.617,3.617,0,0,1-1.168-.192c-.284-.154-.346-.138-.184-.43a14.213,14.213,0,0,1,1.068-1.782c.253-.246-.169-.184-.315-.215-.123-.031-2.85-.169-3.656-.154-.791.015-3.625.015-4.639.077s-4.693.415-5.669.561c-.983.169-4.924.73-5.461.837s-1.59.3-1.59.3a1.846,1.846,0,0,1-1.052-.108c-.522-.238-1.36-.576-.653-.8.73-.23,4.209-.922,5.3-1.075,1.091-.169,4.478-.653,5.914-.73s5.262-.284,6.713-.284c1.437.015,3.441.108,4.286.177s1.421.107,1.582.123c.169.031.184-.092.346-.284s.707-.9.707-.9.177-.269-.169-.038a1.042,1.042,0,0,1-1.168-.015c-.269-.276-.4-.507-.522-.415a7.211,7.211,0,0,1-.914.415,2.89,2.89,0,0,1-2.189-.107c-.73-.5-.745-.684-.837-.93-.1-.223-.146-.207-.376-.054s-1.045.545-1.344.676a1.737,1.737,0,0,1-.991.2,1.474,1.474,0,0,1-1.2-.545c-.207-.376-.238-.653-.491-.484a11.445,11.445,0,0,1-2.251,1.137c-.714.207-.883.3-1.283.223a1.511,1.511,0,0,1-.991-.469c-.154-.238-.169-.3-.361-.161a1.879,1.879,0,0,1-1.06.5,2.546,2.546,0,0,1-1.889-1.275,1.334,1.334,0,0,1,.33-1.905c.476-.492,1.329-1.213,1.329-1.213a13.846,13.846,0,0,1,1.413-.953,5.134,5.134,0,0,1,1.3-.53,1.95,1.95,0,0,1,1.413.422,3.115,3.115,0,0,1,.883,1.014,1.2,1.2,0,0,1-.077,1.183c-.376.407-1.436,1.39-1.436,1.39s-.407.246-.223.53c.192.307.883-.184,1.121-.33.223-.169,1.437-1.2,1.813-1.544.361-.369,2.727-2.665,2.95-2.881.207-.215,2.158-2.166,2.443-2.35a.94.94,0,0,1,.914-.207,3.172,3.172,0,0,1,.853.284s.553.215.107.561-1.92,1.574-2.282,1.974c-.376.376-1.452,1.452-1.8,1.843s-1.306,1.559-1.467,1.79-.238.469,0,.638c.238.146.645-.015,1.091-.384.438-.346,1.713-1.467,2.174-1.9.453-.453,2.9-2.788,3.119-2.988.223-.177,1.36-1.091,1.36-1.091a.577.577,0,0,1,.469-.192,2.665,2.665,0,0,1,.868.138,5.853,5.853,0,0,1,.568.3s.238.107-.154.392a38.074,38.074,0,0,0-2.965,2.489c-.553.591-1.659,1.8-2.066,2.358s-.691.807-.377,1.183a.8.8,0,0,0,.883.23,5.96,5.96,0,0,0,1.275-.991c.453-.469,1.89-2,2.036-2.182s.676-.706.676-.706a.449.449,0,0,1,.407-.215,3.491,3.491,0,0,1,.791.108c.3.061.945.2.584.561-.384.376-1.26,1.29-1.452,1.513s-.945,1.06-1.091,1.306-.33.53-.138.645c.207.123.676-.039,1.167-.315a9.658,9.658,0,0,0,1.8-1.275c.615-.545,1.605-1.451,1.605-1.451s.177-.361.883-.207a4.607,4.607,0,0,1,.883.253s.553.154.192.469c-.369.338-1.6,1.436-2.066,1.882s-1.913,1.92-2.166,2.2-.929.945-.645.976,2.412.438,2.919.576,2.174.691,2.32.768M108.478,5.736A5.4,5.4,0,0,0,107.2,5.72a27.992,27.992,0,0,0-3.157.453c-.392.169-.676-.207-.83-.376-.177-.154-.568-.561-.568-.561s-.207-.246.154-.33c.384-.077,2.481-.446,3.141-.5s3.864-.246,4.709-.246a35.871,35.871,0,0,1,4.578.376s.154-.046.315.338a1.8,1.8,0,0,1,.123.737s.161.277-.392.246c-.538-.046-1.437-.092-2.051-.123-.6-.046-2.066-.154-2.289-.138-.2.015-.261,0-.392.169-.123.185-.707.922-.853,1.122-.138.185-.753.968-1.275,1.682-.522.691-1.183,1.575-1.767,2.5-.568.922-1.106,1.774-1.321,2.166a3.856,3.856,0,0,0-.346.714.384.384,0,0,1-.353.253c-.261.015-1.5-.031-1.5-.031s-.515.046-.2-.53c.315-.592,1.022-1.759,1.321-2.212s1.828-2.558,2.128-2.95c.284-.376,2.1-2.742,2.1-2.742" transform="translate(-90.411 -3.723)" fill="#e50019" fill-rule="evenodd"/>
        <path id="Path_24155" data-name="Path 24155" d="M110.283,7.9a10.226,10.226,0,0,0,1.336-1.436c.061-.092.238-.276.031-.468s-.361-.077-.584.023-1.229.883-1.605,1.168c-.361.292-1.29,1.106-1.29,1.106s-.507.438-.33.668.346.138.615.062A15.227,15.227,0,0,0,110.283,7.9M109.054,0h-.261c-1.114.015-3.848.169-4.455.223-.661.062-2.758.43-3.142.515s-.154.323-.154.323.392.407.568.576c.154.146.438.545.837.376a25.754,25.754,0,0,1,3.149-.468,5.233,5.233,0,0,1,1.26.015s-1.8,2.358-2.082,2.757c-.3.377-1.828,2.5-2.128,2.934-.3.453-1.006,1.636-1.336,2.212-.315.576.215.546.215.546s1.237.031,1.5.031a.351.351,0,0,0,.338-.277,7.6,7.6,0,0,1,.361-.707c.223-.384.737-1.229,1.321-2.151s1.244-1.82,1.767-2.512,1.137-1.506,1.275-1.682.73-.945.853-1.106c.131-.184.177-.169.392-.184s1.69.092,2.289.138c.614.046,1.5.077,2.051.123s.392-.246.392-.246a1.755,1.755,0,0,0-.123-.73c-.177-.392-.315-.33-.315-.33A31.175,31.175,0,0,0,109.054,0M131.06,13.189c.123.077.484.169.438.484a3.063,3.063,0,0,1-.422.714c-.131.046-.346.046-.837-.154a31.49,31.49,0,0,0-3.357-.876c-.6-.123-1.989-.369-1.989-.369s-.169-.1-.453.353c-.3.438-1.183,1.721-1.183,1.721s-.062.184-.223.184a3.48,3.48,0,0,1-1.168-.2c-.284-.131-.346-.115-.184-.423a16.207,16.207,0,0,1,1.052-1.782c.269-.246-.154-.184-.3-.215-.138-.015-2.85-.169-3.656-.154s-3.625.015-4.632.077c-1.014.077-4.716.407-5.692.576-.983.154-4.908.73-5.446.837s-1.59.284-1.59.284a1.707,1.707,0,0,1-1.052-.107c-.522-.238-1.36-.576-.653-.784.73-.23,4.209-.929,5.3-1.091s4.478-.653,5.914-.73c1.421-.077,5.262-.284,6.713-.269,1.436.015,3.441.1,4.286.161s1.421.108,1.582.138.184-.092.346-.284.707-.914.707-.914.177-.254-.169-.031a1.039,1.039,0,0,1-1.168-.031c-.284-.269-.4-.484-.522-.407a5.761,5.761,0,0,1-.93.422,2.9,2.9,0,0,1-2.174-.115c-.73-.484-.745-.683-.837-.914s-.146-.223-.376-.077a13.748,13.748,0,0,1-1.344.684,1.728,1.728,0,0,1-.991.215,1.531,1.531,0,0,1-1.2-.561c-.223-.376-.238-.653-.492-.468a12.836,12.836,0,0,1-2.251,1.137,2.806,2.806,0,0,1-1.283.223,1.555,1.555,0,0,1-.991-.484c-.154-.238-.184-.3-.361-.154s-.676.53-1.06.484a2.463,2.463,0,0,1-1.9-1.267,1.338,1.338,0,0,1,.33-1.9c.492-.5,1.344-1.221,1.344-1.221s1.052-.776,1.413-.96a5.19,5.19,0,0,1,1.3-.53,2.056,2.056,0,0,1,1.413.43,3.162,3.162,0,0,1,.883,1.029,1.125,1.125,0,0,1-.092,1.167c-.361.407-1.421,1.39-1.421,1.39s-.422.254-.215.545c.184.284.883-.184,1.1-.346.238-.154,1.451-1.2,1.828-1.552s2.727-2.665,2.934-2.857c.207-.215,2.158-2.182,2.458-2.366a.942.942,0,0,1,.914-.207,3.17,3.17,0,0,1,.837.284s.553.215.115.561-1.913,1.59-2.274,1.966c-.376.384-1.452,1.459-1.8,1.851s-1.321,1.559-1.467,1.79-.238.484,0,.63c.238.169.645-.015,1.091-.361.438-.361,1.713-1.467,2.174-1.92.438-.453,2.9-2.788,3.119-2.973s1.36-1.106,1.36-1.106a.578.578,0,0,1,.469-.192,2.425,2.425,0,0,1,.868.146,4.209,4.209,0,0,1,.568.307s.238.092-.154.376-2.427,1.9-2.98,2.481c-.538.592-1.644,1.82-2.066,2.366-.407.561-.676.814-.361,1.183a.756.756,0,0,0,.884.223,5.389,5.389,0,0,0,1.275-.983c.453-.453,1.889-1.982,2.036-2.181.154-.177.676-.707.676-.707a.448.448,0,0,1,.407-.215,3.514,3.514,0,0,1,.791.107c.3.077.945.192.584.576-.376.361-1.26,1.267-1.452,1.5s-.945,1.06-1.091,1.313-.33.53-.138.638c.192.123.676-.046,1.152-.315a10.167,10.167,0,0,0,1.813-1.26c.615-.561,1.605-1.452,1.605-1.452s.161-.377.883-.215a4.421,4.421,0,0,1,.883.246s.553.154.192.484-1.6,1.421-2.066,1.874-1.913,1.913-2.158,2.2c-.254.307-.937.945-.653.975s2.412.453,2.919.584,2.174.7,2.32.761" transform="translate(-88.975)" fill="#1a1818" fill-rule="evenodd"/>
      </g>
    </g>
    <g id="FeesBuzz" transform="translate(801.592 2403.03)">
      <rect id="Rectangle_6093" data-name="Rectangle 6093" width="36" height="36" transform="translate(63.408 88.97)" fill="none"/>
      <g id="_7FeesBuzz" data-name="7FeesBuzz" transform="translate(67.47 92.716)">
        <path id="Path_1964" data-name="Path 1964" d="M15.155,12.9V3.138a.808.808,0,0,0-.751-.751,5.669,5.669,0,0,0-2,.375A10.843,10.843,0,0,0,7.02,7.018a11.746,11.746,0,0,0-.375,12.14A11.114,11.114,0,0,0,17.909,24.04c6.133-.876,8.26-6.383,8.386-10.513a.721.721,0,0,0-.751-.751H15.155Z" transform="translate(-0.51 -0.605)" fill="url(#linear-gradient-2)"/>
        <path id="Path_1965" data-name="Path 1965" d="M18.9,5.57V1.44c0-.876.25-1.126,1.252-1a10.626,10.626,0,0,1,9.262,9.137c.125,1-.125,1.377-1.126,1.377h-8.26c-.751,0-1.126-.25-1.126-1.126Z" transform="translate(-1.881 -0.408)" fill="#18253e"/>
        <path id="Path_1966" data-name="Path 1966" d="M0,24.809a5.931,5.931,0,0,1,6.133-5.882,6.071,6.071,0,1,1-.125,12.14A6.226,6.226,0,0,1,0,24.809Z" transform="translate(0 -2.25)" fill="#33eeb1"/>
        <path id="Path_1967" data-name="Path 1967" d="M7.138,23.945H4.259a.375.375,0,1,1,0-.751h3c0-.125,0-.25-.125-.25a1.57,1.57,0,0,0-1.377-.751H4.385c-.125,0-.25-.125-.375-.125-.125-.25,0-.5.375-.5H8.64a.375.375,0,0,1,0,.751H7.513c.125.376.375.751.5,1.126h.5a.375.375,0,1,1,0,.751H7.889c-.25,1.126-1.252,1.752-2.753,1.627.125.125.25.125.25.25l2.253,2.253.125.125a.381.381,0,0,1,0,.5c-.125.125-.25.125-.5,0l-.125-.125c-1-1-2-2-3.129-3-.125-.125-.25-.25-.125-.5s.25-.25.5-.25H5.761A1.362,1.362,0,0,0,7.138,23.945Z" transform="translate(-0.381 -2.513)" fill="#fff"/>
      </g>
    </g>
    <g id="Payment_gateway" data-name="Payment gateway" transform="translate(105 2813)">
      <rect id="Rectangle_6094" data-name="Rectangle 6094" width="36" height="36" transform="translate(760 55)" fill="none"/>
      <g id="Payment_Gateway-2" data-name="Payment Gateway" transform="translate(761.8 58.6)">
        <path id="Path_1932" data-name="Path 1932" d="M32.268,19.209V7.653A4.356,4.356,0,0,0,27.915,3.3H5.7A4.356,4.356,0,0,0,1.35,7.653L1.2,19.209Z" transform="translate(-1.2 -3.3)" fill="#18253e"/>
        <circle id="Ellipse_184" data-name="Ellipse 184" cx="9.606" cy="9.606" r="9.606" transform="translate(13.358 3.752)" fill="#33eeb1"/>
        <path id="Path_1933" data-name="Path 1933" d="M19.053,12.4H14.4a.646.646,0,0,1-.6-.6.55.55,0,0,1,.6-.6h4.653c0-.15-.15-.3-.15-.45A2.264,2.264,0,0,0,16.8,9.4H14.55a1.138,1.138,0,0,1-.6-.3c-.3-.3,0-.9.45-.9h6.754a.55.55,0,0,1,.6.6c.15.45-.15.6-.6.6H19.5a8.044,8.044,0,0,1,.75,1.651h.9a.687.687,0,0,1,.75.6.646.646,0,0,1-.6.6h-.9c-.6,2.251-2.1,3-4.353,2.852l.3.3c1.2,1.2,2.4,2.251,3.6,3.452l.3.3a.67.67,0,0,1,0,.75.5.5,0,0,1-.75,0c-.15,0-.15-.15-.3-.15-1.651-1.5-3.3-3.152-4.8-4.653-.3-.3-.45-.45-.3-.9.15-.3.45-.3.75-.3H17.1C17.852,14.053,18.753,13.3,19.053,12.4Z" transform="translate(5.111 -0.846)" fill="#fff"/>
        <path id="Path_1934" data-name="Path 1934" d="M3.451,23.412A4.239,4.239,0,0,1,1.2,19.659V7.653A4.356,4.356,0,0,1,5.553,3.3l14.258,7.2c5.1,2.251,4.353,4.353,4.353,6.754V29.265a2.84,2.84,0,0,1-4.052,2.551Z" transform="translate(-1.2 -3.3)" fill="url(#linear-gradient-3)"/>
      </g>
    </g>
    <g id="Group_19142" data-name="Group 19142" transform="translate(611 1189)">
      <path id="Subtraction_73" data-name="Subtraction 73" d="M245.538,2575.077H236.1a4.108,4.108,0,0,1-4.1-4.1V2552.1a4.108,4.108,0,0,1,4.1-4.1h13.128a4.107,4.107,0,0,1,4.1,4.1v10.256H248.41a2.872,2.872,0,0,0-2.872,2.872Zm-3.819-22.448a.99.99,0,0,0-.114.007l-.057.01-.141.034a5.232,5.232,0,1,0,6.407,6.243.529.529,0,0,0,.013-.118,1.044,1.044,0,0,0-1.045-1.046h-3.612a.524.524,0,0,1-.461-.521v-3.716l-.012-.088a.992.992,0,0,0-.976-.8Zm2.558.164a.457.457,0,0,0-.073,0,.523.523,0,0,0-.45.518v2.877a.523.523,0,0,0,.522.523h2.872a.527.527,0,0,0,.24-.058.533.533,0,0,0,.186-.164.527.527,0,0,0,.066-.477,5.226,5.226,0,0,0-3.19-3.2.524.524,0,0,0-.172-.029Z" transform="translate(285 -1243)" fill="url(#linear-gradient-4)"/>
      <path id="Path_24651" data-name="Path 24651" d="M2.462,0A2.462,2.462,0,0,0,0,2.462V13.949A2.462,2.462,0,0,0,2.462,16.41h8.205a2.462,2.462,0,0,0,2.462-2.462V2.462A2.462,2.462,0,0,0,10.667,0Zm0,3.282a.821.821,0,0,1,.821-.821H9.846a.821.821,0,0,1,.821.821V6.564a.821.821,0,0,1-.821.821H3.282a.821.821,0,0,1-.821-.821Zm.821,5.744a.821.821,0,0,0,0,1.641H3.29a.821.821,0,0,0,0-1.641Zm2.462.821a.821.821,0,0,1,.821-.821h.008a.821.821,0,0,1,0,1.641H6.564A.821.821,0,0,1,5.744,9.846Zm.821,1.641a.821.821,0,1,0,0,1.641h.008a.821.821,0,0,0,0-1.641Zm-4.1.821a.821.821,0,0,1,.821-.821H3.29a.821.821,0,0,1,0,1.641H3.282A.821.821,0,0,1,2.462,12.308Zm8.205-2.462a.821.821,0,0,0-1.641,0v2.462a.821.821,0,0,0,1.641,0Z" transform="translate(531.769 1320.59)" fill="#33eeb1" fill-rule="evenodd"/>
      <path id="Subtraction_73-2" data-name="Subtraction 73" d="M241.72,2552.629a.99.99,0,0,0-.114.007l-.057.01-.141.034a5.232,5.232,0,1,0,6.407,6.243.529.529,0,0,0,.013-.118,1.044,1.044,0,0,0-1.045-1.046h-3.612a.524.524,0,0,1-.461-.521v-3.716l-.012-.088a.992.992,0,0,0-.976-.8Zm2.558.164a.457.457,0,0,0-.073,0,.523.523,0,0,0-.45.518v2.877a.523.523,0,0,0,.522.523h2.872a.527.527,0,0,0,.24-.058.533.533,0,0,0,.186-.164.527.527,0,0,0,.066-.477,5.226,5.226,0,0,0-3.19-3.2.524.524,0,0,0-.172-.029Z" transform="translate(285 -1243)" fill="#18253e"/>
    </g>
    <g id="Group_18946" data-name="Group 18946" transform="translate(2.158 0.511)">
      <g id="Group_18945" data-name="Group 18945" transform="translate(872.842 2593.489)">
        <path id="Path_24157" data-name="Path 24157" d="M7,1.8A1.8,1.8,0,0,1,8.8,0h4.8a1.8,1.8,0,0,1,1.8,1.8V3a1.8,1.8,0,0,1-1.8,1.8H8.8A1.8,1.8,0,0,1,7,3Zm1.8-.6a.6.6,0,0,0-.6.6V3a.6.6,0,0,0,.6.6h4.8a.6.6,0,0,0,.6-.6V1.8a.6.6,0,0,0-.6-.6Z" transform="translate(-2.8)" fill="#6d44e5" fill-rule="evenodd"/>
        <path id="Path_24158" data-name="Path 24158" d="M4.8,3h-3A1.8,1.8,0,0,0,0,4.8V23.4a1.8,1.8,0,0,0,1.8,1.8H15a1.8,1.8,0,0,0,1.8-1.8V4.8A1.8,1.8,0,0,0,15,3H12V4.2a1.2,1.2,0,0,1-1.2,1.2H6A1.2,1.2,0,0,1,4.8,4.2ZM3,11.4a.6.6,0,0,1,.6-.6H7.8a.6.6,0,0,1,0,1.2H3.6a.6.6,0,0,1-.6-.6Zm.6-3.6A.6.6,0,0,0,3.6,9h9.3a.6.6,0,0,0,0-1.2Zm.6,8.4v1.2H5.4V16.2ZM3.6,15a.6.6,0,0,0-.6.6V18a.6.6,0,0,0,.6.6H6a.6.6,0,0,0,.6-.6V15.6A.6.6,0,0,0,6,15Zm9,1.2a1.8,1.8,0,1,1-.527-1.273A1.8,1.8,0,0,1,12.6,16.2Zm-1.8,2.591c-1.2,0-3.6.64-3.6,1.909v1.5h7.2V20.7C14.4,19.43,12,18.791,10.8,18.791Z" transform="translate(0 -1.2)" fill="#6d44e5" fill-rule="evenodd"/>
      </g>
      <path id="Path_24159" data-name="Path 24159" d="M14.106,18.585a1.8,1.8,0,1,1-.527-1.273A1.8,1.8,0,0,1,14.106,18.585Zm-1.8,2.591c-1.2,0-3.6.64-3.6,1.909v1.5h7.2v-1.5C15.906,21.816,13.508,21.176,12.306,21.176Z" transform="translate(871.336 2589.904)" fill="#85e6c4" fill-rule="evenodd"/>
    </g>
    <g id="Group_18947" data-name="Group 18947" transform="translate(-3.916 -4.77)">
      <path id="Path_24160" data-name="Path 24160" d="M26.437,16.572a7.488,7.488,0,1,1-7.462-7.488A7.477,7.477,0,0,1,26.437,16.572Zm-8.343-3.328v3.328a.854.854,0,0,0,.829.832h2.539a.854.854,0,0,0,.829-.832.893.893,0,0,0-.829-.832h-1.71v-2.5a.854.854,0,0,0-.829-.832A.893.893,0,0,0,18.094,13.244Z" transform="translate(874.04 2703.709)" fill="#85e6c4"/>
      <path id="Subtraction_61" data-name="Subtraction 61" d="M15.184,24h-5.7c-4.464,0-6.7,0-8.092-1.389S0,18.982,0,14.518V12.147c0-1.008,0-1.878.015-2.667h14.87A8.814,8.814,0,0,0,12.3,12.511a8.742,8.742,0,0,0,1.288,9.857A8.78,8.78,0,0,0,15.182,24ZM23.609,7.7H.094a5.375,5.375,0,0,1,1.3-3.648A5.37,5.37,0,0,1,5.036,2.761V.889a.889.889,0,0,1,1.778,0V2.682c.787-.015,1.658-.015,2.666-.015h4.74c1.008,0,1.879,0,2.667.015V.889a.889.889,0,1,1,1.778,0V2.76a5.373,5.373,0,0,1,3.648,1.3,5.37,5.37,0,0,1,1.3,3.647Z" transform="translate(872.916 2703.77)" fill="#6d44e5"/>
    </g>
    <path id="Path_24162" data-name="Path 24162" d="M.871.579a.55.55,0,0,0,0,.779L3.015,3.5.871,5.646a.551.551,0,0,0,.779.779L4.186,3.889a.55.55,0,0,0,0-.779L1.65.573A.555.555,0,0,0,.871.579Z" transform="translate(879.499 2805.348) rotate(-90)" fill="#6d44e5"/>
    <path id="Path_24163" data-name="Path 24163" d="M.871.579a.55.55,0,0,0,0,.779L3.015,3.5.871,5.646a.551.551,0,0,0,.779.779L4.186,3.889a.55.55,0,0,0,0-.779L1.65.573A.555.555,0,0,0,.871.579Z" transform="translate(886.501 2851.652) rotate(90)" fill="#6d44e5"/>
    <path id="Path_24165" data-name="Path 24165" d="M.871.579a.55.55,0,0,0,0,.779L3.015,3.5.871,5.646a.551.551,0,0,0,.779.779L4.186,3.889a.55.55,0,0,0,0-.779L1.65.573A.555.555,0,0,0,.871.579Z" transform="translate(1046.652 2669.499)" fill="#6d44e5"/>
    <path id="Path_24166" data-name="Path 24166" d="M.871.579a.55.55,0,0,0,0,.779L3.015,3.5.871,5.646a.551.551,0,0,0,.779.779L4.186,3.889a.55.55,0,0,0,0-.779L1.65.573A.555.555,0,0,0,.871.579Z" transform="translate(977.848 2676.501) rotate(-180)" fill="#6d44e5"/>
  </g>
</svg>
