<svg xmlns="http://www.w3.org/2000/svg" width="36" height="31.932" viewBox="0 0 36 31.932">
  <g id="Group_9035" data-name="Group 9035" transform="translate(9518.001 -18978.613)">
    <path id="Subtraction_35" data-name="Subtraction 35" d="M13.717,27.436a13.718,13.718,0,0,1-9.7-23.417,13.715,13.715,0,0,1,19.4,0,13.578,13.578,0,0,1,3.869,7.671c-.086,0-.176,0-.285,0a11.251,11.251,0,0,0-11.128,9.593l-4.191-5.786c-.039-.051-.083-.111-.118-.168s-.06-.085-.084-.125a.2.2,0,0,1-.034-.065,7.6,7.6,0,0,0,1.463-.32,4.524,4.524,0,0,0,1.29-.662,3.848,3.848,0,0,0,.979-1.084A3.953,3.953,0,0,0,15.7,11.5h1.523l.82-1.385H15.606a2.588,2.588,0,0,0-.192-.746,6.612,6.612,0,0,0-.361-.717h2.166l.064-.1c.044-.07.1-.157.159-.263l.2-.34.074-.127.124-.211c.059-.1.107-.189.144-.261s.052-.105.054-.108H9.8s-.027.023-.124.177l-.091.141-.044.07-.127.2c-.108.168-.2.322-.282.47a2.279,2.279,0,0,0-.172.355h2.5a1.843,1.843,0,0,1,.6.134,4.211,4.211,0,0,1,.717.341,2.733,2.733,0,0,1,.6.47.765.765,0,0,1,.247.518H9.8c-.143.219-.272.423-.4.624l-.1.162-.055.091-.039.066-.089.15a2.878,2.878,0,0,0-.163.293h4.914a3.116,3.116,0,0,1-.281,1.082,2.359,2.359,0,0,1-.569.746,2.668,2.668,0,0,1-.781.465,4.416,4.416,0,0,1-.915.242,6.4,6.4,0,0,1-.978.075c-.334,0-.659-.01-.965-.03v1.305L14.193,21.8h1.615c-.037.371-.057.753-.057,1.136a11.194,11.194,0,0,0,.813,4.206A13.873,13.873,0,0,1,13.717,27.436Z" transform="translate(-9518.001 18978.613)" fill="#85e6c4"/>
    <path id="Subtraction_34" data-name="Subtraction 34" d="M9,18A9,9,0,0,1,2.636,2.636,9,9,0,0,1,15.363,15.363,8.941,8.941,0,0,1,9,18Zm2.9-8.908a2.324,2.324,0,0,0-1.133.277,2.075,2.075,0,0,0-.8.786,2.392,2.392,0,0,0-.3,1.217,2.428,2.428,0,0,0,.3,1.224,2.062,2.062,0,0,0,.8.792,2.419,2.419,0,0,0,2.247,0,2.077,2.077,0,0,0,.792-.792,2.429,2.429,0,0,0,.3-1.224,2.392,2.392,0,0,0-.3-1.217,2.089,2.089,0,0,0-.792-.786A2.261,2.261,0,0,0,11.9,9.091Zm-1.185-4.6L5.626,13.509h1.61l5.087-9.016ZM6.128,4.338a2.324,2.324,0,0,0-1.133.277,2.062,2.062,0,0,0-.8.792,2.424,2.424,0,0,0-.3,1.224,2.423,2.423,0,0,0,.3,1.223,2.058,2.058,0,0,0,.8.792,2.407,2.407,0,0,0,2.241,0,2.062,2.062,0,0,0,.8-.792,2.423,2.423,0,0,0,.3-1.223,2.425,2.425,0,0,0-.3-1.224,2.077,2.077,0,0,0-.792-.792A2.261,2.261,0,0,0,6.128,4.338Zm5.757,8.178a.848.848,0,0,1-.65-.29,1.237,1.237,0,0,1-.264-.856,1.265,1.265,0,0,1,.264-.863.862.862,0,0,1,1.3,0,1.265,1.265,0,0,1,.264.863,1.237,1.237,0,0,1-.264.856A.848.848,0,0,1,11.885,12.517Zm-5.77-4.74a.849.849,0,0,1-.65-.289A1.239,1.239,0,0,1,5.2,6.631a1.263,1.263,0,0,1,.264-.863.861.861,0,0,1,1.3,0,1.263,1.263,0,0,1,.264.863,1.219,1.219,0,0,1-.271.856A.853.853,0,0,1,6.115,7.777Z" transform="translate(-9500 18992.547)" fill="#6d44e5"/>
  </g>
</svg>
