<svg xmlns="http://www.w3.org/2000/svg" width="24.386" height="42" viewBox="0 0 24.386 42">
  <g id="Group_7874" data-name="Group 7874" transform="translate(-938.807 -5666)">
    <path id="Subtraction_1" data-name="Subtraction 1" d="M-2442.806,15a12.113,12.113,0,0,1-8.622-3.572A12.115,12.115,0,0,1-2455,2.806a12.114,12.114,0,0,1,3.571-8.622,12.114,12.114,0,0,1,8.622-3.571,12.114,12.114,0,0,1,8.622,3.571,12.114,12.114,0,0,1,3.571,8.622,12.115,12.115,0,0,1-3.571,8.623A12.113,12.113,0,0,1-2442.806,15Zm-3.849-11.874v1.16l4.272,5.7h1.669v-.22l-3.9-5.387a1.823,1.823,0,0,1-.105-.149c-.03-.041-.054-.077-.075-.11a.211.211,0,0,1-.031-.058,6.726,6.726,0,0,0,1.3-.285,3.978,3.978,0,0,0,1.146-.589,3.409,3.409,0,0,0,.871-.963,3.5,3.5,0,0,0,.461-1.4h1.354l.729-1.231h-2.162a2.3,2.3,0,0,0-.171-.663,5.619,5.619,0,0,0-.321-.637h1.925l.057-.092c.038-.062.085-.14.141-.233s.115-.2.18-.3l.066-.112.11-.186c.052-.088.095-.167.128-.233s.046-.093.048-.1h-7.321a.932.932,0,0,0-.11.158l-.081.126-.153.24c-.092.144-.174.28-.251.418a2.1,2.1,0,0,0-.153.316h2.223a1.646,1.646,0,0,1,.536.119,3.808,3.808,0,0,1,.637.3,2.431,2.431,0,0,1,.532.418.682.682,0,0,1,.219.461h-3.4c-.133.205-.248.387-.352.554l-.135.225-.035.058-.08.133a2.676,2.676,0,0,0-.145.26h4.368a2.757,2.757,0,0,1-.25.962,2.079,2.079,0,0,1-.506.663,2.359,2.359,0,0,1-.694.413,3.87,3.87,0,0,1-.814.215,5.671,5.671,0,0,1-.869.067c-.295,0-.583-.009-.858-.027Z" transform="translate(3393.807 5693)" fill="#85e6c4"/>
    <path id="Subtraction_13" data-name="Subtraction 13" d="M-2447.088-11.473a14.907,14.907,0,0,1,4.281-.624,14.927,14.927,0,0,1,3.848.5v-4.783h6.557L-2443.023-27l-10.622,10.622h6.557Z" transform="translate(3394.023 5693)" fill="#6d44e5" fill-rule="evenodd"/>
  </g>
</svg>
