<svg xmlns="http://www.w3.org/2000/svg" width="42.001" height="29.5" viewBox="0 0 42.001 29.5">
  <g id="Group_8591" data-name="Group 8591" transform="translate(-521 -3880.5)">
    <path id="Subtraction_14" data-name="Subtraction 14" d="M-7802-11358.374h-42v-3.25h42v3.25Zm-6.563-8.5h-5.25a1.324,1.324,0,0,1-.928-.386,1.325,1.325,0,0,1-.386-.929v-2.624a1.325,1.325,0,0,1,.386-.929,1.328,1.328,0,0,1,.928-.385h5.25a1.326,1.326,0,0,1,.928.385,1.3,1.3,0,0,1,.383.929v2.624a1.3,1.3,0,0,1-.383.929A1.324,1.324,0,0,1-7808.562-11366.874Z" transform="translate(8365 15260.5)" fill="#6d44e5"/>
    <path id="Path_6558" data-name="Path 6558" d="M.633,5.25A5.25,5.25,0,0,1,5.883,0h31.5a5.25,5.25,0,0,1,5.25,5.25V18.375h-42ZM30.82,7.875a1.312,1.312,0,0,0-1.312,1.312v2.625a1.312,1.312,0,0,0,1.312,1.312h5.25a1.313,1.313,0,0,0,1.313-1.312V9.187A1.313,1.313,0,0,0,36.07,7.875ZM.633,21.625V24.25a5.25,5.25,0,0,0,5.25,5.25h31.5a5.25,5.25,0,0,0,5.25-5.25V21.625Z" transform="translate(520.367 3880.5)" fill="#85e6c4"/>
  </g>
</svg>
