<svg xmlns="http://www.w3.org/2000/svg" width="33" height="40" viewBox="0 0 33 40">
  <g id="Group_9017" data-name="Group 9017" transform="translate(8685 -18939)">
    <path id="Subtraction_32" data-name="Subtraction 32" d="M22.4,42H3.2a3.223,3.223,0,0,1-2.264-.938A3.182,3.182,0,0,1,0,38.8V13.2A3.2,3.2,0,0,1,3.2,10H9.863a12.508,12.508,0,0,0,9.4,15.2H10.8a1.2,1.2,0,0,0,0,2.4h8.8a1.209,1.209,0,0,0,.849-.352,1.2,1.2,0,0,0-.226-1.874A12.656,12.656,0,0,0,22,25.5a12.511,12.511,0,0,0,3.6-.526V38.8A3.2,3.2,0,0,1,22.4,42ZM10.8,34.8a1.2,1.2,0,1,0,0,2.4h8.8a1.208,1.208,0,0,0,.849-.351,1.2,1.2,0,0,0,0-1.7A1.208,1.208,0,0,0,19.6,34.8ZM6,34.8a1.2,1.2,0,1,0,.848.351A1.192,1.192,0,0,0,6,34.8ZM10.8,30a1.2,1.2,0,0,0,0,2.4h8.8a1.206,1.206,0,0,0,.849-.352,1.2,1.2,0,0,0,0-1.7A1.209,1.209,0,0,0,19.6,30ZM6,30a1.2,1.2,0,0,0-1.2,1.2,1.208,1.208,0,0,0,.352.848,1.2,1.2,0,1,0,1.7-1.7A1.208,1.208,0,0,0,6,30Zm0-4.8a1.189,1.189,0,0,0-.849.352A1.208,1.208,0,0,0,4.8,26.4,1.2,1.2,0,0,0,6,27.6a1.208,1.208,0,0,0,.848-.352A1.2,1.2,0,0,0,6,25.2Z" transform="translate(-8685 18937)" fill="#85e6c4"/>
    <path id="Subtraction_33" data-name="Subtraction 33" d="M11,22A11,11,0,0,1,3.222,3.222,11,11,0,1,1,18.778,18.778,10.928,10.928,0,0,1,11,22ZM9.126,12.035a2.046,2.046,0,0,0,.192.915,1.759,1.759,0,0,0,.52.634,2.3,2.3,0,0,0,.765.371,3.442,3.442,0,0,0,.923.122,3.574,3.574,0,0,0,.8-.094,2.337,2.337,0,0,0,.728-.3,1.724,1.724,0,0,0,.533-.537,1.65,1.65,0,0,0,.049-1.509,1.405,1.405,0,0,0-.423-.472,2.233,2.233,0,0,0-.6-.3c-.221-.073-.449-.138-.679-.192s-.466-.106-.68-.15a3.593,3.593,0,0,1-.6-.175,1.207,1.207,0,0,1-.423-.273.612.612,0,0,1-.158-.436.953.953,0,0,1,.11-.476.862.862,0,0,1,.293-.305A1.3,1.3,0,0,1,10.9,8.7a2.39,2.39,0,0,1,.481-.049,1.646,1.646,0,0,1,.988.281,1.219,1.219,0,0,1,.452.907h.732a2.071,2.071,0,0,0-.183-.826,1.624,1.624,0,0,0-.455-.573,1.9,1.9,0,0,0-.671-.334A3.129,3.129,0,0,0,11.413,8a3.017,3.017,0,0,0-.778.1,2.152,2.152,0,0,0-.675.309,1.581,1.581,0,0,0-.476.529,1.551,1.551,0,0,0-.179.76,1.205,1.205,0,0,0,.582,1.094,2.483,2.483,0,0,0,.6.269c.216.066.445.126.679.179l.68.15a3.123,3.123,0,0,1,.6.191,1.178,1.178,0,0,1,.423.305.732.732,0,0,1,.159.489.953.953,0,0,1-.13.52.941.941,0,0,1-.342.321,1.529,1.529,0,0,1-.475.167,2.918,2.918,0,0,1-.526.049,2.5,2.5,0,0,1-.635-.081,1.6,1.6,0,0,1-.541-.253A1.3,1.3,0,0,1,10,12.666a1.324,1.324,0,0,1-.142-.631ZM5.766,8a2.7,2.7,0,0,0-1.209.257,2.535,2.535,0,0,0-.862.688,2.991,2.991,0,0,0-.521,1A4.158,4.158,0,0,0,3,11.156a3.276,3.276,0,0,0,.187,1.1,2.829,2.829,0,0,0,.545.936,2.628,2.628,0,0,0,.87.646,2.724,2.724,0,0,0,1.164.24,2.774,2.774,0,0,0,1.017-.2,1.947,1.947,0,0,0,.846-.655l.2.724h.488V10.887H5.774v.652H7.629a1.972,1.972,0,0,1-.106.744,1.656,1.656,0,0,1-.951,1,2.072,2.072,0,0,1-.806.147,1.849,1.849,0,0,1-.859-.192,1.879,1.879,0,0,1-.623-.512A2.3,2.3,0,0,1,3.9,11.99a2.954,2.954,0,0,1-.13-.875,3.669,3.669,0,0,1,.113-.907,2.465,2.465,0,0,1,.355-.789,1.825,1.825,0,0,1,.618-.557,1.845,1.845,0,0,1,.907-.212,2.387,2.387,0,0,1,.614.077A1.672,1.672,0,0,1,6.9,8.96a1.349,1.349,0,0,1,.382.394,1.519,1.519,0,0,1,.212.574h.773a2.35,2.35,0,0,0-.305-.875,2.064,2.064,0,0,0-.554-.6,2.253,2.253,0,0,0-.748-.346A3.539,3.539,0,0,0,5.766,8Zm8.348.139v.651h1.937v5.158h.773V8.789H18.76V8.138Z" transform="translate(-8674 18939)" fill="#6d44e5"/>
  </g>
</svg>
