<svg xmlns="http://www.w3.org/2000/svg" width="42" height="36" viewBox="0 0 42 36">
  <g id="Group_9035" data-name="Group 9035" transform="translate(6498 -18967)">
    <path id="Subtraction_29" data-name="Subtraction 29" d="M0,24V2.4A2.325,2.325,0,0,1,.705.7,2.32,2.32,0,0,1,2.4,0H21.6a2.325,2.325,0,0,1,1.7.7A2.325,2.325,0,0,1,24,2.4V16.8a2.4,2.4,0,0,1-2.4,2.4H4.8L0,24ZM9.143,12.347h5.732l1.278,2.921h1.972L12.41,3.037h-.821L5.876,15.268H7.847l1.3-2.921ZM14.2,10.8H9.818l2.209-4.983L14.2,10.794Z" transform="translate(-6498 18979)" fill="#85e6c4"/>
    <path id="Subtraction_31" data-name="Subtraction 31" d="M22.8,22.8l0,0L18.24,18.24H5.7V13.68a2.208,2.208,0,0,0-.669-1.611A2.212,2.212,0,0,0,3.42,11.4H0V2.28A2.209,2.209,0,0,1,.669.669,2.205,2.205,0,0,1,2.28,0H20.52a2.2,2.2,0,0,1,1.61.669A2.209,2.209,0,0,1,22.8,2.28V22.8ZM13.9,9.76v4.2h1.227V4.628h1.952V3.6H12.171V4.628H13.9V8.6a2.623,2.623,0,0,1-1.387.339,3.005,3.005,0,0,1-1.534-.4,2.322,2.322,0,0,0-.952-.517V7.954a2.241,2.241,0,0,0,1.146-1.969,2.4,2.4,0,0,0-2.6-2.4A2.839,2.839,0,0,0,6.281,4.613l.856.775a1.626,1.626,0,0,1,1.4-.711,1.3,1.3,0,0,1,1.4,1.388A1.523,1.523,0,0,1,8.266,7.63h-.5V8.712h.871c1.129,0,1.776.524,1.776,1.436a1.623,1.623,0,0,1-1.808,1.646A2.682,2.682,0,0,1,6.54,10.81l-.839.839a4.075,4.075,0,0,0,2.9,1.226,2.774,2.774,0,0,0,3.034-2.744,3,3,0,0,0-.028-.367l0-.013,0-.023a2.792,2.792,0,0,0,1.21.258A2.647,2.647,0,0,0,13.9,9.761Z" transform="translate(-6478.8 18967)" fill="#6d44e5"/>
  </g>
</svg>
