<svg xmlns="http://www.w3.org/2000/svg" width="41.016" height="41.051" viewBox="0 0 41.016 41.051">
  <g id="Group_1660" data-name="Group 1660" transform="translate(-425.468 -4978.507)">
    <path id="Path_1452" data-name="Path 1452" d="M30.717-2.175h0v-.033c-.8,0-1.59.008-2.377,0-.265-.008-.364.058-.364.34.008,1.424-.017,2.84.008,4.256a4.65,4.65,0,0,0,5.333,4.687,4.652,4.652,0,0,0-.265-9.242C32.282-2.216,31.5-2.175,30.717-2.175ZM11.959.517h.033c0-.778-.008-1.565.008-2.344.008-.273-.05-.389-.364-.389-1.4.017-2.808-.008-4.207.017a4.667,4.667,0,1,0,0,9.333,4.65,4.65,0,0,0,4.522-4.24C12.009,2.107,11.959,1.312,11.959.517ZM30.692-18.2h0v-.025c.778,0,1.557.041,2.335-.008a4.648,4.648,0,0,0,4.29-4.745,4.7,4.7,0,0,0-4.555-4.555,4.613,4.613,0,0,0-4.737,4.29c-.083,1.582-.033,3.172-.05,4.753,0,.257.116.3.331.3C29.1-18.2,29.9-18.2,30.692-18.2Zm-18.7-2.708h-.025c0-.778.041-1.565-.008-2.335a4.642,4.642,0,0,0-4.745-4.29,4.7,4.7,0,0,0-4.555,4.555,4.613,4.613,0,0,0,4.29,4.737c1.582.091,3.172.033,4.754.05.265,0,.3-.116.3-.331C11.992-19.316,11.992-20.111,11.992-20.906ZM25.3-15.5H14.684V-4.907H25.3ZM33.425,9.8H31.935a3.053,3.053,0,0,0-.373-.091,7.286,7.286,0,0,1-6.195-6.666c-.075-1.151-.041-2.31-.05-3.47-.008-.141-.017-.273-.025-.414H14.659c0,1.068.008,2.1,0,3.147A7.325,7.325,0,0,1,9.624,9.411c-.513.174-1.052.257-1.582.389H6.551a.621.621,0,0,0-.207-.075A7.248,7.248,0,0,1,1.35,6.694,7.338,7.338,0,0,1,4.663-4.361a9.506,9.506,0,0,1,3.528-.513c.812.008,1.615,0,2.435,0V-15.524c-1.068,0-2.1,0-3.147-.008a7.221,7.221,0,0,1-4.944-1.8A7.32,7.32,0,0,1,4.373-29.568,7.327,7.327,0,0,1,14.609-23.49c.075,1.168.041,2.344.05,3.511.008.141,0,.273,0,.422H25.317c0-1.052-.008-2.079,0-3.105a7.6,7.6,0,0,1,.613-3.114,7.323,7.323,0,0,1,6.948-4.406,7.3,7.3,0,0,1,6.667,4.861c.19.547.29,1.126.439,1.681v1.491a2.423,2.423,0,0,0-.083.331,7.291,7.291,0,0,1-6.708,6.244c-1.143.066-2.286.033-3.437.05-.133,0-.273.008-.414.017V-4.874c1.068,0,2.112-.008,3.147,0A7.353,7.353,0,0,1,39.786.8c.075.315.133.638.2.952V3.233a1.108,1.108,0,0,0-.075.215,7.311,7.311,0,0,1-5.516,6.128Zm0,0" transform="translate(426 5009.257)" fill="#721ff3" stroke="#721ff3" stroke-width="1"/>
    <path id="Path_1453" data-name="Path 1453" d="M9.669-20.557h0A33.191,33.191,0,0,1,5.81-20.59,3.013,3.013,0,0,1,3.152-23a3.1,3.1,0,0,1,.977-3.3,3.3,3.3,0,0,1,5.466,1.731,3.107,3.107,0,0,1,.075.621Zm0,0" transform="translate(426.973 5010.233)" fill="#1eefb0"/>
    <path id="Path_1454" data-name="Path 1454" d="M22.16-20.539h0c.124-1.482-.19-2.948.224-4.372a3.317,3.317,0,0,1,3.139-2.261,3.407,3.407,0,0,1,3.131,2.236,3.3,3.3,0,0,1-2.907,4.4c-1.11.041-2.211.025-3.321.033C22.367-20.506,22.3-20.523,22.16-20.539Zm0,0" transform="translate(433.132 5010.231)" fill="#1eefb0"/>
    <path id="Path_1455" data-name="Path 1455" d="M9.634-7.944h0c0,1.259.075,2.526-.017,3.784A3.312,3.312,0,0,1,6.064-1.369,3.336,3.336,0,0,1,3.033-4.582,3.156,3.156,0,0,1,5.708-7.911,28.2,28.2,0,0,1,9.634-7.944Zm0,0" transform="translate(426.975 5016.402)" fill="#1eefb0"/>
    <path id="Path_1456" data-name="Path 1456" d="M22.2-8.026h0c1.474.116,2.94-.2,4.364.224a3.191,3.191,0,0,1,2.253,3.271,3.314,3.314,0,0,1-2.874,3.155,3.307,3.307,0,0,1-3.735-3.089C22.183-5.624,22.2-6.776,22.2-8.026Zm0,0" transform="translate(433.143 5016.392)" fill="#1eefb0"/>
  </g>
</svg>
