<svg id="Group_4800" data-name="Group 4800" xmlns="http://www.w3.org/2000/svg" width="120.45" height="59.074" viewBox="0 0 120.45 59.074">
  <path id="Path_1468" data-name="Path 1468" d="M-61.294,160.3q0-7.286,0-14.573a6.023,6.023,0,0,1,5.862-6.036c2.905-.055,5.812-.016,8.718-.017q9.738,0,19.477,0a6.125,6.125,0,0,1,6.189,4.87,5.875,5.875,0,0,1,.148,1.312q0,14.471,0,28.943a6.236,6.236,0,0,1-6.235,6.239q-14-.088-27.991,0a6.193,6.193,0,0,1-6.174-6.164C-61.265,170.02-61.293,165.162-61.294,160.3Zm10.766,12.666a4.328,4.328,0,0,0,2.121,2.024,8.937,8.937,0,0,0,5.8.722,7.021,7.021,0,0,0,5.252-4.185,13.5,13.5,0,0,0,.022-12.409A7.486,7.486,0,0,0-47,155.189a6.519,6.519,0,0,0-3.262,2.526v-.671c0-3.89-.006-7.781.009-11.671,0-.4-.094-.514-.5-.506-1.41.026-2.822.034-4.232,0-.5-.013-.609.124-.608.613q.023,14.856.012,29.713a1.266,1.266,0,0,1,0,.2c-.056.338.105.445.424.451a9.256,9.256,0,0,0,2.228-.187A2.713,2.713,0,0,0-50.527,172.97Zm11.6-17.2a10.478,10.478,0,0,1,1.463,1.691.477.477,0,0,0,.624.22,4.514,4.514,0,0,1,5.519,2.518,11.62,11.62,0,0,1,.145,9.86,4.6,4.6,0,0,1-5.882,2.763.386.386,0,0,0-.5.169,7.614,7.614,0,0,1-1.432,1.581c-.364.295-.251.413.091.561a9.49,9.49,0,0,0,5.986.482,7.2,7.2,0,0,0,4.815-4.076,13.42,13.42,0,0,0,1.366-7.851,12.152,12.152,0,0,0-1.661-5.137A7.7,7.7,0,0,0-38.926,155.769Zm-1.238-.97c0-3.267,0-6.467,0-9.667,0-.209-.091-.255-.276-.253-.883.006-1.766.009-2.648,0-.246,0-.326.085-.321.325.013.543,0,1.086,0,1.629,0,2.171,0,4.343,0,6.515,0,.175-.112.443.232.453A6.111,6.111,0,0,1-40.164,154.8Z" transform="translate(61.303 -139.665)" fill="#aecd54"/>
  <path id="Path_1469" data-name="Path 1469" d="M266.5,224.145a10.428,10.428,0,0,1-.94,1.229,6.412,6.412,0,0,1-4.7,1.82,7.118,7.118,0,0,1-5.264-2.022,9.3,9.3,0,0,1-2.467-4.531,15.181,15.181,0,0,1,.56-9.857,7.519,7.519,0,0,1,7.721-4.657,6.029,6.029,0,0,1,4.65,2.648c.086.121.176.239.274.37.141-.15.075-.308.075-.447.005-2.854.011-5.707,0-8.56,0-.385.076-.521.493-.513,1.41.028,2.821.022,4.231,0,.34,0,.421.1.421.428q-.014,13.1,0,26.191c0,.344-.1.432-.428.421-.679-.023-1.359,0-2.039-.009A2.51,2.51,0,0,1,266.5,224.145Zm.135-7.114a10.273,10.273,0,0,0-.738-4.02,3.7,3.7,0,0,0-3.408-2.319,3.76,3.76,0,0,0-3.785,2.139,7.758,7.758,0,0,0-.779,3.179,8.7,8.7,0,0,0,.962,4.9c1.6,2.853,5.259,2.178,6.555.343A7.392,7.392,0,0,0,266.63,217.031Z" transform="translate(-207.946 -191.102)" fill="#070808"/>
  <path id="Path_1470" data-name="Path 1470" d="M410.761,263.368c-.432.394-.807.752-1.2,1.091a7.618,7.618,0,0,1-8.983.524,4.967,4.967,0,0,1-1.959-3.383,7.081,7.081,0,0,1,.69-4.63A6.123,6.123,0,0,1,403.925,254c1.7-.293,3.413-.535,5.118-.815.926-.152,1.464-.623,1.546-1.3a1.991,1.991,0,0,0-1.108-2.151,5.251,5.251,0,0,0-3.773-.1,2.157,2.157,0,0,0-1.233,1.151,2.4,2.4,0,0,1-2.221,1.361c-.916.035-1.835-.007-2.753.015-.319.008-.366-.12-.332-.386.419-3.345,2-5.86,5.919-6.449a13.342,13.342,0,0,1,7.251.624,5.059,5.059,0,0,1,3.307,4.946c.006,3.635,0,7.27.006,10.9a6.66,6.66,0,0,0,.228,2.01,1.47,1.47,0,0,0,.7.949c.385.2.19.53.2.808,0,.123-.153.107-.249.107-1.376,0-2.754.031-4.129-.016-.909-.031-1.459-.664-1.592-1.677C410.787,263.8,410.78,263.616,410.761,263.368Zm-.2-7.36a5.465,5.465,0,0,1-1.557.633c-.544.117-1.092.22-1.638.33a10.169,10.169,0,0,0-2.2.589,2.547,2.547,0,0,0-1.5,2.682,2.175,2.175,0,0,0,1.657,2.065,3.772,3.772,0,0,0,1.959-.062,3.94,3.94,0,0,0,3.251-3.214A19.8,19.8,0,0,0,410.565,256.008Z" transform="translate(-333.146 -230.11)" fill="#090909"/>
  <path id="Path_1471" data-name="Path 1471" d="M659.3,262.316c.338-1.247.642-2.367.946-3.488q1.237-4.571,2.476-9.142a2.83,2.83,0,0,1,2.924-2.254c.917-.013,1.836.021,2.753-.013.434-.016.413.139.3.457-1.3,3.782-2.575,7.571-3.887,11.348-1.4,4.016-2.682,8.07-4.155,12.059a10.3,10.3,0,0,1-1.5,2.861,4.206,4.206,0,0,1-3.161,1.5,10.612,10.612,0,0,1-1.576.054,2.375,2.375,0,0,1-2.327-2.461c-.019-.509.017-1.02-.011-1.528-.018-.332.131-.348.393-.326a6.416,6.416,0,0,0,2.175-.107,1.824,1.824,0,0,0,1.215-.928,3.313,3.313,0,0,0,.337-2.836c-2.3-6.522-4.527-13.071-6.789-19.607-.127-.368-.132-.5.321-.488,1.632.025,3.264.018,4.9,0,.332,0,.447.1.539.427q1.961,7,3.96,13.983C659.166,261.946,659.211,262.056,659.3,262.316Z" transform="translate(-548.322 -232.101)" fill="#070808"/>
  <path id="Path_1472" data-name="Path 1472" d="M605.517,213.2c0,4.314-.006,8.627.01,12.941,0,.421-.1.536-.529.529-1.631-.027-3.263-.02-4.894,0-.328,0-.425-.078-.424-.42q.016-11.769.012-23.538a2.942,2.942,0,0,1,3.118-3.074c.747,0,1.5.024,2.242-.01.391-.018.475.1.473.481C605.511,204.472,605.517,208.836,605.517,213.2Z" transform="translate(-505.717 -191.101)" fill="#060707"/>
  <path id="Path_1473" data-name="Path 1473" d="M545.835,256.851c0,3.227-.007,6.454.01,9.681,0,.382-.09.482-.474.477-1.6-.023-3.195-.019-4.792,0-.333,0-.466-.048-.465-.43q.019-9.757,0-19.515c0-.34.1-.416.421-.412q2.447.025,4.894,0c.34,0,.414.1.413.421C545.831,250.329,545.835,253.59,545.835,256.851Z" transform="translate(-454.619 -231.439)" fill="#060707"/>
  <path id="Path_1474" data-name="Path 1474" d="M153.618,488.137c-.465,1.365-.93,2.706-1.374,4.054a.492.492,0,0,1-.566.416c-.844-.029-1.689-.01-2.586-.01l2.082-5.511c.233-.618.475-1.232.7-1.854a.458.458,0,0,1,.507-.374c.849.024,1.7.014,2.549,0a.406.406,0,0,1,.459.287q1.39,3.629,2.8,7.251a1.331,1.331,0,0,1,.036.2c-.944,0-1.872,0-2.8,0-.271,0-.265-.218-.322-.381-.4-1.15-.8-2.3-1.2-3.454A1.681,1.681,0,0,0,153.618,488.137Z" transform="translate(-119.183 -435.787)" fill="#0059a4"/>
  <path id="Path_1475" data-name="Path 1475" d="M264.466,492.592c-.933,0-1.817-.014-2.7.008-.3.008-.355-.166-.43-.383-.428-1.249-.867-2.5-1.3-3.744a.538.538,0,0,0-.183-.325c-.455,1.333-.917,2.653-1.352,3.982-.108.33-.236.491-.625.474-.827-.038-1.658-.012-2.542-.012.567-1.5,1.114-2.959,1.664-4.414.365-.967.74-1.93,1.092-2.9.1-.287.233-.436.575-.424.832.028,1.666.016,2.5,0a.408.408,0,0,1,.462.286q1.391,3.63,2.8,7.255A1.546,1.546,0,0,1,264.466,492.592Z" transform="translate(-210.325 -435.782)" fill="#0059a4"/>
  <path id="Path_1476" data-name="Path 1476" d="M106.048,484.856c1.087,0,2.174.018,3.26-.01.4-.01.5.121.473.492a12.974,12.974,0,0,0,0,1.425c.014.306-.077.427-.4.409-.44-.025-.884.017-1.324-.014-.352-.025-.417.118-.414.434.014,1.511-.008,3.021.016,4.531.006.386-.1.488-.479.472-.746-.031-1.495-.03-2.241,0-.372.015-.447-.118-.443-.462.018-1.493-.009-2.987.018-4.48.008-.417-.128-.522-.515-.495-.439.031-.883-.006-1.324.012-.269.011-.356-.087-.348-.35.015-.526.023-1.053,0-1.578-.015-.325.11-.4.412-.393C103.841,484.865,104.944,484.856,106.048,484.856Z" transform="translate(-79.064 -435.776)" fill="#0059a4"/>
  <path id="Path_1477" data-name="Path 1477" d="M212.247,484.879c1.1,0,2.208.01,3.311-.006.316,0,.46.06.438.414-.031.507-.022,1.018,0,1.527.011.281-.067.4-.367.381-.423-.023-.852.027-1.272-.015-.446-.044-.524.133-.518.54.025,1.476-.005,2.953.02,4.429.007.39-.105.486-.481.47-.729-.03-1.461-.037-2.19,0-.426.022-.5-.136-.493-.517.02-1.459-.014-2.919.021-4.378.012-.471-.139-.582-.571-.545s-.849-.006-1.273.013c-.271.012-.354-.09-.347-.352.015-.526.023-1.053,0-1.578-.016-.33.115-.395.414-.391C210.039,484.888,211.143,484.879,212.247,484.879Z" transform="translate(-170.164 -435.799)" fill="#0059a4"/>
  <path id="Path_1478" data-name="Path 1478" d="M542.945,205.66a2.933,2.933,0,1,1,2.875-2.935A2.879,2.879,0,0,1,542.945,205.66Z" transform="translate(-454.603 -191.247)" fill="#e0051c"/>
  <path id="Path_1479" data-name="Path 1479" d="M528.6,500.187a2.289,2.289,0,0,1,4.075.92,3.43,3.43,0,0,1-.456,3.015,2.317,2.317,0,0,1-3.25.525c-.051-.035-.107-.062-.24-.138,0,.808-.016,1.548.007,2.286.01.337-.1.427-.432.426-1,0-1,.01-1-.969-.011-2.156.042-4.313-.051-6.468-.012-.277.047-.427.353-.384a1.029,1.029,0,0,0,.153,0C528.471,499.4,528.471,499.4,528.6,500.187Zm.113,1.984c0,.21-.006.362,0,.514a1.279,1.279,0,0,0,1.08,1.279,1.253,1.253,0,0,0,1.4-.834,2.437,2.437,0,0,0-.04-1.969,1.236,1.236,0,0,0-2.182-.2A1.914,1.914,0,0,0,528.713,502.172Z" transform="translate(-443.582 -448.148)" fill="#0059a4"/>
  <path id="Path_1480" data-name="Path 1480" d="M44.542,492.789c-.458,0-.878-.013-1.3.005-.242.011-.272-.153-.323-.311-.161-.5-.328-1-.473-1.5-.07-.242-.171-.369-.452-.359-.594.021-1.189.013-1.783,0a.335.335,0,0,0-.39.295c-.133.507-.324,1-.449,1.508a.4.4,0,0,1-.491.364c-.337-.024-.677-.006-1.094-.006l.715-2.23c.543-1.693,1.092-3.383,1.62-5.08a.467.467,0,0,1,.529-.4c1.412-.006,1.407-.015,1.838,1.33.615,1.918,1.239,3.833,1.858,5.75C44.413,492.353,44.469,492.547,44.542,492.789Zm-3.441-6.46c-.159.574-.313,1.083-.438,1.6a4.274,4.274,0,0,0-.388,1.6l1.72-.01c.014,0,.029-.014.066-.032Z" transform="translate(-23.704 -435.979)" fill="#005aa5"/>
  <path id="Path_1481" data-name="Path 1481" d="M347.016,488.911c0-1.12.011-2.241-.007-3.361-.006-.334.056-.48.437-.472,1.205.024,2.412.034,3.617,0,.607-.018.4.383.436.678.036.321.011.542-.434.516-.728-.042-1.461.01-2.19-.02-.369-.015-.469.112-.442.459a6.331,6.331,0,0,1,0,1.068c-.034.374.12.457.463.442.594-.025,1.189-.011,1.783-.006.726.007.6-.1.644.66.023.416-.088.564-.524.538-.66-.039-1.324,0-1.986-.016-.284-.008-.391.076-.378.37.021.491.02.985,0,1.476-.012.294.1.378.382.373.8-.015,1.6.01,2.395-.012.345-.01.477.078.469.448-.016.731.005.732-.726.732-1.172,0-2.344-.011-3.516.007-.324,0-.437-.075-.43-.418C347.029,491.22,347.016,490.065,347.016,488.911Z" transform="translate(-288.964 -435.974)" fill="#0059a4"/>
  <path id="Path_1482" data-name="Path 1482" d="M388.059,500.177a2.147,2.147,0,0,1,1.962-.887,1.949,1.949,0,0,1,1.772,2.072c.042,1.1.008,2.2.017,3.308,0,.207-.048.288-.279.305-1.154.086-1.153.095-1.153-1.058,0-.713.005-1.425,0-2.138-.008-.857-.36-1.307-1.012-1.315-.694-.008-1.157.487-1.174,1.31-.02.933-.017,1.866,0,2.8.006.31-.081.4-.4.4-1.037,0-1.032.018-1.037-1.031-.007-1.39-.016-2.781-.036-4.171,0-.254.062-.391.337-.363a1.963,1.963,0,0,0,.2,0C387.962,499.407,387.962,499.407,388.059,500.177Z" transform="translate(-323.031 -448.158)" fill="#0059a4"/>
  <path id="Path_1483" data-name="Path 1483" d="M459.929,502.442c-.509,0-1.018.007-1.527,0-.252-.005-.323.071-.261.329a1.409,1.409,0,0,0,1.181,1.05,3.631,3.631,0,0,0,1.711-.12c.255-.079.316.006.376.22.191.687.163.744-.543.9a5.036,5.036,0,0,1-1.874.09,2.714,2.714,0,0,1-2.2-3.457,2.632,2.632,0,0,1,1.868-2.208,2.386,2.386,0,0,1,3.187,2.289c0,.034,0,.068,0,.1,0,1.038.023.817-.794.834-.373.008-.748,0-1.121,0Zm-.653-.982c.305,0,.611-.017.915.005s.347-.1.295-.356a1.1,1.1,0,0,0-1.214-.977,1.315,1.315,0,0,0-1.145,1.121c-.027.232.1.205.234.206C458.665,501.462,458.971,501.461,459.276,501.46Z" transform="translate(-383.072 -448.026)" fill="#005aa5"/>
  <path id="Path_1484" data-name="Path 1484" d="M654.265,502.481c-.475,0-.951.018-1.425-.006-.383-.019-.434.122-.314.448a1.406,1.406,0,0,0,1.169.935,3.543,3.543,0,0,0,1.66-.112c.24-.072.34-.062.406.222.162.69.157.734-.509.886a5.2,5.2,0,0,1-1.872.1,2.568,2.568,0,0,1-2.3-2.669,2.756,2.756,0,0,1,3.4-3.028,2.673,2.673,0,0,1,1.707,3.042c-.06.193-.182.213-.346.212-.527,0-1.054,0-1.58,0Zm-.613-.982c.306,0,.611-.011.916,0,.254.012.318-.07.271-.325a1.1,1.1,0,0,0-.931-1,1.2,1.2,0,0,0-1.307.747c-.235.511-.2.57.339.572Z" transform="translate(-549.809 -448.065)" fill="#005aa5"/>
  <path id="Path_1485" data-name="Path 1485" d="M620.285,505.039a2.942,2.942,0,0,1-1.345-.212c-.613-.235-.117-.628-.093-.933.029-.374.28-.138.441-.08a2.607,2.607,0,0,0,1.292.2c.281-.043.532-.146.6-.462a.585.585,0,0,0-.374-.7c-.29-.136-.6-.241-.888-.373A1.593,1.593,0,0,1,618.8,500.7a1.777,1.777,0,0,1,1.506-1.386,3.053,3.053,0,0,1,1.8.161c.544.214.05.566.052.849,0,.318-.221.191-.4.13a1.958,1.958,0,0,0-1.04-.164c-.281.057-.526.176-.572.5-.043.3.164.472.4.586.366.176.751.312,1.113.494a1.511,1.511,0,0,1,.92,1.356,1.742,1.742,0,0,1-1.735,1.814A5.248,5.248,0,0,1,620.285,505.039Z" transform="translate(-521.978 -448.131)" fill="#005aa5"/>
  <path id="Path_1486" data-name="Path 1486" d="M428.778,494.616c0-.288-.017-.578,0-.865.033-.442.092-.878-.594-.75-.161.031-.175-.1-.192-.227-.074-.569.005-.7.577-.824.319-.068.185-.307.216-.484.034-.193-.1-.478.1-.566a7.356,7.356,0,0,1,1.166-.333c.08-.02.1.065.108.135s0,.169.005.254c.016.928.016.956.941.974.585.011.334.412.383.676.054.293-.046.41-.377.41-.947,0-.947.018-.947.948,0,.509-.008,1.018,0,1.527.015.749.245.982.981.947.233-.011.292.049.316.262.085.769-.009.884-.786.906-1.27.036-1.806-.446-1.881-1.718-.025-.423,0-.848,0-1.271Z" transform="translate(-358.42 -440.682)" fill="#0059a4"/>
  <path id="Path_1487" data-name="Path 1487" d="M574.749,500.312a1.788,1.788,0,0,1,1.365-1.087c.312-.049.549,0,.5.407a1.436,1.436,0,0,0,0,.305c.034.4.04.669-.548.643a1.11,1.11,0,0,0-1.141,1.136c-.053.93-.046,1.863-.04,2.794,0,.3-.07.406-.394.408-1.042,0-1.064.019-1.035-1.025.039-1.406.059-2.812-.02-4.216-.015-.268.074-.311.3-.327C574.628,499.286,574.628,499.28,574.749,500.312Z" transform="translate(-483.203 -448.098)" fill="#0059a4"/>
  <path id="Path_1488" data-name="Path 1488" d="M500.994,500.288a1.816,1.816,0,0,1,1.361-1.064c.334-.052.531.036.483.423a1.969,1.969,0,0,0,0,.407c.028.344,0,.534-.47.515a1.175,1.175,0,0,0-1.214,1.241c-.032.9-.027,1.8-.012,2.7,0,.306-.073.406-.395.408-1.036.007-1.032.021-1.037-1.03q-.008-2.113-.031-4.226c0-.212.047-.329.277-.31a.342.342,0,0,0,.051,0C500.861,499.3,500.861,499.3,500.994,500.288Z" transform="translate(-419.933 -448.099)" fill="#0059a4"/>
  <path id="Path_1489" data-name="Path 1489" d="M601.235,502.92c0-.781.018-1.564-.008-2.344-.012-.348.114-.427.435-.431,1-.01,1-.021,1,.973,0,1.393-.011,2.786.008,4.178,0,.34-.1.423-.429.421-1-.005-1,.009-1-1.015Q601.235,503.812,601.235,502.92Z" transform="translate(-507.044 -448.9)" fill="#005aa5"/>
  <path id="Path_1490" data-name="Path 1490" d="M601.289,484.6a.767.767,0,0,1-.838-.8.777.777,0,0,1,.808-.791.767.767,0,0,1,.859.784A.759.759,0,0,1,601.289,484.6Z" transform="translate(-506.379 -434.196)" fill="#005aa5"/>
  <path id="Path_1491" data-name="Path 1491" d="M-16.078,204.331a2.713,2.713,0,0,1-2.4,2.686,9.246,9.246,0,0,1-2.228.187c-.318,0-.479-.112-.424-.451a1.264,1.264,0,0,0,0-.2q0-14.856-.012-29.713c0-.489.11-.626.608-.613,1.41.037,2.822.029,4.232,0,.407-.008.5.111.5.506-.015,3.89-.009,7.781-.009,11.671v.671a6.518,6.518,0,0,1,3.262-2.526,7.486,7.486,0,0,1,9.672,3.934A13.5,13.5,0,0,1-2.9,202.893a7.021,7.021,0,0,1-5.252,4.185,8.938,8.938,0,0,1-5.8-.723A4.328,4.328,0,0,1-16.078,204.331Zm-.062-7.711a7.631,7.631,0,0,0,1.926,5.367c1.336,1.4,4.786,1.812,6.149-.845a9.838,9.838,0,0,0,.3-8.454,3.818,3.818,0,0,0-1.807-2.066,4.215,4.215,0,0,0-5.619,1.981A8.573,8.573,0,0,0-16.139,196.62Z" transform="translate(26.854 -171.026)" fill="#e0041c"/>
  <path id="Path_1492" data-name="Path 1492" d="M94.374,246.508a7.7,7.7,0,0,1,10.535,2.782,12.152,12.152,0,0,1,1.661,5.137,13.421,13.421,0,0,1-1.366,7.851,7.2,7.2,0,0,1-4.815,4.075,9.489,9.489,0,0,1-5.986-.482c-.342-.149-.455-.266-.091-.561a7.61,7.61,0,0,0,1.433-1.581.385.385,0,0,1,.5-.169,4.6,4.6,0,0,0,5.882-2.763,11.62,11.62,0,0,0-.145-9.86,4.514,4.514,0,0,0-5.519-2.518.477.477,0,0,1-.624-.22A10.482,10.482,0,0,0,94.374,246.508Z" transform="translate(-71.997 -230.404)" fill="#080909"/>
  <path id="Path_1493" data-name="Path 1493" d="M67.781,186.248a6.109,6.109,0,0,0-3-1c-.344-.01-.232-.278-.232-.453-.007-2.172,0-4.343,0-6.515,0-.543.009-1.086,0-1.629-.006-.24.074-.328.321-.325.883.011,1.765.008,2.648,0,.185,0,.276.044.276.254C67.78,179.781,67.781,182.981,67.781,186.248Z" transform="translate(-46.642 -171.114)" fill="#090909"/>
  <path id="Path_1494" data-name="Path 1494" d="M14.069,280.9a8.573,8.573,0,0,1,.948-4.017,4.215,4.215,0,0,1,5.619-1.981,3.818,3.818,0,0,1,1.807,2.066,9.838,9.838,0,0,1-.3,8.454c-1.363,2.657-4.813,2.243-6.149.845A7.631,7.631,0,0,1,14.069,280.9Z" transform="translate(-3.354 -255.303)" fill="#a4bf26"/>
</svg>
