<svg xmlns="http://www.w3.org/2000/svg" width="152.276" height="140" viewBox="0 0 152.276 140">
  <g id="Group_4821" data-name="Group 4821" transform="translate(1143 -2865.5)">
    <g id="Group_4819" data-name="Group 4819" transform="translate(-181 160)">
      <g id="Group_4800" data-name="Group 4800" transform="translate(-962 2786.426)">
        <path id="Path_1468" data-name="Path 1468" d="M-61.294,160.3q0-7.286,0-14.573a6.023,6.023,0,0,1,5.862-6.036c2.905-.055,5.812-.016,8.718-.017q9.738,0,19.477,0a6.125,6.125,0,0,1,6.189,4.87,5.875,5.875,0,0,1,.148,1.312q0,14.471,0,28.943a6.236,6.236,0,0,1-6.235,6.239q-14-.088-27.991,0a6.193,6.193,0,0,1-6.174-6.164C-61.265,170.02-61.293,165.162-61.294,160.3Zm10.766,12.666a4.328,4.328,0,0,0,2.121,2.024,8.937,8.937,0,0,0,5.8.722,7.021,7.021,0,0,0,5.252-4.185,13.5,13.5,0,0,0,.022-12.409A7.486,7.486,0,0,0-47,155.189a6.519,6.519,0,0,0-3.262,2.526v-.671c0-3.89-.006-7.781.009-11.671,0-.4-.094-.514-.5-.506-1.41.026-2.822.034-4.232,0-.5-.013-.609.124-.608.613q.023,14.856.012,29.713a1.266,1.266,0,0,1,0,.2c-.056.338.105.445.424.451a9.256,9.256,0,0,0,2.228-.187A2.713,2.713,0,0,0-50.527,172.97Zm11.6-17.2a10.478,10.478,0,0,1,1.463,1.691.477.477,0,0,0,.624.22,4.514,4.514,0,0,1,5.519,2.518,11.62,11.62,0,0,1,.145,9.86,4.6,4.6,0,0,1-5.882,2.763.386.386,0,0,0-.5.169,7.614,7.614,0,0,1-1.432,1.581c-.364.295-.251.413.091.561a9.49,9.49,0,0,0,5.986.482,7.2,7.2,0,0,0,4.815-4.076,13.42,13.42,0,0,0,1.366-7.851,12.152,12.152,0,0,0-1.661-5.137A7.7,7.7,0,0,0-38.926,155.769Zm-1.238-.97c0-3.267,0-6.467,0-9.667,0-.209-.091-.255-.276-.253-.883.006-1.766.009-2.648,0-.246,0-.326.085-.321.325.013.543,0,1.086,0,1.629,0,2.171,0,4.343,0,6.515,0,.175-.112.443.232.453A6.111,6.111,0,0,1-40.164,154.8Z" transform="translate(61.303 -139.665)" fill="#aecd54"/>
        <path id="Path_1469" data-name="Path 1469" d="M266.5,224.145a10.428,10.428,0,0,1-.94,1.229,6.412,6.412,0,0,1-4.7,1.82,7.118,7.118,0,0,1-5.264-2.022,9.3,9.3,0,0,1-2.467-4.531,15.181,15.181,0,0,1,.56-9.857,7.519,7.519,0,0,1,7.721-4.657,6.029,6.029,0,0,1,4.65,2.648c.086.121.176.239.274.37.141-.15.075-.308.075-.447.005-2.854.011-5.707,0-8.56,0-.385.076-.521.493-.513,1.41.028,2.821.022,4.231,0,.34,0,.421.1.421.428q-.014,13.1,0,26.191c0,.344-.1.432-.428.421-.679-.023-1.359,0-2.039-.009A2.51,2.51,0,0,1,266.5,224.145Zm.135-7.114a10.273,10.273,0,0,0-.738-4.02,3.7,3.7,0,0,0-3.408-2.319,3.76,3.76,0,0,0-3.785,2.139,7.758,7.758,0,0,0-.779,3.179,8.7,8.7,0,0,0,.962,4.9c1.6,2.853,5.259,2.178,6.555.343A7.392,7.392,0,0,0,266.63,217.031Z" transform="translate(-207.946 -191.102)" fill="#070808"/>
        <path id="Path_1470" data-name="Path 1470" d="M410.761,263.368c-.432.394-.807.752-1.2,1.091a7.618,7.618,0,0,1-8.983.524,4.967,4.967,0,0,1-1.959-3.383,7.081,7.081,0,0,1,.69-4.63A6.123,6.123,0,0,1,403.925,254c1.7-.293,3.413-.535,5.118-.815.926-.152,1.464-.623,1.546-1.3a1.991,1.991,0,0,0-1.108-2.151,5.251,5.251,0,0,0-3.773-.1,2.157,2.157,0,0,0-1.233,1.151,2.4,2.4,0,0,1-2.221,1.361c-.916.035-1.835-.007-2.753.015-.319.008-.366-.12-.332-.386.419-3.345,2-5.86,5.919-6.449a13.342,13.342,0,0,1,7.251.624,5.059,5.059,0,0,1,3.307,4.946c.006,3.635,0,7.27.006,10.9a6.66,6.66,0,0,0,.228,2.01,1.47,1.47,0,0,0,.7.949c.385.2.19.53.2.808,0,.123-.153.107-.249.107-1.376,0-2.754.031-4.129-.016-.909-.031-1.459-.664-1.592-1.677C410.787,263.8,410.78,263.616,410.761,263.368Zm-.2-7.36a5.465,5.465,0,0,1-1.557.633c-.544.117-1.092.22-1.638.33a10.169,10.169,0,0,0-2.2.589,2.547,2.547,0,0,0-1.5,2.682,2.175,2.175,0,0,0,1.657,2.065,3.772,3.772,0,0,0,1.959-.062,3.94,3.94,0,0,0,3.251-3.214A19.8,19.8,0,0,0,410.565,256.008Z" transform="translate(-333.146 -230.11)" fill="#090909"/>
        <path id="Path_1471" data-name="Path 1471" d="M659.3,262.316c.338-1.247.642-2.367.946-3.488q1.237-4.571,2.476-9.142a2.83,2.83,0,0,1,2.924-2.254c.917-.013,1.836.021,2.753-.013.434-.016.413.139.3.457-1.3,3.782-2.575,7.571-3.887,11.348-1.4,4.016-2.682,8.07-4.155,12.059a10.3,10.3,0,0,1-1.5,2.861,4.206,4.206,0,0,1-3.161,1.5,10.612,10.612,0,0,1-1.576.054,2.375,2.375,0,0,1-2.327-2.461c-.019-.509.017-1.02-.011-1.528-.018-.332.131-.348.393-.326a6.416,6.416,0,0,0,2.175-.107,1.824,1.824,0,0,0,1.215-.928,3.313,3.313,0,0,0,.337-2.836c-2.3-6.522-4.527-13.071-6.789-19.607-.127-.368-.132-.5.321-.488,1.632.025,3.264.018,4.9,0,.332,0,.447.1.539.427q1.961,7,3.96,13.983C659.166,261.946,659.211,262.056,659.3,262.316Z" transform="translate(-548.322 -232.101)" fill="#070808"/>
        <path id="Path_1472" data-name="Path 1472" d="M605.517,213.2c0,4.314-.006,8.627.01,12.941,0,.421-.1.536-.529.529-1.631-.027-3.263-.02-4.894,0-.328,0-.425-.078-.424-.42q.016-11.769.012-23.538a2.942,2.942,0,0,1,3.118-3.074c.747,0,1.5.024,2.242-.01.391-.018.475.1.473.481C605.511,204.472,605.517,208.836,605.517,213.2Z" transform="translate(-505.717 -191.101)" fill="#060707"/>
        <path id="Path_1473" data-name="Path 1473" d="M545.835,256.851c0,3.227-.007,6.454.01,9.681,0,.382-.09.482-.474.477-1.6-.023-3.195-.019-4.792,0-.333,0-.466-.048-.465-.43q.019-9.757,0-19.515c0-.34.1-.416.421-.412q2.447.025,4.894,0c.34,0,.414.1.413.421C545.831,250.329,545.835,253.59,545.835,256.851Z" transform="translate(-454.619 -231.439)" fill="#060707"/>
        <path id="Path_1474" data-name="Path 1474" d="M153.618,488.137c-.465,1.365-.93,2.706-1.374,4.054a.492.492,0,0,1-.566.416c-.844-.029-1.689-.01-2.586-.01l2.082-5.511c.233-.618.475-1.232.7-1.854a.458.458,0,0,1,.507-.374c.849.024,1.7.014,2.549,0a.406.406,0,0,1,.459.287q1.39,3.629,2.8,7.251a1.331,1.331,0,0,1,.036.2c-.944,0-1.872,0-2.8,0-.271,0-.265-.218-.322-.381-.4-1.15-.8-2.3-1.2-3.454A1.681,1.681,0,0,0,153.618,488.137Z" transform="translate(-119.183 -435.787)" fill="#0059a4"/>
        <path id="Path_1475" data-name="Path 1475" d="M264.466,492.592c-.933,0-1.817-.014-2.7.008-.3.008-.355-.166-.43-.383-.428-1.249-.867-2.5-1.3-3.744a.538.538,0,0,0-.183-.325c-.455,1.333-.917,2.653-1.352,3.982-.108.33-.236.491-.625.474-.827-.038-1.658-.012-2.542-.012.567-1.5,1.114-2.959,1.664-4.414.365-.967.74-1.93,1.092-2.9.1-.287.233-.436.575-.424.832.028,1.666.016,2.5,0a.408.408,0,0,1,.462.286q1.391,3.63,2.8,7.255A1.546,1.546,0,0,1,264.466,492.592Z" transform="translate(-210.325 -435.782)" fill="#0059a4"/>
        <path id="Path_1476" data-name="Path 1476" d="M106.048,484.856c1.087,0,2.174.018,3.26-.01.4-.01.5.121.473.492a12.974,12.974,0,0,0,0,1.425c.014.306-.077.427-.4.409-.44-.025-.884.017-1.324-.014-.352-.025-.417.118-.414.434.014,1.511-.008,3.021.016,4.531.006.386-.1.488-.479.472-.746-.031-1.495-.03-2.241,0-.372.015-.447-.118-.443-.462.018-1.493-.009-2.987.018-4.48.008-.417-.128-.522-.515-.495-.439.031-.883-.006-1.324.012-.269.011-.356-.087-.348-.35.015-.526.023-1.053,0-1.578-.015-.325.11-.4.412-.393C103.841,484.865,104.944,484.856,106.048,484.856Z" transform="translate(-79.064 -435.776)" fill="#0059a4"/>
        <path id="Path_1477" data-name="Path 1477" d="M212.247,484.879c1.1,0,2.208.01,3.311-.006.316,0,.46.06.438.414-.031.507-.022,1.018,0,1.527.011.281-.067.4-.367.381-.423-.023-.852.027-1.272-.015-.446-.044-.524.133-.518.54.025,1.476-.005,2.953.02,4.429.007.39-.105.486-.481.47-.729-.03-1.461-.037-2.19,0-.426.022-.5-.136-.493-.517.02-1.459-.014-2.919.021-4.378.012-.471-.139-.582-.571-.545s-.849-.006-1.273.013c-.271.012-.354-.09-.347-.352.015-.526.023-1.053,0-1.578-.016-.33.115-.395.414-.391C210.039,484.888,211.143,484.879,212.247,484.879Z" transform="translate(-170.164 -435.799)" fill="#0059a4"/>
        <path id="Path_1478" data-name="Path 1478" d="M542.945,205.66a2.933,2.933,0,1,1,2.875-2.935A2.879,2.879,0,0,1,542.945,205.66Z" transform="translate(-454.603 -191.247)" fill="#e0051c"/>
        <path id="Path_1479" data-name="Path 1479" d="M528.6,500.187a2.289,2.289,0,0,1,4.075.92,3.43,3.43,0,0,1-.456,3.015,2.317,2.317,0,0,1-3.25.525c-.051-.035-.107-.062-.24-.138,0,.808-.016,1.548.007,2.286.01.337-.1.427-.432.426-1,0-1,.01-1-.969-.011-2.156.042-4.313-.051-6.468-.012-.277.047-.427.353-.384a1.029,1.029,0,0,0,.153,0C528.471,499.4,528.471,499.4,528.6,500.187Zm.113,1.984c0,.21-.006.362,0,.514a1.279,1.279,0,0,0,1.08,1.279,1.253,1.253,0,0,0,1.4-.834,2.437,2.437,0,0,0-.04-1.969,1.236,1.236,0,0,0-2.182-.2A1.914,1.914,0,0,0,528.713,502.172Z" transform="translate(-443.582 -448.148)" fill="#0059a4"/>
        <path id="Path_1480" data-name="Path 1480" d="M44.542,492.789c-.458,0-.878-.013-1.3.005-.242.011-.272-.153-.323-.311-.161-.5-.328-1-.473-1.5-.07-.242-.171-.369-.452-.359-.594.021-1.189.013-1.783,0a.335.335,0,0,0-.39.295c-.133.507-.324,1-.449,1.508a.4.4,0,0,1-.491.364c-.337-.024-.677-.006-1.094-.006l.715-2.23c.543-1.693,1.092-3.383,1.62-5.08a.467.467,0,0,1,.529-.4c1.412-.006,1.407-.015,1.838,1.33.615,1.918,1.239,3.833,1.858,5.75C44.413,492.353,44.469,492.547,44.542,492.789Zm-3.441-6.46c-.159.574-.313,1.083-.438,1.6a4.274,4.274,0,0,0-.388,1.6l1.72-.01c.014,0,.029-.014.066-.032Z" transform="translate(-23.704 -435.979)" fill="#005aa5"/>
        <path id="Path_1481" data-name="Path 1481" d="M347.016,488.911c0-1.12.011-2.241-.007-3.361-.006-.334.056-.48.437-.472,1.205.024,2.412.034,3.617,0,.607-.018.4.383.436.678.036.321.011.542-.434.516-.728-.042-1.461.01-2.19-.02-.369-.015-.469.112-.442.459a6.331,6.331,0,0,1,0,1.068c-.034.374.12.457.463.442.594-.025,1.189-.011,1.783-.006.726.007.6-.1.644.66.023.416-.088.564-.524.538-.66-.039-1.324,0-1.986-.016-.284-.008-.391.076-.378.37.021.491.02.985,0,1.476-.012.294.1.378.382.373.8-.015,1.6.01,2.395-.012.345-.01.477.078.469.448-.016.731.005.732-.726.732-1.172,0-2.344-.011-3.516.007-.324,0-.437-.075-.43-.418C347.029,491.22,347.016,490.065,347.016,488.911Z" transform="translate(-288.964 -435.974)" fill="#0059a4"/>
        <path id="Path_1482" data-name="Path 1482" d="M388.059,500.177a2.147,2.147,0,0,1,1.962-.887,1.949,1.949,0,0,1,1.772,2.072c.042,1.1.008,2.2.017,3.308,0,.207-.048.288-.279.305-1.154.086-1.153.095-1.153-1.058,0-.713.005-1.425,0-2.138-.008-.857-.36-1.307-1.012-1.315-.694-.008-1.157.487-1.174,1.31-.02.933-.017,1.866,0,2.8.006.31-.081.4-.4.4-1.037,0-1.032.018-1.037-1.031-.007-1.39-.016-2.781-.036-4.171,0-.254.062-.391.337-.363a1.963,1.963,0,0,0,.2,0C387.962,499.407,387.962,499.407,388.059,500.177Z" transform="translate(-323.031 -448.158)" fill="#0059a4"/>
        <path id="Path_1483" data-name="Path 1483" d="M459.929,502.442c-.509,0-1.018.007-1.527,0-.252-.005-.323.071-.261.329a1.409,1.409,0,0,0,1.181,1.05,3.631,3.631,0,0,0,1.711-.12c.255-.079.316.006.376.22.191.687.163.744-.543.9a5.036,5.036,0,0,1-1.874.09,2.714,2.714,0,0,1-2.2-3.457,2.632,2.632,0,0,1,1.868-2.208,2.386,2.386,0,0,1,3.187,2.289c0,.034,0,.068,0,.1,0,1.038.023.817-.794.834-.373.008-.748,0-1.121,0Zm-.653-.982c.305,0,.611-.017.915.005s.347-.1.295-.356a1.1,1.1,0,0,0-1.214-.977,1.315,1.315,0,0,0-1.145,1.121c-.027.232.1.205.234.206C458.665,501.462,458.971,501.461,459.276,501.46Z" transform="translate(-383.072 -448.026)" fill="#005aa5"/>
        <path id="Path_1484" data-name="Path 1484" d="M654.265,502.481c-.475,0-.951.018-1.425-.006-.383-.019-.434.122-.314.448a1.406,1.406,0,0,0,1.169.935,3.543,3.543,0,0,0,1.66-.112c.24-.072.34-.062.406.222.162.69.157.734-.509.886a5.2,5.2,0,0,1-1.872.1,2.568,2.568,0,0,1-2.3-2.669,2.756,2.756,0,0,1,3.4-3.028,2.673,2.673,0,0,1,1.707,3.042c-.06.193-.182.213-.346.212-.527,0-1.054,0-1.58,0Zm-.613-.982c.306,0,.611-.011.916,0,.254.012.318-.07.271-.325a1.1,1.1,0,0,0-.931-1,1.2,1.2,0,0,0-1.307.747c-.235.511-.2.57.339.572Z" transform="translate(-549.809 -448.065)" fill="#005aa5"/>
        <path id="Path_1485" data-name="Path 1485" d="M620.285,505.039a2.942,2.942,0,0,1-1.345-.212c-.613-.235-.117-.628-.093-.933.029-.374.28-.138.441-.08a2.607,2.607,0,0,0,1.292.2c.281-.043.532-.146.6-.462a.585.585,0,0,0-.374-.7c-.29-.136-.6-.241-.888-.373A1.593,1.593,0,0,1,618.8,500.7a1.777,1.777,0,0,1,1.506-1.386,3.053,3.053,0,0,1,1.8.161c.544.214.05.566.052.849,0,.318-.221.191-.4.13a1.958,1.958,0,0,0-1.04-.164c-.281.057-.526.176-.572.5-.043.3.164.472.4.586.366.176.751.312,1.113.494a1.511,1.511,0,0,1,.92,1.356,1.742,1.742,0,0,1-1.735,1.814A5.248,5.248,0,0,1,620.285,505.039Z" transform="translate(-521.978 -448.131)" fill="#005aa5"/>
        <path id="Path_1486" data-name="Path 1486" d="M428.778,494.616c0-.288-.017-.578,0-.865.033-.442.092-.878-.594-.75-.161.031-.175-.1-.192-.227-.074-.569.005-.7.577-.824.319-.068.185-.307.216-.484.034-.193-.1-.478.1-.566a7.356,7.356,0,0,1,1.166-.333c.08-.02.1.065.108.135s0,.169.005.254c.016.928.016.956.941.974.585.011.334.412.383.676.054.293-.046.41-.377.41-.947,0-.947.018-.947.948,0,.509-.008,1.018,0,1.527.015.749.245.982.981.947.233-.011.292.049.316.262.085.769-.009.884-.786.906-1.27.036-1.806-.446-1.881-1.718-.025-.423,0-.848,0-1.271Z" transform="translate(-358.42 -440.682)" fill="#0059a4"/>
        <path id="Path_1487" data-name="Path 1487" d="M574.749,500.312a1.788,1.788,0,0,1,1.365-1.087c.312-.049.549,0,.5.407a1.436,1.436,0,0,0,0,.305c.034.4.04.669-.548.643a1.11,1.11,0,0,0-1.141,1.136c-.053.93-.046,1.863-.04,2.794,0,.3-.07.406-.394.408-1.042,0-1.064.019-1.035-1.025.039-1.406.059-2.812-.02-4.216-.015-.268.074-.311.3-.327C574.628,499.286,574.628,499.28,574.749,500.312Z" transform="translate(-483.203 -448.098)" fill="#0059a4"/>
        <path id="Path_1488" data-name="Path 1488" d="M500.994,500.288a1.816,1.816,0,0,1,1.361-1.064c.334-.052.531.036.483.423a1.969,1.969,0,0,0,0,.407c.028.344,0,.534-.47.515a1.175,1.175,0,0,0-1.214,1.241c-.032.9-.027,1.8-.012,2.7,0,.306-.073.406-.395.408-1.036.007-1.032.021-1.037-1.03q-.008-2.113-.031-4.226c0-.212.047-.329.277-.31a.342.342,0,0,0,.051,0C500.861,499.3,500.861,499.3,500.994,500.288Z" transform="translate(-419.933 -448.099)" fill="#0059a4"/>
        <path id="Path_1489" data-name="Path 1489" d="M601.235,502.92c0-.781.018-1.564-.008-2.344-.012-.348.114-.427.435-.431,1-.01,1-.021,1,.973,0,1.393-.011,2.786.008,4.178,0,.34-.1.423-.429.421-1-.005-1,.009-1-1.015Q601.235,503.812,601.235,502.92Z" transform="translate(-507.044 -448.9)" fill="#005aa5"/>
        <path id="Path_1490" data-name="Path 1490" d="M601.289,484.6a.767.767,0,0,1-.838-.8.777.777,0,0,1,.808-.791.767.767,0,0,1,.859.784A.759.759,0,0,1,601.289,484.6Z" transform="translate(-506.379 -434.196)" fill="#005aa5"/>
        <path id="Path_1491" data-name="Path 1491" d="M-16.078,204.331a2.713,2.713,0,0,1-2.4,2.686,9.246,9.246,0,0,1-2.228.187c-.318,0-.479-.112-.424-.451a1.264,1.264,0,0,0,0-.2q0-14.856-.012-29.713c0-.489.11-.626.608-.613,1.41.037,2.822.029,4.232,0,.407-.008.5.111.5.506-.015,3.89-.009,7.781-.009,11.671v.671a6.518,6.518,0,0,1,3.262-2.526,7.486,7.486,0,0,1,9.672,3.934A13.5,13.5,0,0,1-2.9,202.893a7.021,7.021,0,0,1-5.252,4.185,8.938,8.938,0,0,1-5.8-.723A4.328,4.328,0,0,1-16.078,204.331Zm-.062-7.711a7.631,7.631,0,0,0,1.926,5.367c1.336,1.4,4.786,1.812,6.149-.845a9.838,9.838,0,0,0,.3-8.454,3.818,3.818,0,0,0-1.807-2.066,4.215,4.215,0,0,0-5.619,1.981A8.573,8.573,0,0,0-16.139,196.62Z" transform="translate(26.854 -171.026)" fill="#e0041c"/>
        <path id="Path_1492" data-name="Path 1492" d="M94.374,246.508a7.7,7.7,0,0,1,10.535,2.782,12.152,12.152,0,0,1,1.661,5.137,13.421,13.421,0,0,1-1.366,7.851,7.2,7.2,0,0,1-4.815,4.075,9.489,9.489,0,0,1-5.986-.482c-.342-.149-.455-.266-.091-.561a7.61,7.61,0,0,0,1.433-1.581.385.385,0,0,1,.5-.169,4.6,4.6,0,0,0,5.882-2.763,11.62,11.62,0,0,0-.145-9.86,4.514,4.514,0,0,0-5.519-2.518.477.477,0,0,1-.624-.22A10.482,10.482,0,0,0,94.374,246.508Z" transform="translate(-71.997 -230.404)" fill="#080909"/>
        <path id="Path_1493" data-name="Path 1493" d="M67.781,186.248a6.109,6.109,0,0,0-3-1c-.344-.01-.232-.278-.232-.453-.007-2.172,0-4.343,0-6.515,0-.543.009-1.086,0-1.629-.006-.24.074-.328.321-.325.883.011,1.765.008,2.648,0,.185,0,.276.044.276.254C67.78,179.781,67.781,182.981,67.781,186.248Z" transform="translate(-46.642 -171.114)" fill="#090909"/>
        <path id="Path_1494" data-name="Path 1494" d="M14.069,280.9a8.573,8.573,0,0,1,.948-4.017,4.215,4.215,0,0,1,5.619-1.981,3.818,3.818,0,0,1,1.807,2.066,9.838,9.838,0,0,1-.3,8.454c-1.363,2.657-4.813,2.243-6.149.845A7.631,7.631,0,0,1,14.069,280.9Z" transform="translate(-3.354 -255.303)" fill="#a4bf26"/>
      </g>
      <g id="Group_4815" data-name="Group 4815" transform="translate(-962 2705.5)">
        <g id="Group_4813" data-name="Group 4813" transform="translate(0 0)">
          <g id="Group_4811" data-name="Group 4811" transform="translate(0 0)">
            <g id="Group_4803" data-name="Group 4803">
              <g id="Group_4802" data-name="Group 4802">
                <g id="Group_4801" data-name="Group 4801">
                  <path id="Path_1495" data-name="Path 1495" d="M61.143,31.539H86.935A5.549,5.549,0,0,1,92.5,37V62.787a5.559,5.559,0,0,1-5.56,5.508H61.143a5.515,5.515,0,0,1-5.508-5.508V37A5.5,5.5,0,0,1,61.143,31.539Z" transform="translate(-55.635 -31.539)" fill="#a4c422" fill-rule="evenodd"/>
                </g>
              </g>
            </g>
            <g id="Group_4810" data-name="Group 4810" transform="translate(5.221 4.607)">
              <g id="Group_4805" data-name="Group 4805" transform="translate(11.12)">
                <g id="Group_4804" data-name="Group 4804">
                  <path id="Path_1496" data-name="Path 1496" d="M88.988,40.115H86.054v7.927a5.329,5.329,0,0,1,2.934.894Z" transform="translate(-86.054 -40.115)" fill="#1a1818" fill-rule="evenodd"/>
                </g>
              </g>
              <g id="Group_4807" data-name="Group 4807">
                <g id="Group_4806" data-name="Group 4806">
                  <path id="Path_1497" data-name="Path 1497" d="M77.246,62.354A3.193,3.193,0,0,1,74.26,64a3.734,3.734,0,0,1-2.368-.772A4.959,4.959,0,0,1,70.4,61.068a8.326,8.326,0,0,1-.515-2.78,8.624,8.624,0,0,1,.515-2.832,4.522,4.522,0,0,1,1.493-2.111,3.5,3.5,0,0,1,2.368-.824,3.452,3.452,0,0,1,2.265.772A5.133,5.133,0,0,1,77.864,55.4a9.994,9.994,0,0,1,.412,2.883,7.559,7.559,0,0,1-1.03,4.067Zm5.2-8.648a8.093,8.093,0,0,0-2.574-3.5A6.439,6.439,0,0,0,75.8,48.867a7.4,7.4,0,0,0-3.192.669,5.645,5.645,0,0,0-2.368,2.008h-.052V40.115H65.354v27.49s4.427.515,4.582-2.316v-.36h0v-.1l.052.206a6.245,6.245,0,0,0,.515.824,5.416,5.416,0,0,0,1.8,1.236,8.6,8.6,0,0,0,3.5.566,6.4,6.4,0,0,0,4.067-1.287,8.408,8.408,0,0,0,2.574-3.5,12.922,12.922,0,0,0,.875-4.581A12.71,12.71,0,0,0,82.445,53.706Z" transform="translate(-65.354 -40.115)" fill="#e50019" fill-rule="evenodd"/>
                </g>
              </g>
              <g id="Group_4809" data-name="Group 4809" transform="translate(14.845 8.737)">
                <g id="Group_4808" data-name="Group 4808">
                  <path id="Path_1498" data-name="Path 1498" d="M103.687,61.233a7.247,7.247,0,0,0-9.833-4.17q-.263.125-.509.269a9.8,9.8,0,0,1,1.561,1.79,4.668,4.668,0,0,1,1.567-.25c3.731,0,4.839,3.938,4.839,6.948,0,3.041-1.183,6.885-4.839,6.885a4.831,4.831,0,0,1-1.693-.285,9.591,9.591,0,0,1-1.792,1.912c.17.1.355.19.556.285a8.6,8.6,0,0,0,3.5.566,6.4,6.4,0,0,0,4.067-1.287,8.407,8.407,0,0,0,2.574-3.5,12.923,12.923,0,0,0,.875-4.581A12.711,12.711,0,0,0,103.687,61.233Z" transform="translate(-92.989 -56.379)" fill="#1a1818" fill-rule="evenodd"/>
                </g>
              </g>
            </g>
          </g>
          <g id="Group_4812" data-name="Group 4812" transform="translate(40.282 5.191)">
            <path id="Path_1499" data-name="Path 1499" d="M134.105,68.675H130.62l4.74-19.407,3.805-1.308Zm1.955-22.3L137,42.511l3.8-1.308-.967,3.961Z" transform="translate(-130.62 -41.203)" fill="#1a1818"/>
            <path id="Path_1500" data-name="Path 1500" d="M158.862,73.984h-1.584l3.115-12.754c.88-3.6.3-5.426-3.111-5.426-1.98,0-5.775,1.267-7.149,6.892l-2.306,9.44a2.423,2.423,0,0,1-2.353,1.848H143.89l4.436-18.161,3.911-2.553-.715,2.931h.079c1.023-1.109,3.555-3.525,7.119-3.525,3.208,0,6.929,1.307,5.487,7.209l-2.993,12.252A2.422,2.422,0,0,1,158.862,73.984Z" transform="translate(-136.761 -46.512)" fill="#1a1818"/>
            <path id="Path_1501" data-name="Path 1501" d="M225.821,51.69l-3.289,13.467c-.4,1.624.989,1.624,1.7,1.624h1.227l-.667,2.733c-1.3.119-2.326.277-2.682.277-3.446,0-3.724-1.941-3.115-4.436l3.338-13.665.706-2.891,1.139-4.322,3.759-1.461L226.527,48.8Z" transform="translate(-171.403 -42.042)" fill="#1a1818"/>
            <path id="Path_1502" data-name="Path 1502" d="M286.416,73.984h-1.584l3.116-12.754c.88-3.6.3-5.426-3.111-5.426-1.98,0-5.776,1.267-7.15,6.892l-2.305,9.44a2.424,2.424,0,0,1-2.353,1.848h-1.584l4.516-18.49,3.831-2.225-.716,2.931h.08c1.023-1.109,3.555-3.525,7.119-3.525,3.208,0,6.929,1.307,5.488,7.209l-2.993,12.252A2.422,2.422,0,0,1,286.416,73.984Z" transform="translate(-195.794 -46.512)" fill="#1a1818"/>
            <path id="Path_1503" data-name="Path 1503" d="M319.458,51.69l-3.29,13.467c-.4,1.624.99,1.624,1.7,1.624H319.1l-.668,2.733c-1.3.119-2.325.277-2.682.277-3.446,0-3.724-1.941-3.115-4.436l3.338-13.665.706-2.891,1.073-4.13,3.826-1.652L320.164,48.8Z" transform="translate(-214.739 -42.042)" fill="#1a1818"/>
            <path id="Path_1504" data-name="Path 1504" d="M194.845,62.26l-3.273-.871c-2.529-.674-3.5-1.07-3.086-2.773.628-2.574,3.766-2.931,4.835-2.931,4.368,0,4.341,2.15,4.065,3.46l3.518-1.319c.022-1.965-.836-5.15-6.492-5.15-4.08,0-8.346,2.06-9.458,6.614-.7,2.852.847,4.317,3.564,5.03l3.8.99c2.787.753,3.8,1.307,3.394,2.971-.561,2.3-3.061,3.287-5.556,3.287-4.846,0-4.752-2.543-4.482-4.171l-3.565,1.338c-.226,2.544.519,5.844,7.351,5.844,4.674,0,8.828-2.575,9.873-6.852C200.019,64.914,198.9,63.33,194.845,62.26Z" transform="translate(-154.433 -46.512)" fill="#1a1818"/>
            <path id="Path_1505" data-name="Path 1505" d="M253.288,58.458c1.3-5.307-4.608-5.783-6.271-5.783-5.087,0-8.837,1.924-10.22,6.826l3.943-1.478a5.363,5.363,0,0,1,4.977-2.457c3.288,0,4.582,1.188,4.049,3.367-.5,2.06-1.571,2.377-2.422,2.456l-5.918.713c-5.957.713-7.459,4.753-7.884,6.5-.871,3.564,1.232,5.981,5.035,5.981a12.2,12.2,0,0,0,8.309-3.367c-.268,1.584-.18,3.168,2.91,3.168a7.442,7.442,0,0,0,2-.4l.619-2.535a7.244,7.244,0,0,1-1.187.158c-.713,0-1.062-.356-.849-1.228Zm-5.527,8.357c-.677,2.772-4.359,4.871-7.607,4.871-2.614,0-3.434-1.346-2.882-3.6.639-2.614,3.5-3.129,5.259-3.367,4.453-.554,5.4-.871,6.062-1.307Z" transform="translate(-178.162 -46.512)" fill="#1a1818"/>
          </g>
          <path id="Path_1506" data-name="Path 1506" d="M234.421,50.346H221.5l-1.429,4.769Z" transform="translate(-131.735 -40.243)" fill="#e50019"/>
          <path id="Path_1507" data-name="Path 1507" d="M326.733,50.346H313.809l-1.429,4.769Z" transform="translate(-174.458 -40.243)" fill="#e50019"/>
        </g>
        <g id="Group_4814" data-name="Group 4814" transform="translate(17.817 46.108)">
          <path id="Path_1508" data-name="Path 1508" d="M110.348,118.046h9.405v2.864h-2.7V127.8h-3.92V120.91h-2.788v-2.864" transform="translate(-98.773 -117.683)" fill="#0056a5" fill-rule="evenodd"/>
          <path id="Path_1509" data-name="Path 1509" d="M131.775,121.985,129.8,127.8H126.03l3.692-9.751h4.088l3.78,9.751h-3.81l-2.005-5.812" transform="translate(-106.031 -117.683)" fill="#0056a5" fill-rule="evenodd"/>
          <path id="Path_1510" data-name="Path 1510" d="M145.877,118.046h9.406v2.864h-2.7V127.8h-3.92V120.91h-2.788v-2.864" transform="translate(-115.216 -117.683)" fill="#0056a5" fill-rule="evenodd"/>
          <path id="Path_1511" data-name="Path 1511" d="M167.307,121.985l-1.981,5.812h-3.764l3.692-9.751h4.087l3.78,9.751h-3.809l-2.006-5.812" transform="translate(-122.475 -117.683)" fill="#0056a5" fill-rule="evenodd"/>
          <path id="Path_1512" data-name="Path 1512" d="M197.638,123.528h-3.654v2.848h4.086v1.459H192.21v-9.707h5.644v1.459h-3.872v2.495h3.654v1.447" transform="translate(-136.659 -117.721)" fill="#0056a5" fill-rule="evenodd"/>
          <path id="Path_1513" data-name="Path 1513" d="M205.567,125.094c0-.811-.026-1.478-.057-2.085h1.548l.087,1.052h.041a2.552,2.552,0,0,1,2.232-1.21c1.222,0,2.49.786,2.49,3v4.165h-1.772v-3.955c0-1.007-.37-1.773-1.336-1.773a1.472,1.472,0,0,0-1.378,1.04,1.745,1.745,0,0,0-.082.562v4.126h-1.772v-4.926" transform="translate(-142.814 -119.907)" fill="#0056a5" fill-rule="evenodd"/>
          <path id="Path_1514" data-name="Path 1514" d="M222.076,119.791v1.8h1.685v1.321h-1.685v3.094c0,.857.229,1.294.906,1.294a2.315,2.315,0,0,0,.688-.077l.036,1.349a3.987,3.987,0,0,1-1.289.183,2.047,2.047,0,0,1-1.522-.579,2.79,2.79,0,0,1-.554-1.967v-3.3h-1v-1.321h1v-1.3l1.736-.5" transform="translate(-149.216 -118.49)" fill="#0056a5" fill-rule="evenodd"/>
          <path id="Path_1515" data-name="Path 1515" d="M233.737,125.746a1.509,1.509,0,0,0-1.461-1.709,1.735,1.735,0,0,0-1.622,1.709h3.083m-3.08,1.235a1.91,1.91,0,0,0,2.162,1.826,5.341,5.341,0,0,0,1.934-.324l.262,1.221a6.337,6.337,0,0,1-2.448.444,3.32,3.32,0,0,1-3.606-3.555,3.467,3.467,0,0,1,3.426-3.767c2.276,0,3.018,1.874,3.018,3.411a3.978,3.978,0,0,1-.062.757Z" transform="translate(-153.668 -119.895)" fill="#0056a5" fill-rule="evenodd"/>
          <path id="Path_1516" data-name="Path 1516" d="M243.322,125.264c0-.94-.018-1.63-.057-2.255H244.8l.066,1.332h.05a2.087,2.087,0,0,1,1.917-1.49,1.688,1.688,0,0,1,.415.039v1.669a2.647,2.647,0,0,0-.533-.05,1.562,1.562,0,0,0-1.589,1.341,2.974,2.974,0,0,0-.045.535v3.636h-1.773l.014-4.757" transform="translate(-160.288 -119.907)" fill="#0056a5" fill-rule="evenodd"/>
          <path id="Path_1517" data-name="Path 1517" d="M254.333,127.086a2.2,2.2,0,0,0,.049.483,1.606,1.606,0,0,0,1.556,1.24c1.123,0,1.782-.935,1.782-2.311,0-1.241-.6-2.251-1.741-2.251a1.659,1.659,0,0,0-1.581,1.313,1.821,1.821,0,0,0-.065.447v1.078m-1.77-1.752c0-.909-.026-1.665-.059-2.324h1.556l.087,1.077h.029a2.717,2.717,0,0,1,2.4-1.235c1.6,0,2.938,1.376,2.938,3.566,0,2.543-1.589,3.763-3.185,3.763a2.277,2.277,0,0,1-1.969-.936h-.029v3.629h-1.77Z" transform="translate(-164.564 -119.907)" fill="#0056a5" fill-rule="evenodd"/>
          <path id="Path_1518" data-name="Path 1518" d="M267.994,125.264c0-.94-.019-1.63-.057-2.255h1.533l.066,1.332h.05a2.088,2.088,0,0,1,1.917-1.49,1.676,1.676,0,0,1,.415.039v1.669a2.642,2.642,0,0,0-.533-.05,1.56,1.56,0,0,0-1.587,1.341,2.871,2.871,0,0,0-.046.535v3.636h-1.772l.015-4.757" transform="translate(-171.706 -119.907)" fill="#0056a5" fill-rule="evenodd"/>
          <path id="Path_1519" data-name="Path 1519" d="M278.017,119.389a1.057,1.057,0,1,1,.014,0h-.014m-.866,1.084h1.773v7.011h-1.773Z" transform="translate(-175.898 -117.37)" fill="#0056a5" fill-rule="evenodd"/>
          <path id="Path_1520" data-name="Path 1520" d="M283.407,128.391a3.878,3.878,0,0,0,1.787.511c.779,0,1.128-.327,1.128-.787,0-.475-.289-.715-1.151-1.022-1.371-.471-1.942-1.218-1.935-2.048,0-1.233,1.024-2.194,2.658-2.194a4.038,4.038,0,0,1,1.858.418l-.352,1.245a3.179,3.179,0,0,0-1.482-.4c-.629,0-.981.312-.981.742s.338.659,1.223.982c1.275.451,1.863,1.1,1.869,2.136,0,1.279-.995,2.2-2.845,2.2a4.527,4.527,0,0,1-2.134-.492l.357-1.29" transform="translate(-178.7 -119.907)" fill="#0056a5" fill-rule="evenodd"/>
          <path id="Path_1521" data-name="Path 1521" d="M298.716,125.746a1.51,1.51,0,0,0-1.462-1.709,1.735,1.735,0,0,0-1.622,1.709h3.084m-3.081,1.235a1.911,1.911,0,0,0,2.163,1.826,5.334,5.334,0,0,0,1.933-.324l.262,1.221a6.339,6.339,0,0,1-2.449.444,3.32,3.32,0,0,1-3.606-3.555,3.468,3.468,0,0,1,3.426-3.767c2.277,0,3.017,1.874,3.017,3.411a3.982,3.982,0,0,1-.062.757Z" transform="translate(-183.74 -119.895)" fill="#0056a5" fill-rule="evenodd"/>
          <path id="Path_1522" data-name="Path 1522" d="M94.247,123.751l-.763-2.392c-.187-.6-.348-1.261-.493-1.824h-.033c-.14.569-.289,1.241-.46,1.819l-.749,2.4h2.5m-2.787,1.341-.827,2.743H88.8l3.111-9.707h2.256l3.151,9.707h-1.9l-.877-2.743Z" transform="translate(-88.801 -117.721)" fill="#0056a5" fill-rule="evenodd"/>
        </g>
      </g>
    </g>
    <g id="Group_4820" data-name="Group 4820" transform="translate(-181 160)">
      <g id="Group_4815-2" data-name="Group 4815" transform="translate(-962 2705.5)">
        <g id="Group_4813-2" data-name="Group 4813" transform="translate(0 0)">
          <g id="Group_4811-2" data-name="Group 4811" transform="translate(0 0)">
            <g id="Group_4803-2" data-name="Group 4803">
              <g id="Group_4802-2" data-name="Group 4802">
                <g id="Group_4801-2" data-name="Group 4801">
                  <path id="Path_1495-2" data-name="Path 1495" d="M61.143,31.539H86.935A5.549,5.549,0,0,1,92.5,37V62.787a5.559,5.559,0,0,1-5.56,5.508H61.143a5.515,5.515,0,0,1-5.508-5.508V37A5.5,5.5,0,0,1,61.143,31.539Z" transform="translate(-55.635 -31.539)" fill="#a4c422" fill-rule="evenodd"/>
                </g>
              </g>
            </g>
            <g id="Group_4810-2" data-name="Group 4810" transform="translate(5.221 4.607)">
              <g id="Group_4805-2" data-name="Group 4805" transform="translate(11.12)">
                <g id="Group_4804-2" data-name="Group 4804">
                  <path id="Path_1496-2" data-name="Path 1496" d="M88.988,40.115H86.054v7.927a5.329,5.329,0,0,1,2.934.894Z" transform="translate(-86.054 -40.115)" fill="#1a1818" fill-rule="evenodd"/>
                </g>
              </g>
              <g id="Group_4807-2" data-name="Group 4807">
                <g id="Group_4806-2" data-name="Group 4806">
                  <path id="Path_1497-2" data-name="Path 1497" d="M77.246,62.354A3.193,3.193,0,0,1,74.26,64a3.734,3.734,0,0,1-2.368-.772A4.959,4.959,0,0,1,70.4,61.068a8.326,8.326,0,0,1-.515-2.78,8.624,8.624,0,0,1,.515-2.832,4.522,4.522,0,0,1,1.493-2.111,3.5,3.5,0,0,1,2.368-.824,3.452,3.452,0,0,1,2.265.772A5.133,5.133,0,0,1,77.864,55.4a9.994,9.994,0,0,1,.412,2.883,7.559,7.559,0,0,1-1.03,4.067Zm5.2-8.648a8.093,8.093,0,0,0-2.574-3.5A6.439,6.439,0,0,0,75.8,48.867a7.4,7.4,0,0,0-3.192.669,5.645,5.645,0,0,0-2.368,2.008h-.052V40.115H65.354v27.49s4.427.515,4.582-2.316v-.36h0v-.1l.052.206a6.245,6.245,0,0,0,.515.824,5.416,5.416,0,0,0,1.8,1.236,8.6,8.6,0,0,0,3.5.566,6.4,6.4,0,0,0,4.067-1.287,8.408,8.408,0,0,0,2.574-3.5,12.922,12.922,0,0,0,.875-4.581A12.71,12.71,0,0,0,82.445,53.706Z" transform="translate(-65.354 -40.115)" fill="#e50019" fill-rule="evenodd"/>
                </g>
              </g>
              <g id="Group_4809-2" data-name="Group 4809" transform="translate(14.845 8.737)">
                <g id="Group_4808-2" data-name="Group 4808">
                  <path id="Path_1498-2" data-name="Path 1498" d="M103.687,61.233a7.247,7.247,0,0,0-9.833-4.17q-.263.125-.509.269a9.8,9.8,0,0,1,1.561,1.79,4.668,4.668,0,0,1,1.567-.25c3.731,0,4.839,3.938,4.839,6.948,0,3.041-1.183,6.885-4.839,6.885a4.831,4.831,0,0,1-1.693-.285,9.591,9.591,0,0,1-1.792,1.912c.17.1.355.19.556.285a8.6,8.6,0,0,0,3.5.566,6.4,6.4,0,0,0,4.067-1.287,8.407,8.407,0,0,0,2.574-3.5,12.923,12.923,0,0,0,.875-4.581A12.711,12.711,0,0,0,103.687,61.233Z" transform="translate(-92.989 -56.379)" fill="#1a1818" fill-rule="evenodd"/>
                </g>
              </g>
            </g>
          </g>
          <g id="Group_4812-2" data-name="Group 4812" transform="translate(40.282 5.191)">
            <path id="Path_1499-2" data-name="Path 1499" d="M134.105,68.675H130.62l4.74-19.407,3.805-1.308Zm1.955-22.3L137,42.511l3.8-1.308-.967,3.961Z" transform="translate(-130.62 -41.203)" fill="#1a1818"/>
            <path id="Path_1500-2" data-name="Path 1500" d="M158.862,73.984h-1.584l3.115-12.754c.88-3.6.3-5.426-3.111-5.426-1.98,0-5.775,1.267-7.149,6.892l-2.306,9.44a2.423,2.423,0,0,1-2.353,1.848H143.89l4.436-18.161,3.911-2.553-.715,2.931h.079c1.023-1.109,3.555-3.525,7.119-3.525,3.208,0,6.929,1.307,5.487,7.209l-2.993,12.252A2.422,2.422,0,0,1,158.862,73.984Z" transform="translate(-136.761 -46.512)" fill="#1a1818"/>
            <path id="Path_1501-2" data-name="Path 1501" d="M225.821,51.69l-3.289,13.467c-.4,1.624.989,1.624,1.7,1.624h1.227l-.667,2.733c-1.3.119-2.326.277-2.682.277-3.446,0-3.724-1.941-3.115-4.436l3.338-13.665.706-2.891,1.139-4.322,3.759-1.461L226.527,48.8Z" transform="translate(-171.403 -42.042)" fill="#1a1818"/>
            <path id="Path_1502-2" data-name="Path 1502" d="M286.416,73.984h-1.584l3.116-12.754c.88-3.6.3-5.426-3.111-5.426-1.98,0-5.776,1.267-7.15,6.892l-2.305,9.44a2.424,2.424,0,0,1-2.353,1.848h-1.584l4.516-18.49,3.831-2.225-.716,2.931h.08c1.023-1.109,3.555-3.525,7.119-3.525,3.208,0,6.929,1.307,5.488,7.209l-2.993,12.252A2.422,2.422,0,0,1,286.416,73.984Z" transform="translate(-195.794 -46.512)" fill="#1a1818"/>
            <path id="Path_1503-2" data-name="Path 1503" d="M319.458,51.69l-3.29,13.467c-.4,1.624.99,1.624,1.7,1.624H319.1l-.668,2.733c-1.3.119-2.325.277-2.682.277-3.446,0-3.724-1.941-3.115-4.436l3.338-13.665.706-2.891,1.073-4.13,3.826-1.652L320.164,48.8Z" transform="translate(-214.739 -42.042)" fill="#1a1818"/>
            <path id="Path_1504-2" data-name="Path 1504" d="M194.845,62.26l-3.273-.871c-2.529-.674-3.5-1.07-3.086-2.773.628-2.574,3.766-2.931,4.835-2.931,4.368,0,4.341,2.15,4.065,3.46l3.518-1.319c.022-1.965-.836-5.15-6.492-5.15-4.08,0-8.346,2.06-9.458,6.614-.7,2.852.847,4.317,3.564,5.03l3.8.99c2.787.753,3.8,1.307,3.394,2.971-.561,2.3-3.061,3.287-5.556,3.287-4.846,0-4.752-2.543-4.482-4.171l-3.565,1.338c-.226,2.544.519,5.844,7.351,5.844,4.674,0,8.828-2.575,9.873-6.852C200.019,64.914,198.9,63.33,194.845,62.26Z" transform="translate(-154.433 -46.512)" fill="#1a1818"/>
            <path id="Path_1505-2" data-name="Path 1505" d="M253.288,58.458c1.3-5.307-4.608-5.783-6.271-5.783-5.087,0-8.837,1.924-10.22,6.826l3.943-1.478a5.363,5.363,0,0,1,4.977-2.457c3.288,0,4.582,1.188,4.049,3.367-.5,2.06-1.571,2.377-2.422,2.456l-5.918.713c-5.957.713-7.459,4.753-7.884,6.5-.871,3.564,1.232,5.981,5.035,5.981a12.2,12.2,0,0,0,8.309-3.367c-.268,1.584-.18,3.168,2.91,3.168a7.442,7.442,0,0,0,2-.4l.619-2.535a7.244,7.244,0,0,1-1.187.158c-.713,0-1.062-.356-.849-1.228Zm-5.527,8.357c-.677,2.772-4.359,4.871-7.607,4.871-2.614,0-3.434-1.346-2.882-3.6.639-2.614,3.5-3.129,5.259-3.367,4.453-.554,5.4-.871,6.062-1.307Z" transform="translate(-178.162 -46.512)" fill="#1a1818"/>
          </g>
          <path id="Path_1506-2" data-name="Path 1506" d="M234.421,50.346H221.5l-1.429,4.769Z" transform="translate(-131.735 -40.243)" fill="#e50019"/>
          <path id="Path_1507-2" data-name="Path 1507" d="M326.733,50.346H313.809l-1.429,4.769Z" transform="translate(-174.458 -40.243)" fill="#e50019"/>
        </g>
        <g id="Group_4814-2" data-name="Group 4814" transform="translate(17.817 46.108)">
          <path id="Path_1508-2" data-name="Path 1508" d="M110.348,118.046h9.405v2.864h-2.7V127.8h-3.92V120.91h-2.788v-2.864" transform="translate(-98.773 -117.683)" fill="#0056a5" fill-rule="evenodd"/>
          <path id="Path_1509-2" data-name="Path 1509" d="M131.775,121.985,129.8,127.8H126.03l3.692-9.751h4.088l3.78,9.751h-3.81l-2.005-5.812" transform="translate(-106.031 -117.683)" fill="#0056a5" fill-rule="evenodd"/>
          <path id="Path_1510-2" data-name="Path 1510" d="M145.877,118.046h9.406v2.864h-2.7V127.8h-3.92V120.91h-2.788v-2.864" transform="translate(-115.216 -117.683)" fill="#0056a5" fill-rule="evenodd"/>
          <path id="Path_1511-2" data-name="Path 1511" d="M167.307,121.985l-1.981,5.812h-3.764l3.692-9.751h4.087l3.78,9.751h-3.809l-2.006-5.812" transform="translate(-122.475 -117.683)" fill="#0056a5" fill-rule="evenodd"/>
          <path id="Path_1512-2" data-name="Path 1512" d="M197.638,123.528h-3.654v2.848h4.086v1.459H192.21v-9.707h5.644v1.459h-3.872v2.495h3.654v1.447" transform="translate(-136.659 -117.721)" fill="#0056a5" fill-rule="evenodd"/>
          <path id="Path_1513-2" data-name="Path 1513" d="M205.567,125.094c0-.811-.026-1.478-.057-2.085h1.548l.087,1.052h.041a2.552,2.552,0,0,1,2.232-1.21c1.222,0,2.49.786,2.49,3v4.165h-1.772v-3.955c0-1.007-.37-1.773-1.336-1.773a1.472,1.472,0,0,0-1.378,1.04,1.745,1.745,0,0,0-.082.562v4.126h-1.772v-4.926" transform="translate(-142.814 -119.907)" fill="#0056a5" fill-rule="evenodd"/>
          <path id="Path_1514-2" data-name="Path 1514" d="M222.076,119.791v1.8h1.685v1.321h-1.685v3.094c0,.857.229,1.294.906,1.294a2.315,2.315,0,0,0,.688-.077l.036,1.349a3.987,3.987,0,0,1-1.289.183,2.047,2.047,0,0,1-1.522-.579,2.79,2.79,0,0,1-.554-1.967v-3.3h-1v-1.321h1v-1.3l1.736-.5" transform="translate(-149.216 -118.49)" fill="#0056a5" fill-rule="evenodd"/>
          <path id="Path_1515-2" data-name="Path 1515" d="M233.737,125.746a1.509,1.509,0,0,0-1.461-1.709,1.735,1.735,0,0,0-1.622,1.709h3.083m-3.08,1.235a1.91,1.91,0,0,0,2.162,1.826,5.341,5.341,0,0,0,1.934-.324l.262,1.221a6.337,6.337,0,0,1-2.448.444,3.32,3.32,0,0,1-3.606-3.555,3.467,3.467,0,0,1,3.426-3.767c2.276,0,3.018,1.874,3.018,3.411a3.978,3.978,0,0,1-.062.757Z" transform="translate(-153.668 -119.895)" fill="#0056a5" fill-rule="evenodd"/>
          <path id="Path_1516-2" data-name="Path 1516" d="M243.322,125.264c0-.94-.018-1.63-.057-2.255H244.8l.066,1.332h.05a2.087,2.087,0,0,1,1.917-1.49,1.688,1.688,0,0,1,.415.039v1.669a2.647,2.647,0,0,0-.533-.05,1.562,1.562,0,0,0-1.589,1.341,2.974,2.974,0,0,0-.045.535v3.636h-1.773l.014-4.757" transform="translate(-160.288 -119.907)" fill="#0056a5" fill-rule="evenodd"/>
          <path id="Path_1517-2" data-name="Path 1517" d="M254.333,127.086a2.2,2.2,0,0,0,.049.483,1.606,1.606,0,0,0,1.556,1.24c1.123,0,1.782-.935,1.782-2.311,0-1.241-.6-2.251-1.741-2.251a1.659,1.659,0,0,0-1.581,1.313,1.821,1.821,0,0,0-.065.447v1.078m-1.77-1.752c0-.909-.026-1.665-.059-2.324h1.556l.087,1.077h.029a2.717,2.717,0,0,1,2.4-1.235c1.6,0,2.938,1.376,2.938,3.566,0,2.543-1.589,3.763-3.185,3.763a2.277,2.277,0,0,1-1.969-.936h-.029v3.629h-1.77Z" transform="translate(-164.564 -119.907)" fill="#0056a5" fill-rule="evenodd"/>
          <path id="Path_1518-2" data-name="Path 1518" d="M267.994,125.264c0-.94-.019-1.63-.057-2.255h1.533l.066,1.332h.05a2.088,2.088,0,0,1,1.917-1.49,1.676,1.676,0,0,1,.415.039v1.669a2.642,2.642,0,0,0-.533-.05,1.56,1.56,0,0,0-1.587,1.341,2.871,2.871,0,0,0-.046.535v3.636h-1.772l.015-4.757" transform="translate(-171.706 -119.907)" fill="#0056a5" fill-rule="evenodd"/>
          <path id="Path_1519-2" data-name="Path 1519" d="M278.017,119.389a1.057,1.057,0,1,1,.014,0h-.014m-.866,1.084h1.773v7.011h-1.773Z" transform="translate(-175.898 -117.37)" fill="#0056a5" fill-rule="evenodd"/>
          <path id="Path_1520-2" data-name="Path 1520" d="M283.407,128.391a3.878,3.878,0,0,0,1.787.511c.779,0,1.128-.327,1.128-.787,0-.475-.289-.715-1.151-1.022-1.371-.471-1.942-1.218-1.935-2.048,0-1.233,1.024-2.194,2.658-2.194a4.038,4.038,0,0,1,1.858.418l-.352,1.245a3.179,3.179,0,0,0-1.482-.4c-.629,0-.981.312-.981.742s.338.659,1.223.982c1.275.451,1.863,1.1,1.869,2.136,0,1.279-.995,2.2-2.845,2.2a4.527,4.527,0,0,1-2.134-.492l.357-1.29" transform="translate(-178.7 -119.907)" fill="#0056a5" fill-rule="evenodd"/>
          <path id="Path_1521-2" data-name="Path 1521" d="M298.716,125.746a1.51,1.51,0,0,0-1.462-1.709,1.735,1.735,0,0,0-1.622,1.709h3.084m-3.081,1.235a1.911,1.911,0,0,0,2.163,1.826,5.334,5.334,0,0,0,1.933-.324l.262,1.221a6.339,6.339,0,0,1-2.449.444,3.32,3.32,0,0,1-3.606-3.555,3.468,3.468,0,0,1,3.426-3.767c2.277,0,3.017,1.874,3.017,3.411a3.982,3.982,0,0,1-.062.757Z" transform="translate(-183.74 -119.895)" fill="#0056a5" fill-rule="evenodd"/>
          <path id="Path_1522-2" data-name="Path 1522" d="M94.247,123.751l-.763-2.392c-.187-.6-.348-1.261-.493-1.824h-.033c-.14.569-.289,1.241-.46,1.819l-.749,2.4h2.5m-2.787,1.341-.827,2.743H88.8l3.111-9.707h2.256l3.151,9.707h-1.9l-.877-2.743Z" transform="translate(-88.801 -117.721)" fill="#0056a5" fill-rule="evenodd"/>
        </g>
      </g>
    </g>
  </g>
</svg>
