<svg xmlns="http://www.w3.org/2000/svg" xmlns:xlink="http://www.w3.org/1999/xlink" width="68.571" height="48" viewBox="0 0 68.571 48">
  <defs>
    <linearGradient id="linear-gradient" x1="0.434" y1="1" x2="0.433" gradientUnits="objectBoundingBox">
      <stop offset="0" stop-color="#6267e2"/>
      <stop offset="1" stop-color="#aeb9e8"/>
    </linearGradient>
  </defs>
  <g id="Group_4793" data-name="Group 4793" transform="translate(-673 -377)">
    <path id="Path_1459" data-name="Path 1459" d="M65.143,0H3.429A3.429,3.429,0,0,0,0,3.429V17.143H3.062a7.115,7.115,0,0,1,7.131,5.705,6.861,6.861,0,0,1-6.765,8.009H0V44.571A3.429,3.429,0,0,0,3.429,48H65.143a3.429,3.429,0,0,0,3.429-3.429V30.857H65.143a6.86,6.86,0,0,1-6.765-8.009,7.115,7.115,0,0,1,7.131-5.705h3.062V3.429A3.429,3.429,0,0,0,65.143,0Z" transform="translate(673 377)" fill="url(#linear-gradient)"/>
    <path id="Path_1460" data-name="Path 1460" d="M18.253-13.77,21-12.432,7.574,9.318,4.929,7.981Zm-12.508.637a5.084,5.084,0,0,1,2.6.653,4.6,4.6,0,0,1,1.747,1.767,4.956,4.956,0,0,1,.62,2.452,4.956,4.956,0,0,1-.62,2.452A4.6,4.6,0,0,1,8.341-4.041a5.084,5.084,0,0,1-2.6.653,5.084,5.084,0,0,1-2.6-.653A4.6,4.6,0,0,1,1.4-5.808,4.956,4.956,0,0,1,.781-8.26a4.956,4.956,0,0,1,.62-2.452A4.6,4.6,0,0,1,3.149-12.48,5.084,5.084,0,0,1,5.745-13.133Zm.033,2.771a1.992,1.992,0,0,0-1.486.621,2.05,2.05,0,0,0-.6,1.481,2.05,2.05,0,0,0,.6,1.481,1.992,1.992,0,0,0,1.486.621A1.992,1.992,0,0,0,7.264-6.78a2.05,2.05,0,0,0,.6-1.481,2.05,2.05,0,0,0-.6-1.481A1.992,1.992,0,0,0,5.778-10.362ZM20.114-.586a5.084,5.084,0,0,1,2.6.653,4.6,4.6,0,0,1,1.747,1.767,4.956,4.956,0,0,1,.62,2.452,4.956,4.956,0,0,1-.62,2.452A4.6,4.6,0,0,1,22.71,8.506a5.084,5.084,0,0,1-2.6.653,5.084,5.084,0,0,1-2.6-.653,4.6,4.6,0,0,1-1.747-1.767,4.956,4.956,0,0,1-.62-2.452,4.956,4.956,0,0,1,.62-2.452A4.6,4.6,0,0,1,17.518.067,5.084,5.084,0,0,1,20.114-.586Zm.033,2.771a1.992,1.992,0,0,0-1.486.621,2.05,2.05,0,0,0-.6,1.481,2.05,2.05,0,0,0,.6,1.481,2.088,2.088,0,0,0,2.972,0,2.05,2.05,0,0,0,.6-1.481,2.05,2.05,0,0,0-.6-1.481A1.992,1.992,0,0,0,20.147,2.185Z" transform="translate(694.356 403.226)" fill="#33eeb1"/>
  </g>
</svg>
