<svg xmlns="http://www.w3.org/2000/svg" xmlns:xlink="http://www.w3.org/1999/xlink" width="39.685" height="40.5" viewBox="0 0 39.685 40.5">
  <defs>
    <clipPath id="clip-path">
      <path id="Path_1275" data-name="Path 1275" d="M11,16.847V30.714c0,.3,0,.447.3.447,2.087,1.044,5.07,2.386,6.412,3.131a4.9,4.9,0,0,0,2.684.6H30.831a5.32,5.32,0,0,0,2.833-.895c2.833-2.087,6.71-4.771,8.648-6.113.746-.447,1.342-1.193,1.342-1.491s.149-.447.149-.6v-.746a2.328,2.328,0,0,0-3.429-1.342c-2.386,1.342-5.517,3.131-7.157,4.026a3.091,3.091,0,0,1-.895.3H19.35c-.447,0-1.044-.3-1.044-.746-.3-.746.149-1.491,1.193-1.64H29.937a2.351,2.351,0,0,0,2.237-1.491,2.321,2.321,0,0,0-2.237-3.131h-5.07a1.542,1.542,0,0,1-.6-.149c-1.64-1.044-3.877-2.535-5.07-3.28a5.586,5.586,0,0,0-3.131-1.044H13.386a14.745,14.745,0,0,0-2.237-.149Zm.149-.447h0" transform="translate(-11 -16.4)" fill="#7d0eff"/>
    </clipPath>
    <clipPath id="clip-path-2">
      <path id="Path_1277" data-name="Path 1277" d="M8.346,14.9h-.6c-.895,0-1.491.6-1.342,1.342V32.2a1.251,1.251,0,0,0,1.342,1.342H8.793a2.355,2.355,0,0,0,2.386-2.386V17.286A2.327,2.327,0,0,0,8.942,14.9Z" transform="translate(-6.385 -14.9)" fill="#7d0eff"/>
    </clipPath>
  </defs>
  <g id="Group_1645" data-name="Group 1645" transform="translate(0 4.5)">
    <g id="Group_1048" data-name="Group 1048" transform="translate(0 -4)">
      <g id="Group_1041" data-name="Group 1041" transform="translate(6.882 21.472)">
        <g id="Group_1040" data-name="Group 1040" clip-path="url(#clip-path)">
          <rect id="Rectangle_2331" data-name="Rectangle 2331" width="36.444" height="36.304" transform="matrix(0.712, -0.702, 0.702, 0.712, -9.318, 9.189)" fill="#7d0eff"/>
        </g>
      </g>
      <path id="Subtraction_1" data-name="Subtraction 1" d="M5.207-1215.3a11.1,11.1,0,0,1-7.975-3.341,11.266,11.266,0,0,1-2.371-3.57,11.1,11.1,0,0,1-.862-4.3,11.477,11.477,0,0,1,3.074-7.918,10.385,10.385,0,0,1,7.63-3.3c.2,0,.356,0,.5.012a11.1,11.1,0,0,1,7.975,3.341,11.265,11.265,0,0,1,2.371,3.57,11.1,11.1,0,0,1,.862,4.3,10.728,10.728,0,0,1-.9,4.3,11.53,11.53,0,0,1-2.438,3.57A11.532,11.532,0,0,1,9.5-1216.2,10.731,10.731,0,0,1,5.207-1215.3Zm-3.669-10.911v1.165l4.287,5.725H7.5v-.221l-3.917-5.408a1.733,1.733,0,0,1-.106-.149c-.025-.035-.049-.07-.075-.111a.205.205,0,0,1-.031-.057,6.708,6.708,0,0,0,1.3-.286,4.014,4.014,0,0,0,1.151-.591,3.433,3.433,0,0,0,.874-.966,3.528,3.528,0,0,0,.463-1.4H8.525l.732-1.236H7.087a2.311,2.311,0,0,0-.172-.666,5.679,5.679,0,0,0-.322-.639H8.525l.02-.033.037-.06c.039-.062.086-.141.141-.234l.123-.207.058-.1c.065-.109.123-.209.176-.3s.1-.169.128-.234l.049-.1H1.908a.864.864,0,0,0-.11.159l-.109.17-.125.2c-.089.139-.173.281-.251.419a2.049,2.049,0,0,0-.155.318H3.39a1.656,1.656,0,0,1,.538.119,3.865,3.865,0,0,1,.64.3,2.444,2.444,0,0,1,.534.419.689.689,0,0,1,.22.463H1.908c-.117.182-.241.376-.353.556l-.251.418c-.078.131-.127.219-.146.261H5.543a2.776,2.776,0,0,1-.252.966,2.092,2.092,0,0,1-.507.666,2.391,2.391,0,0,1-.7.414,3.892,3.892,0,0,1-.815.217,5.744,5.744,0,0,1-.874.066c-.29,0-.579-.009-.86-.026Z" transform="translate(21.527 1237.725)" fill="#1eefb0" stroke="rgba(0,0,0,0)" stroke-miterlimit="10" stroke-width="1"/>
      <g id="Group_1045" data-name="Group 1045" transform="translate(0 19.235)">
        <g id="Group_1044" data-name="Group 1044" clip-path="url(#clip-path-2)">
          <rect id="Rectangle_2333" data-name="Rectangle 2333" width="16.59" height="16.726" transform="translate(-9.445 9.189) rotate(-44.6)" fill="#7d0eff"/>
        </g>
      </g>
    </g>
  </g>
</svg>
