<svg xmlns="http://www.w3.org/2000/svg" width="59.002" height="80" viewBox="0 0 59.002 80">
  <g id="java-seeklogo.com" transform="translate(-0.517 -0.371)">
    <path id="Path_4" data-name="Path 4" d="M69.8,267.473s-3.057,1.778,2.176,2.379a45.78,45.78,0,0,0,16.565-.7,28.82,28.82,0,0,0,4.4,2.149C77.279,278.01,57.5,270.91,69.8,267.473" transform="translate(-50.278 -205.233)" fill="#5382a1"/>
    <path id="Path_5" data-name="Path 5" d="M60.009,229.659s-3.429,2.538,1.808,3.08a64.624,64.624,0,0,0,21.374-1.026,9.486,9.486,0,0,0,3.293,2.007c-18.935,5.537-40.025.437-26.474-4.061" transform="translate(-42.404 -176.178)" fill="#5382a1"/>
    <path id="Path_6" data-name="Path 6" d="M132.2,92.826c3.859,4.443-1.014,8.441-1.014,8.441s9.8-5.058,5.3-11.392c-4.2-5.907-7.426-8.842,10.022-18.961,0,0-27.387,6.84-14.307,21.912" transform="translate(-98.463 -54.203)" fill="#e76f00"/>
    <path id="Path_7" data-name="Path 7" d="M54.451,293.2s2.262,1.864-2.492,3.306c-9.04,2.738-37.624,3.565-45.565.109-2.854-1.242,2.5-2.965,4.182-3.327a10.858,10.858,0,0,1,2.76-.31c-3.174-2.236-20.518,4.391-8.81,6.289,31.931,5.178,58.207-2.332,49.924-6.068" transform="translate(0 -224.479)" fill="#5382a1"/>
    <path id="Path_8" data-name="Path 8" d="M42.3,190.437s-14.54,3.453-5.149,4.708c3.965.531,11.87.411,19.232-.206,6.017-.508,12.059-1.587,12.059-1.587a25.525,25.525,0,0,0-3.657,1.957c-14.765,3.883-43.288,2.077-35.077-1.9A27.511,27.511,0,0,1,42.3,190.437" transform="translate(-21.312 -146.031)" fill="#5382a1"/>
    <path id="Path_9" data-name="Path 9" d="M200.506,202.5c15.009-7.8,8.07-15.295,3.226-14.285a11.234,11.234,0,0,0-1.717.461,2.735,2.735,0,0,1,1.283-.989c9.583-3.369,16.952,9.936-3.093,15.206a1.306,1.306,0,0,0,.3-.393" transform="translate(-153.434 -143.51)" fill="#5382a1"/>
    <path id="Path_10" data-name="Path 10" d="M101.094.371s8.312,8.315-7.884,21.1C80.222,31.73,90.248,37.578,93.2,44.26,85.624,37.42,80.06,31.4,83.792,25.794c5.478-8.226,20.655-12.215,17.3-25.423" transform="translate(-63.071)" fill="#e76f00"/>
    <path id="Path_11" data-name="Path 11" d="M57.75,320.354c14.407.922,36.531-.512,37.055-7.329,0,0-1.007,2.584-11.907,4.637a118.452,118.452,0,0,1-36.458.561s1.841,1.524,11.31,2.131" transform="translate(-35.285 -240.234)" fill="#5382a1"/>
  </g>
</svg>
