<svg xmlns="http://www.w3.org/2000/svg" xmlns:xlink="http://www.w3.org/1999/xlink" width="82.459" height="59.36" viewBox="0 0 82.459 59.36">
  <defs>
    <linearGradient id="linear-gradient" y1="-0.005" x2="0" y2="-0.005" gradientUnits="objectBoundingBox">
      <stop offset="0" stop-color="#04b6f0"/>
      <stop offset="1" stop-color="#3ecaf0"/>
    </linearGradient>
  </defs>
  <g id="OpenCart_icon" transform="translate(-669.628 228.294)">
    <path id="Path_1" data-name="Path 1" d="M1927.087,19.967c-.031-3.471-6.444-5.046-23.046-5.046-38.954,0-48.837-1.664-59.413-12.793,4.449,6.682,6.884,19.216,48.057,18.592,42.958-.662,16.751,11.077,9.126,24.339,13.752-12.273,25.235-20.363,25.276-25.042Zm-54.739,35.64a5.888,5.888,0,0,1-11.777,0v0a5.919,5.919,0,0,1,5.891-5.891h0A5.887,5.887,0,0,1,1872.348,55.607Zm26.826,0a5.888,5.888,0,0,1-11.775,0v0a5.918,5.918,0,0,1,5.89-5.891h0A5.887,5.887,0,0,1,1899.174,55.607Z" transform="translate(-1175 -230.422)" fill="url(#linear-gradient)"/>
  </g>
</svg>
