<svg xmlns="http://www.w3.org/2000/svg" xmlns:xlink="http://www.w3.org/1999/xlink" width="82.32" height="46.305" viewBox="0 0 82.32 46.305">
  <defs>
    <clipPath id="clip-path">
      <path id="path3446" d="M14.4-382.5c0,.993,11.462,1.8,25.6,1.8h0c14.139,0,25.6-.805,25.6-1.8h0c0-.993-11.462-1.8-25.6-1.8h0c-14.139,0-25.6.805-25.6,1.8" transform="translate(-14.4 384.299)"/>
    </clipPath>
    <radialGradient id="radial-gradient" cx="0.628" cy="0.8" r="1.248" gradientTransform="translate(-0.009 0.511) scale(0.526 1)" gradientUnits="objectBoundingBox">
      <stop offset="0" stop-color="#aeb2d5"/>
      <stop offset="0.3" stop-color="#aeb2d5"/>
      <stop offset="0.75" stop-color="#484c89"/>
      <stop offset="1" stop-color="#484c89"/>
    </radialGradient>
    <clipPath id="clip-path-2">
      <path id="path3470" d="M0-405H82.32V-358.7H0Z" transform="translate(0 405)"/>
    </clipPath>
  </defs>
  <g id="g3438" transform="translate(0 405)">
    <g id="g3440" transform="translate(15.56 -383.646)">
      <g id="g3442" transform="translate(0 0)" clip-path="url(#clip-path)">
        <g id="g3448">
          <g id="g3450">
            <path id="path3462" d="M14.4-382.5c0,.993,11.462,1.8,25.6,1.8h0c14.139,0,25.6-.805,25.6-1.8h0c0-.993-11.462-1.8-25.6-1.8h0c-14.139,0-25.6.805-25.6,1.8" transform="translate(-14.4 384.299)" fill="url(#radial-gradient)"/>
          </g>
        </g>
      </g>
    </g>
    <g id="g3464" transform="translate(0 -405)">
      <g id="g3466" clip-path="url(#clip-path-2)">
        <g id="g3472" transform="translate(3.19 3.91)">
          <path id="path3474" d="M-294.13-298.118c20.97,0,37.97-8.615,37.97-19.242s-17-19.242-37.97-19.242-37.97,8.615-37.97,19.242,17,19.242,37.97,19.242" transform="translate(332.1 336.603)" fill="#777bb3"/>
        </g>
      </g>
    </g>
    <g id="g3476" transform="translate(0 -405)">
      <g id="g3478" clip-path="url(#clip-path-2)">
        <g id="g3484" transform="translate(13.673 13.533)">
          <path id="path3486" d="M-73.136-93a6.3,6.3,0,0,0,3.826-.945,5.113,5.113,0,0,0,1.654-3.195c.272-1.4.168-2.38-.308-2.908s-1.54-.813-3.129-.813h-2.756L-75.376-93Zm-9.013,9.683a.428.428,0,0,1-.331-.156.428.428,0,0,1-.09-.354l4.049-20.83A.429.429,0,0,1-78.1-105h8.726c2.742,0,4.783.745,6.066,2.213s1.688,3.54,1.184,6.134a9.791,9.791,0,0,1-1.049,2.917,9.766,9.766,0,0,1-1.931,2.42,8.471,8.471,0,0,1-3.178,1.9,14.4,14.4,0,0,1-4.366.562h-3.533l-1.009,5.191a.429.429,0,0,1-.421.347Z" transform="translate(82.578 105)"/>
        </g>
        <g id="g3488" transform="translate(13.244 13.104)">
          <path id="path3490" d="M-73.678-38.748h2.4c1.918,0,2.584.421,2.811.672.376.416.446,1.295.205,2.539A4.714,4.714,0,0,1-69.755-32.6a5.911,5.911,0,0,1-3.564.856h-1.72Zm4.12-5h-8.726a.857.857,0,0,0-.842.694l-4.049,20.83a.858.858,0,0,0,.18.709.857.857,0,0,0,.662.312h4.538a.858.858,0,0,0,.842-.694l.942-4.844h3.18a14.814,14.814,0,0,0,4.5-.583,8.9,8.9,0,0,0,3.338-2,10.2,10.2,0,0,0,2.012-2.523,10.219,10.219,0,0,0,1.1-3.044c.531-2.73.1-4.917-1.282-6.5-1.368-1.566-3.518-2.36-6.389-2.36m-6.522,12.863h2.76a6.665,6.665,0,0,0,4.088-1.034,5.491,5.491,0,0,0,1.813-3.452q.45-2.322-.41-3.277t-3.447-.955h-3.109l-1.694,8.718m6.522-12.005q3.937,0,5.744,2.067t1.086,5.77a9.327,9.327,0,0,1-1,2.79,9.3,9.3,0,0,1-1.847,2.313,8.015,8.015,0,0,1-3.02,1.812,13.91,13.91,0,0,1-4.233.541h-3.887l-1.076,5.538h-4.538l4.049-20.83h8.726" transform="translate(83.189 43.75)" fill="#fff"/>
        </g>
        <g id="g3492" transform="translate(32.99 7.995)">
          <path id="path3494" d="M-89.4-168a.428.428,0,0,1-.331-.156.428.428,0,0,1-.09-.354l1.791-9.217c.17-.877.128-1.506-.118-1.771-.151-.163-.6-.435-1.945-.435h-3.244l-2.252,11.587a.429.429,0,0,1-.421.347h-4.5a.429.429,0,0,1-.331-.156.428.428,0,0,1-.09-.354l4.049-20.83a.429.429,0,0,1,.421-.347h4.5a.429.429,0,0,1,.331.156.429.429,0,0,1,.09.355l-.977,5.028h3.49c2.659,0,4.462.469,5.512,1.433,1.07.984,1.4,2.557.993,4.676l-1.884,9.693a.429.429,0,0,1-.421.347Z" transform="translate(100.938 189.688)"/>
        </g>
        <g id="g3496" transform="translate(32.561 7.566)">
          <path id="path3498" d="M-72.877,0h-4.5a.858.858,0,0,0-.842.694l-4.049,20.83a.857.857,0,0,0,.18.709.857.857,0,0,0,.662.312h4.5a.858.858,0,0,0,.842-.694l2.184-11.24h2.891c1.338,0,1.619.286,1.63.3.081.087.188.492.012,1.4l-1.791,9.217a.857.857,0,0,0,.18.709.857.857,0,0,0,.662.312h4.573a.858.858,0,0,0,.842-.694l1.883-9.693c.442-2.275.064-3.982-1.123-5.074-1.133-1.041-3.031-1.546-5.8-1.546h-2.97l.878-4.517a.858.858,0,0,0-.18-.709A.857.857,0,0,0-72.877,0m0,.858L-73.954,6.4h4.011q3.785,0,5.222,1.32t.862,4.279l-1.884,9.693h-4.573l1.791-9.216a2.5,2.5,0,0,0-.225-2.145,3.163,3.163,0,0,0-2.259-.572h-3.6l-2.319,11.934h-4.5L-77.379.858h4.5" transform="translate(82.285)" fill="#fff"/>
        </g>
        <g id="g3500" transform="translate(49.09 13.533)">
          <path id="path3502" d="M-73.136-93a6.3,6.3,0,0,0,3.826-.945,5.113,5.113,0,0,0,1.654-3.195c.272-1.4.168-2.38-.308-2.908s-1.54-.813-3.129-.813h-2.756L-75.376-93Zm-9.013,9.683a.428.428,0,0,1-.331-.156.429.429,0,0,1-.09-.354l4.049-20.83A.429.429,0,0,1-78.1-105h8.725c2.742,0,4.783.745,6.067,2.213s1.688,3.54,1.184,6.134a9.8,9.8,0,0,1-1.049,2.917,9.766,9.766,0,0,1-1.931,2.42,8.471,8.471,0,0,1-3.178,1.9,14.4,14.4,0,0,1-4.366.562h-3.533l-1.009,5.191a.429.429,0,0,1-.421.347Z" transform="translate(82.578 105)"/>
        </g>
        <g id="g3504" transform="translate(48.662 13.104)">
          <path id="path3506" d="M-73.677-38.748h2.4c1.918,0,2.584.421,2.811.672.376.416.447,1.295.205,2.539A4.714,4.714,0,0,1-69.753-32.6a5.911,5.911,0,0,1-3.564.856h-1.72Zm4.12-5h-8.726a.857.857,0,0,0-.842.694l-4.049,20.83a.858.858,0,0,0,.18.709.857.857,0,0,0,.662.312h4.538a.858.858,0,0,0,.842-.694l.941-4.844h3.18a14.814,14.814,0,0,0,4.5-.583,8.9,8.9,0,0,0,3.338-2,10.194,10.194,0,0,0,2.012-2.523,10.219,10.219,0,0,0,1.1-3.044c.531-2.73.1-4.917-1.282-6.5-1.368-1.566-3.518-2.36-6.389-2.36m-6.522,12.863h2.76a6.665,6.665,0,0,0,4.088-1.034,5.49,5.49,0,0,0,1.813-3.452q.451-2.322-.41-3.277t-3.447-.955h-3.109l-1.694,8.718m6.522-12.005q3.937,0,5.744,2.067t1.086,5.77a9.327,9.327,0,0,1-1,2.79,9.3,9.3,0,0,1-1.847,2.313,8.015,8.015,0,0,1-3.02,1.812,13.91,13.91,0,0,1-4.233.541h-3.887l-1.076,5.538h-4.538l4.049-20.83h8.726" transform="translate(83.188 43.75)" fill="#fff"/>
        </g>
      </g>
    </g>
  </g>
</svg>
