<svg xmlns="http://www.w3.org/2000/svg" width="63.58" height="63.58" viewBox="0 0 63.58 63.58">
  <g id="XMLID_141_" transform="translate(-104.8 -11.2)">
    <g id="Group_2" data-name="Group 2" transform="translate(104.8 11.2)">
      <path id="XMLID_125_" d="M125.394,59.986c.508-.233,1.016-.423,1.545-.635.593-.212,1.185-.423,1.778-.614.741-.233,1.5-.423,2.265-.593,1.037-.212,2.074-.381,3.111-.487-.593,1.841-1.228,3.683-1.947,5.5.021.36.042.7.063,1.058a22.884,22.884,0,0,1,8.762,0,8.618,8.618,0,0,1,.063-1.058c-.7-1.82-1.355-3.662-1.947-5.5a25.7,25.7,0,0,1,3.111.487c.762.169,1.5.36,2.265.593.593.19,1.185.381,1.778.614.529.19,1.037.4,1.545.635a27.547,27.547,0,0,1,9.567,7.069,31.79,31.79,0,1,0-41.526,0A27.547,27.547,0,0,1,125.394,59.986Z" transform="translate(-104.8 -11.2)" fill="#a0dbe8"/>
      <path id="XMLID_124_" d="M209.871,238.943a22.083,22.083,0,0,1,4.7-1.482,8.616,8.616,0,0,0-.063-1.058c.7-1.82,1.355-3.662,1.947-5.5a25.7,25.7,0,0,0-3.111.487c-.762.169-1.5.36-2.265.593-.593.19-1.185.381-1.778.614l2.307.571Z" transform="translate(-187.182 -184.4)" fill="#525353"/>
      <path id="XMLID_123_" d="M163.023,250.786a16.8,16.8,0,0,0,.085-1.8.659.659,0,0,1,.656-.656h.571l2.032-6.731a27.547,27.547,0,0,0-9.567,7.069,31.775,31.775,0,0,0,4.783,3.429C162.07,251.653,162.536,251.209,163.023,250.786Z" transform="translate(-145.794 -192.836)" fill="#525353"/>
      <path id="XMLID_122_" d="M307.8,241.7l2.032,6.73h.571a.659.659,0,0,1,.656.656c0,.614.042,1.206.085,1.8.487.423.974.847,1.418,1.312a30.738,30.738,0,0,0,4.783-3.429A27.279,27.279,0,0,0,307.8,241.7Z" transform="translate(-264.835 -192.914)" fill="#525353"/>
      <path id="XMLID_121_" d="M271.447,232.965l2.307-.571c-.593-.212-1.185-.423-1.778-.614-.741-.233-1.5-.423-2.265-.593-1.037-.212-2.074-.381-3.111-.487.593,1.841,1.228,3.683,1.947,5.5-.021.36-.042.7-.064,1.058a21.709,21.709,0,0,1,4.7,1.482Z" transform="translate(-232.355 -184.243)" fill="#525353"/>
      <path id="XMLID_120_" d="M238.187,262.778h4.487a19.224,19.224,0,0,1-.106-2.455,22.884,22.884,0,0,0-8.762,0,19.06,19.06,0,0,1-.106,2.455Z" transform="translate(-206.418 -207.262)"/>
      <path id="XMLID_119_" d="M179.5,286.312c.36.212.741.423,1.122.635a19.615,19.615,0,0,0,.3-1.947C180.431,285.423,179.966,285.868,179.5,286.312Z" transform="translate(-163.69 -227.05)"/>
      <path id="XMLID_118_" d="M210.6,264.355h4.91a19.225,19.225,0,0,0,.106-2.455,21.707,21.707,0,0,0-4.7,1.482Z" transform="translate(-188.207 -208.839)"/>
      <path id="XMLID_117_" d="M323.7,285a19.615,19.615,0,0,0,.3,1.947c.381-.19.741-.4,1.122-.635C324.652,285.868,324.187,285.423,323.7,285Z" transform="translate(-277.37 -227.05)"/>
      <path id="XMLID_116_" d="M280.675,264.355l-.3-.974a22.082,22.082,0,0,0-4.7-1.482,19.058,19.058,0,0,0,.106,2.455Z" transform="translate(-239.509 -208.839)"/>
      <path id="XMLID_115_" d="M196.331,246.065l.3-.974,1.757-5.82-2.307-.571c-.529.19-1.037.4-1.545.635l-2.032,6.73h3.831Z" transform="translate(-173.938 -190.549)" fill="#aa9678"/>
      <path id="XMLID_114_" d="M291.357,245.092l.3.974h3.831l-2.032-6.73c-.508-.233-1.016-.423-1.545-.635l-2.307.571Z" transform="translate(-250.487 -190.549)" fill="#aa9678"/>
      <path id="XMLID_113_" d="M192.8,279.742c.021-.021.042-.021.063-.042H192.8Z" transform="translate(-174.175 -222.872)" fill="#c0b098"/>
      <path id="XMLID_112_" d="M204.13,279.7H191.05c-.021.021-.042.021-.064.042a18.844,18.844,0,0,1-.487,3.64,31.551,31.551,0,0,0,13.63,3.069V279.7Z" transform="translate(-172.361 -222.872)" fill="#c0b098"/>
      <path id="XMLID_111_" d="M316.864,279.7H316.8c.021.021.042.021.064.042Z" transform="translate(-271.93 -222.872)" fill="#aa9678"/>
      <path id="XMLID_110_" d="M268,279.7H254.9v6.752a31.621,31.621,0,0,0,13.63-3.069,19.067,19.067,0,0,1-.487-3.64A.046.046,0,0,0,268,279.7Z" transform="translate(-223.131 -222.872)" fill="#aa9678"/>
      <rect id="XMLID_109_" height="0.656" transform="translate(31.769 56.172)" fill="#786453"/>
      <path id="XMLID_108_" d="M214.12,275.855a16.8,16.8,0,0,1-.085-1.8.659.659,0,0,0-.656-.656H185.737a.659.659,0,0,0-.656.656c0,.614-.042,1.206-.085,1.8a19.618,19.618,0,0,1-.3,1.947c.4.212.8.423,1.206.614a19.067,19.067,0,0,0,.487-3.64v-.042H212.7v.042a18.844,18.844,0,0,0,.487,3.64c.4-.19.8-.4,1.206-.614A19.6,19.6,0,0,1,214.12,275.855Z" transform="translate(-167.789 -217.905)" fill="#8b7460"/>
      <g id="Group_1" data-name="Group 1" transform="translate(9.524 9.545)">
        <path id="XMLID_107_" d="M305.5,138.6h0a25.585,25.585,0,0,1,1.079,3.492c0,.085-.021.169-.021.254-.021.127-.042.233-.063.339.042-.148.063-.339.106-.55a26.245,26.245,0,0,0-1.1-3.535Z" transform="translate(-272.546 -121.181)" fill="none"/>
        <path id="XMLID_106_" d="M348.964,172.6c-.021,0-.042.021-.063.021A.078.078,0,0,1,348.964,172.6Z" transform="translate(-306.76 -147.985)" fill="none"/>
        <path id="XMLID_105_" d="M349.964,171.8l-.063.063Z" transform="translate(-307.549 -147.354)" fill="none"/>
        <path id="XMLID_104_" d="M292.407,128.472A19.341,19.341,0,0,0,290.1,126.8h0A17.238,17.238,0,0,1,292.407,128.472Z" transform="translate(-260.405 -111.879)" fill="none"/>
        <path id="XMLID_103_" d="M335.8,170.6Z" transform="translate(-296.433 -146.408)" fill="none"/>
        <path id="XMLID_102_" d="M342.1,178.6c.021.021.042.064.063.085C342.163,178.642,342.121,178.621,342.1,178.6Z" transform="translate(-301.4 -152.715)" fill="none"/>
        <path id="XMLID_101_" d="M309.864,158.2a2.2,2.2,0,0,1-.064.254Z" transform="translate(-275.936 -136.633)" fill="none"/>
        <path id="XMLID_100_" d="M291.774,210.083a8.072,8.072,0,0,0-.974,2.307,7.832,7.832,0,0,1,.974-2.307c.169-.275.317-.529.466-.783-.148.233-.3.508-.466.783Z" transform="translate(-260.957 -176.917)" fill="none"/>
        <path id="XMLID_99_" d="M305.5,137.969c.021-.064.064-.106.085-.169h0a.635.635,0,0,0-.085.169l.571.508Z" transform="translate(-272.546 -120.55)" fill="none"/>
        <path id="XMLID_98_" d="M275.7,158.3Z" transform="translate(-249.053 -136.712)" fill="none"/>
        <path id="XMLID_97_" d="M274.6,155.8Z" transform="translate(-248.186 -134.741)" fill="none"/>
        <path id="XMLID_96_" d="M284.306,123.463a.463.463,0,0,1-.106-.063C284.242,123.421,284.264,123.442,284.306,123.463Z" transform="translate(-255.754 -109.198)" fill="none"/>
        <path id="XMLID_95_" d="M285.027,123.785c-.042-.021-.085-.063-.127-.085C284.921,123.742,284.985,123.763,285.027,123.785Z" transform="translate(-256.306 -109.435)" fill="none"/>
        <path id="XMLID_94_" d="M290.4,136.2v0Z" transform="translate(-260.642 -119.289)" fill="none"/>
        <path id="XMLID_93_" d="M275.2,157Z" transform="translate(-248.659 -135.687)" fill="none"/>
        <path id="XMLID_92_" d="M348.3,186.5c.042.042.085.106.127.148C348.385,186.606,348.342,186.542,348.3,186.5Z" transform="translate(-306.287 -158.943)" fill="none"/>
        <path id="XMLID_91_" d="M290.242,140.9c0,.339-.021.677-.042.995C290.221,141.577,290.242,141.239,290.242,140.9Z" transform="translate(-260.484 -122.994)" fill="none"/>
        <path id="XMLID_90_" d="M276.1,159.7Z" transform="translate(-249.368 -137.815)" fill="none"/>
        <path id="XMLID_89_" d="M287.2,125.1c-.106-.063-.423-.233-.7-.4C286.775,124.848,287.071,125.017,287.2,125.1Z" transform="translate(-257.567 -110.223)" fill="none"/>
        <path id="XMLID_88_" d="M285.69,124.206a.858.858,0,0,0-.19-.106A.858.858,0,0,0,285.69,124.206Z" transform="translate(-256.779 -109.75)" fill="none"/>
        <path id="XMLID_87_" d="M290,126.7Z" transform="translate(-260.327 -111.8)" fill="none"/>
        <path id="XMLID_86_" d="M353.3,162.727v-.063h0v.063Z" transform="translate(-310.229 -140.101)" fill="none"/>
        <path id="XMLID_85_" d="M328.7,162.3c.021.042.063.063.085.106h0c0-.021-.042-.063-.085-.106Z" transform="translate(-290.836 -139.865)" fill="none"/>
        <path id="XMLID_84_" d="M308.2,141c.423.381.847.783,1.249,1.185C309.025,141.783,308.623,141.381,308.2,141Z" transform="translate(-274.674 -123.073)" fill="none"/>
        <path id="XMLID_83_" d="M347.3,152.4a.9.9,0,0,1,.233.042A1.093,1.093,0,0,0,347.3,152.4Z" transform="translate(-305.499 -132.06)" fill="none"/>
        <path id="XMLID_82_" d="M341.421,159.9c0,.042-.021.064-.021.106C341.4,159.964,341.421,159.942,341.421,159.9Z" transform="translate(-300.848 -137.973)" fill="none"/>
        <path id="XMLID_81_" d="M348.7,152.7a.53.53,0,0,1,.148.085C348.806,152.763,348.742,152.721,348.7,152.7Z" transform="translate(-306.603 -132.297)" fill="none"/>
        <path id="XMLID_80_" d="M351,154.7c.021.021.042.042.042.063C351.021,154.742,351.021,154.721,351,154.7Z" transform="translate(-308.416 -133.874)" fill="none"/>
        <path id="XMLID_79_" d="M353.2,160.442h0v0Z" transform="translate(-310.15 -138.367)" fill="none"/>
        <path id="XMLID_78_" d="M353.2,164.941h0v0Z" transform="translate(-310.15 -141.934)" fill="none"/>
        <path id="XMLID_77_" d="M343.3,154.763c.021-.021.042-.042.042-.063C343.342,154.721,343.321,154.742,343.3,154.763Z" transform="translate(-302.345 -133.874)" fill="none"/>
        <path id="XMLID_76_" d="M346.2,152.442a.761.761,0,0,1,.233-.042A.761.761,0,0,0,346.2,152.442Z" transform="translate(-304.632 -132.06)" fill="none"/>
        <path id="XMLID_75_" d="M317.293,149.914c-.19-.212-.4-.4-.593-.614A8.114,8.114,0,0,1,317.293,149.914Z" transform="translate(-281.375 -129.616)" fill="none"/>
        <path id="XMLID_74_" d="M343.122,119.6h0v2.942L342,127.727v.021h0l1.122-5.185V119.6Z" transform="translate(-301.321 -106.202)" fill="none"/>
        <path id="XMLID_73_" d="M323.317,156.239c-.106-.106-.212-.233-.317-.339C323.127,156.027,323.212,156.133,323.317,156.239Z" transform="translate(-286.342 -134.82)" fill="none"/>
        <path id="XMLID_72_" d="M352.6,158.1c.021.042.021.085.042.127h0a.227.227,0,0,0-.042-.127Z" transform="translate(-309.677 -136.554)" fill="none"/>
        <path id="XMLID_71_" d="M341.2,162.463h0V162.4C341.221,162.442,341.2,162.442,341.2,162.463Z" transform="translate(-300.69 -139.944)" fill="none"/>
        <path id="XMLID_70_" d="M345.2,152.785a.53.53,0,0,1,.148-.085A.919.919,0,0,0,345.2,152.785Z" transform="translate(-303.843 -132.297)" fill="none"/>
        <path id="XMLID_69_" d="M344.1,153.448a.571.571,0,0,1,.169-.148A1.21,1.21,0,0,0,344.1,153.448Z" transform="translate(-302.976 -132.77)" fill="none"/>
        <path id="XMLID_68_" d="M352.406,166.9h0a1.861,1.861,0,0,1-.106.317,1.115,1.115,0,0,0,.106-.317Z" transform="translate(-309.441 -143.491)" fill="none"/>
        <path id="XMLID_67_" d="M169.8,157.312c.042-.063.106-.148.148-.212A1.831,1.831,0,0,1,169.8,157.312Z" transform="translate(-165.567 -135.766)" fill="none"/>
        <path id="XMLID_66_" d="M349.7,153.3c.063.042.106.106.169.148C349.806,153.406,349.763,153.342,349.7,153.3Z" transform="translate(-307.391 -132.77)" fill="none"/>
        <path id="XMLID_65_" d="M174.1,151.585c.021-.021.042-.063.063-.085A.292.292,0,0,0,174.1,151.585Z" transform="translate(-168.957 -131.351)" fill="none"/>
        <path id="XMLID_64_" d="M276.4,162.621h0v0Z" transform="translate(-249.605 -140.101)" fill="none"/>
        <path id="XMLID_63_" d="M162.669,170.1c-.063.106-.106.233-.169.339C162.563,170.333,162.606,170.227,162.669,170.1Z" transform="translate(-159.812 -146.014)" fill="none"/>
        <path id="XMLID_62_" d="M159.921,177.8c0,.021-.021.042-.021.063C159.9,177.842,159.921,177.821,159.921,177.8Z" transform="translate(-157.762 -152.084)" fill="none"/>
        <path id="XMLID_61_" d="M351,123.2Z" transform="translate(-308.416 -109.041)" fill="none"/>
        <path id="XMLID_60_" d="M189.7,135.1Z" transform="translate(-181.255 -118.422)" fill="none"/>
        <path id="XMLID_59_" d="M183.8,139.79l.19-.19Z" transform="translate(-176.604 -121.969)" fill="none"/>
        <path id="XMLID_58_" d="M178.5,145.433c.063-.085.127-.148.19-.233C178.627,145.285,178.563,145.348,178.5,145.433Z" transform="translate(-172.426 -126.384)" fill="none"/>
        <path id="XMLID_57_" d="M348.422,138.785,347.3,133.6Z" transform="translate(-305.499 -117.239)" fill="none"/>
        <path id="XMLID_56_" d="M259.164,176.521c-.021,0-.042-.021-.064-.021A.078.078,0,0,0,259.164,176.521Z" transform="translate(-235.967 -151.06)" fill="none"/>
        <path id="XMLID_55_" d="M260.563,176.721a.078.078,0,0,1-.063-.021A.078.078,0,0,0,260.563,176.721Z" transform="translate(-237.07 -151.217)" fill="none"/>
        <path id="XMLID_54_" d="M165.812,163.6c-.063.127-.148.254-.212.4C165.663,163.875,165.727,163.748,165.812,163.6Z" transform="translate(-162.256 -140.89)" fill="none"/>
        <path id="XMLID_53_" d="M255.4,175.1Z" transform="translate(-233.05 -149.956)" fill="none"/>
        <path id="XMLID_52_" d="M257.842,176.121c-.021,0-.021,0-.042-.021C257.821,176.121,257.821,176.121,257.842,176.121Z" transform="translate(-234.942 -150.744)" fill="none"/>
        <path id="XMLID_51_" d="M256.6,175.7Z" transform="translate(-233.996 -150.429)" fill="none"/>
        <path id="XMLID_50_" d="M249.2,168.1Z" transform="translate(-228.162 -144.437)" fill="none"/>
        <path id="XMLID_49_" d="M248.421,159.5c0,.021-.021.042-.021.063A.078.078,0,0,0,248.421,159.5Z" transform="translate(-227.531 -137.658)" fill="none"/>
        <path id="XMLID_48_" d="M250,155.8Z" transform="translate(-228.793 -134.741)" fill="none"/>
        <path id="XMLID_47_" d="M254.7,150.9Z" transform="translate(-232.498 -130.878)" fill="none"/>
        <path id="XMLID_46_" d="M248.821,158.2c0,.021-.021.021-.021.042A.074.074,0,0,0,248.821,158.2Z" transform="translate(-227.847 -136.633)" fill="none"/>
        <path id="XMLID_45_" d="M249.321,157a.021.021,0,0,1-.021.021Z" transform="translate(-228.241 -135.687)" fill="none"/>
        <path id="XMLID_44_" d="M265.041,148.9Z" transform="translate(-240.637 -129.301)" fill="none"/>
        <path id="XMLID_43_" d="M267.6,149.7Z" transform="translate(-242.667 -129.932)" fill="none"/>
        <path id="XMLID_42_" d="M257,149.6Z" transform="translate(-234.311 -129.853)" fill="none"/>
        <path id="XMLID_41_" d="M259.565,148.9Z" transform="translate(-236.326 -129.301)" fill="none"/>
        <path id="XMLID_40_" d="M276.3,161.1Z" transform="translate(-249.526 -138.919)" fill="none"/>
        <path id="XMLID_39_" d="M262.4,116.727v0Z" transform="translate(-238.568 -103.837)" fill="none"/>
        <path id="XMLID_38_" d="M262.4,115.985v0Z" transform="translate(-238.568 -103.286)" fill="none"/>
        <path id="XMLID_37_" d="M262.4,115.641Z" transform="translate(-238.568 -103.069)" fill="none"/>
        <path id="XMLID_36_" d="M262.4,118v0Z" transform="translate(-238.568 -104.705)" fill="none"/>
        <path id="XMLID_35_" d="M351.006,170.3c-.042.042-.064.106-.106.148A.644.644,0,0,0,351.006,170.3Z" transform="translate(-308.337 -146.172)" fill="none"/>
        <path id="XMLID_34_" d="M248.221,161a.078.078,0,0,1-.021.063A.078.078,0,0,1,248.221,161Z" transform="translate(-227.374 -138.84)" fill="none"/>
        <path id="XMLID_33_" d="M248.4,165.5Z" transform="translate(-227.531 -142.388)" fill="none"/>
        <path id="XMLID_32_" d="M351.806,168.8a.988.988,0,0,1-.106.212A1.973,1.973,0,0,0,351.806,168.8Z" transform="translate(-308.968 -144.989)" fill="none"/>
        <path id="XMLID_31_" d="M296.8,250.66c-.106-.106-.19-.233-.3-.36.106.148.212.254.3.36Z" transform="translate(-265.451 -209.24)" fill="#525353"/>
        <path id="XMLID_30_" d="M298.641,252.82h0a7.225,7.225,0,0,1-.741-.72h0A7.225,7.225,0,0,0,298.641,252.82Z" transform="translate(-266.554 -210.659)" fill="#aa9678"/>
        <circle id="XMLID_29_" transform="translate(41.799 13.396) rotate(-4.571)" fill="#fff"/>
        <path id="XMLID_28_" d="M353.3,162.8Z" transform="translate(-310.229 -140.259)" fill="#fff"/>
        <path id="XMLID_27_" d="M348.909,121.457h0a10.7,10.7,0,0,0-.825-1.016h0c-.127-.148-.254-.275-.381-.4-.042-.042-.106-.085-.148-.127a2.241,2.241,0,0,0-.254-.212h0v2.963l1.122,5.185h0c.021.042.021.085.042.127l.783.889h.825v-.233h0a22.487,22.487,0,0,0-1.122-7.006h0A.963.963,0,0,0,348.909,121.457Z" transform="translate(-305.499 -106.281)" fill="#bbbcbd"/>
        <path id="XMLID_26_" d="M353.3,162.8Z" transform="translate(-310.229 -140.259)" fill="#bbbcbd"/>
        <path id="XMLID_25_" d="M352.964,158.923v.042h0a2.3,2.3,0,0,1,.021.381v.063h0v.064a1.938,1.938,0,0,1-.021.36h0v.042l-.064.381h0l.783-.868-.783-.889h0C352.921,158.648,352.942,158.775,352.964,158.923Z" transform="translate(-309.914 -136.869)" fill="#676a6a"/>
        <path id="Path_2" data-name="Path 2" d="M343.8,155.188v-.042a2.175,2.175,0,0,0,.021-.36v-.169a2.3,2.3,0,0,0-.021-.381v-.042l-.063-.381c-.021-.042-.021-.085-.042-.127a2.678,2.678,0,0,0-.3-.656c-.021-.021-.042-.042-.042-.063-.042-.042-.064-.085-.106-.127a.571.571,0,0,0-.169-.148c-.021-.021-.042-.021-.064-.042a.53.53,0,0,0-.148-.085c-.021,0-.042-.021-.063-.021a.761.761,0,0,0-.233-.042.9.9,0,0,0-.233.042c-.021,0-.042.021-.063.021a.531.531,0,0,0-.148.085c-.021.021-.042.021-.063.042-.063.042-.106.106-.169.148-.042.042-.064.085-.106.127-.021.021-.042.042-.042.063a2.07,2.07,0,0,0-.3.656v.021a1.791,1.791,0,0,0-.085.36c0,.042-.021.063-.021.106-.021.148-.021.275-.042.423v.063h0c0,1.206.571,2.2,1.27,2.2a1.113,1.113,0,0,0,.36-.085c.021,0,.042-.021.064-.021.042-.021.085-.063.127-.085l.064-.063a1.278,1.278,0,0,0,.169-.169.9.9,0,0,0,.106-.148c.021-.042.042-.063.063-.106a1.974,1.974,0,0,0,.106-.212c.021-.021.021-.042.042-.085.042-.106.063-.212.106-.317C343.776,155.442,343.8,155.315,343.8,155.188Zm-1.185-.8c-.275,0-.487-.36-.487-.825,0-.444.212-.825.487-.825s.487.36.487.825S342.866,154.384,342.612,154.384Z" transform="translate(-300.769 -132.139)"/>
        <ellipse id="XMLID_22_" cx="0.487" cy="0.825" rx="0.487" ry="0.825" transform="translate(41.357 20.594)" fill="#fff"/>
        <path id="XMLID_21_" d="M341.9,138.785h0a2.677,2.677,0,0,1,.3-.656c.021-.021.042-.042.042-.063.042-.042.064-.085.106-.127a.571.571,0,0,1,.169-.148c.021-.021.042-.021.064-.042a.531.531,0,0,1,.148-.085c.021,0,.042-.021.063-.021a.761.761,0,0,1,.233-.042.9.9,0,0,1,.233.042c.021,0,.042.021.064.021a.53.53,0,0,1,.148.085c.021.021.042.021.064.042.064.042.106.106.169.148.042.042.064.085.106.127.021.021.042.042.042.063a2.071,2.071,0,0,1,.3.656h0l-1.122-5.185-1.122,5.185Z" transform="translate(-301.242 -117.239)" fill="#909393"/>
        <path id="Path_3" data-name="Path 3" d="M254.011,151.642a1.6,1.6,0,0,0-.021-.317h0c-.021-.106-.021-.19-.042-.3h0a1.048,1.048,0,0,0-.085-.275h0a1.47,1.47,0,0,0-.106-.275h0l-.127-.254h0a2.779,2.779,0,0,0-.529-.677,3.386,3.386,0,0,0-.931-.614h0a5.1,5.1,0,0,0-.529-.169h-.021a2.6,2.6,0,0,0-1.143,0h-.021a3.859,3.859,0,0,0-.529.148H249.9a2.132,2.132,0,0,0-.487.254h0a3.3,3.3,0,0,0-.423.339h-.021a3.479,3.479,0,0,0-.55.7h0l-.127.254a.021.021,0,0,1-.021.021,1.032,1.032,0,0,0-.085.233c0,.021-.021.021-.021.042-.021.085-.042.148-.064.233,0,.021-.021.042-.021.064-.021.085-.021.148-.042.233a.078.078,0,0,1-.021.063c0,.106-.021.212-.021.317a2.627,2.627,0,0,0,.063.571v.021a2.737,2.737,0,0,0,.169.55h0a3.386,3.386,0,0,0,.614.931,3.478,3.478,0,0,0,.7.55h0l.254.127h.021a1.609,1.609,0,0,0,.233.085c.021,0,.021,0,.042.021.085.021.148.042.233.064.021,0,.042.021.063.021.085.021.148.021.233.042a.078.078,0,0,1,.063.021c.106,0,.212.021.317.021a3.007,3.007,0,0,0,1.164-.233c.169-.085.339-.169.508-.275a2.91,2.91,0,0,0,.8-.8c.106-.169.19-.339.275-.508a3.087,3.087,0,0,0,.233-1.164v-.021h0l.021-.042Zm-2.984-.36a1.122,1.122,0,1,1,1.122-1.122A1.129,1.129,0,0,1,251.027,151.282Z" transform="translate(-227.216 -129.143)"/>
        <circle id="XMLID_18_" cx="1.122" cy="1.122" r="1.122" transform="translate(22.689 19.895)" fill="#fff"/>
        <path id="XMLID_17_" d="M185.254,122.07h0l2.074-6.328V114.26a17.718,17.718,0,0,0-3.535-.36c-.4,0-.8.021-1.206.042a.466.466,0,0,0-.169.021,17.3,17.3,0,0,0-5.99,1.566,19.329,19.329,0,0,0-4.466,2.857h0c-.36.317-.72.635-1.058.974l-.19.19c-.317.317-.635.656-.931.995-.064.085-.127.148-.19.233-.3.36-.593.72-.868,1.079-.021.021-.042.063-.064.085-.254.36-.508.72-.762,1.1-.042.063-.106.148-.148.212-.19.317-.381.635-.55.952h9.4Z" transform="translate(-163.517 -101.709)" fill="#bbbcbd"/>
        <path id="XMLID_16_" d="M268.32,122.633c.021-.254.042-.487.042-.741.021-.339.021-.656.042-.995v-1.016c0-.677-.042-1.333-.064-2.011h0a41.513,41.513,0,0,0-.042-.042c-.127-.063-.423-.233-.7-.4h-.021a.859.859,0,0,0-.19-.106h0c-.042-.021-.085-.063-.127-.085l-.021-.021a.463.463,0,0,1-.106-.063c-.423-.233-.868-.423-1.312-.614A23.273,23.273,0,0,0,262.5,115.5v1.482l2.053,6.307h0a2.347,2.347,0,0,1,.529.677h0l.127.254h0a1.064,1.064,0,0,1,.106.275h0c.021.085.064.19.085.275h0a1.428,1.428,0,0,1,.042.3h0a1.6,1.6,0,0,1,.021.317h0v.021h2.5a24.218,24.218,0,0,0,.36-2.773C268.32,122.675,268.32,122.654,268.32,122.633Z" transform="translate(-238.647 -102.97)" fill="#e2dddb"/>
        <path id="XMLID_15_" d="M305.5,138.6Z" transform="translate(-272.546 -121.181)" fill="#fbb040"/>
        <path id="XMLID_14_" d="M270.745,143.393c.571-.571,1.1-1.1,1.609-1.63.3-.317.593-.635.889-.931a19.593,19.593,0,0,0,4.551-7.133,2.2,2.2,0,0,0,.064-.254V133.4c.021-.106.042-.212.063-.339,0-.085.021-.169.021-.254a25.59,25.59,0,0,0-1.079-3.492v.021l-.021-.021c-.085-.064-.148-.148-.233-.212-.233-.212-.466-.423-.72-.635a19.344,19.344,0,0,0-2.307-1.672h0c.042.677.063,1.333.063,2.011v1.016c0,.339-.021.677-.042.995-.021.254-.021.487-.042.741v.085c-.085.931-.19,1.863-.36,2.773l-.3,1.4a44.588,44.588,0,0,1-2.878,7.069c-.275.614-.529,1.249-.762,1.884l-.063.19c.317-.339.614-.635.825-.847C270.3,143.838,270.512,143.605,270.745,143.393Z" transform="translate(-243.929 -111.879)" fill="#fbb040"/>
        <path id="XMLID_13_" d="M252.6,129.165h0a3.3,3.3,0,0,1,.423-.339h0a2.132,2.132,0,0,1,.487-.254h.021a2.174,2.174,0,0,1,.529-.148h.021a2.6,2.6,0,0,1,1.143,0h.021a2.209,2.209,0,0,1,.529.169h0a2.967,2.967,0,0,1,.931.614h0l-2.053-6.307Z" transform="translate(-230.842 -108.804)" fill="#909393"/>
        <path id="XMLID_12_" d="M219.558,155.8a4.182,4.182,0,0,1-.169-.55v-.021a2.627,2.627,0,0,1-.063-.571,1.6,1.6,0,0,1,.021-.317.078.078,0,0,1,.021-.063.9.9,0,0,1,.042-.233c0-.021.021-.042.021-.063.021-.085.042-.148.063-.233,0-.021.021-.021.021-.042.021-.085.063-.169.085-.233a.021.021,0,0,1,.021-.021l.127-.254h0a3.479,3.479,0,0,1,.55-.7h0l-8.678,2.138H211.6l8.593,2.1a2.6,2.6,0,0,1-.635-.931Z" transform="translate(-198.52 -132.139)" fill="#676a6a"/>
        <path id="XMLID_11_" d="M313.019,123.742a.917.917,0,0,1,.021-.106,1.793,1.793,0,0,1,.085-.36v-.042l1.122-5.185v-2.963a4.625,4.625,0,0,0-2.942-1.185,5.084,5.084,0,0,0-3.429,1.609,13.311,13.311,0,0,0-2.392,3.429c-.021.063-.063.106-.085.169l.571.508c.423.381.847.783,1.249,1.185l.571.571c.19.212.4.4.593.614.254.275.508.529.741.8.106.106.212.233.317.339.3.339.593.656.889.995h0l.106.106H313v-.063A2.983,2.983,0,0,1,313.019,123.742Z" transform="translate(-272.467 -101.709)" fill="#e2dddb"/>
        <path id="XMLID_10_" d="M305.5,138.6Z" transform="translate(-272.546 -121.181)" fill="#e2dddb"/>
        <path id="XMLID_9_" d="M151.938,82.079c0-.021.021-.042.021-.063.169-.423.339-.847.529-1.27a1.687,1.687,0,0,1,.169-.339c.148-.339.317-.656.487-.974.064-.127.127-.254.212-.4.042-.063.085-.148.127-.212.19-.317.36-.635.55-.952.042-.064.106-.148.148-.212a12.757,12.757,0,0,1,.762-1.1c.021-.021.042-.063.063-.085.275-.381.571-.741.868-1.079.063-.085.127-.148.19-.233.3-.339.614-.677.931-.995l.19-.19c.339-.339.677-.656,1.058-.974h0a11.492,11.492,0,0,1,10.964-8.276,11.324,11.324,0,0,1,5.926,1.693,11.645,11.645,0,0,1,4.254,4.635.021.021,0,0,0,.021.021,1.216,1.216,0,0,0,.085.148h0a19.341,19.341,0,0,1,2.307,1.672c.254.212.487.423.72.635.085.063.148.148.233.212h0a.635.635,0,0,1,.085-.169c.72-4.593,2.751-7.916,5.143-7.916,1.8,0,3.408,1.884,4.381,4.783v.021h0c.275.3.55.635.825.995h0a.021.021,0,0,0,.021.021h0c.021.042.021.085.042.127h0l-.042-.148a22.292,22.292,0,0,0-43.41,7.133,22.079,22.079,0,0,0,1.1,6.942v-.021c.148-.656.317-1.312.508-1.947C151.578,83.053,151.747,82.566,151.938,82.079Z" transform="translate(-149.8 -56.3)" fill="#525353"/>
        <path id="XMLID_8_" d="M334.82,162.563l-.783.868h0a1.859,1.859,0,0,1-.106.317c0,.021-.021.042-.042.085a.989.989,0,0,1-.106.212c-.021.042-.042.064-.064.106-.042.042-.063.106-.106.148a.645.645,0,0,1-.169.169l-.063.063a.443.443,0,0,1-.127.085c-.021,0-.042.021-.064.021a.7.7,0,0,1-.36.085c-.7,0-1.27-.974-1.27-2.2H329c.487.55.952,1.1,1.4,1.672l.021.021,1.333,1.651c.021.021.042.063.064.085.423.529.825,1.058,1.228,1.587.042.042.085.106.127.148.423.571.847,1.143,1.27,1.693v.021a21.949,21.949,0,0,0,1.164-6.9h0l-.783.063Z" transform="translate(-291.072 -140.023)" fill="#fff"/>
        <path id="XMLID_7_" d="M200,99.831a.466.466,0,0,0,.169-.021c.4-.021.8-.042,1.206-.042a17.719,17.719,0,0,1,3.535.36v0a25.068,25.068,0,0,1,3.323,1.037c.444.19.889.4,1.312.614a.193.193,0,0,1,.106.063.021.021,0,0,1,.021.021.442.442,0,0,1,.127.085h0c.063.042.127.063.19.106h.021c.275.148.571.339.7.4a.021.021,0,0,1,.021.021l.021.021h0a1.214,1.214,0,0,0-.085-.148.021.021,0,0,0-.021-.021,11.379,11.379,0,0,0-21.144,1.947,18.421,18.421,0,0,1,4.466-2.857A17.944,17.944,0,0,1,200,99.831Z" transform="translate(-181.097 -87.597)"/>
        <line id="XMLID_6_" y2="0.127" transform="translate(23.832 13.122)" fill="none"/>
        <path id="XMLID_5_" d="M308.371,104.887a5.084,5.084,0,0,1,3.429-1.609,4.581,4.581,0,0,1,2.942,1.185h0c.085.063.169.148.254.212.042.042.106.085.148.127.127.127.254.254.381.4h0v-.021c-.995-2.9-2.582-4.783-4.381-4.783-2.392,0-4.423,3.3-5.143,7.916h0A12.277,12.277,0,0,1,308.371,104.887Z" transform="translate(-272.94 -91.066)"/>
        <path id="XMLID_4_" d="M168.286,183.036c.212.085.4.148.614.212a22.327,22.327,0,0,0,15.683-.36c.127-.063.275-.106.4-.169.212-.085.444-.19.656-.3.19-.085.381-.169.571-.275-.042,0-.085.021-.127.021h0a8.883,8.883,0,0,1-2.37-.021c-4.593-.656-5.609-2.878-5.461-5.164a11.644,11.644,0,0,1-1.016-.656,29.693,29.693,0,0,1-5.63-5.291,30.446,30.446,0,0,0,6.794,3.683c.085.042.169.064.254.106.19-.656.423-1.291.614-1.841h0l.064-.19c.233-.635.487-1.27.762-1.884a45.418,45.418,0,0,0,2.878-7.069l.3-1.4h-2.5v.021a3.006,3.006,0,0,1-.233,1.164,3.882,3.882,0,0,1-.275.508,2.909,2.909,0,0,1-.8.8c-.169.106-.339.19-.508.275a3.088,3.088,0,0,1-1.164.233,1.6,1.6,0,0,1-.317-.021.078.078,0,0,1-.063-.021.9.9,0,0,1-.233-.042c-.021,0-.042-.021-.063-.021-.085-.021-.148-.042-.233-.063-.021,0-.021,0-.042-.021-.085-.021-.169-.063-.233-.085h-.021l-.254-.127h0a2.859,2.859,0,0,1-.7-.55l-8.593-2.1h-9.376c-.042.063-.085.148-.127.212-.063.127-.148.254-.212.4-.169.317-.339.656-.487.974-.063.106-.106.233-.169.339-.19.423-.36.847-.529,1.27,0,.021-.021.042-.021.064-.19.487-.36.995-.508,1.5-.19.635-.36,1.291-.508,1.947a22.183,22.183,0,0,0,8.106,11.091c.106.085.233.148.339.233a19.054,19.054,0,0,0,1.968,1.228A17.785,17.785,0,0,0,168.286,183.036Z" transform="translate(-153.978 -139.944)" fill="#fff"/>
        <path id="XMLID_3_" d="M289.843,218.349a3.9,3.9,0,0,0-.064.7,5.2,5.2,0,0,0,.085,1.164,7.205,7.205,0,0,0,.148.72,6.345,6.345,0,0,0,.36.952,9.152,9.152,0,0,0,.444.8,2.231,2.231,0,0,0,.148.233c.085.106.148.212.233.317.106.127.212.254.3.36a5.315,5.315,0,0,0,.741.72v.021a.078.078,0,0,0,.021.064h0c.042,0,.085-.021.127-.021a15.377,15.377,0,0,0,2.984-.741c.508-.19,1.016-.381,1.5-.593.148-.063.3-.148.444-.212A39.125,39.125,0,0,0,306.69,216,27.93,27.93,0,0,1,289.843,218.349Z" transform="translate(-260.148 -182.199)" fill="#9f2255"/>
        <path id="XMLID_2_" d="M302.5,148.738c-.4-.529-.825-1.058-1.228-1.587-.021-.021-.042-.063-.063-.085l-1.333-1.651-.021-.021c-.466-.571-.931-1.122-1.4-1.672-.021-.042-.064-.063-.085-.106-.3-.339-.593-.656-.889-.995-.106-.106-.212-.233-.317-.339l-.741-.8c-.19-.212-.4-.4-.593-.614l-.571-.571c-.4-.4-.825-.8-1.249-1.185l-.571-.508h0a26.25,26.25,0,0,1,1.1,3.535c.063.317.106.614.148.91.571,4.17-.783,6.9-2.9,10.5-.148.254-.317.529-.466.783a8.072,8.072,0,0,0-.974,2.307c-.063.233-.106.466-.148.7a27.947,27.947,0,0,0,16.847-2.349s-1.249-1.841-3.154-4.381c-.423-.571-.847-1.143-1.27-1.693A1.172,1.172,0,0,0,302.5,148.738Z" transform="translate(-260.484 -121.181)" fill="#e2066f"/>
        <path id="XMLID_1_" d="M247.556,176.665a7.223,7.223,0,0,1-.741-.72c-.106-.106-.19-.233-.3-.36-.085-.106-.148-.212-.233-.317-.042-.085-.106-.148-.148-.233-.148-.254-.3-.508-.444-.8a9.941,9.941,0,0,1-.36-.952,3.943,3.943,0,0,1-.148-.72,6.848,6.848,0,0,1-.085-1.164,3.9,3.9,0,0,1,.063-.7c.042-.233.085-.466.148-.7a9.022,9.022,0,0,1,.974-2.307h0c.148-.275.317-.529.466-.783,2.117-3.6,3.471-6.307,2.9-10.5-.042-.3-.085-.614-.148-.91a3.179,3.179,0,0,1-.106.55v.042a2.2,2.2,0,0,1-.063.254,19.593,19.593,0,0,1-4.551,7.133c-.275.317-.571.614-.889.931-.508.529-1.058,1.079-1.609,1.63-.233.233-.466.444-.7.677-.212.212-.508.508-.825.847h0c-.19.55-.423,1.185-.614,1.841-.085-.042-.169-.063-.254-.106a29.472,29.472,0,0,1-6.794-3.683,29.694,29.694,0,0,0,5.63,5.291,9.148,9.148,0,0,0,1.016.656c-.148,2.307.868,4.508,5.461,5.164a9.861,9.861,0,0,0,2.37.021c0-.042-.021-.063-.021-.085Z" transform="translate(-215.469 -134.504)"/>
      </g>
    </g>
  </g>
</svg>
