<svg id="Group_4792" data-name="Group 4792" xmlns="http://www.w3.org/2000/svg" xmlns:xlink="http://www.w3.org/1999/xlink" width="39.828" height="40" viewBox="0 0 39.828 40">
  <defs>
    <clipPath id="clip-path">
      <rect id="Rectangle_2078" data-name="Rectangle 2078" width="39.828" height="40" fill="none"/>
    </clipPath>
  </defs>
  <g id="Group_4791" data-name="Group 4791" clip-path="url(#clip-path)">
    <path id="Path_1126" data-name="Path 1126" d="M92.849,0h17.267q0,4.373,0,8.745c0,.97.437,1.41,1.4,1.411h8.757V23.668q0,6.364,0,12.728a3.509,3.509,0,0,1-2.339,3.4c-.231.082-.47.139-.706.207H98.4c.081-.065.16-.133.243-.2a12.734,12.734,0,0,0,4.749-6.916c.2-.732.316-1.491.476-2.264h.924q4.356,0,8.711,0a1.2,1.2,0,0,0,1.2-.7,1.169,1.169,0,0,0-1.165-1.64q-4.629-.006-9.258,0h-.465a13.391,13.391,0,0,0-1.343-4.688h5.3q2.891,0,5.781,0a1.175,1.175,0,1,0-.023-2.343q-6.035,0-12.071.007a1.079,1.079,0,0,1-.895-.4,12.522,12.522,0,0,0-8.4-4.224c-.769-.068-1.549-.01-2.33-.01-.013-.108-.024-.158-.024-.208,0-4.336-.01-8.671.009-13.007A3.116,3.116,0,0,1,91.169.769,9.992,9.992,0,0,1,92.849,0m12.234,14.219q-4.294,0-8.587,0a1.168,1.168,0,0,0-.3,2.308,2.305,2.305,0,0,0,.5.032q6.245,0,12.491,0h4.372a1.155,1.155,0,0,0,1.147-.722,1.167,1.167,0,0,0-1.154-1.62q-4.235-.008-8.47,0" transform="translate(-80.447)" fill="#7d0eff"/>
    <path id="Subtraction_2" data-name="Subtraction 2" d="M11.386,21.11H9.668c-.288-.066-.59-.124-.857-.175a10.621,10.621,0,0,1-1.823-.462A11.09,11.09,0,0,1,2.2,17.107a10.4,10.4,0,0,1-2.13-5.423A10.391,10.391,0,0,1,2.177,4.095,10.734,10.734,0,0,1,9.028.12,9.915,9.915,0,0,1,10.562,0a10.537,10.537,0,0,1,6.757,2.511,10.352,10.352,0,0,1,3.6,6.3A10.547,10.547,0,0,1,12,21.01c-.172.026-.349.056-.5.082l-.107.018ZM8.273,11.439H9.479c0,.026-.008.049-.012.07s-.009.057-.015.082l-.049.2-.627,2.495q-.051.2-.1.406c-.069.27-.141.55-.206.828a.567.567,0,0,0,.084.471.52.52,0,0,0,.386.209.434.434,0,0,0,.048,0,.585.585,0,0,0,.48-.287q1.144-1.547,2.29-3.094l.075-.1,1.226-1.655.024-.032c.293-.4.6-.8.892-1.208a.507.507,0,0,0,.049-.575.521.521,0,0,0-.494-.28H11.5c0-.016,0-.028,0-.038a.251.251,0,0,1,0-.035q.055-.428.111-.856l.009-.067v-.01c.1-.753.2-1.531.292-2.3a1.046,1.046,0,0,0-.019-.422.466.466,0,0,0-.438-.329.547.547,0,0,0-.058,0,.563.563,0,0,0-.471.282C9.472,7.234,8.26,8.932,7.113,10.537a.544.544,0,0,0-.08.617.564.564,0,0,0,.55.287h.009Z" transform="translate(0.001 18.89)" fill="#1eefb0" stroke="rgba(0,0,0,0)" stroke-miterlimit="10" stroke-width="1"/>
    <path id="Path_1128" data-name="Path 1128" d="M307.512,15.61V8.729L314.4,15.61Z" transform="translate(-275.479 -7.82)" fill="#7d0eff"/>
  </g>
</svg>
