<svg xmlns="http://www.w3.org/2000/svg" width="472.188" height="334.741" viewBox="0 0 472.188 334.741">
  <g id="Group_91" data-name="Group 91" transform="translate(-78.839 -215.04)">
    <g id="Group_90" data-name="Group 90" transform="translate(312.68 215.9)">
      <g id="Group_86" data-name="Group 86" transform="translate(21.89 34.698)">
        <circle id="Ellipse_9" data-name="Ellipse 9" cx="5.6" cy="5.6" r="5.6" fill="#5f6677"/>
      </g>
      <g id="Group_87" data-name="Group 87" transform="translate(12.397 20.386)">
        <path id="Path_67" data-name="Path 67" d="M260.724,92.164a1.463,1.463,0,0,1-1.3-.852,13.409,13.409,0,0,0-24.624,0,1.4,1.4,0,0,1-2.024.637,1.785,1.785,0,0,1-.567-2.276c3.025-6.046,8.734-9.8,14.9-9.8s11.877,3.755,14.9,9.8a1.785,1.785,0,0,1-.567,2.276A1.354,1.354,0,0,1,260.724,92.164Z" transform="translate(-232.023 -79.872)" fill="#5f6677"/>
      </g>
      <g id="Group_88" data-name="Group 88" transform="translate(5.181 10.256)">
        <path id="Path_68" data-name="Path 68" d="M226.229,86.689a1.355,1.355,0,0,1-.727-.214,1.787,1.787,0,0,1-.567-2.277c4.489-8.973,12.963-14.547,22.117-14.547S264.68,75.225,269.169,84.2a1.786,1.786,0,0,1-.566,2.276,1.4,1.4,0,0,1-2.024-.636c-3.964-7.923-11.446-12.845-19.527-12.845s-15.563,4.922-19.526,12.845A1.465,1.465,0,0,1,226.229,86.689Z" transform="translate(-224.743 -69.651)" fill="#5f6677"/>
      </g>
      <g id="Group_89" data-name="Group 89" transform="translate(0)">
        <path id="Path_69" data-name="Path 69" d="M273.01,79.749a1.466,1.466,0,0,1-1.3-.852C266.7,68.872,257.23,62.645,247,62.645S227.312,68.872,222.3,78.9a1.4,1.4,0,0,1-2.024.637,1.786,1.786,0,0,1-.567-2.276c5.54-11.075,16-17.956,27.3-17.956s21.758,6.88,27.3,17.956a1.787,1.787,0,0,1-.566,2.276A1.356,1.356,0,0,1,273.01,79.749Z" transform="translate(-219.515 -59.303)" fill="#5f6677"/>
      </g>
    </g>
    <g id="Group_85" data-name="Group 85" transform="translate(150.183 240.176)">
      <path id="Path_65" data-name="Path 65" d="M97.295,122.4l-4.5-2.345a17.472,17.472,0,0,0,.234-3.141l4.8-1.653a3.38,3.38,0,0,0,2.1-4.3l-1.347-3.915a3.38,3.38,0,0,0-4.3-2.1l-4.8,1.653a17.222,17.222,0,0,0-1.46-1.695l2.346-4.506a3.381,3.381,0,0,0-1.438-4.559l-3.672-1.912a3.381,3.381,0,0,0-4.559,1.438l-2.345,4.5a17.457,17.457,0,0,0-2.226-.224l-1.4-4.882a3.379,3.379,0,0,0-4.181-2.317l-3.979,1.142a3.379,3.379,0,0,0-2.317,4.18l1.4,4.882a17.349,17.349,0,0,0-2.439,1.993L58.7,102.3a3.381,3.381,0,0,0-4.559,1.438l-1.912,3.672a3.38,3.38,0,0,0,1.437,4.559l4.505,2.345a17.477,17.477,0,0,0-.234,3.142l-4.8,1.652a3.379,3.379,0,0,0-2.1,4.3l1.347,3.915a3.38,3.38,0,0,0,4.3,2.1l4.8-1.653a17.364,17.364,0,0,0,1.461,1.695L60.6,133.965a3.38,3.38,0,0,0,1.437,4.559l3.673,1.912A3.381,3.381,0,0,0,70.268,139l2.345-4.505a17.425,17.425,0,0,0,2.226.224l1.4,4.882a3.379,3.379,0,0,0,4.18,2.317l3.98-1.141a3.381,3.381,0,0,0,2.317-4.181l-1.4-4.882a17.349,17.349,0,0,0,2.439-1.993l4.506,2.346a3.38,3.38,0,0,0,4.559-1.438l1.912-3.672A3.381,3.381,0,0,0,97.295,122.4Zm-27.011,4.771a11.255,11.255,0,1,1,15.181-4.786A11.269,11.269,0,0,1,70.283,127.167Z" transform="translate(-50.854 -59.597)" fill="#5f6677"/>
      <path id="Path_66" data-name="Path 66" d="M127.4,85.094l-3.862-2.011a15.042,15.042,0,0,0,.2-2.694l4.118-1.417a2.9,2.9,0,0,0,1.8-3.684L128.5,71.931a2.9,2.9,0,0,0-3.684-1.8l-4.119,1.418a14.842,14.842,0,0,0-1.252-1.454l2.011-3.863a2.9,2.9,0,0,0-1.232-3.91l-3.15-1.639a2.9,2.9,0,0,0-3.909,1.233l-2.011,3.863a14.809,14.809,0,0,0-1.909-.192l-1.2-4.186a2.9,2.9,0,0,0-3.585-1.987l-3.413.978a2.9,2.9,0,0,0-1.987,3.586l1.2,4.186a15.05,15.05,0,0,0-2.092,1.709L94.3,67.864A2.9,2.9,0,0,0,90.392,69.1l-1.639,3.149a2.9,2.9,0,0,0,1.232,3.909l3.863,2.012a14.944,14.944,0,0,0-.2,2.694l-4.118,1.417a2.9,2.9,0,0,0-1.8,3.684l1.156,3.357a2.9,2.9,0,0,0,3.684,1.8L96.689,89.7a14.986,14.986,0,0,0,1.253,1.454L95.93,95.015a2.9,2.9,0,0,0,1.233,3.909l3.149,1.64a2.9,2.9,0,0,0,3.91-1.233l2.011-3.863a14.809,14.809,0,0,0,1.909.192l1.2,4.186a2.9,2.9,0,0,0,3.585,1.987l3.413-.978a2.9,2.9,0,0,0,1.986-3.586l-1.2-4.186a14.984,14.984,0,0,0,2.091-1.709l3.863,2.011a2.9,2.9,0,0,0,3.91-1.233L128.63,89A2.9,2.9,0,0,0,127.4,85.094Zm-23.163,4.091a9.651,9.651,0,1,1,13.017-4.1A9.662,9.662,0,0,1,104.234,89.185Z" transform="translate(-51.181 -59.303)" fill="#5f6677"/>
    </g>
    <path id="Path_48" data-name="Path 48" d="M435.37,312.712H419.323a.67.67,0,0,1,0-1.341H435.37a.67.67,0,0,1,0,1.341Z" transform="translate(44.809 131.956)" fill="#6746dd"/>
    <path id="Path_49" data-name="Path 49" d="M409.863,312.712H397.886a.67.67,0,0,1,0-1.341h11.977a.67.67,0,0,1,0,1.341Z" transform="translate(45 131.956)" fill="#6746dd"/>
    <path id="Path_50" data-name="Path 50" d="M413.334,302.91H386.672a.67.67,0,0,1,0-1.341h26.662a.67.67,0,0,1,0,1.341Z" transform="translate(45.1 132.043)" fill="#6746dd"/>
    <path id="Path_64" data-name="Path 64" d="M412.09,416.319l-5.194-2.461a19.777,19.777,0,0,0,.13-3.562l5.361-2.074a3.825,3.825,0,0,0,2.187-4.948l-1.69-4.37a3.825,3.825,0,0,0-4.949-2.187l-5.361,2.073a19.736,19.736,0,0,0-1.724-1.854l2.461-5.194a3.827,3.827,0,0,0-1.82-5.1l-4.235-2.006a3.826,3.826,0,0,0-5.094,1.82l-2.461,5.2a19.494,19.494,0,0,0-2.526-.159l-1.792-5.462a3.825,3.825,0,0,0-4.827-2.443l-4.452,1.461a3.825,3.825,0,0,0-2.443,4.827l1.792,5.462a19.788,19.788,0,0,0-2.674,2.358l-5.194-2.461a3.827,3.827,0,0,0-5.1,1.82l-2.005,4.235a3.824,3.824,0,0,0,1.82,5.094l5.194,2.461a19.683,19.683,0,0,0-.13,3.562l-5.362,2.074a3.825,3.825,0,0,0-2.187,4.948l1.691,4.37a3.825,3.825,0,0,0,4.948,2.187l5.361-2.073a19.867,19.867,0,0,0,1.724,1.854l-2.46,5.194a3.825,3.825,0,0,0,1.82,5.1l4.234,2.006a3.825,3.825,0,0,0,5.094-1.82l2.461-5.2a19.52,19.52,0,0,0,2.527.159l1.791,5.462a3.826,3.826,0,0,0,4.828,2.442l4.452-1.46a3.825,3.825,0,0,0,2.442-4.827l-1.791-5.462a19.721,19.721,0,0,0,2.673-2.358l5.2,2.461a3.826,3.826,0,0,0,5.094-1.82l2.006-4.235A3.826,3.826,0,0,0,412.09,416.319Zm-30.345,6.545a12.737,12.737,0,1,1,16.964-6.059A12.751,12.751,0,0,1,381.745,422.864Z" transform="translate(54.256 78.272)" fill="#5f6677"/>
    <path id="Path_22" data-name="Path 22" d="M444.819,154.156H433.444a38.98,38.98,0,0,0-2.785-6.482l7.832-8.25a7.57,7.57,0,0,0-.279-10.7l-6.726-6.384a7.57,7.57,0,0,0-10.7.279l-7.83,8.25a39.108,39.108,0,0,0-4.654-1.856V117.637a7.57,7.57,0,0,0-7.57-7.57h-9.272a7.57,7.57,0,0,0-7.57,7.57v11.375a39.03,39.03,0,0,0-4.653,1.856l-7.831-8.25a7.57,7.57,0,0,0-10.7-.279l-6.726,6.384a7.57,7.57,0,0,0-.279,10.7l7.831,8.25a39.142,39.142,0,0,0-2.785,6.482H347.37a7.569,7.569,0,0,0-7.569,7.57V171a7.57,7.57,0,0,0,7.569,7.57h11.375a39.131,39.131,0,0,0,2.785,6.481L353.7,193.3a7.57,7.57,0,0,0,.279,10.7l6.726,6.383a7.57,7.57,0,0,0,10.7-.279l7.831-8.251a39.035,39.035,0,0,0,4.653,1.857v11.374a7.57,7.57,0,0,0,7.57,7.57h9.272a7.569,7.569,0,0,0,7.57-7.57V203.711a39.033,39.033,0,0,0,4.653-1.857l7.831,8.251a7.57,7.57,0,0,0,10.7.279L438.211,204a7.57,7.57,0,0,0,.279-10.7l-7.832-8.251a38.97,38.97,0,0,0,2.785-6.481h11.375a7.57,7.57,0,0,0,7.57-7.57v-9.272A7.57,7.57,0,0,0,444.819,154.156Zm-48.724,37.411A25.205,25.205,0,1,1,421.3,166.361,25.233,25.233,0,0,1,396.095,191.566Z" transform="translate(58.193 128.783)" fill="#5f6677"/>
    <circle id="Ellipse_2" data-name="Ellipse 2" cx="74.791" cy="74.791" r="74.791" transform="translate(80.253 322.224) rotate(-45)" fill="none" stroke="#71ebb4" stroke-linecap="round" stroke-linejoin="round" stroke-width="2" stroke-dasharray="6 6"/>
    <circle id="Ellipse_3" data-name="Ellipse 3" cx="87.761" cy="87.761" r="87.761" transform="translate(374.504 373.257)" fill="none" stroke="#71ebb4" stroke-linecap="round" stroke-linejoin="round" stroke-width="2" stroke-dasharray="6 6"/>
    <g id="Group_6" data-name="Group 6" transform="translate(199.711 264.983)">
      <path id="Path_15" data-name="Path 15" d="M369.784,144.1v202.79a12.663,12.663,0,0,1-12.671,12.656H135.2a12.663,12.663,0,0,1-12.671-12.656V144.1A12.666,12.666,0,0,1,135.2,131.424H357.113A12.666,12.666,0,0,1,369.784,144.1Z" transform="translate(-122.531 -131.424)" fill="#091b49"/>
      <path id="Path_16" data-name="Path 16" d="M122.531,149.719V351.79a7.915,7.915,0,0,0,7.915,7.915H361.884a7.9,7.9,0,0,0,7.9-7.9V149.719Z" transform="translate(-122.531 -131.587)" fill="#fdf5e9"/>
      <g id="Group_5" data-name="Group 5" transform="translate(12.925 7.332)">
        <g id="Group_4" data-name="Group 4">
          <g id="Group_3" data-name="Group 3" transform="translate(0 0.472)">
            <path id="Path_17" data-name="Path 17" d="M140.378,141.7a2.4,2.4,0,1,1-2.4-2.4A2.4,2.4,0,0,1,140.378,141.7Z" transform="translate(-135.572 -139.298)" fill="#fff"/>
            <path id="Path_18" data-name="Path 18" d="M155.47,141.7a2.4,2.4,0,1,1-2.4-2.4A2.4,2.4,0,0,1,155.47,141.7Z" transform="translate(-135.706 -139.298)" fill="#fff"/>
            <path id="Path_19" data-name="Path 19" d="M170.563,141.7a2.4,2.4,0,1,1-2.4-2.4A2.4,2.4,0,0,1,170.563,141.7Z" transform="translate(-135.841 -139.298)" fill="#fff"/>
            <path id="Path_20" data-name="Path 20" d="M185.654,141.7a2.4,2.4,0,1,1-2.4-2.4A2.4,2.4,0,0,1,185.654,141.7Z" transform="translate(-135.975 -139.298)" fill="#fff"/>
          </g>
          <path id="Path_21" data-name="Path 21" d="M356.534,141.7l2.262-2.2a.413.413,0,0,0,.03-.546.333.333,0,0,0-.5-.033L356,141.18l-2.324-2.261a.333.333,0,0,0-.5.033.413.413,0,0,0,.03.546l2.262,2.2-2.262,2.2a.413.413,0,0,0-.03.546.334.334,0,0,0,.5.033L356,142.215l2.323,2.261a.334.334,0,0,0,.5-.033.413.413,0,0,0-.03-.546Z" transform="translate(-137.51 -138.822)" fill="#fff"/>
        </g>
      </g>
    </g>
    <rect id="Rectangle_4" data-name="Rectangle 4" width="92.621" height="88.672" rx="10.595" transform="translate(336.395 428.906)" fill="#eaeaea" style="mix-blend-mode: multiply;isolation: isolate"/>
    <g id="Group_62" data-name="Group 62" transform="translate(328.722 435.331)">
      <path id="Rectangle_18" data-name="Rectangle 18" d="M10.594,0H82.026A10.595,10.595,0,0,1,92.621,10.595V78.077A10.595,10.595,0,0,1,82.026,88.672H10.595A10.595,10.595,0,0,1,0,78.077V10.594A10.594,10.594,0,0,1,10.594,0Z" transform="translate(0 0)" fill="#5b7bdc"/>
      <g id="Group_61" data-name="Group 61" transform="translate(14.604 14.187)">
        <g id="Group_60" data-name="Group 60">
          <g id="Group_50" data-name="Group 50" transform="translate(18.405 29.287)">
            <rect id="Rectangle_19" data-name="Rectangle 19" width="6.228" height="21.047" fill="#fff"/>
          </g>
          <g id="Group_51" data-name="Group 51" transform="translate(47.656 12.261)">
            <rect id="Rectangle_20" data-name="Rectangle 20" width="6.228" height="38.073" fill="#fff"/>
          </g>
          <g id="Group_52" data-name="Group 52" transform="translate(28.184 35.564)">
            <rect id="Rectangle_21" data-name="Rectangle 21" width="6.228" height="14.769" fill="#fff"/>
          </g>
          <g id="Group_53" data-name="Group 53" transform="translate(56.799 17.857)">
            <rect id="Rectangle_22" data-name="Rectangle 22" width="6.228" height="32.476" fill="#fff"/>
          </g>
          <g id="Group_54" data-name="Group 54" transform="translate(10.287 35.564)">
            <rect id="Rectangle_23" data-name="Rectangle 23" width="5.29" height="14.769" fill="#fff"/>
          </g>
          <g id="Group_55" data-name="Group 55" transform="translate(37.709 19.592)">
            <rect id="Rectangle_24" data-name="Rectangle 24" width="6.228" height="30.742" fill="#fff"/>
          </g>
          <g id="Group_58" data-name="Group 58">
            <g id="Group_56" data-name="Group 56" transform="translate(4.476)">
              <path id="Path_45" data-name="Path 45" d="M119.389,402.917a.387.387,0,0,1-.387-.387V343a.387.387,0,0,1,.773,0V402.53A.387.387,0,0,1,119.389,402.917Z" transform="translate(-119.002 -342.618)" fill="#fff"/>
            </g>
            <g id="Group_57" data-name="Group 57" transform="translate(0 55.334)">
              <path id="Path_46" data-name="Path 46" d="M174.4,399.221H114.873a.386.386,0,1,1,0-.772H174.4a.386.386,0,1,1,0,.772Z" transform="translate(-114.486 -398.449)" fill="#fff"/>
            </g>
          </g>
          <g id="Group_59" data-name="Group 59" transform="translate(11.327 1.277)">
            <path id="Path_47" data-name="Path 47" d="M126.3,368.462a.387.387,0,0,1-.257-.676l9.807-8.713a.382.382,0,0,1,.5-.012l8.982,7.281,19.735-22.3a.391.391,0,0,1,.274-.131.4.4,0,0,1,.281.105l9.944,9.369a.386.386,0,1,1-.53.562l-9.653-9.1-19.715,22.283a.387.387,0,0,1-.534.045l-9.016-7.306-9.561,8.495A.384.384,0,0,1,126.3,368.462Z" transform="translate(-125.914 -343.907)" fill="#fff"/>
          </g>
        </g>
      </g>
    </g>
    <g id="Group_74" data-name="Group 74" transform="translate(291.793 509.257)">
      <g id="Group_71" data-name="Group 71" transform="translate(15.561 9.606)">
        <path id="Path_54" data-name="Path 54" d="M323.093,424.927H298.812a.67.67,0,0,1,0-1.341h24.281a.67.67,0,0,1,0,1.341Z" transform="translate(-298.142 -423.586)" fill="#6746dd"/>
      </g>
      <g id="Group_72" data-name="Group 72" transform="translate(19.887)">
        <path id="Path_55" data-name="Path 55" d="M338.845,415.234H303.177a.67.67,0,1,1,0-1.34h35.668a.67.67,0,0,1,0,1.34Z" transform="translate(-302.507 -413.894)" fill="#6746dd"/>
      </g>
      <g id="Group_73" data-name="Group 73" transform="translate(0)">
        <path id="Path_56" data-name="Path 56" d="M296.53,415.234H283.111a.67.67,0,1,1,0-1.34H296.53a.67.67,0,1,1,0,1.34Z" transform="translate(-282.441 -413.894)" fill="#6746dd"/>
      </g>
    </g>
    <g id="Group_70" data-name="Group 70" transform="translate(144.879 324.063)">
      <g id="Group_67" data-name="Group 67" transform="translate(26.808 0)">
        <path id="Path_51" data-name="Path 51" d="M113.147,192.376H94.925a.67.67,0,0,1,0-1.341h18.222a.67.67,0,0,1,0,1.341Z" transform="translate(-94.255 -191.035)" fill="#b19cfe"/>
      </g>
      <g id="Group_68" data-name="Group 68" transform="translate(0 0)">
        <path id="Path_52" data-name="Path 52" d="M85.6,192.376H67.877a.67.67,0,1,1,0-1.341H85.6a.67.67,0,0,1,0,1.341Z" transform="translate(-67.206 -191.035)" fill="#b19cfe"/>
      </g>
      <g id="Group_69" data-name="Group 69" transform="translate(17.298 7.776)">
        <path id="Path_53" data-name="Path 53" d="M115.8,200.222H85.329a.67.67,0,0,1,0-1.341H115.8a.67.67,0,0,1,0,1.341Z" transform="translate(-84.659 -198.881)" fill="#b19cfe"/>
      </g>
    </g>
    <path id="Rectangle_25" data-name="Rectangle 25" d="M10.595,0H70.362A10.595,10.595,0,0,1,80.956,10.595V66.91A10.595,10.595,0,0,1,70.362,77.5H10.594A10.594,10.594,0,0,1,0,66.91V10.595A10.595,10.595,0,0,1,10.595,0Z" transform="translate(348.059 252.255)" fill="#eaeaea" style="mix-blend-mode: multiply;isolation: isolate"/>
    <g id="Group_81" data-name="Group 81" transform="translate(342.795 247.421)">
      <rect id="Rectangle_26" data-name="Rectangle 26" width="80.956" height="77.505" rx="10.595" transform="translate(0 0)" fill="#5b7bdc"/>
      <g id="Group_80" data-name="Group 80" transform="translate(13.847 12.628)">
        <path id="Path_59" data-name="Path 59" d="M302.8,169.958a25.767,25.767,0,1,1-12.634-42.146l-8.844,26.133,27.993.37A27.077,27.077,0,0,1,302.8,169.958Z" transform="translate(-257.873 -126.451)" fill="#fff"/>
        <path id="Path_60" data-name="Path 60" d="M286.58,151.243l26.159.168a26.532,26.532,0,0,0-8.666-19.622,26.078,26.078,0,0,0-9.148-5.344Z" transform="translate(-258.129 -126.446)" fill="#71ebb4"/>
      </g>
    </g>
    <rect id="Rectangle_5" data-name="Rectangle 5" width="87.686" height="83.948" rx="10.595" transform="translate(165.353 308.127)" fill="#eaeaea" style="mix-blend-mode: multiply;isolation: isolate"/>
    <g id="Group_38" data-name="Group 38" transform="translate(161.561 304.856)">
      <path id="Rectangle_12" data-name="Rectangle 12" d="M10.594,0H74.7A10.595,10.595,0,0,1,85.292,10.595V71.06A10.595,10.595,0,0,1,74.7,81.655h-64.1A10.595,10.595,0,0,1,0,71.06V10.594A10.594,10.594,0,0,1,10.594,0Z" transform="translate(0)" fill="#6746dd"/>
      <g id="Group_37" data-name="Group 37" transform="translate(8.812 6.637)">
        <rect id="Rectangle_13" data-name="Rectangle 13" width="32.772" height="5.822" fill="#fff"/>
        <g id="Group_36" data-name="Group 36" transform="translate(46.756)">
          <rect id="Rectangle_14" data-name="Rectangle 14" width="5.68" height="5.822" fill="#71ebb4"/>
          <rect id="Rectangle_15" data-name="Rectangle 15" width="5.68" height="5.822" transform="translate(7.615)" fill="#71ebb4"/>
          <rect id="Rectangle_16" data-name="Rectangle 16" width="5.68" height="5.822" transform="translate(15.23)" fill="#71ebb4"/>
        </g>
      </g>
    </g>
    <path id="Path_70" data-name="Path 70" d="M.479-10.356l19.978-7.827v3.076L4.119-8.938,20.457-2.751V.325L.479-7.52ZM30.153-25.1h2.6L24.787,0h-2.6ZM54.12-7.485,34.142.325V-2.751L50.463-8.938,34.142-15.107v-3.076L54.12-10.356Z" transform="translate(172.296 361.615) rotate(0.052)" fill="#fff"/>
  </g>
</svg>
