<svg xmlns="http://www.w3.org/2000/svg" width="56.817" height="64.38" viewBox="0 0 56.817 64.38">
  <g id="shopify-icon" transform="translate(0 -0.005)">
    <path id="Path_12" data-name="Path 12" d="M49.764,12.4a.628.628,0,0,0-.566-.524c-.236-.021-4.815-.089-4.815-.089s-3.835-3.72-4.213-4.1a1.572,1.572,0,0,0-1.4-.178c-.005,0-.718.225-1.928.6a13.124,13.124,0,0,0-.922-2.263c-1.362-2.6-3.364-3.982-5.779-3.987h-.01c-.168,0-.335.016-.5.031-.073-.084-.141-.168-.22-.251A5.06,5.06,0,0,0,25.385.007C22.268.1,19.161,2.349,16.641,6.352a25.123,25.123,0,0,0-3.505,9.09c-3.579,1.111-6.083,1.886-6.141,1.9-1.808.566-1.865.623-2.1,2.326C4.731,20.955,0,57.531,0,57.531l39.636,6.853,17.18-4.27S49.806,12.724,49.764,12.4ZM34.853,8.715c-.912.283-1.949.6-3.076.954a16.906,16.906,0,0,0-.948-5.674c2.368.445,3.531,3.123,4.024,4.721Zm-5.15,1.6c-2.075.644-4.344,1.347-6.617,2.049a15.717,15.717,0,0,1,3.343-6.486,6.653,6.653,0,0,1,2.248-1.635A14.838,14.838,0,0,1,29.7,10.313ZM25.453,2.082a3.192,3.192,0,0,1,1.876.493,8.994,8.994,0,0,0-2.421,1.881,18.143,18.143,0,0,0-4.1,8.608c-1.886.582-3.736,1.158-5.433,1.682C16.441,9.737,20.643,2.218,25.453,2.082Z" transform="translate(0 0)" fill="#95bf47" fill-rule="evenodd"/>
    <path id="Path_13" data-name="Path 13" d="M85.212,18.628c-.236-.021-4.815-.089-4.815-.089s-3.835-3.72-4.213-4.1a.938.938,0,0,0-.534-.246V71.132l17.175-4.27s-7.01-47.386-7.052-47.71a.614.614,0,0,0-.561-.524Z" transform="translate(-36.014 -6.753)" fill="#5e8e3e" fill-rule="evenodd"/>
    <path id="Path_14" data-name="Path 14" d="M39.709,38.9l-2,7.466a11.382,11.382,0,0,0-4.862-.849c-3.867.246-3.909,2.683-3.872,3.3.21,3.338,8.991,4.066,9.489,11.888.388,6.151-3.264,10.358-8.525,10.694a12.783,12.783,0,0,1-9.793-3.327l1.336-5.69s3.5,2.641,6.3,2.463A2.472,2.472,0,0,0,30.2,62.187c-.272-4.354-7.43-4.1-7.88-11.254-.382-6.02,3.573-12.124,12.3-12.674a10.726,10.726,0,0,1,5.088.644Z" transform="translate(-9.592 -18.195)" fill="#fff" fill-rule="evenodd"/>
  </g>
</svg>
