<svg id="Group_499" data-name="Group 499" xmlns="http://www.w3.org/2000/svg" xmlns:xlink="http://www.w3.org/1999/xlink" width="42.343" height="40" viewBox="0 0 42.343 40">
  <defs>
    <clipPath id="clip-path">
      <rect id="Rectangle_2079" data-name="Rectangle 2079" width="42.343" height="40" fill="none"/>
    </clipPath>
  </defs>
  <g id="Group_498" data-name="Group 498" clip-path="url(#clip-path)">
    <path id="Path_1126" data-name="Path 1126" d="M42.376,4.083c-.048.14-.1.278-.143.419a3.5,3.5,0,0,1-4.927,2.184.573.573,0,0,0-.637.018q-2.884,1.735-5.786,3.442a.491.491,0,0,0-.274.487,3.525,3.525,0,0,1-6.876,1.055.9.9,0,0,0-.393-.466c-1.768-.9-3.549-1.765-5.32-2.653a.4.4,0,0,0-.507.063,3.374,3.374,0,0,1-3.574.476.48.48,0,0,0-.551.064q-3.123,2.346-6.261,4.67a.435.435,0,0,0-.171.55,3.359,3.359,0,0,1-1.211,3.658,3.313,3.313,0,0,1-3.8.364,3.353,3.353,0,0,1-1.9-3.356,3.493,3.493,0,0,1,4.9-2.981.642.642,0,0,0,.764-.1q3-2.262,6.028-4.5a.461.461,0,0,0,.217-.6,3.518,3.518,0,1,1,6.8-1.775,9.446,9.446,0,0,1,.081.983.927.927,0,0,0,.141.333c.023.04.094.053.143.077L23.99,8.907a3.537,3.537,0,0,1,5.657-.756L35.5,4.668A3.456,3.456,0,0,1,36.632.8a3.518,3.518,0,0,1,5.647,1.9c.026.1.065.2.1.307Z" transform="translate(-0.033 0)" fill="#1eefb0"/>
    <path id="Path_1127" data-name="Path 1127" d="M185.326,96.281a1.506,1.506,0,0,1-1.577.85c-1.363-.043-2.728-.011-4.092-.013-.952,0-1.38-.429-1.38-1.391q0-11.553,0-23.107a1.2,1.2,0,0,1,1.366-1.375c1.378-.006,2.756.018,4.133-.01a1.449,1.449,0,0,1,1.55.9Z" transform="translate(-142.982 -57.133)" fill="#7d0eff"/>
    <path id="Path_1128" data-name="Path 1128" d="M59.374,94.99q0-5.126,0-10.252c0-1.1.4-1.5,1.486-1.5q2.088,0,4.175,0c.976,0,1.4.427,1.4,1.416q.005,4.051,0,8.1,0,6.263,0,12.526a1.265,1.265,0,0,1-.351,1.1,1.57,1.57,0,0,1-.846.346c-1.556.033-3.114.023-4.671.012a1.165,1.165,0,0,1-1.2-1.289c-.009-1.185,0-2.37,0-3.555v-6.9" transform="translate(-47.618 -66.756)" fill="#7d0eff"/>
    <path id="Path_1129" data-name="Path 1129" d="M125.872,116.391q0,3.966,0,7.933c0,1.057-.415,1.467-1.479,1.468q-2.107,0-4.214,0c-.911,0-1.369-.428-1.37-1.324q-.009-8.077,0-16.155a1.18,1.18,0,0,1,1.33-1.323q2.169-.009,4.338,0c.967,0,1.395.441,1.4,1.428q0,3.987,0,7.974" transform="translate(-95.284 -85.806)" fill="#7d0eff"/>
    <path id="Path_1130" data-name="Path 1130" d="M7.051,137.772q0,2.81,0,5.62c0,1.012-.414,1.42-1.432,1.421-1.433,0-2.865,0-4.3,0A1.186,1.186,0,0,1,0,143.48q0-5.724,0-11.447a1.179,1.179,0,0,1,1.293-1.32q2.231-.02,4.463,0a1.167,1.167,0,0,1,1.291,1.315c.006,1.915,0,3.83,0,5.744" transform="translate(0 -104.827)" fill="#7d0eff"/>
  </g>
</svg>
