<svg width="20" height="20" viewBox="0 0 20 20" fill="none" xmlns="http://www.w3.org/2000/svg">
<path d="M10 0C4.47005 0 0 4.47005 0 10C0 15.53 4.47005 20 10 20C15.53 20 20 15.53 20 10C20 4.47005 15.53 0 10 0ZM14.8387 7.92627L8.91705 13.8249C8.73272 14.0092 8.5023 14.1014 8.27189 14.1014C8.04147 14.1014 7.78802 14.0092 7.62673 13.8249L4.70046 10.9217C4.3318 10.553 4.3318 9.97696 4.70046 9.60829C5.06912 9.23963 5.64516 9.23963 6.01382 9.60829L8.27189 11.8664L13.5253 6.6129C13.894 6.24424 14.47 6.24424 14.8387 6.6129C15.1843 6.98157 15.1843 7.58065 14.8387 7.92627Z" fill="#4E5FF9"/>
</svg>
