<svg width="34" height="32" viewBox="0 0 34 32" fill="none" xmlns="http://www.w3.org/2000/svg">
<path d="M20.7239 31.2382C22.7049 31.0859 23.3144 30.3239 23.3144 28.6478C23.3144 25.7525 23.3144 18.1334 23.3144 15.2382C23.3144 12.9524 23.3144 6.70479 23.3144 2.89525C23.3144 1.21905 21.943 0 20.2668 0C15.6953 0 7.31432 0 2.89525 0C1.37143 0 0.152382 1.21905 0.152382 2.74287V4.57145C0.152382 4.57145 0 21.0287 0 28.6478C0 30.0192 1.06667 31.2382 2.59049 31.2382H20.7239Z" fill="url(#paint0_linear)"/>
<path d="M5.63806 6.09521H18.2857" stroke="white" stroke-width="1.5" stroke-miterlimit="10" stroke-linecap="round" stroke-linejoin="round"/>
<path d="M5.63818 12.0381H15.6954" stroke="white" stroke-width="1.5" stroke-miterlimit="10" stroke-linecap="round" stroke-linejoin="round"/>
<path d="M9.75225 20.8767C8.68558 20.8767 7.61891 20.8767 6.55224 20.8767C6.39986 20.8767 6.39986 20.8767 6.24747 20.8767C5.94271 20.8767 5.79033 20.7244 5.79033 20.4196C5.79033 20.1148 5.94271 19.9624 6.24747 19.9624C6.55224 19.9624 6.70462 19.9624 7.00938 19.9624C7.92367 19.9624 8.83796 19.9624 9.90463 19.9624C9.90463 19.8101 9.90463 19.6577 9.75225 19.6577C9.44749 19.0482 8.83796 18.7434 8.07605 18.591C7.46653 18.591 6.857 18.591 6.39986 18.591C6.24747 18.591 6.09509 18.4386 5.94271 18.4386C5.79033 18.1339 5.94271 17.8291 6.39986 17.8291C6.857 17.8291 7.31415 17.8291 7.77129 17.8291C8.99034 17.8291 10.2094 17.8291 11.2761 17.8291C11.4285 17.8291 11.4285 17.8291 11.5808 17.8291C11.8856 17.8291 12.038 17.9815 12.038 18.2862C12.038 18.591 11.8856 18.7434 11.5808 18.7434C11.2761 18.7434 10.9713 18.7434 10.5142 18.7434C10.3618 18.7434 10.3618 18.7434 10.2094 18.7434C10.3618 19.0482 10.5142 19.5053 10.6665 19.9624C10.8189 19.9624 11.1237 19.9624 11.2761 19.9624C11.5808 19.9624 11.7332 20.1148 11.7332 20.4196C11.7332 20.7244 11.5808 20.8767 11.2761 20.8767C10.9713 20.8767 10.8189 20.8767 10.5142 20.8767C10.057 22.5529 8.83796 23.3148 7.16176 23.1625C7.46653 23.1625 7.46653 23.3148 7.46653 23.3148C8.38082 24.2291 9.29511 25.1434 10.2094 26.0577L10.3618 26.2101C10.5142 26.3625 10.5142 26.6672 10.3618 26.8196C10.2094 26.972 10.057 26.972 9.75225 26.8196L9.59987 26.6672C8.38082 25.4482 7.16176 24.2291 5.79033 23.0101C5.63795 22.8577 5.48557 22.7053 5.63795 22.4006C5.79033 22.0958 6.09509 22.0958 6.39986 22.0958C7.00938 22.0958 7.46653 22.0958 8.07605 22.0958C8.83796 22.0958 9.59987 21.6386 9.75225 20.8767Z" fill="white"/>
<path d="M24.381 32C29.2622 32 33.2191 28.043 33.2191 23.1619C33.2191 18.2807 29.2622 14.3237 24.381 14.3237C19.4998 14.3237 15.5428 18.2807 15.5428 23.1619C15.5428 28.043 19.4998 32 24.381 32Z" fill="#33EDB0"/>
<path d="M22.7048 27.1232C22.2477 26.2089 21.6381 25.2946 21.3334 24.3803C21.0286 23.466 21.3334 22.5518 21.7905 21.9422C22.8572 20.4184 24.8381 20.1136 26.2096 21.1803C27.581 22.247 28.0382 24.228 26.9715 25.5994C26.6667 26.0565 26.362 26.5137 26.0572 26.9708C25.9048 27.1232 25.7524 27.2756 25.6001 27.2756C25.7524 27.1232 23.3143 27.1232 22.7048 27.1232Z" fill="white"/>
<path d="M22.7048 27.5811C23.9239 27.5811 24.9906 27.5811 26.2096 27.5811C26.2096 27.8858 26.2096 28.0382 26.2096 28.343C26.2096 28.4953 26.2096 28.6477 26.0572 28.6477C25.4477 28.6477 25.4477 29.2573 25.1429 29.4096C24.6858 29.7144 24.2287 29.7144 23.7715 29.4096C23.4667 29.1049 23.4667 28.6477 22.8572 28.6477C22.7048 28.6477 22.7048 27.8858 22.7048 27.5811Z" fill="white"/>
<path d="M27.2762 20.5714C27.2762 20.419 27.2762 19.9619 27.4286 19.8095C27.7334 19.5047 28.0382 19.0476 28.3429 18.8952C28.4953 18.7428 28.8001 18.5904 29.1048 18.8952C29.4096 19.0476 29.4096 19.5047 29.4096 19.6571C28.9524 20.2666 28.6477 20.7238 28.0382 21.0285C27.7334 21.0285 27.4286 20.7238 27.2762 20.5714Z" fill="white"/>
<path d="M24.9905 18.7427C24.9905 19.3522 24.5334 19.3522 24.381 19.3522C23.9238 19.3522 23.7715 19.0474 23.7715 18.7427C23.6191 18.2855 23.7715 17.8284 23.7715 17.3712C23.7715 16.9141 24.0762 16.7617 24.5334 16.7617C24.9905 16.7617 25.1429 17.0665 25.1429 17.3712C25.1429 17.5236 25.1429 17.8284 25.1429 17.9808C25.1429 18.1332 25.1429 18.5903 24.9905 18.7427Z" fill="white"/>
<path d="M21.6382 20.1143C21.6382 20.7238 21.0287 21.0286 20.7239 20.7238C20.2668 20.419 19.962 19.9619 19.5049 19.5048C19.3525 19.3524 19.5049 18.8952 19.6573 18.7428C19.8097 18.5905 20.2668 18.4381 20.2668 18.5905C20.7239 19.0476 21.1811 19.5048 21.6382 19.9619V20.1143Z" fill="white"/>
<defs>
<linearGradient id="paint0_linear" x1="-37.31" y1="-281.769" x2="47.9111" y2="236.863" gradientUnits="userSpaceOnUse">
<stop stop-color="#FFF4E8"/>
<stop offset="0.6046" stop-color="#7D94E5"/>
<stop offset="0.9986" stop-color="#3F28DC"/>
</linearGradient>
</defs>
</svg>
