<svg width="40" height="36" viewBox="0 0 40 36" fill="none" xmlns="http://www.w3.org/2000/svg">
<path d="M35.6315 35.4502L6.33058 31.8328C5.24536 31.6519 4.52188 30.7476 4.70275 29.8432L7.05406 10.4901C7.23493 9.58578 8.13928 8.8623 9.04363 8.8623L38.3445 12.4797C39.4298 12.6606 40.1532 13.5649 39.9724 14.4693L37.6211 33.8223C37.6211 34.9076 36.7167 35.631 35.6315 35.4502Z" fill="url(#paint0_linear)"/>
<mask id="mask0" mask-type="alpha" maskUnits="userSpaceOnUse" x="4" y="8" width="36" height="28">
<path d="M35.6315 35.4502L6.33058 31.8328C5.24536 31.6519 4.52188 30.7476 4.70275 29.8432L7.05406 10.4901C7.23493 9.58578 8.13928 8.8623 9.04363 8.8623L38.3445 12.4797C39.4298 12.6606 40.1532 13.5649 39.9724 14.4693L37.6211 33.8223C37.6211 34.9076 36.7167 35.631 35.6315 35.4502Z" fill="url(#paint1_linear)"/>
</mask>
<g mask="url(#mask0)">
<path d="M6.33057 15.1929L40.6958 19.3529" stroke="white" stroke-width="0.8613" stroke-miterlimit="10" stroke-linecap="round" stroke-linejoin="round"/>
</g>
<path d="M9.04349 18.087C14.0381 18.087 18.087 14.0381 18.087 9.04349C18.087 4.04891 14.0381 0 9.04349 0C4.04891 0 0 4.04891 0 9.04349C0 14.0381 4.04891 18.087 9.04349 18.087Z" fill="#33EEB1"/>
<path d="M12.2994 7.05371L8.68204 10.852C8.50117 11.0328 8.3203 11.0328 8.13943 10.852L5.96899 8.86241" stroke="white" stroke-miterlimit="10" stroke-linecap="round" stroke-linejoin="round"/>
<defs>
<linearGradient id="paint0_linear" x1="15.9284" y1="-9.79551" x2="28.6881" y2="53.628" gradientUnits="userSpaceOnUse">
<stop stop-color="#FFF5E9"/>
<stop offset="0.6046" stop-color="#7D95E6"/>
<stop offset="0.9986" stop-color="#3F28DD"/>
</linearGradient>
<linearGradient id="paint1_linear" x1="15.9284" y1="-9.79551" x2="28.6881" y2="53.628" gradientUnits="userSpaceOnUse">
<stop stop-color="#FFF5E9"/>
<stop offset="0.6046" stop-color="#7D95E6"/>
<stop offset="0.9986" stop-color="#3F28DD"/>
</linearGradient>
</defs>
</svg>
