<svg width="15" height="25" viewBox="0 0 15 25" fill="none" xmlns="http://www.w3.org/2000/svg">
<path d="M14.9999 7.74788V5.88344C15.0008 5.85446 14.9959 5.82561 14.9856 5.79869C14.9753 5.77178 14.9598 5.74738 14.94 5.72703C14.9203 5.70668 14.8967 5.69081 14.8708 5.68044C14.8449 5.67006 14.8172 5.66539 14.7895 5.66672H11.5121L11.4573 5.37032C11.2999 4.46921 10.9394 3.62029 10.4054 2.89396L9.96033 2.29798H14.756C14.7836 2.29935 14.8111 2.29467 14.8369 2.28426C14.8626 2.27386 14.886 2.25794 14.9055 2.23754C14.925 2.21713 14.9402 2.19269 14.9502 2.16578C14.9602 2.13887 14.9646 2.11008 14.9633 2.08126V0.216821C14.9642 0.188121 14.9594 0.159545 14.9493 0.132851C14.9391 0.106158 14.9239 0.0819125 14.9045 0.0616092C14.8851 0.0413059 14.8619 0.0253744 14.8363 0.0147959C14.8108 0.00421739 14.7835 -0.000784047 14.756 9.96514e-05H0.20741C0.179956 -0.000784047 0.15262 0.00421739 0.127085 0.0147959C0.10155 0.0253744 0.0783571 0.0413059 0.0589351 0.0616092C0.039513 0.0819125 0.024273 0.106158 0.0141537 0.132851C0.00403433 0.159545 -0.000750015 0.188121 9.53261e-05 0.216821V2.64856C0.000859233 2.70609 0.0228532 2.76108 0.0614842 2.80206C0.100115 2.84304 0.152396 2.86683 0.20741 2.86847H2.74396C5.33234 2.86847 7.0122 3.63337 7.7439 5.13767L7.99999 5.66991H0.20741C0.179956 5.66902 0.15262 5.67403 0.127085 5.6846C0.10155 5.69518 0.0783571 5.71111 0.0589351 5.73142C0.039513 5.75172 0.024273 5.77597 0.0141537 5.80266C0.00403433 5.82935 -0.000750015 5.85793 9.53261e-05 5.88663V7.75107C-0.000750015 7.77977 0.00403433 7.80834 0.0141537 7.83504C0.024273 7.86173 0.039513 7.88598 0.0589351 7.90628C0.0783571 7.92658 0.10155 7.94251 0.127085 7.95309C0.15262 7.96367 0.179956 7.96867 0.20741 7.96779H8.13414L8.01828 8.42673C7.46951 10.5844 5.39332 11.77 2.1708 11.77H0.20741C0.152396 11.7716 0.100115 11.7954 0.0614842 11.8364C0.0228532 11.8774 0.000859233 11.9324 9.53261e-05 11.9899V14.3101C-0.000561804 14.3361 0.00397768 14.3621 0.0134252 14.3862C0.0228728 14.4104 0.0370217 14.4322 0.0549727 14.4503C3.43603 18.2111 6.15245 21.618 8.78352 24.9135C8.80194 24.9418 8.82708 24.9646 8.85648 24.9797C8.88587 24.9947 8.91851 25.0016 8.9512 24.9995H12.3597C12.3986 25.0023 12.4373 24.9929 12.471 24.9724C12.5047 24.952 12.5318 24.9215 12.5487 24.8848C12.5698 24.8518 12.5811 24.813 12.5811 24.7732C12.5811 24.7335 12.5698 24.6947 12.5487 24.6617C10.0609 21.4969 7.21342 17.8828 4.51528 14.871L4.03968 14.3419L4.73174 14.2559C8.53657 13.7842 10.9939 11.6042 11.506 8.2865L11.5548 7.96779H14.7895C14.8174 7.96867 14.8451 7.96359 14.871 7.95285C14.8969 7.94211 14.9205 7.92594 14.9402 7.90534C14.9599 7.88475 14.9753 7.86015 14.9856 7.83307C14.9959 7.80599 15.0007 7.777 14.9999 7.74788Z" fill="#4E5FF9"/>
</svg>
