<svg width="59" height="24" viewBox="0 0 59 24" fill="none" xmlns="http://www.w3.org/2000/svg">
<rect width="59" height="24" rx="4" fill="#7D0EFF" fill-opacity="0.1"/>
<path d="M11.624 16.144C11.008 16.144 10.468 16.036 10.004 15.82C9.54 15.604 9.176 15.296 8.912 14.896C8.656 14.496 8.524 14.02 8.516 13.468H9.86C9.868 13.916 10.024 14.296 10.328 14.608C10.632 14.92 11.06 15.076 11.612 15.076C12.1 15.076 12.48 14.96 12.752 14.728C13.032 14.488 13.172 14.184 13.172 13.816C13.172 13.52 13.104 13.28 12.968 13.096C12.84 12.912 12.66 12.76 12.428 12.64C12.204 12.52 11.944 12.412 11.648 12.316C11.352 12.22 11.04 12.116 10.712 12.004C10.064 11.788 9.576 11.508 9.248 11.164C8.928 10.82 8.768 10.368 8.768 9.808C8.76 9.336 8.868 8.924 9.092 8.572C9.324 8.22 9.644 7.948 10.052 7.756C10.468 7.556 10.952 7.456 11.504 7.456C12.048 7.456 12.524 7.556 12.932 7.756C13.348 7.956 13.672 8.236 13.904 8.596C14.136 8.948 14.256 9.36 14.264 9.832H12.92C12.92 9.616 12.864 9.412 12.752 9.22C12.64 9.02 12.476 8.856 12.26 8.728C12.044 8.6 11.78 8.536 11.468 8.536C11.068 8.528 10.736 8.628 10.472 8.836C10.216 9.044 10.088 9.332 10.088 9.7C10.088 10.028 10.184 10.28 10.376 10.456C10.568 10.632 10.832 10.78 11.168 10.9C11.504 11.012 11.888 11.144 12.32 11.296C12.736 11.432 13.108 11.596 13.436 11.788C13.764 11.98 14.024 12.232 14.216 12.544C14.416 12.856 14.516 13.252 14.516 13.732C14.516 14.156 14.408 14.552 14.192 14.92C13.976 15.28 13.652 15.576 13.22 15.808C12.788 16.032 12.256 16.144 11.624 16.144ZM18.3547 16C17.7707 16 17.3067 15.86 16.9627 15.58C16.6187 15.292 16.4467 14.784 16.4467 14.056V11.116H15.4267V10.048H16.4467L16.6027 8.536H17.7187V10.048H19.3987V11.116H17.7187V14.056C17.7187 14.384 17.7867 14.612 17.9227 14.74C18.0667 14.86 18.3107 14.92 18.6547 14.92H19.3387V16H18.3547ZM23.3419 16.144C22.7579 16.144 22.2379 16.016 21.7819 15.76C21.3339 15.496 20.9819 15.132 20.7259 14.668C20.4699 14.204 20.3419 13.664 20.3419 13.048C20.3419 12.424 20.4659 11.876 20.7139 11.404C20.9699 10.932 21.3219 10.564 21.7699 10.3C22.2259 10.036 22.7539 9.904 23.3539 9.904C23.9379 9.904 24.4459 10.036 24.8779 10.3C25.3099 10.556 25.6459 10.9 25.8859 11.332C26.1259 11.764 26.2459 12.24 26.2459 12.76C26.2459 12.84 26.2419 12.928 26.2339 13.024C26.2339 13.112 26.2299 13.212 26.2219 13.324H21.5899C21.6299 13.9 21.8179 14.34 22.1539 14.644C22.4979 14.94 22.8939 15.088 23.3419 15.088C23.7019 15.088 24.0019 15.008 24.2419 14.848C24.4899 14.68 24.6739 14.456 24.7939 14.176H26.0659C25.9059 14.736 25.5859 15.204 25.1059 15.58C24.6339 15.956 24.0459 16.144 23.3419 16.144ZM23.3419 10.948C22.9179 10.948 22.5419 11.076 22.2139 11.332C21.8859 11.58 21.6859 11.956 21.6139 12.46H24.9739C24.9499 11.996 24.7859 11.628 24.4819 11.356C24.1779 11.084 23.7979 10.948 23.3419 10.948ZM27.5657 18.64V10.048H28.7057L28.8377 10.972C29.0297 10.692 29.2937 10.444 29.6297 10.228C29.9657 10.012 30.3977 9.904 30.9257 9.904C31.5017 9.904 32.0097 10.04 32.4497 10.312C32.8897 10.584 33.2337 10.956 33.4817 11.428C33.7377 11.9 33.8657 12.436 33.8657 13.036C33.8657 13.636 33.7377 14.172 33.4817 14.644C33.2337 15.108 32.8897 15.476 32.4497 15.748C32.0097 16.012 31.4977 16.144 30.9137 16.144C30.4497 16.144 30.0377 16.052 29.6777 15.868C29.3257 15.684 29.0457 15.424 28.8377 15.088V18.64H27.5657ZM30.6977 15.04C31.2417 15.04 31.6897 14.856 32.0417 14.488C32.3937 14.112 32.5697 13.624 32.5697 13.024C32.5697 12.632 32.4897 12.284 32.3297 11.98C32.1697 11.676 31.9497 11.44 31.6697 11.272C31.3897 11.096 31.0657 11.008 30.6977 11.008C30.1537 11.008 29.7057 11.196 29.3537 11.572C29.0097 11.948 28.8377 12.432 28.8377 13.024C28.8377 13.624 29.0097 14.112 29.3537 14.488C29.7057 14.856 30.1537 15.04 30.6977 15.04ZM37.6175 16.144C36.8655 16.144 36.2455 15.96 35.7575 15.592C35.2695 15.224 34.9895 14.736 34.9175 14.128H36.2015C36.2655 14.4 36.4175 14.636 36.6575 14.836C36.8975 15.028 37.2135 15.124 37.6055 15.124C37.9895 15.124 38.2695 15.044 38.4455 14.884C38.6215 14.724 38.7095 14.54 38.7095 14.332C38.7095 14.028 38.5855 13.824 38.3375 13.72C38.0975 13.608 37.7615 13.508 37.3295 13.42C36.9935 13.348 36.6575 13.252 36.3215 13.132C35.9935 13.012 35.7175 12.844 35.4935 12.628C35.2775 12.404 35.1695 12.104 35.1695 11.728C35.1695 11.208 35.3695 10.776 35.7695 10.432C36.1695 10.08 36.7295 9.904 37.4495 9.904C38.1135 9.904 38.6495 10.064 39.0575 10.384C39.4735 10.704 39.7175 11.156 39.7895 11.74H38.5655C38.5255 11.484 38.4055 11.284 38.2055 11.14C38.0135 10.996 37.7535 10.924 37.4255 10.924C37.1055 10.924 36.8575 10.992 36.6815 11.128C36.5055 11.256 36.4175 11.424 36.4175 11.632C36.4175 11.84 36.5375 12.004 36.7775 12.124C37.0255 12.244 37.3495 12.352 37.7495 12.448C38.1495 12.536 38.5175 12.64 38.8535 12.76C39.1975 12.872 39.4735 13.04 39.6815 13.264C39.8895 13.488 39.9935 13.816 39.9935 14.248C40.0015 14.792 39.7895 15.244 39.3575 15.604C38.9335 15.964 38.3535 16.144 37.6175 16.144ZM44.2856 16V15.088C44.8296 14.656 45.3496 14.22 45.8456 13.78C46.3416 13.34 46.7816 12.908 47.1656 12.484C47.5576 12.052 47.8656 11.632 48.0896 11.224C48.3136 10.808 48.4256 10.408 48.4256 10.024C48.4256 9.768 48.3816 9.528 48.2936 9.304C48.2056 9.072 48.0616 8.888 47.8616 8.752C47.6616 8.608 47.3936 8.536 47.0576 8.536C46.5536 8.536 46.1736 8.696 45.9176 9.016C45.6696 9.336 45.5496 9.72 45.5576 10.168H44.3216C44.3296 9.576 44.4536 9.08 44.6936 8.68C44.9416 8.28 45.2696 7.976 45.6776 7.768C46.0936 7.56 46.5616 7.456 47.0816 7.456C47.8736 7.456 48.5056 7.68 48.9776 8.128C49.4576 8.568 49.6976 9.184 49.6976 9.976C49.6976 10.448 49.5816 10.916 49.3496 11.38C49.1256 11.844 48.8296 12.292 48.4616 12.724C48.1016 13.148 47.7136 13.548 47.2976 13.924C46.8816 14.3 46.4856 14.64 46.1096 14.944H49.9496V16H44.2856Z" fill="#7D0EFF"/>
</svg>
