<svg width="32" height="32" viewBox="0 0 32 32" fill="none" xmlns="http://www.w3.org/2000/svg">
<path d="M28.3435 19.711H2.73364C1.29488 19.711 0 18.56 0 16.9773V2.73364C0 1.29488 1.15101 0 2.73364 0H28.3435C29.7823 0 31.0771 1.15101 31.0771 2.73364V17.1212C31.0771 18.56 29.7823 19.711 28.3435 19.711Z" fill="url(#paint0_linear)"/>
<path d="M6.18643 13.5243C6.76193 12.9488 9.9272 10.2152 10.3588 9.63968C10.7905 9.20805 11.366 8.9203 11.7976 9.4958C12.3731 9.92743 12.0853 10.5029 11.6537 10.9346C10.9343 11.6539 7.62519 14.5315 6.90581 15.3947C6.33031 15.9702 5.89868 15.9702 5.32318 15.3947C5.03543 14.9631 4.0283 13.6682 3.59667 13.3804C3.16504 12.9488 3.16504 12.5172 3.59667 12.0856C4.0283 11.6539 4.45992 11.7978 4.89155 12.2294C5.1793 12.2294 5.89868 13.2366 6.18643 13.5243Z" fill="white"/>
<path d="M0 5.89893H31.0771" stroke="white" stroke-miterlimit="10"/>
<path d="M28.6308 20.862C28.6308 19.711 28.0552 18.7038 26.7604 18.56C26.4726 18.56 26.1849 18.56 25.8971 18.7038C25.7532 18.7038 25.3216 18.7038 25.1777 18.7038C24.89 17.5528 23.8829 17.4089 22.8757 17.8406C22.588 17.8406 22.1563 17.8406 22.1563 17.8406C21.2931 16.8334 20.7176 16.6896 19.135 16.8334C19.135 15.6824 19.135 14.0998 18.9911 12.9488C18.8472 11.2223 19.135 10.0713 17.1207 10.0713C16.6891 10.0713 16.2574 10.2152 15.8258 10.5029C14.9626 11.3662 15.1064 12.9488 15.1064 14.0998C15.1064 14.2437 14.9626 22.1568 14.9626 22.1568L14.8187 22.3007C14.5309 22.013 14.3871 21.7252 14.0993 21.4375C13.0922 20.5742 11.7973 20.4303 10.934 21.2936C9.92691 22.1568 9.92691 23.4517 10.7902 24.4589C12.2289 26.1854 13.6677 27.9119 15.1064 29.6384C16.1136 30.7894 17.4084 31.6526 18.8472 31.7965C20.286 31.9404 21.8686 32.0843 23.3073 31.9404C26.1849 31.6526 28.343 29.3506 28.6308 26.4731C28.7746 24.7466 28.7746 22.8762 28.6308 20.862Z" fill="#33EEB1"/>
<path d="M19.4224 16.9773V20.7181" stroke="white" stroke-width="0.5" stroke-miterlimit="10"/>
<path d="M22.5879 17.8406V21.7252" stroke="white" stroke-width="0.5" stroke-miterlimit="10"/>
<path d="M25.6094 18.8477L25.7533 22.3007" stroke="white" stroke-width="0.5" stroke-miterlimit="10"/>
<defs>
<linearGradient id="paint0_linear" x1="8.00726" y1="-7.79403" x2="25.5215" y2="33.356" gradientUnits="userSpaceOnUse">
<stop stop-color="#FFF5E9"/>
<stop offset="0.6046" stop-color="#7D95E6"/>
<stop offset="0.9986" stop-color="#3F28DD"/>
</linearGradient>
</defs>
</svg>
