<svg width="32" height="32" viewBox="0 0 32 32" fill="none" xmlns="http://www.w3.org/2000/svg">
<path d="M5.28438 0H20.5504C22.6054 0 24.2201 1.61467 24.2201 3.66971V23.9265C24.2201 25.9815 22.6054 27.5962 20.5504 27.5962H3.66971C1.61467 27.5962 0 25.9815 0 23.9265V4.84402L5.28438 0Z" fill="url(#paint0_linear)"/>
<path d="M4.55054 9.68823H18.3486" stroke="white" stroke-width="0.8613" stroke-miterlimit="10" stroke-linecap="round" stroke-linejoin="round"/>
<path d="M4.55054 15.7059H14.8257" stroke="white" stroke-width="0.8613" stroke-miterlimit="10" stroke-linecap="round" stroke-linejoin="round"/>
<path d="M4.55054 21.5775H12.0367" stroke="white" stroke-width="0.8613" stroke-miterlimit="10" stroke-linecap="round" stroke-linejoin="round"/>
<mask id="mask0" mask-type="alpha" maskUnits="userSpaceOnUse" x="0" y="0" width="25" height="28">
<path d="M5.28438 0H20.5504C22.6054 0 24.2201 1.61467 24.2201 3.66971V23.9265C24.2201 25.9815 22.6054 27.5962 20.5504 27.5962H3.66971C1.61467 27.5962 0 25.9815 0 23.9265V4.84402L5.28438 0Z" fill="url(#paint1_linear)"/>
</mask>
<g mask="url(#mask0)">
<path d="M5.43134 4.84375H-1.02734" stroke="white" stroke-width="0.8613" stroke-miterlimit="10" stroke-linecap="round" stroke-linejoin="round"/>
<path d="M5.43115 4.6971V-0.880859" stroke="white" stroke-width="0.8613" stroke-miterlimit="10" stroke-linecap="round" stroke-linejoin="round"/>
</g>
<path d="M24.8073 31.8529C23.9266 31.8529 23.0458 31.8529 22.3119 31.8529C22.1651 31.7061 22.0183 31.4125 22.0183 31.2657C21.8715 30.9722 21.8715 30.6786 21.8715 30.5318C21.8715 30.0914 21.7247 29.9446 21.2844 29.7978C20.844 29.6511 20.4036 29.3575 20.1101 29.3575C19.6697 29.3575 19.3761 29.9446 18.9358 30.2382C18.6422 30.5318 18.3486 30.385 18.2018 30.2382C17.9082 29.9446 17.4679 29.5043 17.1743 29.2107C16.4404 28.4768 16.2936 28.4768 17.0275 27.4492C17.4679 27.0089 17.3211 26.7153 17.1743 26.1281C16.8807 25.2474 16.4404 24.9538 15.5596 24.9538C15.266 24.9538 14.9725 24.807 14.8257 24.5135C14.8257 23.6327 14.8257 22.752 14.8257 22.0181C14.9725 21.8713 15.266 21.7245 15.4128 21.7245C15.7064 21.5777 16 21.5777 16.1468 21.5777C16.5871 21.5777 16.7339 21.4309 16.8807 20.9905C17.0275 20.5502 17.3211 20.1098 17.3211 19.8162C17.3211 19.3759 16.7339 19.0823 16.4404 18.6419C16.1468 18.3484 16.2936 18.0548 16.4404 17.908C16.7339 17.6144 17.1743 17.1741 17.4679 16.8805C18.2018 16.1465 18.2018 15.9997 19.0825 16.7337C19.5229 17.1741 19.8165 17.0273 20.4036 16.8805C21.2844 16.5869 21.5779 16.1465 21.5779 15.2658C21.5779 14.9722 21.7247 14.6786 22.0183 14.5319C22.899 14.5319 23.7798 14.5319 24.5137 14.5319C24.6605 14.6786 24.8073 14.9722 24.8073 15.119C24.9541 15.4126 24.9541 15.5594 24.9541 15.853C24.9541 16.2933 25.1009 16.5869 25.5412 16.5869C25.9816 16.7337 26.422 17.0273 26.7155 17.0273C27.1559 17.0273 27.4495 16.5869 27.7431 16.2933C28.0366 15.9997 28.3302 15.9997 28.6238 16.2933C29.0642 16.7337 29.5045 17.1741 29.9449 17.6144C30.532 18.2016 30.532 18.2016 30.0917 18.7887C29.9449 18.9355 29.9449 19.0823 29.7981 19.0823C29.3577 19.5227 29.5045 19.8162 29.6513 20.4034C29.9449 21.2841 30.3852 21.5777 31.266 21.5777C31.5596 21.5777 31.8531 21.7245 31.9999 22.0181C31.9999 22.8988 31.9999 23.7795 31.9999 24.5135C31.8531 24.6603 31.5596 24.807 31.4128 24.807C31.1192 24.9538 30.8256 24.9538 30.6788 24.9538C30.2385 24.9538 30.0917 25.1006 29.9449 25.541C29.7981 25.9814 29.5045 26.4217 29.5045 26.7153C29.5045 27.1557 30.0917 27.4492 30.3852 27.8896C30.6788 28.1832 30.532 28.4768 30.3852 28.6235C30.0917 28.9171 29.6513 29.3575 29.3577 29.6511C28.6238 30.385 28.6238 30.5318 27.5963 29.7978C27.1559 29.3575 26.8623 29.5043 26.2752 29.6511C25.3944 29.9446 25.1009 30.385 25.1009 31.2657C25.2477 31.2657 25.2477 31.5593 24.8073 31.8529ZM28.0366 23.0456C28.0366 20.697 25.9816 18.6419 23.633 18.6419C21.2844 18.6419 19.2293 20.697 19.2293 23.0456C19.2293 25.3942 21.2844 27.4492 23.633 27.4492C25.9816 27.4492 28.0366 25.3942 28.0366 23.0456Z" fill="#33EEB1"/>
<defs>
<linearGradient id="paint0_linear" x1="6.43256" y1="-10.7197" x2="17.9791" y2="39.2553" gradientUnits="userSpaceOnUse">
<stop stop-color="#FFF5E9"/>
<stop offset="0.6046" stop-color="#7D95E6"/>
<stop offset="0.9986" stop-color="#3F28DD"/>
</linearGradient>
<linearGradient id="paint1_linear" x1="6.43256" y1="-10.7197" x2="17.9791" y2="39.2553" gradientUnits="userSpaceOnUse">
<stop stop-color="#FFF5E9"/>
<stop offset="0.6046" stop-color="#7D95E6"/>
<stop offset="0.9986" stop-color="#3F28DD"/>
</linearGradient>
</defs>
</svg>
