<svg width="31" height="32" viewBox="0 0 31 32" fill="none" xmlns="http://www.w3.org/2000/svg">
<path d="M30.0687 2.89122C29.3459 2.16841 28.6231 1.30105 27.9003 0.433683C27.6112 0 27.0329 0 26.5992 0.433683C26.021 1.01193 25.4427 1.59017 24.8645 2.45754C24.2863 1.73473 23.708 1.15649 23.1298 0.433683C22.6961 -0.144561 22.2624 -0.144561 21.8287 0.433683C21.2505 1.01193 20.8168 1.73473 20.094 2.45754C19.3712 1.59017 18.9375 1.01193 18.3593 0.433683C17.9256 -0.144561 17.4919 -0.144561 17.0582 0.433683C16.48 1.01193 15.9017 1.59017 15.3235 2.45754C14.7452 1.73473 14.167 1.15649 13.5888 0.433683C13.2996 0 12.7214 0 12.2877 0.433683C11.5649 1.30105 10.8421 2.02385 10.1193 2.89122C9.68561 3.3249 9.39648 4.0477 9.39648 4.77051C9.39648 8.52909 9.39648 17.3473 9.39648 22.2624C9.39648 24.1417 10.6975 25.7318 12.4323 25.7318C14.4561 25.7318 17.3473 25.7318 20.094 25.7318C22.6961 25.7318 25.5873 25.7318 27.7557 25.7318C29.4904 25.7318 30.7915 24.1417 30.7915 22.2624C30.7915 17.3473 30.7915 8.52909 30.7915 4.77051C30.7915 4.0477 30.5024 3.3249 30.0687 2.89122Z" fill="url(#paint0_linear)"/>
<path d="M22.5517 16.48C20.817 16.48 19.2268 16.48 17.4921 16.48C17.4921 15.9018 17.4921 15.4681 17.4921 14.8898C17.4921 14.4561 17.3475 14.3116 17.0584 14.0225C15.1791 12.5769 14.7454 9.68563 16.1911 7.80634C17.3475 6.21617 19.2268 5.49337 21.1061 5.92705C22.8409 6.36073 24.431 7.9509 24.7201 9.83019C25.0093 11.5649 24.431 13.1551 22.9854 14.3116C22.6963 14.4561 22.5517 14.6007 22.5517 14.8898C22.5517 15.3235 22.5517 15.9018 22.5517 16.48Z" fill="white"/>
<path d="M21.6849 19.5157H18.36C18.0708 19.5157 17.9263 19.3712 17.9263 19.0821V17.6364C17.9263 17.3473 18.0708 17.2028 18.36 17.2028H21.6849C21.974 17.2028 22.1185 17.3473 22.1185 17.6364V19.0821C22.1185 19.3712 21.974 19.5157 21.6849 19.5157Z" fill="white"/>
<path d="M9.54102 13.0105C9.54102 15.3235 9.54102 17.4919 9.54102 19.8049C9.54102 21.8287 10.6975 22.5515 12.5768 21.8287C14.8898 20.9613 17.3473 19.9494 19.6603 19.0821C20.9613 18.5038 22.2624 18.9375 22.8406 20.094C23.4189 21.2505 22.9852 22.407 21.8287 23.1298C20.6722 23.8526 19.3712 24.7199 18.2147 25.5873C19.5157 25.5873 20.6722 25.5873 21.9733 25.5873C23.2743 25.5873 23.4189 25.7319 23.4189 27.0329C23.4189 27.6111 23.4189 28.334 23.4189 28.9122C23.4189 29.7796 23.1297 30.5024 22.2624 30.936C21.5396 31.3697 20.6722 31.2252 20.094 30.6469C19.9494 30.6469 19.9494 30.5024 19.8048 30.5024C18.5038 32.0925 17.2027 32.0925 16.0463 30.5024C14.3115 31.5143 13.4442 31.2252 12.4322 29.7796H12.2877C8.81821 32.0925 4.77051 32.0925 0.867365 31.948C0.289122 31.948 0 31.6589 0 31.0806C0 27.0329 0 23.1298 0 19.0821C0 18.7929 0.289122 18.3593 0.578244 18.0701C2.45754 16.6245 4.48139 15.1789 6.36068 13.7333C7.22804 13.1551 8.23997 13.0105 9.54102 13.0105Z" fill="#33EEB1"/>
<defs>
<linearGradient id="paint0_linear" x1="3.79012" y1="-10.5632" x2="31.5189" y2="30.6339" gradientUnits="userSpaceOnUse">
<stop stop-color="#FFF5E9"/>
<stop offset="0.6046" stop-color="#7D95E6"/>
<stop offset="0.9986" stop-color="#3F28DD"/>
</linearGradient>
</defs>
</svg>
