<svg width="32" height="31" viewBox="0 0 32 31" fill="none" xmlns="http://www.w3.org/2000/svg">
<path d="M17.3124 0H4.88666C4.18859 0 3.63013 0.558461 3.63013 1.25654V9.35422C3.63013 10.0523 4.18859 10.6108 4.88666 10.6108H6.28282L8.09781 12.5654L8.65627 10.6108H17.3124C18.0105 10.6108 18.569 10.0523 18.569 9.35422V1.25654C18.569 0.558461 18.0105 0 17.3124 0Z" fill="#33EEB1"/>
<path d="M13.6821 2.65253H26.1078C26.8059 2.65253 27.3644 3.21099 27.3644 3.90906V12.0067C27.3644 12.7048 26.8059 13.2633 26.1078 13.2633H24.7117L22.8967 15.2179L22.3382 13.2633H13.6821C12.984 13.2633 12.4255 12.7048 12.4255 12.0067V3.90906C12.4255 3.21099 12.984 2.65253 13.6821 2.65253Z" fill="#17243F"/>
<path d="M14.7993 3.49036H27.225C27.9231 3.49036 28.4816 4.04882 28.4816 4.74689V12.8446C28.4816 13.5427 27.9231 14.1011 27.225 14.1011H25.8289L24.0139 16.0557L23.4554 14.1011H14.7993C14.1012 14.1011 13.5427 13.5427 13.5427 12.8446V4.74689C13.5427 4.04882 14.1012 3.49036 14.7993 3.49036Z" fill="#33EEB1"/>
<path d="M16.335 24.0142C14.1011 24.0142 11.8673 24.0142 9.63345 24.0142C9.2146 24.0142 8.79576 24.1538 8.51653 24.433C6.70153 26.248 4.74692 28.063 2.93192 29.878C2.37346 30.4365 1.67538 30.7157 0.977306 30.4365C0.27923 30.1573 0 29.4592 0 28.6215C0 27.0857 0 25.6896 0 24.1538C0 23.5953 0.27923 23.0369 0.698076 22.618C2.7923 20.5238 4.88653 18.4296 6.98076 16.3354C7.39961 15.9165 8.09768 15.6373 8.65614 15.6373C12.4258 15.6373 16.335 15.6373 20.1046 15.6373C21.2215 15.6373 21.9196 16.1957 22.0592 17.173C22.0592 18.1503 21.3611 18.7088 20.1046 18.7088C18.7084 18.7088 17.3123 18.7088 15.9161 18.7088C15.6369 18.7088 15.4973 18.988 15.2181 19.1277C15.4973 19.2673 15.6369 19.5465 15.9161 19.5465C18.4292 19.5465 20.9423 19.5465 23.595 19.5465C23.8742 19.5465 24.293 19.2673 24.4327 19.1277C26.108 17.5919 27.6438 15.9165 29.1796 14.3807C30.0173 13.543 30.9946 13.543 31.553 14.2411C32.2511 14.9392 32.1115 15.7769 31.2738 16.6146C29.1796 18.7088 26.9457 20.9427 24.8515 23.0369C24.4327 23.4557 23.7346 23.735 23.1761 23.735C20.9423 24.1538 18.7084 24.0142 16.335 24.0142Z" fill="url(#paint0_linear)"/>
<defs>
<linearGradient id="paint0_linear" x1="10.4009" y1="0.240511" x2="19.3403" y2="35.1041" gradientUnits="userSpaceOnUse">
<stop stop-color="#FFF5E9"/>
<stop offset="0.6046" stop-color="#7D95E6"/>
<stop offset="0.9986" stop-color="#3F28DD"/>
</linearGradient>
</defs>
</svg>
