<svg width="32" height="30" viewBox="0 0 32 30" fill="none" xmlns="http://www.w3.org/2000/svg">
<path d="M18.7179 29.9778H2.92467C1.3161 29.9778 0 28.6617 0 27.0532V2.92467C0 1.3161 1.3161 0 2.92467 0H18.7179C20.3264 0 21.6425 1.3161 21.6425 2.92467V26.9069C21.6425 28.6617 20.3264 29.9778 18.7179 29.9778Z" fill="url(#paint0_linear)"/>
<path d="M10.8212 27.9305C11.3058 27.9305 11.6986 27.5376 11.6986 27.0531C11.6986 26.5685 11.3058 26.1757 10.8212 26.1757C10.3367 26.1757 9.94385 26.5685 9.94385 27.0531C9.94385 27.5376 10.3367 27.9305 10.8212 27.9305Z" fill="white"/>
<mask id="mask0" mask-type="alpha" maskUnits="userSpaceOnUse" x="0" y="0" width="22" height="30">
<path d="M18.7179 29.9778H2.92467C1.3161 29.9778 0 28.6617 0 27.0532V2.92467C0 1.3161 1.3161 0 2.92467 0H18.7179C20.3264 0 21.6425 1.3161 21.6425 2.92467V26.9069C21.6425 28.6617 20.3264 29.9778 18.7179 29.9778Z" fill="url(#paint1_linear)"/>
</mask>
<g mask="url(#mask0)">
<path d="M0 7.60406H23.5436" stroke="white" stroke-width="0.8613" stroke-miterlimit="10" stroke-linecap="round" stroke-linejoin="round"/>
<path d="M0 24.2745H23.5436" stroke="white" stroke-width="0.8613" stroke-miterlimit="10" stroke-linecap="round" stroke-linejoin="round"/>
</g>
<path d="M31.5861 9.21256H27.1991C27.1991 8.77386 27.1991 8.18893 27.1991 7.75023C27.1991 7.31153 26.9067 7.16529 26.468 7.45776C25.2981 8.33516 24.1282 9.21256 22.9584 10.2362C22.6659 10.5287 22.6659 10.6749 22.9584 10.9674C24.1282 11.8448 25.2981 12.8684 26.6142 13.7458C26.9067 14.0383 27.1991 13.892 27.1991 13.4533C27.1991 13.0146 27.1991 11.991 27.1991 11.991C27.4916 11.991 28.9539 11.991 30.5625 11.991H31.4399C31.7324 11.991 31.8786 11.6985 31.8786 11.5523V9.7975C32.1711 9.3588 31.8786 9.21256 31.5861 9.21256Z" fill="#33EEB1"/>
<path d="M22.9585 20.9112H27.3455C27.3455 21.3499 27.3455 21.9349 27.3455 22.3736C27.3455 22.8123 27.6379 22.9585 28.0766 22.666C29.2465 21.7886 30.4164 20.9112 31.5862 19.8876C31.8787 19.5951 31.8787 19.4489 31.5862 19.1564C30.4164 18.279 29.2465 17.2554 27.9304 16.378C27.6379 16.0855 27.3455 16.2318 27.3455 16.6705C27.3455 17.1092 27.3455 18.1328 27.3455 18.1328C27.053 18.1328 25.5907 18.1328 23.9821 18.1328H23.1047C22.8122 18.1328 22.666 18.4253 22.666 18.5715V20.3263C22.5198 20.6188 22.666 20.9112 22.9585 20.9112Z" fill="#33EEB1"/>
<defs>
<linearGradient id="paint0_linear" x1="3.43532" y1="-14.3866" x2="17.9706" y2="43.5344" gradientUnits="userSpaceOnUse">
<stop stop-color="#FFF5E9"/>
<stop offset="0.6046" stop-color="#7D95E6"/>
<stop offset="0.9986" stop-color="#3F28DD"/>
</linearGradient>
<linearGradient id="paint1_linear" x1="3.43532" y1="-14.3866" x2="17.9706" y2="43.5344" gradientUnits="userSpaceOnUse">
<stop stop-color="#FFF5E9"/>
<stop offset="0.6046" stop-color="#7D95E6"/>
<stop offset="0.9986" stop-color="#3F28DD"/>
</linearGradient>
</defs>
</svg>
