<svg width="32" height="32" viewBox="0 0 32 32" fill="none" xmlns="http://www.w3.org/2000/svg">
<path d="M28.9378 32H2.29665C1.07177 32 0 30.9282 0 29.7034V9.95217C0 8.72729 1.07177 7.65552 2.29665 7.65552H28.7847C30.0096 7.65552 31.0813 8.72729 31.0813 9.95217V29.8565C31.0813 31.0814 30.1627 32 28.9378 32Z" fill="url(#paint0_linear)"/>
<path d="M30.0093 0C30.6217 0 31.2342 0.61244 31.2342 1.22488V4.44019C31.2342 5.20574 30.7748 5.66507 30.0093 5.66507H1.07149C0.459052 5.81818 0.152832 5.35885 0.152832 4.74641V1.07177C0.152832 0.45933 0.612162 0 1.07149 0H30.0093V0Z" fill="url(#paint1_linear)"/>
<mask id="mask0" mask-type="alpha" maskUnits="userSpaceOnUse" x="0" y="7" width="32" height="25">
<path d="M28.9378 32H2.29665C1.07177 32 0 30.9282 0 29.7034V9.95217C0 8.72729 1.07177 7.65552 2.29665 7.65552H28.7847C30.0096 7.65552 31.0813 8.72729 31.0813 9.95217V29.8565C31.0813 31.0814 30.1627 32 28.9378 32Z" fill="url(#paint2_linear)"/>
</mask>
<g mask="url(#mask0)">
<path d="M-2.14331 31.9999H32.4596" stroke="white" stroke-width="0.8613" stroke-miterlimit="10" stroke-linecap="round" stroke-linejoin="round"/>
</g>
<path d="M4.89941 15.6176H12.0956L14.086 17.608" stroke="white" stroke-width="0.8613" stroke-miterlimit="10" stroke-linecap="round" stroke-linejoin="round"/>
<path d="M4.89941 20.9764H9.95205" stroke="white" stroke-width="0.8613" stroke-miterlimit="10" stroke-linecap="round" stroke-linejoin="round"/>
<path d="M22.354 19.4449V14.3923C22.354 14.2392 22.2009 13.9329 21.8947 14.086C21.5884 14.086 21.1291 14.2392 20.8229 14.2392C19.598 14.6985 18.6794 15.464 18.0669 16.3827C16.842 18.22 16.6889 20.6698 17.9138 22.6602C19.1387 24.6506 21.4353 25.5693 23.732 25.2631C26.9473 24.8037 28.0191 22.0478 28.1722 19.9042C28.1722 19.7511 28.0191 19.598 27.866 19.598H22.354V19.4449Z" fill="white"/>
<path d="M23.5789 15.7703C23.5789 15.0047 23.5789 14.3923 23.5789 13.6267C23.5789 13.1674 23.732 13.0143 24.1913 13.0143C26.7942 13.3205 28.6315 15.1578 28.9377 17.7607C29.0909 18.3731 28.9377 18.5262 28.3253 18.5262C26.9473 18.5262 25.4162 18.5262 24.0382 18.5262C23.5789 18.5262 23.4258 18.3731 23.4258 17.9138C23.5789 17.3014 23.5789 16.5358 23.5789 15.7703Z" fill="#33EEB1"/>
<path d="M5.20566 4.59333C6.05126 4.59333 6.73676 3.90783 6.73676 3.06223C6.73676 2.21662 6.05126 1.53113 5.20566 1.53113C4.36006 1.53113 3.67456 2.21662 3.67456 3.06223C3.67456 3.90783 4.36006 4.59333 5.20566 4.59333Z" fill="#33EEB1"/>
<path d="M10.5645 4.59333C11.4102 4.59333 12.0956 3.90783 12.0956 3.06223C12.0956 2.21662 11.4102 1.53113 10.5645 1.53113C9.71894 1.53113 9.03345 2.21662 9.03345 3.06223C9.03345 3.90783 9.71894 4.59333 10.5645 4.59333Z" fill="#33EEB1"/>
<defs>
<linearGradient id="paint0_linear" x1="6.7151" y1="1.53127" x2="27.4464" y2="44.1853" gradientUnits="userSpaceOnUse">
<stop stop-color="#FFF5E9"/>
<stop offset="0.6046" stop-color="#7D95E6"/>
<stop offset="0.9986" stop-color="#3F28DD"/>
</linearGradient>
<linearGradient id="paint1_linear" x1="15.0518" y1="-6.96727" x2="16.3719" y2="16.2872" gradientUnits="userSpaceOnUse">
<stop stop-color="#FFF5E9"/>
<stop offset="0.6046" stop-color="#7D95E6"/>
<stop offset="0.9986" stop-color="#3F28DD"/>
</linearGradient>
<linearGradient id="paint2_linear" x1="6.7151" y1="1.53127" x2="27.4464" y2="44.1853" gradientUnits="userSpaceOnUse">
<stop stop-color="#FFF5E9"/>
<stop offset="0.6046" stop-color="#7D95E6"/>
<stop offset="0.9986" stop-color="#3F28DD"/>
</linearGradient>
</defs>
</svg>
