<svg width="40" height="40" viewBox="0 0 40 40" fill="none" xmlns="http://www.w3.org/2000/svg">
<path d="M3.25452 17.0562C3.08223 13.0936 4.80508 10.3371 8.07849 7.92509C8.25077 7.7528 8.42305 7.92509 8.42305 7.92509L10.835 10.1648L10.4905 0.344569C10.4905 0.172284 10.3182 0 10.1459 0L0.325681 0.516854L2.73766 2.75655C2.90995 2.92884 2.90995 3.10112 2.73766 3.10112C-1.56945 8.61423 -0.191173 13.955 2.73766 17.2285C2.90995 17.573 3.25452 17.4007 3.25452 17.0562Z" fill="#33EEB1"/>
<path d="M2.73766 17.2285C-0.191173 13.9551 -1.56945 8.6143 2.73766 3.1012C2.90995 2.92892 2.90995 2.75663 2.73766 2.75663L0.325681 0.516932L10.1459 0.172363C10.3182 0.172363 10.4905 0.344648 10.4905 0.516932L10.835 10.1649L8.42305 8.09745C8.25077 7.92517 8.07849 7.92517 8.07849 8.09745C4.97736 10.3371 3.08223 13.266 3.4268 17.2285C3.25452 17.4008 2.90995 17.5731 2.73766 17.2285Z" fill="#33EEB1"/>
<path d="M36.6781 22.2246C36.6781 26.1872 34.9553 28.9437 31.6818 31.1834C31.5096 31.3557 31.3373 31.1834 31.3373 31.1834L28.9253 28.9437L29.0976 38.764C29.0976 38.9362 29.2699 39.1085 29.4421 39.1085H39.2624L37.0227 36.6965C36.8504 36.5243 36.8504 36.352 37.0227 36.352C41.5021 30.8389 40.2961 25.6703 37.5395 22.2246C37.0227 21.7078 36.6781 21.8801 36.6781 22.2246Z" fill="#33EEB1"/>
<path d="M37.1943 21.8803C39.9509 25.326 41.1568 30.4945 36.6775 36.0076C36.5052 36.1799 36.5052 36.3522 36.6775 36.3522L38.9171 38.7642H29.0969C28.9246 38.7642 28.7524 38.5919 28.7524 38.4196L28.5801 28.5994L30.9921 30.8391C31.1643 31.0114 31.3366 31.0114 31.3366 30.8391C34.61 28.5994 36.3329 25.8428 36.3329 21.8803C36.6775 21.8803 37.022 21.708 37.1943 21.8803Z" fill="#33EEB1"/>
<path d="M19.4496 30.4946C25.5392 30.4946 30.4758 25.558 30.4758 19.4683C30.4758 13.3787 25.5392 8.44214 19.4496 8.44214C13.3599 8.44214 8.42334 13.3787 8.42334 19.4683C8.42334 25.558 13.3599 30.4946 19.4496 30.4946Z" fill="url(#paint0_linear)"/>
<path d="M20.8278 17.2286C19.2772 17.2286 17.5544 17.2286 16.0038 17.2286C15.8316 17.2286 15.6593 17.2286 15.487 17.2286C15.1424 17.2286 14.7979 16.884 14.7979 16.5394C14.7979 16.1949 14.9701 15.8503 15.487 15.8503C15.8316 15.8503 16.1761 15.8503 16.5207 15.8503C17.899 15.8503 19.2772 15.8503 20.8278 15.8503C20.8278 15.678 20.6555 15.5057 20.6555 15.3335C20.1387 14.2998 19.2772 13.7829 18.2435 13.7829C17.3821 13.7829 16.5207 13.7829 15.6593 13.7829C15.487 13.7829 15.1424 13.6106 14.9701 13.4383C14.6256 13.0938 14.9701 12.5769 15.487 12.5769C16.1761 12.5769 16.8653 12.5769 17.5544 12.5769C19.2772 12.5769 21.1724 12.5769 22.8952 12.5769C23.0675 12.5769 23.0675 12.5769 23.2398 12.5769C23.7566 12.5769 23.9289 12.9215 23.9289 13.266C23.9289 13.6106 23.5844 13.9552 23.2398 13.9552C22.7229 13.9552 22.2061 13.9552 21.6892 13.9552C21.5169 13.9552 21.3447 13.9552 21.3447 13.9552C21.6892 14.6443 22.0338 15.1612 22.2061 15.8503C22.5507 15.8503 22.8952 15.8503 23.2398 15.8503C23.7566 15.8503 24.1012 16.1949 24.1012 16.5394C24.1012 16.884 23.7566 17.2286 23.4121 17.2286C23.0675 17.2286 22.7229 17.2286 22.3784 17.2286C21.6892 19.8129 19.9664 20.6743 17.3821 20.502C17.5544 20.6743 17.7267 20.8466 17.7267 20.8466C19.105 22.2248 20.4832 23.4308 21.8615 24.8091C22.0338 24.9814 22.0338 24.9814 22.2061 25.1537C22.3784 25.4982 22.3784 25.8428 22.2061 26.0151C22.0338 26.1874 21.6892 26.3597 21.3447 26.0151C21.1724 26.0151 21.1724 25.8428 21.0001 25.8428C19.105 24.12 17.2098 22.2248 15.487 20.502C15.1424 20.1574 14.9701 19.9851 15.1424 19.4683C15.3147 19.1237 15.6593 19.1237 16.0038 19.1237C16.8653 19.1237 17.7267 19.1237 18.5881 19.1237C19.4495 19.296 20.6555 18.4346 20.8278 17.2286Z" fill="white"/>
<defs>
<linearGradient id="paint0_linear" x1="16.3484" y1="-7.73659" x2="21.6589" y2="38.851" gradientUnits="userSpaceOnUse">
<stop stop-color="#FFF5E9"/>
<stop offset="0.6046" stop-color="#7D95E6"/>
<stop offset="0.9986" stop-color="#3F28DD"/>
</linearGradient>
</defs>
</svg>
