<svg xmlns="http://www.w3.org/2000/svg" xmlns:xlink="http://www.w3.org/1999/xlink" width="67.155" height="26" viewBox="0 0 67.155 26">
  <defs>
    <clipPath id="clip-path">
      <rect id="Rectangle_2297" data-name="Rectangle 2297" width="67.155" height="26" fill="#fff"/>
    </clipPath>
  </defs>
  <g id="Wix_logoB" data-name="Wix logoB" clip-path="url(#clip-path)">
    <path id="Path_24603" data-name="Path 24603" d="M131.646,0h-3.709a3.1,3.1,0,0,0-2.569,1.362L120.407,8.68a.333.333,0,0,1-.551,0L114.9,1.362A3.1,3.1,0,0,0,112.326,0h-3.709l8.838,13.036L108.666,26h3.709a3.1,3.1,0,0,0,2.569-1.362l4.912-7.246a.333.333,0,0,1,.551,0l4.912,7.246A3.1,3.1,0,0,0,127.888,26H131.6l-8.788-12.964Z" transform="translate(-64.491)" fill="#fff"/>
    <path id="Path_24604" data-name="Path 24604" d="M89.828,2.66V26H91.6a2.66,2.66,0,0,0,2.66-2.66V0H92.488A2.659,2.659,0,0,0,89.828,2.66Z" transform="translate(-53.335)" fill="#fff"/>
    <path id="Path_24605" data-name="Path 24605" d="M33.242,0H31.665a3.719,3.719,0,0,0-3.627,2.895L24.508,18.411,21.419,3.927A4.927,4.927,0,0,0,15.29.221a5.013,5.013,0,0,0-3.5,3.823L8.728,18.391,5.2,2.9A3.722,3.722,0,0,0,1.577,0H0L5.913,26h2.24a4.308,4.308,0,0,0,4.214-3.41l3.78-17.738a.479.479,0,0,1,.937,0l3.783,17.74A4.307,4.307,0,0,0,25.081,26h2.248Z" fill="#fff"/>
  </g>
</svg>
