<svg xmlns="http://www.w3.org/2000/svg" width="88.434" height="38" viewBox="0 0 88.434 38">
  <g id="ZOHO_New" data-name="ZOHO New" transform="translate(-56.255 -144.218)">
    <g id="Group_19116" data-name="Group 19116" transform="translate(56.255 144.218)">
      <g id="Group_19113" data-name="Group 19113" transform="translate(20.511)">
        <path id="Path_24594" data-name="Path 24594" d="M244.83,174.429a4.991,4.991,0,0,1-2.015-.429h0L228.8,167.755a4.985,4.985,0,0,1-2.523-6.57l6.245-14.016a4.985,4.985,0,0,1,6.57-2.523l14.016,6.245a4.985,4.985,0,0,1,2.523,6.57l-6.245,14.016A4.99,4.99,0,0,1,244.83,174.429Zm-.85-3.056a2.109,2.109,0,0,0,2.777-1.059L253,156.3a2.109,2.109,0,0,0-1.059-2.777l-14.024-6.245a2.109,2.109,0,0,0-2.777,1.059L228.9,162.351a2.109,2.109,0,0,0,1.059,2.777Z" transform="translate(-225.848 -144.218)" fill="#fff"/>
      </g>
      <g id="Group_19114" data-name="Group 19114" transform="translate(63.136 4.923)">
        <path id="Path_24595" data-name="Path 24595" d="M598.613,210.219H583.266a4.983,4.983,0,0,1-4.976-4.976V189.9a4.983,4.983,0,0,1,4.976-4.976h15.347a4.983,4.983,0,0,1,4.976,4.976v15.347A4.983,4.983,0,0,1,598.613,210.219Zm-15.347-22.426a2.108,2.108,0,0,0-2.1,2.1v15.347a2.108,2.108,0,0,0,2.1,2.1h15.347a2.108,2.108,0,0,0,2.1-2.1V189.894a2.108,2.108,0,0,0-2.1-2.1Z" transform="translate(-578.29 -184.92)" fill="#fff"/>
      </g>
      <path id="Path_24596" data-name="Path 24596" d="M82.24,176.312l-2.067,4.625c-.027.052-.052.1-.079.14l.805,4.976a2.1,2.1,0,0,1-1.734,2.409l-15.154,2.453a2.129,2.129,0,0,1-1.569-.368,2.062,2.062,0,0,1-.841-1.367l-2.454-15.155a2.129,2.129,0,0,1,.368-1.569,2.062,2.062,0,0,1,1.367-.841l15.154-2.453a2.291,2.291,0,0,1,.333-.027,2.112,2.112,0,0,1,2.077,1.769l.815,5.011,2.137-4.792-.114-.675a4.979,4.979,0,0,0-5.7-4.117l-15.154,2.453a4.875,4.875,0,0,0-3.233,1.988,4.936,4.936,0,0,0-.876,3.706l2.453,15.154a4.941,4.941,0,0,0,2,3.241,4.88,4.88,0,0,0,2.9.937,4.952,4.952,0,0,0,.805-.062L79.628,191.3a4.979,4.979,0,0,0,4.117-5.7Z" transform="translate(-56.255 -163.602)" fill="#fff"/>
      <g id="Group_19115" data-name="Group 19115" transform="translate(42.855 3.006)">
        <path id="Path_24597" data-name="Path 24597" d="M411.906,186.01l2.225-4.984-.631-4.634a2.094,2.094,0,0,1,1.8-2.356l15.207-2.067c.1-.008.192-.017.289-.017a2.11,2.11,0,0,1,1.27.429c.07.052.132.114.192.167a5.007,5.007,0,0,1,2.549-1.437,4.84,4.84,0,0,0-1.007-1.024,4.954,4.954,0,0,0-3.679-.972L414.9,171.181a4.9,4.9,0,0,0-3.285,1.918,4.954,4.954,0,0,0-.972,3.679Z" transform="translate(-410.599 -169.069)" fill="#fff"/>
        <path id="Path_24598" data-name="Path 24598" d="M452.7,223.4l-2-14.716a2.1,2.1,0,0,0-2.023,2.093v4.319l1.183,8.69a2.094,2.094,0,0,1-1.8,2.356L432.851,228.2a2.094,2.094,0,0,1-2.356-1.8l-.7-5.159-2.225,4.984.079.561a4.978,4.978,0,0,0,4.922,4.3,5.893,5.893,0,0,0,.683-.044l15.189-2.05a4.98,4.98,0,0,0,4.257-5.6Z" transform="translate(-425.518 -203.889)" fill="#fff"/>
      </g>
    </g>
    <g id="Group_19117" data-name="Group 19117" transform="translate(83.358 177.654)">
      <path id="Path_24599" data-name="Path 24599" d="M280.385,425.316l2.172-3.206H280.77a.175.175,0,0,1-.175-.175v-.429a.175.175,0,0,1,.175-.175H283.7a.175.175,0,0,1,.175.175v.167a.174.174,0,0,1-.027.1l-2.129,3.206h1.91a.176.176,0,0,1,.175.175v.429a.175.175,0,0,1-.175.175h-3.1a.176.176,0,0,1-.175-.175v-.157A.14.14,0,0,1,280.385,425.316Z" transform="translate(-280.356 -421.251)" fill="#fff"/>
      <path id="Path_24600" data-name="Path 24600" d="M356.21,422.94a2.2,2.2,0,0,1,2.277-2.26,2.163,2.163,0,0,1,2.277,2.269,2.189,2.189,0,0,1-2.3,2.3A2.16,2.16,0,0,1,356.21,422.94Zm3.513.017c0-.8-.386-1.48-1.253-1.48s-1.209.71-1.209,1.515a1.3,1.3,0,0,0,1.253,1.463C359.381,424.446,359.723,423.7,359.723,422.957Z" transform="translate(-347.036 -420.68)" fill="#fff"/>
      <path id="Path_24601" data-name="Path 24601" d="M444.162,421.26h.648a.176.176,0,0,1,.175.175v1.629h1.839v-1.629a.175.175,0,0,1,.175-.175h.648a.175.175,0,0,1,.175.175v4.073a.176.176,0,0,1-.175.175h-.64a.176.176,0,0,1-.175-.175v-1.647h-1.84v1.647a.176.176,0,0,1-.175.175h-.648a.175.175,0,0,1-.175-.175v-4.073A.163.163,0,0,1,444.162,421.26Z" transform="translate(-424.204 -421.19)" fill="#fff"/>
      <path id="Path_24602" data-name="Path 24602" d="M525.7,422.94a2.2,2.2,0,0,1,2.277-2.26,2.163,2.163,0,0,1,2.277,2.269,2.189,2.189,0,0,1-2.3,2.3A2.16,2.16,0,0,1,525.7,422.94Zm3.5.017c0-.8-.386-1.48-1.253-1.48s-1.209.71-1.209,1.515a1.3,1.3,0,0,0,1.253,1.463C528.863,424.446,529.2,423.7,529.2,422.957Z" transform="translate(-496.028 -420.68)" fill="#fff"/>
    </g>
  </g>
</svg>
