<svg xmlns="http://www.w3.org/2000/svg" xmlns:xlink="http://www.w3.org/1999/xlink" width="36.4" height="36.427" viewBox="0 0 36.4 36.427">
  <defs>
    <clipPath id="clip-path">
      <rect id="Rectangle_976" data-name="Rectangle 976" width="36.4" height="36.427" transform="translate(0 0)" fill="#721ff3"/>
    </clipPath>
  </defs>
  <g id="Group_5204" data-name="Group 5204" transform="translate(0 -0.005)">
    <g id="Group_5203" data-name="Group 5203" transform="translate(0 0.005)" clip-path="url(#clip-path)">
      <path id="Path_3928" data-name="Path 3928" d="M36.4,447.846H29.5a3.435,3.435,0,0,1,2.066,1.4,3.124,3.124,0,0,1,.5,2.4,3.2,3.2,0,0,1-6.322-.252,3.245,3.245,0,0,1,2.7-3.527h-13.9c1.841.574,2.862,1.975,2.617,3.577a3.2,3.2,0,0,1-6.358-.022,3.31,3.31,0,0,1,2.605-3.574H8.755L6.62,426.515H0V424.39H8.551l.43,4.246H36.4v.213c-.056.3-.121.6-.168.9q-.773,5-1.542,10.009c-.194,1.262-.39,2.523-.591,3.818H10.476l.211,2.132H36.4Z" transform="translate(0 -417.822)" fill="#721ff3"/>
      <path id="Path_3929" data-name="Path 3929" d="M1261.4,0V8.662h-4.256V2.3h-8.551V0Z" transform="translate(-1229.264 -0.005)" fill="#1eefb0"/>
      <rect id="Rectangle_975" data-name="Rectangle 975" width="12.762" height="4.227" transform="translate(12.938 4.429)" fill="#1eefb0"/>
    </g>
  </g>
</svg>
