<svg xmlns="http://www.w3.org/2000/svg" xmlns:xlink="http://www.w3.org/1999/xlink" width="37.65" height="40.639" viewBox="0 0 37.65 40.639">
  <defs>
    <clipPath id="clip-path">
      <rect id="Rectangle_979" data-name="Rectangle 979" width="37.65" height="40.639" fill="#1eefb0"/>
    </clipPath>
  </defs>
  <g id="Group_5210" data-name="Group 5210" transform="translate(0 0.001)">
    <g id="Group_5209" data-name="Group 5209" transform="translate(0 -0.001)" clip-path="url(#clip-path)">
      <path id="Path_3941" data-name="Path 3941" d="M17.637,40.639c-.7-.1-1.41-.182-2.11-.3a18.232,18.232,0,0,1-9.335-4.583A18.652,18.652,0,0,1,.384,25.559,18.846,18.846,0,0,1,10.026,5.2c.737-.382,1.507-.7,2.277-1.017a1.194,1.194,0,0,1,1.708.624,1.225,1.225,0,0,1-.88,1.6A16.2,16.2,0,0,0,3.466,16,16.391,16.391,0,0,0,8.008,34.173a16.135,16.135,0,0,0,11.605,4.062A16.432,16.432,0,0,0,22.565,5.82c-.141-.033-.284-.054-.426-.081l-.113.117a5.843,5.843,0,0,1,.6.472A1.19,1.19,0,1,1,20.944,8q-1.453-1.438-2.89-2.891a1.188,1.188,0,0,1,0-1.821Q19.483,1.852,20.921.428A1.2,1.2,0,1,1,22.6,2.118c-.337.345-.679.684-1.035,1.042.9.218,1.763.366,2.584.632,7.007,2.272,11.477,6.984,13.064,14.171a18.732,18.732,0,0,1-14.77,22.327c-.7.137-1.414.188-2.121.281-.1.014-.2.045-.3.068Z" transform="translate(0 0)" fill="#1eefb0"/>
      <path id="Path_3942" data-name="Path 3942" d="M374.892,527.411A12.228,12.228,0,1,0,387.1,539.635a12.235,12.235,0,0,0-12.212-12.224m2.929,8.858c.21,0,.491,0,.772,0a.823.823,0,1,1,.007,1.641c-.273,0-.547,0-.766,0a11.8,11.8,0,0,1-.7,1.444,3.966,3.966,0,0,1-3.343,1.838c-.432.015-.865,0-1.351,0,.1.107.159.175.222.238q2.422,2.424,4.846,4.846a.848.848,0,0,1,.286.9.811.811,0,0,1-1.282.415,1.567,1.567,0,0,1-.151-.139q-3.2-3.2-6.407-6.407a.832.832,0,0,1-.249-1.016.847.847,0,0,1,.84-.477c1.044,0,2.088.006,3.131,0a2.424,2.424,0,0,0,2.34-1.628c-.094,0-.182-.012-.271-.012H370.61a1.679,1.679,0,0,1-.332-.019.818.818,0,0,1,.115-1.619c.085-.006.171,0,.257,0h5.361a2.4,2.4,0,0,0-2.323-1.641c-1.061-.009-2.122,0-3.183,0a.833.833,0,0,1-.745-.373.818.818,0,0,1,.586-1.264,1.615,1.615,0,0,1,.205-.007q4,0,8.008,0a.825.825,0,0,1,.866,1.1.813.813,0,0,1-.792.542c-.529.006-1.057,0-1.567,0l.755,1.643" transform="translate(-356.048 -517.813)" fill="#721ff3"/>
    </g>
  </g>
</svg>
