<svg xmlns="http://www.w3.org/2000/svg" xmlns:xlink="http://www.w3.org/1999/xlink" width="43.195" height="37.027" viewBox="0 0 43.195 37.027">
  <defs>
    <clipPath id="clip-path">
      <rect id="Rectangle_978" data-name="Rectangle 978" width="43.195" height="37.027" fill="#721ff3"/>
    </clipPath>
  </defs>
  <g id="Group_5208" data-name="Group 5208" transform="translate(0 -0.003)">
    <g id="Group_5207" data-name="Group 5207" transform="translate(0 0.003)" clip-path="url(#clip-path)">
      <path id="Path_3934" data-name="Path 3934" d="M312.83,496.348H280.489v-18.5h.485q10.842,0,21.684-.01a.577.577,0,0,1,.662.483,8.4,8.4,0,0,0,9.012,5.625c.156-.02.314-.024.5-.038Zm-27.741-10.556c0,2.208,0,4.343,0,6.479,0,.754.257,1.009,1.014,1.01q3.614,0,7.228,0c.754,0,1.011-.258,1.011-1.013q0-2.964,0-5.928v-.554c.735.184,1.4.361,2.071.515a.765.765,0,0,0,1.008-.779c.017-1,.005-1.992,0-2.988a.718.718,0,0,0-.531-.773,14.4,14.4,0,0,0-4.808-.824.8.8,0,0,0-.829.762,1.544,1.544,0,1,1-3.087,0c-.052-.421-.273-.728-.691-.736a11.746,11.746,0,0,0-2.154.1c-.867.145-1.712.418-2.566.638-.584.151-.754.357-.758.937,0,.932-.008,1.864,0,2.8.006.7.414,1.009,1.108.844.638-.152,1.275-.31,1.975-.481m22.692,5.946c-.932.582-1.243,1.189-1.043,1.925a1.538,1.538,0,0,0,1.433,1.156,1.44,1.44,0,0,0,1.491-1.055,1.937,1.937,0,0,0-.084-1.151,3.643,3.643,0,0,0-.772-.866c.558.064.856-.276,1.034-.838.436-1.375.908-2.739,1.36-4.109.266-.807-.048-1.233-.906-1.234q-3.035,0-6.069,0h-.511c-.042-.279-.078-.5-.108-.723a.8.8,0,0,0-.922-.819c-.449-.006-.9-.011-1.349,0a.769.769,0,1,0-.007,1.536c.268.012.538,0,.814,0,.223,1.756.431,3.46.663,5.161a1.46,1.46,0,0,0,.287.78c.17.178.494.21.731.3a1.6,1.6,0,0,0-.958,1.808,1.548,1.548,0,0,0,1.443,1.207,1.437,1.437,0,0,0,1.48-1,2.034,2.034,0,0,0-.067-1.2,3.48,3.48,0,0,0-.771-.872c.006,0,.068-.008.131-.008h2.7m-9.168-.772c-.106.13-.135.168-.167.2-.4.456-.435.851-.1,1.188s.781.31,1.222-.124c.481-.473.961-.947,1.429-1.433.35-.364.413-.749.112-1.075-.566-.613-1.157-1.206-1.774-1.766a.672.672,0,0,0-.995.084.709.709,0,0,0-.071.967c.084.125.188.236.331.413-.654,0-1.228,0-1.8,0s-.909.306-.9.776.348.758.918.764,1.143,0,1.8,0" transform="translate(-275.062 -468.598)" fill="#721ff3"/>
      <path id="Path_3935" data-name="Path 3935" d="M26.221,1675.642H43.17c0,.885.065,1.754-.016,2.609a2.265,2.265,0,0,1-2.244,2c-.128,0-.257,0-.386,0H2.688a2.377,2.377,0,0,1-2.688-2.7c0-.624,0-1.248,0-1.9H16.97c0,.281-.009.55,0,.818A2.294,2.294,0,0,0,19.2,1678.7q2.385.042,4.772,0a2.3,2.3,0,0,0,2.25-2.255c.009-.254,0-.509,0-.8" transform="translate(0 -1643.221)" fill="#721ff3"/>
      <path id="Path_3936" data-name="Path 3936" d="M158.112,343.535H119.59V343q0-11.5,0-23c0-.917.214-1.13,1.135-1.13h24.305v1.543H122.266c-.92,0-1.133.213-1.133,1.132q0,9.666,0,19.331c0,.921.214,1.136,1.13,1.136h33.209c.922,0,1.139-.215,1.139-1.128,0-4.258.006-8.517-.009-12.775,0-.4.068-.649.487-.787a7.188,7.188,0,0,0,1.023-.525Z" transform="translate(-117.276 -312.703)" fill="#721ff3"/>
      <path id="Path_3937" data-name="Path 3937" d="M1521.77,0a6.941,6.941,0,1,1-6.964,6.893A6.944,6.944,0,0,1,1521.77,0m-.82,8.194c-.527-.548-1.008-1.062-1.506-1.56a.781.781,0,1,0-1.094,1.084c.619.63,1.247,1.252,1.873,1.876.587.585.918.587,1.5,0q1.978-1.975,3.953-3.954a1.871,1.871,0,0,0,.286-.323.718.718,0,0,0-.1-.965.717.717,0,0,0-.967-.079,2.351,2.351,0,0,0-.354.324c-1.169,1.17-2.338,2.341-3.587,3.593" transform="translate(-1485.497 -0.003)" fill="#1eefb0"/>
      <path id="Path_3938" data-name="Path 3938" d="M956.577,1675.7h6.167c0,.259.011.5,0,.731a.755.755,0,0,1-.8.782q-2.284.018-4.568,0a.753.753,0,0,1-.8-.783c-.013-.236,0-.473,0-.73" transform="translate(-938.065 -1643.278)" fill="#721ff3"/>
      <path id="Path_3939" data-name="Path 3939" d="M438.491,712.822l3.131-.677a3.342,3.342,0,0,0,1.472,1.989,3.061,3.061,0,0,0,4.412-1.492c.124-.307.258-.457.582-.391.907.182,1.813.368,2.724.554v1.524l-1.9-.456c-.784-.188-1.165.107-1.166.913,0,2.215,0,4.431,0,6.684h-6.17v-.5q0-3.083,0-6.167c0-.835-.377-1.123-1.2-.926-.561.135-1.121.274-1.682.409a2.008,2.008,0,0,1-.207.022v-1.487Z" transform="translate(-430.007 -698.366)" fill="#721ff3"/>
      <path id="Path_3940" data-name="Path 3940" d="M1490.776,961.722l-.385-3.05h5.552c-.2.62-.4,1.233-.609,1.845-.4,1.2-.4,1.2-1.673,1.2Z" transform="translate(-1461.555 -940.124)" fill="#721ff3"/>
    </g>
  </g>
</svg>
