<svg xmlns="http://www.w3.org/2000/svg" xmlns:xlink="http://www.w3.org/1999/xlink" width="41.256" height="26.612" viewBox="0 0 41.256 26.612">
  <defs>
    <clipPath id="clip-path">
      <rect id="Rectangle_977" data-name="Rectangle 977" width="41.256" height="26.612" transform="translate(0 0)" fill="#721ff3"/>
    </clipPath>
  </defs>
  <g id="Group_5206" data-name="Group 5206" transform="translate(0 0.002)">
    <g id="Group_5205" data-name="Group 5205" transform="translate(0 -0.002)" clip-path="url(#clip-path)">
      <path id="Path_3930" data-name="Path 3930" d="M1357.192,450.177a1.207,1.207,0,1,1-1.2-1.2,1.223,1.223,0,0,1,1.2,1.2" transform="translate(-1332.859 -441.71)" fill="#721ff3"/>
      <path id="Path_3931" data-name="Path 3931" d="M1954.835,1047.83a1.207,1.207,0,1,1-1.195-1.21,1.223,1.223,0,0,1,1.195,1.21" transform="translate(-1920.832 -1029.687)" fill="#721ff3"/>
      <path id="Path_3932" data-name="Path 3932" d="M10.869,19.992a1.211,1.211,0,0,1-1.2-1.21c-.011-.415,0-.83,0-1.245,0-.388-.009-.777,0-1.165a1.211,1.211,0,0,1,1.194-1.212h0V12.74h-.009a1.208,1.208,0,0,1-1.188-1.177c-.015-.415,0-.83,0-1.245s-.01-.8,0-1.205a1.21,1.21,0,0,1,1.2-1.2V5.484A1.239,1.239,0,0,1,9.765,4.158c-.006-1.152,0-2.3,0-3.484C9.6.667,9.47.656,9.34.656q-3.968,0-7.936,0A1.243,1.243,0,0,0,0,2.07Q0,5.494,0,8.918a1.247,1.247,0,0,0,1.372,1.411,3.625,3.625,0,0,1-.013,7.243A1.244,1.244,0,0,0,0,19q0,3.424,0,6.848a1.238,1.238,0,0,0,1.376,1.4q3.948,0,7.9,0h.4c0-.943,0-1.851,0-2.76,0-.282-.006-.564,0-.846a1.213,1.213,0,0,1,1.2-1.227v-2.42h0" transform="translate(0 -0.644)" fill="#1eefb0"/>
      <path id="Path_3933" data-name="Path 3933" d="M700.656,0q-13.435.025-26.87.011H673.2V.455c0,1.021,0,2.041,0,3.062A1.21,1.21,0,0,1,672,4.842c-.036,0-.07,0-.1,0V7.262h0a1.2,1.2,0,0,1,1.208,1.2c.016.817.017,1.634,0,2.45a1.2,1.2,0,0,1-1.211,1.185v2.42A1.2,1.2,0,0,1,673.1,15.7q.025,1.225,0,2.45a1.2,1.2,0,0,1-1.211,1.193v2.42h.026a1.2,1.2,0,0,1,1.186,1.225c.011,1.181,0,2.363,0,3.609h.516q13.516,0,27.031.011a1.552,1.552,0,0,0,1.623-.9V.895a1.55,1.55,0,0,0-1.623-.9M680.524,8.436a3.625,3.625,0,1,1,3.612,3.658,3.636,3.636,0,0,1-3.612-3.658m3.694,13.325a1.21,1.21,0,0,1-1.108-1.808c.191-.338.423-.652.639-.975q4.473-6.711,8.944-13.424a1.281,1.281,0,0,1,1.3-.694A1.2,1.2,0,0,1,694.8,6.74c-.474.747-.976,1.476-1.467,2.213q-4.027,6.041-8.052,12.084a1.366,1.366,0,0,1-1.067.725m9.559,0a3.625,3.625,0,1,1,3.665-3.6,3.636,3.636,0,0,1-3.665,3.6" transform="translate(-661.023 0.002)" fill="#721ff3"/>
    </g>
  </g>
</svg>
