<svg xmlns="http://www.w3.org/2000/svg" xmlns:xlink="http://www.w3.org/1999/xlink" width="212.115" height="113.954" viewBox="0 0 212.115 113.954">
  <defs>
    <linearGradient id="linear-gradient" x1="0.5" y1="1.166" x2="0.5" y2="-0.16" gradientUnits="objectBoundingBox">
      <stop offset="0" stop-color="#6e4d2c"/>
      <stop offset="0.324" stop-color="#e6b921"/>
      <stop offset="0.517" stop-color="#f7e1ab"/>
      <stop offset="0.718" stop-color="#e6b921"/>
      <stop offset="1" stop-color="#6e4d2c"/>
    </linearGradient>
  </defs>
  <g id="Group_10953" data-name="Group 10953" transform="translate(-629.939 -5622.89)">
    <path id="Union_2" data-name="Union 2" d="M-1049.242-4809.447c2.909-13.833,24.557-9.491,41.581-27.166,22-22.941,17.394-58.784-4.81-76.359l.267-.33c22.488,17.544,27.558,53.858,5.3,77.409-16.951,17.859-39.72,14.345-41.114,27.713A12.57,12.57,0,0,1-1049.242-4809.447Zm-123.864-26.447c-22.256-23.553-17.187-59.866,5.3-77.409l.267.331c-22.2,17.573-26.807,53.418-4.81,76.358,17.023,17.675,38.672,13.334,41.58,27.166a12.5,12.5,0,0,1-1.226,1.266C-1133.386-4821.551-1156.156-4818.035-1173.106-4835.894Zm147.025,21.771a6.749,6.749,0,0,1-1.416-.724,6.274,6.274,0,0,1-1.193-1.008,3.713,3.713,0,0,1-.819-4.273,6.185,6.185,0,0,1,6.621,6.666A11.741,11.741,0,0,1-1026.081-4814.123Zm-124.418-6.006a3.71,3.71,0,0,1-.819,4.274,6.235,6.235,0,0,1-1.192,1.009,6.875,6.875,0,0,1-1.416.722,11.676,11.676,0,0,1-3.194.66A6.185,6.185,0,0,1-1150.5-4820.129Zm132.1,3.7a10.146,10.146,0,0,1-1.583-.259,6.614,6.614,0,0,1-2.761-1.385,3.639,3.639,0,0,1-1.315-4.067,6.154,6.154,0,0,1,7.279,5.735c-.2.017-.4.024-.6.024C-1017.717-4816.384-1018.058-4816.4-1018.394-4816.431Zm-144.839.021a6.157,6.157,0,0,1,7.279-5.735,3.639,3.639,0,0,1-1.315,4.068,6.629,6.629,0,0,1-2.76,1.386,10.315,10.315,0,0,1-1.584.259c-.333.027-.672.047-1.007.047C-1162.827-4816.385-1163.032-4816.393-1163.234-4816.41Zm149.051-3.495a7.737,7.737,0,0,1-1.5-.344,6.111,6.111,0,0,1-1.367-.681,3.571,3.571,0,0,1-1.783-3.8h.009a5.555,5.555,0,0,1,4.748.513,6.253,6.253,0,0,1,3.057,4.227,9.876,9.876,0,0,1-1.866.175A9.927,9.927,0,0,1-1014.182-4819.9ZM-1168.99-4820a6.256,6.256,0,0,1,3.06-4.228,5.556,5.556,0,0,1,4.747-.513l.01,0a3.571,3.571,0,0,1-1.784,3.8,5.981,5.981,0,0,1-1.367.681,7.623,7.623,0,0,1-1.5.346,10.033,10.033,0,0,1-1.3.084A9.892,9.892,0,0,1-1168.99-4820Zm136.624-3.528a3.427,3.427,0,0,1-.853-3.434c-.119-1.692,1.059-4.024,2.044-5.427,1.661,3.1,1.906,7.063-1.093,8.992A.884.884,0,0,1-1032.366-4823.525Zm-116.466-8.862c.985,1.4,2.163,3.735,2.045,5.428a3.425,3.425,0,0,1-.853,3.433,1.166,1.166,0,0,1-.1.131C-1150.737-4825.325-1150.492-4829.284-1148.832-4832.387Zm134.9,4.524a6.279,6.279,0,0,1,1.011-.375,5.18,5.18,0,0,1,1.176-.175,6.268,6.268,0,0,1,6.037,4.247c-.077.022-.154.044-.231.064a10.533,10.533,0,0,1-2.7.364C-1011.532-4823.737-1014-4825.058-1013.93-4827.863Zm-160.37,3.7a6.265,6.265,0,0,1,6.037-4.247,5.165,5.165,0,0,1,1.176.175,6.144,6.144,0,0,1,1.011.373c.07,2.806-2.4,4.126-5.29,4.126A10.587,10.587,0,0,1-1174.3-4824.167Zm147.53-9.8c1.9,2.874,2.491,6.848-.294,8.9C-1029.337-4827-1028.3-4831.341-1026.77-4833.968Zm-126.467,0c1.534,2.626,2.567,6.966.3,8.9C-1155.726-4827.122-1155.141-4831.1-1153.237-4833.969Zm130.691-2.061c2.131,2.64,3.03,6.514.49,8.735C-1024.439-4828.992-1023.832-4833.356-1022.546-4836.03Zm-134.915,0c1.287,2.675,1.893,7.039-.491,8.735C-1160.492-4829.518-1159.592-4833.391-1157.461-4836.031Zm148.054,4.523a5.865,5.865,0,0,1,1.5-.639,6.215,6.215,0,0,1,7.014,3.287,11.368,11.368,0,0,1-1.365.462,9.782,9.782,0,0,1-2.508.346C-1007.167-4828.052-1009.158-4829.106-1009.407-4831.508Zm-169.7,2.646a6.212,6.212,0,0,1,7.013-3.287,5.8,5.8,0,0,1,1.5.64c-.249,2.4-2.241,3.455-4.64,3.456A10.37,10.37,0,0,1-1179.112-4828.862Zm160.547-9.71c2.391,2.44,3.52,6.176,1.251,8.52C-1019.624-4831.414-1019.712-4835.308-1018.565-4838.572Zm-142.877,0c1.146,3.264,1.058,7.16-1.251,8.519C-1164.962-4832.4-1163.834-4836.134-1161.442-4838.574Zm156.143,2.966a6.137,6.137,0,0,1,2.019-.972,6.192,6.192,0,0,1,6.649,2.554,10.866,10.866,0,0,1-2.4.971,8.462,8.462,0,0,1-2.174.3C-1003.189-4832.751-1004.836-4833.608-1005.3-4835.607Zm-178.077,1.581a6.193,6.193,0,0,1,6.65-2.554,6.133,6.133,0,0,1,2.019.972c-.464,2-2.11,2.856-4.093,2.857A9.834,9.834,0,0,1-1183.376-4834.027Zm168.508-7.533c2.466,2.1,4.022,5.733,1.97,8.25C-1015.463-4834.537-1015.595-4838.727-1014.868-4841.56Zm-150.271,0c.727,2.834.6,7.022-1.971,8.25C-1169.162-4835.829-1167.6-4839.46-1165.139-4841.561Zm153.642-3.391c2.891,2.039,4.327,5.636,2.644,7.928C-1011.479-4838.028-1011.993-4842.16-1011.5-4844.952Zm-157.013,0c.5,2.791-.017,6.922-2.645,7.927C-1172.836-4839.317-1171.4-4842.914-1168.51-4844.953Zm166.859,4.84a5.705,5.705,0,0,1,2.468-1.4,6.329,6.329,0,0,1,6.2,1.9,9.717,9.717,0,0,1-3.219,1.577,7,7,0,0,1-1.806.252A3.585,3.585,0,0,1-1001.651-4840.112Zm-185.377.5a6.325,6.325,0,0,1,6.2-1.9,5.718,5.718,0,0,1,2.47,1.4,3.589,3.589,0,0,1-3.65,2.335A8.828,8.828,0,0,1-1187.028-4839.608Zm178.537-9.1c2.733,1.583,4.729,4.742,3.254,7.55C-1007.86-4841.889-1008.763-4845.884-1008.491-4848.711Zm-163.025,0c.271,2.828-.633,6.821-3.255,7.548C-1176.246-4843.971-1174.248-4847.13-1171.516-4848.711Zm173.015,3.74a6.156,6.156,0,0,1,2.98-1.867,6.225,6.225,0,0,1,5.571,1.316,9.546,9.546,0,0,1-3.856,2.2,5.893,5.893,0,0,1-1.516.212A3.356,3.356,0,0,1-998.5-4844.971Zm-191.557-.553a6.227,6.227,0,0,1,5.572-1.315,6.172,6.172,0,0,1,2.981,1.866,3.357,3.357,0,0,1-3.179,1.86A8.49,8.49,0,0,1-1190.057-4845.524Zm184.143-7.28c2.95,1.369,5.032,4.361,3.832,7.138C-1004.8-4846.185-1005.824-4850-1005.914-4852.8Zm-168.179,0c-.09,2.808-1.111,6.62-3.832,7.137C-1179.123-4848.445-1177.044-4851.437-1174.093-4852.806Zm178.2,2.67a5.518,5.518,0,0,1,3.269-2.359,6.384,6.384,0,0,1,5.05.788,9.27,9.27,0,0,1-4.292,2.853,4.86,4.86,0,0,1-1.25.174A3.237,3.237,0,0,1-995.892-4850.136Zm-196.541-1.572a6.393,6.393,0,0,1,5.05-.789,5.519,5.519,0,0,1,3.269,2.36,3.242,3.242,0,0,1-2.778,1.456C-1188.747-4848.682-1190.888-4849.955-1192.433-4851.708Zm188.644-5.465c2.861,1.041,5.342,3.819,4.355,6.693C-1002.1-4850.768-1003.5-4854.4-1003.789-4857.174Zm-172.429,0c-.289,2.769-1.693,6.405-4.356,6.69C-1181.561-4853.355-1179.08-4856.134-1176.218-4857.174Zm182.364,1.629a5.548,5.548,0,0,1,3.62-2.91,6.492,6.492,0,0,1,4.359.365,8.224,8.224,0,0,1-4.361,3.439,4.411,4.411,0,0,1-1.144.156A3.254,3.254,0,0,1-993.854-4855.545Zm-200.279-2.546a6.486,6.486,0,0,1,4.358-.366,5.554,5.554,0,0,1,3.622,2.909,3.254,3.254,0,0,1-2.474,1.052C-1190.3-4854.5-1192.337-4855.551-1194.132-4858.091Zm191.993-3.674c3.206.857,5.51,3.553,4.832,6.212C-999.934-4855.629-1001.731-4859.166-1002.139-4861.765Zm-175.728,0c-.409,2.6-2.207,6.134-4.832,6.212C-1183.378-4858.213-1181.074-4860.909-1177.867-4861.766Zm185.466.632a5.82,5.82,0,0,1,3.993-3.538,6.346,6.346,0,0,1,3.509.069,7.469,7.469,0,0,1-4.4,4.066,4.055,4.055,0,0,1-1.044.142A3.087,3.087,0,0,1-992.4-4861.134Zm-202.708-3.471a6.355,6.355,0,0,1,3.509-.069,5.817,5.817,0,0,1,3.993,3.539,3.082,3.082,0,0,1-2.053.74C-1191.5-4860.394-1193.686-4861.8-1195.109-4864.6Zm194.1-1.929c2.944.515,5.662,2.73,5.263,5.7-.062,0-.123.005-.184.005C-998.478-4860.823-1000.244-4864.031-1001.012-4866.533Zm-183.246,5.7c-.4-2.975,2.319-5.188,5.263-5.7-.768,2.5-2.533,5.71-5.08,5.71Q-1184.166-4860.824-1184.258-4860.83Zm183.837-10.591c3.554.313,5.772,2.748,5.644,5.178a2.866,2.866,0,0,1-.4.028C-997.524-4866.215-999.592-4869.112-1000.42-4871.421Zm-184.81,5.176c-.127-2.43,2.09-4.865,5.644-5.176-.829,2.309-2.9,5.2-5.249,5.2A2.853,2.853,0,0,1-1185.231-4866.245Zm193.682-.6a5.87,5.87,0,0,1,4.227-4.187,6.389,6.389,0,0,1,2.692-.135,12.4,12.4,0,0,1-.547,1.244,7.061,7.061,0,0,1-3.856,3.488,3.229,3.229,0,0,1-.837.114A2.991,2.991,0,0,1-991.548-4866.84Zm-203.282-3.08a12.316,12.316,0,0,1-.547-1.245,6.407,6.407,0,0,1,2.692.135,5.871,5.871,0,0,1,4.226,4.188,2.989,2.989,0,0,1-1.677.523C-1191.96-4866.318-1193.76-4867.994-1194.83-4869.919Zm194.464-6.452c3.129.012,5.989,2.013,5.975,4.633a2.821,2.821,0,0,1-.617.068C-997.246-4871.67-999.418-4874.256-1000.366-4876.371Zm-185.25,4.633c-.014-2.622,2.846-4.623,5.975-4.635-.949,2.115-3.123,4.7-5.36,4.7A2.8,2.8,0,0,1-1185.616-4871.738Zm194.308-.859a5.9,5.9,0,0,1,4.44-4.876,6.234,6.234,0,0,1,1.8-.214,11.888,11.888,0,0,1-.4,1.277c-.69,1.805-2.121,3.58-3.767,4.021a2.971,2.971,0,0,1-.774.1A2.9,2.9,0,0,1-991.307-4872.6Zm-203.231-3.814a11.881,11.881,0,0,1-.4-1.276,6.253,6.253,0,0,1,1.8.213,5.9,5.9,0,0,1,4.439,4.875,2.909,2.909,0,0,1-1.3.313C-1191.96-4872.287-1193.742-4874.329-1194.539-4876.412Zm193.681-4.919c2.822-.223,5.941,1.283,6.257,4.087-.031.01-.059.02-.088.027a2.851,2.851,0,0,1-.736.095C-997.569-4877.122-999.828-4879.4-1000.857-4881.332Zm-184.549,4.087c.315-2.806,3.435-4.311,6.258-4.088-1.032,1.927-3.289,4.209-5.433,4.209A2.823,2.823,0,0,1-1185.406-4877.244Zm193.716-1.1a5.983,5.983,0,0,1,4.535-5.574,6.113,6.113,0,0,1,.953-.179c-.508,3.538-2.2,5.341-3.832,5.779h0a3.1,3.1,0,0,1-.8.108A2.722,2.722,0,0,1-991.69-4878.343Zm-202.116-5.754a6.256,6.256,0,0,1,.953.179,5.987,5.987,0,0,1,4.537,5.574,2.762,2.762,0,0,1-.859.135C-1191.024-4878.209-1193.214-4879.976-1193.806-4884.1Zm191.905-2.145c2.766-.445,6.1.917,6.5,3.542a2.907,2.907,0,0,1-.3.1,2.892,2.892,0,0,1-.752.1C-998.518-4882.508-1000.8-4884.525-1001.9-4886.242Zm-182.7,3.54c.4-2.624,3.729-3.986,6.5-3.542-1.1,1.719-3.384,3.735-5.45,3.736A2.834,2.834,0,0,1-1184.6-4882.7Zm191.912-1.3a6.068,6.068,0,0,1,4.587-6.285c.031-.007.064-.017.1-.023-.093,3.755-1.771,5.8-3.471,6.252a2.823,2.823,0,0,1-.738.1A2.6,2.6,0,0,1-992.69-4884ZM-1192-4890.316l.1.025a6.067,6.067,0,0,1,4.589,6.284,2.589,2.589,0,0,1-.481.044C-1189.712-4883.963-1191.894-4886.02-1192-4890.316Zm188.521-.712c3.378-.827,6.216.972,6.68,2.982a2.493,2.493,0,0,1-.479.178,3.056,3.056,0,0,1-.793.1C-1000.039-4887.768-1002.282-4889.461-1003.479-4891.028Zm-179.73,2.981c.466-2.012,3.3-3.81,6.682-2.982-1.2,1.568-3.441,3.26-5.409,3.261A2.907,2.907,0,0,1-1183.209-4888.047Zm188.937-1.478c-.682-2.622,1.109-5.672,3.816-6.766.3,3.194-.873,6.122-2.938,6.675a2.751,2.751,0,0,1-.726.094C-994.171-4889.522-994.221-4889.523-994.272-4889.525Zm-195.279-6.767c2.707,1.094,4.5,4.144,3.817,6.765-.054,0-.107,0-.159,0C-1188.4-4889.523-1189.88-4892.744-1189.551-4896.292Zm8.3,3.08c.605-1.88,3.348-3.361,6.419-2.539.135.037.27.077.406.122-1.261,1.4-3.454,2.8-5.324,2.8A2.944,2.944,0,0,1-1181.248-4893.213Zm175.665-2.415c.135-.046.272-.086.406-.123,3.071-.822,5.813.657,6.419,2.539a2.727,2.727,0,0,1-.661.271,3.238,3.238,0,0,1-.841.106C-1002.13-4892.834-1004.323-4894.231-1005.583-4895.628Zm12.057-6.325c.888,4.023-.664,6.551-2.45,7.03a2.553,2.553,0,0,1-.443.077C-997.363-4897.222-996.106-4900.462-993.526-4901.953Zm-192.954,0c2.579,1.489,3.837,4.729,2.894,7.106C-1185.546-4895-1187.441-4897.6-1186.48-4901.954Zm7.74,3.817c.726-1.725,3.287-2.9,6.025-2.162a7.042,7.042,0,0,1,.906.311,8.474,8.474,0,0,1-5.172,2.35A3.052,3.052,0,0,1-1178.74-4898.137Zm170.543-1.85a6.983,6.983,0,0,1,.906-.312c2.738-.733,5.3.437,6.025,2.162a2.69,2.69,0,0,1-.847.385,3.511,3.511,0,0,1-.913.114A8.474,8.474,0,0,1-1008.2-4899.987Zm11.017-7.247c1.1,3.122.553,6.664-1.805,7.3h0c-.047.012-.094.024-.141.034C-1000.345-4902.26-999.4-4905.494-997.18-4907.234Zm-185.647,0c2.218,1.739,3.165,4.973,1.95,7.333C-1183.357-4900.43-1183.944-4904.052-1182.828-4907.235Zm171.532,3.184a6.717,6.717,0,0,1,1.348-.525c2.463-.659,4.837.266,5.652,1.815a2.79,2.79,0,0,1-1.034.514,3.943,3.943,0,0,1-1.02.125A8.628,8.628,0,0,1-1011.3-4904.052Zm-164.416,1.289c.814-1.551,3.188-2.475,5.652-1.815a6.678,6.678,0,0,1,1.347.525,8.629,8.629,0,0,1-4.945,1.929A3.211,3.211,0,0,1-1175.711-4902.763Zm174.351-9.3c1.867,3.8.806,6.782-1,7.438A6.215,6.215,0,0,1-1001.36-4912.061Zm-177.286,0a6.214,6.214,0,0,1,1,7.436C-1179.453-4905.279-1180.515-4908.259-1178.647-4912.062Zm163.793,4.291a6.556,6.556,0,0,1,1.751-.762c2.241-.6,4.421.145,5.275,1.5a2.862,2.862,0,0,1-1.235.662,4.432,4.432,0,0,1-1.145.14A8.9,8.9,0,0,1-1014.854-4907.771Zm-157.326.736c.854-1.354,3.035-2.1,5.276-1.5a6.56,6.56,0,0,1,1.751.763,8.909,8.909,0,0,1-4.649,1.54A3.4,3.4,0,0,1-1172.18-4907.035Zm166.147-9.37c1.789,2.757,2.082,6.29-.043,7.418A6.24,6.24,0,0,1-1006.033-4916.4Zm-167.943,0a6.24,6.24,0,0,1,.043,7.42C-1176.057-4910.115-1175.763-4913.649-1173.975-4916.406Zm155.171,5.315a6.388,6.388,0,0,1,2.114-1.008,4.653,4.653,0,0,1,4.907,1.2,2.979,2.979,0,0,1-1.446.829,5.08,5.08,0,0,1-1.309.159A9.053,9.053,0,0,1-1018.8-4911.091Zm-149.421.195a4.656,4.656,0,0,1,4.908-1.2,6.387,6.387,0,0,1,2.114,1.006,9.067,9.067,0,0,1-4.269,1.182A3.66,3.66,0,0,1-1168.225-4910.9Zm157.1-9.311c2.062,2.5,2.794,5.9.89,7.288A6.308,6.308,0,0,1-1011.125-4920.207Zm-157.757,0a6.309,6.309,0,0,1-.889,7.288C-1171.676-4914.31-1170.944-4917.7-1168.882-4920.208Zm145.953.621c3.728-.251,8.092,1.667,8.684,4.949a4.423,4.423,0,0,1-.8.072C-1017.962-4914.565-1021.216-4917.246-1022.928-4919.587Zm-142.835,4.948c.6-3.282,4.958-5.2,8.686-4.949-1.712,2.342-4.966,5.021-7.88,5.021A4.389,4.389,0,0,1-1165.764-4914.639Z" transform="translate(1826 10543.999)" stroke="rgba(0,0,0,0)" stroke-miterlimit="10" stroke-width="1" fill="url(#linear-gradient)"/>
  </g>
</svg>
