<svg xmlns="http://www.w3.org/2000/svg" width="214.734" height="40" viewBox="0 0 214.734 40">
  <g id="teachmint-logo-dark" style="isolation: isolate">
    <path id="Path_17935" data-name="Path 17935" d="M30.172.68a.681.681,0,0,0-.941-.613L19.86,4.075a.678.678,0,0,0-.411.62V6.137a.548.548,0,0,0,.761.5L29.692,2.6a.822.822,0,0,0,.5-.76Z" transform="translate(0.825 0.001)" fill="#1da1f2" fill-rule="evenodd"/>
    <path id="Path_17936" data-name="Path 17936" d="M18.21,4.076,8.806.061A.649.649,0,0,0,8.543,0a.631.631,0,0,0-.36.115.645.645,0,0,0-.306.559V1.755a.908.908,0,0,0,.551.836L17.9,6.639a.523.523,0,0,0,.721-.479V4.7a.674.674,0,0,0-.414-.62Z" transform="translate(0.334)" fill="#1da1f2" fill-rule="evenodd"/>
    <path id="Path_17937" data-name="Path 17937" d="M19.867,8.16a.656.656,0,0,0-.4.613v1.586a.36.36,0,0,0,.483.321L30.19,6.3l.678-.285.674-.288,2.09-.912A.872.872,0,0,0,34.161,4V3.063a.66.66,0,0,0-.3-.559.678.678,0,0,0-.36-.115.631.631,0,0,0-.27.061l-1.7.721-.674.285-.674.288Z" transform="translate(0.825 0.101)" fill="#1da1f2" fill-rule="evenodd"/>
    <path id="Path_17938" data-name="Path 17938" d="M18.372,8.16,8.028,3.73l-.674-.281L6.68,3.157,4.972,2.436a.746.746,0,0,0-.263-.054.667.667,0,0,0-.674.663V4.091a.721.721,0,0,0,.436.667l2.2.937.674.292.678.288,10.193,4.354a.411.411,0,0,0,.569-.36V8.776a.659.659,0,0,0-.411-.616Z" transform="translate(0.171 0.101)" fill="#1da1f2" fill-rule="evenodd"/>
    <path id="Path_17939" data-name="Path 17939" d="M38.3,5.221a.651.651,0,0,0-.926-.616l-1.856.789-.674.292-.674.288L31.544,7.1l-.674.288-.678.292-10.308,4.4a.663.663,0,0,0-.411.616v6.61a.246.246,0,0,0,0-.054v9.839a.574.574,0,0,0,.018.162v9.883a.635.635,0,0,0,.321.566.657.657,0,0,0,.649.036l17.617-8.92a.66.66,0,0,0,.36-.6Z" transform="translate(0.826 0.193)" fill="#1da1f2" fill-rule="evenodd"/>
    <path id="Path_17940" data-name="Path 17940" d="M18.544,12.08,8.189,7.647l-.674-.288-.678-.285L4.206,5.949l-.674-.292-.674-.288L1.009,4.58a.721.721,0,0,0-.27-.054.674.674,0,0,0-.36.112.656.656,0,0,0-.3.555L0,30.217a.671.671,0,0,0,.36.6l17.617,8.92a.692.692,0,0,0,.656-.029.67.67,0,0,0,.324-.573V12.7a.663.663,0,0,0-.414-.616Z" transform="translate(0 0.192)" fill="#1da1f2" fill-rule="evenodd"/>
    <path id="Path_17941" data-name="Path 17941" d="M14.933,28.974a.739.739,0,0,1-1.114-.638V15.2a.742.742,0,0,1,1.11-.645l5.691,3.276,5.691,3.276a.743.743,0,0,1,0,1.283l-5.684,3.291Z" transform="translate(0.586 0.613)" fill="#fff" fill-rule="evenodd"/>
    <path id="Path_17942" data-name="Path 17942" d="M67.96,10.179H60.068V32.354H55.2V10.179H47.306v-4H67.96Z" transform="translate(2.006 0.262)" fill="#1f3965"/>
    <path id="Path_17943" data-name="Path 17943" d="M77.563,20.634A5.118,5.118,0,0,0,77.31,19a3.769,3.769,0,0,0-.724-1.358,3.307,3.307,0,0,0-1.249-.905A4.1,4.1,0,0,0,73.6,16.4a4.173,4.173,0,0,0-3.059,1.1,5.448,5.448,0,0,0-1.412,3.132Zm-8.526,2.7a8.916,8.916,0,0,0,.507,2.48,5.175,5.175,0,0,0,1.05,1.72,4.277,4.277,0,0,0,1.539,1.014,5.841,5.841,0,0,0,1.991.326,6.059,6.059,0,0,0,1.864-.253,8.322,8.322,0,0,0,1.376-.561q.6-.308,1.032-.561a1.78,1.78,0,0,1,.869-.253.925.925,0,0,1,.833.416l1.285,1.629a7.654,7.654,0,0,1-1.665,1.466,9.909,9.909,0,0,1-1.937.941,10.75,10.75,0,0,1-2.046.489,14.439,14.439,0,0,1-2.009.145,10.047,10.047,0,0,1-3.6-.634,8.226,8.226,0,0,1-2.9-1.9A9.03,9.03,0,0,1,65.29,26.68a12.124,12.124,0,0,1-.706-4.308,10.206,10.206,0,0,1,.616-3.566,8.556,8.556,0,0,1,1.756-2.914,8.366,8.366,0,0,1,2.806-1.973,9.306,9.306,0,0,1,3.747-.724,9.094,9.094,0,0,1,3.24.561A7,7,0,0,1,79.3,15.4a7.378,7.378,0,0,1,1.665,2.643,9.645,9.645,0,0,1,.615,3.566,2.964,2.964,0,0,1-.217,1.376.909.909,0,0,1-.833.344Z" transform="translate(2.738 0.559)" fill="#1f3965"/>
    <path id="Path_17944" data-name="Path 17944" d="M93.974,24.13a23.516,23.516,0,0,0-3.258.344,8.462,8.462,0,0,0-2.118.615,2.785,2.785,0,0,0-1.14.887,1.927,1.927,0,0,0-.344,1.1,1.953,1.953,0,0,0,.688,1.683,3.062,3.062,0,0,0,1.828.507A5.331,5.331,0,0,0,92,28.782a7.173,7.173,0,0,0,1.973-1.521ZM83.728,16.075a11.02,11.02,0,0,1,7.711-2.932,7.426,7.426,0,0,1,2.914.543,6,6,0,0,1,2.172,1.484,6.16,6.16,0,0,1,1.34,2.263,8.577,8.577,0,0,1,.471,2.9v11.73H96.309a2.137,2.137,0,0,1-.978-.181,1.363,1.363,0,0,1-.543-.778l-.4-1.339a17.629,17.629,0,0,1-1.376,1.122,8.463,8.463,0,0,1-1.394.8,7.1,7.1,0,0,1-1.557.489,8.364,8.364,0,0,1-1.81.181,7.326,7.326,0,0,1-2.172-.308,4.883,4.883,0,0,1-1.72-.959,4.267,4.267,0,0,1-1.122-1.575,5.586,5.586,0,0,1-.4-2.19,4.281,4.281,0,0,1,.235-1.394,4.157,4.157,0,0,1,.76-1.339,6.62,6.62,0,0,1,1.394-1.195,9.035,9.035,0,0,1,2.082-.977,17.752,17.752,0,0,1,2.9-.67,27.727,27.727,0,0,1,3.765-.326V20.329a4.029,4.029,0,0,0-.8-2.752,2.9,2.9,0,0,0-2.3-.905,5.541,5.541,0,0,0-1.81.253,7.057,7.057,0,0,0-1.249.579q-.543.308-1,.561a1.9,1.9,0,0,1-.977.253,1.324,1.324,0,0,1-.8-.235,2.162,2.162,0,0,1-.525-.579Z" transform="translate(3.512 0.557)" fill="#1f3965"/>
    <path id="Path_17945" data-name="Path 17945" d="M115.091,17.412a2.035,2.035,0,0,1-.4.4.858.858,0,0,1-.543.145,1.266,1.266,0,0,1-.669-.2q-.327-.217-.779-.471a5.053,5.053,0,0,0-1.086-.471,5.3,5.3,0,0,0-3.6.217,3.908,3.908,0,0,0-1.484,1.213,5.608,5.608,0,0,0-.868,1.937,10.254,10.254,0,0,0-.29,2.552,10.316,10.316,0,0,0,.307,2.643,5.891,5.891,0,0,0,.924,1.955,4.054,4.054,0,0,0,1.448,1.195,4.474,4.474,0,0,0,1.919.4,4.839,4.839,0,0,0,1.72-.253,6.031,6.031,0,0,0,1.122-.579q.453-.326.779-.579a1.2,1.2,0,0,1,.76-.272.908.908,0,0,1,.815.416l1.285,1.629a8.332,8.332,0,0,1-1.612,1.466,8.747,8.747,0,0,1-3.729,1.43,13.308,13.308,0,0,1-1.956.145,8.338,8.338,0,0,1-3.24-.634,7.771,7.771,0,0,1-2.661-1.883,9.079,9.079,0,0,1-1.81-3,11.864,11.864,0,0,1-.651-4.073,11.912,11.912,0,0,1,.579-3.783,8.6,8.6,0,0,1,1.738-3.023,7.885,7.885,0,0,1,2.824-2.009,9.733,9.733,0,0,1,3.875-.724,9.149,9.149,0,0,1,3.638.67,8.887,8.887,0,0,1,2.824,1.919Z" transform="translate(4.273 0.559)" fill="#1f3965"/>
    <path id="Path_17946" data-name="Path 17946" d="M122.972,15.8a9.685,9.685,0,0,1,2.389-1.647,6.927,6.927,0,0,1,3.059-.634,6.557,6.557,0,0,1,2.7.525,5.121,5.121,0,0,1,1.955,1.448,6.087,6.087,0,0,1,1.195,2.227,9.193,9.193,0,0,1,.416,2.842v11.82h-4.471V20.563a3.96,3.96,0,0,0-.779-2.625A2.9,2.9,0,0,0,127.062,17a4.659,4.659,0,0,0-2.172.525,7.794,7.794,0,0,0-1.918,1.43V32.383H118.5V5.484h4.471Z" transform="translate(5.024 0.233)" fill="#1f3965"/>
    <path id="Path_17947" data-name="Path 17947" d="M138.1,32.056V13.484h2.734a1.1,1.1,0,0,1,1.14.815l.289,1.376a11.25,11.25,0,0,1,1.014-1,7.04,7.04,0,0,1,1.14-.778,6.07,6.07,0,0,1,1.3-.507,5.659,5.659,0,0,1,1.539-.2,4.272,4.272,0,0,1,2.878.959,5.621,5.621,0,0,1,1.7,2.516A5.51,5.51,0,0,1,152.93,15.1a5.819,5.819,0,0,1,1.429-1.086,6.613,6.613,0,0,1,1.648-.615,8.072,8.072,0,0,1,1.773-.2,7.416,7.416,0,0,1,2.734.471,5.242,5.242,0,0,1,2.009,1.376,5.957,5.957,0,0,1,1.231,2.208,9.429,9.429,0,0,1,.435,2.987v11.82h-4.471V20.236a3.935,3.935,0,0,0-.779-2.661,2.843,2.843,0,0,0-2.281-.905,3.475,3.475,0,0,0-1.285.235,3.008,3.008,0,0,0-1.72,1.792,4.331,4.331,0,0,0-.253,1.539v11.82h-4.49V20.236a4.011,4.011,0,0,0-.76-2.715,2.751,2.751,0,0,0-2.19-.851,3.61,3.61,0,0,0-1.828.489,5.959,5.959,0,0,0-1.556,1.3V32.056Z" transform="translate(5.855 0.559)" fill="#1f3965"/>
    <path id="Path_17948" data-name="Path 17948" d="M171.858,13.809V32.381h-4.489V13.809Zm.616-5.412a2.54,2.54,0,0,1-.236,1.086,2.893,2.893,0,0,1-.634.887,2.994,2.994,0,0,1-.9.616,2.909,2.909,0,0,1-1.123.217,2.861,2.861,0,0,1-1.1-.217,3.032,3.032,0,0,1-1.5-1.5,2.727,2.727,0,0,1-.218-1.086,2.9,2.9,0,0,1,.218-1.122,3,3,0,0,1,.615-.905,2.8,2.8,0,0,1,.887-.6,2.671,2.671,0,0,1,1.1-.235,2.715,2.715,0,0,1,1.123.235,2.747,2.747,0,0,1,.9.6,2.834,2.834,0,0,1,.634.905A2.7,2.7,0,0,1,172.474,8.4Z" transform="translate(7.07 0.235)" fill="#1f3965"/>
    <path id="Path_17949" data-name="Path 17949" d="M180.205,15.765a11.762,11.762,0,0,1,1.176-1.032,7.255,7.255,0,0,1,1.322-.815,6.937,6.937,0,0,1,1.5-.525,7.162,7.162,0,0,1,1.738-.2,6.562,6.562,0,0,1,2.7.525,5.126,5.126,0,0,1,1.954,1.448,6.057,6.057,0,0,1,1.195,2.227,9.161,9.161,0,0,1,.417,2.842v11.82h-4.471V20.236a3.96,3.96,0,0,0-.779-2.625,2.9,2.9,0,0,0-2.371-.941,4.655,4.655,0,0,0-2.172.525,7.8,7.8,0,0,0-1.919,1.43V32.056h-4.471V13.484h2.733a1.1,1.1,0,0,1,1.14.815Z" transform="translate(7.463 0.559)" fill="#1f3965"/>
    <path id="Path_17950" data-name="Path 17950" d="M201.646,32.565a4.929,4.929,0,0,1-3.73-1.358,5.323,5.323,0,0,1-1.285-3.783V17.052h-1.9a.87.87,0,0,1-.615-.235.918.918,0,0,1-.254-.706V14.337l2.988-.489.941-5.068a.994.994,0,0,1,.344-.561,1.022,1.022,0,0,1,.652-.2H201.1v5.847h4.96v3.186H201.1V27.117a2.03,2.03,0,0,0,.416,1.358,1.5,1.5,0,0,0,1.177.489,2.212,2.212,0,0,0,.688-.09,3.846,3.846,0,0,0,.488-.217c.145-.072.272-.139.38-.2a.585.585,0,0,1,.326-.109.482.482,0,0,1,.325.109,1.292,1.292,0,0,1,.272.29l1.34,2.172a6.769,6.769,0,0,1-2.244,1.231A8.358,8.358,0,0,1,201.646,32.565Z" transform="translate(8.219 0.34)" fill="#1f3965"/>
  </g>
</svg>
