<svg width="48" height="48" viewBox="0 0 48 48" fill="none" xmlns="http://www.w3.org/2000/svg">
<path fill-rule="evenodd" clip-rule="evenodd" d="M31 19C31 21.1217 30.1571 23.1566 28.6569 24.6569C27.1566 26.1571 25.1217 27 23 27C20.8783 27 18.8434 26.1571 17.3431 24.6569C15.8429 23.1566 15 21.1217 15 19C15 16.8783 15.8429 14.8434 17.3431 13.3431C18.8434 11.8429 20.8783 11 23 11C25.1217 11 27.1566 11.8429 28.6569 13.3431C30.1571 14.8434 31 16.8783 31 19ZM33.322 31.6338C25.564 30.8308 20.486 30.7528 12.69 31.6158V31.6148C11.9491 31.698 11.2649 32.0516 10.7686 32.608C10.2722 33.1643 9.99855 33.8842 10 34.6298C9.99951 35.0447 10.0846 35.4553 10.2499 35.8359C10.4153 36.2165 10.6574 36.559 10.961 36.8418C15.202 40.7768 18.844 42.9858 22.727 42.9998C26.599 43.0148 30.409 40.8428 34.984 36.8548C35.421 36.4712 35.7367 35.9686 35.8924 35.4084C36.0481 34.8482 36.0371 34.2547 35.8607 33.7007C35.6844 33.1466 35.3503 32.656 34.8994 32.2889C34.4485 31.9218 33.9003 31.6941 33.322 31.6338Z" fill="url(#paint0_linear_124_989)"/>
<path d="M22.9999 9.8335C17.9454 9.8335 13.8333 13.9457 13.8333 19.0002V22.7979C13.8333 23.7366 14.6555 24.5002 15.6666 24.5002H16.5833C16.8264 24.5002 17.0595 24.4036 17.2314 24.2317C17.4033 24.0598 17.4999 23.8266 17.4999 23.5835V18.8691C17.4999 18.626 17.4033 18.3928 17.2314 18.2209C17.0595 18.049 16.8264 17.9524 16.5833 17.9524H15.7509C16.2606 14.4049 19.3131 11.6668 22.9999 11.6668C26.6868 11.6668 29.7393 14.4049 30.2489 17.9524H29.4166C29.1735 17.9524 28.9403 18.049 28.7684 18.2209C28.5965 18.3928 28.4999 18.626 28.4999 18.8691V24.5002C28.4999 25.5112 27.6777 26.3335 26.6666 26.3335H24.8333V25.4168H21.1666V28.1668H26.6666C28.6888 28.1668 30.3333 26.5223 30.3333 24.5002C31.3443 24.5002 32.1666 23.7366 32.1666 22.7979V19.0002C32.1666 13.9457 28.0544 9.8335 22.9999 9.8335Z" fill="#1EEFB0"/>
<circle cx="24" cy="24" r="23" stroke="#1EEFB0" stroke-width="2"/>
<defs>
<linearGradient id="paint0_linear_124_989" x1="24.5379" y1="8.24999" x2="24.6551" y2="42.9944" gradientUnits="userSpaceOnUse">
<stop stop-color="#FFF5E9"/>
<stop offset="0.6046" stop-color="#7D95E6"/>
<stop offset="0.9986" stop-color="#3F28DD"/>
</linearGradient>
</defs>
</svg>
