<svg width="47" height="49" viewBox="0 0 47 49" fill="none" xmlns="http://www.w3.org/2000/svg">
<g clip-path="url(#clip0_428_1955)">
<path d="M24.9695 20.9076V4.30734C24.9459 3.9764 24.8035 3.66505 24.5682 3.43046C24.333 3.19586 24.0208 3.05377 23.689 3.03027C22.5193 3.03296 21.3598 3.24723 20.2667 3.66268C16.5055 5.02391 13.2886 7.56541 11.0992 10.9055C9.11634 13.9617 8.00864 17.5002 7.89581 21.1387C7.78297 24.7772 8.66927 28.3772 10.4589 31.5498C14.5138 38.148 22.1951 40.9134 29.6646 39.8492C40.1203 38.3593 43.7483 28.9957 43.9617 21.9718C43.9691 21.8022 43.9411 21.6328 43.8793 21.4745C43.8176 21.3162 43.7235 21.1725 43.6031 21.0524C43.4827 20.9323 43.3386 20.8385 43.1799 20.7769C43.0212 20.7154 42.8514 20.6874 42.6812 20.6948H24.9695V20.9076Z" fill="url(#paint0_linear_428_1955)"/>
<path d="M29.0181 8.77645V1.75414C29.0181 0.264232 29.4449 -0.161456 31.1522 0.0513882C35.1394 0.528643 38.8547 2.3136 41.7141 5.12577C44.5735 7.93794 46.4151 11.6179 46.9494 15.5875C47.1628 17.2902 46.736 17.9287 45.0286 17.9287H30.9449C29.6644 17.9287 29.0242 17.503 29.0242 16.0131L29.0181 8.77645Z" fill="#18253E"/>
<path d="M0.000180268 38.3586C0.0104698 37.0118 0.291128 35.6808 0.825595 34.444C1.36006 33.2071 2.13751 32.0896 3.11206 31.1574C4.08661 30.2251 5.23853 29.4969 6.49983 29.0159C7.76114 28.5348 9.10628 28.3106 10.4559 28.3564C13.2008 28.3847 15.8221 29.4992 17.743 31.455C19.664 33.4107 20.7272 36.0474 20.6989 38.785C20.6706 41.5226 19.5531 44.1369 17.5921 46.0527C15.6311 47.9685 12.9874 49.029 10.2425 49.0007C7.48267 48.904 4.86931 47.7385 2.95703 45.7515C1.04475 43.7646 -0.0159028 41.1126 0.000180268 38.3586Z" fill="#33EEB1"/>
<path d="M11.5153 36.4434H6.60217C6.43237 36.4434 6.26952 36.3762 6.14945 36.2564C6.02938 36.1367 5.96193 35.9743 5.96193 35.8049C5.96193 35.6356 6.02938 35.4732 6.14945 35.3534C6.26952 35.2337 6.43237 35.1664 6.60217 35.1664H11.7333C11.7333 34.9535 11.7333 34.7407 11.5199 34.7407C11.2751 34.3413 10.9294 34.0131 10.5174 33.789C10.1054 33.5648 9.64153 33.4526 9.17234 33.4636H6.82633C6.61292 33.4636 6.3995 33.2508 6.18609 33.2508C5.97268 32.8251 6.18609 32.3994 6.82633 32.3994H14.0808C14.2506 32.3994 14.4135 32.4667 14.5336 32.5864C14.6536 32.7062 14.7211 32.8686 14.7211 33.0379C14.7211 33.2073 14.6536 33.3697 14.5336 33.4895C14.4135 33.6092 14.2506 33.6765 14.0808 33.6765H12.1601C12.3735 34.315 12.8004 34.9535 13.0138 35.5921H13.8674C14.0372 35.5921 14.2001 35.6593 14.3201 35.7791C14.4402 35.8988 14.5077 36.0613 14.5077 36.2306C14.5077 36.4 14.4402 36.5624 14.3201 36.6821C14.2001 36.8019 14.0372 36.8691 13.8674 36.8691H12.8004C12.3735 38.7847 10.6662 39.8489 8.10527 39.6361C8.31868 39.8489 8.5321 39.8489 8.5321 40.0618L12.3705 43.8899L12.5839 44.1028C12.687 44.2207 12.7438 44.3719 12.7438 44.5284C12.7438 44.685 12.687 44.8362 12.5839 44.9541C12.3705 45.167 12.157 45.167 11.7302 44.9541L11.5153 44.7428C9.81258 43.0416 8.10527 41.3312 6.18609 39.6361C5.97268 39.4233 5.75926 39.2104 5.97268 38.7847C6.18609 38.359 6.3995 38.359 6.82633 38.359H9.17234C9.72815 38.3725 10.2703 38.1865 10.7003 37.835C11.1303 37.4834 11.4195 36.9896 11.5153 36.4434Z" fill="white"/>
</g>
<defs>
<linearGradient id="paint0_linear_428_1955" x1="5.18048" y1="0.400384" x2="45.0937" y2="43.5058" gradientUnits="userSpaceOnUse">
<stop stop-color="#FFF5E9"/>
<stop offset="0.605" stop-color="#7D95E6"/>
<stop offset="1" stop-color="#3F28DD"/>
</linearGradient>
<clipPath id="clip0_428_1955">
<rect width="47" height="49" fill="white"/>
</clipPath>
</defs>
</svg>
