<svg width="48" height="48" viewBox="0 0 48 48" fill="none" xmlns="http://www.w3.org/2000/svg">
<path d="M39.9804 23.051H33.419C33.419 23.532 33.4315 23.9942 33.419 24.4588C33.419 24.684 33.3648 24.9059 33.261 25.106C33.1572 25.306 33.0068 25.4782 32.8224 25.6082C32.6381 25.7383 32.4251 25.8223 32.2015 25.8532C31.9778 25.8841 31.75 25.8611 31.5371 25.786C31.2688 25.6966 31.0346 25.5269 30.8663 25.3001C30.698 25.0733 30.6037 24.8003 30.5962 24.5182C30.5837 24.2836 30.5899 24.0372 30.5899 23.8003V23.051H24.9507V19.2601C25.4167 19.1863 25.8618 19.0147 26.2566 18.7568C26.6514 18.499 26.9869 18.1606 27.241 17.7639C27.624 17.1639 27.8018 16.4562 27.7476 15.7469C27.6692 14.2922 26.6961 13.2301 24.9507 12.7178V8.00244C25.7019 8.10255 26.4405 8.15886 27.1462 8.32076C33.5664 9.81303 37.69 13.7416 39.5107 20.0524C39.6929 20.8287 39.8309 21.6147 39.9239 22.4065C39.9427 22.5004 39.9615 22.588 39.9804 22.6748V23.051Z" fill="#1EEFB0"/>
<path d="M24.9326 39.9502V33.393C24.4511 33.393 23.9877 33.4055 23.5212 33.393C23.2953 33.3924 23.0729 33.3381 22.8723 33.2346C22.6717 33.1311 22.4988 32.9814 22.3678 32.7979C22.2369 32.6143 22.1517 32.4023 22.1194 32.1793C22.087 31.9564 22.1085 31.729 22.1819 31.5159C22.2726 31.2479 22.4437 31.0141 22.6721 30.8462C22.9004 30.6783 23.1749 30.5845 23.4585 30.5774C23.9336 30.5586 24.4096 30.5711 24.9224 30.5711V24.94H28.7268C28.8008 25.4113 28.9758 25.8612 29.24 26.259C29.5041 26.6568 29.8511 26.993 30.2574 27.2448C30.8683 27.63 31.5896 27.8035 32.3094 27.7383C33.742 27.6382 34.8248 26.6332 35.289 24.9282H39.9818V25.3029C39.963 25.3811 39.9442 25.4593 39.9317 25.5375C39.825 26.1929 39.7505 26.8553 39.6125 27.5045C38.9397 30.5 37.4146 33.2383 35.2201 35.3905C33.0256 37.5428 30.2551 39.0177 27.241 39.6381C26.6027 39.7633 25.9519 39.8446 25.3074 39.951L24.9326 39.9502Z" fill="#721FF3"/>
<path d="M22.6855 39.9518C22.1726 39.8736 21.6528 39.8016 21.1463 39.7171C17.9111 39.1581 14.9341 37.5985 12.6364 35.2591C10.2142 32.8489 8.64026 29.7206 8.15055 26.3431C8.07841 25.8863 8.05018 25.4304 8 24.9439H14.57C14.57 24.4441 14.5574 23.9819 14.57 23.5197C14.57 23.2953 14.6236 23.0741 14.7264 22.8745C14.8292 22.6749 14.9783 22.5026 15.1612 22.3719C15.3441 22.2413 15.5556 22.156 15.7781 22.1231C16.0007 22.0903 16.2279 22.1108 16.4409 22.183C16.7047 22.27 16.9359 22.4347 17.1039 22.6555C17.2719 22.8763 17.3688 23.1427 17.3818 23.4196C17.4006 23.9006 17.3818 24.3941 17.3818 24.9118H23.032V28.7152C22.5525 28.7935 22.0958 28.9748 21.6935 29.2466C21.2912 29.5185 20.9531 29.8744 20.7025 30.2896C20.3334 30.9002 20.173 31.6138 20.2453 32.3231C20.352 33.7309 21.365 34.8086 23.0548 35.2646V39.9573L22.6855 39.9518Z" fill="#721FF3"/>
<path d="M19.27 23.0323C19.1397 22.2398 18.7279 21.5204 18.1099 21.0057C17.4919 20.4909 16.7089 20.215 15.9039 20.2284C15.1295 20.2538 14.3881 20.5466 13.8062 21.0569C13.2244 21.5672 12.8384 22.2633 12.7141 23.026H8.05029C8.20711 15.8502 14.3639 8.50617 23.0423 8.04395V14.5761C23.5426 14.5761 24.006 14.5699 24.4686 14.5824C24.6935 14.5825 24.9151 14.6363 25.1149 14.7391C25.3147 14.842 25.487 14.991 25.6174 15.1737C25.7478 15.3565 25.8326 15.5676 25.8646 15.7896C25.8967 16.0116 25.875 16.2381 25.8016 16.4501C25.7102 16.7169 25.5399 16.9498 25.3132 17.1182C25.0864 17.2866 24.8138 17.3825 24.5313 17.3933C24.2875 17.4058 24.0499 17.3995 23.8115 17.3995H23.0643V23.0307L19.27 23.0323Z" fill="#721FF3"/>
<circle cx="24" cy="24" r="23" stroke="#1EEFB0" stroke-width="2"/>
</svg>
