<svg width="307" height="355" viewBox="0 0 307 355" fill="none" xmlns="http://www.w3.org/2000/svg">
<g filter="url(#filter0_di_94_620)">
<circle cx="168.807" cy="143.138" r="119.798" stroke="#1EEFB0" stroke-width="2" shape-rendering="crispEdges"/>
</g>
<circle cx="57.1096" cy="101.768" r="25.4763" fill="white" stroke="#1EEFB0" stroke-width="2"/>
<path d="M66.3013 94.324L58.0274 88.808C57.7555 88.6269 57.4362 88.5303 57.1095 88.5303C56.7829 88.5303 56.4635 88.6269 56.1917 88.808L47.9178 94.324C47.6912 94.4751 47.5053 94.6798 47.3768 94.92C47.2483 95.1601 47.181 95.4282 47.1809 95.7006V115.007H53.8V107.56C53.8 107.103 54.1702 106.733 54.6274 106.733H59.5917C60.0488 106.733 60.4191 107.103 60.4191 107.56V115.007H67.0382V95.7011C67.0382 95.1478 66.7615 94.6307 66.3013 94.324ZM57.1095 101.768C54.8249 101.768 52.9726 99.9161 52.9726 97.6315C52.9726 95.3469 54.8249 93.4946 57.1095 93.4946C59.3942 93.4946 61.2465 95.3469 61.2465 97.6315C61.2465 99.9161 59.3942 101.768 57.1095 101.768Z" fill="url(#paint0_linear_94_620)"/>
<path d="M59.1778 97.6314H57.9368V95.563C57.9368 95.3344 57.7516 95.1493 57.5231 95.1493H56.6957C56.4671 95.1493 56.282 95.3344 56.282 95.563V98.8725C56.282 99.1011 56.4671 99.2862 56.6957 99.2862H59.1778C59.4064 99.2862 59.5915 99.1011 59.5915 98.8725V98.0451C59.5915 97.8166 59.4064 97.6314 59.1778 97.6314Z" fill="#1EEFB0"/>
<path d="M40.5618 100.271V114.337C40.5618 114.794 40.932 115.164 41.3892 115.164H45.5261V98.6165H42.2165C41.3028 98.6165 40.5618 99.3575 40.5618 100.271ZM72.0024 98.6165H68.6929V115.164H72.8298C73.2869 115.164 73.6572 114.794 73.6572 114.337V100.271C73.6572 99.3575 72.9162 98.6165 72.0024 98.6165Z" fill="#1EEFB0"/>
<circle cx="279.676" cy="101.768" r="25.4763" fill="white" stroke="#1EEFB0" stroke-width="2"/>
<g clip-path="url(#clip0_94_620)">
<path d="M277.753 98.2946C277.467 97.3256 276.094 97.3256 275.808 98.2946L275.739 98.5299C275.696 98.675 275.622 98.8087 275.52 98.9212C275.419 99.0336 275.294 99.122 275.155 99.1799C275.015 99.2378 274.864 99.2637 274.713 99.2556C274.562 99.2476 274.415 99.2059 274.282 99.1335L274.067 99.0158C273.179 98.5327 272.208 99.5038 272.692 100.391L272.809 100.606C273.118 101.174 272.825 101.881 272.205 102.063L271.97 102.133C271.001 102.418 271.001 103.792 271.97 104.077L272.205 104.147C272.351 104.189 272.484 104.264 272.597 104.365C272.709 104.466 272.798 104.591 272.855 104.731C272.913 104.871 272.939 105.022 272.931 105.173C272.923 105.324 272.881 105.471 272.809 105.604L272.691 105.818C272.208 106.706 273.179 107.677 274.067 107.193L274.282 107.076C274.415 107.004 274.562 106.962 274.713 106.954C274.864 106.946 275.015 106.972 275.155 107.03C275.294 107.088 275.419 107.176 275.52 107.289C275.622 107.401 275.696 107.535 275.739 107.68L275.808 107.915C276.094 108.884 277.467 108.884 277.753 107.915L277.822 107.68C277.865 107.535 277.94 107.401 278.041 107.289C278.142 107.176 278.267 107.088 278.406 107.03C278.546 106.972 278.697 106.946 278.848 106.954C278.999 106.962 279.146 107.004 279.279 107.076L279.494 107.194C280.382 107.677 281.353 106.706 280.869 105.819L280.752 105.604C280.68 105.471 280.638 105.324 280.63 105.173C280.622 105.022 280.648 104.871 280.706 104.731C280.763 104.591 280.852 104.466 280.964 104.365C281.077 104.264 281.211 104.189 281.356 104.147L281.591 104.077C282.56 103.792 282.56 102.418 281.591 102.133L281.356 102.063C281.211 102.021 281.077 101.946 280.964 101.845C280.852 101.744 280.763 101.619 280.706 101.479C280.648 101.339 280.622 101.188 280.63 101.037C280.638 100.886 280.68 100.739 280.752 100.606L280.87 100.392C281.353 99.5038 280.382 98.5327 279.494 99.0165L279.279 99.1335C279.146 99.2059 278.999 99.2476 278.848 99.2556C278.697 99.2637 278.546 99.2378 278.406 99.1799C278.267 99.122 278.142 99.0336 278.041 98.9212C277.94 98.8087 277.865 98.675 277.822 98.5299L277.753 98.2946V98.2946ZM276.781 105.133C276.243 105.133 275.727 104.919 275.347 104.539C274.966 104.159 274.753 103.643 274.753 103.105C274.753 102.567 274.966 102.051 275.347 101.671C275.727 101.291 276.243 101.077 276.781 101.077C277.318 101.077 277.834 101.291 278.214 101.671C278.594 102.051 278.808 102.567 278.808 103.104C278.808 103.642 278.594 104.158 278.214 104.538C277.834 104.918 277.318 105.132 276.781 105.132V105.133Z" fill="#1EEFB0"/>
</g>
<g clip-path="url(#clip1_94_620)">
<path d="M284.269 95.2233C284.102 94.658 283.301 94.658 283.135 95.2233L283.094 95.3605C283.069 95.4451 283.026 95.5231 282.967 95.5887C282.908 95.6543 282.835 95.7059 282.753 95.7397C282.672 95.7734 282.584 95.7885 282.496 95.7838C282.408 95.7792 282.322 95.7548 282.244 95.7126L282.119 95.644C281.601 95.3621 281.035 95.9286 281.317 96.4462L281.385 96.5718C281.565 96.9028 281.394 97.3151 281.033 97.4217L280.896 97.462C280.331 97.6288 280.331 98.4298 280.896 98.5966L281.033 98.6369C281.118 98.6619 281.196 98.7054 281.261 98.7644C281.327 98.8233 281.379 98.8963 281.412 98.9777C281.446 99.0592 281.461 99.1473 281.456 99.2354C281.452 99.3235 281.427 99.4094 281.385 99.4868L281.317 99.612C281.035 100.13 281.601 100.696 282.119 100.414L282.244 100.346C282.322 100.304 282.408 100.279 282.496 100.275C282.584 100.27 282.672 100.285 282.753 100.319C282.835 100.353 282.908 100.404 282.967 100.47C283.026 100.535 283.069 100.613 283.094 100.698L283.135 100.835C283.301 101.401 284.102 101.401 284.269 100.835L284.31 100.698C284.334 100.613 284.378 100.535 284.437 100.47C284.496 100.404 284.569 100.353 284.65 100.319C284.732 100.285 284.82 100.27 284.908 100.275C284.996 100.279 285.082 100.304 285.159 100.346L285.285 100.415C285.803 100.696 286.369 100.13 286.087 99.6124L286.019 99.4868C285.976 99.4094 285.952 99.3235 285.947 99.2354C285.943 99.1473 285.958 99.0592 285.992 98.9777C286.025 98.8963 286.077 98.8233 286.142 98.7644C286.208 98.7054 286.286 98.6619 286.371 98.6369L286.508 98.5966C287.073 98.4298 287.073 97.6288 286.508 97.462L286.371 97.4217C286.286 97.3967 286.208 97.3532 286.142 97.2942C286.077 97.2353 286.025 97.1624 285.992 97.0809C285.958 96.9994 285.943 96.9113 285.947 96.8232C285.952 96.7352 285.976 96.6492 286.019 96.5718L286.087 96.4466C286.369 95.9286 285.803 95.3621 285.285 95.6444L285.159 95.7126C285.082 95.7548 284.996 95.7792 284.908 95.7838C284.82 95.7885 284.732 95.7734 284.65 95.7397C284.569 95.7059 284.496 95.6543 284.437 95.5887C284.378 95.5231 284.334 95.4451 284.31 95.3605L284.269 95.2233V95.2233ZM283.702 99.2123C283.388 99.2123 283.087 99.0876 282.865 98.8658C282.644 98.6439 282.519 98.343 282.519 98.0293C282.519 97.7156 282.644 97.4147 282.865 97.1928C283.087 96.971 283.388 96.8463 283.702 96.8463C284.016 96.8463 284.316 96.9709 284.538 97.1927C284.76 97.4145 284.884 97.7153 284.884 98.0289C284.884 98.3425 284.76 98.6433 284.538 98.8651C284.316 99.0869 284.016 99.2115 283.702 99.2115V99.2123Z" fill="#1EEFB0"/>
</g>
<path d="M266.615 93.7229C268.235 93.0454 270.559 92.3148 272.818 92.0878C275.253 91.8424 277.319 92.2031 278.516 93.4647V102.387V111.31C276.804 110.34 274.635 110.206 272.633 110.408C270.473 110.627 268.294 111.252 266.615 111.893V93.7229ZM280.347 93.4647C281.545 92.2031 283.61 91.8424 286.046 92.0878C288.305 92.3148 290.629 93.0454 292.249 93.7229V111.893C290.568 111.252 288.391 110.625 286.231 110.409C284.227 110.206 282.059 110.338 280.347 111.31H278.516V102.387V93.4647H280.347ZM279.432 91.8094C277.628 90.2585 275.014 90.0278 272.633 90.2659C269.861 90.546 267.063 91.4963 265.32 92.2892C265.16 92.3619 265.024 92.4792 264.929 92.6269C264.834 92.7746 264.783 92.9466 264.783 93.1223V113.264C264.783 113.417 264.822 113.568 264.895 113.702C264.969 113.837 265.075 113.951 265.204 114.034C265.332 114.116 265.48 114.166 265.633 114.177C265.785 114.188 265.939 114.161 266.078 114.097C267.693 113.365 270.295 112.484 272.816 112.229C275.396 111.969 277.559 112.389 278.718 113.835C278.804 113.942 278.912 114.028 279.036 114.088C279.159 114.147 279.295 114.178 279.432 114.178C279.569 114.178 279.704 114.147 279.828 114.088C279.952 114.028 280.06 113.942 280.146 113.835C281.305 112.389 283.468 111.969 286.046 112.229C288.569 112.484 291.173 113.365 292.786 114.097C292.925 114.161 293.078 114.188 293.231 114.177C293.384 114.166 293.532 114.116 293.66 114.034C293.789 113.951 293.895 113.837 293.968 113.702C294.042 113.568 294.08 113.417 294.08 113.264V93.1223C294.08 92.9466 294.03 92.7746 293.935 92.6269C293.839 92.4792 293.704 92.3619 293.544 92.2892C291.801 91.4963 289.003 90.546 286.231 90.2659C283.85 90.026 281.236 90.2585 279.432 91.8094Z" fill="url(#paint1_linear_94_620)"/>
<circle cx="168.807" cy="26.4763" r="25.4763" fill="white" stroke="#1EEFB0" stroke-width="2"/>
<path d="M181.872 15.5135C182.174 15.5135 182.464 15.6333 182.677 15.8467C182.89 16.06 183.01 16.3494 183.01 16.6511V33.7159H155.706V16.6511C155.706 16.3494 155.826 16.06 156.04 15.8467C156.253 15.6333 156.542 15.5135 156.844 15.5135H181.872ZM156.844 13.2382C155.939 13.2382 155.071 13.5977 154.431 14.2378C153.791 14.8778 153.431 15.7459 153.431 16.6511V35.9913H185.285V16.6511C185.285 15.7459 184.926 14.8778 184.286 14.2378C183.646 13.5977 182.778 13.2382 181.872 13.2382H156.844ZM151.156 37.1289H187.561C187.561 38.0341 187.201 38.9022 186.561 39.5422C185.921 40.1823 185.053 40.5419 184.148 40.5419H154.569C153.664 40.5419 152.795 40.1823 152.155 39.5422C151.515 38.9022 151.156 38.0341 151.156 37.1289V37.1289Z" fill="url(#paint2_linear_94_620)"/>
<path d="M164.658 28.5017V25.7498L167.965 27.6485C168.465 27.9358 169.032 28.0869 169.609 28.0869C170.186 28.0869 170.752 27.9358 171.253 27.6485L174.56 25.7506V28.5017C174.56 28.556 174.549 28.6097 174.529 28.6598C174.508 28.7099 174.478 28.7555 174.439 28.7938L174.438 28.7947L174.436 28.7971L174.43 28.8021L174.411 28.8203L174.345 28.8813C174.265 28.9521 174.182 29.0203 174.097 29.086C173.801 29.3135 173.486 29.5159 173.155 29.6908C172.063 30.2701 170.845 30.5706 169.609 30.5655C168.373 30.5706 167.154 30.2701 166.062 29.6908C165.732 29.5158 165.418 29.3135 165.122 29.086C165.013 29.002 164.908 28.9134 164.806 28.8203L164.787 28.8021C164.747 28.7631 164.715 28.7165 164.692 28.6649C164.67 28.6134 164.658 28.5579 164.658 28.5017V28.5017ZM176.828 23.4962L170.842 26.9331C170.467 27.1485 170.042 27.2619 169.609 27.2619C169.176 27.2619 168.751 27.1485 168.376 26.9331L163.008 23.8511V27.6766C163.008 27.786 162.964 27.8909 162.887 27.9683C162.809 28.0457 162.704 28.0891 162.595 28.0891C162.486 28.0891 162.381 28.0457 162.303 27.9683C162.226 27.8909 162.182 27.786 162.182 27.6766V23.1381C162.182 23.0637 162.202 22.9907 162.24 22.9268C162.279 22.8629 162.333 22.8105 162.399 22.775L168.376 19.3432C168.751 19.1275 169.176 19.014 169.609 19.014C170.042 19.014 170.467 19.1275 170.842 19.3432L176.828 22.7808C176.891 22.817 176.944 22.8691 176.98 22.9319C177.016 22.9947 177.035 23.066 177.035 23.1385C177.035 23.2111 177.016 23.2824 176.98 23.3452C176.944 23.408 176.891 23.4601 176.828 23.4962V23.4962Z" fill="#1EEFB0"/>
<path opacity="0.3" d="M134.548 354.701C208.389 354.701 268.248 352.996 268.248 350.893C268.248 348.79 208.389 347.085 134.548 347.085C60.7071 347.085 0.847412 348.79 0.847412 350.893C0.847412 352.996 60.7071 354.701 134.548 354.701Z" fill="#091B49"/>
<path d="M213.572 348.821H114.816C104.26 348.821 95.6375 340.179 95.6375 329.642V100.067C95.6375 96.0019 98.9721 92.6672 103.037 92.6672H225.372C229.437 92.6672 232.771 96.0019 232.771 100.067V329.642C232.771 340.179 224.129 348.821 213.572 348.821Z" fill="#17243F"/>
<path d="M223.655 321.454H104.753C102.465 321.454 100.61 319.579 100.61 317.31V112.043C100.61 109.755 102.484 107.9 104.753 107.9H223.655C225.944 107.9 227.799 109.774 227.799 112.043V317.33C227.799 319.599 225.944 321.454 223.655 321.454Z" fill="white"/>
<path d="M186.067 102.02H143.25C142.598 102.02 142.066 101.487 142.066 100.836C142.066 100.185 142.598 99.6521 143.25 99.6521H186.067C186.718 99.6521 187.251 100.185 187.251 100.836C187.251 101.487 186.718 102.02 186.067 102.02Z" fill="#5D6679"/>
<path opacity="0.3" d="M173.912 335.522C173.912 340.889 169.571 345.23 164.204 345.23C158.837 345.23 154.496 340.889 154.496 335.522C154.496 330.155 158.837 325.814 164.204 325.814C169.571 325.814 173.912 330.175 173.912 335.522Z" fill="white"/>
<g filter="url(#filter1_d_94_620)">
<path d="M248.221 138.543H109.588C107.042 138.543 104.97 136.471 104.97 133.926V127.177C104.97 124.632 107.042 122.56 109.588 122.56H248.221C250.766 122.56 252.838 124.632 252.838 127.177V133.926C252.838 136.471 250.766 138.543 248.221 138.543Z" fill="#17243F"/>
<path d="M244.985 128.223H111.6V131.795H244.985V128.223Z" fill="#06122C"/>
<path d="M246.544 131.933H142.263C142.263 124.711 136.955 118.673 130.069 117.529C130.858 117.391 131.667 117.331 132.476 117.331H231.923C239.973 117.312 246.544 123.882 246.544 131.933Z" fill="white"/>
<path d="M142.342 131.834H117.954C117.954 127.809 119.591 124.158 122.235 121.514C124.347 119.403 127.089 117.943 130.148 117.43C137.054 118.574 142.342 124.612 142.342 131.834Z" fill="#B5B5B5"/>
<path d="M256.41 297.223L250.865 288.758L251.358 297.519H250.786L249.148 293.474L246.307 287.752L244.413 292.251L243.979 297.539H239.519L236.402 287.752L232.988 291.028V297.539H227.977L224.721 287.752L220.932 291.62V297.539H219.097L216.157 290.436L213.651 297.539H211.501L209.449 290.1L208.127 294.56L204.003 297.539H197.945L197.215 290.021L190.171 297.539H186.817C184.409 294.244 179.891 288.048 179.496 287.772C179.181 287.535 178.431 293.139 177.898 297.539H174.366L169.039 288.206L167.993 297.539H164.54L159.844 290.633L156.529 297.539H152.129L149.583 288.64L144.315 297.539H142.421V117.233H241.868C249.898 117.233 256.469 123.803 256.469 131.834V297.223H256.41Z" fill="white"/>
<path d="M250.746 138.681H148.222V147.442H250.746V138.681Z" fill="#6FF5CC"/>
<path d="M250.569 227.453H148.222V230.452H250.569V227.453Z" fill="#BFF9EA"/>
<path d="M250.569 233.155H148.222V236.154H250.569V233.155Z" fill="#BFF9EA"/>
<path d="M250.569 238.838H148.222V241.837H250.569V238.838Z" fill="#BFF9EA"/>
<path opacity="0.1" d="M250.746 164.549H148.222V219.422H250.746V164.549Z" fill="#20EFB1"/>
<path d="M247.116 149.79H152.01V152.789H247.116V149.79Z" fill="#BFF9EA"/>
<path opacity="0.4" d="M198.024 178.361H152.76V181.36H198.024V178.361Z" fill="#81F2D7"/>
<path opacity="0.4" d="M248.339 178.361H239.065V181.36H248.339V178.361Z" fill="#81F2D7"/>
<path opacity="0.4" d="M248.319 184.043H237.073V187.043H248.319V184.043Z" fill="#81F2D7"/>
<path opacity="0.4" d="M248.339 189.726H235.691V192.725H248.339V189.726Z" fill="#81F2D7"/>
<path opacity="0.4" d="M248.339 214.746H224.898V217.745H248.339V214.746Z" fill="#81F2D7"/>
<path opacity="0.4" d="M248.32 195.429H239.401V198.428H248.32V195.429Z" fill="#81F2D7"/>
<path opacity="0.4" d="M195.972 184.043H152.76V187.043H195.972V184.043Z" fill="#81F2D7"/>
<path opacity="0.4" d="M200.984 189.726H152.76V192.725H200.984V189.726Z" fill="#81F2D7"/>
<path opacity="0.4" d="M198.024 195.429H152.76V198.428H198.024V195.429Z" fill="#81F2D7"/>
<path d="M250.746 154.861H148.222V155.137H250.746V154.861Z" fill="#1EEFB0"/>
<path d="M148.385 155.141V147.445H148.207V155.141H148.385Z" fill="#1EEFB0"/>
<path d="M250.735 155.138V147.443H250.557V155.138H250.735Z" fill="#1EEFB0"/>
<path opacity="0.6" d="M250.746 164.549H148.222V173.309H250.746V164.549Z" fill="#1EEFB0"/>
<path d="M250.746 219.422H148.222V219.698H250.746V219.422Z" fill="#1EEFB0"/>
<path d="M250.746 212.812H148.222V213.088H250.746V212.812Z" fill="#1EEFB0"/>
<path d="M148.395 219.692V173.303H148.218V219.692H148.395Z" fill="#1EEFB0"/>
<path d="M217.644 219.7V173.312H217.466V219.7H217.644Z" fill="#1EEFB0"/>
<path d="M250.745 219.709V173.32H250.567V219.709H250.745Z" fill="#1EEFB0"/>
<path d="M235.08 273.131H163.691C158.857 273.131 154.911 269.185 154.911 264.351C154.911 259.517 158.857 255.57 163.691 255.57H235.08C239.914 255.57 243.86 259.517 243.86 264.351C243.84 269.185 239.894 273.131 235.08 273.131Z" fill="#3E16E1"/>
<path d="M188.217 259.516C188.888 259.398 189.835 259.319 191.177 259.319C192.539 259.319 193.486 259.576 194.137 260.089C194.749 260.582 195.163 261.391 195.163 262.338C195.163 263.285 194.847 264.094 194.275 264.647C193.525 265.357 192.42 265.673 191.118 265.673C190.822 265.673 190.566 265.653 190.368 265.633V269.106H188.198V259.516H188.217ZM190.388 263.917C190.566 263.956 190.802 263.976 191.118 263.976C192.282 263.976 193.012 263.384 193.012 262.397C193.012 261.509 192.401 260.977 191.296 260.977C190.842 260.977 190.546 261.016 190.388 261.055V263.917Z" fill="white"/>
<path d="M197.965 266.58L197.274 269.067H195.005L197.965 259.378H200.846L203.845 269.067H201.477L200.727 266.58H197.965V266.58ZM200.431 264.943L199.82 262.891C199.642 262.318 199.464 261.588 199.326 261.016H199.307C199.168 261.588 199.011 262.318 198.853 262.891L198.281 264.943H200.431Z" fill="white"/>
<path d="M206.015 269.067V265.101L202.957 259.378H205.463L206.45 261.707C206.745 262.417 206.963 262.93 207.199 263.561H207.219C207.436 262.95 207.673 262.397 207.949 261.707L208.936 259.378H211.402L208.206 265.041V269.086H206.015V269.067Z" fill="white"/>
</g>
<path d="M273.891 322.319C273.891 338.26 260.973 351.177 245.049 351.177C243.199 351.177 241.399 351.012 239.648 350.665C236.955 350.153 234.412 349.278 232.049 348.072C231.455 347.774 230.877 347.461 230.298 347.114C225.591 344.306 221.758 340.192 219.281 335.27C217.315 331.372 216.208 326.978 216.208 322.303C216.208 306.379 229.126 293.462 245.066 293.462C248.138 293.462 251.079 293.941 253.854 294.833C259.156 296.518 263.781 299.706 267.25 303.885C267.68 304.397 268.093 304.909 268.473 305.454C270.042 307.618 271.297 309.997 272.222 312.557C273.296 315.613 273.891 318.9 273.891 322.319Z" fill="#FEDC00"/>
<path d="M261.11 338.409C269.993 329.526 269.993 315.124 261.11 306.242C252.228 297.359 237.826 297.359 228.943 306.242C220.061 315.124 220.06 329.526 228.943 338.409C237.826 347.292 252.228 347.292 261.11 338.409Z" fill="#EBB220"/>
<path d="M266.594 328.162C269.481 315.936 261.911 303.685 249.685 300.798C237.459 297.912 225.209 305.482 222.322 317.708C219.435 329.933 227.005 342.184 239.231 345.071C251.457 347.958 263.708 340.387 266.594 328.162Z" fill="#FDC010"/>
<path d="M252.884 315.989H250.078C249.833 314.895 249.401 313.873 248.808 312.985H252.884C253.22 312.985 253.543 312.826 253.781 312.545C254.02 312.263 254.153 311.881 254.153 311.482C254.153 311.084 254.019 310.702 253.781 310.42C253.543 310.138 253.22 309.98 252.883 309.98H238.917C238.58 309.98 238.257 310.138 238.019 310.42C237.781 310.702 237.647 311.084 237.647 311.482C237.647 311.881 237.781 312.263 238.019 312.545C238.258 312.826 238.581 312.985 238.917 312.985H243.361C244.199 312.988 245.02 313.272 245.728 313.804C246.435 314.335 247.002 315.093 247.361 315.989H238.918C238.581 315.989 238.258 316.148 238.02 316.429C237.782 316.711 237.648 317.093 237.648 317.492C237.648 317.89 237.782 318.272 238.02 318.554C238.258 318.836 238.581 318.994 238.918 318.994H247.806C247.654 320.242 247.128 321.383 246.324 322.21C245.52 323.038 244.491 323.495 243.426 323.501H238.918C238.859 323.494 238.8 323.494 238.741 323.501C238.656 323.485 238.571 323.485 238.487 323.501C238.4 323.535 238.319 323.586 238.245 323.651L238.093 323.756C238.024 323.83 237.964 323.916 237.915 324.011C237.873 324.078 237.835 324.148 237.801 324.222C237.79 324.311 237.79 324.402 237.801 324.492C237.711 324.642 237.658 324.819 237.649 325.003C237.643 325.073 237.643 325.143 237.649 325.213C237.636 325.313 237.636 325.414 237.649 325.514C237.678 325.616 237.721 325.712 237.776 325.799C237.776 325.799 237.776 325.919 237.865 325.979L245.484 336.495C245.703 336.798 246.014 336.985 246.35 337.016C246.686 337.047 247.018 336.919 247.274 336.66C247.53 336.401 247.689 336.033 247.715 335.635C247.741 335.238 247.633 334.845 247.414 334.542L241.687 326.505H243.363C245.11 326.514 246.796 325.747 248.089 324.356C249.381 322.966 250.186 321.052 250.345 318.994H252.884C253.221 318.994 253.544 318.836 253.782 318.554C254.02 318.272 254.154 317.89 254.154 317.492C254.154 317.093 254.02 316.711 253.782 316.429C253.544 316.148 253.221 315.989 252.884 315.989Z" fill="#99740A"/>
<defs>
<filter id="filter0_di_94_620" x="38.0083" y="12.3394" width="261.597" height="261.597" filterUnits="userSpaceOnUse" color-interpolation-filters="sRGB">
<feFlood flood-opacity="0" result="BackgroundImageFix"/>
<feColorMatrix in="SourceAlpha" type="matrix" values="0 0 0 0 0 0 0 0 0 0 0 0 0 0 0 0 0 0 127 0" result="hardAlpha"/>
<feOffset/>
<feGaussianBlur stdDeviation="5"/>
<feComposite in2="hardAlpha" operator="out"/>
<feColorMatrix type="matrix" values="0 0 0 0 0.117647 0 0 0 0 0.937255 0 0 0 0 0.690196 0 0 0 1 0"/>
<feBlend mode="normal" in2="BackgroundImageFix" result="effect1_dropShadow_94_620"/>
<feBlend mode="normal" in="SourceGraphic" in2="effect1_dropShadow_94_620" result="shape"/>
<feColorMatrix in="SourceAlpha" type="matrix" values="0 0 0 0 0 0 0 0 0 0 0 0 0 0 0 0 0 0 127 0" result="hardAlpha"/>
<feOffset/>
<feGaussianBlur stdDeviation="5"/>
<feComposite in2="hardAlpha" operator="arithmetic" k2="-1" k3="1"/>
<feColorMatrix type="matrix" values="0 0 0 0 0.117647 0 0 0 0 0.937255 0 0 0 0 0.690196 0 0 0 1 0"/>
<feBlend mode="normal" in2="shape" result="effect2_innerShadow_94_620"/>
</filter>
<filter id="filter1_d_94_620" x="93.9705" y="107.233" width="171.498" height="200.306" filterUnits="userSpaceOnUse" color-interpolation-filters="sRGB">
<feFlood flood-opacity="0" result="BackgroundImageFix"/>
<feColorMatrix in="SourceAlpha" type="matrix" values="0 0 0 0 0 0 0 0 0 0 0 0 0 0 0 0 0 0 127 0" result="hardAlpha"/>
<feOffset dx="-1"/>
<feGaussianBlur stdDeviation="5"/>
<feComposite in2="hardAlpha" operator="out"/>
<feColorMatrix type="matrix" values="0 0 0 0 0 0 0 0 0 0 0 0 0 0 0 0 0 0 0.25 0"/>
<feBlend mode="normal" in2="BackgroundImageFix" result="effect1_dropShadow_94_620"/>
<feBlend mode="normal" in="SourceGraphic" in2="effect1_dropShadow_94_620" result="shape"/>
</filter>
<linearGradient id="paint0_linear_94_620" x1="56.9519" y1="84.1176" x2="55.0898" y2="114.894" gradientUnits="userSpaceOnUse">
<stop stop-color="#FFF5E9"/>
<stop offset="0.6046" stop-color="#7D95E6"/>
<stop offset="0.9986" stop-color="#3F28DD"/>
</linearGradient>
<linearGradient id="paint1_linear_94_620" x1="295.81" y1="86.8755" x2="291.856" y2="115.842" gradientUnits="userSpaceOnUse">
<stop stop-color="#FFF5E9"/>
<stop offset="0.6046" stop-color="#7D95E6"/>
<stop offset="0.9986" stop-color="#3F28DD"/>
</linearGradient>
<linearGradient id="paint2_linear_94_620" x1="183.01" y1="11.2879" x2="184.119" y2="39.9714" gradientUnits="userSpaceOnUse">
<stop stop-color="#FFF5E9"/>
<stop offset="0.6046" stop-color="#7D95E6"/>
<stop offset="0.9986" stop-color="#3F28DD"/>
</linearGradient>
<clipPath id="clip0_94_620">
<rect width="11.0742" height="11.0742" fill="white" transform="translate(271.243 97.5679)"/>
</clipPath>
<clipPath id="clip1_94_620">
<rect width="6.45997" height="6.45997" fill="white" transform="translate(280.472 94.7993)"/>
</clipPath>
</defs>
</svg>
