<svg width="567" height="387" viewBox="0 0 567 387" fill="none" xmlns="http://www.w3.org/2000/svg">
<g filter="url(#filter0_d_522_875)">
<g clip-path="url(#clip0_522_875)">
<rect x="20" y="20" width="527" height="347" rx="10" fill="#FBFAFF"/>
<path d="M-68.1719 40H117.414H303L261.264 116.127C256.986 123.959 250.687 130.494 243.025 135.046C235.364 139.598 226.623 142 217.719 142H-124L-68.1719 40Z" fill="#8B73ED"/>
<g filter="url(#filter1_d_522_875)">
<rect x="50" y="81" width="467" height="242" rx="10" fill="white"/>
</g>
<path d="M55.526 73.216C54.602 73.216 53.786 73.06 53.078 72.748C52.37 72.424 51.812 71.968 51.404 71.38C50.996 70.78 50.786 70.054 50.774 69.202H53.204C53.228 69.79 53.438 70.288 53.834 70.696C54.242 71.092 54.8 71.29 55.508 71.29C56.12 71.29 56.606 71.146 56.966 70.858C57.326 70.558 57.506 70.162 57.506 69.67C57.506 69.154 57.344 68.752 57.02 68.464C56.708 68.176 56.288 67.942 55.76 67.762C55.232 67.582 54.668 67.39 54.068 67.186C53.096 66.85 52.352 66.418 51.836 65.89C51.332 65.362 51.08 64.66 51.08 63.784C51.068 63.04 51.242 62.404 51.602 61.876C51.974 61.336 52.478 60.922 53.114 60.634C53.75 60.334 54.482 60.184 55.31 60.184C56.15 60.184 56.888 60.334 57.524 60.634C58.172 60.934 58.676 61.354 59.036 61.894C59.408 62.434 59.606 63.076 59.63 63.82H57.164C57.152 63.376 56.978 62.986 56.642 62.65C56.318 62.302 55.862 62.128 55.274 62.128C54.77 62.116 54.344 62.242 53.996 62.506C53.66 62.758 53.492 63.13 53.492 63.622C53.492 64.042 53.624 64.378 53.888 64.63C54.152 64.87 54.512 65.074 54.968 65.242C55.424 65.41 55.946 65.59 56.534 65.782C57.158 65.998 57.728 66.25 58.244 66.538C58.76 66.826 59.174 67.21 59.486 67.69C59.798 68.158 59.954 68.764 59.954 69.508C59.954 70.168 59.786 70.78 59.45 71.344C59.114 71.908 58.616 72.364 57.956 72.712C57.296 73.048 56.486 73.216 55.526 73.216Z" fill="white"/>
<path d="M65.8883 73C64.9523 73 64.2023 72.772 63.6383 72.316C63.0743 71.86 62.7923 71.05 62.7923 69.886V65.998H61.2623V64.072H62.7923L63.0623 61.678H65.0963V64.072H67.5083V65.998H65.0963V69.904C65.0963 70.336 65.1863 70.636 65.3663 70.804C65.5583 70.96 65.8823 71.038 66.3383 71.038H67.4543V73H65.8883Z" fill="white"/>
<path d="M72.8345 73.216C71.7185 73.216 70.8545 72.868 70.2425 72.172C69.6425 71.476 69.3425 70.456 69.3425 69.112V64.072H71.6285V68.896C71.6285 69.664 71.7845 70.252 72.0965 70.66C72.4085 71.068 72.9005 71.272 73.5725 71.272C74.2085 71.272 74.7305 71.044 75.1385 70.588C75.5585 70.132 75.7685 69.496 75.7685 68.68V64.072H78.0725V73H76.0385L75.8585 71.488C75.5825 72.016 75.1805 72.436 74.6525 72.748C74.1365 73.06 73.5305 73.216 72.8345 73.216Z" fill="white"/>
<path d="M84.5416 73.216C83.7016 73.216 82.9516 73.012 82.2916 72.604C81.6316 72.196 81.1096 71.638 80.7256 70.93C80.3416 70.222 80.1496 69.418 80.1496 68.518C80.1496 67.618 80.3416 66.82 80.7256 66.124C81.1096 65.416 81.6316 64.864 82.2916 64.468C82.9516 64.06 83.7016 63.856 84.5416 63.856C85.2136 63.856 85.8016 63.982 86.3056 64.234C86.8096 64.486 87.2176 64.84 87.5296 65.296V60.04H89.8336V73H87.7816L87.5296 71.722C87.2416 72.118 86.8576 72.466 86.3776 72.766C85.9096 73.066 85.2976 73.216 84.5416 73.216ZM85.0276 71.2C85.7716 71.2 86.3776 70.954 86.8456 70.462C87.3256 69.958 87.5656 69.316 87.5656 68.536C87.5656 67.756 87.3256 67.12 86.8456 66.628C86.3776 66.124 85.7716 65.872 85.0276 65.872C84.2956 65.872 83.6896 66.118 83.2096 66.61C82.7296 67.102 82.4896 67.738 82.4896 68.518C82.4896 69.298 82.7296 69.94 83.2096 70.444C83.6896 70.948 84.2956 71.2 85.0276 71.2Z" fill="white"/>
<path d="M96.5178 73.216C95.6178 73.216 94.8198 73.024 94.1238 72.64C93.4278 72.256 92.8818 71.716 92.4858 71.02C92.0898 70.324 91.8918 69.52 91.8918 68.608C91.8918 67.684 92.0838 66.862 92.4678 66.142C92.8638 65.422 93.4038 64.864 94.0878 64.468C94.7838 64.06 95.5998 63.856 96.5358 63.856C97.4118 63.856 98.1858 64.048 98.8578 64.432C99.5298 64.816 100.052 65.344 100.424 66.016C100.808 66.676 101 67.414 101 68.23C101 68.362 100.994 68.5 100.982 68.644C100.982 68.788 100.976 68.938 100.964 69.094H94.1778C94.2258 69.79 94.4658 70.336 94.8978 70.732C95.3418 71.128 95.8758 71.326 96.4998 71.326C96.9678 71.326 97.3578 71.224 97.6698 71.02C97.9938 70.804 98.2338 70.528 98.3898 70.192H100.73C100.562 70.756 100.28 71.272 99.8838 71.74C99.4998 72.196 99.0198 72.556 98.4438 72.82C97.8798 73.084 97.2378 73.216 96.5178 73.216ZM96.5358 65.728C95.9718 65.728 95.4738 65.89 95.0418 66.214C94.6098 66.526 94.3338 67.006 94.2138 67.654H98.6598C98.6238 67.066 98.4078 66.598 98.0118 66.25C97.6158 65.902 97.1238 65.728 96.5358 65.728Z" fill="white"/>
<path d="M102.938 73V64.072H104.972L105.152 65.584C105.428 65.056 105.824 64.636 106.34 64.324C106.868 64.012 107.486 63.856 108.194 63.856C109.298 63.856 110.156 64.204 110.768 64.9C111.38 65.596 111.686 66.616 111.686 67.96V73H109.382V68.176C109.382 67.408 109.226 66.82 108.914 66.412C108.602 66.004 108.116 65.8 107.456 65.8C106.808 65.8 106.274 66.028 105.854 66.484C105.446 66.94 105.242 67.576 105.242 68.392V73H102.938Z" fill="white"/>
<path d="M117.867 73C116.931 73 116.181 72.772 115.617 72.316C115.053 71.86 114.771 71.05 114.771 69.886V65.998H113.241V64.072H114.771L115.041 61.678H117.075V64.072H119.487V65.998H117.075V69.904C117.075 70.336 117.165 70.636 117.345 70.804C117.537 70.96 117.861 71.038 118.317 71.038H119.433V73H117.867Z" fill="white"/>
<path d="M124.998 73L129.606 60.4H132.198L136.806 73H134.358L133.35 70.084H128.436L127.41 73H124.998ZM129.066 68.284H132.72L130.884 63.046L129.066 68.284Z" fill="white"/>
<path d="M138.375 76.96V64.072H140.427L140.679 65.35C140.967 64.954 141.345 64.606 141.813 64.306C142.293 64.006 142.911 63.856 143.667 63.856C144.507 63.856 145.257 64.06 145.917 64.468C146.577 64.876 147.099 65.434 147.483 66.142C147.867 66.85 148.059 67.654 148.059 68.554C148.059 69.454 147.867 70.258 147.483 70.966C147.099 71.662 146.577 72.214 145.917 72.622C145.257 73.018 144.507 73.216 143.667 73.216C142.995 73.216 142.407 73.09 141.903 72.838C141.399 72.586 140.991 72.232 140.679 71.776V76.96H138.375ZM143.181 71.2C143.913 71.2 144.519 70.954 144.999 70.462C145.479 69.97 145.719 69.334 145.719 68.554C145.719 67.774 145.479 67.132 144.999 66.628C144.519 66.124 143.913 65.872 143.181 65.872C142.437 65.872 141.825 66.124 141.345 66.628C140.877 67.12 140.643 67.756 140.643 68.536C140.643 69.316 140.877 69.958 141.345 70.462C141.825 70.954 142.437 71.2 143.181 71.2Z" fill="white"/>
<path d="M150.117 76.96V64.072H152.169L152.421 65.35C152.709 64.954 153.087 64.606 153.555 64.306C154.035 64.006 154.653 63.856 155.409 63.856C156.249 63.856 156.999 64.06 157.659 64.468C158.319 64.876 158.841 65.434 159.225 66.142C159.609 66.85 159.801 67.654 159.801 68.554C159.801 69.454 159.609 70.258 159.225 70.966C158.841 71.662 158.319 72.214 157.659 72.622C156.999 73.018 156.249 73.216 155.409 73.216C154.737 73.216 154.149 73.09 153.645 72.838C153.141 72.586 152.733 72.232 152.421 71.776V76.96H150.117ZM154.923 71.2C155.655 71.2 156.261 70.954 156.741 70.462C157.221 69.97 157.461 69.334 157.461 68.554C157.461 67.774 157.221 67.132 156.741 66.628C156.261 66.124 155.655 65.872 154.923 65.872C154.179 65.872 153.567 66.124 153.087 66.628C152.619 67.12 152.385 67.756 152.385 68.536C152.385 69.316 152.619 69.958 153.087 70.462C153.567 70.954 154.179 71.2 154.923 71.2Z" fill="white"/>
<path d="M161.86 73V60.04H164.163V73H161.86Z" fill="white"/>
<path d="M167.76 62.686C167.34 62.686 166.992 62.56 166.716 62.308C166.452 62.056 166.32 61.738 166.32 61.354C166.32 60.97 166.452 60.658 166.716 60.418C166.992 60.166 167.34 60.04 167.76 60.04C168.18 60.04 168.522 60.166 168.786 60.418C169.062 60.658 169.2 60.97 169.2 61.354C169.2 61.738 169.062 62.056 168.786 62.308C168.522 62.56 168.18 62.686 167.76 62.686ZM166.608 73V64.072H168.912V73H166.608Z" fill="white"/>
<path d="M175.691 73.216C174.779 73.216 173.975 73.018 173.279 72.622C172.583 72.226 172.031 71.674 171.623 70.966C171.227 70.258 171.029 69.448 171.029 68.536C171.029 67.624 171.227 66.814 171.623 66.106C172.031 65.398 172.583 64.846 173.279 64.45C173.975 64.054 174.779 63.856 175.691 63.856C176.831 63.856 177.791 64.156 178.571 64.756C179.351 65.344 179.849 66.16 180.065 67.204H177.635C177.515 66.772 177.275 66.436 176.915 66.196C176.567 65.944 176.153 65.818 175.673 65.818C175.037 65.818 174.497 66.058 174.053 66.538C173.609 67.018 173.387 67.684 173.387 68.536C173.387 69.388 173.609 70.054 174.053 70.534C174.497 71.014 175.037 71.254 175.673 71.254C176.153 71.254 176.567 71.134 176.915 70.894C177.275 70.654 177.515 70.312 177.635 69.868H180.065C179.849 70.876 179.351 71.686 178.571 72.298C177.791 72.91 176.831 73.216 175.691 73.216Z" fill="white"/>
<path d="M185.188 73.216C184.419 73.216 183.79 73.096 183.298 72.856C182.806 72.604 182.439 72.274 182.199 71.866C181.959 71.458 181.84 71.008 181.84 70.516C181.84 69.688 182.164 69.016 182.812 68.5C183.46 67.984 184.432 67.726 185.728 67.726H187.995V67.51C187.995 66.898 187.821 66.448 187.473 66.16C187.125 65.872 186.694 65.728 186.178 65.728C185.71 65.728 185.302 65.842 184.954 66.07C184.606 66.286 184.389 66.61 184.305 67.042H182.055C182.115 66.394 182.332 65.83 182.704 65.35C183.088 64.87 183.58 64.504 184.18 64.252C184.78 63.988 185.451 63.856 186.195 63.856C187.467 63.856 188.47 64.174 189.202 64.81C189.934 65.446 190.299 66.346 190.299 67.51V73H188.337L188.122 71.56C187.858 72.04 187.486 72.436 187.006 72.748C186.538 73.06 185.931 73.216 185.188 73.216ZM185.71 71.416C186.37 71.416 186.88 71.2 187.24 70.768C187.612 70.336 187.845 69.802 187.941 69.166H185.98C185.368 69.166 184.929 69.28 184.665 69.508C184.401 69.724 184.27 69.994 184.27 70.318C184.27 70.666 184.401 70.936 184.665 71.128C184.929 71.32 185.278 71.416 185.71 71.416Z" fill="white"/>
<path d="M196.353 73C195.417 73 194.667 72.772 194.103 72.316C193.539 71.86 193.257 71.05 193.257 69.886V65.998H191.727V64.072H193.257L193.527 61.678H195.561V64.072H197.973V65.998H195.561V69.904C195.561 70.336 195.651 70.636 195.831 70.804C196.023 70.96 196.347 71.038 196.803 71.038H197.919V73H196.353Z" fill="white"/>
<path d="M201.193 62.686C200.773 62.686 200.425 62.56 200.149 62.308C199.885 62.056 199.753 61.738 199.753 61.354C199.753 60.97 199.885 60.658 200.149 60.418C200.425 60.166 200.773 60.04 201.193 60.04C201.613 60.04 201.955 60.166 202.219 60.418C202.495 60.658 202.633 60.97 202.633 61.354C202.633 61.738 202.495 62.056 202.219 62.308C201.955 62.56 201.613 62.686 201.193 62.686ZM200.041 73V64.072H202.345V73H200.041Z" fill="white"/>
<path d="M209.034 73.216C208.17 73.216 207.39 73.018 206.694 72.622C206.01 72.226 205.464 71.68 205.056 70.984C204.66 70.276 204.462 69.46 204.462 68.536C204.462 67.612 204.666 66.802 205.074 66.106C205.482 65.398 206.028 64.846 206.712 64.45C207.408 64.054 208.188 63.856 209.052 63.856C209.904 63.856 210.672 64.054 211.356 64.45C212.052 64.846 212.598 65.398 212.994 66.106C213.402 66.802 213.606 67.612 213.606 68.536C213.606 69.46 213.402 70.276 212.994 70.984C212.598 71.68 212.052 72.226 211.356 72.622C210.66 73.018 209.886 73.216 209.034 73.216ZM209.034 71.218C209.634 71.218 210.156 70.996 210.6 70.552C211.044 70.096 211.266 69.424 211.266 68.536C211.266 67.648 211.044 66.982 210.6 66.538C210.156 66.082 209.64 65.854 209.052 65.854C208.44 65.854 207.912 66.082 207.468 66.538C207.036 66.982 206.82 67.648 206.82 68.536C206.82 69.424 207.036 70.096 207.468 70.552C207.912 70.996 208.434 71.218 209.034 71.218Z" fill="white"/>
<path d="M215.666 73V64.072H217.7L217.88 65.584C218.156 65.056 218.552 64.636 219.068 64.324C219.596 64.012 220.214 63.856 220.922 63.856C222.026 63.856 222.884 64.204 223.496 64.9C224.108 65.596 224.414 66.616 224.414 67.96V73H222.11V68.176C222.11 67.408 221.954 66.82 221.642 66.412C221.33 66.004 220.844 65.8 220.184 65.8C219.536 65.8 219.002 66.028 218.582 66.484C218.174 66.94 217.97 67.576 217.97 68.392V73H215.666Z" fill="white"/>
<path d="M230.96 73V60.4H239.096V62.254H233.264V65.782H237.98V67.6H233.264V73H230.96Z" fill="white"/>
<path d="M244.63 73.216C243.766 73.216 242.986 73.018 242.29 72.622C241.606 72.226 241.06 71.68 240.652 70.984C240.256 70.276 240.058 69.46 240.058 68.536C240.058 67.612 240.262 66.802 240.67 66.106C241.078 65.398 241.624 64.846 242.308 64.45C243.004 64.054 243.784 63.856 244.648 63.856C245.5 63.856 246.268 64.054 246.952 64.45C247.648 64.846 248.194 65.398 248.59 66.106C248.998 66.802 249.202 67.612 249.202 68.536C249.202 69.46 248.998 70.276 248.59 70.984C248.194 71.68 247.648 72.226 246.952 72.622C246.256 73.018 245.482 73.216 244.63 73.216ZM244.63 71.218C245.23 71.218 245.752 70.996 246.196 70.552C246.64 70.096 246.862 69.424 246.862 68.536C246.862 67.648 246.64 66.982 246.196 66.538C245.752 66.082 245.236 65.854 244.648 65.854C244.036 65.854 243.508 66.082 243.064 66.538C242.632 66.982 242.416 67.648 242.416 68.536C242.416 69.424 242.632 70.096 243.064 70.552C243.508 70.996 244.03 71.218 244.63 71.218Z" fill="white"/>
<path d="M251.262 73V64.072H253.314L253.53 65.746C253.854 65.17 254.292 64.714 254.844 64.378C255.408 64.03 256.068 63.856 256.824 63.856V66.286H256.176C255.672 66.286 255.222 66.364 254.826 66.52C254.43 66.676 254.118 66.946 253.89 67.33C253.674 67.714 253.566 68.248 253.566 68.932V73H251.262Z" fill="white"/>
<path d="M258.399 73V64.072H260.433L260.631 65.278C260.919 64.846 261.297 64.504 261.765 64.252C262.245 63.988 262.797 63.856 263.421 63.856C264.801 63.856 265.779 64.39 266.355 65.458C266.679 64.966 267.111 64.576 267.651 64.288C268.203 64 268.803 63.856 269.451 63.856C270.615 63.856 271.509 64.204 272.133 64.9C272.757 65.596 273.069 66.616 273.069 67.96V73H270.765V68.176C270.765 67.408 270.615 66.82 270.315 66.412C270.027 66.004 269.577 65.8 268.965 65.8C268.341 65.8 267.837 66.028 267.453 66.484C267.081 66.94 266.895 67.576 266.895 68.392V73H264.591V68.176C264.591 67.408 264.441 66.82 264.141 66.412C263.841 66.004 263.379 65.8 262.755 65.8C262.143 65.8 261.645 66.028 261.261 66.484C260.889 66.94 260.703 67.576 260.703 68.392V73H258.399Z" fill="white"/>
<rect x="396" y="278" width="97" height="24" rx="3" fill="#517CE3"/>
<path d="M89.1465 103.84V113H88.6816L82.7344 106.451V113H81.5039V103.84H81.9688L87.916 110.471V103.84H89.1465Z" fill="#2A2A2A"/>
<path d="M94.6289 106.027C95.0208 106.027 95.4173 106.123 95.8184 106.314C96.2285 106.497 96.5794 106.752 96.8711 107.08V106.164H97.9922V113H96.8711V111.838C96.6341 112.202 96.3105 112.521 95.9004 112.795C95.4993 113.068 95.0391 113.205 94.5195 113.205C93.9362 113.205 93.403 113.059 92.9199 112.768C92.4368 112.467 92.0495 112.052 91.7578 111.523C91.4753 110.995 91.334 110.384 91.334 109.691C91.334 108.935 91.4753 108.283 91.7578 107.736C92.0495 107.189 92.446 106.77 92.9473 106.479C93.4486 106.178 94.0091 106.027 94.6289 106.027ZM94.834 107.121C94.3418 107.121 93.9225 107.244 93.5762 107.49C93.2298 107.736 92.9609 108.055 92.7695 108.447C92.5872 108.83 92.4961 109.245 92.4961 109.691C92.4961 110.129 92.5872 110.535 92.7695 110.908C92.9518 111.273 93.207 111.564 93.5352 111.783C93.8724 112.002 94.2598 112.111 94.6973 112.111C95.1165 112.111 95.4902 112.002 95.8184 111.783C96.1465 111.564 96.4062 111.264 96.5977 110.881C96.7891 110.489 96.8802 110.051 96.8711 109.568L96.8574 108.256C96.5749 107.9 96.2695 107.622 95.9414 107.422C95.6224 107.221 95.2533 107.121 94.834 107.121Z" fill="#2A2A2A"/>
<path d="M101.438 106.164V107.039C101.656 106.793 101.934 106.565 102.271 106.355C102.618 106.137 103.023 106.027 103.488 106.027C103.98 106.027 104.441 106.146 104.869 106.383C105.298 106.611 105.626 106.957 105.854 107.422C106.173 107.039 106.519 106.711 106.893 106.438C107.266 106.164 107.704 106.027 108.205 106.027C108.67 106.027 109.103 106.132 109.504 106.342C109.914 106.542 110.242 106.852 110.488 107.271C110.743 107.682 110.871 108.201 110.871 108.83V113H109.75L109.736 108.939C109.736 108.347 109.581 107.896 109.271 107.586C108.971 107.276 108.551 107.121 108.014 107.121C107.622 107.121 107.28 107.244 106.988 107.49C106.697 107.736 106.419 108.023 106.154 108.352V113H105.033L105.02 108.939C105.02 108.347 104.865 107.896 104.555 107.586C104.254 107.276 103.835 107.121 103.297 107.121C102.923 107.121 102.581 107.23 102.271 107.449C101.971 107.668 101.693 107.932 101.438 108.242V113H100.316V106.164H101.438Z" fill="#2A2A2A"/>
<path d="M115.807 106.027C116.508 106.027 117.092 106.173 117.557 106.465C118.021 106.757 118.368 107.153 118.596 107.654C118.833 108.156 118.951 108.721 118.951 109.35V110.02H113.701C113.756 110.402 113.888 110.753 114.098 111.072C114.307 111.391 114.581 111.646 114.918 111.838C115.255 112.02 115.643 112.111 116.08 112.111C116.572 112.111 117.033 111.988 117.461 111.742C117.889 111.487 118.249 111.209 118.541 110.908L118.527 112.125C118.4 112.28 118.208 112.444 117.953 112.617C117.707 112.781 117.42 112.918 117.092 113.027C116.773 113.146 116.436 113.205 116.08 113.205C115.387 113.205 114.772 113.041 114.234 112.713C113.697 112.385 113.273 111.952 112.963 111.414C112.662 110.867 112.512 110.27 112.512 109.623C112.512 108.976 112.653 108.379 112.936 107.832C113.218 107.285 113.605 106.848 114.098 106.52C114.599 106.191 115.169 106.027 115.807 106.027ZM115.807 107.121C115.242 107.121 114.777 107.312 114.412 107.695C114.048 108.069 113.82 108.525 113.729 109.062H117.844C117.798 108.616 117.671 108.251 117.461 107.969C117.26 107.686 117.014 107.477 116.723 107.34C116.431 107.194 116.126 107.121 115.807 107.121Z" fill="#2A2A2A"/>
<path d="M85.1543 162.84C85.6829 162.84 86.1888 162.963 86.6719 163.209C87.1549 163.446 87.5514 163.792 87.8613 164.248C88.1803 164.695 88.3398 165.232 88.3398 165.861C88.3398 166.399 88.1895 166.896 87.8887 167.352C87.5879 167.807 87.1777 168.176 86.6582 168.459C86.1478 168.732 85.5781 168.869 84.9492 168.869C84.4844 168.869 84.056 168.824 83.6641 168.732C83.2812 168.632 82.9714 168.527 82.7344 168.418V172H81.5039V162.84H85.1543ZM82.7344 164.002V167.297C82.9805 167.397 83.2995 167.493 83.6914 167.584C84.0924 167.666 84.498 167.707 84.9082 167.707C85.6009 167.707 86.1341 167.529 86.5078 167.174C86.8906 166.809 87.082 166.372 87.082 165.861C87.082 165.469 86.9727 165.137 86.7539 164.863C86.5443 164.59 86.2663 164.38 85.9199 164.234C85.5736 164.079 85.2044 164.002 84.8125 164.002H82.7344Z" fill="#2A2A2A"/>
<path d="M93.5352 165.027C94 165.027 94.4238 165.132 94.8066 165.342C95.1895 165.542 95.4948 165.852 95.7227 166.271C95.9505 166.682 96.0645 167.201 96.0645 167.83V172H94.9434L94.9297 167.939C94.9297 167.347 94.7975 166.896 94.5332 166.586C94.278 166.276 93.8815 166.121 93.3438 166.121C92.9792 166.121 92.6146 166.258 92.25 166.531C91.8945 166.796 91.5801 167.105 91.3066 167.461V172H90.1855V162.156H91.3066V166.244C91.4525 166.062 91.6393 165.88 91.8672 165.697C92.0951 165.506 92.3503 165.346 92.6328 165.219C92.9245 165.091 93.2253 165.027 93.5352 165.027Z" fill="#2A2A2A"/>
<path d="M101.273 165.027C101.966 165.027 102.581 165.191 103.119 165.52C103.657 165.848 104.076 166.285 104.377 166.832C104.687 167.379 104.842 167.976 104.842 168.623C104.842 169.27 104.687 169.867 104.377 170.414C104.076 170.952 103.657 171.385 103.119 171.713C102.581 172.041 101.966 172.205 101.273 172.205C100.581 172.205 99.9655 172.041 99.4277 171.713C98.89 171.385 98.4661 170.952 98.1562 170.414C97.8555 169.867 97.7051 169.27 97.7051 168.623C97.7051 167.976 97.8555 167.379 98.1562 166.832C98.4661 166.285 98.89 165.848 99.4277 165.52C99.9655 165.191 100.581 165.027 101.273 165.027ZM101.273 166.121C100.79 166.121 100.367 166.24 100.002 166.477C99.6374 166.704 99.3548 167.01 99.1543 167.393C98.9629 167.766 98.8672 168.176 98.8672 168.623C98.8672 169.061 98.9629 169.471 99.1543 169.854C99.3548 170.227 99.6374 170.533 100.002 170.77C100.367 170.997 100.79 171.111 101.273 171.111C101.766 171.111 102.189 170.997 102.545 170.77C102.91 170.533 103.188 170.227 103.379 169.854C103.579 169.471 103.68 169.061 103.68 168.623C103.68 168.176 103.579 167.766 103.379 167.393C103.188 167.01 102.91 166.704 102.545 166.477C102.189 166.24 101.766 166.121 101.273 166.121Z" fill="#2A2A2A"/>
<path d="M107.809 165.164V166.244C107.954 166.062 108.141 165.88 108.369 165.697C108.597 165.506 108.852 165.346 109.135 165.219C109.426 165.091 109.727 165.027 110.037 165.027C110.502 165.027 110.926 165.132 111.309 165.342C111.691 165.542 111.997 165.852 112.225 166.271C112.452 166.682 112.566 167.201 112.566 167.83V172H111.445L111.432 167.939C111.432 167.347 111.299 166.896 111.035 166.586C110.78 166.276 110.383 166.121 109.846 166.121C109.481 166.121 109.117 166.258 108.752 166.531C108.396 166.796 108.082 167.105 107.809 167.461V172H106.688V165.164H107.809Z" fill="#2A2A2A"/>
<path d="M117.502 165.027C118.204 165.027 118.787 165.173 119.252 165.465C119.717 165.757 120.063 166.153 120.291 166.654C120.528 167.156 120.646 167.721 120.646 168.35V169.02H115.396C115.451 169.402 115.583 169.753 115.793 170.072C116.003 170.391 116.276 170.646 116.613 170.838C116.951 171.02 117.338 171.111 117.775 171.111C118.268 171.111 118.728 170.988 119.156 170.742C119.585 170.487 119.945 170.209 120.236 169.908L120.223 171.125C120.095 171.28 119.904 171.444 119.648 171.617C119.402 171.781 119.115 171.918 118.787 172.027C118.468 172.146 118.131 172.205 117.775 172.205C117.083 172.205 116.467 172.041 115.93 171.713C115.392 171.385 114.968 170.952 114.658 170.414C114.357 169.867 114.207 169.27 114.207 168.623C114.207 167.976 114.348 167.379 114.631 166.832C114.913 166.285 115.301 165.848 115.793 165.52C116.294 165.191 116.864 165.027 117.502 165.027ZM117.502 166.121C116.937 166.121 116.472 166.312 116.107 166.695C115.743 167.069 115.515 167.525 115.424 168.062H119.539C119.493 167.616 119.366 167.251 119.156 166.969C118.956 166.686 118.71 166.477 118.418 166.34C118.126 166.194 117.821 166.121 117.502 166.121Z" fill="#2A2A2A"/>
<path d="M127.715 165.164V166.244C127.861 166.062 128.048 165.88 128.275 165.697C128.503 165.506 128.758 165.346 129.041 165.219C129.333 165.091 129.633 165.027 129.943 165.027C130.408 165.027 130.832 165.132 131.215 165.342C131.598 165.542 131.903 165.852 132.131 166.271C132.359 166.682 132.473 167.201 132.473 167.83V172H131.352L131.338 167.939C131.338 167.347 131.206 166.896 130.941 166.586C130.686 166.276 130.29 166.121 129.752 166.121C129.387 166.121 129.023 166.258 128.658 166.531C128.303 166.796 127.988 167.105 127.715 167.461V172H126.594V165.164H127.715Z" fill="#2A2A2A"/>
<path d="M140.184 165.164V169.211C140.184 169.812 140.056 170.332 139.801 170.77C139.546 171.207 139.199 171.544 138.762 171.781C138.324 172.018 137.832 172.137 137.285 172.137C136.738 172.137 136.246 172.018 135.809 171.781C135.371 171.544 135.025 171.207 134.77 170.77C134.514 170.332 134.387 169.812 134.387 169.211V165.164H135.549V169.211C135.549 169.803 135.722 170.259 136.068 170.578C136.424 170.888 136.829 171.043 137.285 171.043C137.741 171.043 138.142 170.888 138.488 170.578C138.844 170.259 139.021 169.803 139.021 169.211V165.164H140.184Z" fill="#2A2A2A"/>
<path d="M143.424 165.164V166.039C143.643 165.793 143.921 165.565 144.258 165.355C144.604 165.137 145.01 165.027 145.475 165.027C145.967 165.027 146.427 165.146 146.855 165.383C147.284 165.611 147.612 165.957 147.84 166.422C148.159 166.039 148.505 165.711 148.879 165.438C149.253 165.164 149.69 165.027 150.191 165.027C150.656 165.027 151.089 165.132 151.49 165.342C151.9 165.542 152.229 165.852 152.475 166.271C152.73 166.682 152.857 167.201 152.857 167.83V172H151.736L151.723 167.939C151.723 167.347 151.568 166.896 151.258 166.586C150.957 166.276 150.538 166.121 150 166.121C149.608 166.121 149.266 166.244 148.975 166.49C148.683 166.736 148.405 167.023 148.141 167.352V172H147.02L147.006 167.939C147.006 167.347 146.851 166.896 146.541 166.586C146.24 166.276 145.821 166.121 145.283 166.121C144.91 166.121 144.568 166.23 144.258 166.449C143.957 166.668 143.679 166.932 143.424 167.242V172H142.303V165.164H143.424Z" fill="#2A2A2A"/>
<path d="M158.34 165.027C158.969 165.027 159.529 165.178 160.021 165.479C160.523 165.77 160.915 166.189 161.197 166.736C161.489 167.283 161.635 167.935 161.635 168.691C161.635 169.384 161.489 169.995 161.197 170.523C160.915 171.052 160.532 171.467 160.049 171.768C159.575 172.059 159.042 172.205 158.449 172.205C157.93 172.205 157.465 172.068 157.055 171.795C156.654 171.521 156.335 171.202 156.098 170.838V172H154.977V162.156H156.098V166.08C156.389 165.752 156.736 165.497 157.137 165.314C157.547 165.123 157.948 165.027 158.34 165.027ZM158.135 166.135C157.715 166.135 157.346 166.235 157.027 166.436C156.708 166.627 156.403 166.9 156.111 167.256L156.098 168.568C156.098 169.051 156.189 169.484 156.371 169.867C156.562 170.25 156.822 170.551 157.15 170.77C157.488 170.988 157.861 171.098 158.271 171.098C158.718 171.098 159.105 170.988 159.434 170.77C159.762 170.551 160.017 170.259 160.199 169.895C160.382 169.53 160.473 169.129 160.473 168.691C160.473 168.245 160.377 167.83 160.186 167.447C160.003 167.055 159.739 166.741 159.393 166.504C159.046 166.258 158.627 166.135 158.135 166.135Z" fill="#2A2A2A"/>
<path d="M166.297 165.027C166.999 165.027 167.582 165.173 168.047 165.465C168.512 165.757 168.858 166.153 169.086 166.654C169.323 167.156 169.441 167.721 169.441 168.35V169.02H164.191C164.246 169.402 164.378 169.753 164.588 170.072C164.798 170.391 165.071 170.646 165.408 170.838C165.745 171.02 166.133 171.111 166.57 171.111C167.062 171.111 167.523 170.988 167.951 170.742C168.38 170.487 168.74 170.209 169.031 169.908L169.018 171.125C168.89 171.28 168.699 171.444 168.443 171.617C168.197 171.781 167.91 171.918 167.582 172.027C167.263 172.146 166.926 172.205 166.57 172.205C165.878 172.205 165.262 172.041 164.725 171.713C164.187 171.385 163.763 170.952 163.453 170.414C163.152 169.867 163.002 169.27 163.002 168.623C163.002 167.976 163.143 167.379 163.426 166.832C163.708 166.285 164.096 165.848 164.588 165.52C165.089 165.191 165.659 165.027 166.297 165.027ZM166.297 166.121C165.732 166.121 165.267 166.312 164.902 166.695C164.538 167.069 164.31 167.525 164.219 168.062H168.334C168.288 167.616 168.161 167.251 167.951 166.969C167.751 166.686 167.505 166.477 167.213 166.34C166.921 166.194 166.616 166.121 166.297 166.121Z" fill="#2A2A2A"/>
<path d="M172.408 165.164V166.531C172.673 166.076 172.992 165.711 173.365 165.438C173.739 165.164 174.122 165.027 174.514 165.027C174.778 165.027 175.015 165.073 175.225 165.164V166.463C174.933 166.29 174.641 166.203 174.35 166.203C173.885 166.203 173.507 166.367 173.215 166.695C172.932 167.023 172.663 167.415 172.408 167.871V172H171.287V165.164H172.408Z" fill="#2A2A2A"/>
<path d="M298.031 162.84L302.311 172H300.834L299.877 169.812H295.584L294.613 172H293.137L297.416 162.84H298.031ZM297.744 164.918L296.09 168.65H299.371L297.744 164.918Z" fill="#2A2A2A"/>
<path d="M309.789 162.156V172H308.668V170.838C308.431 171.202 308.107 171.521 307.697 171.795C307.296 172.068 306.836 172.205 306.316 172.205C305.733 172.205 305.2 172.059 304.717 171.768C304.234 171.467 303.846 171.052 303.555 170.523C303.272 169.995 303.131 169.384 303.131 168.691C303.131 167.935 303.272 167.283 303.555 166.736C303.846 166.189 304.243 165.77 304.744 165.479C305.245 165.178 305.806 165.027 306.426 165.027C306.818 165.027 307.214 165.123 307.615 165.314C308.025 165.497 308.376 165.752 308.668 166.08V162.156H309.789ZM306.631 166.148C306.139 166.148 305.719 166.271 305.373 166.518C305.027 166.755 304.758 167.064 304.566 167.447C304.384 167.83 304.293 168.245 304.293 168.691C304.293 169.129 304.384 169.535 304.566 169.908C304.749 170.273 305.004 170.564 305.332 170.783C305.669 171.002 306.057 171.111 306.494 171.111C306.913 171.111 307.287 171.002 307.615 170.783C307.943 170.564 308.203 170.264 308.395 169.881C308.586 169.489 308.677 169.051 308.668 168.568L308.654 167.256C308.372 166.9 308.066 166.627 307.738 166.436C307.419 166.244 307.05 166.148 306.631 166.148Z" fill="#2A2A2A"/>
<path d="M318.293 162.156V172H317.172V170.838C316.935 171.202 316.611 171.521 316.201 171.795C315.8 172.068 315.34 172.205 314.82 172.205C314.237 172.205 313.704 172.059 313.221 171.768C312.738 171.467 312.35 171.052 312.059 170.523C311.776 169.995 311.635 169.384 311.635 168.691C311.635 167.935 311.776 167.283 312.059 166.736C312.35 166.189 312.747 165.77 313.248 165.479C313.749 165.178 314.31 165.027 314.93 165.027C315.322 165.027 315.718 165.123 316.119 165.314C316.529 165.497 316.88 165.752 317.172 166.08V162.156H318.293ZM315.135 166.148C314.643 166.148 314.223 166.271 313.877 166.518C313.531 166.755 313.262 167.064 313.07 167.447C312.888 167.83 312.797 168.245 312.797 168.691C312.797 169.129 312.888 169.535 313.07 169.908C313.253 170.273 313.508 170.564 313.836 170.783C314.173 171.002 314.561 171.111 314.998 171.111C315.417 171.111 315.791 171.002 316.119 170.783C316.447 170.564 316.707 170.264 316.898 169.881C317.09 169.489 317.181 169.051 317.172 168.568L317.158 167.256C316.876 166.9 316.57 166.627 316.242 166.436C315.923 166.244 315.554 166.148 315.135 166.148Z" fill="#2A2A2A"/>
<path d="M321.738 165.164V166.531C322.003 166.076 322.322 165.711 322.695 165.438C323.069 165.164 323.452 165.027 323.844 165.027C324.108 165.027 324.345 165.073 324.555 165.164V166.463C324.263 166.29 323.971 166.203 323.68 166.203C323.215 166.203 322.837 166.367 322.545 166.695C322.262 167.023 321.993 167.415 321.738 167.871V172H320.617V165.164H321.738Z" fill="#2A2A2A"/>
<path d="M328.807 165.027C329.508 165.027 330.092 165.173 330.557 165.465C331.021 165.757 331.368 166.153 331.596 166.654C331.833 167.156 331.951 167.721 331.951 168.35V169.02H326.701C326.756 169.402 326.888 169.753 327.098 170.072C327.307 170.391 327.581 170.646 327.918 170.838C328.255 171.02 328.643 171.111 329.08 171.111C329.572 171.111 330.033 170.988 330.461 170.742C330.889 170.487 331.249 170.209 331.541 169.908L331.527 171.125C331.4 171.28 331.208 171.444 330.953 171.617C330.707 171.781 330.42 171.918 330.092 172.027C329.773 172.146 329.436 172.205 329.08 172.205C328.387 172.205 327.772 172.041 327.234 171.713C326.697 171.385 326.273 170.952 325.963 170.414C325.662 169.867 325.512 169.27 325.512 168.623C325.512 167.976 325.653 167.379 325.936 166.832C326.218 166.285 326.605 165.848 327.098 165.52C327.599 165.191 328.169 165.027 328.807 165.027ZM328.807 166.121C328.242 166.121 327.777 166.312 327.412 166.695C327.048 167.069 326.82 167.525 326.729 168.062H330.844C330.798 167.616 330.671 167.251 330.461 166.969C330.26 166.686 330.014 166.477 329.723 166.34C329.431 166.194 329.126 166.121 328.807 166.121Z" fill="#2A2A2A"/>
<path d="M335.834 165.027C336.235 165.027 336.609 165.087 336.955 165.205C337.301 165.314 337.552 165.428 337.707 165.547V166.75C337.516 166.604 337.256 166.463 336.928 166.326C336.6 166.189 336.262 166.121 335.916 166.121C335.488 166.121 335.164 166.221 334.945 166.422C334.736 166.622 334.631 166.832 334.631 167.051C334.631 167.224 334.69 167.402 334.809 167.584C334.936 167.757 335.155 167.898 335.465 168.008L336.613 168.418C337.06 168.573 337.393 168.796 337.611 169.088C337.83 169.38 337.939 169.721 337.939 170.113C337.939 170.496 337.83 170.847 337.611 171.166C337.402 171.485 337.105 171.74 336.723 171.932C336.349 172.114 335.916 172.205 335.424 172.205C335.16 172.205 334.882 172.169 334.59 172.096C334.307 172.032 334.052 171.954 333.824 171.863C333.596 171.763 333.428 171.676 333.318 171.604V170.4C333.446 170.492 333.624 170.596 333.852 170.715C334.089 170.824 334.339 170.92 334.604 171.002C334.868 171.075 335.114 171.111 335.342 171.111C335.77 171.111 336.107 171.016 336.354 170.824C336.609 170.633 336.736 170.396 336.736 170.113C336.736 169.895 336.65 169.721 336.477 169.594C336.312 169.466 336.071 169.343 335.752 169.225L334.74 168.855C334.212 168.655 333.861 168.404 333.688 168.104C333.514 167.794 333.428 167.443 333.428 167.051C333.428 166.467 333.646 165.984 334.084 165.602C334.521 165.219 335.105 165.027 335.834 165.027Z" fill="#2A2A2A"/>
<path d="M341.686 165.027C342.087 165.027 342.46 165.087 342.807 165.205C343.153 165.314 343.404 165.428 343.559 165.547V166.75C343.367 166.604 343.107 166.463 342.779 166.326C342.451 166.189 342.114 166.121 341.768 166.121C341.339 166.121 341.016 166.221 340.797 166.422C340.587 166.622 340.482 166.832 340.482 167.051C340.482 167.224 340.542 167.402 340.66 167.584C340.788 167.757 341.007 167.898 341.316 168.008L342.465 168.418C342.911 168.573 343.244 168.796 343.463 169.088C343.682 169.38 343.791 169.721 343.791 170.113C343.791 170.496 343.682 170.847 343.463 171.166C343.253 171.485 342.957 171.74 342.574 171.932C342.201 172.114 341.768 172.205 341.275 172.205C341.011 172.205 340.733 172.169 340.441 172.096C340.159 172.032 339.904 171.954 339.676 171.863C339.448 171.763 339.279 171.676 339.17 171.604V170.4C339.298 170.492 339.475 170.596 339.703 170.715C339.94 170.824 340.191 170.92 340.455 171.002C340.719 171.075 340.965 171.111 341.193 171.111C341.622 171.111 341.959 171.016 342.205 170.824C342.46 170.633 342.588 170.396 342.588 170.113C342.588 169.895 342.501 169.721 342.328 169.594C342.164 169.466 341.923 169.343 341.604 169.225L340.592 168.855C340.063 168.655 339.712 168.404 339.539 168.104C339.366 167.794 339.279 167.443 339.279 167.051C339.279 166.467 339.498 165.984 339.936 165.602C340.373 165.219 340.956 165.027 341.686 165.027Z" fill="#2A2A2A"/>
<path d="M85.5098 221.635C86.1751 221.635 86.7174 221.726 87.1367 221.908C87.5651 222.09 87.9388 222.327 88.2578 222.619V223.973C88.0573 223.827 87.8294 223.667 87.5742 223.494C87.3281 223.321 87.0365 223.171 86.6992 223.043C86.3711 222.906 85.9746 222.838 85.5098 222.838C84.8262 222.838 84.2155 222.993 83.6777 223.303C83.14 223.613 82.7161 224.041 82.4062 224.588C82.0964 225.126 81.9414 225.736 81.9414 226.42C81.9414 227.104 82.0964 227.714 82.4062 228.252C82.7161 228.79 83.14 229.218 83.6777 229.537C84.2155 229.847 84.8262 230.002 85.5098 230.002C86.2116 230.002 86.8086 229.888 87.3008 229.66C87.8021 229.423 88.2122 229.182 88.5312 228.936V230.166C88.2122 230.449 87.793 230.695 87.2734 230.904C86.763 231.105 86.1751 231.205 85.5098 231.205C84.8171 231.205 84.179 231.082 83.5957 230.836C83.0124 230.581 82.502 230.234 82.0645 229.797C81.627 229.359 81.2852 228.854 81.0391 228.279C80.8021 227.696 80.6836 227.076 80.6836 226.42C80.6836 225.764 80.8021 225.148 81.0391 224.574C81.2852 223.991 81.627 223.48 82.0645 223.043C82.502 222.605 83.0124 222.264 83.5957 222.018C84.179 221.762 84.8171 221.635 85.5098 221.635Z" fill="#2A2A2A"/>
<path d="M93.4668 224.027C94.1595 224.027 94.7747 224.191 95.3125 224.52C95.8503 224.848 96.2695 225.285 96.5703 225.832C96.8802 226.379 97.0352 226.976 97.0352 227.623C97.0352 228.27 96.8802 228.867 96.5703 229.414C96.2695 229.952 95.8503 230.385 95.3125 230.713C94.7747 231.041 94.1595 231.205 93.4668 231.205C92.7741 231.205 92.1589 231.041 91.6211 230.713C91.0833 230.385 90.6595 229.952 90.3496 229.414C90.0488 228.867 89.8984 228.27 89.8984 227.623C89.8984 226.976 90.0488 226.379 90.3496 225.832C90.6595 225.285 91.0833 224.848 91.6211 224.52C92.1589 224.191 92.7741 224.027 93.4668 224.027ZM93.4668 225.121C92.9837 225.121 92.5599 225.24 92.1953 225.477C91.8307 225.704 91.5482 226.01 91.3477 226.393C91.1562 226.766 91.0605 227.176 91.0605 227.623C91.0605 228.061 91.1562 228.471 91.3477 228.854C91.5482 229.227 91.8307 229.533 92.1953 229.77C92.5599 229.997 92.9837 230.111 93.4668 230.111C93.959 230.111 94.3828 229.997 94.7383 229.77C95.1029 229.533 95.3809 229.227 95.5723 228.854C95.7728 228.471 95.873 228.061 95.873 227.623C95.873 227.176 95.7728 226.766 95.5723 226.393C95.3809 226.01 95.1029 225.704 94.7383 225.477C94.3828 225.24 93.959 225.121 93.4668 225.121Z" fill="#2A2A2A"/>
<path d="M104.473 224.164V228.211C104.473 228.812 104.345 229.332 104.09 229.77C103.835 230.207 103.488 230.544 103.051 230.781C102.613 231.018 102.121 231.137 101.574 231.137C101.027 231.137 100.535 231.018 100.098 230.781C99.6602 230.544 99.3138 230.207 99.0586 229.77C98.8034 229.332 98.6758 228.812 98.6758 228.211V224.164H99.8379V228.211C99.8379 228.803 100.011 229.259 100.357 229.578C100.713 229.888 101.118 230.043 101.574 230.043C102.03 230.043 102.431 229.888 102.777 229.578C103.133 229.259 103.311 228.803 103.311 228.211V224.164H104.473Z" fill="#2A2A2A"/>
<path d="M107.713 224.164V225.531C107.977 225.076 108.296 224.711 108.67 224.438C109.044 224.164 109.426 224.027 109.818 224.027C110.083 224.027 110.32 224.073 110.529 224.164V225.463C110.238 225.29 109.946 225.203 109.654 225.203C109.189 225.203 108.811 225.367 108.52 225.695C108.237 226.023 107.968 226.415 107.713 226.871V231H106.592V224.164H107.713Z" fill="#2A2A2A"/>
<path d="M114.002 224.027C114.403 224.027 114.777 224.087 115.123 224.205C115.469 224.314 115.72 224.428 115.875 224.547V225.75C115.684 225.604 115.424 225.463 115.096 225.326C114.768 225.189 114.43 225.121 114.084 225.121C113.656 225.121 113.332 225.221 113.113 225.422C112.904 225.622 112.799 225.832 112.799 226.051C112.799 226.224 112.858 226.402 112.977 226.584C113.104 226.757 113.323 226.898 113.633 227.008L114.781 227.418C115.228 227.573 115.561 227.796 115.779 228.088C115.998 228.38 116.107 228.721 116.107 229.113C116.107 229.496 115.998 229.847 115.779 230.166C115.57 230.485 115.273 230.74 114.891 230.932C114.517 231.114 114.084 231.205 113.592 231.205C113.327 231.205 113.049 231.169 112.758 231.096C112.475 231.032 112.22 230.954 111.992 230.863C111.764 230.763 111.596 230.676 111.486 230.604V229.4C111.614 229.492 111.792 229.596 112.02 229.715C112.257 229.824 112.507 229.92 112.771 230.002C113.036 230.075 113.282 230.111 113.51 230.111C113.938 230.111 114.275 230.016 114.521 229.824C114.777 229.633 114.904 229.396 114.904 229.113C114.904 228.895 114.818 228.721 114.645 228.594C114.48 228.466 114.239 228.343 113.92 228.225L112.908 227.855C112.38 227.655 112.029 227.404 111.855 227.104C111.682 226.794 111.596 226.443 111.596 226.051C111.596 225.467 111.814 224.984 112.252 224.602C112.689 224.219 113.273 224.027 114.002 224.027Z" fill="#2A2A2A"/>
<path d="M120.633 224.027C121.335 224.027 121.918 224.173 122.383 224.465C122.848 224.757 123.194 225.153 123.422 225.654C123.659 226.156 123.777 226.721 123.777 227.35V228.02H118.527C118.582 228.402 118.714 228.753 118.924 229.072C119.133 229.391 119.407 229.646 119.744 229.838C120.081 230.02 120.469 230.111 120.906 230.111C121.398 230.111 121.859 229.988 122.287 229.742C122.715 229.487 123.076 229.209 123.367 228.908L123.354 230.125C123.226 230.28 123.035 230.444 122.779 230.617C122.533 230.781 122.246 230.918 121.918 231.027C121.599 231.146 121.262 231.205 120.906 231.205C120.214 231.205 119.598 231.041 119.061 230.713C118.523 230.385 118.099 229.952 117.789 229.414C117.488 228.867 117.338 228.27 117.338 227.623C117.338 226.976 117.479 226.379 117.762 225.832C118.044 225.285 118.432 224.848 118.924 224.52C119.425 224.191 119.995 224.027 120.633 224.027ZM120.633 225.121C120.068 225.121 119.603 225.312 119.238 225.695C118.874 226.069 118.646 226.525 118.555 227.062H122.67C122.624 226.616 122.497 226.251 122.287 225.969C122.087 225.686 121.84 225.477 121.549 225.34C121.257 225.194 120.952 225.121 120.633 225.121Z" fill="#2A2A2A"/>
<path d="M299.672 226.064V227.227H295.734V231H294.504V221.84H300.492V223.002H295.734V226.064H299.672Z" fill="#2A2A2A"/>
<path d="M305.66 224.027C306.362 224.027 306.945 224.173 307.41 224.465C307.875 224.757 308.221 225.153 308.449 225.654C308.686 226.156 308.805 226.721 308.805 227.35V228.02H303.555C303.609 228.402 303.742 228.753 303.951 229.072C304.161 229.391 304.434 229.646 304.771 229.838C305.109 230.02 305.496 230.111 305.934 230.111C306.426 230.111 306.886 229.988 307.314 229.742C307.743 229.487 308.103 229.209 308.395 228.908L308.381 230.125C308.253 230.28 308.062 230.444 307.807 230.617C307.561 230.781 307.273 230.918 306.945 231.027C306.626 231.146 306.289 231.205 305.934 231.205C305.241 231.205 304.626 231.041 304.088 230.713C303.55 230.385 303.126 229.952 302.816 229.414C302.516 228.867 302.365 228.27 302.365 227.623C302.365 226.976 302.507 226.379 302.789 225.832C303.072 225.285 303.459 224.848 303.951 224.52C304.452 224.191 305.022 224.027 305.66 224.027ZM305.66 225.121C305.095 225.121 304.63 225.312 304.266 225.695C303.901 226.069 303.673 226.525 303.582 227.062H307.697C307.652 226.616 307.524 226.251 307.314 225.969C307.114 225.686 306.868 225.477 306.576 225.34C306.285 225.194 305.979 225.121 305.66 225.121Z" fill="#2A2A2A"/>
<path d="M313.467 224.027C314.169 224.027 314.752 224.173 315.217 224.465C315.682 224.757 316.028 225.153 316.256 225.654C316.493 226.156 316.611 226.721 316.611 227.35V228.02H311.361C311.416 228.402 311.548 228.753 311.758 229.072C311.967 229.391 312.241 229.646 312.578 229.838C312.915 230.02 313.303 230.111 313.74 230.111C314.232 230.111 314.693 229.988 315.121 229.742C315.549 229.487 315.91 229.209 316.201 228.908L316.188 230.125C316.06 230.28 315.868 230.444 315.613 230.617C315.367 230.781 315.08 230.918 314.752 231.027C314.433 231.146 314.096 231.205 313.74 231.205C313.048 231.205 312.432 231.041 311.895 230.713C311.357 230.385 310.933 229.952 310.623 229.414C310.322 228.867 310.172 228.27 310.172 227.623C310.172 226.976 310.313 226.379 310.596 225.832C310.878 225.285 311.266 224.848 311.758 224.52C312.259 224.191 312.829 224.027 313.467 224.027ZM313.467 225.121C312.902 225.121 312.437 225.312 312.072 225.695C311.708 226.069 311.48 226.525 311.389 227.062H315.504C315.458 226.616 315.331 226.251 315.121 225.969C314.921 225.686 314.674 225.477 314.383 225.34C314.091 225.194 313.786 225.121 313.467 225.121Z" fill="#2A2A2A"/>
<path d="M324.445 222.195V224.164H326.441V225.217H324.445V229.223C324.445 229.505 324.518 229.729 324.664 229.893C324.81 230.057 325.033 230.139 325.334 230.139C325.607 230.139 325.835 230.107 326.018 230.043C326.2 229.97 326.359 229.893 326.496 229.811V230.727C326.314 230.872 326.118 230.986 325.908 231.068C325.708 231.16 325.434 231.205 325.088 231.205C324.505 231.205 324.062 231.032 323.762 230.686C323.47 230.33 323.324 229.861 323.324 229.277V225.217H322.012V224.889C322.458 224.688 322.832 224.36 323.133 223.904C323.434 223.439 323.698 222.87 323.926 222.195H324.445Z" fill="#2A2A2A"/>
<path d="M328.861 224.164L331.254 229.195L333.578 224.164H334.918L329.887 234.281H328.588L330.543 230.59L327.521 224.164H328.861Z" fill="#2A2A2A"/>
<path d="M339.758 224.027C340.35 224.027 340.883 224.173 341.357 224.465C341.84 224.747 342.223 225.148 342.506 225.668C342.798 226.178 342.943 226.78 342.943 227.473C342.943 228.22 342.798 228.876 342.506 229.441C342.223 229.997 341.831 230.43 341.33 230.74C340.838 231.05 340.277 231.205 339.648 231.205C339.257 231.205 338.855 231.1 338.445 230.891C338.044 230.681 337.698 230.412 337.406 230.084V234.281H336.285V224.164H337.406V225.326C337.643 224.962 337.962 224.656 338.363 224.41C338.773 224.155 339.238 224.027 339.758 224.027ZM339.58 225.121C339.17 225.121 338.796 225.226 338.459 225.436C338.131 225.645 337.871 225.937 337.68 226.311C337.497 226.675 337.406 227.104 337.406 227.596L337.42 228.908C337.712 229.264 338.017 229.555 338.336 229.783C338.655 230.002 339.024 230.111 339.443 230.111C339.936 230.111 340.355 229.984 340.701 229.729C341.048 229.473 341.312 229.145 341.494 228.744C341.686 228.334 341.781 227.91 341.781 227.473C341.781 227.026 341.69 226.63 341.508 226.283C341.326 225.928 341.07 225.645 340.742 225.436C340.414 225.226 340.027 225.121 339.58 225.121Z" fill="#2A2A2A"/>
<path d="M347.605 224.027C348.307 224.027 348.891 224.173 349.355 224.465C349.82 224.757 350.167 225.153 350.395 225.654C350.632 226.156 350.75 226.721 350.75 227.35V228.02H345.5C345.555 228.402 345.687 228.753 345.896 229.072C346.106 229.391 346.38 229.646 346.717 229.838C347.054 230.02 347.441 230.111 347.879 230.111C348.371 230.111 348.831 229.988 349.26 229.742C349.688 229.487 350.048 229.209 350.34 228.908L350.326 230.125C350.199 230.28 350.007 230.444 349.752 230.617C349.506 230.781 349.219 230.918 348.891 231.027C348.572 231.146 348.234 231.205 347.879 231.205C347.186 231.205 346.571 231.041 346.033 230.713C345.495 230.385 345.072 229.952 344.762 229.414C344.461 228.867 344.311 228.27 344.311 227.623C344.311 226.976 344.452 226.379 344.734 225.832C345.017 225.285 345.404 224.848 345.896 224.52C346.398 224.191 346.967 224.027 347.605 224.027ZM347.605 225.121C347.04 225.121 346.576 225.312 346.211 225.695C345.846 226.069 345.618 226.525 345.527 227.062H349.643C349.597 226.616 349.469 226.251 349.26 225.969C349.059 225.686 348.813 225.477 348.521 225.34C348.23 225.194 347.924 225.121 347.605 225.121Z" fill="#2A2A2A"/>
<path d="M300.191 107.723V108.885H295.734V111.838H300.779V113H294.504V103.84H300.779V105.002H295.734V107.723H300.191Z" fill="#2A2A2A"/>
<path d="M304.156 106.164V107.039C304.375 106.793 304.653 106.565 304.99 106.355C305.337 106.137 305.742 106.027 306.207 106.027C306.699 106.027 307.16 106.146 307.588 106.383C308.016 106.611 308.344 106.957 308.572 107.422C308.891 107.039 309.238 106.711 309.611 106.438C309.985 106.164 310.423 106.027 310.924 106.027C311.389 106.027 311.822 106.132 312.223 106.342C312.633 106.542 312.961 106.852 313.207 107.271C313.462 107.682 313.59 108.201 313.59 108.83V113H312.469L312.455 108.939C312.455 108.347 312.3 107.896 311.99 107.586C311.689 107.276 311.27 107.121 310.732 107.121C310.34 107.121 309.999 107.244 309.707 107.49C309.415 107.736 309.137 108.023 308.873 108.352V113H307.752L307.738 108.939C307.738 108.347 307.583 107.896 307.273 107.586C306.973 107.276 306.553 107.121 306.016 107.121C305.642 107.121 305.3 107.23 304.99 107.449C304.689 107.668 304.411 107.932 304.156 108.242V113H303.035V106.164H304.156Z" fill="#2A2A2A"/>
<path d="M318.525 106.027C318.917 106.027 319.314 106.123 319.715 106.314C320.125 106.497 320.476 106.752 320.768 107.08V106.164H321.889V113H320.768V111.838C320.531 112.202 320.207 112.521 319.797 112.795C319.396 113.068 318.936 113.205 318.416 113.205C317.833 113.205 317.299 113.059 316.816 112.768C316.333 112.467 315.946 112.052 315.654 111.523C315.372 110.995 315.23 110.384 315.23 109.691C315.23 108.935 315.372 108.283 315.654 107.736C315.946 107.189 316.342 106.77 316.844 106.479C317.345 106.178 317.906 106.027 318.525 106.027ZM318.73 107.121C318.238 107.121 317.819 107.244 317.473 107.49C317.126 107.736 316.857 108.055 316.666 108.447C316.484 108.83 316.393 109.245 316.393 109.691C316.393 110.129 316.484 110.535 316.666 110.908C316.848 111.273 317.104 111.564 317.432 111.783C317.769 112.002 318.156 112.111 318.594 112.111C319.013 112.111 319.387 112.002 319.715 111.783C320.043 111.564 320.303 111.264 320.494 110.881C320.686 110.489 320.777 110.051 320.768 109.568L320.754 108.256C320.471 107.9 320.166 107.622 319.838 107.422C319.519 107.221 319.15 107.121 318.73 107.121Z" fill="#2A2A2A"/>
<path d="M325.307 102.883C325.571 102.883 325.79 102.979 325.963 103.17C326.145 103.352 326.236 103.566 326.236 103.812C326.236 104.049 326.145 104.264 325.963 104.455C325.79 104.646 325.571 104.742 325.307 104.742C325.042 104.742 324.819 104.646 324.637 104.455C324.464 104.264 324.377 104.049 324.377 103.812C324.377 103.566 324.464 103.352 324.637 103.17C324.819 102.979 325.042 102.883 325.307 102.883ZM326.004 106.164V113H324.883V107.217H323.803V106.164H326.004Z" fill="#2A2A2A"/>
<path d="M329.545 103.156V113H328.424V103.156H329.545Z" fill="#2A2A2A"/>
<rect x="80.5" y="118.5" width="199" height="23" rx="2.5" stroke="#BFBFBF"/>
<rect x="80.5" y="177.5" width="199" height="23" rx="2.5" stroke="#BFBFBF"/>
<rect x="293.5" y="177.5" width="199" height="23" rx="2.5" stroke="#BFBFBF"/>
<rect x="80.5" y="236.5" width="199" height="23" rx="2.5" stroke="#BFBFBF"/>
<rect x="293.5" y="236.5" width="199" height="23" rx="2.5" stroke="#BFBFBF"/>
<rect x="293.5" y="118.5" width="199" height="23" rx="2.5" stroke="#BFBFBF"/>
<path d="M425.566 295.168C424.848 295.168 424.222 295.037 423.69 294.776C423.158 294.515 422.748 294.151 422.458 293.684C422.169 293.217 422.024 292.676 422.024 292.06H423.256C423.256 292.443 423.345 292.797 423.522 293.124C423.7 293.441 423.956 293.698 424.292 293.894C424.638 294.081 425.062 294.174 425.566 294.174C426.229 294.174 426.742 294.015 427.106 293.698C427.47 293.381 427.652 292.984 427.652 292.508C427.652 292.116 427.568 291.803 427.4 291.57C427.232 291.327 427.004 291.131 426.714 290.982C426.434 290.833 426.108 290.702 425.734 290.59C425.37 290.478 424.988 290.352 424.586 290.212C423.83 289.951 423.27 289.629 422.906 289.246C422.542 288.854 422.36 288.345 422.36 287.72C422.351 287.197 422.472 286.735 422.724 286.334C422.976 285.923 423.331 285.606 423.788 285.382C424.255 285.149 424.806 285.032 425.44 285.032C426.066 285.032 426.607 285.149 427.064 285.382C427.531 285.615 427.89 285.937 428.142 286.348C428.404 286.759 428.539 287.225 428.548 287.748H427.316C427.316 287.477 427.246 287.211 427.106 286.95C426.966 286.679 426.752 286.46 426.462 286.292C426.182 286.124 425.828 286.04 425.398 286.04C424.866 286.031 424.428 286.166 424.082 286.446C423.746 286.726 423.578 287.113 423.578 287.608C423.578 288.028 423.695 288.35 423.928 288.574C424.171 288.798 424.507 288.985 424.936 289.134C425.366 289.274 425.86 289.437 426.42 289.624C426.887 289.792 427.307 289.988 427.68 290.212C428.054 290.436 428.343 290.725 428.548 291.08C428.763 291.435 428.87 291.887 428.87 292.438C428.87 292.905 428.749 293.348 428.506 293.768C428.264 294.179 427.895 294.515 427.4 294.776C426.915 295.037 426.304 295.168 425.566 295.168Z" fill="white"/>
<path d="M433.002 295.168C432.181 295.168 431.527 294.921 431.042 294.426C430.557 293.922 430.314 293.152 430.314 292.116V288.056H431.49V291.99C431.49 293.437 432.083 294.16 433.268 294.16C433.875 294.16 434.374 293.945 434.766 293.516C435.167 293.077 435.368 292.457 435.368 291.654V288.056H436.544V295H435.48L435.396 293.754C435.181 294.193 434.859 294.538 434.43 294.79C434.01 295.042 433.534 295.168 433.002 295.168Z" fill="white"/>
<path d="M442.19 295.168C441.62 295.168 441.112 295.051 440.664 294.818C440.225 294.585 439.889 294.258 439.656 293.838L439.544 295H438.48V284.92H439.656V289.204C439.88 288.868 440.197 288.565 440.608 288.294C441.028 288.023 441.56 287.888 442.204 287.888C442.894 287.888 443.496 288.047 444.01 288.364C444.523 288.681 444.92 289.115 445.2 289.666C445.489 290.217 445.634 290.842 445.634 291.542C445.634 292.242 445.489 292.867 445.2 293.418C444.92 293.959 444.518 294.389 443.996 294.706C443.482 295.014 442.88 295.168 442.19 295.168ZM442.064 294.146C442.53 294.146 442.941 294.039 443.296 293.824C443.65 293.6 443.93 293.292 444.136 292.9C444.341 292.508 444.444 292.051 444.444 291.528C444.444 291.005 444.341 290.548 444.136 290.156C443.93 289.764 443.65 289.461 443.296 289.246C442.941 289.022 442.53 288.91 442.064 288.91C441.597 288.91 441.186 289.022 440.832 289.246C440.477 289.461 440.197 289.764 439.992 290.156C439.786 290.548 439.684 291.005 439.684 291.528C439.684 292.051 439.786 292.508 439.992 292.9C440.197 293.292 440.477 293.6 440.832 293.824C441.186 294.039 441.597 294.146 442.064 294.146Z" fill="white"/>
<path d="M447.271 295V288.056H448.335L448.419 289.064C448.643 288.691 448.941 288.401 449.315 288.196C449.688 287.991 450.108 287.888 450.575 287.888C451.125 287.888 451.597 288 451.989 288.224C452.39 288.448 452.698 288.789 452.913 289.246C453.155 288.826 453.487 288.495 453.907 288.252C454.336 288.009 454.798 287.888 455.293 287.888C456.123 287.888 456.786 288.14 457.281 288.644C457.775 289.139 458.023 289.904 458.023 290.94V295H456.861V291.066C456.861 290.347 456.716 289.806 456.427 289.442C456.137 289.078 455.722 288.896 455.181 288.896C454.621 288.896 454.154 289.115 453.781 289.554C453.417 289.983 453.235 290.599 453.235 291.402V295H452.059V291.066C452.059 290.347 451.914 289.806 451.625 289.442C451.335 289.078 450.92 288.896 450.379 288.896C449.828 288.896 449.366 289.115 448.993 289.554C448.629 289.983 448.447 290.599 448.447 291.402V295H447.271Z" fill="white"/>
<path d="M460.508 286.516C460.275 286.516 460.079 286.441 459.92 286.292C459.771 286.133 459.696 285.937 459.696 285.704C459.696 285.48 459.771 285.293 459.92 285.144C460.079 284.995 460.275 284.92 460.508 284.92C460.732 284.92 460.923 284.995 461.082 285.144C461.241 285.293 461.32 285.48 461.32 285.704C461.32 285.937 461.241 286.133 461.082 286.292C460.923 286.441 460.732 286.516 460.508 286.516ZM459.92 295V288.056H461.096V295H459.92Z" fill="white"/>
<path d="M465.888 295C465.253 295 464.754 294.846 464.39 294.538C464.026 294.23 463.844 293.675 463.844 292.872V289.05H462.64V288.056H463.844L463.998 286.39H465.02V288.056H467.064V289.05H465.02V292.872C465.02 293.311 465.108 293.609 465.286 293.768C465.463 293.917 465.776 293.992 466.224 293.992H466.952V295H465.888Z" fill="white"/>
</g>
<rect x="22" y="22" width="523" height="343" rx="8" stroke="url(#paint0_linear_522_875)" stroke-width="4"/>
</g>
<defs>
<filter id="filter0_d_522_875" x="0" y="0" width="567" height="387" filterUnits="userSpaceOnUse" color-interpolation-filters="sRGB">
<feFlood flood-opacity="0" result="BackgroundImageFix"/>
<feColorMatrix in="SourceAlpha" type="matrix" values="0 0 0 0 0 0 0 0 0 0 0 0 0 0 0 0 0 0 127 0" result="hardAlpha"/>
<feOffset/>
<feGaussianBlur stdDeviation="10"/>
<feComposite in2="hardAlpha" operator="out"/>
<feColorMatrix type="matrix" values="0 0 0 0 0 0 0 0 0 0 0 0 0 0 0 0 0 0 0.12 0"/>
<feBlend mode="normal" in2="BackgroundImageFix" result="effect1_dropShadow_522_875"/>
<feBlend mode="normal" in="SourceGraphic" in2="effect1_dropShadow_522_875" result="shape"/>
</filter>
<filter id="filter1_d_522_875" x="40" y="71" width="487" height="262" filterUnits="userSpaceOnUse" color-interpolation-filters="sRGB">
<feFlood flood-opacity="0" result="BackgroundImageFix"/>
<feColorMatrix in="SourceAlpha" type="matrix" values="0 0 0 0 0 0 0 0 0 0 0 0 0 0 0 0 0 0 127 0" result="hardAlpha"/>
<feOffset/>
<feGaussianBlur stdDeviation="5"/>
<feComposite in2="hardAlpha" operator="out"/>
<feColorMatrix type="matrix" values="0 0 0 0 0 0 0 0 0 0 0 0 0 0 0 0 0 0 0.1 0"/>
<feBlend mode="normal" in2="BackgroundImageFix" result="effect1_dropShadow_522_875"/>
<feBlend mode="normal" in="SourceGraphic" in2="effect1_dropShadow_522_875" result="shape"/>
</filter>
<linearGradient id="paint0_linear_522_875" x1="20" y1="20" x2="547" y2="367" gradientUnits="userSpaceOnUse">
<stop stop-color="#7D0EFF"/>
<stop offset="1" stop-color="#1EEFB0"/>
</linearGradient>
<clipPath id="clip0_522_875">
<rect x="20" y="20" width="527" height="347" rx="10" fill="white"/>
</clipPath>
</defs>
</svg>
