<svg width="52" height="52" viewBox="0 0 52 52" fill="none" xmlns="http://www.w3.org/2000/svg">
<path d="M47.4501 30.1171V13.4337C47.4501 9.96706 44.6334 7.15039 41.1668 7.15039H9.1001C5.63343 7.15039 2.81676 9.96706 2.81676 13.4337L2.6001 30.1171H47.4501Z" fill="#18253E"/>
<path d="M35.75 40.2997C43.4083 40.2997 49.6166 34.0914 49.6166 26.4331C49.6166 18.7747 43.4083 12.5664 35.75 12.5664C28.0916 12.5664 21.8833 18.7747 21.8833 26.4331C21.8833 34.0914 28.0916 40.2997 35.75 40.2997Z" fill="#33EEB1"/>
<path d="M37.4832 23.8333C35.5332 23.8333 33.3666 23.8333 31.4166 23.8333C31.1999 23.8333 30.9832 23.8333 30.7666 23.8333C30.3332 23.8333 29.8999 23.3999 29.8999 22.9666C29.8999 22.5333 30.1166 22.0999 30.7666 22.0999C31.1999 22.0999 31.6332 22.0999 32.0666 22.0999C33.7999 22.0999 35.5332 22.0999 37.4832 22.0999C37.4832 21.8833 37.2666 21.6666 37.2666 21.4499C36.6166 20.1499 35.5332 19.4999 34.2332 19.4999C33.1499 19.4999 32.0666 19.4999 30.9832 19.4999C30.7666 19.4999 30.3332 19.2833 30.1166 19.0666C29.6832 18.6333 30.1166 17.7666 30.7666 17.7666C31.6332 17.7666 32.4999 17.7666 33.3666 17.7666C35.5332 17.7666 37.9166 17.7666 40.0832 17.7666C40.2999 17.7666 40.2999 17.7666 40.5166 17.7666C41.1666 17.7666 41.3832 18.1999 41.3832 18.6333C41.5999 19.2833 41.1666 19.4999 40.5166 19.4999C39.8666 19.4999 39.2166 19.4999 38.5666 19.4999C38.3499 19.4999 38.1332 19.4999 38.1332 19.4999C38.5666 20.3666 38.9999 21.0166 39.2166 21.8833C39.6499 21.8833 40.0832 21.8833 40.5166 21.8833C41.1666 21.8833 41.5999 22.3166 41.5999 22.7499C41.5999 23.1833 41.1666 23.6166 40.7332 23.6166C40.2999 23.6166 39.8666 23.6166 39.4332 23.6166C38.5666 26.8666 36.3999 27.9499 33.1499 27.7333C33.3666 27.9499 33.5832 28.1666 33.5832 28.1666C35.3166 29.8999 37.0499 31.4166 38.7832 33.1499C38.9999 33.3666 38.9999 33.3666 39.2166 33.5833C39.4332 34.0166 39.4332 34.4499 39.2166 34.6666C38.9999 34.8833 38.5666 35.0999 38.1332 34.6666C37.9166 34.6666 37.9166 34.4499 37.6999 34.4499C35.3166 32.2833 32.9332 29.8999 30.7666 27.7333C30.3332 27.2999 30.1166 27.0833 30.3332 26.4333C30.5499 25.9999 30.9832 25.9999 31.4166 25.9999C32.4999 25.9999 33.5832 25.9999 34.6666 25.9999C35.7499 26.2166 37.0499 25.1333 37.4832 23.8333Z" fill="white"/>
<path d="M5.8501 36.1837C3.9001 35.1004 2.6001 33.1504 2.6001 30.7671V13.4337C2.6001 9.96706 5.41676 7.15039 8.88343 7.15039L29.4668 17.5504C36.8334 20.8004 35.7501 23.8337 35.7501 27.3004V44.6337C35.7501 47.6671 32.5001 49.6171 29.9001 48.3171L5.8501 36.1837Z" fill="url(#paint0_linear_428_1823)"/>
<defs>
<linearGradient id="paint0_linear_428_1823" x1="57.8542" y1="-0.693377" x2="-0.223712" y2="43.1112" gradientUnits="userSpaceOnUse">
<stop stop-color="#FFF5E9"/>
<stop offset="0.6046" stop-color="#7D95E6"/>
<stop offset="0.9986" stop-color="#3F28DD"/>
</linearGradient>
</defs>
</svg>
