<svg width="48" height="48" viewBox="0 0 48 48" fill="none" xmlns="http://www.w3.org/2000/svg">
<rect x="17" y="16" width="15" height="13" fill="#1EEFB0"/>
<path fill-rule="evenodd" clip-rule="evenodd" d="M24 8C22.62 8 20.314 8.53 18.144 9.12C15.924 9.72 13.686 10.43 12.37 10.86C11.8198 11.0417 11.332 11.3749 10.9626 11.8214C10.5933 12.2679 10.3574 12.8095 10.282 13.384C9.09001 22.338 11.856 28.974 15.212 33.364C16.6352 35.2419 18.3321 36.8957 20.246 38.27C21.018 38.816 21.734 39.234 22.342 39.52C22.902 39.784 23.504 40 24 40C24.496 40 25.096 39.784 25.658 39.52C26.391 39.1637 27.0922 38.7456 27.754 38.27C29.668 36.8957 31.3649 35.242 32.788 33.364C36.144 28.974 38.91 22.338 37.718 13.384C37.6428 12.8092 37.4069 12.2673 37.0376 11.8205C36.6682 11.3737 36.1804 11.0401 35.63 10.858C33.7196 10.2316 31.7944 9.65146 29.856 9.118C27.686 8.532 25.38 8 24 8ZM28.292 18.292C28.4798 18.1042 28.7345 17.9987 29 17.9987C29.2656 17.9987 29.5202 18.1042 29.708 18.292C29.8958 18.4798 30.0013 18.7344 30.0013 19C30.0013 19.2656 29.8958 19.5202 29.708 19.708L23.708 25.708C23.6151 25.8011 23.5048 25.875 23.3833 25.9254C23.2618 25.9758 23.1315 26.0018 23 26.0018C22.8685 26.0018 22.7382 25.9758 22.6167 25.9254C22.4953 25.875 22.3849 25.8011 22.292 25.708L19.292 22.708C19.199 22.615 19.1253 22.5046 19.075 22.3832C19.0246 22.2617 18.9987 22.1315 18.9987 22C18.9987 21.8685 19.0246 21.7383 19.075 21.6168C19.1253 21.4954 19.199 21.385 19.292 21.292C19.385 21.199 19.4954 21.1253 19.6168 21.075C19.7383 21.0246 19.8685 20.9987 20 20.9987C20.1315 20.9987 20.2617 21.0246 20.3832 21.075C20.5047 21.1253 20.615 21.199 20.708 21.292L23 23.586L28.292 18.292V18.292Z" fill="url(#paint0_linear_124_981)"/>
<circle cx="24" cy="24" r="23" stroke="#1EEFB0" stroke-width="2"/>
<defs>
<linearGradient id="paint0_linear_124_981" x1="24" y1="-1.5" x2="27.6187" y2="39.682" gradientUnits="userSpaceOnUse">
<stop stop-color="#FFF5E9"/>
<stop offset="0.6046" stop-color="#7D95E6"/>
<stop offset="0.9986" stop-color="#3F28DD"/>
</linearGradient>
</defs>
</svg>
