<svg width="44" height="44" viewBox="0 0 44 44" fill="none" xmlns="http://www.w3.org/2000/svg">
<path d="M22 31.5332C26.5563 31.5332 30.25 27.8396 30.25 23.2832C30.25 18.7269 26.5563 15.0332 22 15.0332C17.4437 15.0332 13.75 18.7269 13.75 23.2832C13.75 27.8396 17.4437 31.5332 22 31.5332Z" fill="#33EEB1"/>
<path d="M42.3499 23.2832H1.6499C1.83324 34.4665 10.8166 43.4499 21.9999 43.4499C33.1832 43.4499 42.1666 34.4665 42.3499 23.2832Z" fill="url(#paint0_linear_428_1855)"/>
<path d="M37.9501 6.7832L28.9668 9.16654C28.6001 9.34987 28.4168 9.71654 28.7834 9.89987L30.2501 11.5499C30.4334 11.7332 30.4334 12.0999 30.2501 12.2832L28.0501 14.6665C27.8668 14.8499 27.8668 15.0332 28.0501 15.2165L30.0668 17.5999C30.2501 17.7832 30.6168 17.7832 30.8001 17.5999L32.8168 15.2165C33.0001 15.0332 33.3668 15.0332 33.5501 15.2165L35.3834 16.8665C35.5668 17.0499 36.1168 17.0499 36.1168 16.6832L38.5001 7.51654C38.5001 7.14987 38.1334 6.7832 37.9501 6.7832Z" fill="#18253E"/>
<path d="M13.75 12.4665C13.5667 12.2832 13.5667 11.9165 13.75 11.7332L15.2167 10.0832C15.4 9.89987 15.4 9.34987 15.0333 9.34987L6.05 6.7832C5.86667 6.7832 5.5 7.14987 5.5 7.51654L7.88333 16.4999C7.88333 16.8665 8.43333 17.0499 8.61667 16.6832L10.8167 14.8499C11 14.6665 11.3667 14.6665 11.55 14.8499L13.5667 17.5999C13.75 17.7832 14.1167 17.7832 14.3 17.5999L16.1333 15.5832C16.3167 15.3999 16.3167 15.0332 16.1333 14.8499L13.75 12.4665Z" fill="#18253E"/>
<path d="M22.3666 0.733008C22.1833 0.366341 21.6333 0.366341 21.4499 0.733008L16.8666 8.98301C16.6833 9.16634 17.0499 9.53301 17.2333 9.53301L19.8 9.71634C19.8 10.2663 19.8 12.0997 19.8 13.0163C19.8 13.383 19.9833 13.5663 20.35 13.5663C21.0833 13.5663 22.3666 13.5663 23.1 13.5663C23.4666 13.5663 23.6499 13.383 23.6499 13.0163C23.6499 12.0997 23.4666 10.2663 23.6499 9.71634L26.5833 9.53301C26.9499 9.53301 27.1333 9.16634 26.9499 8.79968L22.3666 0.733008Z" fill="#18253E"/>
<path d="M13.75 23.4668C13.75 28.0501 17.4167 31.7168 22 31.7168C26.5833 31.7168 30.25 28.0501 30.25 23.4668H13.75Z" fill="white"/>
<defs>
<linearGradient id="paint0_linear_428_1855" x1="14.9333" y1="64.4113" x2="27.3939" y2="-6.57414" gradientUnits="userSpaceOnUse">
<stop stop-color="#FFF5E9"/>
<stop offset="0.6046" stop-color="#7D95E6"/>
<stop offset="0.9986" stop-color="#3F28DD"/>
</linearGradient>
</defs>
</svg>
