<svg width="31" height="32" viewBox="0 0 31 32" fill="none" xmlns="http://www.w3.org/2000/svg">
<path d="M15.0318 25.3948V6.54444L6.38244 10.1509C6.99462 17.4304 11.0556 23.1824 15.0318 25.3948ZM13.0922 21.3459C10.8859 18.9275 9.10392 15.418 8.47961 11.3752L13.0922 9.45381V21.3459Z" fill="#4E5FF9"/>
<path fill-rule="evenodd" clip-rule="evenodd" d="M15.5167 26.2195L14.796 25.8185C10.6606 23.5176 6.52312 17.6101 5.89925 10.1915L5.86963 9.83931L15.5167 5.81689V26.2195ZM15.0318 6.54444L6.38244 10.1509C6.96974 17.1346 10.7313 22.7124 14.5469 25.1077C14.7085 25.2091 14.8702 25.3049 15.0318 25.3948V6.54444ZM12.6073 20.7885C12.7664 20.9801 12.9281 21.166 13.0922 21.3459V9.45381L8.47961 11.3752C9.05749 15.1174 10.6273 18.4025 12.6073 20.7885ZM12.6073 20.0116V10.1811L9.02023 11.6753C9.58777 14.9391 10.9246 17.823 12.6073 20.0116Z" fill="#4E5FF9"/>
<path d="M27.7906 5.55661L16.1531 0.707649C15.7986 0.560592 15.4186 0.484896 15.0348 0.484896C14.651 0.484896 14.271 0.560592 13.9165 0.707649L2.27901 5.55661C1.19406 6.00514 0.484896 7.06585 0.484896 8.24172C0.484896 20.2732 7.42497 28.5892 13.9105 31.2925C14.6257 31.5895 15.4318 31.5895 16.147 31.2925C21.3415 29.1286 29.5787 21.6552 29.5787 8.24172C29.5787 7.06585 28.8695 6.00514 27.7906 5.55661ZM15.4076 29.5044C15.1651 29.6014 14.8984 29.6014 14.662 29.5044C8.72813 27.1527 2.42448 18.9094 2.42448 8.24172C2.42448 7.84775 2.66087 7.4962 3.01848 7.34467L14.656 2.4957C14.8924 2.39873 15.1651 2.39873 15.4015 2.4957L27.039 7.34467C27.4027 7.4962 27.6391 7.84775 27.633 8.24172C27.6391 18.9094 21.3354 27.1527 15.4076 29.5044Z" fill="#4E5FF9"/>
<path fill-rule="evenodd" clip-rule="evenodd" d="M16.1531 0.707649L27.7906 5.55661C28.8695 6.00514 29.5787 7.06585 29.5787 8.24172C29.5787 21.6552 21.3415 29.1286 16.147 31.2925C15.4318 31.5895 14.6257 31.5895 13.9105 31.2925C7.42497 28.5892 0.484896 20.2732 0.484896 8.24172C0.484896 7.06585 1.19406 6.00514 2.27901 5.55661L13.9165 0.707649C14.271 0.560592 14.651 0.484896 15.0348 0.484896C15.4186 0.484896 15.7986 0.560592 16.1531 0.707649ZM27.9768 5.10887L16.3396 0.260052C15.9262 0.0885614 15.4824 0 15.0348 0C14.5873 0 14.1441 0.0882722 13.7307 0.259762L2.09376 5.1085C0.827564 5.63221 0 6.87002 0 8.24172C0 20.4595 7.04917 28.9579 13.7239 31.74C14.5582 32.0865 15.4987 32.0867 16.333 31.7403C21.6867 29.5101 30.0636 21.8732 30.0636 8.24172C30.0636 6.8704 29.2366 5.6328 27.9768 5.10887ZM15.2275 29.0542L15.2288 29.0537C20.9466 26.7853 27.1541 18.7393 27.1481 8.242L27.1481 8.23426C27.1511 8.04384 27.0378 7.86944 26.8525 7.79226L15.2175 2.94431L15.2165 2.9439C15.0986 2.89585 14.959 2.89585 14.841 2.9439L14.84 2.94431L3.20766 7.79113L3.20656 7.7916C3.02749 7.868 2.90938 8.0443 2.90938 8.24172C2.90938 18.7392 9.11689 26.7852 14.8407 29.0536L14.8461 29.0558C14.9631 29.1038 15.0992 29.1055 15.2275 29.0542ZM3.01848 7.34467L14.656 2.4957C14.8924 2.39873 15.1651 2.39873 15.4015 2.4957L27.039 7.34467C27.4027 7.4962 27.6391 7.84775 27.633 8.24172C27.6391 18.9094 21.3354 27.1527 15.4076 29.5044C15.1651 29.6014 14.8984 29.6014 14.662 29.5044C8.72813 27.1527 2.42448 18.9094 2.42448 8.24172C2.42448 7.84775 2.66087 7.4962 3.01848 7.34467Z" fill="#4E5FF9"/>
</svg>
