<svg width="24" height="24" viewBox="0 0 24 24" fill="none" xmlns="http://www.w3.org/2000/svg">
<path d="M23.3197 17.8199L19.7173 14.9852C18.9791 14.3946 17.9161 14.5128 17.296 15.2214C16.6464 15.9596 16.233 16.4616 16.0854 16.5797C14.9928 17.6723 12.7192 16.0777 10.2979 13.6564C7.87659 11.2351 6.3116 8.99102 7.40414 7.89848C7.52225 7.78037 8.02423 7.33745 8.76243 6.68783C9.4711 6.06775 9.58921 5.00474 8.99865 4.26654L6.16396 0.664121C5.66199 0.0440328 4.80568 -0.162663 4.097 0.132617C3.12258 0.546009 1.38043 1.99288 0.907979 2.46533C-1.69049 5.09332 1.55759 11.058 7.22697 16.7569C12.8963 22.4558 18.8905 25.7039 21.489 23.0759C21.9614 22.6034 23.4083 20.8613 23.8217 19.8869C24.1465 19.1487 23.9398 18.3219 23.3197 17.8199Z" fill="white"/>
</svg>
