<svg width="24" height="24" viewBox="0 0 24 24" fill="none" xmlns="http://www.w3.org/2000/svg">
<path d="M23.8194 10.3388C23.388 7.19492 21.7254 4.35112 19.1973 2.43305C16.6693 0.514978 13.4827 -0.320251 10.3388 0.111102C7.19492 0.542455 4.35112 2.20506 2.43305 4.73315C0.514978 7.26125 -0.320251 10.4478 0.111102 13.5917C0.466481 16.1938 1.66227 18.6086 3.51648 20.4685C5.37069 22.3284 7.78179 23.5316 10.3828 23.895C10.915 23.9647 11.4512 23.9998 11.988 24C14.1567 24.0035 16.2848 23.4117 18.1402 22.2891C18.4033 22.1306 18.5926 21.8742 18.6665 21.5762C18.7405 21.2782 18.693 20.9631 18.5346 20.7001C18.3762 20.4371 18.1198 20.2478 17.8218 20.1738C17.5238 20.0998 17.2086 20.1473 16.9456 20.3057C15.6249 21.0984 14.1336 21.5634 12.5964 21.6616C11.0592 21.7599 9.52078 21.4886 8.10991 20.8704C6.69904 20.2523 5.4567 19.3053 4.48682 18.1086C3.51695 16.912 2.84773 15.5005 2.53516 13.9922C2.22259 12.4839 2.27575 10.9227 2.69019 9.43912C3.10464 7.95558 3.86832 6.59286 4.91735 5.46494C5.96638 4.33703 7.27025 3.47672 8.7199 2.95599C10.1696 2.43525 11.7228 2.26924 13.2498 2.47182C14.6681 2.6604 16.0267 3.16211 17.2271 3.9406C18.4276 4.7191 19.4398 5.75488 20.1905 6.97291C20.9412 8.19093 21.4116 9.56069 21.5675 10.983C21.7235 12.4052 21.5611 13.8444 21.0921 15.1961C20.9704 15.5211 20.7506 15.8003 20.4631 15.9947C20.1756 16.1891 19.8347 16.2892 19.4877 16.2811C19.0304 16.2805 18.5921 16.0986 18.2687 15.7753C17.9454 15.452 17.7635 15.0136 17.7629 14.5563V7.40626C17.7629 7.09925 17.6409 6.80481 17.4238 6.58772C17.2067 6.37063 16.9123 6.24867 16.6053 6.24867C16.2983 6.24867 16.0038 6.37063 15.7867 6.58772C15.5696 6.80481 15.4477 7.09925 15.4477 7.40626V7.41706C14.5701 6.75472 13.522 6.35603 12.4261 6.26765C11.3302 6.17927 10.2318 6.40485 9.25946 6.91801C8.28709 7.43116 7.48099 8.21065 6.93551 9.16525C6.39002 10.1199 6.12771 11.2101 6.17927 12.3083C6.23083 13.4066 6.59414 14.4674 7.22666 15.3667C7.85919 16.266 8.73477 16.9666 9.75094 17.3864C10.7671 17.8061 11.8818 17.9278 12.9646 17.7372C14.0474 17.5465 15.0535 17.0514 15.8652 16.3097C16.1931 16.9927 16.7069 17.5695 17.3476 17.974C17.9883 18.3784 18.73 18.5941 19.4877 18.5963C20.3159 18.6043 21.1261 18.3542 21.8057 17.8806C22.4853 17.4071 23.0006 16.7337 23.28 15.9539C23.9038 14.1518 24.0887 12.2268 23.8194 10.3388ZM11.9749 15.5094C11.288 15.5094 10.6166 15.3057 10.0455 14.9241C9.47443 14.5426 9.02931 14.0002 8.76646 13.3656C8.50362 12.731 8.43484 12.0328 8.56884 11.3591C8.70284 10.6855 9.03359 10.0667 9.51927 9.58101C10.0049 9.09533 10.6237 8.76458 11.2974 8.63058C11.971 8.49658 12.6693 8.56536 13.3039 8.8282C13.9384 9.09105 14.4808 9.53617 14.8624 10.1073C15.244 10.6784 15.4477 11.3498 15.4477 12.0366C15.4467 12.9574 15.0805 13.8401 14.4294 14.4911C13.7783 15.1422 12.8956 15.5084 11.9749 15.5094Z" fill="white"/>
</svg>
