<svg xmlns="http://www.w3.org/2000/svg" xmlns:xlink="http://www.w3.org/1999/xlink" width="24" height="32" viewBox="0 0 24 32">
  <defs>
    <clipPath id="clip-path">
      <rect id="Rectangle_2534" data-name="Rectangle 2534" width="24" height="32" fill="#6d44e5"/>
    </clipPath>
  </defs>
  <g id="Group_18407" data-name="Group 18407" clip-path="url(#clip-path)">
    <path id="Path_23645" data-name="Path 23645" d="M4,0A4,4,0,0,0,0,4V28a4,4,0,0,0,4,4H20a4,4,0,0,0,4-4V10H16a2,2,0,0,1-2-2V0ZM16,0V8h8ZM4,5A1,1,0,0,1,5,4H9A1,1,0,0,1,9,6H5A1,1,0,0,1,4,5ZM4,9A1,1,0,0,1,5,8H9a1,1,0,0,1,0,2H5A1,1,0,0,1,4,9Z" fill="#6d44e5"/>
    <path id="Path_23646" data-name="Path 23646" d="M1.232-6.987q.454.029.942.029a6.251,6.251,0,0,0,.957-.072,4.293,4.293,0,0,0,.894-.237,2.607,2.607,0,0,0,.763-.454,2.273,2.273,0,0,0,.556-.73A3.013,3.013,0,0,0,5.62-9.509H.816a3.2,3.2,0,0,1,.159-.285l.275-.459q.174-.28.387-.609h3.74a.752.752,0,0,0-.242-.507,2.655,2.655,0,0,0-.585-.459,4.208,4.208,0,0,0-.7-.333,1.8,1.8,0,0,0-.59-.13H.816a2.27,2.27,0,0,1,.169-.348q.13-.232.275-.459l.256-.4a1.1,1.1,0,0,1,.121-.174h8.05l-.053.106q-.053.106-.14.256t-.193.329l-.2.333q-.092.155-.155.256l-.063.1H6.77a6.2,6.2,0,0,1,.353.7,2.513,2.513,0,0,1,.188.73H9.688l-.8,1.353H7.4A3.847,3.847,0,0,1,6.89-7.973a3.736,3.736,0,0,1-.957,1.058,4.369,4.369,0,0,1-1.261.648,7.4,7.4,0,0,1-1.43.314.239.239,0,0,0,.034.063q.034.053.082.121a1.977,1.977,0,0,0,.116.164L7.765.319V.561H5.929l-4.7-6.272Z" transform="translate(6.748 27.675)" fill="#85e6c4"/>
  </g>
</svg>
