<svg xmlns="http://www.w3.org/2000/svg" width="38.548" height="37.146" viewBox="0 0 38.548 37.146">
  <g id="Group_8641" data-name="Group 8641" transform="translate(-420.103 -3688.854)">
    <path id="Path_17643" data-name="Path 17643" d="M12,12a5.778,5.778,0,0,1-4.237-1.763A5.778,5.778,0,0,1,6,6,5.778,5.778,0,0,1,7.763,1.762,5.778,5.778,0,0,1,12,0a5.778,5.778,0,0,1,4.237,1.762A5.778,5.778,0,0,1,18,6a5.778,5.778,0,0,1-1.763,4.237A5.778,5.778,0,0,1,12,12ZM0,24V19.8a4.475,4.475,0,0,1,2.4-3.975A22.3,22.3,0,0,1,7.125,14.08a20.76,20.76,0,0,1,9.75,0A22.3,22.3,0,0,1,21.6,15.825,4.475,4.475,0,0,1,24,19.8V24Z" transform="translate(427 3702)" fill="#85e6c4"/>
    <path id="Path_17644" data-name="Path 17644" d="M5.937,9.367,8.6,10.978a.64.64,0,0,0,.957-.693l-.706-3.03,2.356-2.042a.641.641,0,0,0-.366-1.124l-3.1-.263L6.527.963a.642.642,0,0,0-1.181,0L4.133,3.82l-3.1.263A.641.641,0,0,0,.666,5.206L3.022,7.248l-.706,3.03a.641.641,0,0,0,.957.693L5.937,9.367Z" transform="translate(433.063 3688.282)" fill="#6d44e5"/>
    <path id="Path_17645" data-name="Path 17645" d="M4.573,7.184l2,1.211A.482.482,0,0,0,7.3,7.874L6.765,5.6,8.536,4.061a.482.482,0,0,0-.275-.845l-2.331-.2L5.017.866a.483.483,0,0,0-.888,0L3.217,3.014l-2.331.2a.482.482,0,0,0-.275.845L2.382,5.591,1.851,7.869a.482.482,0,0,0,.719.521l2-1.207Z" transform="translate(444.051 3693.533)" fill="#6d44e5"/>
    <path id="Path_17647" data-name="Path 17647" d="M3.891,6.092,5.564,7.1a.4.4,0,0,0,.6-.435l-.443-1.9L7.2,3.485a.4.4,0,0,0-.23-.705L5.024,2.615,4.262.817a.4.4,0,0,0-.741,0L2.759,2.611.813,2.776a.4.4,0,0,0-.23.705L2.062,4.763l-.443,1.9a.4.4,0,0,0,.6.435L3.891,6.092Z" transform="translate(451.311 3701.427)" fill="#6d44e5"/>
    <path id="Path_17648" data-name="Path 17648" d="M3.891,6.092,5.564,7.1a.4.4,0,0,0,.6-.435l-.443-1.9L7.2,3.485a.4.4,0,0,0-.23-.705L5.024,2.615,4.262.817a.4.4,0,0,0-.741,0L2.759,2.611.813,2.776a.4.4,0,0,0-.23.705L2.062,4.763l-.443,1.9a.4.4,0,0,0,.6.435L3.891,6.092Z" transform="translate(419.66 3701.427)" fill="#6d44e5"/>
    <path id="Path_17646" data-name="Path 17646" d="M4.573,7.184l2,1.211A.482.482,0,0,0,7.3,7.874L6.765,5.6,8.536,4.061a.482.482,0,0,0-.275-.845l-2.331-.2L5.017.866a.483.483,0,0,0-.888,0L3.217,3.014l-2.331.2a.482.482,0,0,0-.275.845L2.382,5.591,1.851,7.869a.482.482,0,0,0,.719.521l2-1.207Z" transform="translate(424.803 3693.533)" fill="#6d44e5"/>
  </g>
</svg>
