<svg xmlns="http://www.w3.org/2000/svg" width="32" height="32" viewBox="0 0 32 32">
  <g id="Group_8643" data-name="Group 8643" transform="translate(-709 -3692)">
    <path id="Subtraction_21" data-name="Subtraction 21" d="M22.588,28.235a2.831,2.831,0,1,1,1.995-.829A2.725,2.725,0,0,1,22.588,28.235Zm-14.118,0a2.824,2.824,0,1,1,1.994-4.818A2.824,2.824,0,0,1,8.47,28.235Zm16.942-7.059H8.47a2.623,2.623,0,0,1-2.4-1.394A2.682,2.682,0,0,1,6,17.011l1.905-3.458L2.823,2.823H0V0H4.588L5.929,2.823h11.5a8.474,8.474,0,0,0,7.411,7.936l-1.824,3.288a2.829,2.829,0,0,1-1.042,1.094,2.746,2.746,0,0,1-1.428.388H10.024L8.47,18.352H25.412v2.823Z" transform="translate(709 3695.765)" fill="#85e6c4"/>
    <path id="Subtraction_22" data-name="Subtraction 22" d="M6.588,13.177a6.588,6.588,0,1,1,6.589-6.588A6.6,6.6,0,0,1,6.588,13.177Zm-2.259-9.6a.48.48,0,1,0,0,.959H7.974L3.7,8.8a.475.475,0,0,0,.671.672L8.645,5.2V8.848a.479.479,0,1,0,.959,0v-4.8a.47.47,0,0,0-.48-.48Z" transform="translate(727.824 3692)" fill="#6d44e5"/>
  </g>
</svg>
