<svg xmlns="http://www.w3.org/2000/svg" width="41.796" height="32" viewBox="0 0 41.796 32">
  <g id="Group_8639" data-name="Group 8639" transform="translate(-179.433 -3484.487)">
    <path id="Subtraction_5" data-name="Subtraction 5" d="M19.608,25.687H4.571A4.574,4.574,0,0,1,0,21.116V18.83H18.936a12.289,12.289,0,0,0-.214,2.286,12.131,12.131,0,0,0,.886,4.57ZM19.844,16H0V4.571A4.574,4.574,0,0,1,4.571,0H32a4.573,4.573,0,0,1,4.571,4.571v5.745A12.067,12.067,0,0,0,32,8.973V8a1.144,1.144,0,0,0-1.143-1.143H26.286A1.144,1.144,0,0,0,25.143,8v2.286c0,.029,0,.058,0,.086A12.3,12.3,0,0,0,19.844,16Z" transform="translate(179.433 3484.487)" fill="#85e6c4"/>
    <path id="Subtraction_6" data-name="Subtraction 6" d="M10.885,21.769a10.884,10.884,0,0,1-7.7-18.581A10.884,10.884,0,0,1,18.581,18.58,10.813,10.813,0,0,1,10.885,21.769ZM12.434,8.1a1.97,1.97,0,0,0-1.9,1.2,3.157,3.157,0,0,0-.261,1.317,3.149,3.149,0,0,0,.261,1.32,2.075,2.075,0,0,0,3.8,0,3.142,3.142,0,0,0,.262-1.32,3.151,3.151,0,0,0-.262-1.317,1.968,1.968,0,0,0-1.9-1.2Zm-4.945,0a1.969,1.969,0,0,0-1.9,1.2,3.164,3.164,0,0,0-.261,1.317,3.156,3.156,0,0,0,.261,1.32,2.075,2.075,0,0,0,3.8,0,3.149,3.149,0,0,0,.261-1.32,3.157,3.157,0,0,0-.261-1.317,1.969,1.969,0,0,0-1.9-1.2ZM3.615,9.2h0v3.858h.927V8.185h-.55l-1.178.523V9.39l.8-.188ZM15.3,10.671v.745h1.31v1.206h.759V11.417h1.3v-.745h-1.3v-1.2h-.759v1.2Zm-2.864,1.672a1.08,1.08,0,0,1-.9-.459,2.065,2.065,0,0,1-.345-1.261,2.06,2.06,0,0,1,.345-1.26,1.111,1.111,0,0,1,1.8,0,2.05,2.05,0,0,1,.348,1.26,2.056,2.056,0,0,1-.348,1.261A1.085,1.085,0,0,1,12.434,12.343Zm-4.945,0a1.085,1.085,0,0,1-.9-.459,2.072,2.072,0,0,1-.344-1.261,2.066,2.066,0,0,1,.344-1.26,1.112,1.112,0,0,1,1.8,0,2.051,2.051,0,0,1,.348,1.26,2.056,2.056,0,0,1-.348,1.261A1.085,1.085,0,0,1,7.489,12.343Z" transform="translate(199.459 3494.719)" fill="#6d44e5"/>
  </g>
</svg>
