<svg xmlns="http://www.w3.org/2000/svg" width="35.059" height="35.032" viewBox="0 0 35.059 35.032">
  <g id="Group_8640" data-name="Group 8640" transform="translate(-707.317 -3884.968)">
    <path id="Path_17639" data-name="Path 17639" d="M1.313-5.69q.542.035,1.125.035A7.464,7.464,0,0,0,3.58-5.742a5.126,5.126,0,0,0,1.067-.283,3.113,3.113,0,0,0,.912-.542,2.714,2.714,0,0,0,.663-.871A3.6,3.6,0,0,0,6.551-8.7H.816a3.815,3.815,0,0,1,.19-.34l.329-.548q.208-.335.462-.727H6.263a.9.9,0,0,0-.288-.606,3.17,3.17,0,0,0-.7-.548,5.025,5.025,0,0,0-.837-.4,2.153,2.153,0,0,0-.7-.156H.816a2.71,2.71,0,0,1,.2-.415q.156-.277.329-.548l.306-.479a1.311,1.311,0,0,1,.144-.208h9.612l-.063.127q-.063.127-.167.306t-.231.392l-.237.4q-.11.185-.185.306l-.075.121H7.924a7.406,7.406,0,0,1,.421.837,3,3,0,0,1,.225.871h2.839L10.451-8.7H8.674a4.593,4.593,0,0,1-.606,1.835A4.46,4.46,0,0,1,6.926-5.6,5.216,5.216,0,0,1,5.42-4.83a8.841,8.841,0,0,1-1.708.375.285.285,0,0,0,.04.075q.04.063.1.144a2.36,2.36,0,0,0,.138.2L9.113,3.034v.288H6.921L1.313-4.167Z" transform="translate(719.586 3908.675)" fill="#6d44e5"/>
    <path id="Path_17640" data-name="Path 17640" d="M1.05,19.119a16,16,0,1,0,1-8m-1-8v8h8" transform="translate(707.949 3885.46)" fill="none" stroke="#85e6c4" stroke-linecap="round" stroke-linejoin="round" stroke-width="3"/>
  </g>
</svg>
