<svg xmlns="http://www.w3.org/2000/svg" width="42" height="44" viewBox="0 0 42 44">
  <g id="Analytics_reporting" data-name="Analytics &amp; reporting" transform="translate(-497 -414.957)">
    <g id="Group_9121" data-name="Group 9121" transform="translate(503.246 419.341)">
      <path id="Path_15374" data-name="Path 15374" d="M20.567,3.6H0v2.4H20.567v3.6L27.4,4.8,20.567,0Z" transform="translate(0.425 13.7) rotate(-30)" fill="#fff"/>
      <path id="Rectangle_2306" data-name="Rectangle 2306" d="M2,0H6A2,2,0,0,1,8,2v8a0,0,0,0,1,0,0H0a0,0,0,0,1,0,0V2A2,2,0,0,1,2,0Z" transform="translate(-0.245 23.616)" fill="#85e6c4"/>
      <path id="Rectangle_2307" data-name="Rectangle 2307" d="M2,0H4A2,2,0,0,1,6,2V14a0,0,0,0,1,0,0H0a0,0,0,0,1,0,0V2A2,2,0,0,1,2,0Z" transform="translate(10.755 19.616)" fill="#85e6c4"/>
      <path id="Rectangle_2308" data-name="Rectangle 2308" d="M2,0H5A2,2,0,0,1,7,2V18a0,0,0,0,1,0,0H0a0,0,0,0,1,0,0V2A2,2,0,0,1,2,0Z" transform="translate(19.755 15.616)" fill="#85e6c4"/>
    </g>
    <rect id="Rectangle_2396" data-name="Rectangle 2396" width="42" height="44" transform="translate(497 414.957)" fill="none"/>
  </g>
</svg>
