<svg xmlns="http://www.w3.org/2000/svg" width="40" height="40" viewBox="0 0 40 40">
  <g id="Configure_automated_" data-name="Configure automated " transform="translate(-158 -165)">
    <g id="Group_9068" data-name="Group 9068" transform="translate(20 -4043)">
      <path id="Subtraction_18" data-name="Subtraction 18" d="M5.086,32.013A.287.287,0,0,1,5,32a.232.232,0,0,1-.148-.11.67.67,0,0,1,.054-.453A1.489,1.489,0,0,0,5,31V19H2a5.033,5.033,0,0,0-.558.056,7.2,7.2,0,0,1-.887.081A.8.8,0,0,1,0,19c-.193-.193-.143-.359-.079-.569A1.426,1.426,0,0,0,0,18V2a5.061,5.061,0,0,0-.056-.558C-.128.9-.217.218,0,0A.8.8,0,0,1,.555-.136a7.235,7.235,0,0,1,.886.08A5.061,5.061,0,0,0,2,0H14c.445,0,.607.3.8.649.062.115.126.233.2.351.277.414.255.459.091.805-.027.056-.057.12-.091.195L10,14h3a3.031,3.031,0,0,1,1.343.421A9.408,9.408,0,0,0,8,23.5a9.924,9.924,0,0,0,.609,3.442L6,31l-.034.06C5.764,31.416,5.425,32.013,5.086,32.013Z" transform="translate(145 4211)" fill="#85e6c4"/>
      <path id="Path_17633" data-name="Path 17633" d="M16.271,5.589l1-1a7.791,7.791,0,0,0-1-1l-2,1a7.742,7.742,0,0,0-5-2c-2.227,0-4.426,1.426-6,3a8.161,8.161,0,0,0-2,6,8.161,8.161,0,0,0,2,6,8.161,8.161,0,0,0,6,2,7.721,7.721,0,0,0,8-8C17.271,9.612,17.419,7.026,16.271,5.589Zm-6,7h-2v-7h2Zm2-13h-6v2h6Z" transform="translate(153.729 4223.411)" fill="#fff"/>
    </g>
    <rect id="Rectangle_2400" data-name="Rectangle 2400" width="40" height="40" transform="translate(158 165)" fill="none"/>
  </g>
</svg>
