<svg xmlns="http://www.w3.org/2000/svg" xmlns:xlink="http://www.w3.org/1999/xlink" width="42.703" height="48.01" viewBox="0 0 42.703 48.01">
  <defs>
    <linearGradient id="linear-gradient" x1="0.5" x2="0.5" y2="1" gradientUnits="objectBoundingBox">
      <stop offset="0" stop-color="#fff"/>
      <stop offset="1" stop-color="#83e4c2"/>
    </linearGradient>
  </defs>
  <g id="Flexible_billing_options" data-name="Flexible billing options" transform="translate(0 0)">
    <path id="Path_24128" data-name="Path 24128" d="M32.478,22.465h0c.436,0,1.1-1.1,1.412-1.412s1.412.436,1.412,0-1.1-1.1-1.412-1.412-.976,0-1.412,0h0ZM29.653,15.4c0,.436-.308,1.1,0,1.412s.976,0,1.412,0h0V13.993c-.436,0-1.1-.308-1.412,0S29.653,14.969,29.653,15.4ZM4.236,2.7c0-.654.462-.95,0-1.412S3.478-.128,2.824-.128s-.95.95-1.412,1.412S0,2.042,0,2.7v8.472H4.236Zm25.417,33.89-4.236,4.236c-.142.107.178,0,0,0s.142.107,0,0l-4.236-4.236-4.236,4.236c-.142.107.178,0,0,0a6.251,6.251,0,0,1-1.412,0L12.709,38v7.06c0,.889.533,2.113,0,2.824H35.3c.654,0,.95-.95,1.412-1.412s1.412-.758,1.412-1.412V38L35.3,40.822a6.251,6.251,0,0,1-1.412,0c-.178,0,.142.107,0,0L31.066,38h0Z" transform="translate(0 0.128)" fill="url(#linear-gradient)"/>
    <path id="Path_24129" data-name="Path 24129" d="M8.339,12.581V45.058c0,.654-.462.95,0,1.412s.758,1.412,1.412,1.412a6.753,6.753,0,0,0,2.824-1.412c.462-.462,0-.758,0-1.412V36.586a8.3,8.3,0,0,1,0-1.412c.08-.13-.136.068,0,0a8.13,8.13,0,0,1,1.412,0c.152.014-.122-.092,0,0L18.224,38l4.236-2.824c.142-.107-.178,0,0,0s-.142-.107,0,0L26.7,38l4.236-2.824c.141-.1-.176,0,0,0s-.141-.1,0,0l1.412,1.412V30.937A12.866,12.866,0,0,1,23.872,26.7c-2.244-2.429-2.824-5.166-2.824-8.472s.58-6.044,2.824-8.472A12.867,12.867,0,0,1,32.345,5.52V2.7c0-.654.462-.95,0-1.412A6.753,6.753,0,0,0,29.52-.128H6.927A6.421,6.421,0,0,1,8.339,2.7Zm4.236-5.648h7.06V9.756h-7.06Zm0,5.648h4.236v1.412H12.576Zm0,4.236h4.236v2.824H12.576Zm0,5.648h5.648v1.412H12.576Zm0,4.236h7.06v1.412h-7.06Z" transform="translate(-1.279 0.128)" fill="url(#linear-gradient)"/>
    <circle id="Ellipse_314" data-name="Ellipse 314" cx="10.868" cy="10.868" r="10.868" transform="translate(20.967 8.215)" fill="url(#linear-gradient)"/>
    <path id="Path_24130" data-name="Path 24130" d="M.725-6.565c.328.021,1.06,0,1.412,0a12.725,12.725,0,0,0,1.412,0,10.048,10.048,0,0,0,1.412,0c.307-.118-.244.209,0,0A9.66,9.66,0,0,0,6.374-7.978c.157-.317-.042-.966,0-1.412H.725c.021-.049-.094.157,0,0h0c.125-.2,1.259-1.175,1.412-1.412H6.374c0-.181-1.238.185-1.412,0s.247-1.266,0-1.412-1.154.094-1.412,0,.167,0,0,0H.725c.028-.084-.094.167,0,0s-.1-1.248,0-1.412,1.332.125,1.412,0-.007,0,0,0H10.61c-.038.077.063-.108,0,0s.077-.129,0,0-1.346,1.3-1.412,1.412.045-.073,0,0H7.786c.146.251-.108,1.158,0,1.412s-.028-.272,0,0H10.61L9.2-9.39H7.786c-.084.648.282.952,0,1.412A6.7,6.7,0,0,1,6.374-6.565c-.408.3-.91,1.248-1.412,1.412s-.882-.063-1.412,0c0,.007-.024-.038,0,0s-.035-.049,0,0-.049-.063,0,0l4.236,7.06H6.374L.725-5.153Z" transform="translate(26.104 26.334)" fill="url(#linear-gradient)"/>
  </g>
</svg>
