<svg xmlns="http://www.w3.org/2000/svg" width="40" height="40" viewBox="0 0 40 40">
  <g id="Membership_manage" data-name="Membership manage" transform="translate(-251 -164)">
    <g id="Group_8641" data-name="Group 8641" transform="translate(-165.103 -3519.855)">
      <path id="Path_17643" data-name="Path 17643" d="M9.962,9.962A4.8,4.8,0,0,1,6.444,8.5,4.8,4.8,0,0,1,4.981,4.981,4.8,4.8,0,0,1,6.444,1.463,4.8,4.8,0,0,1,9.962,0a4.8,4.8,0,0,1,3.518,1.463,4.8,4.8,0,0,1,1.463,3.518A4.8,4.8,0,0,1,13.479,8.5,4.8,4.8,0,0,1,9.962,9.962ZM0,19.923V16.437a3.715,3.715,0,0,1,1.992-3.3,18.51,18.51,0,0,1,3.922-1.448,17.234,17.234,0,0,1,8.094,0,18.508,18.508,0,0,1,3.922,1.448,3.715,3.715,0,0,1,1.992,3.3v3.487Z" transform="translate(425.829 3699.767)" fill="#85e6c4"/>
      <path id="Path_17644" data-name="Path 17644" d="M5,7.873,7.216,9.211a.532.532,0,0,0,.794-.576L7.423,6.119,9.379,4.425a.532.532,0,0,0-.3-.933L6.5,3.273,5.494.9a.533.533,0,0,0-.981,0L3.506,3.268.932,3.487a.532.532,0,0,0-.3.933L2.584,6.114,2,8.63a.532.532,0,0,0,.794.576L5,7.873Z" transform="translate(430.786 3688.282)" fill="#fff"/>
      <path id="Path_17645" data-name="Path 17645" d="M3.872,6.061,5.534,7.067a.4.4,0,0,0,.6-.433L5.691,4.743l1.47-1.274a.4.4,0,0,0-.228-.7L5,2.6,4.24.816a.4.4,0,0,0-.737,0L2.746,2.6.81,2.763a.4.4,0,0,0-.228.7L2.053,4.739,1.612,6.63a.4.4,0,0,0,.6.433l1.663-1Z" transform="translate(439.908 3692.641)" fill="#fff"/>
      <path id="Path_17647" data-name="Path 17647" d="M3.306,5.155l1.388.84a.334.334,0,0,0,.5-.361L4.824,4.054,6.052,2.99A.334.334,0,0,0,5.861,2.4L4.246,2.268,3.613.776A.335.335,0,0,0,3,.776L2.366,2.264.75,2.4a.334.334,0,0,0-.191.585L1.787,4.051,1.419,5.63a.334.334,0,0,0,.5.361l1.388-.836Z" transform="translate(445.935 3699.195)" fill="#fff"/>
      <path id="Path_17648" data-name="Path 17648" d="M3.306,5.155l1.388.84a.334.334,0,0,0,.5-.361L4.824,4.054,6.052,2.99A.334.334,0,0,0,5.861,2.4L4.246,2.268,3.613.776A.335.335,0,0,0,3,.776L2.366,2.264.75,2.4a.334.334,0,0,0-.191.585L1.787,4.051,1.419,5.63a.334.334,0,0,0,.5.361l1.388-.836Z" transform="translate(419.66 3699.195)" fill="#fff"/>
      <path id="Path_17646" data-name="Path 17646" d="M3.872,6.061,5.534,7.067a.4.4,0,0,0,.6-.433L5.691,4.743l1.47-1.274a.4.4,0,0,0-.228-.7L5,2.6,4.24.816a.4.4,0,0,0-.737,0L2.746,2.6.81,2.763a.4.4,0,0,0-.228.7L2.053,4.739,1.612,6.63a.4.4,0,0,0,.6.433l1.663-1Z" transform="translate(423.929 3692.641)" fill="#fff"/>
    </g>
    <rect id="Rectangle_2401" data-name="Rectangle 2401" width="40" height="40" transform="translate(251 164)" fill="none"/>
  </g>
</svg>
