<svg xmlns="http://www.w3.org/2000/svg" width="40" height="40" viewBox="0 0 40 40">
  <g id="Payment_notification" data-name="Payment notification" transform="translate(-788 -211)">
    <g id="Group_5910" data-name="Group 5910" transform="translate(789.95 213.225)">
      <path id="Path_6585" data-name="Path 6585" d="M32.05,27.775h0a12.851,12.851,0,0,1-2-3c-.754-1.474-1.877-3.349-2-5v-5c.007-2.593-.289-5.052-2-7s-4.428-2.671-7-3v-2c0-.348.246-.754,0-1s-.651,0-1,0-.754-.246-1,0-1,.652-1,1v2a8.642,8.642,0,0,0-6,3,11.046,11.046,0,0,0-3,7v5a13.4,13.4,0,0,1-1,5,17.979,17.979,0,0,1-3,3h0v3h29Z" transform="translate(0 0)" fill="#85e6c4"/>
      <path id="Path_6586" data-name="Path 6586" d="M15.243,32.251a1.759,1.759,0,0,0,.766,1.278,3.007,3.007,0,0,0,1.825.738,2.431,2.431,0,0,0,1.6-.738,1.813,1.813,0,0,0,.809-1.278Z" transform="translate(-0.193 -0.476)" fill="#fff"/>
    </g>
    <rect id="Rectangle_6092" data-name="Rectangle 6092" width="40" height="40" transform="translate(788 211)" fill="none"/>
  </g>
</svg>
