<svg id="Revenue_recognition" data-name="Revenue recognition" xmlns="http://www.w3.org/2000/svg" width="63" height="63" viewBox="0 0 63 63">
  <g id="Group_8638" data-name="Group 8638" transform="translate(6.522 12.64)">
    <path id="Path_17631" data-name="Path 17631" d="M46.606,4.727c-3.328,0-5.491,3.856-4.733,6.311l-7.889,7.889a2.086,2.086,0,0,0-1.578,0l-6.311-6.311c.78-2.456-1.383-4.733-4.733-4.733-3.328,0-5.514,2.255-4.733,4.733L7.161,23.661C4.706,22.9.85,25.066.85,28.394a4.853,4.853,0,0,0,4.733,4.733c3.328,0,5.491-3.856,4.733-6.311l9.467-11.044a8.112,8.112,0,0,0,3.156,0l6.311,6.311c-.78,2.456-.2,6.311,3.156,6.311,3.328,0,5.514-3.833,4.733-6.311l7.889-7.889c2.456.757,6.311-1.406,6.311-4.733A4.853,4.853,0,0,0,46.606,4.727Z" transform="translate(-0.85 6.317)" fill="#85e6c4"/>
    <path id="Path_17632" data-name="Path 17632" d="M32.406,14.2l3.156-4.733,4.733-3.156L35.561,4.733,32.406,0,30.828,4.733,26.095,6.311l4.733,3.156ZM7.161,18.933V14.2l4.733-1.578L7.161,11.044V6.311L5.583,11.044.85,12.622,5.583,14.2Z" transform="translate(-0.85)" fill="#fff"/>
  </g>
  <rect id="Rectangle_2403" data-name="Rectangle 2403" width="63" height="63" transform="translate(0 0)" fill="none"/>
</svg>
