<svg xmlns="http://www.w3.org/2000/svg" width="61" height="60" viewBox="0 0 61 60">
  <g id="Robust_customer_" data-name="Robust customer " transform="translate(-0.212 -0.203)">
    <g id="Group_8517" data-name="Group 8517" transform="translate(6.565 14.453)">
      <path id="Path_15139" data-name="Path 15139" d="M24.57,1.933,16.945,6.794c-1.225.946-.928,3.646,0,4.861.981,1.295,2.5.982,3.813,0l7.625-6.076c.532-.393.852.706,1.271,1.215s.532.815,0,1.215L28.382,9.224l10.167,9.722V4.364h0L33.466.718A7.293,7.293,0,0,0,29.653-.5c-1.658,0-3.79,1.434-5.083,2.43Zm1.271,8.506-3.812,3.646A5.53,5.53,0,0,1,14.4,12.87a5.368,5.368,0,0,1,1.271-7.291L22.028.718c-.882-.356-1.576,0-2.542,0-1.43-.007-2.618-.756-3.812,0L9.32,4.364V21.376h2.542l6.354,6.076a3.669,3.669,0,0,0,5.083,0,8.8,8.8,0,0,0,1.271-2.43l1.271,1.215a3.676,3.676,0,0,0,5.083,0c.342-.356,1.111-.786,1.271-1.215,1.476.946,3.844,1.295,5.083,0,1.362-1.418.212-3.559-1.271-4.861L25.841,10.44ZM6.778,4.364H.424V21.376c0,1.287-.075,2.43,1.271,2.43H4.236a2.564,2.564,0,0,0,2.542-2.43ZM2.966,21.376a1.216,1.216,0,1,1,1.271-1.215A1.287,1.287,0,0,1,2.966,21.376ZM41.091,4.364V21.376a2.564,2.564,0,0,0,2.542,2.43h2.542a2.564,2.564,0,0,0,2.542-2.43V4.364Zm5.083,15.8A1.272,1.272,0,1,1,44.9,18.946,1.287,1.287,0,0,1,46.174,20.161Z" transform="translate(-0.423 0.497)" fill="#fff"/>
      <path id="Path_15140" data-name="Path 15140" d="M25.841,10.608,22.028,14.37A5.418,5.418,0,0,1,14.4,13.116a5.658,5.658,0,0,1,1.271-7.525L22.028.574c-.882-.368-1.576,0-2.542,0-1.43-.008-2.618-.781-3.812,0L9.32,4.337V21.9h2.542l6.354,6.271a3.587,3.587,0,0,0,5.083,0,9.193,9.193,0,0,0,1.271-2.508l1.271,1.254a3.594,3.594,0,0,0,5.083,0c.342-.368,1.111-.811,1.271-1.254,1.476.976,3.844,1.336,5.083,0,1.362-1.464.212-3.673-1.271-5.017L25.841,10.608ZM6.778,4.337H.424V21.9c0,1.329-.075,2.508,1.271,2.508H4.236A2.6,2.6,0,0,0,6.778,21.9ZM2.966,21.9a1.254,1.254,0,1,1,0-2.508,1.254,1.254,0,1,1,0,2.508Z" transform="translate(-0.423 0.692)" fill="#85e6c4"/>
    </g>
    <rect id="Rectangle_2409" data-name="Rectangle 2409" width="61" height="60" transform="translate(0.212 0.203)" fill="none"/>
  </g>
</svg>
