<svg xmlns="http://www.w3.org/2000/svg" width="50" height="50" viewBox="0 0 50 50">
  <g id="Track_payments" data-name="Track payments" transform="translate(-353.143 -79)">
    <rect id="Rectangle_2397" data-name="Rectangle 2397" width="50" height="50" transform="translate(353.143 79)" fill="none"/>
    <g id="Group_9122" data-name="Group 9122" transform="translate(358.143 88.687)">
      <path id="Subtraction_46" data-name="Subtraction 46" d="M18.766,24.584H4.375A4.377,4.377,0,0,1,0,20.209V18.021H18.122a11.761,11.761,0,0,0-.2,2.188,11.61,11.61,0,0,0,.848,4.374Zm.226-9.271H0V4.375A4.377,4.377,0,0,1,4.375,0H30.626A4.376,4.376,0,0,1,35,4.375v5.5a11.549,11.549,0,0,0-4.375-1.285V7.656a1.095,1.095,0,0,0-1.094-1.094H25.157a1.095,1.095,0,0,0-1.094,1.094V9.844c0,.028,0,.055,0,.083a11.77,11.77,0,0,0-5.074,5.386Z" fill="#85e6c4"/>
      <path id="Subtraction_47" data-name="Subtraction 47" d="M10.418,20.834A10.416,10.416,0,0,1,3.052,3.051,10.417,10.417,0,0,1,17.783,17.782,10.348,10.348,0,0,1,10.418,20.834ZM11.9,7.753a1.885,1.885,0,0,0-1.817,1.153,3.022,3.022,0,0,0-.25,1.26,3.014,3.014,0,0,0,.25,1.264,1.986,1.986,0,0,0,3.633,0,3.007,3.007,0,0,0,.251-1.264,3.015,3.015,0,0,0-.251-1.26A1.884,1.884,0,0,0,11.9,7.753Zm-4.733,0A1.884,1.884,0,0,0,5.35,8.906a3.028,3.028,0,0,0-.25,1.26,3.02,3.02,0,0,0,.25,1.264,1.986,1.986,0,0,0,3.633,0,3.014,3.014,0,0,0,.25-1.264,3.022,3.022,0,0,0-.25-1.26A1.884,1.884,0,0,0,7.167,7.753ZM3.46,8.807h0V12.5h.887V7.833H3.82l-1.127.5v.653l.766-.18Zm11.181,1.406v.713h1.254V12.08h.726V10.926h1.247v-.713H16.62V9.06h-.726v1.153Zm-2.741,1.6a1.034,1.034,0,0,1-.863-.44,1.976,1.976,0,0,1-.33-1.207,1.971,1.971,0,0,1,.33-1.206,1.063,1.063,0,0,1,1.723,0,1.962,1.962,0,0,1,.333,1.206,1.967,1.967,0,0,1-.333,1.207A1.038,1.038,0,0,1,11.9,11.813Zm-4.733,0a1.038,1.038,0,0,1-.864-.44,1.983,1.983,0,0,1-.329-1.207A1.978,1.978,0,0,1,6.3,8.96a1.064,1.064,0,0,1,1.724,0,1.963,1.963,0,0,1,.333,1.206,1.968,1.968,0,0,1-.333,1.207A1.038,1.038,0,0,1,7.167,11.813Z" transform="translate(19.166 9.793)" fill="#fff"/>
    </g>
  </g>
</svg>
