<svg width="32" height="32" viewBox="0 0 32 32" fill="none" xmlns="http://www.w3.org/2000/svg">
<path d="M12.7082 32.0002C13.9331 31.8471 14.2393 31.3877 14.2393 30.4691C14.2393 28.7848 14.2393 24.0384 14.2393 22.2011C14.2393 20.8231 14.2393 16.9953 14.2393 14.6987C14.2393 13.6269 13.4737 12.8613 12.402 12.8613C9.64598 12.8613 4.44021 12.8613 1.68422 12.8613C0.765554 12.8613 0 13.6269 0 14.5455V15.6173C0 15.6173 0 25.7226 0 30.316C0 31.2346 0.765554 31.8471 1.53111 31.8471H12.7082V32.0002Z" fill="url(#paint0_linear)"/>
<path d="M3.52148 16.5356H11.3301" stroke="white" stroke-miterlimit="10" stroke-linecap="round" stroke-linejoin="round"/>
<path d="M3.52148 20.21H9.64592" stroke="white" stroke-miterlimit="10" stroke-linecap="round" stroke-linejoin="round"/>
<path d="M5.97126 25.5695C5.35882 25.5695 4.59327 25.5695 3.98082 25.5695H3.82771C3.6746 25.5695 3.52149 25.4164 3.52149 25.2633C3.52149 25.1102 3.6746 24.9571 3.82771 24.9571C3.98082 24.9571 4.13393 24.9571 4.28705 24.9571C4.89949 24.9571 5.51193 24.9571 5.97126 24.9571C5.97126 24.804 5.97126 24.804 5.97126 24.804C5.81815 24.3447 5.35882 24.1915 4.89949 24.1915C4.59327 24.1915 4.13394 24.1915 3.82771 24.1915C3.6746 24.1915 3.6746 24.1915 3.52149 24.0384C3.36838 23.8853 3.52149 23.5791 3.82771 23.5791C4.13394 23.5791 4.44016 23.5791 4.74638 23.5791C5.51193 23.5791 6.27749 23.5791 6.88993 23.5791H7.04304C7.19615 23.5791 7.34926 23.7322 7.34926 23.8853C7.34926 24.0384 7.19615 24.1915 7.04304 24.1915C6.88993 24.1915 6.58371 24.1915 6.4306 24.1915H6.27749C6.4306 24.4978 6.58371 24.6509 6.73682 24.9571C6.88993 24.9571 7.04304 24.9571 7.19615 24.9571C7.34926 24.9571 7.50237 25.1102 7.50237 25.2633C7.50237 25.4164 7.34926 25.5695 7.19615 25.5695C7.04304 25.5695 6.88993 25.5695 6.73682 25.5695C6.4306 26.6413 5.66504 27.1007 4.59327 26.9475C4.59327 27.1007 4.74638 27.1006 4.74638 27.1006C5.20571 27.7131 5.81815 28.1724 6.4306 28.7849L6.58371 28.938C6.73682 29.0911 6.73682 29.2442 6.58371 29.2442C6.4306 29.3973 6.27749 29.3973 6.27749 29.2442C6.27749 29.2442 6.27749 29.2442 6.12438 29.0911C5.35882 28.3255 4.59327 27.56 3.82771 26.7944C3.6746 26.6413 3.6746 26.4882 3.6746 26.3351C3.6746 26.182 3.82771 26.182 3.98082 26.182C4.28705 26.182 4.74638 26.182 5.0526 26.182C5.51193 26.3351 5.97126 26.0289 5.97126 25.5695Z" fill="white"/>
<path d="M30.3159 19.1388C31.5407 18.9857 31.847 18.5264 31.847 17.6077C31.847 15.9235 31.847 11.1771 31.847 9.33976C31.847 7.96176 31.847 4.13399 31.847 1.83733C31.847 0.765554 31.0814 0 30.0096 0C27.2536 0 22.0479 0 19.2919 0C18.3732 0 17.6077 0.765554 17.6077 1.68422V2.75599C17.6077 2.75599 17.6077 12.8613 17.6077 17.4546C17.6077 18.3733 18.3732 18.9857 19.1388 18.9857H30.3159V19.1388Z" fill="url(#paint1_linear)"/>
<path d="M21.1294 3.67432H28.938" stroke="white" stroke-miterlimit="10" stroke-linecap="round" stroke-linejoin="round"/>
<path d="M21.1294 7.34912H27.2538" stroke="white" stroke-miterlimit="10" stroke-linecap="round" stroke-linejoin="round"/>
<path d="M23.5789 12.7082C22.9665 12.7082 22.2009 12.7082 21.5885 12.7082H21.4354C21.2823 12.7082 21.1292 12.5551 21.1292 12.402C21.1292 12.2489 21.2823 12.0958 21.4354 12.0958C21.5885 12.0958 21.7416 12.0958 21.8947 12.0958C22.5072 12.0958 23.1196 12.0958 23.5789 12.0958C23.5789 11.9427 23.5789 11.9427 23.5789 11.9427C23.2727 11.6364 22.9665 11.3302 22.5072 11.3302C22.2009 11.3302 21.7416 11.3302 21.4354 11.3302C21.2823 11.3302 21.2823 11.3302 21.1292 11.1771C20.976 11.024 21.1292 10.7178 21.4354 10.7178C21.7416 10.7178 22.0478 10.7178 22.354 10.7178C23.1196 10.7178 23.8851 10.7178 24.4976 10.7178H24.6507C24.8038 10.7178 24.9569 10.8709 24.9569 11.024C24.9569 11.3302 24.8038 11.3302 24.6507 11.3302C24.4976 11.3302 24.1914 11.3302 24.0383 11.3302H23.8852C24.0383 11.6364 24.1914 11.7895 24.3445 12.0958C24.4976 12.0958 24.6507 12.0958 24.8038 12.0958C24.9569 12.0958 25.11 12.2489 25.11 12.402C25.11 12.5551 24.9569 12.7082 24.8038 12.7082C24.6507 12.7082 24.4976 12.7082 24.3445 12.7082C24.0383 13.78 23.2727 14.2393 22.2009 14.0862C22.2009 14.2393 22.354 14.2393 22.354 14.2393C22.9665 14.8518 23.4258 15.3111 24.0383 15.9235L24.1914 16.0767C24.3445 16.2298 24.3445 16.3829 24.1914 16.3829C24.0383 16.536 23.8852 16.536 23.8852 16.3829C23.8852 16.3829 23.8851 16.3829 23.732 16.2298C22.9665 15.4642 22.2009 14.6987 21.4354 13.9331C21.2823 13.78 21.2823 13.6269 21.2823 13.4738C21.2823 13.3207 21.4354 13.3207 21.5885 13.3207C21.8947 13.3207 22.354 13.3207 22.6603 13.3207C23.1196 13.6269 23.5789 13.1675 23.5789 12.7082Z" fill="white"/>
<path d="M1.378 9.34004C3.36844 7.65582 5.6651 7.3496 8.26798 8.11515L8.42109 8.26826L8.11487 10.5649L13.1675 6.27782C13.3206 6.12471 13.3206 6.12471 13.1675 5.9716L9.03354 0.918945L8.88043 3.0625C8.88043 3.21561 8.72732 3.21561 8.72732 3.21561C3.98088 3.21561 1.68422 6.12471 1.07178 9.03382C1.07178 9.34004 1.22489 9.49315 1.378 9.34004Z" fill="#33EDB0"/>
<path d="M1.07178 9.03382C1.68422 6.12471 3.98088 3.21561 8.72732 3.21561C8.88043 3.21561 8.88043 3.0625 8.88043 3.0625L9.18665 0.918945L13.3206 5.9716C13.3206 6.12471 13.3206 6.12471 13.3206 6.27782L8.11487 10.5649L8.42109 8.26826C8.42109 8.11515 8.42109 8.11515 8.26798 7.96204C5.6651 7.3496 3.36844 7.65582 1.378 9.34004C1.22489 9.49315 1.07178 9.34004 1.07178 9.03382Z" fill="#33EDB0"/>
<path d="M30.6221 23.5794C28.6316 25.2636 26.335 25.5698 23.8852 24.8043C23.7321 24.8043 23.7321 24.6512 23.7321 24.498L23.8852 22.3545L18.6794 26.6416C18.6794 26.6416 18.6794 26.7947 18.6794 26.9478L22.8134 32.0005L23.1197 29.8569C23.1197 29.7038 23.2728 29.7038 23.2728 29.7038C28.0192 29.7038 30.3159 26.7947 30.9283 23.8856C30.9283 23.5794 30.7752 23.4263 30.6221 23.5794Z" fill="#33EDB0"/>
<path d="M30.9283 23.8856C30.3159 26.7947 28.0192 29.7038 23.2728 29.7038C23.1197 29.7038 23.1197 29.8569 23.1197 29.8569L22.8134 32.0005L18.6794 26.9478C18.6794 26.7947 18.6794 26.7947 18.6794 26.6416L23.7321 22.3545L23.579 24.498C23.579 24.6512 23.579 24.6512 23.7321 24.8043C26.1819 25.5698 28.4785 25.2636 30.469 23.5794C30.7752 23.4263 30.9283 23.5794 30.9283 23.8856Z" fill="#33EDB0"/>
<defs>
<linearGradient id="paint0_linear" x1="-22.909" y1="-160.606" x2="29.5234" y2="158.483" gradientUnits="userSpaceOnUse">
<stop stop-color="#FFF4E8"/>
<stop offset="0.6046" stop-color="#7D94E5"/>
<stop offset="0.9986" stop-color="#3F28DC"/>
</linearGradient>
<linearGradient id="paint1_linear" x1="-5.29785" y1="-173.404" x2="47.1346" y2="145.686" gradientUnits="userSpaceOnUse">
<stop stop-color="#FFF4E8"/>
<stop offset="0.6046" stop-color="#7D94E5"/>
<stop offset="0.9986" stop-color="#3F28DC"/>
</linearGradient>
</defs>
</svg>
