<svg width="30" height="32" viewBox="0 0 30 32" fill="none" xmlns="http://www.w3.org/2000/svg">
<path d="M14.8836 25.8975C12.7999 25.8975 10.865 25.8975 8.78133 25.8975C8.48366 25.8975 8.03715 26.0463 7.73948 26.344C6.10228 27.9812 4.31625 29.6184 2.67905 31.4044C2.23254 31.9998 1.6372 32.1486 0.893016 31.8509C0.148836 31.5533 0 30.9579 0 30.2137C0 28.8742 0 27.5347 0 26.1952C0 25.7487 0.297672 25.1533 0.595344 24.8556C2.38138 22.9208 4.31625 20.9859 6.25111 19.1999C6.54879 18.9022 7.29297 18.6045 7.73948 18.6045C11.1627 18.6045 14.5859 18.6045 18.158 18.6045C19.1999 18.6045 19.7952 19.1999 19.7952 19.944C19.7952 20.8371 19.1999 21.4324 18.0092 21.4324C16.8185 21.4324 15.479 21.4324 14.2883 21.4324C14.1394 21.4324 13.8418 21.7301 13.6929 21.8789C13.8418 22.0278 14.1394 22.3254 14.2883 22.3254C16.5208 22.3254 18.9022 22.3254 21.1347 22.3254C21.4324 22.3254 21.7301 22.1766 21.8789 21.8789C23.3673 20.3906 24.7068 19.051 26.1951 17.5627C26.9393 16.8185 27.8323 16.8185 28.4277 17.4138C29.023 18.0092 29.023 18.9022 28.13 19.6464C26.1951 21.5812 24.2603 23.5161 22.3254 25.451C21.8789 25.7487 21.2836 26.0463 20.8371 26.0463C19.051 25.8975 16.9673 25.8975 14.8836 25.8975Z" fill="url(#paint0_linear)"/>
<path d="M9.52556 16.0741C12.7314 16.0741 15.3302 13.4752 15.3302 10.2695C15.3302 7.06366 12.7314 4.46484 9.52556 4.46484C6.31976 4.46484 3.72095 7.06366 3.72095 10.2695C3.72095 13.4752 6.31976 16.0741 9.52556 16.0741Z" fill="#33EDB0"/>
<path d="M10.2698 9.07904C9.37683 9.07904 8.63265 9.07904 7.73963 9.07904C7.5908 9.07904 7.5908 9.07904 7.44196 9.07904C7.29312 9.07904 7.14429 8.93021 7.14429 8.78137C7.14429 8.63253 7.29312 8.4837 7.44196 8.4837C7.5908 8.4837 7.73963 8.4837 8.0373 8.4837C8.78148 8.4837 9.52566 8.4837 10.2698 8.4837C10.2698 8.33486 10.2698 8.33486 10.121 8.18602C9.97217 7.59068 9.52566 7.44184 8.93032 7.29301C8.48381 7.29301 8.0373 7.29301 7.5908 7.29301C7.44196 7.29301 7.29312 7.14417 7.29312 7.14417C7.14429 6.99534 7.29312 6.69766 7.5908 6.54883C7.88847 6.54883 8.33498 6.54883 8.78148 6.54883C9.6745 6.54883 10.5675 6.54883 11.6094 6.54883H11.7582C12.0559 6.54883 12.0559 6.69766 12.2047 6.8465C12.2047 6.99534 12.0559 7.14417 11.7582 7.14417C11.4605 7.14417 11.1629 7.14417 11.014 7.14417C10.8652 7.14417 10.8652 7.14417 10.7164 7.14417C10.7164 7.73952 10.8652 8.03719 11.1629 8.33486C11.3117 8.33486 11.4605 8.33486 11.6094 8.33486C11.907 8.33486 12.0559 8.4837 12.0559 8.63253C12.0559 8.78137 11.907 8.93021 11.6094 8.93021C11.4605 8.93021 11.3117 8.93021 11.014 8.93021C10.7164 10.4186 9.82334 11.0139 8.48381 10.8651C8.63265 11.0139 8.63265 11.0139 8.63265 11.0139C9.37683 11.7581 10.121 12.3534 10.7164 13.0976L10.8652 13.2465C11.014 13.3953 11.014 13.5441 10.8652 13.693C10.7164 13.8418 10.5675 13.8418 10.4187 13.8418L10.2698 13.693C9.37683 12.7999 8.33498 11.7581 7.44196 10.8651C7.29312 10.7162 7.14429 10.5674 7.14429 10.4186C7.29312 10.2697 7.44196 10.2697 7.5908 10.2697C8.0373 10.2697 8.48381 10.2697 8.93032 10.2697C9.6745 10.1209 10.121 9.67439 10.2698 9.07904Z" fill="white"/>
<path d="M23.3674 11.6092C26.5731 11.6092 29.172 9.0104 29.172 5.80461C29.172 2.59881 26.5731 0 23.3674 0C20.1616 0 17.5627 2.59881 17.5627 5.80461C17.5627 9.0104 20.1616 11.6092 23.3674 11.6092Z" fill="#33EDB0"/>
<path d="M23.9627 4.6138C23.0696 4.6138 22.3255 4.6138 21.4325 4.6138C21.2836 4.6138 21.2836 4.6138 21.1348 4.6138C20.9859 4.6138 20.8371 4.46496 20.8371 4.31613C20.8371 4.16729 20.9859 4.01845 21.1348 4.01845C21.2836 4.01845 21.4324 4.01845 21.7301 4.01845C22.4743 4.01845 23.2185 4.01845 23.9627 4.01845C23.9627 3.86962 23.9627 3.86962 23.8138 3.72078C23.5162 3.27427 23.0696 2.9766 22.4743 2.9766C22.0278 2.9766 21.5813 2.9766 21.1348 2.9766C20.9859 2.9766 20.8371 2.82777 20.8371 2.82777C20.6883 2.67893 20.8371 2.38126 21.1348 2.23242C21.4324 2.23242 21.879 2.23242 22.3255 2.23242C23.2185 2.23242 24.1115 2.23242 25.1534 2.23242H25.3022C25.5999 2.23242 25.5999 2.38126 25.7487 2.53009C25.7487 2.67893 25.5999 2.82777 25.3022 2.82777C25.0045 2.82777 24.7068 2.82777 24.558 2.82777C24.4092 2.82777 24.4092 2.82777 24.2603 2.82777C24.4092 3.12544 24.558 3.57195 24.7068 3.86962C24.8557 3.86962 25.0045 3.86962 25.1534 3.86962C25.451 3.86962 25.5999 4.01845 25.5999 4.16729C25.5999 4.31613 25.451 4.46496 25.1534 4.46496C25.0045 4.46496 24.8557 4.46496 24.558 4.46496C24.2603 5.80449 23.2185 6.251 21.879 6.251C22.0278 6.39983 22.0278 6.39983 22.0278 6.39983C22.772 7.14401 23.5162 7.73936 24.1115 8.48354L24.2603 8.63237C24.4092 8.78121 24.4092 8.93005 24.2603 9.07888C24.1115 9.22772 23.9627 9.22772 23.8138 9.07888L23.665 8.93005C22.6231 8.03703 21.7301 6.99518 20.6883 6.10216C20.5394 5.95332 20.3906 5.80449 20.5394 5.65565C20.6883 5.50682 20.8371 5.50682 20.9859 5.50682C21.4324 5.50682 21.879 5.50682 22.3255 5.50682C23.3673 5.65565 23.9627 5.20914 23.9627 4.6138Z" fill="white"/>
<defs>
<linearGradient id="paint0_linear" x1="9.82139" y1="5.69374" x2="17.9245" y2="37.2958" gradientUnits="userSpaceOnUse">
<stop stop-color="#FFF4E8"/>
<stop offset="0.6046" stop-color="#7D94E5"/>
<stop offset="0.9986" stop-color="#3F28DC"/>
</linearGradient>
</defs>
</svg>
