<svg width="32" height="32" viewBox="0 0 32 32" fill="none" xmlns="http://www.w3.org/2000/svg">
<path d="M1.1908 19.7957C1.1908 21.4329 1.1908 22.7724 1.1908 24.112C1.1908 25.4515 2.23266 26.4934 3.5722 26.6422C8.48385 26.6422 13.2467 26.6422 18.1583 26.6422C17.8606 23.6655 18.7537 21.2841 20.8374 19.3492C22.9211 17.4143 25.4514 16.9678 28.4281 17.4143C28.4281 17.1166 28.4281 16.9678 28.4281 16.6701C28.4281 13.8422 28.4281 11.0142 28.4281 8.18632C28.4281 6.40026 27.3863 5.3584 25.6002 5.3584C18.456 5.3584 11.1629 5.3584 4.01872 5.3584C2.23266 5.3584 1.1908 6.40026 1.1908 8.18632C1.1908 9.52586 1.1908 10.7166 1.1908 12.2049C2.23266 12.2049 3.12569 12.2049 4.01872 12.2049C4.91174 12.2049 5.95361 12.2049 6.84664 12.2049C8.78153 12.3538 10.2699 13.991 10.2699 16.0747C10.2699 18.1585 8.78153 19.7957 6.6978 19.9445C4.91174 19.7957 3.12569 19.7957 1.1908 19.7957Z" fill="url(#paint0_linear)"/>
<path d="M0.297676 12.9492C2.38141 12.9492 4.46514 12.9492 6.54887 12.9492C8.18608 12.9492 9.37679 14.2888 9.37679 15.7771C9.52563 17.2655 8.48376 18.6051 6.99538 18.7539C4.61397 18.9027 2.38141 18.7539 0 18.7539C0 16.819 0 14.8841 0 13.0981C0.148838 12.9492 0.148838 12.9492 0.297676 12.9492Z" fill="url(#paint1_linear)"/>
<path d="M20.6885 4.16746C20.5397 4.01862 20.5397 3.86978 20.3908 3.72095C19.2001 2.53024 17.8606 1.1907 16.6699 0C15.3303 1.33954 13.9908 2.67908 12.6512 4.16746C15.1815 4.16746 17.8606 4.16746 20.6885 4.16746Z" fill="url(#paint2_linear)"/>
<path d="M11.4605 0C10.121 1.33954 8.78144 2.82792 7.44189 4.16746H11.014L13.2466 1.93489C12.6512 1.33954 12.0559 0.744189 11.4605 0Z" fill="url(#paint3_linear)"/>
<path d="M22.7722 32.0001C27.5399 32.0001 31.4048 28.1351 31.4048 23.3675C31.4048 18.5998 27.5399 14.7349 22.7722 14.7349C18.0046 14.7349 14.1396 18.5998 14.1396 23.3675C14.1396 28.1351 18.0046 32.0001 22.7722 32.0001Z" fill="#33EDB0"/>
<path d="M22.7721 27.6837C21.2837 27.6837 19.7953 27.6837 18.307 27.6837C17.8604 27.6837 17.5628 27.5349 17.4139 27.2372C17.2651 26.7907 17.2651 26.493 17.5628 26.1954C18.7535 25.0047 19.0511 23.6651 18.9023 22.0279C18.7535 20.986 19.0511 20.093 19.7953 19.2C20.2418 18.6046 20.8372 18.1581 21.5814 18.0093C21.8791 17.8604 22.0279 17.7116 22.0279 17.4139V17.2651C22.0279 16.6697 22.3256 16.3721 22.9209 16.3721C23.3674 16.3721 23.814 16.8186 23.6651 17.4139C23.6651 17.8604 23.814 18.0093 24.2605 18.1581C25.7488 18.7535 26.7907 20.093 26.7907 21.7302C26.7907 22.1767 26.7907 22.7721 26.7907 23.2186C26.7907 24.1116 27.0884 25.0047 27.6837 25.6C27.8326 25.7489 27.9814 26.0465 28.1303 26.1954C28.4279 26.493 28.5768 26.7907 28.2791 27.2372C28.1303 27.6837 27.8326 27.8326 27.3861 27.8326C25.8977 27.6838 24.2605 27.6837 22.7721 27.6837Z" fill="white"/>
<path d="M20.6884 28.1304C22.1767 28.1304 23.5163 28.1304 25.0047 28.1304C25.0047 28.8746 24.707 29.4699 24.1116 29.7676C23.3674 30.3629 22.6232 30.3629 21.8791 29.9164C21.1349 29.6188 20.6884 29.0234 20.6884 28.1304Z" fill="white"/>
<defs>
<linearGradient id="paint0_linear" x1="30.0307" y1="-22.5855" x2="-10.2245" y2="69.5877" gradientUnits="userSpaceOnUse">
<stop stop-color="#FFF4E8"/>
<stop offset="0.6046" stop-color="#7D94E5"/>
<stop offset="0.9986" stop-color="#3F28DC"/>
</linearGradient>
<linearGradient id="paint1_linear" x1="22.4349" y1="-25.9027" x2="-17.8204" y2="66.2705" gradientUnits="userSpaceOnUse">
<stop stop-color="#FFF4E8"/>
<stop offset="0.6046" stop-color="#7D94E5"/>
<stop offset="0.9986" stop-color="#3F28DC"/>
</linearGradient>
<linearGradient id="paint2_linear" x1="28.5745" y1="-23.2217" x2="-11.6808" y2="68.9515" gradientUnits="userSpaceOnUse">
<stop stop-color="#FFF4E8"/>
<stop offset="0.6046" stop-color="#7D94E5"/>
<stop offset="0.9986" stop-color="#3F28DC"/>
</linearGradient>
<linearGradient id="paint3_linear" x1="22.8541" y1="-25.7199" x2="-17.4011" y2="66.4533" gradientUnits="userSpaceOnUse">
<stop stop-color="#FFF4E8"/>
<stop offset="0.6046" stop-color="#7D94E5"/>
<stop offset="0.9986" stop-color="#3F28DC"/>
</linearGradient>
</defs>
</svg>
