<svg width="31" height="32" viewBox="0 0 31 32" fill="none" xmlns="http://www.w3.org/2000/svg">
<path d="M1.94156 11.9868V12.1361C1.64286 13.3309 1.49351 14.5257 1.49351 15.7206C1.49351 16.1686 1.19481 16.4673 0.746755 16.4673C0.298702 16.4673 0 16.1686 0 15.7206C0 14.3764 0.149351 13.0322 0.448053 11.8374C0.597404 11.3894 1.04546 11.0907 1.34416 11.24C1.79221 11.24 1.94156 11.6881 1.94156 11.9868Z" fill="url(#paint0_linear)"/>
<path d="M26.7339 4.81809C26.7339 4.96744 26.7339 5.26614 26.5846 5.41549C26.2859 5.71419 25.8378 5.71419 25.5391 5.41549C23.7469 3.47393 21.656 2.12977 19.2664 1.53236C18.8183 1.38301 18.669 1.08431 18.8183 0.636255C18.9677 0.188202 19.2664 0.0388506 19.7144 0.0388506C22.4027 0.785606 24.7924 2.27912 26.7339 4.37003C26.7339 4.51938 26.7339 4.66873 26.7339 4.81809ZM12.3962 0.785606C12.3962 1.08431 12.2469 1.38301 11.7988 1.53236C9.4092 2.12977 7.31829 3.47393 5.52608 5.41549C5.22737 5.71419 4.77932 5.71419 4.48062 5.41549C4.18192 5.11679 4.18192 4.66873 4.48062 4.37003C6.42218 2.27912 8.8118 0.785606 11.5001 0.0388506C11.9482 -0.1105 12.2469 0.188202 12.3962 0.636255V0.785606Z" fill="url(#paint1_linear)"/>
<path d="M30.9156 15.7206C30.9156 16.1686 30.6169 16.4673 30.1689 16.4673C29.7208 16.4673 29.4221 16.1686 29.4221 15.7206C29.4221 14.5257 29.2728 13.3309 28.9741 12.1361C28.8247 11.6881 29.1234 11.3894 29.4221 11.24C30.0195 11.0907 30.4676 11.3894 30.4676 11.8374C30.7663 13.0322 30.9156 14.3764 30.9156 15.7206Z" fill="url(#paint2_linear)"/>
<path d="M30.7664 17.8115H0.149414C0.746818 25.7271 7.31827 31.9999 15.5326 31.9999C23.7469 31.9999 30.169 25.7271 30.7664 17.8115Z" fill="url(#paint3_linear)"/>
<path d="M17.3248 13.4806C15.0845 13.4806 12.8442 13.4806 10.604 13.4806C10.4546 13.4806 10.1559 13.4806 10.0066 13.4806C9.40917 13.4806 9.11047 13.0326 9.11047 12.5845C9.11047 11.9871 9.40917 11.6884 10.0066 11.5391C10.4546 11.5391 11.052 11.5391 11.5001 11.5391C13.4417 11.5391 15.3832 11.5391 17.4741 11.5391C17.3248 11.2404 17.3248 11.091 17.1754 10.7923C16.4287 9.44815 15.3832 8.70139 13.7404 8.70139C12.5455 8.70139 11.3507 8.70139 10.1559 8.70139C9.85723 8.70139 9.40917 8.55204 9.25982 8.25334C8.81177 7.65594 9.25982 6.90918 10.1559 6.90918C11.2014 6.90918 12.0975 6.90918 13.143 6.90918C15.6819 6.90918 18.0715 6.90918 20.6105 6.90918C20.7599 6.90918 20.9092 6.90918 21.0586 6.90918C21.656 6.90918 22.104 7.35723 22.104 7.80529C22.104 8.40269 21.656 8.70139 21.0586 8.85074C20.3118 8.85074 19.7144 8.85074 18.9676 8.85074C18.8183 8.85074 18.5196 8.85074 18.3702 8.85074C18.8183 9.74685 19.2663 10.643 19.7144 11.6884C20.0131 11.6884 20.6105 11.6884 21.0586 11.6884C21.8053 11.6884 22.104 12.1365 22.104 12.7339C22.104 13.3313 21.656 13.63 21.0586 13.63C20.6105 13.63 20.0131 13.63 19.565 13.63C18.5196 17.2144 16.13 18.5586 12.3962 18.2599C12.6949 18.5586 12.8442 18.7079 12.9936 18.8573C14.9352 20.6495 16.8767 22.591 18.8183 24.3833C18.9676 24.5326 19.117 24.682 19.2663 24.8313C19.565 25.2794 19.565 25.7274 19.117 26.0261C18.8183 26.3248 18.3702 26.4742 17.9222 26.1755C17.7728 26.0261 17.6235 26.0261 17.4741 25.8768C14.7858 23.3378 12.2468 20.7988 9.55852 18.2599C9.11047 17.8118 8.81177 17.5131 9.11047 16.9157C9.40917 16.3183 9.85723 16.3183 10.3053 16.3183C11.5001 16.3183 12.6949 16.3183 13.8897 16.3183C15.5326 16.1689 17.0261 14.9741 17.3248 13.4806Z" fill="#33EDB0"/>
<defs>
<linearGradient id="paint0_linear" x1="0.776627" y1="-9.50723" x2="1.36537" y2="43.8741" gradientUnits="userSpaceOnUse">
<stop stop-color="#FFF4E8"/>
<stop offset="0.6046" stop-color="#7D94E5"/>
<stop offset="0.9986" stop-color="#3F28DC"/>
</linearGradient>
<linearGradient id="paint1_linear" x1="15.3709" y1="-9.66807" x2="15.9596" y2="43.7134" gradientUnits="userSpaceOnUse">
<stop stop-color="#FFF4E8"/>
<stop offset="0.6046" stop-color="#7D94E5"/>
<stop offset="0.9986" stop-color="#3F28DC"/>
</linearGradient>
<linearGradient id="paint2_linear" x1="29.7702" y1="-9.82714" x2="30.359" y2="43.5544" gradientUnits="userSpaceOnUse">
<stop stop-color="#FFF4E8"/>
<stop offset="0.6046" stop-color="#7D94E5"/>
<stop offset="0.9986" stop-color="#3F28DC"/>
</linearGradient>
<linearGradient id="paint3_linear" x1="15.2778" y1="-7.78531" x2="15.7451" y2="57.8697" gradientUnits="userSpaceOnUse">
<stop stop-color="#FFF4E8"/>
<stop offset="0.6046" stop-color="#7D94E5"/>
<stop offset="0.9986" stop-color="#3F28DC"/>
</linearGradient>
</defs>
</svg>
