<svg width="35" height="34" viewBox="0 0 35 34" fill="none" xmlns="http://www.w3.org/2000/svg">
<path d="M20.7239 31.2382C22.7049 31.0859 23.3144 30.3239 23.3144 28.6478C23.3144 25.7525 23.3144 18.1334 23.3144 15.2382C23.3144 12.9524 23.3144 6.70479 23.3144 2.89525C23.3144 1.21905 21.943 0 20.2668 0C15.6953 0 7.31432 0 2.89525 0C1.37143 0 0.152382 1.21905 0.152382 2.74287V4.57145C0.152382 4.57145 0 21.0287 0 28.6478C0 30.0192 1.06667 31.2382 2.59049 31.2382H20.7239Z" fill="white"/>
<path d="M5.63794 6.09521H18.2856" stroke="#4E5FF9" stroke-width="1.5" stroke-miterlimit="10" stroke-linecap="round" stroke-linejoin="round"/>
<path d="M5.63794 12.0381H15.6951" stroke="#4E5FF9" stroke-width="1.5" stroke-miterlimit="10" stroke-linecap="round" stroke-linejoin="round"/>
<path d="M9.75213 20.8767C8.68546 20.8767 7.61879 20.8767 6.55212 20.8767C6.39973 20.8767 6.39973 20.8767 6.24735 20.8767C5.94259 20.8767 5.79021 20.7244 5.79021 20.4196C5.79021 20.1148 5.94259 19.9624 6.24735 19.9624C6.55211 19.9624 6.7045 19.9624 7.00926 19.9624C7.92355 19.9624 8.83784 19.9624 9.90451 19.9624C9.90451 19.8101 9.90451 19.6577 9.75213 19.6577C9.44737 19.0482 8.83784 18.7434 8.07593 18.591C7.46641 18.591 6.85688 18.591 6.39973 18.591C6.24735 18.591 6.09497 18.4386 5.94259 18.4386C5.79021 18.1339 5.94259 17.8291 6.39973 17.8291C6.85688 17.8291 7.31402 17.8291 7.77117 17.8291C8.99022 17.8291 10.2093 17.8291 11.2759 17.8291C11.4283 17.8291 11.4283 17.8291 11.5807 17.8291C11.8855 17.8291 12.0379 17.9815 12.0379 18.2862C12.0379 18.591 11.8855 18.7434 11.5807 18.7434C11.2759 18.7434 10.9712 18.7434 10.514 18.7434C10.3617 18.7434 10.3617 18.7434 10.2093 18.7434C10.3617 19.0482 10.514 19.5053 10.6664 19.9624C10.8188 19.9624 11.1236 19.9624 11.2759 19.9624C11.5807 19.9624 11.7331 20.1148 11.7331 20.4196C11.7331 20.7244 11.5807 20.8767 11.2759 20.8767C10.9712 20.8767 10.8188 20.8767 10.514 20.8767C10.0569 22.5529 8.83784 23.3148 7.16164 23.1625C7.46641 23.1625 7.46641 23.3148 7.46641 23.3148C8.3807 24.2291 9.29499 25.1434 10.2093 26.0577L10.3617 26.2101C10.514 26.3625 10.514 26.6672 10.3617 26.8196C10.2093 26.972 10.0569 26.972 9.75213 26.8196L9.59975 26.6672C8.3807 25.4482 7.16164 24.2291 5.79021 23.0101C5.63783 22.8577 5.48544 22.7053 5.63783 22.4006C5.79021 22.0958 6.09497 22.0958 6.39973 22.0958C7.00926 22.0958 7.46641 22.0958 8.07593 22.0958C8.83784 22.0958 9.59975 21.6386 9.75213 20.8767Z" fill="#4E5FF9"/>
<path d="M24.3811 32.75C29.6765 32.75 33.9692 28.4572 33.9692 23.1619C33.9692 17.8665 29.6765 13.5737 24.3811 13.5737C19.0857 13.5737 14.793 17.8665 14.793 23.1619C14.793 28.4573 19.0857 32.75 24.3811 32.75Z" fill="white" stroke="#4E5FF9" stroke-width="1.5"/>
<path d="M22.7048 27.1232C22.2477 26.2089 21.6381 25.2946 21.3334 24.3803C21.0286 23.466 21.3334 22.5518 21.7905 21.9422C22.8572 20.4184 24.8381 20.1136 26.2096 21.1803C27.581 22.247 28.0382 24.228 26.9715 25.5994C26.6667 26.0565 26.362 26.5137 26.0572 26.9708C25.9048 27.1232 25.7524 27.2756 25.6001 27.2756C25.7524 27.1232 23.3143 27.1232 22.7048 27.1232Z" fill="#4E5FF9"/>
<path d="M22.7046 27.5811C23.9236 27.5811 24.9903 27.5811 26.2094 27.5811C26.2094 27.8858 26.2094 28.0382 26.2094 28.343C26.2094 28.4953 26.2094 28.6477 26.057 28.6477C25.4475 28.6477 25.4475 29.2573 25.1427 29.4096C24.6856 29.7144 24.2284 29.7144 23.7713 29.4096C23.4665 29.1049 23.4665 28.6477 22.857 28.6477C22.7046 28.6477 22.7046 27.8858 22.7046 27.5811Z" fill="#4E5FF9"/>
<path d="M27.2761 20.5714C27.2761 20.419 27.2761 19.9619 27.4285 19.8095C27.7333 19.5047 28.038 19.0476 28.3428 18.8952C28.4952 18.7428 28.7999 18.5904 29.1047 18.8952C29.4095 19.0476 29.4095 19.5047 29.4095 19.6571C28.9523 20.2666 28.6476 20.7238 28.038 21.0285C27.7333 21.0285 27.4285 20.7238 27.2761 20.5714Z" fill="#4E5FF9"/>
<path d="M24.9904 18.7427C24.9904 19.3522 24.5332 19.3522 24.3809 19.3522C23.9237 19.3522 23.7713 19.0474 23.7713 18.7427C23.619 18.2855 23.7713 17.8284 23.7713 17.3712C23.7713 16.9141 24.0761 16.7617 24.5332 16.7617C24.9904 16.7617 25.1428 17.0665 25.1428 17.3712C25.1428 17.5236 25.1428 17.8284 25.1428 17.9808C25.1428 18.1332 25.1428 18.5903 24.9904 18.7427Z" fill="#4E5FF9"/>
<path d="M21.6381 20.1143C21.6381 20.7238 21.0286 21.0286 20.7238 20.7238C20.2667 20.419 19.9619 19.9619 19.5048 19.5048C19.3524 19.3524 19.5048 18.8952 19.6572 18.7428C19.8095 18.5905 20.2667 18.4381 20.2667 18.5905C20.7238 19.0476 21.181 19.5048 21.6381 19.9619V20.1143Z" fill="#4E5FF9"/>
</svg>
