<svg width="35" height="34" viewBox="0 0 35 34" fill="none" xmlns="http://www.w3.org/2000/svg">
<path d="M20.7239 31.2382C22.7049 31.0859 23.3144 30.3239 23.3144 28.6478C23.3144 25.7525 23.3144 18.1334 23.3144 15.2382C23.3144 12.9524 23.3144 6.70479 23.3144 2.89525C23.3144 1.21905 21.943 0 20.2668 0C15.6953 0 7.31432 0 2.89525 0C1.37143 0 0.152382 1.21905 0.152382 2.74287V4.57145C0.152382 4.57145 0 21.0287 0 28.6478C0 30.0192 1.06667 31.2382 2.59049 31.2382H20.7239Z" fill="white"/>
<path d="M5.63794 6.09521H18.2856" stroke="#4E5FF9" stroke-width="1.5" stroke-miterlimit="10" stroke-linecap="round" stroke-linejoin="round"/>
<path d="M5.63794 12.0381H15.6951" stroke="#4E5FF9" stroke-width="1.5" stroke-miterlimit="10" stroke-linecap="round" stroke-linejoin="round"/>
<path d="M9.75213 20.8767C8.68546 20.8767 7.61879 20.8767 6.55212 20.8767C6.39973 20.8767 6.39973 20.8767 6.24735 20.8767C5.94259 20.8767 5.79021 20.7244 5.79021 20.4196C5.79021 20.1148 5.94259 19.9624 6.24735 19.9624C6.55211 19.9624 6.7045 19.9624 7.00926 19.9624C7.92355 19.9624 8.83784 19.9624 9.90451 19.9624C9.90451 19.8101 9.90451 19.6577 9.75213 19.6577C9.44737 19.0482 8.83784 18.7434 8.07593 18.591C7.46641 18.591 6.85688 18.591 6.39973 18.591C6.24735 18.591 6.09497 18.4386 5.94259 18.4386C5.79021 18.1339 5.94259 17.8291 6.39973 17.8291C6.85688 17.8291 7.31402 17.8291 7.77117 17.8291C8.99022 17.8291 10.2093 17.8291 11.2759 17.8291C11.4283 17.8291 11.4283 17.8291 11.5807 17.8291C11.8855 17.8291 12.0379 17.9815 12.0379 18.2862C12.0379 18.591 11.8855 18.7434 11.5807 18.7434C11.2759 18.7434 10.9712 18.7434 10.514 18.7434C10.3617 18.7434 10.3617 18.7434 10.2093 18.7434C10.3617 19.0482 10.514 19.5053 10.6664 19.9624C10.8188 19.9624 11.1236 19.9624 11.2759 19.9624C11.5807 19.9624 11.7331 20.1148 11.7331 20.4196C11.7331 20.7244 11.5807 20.8767 11.2759 20.8767C10.9712 20.8767 10.8188 20.8767 10.514 20.8767C10.0569 22.5529 8.83784 23.3148 7.16164 23.1625C7.46641 23.1625 7.46641 23.3148 7.46641 23.3148C8.3807 24.2291 9.29499 25.1434 10.2093 26.0577L10.3617 26.2101C10.514 26.3625 10.514 26.6672 10.3617 26.8196C10.2093 26.972 10.0569 26.972 9.75213 26.8196L9.59975 26.6672C8.3807 25.4482 7.16164 24.2291 5.79021 23.0101C5.63783 22.8577 5.48544 22.7053 5.63783 22.4006C5.79021 22.0958 6.09497 22.0958 6.39973 22.0958C7.00926 22.0958 7.46641 22.0958 8.07593 22.0958C8.83784 22.0958 9.59975 21.6386 9.75213 20.8767Z" fill="#4E5FF9"/>
<path d="M24.3811 32.75C29.6765 32.75 33.9692 28.4572 33.9692 23.1619C33.9692 17.8665 29.6765 13.5737 24.3811 13.5737C19.0857 13.5737 14.793 17.8665 14.793 23.1619C14.793 28.4573 19.0857 32.75 24.3811 32.75Z" fill="white" stroke="#4E5FF9" stroke-width="1.5"/>
<path d="M30.0191 18.8951C29.8667 18.7428 29.7143 18.2856 29.4096 18.5904C29.1048 18.8951 29.4096 19.0475 29.562 19.3523C31.0858 21.3332 31.2382 24.2285 30.0191 26.3618C28.8 28.6476 26.2096 29.8666 23.7715 29.5619C20.8762 29.1047 18.5905 26.9714 18.2857 24.0761C18.1333 22.7047 18.4381 21.3332 19.0476 20.1142L20.7238 21.1809C20.2667 21.9428 20.1143 22.8571 20.2667 23.9237C20.5714 25.7523 21.9429 27.1238 23.6191 27.5809C25.4477 28.038 27.2762 27.1237 28.1905 25.5999C29.1048 24.0761 29.1048 22.0952 27.8858 20.7237C27.7334 20.5713 27.581 20.419 27.4286 20.5713C27.1239 20.7237 27.2762 21.0285 27.4286 21.1809C27.4286 21.1809 27.4286 21.3332 27.581 21.3332C28.6477 22.8571 28.4953 24.6856 27.2762 26.0571C26.0572 27.4285 24.0762 27.5809 22.5524 26.6666C21.0286 25.7523 20.4191 23.9237 21.0286 22.2475C21.0286 22.0952 21.181 21.9428 21.181 21.7904L23.1619 23.0094C23.0095 23.3142 23.0095 23.4666 23.0095 23.7714C23.1619 24.5333 23.9238 25.1428 24.6857 24.9904C25.6 24.838 26.0572 23.9237 25.9048 23.3142C25.7524 22.7047 25.4477 22.3999 24.8381 22.0952C24.8381 21.9428 24.8381 21.9428 24.8381 21.7904C24.8381 20.1142 24.8381 18.5904 24.8381 16.9142C24.8381 16.6094 24.6857 16.3047 24.381 16.457C24.0762 16.457 23.6191 16.457 23.3143 16.6094C19.5048 17.2189 17.0667 20.8761 17.6762 24.6856C18.2857 28.3428 21.7905 30.9333 25.6 30.4761C30.6286 29.4095 33.2191 23.1618 30.0191 18.8951ZM25.2953 23.1618C25.2953 23.619 24.9905 23.9237 24.5334 23.9237C24.0762 23.9237 23.7715 23.4666 23.7715 23.1618C23.7715 22.7047 24.0762 22.3999 24.6857 22.3999C24.9905 22.3999 25.2953 22.7047 25.2953 23.1618Z" fill="#4E5FF9"/>
</svg>
