<svg width="35" height="34" viewBox="0 0 35 34" fill="none" xmlns="http://www.w3.org/2000/svg">
<path d="M20.7239 31.2382C22.7049 31.0859 23.3144 30.3239 23.3144 28.6478C23.3144 25.7525 23.3144 18.1334 23.3144 15.2382C23.3144 12.9524 23.3144 6.70479 23.3144 2.89525C23.3144 1.21905 21.943 0 20.2668 0C15.6953 0 7.31432 0 2.89525 0C1.37143 0 0.152382 1.21905 0.152382 2.74287V4.57145C0.152382 4.57145 0 21.0287 0 28.6478C0 30.0192 1.06667 31.2382 2.59049 31.2382H20.7239Z" fill="white"/>
<path d="M5.63843 6.09521H18.2861" stroke="#4E5FF9" stroke-width="0.8613" stroke-miterlimit="10" stroke-linecap="round" stroke-linejoin="round"/>
<path d="M5.63843 12.0381H15.6956" stroke="#4E5FF9" stroke-width="0.8613" stroke-miterlimit="10" stroke-linecap="round" stroke-linejoin="round"/>
<path d="M9.75262 20.8767C8.68595 20.8767 7.61928 20.8767 6.5526 20.8767C6.40022 20.8767 6.40022 20.8767 6.24784 20.8767C5.94308 20.8767 5.7907 20.7244 5.7907 20.4196C5.7907 20.1148 5.94308 19.9624 6.24784 19.9624C6.5526 19.9624 6.70498 19.9624 7.00975 19.9624C7.92404 19.9624 8.83833 19.9624 9.905 19.9624C9.905 19.8101 9.905 19.6577 9.75262 19.6577C9.44786 19.0482 8.83833 18.7434 8.07642 18.591C7.46689 18.591 6.85737 18.591 6.40022 18.591C6.24784 18.591 6.09546 18.4386 5.94308 18.4386C5.7907 18.1339 5.94308 17.8291 6.40022 17.8291C6.85737 17.8291 7.31451 17.8291 7.77166 17.8291C8.99071 17.8291 10.2098 17.8291 11.2764 17.8291C11.4288 17.8291 11.4288 17.8291 11.5812 17.8291C11.886 17.8291 12.0383 17.9815 12.0383 18.2862C12.0383 18.591 11.886 18.7434 11.5812 18.7434C11.2764 18.7434 10.9717 18.7434 10.5145 18.7434C10.3621 18.7434 10.3621 18.7434 10.2098 18.7434C10.3621 19.0482 10.5145 19.5053 10.6669 19.9624C10.8193 19.9624 11.1241 19.9624 11.2764 19.9624C11.5812 19.9624 11.7336 20.1148 11.7336 20.4196C11.7336 20.7244 11.5812 20.8767 11.2764 20.8767C10.9717 20.8767 10.8193 20.8767 10.5145 20.8767C10.0574 22.5529 8.83833 23.3148 7.16213 23.1625C7.46689 23.1625 7.46689 23.3148 7.46689 23.3148C8.38118 24.2291 9.29547 25.1434 10.2098 26.0577L10.3621 26.2101C10.5145 26.3625 10.5145 26.6672 10.3621 26.8196C10.2098 26.972 10.0574 26.972 9.75262 26.8196L9.60024 26.6672C8.38118 25.4482 7.16213 24.2291 5.7907 23.0101C5.63831 22.8577 5.48593 22.7053 5.63831 22.4006C5.7907 22.0958 6.09546 22.0958 6.40022 22.0958C7.00975 22.0958 7.46689 22.0958 8.07642 22.0958C8.83833 22.0958 9.60024 21.6386 9.75262 20.8767Z" fill="#4E5FF9"/>
<path d="M24.3813 32.75C29.6767 32.75 33.9695 28.4572 33.9695 23.1619C33.9695 17.8665 29.6767 13.5737 24.3813 13.5737C19.086 13.5737 14.7932 17.8665 14.7932 23.1619C14.7932 28.4573 19.086 32.75 24.3813 32.75Z" fill="white" stroke="#4E5FF9" stroke-width="1.5"/>
<path d="M30.7811 22.8568C30.6287 22.8568 30.4764 22.8568 30.4764 22.8568C30.324 23.0092 30.324 23.1616 30.324 23.3139C30.324 23.6187 30.324 23.7711 30.324 24.0759C29.8668 27.1235 27.2763 29.2568 24.0763 29.1045C21.1811 28.9521 18.5906 26.514 18.4382 23.4663C18.2858 21.4854 19.2001 19.6568 20.7239 18.4377C22.2477 17.2187 24.2287 16.9139 26.2097 17.5234C27.124 17.8282 27.8859 18.2854 28.6478 19.0473C28.343 19.0473 28.0382 19.0473 27.7335 19.0473C27.4287 19.0473 27.2763 19.0473 27.2763 19.1996C27.2763 19.1996 27.124 19.352 27.124 19.5044C27.124 19.6568 27.4287 19.9616 27.7335 19.9616C28.1906 19.9616 28.4954 19.9616 28.9525 19.9616C29.2573 19.9616 29.4097 19.9616 29.7144 19.9616C29.8668 19.9616 30.0192 19.9616 30.1716 19.8092C30.324 19.6568 30.324 19.5044 30.324 19.352C30.324 18.8949 30.324 18.4377 30.324 17.9806V17.3711C30.324 17.0663 30.324 16.9139 30.1716 16.9139C30.1716 16.9139 30.0192 16.7615 29.8668 16.7615C29.7144 16.7615 29.4097 17.0663 29.4097 17.3711C29.4097 17.6758 29.4097 17.8282 29.4097 18.133L29.2573 17.9806C26.9716 16.152 24.5335 15.6949 21.943 16.7615C19.3525 17.8282 17.8287 19.8092 17.6763 22.7044C17.3715 25.4473 19.0477 28.1902 21.6382 29.4092C22.5525 29.8664 23.6192 30.1711 24.6858 30.1711C26.362 30.1711 28.0382 29.5616 29.4097 28.3425C30.7811 26.9711 31.543 25.2949 31.6954 23.3139C31.0859 23.3139 30.9335 23.0092 30.7811 22.8568Z" fill="#4E5FF9"/>
<path d="M24.5334 20.2668C24.5334 20.1144 24.5334 19.6572 24.0763 19.6572C23.9239 19.6572 23.7715 19.6572 23.7715 19.8096C23.6191 19.962 23.6191 20.1144 23.6191 20.2668C23.6191 20.5715 23.6191 21.0287 23.6191 21.3334V22.2477C23.6191 22.7049 23.6191 23.0096 23.6191 23.4668C23.6191 23.6191 23.7715 23.9239 23.9239 24.0763C24.381 24.5334 24.6858 24.8382 25.143 25.2953L25.6001 25.7525C25.7525 25.9049 25.9049 26.0573 26.0572 26.0573C26.2096 26.0573 26.362 26.0573 26.362 25.9049C26.6668 25.6001 26.362 25.2953 26.2096 25.143C26.0572 24.9906 25.9049 24.8382 25.7525 24.6858C25.4477 24.3811 25.143 24.0763 24.8382 23.7715C24.6858 23.6192 24.6858 23.4668 24.6858 23.3144C24.6858 22.5525 24.6858 21.7906 24.6858 21.0287L24.5334 20.2668Z" fill="#4E5FF9"/>
</svg>
