<svg width="33" height="34" viewBox="0 0 33 34" fill="none" xmlns="http://www.w3.org/2000/svg">
<path d="M1.19067 19.7957C1.19067 21.4329 1.19067 22.7724 1.19067 24.112C1.19067 25.4515 2.23254 26.4934 3.57208 26.6422C8.48373 26.6422 13.2465 26.6422 18.1582 26.6422C17.8605 23.6655 18.7535 21.2841 20.8373 19.3492C22.921 17.4143 25.4512 16.9678 28.428 17.4143C28.428 17.1166 28.428 16.9678 28.428 16.6701C28.428 13.8422 28.428 11.0142 28.428 8.18632C28.428 6.40026 27.3861 5.3584 25.6001 5.3584C18.4559 5.3584 11.1628 5.3584 4.01859 5.3584C2.23254 5.3584 1.19067 6.40026 1.19067 8.18632C1.19067 9.52586 1.19067 10.7166 1.19067 12.2049C2.23254 12.2049 3.12557 12.2049 4.01859 12.2049C4.91162 12.2049 5.95349 12.2049 6.84651 12.2049C8.78141 12.3538 10.2698 13.991 10.2698 16.0747C10.2698 18.1585 8.78141 19.7957 6.69768 19.9445C4.91162 19.7957 3.12557 19.7957 1.19067 19.7957Z" fill="white"/>
<path d="M0.297676 12.9492C2.38141 12.9492 4.46514 12.9492 6.54887 12.9492C8.18608 12.9492 9.37679 14.2888 9.37679 15.7771C9.52563 17.2655 8.48376 18.6051 6.99538 18.7539C4.61397 18.9027 2.38141 18.7539 0 18.7539C0 16.819 0 14.8841 0 13.0981C0.148838 12.9492 0.148838 12.9492 0.297676 12.9492Z" fill="white"/>
<path d="M20.6884 4.16746C20.5395 4.01862 20.5395 3.86978 20.3907 3.72095C19.2 2.53024 17.8604 1.1907 16.6697 0C15.3302 1.33954 13.9907 2.67908 12.6511 4.16746C15.1814 4.16746 17.8604 4.16746 20.6884 4.16746Z" fill="white"/>
<path d="M11.4605 0C10.121 1.33954 8.78144 2.82792 7.44189 4.16746H11.014L13.2466 1.93489C12.6512 1.33954 12.0559 0.744189 11.4605 0Z" fill="white"/>
<path d="M22.7722 32.7501C27.9541 32.7501 32.1548 28.5493 32.1548 23.3675C32.1548 18.1856 27.9541 13.9849 22.7722 13.9849C17.5904 13.9849 13.3896 18.1856 13.3896 23.3675C13.3896 28.5493 17.5904 32.7501 22.7722 32.7501Z" fill="white" stroke="#4E5FF9" stroke-width="1.5"/>
<path d="M22.7721 27.6837C21.2837 27.6837 19.7953 27.6837 18.307 27.6837C17.8604 27.6837 17.5628 27.5349 17.4139 27.2372C17.2651 26.7907 17.2651 26.493 17.5628 26.1954C18.7535 25.0047 19.0511 23.6651 18.9023 22.0279C18.7535 20.986 19.0511 20.093 19.7953 19.2C20.2418 18.6046 20.8372 18.1581 21.5814 18.0093C21.8791 17.8604 22.0279 17.7116 22.0279 17.4139V17.2651C22.0279 16.6697 22.3256 16.3721 22.9209 16.3721C23.3674 16.3721 23.814 16.8186 23.6651 17.4139C23.6651 17.8604 23.814 18.0093 24.2605 18.1581C25.7488 18.7535 26.7907 20.093 26.7907 21.7302C26.7907 22.1767 26.7907 22.7721 26.7907 23.2186C26.7907 24.1116 27.0884 25.0047 27.6837 25.6C27.8326 25.7489 27.9814 26.0465 28.1303 26.1954C28.4279 26.493 28.5768 26.7907 28.2791 27.2372C28.1303 27.6837 27.8326 27.8326 27.3861 27.8326C25.8977 27.6838 24.2605 27.6837 22.7721 27.6837Z" fill="#4E5FF9"/>
<path d="M20.6882 28.1304C22.1766 28.1304 23.5162 28.1304 25.0045 28.1304C25.0045 28.8746 24.7069 29.4699 24.1115 29.7676C23.3673 30.3629 22.6231 30.3629 21.8789 29.9164C21.1347 29.6188 20.6882 29.0234 20.6882 28.1304Z" fill="#4E5FF9"/>
</svg>
