<svg width="33" height="34" viewBox="0 0 33 34" fill="none" xmlns="http://www.w3.org/2000/svg">
<path d="M18.7636 32H4.50909C2.03636 32 0 29.9636 0 27.4909V4.50909C0 2.03636 2.03636 0 4.50909 0H18.7636C21.2364 0 23.2727 2.03636 23.2727 4.50909V27.4909C23.2727 29.9636 21.2364 32 18.7636 32Z" fill="white"/>
<path d="M21.2157 32.75L21.2261 32.7502H21.2365C27.0325 32.7502 31.7319 28.0508 31.7319 22.2548C31.7319 16.6116 27.1853 11.9048 21.3819 11.9048C15.5932 11.9048 10.8865 16.5969 10.8865 22.2548C10.8865 28.0619 15.5928 32.5938 21.2157 32.75Z" fill="white" stroke="#4E5FF9" stroke-width="1.5"/>
<path d="M21.3819 12.6548C16.0001 12.6548 11.6365 17.0184 11.6365 22.2548C11.6365 27.0548 15.1274 31.1275 19.7819 31.8548C21.8183 31.4184 23.2728 29.673 23.2728 27.4911V12.8002C22.691 12.6548 22.1092 12.6548 21.3819 12.6548Z" fill="white"/>
<path d="M20.5094 18.9085C20.5094 17.7448 20.5094 16.7266 20.5094 15.563C20.5094 15.2721 20.5094 14.9812 20.5094 14.6903C20.5094 14.3994 20.6549 14.2539 20.9458 14.2539C21.2367 14.2539 21.6731 14.2539 21.964 14.2539C22.2549 14.2539 22.4003 14.3994 22.4003 14.6903C22.4003 15.9994 22.4003 17.163 22.4003 18.4721C22.4003 18.6175 22.4003 18.763 22.4003 18.9085C22.6912 18.9085 22.8367 18.9085 23.1276 18.9085C23.564 18.9085 23.7094 19.1994 23.4185 19.4903C22.8367 20.2175 22.4003 20.9448 21.8185 21.6721C21.6731 21.963 21.3822 21.963 21.2367 21.6721C20.6549 20.9448 20.2185 20.2175 19.6367 19.6357C19.3458 19.3448 19.4912 19.0539 19.9276 19.0539C19.9276 18.9085 20.2185 18.9085 20.5094 18.9085Z" fill="#4E5FF9"/>
<path d="M17.891 23.272C17.7456 22.9811 17.6001 22.8357 17.6001 22.6902C17.4547 22.3993 17.6001 22.1084 17.891 22.1084C18.7638 22.2539 19.6365 22.2539 20.5092 22.3993C20.8001 22.3993 20.9456 22.6902 20.8001 22.9811C20.5092 23.8539 20.0729 24.5811 19.7819 25.4539C19.6365 25.7448 19.3456 25.7448 19.0547 25.4539C19.0547 25.3084 18.9092 25.3084 18.9092 25.1629C18.9092 25.0175 18.7638 25.0175 18.7638 24.872C18.0365 25.3084 17.4547 25.5993 16.7274 26.0357C16.1456 26.3266 15.7092 26.6175 15.1274 26.9084C14.8365 27.0539 14.691 27.0539 14.5456 26.7629C14.4001 26.472 14.2547 26.1811 14.1092 25.8902C13.9638 25.5993 13.9638 25.4539 14.2547 25.3084C15.2729 24.7266 16.4365 23.9993 17.4547 23.4175C17.6001 23.4175 17.7456 23.4175 17.891 23.272Z" fill="#4E5FF9"/>
<path d="M24.8727 23.2721C25.4545 23.7085 26.1818 23.9994 26.7636 24.2903C27.3454 24.5812 27.9272 24.8721 28.5091 25.3085C28.9454 25.5994 28.9454 25.5994 28.6545 26.0357C28.5091 26.1812 28.5091 26.3266 28.3636 26.6175C28.0727 27.1994 28.0727 27.1994 27.4909 26.9085C26.4727 26.3266 25.4545 25.7448 24.4363 25.163C24.2909 25.163 24.1454 25.0175 24 25.0175C23.8545 25.163 23.8545 25.4539 23.7091 25.5994C23.5636 25.7448 23.4182 25.8903 23.4182 25.8903C23.2727 25.8903 23.1272 25.7448 23.1272 25.5994C22.8363 24.7266 22.4 23.9994 22.1091 23.1266C21.9636 22.8357 22.1091 22.6903 22.4 22.5448C23.2727 22.3994 24.1454 22.2539 24.8727 22.2539C25.0182 22.2539 25.1636 22.2539 25.3091 22.3994C25.3091 22.5448 25.3091 22.6903 25.3091 22.8357C25.0182 22.9812 24.8727 23.1266 24.8727 23.2721Z" fill="#4E5FF9"/>
<path d="M19.4909 16.4355C19.6364 17.1628 19.4909 17.5992 18.7636 18.0355C16.8727 19.0537 16 20.7992 16.2909 22.981C16.2909 23.1265 16.2909 23.1265 16.1455 23.2719C16.1455 23.2719 16 23.4174 15.8546 23.4174C15.5636 23.5628 15.4182 23.7083 15.1273 23.8537C14.4 20.6537 16.5818 17.1628 19.4909 16.4355Z" fill="#4E5FF9"/>
<path d="M17.1638 26.9086C17.7456 26.4722 18.182 26.3268 18.9093 26.7631C20.6547 27.7813 22.5456 27.7813 24.2911 26.6177C24.582 26.4722 24.7275 26.3268 25.0184 26.6177C25.1638 26.7631 25.4547 26.9086 25.6002 26.9086C23.4184 29.0904 19.3456 29.2358 17.1638 26.9086Z" fill="#4E5FF9"/>
<path d="M23.1272 16.4355C25.8908 17.1628 28.2181 20.2174 27.3454 23.8537C27.0545 23.7083 26.7636 23.5628 26.4727 23.2719C26.4727 23.2719 26.3272 23.1265 26.4727 22.981C26.7636 20.6537 25.5999 18.6174 23.4181 17.7446C23.2727 17.5992 23.1272 17.5992 23.1272 17.3083C23.1272 17.0174 23.1272 16.7265 23.1272 16.4355Z" fill="#4E5FF9"/>
</svg>
