<svg width="35" height="34" viewBox="0 0 35 34" fill="none" xmlns="http://www.w3.org/2000/svg">
<path d="M0 23.3844C0.307693 22.9229 0.769232 22.6152 1.38462 22.769C2 23.0767 2 23.5383 2 23.9998C2 25.846 2 27.5383 2 29.3844C2.92308 29.3844 3.84616 29.3844 4.76924 29.3844C5.69232 29.3844 6.6154 29.3844 7.38463 29.3844C8.00002 29.3844 8.46156 29.3844 8.6154 29.9998C8.9231 30.6152 8.46156 30.9229 8.00002 31.3844H0.615386C0.307693 31.3844 0 31.0767 0 30.769V23.3844Z" fill="white"/>
<path d="M0 0.615386C0.307693 0.46154 0.615386 0 1.07693 0C3.38462 0 5.53847 0 7.84617 0C8.46156 0 8.9231 0.307693 8.9231 0.923079C8.9231 1.53847 8.6154 1.84616 8.00002 1.84616C7.84617 1.84616 7.53848 1.84616 7.38463 1.84616C6.00001 1.84616 4.6154 1.84616 3.07693 1.84616C2.76924 1.84616 2.46154 1.84616 2.15385 1.84616C2.15385 2.92308 2.15385 4.00001 2.15385 4.92309C2.15385 5.69232 2.15385 6.46155 2.15385 7.23079C2.15385 7.84617 2.15385 8.30771 1.53847 8.46156C0.769233 9.07694 0.46154 8.61541 0 8.15387C0 5.69232 0 3.23078 0 0.615386Z" fill="white"/>
<path d="M12.7692 15.8458C12.7692 18.3073 12.7692 20.615 12.7692 23.0766C12.7692 24.1535 12.4615 24.4612 11.3846 24.4612C10.7692 24.4612 10 24.4612 9.38462 24.4612C8.30769 24.4612 8 24.1535 8 23.0766C8 18.9227 8 14.7689 8 10.615C8 9.99963 8 9.2304 8 8.61501C8 7.84578 8.30769 7.53809 9.23077 7.53809C10 7.53809 10.7692 7.53809 11.5385 7.53809C12.6154 7.53809 12.9231 7.84578 12.9231 8.76886C12.7692 10.9227 12.7692 13.3843 12.7692 15.8458Z" fill="white"/>
<path d="M23.5385 15.8458C23.5385 18.3073 23.5385 20.615 23.5385 23.0766C23.5385 24.1535 23.2308 24.3074 22.3078 24.4612C21.5385 24.4612 20.7693 24.4612 20.0001 24.4612C19.2308 24.4612 18.7693 24.1535 18.7693 23.3843C18.7693 18.4612 18.7693 13.5381 18.7693 8.61501C18.7693 7.84578 19.077 7.53809 19.8462 7.53809C20.6154 7.53809 21.5385 7.53809 22.3078 7.53809C23.077 7.53809 23.3847 7.84578 23.3847 8.76886C23.5385 10.9227 23.5385 13.3843 23.5385 15.8458Z" fill="white"/>
<path d="M16.7693 15.8458C16.7693 18.1535 16.7693 20.6151 16.7693 22.9228C16.7693 23.8459 16.4616 24.3074 15.8462 24.1535C15.2308 24.1535 14.9231 23.692 14.9231 22.9228C14.9231 18.1535 14.9231 13.3843 14.9231 8.61505C14.9231 7.84582 15.2308 7.38428 15.8462 7.38428C16.4616 7.38428 16.7693 7.84582 16.7693 8.61505C16.7693 11.0766 16.7693 13.5381 16.7693 15.8458Z" fill="white"/>
<path d="M5.99997 15.6925C5.99997 18.0002 5.99997 20.3079 5.99997 22.6156C5.99997 22.9233 6.15381 23.231 5.99997 23.3848C5.69227 23.6925 5.38458 24.1541 5.07689 24.1541C4.61535 24.3079 4.15381 23.8464 4.15381 23.3848C4.15381 23.231 4.15381 23.0771 4.15381 22.7695C4.15381 18.0002 4.15381 13.3848 4.15381 8.61558C4.15381 8.46173 4.15381 8.46173 4.15381 8.30788C4.15381 7.6925 4.4615 7.3848 5.07689 7.23096C5.69227 7.23096 5.99997 7.53865 5.99997 8.15404C5.99997 9.38481 5.99997 10.7694 5.99997 12.0002C5.99997 13.231 5.99997 14.4617 5.99997 15.6925Z" fill="white"/>
<path d="M27.3848 15.8458C27.3848 18.1535 27.3848 20.6151 27.3848 22.9228C27.3848 23.8459 27.0771 24.3074 26.3078 24.1535C25.6925 24.1535 25.3848 23.692 25.3848 22.9228C25.3848 18.1535 25.3848 13.3843 25.3848 8.61505C25.3848 7.84582 25.6925 7.38428 26.3078 7.38428C26.9232 7.38428 27.2309 7.84582 27.2309 8.61505C27.3848 11.0766 27.3848 13.5381 27.3848 15.8458Z" fill="white"/>
<path d="M29.5385 1.99997C27.8462 1.99997 26.3078 1.99997 24.7693 1.99997C24.4616 1.99997 24.1539 1.99997 23.8462 1.99997C23.2308 1.99997 22.7693 1.69227 22.7693 1.07689C22.7693 0.461502 23.2308 0.153809 23.8462 0.153809C25.2308 0.153809 26.6154 0.153809 28.0001 0.153809C28.7693 0.153809 29.5385 0.153809 30.3078 0.153809C31.077 0.153809 31.5385 0.461502 31.5385 1.23073C31.5385 3.38459 31.5385 5.53844 31.5385 7.69229C31.5385 8.46152 31.077 8.92306 30.4616 8.76921C29.8462 8.76921 29.5385 8.30767 29.5385 7.69229C29.5385 5.84613 29.5385 3.99997 29.5385 1.99997Z" fill="white"/>
<path d="M24.3079 32.7505C29.6502 32.7505 33.981 28.4197 33.981 23.0774C33.981 17.7351 29.6502 13.4043 24.3079 13.4043C18.9656 13.4043 14.6348 17.7351 14.6348 23.0774C14.6348 28.4197 18.9656 32.7505 24.3079 32.7505Z" fill="white" stroke="#4E5FF9" stroke-width="1.5"/>
<path d="M25.0771 26.462C24.154 26.462 23.2309 26.462 22.3078 26.462C22.154 26.462 22.0001 26.6158 21.8463 26.6158C21.0771 27.3851 20.3078 28.1543 19.5386 28.9235C19.2309 29.2312 19.0771 29.2312 18.7694 29.0774C18.4617 28.9235 18.4617 28.6158 18.4617 28.3081C18.4617 27.6928 18.4617 27.0774 18.4617 26.462C18.4617 26.3081 18.6155 26.0004 18.7694 25.8466C19.5386 24.9235 20.4617 24.1543 21.3848 23.2312C21.5386 23.0774 21.8463 22.9235 22.0001 22.9235C23.5386 22.9235 25.0771 22.9235 26.6155 22.9235C27.0771 22.9235 27.3848 23.2312 27.3848 23.5389C27.3848 24.0004 27.0771 24.1543 26.6155 24.1543C26.0002 24.1543 25.5386 24.1543 24.9232 24.1543C24.7694 24.1543 24.7694 24.3081 24.6155 24.3081C24.7694 24.3081 24.7694 24.462 24.9232 24.462C26.0002 24.462 26.9232 24.462 28.0002 24.462C28.154 24.462 28.3078 24.3081 28.3078 24.3081C28.9232 23.6927 29.5386 23.0774 30.3079 22.3081C30.6155 22.0004 31.0771 22.0004 31.2309 22.1543C31.5386 22.462 31.5386 22.7697 31.0771 23.0774C30.154 24.0004 29.3848 24.7697 28.4617 25.6927C28.3078 25.8466 28.0002 26.0004 27.6925 26.0004C26.9232 26.462 26.0002 26.462 25.0771 26.462Z" fill="#4E5FF9"/>
<path d="M25.8464 21.5385C26.866 21.5385 27.6926 20.712 27.6926 19.6924C27.6926 18.6727 26.866 17.8462 25.8464 17.8462C24.8268 17.8462 24.0002 18.6727 24.0002 19.6924C24.0002 20.712 24.8268 21.5385 25.8464 21.5385Z" fill="#4E5FF9"/>
<path d="M24 16.6157C22.923 16.6157 22.1538 17.385 22.1538 18.4619C22.1538 19.0773 22.7692 19.8465 23.5384 20.0003C23.3846 19.5388 23.3846 17.8465 25.3846 17.385C25.2307 17.0773 24.6154 16.6157 24 16.6157Z" fill="#4E5FF9"/>
</svg>
