<svg width="31" height="32" viewBox="0 0 31 32" fill="none" xmlns="http://www.w3.org/2000/svg">
<path d="M30.0687 2.89122C29.3459 2.16841 28.6231 1.30105 27.9003 0.433683C27.6112 0 27.0329 0 26.5992 0.433683C26.021 1.01193 25.5873 1.73473 24.8645 2.45754C24.2863 1.73473 23.708 1.15649 23.1298 0.433683C22.6961 -0.144561 22.2624 -0.144561 21.8287 0.433683C21.2505 1.01193 20.8168 1.73473 20.094 2.45754C19.3712 1.59017 18.9375 1.01193 18.3593 0.433683C17.9256 -0.144561 17.4919 -0.144561 17.0582 0.433683C16.48 1.01193 16.0463 1.59017 15.3235 2.45754C14.7452 1.73473 14.167 1.15649 13.5888 0.433683C13.2996 0 12.7214 0 12.2877 0.433683C11.5649 1.30105 10.8421 2.02385 10.1193 2.89122C9.68561 3.3249 9.39648 4.04771 9.39648 4.77051C9.39648 8.52909 9.39648 17.3473 9.39648 22.2624C9.39648 24.1417 10.6975 25.7318 12.4323 25.7318C14.4561 25.7318 17.3473 25.7318 20.094 25.7318C22.6961 25.7318 25.5873 25.7318 27.7557 25.7318C29.4904 25.7318 30.7915 24.1417 30.7915 22.2624C30.7915 17.3473 30.7915 8.52909 30.7915 4.77051C30.7915 4.04771 30.5024 3.3249 30.0687 2.89122Z" fill="url(#paint0_linear)"/>
<path d="M20.0927 15.0341C18.5025 15.0341 17.0569 15.0341 15.4667 15.0341C14.5994 15.0341 14.0211 14.745 14.0211 14.0222C14.0211 13.4439 14.4548 13.0103 15.3222 13.0103C18.3579 13.0103 21.5383 13.0103 24.5741 13.0103C25.4414 13.0103 26.0197 13.2994 26.0197 14.0222C26.0197 14.745 25.586 15.0341 24.5741 15.0341C23.1285 15.0341 21.5383 15.0341 20.0927 15.0341Z" fill="#18253E"/>
<path d="M20.0929 9.83C18.5027 9.83 16.9126 9.83 15.3224 9.83C14.455 9.83 14.0214 9.39632 14.0214 8.81808C14.0214 8.09527 14.5996 7.80615 15.3224 7.80615C18.5027 7.80615 21.6831 7.80615 24.8634 7.80615C25.5862 7.80615 26.0199 8.09527 26.0199 8.81808C26.0199 9.54088 25.4417 9.83 24.8634 9.83C23.2733 9.83 21.6831 9.83 20.0929 9.83Z" fill="#18253E"/>
<path d="M9.54102 13.0103C9.54102 15.3232 9.54102 17.4916 9.54102 19.8046C9.54102 21.8285 10.6975 22.5513 12.5768 21.8285C14.8898 20.9611 17.3473 19.9492 19.6603 19.0818C20.9613 18.5036 22.2624 18.9372 22.8406 20.0937C23.4189 21.2502 22.9852 22.4067 21.8287 23.1295C20.6722 23.8523 19.3712 24.7197 18.2147 25.587C19.5157 25.587 20.6722 25.587 21.9733 25.587C23.2743 25.587 23.4189 25.7316 23.4189 27.0327C23.4189 27.6109 23.4189 28.3337 23.4189 28.912C23.4189 29.7793 23.1297 30.5021 22.2624 30.9358C21.5396 31.3695 20.6722 31.2249 20.094 30.6467C19.9494 30.6467 19.9494 30.5021 19.8048 30.5021C18.5038 32.0923 17.2027 32.0923 16.0463 30.5021C14.3115 31.514 13.4442 31.2249 12.4322 29.7793H12.2877C8.81821 32.0923 4.77051 32.0923 0.867365 31.9477C0.289122 31.9477 0 31.6586 0 31.0804C0 27.0327 0 23.1295 0 19.0818C0 18.7927 0.289122 18.359 0.578243 18.0699C2.45754 16.6243 4.48139 15.1787 6.36068 13.7331C7.22804 13.2994 8.23997 13.0103 9.54102 13.0103Z" fill="#33EEB1"/>
<defs>
<linearGradient id="paint0_linear" x1="3.79012" y1="-10.5421" x2="31.5189" y2="30.6549" gradientUnits="userSpaceOnUse">
<stop stop-color="#FFF5E9"/>
<stop offset="0.6046" stop-color="#7D95E6"/>
<stop offset="0.9986" stop-color="#3F28DD"/>
</linearGradient>
</defs>
</svg>
