<svg xmlns="http://www.w3.org/2000/svg" width="32" height="30.912" viewBox="0 0 32 30.912">
  <g id="world_1267356" transform="translate(0.003 -0.027)">
    <path id="Path_27181" data-name="Path 27181" d="M153.138,264.027h19.574a1.087,1.087,0,0,1,1.087,1.087v10.874a1.087,1.087,0,0,1-1.087,1.087H153.138a1.087,1.087,0,0,1-1.087-1.087V265.115A1.087,1.087,0,0,1,153.138,264.027Zm0,0" transform="translate(-141.803 -246.138)" fill="#6d44e5"/>
    <path id="Path_27182" data-name="Path 27182" d="M206.683,265.115v10.874a1.091,1.091,0,0,1-1.087,1.087H187.332a40.445,40.445,0,0,0,15.648-13.049H205.6A1.09,1.09,0,0,1,206.683,265.115Zm0,0" transform="translate(-174.686 -246.138)" fill="#6d44e5"/>
    <path id="Path_27183" data-name="Path 27183" d="M277.488,322.746a2.719,2.719,0,1,1-2.719-2.719A2.719,2.719,0,0,1,277.488,322.746Zm0,0" transform="translate(-253.621 -298.332)" fill="#85e6c4"/>
    <g id="Group_19958" data-name="Group 19958" transform="translate(0.544 0.571)">
      <path id="Path_27184" data-name="Path 27184" d="M184.051,184.027v5.437h5.329a22.052,22.052,0,0,0,.652-5.437Zm0,0" transform="translate(-172.089 -172.065)" fill="#85e6c4"/>
      <path id="Path_27185" data-name="Path 27185" d="M14.032,184.027H8.051a11.964,11.964,0,0,0,9.787,11.766v-.625C15.608,193.434,14.032,189.1,14.032,184.027Zm0,0" transform="translate(-8.051 -172.065)" fill="#85e6c4"/>
      <path id="Path_27186" data-name="Path 27186" d="M96.051,184.027c0,5.073,1.577,9.406,3.806,11.141v-4.616a1.091,1.091,0,0,1,1.087-1.087h1.087v-5.437Zm0,0" transform="translate(-90.07 -172.065)" fill="#85e6c4"/>
      <path id="Path_27187" data-name="Path 27187" d="M15.169,53.985A12,12,0,0,1,12.1,52.027,11.952,11.952,0,0,0,8.051,61h5.981A20.888,20.888,0,0,1,15.169,53.985Zm0,0" transform="translate(-8.051 -49.037)" fill="#85e6c4"/>
      <path id="Path_27188" data-name="Path 27188" d="M190.032,87.838a20.888,20.888,0,0,0-1.137-7.014,11.906,11.906,0,0,1-4.844,1.033v5.981Zm0,0" transform="translate(-172.089 -75.877)" fill="#85e6c4"/>
      <path id="Path_27189" data-name="Path 27189" d="M102.017,81.858a11.905,11.905,0,0,1-4.844-1.033,20.887,20.887,0,0,0-1.137,7.014h5.981Zm0,0" transform="translate(-90.055 -75.877)" fill="#85e6c4"/>
      <path id="Path_27190" data-name="Path 27190" d="M262.453,189.465h5.323a11.873,11.873,0,0,0,1.31-5.437h-5.981A22.052,22.052,0,0,1,262.453,189.465Zm0,0" transform="translate(-245.163 -172.065)" fill="#85e6c4"/>
      <path id="Path_27191" data-name="Path 27191" d="M256.461,61h5.981a11.951,11.951,0,0,0-4.045-8.971,12,12,0,0,1-3.073,1.957A20.888,20.888,0,0,1,256.461,61Zm0,0" transform="translate(-238.518 -49.037)" fill="#85e6c4"/>
      <path id="Path_27192" data-name="Path 27192" d="M188.895,12.975a12,12,0,0,0,3.073-1.957,11.926,11.926,0,0,0-7.917-2.99C186.045,8.027,187.809,9.978,188.895,12.975Zm0,0" transform="translate(-172.089 -8.027)" fill="#85e6c4"/>
      <path id="Path_27193" data-name="Path 27193" d="M75.487,8.027a11.925,11.925,0,0,0-7.917,2.99,12,12,0,0,0,3.073,1.957C71.729,9.978,73.493,8.027,75.487,8.027Zm0,0" transform="translate(-63.525 -8.027)" fill="#85e6c4"/>
      <path id="Path_27194" data-name="Path 27194" d="M112.781,12.975a11.905,11.905,0,0,0,4.844,1.033V8.027C115.631,8.027,113.867,9.978,112.781,12.975Zm0,0" transform="translate(-105.663 -8.027)" fill="#85e6c4"/>
      <path id="Path_27195" data-name="Path 27195" d="M188.895,12.975c-1.086-3-2.85-4.948-4.844-4.948v5.981A11.906,11.906,0,0,0,188.895,12.975Zm0,0" transform="translate(-172.089 -8.027)" fill="#85e6c4"/>
    </g>
    <path id="Path_27196" data-name="Path 27196" d="M378.28,297.814h-2.229v-1.087h1.817a3.252,3.252,0,0,1,1.989-1.989V291.1a3.252,3.252,0,0,1-1.989-1.989h-1.817v-1.087h2.229a.543.543,0,0,1,.532.435,2.175,2.175,0,0,0,1.7,1.7.544.544,0,0,1,.435.532v4.458a.543.543,0,0,1-.435.532,2.175,2.175,0,0,0-1.7,1.7A.544.544,0,0,1,378.28,297.814Zm0,0" transform="translate(-350.579 -268.507)" fill="#85e6c4"/>
    <path id="Path_27197" data-name="Path 27197" d="M180.944,297.814h-2.229a.544.544,0,0,1-.532-.435,2.175,2.175,0,0,0-1.7-1.7.544.544,0,0,1-.435-.532v-4.458a.544.544,0,0,1,.435-.532,2.175,2.175,0,0,0,1.7-1.7.544.544,0,0,1,.532-.435h2.229v1.087h-1.817a3.253,3.253,0,0,1-1.989,1.989v3.634a3.253,3.253,0,0,1,1.989,1.989h1.817Zm0,0" transform="translate(-164.125 -268.507)" fill="#85e6c4"/>
    <path id="Path_27198" data-name="Path 27198" d="M20.782,3.154A12.505,12.505,0,0,0,12.506.027c-.38,0-.761.016-1.136.049-.424.044-.848.109-1.267.19A12.5,12.5,0,0,0,8.521,24.386a.544.544,0,0,0,.723-.512v-.009a.539.539,0,0,0-.374-.511A11.4,11.4,0,0,1,1.1,13.077H5.992a18.544,18.544,0,0,0,2.244,8.958.544.544,0,0,0,1.007-.281v-.014a.521.521,0,0,0-.077-.272A17.568,17.568,0,0,1,7.08,13.077h4.883v3.265a.544.544,0,0,0,.544.541h.006a.544.544,0,0,0,.544-.541V13.077h4.877a21.812,21.812,0,0,1-.295,3.168.544.544,0,0,0,.523.638h.005a.544.544,0,0,0,.536-.447,22.836,22.836,0,0,0,.313-3.359h4.894a11.26,11.26,0,0,1-.582,3.1.537.537,0,0,0,.517.7.544.544,0,0,0,.515-.365A12.505,12.505,0,0,0,20.782,3.154ZM5.987,11.989H1.1a11.428,11.428,0,0,1,3.512-7.71,12.5,12.5,0,0,0,2.36,1.528A21.683,21.683,0,0,0,5.987,11.989ZM5.449,3.567l.163-.13.359-.261c.152-.1.3-.207.462-.3.125-.082.25-.158.381-.229.158-.092.321-.179.489-.266.13-.065.261-.131.391-.19.169-.082.343-.152.511-.223.136-.054.267-.109.4-.157.179-.065.364-.12.544-.179l.163-.049a10.221,10.221,0,0,0-1.957,3.2A11.858,11.858,0,0,1,5.449,3.567Zm6.514,8.422H7.08A20.715,20.715,0,0,1,8,6.253a12.409,12.409,0,0,0,3.964.816Zm0-6a11.537,11.537,0,0,1-3.594-.761c.9-2.218,2.175-3.741,3.594-4.051Zm3.9-4.361c.185.06.364.114.544.179.136.049.267.1.4.157.174.071.342.142.511.218.13.065.266.13.4.2.163.082.321.169.478.256.131.076.261.152.386.234.158.1.3.2.457.3.125.087.245.174.364.261l.163.13a11.867,11.867,0,0,1-1.908,1.207,10.226,10.226,0,0,0-1.957-3.2ZM13.05,1.175c1.419.31,2.7,1.832,3.594,4.051a11.537,11.537,0,0,1-3.594.761Zm0,10.815V7.068a12.409,12.409,0,0,0,3.964-.816,20.715,20.715,0,0,1,.919,5.736Zm5.976,0a21.683,21.683,0,0,0-.99-6.182A12.505,12.505,0,0,0,20.4,4.279a11.44,11.44,0,0,1,3.512,7.71Zm0,0" transform="translate(0 0)" fill="#6d44e5"/>
  </g>
</svg>
