<svg xmlns="http://www.w3.org/2000/svg" width="32" height="32" viewBox="0 0 32 32">
  <g id="Group_19913" data-name="Group 19913" transform="translate(0 380)">
    <g id="sun_8830274" transform="translate(0 -380)">
      <g id="LINE" transform="translate(0 0)">
        <g id="Group_19910" data-name="Group 19910" transform="translate(4.096 4.288)">
          <path id="Path_27094" data-name="Path 27094" d="M985.313,244.3a10.313,10.313,0,1,1,2.881,3,.737.737,0,1,0-.836,1.213,11.8,11.8,0,1,0-3.29-3.426.737.737,0,1,0,1.245-.789Z" transform="translate(-982.25 -226.999)" fill="#85e6c4" fill-rule="evenodd"/>
        </g>
        <g id="Group_19911" data-name="Group 19911" transform="translate(7.425 23.073)">
          <circle id="Ellipse_6095" data-name="Ellipse 6095" cx="0.733" cy="0.733" r="0.733" fill="#85e6c4"/>
        </g>
        <g id="Group_19912" data-name="Group 19912">
          <path id="Path_27095" data-name="Path 27095" d="M735.022,187.759l-1.728.9a.739.739,0,0,1-.4.081l-1.94-.169a2.208,2.208,0,0,0-1.879.779l-1.253,1.491a.738.738,0,0,1-.342.228l-1.857.587a2.207,2.207,0,0,0-1.439,1.439l-.588,1.856a.731.731,0,0,1-.228.342l-1.491,1.253a2.208,2.208,0,0,0-.778,1.879l.167,1.94a.733.733,0,0,1-.08.4l-.9,1.729a2.206,2.206,0,0,0,0,2.034l.9,1.729a.733.733,0,0,1,.08.4l-.167,1.94a2.208,2.208,0,0,0,.778,1.879l1.491,1.253a.731.731,0,0,1,.228.342l.588,1.856a2.207,2.207,0,0,0,1.439,1.439l1.857.587a.738.738,0,0,1,.342.228l1.253,1.491a2.208,2.208,0,0,0,1.879.779l1.94-.169a.739.739,0,0,1,.4.081l1.728.9a2.206,2.206,0,0,0,2.035,0l1.728-.9a.74.74,0,0,1,.4-.081l1.94.169a2.208,2.208,0,0,0,1.879-.779l1.253-1.491a.738.738,0,0,1,.342-.228l1.857-.587a2.207,2.207,0,0,0,1.438-1.439l.588-1.856a.731.731,0,0,1,.228-.342l1.491-1.253a2.208,2.208,0,0,0,.778-1.879l-.167-1.94a.732.732,0,0,1,.08-.4l.9-1.729a2.207,2.207,0,0,0,0-2.034l-.9-1.729a.734.734,0,0,1-.08-.4l.167-1.94a2.208,2.208,0,0,0-.778-1.879l-1.491-1.253a.731.731,0,0,1-.228-.342l-.588-1.856a2.207,2.207,0,0,0-1.438-1.439l-1.857-.587a.738.738,0,0,1-.342-.228l-1.253-1.491a2.208,2.208,0,0,0-1.879-.779l-1.94.169a.74.74,0,0,1-.4-.081l-1.728-.9A2.206,2.206,0,0,0,735.022,187.759Zm.678,1.305a.735.735,0,0,1,.678,0l1.728.9a2.2,2.2,0,0,0,1.208.24l1.94-.168a.734.734,0,0,1,.626.259l1.253,1.491a2.212,2.212,0,0,0,1.024.684l1.857.588a.736.736,0,0,1,.48.479l.587,1.857a2.215,2.215,0,0,0,.684,1.023l1.491,1.253a.733.733,0,0,1,.259.626l-.168,1.94a2.213,2.213,0,0,0,.24,1.207l.9,1.729a.734.734,0,0,1,0,.678l-.9,1.729a2.212,2.212,0,0,0-.24,1.207l.168,1.94a.733.733,0,0,1-.259.626l-1.491,1.253a2.215,2.215,0,0,0-.684,1.023l-.587,1.857a.736.736,0,0,1-.48.479l-1.857.588a2.211,2.211,0,0,0-1.024.684l-1.253,1.491a.735.735,0,0,1-.626.259l-1.94-.168a2.2,2.2,0,0,0-1.208.24l-1.728.9a.735.735,0,0,1-.678,0l-1.728-.9a2.2,2.2,0,0,0-1.208-.24l-1.94.168a.734.734,0,0,1-.626-.259l-1.253-1.491a2.211,2.211,0,0,0-1.024-.684l-1.857-.588a.735.735,0,0,1-.48-.479L725,211.628a2.214,2.214,0,0,0-.684-1.023l-1.491-1.253a.733.733,0,0,1-.259-.626l.168-1.94a2.212,2.212,0,0,0-.24-1.207l-.9-1.729a.734.734,0,0,1,0-.678l.9-1.729a2.212,2.212,0,0,0,.24-1.207l-.168-1.94a.733.733,0,0,1,.259-.626l1.491-1.253a2.214,2.214,0,0,0,.684-1.023l.587-1.857a.735.735,0,0,1,.48-.479l1.857-.588a2.211,2.211,0,0,0,1.024-.684l1.253-1.491a.734.734,0,0,1,.626-.259l1.94.168a2.2,2.2,0,0,0,1.208-.24Z" transform="translate(-720.039 -187.51)" fill="#85e6c4" fill-rule="evenodd"/>
        </g>
      </g>
    </g>
    <path id="Path_27215" data-name="Path 27215" d="M2.823,9V2.457H7.462V4.068H4.649V9Zm.752-2.207V5.182h3.4V6.793ZM9.933,9V2.457h1.826V9Zm-1.2,0V7.486H12.96V9Zm0-5.029V2.457H12.96V3.971ZM14.425,9V2.457h2.8a3.486,3.486,0,0,1,.972.137,2.651,2.651,0,0,1,.854.42,2.057,2.057,0,0,1,.84,1.719A1.725,1.725,0,0,1,19.6,5.753a1.8,1.8,0,0,1-.786.625,2.778,2.778,0,0,1-1.1.21,1.912,1.912,0,0,1-.361-.049q-.234-.049-.5-.112T16.368,6.3q-.225-.059-.332-.078V5.3a3.058,3.058,0,0,0,.444.156,2,2,0,0,0,.532.068,1.149,1.149,0,0,0,.718-.22.686.686,0,0,0,.288-.571.634.634,0,0,0-.288-.581,1.327,1.327,0,0,0-.718-.181h-.762V9ZM18,9,16.134,6.227l1.641-.479L20.226,9Zm5.84.146a3.671,3.671,0,0,1-1.284-.229,3.468,3.468,0,0,1-1.113-.669,3.177,3.177,0,0,1-.781-1.074,3.461,3.461,0,0,1-.288-1.445,3.461,3.461,0,0,1,.288-1.445,3.177,3.177,0,0,1,.781-1.074,3.468,3.468,0,0,1,1.113-.669,3.671,3.671,0,0,1,1.284-.229,3.01,3.01,0,0,1,.957.146,2.292,2.292,0,0,1,.771.43V4.654a3.327,3.327,0,0,0-.493-.352,2.149,2.149,0,0,0-.513-.21,2.554,2.554,0,0,0-.654-.073,1.562,1.562,0,0,0-.815.225,1.767,1.767,0,0,0-.61.61,1.747,1.747,0,0,0,0,1.748,1.767,1.767,0,0,0,.61.61,1.562,1.562,0,0,0,.815.225,2.221,2.221,0,0,0,.918-.161,3.634,3.634,0,0,0,.742-.474V8.57A2.292,2.292,0,0,1,24.8,9,3.01,3.01,0,0,1,23.839,9.146Z" transform="matrix(0.951, -0.309, 0.309, 0.951, 0.831, -365.38)" fill="#6d44e5"/>
  </g>
</svg>
