<svg xmlns="http://www.w3.org/2000/svg" width="32" height="32" viewBox="0 0 32 32">
  <g id="Group_19901" data-name="Group 19901" transform="translate(0 931)">
    <ellipse id="Ellipse_6092" data-name="Ellipse 6092" cx="6.161" cy="6.059" rx="6.161" ry="6.059" transform="translate(19.251 -921.232)" fill="#85e6c4"/>
    <g id="Group_19959" data-name="Group 19959">
      <ellipse id="Ellipse_6093" data-name="Ellipse 6093" cx="5.295" cy="5.194" rx="5.295" ry="5.194" transform="translate(0.967 -920.366)" fill="#85e6c4"/>
      <path id="funds_9516894" d="M45.236,29.025A6.594,6.594,0,1,0,51.8,35.619a6.585,6.585,0,0,0-6.561-6.594Zm2.292,8.509a2.116,2.116,0,0,1-1.887,1.761v1.041a.4.4,0,1,1-.808,0V39.29a2.406,2.406,0,0,1-1.685-.917.407.407,0,0,1,.112-.563.4.4,0,0,1,.56.112,1.782,1.782,0,0,0,1.369.587,1.406,1.406,0,0,0,1.536-1.064c.093-.841-.612-1.126-1.7-1.465l-.284-.09c-1.529-.5-1.925-1.512-1.785-2.293a2.145,2.145,0,0,1,1.874-1.653V30.9a.4.4,0,1,1,.808,0v1.045a2.409,2.409,0,0,1,1.691.918.407.407,0,0,1-.112.563.4.4,0,0,1-.56-.112,1.782,1.782,0,0,0-1.369-.587,1.412,1.412,0,0,0-1.538,1.01c-.1.575.361,1.09,1.24,1.377l.274.087c.969.3,2.434.761,2.261,2.33ZM26.322,27.818A27.044,27.044,0,0,1,19.8,30.264a8.539,8.539,0,0,1,.338,2.6v3.423a5.066,5.066,0,0,0,2.173,4.227l4.014,2.863,4.014-2.863a5.066,5.066,0,0,0,2.173-4.227V32.868a8.539,8.539,0,0,1,.338-2.6A27.04,27.04,0,0,1,26.322,27.818Zm3.968,6.2L25.776,38.56a1.353,1.353,0,0,1-.972.41,1.456,1.456,0,0,1-.191-.013,1.36,1.36,0,0,1-1.021-.686l-1.4-2.437a1.032,1.032,0,0,1,.374-1.4,1.021,1.021,0,0,1,1.4.376l.972,1.692,3.91-3.93a1.02,1.02,0,0,1,1.446,0,1.033,1.033,0,0,1,0,1.454Zm-.571-.574L25.2,37.986a.579.579,0,0,1-.913-.121l-1.4-2.437a.219.219,0,0,1,.079-.295.209.209,0,0,1,.105-.028.217.217,0,0,1,.188.107l1.235,2.15a.4.4,0,0,0,.636.084l4.282-4.3a.217.217,0,0,1,.3,0,.22.22,0,0,1,0,.305Zm-2.472-8.414A8.981,8.981,0,0,1,43.19,23.981l.2-1.033a.4.4,0,1,1,.793.156l-.423,2.17a.4.4,0,0,1-.551.3l-2.068-.862a.406.406,0,0,1,.31-.75l1.041.434a8.173,8.173,0,0,0-14.506.967.4.4,0,1,1-.74-.326ZM44.158,46.2a8.982,8.982,0,0,1-15.943,1.053l-.2,1.032a.4.4,0,1,1-.793-.156l.423-2.17a.4.4,0,0,1,.551-.3l2.068.862a.406.406,0,0,1-.31.75l-1.042-.434a8.173,8.173,0,0,0,14.506-.966.4.4,0,1,1,.74.326Z" transform="translate(-19.797 -950.619)" fill="#6d44e5"/>
    </g>
    <path id="Path_27199" data-name="Path 27199" d="M3.214-915.429l1.853,2.834,4.906-4.918" fill="none" stroke="#81e6c6" stroke-linecap="round" stroke-linejoin="round" stroke-width="1"/>
  </g>
</svg>
