<svg xmlns="http://www.w3.org/2000/svg" width="32" height="32" viewBox="0 0 32 32">
  <g id="rupees_1609578" transform="translate(0.001)">
    <path id="Path_27091" data-name="Path 27091" d="M261.218,162.649h-.034a1.041,1.041,0,0,0-1.013,1.059v4.909H259.2V160.27a1.041,1.041,0,1,0-2.082,0v8.346h-.971v-9.59A1.031,1.031,0,0,0,255.113,158h-.036a1.012,1.012,0,0,0-1.012,1.026v.254a8.681,8.681,0,0,1-.018,7.568v1.8l-.971,0v-.236a8.761,8.761,0,0,1-2.07,1.913v.517a.486.486,0,0,1-.85.32l-.21-.238a8.616,8.616,0,0,1-2.586.764l3.083,5.529a3.675,3.675,0,0,0,3.208,1.884h4.927a3.677,3.677,0,0,0,3.672-3.668c0-4.251.008-9.027,0-11.735A1.045,1.045,0,0,0,261.218,162.649Zm0,0" transform="translate(-230.254 -147.094)" fill="#85e6c4"/>
    <path id="Path_27092" data-name="Path 27092" d="M11.247,8.776V8.259a.486.486,0,0,1,.85-.321l.21.239a8.62,8.62,0,0,1,2.586-.764L11.81,1.884A3.675,3.675,0,0,0,8.6,0H3.676A3.683,3.683,0,0,0,0,3.675C0,7.932,0,12.706,0,15.4a1.044,1.044,0,0,0,1.031,1.042h.034A1.04,1.04,0,0,0,2.08,15.386V10.478h.971v8.347a1.041,1.041,0,1,0,2.082,0V10.478H6.1v9.59a1.031,1.031,0,0,0,1.034,1.026h.036a1.012,1.012,0,0,0,1.012-1.026v-.254A8.7,8.7,0,0,1,11.247,8.776Zm0,0" transform="translate(0)" fill="#85e6c4"/>
    <path id="Path_27093" data-name="Path 27093" d="M135.2,127.477a7.719,7.719,0,1,0-7.719,7.719A7.719,7.719,0,0,0,135.2,127.477Zm-6.041-2.429h1.187a.486.486,0,1,1,0,.971h-1.187a2.989,2.989,0,0,1-2.9,2.5h-.419l3.211,3.018a.466.466,0,0,1,.02.67.491.491,0,0,1-.687.024l-4.1-3.869a.468.468,0,0,1,.333-.814h1.64a2.036,2.036,0,0,0,1.913-1.527h-3.553a.486.486,0,1,1,0-.971h3.553a1.974,1.974,0,0,0-1.912-1.457h-1.64a.486.486,0,1,1,0-.971h5.732a.486.486,0,1,1,0,.971h-1.908A2.917,2.917,0,0,1,129.155,125.048Zm0,0" transform="translate(-111.478 -111.477)" fill="#6d44e5"/>
  </g>
</svg>
