<svg xmlns="http://www.w3.org/2000/svg" xmlns:xlink="http://www.w3.org/1999/xlink" width="228.601" height="351.028" viewBox="0 0 228.601 351.028">
  <defs>
    <linearGradient id="linear-gradient" x1="0.01" y1="1.268" x2="0.787" y2="0.484" gradientUnits="objectBoundingBox">
      <stop offset="0" stop-color="#4e0070"/>
      <stop offset="0.234" stop-color="#440b89"/>
      <stop offset="0.557" stop-color="#361cac"/>
      <stop offset="0.813" stop-color="#2f2ba2"/>
      <stop offset="1" stop-color="#273b98"/>
    </linearGradient>
    <radialGradient id="radial-gradient" cx="0.597" cy="0.233" r="0.269" gradientTransform="matrix(-1.508, 0, 0, 1, -3.235, 0)" gradientUnits="objectBoundingBox">
      <stop offset="0" stop-color="#fff"/>
      <stop offset="0.066" stop-color="#d8d8d8"/>
      <stop offset="0.162" stop-color="#a6a6a6"/>
      <stop offset="0.262" stop-color="#797979"/>
      <stop offset="0.366" stop-color="#545454"/>
      <stop offset="0.473" stop-color="#353535"/>
      <stop offset="0.585" stop-color="#1e1e1e"/>
      <stop offset="0.704" stop-color="#0d0d0d"/>
      <stop offset="0.835" stop-color="#030303"/>
      <stop offset="1"/>
    </radialGradient>
    <radialGradient id="radial-gradient-2" cx="0.661" cy="0.358" r="0.365" gradientTransform="matrix(-0.905, 0, 0, 1, -2.458, 0)" xlink:href="#radial-gradient"/>
  </defs>
  <g id="Group_2377" data-name="Group 2377" transform="translate(-11743.042 4474.388)">
    <path id="Path_1953" data-name="Path 1953" d="M446.121,187.776l.117.069L344.048,27.4c-4.883-7.673-12.127-11.844-17-9.827l-102.273,42.4.117.069c-1.153.532-1.9,1.823-1.9,3.75V222.341a12.58,12.58,0,0,0,5.718,9.855l213.607,123.33c3.149,1.823,5.718.359,5.718-3.26V193.722A12.072,12.072,0,0,0,446.121,187.776Z" transform="translate(11520.57 -4479.67)" opacity="0.01"/>
    <path id="Path_1954" data-name="Path 1954" d="M445.772,188.2l.117.069L344.314,28.757c-4.855-7.617-12.058-11.782-16.913-9.772L225.728,61.147l.117.069c-1.153.532-1.885,1.809-1.885,3.736V222.571a12.511,12.511,0,0,0,5.677,9.8l212.357,122.6c3.135,1.809,5.677.359,5.677-3.246V194.1A11.811,11.811,0,0,0,445.772,188.2Z" transform="translate(11520.27 -4480.107)" opacity="0.014"/>
    <path id="Path_1955" data-name="Path 1955" d="M445.427,188.619l.117.069L344.555,30.137c-4.827-7.576-11.982-11.713-16.8-9.7L226.674,62.326l.117.069c-1.146.518-1.872,1.8-1.872,3.709V222.791a12.415,12.415,0,0,0,5.649,9.731L441.677,354.4c3.122,1.8,5.649.359,5.649-3.218V194.5A11.9,11.9,0,0,0,445.427,188.619Z" transform="translate(11519.973 -4480.555)" opacity="0.021"/>
    <path id="Path_1956" data-name="Path 1956" d="M445.074,189.042l.117.069L344.811,31.492c-4.8-7.528-11.913-11.644-16.713-9.655L227.62,63.495l.117.069c-1.139.518-1.858,1.8-1.858,3.681V223.006a12.379,12.379,0,0,0,5.608,9.682l209.85,121.155c3.094,1.8,5.608.359,5.608-3.2V194.877A11.574,11.574,0,0,0,445.074,189.042Z" transform="translate(11519.676 -4480.992)" opacity="0.029"/>
    <path id="Path_1957" data-name="Path 1957" d="M444.729,189.467l.117.069L345.053,32.849c-4.772-7.486-11.844-11.568-16.609-9.6l-99.87,41.4.117.069c-1.133.518-1.851,1.782-1.851,3.667V223.217a12.3,12.3,0,0,0,5.587,9.627l208.593,120.43c3.087,1.782,5.587.359,5.587-3.177V195.268A11.651,11.651,0,0,0,444.729,189.467Z" transform="translate(11519.379 -4481.431)" opacity="0.036"/>
    <path id="Path_1958" data-name="Path 1958" d="M444.394,189.877l.117.069L345.332,34.2c-4.731-7.445-11.768-11.5-16.513-9.53L229.543,65.829l.117.069c-1.133.518-1.851,1.768-1.851,3.646V223.455a12.225,12.225,0,0,0,5.546,9.558l207.33,119.711c3.059,1.768,5.546.359,5.546-3.163v-153.9A11.536,11.536,0,0,0,444.394,189.877Z" transform="translate(11519.079 -4481.869)" opacity="0.043"/>
    <path id="Path_1959" data-name="Path 1959" d="M444.039,190.312l.117.069L345.571,35.573c-4.71-7.39-11.7-11.437-16.409-9.482L230.48,67l.117.069c-1.119.518-1.837,1.754-1.837,3.619V223.669a12.133,12.133,0,0,0,5.518,9.5L440.371,352.158c3.046,1.754,5.518.345,5.518-3.135V196.051A11.623,11.623,0,0,0,444.039,190.312Z" transform="translate(11518.785 -4482.311)" opacity="0.05"/>
    <path id="Path_1960" data-name="Path 1960" d="M443.684,190.739l.117.069-98-153.869c-4.682-7.355-11.623-11.368-16.312-9.427L231.41,68.162l.1.069c-1.119.5-1.823,1.74-1.823,3.605V223.882a12.081,12.081,0,0,0,5.477,9.455L440.017,351.6c3.032,1.74,5.477.345,5.477-3.122V196.437A11.019,11.019,0,0,0,443.684,190.739Z" transform="translate(11518.497 -4482.751)" opacity="0.057"/>
    <path id="Path_1961" data-name="Path 1961" d="M443.352,191.172l.1.069L346.065,38.311C341.41,31,334.511,27.026,329.856,28.953l-97.48,40.415.1.069c-1.1.5-1.809,1.74-1.809,3.577V224.121a11.933,11.933,0,0,0,5.449,9.385l203.593,117.55c3,1.74,5.449.345,5.449-3.094V196.835A11.122,11.122,0,0,0,443.352,191.172Z" transform="translate(11518.193 -4483.198)" opacity="0.064"/>
    <path id="Path_1962" data-name="Path 1962" d="M442.987,191.58l.1.069L346.307,39.665c-4.627-7.258-11.485-11.222-16.112-9.309L233.3,70.522l.1.069c-1.091.5-1.8,1.727-1.8,3.55V224.329a11.918,11.918,0,0,0,5.414,9.337l202.35,116.811c2.99,1.727,5.414.345,5.414-3.087V197.215A11,11,0,0,0,442.987,191.58Z" transform="translate(11517.903 -4483.633)" opacity="0.071"/>
    <path id="Path_1963" data-name="Path 1963" d="M442.658,192.007l.1.069L346.572,41.031c-4.6-7.217-11.409-11.153-16.008-9.254L234.278,71.695l.1.069c-1.091.5-1.782,1.713-1.782,3.536V224.555a11.888,11.888,0,0,0,5.373,9.282l201.086,116.1c2.963,1.713,5.387.345,5.387-3.073V197.6A11.116,11.116,0,0,0,442.658,192.007Z" transform="translate(11517.597 -4484.074)" opacity="0.079"/>
    <path id="Path_1964" data-name="Path 1964" d="M442.313,192.44l.1.069-95.6-150.1c-4.572-7.169-11.34-11.091-15.912-9.185L235.218,72.9l.1.069c-1.077.49-1.782,1.7-1.782,3.508v148.3a11.76,11.76,0,0,0,5.345,9.213l199.83,115.381c2.949,1.7,5.345.345,5.345-3.046V198A10.785,10.785,0,0,0,442.313,192.44Z" transform="translate(11517.306 -4484.521)" opacity="0.086"/>
    <path id="Path_1965" data-name="Path 1965" d="M441.954,192.842l.1.069L347.063,43.745c-4.537-7.127-11.278-11.022-15.808-9.137L236.164,74.035l.1.069c-1.077.49-1.768,1.685-1.768,3.481v147.4a11.712,11.712,0,0,0,5.3,9.158L438.39,348.79c2.942,1.692,5.3.331,5.3-3.032V198.374A10.658,10.658,0,0,0,441.954,192.842Z" transform="translate(11517.009 -4484.951)" opacity="0.093"/>
    <path id="Path_1966" data-name="Path 1966" d="M441.625,193.274l.1.069L347.335,45.124c-4.51-7.086-11.195-10.939-15.718-9.082L237.141,75.214l.1.069c-1.064.49-1.754,1.685-1.754,3.467V225.215a11.665,11.665,0,0,0,5.276,9.109L438.1,348.255c2.914,1.692,5.276.331,5.276-3V198.772A10.935,10.935,0,0,0,441.625,193.274Z" transform="translate(11516.702 -4485.397)" opacity="0.1"/>
    <path id="Path_1967" data-name="Path 1967" d="M441.293,193.7l.1.069L347.6,46.483c-4.482-7.03-11.126-10.877-15.608-9.013L238.107,76.393l.1.069c-1.064.49-1.74,1.678-1.74,3.446V225.442a11.559,11.559,0,0,0,5.242,9.04L437.8,347.695c2.9,1.678,5.242.331,5.242-2.99V199.157A11.009,11.009,0,0,0,441.293,193.7Z" transform="translate(11516.399 -4485.837)" opacity="0.107"/>
    <path id="Path_1968" data-name="Path 1968" d="M440.927,194.126l.1.069-93.2-146.348c-4.454-7-11.064-10.808-15.518-8.964L239.033,77.557l.1.069c-1.05.477-1.727,1.664-1.727,3.419V225.66a11.463,11.463,0,0,0,5.214,8.985L437.461,347.125c2.873,1.664,5.214.331,5.214-2.963V199.541A10.887,10.887,0,0,0,440.927,194.126Z" transform="translate(11516.108 -4486.276)" opacity="0.114"/>
    <path id="Path_1969" data-name="Path 1969" d="M440.6,194.542l.1.069L348.1,49.2c-4.427-6.954-10.981-10.746-15.408-8.909L240.009,78.719l.1.069c-1.05.477-1.713,1.651-1.713,3.4V225.883a11.427,11.427,0,0,0,5.173,8.937L437.145,346.581c2.859,1.651,5.173.331,5.173-2.949V199.922A10.745,10.745,0,0,0,440.6,194.542Z" transform="translate(11515.803 -4486.713)" opacity="0.121"/>
    <path id="Path_1970" data-name="Path 1970" d="M440.227,194.979l.1.069-92-144.463c-4.4-6.9-10.919-10.663-15.318-8.84l-92.087,38.17.1.069c-1.036.477-1.713,1.637-1.713,3.377V226.119a11.31,11.31,0,0,0,5.145,8.867L436.8,346.016c2.845,1.637,5.145.332,5.145-2.942V200.331A10.437,10.437,0,0,0,440.227,194.979Z" transform="translate(11515.518 -4487.164)" opacity="0.129"/>
    <path id="Path_1971" data-name="Path 1971" d="M439.895,195.4l.1.069L348.6,51.94c-4.358-6.858-10.85-10.594-15.207-8.792L241.9,81.083l.1.069c-1.036.477-1.7,1.637-1.7,3.349V226.327a11.251,11.251,0,0,0,5.1,8.812L436.476,345.451c2.818,1.637,5.1.318,5.1-2.914V200.719A10.25,10.25,0,0,0,439.895,195.4Z" transform="translate(11515.215 -4487.6)" opacity="0.136"/>
    <path id="Path_1972" data-name="Path 1972" d="M439.556,195.81l.1.069L348.851,53.3c-4.337-6.809-10.767-10.532-15.118-8.736l-90.892,37.68.1.069c-1.022.477-1.685,1.623-1.685,3.336V226.536a11.2,11.2,0,0,0,5.076,8.764L436.159,344.894c2.8,1.623,5.076.318,5.076-2.9V201.1A10.467,10.467,0,0,0,439.556,195.81Z" transform="translate(11514.917 -4488.037)" opacity="0.143"/>
    <path id="Path_1973" data-name="Path 1973" d="M439.2,196.241l.1.069L349.113,54.665C344.8,47.9,338.408,44.2,334.1,46L243.815,83.429l.1.055c-1.022.463-1.678,1.609-1.678,3.308V226.759a11.119,11.119,0,0,0,5.042,8.695L435.84,344.33c2.79,1.609,5.041.318,5.041-2.873V201.49A10.348,10.348,0,0,0,439.2,196.241Z" transform="translate(11514.614 -4488.481)" opacity="0.15"/>
    <path id="Path_1974" data-name="Path 1974" d="M448.907,173.415l.117.069L345.225,10.506C340.266,2.716,332.918-1.531,327.946.52l-103.9,43.074.117.069c-1.167.546-1.927,1.851-1.927,3.819V207.2a12.783,12.783,0,0,0,5.794,10.014L445.019,342.5c3.2,1.851,5.794.373,5.794-3.308V179.451A11.692,11.692,0,0,0,448.907,173.415Z" transform="translate(11520.802 -4474.392)" fill="url(#linear-gradient)"/>
    <path id="Path_1975" data-name="Path 1975" d="M448.619,343.693V182.627a11.97,11.97,0,0,0-1.927-6.036l.117.069L343,13.682c-4.959-7.79-12.314-12.031-17.272-9.986L222.38,46.535a3.492,3.492,0,0,1,1.837-2.873l-.117-.069L327.989.519c4.959-2.058,12.327,2.2,17.286,9.986l103.8,162.978-.117-.069a12.054,12.054,0,0,1,1.927,6.036V340.516c0,2.182-.932,3.564-2.341,3.964C448.563,344.224,448.619,343.969,448.619,343.693Z" transform="translate(11520.759 -4474.391)" fill="url(#radial-gradient)"/>
    <path id="Path_2008" data-name="Path 2008" d="M337.518,267.778c-5.055,2.1-12.535-2.231-17.59-10.159L222.24,72.12V224.194a12.783,12.783,0,0,0,5.794,10.014L445.019,359.492c3.2,1.851,5.794.373,5.794-3.308V204.11Z" transform="translate(11520.802 -4496.703)" opacity="0.2"/>
    <path id="Path_2010" data-name="Path 2010" d="M335.238,278.517c-5.055,2.1-12.548-2.231-17.59-10.159L222.24,72.12l97.681,192.15c5.055,7.928,12.535,12.258,17.59,10.159L450.827,204.1Z" transform="translate(11520.802 -4496.703)" fill="url(#radial-gradient-2)"/>
  </g>
</svg>
