<svg xmlns="http://www.w3.org/2000/svg" xmlns:xlink="http://www.w3.org/1999/xlink" width="178.903" height="278.706" viewBox="0 0 178.903 278.706">
  <defs>
    <linearGradient id="linear-gradient" x1="0.068" y1="3.115" x2="0.949" y2="2.32" gradientUnits="objectBoundingBox">
      <stop offset="0" stop-color="#17243f"/>
      <stop offset="1" stop-color="#0f182d"/>
    </linearGradient>
    <radialGradient id="radial-gradient" cx="0.5" cy="0.5" r="1.4" gradientTransform="matrix(0.66, 0, 0, -1, -0.646, 18.904)" gradientUnits="objectBoundingBox">
      <stop offset="0" stop-color="#711f56"/>
      <stop offset="0.161" stop-color="#6c1e52"/>
      <stop offset="0.363" stop-color="#5c1946"/>
      <stop offset="0.585" stop-color="#431233"/>
      <stop offset="0.821" stop-color="#200918"/>
      <stop offset="1"/>
    </radialGradient>
  </defs>
  <g id="invoice" transform="translate(-182.019 -10.688)">
    <g id="Group_2318" data-name="Group 2318" transform="translate(182.64 12.28)" opacity="0.3">
      <path id="Path_1976" data-name="Path 1976" d="M286.79,28.583c-10.663-6.153-19.31-1.222-19.31,11.008V179.676c0,12.231,8.64,27.134,19.3,33.295l133.7,75.809c10.663,6.153,23.191.615,23.191-11.623V137.065c0-12.231-12.528-26.527-23.191-32.68Z" transform="translate(-265.394 -20.303)" fill="#a7addf" opacity="0.091"/>
      <path id="Path_1977" data-name="Path 1977" d="M286.452,27.756C275.8,21.616,267.17,26.533,267.17,38.75V179.284c0,12.217,8.626,27.093,19.282,33.253l133.379,75.629c10.649,6.14,22.776.677,22.776-11.54V136.093c0-12.217-12.127-26.554-22.776-32.694Z" transform="translate(-265.298 -20.049)" fill="#a0a5d9" opacity="0.182"/>
      <path id="Path_1978" data-name="Path 1978" d="M286.124,26.956c-10.635-6.14-19.254-1.222-19.254,10.981V178.912c0,12.2,8.619,27.072,19.254,33.212L419.2,287.566c10.635,6.14,22.362.732,22.362-11.471V135.113c0-12.2-11.727-26.582-22.362-32.721Z" transform="translate(-265.206 -19.801)" fill="#989cd3" opacity="0.273"/>
      <path id="Path_1979" data-name="Path 1979" d="M285.807,26.127C275.185,19.994,266.58,24.9,266.58,37.094V178.5c0,12.189,8.605,27.031,19.227,33.156l132.757,75.27c10.622,6.133,21.948.794,21.948-11.4V134.125c0-12.189-11.326-26.6-21.948-32.735Z" transform="translate(-265.116 -19.546)" fill="#9094cd" opacity="0.364"/>
      <path id="Path_1980" data-name="Path 1980" d="M285.469,25.3c-10.608-6.133-19.2-1.222-19.2,10.939V178.088c0,12.169,8.6,27,19.2,33.122l132.439,75.084c10.608,6.133,21.54.849,21.54-11.312V133.136c0-12.169-10.932-26.63-21.54-32.763Z" transform="translate(-265.02 -19.288)" fill="#898bc7" opacity="0.454"/>
      <path id="Path_1981" data-name="Path 1981" d="M285.145,24.489c-10.594-6.119-19.185-1.222-19.185,10.932v142.3c0,12.155,8.591,26.962,19.185,33.08l132.122,74.9c10.594,6.119,21.126.919,21.126-11.25V132.156c0-12.155-10.532-26.658-21.126-32.777Z" transform="translate(-264.924 -19.041)" fill="#8183c1" opacity="0.545"/>
      <path id="Path_1982" data-name="Path 1982" d="M284.818,23.662c-10.58-6.105-19.158-1.222-19.158,10.919V177.324c0,12.141,8.577,26.934,19.158,33.039l131.8,74.711c10.58,6.105,20.712.967,20.712-11.167V131.17c0-12.141-10.131-26.685-20.712-32.79Z" transform="translate(-264.831 -18.786)" fill="#7a7abb" opacity="0.636"/>
      <path id="Path_1983" data-name="Path 1983" d="M284.48,22.862c-10.566-6.105-19.13-1.222-19.13,10.9V176.945c0,12.127,8.564,26.9,19.13,33l131.493,74.524c10.566,6.105,20.3,1.036,20.3-11.091V130.2c0-12.127-9.731-26.713-20.3-32.811Z" transform="translate(-264.735 -18.539)" fill="#7272b5" opacity="0.727"/>
      <path id="Path_1984" data-name="Path 1984" d="M284.169,22.035c-10.56-6.091-19.109-1.209-19.109,10.891V176.56c0,12.113,8.55,26.858,19.109,32.963l131.176,74.352c10.56,6.091,19.89,1.091,19.89-11.022V129.212c0-12.113-9.33-26.741-19.89-32.825Z" transform="translate(-264.646 -18.286)" fill="#6a69af" opacity="0.818"/>
      <path id="Path_1985" data-name="Path 1985" d="M283.832,21.225C273.286,15.134,264.75,20.016,264.75,32.1V176.172c0,12.1,8.55,26.83,19.082,32.922l130.858,74.165c10.546,6.091,19.462,1.153,19.462-10.946V128.243c0-12.1-8.937-26.761-19.462-32.853Z" transform="translate(-264.55 -18.035)" fill="#6361a9" opacity="0.909"/>
      <path id="Path_1986" data-name="Path 1986" d="M283.514,20.4c-10.532-6.077-19.054-1.209-19.054,10.863V175.772c0,12.072,8.536,26.789,19.054,32.866l130.54,73.979c10.532,6.077,19.054,1.209,19.054-10.863v-144.5c0-12.072-8.536-26.789-19.054-32.866Z" transform="translate(-264.46 -17.781)" fill="#5b58a3"/>
    </g>
    <path id="Path_1987" data-name="Path 1987" d="M432.808,125.321c0-12.127-8.564-26.886-19.116-32.984L282.716,18.1C272.157,12,263.6,16.894,263.6,29.007V54.8l169.228,96.244V125.321Z" transform="translate(-81.554 -4.787)" fill="url(#linear-gradient)"/>
    <path id="Path_1988" data-name="Path 1988" d="M282.69,231.119l130.975,74.227c10.56,6.105,19.116,1.209,19.116-10.9V156.3L263.56,60.06V198.135C263.574,210.255,272.137,225.027,282.69,231.119Z" transform="translate(-81.541 -18.581)" fill="#f8f8f8"/>
    <path id="Path_1990" data-name="Path 1990" d="M319.266,117.126l16.623,9.676v-3.336l-16.623-9.676Zm-9.455-12.245,16.126,9.31v-3.336l-16.126-9.309Zm7.058,7.528-18.64-10.781v3.336l18.64,10.781Zm-9.441-12.252-9.2-5.318v3.336l9.2,5.318Z" transform="translate(-92.268 -29.341)" fill="#afb6e5"/>
    <path id="Path_1991" data-name="Path 1991" d="M352.364,258.523a8.02,8.02,0,0,0-2.631-3.978l-.546.877a7.212,7.212,0,0,1,2.182,3.377,12.682,12.682,0,0,1-.2,6.077,6.719,6.719,0,0,1-.808-3.826,2.066,2.066,0,0,0,.228-1.381.514.514,0,0,0-.477-.428.466.466,0,0,0-.518.373,8.473,8.473,0,0,0-.228,1.1,7.468,7.468,0,0,1-1.927,1.713q-.383.28-.746.559a9.3,9.3,0,0,0-2.541,2.99c-.414-.518-.836-.995-1.236-1.464-.836-.974-1.7-1.941-2.576-2.914-1.809-2.023-3.66-4.082-5.256-6.209-.173-1.05-.4-2.141-.7-3.308-.228-.863-.918-3.495-3.522-4.123a.515.515,0,0,0-.49.145.536.536,0,0,0-.117.5,24.722,24.722,0,0,0,3.867,7.182,17.973,17.973,0,0,1-.1,6.609,13.419,13.419,0,0,1-2.742,5.663l.559.946a14.481,14.481,0,0,0,3.177-6.4,17.834,17.834,0,0,0,.318-5.249c1.34,1.678,2.8,3.308,4.254,4.917.863.96,1.727,1.927,2.569,2.887.49.573,1.008,1.195,1.526,1.837a10.264,10.264,0,0,0-.6,4.841c.345,3.122,1.837,6.05,3.28,8.867a3.365,3.365,0,0,0,2.832,2.155,2.9,2.9,0,0,0,.345-.028.517.517,0,0,0,.428-.387c1.4-5.718-1.8-11.326-5.117-15.608a8.284,8.284,0,0,1,2.459-3.059c.228-.173.477-.359.718-.532.442-.318.891-.649,1.305-1.008a8.182,8.182,0,0,0,1.651,4.227.542.542,0,0,0,.518.2.486.486,0,0,0,.387-.387C352.474,263.883,353.1,261.155,352.364,258.523Zm-20.753-9.151a4.842,4.842,0,0,1,1.782,2.963c.083.318.159.622.228.932A23.923,23.923,0,0,1,331.611,249.373Zm17.459,32.473a2.611,2.611,0,0,1-1.782-1.582c-1.409-2.742-2.859-5.587-3.177-8.522a9.335,9.335,0,0,1,.332-3.764C347.391,271.914,350.092,276.873,349.07,281.846Z" transform="translate(-102.168 -76.711)" fill="#273b98"/>
    <path id="Path_1992" data-name="Path 1992" d="M297.94,36.38l3.522,2.037V64.17l-3.522-2.037Z" transform="translate(-92.178 -11.255)" fill="#fff"/>
    <path id="Path_1993" data-name="Path 1993" d="M306.86,41.52l4.427,2.555,3.432,17.4.069.041V46.092l3.135,1.809V73.654l-3.633-2.086-4.227-21.243L310,50.284v18.8l-3.135-1.809V41.52Z" transform="translate(-94.938 -12.845)" fill="#fff"/>
    <path id="Path_1994" data-name="Path 1994" d="M325.34,52.18l3.564,2.058,2.314,21.312.069.041,2.314-18.64,3.246,1.872-3.4,23.8-4.682-2.7Z" transform="translate(-100.655 -16.143)" fill="#fff"/>
    <path id="Path_1995" data-name="Path 1995" d="M345.341,88.953a11.357,11.357,0,0,1-1.381-5.587V69.83q0-3.087,1.381-3.992t3.978.6a10.322,10.322,0,0,1,3.978,3.992,11.357,11.357,0,0,1,1.381,5.587V89.554q0,3.087-1.381,3.992t-3.978-.6A10.139,10.139,0,0,1,345.341,88.953Zm5.794-1.167V73.732a3.828,3.828,0,0,0-1.823-3.591c-1.222-.7-1.823-.214-1.823,1.492V85.687a3.815,3.815,0,0,0,1.823,3.591C350.521,89.969,351.135,89.471,351.135,87.786Z" transform="translate(-106.416 -20.264)" fill="#fff"/>
    <path id="Path_1996" data-name="Path 1996" d="M362.9,73.88l3.522,2.037V101.67L362.9,99.633Z" transform="translate(-112.275 -22.856)" fill="#fff"/>
    <path id="Path_1997" data-name="Path 1997" d="M372.816,104.829a11.093,11.093,0,0,1-1.326-5.435V85.547c0-2.01.435-3.308,1.326-3.909s2.182-.4,3.867.573a10.038,10.038,0,0,1,3.867,3.881,11.093,11.093,0,0,1,1.326,5.435v2.728l-3.336-1.927V89.352a3.6,3.6,0,0,0-1.768-3.4c-1.167-.677-1.768-.228-1.768,1.367V101.7a3.586,3.586,0,0,0,1.768,3.377c1.167.677,1.768.242,1.768-1.34V99.8l3.336,1.927v3.646c0,2.01-.442,3.308-1.326,3.909s-2.182.4-3.867-.573A10.039,10.039,0,0,1,372.816,104.829Z" transform="translate(-114.934 -25.152)" fill="#fff"/>
    <path id="Path_1998" data-name="Path 1998" d="M389.6,89.28l9.627,5.559V98.52L393.136,95v6.809l4.841,2.79v3.681l-4.841-2.79V113.4l6.091,3.522v3.681l-9.627-5.559Z" transform="translate(-120.536 -27.621)" fill="#fff"/>
    <path id="Path_2000" data-name="Path 2000" d="M298.773,120.17l118.744,68.537v51.119L298.773,171.289Zm-1.333-2.3v54.179l121.4,70.07V187.94Z" transform="translate(-92.023 -36.466)" fill="#afb6e5"/>
    <path id="Path_2002" data-name="Path 2002" d="M299.093,138.54l-.663,1.153L417.824,208.6l.663-1.153Z" transform="translate(-92.33 -42.861)" fill="#afb6e5"/>
    <path id="Path_2003" data-name="Path 2003" d="M299.113,157.81l-.663,1.153,119.394,68.91.663-1.153Z" transform="translate(-92.336 -48.823)" fill="#afb6e5"/>
    <path id="Path_2004" data-name="Path 2004" d="M299.113,177.06l-.663,1.153,119.394,68.91.663-1.153Z" transform="translate(-92.336 -54.779)" fill="#afb6e5"/>
    <path id="Path_2005" data-name="Path 2005" d="M384.366,168.69H383.04v53.226h1.326Z" transform="translate(-118.507 -52.189)" fill="#afb6e5"/>
    <path id="Path_2006" data-name="Path 2006" d="M405.3,180.73H403.97v53.219H405.3Z" transform="translate(-124.982 -55.914)" fill="#afb6e5"/>
    <path id="Path_2007" data-name="Path 2007" d="M427.376,193.57H426.05v53.219h1.326Z" transform="translate(-131.813 -59.887)" fill="#afb6e5"/>
    <path id="Path_1989" data-name="Path 1989" d="M413.671,92.33,282.7,18.1c-10.56-6.105-19.116-1.209-19.116,10.9v1.851c0-12.127,8.564-17,19.116-10.9L413.671,94.181c10.56,6.105,19.116,20.863,19.116,32.984v-1.851C432.8,113.193,424.245,98.421,413.671,92.33Z" transform="translate(-81.548 -4.787)" fill="url(#radial-gradient)"/>
  </g>
</svg>
