<svg xmlns="http://www.w3.org/2000/svg" xmlns:xlink="http://www.w3.org/1999/xlink" width="1098" height="447" viewBox="0 0 1098 447">
  <defs>
    <linearGradient id="linear-gradient" x2="1" y2="0.948" gradientUnits="objectBoundingBox">
      <stop offset="0" stop-color="#7d0eff"/>
      <stop offset="1" stop-color="#1eefb0"/>
    </linearGradient>
  </defs>
  <g id="Group_2365" data-name="Group 2365" transform="translate(-134 -1130)">
    <path id="Path_1920" data-name="Path 1920" d="M2604.48-1604.5h89.563v-158.476h28.729" transform="translate(-1689.479 2987.5)" fill="none" stroke="#7d0eff" stroke-linejoin="round" stroke-width="2" stroke-dasharray="10"/>
    <path id="Path_1919" data-name="Path 1919" d="M2604.48-1762.976h89.563V-1604.5h28.729" transform="translate(-1689.48 3146.476)" fill="none" stroke="#7d0eff" stroke-linejoin="round" stroke-width="2" stroke-dasharray="10"/>
    <path id="Union_7" data-name="Union 7" d="M0,120H5V53H7v67h5L6,130Z" transform="translate(528.5 1146)" fill="#7d0eff"/>
    <path id="Union_6" data-name="Union 6" d="M0,53H5V0H7V53h5L6,63Z" transform="translate(374 1324) rotate(-90)" fill="#7d0eff"/>
    <path id="Union_9" data-name="Union 9" d="M0,53H5V0H7V53h5L6,63Z" transform="translate(374 1455) rotate(-90)" fill="#7d0eff"/>
    <path id="Union_8" data-name="Union 8" d="M0,117H12L6,127Zm5,0V78H7v39Z" transform="translate(548 1389) rotate(-90)" fill="#7d0eff"/>
    <rect id="Rectangle_2597" data-name="Rectangle 2597" width="195" height="215" rx="10" transform="translate(437 1276)" fill="url(#linear-gradient)"/>
    <rect id="Rectangle_2596" data-name="Rectangle 2596" width="188" height="208" rx="10" transform="translate(440 1279)" fill="#17243f"/>
    <rect id="Rectangle_2596-2" data-name="Rectangle 2596" width="195" height="69" rx="10" transform="translate(437 1130)" fill="#17243f"/>
    <g id="Group_2240" data-name="Group 2240">
      <rect id="Rectangle_2598" data-name="Rectangle 2598" width="240" height="89" rx="10" transform="translate(134 1273)" fill="#17243f"/>
      <path id="Path_2248" data-name="Path 2248" d="M-20.723-13.086-26.836,0h-.879l-6.113-13.086h2.109L-27.3-2.969l4.473-10.117Zm5.879,3.125a4.624,4.624,0,0,1,2.5.625,3.9,3.9,0,0,1,1.494,1.7,5.692,5.692,0,0,1,.5,2.422v.957h-7.5a3.643,3.643,0,0,0,.566,1.5A3.287,3.287,0,0,0-16.113-1.67a3.368,3.368,0,0,0,1.66.4,3.841,3.841,0,0,0,1.973-.537,7.189,7.189,0,0,0,1.543-1.182l-.02,1.738a3.793,3.793,0,0,1-.811.693A5.416,5.416,0,0,1-13,.049a4.349,4.349,0,0,1-1.455.244,4.96,4.96,0,0,1-2.637-.7A5.064,5.064,0,0,1-18.9-2.275a5.106,5.106,0,0,1-.654-2.549,5.491,5.491,0,0,1,.6-2.559,4.9,4.9,0,0,1,1.67-1.875,4.311,4.311,0,0,1,2.435-.7Zm0,1.563a2.647,2.647,0,0,0-1.992.811,3.635,3.635,0,0,0-.977,1.963h5.879a3.161,3.161,0,0,0-.537-1.562A2.834,2.834,0,0,0-13.535-8.1a2.966,2.966,0,0,0-1.309-.3Zm8.73-1.367v1.543a5.43,5.43,0,0,1,.8-.791,4.81,4.81,0,0,1,1.1-.674A3.117,3.117,0,0,1-2.93-9.961a3.785,3.785,0,0,1,1.816.439A3.217,3.217,0,0,1,.2-8.193,4.6,4.6,0,0,1,.684-5.957V0h-1.6l-.02-5.8a2.939,2.939,0,0,0-.557-1.934A2.1,2.1,0,0,0-3.2-8.4a2.583,2.583,0,0,0-1.553.576,6.955,6.955,0,0,0-1.36,1.34V0h-1.6V-9.766Zm18.652-4.3V0h-1.6V-1.66A4.833,4.833,0,0,1,9.561-.293,3.464,3.464,0,0,1,7.578.293,4.287,4.287,0,0,1,5.293-.342,4.6,4.6,0,0,1,3.643-2.11a5.4,5.4,0,0,1-.615-2.617A5.934,5.934,0,0,1,3.643-7.52,4.444,4.444,0,0,1,5.332-9.326a4.633,4.633,0,0,1,2.4-.635,4.064,4.064,0,0,1,1.709.4,4.488,4.488,0,0,1,1.494,1.1v-5.605Zm-4.512,5.7a3.062,3.062,0,0,0-1.8.518A3.447,3.447,0,0,0,5.088-6.5a4,4,0,0,0-.4,1.777A3.85,3.85,0,0,0,5.078-3a3.14,3.14,0,0,0,1.1,1.26,2.935,2.935,0,0,0,1.65.469,2.821,2.821,0,0,0,1.6-.469,3.253,3.253,0,0,0,1.113-1.3,3.98,3.98,0,0,0,.4-1.86l-.02-1.875a4.812,4.812,0,0,0-1.3-1.172,3.067,3.067,0,0,0-1.591-.412Zm12.246-1.6a4.96,4.96,0,0,1,2.637.7A5.042,5.042,0,0,1,24.716-7.39a5.161,5.161,0,0,1,.654,2.559,5.106,5.106,0,0,1-.654,2.549A5.064,5.064,0,0,1,22.91-.41a4.96,4.96,0,0,1-2.637.7,4.96,4.96,0,0,1-2.637-.7A5.064,5.064,0,0,1,15.83-2.275a5.106,5.106,0,0,1-.654-2.549,5.161,5.161,0,0,1,.654-2.559,5.042,5.042,0,0,1,1.807-1.875,4.96,4.96,0,0,1,2.636-.7Zm0,1.563a3.3,3.3,0,0,0-1.816.5,3.363,3.363,0,0,0-1.2,1.309,3.785,3.785,0,0,0-.42,1.768,3.744,3.744,0,0,0,.42,1.748,3.363,3.363,0,0,0,1.2,1.309,3.3,3.3,0,0,0,1.816.5,3.293,3.293,0,0,0,1.826-.5,3.388,3.388,0,0,0,1.191-1.309,3.744,3.744,0,0,0,.42-1.748,3.785,3.785,0,0,0-.42-1.768A3.388,3.388,0,0,0,22.1-7.9a3.293,3.293,0,0,0-1.827-.5Zm9.336-1.367v1.953a5.019,5.019,0,0,1,1.367-1.562,2.751,2.751,0,0,1,1.641-.586,2.523,2.523,0,0,1,1.016.2V-7.91a2.43,2.43,0,0,0-1.25-.371,2.039,2.039,0,0,0-1.611.7A9.855,9.855,0,0,0,29.609-5.9V0h-1.6V-9.766ZM-48,11.914V25h-1.758V15.527L-53.8,19.844h-.469l-4.141-4.316V25h-1.758V11.914h.547l5.586,6,5.488-6Zm7.832,3.125a4.064,4.064,0,0,1,1.709.4,4.488,4.488,0,0,1,1.494,1.1v-1.3h1.6V25h-1.6V23.34a4.833,4.833,0,0,1-1.377,1.367,3.464,3.464,0,0,1-1.982.586,4.287,4.287,0,0,1-2.285-.635,4.6,4.6,0,0,1-1.65-1.768,5.4,5.4,0,0,1-.615-2.617,5.934,5.934,0,0,1,.615-2.793,4.444,4.444,0,0,1,1.689-1.807,4.633,4.633,0,0,1,2.4-.634Zm.293,1.563a3.022,3.022,0,0,0-1.8.527,3.5,3.5,0,0,0-1.143,1.357,4.06,4.06,0,0,0-.4,1.787,3.85,3.85,0,0,0,.4,1.727,3.14,3.14,0,0,0,1.1,1.26,2.935,2.935,0,0,0,1.65.469,2.821,2.821,0,0,0,1.6-.469,3.253,3.253,0,0,0,1.113-1.3,3.98,3.98,0,0,0,.391-1.865l-.02-1.875a5.135,5.135,0,0,0-1.3-1.191,2.959,2.959,0,0,0-1.585-.429Zm9.434-1.367v1.543a5.43,5.43,0,0,1,.8-.791,4.811,4.811,0,0,1,1.1-.674,3.117,3.117,0,0,1,1.279-.273,3.785,3.785,0,0,1,1.816.439,3.217,3.217,0,0,1,1.309,1.328,4.6,4.6,0,0,1,.488,2.236V25h-1.6l-.02-5.8a2.939,2.939,0,0,0-.557-1.934,2.1,2.1,0,0,0-1.709-.664,2.583,2.583,0,0,0-1.553.576,6.955,6.955,0,0,0-1.357,1.338V25h-1.6V15.234Zm13.848-.2a4.064,4.064,0,0,1,1.709.4,4.488,4.488,0,0,1,1.494,1.1v-1.3h1.6V25h-1.6V23.34a4.833,4.833,0,0,1-1.377,1.367,3.464,3.464,0,0,1-1.982.586,4.287,4.287,0,0,1-2.285-.635,4.6,4.6,0,0,1-1.65-1.768,5.4,5.4,0,0,1-.615-2.617,5.934,5.934,0,0,1,.615-2.793A4.444,4.444,0,0,1-19,15.673a4.633,4.633,0,0,1,2.4-.634ZM-16.3,16.6a3.022,3.022,0,0,0-1.8.527,3.506,3.506,0,0,0-1.143,1.357,4.06,4.06,0,0,0-.4,1.787A3.85,3.85,0,0,0-19.248,22a3.14,3.14,0,0,0,1.1,1.26,2.935,2.935,0,0,0,1.65.469,2.821,2.821,0,0,0,1.6-.469,3.253,3.253,0,0,0,1.113-1.3,3.98,3.98,0,0,0,.391-1.865l-.02-1.875a5.135,5.135,0,0,0-1.3-1.191A2.959,2.959,0,0,0-16.3,16.6Zm11.855-1.562a4.064,4.064,0,0,1,1.709.4,4.488,4.488,0,0,1,1.494,1.1v-1.3h1.6V24.8a5.464,5.464,0,0,1-.7,2.891A4.414,4.414,0,0,1-2.217,29.41a5.8,5.8,0,0,1-2.559.566,5.023,5.023,0,0,1-1.533-.2,4.3,4.3,0,0,1-1.084-.508q-.449-.3-.82-.576V26.973q.293.215.771.557a5.605,5.605,0,0,0,1.152.615,3.994,3.994,0,0,0,1.514.273,4.325,4.325,0,0,0,1.758-.352,3.063,3.063,0,0,0,1.289-1.035,2.748,2.748,0,0,0,.488-1.641V23.34a4.833,4.833,0,0,1-1.377,1.367,3.464,3.464,0,0,1-1.982.586,4.287,4.287,0,0,1-2.285-.635,4.6,4.6,0,0,1-1.65-1.768,5.4,5.4,0,0,1-.615-2.617,5.934,5.934,0,0,1,.615-2.793,4.444,4.444,0,0,1,1.689-1.807,4.633,4.633,0,0,1,2.4-.634Zm.293,1.582a3.062,3.062,0,0,0-1.8.518A3.43,3.43,0,0,0-7.09,18.486a4.06,4.06,0,0,0-.4,1.787,3.789,3.789,0,0,0,.39,1.719A3.156,3.156,0,0,0-6,23.242a2.935,2.935,0,0,0,1.65.469,2.821,2.821,0,0,0,1.6-.469,3.268,3.268,0,0,0,1.113-1.289,3.922,3.922,0,0,0,.4-1.853l-.02-1.875a4.97,4.97,0,0,0-1.3-1.182,3.012,3.012,0,0,0-1.59-.422ZM7.7,15.039a4.624,4.624,0,0,1,2.5.625,3.9,3.9,0,0,1,1.494,1.7,5.692,5.692,0,0,1,.5,2.422v.957H4.7a3.643,3.643,0,0,0,.566,1.5,3.287,3.287,0,0,0,1.17,1.087,3.368,3.368,0,0,0,1.66.4,3.841,3.841,0,0,0,1.973-.537,7.189,7.189,0,0,0,1.543-1.182l-.02,1.738a3.793,3.793,0,0,1-.811.693,5.416,5.416,0,0,1-1.23.6,4.349,4.349,0,0,1-1.455.244,4.96,4.96,0,0,1-2.637-.7A5.1,5.1,0,0,1,3,20.176a5.491,5.491,0,0,1,.6-2.559,4.9,4.9,0,0,1,1.67-1.875,4.311,4.311,0,0,1,2.435-.7Zm0,1.563a2.647,2.647,0,0,0-1.992.811,3.635,3.635,0,0,0-.977,1.963h5.879a3.161,3.161,0,0,0-.537-1.562A2.834,2.834,0,0,0,9.014,16.9a2.966,2.966,0,0,0-1.309-.3Zm8.73-1.367v1.25a5.5,5.5,0,0,1,1.2-.986,3.187,3.187,0,0,1,1.729-.459,4.073,4.073,0,0,1,1.973.5,3.3,3.3,0,0,1,1.406,1.494,8.366,8.366,0,0,1,1.484-1.406,3.09,3.09,0,0,1,1.875-.586,4.076,4.076,0,0,1,1.865.439,3.442,3.442,0,0,1,1.406,1.328,4.261,4.261,0,0,1,.537,2.236V25h-1.6l-.02-5.8a2.643,2.643,0,0,0-.654-1.934A2.421,2.421,0,0,0,25.83,16.6a2.2,2.2,0,0,0-1.465.527,8.938,8.938,0,0,0-1.191,1.23V25h-1.6l-.02-5.8a2.643,2.643,0,0,0-.654-1.934,2.651,2.651,0,0,0-3.262-.2,6.342,6.342,0,0,0-1.2,1.133V25h-1.6V15.234Zm20.527-.2a4.624,4.624,0,0,1,2.5.625,3.9,3.9,0,0,1,1.494,1.7,5.692,5.692,0,0,1,.5,2.422v.957h-7.5a3.643,3.643,0,0,0,.566,1.5,3.287,3.287,0,0,0,1.172,1.084,3.368,3.368,0,0,0,1.66.4,3.841,3.841,0,0,0,1.973-.537A7.189,7.189,0,0,0,40.87,22l-.02,1.738a3.793,3.793,0,0,1-.811.693,5.416,5.416,0,0,1-1.23.6,4.349,4.349,0,0,1-1.455.244,4.96,4.96,0,0,1-2.637-.7,5.1,5.1,0,0,1-2.461-4.414,5.491,5.491,0,0,1,.6-2.559,4.9,4.9,0,0,1,1.67-1.875,4.311,4.311,0,0,1,2.432-.7Zm0,1.563a2.647,2.647,0,0,0-1.992.811,3.635,3.635,0,0,0-.977,1.963h5.879a3.161,3.161,0,0,0-.537-1.562,2.834,2.834,0,0,0-1.064-.908,2.966,2.966,0,0,0-1.308-.3Zm8.73-1.367v1.543a5.43,5.43,0,0,1,.8-.791,4.81,4.81,0,0,1,1.1-.674,3.117,3.117,0,0,1,1.279-.273,3.785,3.785,0,0,1,1.816.439A3.217,3.217,0,0,1,52,16.807a4.6,4.6,0,0,1,.488,2.236V25h-1.6l-.02-5.8a2.939,2.939,0,0,0-.557-1.934A2.1,2.1,0,0,0,48.6,16.6a2.583,2.583,0,0,0-1.553.576,6.955,6.955,0,0,0-1.357,1.338V25h-1.6V15.234Zm12.52-2.812v2.813h2.852v1.5H58.213v5.723a1.389,1.389,0,0,0,.313.957,1.216,1.216,0,0,0,.957.352,2.806,2.806,0,0,0,.977-.146,4.189,4.189,0,0,0,.684-.322V24.6a3.513,3.513,0,0,1-.83.5,3.1,3.1,0,0,1-1.182.186,2.328,2.328,0,0,1-1.885-.752,3,3,0,0,1-.635-2v-5.8H54.736V16.27a3.736,3.736,0,0,0,1.6-1.416,10.722,10.722,0,0,0,1.133-2.432Z" transform="translate(254 1312)" fill="#fff"/>
    </g>
    <path id="Path_2252" data-name="Path 2252" d="M11.367-13.086v1.66H6.855V-.059H5.1V-11.426H.586v-1.66Zm6.25,3.125a4.064,4.064,0,0,1,1.709.4,4.488,4.488,0,0,1,1.494,1.1v-1.3h1.6V0h-1.6V-1.66A4.833,4.833,0,0,1,19.443-.293a3.464,3.464,0,0,1-1.982.586,4.287,4.287,0,0,1-2.285-.635,4.6,4.6,0,0,1-1.65-1.768,5.4,5.4,0,0,1-.615-2.617,5.934,5.934,0,0,1,.615-2.793,4.444,4.444,0,0,1,1.689-1.807A4.633,4.633,0,0,1,17.617-9.961ZM17.91-8.4a3.022,3.022,0,0,0-1.8.527,3.506,3.506,0,0,0-1.143,1.357,4.06,4.06,0,0,0-.4,1.787A3.85,3.85,0,0,0,14.961-3a3.14,3.14,0,0,0,1.1,1.26,2.935,2.935,0,0,0,1.65.469,2.821,2.821,0,0,0,1.6-.469,3.253,3.253,0,0,0,1.113-1.3,3.98,3.98,0,0,0,.4-1.86L20.8-6.777a5.135,5.135,0,0,0-1.3-1.191A2.959,2.959,0,0,0,17.91-8.4Zm9.434-5.664V0h-1.6V-14.062Zm4.922,0V0h-1.6V-14.062Zm3.867,4.3,3.418,7.188,3.32-7.187h1.914L37.6,4.688H35.742L38.535-.586l-4.316-9.18Z" transform="translate(512 1172)" fill="#fff"/>
    <path id="Path_2250" data-name="Path 2250" d="M-28.91-15.7-36.223.117H-37.84L-45.152-15.7h3.82l4.289,10.38L-32.73-15.7Zm7.242,3.563a5.715,5.715,0,0,1,2.988.75,4.978,4.978,0,0,1,1.922,2.074,6.7,6.7,0,0,1,.668,3.059v1.266h-8.578A3.106,3.106,0,0,0-23.5-3.07a3.637,3.637,0,0,0,2.3.727,5.264,5.264,0,0,0,2.344-.516,8.1,8.1,0,0,0,1.688-1.055l-.023,2.766a6.932,6.932,0,0,1-1.676,1,5.87,5.87,0,0,1-2.449.5,6.5,6.5,0,0,1-3.2-.8,6.156,6.156,0,0,1-2.3-2.18,5.89,5.89,0,0,1-.855-3.164A6.542,6.542,0,0,1-26.9-8.956a6.243,6.243,0,0,1,2.133-2.309,5.573,5.573,0,0,1,3.1-.876Zm-.07,2.6a2.656,2.656,0,0,0-1.852.68,3.523,3.523,0,0,0-1.031,1.828h5.672a2.428,2.428,0,0,0-.937-1.887,3.055,3.055,0,0,0-1.852-.623Zm11.344-2.3v1.688A6.042,6.042,0,0,1-8.93-11.508a3.669,3.669,0,0,1,2.121-.633,4.105,4.105,0,0,1,3.023,1.219,4.966,4.966,0,0,1,1.22,3.656V0H-5.543l-.023-6.867A2.454,2.454,0,0,0-6.14-8.648a2.114,2.114,0,0,0-1.582-.586,2.442,2.442,0,0,0-1.488.516A5.31,5.31,0,0,0-10.4-7.5V0h-2.977V-11.836Zm22.5-5.039V0H9.129V-1.992A4.777,4.777,0,0,1,7.629-.34a3.9,3.9,0,0,1-2.3.691A5.019,5.019,0,0,1,2.7-.375,5.229,5.229,0,0,1,.762-2.484,7.128,7.128,0,0,1,.035-5.836,7.176,7.176,0,0,1,.773-9.211a5.413,5.413,0,0,1,1.992-2.168,5.246,5.246,0,0,1,2.777-.762,4.693,4.693,0,0,1,1.945.445,4.741,4.741,0,0,1,1.641,1.2v-6.375ZM6.152-9.211a2.676,2.676,0,0,0-1.605.48A3.3,3.3,0,0,0,3.5-7.488a3.69,3.69,0,0,0-.375,1.652,3.362,3.362,0,0,0,.809,2.273,2.692,2.692,0,0,0,2.145.938A2.807,2.807,0,0,0,7.57-3.047,3.218,3.218,0,0,0,8.7-4.23a3.663,3.663,0,0,0,.434-1.84V-7.758A5.129,5.129,0,0,0,7.758-8.824a3.408,3.408,0,0,0-1.606-.387Zm15.117-2.93a6.176,6.176,0,0,1,3.164.832,6.563,6.563,0,0,1,2.309,2.25,5.906,5.906,0,0,1,.879,3.176,5.847,5.847,0,0,1-.879,3.164A6.6,6.6,0,0,1,24.434-.48,6.176,6.176,0,0,1,21.27.352,6.2,6.2,0,0,1,18.117-.48a6.468,6.468,0,0,1-2.309-2.238,5.906,5.906,0,0,1-.867-3.164,5.966,5.966,0,0,1,.867-3.176,6.436,6.436,0,0,1,2.309-2.25,6.2,6.2,0,0,1,3.153-.833Zm0,2.883a3.214,3.214,0,0,0-1.57.4,2.979,2.979,0,0,0-1.16,1.148A3.6,3.6,0,0,0,18.1-5.882a3.6,3.6,0,0,0,.434,1.828A2.9,2.9,0,0,0,19.7-2.918a3.291,3.291,0,0,0,1.57.387,3.291,3.291,0,0,0,1.57-.387,2.975,2.975,0,0,0,1.172-1.137,3.522,3.522,0,0,0,.445-1.828,3.522,3.522,0,0,0-.445-1.828A3.06,3.06,0,0,0,22.84-8.859a3.214,3.214,0,0,0-1.57-.4Zm16.617.75a3.158,3.158,0,0,0-1.57-.422,2.341,2.341,0,0,0-1.711.668,6.561,6.561,0,0,0-1.2,1.652V0H30.434V-11.836H33.41v2.227a6.584,6.584,0,0,1,1.441-1.758,2.844,2.844,0,0,1,1.887-.7,3.007,3.007,0,0,1,1.148.211ZM-33.035,16.3a6.39,6.39,0,0,1,2.155.375,6.067,6.067,0,0,1,1.911,1.1,5.41,5.41,0,0,1,1.359,1.746,5.2,5.2,0,0,1,.5,2.332,5.026,5.026,0,0,1-.809,2.824,5.69,5.69,0,0,1-2.145,1.934,6.145,6.145,0,0,1-2.906.7,7.842,7.842,0,0,1-1.9-.211,6.942,6.942,0,0,1-1.406-.492V32h-3.258V16.3Zm-3.234,3.047v4.641a7.18,7.18,0,0,0,1.254.363A7.461,7.461,0,0,0-33.5,24.5a3.128,3.128,0,0,0,2.238-.785,2.477,2.477,0,0,0,.832-1.863,2.115,2.115,0,0,0-.937-1.875,3.843,3.843,0,0,0-2.2-.633Zm16.617.516a4.693,4.693,0,0,1,1.945.445,4.741,4.741,0,0,1,1.641,1.2V20.164h2.977V32h-2.977V30.008a4.777,4.777,0,0,1-1.5,1.652,3.9,3.9,0,0,1-2.3.691,5.019,5.019,0,0,1-2.637-.727,5.229,5.229,0,0,1-1.934-2.109,7.128,7.128,0,0,1-.727-3.352,7.176,7.176,0,0,1,.738-3.375,5.413,5.413,0,0,1,1.992-2.168,5.246,5.246,0,0,1,2.782-.761Zm.609,2.906a2.676,2.676,0,0,0-1.6.48A3.275,3.275,0,0,0-21.691,24.5a3.764,3.764,0,0,0-.375,1.664,3.362,3.362,0,0,0,.809,2.273,2.692,2.692,0,0,0,2.145.938,2.807,2.807,0,0,0,1.488-.422A3.218,3.218,0,0,0-16.5,27.77a3.663,3.663,0,0,0,.434-1.84V24.242a5.346,5.346,0,0,0-1.371-1.078,3.327,3.327,0,0,0-1.606-.4Zm11.484-2.6,3.375,7.547L-.9,20.164H2.5L-6.1,37.625H-9.48l3.563-6.492-5.109-10.969Zm17.391-.3A6.176,6.176,0,0,1,13,20.691a6.563,6.563,0,0,1,2.309,2.25,5.906,5.906,0,0,1,.879,3.176,5.847,5.847,0,0,1-.879,3.164A6.6,6.6,0,0,1,13,31.52a6.176,6.176,0,0,1-3.164.832A6.2,6.2,0,0,1,6.68,31.52a6.468,6.468,0,0,1-2.309-2.238A5.906,5.906,0,0,1,3.5,26.117a5.966,5.966,0,0,1,.867-3.176,6.436,6.436,0,0,1,2.309-2.25,6.2,6.2,0,0,1,3.156-.832Zm0,2.883a3.214,3.214,0,0,0-1.57.4A2.979,2.979,0,0,0,7.1,24.289a4.071,4.071,0,0,0,0,3.656,2.9,2.9,0,0,0,1.16,1.137,3.382,3.382,0,0,0,3.141,0,2.975,2.975,0,0,0,1.172-1.137,3.975,3.975,0,0,0,0-3.656A3.06,3.06,0,0,0,11.4,23.141a3.214,3.214,0,0,0-1.568-.4Zm19.617-2.578v7.055a5.043,5.043,0,0,1-.7,2.707,4.683,4.683,0,0,1-1.91,1.746,6.475,6.475,0,0,1-5.484,0,4.6,4.6,0,0,1-1.9-1.746,5.109,5.109,0,0,1-.691-2.707V20.164h3l.023,6.516a2.936,2.936,0,0,0,.633,2.063,2.42,2.42,0,0,0,3.363,0,2.9,2.9,0,0,0,.645-2.062V20.164Zm7.688-3.445v3.445h3.281v2.484H37.137v5.109a1.963,1.963,0,0,0,.363,1.254,1.308,1.308,0,0,0,1.09.457,3.729,3.729,0,0,0,1.09-.141,3.416,3.416,0,0,0,.855-.4V31.3a3.762,3.762,0,0,1-1.113.75,4.041,4.041,0,0,1-1.676.3,3.46,3.46,0,0,1-2.59-1.02,3.836,3.836,0,0,1-1-2.8V22.648H32.027V21.125a4.941,4.941,0,0,0,2.074-1.5,8.085,8.085,0,0,0,1.512-2.906Zm-91.922,31.2a9.069,9.069,0,0,1,4.359,1.008,7.278,7.278,0,0,1,2.918,2.813,8.33,8.33,0,0,1,1.043,4.242,8.956,8.956,0,0,1-.984,4.207,7.45,7.45,0,0,1-2.812,2.988,8.289,8.289,0,0,1-4.359,1.1,31.7,31.7,0,0,1-3.227-.164q-1.6-.163-3.031-.445V48.531q1.453-.234,2.977-.422a25.5,25.5,0,0,1,3.116-.187Zm.07,3.047q-.7,0-1.477.07t-1.43.188v9.75a12.262,12.262,0,0,0,1.465.2q.762.059,1.441.059a5.013,5.013,0,0,0,2.648-.668,4.415,4.415,0,0,0,1.688-1.84,5.788,5.788,0,0,0,.586-2.625,5.749,5.749,0,0,0-.586-2.648,4.449,4.449,0,0,0-1.687-1.816,5.013,5.013,0,0,0-2.648-.677Zm15.82.891a4.693,4.693,0,0,1,1.945.445,4.741,4.741,0,0,1,1.641,1.2V52.164h2.977V64h-2.977V62.008a4.777,4.777,0,0,1-1.5,1.652,3.9,3.9,0,0,1-2.3.691,5.019,5.019,0,0,1-2.637-.727,5.229,5.229,0,0,1-1.934-2.109,7.128,7.128,0,0,1-.727-3.352,7.176,7.176,0,0,1,.738-3.375,5.413,5.413,0,0,1,1.992-2.168,5.246,5.246,0,0,1,2.782-.761Zm.609,2.906a2.676,2.676,0,0,0-1.6.48A3.275,3.275,0,0,0-40.934,56.5a3.764,3.764,0,0,0-.375,1.664,3.362,3.362,0,0,0,.809,2.273,2.692,2.692,0,0,0,2.145.938,2.807,2.807,0,0,0,1.488-.422,3.218,3.218,0,0,0,1.125-1.184,3.663,3.663,0,0,0,.434-1.84V56.242a5.346,5.346,0,0,0-1.371-1.078,3.327,3.327,0,0,0-1.606-.4Zm13.43-2.906a6.133,6.133,0,0,1,2.039.328,4.816,4.816,0,0,1,1.453.75V55.57a8.834,8.834,0,0,0-1.371-.727,4.161,4.161,0,0,0-1.676-.352,2.153,2.153,0,0,0-1.336.375,1.1,1.1,0,0,0-.492.891,1.02,1.02,0,0,0,.281.691A2.351,2.351,0,0,0-24.88,57l1.336.445q2.7.8,2.7,3.117a3.246,3.246,0,0,1-.621,1.957,4.251,4.251,0,0,1-1.664,1.348,5.341,5.341,0,0,1-2.309.492,7.29,7.29,0,0,1-2.32-.375,6.023,6.023,0,0,1-1.711-.82v-2.6a6.823,6.823,0,0,0,1.078.586,8.411,8.411,0,0,0,1.313.457,5,5,0,0,0,1.242.176,2.489,2.489,0,0,0,1.371-.316,1.018,1.018,0,0,0,.48-.9.8.8,0,0,0-.4-.7,5.349,5.349,0,0,0-1.172-.516l-1.453-.516a3.33,3.33,0,0,1-1.875-1.266,3.579,3.579,0,0,1-.516-1.945,3.36,3.36,0,0,1,.574-1.957,3.9,3.9,0,0,1,1.6-1.312,5.546,5.546,0,0,1,2.367-.495Zm13.1,0A4.105,4.105,0,0,1-8.73,53.078a4.966,4.966,0,0,1,1.219,3.656V64h-2.977l-.023-6.867a2.454,2.454,0,0,0-.574-1.781,2.114,2.114,0,0,0-1.582-.586,2.442,2.442,0,0,0-1.488.516A5.31,5.31,0,0,0-15.34,56.5V64h-2.977V47.125h2.977v6.727a6.042,6.042,0,0,1,1.465-1.359,3.669,3.669,0,0,1,2.121-.634Zm14.227,0a5.246,5.246,0,0,1,2.777.762A5.413,5.413,0,0,1,7.24,54.8a7.176,7.176,0,0,1,.738,3.375,7.034,7.034,0,0,1-.738,3.352,5.309,5.309,0,0,1-1.94,2.1,4.977,4.977,0,0,1-2.613.727,3.9,3.9,0,0,1-2.3-.691,4.777,4.777,0,0,1-1.5-1.652V64H-4.09V47.125h2.977V53.5A4.768,4.768,0,0,1,.516,52.3a4.663,4.663,0,0,1,1.957-.441ZM1.862,54.8a3.408,3.408,0,0,0-1.6.387A5.129,5.129,0,0,0-1.114,56.25v1.68A3.5,3.5,0,0,0-.7,59.77,3.1,3.1,0,0,0,.434,60.941a2.929,2.929,0,0,0,1.5.41,2.707,2.707,0,0,0,2.145-.926,3.318,3.318,0,0,0,.809-2.262,3.69,3.69,0,0,0-.375-1.652A3.256,3.256,0,0,0,3.457,55.27a2.69,2.69,0,0,0-1.594-.481Zm14.461-2.93a6.176,6.176,0,0,1,3.164.832,6.563,6.563,0,0,1,2.309,2.25,5.906,5.906,0,0,1,.879,3.176,5.847,5.847,0,0,1-.879,3.164,6.6,6.6,0,0,1-2.309,2.238,6.4,6.4,0,0,1-8.625-2.238A5.906,5.906,0,0,1,10,58.117a5.966,5.966,0,0,1,.867-3.176,6.436,6.436,0,0,1,2.309-2.25,6.2,6.2,0,0,1,3.148-.832Zm0,2.883a3.214,3.214,0,0,0-1.57.4,2.979,2.979,0,0,0-1.16,1.148,4.071,4.071,0,0,0,0,3.656,2.9,2.9,0,0,0,1.16,1.137,3.382,3.382,0,0,0,3.141,0,2.975,2.975,0,0,0,1.172-1.137,3.975,3.975,0,0,0,0-3.656,3.06,3.06,0,0,0-1.172-1.148,3.214,3.214,0,0,0-1.57-.408Zm13.852-2.883a4.693,4.693,0,0,1,1.945.445,4.741,4.741,0,0,1,1.641,1.2V52.164h2.977V64H33.762V62.008a4.777,4.777,0,0,1-1.5,1.652,3.9,3.9,0,0,1-2.3.691,5.019,5.019,0,0,1-2.637-.727,5.229,5.229,0,0,1-1.934-2.109,8.088,8.088,0,0,1,.012-6.727,5.413,5.413,0,0,1,2-2.167,5.246,5.246,0,0,1,2.776-.762Zm.609,2.906a2.676,2.676,0,0,0-1.6.48A3.275,3.275,0,0,0,28.137,56.5a3.764,3.764,0,0,0-.375,1.664,3.362,3.362,0,0,0,.809,2.273,2.692,2.692,0,0,0,2.145.938,2.807,2.807,0,0,0,1.488-.422,3.218,3.218,0,0,0,1.125-1.184,3.663,3.663,0,0,0,.434-1.84V56.242a5.346,5.346,0,0,0-1.371-1.078,3.327,3.327,0,0,0-1.607-.4Zm17.063.727a3.158,3.158,0,0,0-1.57-.422,2.341,2.341,0,0,0-1.711.668,6.561,6.561,0,0,0-1.2,1.652V64H40.4V52.164h2.977v2.227a6.584,6.584,0,0,1,1.441-1.758,2.844,2.844,0,0,1,1.887-.7,3.007,3.007,0,0,1,1.148.211Zm13.547-8.367V64H58.418V62.008a4.777,4.777,0,0,1-1.5,1.652,3.9,3.9,0,0,1-2.3.691,5.019,5.019,0,0,1-2.637-.727,5.229,5.229,0,0,1-1.934-2.109,8.088,8.088,0,0,1,.012-6.727,5.413,5.413,0,0,1,1.992-2.168,5.246,5.246,0,0,1,2.777-.762,4.693,4.693,0,0,1,1.945.445,4.741,4.741,0,0,1,1.641,1.2V47.125ZM55.441,54.8a2.676,2.676,0,0,0-1.6.48,3.3,3.3,0,0,0-1.043,1.242,3.69,3.69,0,0,0-.375,1.652,3.362,3.362,0,0,0,.809,2.273,2.692,2.692,0,0,0,2.145.938,2.807,2.807,0,0,0,1.488-.422,3.218,3.218,0,0,0,1.125-1.184,3.663,3.663,0,0,0,.434-1.84V56.242a5.129,5.129,0,0,0-1.371-1.066,3.408,3.408,0,0,0-1.607-.387Z" transform="translate(534 1360)" fill="#fff"/>
    <g id="Group_2241" data-name="Group 2241" transform="translate(0 -31)">
      <rect id="Rectangle_2896" data-name="Rectangle 2896" width="240" height="89" rx="10" transform="translate(134 1435)" fill="#17243f"/>
      <path id="Path_2249" data-name="Path 2249" d="M-61.709-13.086V0h-1.758V-9.473L-67.51-5.156h-.469L-72.12-9.472V0h-1.758V-13.086h.547l5.586,6,5.488-6Zm7.832,3.125a4.064,4.064,0,0,1,1.709.4,4.488,4.488,0,0,1,1.494,1.1v-1.3h1.6V0h-1.6V-1.66A4.833,4.833,0,0,1-52.051-.293a3.464,3.464,0,0,1-1.982.586,4.287,4.287,0,0,1-2.285-.635,4.6,4.6,0,0,1-1.65-1.768,5.4,5.4,0,0,1-.615-2.617,5.934,5.934,0,0,1,.615-2.793,4.444,4.444,0,0,1,1.689-1.807A4.633,4.633,0,0,1-53.877-9.961Zm.293,1.563a3.022,3.022,0,0,0-1.8.527,3.505,3.505,0,0,0-1.143,1.357,4.06,4.06,0,0,0-.4,1.787A3.85,3.85,0,0,0-56.533-3a3.14,3.14,0,0,0,1.1,1.26,2.935,2.935,0,0,0,1.65.469,2.821,2.821,0,0,0,1.6-.469,3.253,3.253,0,0,0,1.113-1.3,3.98,3.98,0,0,0,.4-1.86l-.02-1.875a5.135,5.135,0,0,0-1.3-1.191,2.959,2.959,0,0,0-1.59-.434Zm16.465-1.367L-41.65-5.508-36.865,0H-38.9l-3.867-4.453L-44.15-3.164V0h-1.6V-14.062h1.6V-5l4.863-4.766Zm5.449-.2a4.624,4.624,0,0,1,2.5.625,3.9,3.9,0,0,1,1.494,1.7,5.692,5.692,0,0,1,.5,2.422v.957h-7.5a3.643,3.643,0,0,0,.566,1.5A3.287,3.287,0,0,0-32.939-1.67a3.368,3.368,0,0,0,1.66.4,3.841,3.841,0,0,0,1.973-.537,7.189,7.189,0,0,0,1.543-1.182l-.02,1.738a3.793,3.793,0,0,1-.811.693,5.416,5.416,0,0,1-1.23.605,4.349,4.349,0,0,1-1.455.244,4.96,4.96,0,0,1-2.637-.7,5.064,5.064,0,0,1-1.807-1.865,5.106,5.106,0,0,1-.654-2.549,5.491,5.491,0,0,1,.6-2.559A4.9,4.9,0,0,1-34.1-9.258a4.311,4.311,0,0,1,2.43-.7Zm0,1.563a2.647,2.647,0,0,0-1.992.811,3.635,3.635,0,0,0-.977,1.963h5.879a3.161,3.161,0,0,0-.54-1.559A2.834,2.834,0,0,0-30.361-8.1a2.966,2.966,0,0,0-1.309-.3Zm8.73-1.367v1.953a5.019,5.019,0,0,1,1.367-1.562,2.751,2.751,0,0,1,1.641-.586,2.523,2.523,0,0,1,1.016.2V-7.91a2.43,2.43,0,0,0-1.25-.371,2.039,2.039,0,0,0-1.611.7A9.855,9.855,0,0,0-22.939-5.9V0h-1.6V-9.766ZM-5.615-5.82v1.758h-5.879V-5.82Zm14.9-7.559a5.956,5.956,0,0,1,2.334.391,5.637,5.637,0,0,1,1.592,1.016v1.934q-.43-.312-.967-.684A6.254,6.254,0,0,0,11-11.377a4.627,4.627,0,0,0-1.709-.283A5.146,5.146,0,0,0,6.67-11,4.843,4.843,0,0,0,4.854-9.17,5.2,5.2,0,0,0,4.19-6.543a5.146,5.146,0,0,0,.664,2.617A4.938,4.938,0,0,0,6.67-2.1a5.088,5.088,0,0,0,2.617.674,6.024,6.024,0,0,0,2.568-.5A9.392,9.392,0,0,0,13.6-2.949v1.758A6.049,6.049,0,0,1,11.816-.146,6.8,6.8,0,0,1,9.287.293,6.853,6.853,0,0,1,6.553-.244,6.931,6.931,0,0,1,4.365-1.719,6.694,6.694,0,0,1,2.91-3.9a6.8,6.8,0,0,1-.518-2.646A6.8,6.8,0,0,1,2.91-9.189a6.694,6.694,0,0,1,1.455-2.178,6.931,6.931,0,0,1,2.188-1.475,6.853,6.853,0,0,1,2.734-.537Zm11.74,3.418a3.785,3.785,0,0,1,1.816.439A3.217,3.217,0,0,1,24.15-8.193a4.6,4.6,0,0,1,.488,2.236V0h-1.6l-.02-5.8a2.939,2.939,0,0,0-.557-1.934A2.1,2.1,0,0,0,20.752-8.4a2.583,2.583,0,0,0-1.553.576,6.955,6.955,0,0,0-1.357,1.338V0h-1.6V-14.062h1.6v5.84a5.43,5.43,0,0,1,.8-.791,4.811,4.811,0,0,1,1.1-.674A3.117,3.117,0,0,1,21.025-9.961Zm10.664,0a4.624,4.624,0,0,1,2.5.625,3.9,3.9,0,0,1,1.494,1.7,5.692,5.692,0,0,1,.5,2.422v.957h-7.5a3.643,3.643,0,0,0,.566,1.5A3.287,3.287,0,0,0,30.42-1.67a3.368,3.368,0,0,0,1.66.4,3.841,3.841,0,0,0,1.973-.537A7.189,7.189,0,0,0,35.6-2.988L35.58-1.25a3.793,3.793,0,0,1-.811.693,5.416,5.416,0,0,1-1.23.6A4.349,4.349,0,0,1,32.08.293a4.96,4.96,0,0,1-2.637-.7,5.064,5.064,0,0,1-1.807-1.865,5.106,5.106,0,0,1-.654-2.549,5.491,5.491,0,0,1,.6-2.559,4.9,4.9,0,0,1,1.67-1.875,4.311,4.311,0,0,1,2.432-.706Zm0,1.563a2.647,2.647,0,0,0-1.992.811,3.635,3.635,0,0,0-.977,1.963H34.6a3.161,3.161,0,0,0-.537-1.562A2.834,2.834,0,0,0,33-8.1a2.966,2.966,0,0,0-1.311-.3ZM43.232-9.961a4.605,4.605,0,0,1,1.855.342A4.061,4.061,0,0,1,46.162-9v1.621a6.081,6.081,0,0,0-1.25-.713,4.231,4.231,0,0,0-1.68-.3,3.3,3.3,0,0,0-1.816.5,3.364,3.364,0,0,0-1.2,1.309,3.785,3.785,0,0,0-.42,1.768,3.744,3.744,0,0,0,.42,1.748,3.364,3.364,0,0,0,1.2,1.309,3.305,3.305,0,0,0,1.816.5,4.231,4.231,0,0,0,1.68-.3,6.081,6.081,0,0,0,1.25-.713V-.664a3.56,3.56,0,0,1-1.074.625,4.724,4.724,0,0,1-1.855.332A4.96,4.96,0,0,1,40.6-.41a5.064,5.064,0,0,1-1.807-1.865,5.106,5.106,0,0,1-.654-2.549,5.161,5.161,0,0,1,.654-2.559A5.042,5.042,0,0,1,40.6-9.258,4.96,4.96,0,0,1,43.232-9.961Zm14.2.2L52.9-5.508,57.686,0H55.654L51.787-4.453,50.4-3.164V0H48.8V-14.062h1.6V-5l4.863-4.766Zm5.449-.2a4.624,4.624,0,0,1,2.5.625,3.9,3.9,0,0,1,1.494,1.7,5.692,5.692,0,0,1,.5,2.422v.957h-7.5a3.643,3.643,0,0,0,.566,1.5,3.287,3.287,0,0,0,1.17,1.087,3.368,3.368,0,0,0,1.66.4,3.841,3.841,0,0,0,1.973-.537,7.189,7.189,0,0,0,1.543-1.182l-.02,1.738a3.793,3.793,0,0,1-.811.693,5.416,5.416,0,0,1-1.23.6,4.349,4.349,0,0,1-1.455.244,4.96,4.96,0,0,1-2.637-.7,5.064,5.064,0,0,1-1.807-1.865,5.106,5.106,0,0,1-.654-2.549,5.491,5.491,0,0,1,.605-2.559,4.9,4.9,0,0,1,1.67-1.875,4.311,4.311,0,0,1,2.433-.7Zm0,1.563a2.647,2.647,0,0,0-1.992.811,3.635,3.635,0,0,0-.977,1.963h5.879a3.161,3.161,0,0,0-.537-1.562A2.834,2.834,0,0,0,64.189-8.1a2.966,2.966,0,0,0-1.308-.3Zm8.73-1.367v1.953a5.019,5.019,0,0,1,1.367-1.562,2.751,2.751,0,0,1,1.641-.586,2.523,2.523,0,0,1,1.016.2v1.85a2.43,2.43,0,0,0-1.25-.371,2.039,2.039,0,0,0-1.611.7A9.855,9.855,0,0,0,71.611-5.9V0h-1.6V-9.766ZM-66.553,11.914-60.439,25h-2.109l-1.367-3.125h-6.133L-71.436,25h-2.109l6.113-13.086Zm-.41,2.969-2.363,5.332h4.688Zm16.367.352v5.781a4.342,4.342,0,0,1-.547,2.227,3.77,3.77,0,0,1-1.484,1.445,4.357,4.357,0,0,1-2.109.508,4.357,4.357,0,0,1-2.109-.508,3.77,3.77,0,0,1-1.484-1.445,4.342,4.342,0,0,1-.547-2.227V15.234h1.66v5.781a2.474,2.474,0,0,0,.752,1.943,2.514,2.514,0,0,0,1.729.674,2.514,2.514,0,0,0,1.729-.674,2.474,2.474,0,0,0,.752-1.943V15.234Zm5.723-2.812v2.813h2.852v1.5h-2.852v5.723a1.389,1.389,0,0,0,.313.957,1.216,1.216,0,0,0,.957.352,2.806,2.806,0,0,0,.977-.146,4.189,4.189,0,0,0,.684-.322v1.309a3.513,3.513,0,0,1-.83.5,3.1,3.1,0,0,1-1.182.186,2.328,2.328,0,0,1-1.885-.752,3,3,0,0,1-.635-2v-5.8H-48.35V16.27a3.736,3.736,0,0,0,1.6-1.416,10.722,10.722,0,0,0,1.133-2.432Zm10.547,2.617a3.785,3.785,0,0,1,1.816.439,3.217,3.217,0,0,1,1.31,1.328,4.6,4.6,0,0,1,.488,2.236V25h-1.6l-.02-5.8a2.939,2.939,0,0,0-.557-1.934A2.1,2.1,0,0,0-34.6,16.6a2.583,2.583,0,0,0-1.553.576,6.955,6.955,0,0,0-1.357,1.338V25h-1.6V10.938h1.6v5.84a5.43,5.43,0,0,1,.8-.791,4.81,4.81,0,0,1,1.1-.674,3.117,3.117,0,0,1,1.284-.274Zm10.664,0a4.624,4.624,0,0,1,2.5.625,3.9,3.9,0,0,1,1.494,1.7,5.692,5.692,0,0,1,.5,2.422v.957h-7.5a3.643,3.643,0,0,0,.566,1.5,3.287,3.287,0,0,0,1.172,1.084,3.368,3.368,0,0,0,1.66.4,3.841,3.841,0,0,0,1.973-.537,7.189,7.189,0,0,0,1.543-1.182l-.02,1.738a3.793,3.793,0,0,1-.811.693,5.416,5.416,0,0,1-1.23.6,4.349,4.349,0,0,1-1.455.244,4.96,4.96,0,0,1-2.637-.7,5.064,5.064,0,0,1-1.807-1.865,5.106,5.106,0,0,1-.654-2.549,5.491,5.491,0,0,1,.6-2.559,4.9,4.9,0,0,1,1.67-1.875,4.311,4.311,0,0,1,2.431-.7Zm0,1.563a2.647,2.647,0,0,0-1.992.811,3.635,3.635,0,0,0-.977,1.963h5.879a3.161,3.161,0,0,0-.537-1.562,2.834,2.834,0,0,0-1.064-.908,2.966,2.966,0,0,0-1.309-.307Zm8.73-1.367v1.543a5.43,5.43,0,0,1,.8-.791,4.81,4.81,0,0,1,1.1-.674,3.117,3.117,0,0,1,1.279-.273,3.785,3.785,0,0,1,1.816.439,3.217,3.217,0,0,1,1.309,1.328,4.6,4.6,0,0,1,.488,2.236V25h-1.6l-.02-5.8a2.939,2.939,0,0,0-.557-1.934,2.1,2.1,0,0,0-1.709-.664,2.583,2.583,0,0,0-1.553.576,6.955,6.955,0,0,0-1.357,1.338V25h-1.6V15.234Zm12.52-2.812v2.813H.439v1.5H-2.412V22.46a1.389,1.389,0,0,0,.313.957,1.216,1.216,0,0,0,.957.352,2.806,2.806,0,0,0,.977-.146A4.189,4.189,0,0,0,.518,23.3v1.309a3.513,3.513,0,0,1-.83.5,3.1,3.1,0,0,1-1.182.186,2.328,2.328,0,0,1-1.885-.752,3,3,0,0,1-.635-2v-5.8H-5.889V16.27a3.736,3.736,0,0,0,1.6-1.416,10.722,10.722,0,0,0,1.133-2.432Zm7.324-1.875a1.254,1.254,0,0,1,.947.4,1.308,1.308,0,0,1,0,1.846,1.24,1.24,0,0,1-.947.41,1.24,1.24,0,0,1-.947-.41,1.308,1.308,0,0,1,0-1.846,1.254,1.254,0,0,1,.947-.4Zm1,4.688V25h-1.6V16.738H2.764v-1.5Zm7.871-.2a4.605,4.605,0,0,1,1.855.342A4.061,4.061,0,0,1,16.709,16v1.621a6.081,6.081,0,0,0-1.25-.713,4.231,4.231,0,0,0-1.68-.3,3.3,3.3,0,0,0-1.816.5,3.363,3.363,0,0,0-1.2,1.309,3.785,3.785,0,0,0-.42,1.768,3.744,3.744,0,0,0,.42,1.748,3.363,3.363,0,0,0,1.2,1.309,3.3,3.3,0,0,0,1.816.5,4.231,4.231,0,0,0,1.68-.3,6.081,6.081,0,0,0,1.25-.713V24.35a3.559,3.559,0,0,1-1.074.625,4.724,4.724,0,0,1-1.855.332,4.96,4.96,0,0,1-2.637-.7,5.1,5.1,0,0,1-2.461-4.414,5.161,5.161,0,0,1,.654-2.559,5.042,5.042,0,0,1,1.807-1.875,4.96,4.96,0,0,1,2.636-.72Zm9.59,0a4.064,4.064,0,0,1,1.709.4,4.488,4.488,0,0,1,1.494,1.1v-1.3h1.6V25h-1.6V23.34A4.833,4.833,0,0,1,25.2,24.707a3.464,3.464,0,0,1-1.982.586,4.287,4.287,0,0,1-2.285-.635,4.6,4.6,0,0,1-1.65-1.768,5.4,5.4,0,0,1-.615-2.617,5.934,5.934,0,0,1,.615-2.793,4.444,4.444,0,0,1,1.689-1.807,4.633,4.633,0,0,1,2.4-.634Zm.293,1.563a3.022,3.022,0,0,0-1.8.527,3.506,3.506,0,0,0-1.143,1.357,4.06,4.06,0,0,0-.4,1.787A3.85,3.85,0,0,0,20.713,22a3.14,3.14,0,0,0,1.1,1.26,2.935,2.935,0,0,0,1.65.469,2.821,2.821,0,0,0,1.6-.469,3.253,3.253,0,0,0,1.113-1.3,3.98,3.98,0,0,0,.391-1.865l-.02-1.875a5.135,5.135,0,0,0-1.3-1.191,2.959,2.959,0,0,0-1.585-.429Zm10.527-4.18v2.813h2.852v1.5H34.189v5.723a1.389,1.389,0,0,0,.313.957,1.216,1.216,0,0,0,.957.352,2.806,2.806,0,0,0,.977-.146,4.189,4.189,0,0,0,.684-.322v1.309a3.513,3.513,0,0,1-.83.5,3.1,3.1,0,0,1-1.182.186,2.328,2.328,0,0,1-1.885-.752,3,3,0,0,1-.635-2v-5.8H30.713v-.47a3.736,3.736,0,0,0,1.6-1.416,10.722,10.722,0,0,0,1.133-2.432Zm7.324-1.875a1.254,1.254,0,0,1,.947.4,1.323,1.323,0,1,1-1.9,0,1.254,1.254,0,0,1,.945-.4Zm1,4.688V25h-1.6V16.738H39.365v-1.5Zm7.871-.2a4.96,4.96,0,0,1,2.637.7,5.042,5.042,0,0,1,1.807,1.875,5.161,5.161,0,0,1,.654,2.559,5.1,5.1,0,0,1-2.461,4.414,5.3,5.3,0,0,1-5.273,0,5.1,5.1,0,0,1-2.461-4.414,5.161,5.161,0,0,1,.654-2.559,5.042,5.042,0,0,1,1.807-1.875,4.96,4.96,0,0,1,2.629-.694Zm0,1.563a3.305,3.305,0,0,0-1.816.5,3.363,3.363,0,0,0-1.2,1.309,3.785,3.785,0,0,0-.42,1.768,3.744,3.744,0,0,0,.42,1.748,3.363,3.363,0,0,0,1.2,1.309,3.579,3.579,0,0,0,3.643,0A3.388,3.388,0,0,0,53.4,21.924a3.744,3.744,0,0,0,.42-1.748,3.785,3.785,0,0,0-.42-1.768A3.388,3.388,0,0,0,52.207,17.1a3.293,3.293,0,0,0-1.826-.5Zm9.336-1.367v1.543a5.43,5.43,0,0,1,.8-.791,4.81,4.81,0,0,1,1.1-.674,3.117,3.117,0,0,1,1.279-.273,3.785,3.785,0,0,1,1.816.439A3.217,3.217,0,0,1,66.028,16.8a4.6,4.6,0,0,1,.488,2.236V25h-1.6l-.02-5.8a2.939,2.939,0,0,0-.557-1.934A2.1,2.1,0,0,0,62.63,16.6a2.583,2.583,0,0,0-1.553.576,6.955,6.955,0,0,0-1.357,1.338V25h-1.6V15.234Z" transform="translate(254 1474)" fill="#fff"/>
    </g>
    <g id="Group_2242" data-name="Group 2242" transform="translate(-78)">
      <rect id="Rectangle_2897" data-name="Rectangle 2897" width="240" height="89" rx="10" transform="translate(753 1339)" fill="#17243f"/>
      <path id="Path_2253" data-name="Path 2253" d="M-69.531-13.086a4.787,4.787,0,0,1,2.168.518,4.519,4.519,0,0,1,1.709,1.484A3.945,3.945,0,0,1-64.98-8.77a3.788,3.788,0,0,1-.645,2.129,4.756,4.756,0,0,1-1.748,1.572,5.076,5.076,0,0,1-2.451.6,7.611,7.611,0,0,1-1.826-.2,7.653,7.653,0,0,1-1.338-.439V0h-1.758V-13.086Zm-3.457,1.66v4.707a8.623,8.623,0,0,0,1.377.4,8.078,8.078,0,0,0,1.729.186A3.2,3.2,0,0,0-67.588-6.9a2.481,2.481,0,0,0,.811-1.865,2.241,2.241,0,0,0-.459-1.426,3.021,3.021,0,0,0-1.2-.908,3.929,3.929,0,0,0-1.582-.322ZM-58.32-9.961a4.064,4.064,0,0,1,1.709.4,4.488,4.488,0,0,1,1.494,1.1v-1.3h1.6V0h-1.6V-1.66A4.833,4.833,0,0,1-56.494-.293a3.464,3.464,0,0,1-1.982.586,4.287,4.287,0,0,1-2.285-.635,4.6,4.6,0,0,1-1.65-1.768,5.4,5.4,0,0,1-.615-2.617,5.934,5.934,0,0,1,.615-2.793,4.444,4.444,0,0,1,1.689-1.807A4.633,4.633,0,0,1-58.32-9.961Zm.293,1.563a3.022,3.022,0,0,0-1.8.527A3.5,3.5,0,0,0-60.97-6.514a4.06,4.06,0,0,0-.4,1.787A3.85,3.85,0,0,0-60.977-3a3.14,3.14,0,0,0,1.1,1.26,2.935,2.935,0,0,0,1.65.469,2.821,2.821,0,0,0,1.6-.469,3.253,3.253,0,0,0,1.113-1.3,3.98,3.98,0,0,0,.4-1.86l-.02-1.875a5.135,5.135,0,0,0-1.3-1.191,2.959,2.959,0,0,0-1.59-.434Zm8.379-1.367,3.418,7.188,3.32-7.187H-41L-48.184,4.688h-1.855l2.793-5.273-4.316-9.18Zm15.02-.2a4.96,4.96,0,0,1,2.637.7A5.042,5.042,0,0,1-30.184-7.39a5.161,5.161,0,0,1,.654,2.559,5.106,5.106,0,0,1-.654,2.549A5.064,5.064,0,0,1-31.992-.41a4.96,4.96,0,0,1-2.637.7,4.96,4.96,0,0,1-2.637-.7,5.064,5.064,0,0,1-1.807-1.865,5.106,5.106,0,0,1-.654-2.549,5.161,5.161,0,0,1,.654-2.559,5.042,5.042,0,0,1,1.807-1.875,4.96,4.96,0,0,1,2.637-.7Zm0,1.563a3.3,3.3,0,0,0-1.816.5,3.364,3.364,0,0,0-1.2,1.309,3.785,3.785,0,0,0-.42,1.768,3.744,3.744,0,0,0,.42,1.748,3.364,3.364,0,0,0,1.2,1.309,3.3,3.3,0,0,0,1.816.5,3.293,3.293,0,0,0,1.826-.5,3.388,3.388,0,0,0,1.191-1.309,3.744,3.744,0,0,0,.42-1.748,3.785,3.785,0,0,0-.42-1.768A3.388,3.388,0,0,0-32.8-7.9a3.293,3.293,0,0,0-1.829-.5Zm15.723-1.367v5.781a4.342,4.342,0,0,1-.547,2.227A3.77,3.77,0,0,1-20.937-.312,4.357,4.357,0,0,1-23.047.2a4.357,4.357,0,0,1-2.109-.508A3.77,3.77,0,0,1-26.64-1.753a4.342,4.342,0,0,1-.547-2.227V-9.766h1.66v5.781a2.474,2.474,0,0,0,.752,1.943,2.514,2.514,0,0,0,1.729.674,2.514,2.514,0,0,0,1.729-.674,2.474,2.474,0,0,0,.752-1.943V-9.766Zm5.723-2.812v2.813h2.852v1.5h-2.852v5.723a1.389,1.389,0,0,0,.313.957,1.216,1.216,0,0,0,.957.352,2.806,2.806,0,0,0,.977-.146,4.189,4.189,0,0,0,.684-.322V-.391a3.513,3.513,0,0,1-.83.5A3.1,3.1,0,0,1-12.263.3,2.328,2.328,0,0,1-14.15-.459a3,3,0,0,1-.635-2v-5.8H-16.66V-8.73a3.736,3.736,0,0,0,1.6-1.416,10.722,10.722,0,0,0,1.133-2.432ZM5.1-1.66V0H-1.074V-1.66H1.133v-9.766H-1.074v-1.66H5.1v1.66H2.891V-1.66Zm5.41-8.1v1.543a5.43,5.43,0,0,1,.8-.791,4.81,4.81,0,0,1,1.1-.674,3.117,3.117,0,0,1,1.279-.273,3.785,3.785,0,0,1,1.816.439,3.217,3.217,0,0,1,1.309,1.328A4.6,4.6,0,0,1,17.3-5.957V0H15.7l-.02-5.8a2.939,2.939,0,0,0-.557-1.934,2.1,2.1,0,0,0-1.7-.666,2.583,2.583,0,0,0-1.553.576,6.955,6.955,0,0,0-1.357,1.338V0h-1.6V-9.766Zm18.438,0L24.355,0h-1l-4.39-9.766h1.914l2.949,7.188,3.2-7.187Zm6.367-.2a4.96,4.96,0,0,1,2.637.7A5.042,5.042,0,0,1,39.759-7.39a5.161,5.161,0,0,1,.654,2.559,5.106,5.106,0,0,1-.654,2.549A5.064,5.064,0,0,1,37.949-.41a4.96,4.96,0,0,1-2.637.7,4.96,4.96,0,0,1-2.637-.7,5.064,5.064,0,0,1-1.807-1.865,5.106,5.106,0,0,1-.654-2.549,5.161,5.161,0,0,1,.654-2.559,5.042,5.042,0,0,1,1.807-1.875,4.96,4.96,0,0,1,2.638-.7Zm0,1.563a3.3,3.3,0,0,0-1.816.5,3.364,3.364,0,0,0-1.2,1.309,3.785,3.785,0,0,0-.42,1.768,3.744,3.744,0,0,0,.42,1.748,3.364,3.364,0,0,0,1.2,1.309,3.305,3.305,0,0,0,1.816.5,3.293,3.293,0,0,0,1.826-.5A3.388,3.388,0,0,0,38.33-3.076a3.744,3.744,0,0,0,.42-1.748,3.785,3.785,0,0,0-.42-1.768A3.388,3.388,0,0,0,37.139-7.9a3.293,3.293,0,0,0-1.826-.5Zm9.3-6.055a1.254,1.254,0,0,1,.947.4,1.305,1.305,0,0,1,.381.928,1.317,1.317,0,0,1-.381.918,1.24,1.24,0,0,1-.947.41,1.24,1.24,0,0,1-.947-.41,1.317,1.317,0,0,1-.381-.918,1.305,1.305,0,0,1,.381-.928,1.254,1.254,0,0,1,.941-.4Zm1,4.688V0H44V-8.262H42.461v-1.5Zm7.871-.2a4.6,4.6,0,0,1,1.855.342A4.061,4.061,0,0,1,56.406-9v1.621a6.081,6.081,0,0,0-1.25-.713,4.231,4.231,0,0,0-1.68-.3,3.3,3.3,0,0,0-1.816.5,3.364,3.364,0,0,0-1.2,1.309,3.785,3.785,0,0,0-.42,1.768,3.744,3.744,0,0,0,.42,1.748,3.364,3.364,0,0,0,1.2,1.309,3.3,3.3,0,0,0,1.816.5,4.231,4.231,0,0,0,1.68-.3,6.081,6.081,0,0,0,1.25-.713V-.664a3.56,3.56,0,0,1-1.074.625,4.724,4.724,0,0,1-1.855.332,4.96,4.96,0,0,1-2.637-.7,5.064,5.064,0,0,1-1.807-1.865,5.106,5.106,0,0,1-.654-2.549,5.161,5.161,0,0,1,.654-2.559A5.042,5.042,0,0,1,50.84-9.258a4.96,4.96,0,0,1,2.637-.7Zm9.59,0a4.624,4.624,0,0,1,2.5.625,3.9,3.9,0,0,1,1.494,1.7,5.692,5.692,0,0,1,.5,2.422v.957h-7.5a3.643,3.643,0,0,0,.566,1.5A3.287,3.287,0,0,0,61.8-1.67a3.368,3.368,0,0,0,1.66.4,3.841,3.841,0,0,0,1.973-.537,7.189,7.189,0,0,0,1.543-1.182l-.02,1.738a3.793,3.793,0,0,1-.811.693,5.416,5.416,0,0,1-1.23.6A4.349,4.349,0,0,1,63.46.291a4.96,4.96,0,0,1-2.637-.7,5.064,5.064,0,0,1-1.807-1.865,5.106,5.106,0,0,1-.654-2.549,5.491,5.491,0,0,1,.6-2.559,4.9,4.9,0,0,1,1.67-1.875,4.311,4.311,0,0,1,2.429-.7Zm0,1.563a2.647,2.647,0,0,0-1.992.811,3.635,3.635,0,0,0-.984,1.97h5.879a3.161,3.161,0,0,0-.537-1.562A2.834,2.834,0,0,0,64.375-8.1a2.966,2.966,0,0,0-1.309-.3ZM73.105-9.961a5.1,5.1,0,0,1,1.6.244,3.8,3.8,0,0,1,1.074.5V-7.5a5.081,5.081,0,0,0-1.113-.6,3.724,3.724,0,0,0-1.443-.3,1.95,1.95,0,0,0-1.377.43,1.238,1.238,0,0,0-.459.9,1.319,1.319,0,0,0,.264.752,1.825,1.825,0,0,0,.928.615l1.641.586a2.912,2.912,0,0,1,1.426.957,2.373,2.373,0,0,1,.467,1.46,2.641,2.641,0,0,1-.459,1.5,3.194,3.194,0,0,1-1.27,1.084,4.159,4.159,0,0,1-1.865.4A5.1,5.1,0,0,1,71.338.146a7.1,7.1,0,0,1-1.1-.352,4.569,4.569,0,0,1-.723-.361V-2.285a5.655,5.655,0,0,0,.771.439,6.685,6.685,0,0,0,1.064.41,3.764,3.764,0,0,0,1.05.166,2.341,2.341,0,0,0,1.455-.41,1.235,1.235,0,0,0,.54-1.02.881.881,0,0,0-.361-.742,4.173,4.173,0,0,0-1.045-.527L71.544-4.5a2.772,2.772,0,0,1-1.5-1.084,2.975,2.975,0,0,1-.371-1.494,2.633,2.633,0,0,1,.938-2.07,3.661,3.661,0,0,1,2.494-.817Z" transform="translate(873 1391)" fill="#fff"/>
    </g>
    <g id="Group_2243" data-name="Group 2243" transform="translate(279 -149)">
      <rect id="Rectangle_2897-2" data-name="Rectangle 2897" width="200" height="80" rx="10" transform="translate(753 1339)" fill="#17243f"/>
      <path id="Path_2256" data-name="Path 2256" d="M-16.7-1.66V0h-6.172V-1.66h2.207v-9.766h-2.207v-1.66H-16.7v1.66h-2.207V-1.66ZM-.234-13.086V0H-1.992V-9.473L-6.035-5.156H-6.5l-4.141-4.316V0H-12.4V-13.086h.547l5.586,6,5.488-6Zm9.512,0a4.787,4.787,0,0,1,2.168.518,4.519,4.519,0,0,1,1.709,1.484,3.945,3.945,0,0,1,.674,2.314,3.788,3.788,0,0,1-.645,2.129,4.756,4.756,0,0,1-1.748,1.572,5.076,5.076,0,0,1-2.451.6,7.611,7.611,0,0,1-1.826-.2A7.653,7.653,0,0,1,5.82-5.117V0H4.063V-13.086ZM5.82-11.426v4.707a8.624,8.624,0,0,0,1.377.4,8.078,8.078,0,0,0,1.729.186,3.2,3.2,0,0,0,2.3-.767,2.481,2.481,0,0,0,.811-1.865,2.241,2.241,0,0,0-.459-1.426,3.021,3.021,0,0,0-1.2-.908,3.929,3.929,0,0,0-1.582-.322Zm14.3-1.855a4.734,4.734,0,0,1,1.9.332,9.159,9.159,0,0,1,1.318.7v1.816A7.37,7.37,0,0,0,22.01-11.2a4,4,0,0,0-1.7-.361,3.966,3.966,0,0,0-1.221.2,2.514,2.514,0,0,0-1.064.654,1.6,1.6,0,0,0-.43,1.152,1.379,1.379,0,0,0,.566,1.191,8.245,8.245,0,0,0,1.367.781l1.8.82A6.178,6.178,0,0,1,23.359-5.41a2.8,2.8,0,0,1,.684,1.973,3,3,0,0,1-.625,1.885A4.307,4.307,0,0,1,21.777-.273,5.249,5.249,0,0,1,19.551.2a5.478,5.478,0,0,1-2.09-.4,8.608,8.608,0,0,1-1.66-.879V-2.891a9.823,9.823,0,0,0,1.748.947,5.66,5.66,0,0,0,2.236.42A3.056,3.056,0,0,0,21.5-2.012a1.531,1.531,0,0,0,.742-1.348,1.244,1.244,0,0,0-.3-.84,2.91,2.91,0,0,0-.732-.605,7.338,7.338,0,0,0-.84-.43L18.2-6.211a4.086,4.086,0,0,1-1.914-1.465,3.663,3.663,0,0,1-.508-1.934,3.122,3.122,0,0,1,.6-1.865,4.181,4.181,0,0,1,1.592-1.318,4.815,4.815,0,0,1,2.147-.488Z" transform="translate(853 1386.431)" fill="#fff"/>
    </g>
    <g id="Group_2244" data-name="Group 2244" transform="translate(279 -42)">
      <rect id="Rectangle_2897-3" data-name="Rectangle 2897" width="200" height="80" rx="10" transform="translate(753 1339)" fill="#17243f"/>
      <path id="Path_2257" data-name="Path 2257" d="M-13.047-13.086V0h-.664l-8.5-9.355V0h-1.758V-13.086h.664l8.5,9.473v-9.473ZM-.625-7.539v1.66H-6.992V-1.66H.215V0H-8.75V-13.086H.215v1.66H-6.992v3.887Zm11.934.488v1.66H5.684V0H3.926V-13.086H12.48v1.66H5.68v4.375Zm14.238-6.035v1.66H21.035V-.059H19.277V-11.426H14.766v-1.66Z" transform="translate(853 1386.431)" fill="#fff"/>
    </g>
    <g id="Group_2245" data-name="Group 2245" transform="translate(279 58)">
      <rect id="Rectangle_2897-4" data-name="Rectangle 2897" width="200" height="80" rx="10" transform="translate(753 1339)" fill="#17243f"/>
      <path id="Path_2258" data-name="Path 2258" d="M-16.963-13.086a5.713,5.713,0,0,1,2.168.42,4.048,4.048,0,0,1,1.709,1.289,3.512,3.512,0,0,1,.674,2.217A3.115,3.115,0,0,1-13.1-7.109a4.264,4.264,0,0,1-1.758,1.26,5.937,5.937,0,0,1-2.2.42q-.352,0-.937-.039L-11.9,0h-2.7l-5.625-5.469V0h-1.758V-13.086Zm-3.262,1.66v4.2a10.359,10.359,0,0,0,1.406.273,11.818,11.818,0,0,0,1.5.1,3.688,3.688,0,0,0,2.3-.627,2.012,2.012,0,0,0,.811-1.68,1.893,1.893,0,0,0-.889-1.68,3.834,3.834,0,0,0-2.158-.586Zm19.883-1.66v1.66H-4.854V-.059H-6.611V-11.426h-4.512v-1.66ZM7.373-7.148h5.762v5.371a6.242,6.242,0,0,1-1.211.986,7,7,0,0,1-1.709.781A7.063,7.063,0,0,1,8.1.293,6.853,6.853,0,0,1,5.361-.244,6.931,6.931,0,0,1,3.174-1.719,6.694,6.694,0,0,1,1.719-3.9,6.8,6.8,0,0,1,1.2-6.543a6.8,6.8,0,0,1,.518-2.646,6.694,6.694,0,0,1,1.455-2.178,6.931,6.931,0,0,1,2.188-1.475A6.853,6.853,0,0,1,8.1-13.379a5.956,5.956,0,0,1,2.334.391,5.637,5.637,0,0,1,1.592,1.016v1.934q-.43-.312-.967-.684a6.254,6.254,0,0,0-1.25-.654A4.627,4.627,0,0,0,8.1-11.66,5.146,5.146,0,0,0,5.479-11,4.843,4.843,0,0,0,3.662-9.17,5.2,5.2,0,0,0,3-6.543a5.146,5.146,0,0,0,.664,2.617A4.938,4.938,0,0,0,5.479-2.1,5.088,5.088,0,0,0,8.1-1.426a5.12,5.12,0,0,0,1.6-.205,3.446,3.446,0,0,0,.957-.469q.352-.264.566-.439l.02-3.047H7.373Zm11.855-6.133a4.734,4.734,0,0,1,1.9.332,9.159,9.159,0,0,1,1.318.7v1.816a7.37,7.37,0,0,0-1.328-.771,4,4,0,0,0-1.7-.361,3.966,3.966,0,0,0-1.221.2,2.514,2.514,0,0,0-1.064.654,1.6,1.6,0,0,0-.43,1.152,1.379,1.379,0,0,0,.566,1.191,8.245,8.245,0,0,0,1.367.781l1.8.82A6.178,6.178,0,0,1,22.471-5.41a2.8,2.8,0,0,1,.684,1.973,3,3,0,0,1-.625,1.885A4.307,4.307,0,0,1,20.889-.273,5.249,5.249,0,0,1,18.662.2a5.478,5.478,0,0,1-2.09-.4,8.608,8.608,0,0,1-1.66-.879V-2.891a9.823,9.823,0,0,0,1.748.947,5.66,5.66,0,0,0,2.236.42,3.056,3.056,0,0,0,1.719-.488,1.531,1.531,0,0,0,.742-1.348,1.244,1.244,0,0,0-.3-.84,2.91,2.91,0,0,0-.732-.605,7.338,7.338,0,0,0-.84-.43l-2.168-.977A4.086,4.086,0,0,1,15.4-7.676a3.663,3.663,0,0,1-.508-1.934,3.122,3.122,0,0,1,.6-1.865,4.181,4.181,0,0,1,1.592-1.318,4.815,4.815,0,0,1,2.145-.488Z" transform="translate(853 1386.431)" fill="#fff"/>
    </g>
    <g id="Group_2246" data-name="Group 2246" transform="translate(279 158)">
      <rect id="Rectangle_2897-5" data-name="Rectangle 2897" width="200" height="80" rx="10" transform="translate(753 1339)" fill="#17243f"/>
      <path id="Path_2259" data-name="Path 2259" d="M-6.289-13.125v7.949A5.692,5.692,0,0,1-7-2.256,4.816,4.816,0,0,1-8.926-.391,5.77,5.77,0,0,1-11.68.254a5.786,5.786,0,0,1-2.744-.645,4.8,4.8,0,0,1-1.934-1.865,5.692,5.692,0,0,1-.713-2.92v-7.949h1.758v7.891a4.1,4.1,0,0,0,.5,2.148A2.873,2.873,0,0,0-13.486-1.9a4.477,4.477,0,0,0,1.807.361A4.718,4.718,0,0,0-9.872-1.92,2.888,2.888,0,0,0-8.545-3.1a4.047,4.047,0,0,0,.5-2.139V-13.13Zm9.316.039a4.787,4.787,0,0,1,2.168.518,4.519,4.519,0,0,1,1.7,1.484A3.945,3.945,0,0,1,7.578-8.77a3.788,3.788,0,0,1-.645,2.129A4.756,4.756,0,0,1,5.186-5.068a5.076,5.076,0,0,1-2.451.6,7.611,7.611,0,0,1-1.827-.21A7.653,7.653,0,0,1-.43-5.117V0H-2.187V-13.086ZM-.43-11.426v4.707a8.624,8.624,0,0,0,1.377.4,8.078,8.078,0,0,0,1.729.186A3.2,3.2,0,0,0,4.971-6.9a2.481,2.481,0,0,0,.81-1.87,2.241,2.241,0,0,0-.459-1.43,3.021,3.021,0,0,0-1.2-.908A3.929,3.929,0,0,0,2.54-11.43ZM16.87-1.66V0H10.7V-1.66h2.21v-9.766H10.7v-1.66h6.172v1.66h-2.2V-1.66Z" transform="translate(853 1386.431)" fill="#fff"/>
    </g>
    <path id="Path_1921" data-name="Path 1921" d="M2604.48-1716.976h89.563v-46h28.729" transform="translate(-1689.479 3099.976)" fill="none" stroke="#7d0eff" stroke-linejoin="round" stroke-width="2" stroke-dasharray="10"/>
    <path id="Path_1922" data-name="Path 1922" d="M2604.48-1762.976h89.563v54h28.729" transform="translate(-1689.479 3145.976)" fill="none" stroke="#7d0eff" stroke-linejoin="round" stroke-width="2" stroke-dasharray="10"/>
    <path id="Path_2312" data-name="Path 2312" d="M-52.963-11.777v2.2h-3.762V-.053H-59.15V-9.58h-3.762v-2.2Zm6.8-.281a6.8,6.8,0,0,1,3.27.756A5.458,5.458,0,0,1-40.7-9.193a6.247,6.247,0,0,1,.782,3.182,6.717,6.717,0,0,1-.738,3.155A5.587,5.587,0,0,1-42.768-.615a6.217,6.217,0,0,1-3.27.826A23.76,23.76,0,0,1-48.454.088q-1.2-.123-2.276-.334V-11.6q1.09-.176,2.232-.316A19.125,19.125,0,0,1-46.16-12.059Zm.053,2.285q-.527,0-1.107.053t-1.072.141v7.313a9.2,9.2,0,0,0,1.1.149q.571.044,1.081.044a3.76,3.76,0,0,0,1.986-.5,3.311,3.311,0,0,0,1.266-1.38,4.341,4.341,0,0,0,.439-1.969,4.312,4.312,0,0,0-.439-1.986,3.337,3.337,0,0,0-1.266-1.362A3.76,3.76,0,0,0-46.107-9.773Zm11.953-2.232a5.865,5.865,0,0,1,1.863.281,6.462,6.462,0,0,1,1.424.65v2.408a13.389,13.389,0,0,0-1.354-.721,3.845,3.845,0,0,0-1.635-.334,3.008,3.008,0,0,0-.905.141,1.825,1.825,0,0,0-.738.422.96.96,0,0,0-.29.721.96.96,0,0,0,.51.879,9.659,9.659,0,0,0,1.248.6l1.441.6A4.414,4.414,0,0,1-30.779-5.08a2.754,2.754,0,0,1,.58,1.723A2.985,2.985,0,0,1-30.806-1.5,4.105,4.105,0,0,1-32.423-.246a5.378,5.378,0,0,1-2.241.457A5.673,5.673,0,0,1-36.65-.141,6.855,6.855,0,0,1-38.3-1V-3.41a8.287,8.287,0,0,0,1.705.949,5.129,5.129,0,0,0,1.986.387,2.59,2.59,0,0,0,1.266-.29.936.936,0,0,0,.527-.87.87.87,0,0,0-.431-.747,4.591,4.591,0,0,0-.94-.483L-36-5.168a3.437,3.437,0,0,1-1.854-1.38,3.764,3.764,0,0,1-.483-1.89,3.072,3.072,0,0,1,.589-1.872,3.985,3.985,0,0,1,1.538-1.248A4.755,4.755,0,0,1-34.154-12.006Zm15.346,2.9a3.613,3.613,0,0,1,1.617.316,5.58,5.58,0,0,1,1,.615v2.057a4.678,4.678,0,0,0-1.028-.562,3.772,3.772,0,0,0-1.4-.229,2.413,2.413,0,0,0-1.239.334,2.505,2.505,0,0,0-.905.9,2.465,2.465,0,0,0-.334,1.283,2.428,2.428,0,0,0,.7,1.793,2.407,2.407,0,0,0,1.775.7,3.908,3.908,0,0,0,1.4-.22,4.424,4.424,0,0,0,1.028-.554V-.633a4.3,4.3,0,0,1-1,.606,3.9,3.9,0,0,1-1.617.29,4.5,4.5,0,0,1-2.4-.642A4.7,4.7,0,0,1-22.86-2.083a4.587,4.587,0,0,1-.606-2.312,4.672,4.672,0,0,1,.343-1.775,4.713,4.713,0,0,1,.976-1.5,4.768,4.768,0,0,1,1.485-1.046A4.436,4.436,0,0,1-18.809-9.105Zm8.736,0A4.632,4.632,0,0,1-7.7-8.481,4.922,4.922,0,0,1-5.968-6.794a4.429,4.429,0,0,1,.659,2.382,4.385,4.385,0,0,1-.659,2.373A4.948,4.948,0,0,1-7.7-.36a4.632,4.632,0,0,1-2.373.624A4.646,4.646,0,0,1-12.437-.36a4.851,4.851,0,0,1-1.731-1.679,4.429,4.429,0,0,1-.65-2.373,4.474,4.474,0,0,1,.65-2.382,4.827,4.827,0,0,1,1.731-1.687A4.646,4.646,0,0,1-10.072-9.105Zm0,2.162a2.41,2.41,0,0,0-1.178.3,2.234,2.234,0,0,0-.87.861,2.7,2.7,0,0,0-.325,1.371,2.7,2.7,0,0,0,.325,1.371,2.173,2.173,0,0,0,.87.853,2.468,2.468,0,0,0,1.178.29,2.468,2.468,0,0,0,1.178-.29,2.231,2.231,0,0,0,.879-.853,2.641,2.641,0,0,0,.334-1.371,2.641,2.641,0,0,0-.334-1.371,2.3,2.3,0,0,0-.879-.861A2.41,2.41,0,0,0-10.072-6.943ZM-.967-8.877v1.125a5.106,5.106,0,0,1,.976-.932,2.407,2.407,0,0,1,1.468-.422,3.348,3.348,0,0,1,1.688.431A2.911,2.911,0,0,1,4.342-7.383,5.408,5.408,0,0,1,5.572-8.6a2.745,2.745,0,0,1,1.635-.5,3.29,3.29,0,0,1,1.635.413,3.057,3.057,0,0,1,1.187,1.222,4.127,4.127,0,0,1,.448,2.021V0H8.244L8.227-5.15a1.754,1.754,0,0,0-.466-1.336,1.708,1.708,0,0,0-1.222-.439,1.493,1.493,0,0,0-1,.36,5.282,5.282,0,0,0-.791.853V0H2.514L2.5-5.15A1.754,1.754,0,0,0,2.03-6.486a1.684,1.684,0,0,0-1.2-.439,1.585,1.585,0,0,0-1,.343,4.447,4.447,0,0,0-.791.8V0H-3.2V-8.877Zm19.072-.229a3.779,3.779,0,0,1,1.96.536A3.931,3.931,0,0,1,21.524-7a5.223,5.223,0,0,1,.554,2.5,5.489,5.489,0,0,1-.554,2.549A4.034,4.034,0,0,1,20.03-.308a3.935,3.935,0,0,1-2.083.571A3.286,3.286,0,0,1,16.479-.1,4.025,4.025,0,0,1,15.258-1V4.219H13.025v-13.1h2.232v1.494A3.434,3.434,0,0,1,16.383-8.6,2.994,2.994,0,0,1,18.105-9.105Zm-.562,2.232a2.2,2.2,0,0,0-1.125.308,2.338,2.338,0,0,0-.853.87,2.544,2.544,0,0,0-.308,1.354v1.283a4.816,4.816,0,0,0,1.028.817,2.336,2.336,0,0,0,1.2.325,1.984,1.984,0,0,0,1.2-.369,2.481,2.481,0,0,0,.791-.958A2.879,2.879,0,0,0,19.758-4.5a2.455,2.455,0,0,0-.606-1.687A2.042,2.042,0,0,0,17.543-6.873Zm8.895-5.783V0H24.205V-12.656Zm4.588-.844a1.5,1.5,0,0,1,1.09.448,1.439,1.439,0,0,1,.457,1.063,1.449,1.449,0,0,1-.457,1.055,1.488,1.488,0,0,1-1.09.457,1.459,1.459,0,0,1-1.081-.457,1.462,1.462,0,0,1-.448-1.055,1.453,1.453,0,0,1,.448-1.063A1.473,1.473,0,0,1,31.025-13.5Zm1.3,4.623V0H30.094V-6.979H28.67v-1.9Zm6.328-.229a3.519,3.519,0,0,1,1.459.334,3.556,3.556,0,0,1,1.23.9v-1h2.232V0H41.344V-1.494A3.583,3.583,0,0,1,40.219-.255,2.921,2.921,0,0,1,38.5.264a3.764,3.764,0,0,1-1.978-.545,3.922,3.922,0,0,1-1.45-1.582,5.346,5.346,0,0,1-.545-2.514,5.382,5.382,0,0,1,.554-2.531,4.06,4.06,0,0,1,1.494-1.626A3.935,3.935,0,0,1,38.654-9.105Zm.457,2.18a2.007,2.007,0,0,0-1.2.36,2.456,2.456,0,0,0-.782.94,2.823,2.823,0,0,0-.281,1.248,2.521,2.521,0,0,0,.606,1.705,2.019,2.019,0,0,0,1.608.7,2.105,2.105,0,0,0,1.116-.316,2.414,2.414,0,0,0,.844-.888,2.747,2.747,0,0,0,.325-1.38V-5.818a4.009,4.009,0,0,0-1.028-.809A2.5,2.5,0,0,0,39.111-6.926Zm9.439-1.951v1.266a4.532,4.532,0,0,1,1.1-1.02,2.752,2.752,0,0,1,1.591-.475,3.079,3.079,0,0,1,2.268.914,3.724,3.724,0,0,1,.914,2.742V0H52.189l-.018-5.15a1.84,1.84,0,0,0-.431-1.336,1.585,1.585,0,0,0-1.187-.439,1.831,1.831,0,0,0-1.116.387,3.982,3.982,0,0,0-.888.914V0H46.318V-8.877Zm11.391-2.584v2.584H62.4v1.863H59.941v3.832a1.472,1.472,0,0,0,.272.94.981.981,0,0,0,.817.343A2.8,2.8,0,0,0,61.849-2a2.562,2.562,0,0,0,.642-.3V-.527a2.822,2.822,0,0,1-.835.563A3.031,3.031,0,0,1,60.4.264,2.6,2.6,0,0,1,58.456-.5a2.877,2.877,0,0,1-.747-2.1V-7.014h-1.6V-8.156a3.706,3.706,0,0,0,1.556-1.125,6.064,6.064,0,0,0,1.134-2.18Z" transform="translate(794.912 1329)" fill="#17243f"/>
    <path id="Path_2313" data-name="Path 2313" d="M-74.259-12.006a5.865,5.865,0,0,1,1.863.281,6.462,6.462,0,0,1,1.424.65v2.408a13.389,13.389,0,0,0-1.354-.721,3.845,3.845,0,0,0-1.635-.334,3.008,3.008,0,0,0-.905.141,1.825,1.825,0,0,0-.738.422.96.96,0,0,0-.29.721.96.96,0,0,0,.51.879,9.659,9.659,0,0,0,1.248.6l1.441.6A4.414,4.414,0,0,1-70.884-5.08a2.754,2.754,0,0,1,.58,1.723A2.985,2.985,0,0,1-70.91-1.5,4.105,4.105,0,0,1-72.527-.246a5.378,5.378,0,0,1-2.241.457,5.673,5.673,0,0,1-1.986-.352A6.855,6.855,0,0,1-78.407-1V-3.41a8.287,8.287,0,0,0,1.705.949,5.129,5.129,0,0,0,1.986.387,2.59,2.59,0,0,0,1.266-.29.936.936,0,0,0,.527-.87.87.87,0,0,0-.431-.747,4.591,4.591,0,0,0-.94-.483l-1.811-.7a3.437,3.437,0,0,1-1.854-1.38,3.764,3.764,0,0,1-.483-1.89,3.072,3.072,0,0,1,.589-1.872,3.985,3.985,0,0,1,1.538-1.248A4.755,4.755,0,0,1-74.259-12.006Zm7.436,3.129,2.531,5.66,2.461-5.66h2.549l-6.451,13.1h-2.531L-65.593-.65l-3.832-8.227Zm11.32,0v1.266a4.532,4.532,0,0,1,1.1-1.02,2.752,2.752,0,0,1,1.591-.475,3.079,3.079,0,0,1,2.268.914,3.724,3.724,0,0,1,.914,2.742V0h-2.232l-.018-5.15a1.84,1.84,0,0,0-.431-1.336A1.585,1.585,0,0,0-53.5-6.926a1.831,1.831,0,0,0-1.116.387,3.982,3.982,0,0,0-.888.914V0h-2.232V-8.877Zm12.48-.229a3.613,3.613,0,0,1,1.617.316,5.58,5.58,0,0,1,1,.615v2.057a4.678,4.678,0,0,0-1.028-.562,3.772,3.772,0,0,0-1.4-.229,2.413,2.413,0,0,0-1.239.334,2.505,2.505,0,0,0-.905.9,2.465,2.465,0,0,0-.334,1.283A2.428,2.428,0,0,0-44.6-2.6a2.407,2.407,0,0,0,1.775.7,3.908,3.908,0,0,0,1.4-.22A4.424,4.424,0,0,0-40.4-2.672V-.633a4.3,4.3,0,0,1-1,.606,3.9,3.9,0,0,1-1.617.29,4.5,4.5,0,0,1-2.4-.642,4.7,4.7,0,0,1-1.652-1.705,4.587,4.587,0,0,1-.606-2.312,4.672,4.672,0,0,1,.343-1.775,4.713,4.713,0,0,1,.976-1.5,4.768,4.768,0,0,1,1.485-1.046A4.436,4.436,0,0,1-43.022-9.105Zm22.219.229L-23.88,0H-25.5l-2.074-5.748L-29.646,0H-31.28l-3.059-8.877h2.426l1.635,5.256,1.916-5.256h1.6l1.9,5.256,1.635-5.256Zm3.41-4.623a1.5,1.5,0,0,1,1.09.448,1.439,1.439,0,0,1,.457,1.063,1.449,1.449,0,0,1-.457,1.055,1.488,1.488,0,0,1-1.09.457,1.459,1.459,0,0,1-1.081-.457,1.462,1.462,0,0,1-.448-1.055,1.453,1.453,0,0,1,.448-1.063A1.473,1.473,0,0,1-17.394-13.5Zm1.3,4.623V0h-2.232V-6.979h-1.424v-1.9Zm6.029-2.584v2.584H-7.6v1.863h-2.461v3.832a1.472,1.472,0,0,0,.272.94.981.981,0,0,0,.817.343A2.8,2.8,0,0,0-8.156-2a2.562,2.562,0,0,0,.642-.3V-.527A2.822,2.822,0,0,1-8.35.035,3.031,3.031,0,0,1-9.606.264,2.6,2.6,0,0,1-11.549-.5,2.877,2.877,0,0,1-12.3-2.6V-7.014h-1.6V-8.156A3.706,3.706,0,0,0-12.34-9.281a6.064,6.064,0,0,0,1.134-2.18ZM-.308-9.105a3.079,3.079,0,0,1,2.268.914,3.724,3.724,0,0,1,.914,2.742V0H.642L.624-5.15A1.84,1.84,0,0,0,.193-6.486,1.585,1.585,0,0,0-.993-6.926a1.831,1.831,0,0,0-1.116.387A3.982,3.982,0,0,0-3-5.625V0H-5.229V-12.656H-3v5.045a4.532,4.532,0,0,1,1.1-1.02A2.752,2.752,0,0,1-.308-9.105Zm16.1,0a3.779,3.779,0,0,1,1.96.536A3.931,3.931,0,0,1,19.213-7a5.223,5.223,0,0,1,.554,2.5,5.489,5.489,0,0,1-.554,2.549A4.034,4.034,0,0,1,17.719-.308a3.935,3.935,0,0,1-2.083.571A3.286,3.286,0,0,1,14.168-.1,4.025,4.025,0,0,1,12.946-1V4.219H10.714v-13.1h2.232v1.494A3.434,3.434,0,0,1,14.071-8.6,2.994,2.994,0,0,1,15.794-9.105Zm-.562,2.232a2.2,2.2,0,0,0-1.125.308,2.338,2.338,0,0,0-.853.87,2.544,2.544,0,0,0-.308,1.354v1.283a4.816,4.816,0,0,0,1.028.817,2.336,2.336,0,0,0,1.2.325,1.984,1.984,0,0,0,1.2-.369,2.481,2.481,0,0,0,.791-.958A2.879,2.879,0,0,0,17.446-4.5a2.455,2.455,0,0,0-.606-1.687A2.042,2.042,0,0,0,15.231-6.873ZM25.409-9.105a3.519,3.519,0,0,1,1.459.334,3.556,3.556,0,0,1,1.23.9v-1h2.232V0H28.1V-1.494A3.583,3.583,0,0,1,26.974-.255a2.921,2.921,0,0,1-1.723.519,3.764,3.764,0,0,1-1.978-.545,3.922,3.922,0,0,1-1.45-1.582,5.346,5.346,0,0,1-.545-2.514,5.382,5.382,0,0,1,.554-2.531,4.06,4.06,0,0,1,1.494-1.626A3.935,3.935,0,0,1,25.409-9.105Zm.457,2.18a2.007,2.007,0,0,0-1.2.36,2.456,2.456,0,0,0-.782.94A2.823,2.823,0,0,0,23.6-4.377a2.521,2.521,0,0,0,.606,1.705,2.019,2.019,0,0,0,1.608.7,2.105,2.105,0,0,0,1.116-.316,2.414,2.414,0,0,0,.844-.888,2.747,2.747,0,0,0,.325-1.38V-5.818a4.009,4.009,0,0,0-1.028-.809A2.5,2.5,0,0,0,25.866-6.926Zm8.613-1.951,2.531,5.66,2.461-5.66h2.549l-6.451,13.1H33.038L35.71-.65,31.878-8.877Zm13.043-.229a4.632,4.632,0,0,1,2.373.624,4.922,4.922,0,0,1,1.731,1.688,4.429,4.429,0,0,1,.659,2.382,4.385,4.385,0,0,1-.659,2.373A4.948,4.948,0,0,1,49.9-.36a4.632,4.632,0,0,1-2.373.624A4.646,4.646,0,0,1,45.158-.36a4.851,4.851,0,0,1-1.731-1.679,4.429,4.429,0,0,1-.65-2.373,4.474,4.474,0,0,1,.65-2.382,4.827,4.827,0,0,1,1.731-1.687A4.646,4.646,0,0,1,47.522-9.105Zm0,2.162a2.41,2.41,0,0,0-1.178.3,2.234,2.234,0,0,0-.87.861,2.7,2.7,0,0,0-.325,1.371,2.7,2.7,0,0,0,.325,1.371,2.173,2.173,0,0,0,.87.853,2.468,2.468,0,0,0,1.178.29,2.468,2.468,0,0,0,1.178-.29,2.231,2.231,0,0,0,.879-.853,2.641,2.641,0,0,0,.334-1.371,2.641,2.641,0,0,0-.334-1.371,2.3,2.3,0,0,0-.879-.861A2.41,2.41,0,0,0,47.522-6.943ZM62.235-8.877v5.291a3.783,3.783,0,0,1-.527,2.03,3.513,3.513,0,0,1-1.433,1.31,4.48,4.48,0,0,1-2.048.457,4.52,4.52,0,0,1-2.065-.457,3.453,3.453,0,0,1-1.424-1.31,3.832,3.832,0,0,1-.519-2.03V-8.877h2.25l.018,4.887a2.2,2.2,0,0,0,.475,1.547,1.647,1.647,0,0,0,1.266.51,1.653,1.653,0,0,0,1.257-.51,2.176,2.176,0,0,0,.483-1.547V-8.877ZM68-11.461v2.584h2.461v1.863H68v3.832a1.472,1.472,0,0,0,.272.94.981.981,0,0,0,.817.343A2.8,2.8,0,0,0,69.908-2a2.562,2.562,0,0,0,.642-.3V-.527a2.822,2.822,0,0,1-.835.563,3.031,3.031,0,0,1-1.257.229A2.6,2.6,0,0,1,66.516-.5a2.877,2.877,0,0,1-.747-2.1V-7.014h-1.6V-8.156a3.706,3.706,0,0,0,1.556-1.125,6.064,6.064,0,0,0,1.134-2.18Zm7.7,2.355a4.6,4.6,0,0,1,1.529.246,3.612,3.612,0,0,1,1.09.563v1.969a6.626,6.626,0,0,0-1.028-.545,3.121,3.121,0,0,0-1.257-.264,1.615,1.615,0,0,0-1,.281.823.823,0,0,0-.369.668.765.765,0,0,0,.211.519,1.763,1.763,0,0,0,.809.413l1,.334a2.374,2.374,0,0,1,2.021,2.338,2.434,2.434,0,0,1-.466,1.468A3.188,3.188,0,0,1,76.992-.105a4.006,4.006,0,0,1-1.731.369,5.467,5.467,0,0,1-1.74-.281,4.517,4.517,0,0,1-1.283-.615V-2.584a5.117,5.117,0,0,0,.809.439,6.308,6.308,0,0,0,.984.343,3.748,3.748,0,0,0,.932.132,1.867,1.867,0,0,0,1.028-.237.763.763,0,0,0,.36-.677.6.6,0,0,0-.3-.527,4.012,4.012,0,0,0-.879-.387l-1.09-.387a2.5,2.5,0,0,1-1.406-.949,2.685,2.685,0,0,1-.387-1.459,2.52,2.52,0,0,1,.431-1.468,2.922,2.922,0,0,1,1.2-.984A4.159,4.159,0,0,1,75.7-9.105Z" transform="translate(624 1242.5)" fill="#17243f"/>
    <path id="Path_2314" data-name="Path 2314" d="M-28.661-11.777a4.794,4.794,0,0,1,1.617.281,4.55,4.55,0,0,1,1.433.826,4.058,4.058,0,0,1,1.02,1.31,3.9,3.9,0,0,1,.378,1.749,3.769,3.769,0,0,1-.606,2.118,4.268,4.268,0,0,1-1.608,1.45,4.609,4.609,0,0,1-2.18.527,5.882,5.882,0,0,1-1.424-.158,5.207,5.207,0,0,1-1.055-.369V0H-33.53V-11.777Zm-2.426,2.285v3.48a5.385,5.385,0,0,0,.94.272,5.6,5.6,0,0,0,1.134.114,2.346,2.346,0,0,0,1.679-.589,1.858,1.858,0,0,0,.624-1.4,1.586,1.586,0,0,0-.7-1.406,2.883,2.883,0,0,0-1.652-.475Zm12.463.387a3.519,3.519,0,0,1,1.459.334,3.556,3.556,0,0,1,1.23.9v-1H-13.7V0h-2.232V-1.494A3.583,3.583,0,0,1-17.06-.255a2.921,2.921,0,0,1-1.723.519A3.764,3.764,0,0,1-20.76-.281a3.922,3.922,0,0,1-1.45-1.582,5.346,5.346,0,0,1-.545-2.514A5.382,5.382,0,0,1-22.2-6.908a4.06,4.06,0,0,1,1.494-1.626A3.935,3.935,0,0,1-18.624-9.105Zm.457,2.18a2.007,2.007,0,0,0-1.2.36,2.456,2.456,0,0,0-.782.94,2.823,2.823,0,0,0-.281,1.248,2.521,2.521,0,0,0,.606,1.705,2.019,2.019,0,0,0,1.608.7A2.105,2.105,0,0,0-17.1-2.285a2.414,2.414,0,0,0,.844-.888,2.747,2.747,0,0,0,.325-1.38V-5.818a4.009,4.009,0,0,0-1.028-.809A2.5,2.5,0,0,0-18.167-6.926Zm8.613-1.951,2.531,5.66,2.461-5.66h2.549l-6.451,13.1H-11L-8.323-.65l-3.832-8.227ZM3.489-9.105a4.632,4.632,0,0,1,2.373.624A4.922,4.922,0,0,1,7.594-6.794a4.429,4.429,0,0,1,.659,2.382,4.385,4.385,0,0,1-.659,2.373A4.948,4.948,0,0,1,5.862-.36,4.632,4.632,0,0,1,3.489.264,4.646,4.646,0,0,1,1.125-.36,4.851,4.851,0,0,1-.606-2.039a4.429,4.429,0,0,1-.65-2.373,4.474,4.474,0,0,1,.65-2.382A4.827,4.827,0,0,1,1.125-8.481,4.646,4.646,0,0,1,3.489-9.105Zm0,2.162a2.41,2.41,0,0,0-1.178.3,2.234,2.234,0,0,0-.87.861,2.7,2.7,0,0,0-.325,1.371,2.7,2.7,0,0,0,.325,1.371,2.173,2.173,0,0,0,.87.853,2.468,2.468,0,0,0,1.178.29,2.468,2.468,0,0,0,1.178-.29,2.231,2.231,0,0,0,.879-.853A2.641,2.641,0,0,0,5.88-4.412a2.641,2.641,0,0,0-.334-1.371,2.3,2.3,0,0,0-.879-.861A2.41,2.41,0,0,0,3.489-6.943ZM18.2-8.877v5.291a3.783,3.783,0,0,1-.527,2.03,3.513,3.513,0,0,1-1.433,1.31,4.48,4.48,0,0,1-2.048.457,4.52,4.52,0,0,1-2.065-.457,3.453,3.453,0,0,1-1.424-1.31,3.832,3.832,0,0,1-.519-2.03V-8.877h2.25l.018,4.887a2.2,2.2,0,0,0,.475,1.547,1.647,1.647,0,0,0,1.266.51,1.653,1.653,0,0,0,1.257-.51,2.176,2.176,0,0,0,.483-1.547V-8.877Zm5.766-2.584v2.584h2.461v1.863H23.968v3.832a1.472,1.472,0,0,0,.272.94.981.981,0,0,0,.817.343A2.8,2.8,0,0,0,25.875-2a2.562,2.562,0,0,0,.642-.3V-.527a2.822,2.822,0,0,1-.835.563,3.031,3.031,0,0,1-1.257.229A2.6,2.6,0,0,1,22.482-.5a2.877,2.877,0,0,1-.747-2.1V-7.014h-1.6V-8.156a3.706,3.706,0,0,0,1.556-1.125,6.064,6.064,0,0,0,1.134-2.18Zm7.7,2.355a4.6,4.6,0,0,1,1.529.246,3.612,3.612,0,0,1,1.09.563v1.969a6.626,6.626,0,0,0-1.028-.545A3.121,3.121,0,0,0,32-7.137a1.615,1.615,0,0,0-1,.281.823.823,0,0,0-.369.668.765.765,0,0,0,.211.519,1.763,1.763,0,0,0,.809.413l1,.334a2.374,2.374,0,0,1,2.021,2.338,2.434,2.434,0,0,1-.466,1.468A3.188,3.188,0,0,1,32.959-.105a4.006,4.006,0,0,1-1.731.369,5.467,5.467,0,0,1-1.74-.281A4.517,4.517,0,0,1,28.2-.633V-2.584a5.117,5.117,0,0,0,.809.439A6.308,6.308,0,0,0,30-1.8a3.748,3.748,0,0,0,.932.132,1.867,1.867,0,0,0,1.028-.237.763.763,0,0,0,.36-.677.6.6,0,0,0-.3-.527A4.012,4.012,0,0,0,31.14-3.5l-1.09-.387a2.5,2.5,0,0,1-1.406-.949,2.685,2.685,0,0,1-.387-1.459,2.52,2.52,0,0,1,.431-1.468,2.922,2.922,0,0,1,1.2-.984A4.159,4.159,0,0,1,31.667-9.105Z" transform="translate(958 1372)" fill="#17243f"/>
  </g>
</svg>
