<svg xmlns="http://www.w3.org/2000/svg" xmlns:xlink="http://www.w3.org/1999/xlink" width="600" height="365" viewBox="0 0 600 365">
  <defs>
    <filter id="Rectangle_2908">
      <feOffset input="SourceAlpha"/>
      <feGaussianBlur stdDeviation="5" result="blur"/>
      <feFlood result="color"/>
      <feComposite operator="out" in="SourceGraphic" in2="blur"/>
      <feComposite operator="in" in="color"/>
      <feComposite operator="in" in2="SourceGraphic"/>
    </filter>
    <clipPath id="clip-path">
      <circle id="Ellipse_240" data-name="Ellipse 240" cx="20" cy="20" r="20"/>
    </clipPath>
    <linearGradient id="linear-gradient" x1="0.5" x2="0.5" y2="1" gradientUnits="objectBoundingBox">
      <stop offset="0" stop-color="#17243f" stop-opacity="0"/>
      <stop offset="1" stop-color="#1a243d"/>
    </linearGradient>
    <filter id="Ellipse_227" x="295" y="35" width="38" height="38" filterUnits="userSpaceOnUse">
      <feOffset input="SourceAlpha"/>
      <feGaussianBlur stdDeviation="5" result="blur-2"/>
      <feFlood flood-color="#1eefb0"/>
      <feComposite operator="in" in2="blur-2"/>
      <feComposite in="SourceGraphic"/>
    </filter>
    <clipPath id="clip-path-3">
      <rect id="Rectangle_2912" data-name="Rectangle 2912" width="99" height="32" transform="translate(1123 2285)" fill="#fff" stroke="#707070" stroke-width="1"/>
    </clipPath>
    <filter id="Union_10" x="261" y="59" width="279" height="295.295" filterUnits="userSpaceOnUse">
      <feOffset input="SourceAlpha"/>
      <feGaussianBlur stdDeviation="2" result="blur-3"/>
      <feFlood flood-color="#71ecb4" flood-opacity="0.988"/>
      <feComposite operator="in" in2="blur-3"/>
      <feComposite in="SourceGraphic"/>
    </filter>
    <clipPath id="clip-path-4">
      <circle id="Ellipse_240-2" data-name="Ellipse 240" cx="21" cy="21" r="21"/>
    </clipPath>
  </defs>
  <g id="Group_2384" data-name="Group 2384" transform="translate(-12320 822)">
    <rect id="Rectangle_2955" data-name="Rectangle 2955" width="600" height="365" transform="translate(12320 -822)" fill="none"/>
    <g id="Group_2381" data-name="Group 2381" transform="translate(11659 -3233)">
      <g id="Group_2278" data-name="Group 2278" transform="translate(-71 -15)">
        <g data-type="innerShadowGroup">
          <rect id="Rectangle_2908-2" data-name="Rectangle 2908" width="341" height="150" rx="10" transform="translate(799 2442)" fill="#17243f"/>
          <g transform="matrix(1, 0, 0, 1, 732, 2426)" filter="url(#Rectangle_2908)">
            <rect id="Rectangle_2908-3" data-name="Rectangle 2908" width="341" height="150" rx="10" transform="translate(67 16)" fill="#fff"/>
          </g>
        </g>
        <circle id="Ellipse_224" data-name="Ellipse 224" cx="20" cy="20" r="20" transform="translate(819 2462)" fill="#293d65"/>
        <g id="avatar-svgrepo-com" transform="translate(818.999 2462.295)">
          <circle id="Ellipse_239" data-name="Ellipse 239" cx="20" cy="20" r="20" transform="translate(0.001 0)" fill="#fdf5e9"/>
          <g id="Group_2338" data-name="Group 2338" transform="translate(0.001 0)">
            <g id="Group_2337" data-name="Group 2337" transform="translate(0)" clip-path="url(#clip-path)">
              <g id="Group_2336" data-name="Group 2336" transform="translate(8.672 11.21)">
                <path id="Path_2203" data-name="Path 2203" d="M52.293,106.536c-1.289-2.441-9.578-3.972-9.578-3.972s-8.289,1.532-9.578,3.972c-.953,3.387-1.75,7.69-1.75,7.69H54.043A37.666,37.666,0,0,0,52.293,106.536Z" transform="translate(-31.387 -85.436)" fill="#f1c9a5"/>
                <path id="Path_2204" data-name="Path 2204" d="M72.387,102.564s8.289,1.532,9.578,3.972a37.646,37.646,0,0,1,1.75,7.69H72.387Z" transform="translate(-61.059 -85.436)" fill="#e4b692"/>
                <rect id="Rectangle_2936" data-name="Rectangle 2936" width="4.513" height="7.553" transform="translate(9.072 12.166)" fill="#f1c9a5"/>
                <rect id="Rectangle_2937" data-name="Rectangle 2937" width="2.257" height="7.553" transform="translate(11.328 12.166)" fill="#e4b692"/>
                <path id="Path_2205" data-name="Path 2205" d="M64.22,88.106c.406,1.165,2.044,1.833,3.247,1.833a4.057,4.057,0,0,0,1.266-.206V84.606H64.22Z" transform="translate(-55.148 -72.44)" fill="#ddac8c" opacity="0.1"/>
                <path id="Path_2206" data-name="Path 2206" d="M62.991,47.974c0-4.717-2.6-7.4-5.8-7.4s-5.8,2.683-5.8,7.4c0,6.345,2.6,8.542,5.8,8.542S62.991,54.055,62.991,47.974Z" transform="translate(-45.861 -40.574)" fill="#f1c9a5"/>
                <path id="Path_2207" data-name="Path 2207" d="M85.97,66.959a2.085,2.085,0,0,1-1.584-2.53,2.255,2.255,0,0,1,2.224-2.134,2.084,2.084,0,0,1,1.583,2.53A2.255,2.255,0,0,1,85.97,66.959Z" transform="translate(-69.723 -56.287)" fill="#e4b692"/>
                <path id="Path_2208" data-name="Path 2208" d="M46.614,64.825A2.084,2.084,0,0,1,48.2,62.3a2.256,2.256,0,0,1,2.226,2.134,2.086,2.086,0,0,1-1.584,2.53A2.255,2.255,0,0,1,46.614,64.825Z" transform="translate(-42.387 -56.288)" fill="#f1c9a5"/>
                <path id="Path_2209" data-name="Path 2209" d="M78.189,47.974c0-4.717-2.6-7.4-5.8-7.4V56.516C75.591,56.516,78.189,54.055,78.189,47.974Z" transform="translate(-61.059 -40.574)" fill="#e4b692"/>
              </g>
              <path id="Path_2210" data-name="Path 2210" d="M63.228,77.24c-.312.878-.84,1.932-1.794,1.932-1.192,0-2.045-.969-3.413-.969H58c-1.368,0-2.22.969-3.413.969-.954,0-1.482-1.055-1.794-1.932l-.27-1.69v2.023s.453,2.382,1.323,2.958A9.181,9.181,0,0,0,58,82.239h.024a9.175,9.175,0,0,0,4.154-1.708c.87-.576,1.323-2.958,1.323-2.958V75.55Z" transform="translate(-38.009 -54.676)" fill="#303030"/>
              <path id="Path_2211" data-name="Path 2211" d="M62.218,39.155S63.3,43.517,69.3,45.723a5.918,5.918,0,0,1-.667-2.155A10.5,10.5,0,0,0,71.2,45.416c.873-1.745,1.9-4.362-.41-5.8S62.988,35.614,62.218,39.155Z" transform="translate(-45.028 -27.042)" fill="#303030"/>
              <path id="Path_2212" data-name="Path 2212" d="M51.162,50.029s.446-4.98,2.3-6.081c-1.583-.69-3.994,1.411-3.738,2.694A15.933,15.933,0,0,0,51.162,50.029Z" transform="translate(-35.972 -31.707)" fill="#303030"/>
              <path id="Path_2213" data-name="Path 2213" d="M52.293,108.5c-.753-1.425-3.891-2.539-6.373-3.221a3.21,3.21,0,0,1-6.41,0c-2.482.681-5.62,1.8-6.373,3.221-.953,3.387-1.75,7.69-1.75,7.69H54.043A37.666,37.666,0,0,0,52.293,108.5Z" transform="translate(-22.715 -76.194)" fill="#3918d8"/>
              <path id="Path_2214" data-name="Path 2214" d="M43.731,106.113a3.412,3.412,0,0,0,6.781,0c2.275.59,5.067,1.506,6.292,2.666q-.051-.139-.1-.275c-.753-1.425-3.891-2.539-6.373-3.221a3.21,3.21,0,0,1-6.41,0c-2.482.681-5.62,1.8-6.373,3.221l-.067.241C38.719,107.6,41.478,106.7,43.731,106.113Z" transform="translate(-27.122 -76.194)" fill="#e53d0c" opacity="0.2"/>
              <path id="Path_2215" data-name="Path 2215" d="M57.37,105.557a4.2,4.2,0,0,0,8.3,0c-.321-.1-.637-.188-.944-.272a3.21,3.21,0,0,1-6.41,0C58.007,105.369,57.691,105.46,57.37,105.557Z" transform="translate(-41.519 -76.195)" fill="#5c1faf"/>
              <path id="Path_2216" data-name="Path 2216" d="M70.858,89.046a.887.887,0,0,0-.944-.615.978.978,0,0,0-.944.615Z" transform="translate(-49.914 -63.998)" fill="#fff"/>
            </g>
          </g>
        </g>
        <circle id="Ellipse_225" data-name="Ellipse 225" cx="20" cy="20" r="20" transform="translate(819 2519)" fill="#293d65"/>
        <path id="Intersection_1" data-name="Intersection 1" d="M-1639.6,3138a20.007,20.007,0,0,1,19.6-16,20.007,20.007,0,0,1,19.6,16Z" transform="translate(2459 -546)" fill="#293d65"/>
        <path id="Path_2266" data-name="Path 2266" d="M1.184,0V-11.2H4.8a4.644,4.644,0,0,1,2.144.432A2.819,2.819,0,0,1,8.176-9.584a3.487,3.487,0,0,1,.4,1.664,3.345,3.345,0,0,1-.568,1.9,3.069,3.069,0,0,1-1.768,1.2L8.688,0H7.1L4.832-4.624h-2.3V0ZM2.528-5.68H4.7A2.5,2.5,0,0,0,6.592-6.3a2.23,2.23,0,0,0,.592-1.6A2.13,2.13,0,0,0,6.6-9.48a2.629,2.629,0,0,0-1.912-.584H2.528ZM13.728.192A3.99,3.99,0,0,1,11.712-.32,3.7,3.7,0,0,1,10.3-1.768a4.459,4.459,0,0,1-.52-2.2,4.4,4.4,0,0,1,.528-2.2,3.737,3.737,0,0,1,1.432-1.448,4.034,4.034,0,0,1,2.024-.512,3.99,3.99,0,0,1,2.016.512,3.7,3.7,0,0,1,1.416,1.448,4.459,4.459,0,0,1,.52,2.2,4.4,4.4,0,0,1-.528,2.2A3.737,3.737,0,0,1,15.752-.32,4.034,4.034,0,0,1,13.728.192Zm0-1.152a2.55,2.55,0,0,0,1.28-.336,2.506,2.506,0,0,0,.96-1.008,3.428,3.428,0,0,0,.368-1.664,3.491,3.491,0,0,0-.36-1.664,2.454,2.454,0,0,0-.952-1.008,2.52,2.52,0,0,0-1.264-.336,2.55,2.55,0,0,0-1.28.336,2.506,2.506,0,0,0-.96,1.008,3.428,3.428,0,0,0-.368,1.664A3.428,3.428,0,0,0,11.52-2.3,2.525,2.525,0,0,0,12.472-1.3,2.477,2.477,0,0,0,13.728-.96Zm8.9,1.152a3.792,3.792,0,0,1-2.368-.72,2.807,2.807,0,0,1-1.1-1.952h1.376a1.9,1.9,0,0,0,.664,1.08,2.161,2.161,0,0,0,1.448.456,1.826,1.826,0,0,0,1.248-.36,1.115,1.115,0,0,0,.4-.856.95.95,0,0,0-.52-.96A6.921,6.921,0,0,0,22.3-3.552a8.252,8.252,0,0,1-1.28-.368,2.908,2.908,0,0,1-1.072-.68,1.584,1.584,0,0,1-.432-1.16,2.141,2.141,0,0,1,.776-1.7,3.129,3.129,0,0,1,2.1-.664,3.263,3.263,0,0,1,2.072.632,2.522,2.522,0,0,1,.936,1.8H24.08a1.384,1.384,0,0,0-.52-.952,1.858,1.858,0,0,0-1.176-.344,1.78,1.78,0,0,0-1.112.3.964.964,0,0,0-.392.8.831.831,0,0,0,.5.752,5.411,5.411,0,0,0,1.368.464,11.916,11.916,0,0,1,1.4.392,2.646,2.646,0,0,1,1.088.688,1.87,1.87,0,0,1,.424,1.32A2.168,2.168,0,0,1,24.856-.5,3.348,3.348,0,0,1,22.624.192ZM27.584,0V-11.52h1.344v4.944A2.827,2.827,0,0,1,30.064-7.72a3.246,3.246,0,0,1,1.6-.408,2.939,2.939,0,0,1,2.208.856A3.65,3.65,0,0,1,34.7-4.64V0H33.376V-4.5q0-2.48-2-2.48a2.3,2.3,0,0,0-1.744.744,2.966,2.966,0,0,0-.7,2.12V0ZM39.376.192a3.6,3.6,0,0,1-1.648-.336,2.284,2.284,0,0,1-.976-.9,2.409,2.409,0,0,1-.32-1.216,2.155,2.155,0,0,1,.928-1.872,4.309,4.309,0,0,1,2.528-.656h2.144v-.1a2.118,2.118,0,0,0-.544-1.576,1.984,1.984,0,0,0-1.456-.536A2.321,2.321,0,0,0,38.68-6.6a1.717,1.717,0,0,0-.712,1.144H36.592a2.547,2.547,0,0,1,.584-1.456,3.264,3.264,0,0,1,1.256-.9,4.133,4.133,0,0,1,1.6-.312,3.288,3.288,0,0,1,2.5.888,3.293,3.293,0,0,1,.84,2.36V0h-1.2L42.1-1.424A3.148,3.148,0,0,1,41.112-.28,2.887,2.887,0,0,1,39.376.192Zm.208-1.136a2.189,2.189,0,0,0,1.32-.4,2.553,2.553,0,0,0,.84-1.04,3.239,3.239,0,0,0,.288-1.344v-.016H40a2.638,2.638,0,0,0-1.672.408A1.272,1.272,0,0,0,37.84-2.32a1.231,1.231,0,0,0,.456,1A1.972,1.972,0,0,0,39.584-.944ZM45.392,0V-7.936h1.216l.08,1.424a2.882,2.882,0,0,1,1.1-1.184,3.11,3.11,0,0,1,1.632-.432,3.006,3.006,0,0,1,2.248.856,3.628,3.628,0,0,1,.84,2.632V0H51.168V-4.5q0-2.48-2.048-2.48a2.212,2.212,0,0,0-1.7.744,3.032,3.032,0,0,0-.68,2.12V0ZM63.68.192a5.147,5.147,0,0,1-2.752-.728,4.926,4.926,0,0,1-1.84-2.032,6.625,6.625,0,0,1-.656-3.016A6.608,6.608,0,0,1,59.1-8.608a4.936,4.936,0,0,1,1.888-2.048,5.5,5.5,0,0,1,2.888-.736,5.211,5.211,0,0,1,3.144.912A4.136,4.136,0,0,1,68.64-7.968H67.088a2.577,2.577,0,0,0-1.064-1.6,3.651,3.651,0,0,0-2.152-.592,4.06,4.06,0,0,0-2.144.552,3.7,3.7,0,0,0-1.416,1.576,5.492,5.492,0,0,0-.5,2.448,5.568,5.568,0,0,0,.5,2.448A3.722,3.722,0,0,0,61.68-1.56a3.773,3.773,0,0,0,2.048.552,3.391,3.391,0,0,0,2.7-1.048,4.758,4.758,0,0,0,1.04-2.872H64.24V-5.984h4.608V0H67.616L67.5-1.84a4.462,4.462,0,0,1-1.488,1.5A4.51,4.51,0,0,1,63.68.192Zm9.856,0a3.6,3.6,0,0,1-1.648-.336,2.284,2.284,0,0,1-.976-.9,2.409,2.409,0,0,1-.32-1.216,2.155,2.155,0,0,1,.928-1.872,4.309,4.309,0,0,1,2.528-.656h2.144v-.1a2.118,2.118,0,0,0-.544-1.576,1.984,1.984,0,0,0-1.456-.536A2.321,2.321,0,0,0,72.84-6.6a1.717,1.717,0,0,0-.712,1.144H70.752a2.547,2.547,0,0,1,.584-1.456,3.264,3.264,0,0,1,1.256-.9,4.133,4.133,0,0,1,1.6-.312,3.288,3.288,0,0,1,2.5.888,3.293,3.293,0,0,1,.84,2.36V0h-1.2l-.08-1.424A3.147,3.147,0,0,1,75.272-.28,2.887,2.887,0,0,1,73.536.192Zm.208-1.136a2.189,2.189,0,0,0,1.32-.4,2.553,2.553,0,0,0,.84-1.04,3.239,3.239,0,0,0,.288-1.344v-.016H74.16a2.638,2.638,0,0,0-1.672.408A1.272,1.272,0,0,0,72-2.32a1.231,1.231,0,0,0,.456,1A1.972,1.972,0,0,0,73.744-.944ZM80.368-9.7A.9.9,0,0,1,79.7-9.96a.9.9,0,0,1-.264-.664.855.855,0,0,1,.264-.64.915.915,0,0,1,.664-.256.923.923,0,0,1,.656.256.842.842,0,0,1,.272.64.887.887,0,0,1-.272.664A.908.908,0,0,1,80.368-9.7ZM79.7,0V-7.936H81.04V0Zm3.68,0V-11.52H84.72v6.928l3.248-3.344h1.648L86.1-4.352,90.064,0H88.352L84.72-4.112V0ZM93.04,0,90.72-7.936h1.344l1.68,6.224L95.6-7.936h1.52l1.872,6.224,1.664-6.224h1.36L99.7,0H98.32L96.368-6.544,94.416,0Zm12.816.192a3.6,3.6,0,0,1-1.648-.336,2.284,2.284,0,0,1-.976-.9,2.409,2.409,0,0,1-.32-1.216,2.155,2.155,0,0,1,.928-1.872,4.309,4.309,0,0,1,2.528-.656h2.144v-.1a2.118,2.118,0,0,0-.544-1.576,1.984,1.984,0,0,0-1.456-.536,2.321,2.321,0,0,0-1.352.392,1.717,1.717,0,0,0-.712,1.144h-1.376a2.547,2.547,0,0,1,.584-1.456,3.264,3.264,0,0,1,1.256-.9,4.133,4.133,0,0,1,1.6-.312,3.288,3.288,0,0,1,2.5.888,3.293,3.293,0,0,1,.84,2.36V0h-1.2l-.08-1.424a3.147,3.147,0,0,1-.984,1.144A2.887,2.887,0,0,1,105.856.192Zm.208-1.136a2.189,2.189,0,0,0,1.32-.4,2.553,2.553,0,0,0,.84-1.04,3.239,3.239,0,0,0,.288-1.344v-.016H106.48a2.638,2.638,0,0,0-1.672.408,1.272,1.272,0,0,0-.488,1.016,1.231,1.231,0,0,0,.456,1A1.972,1.972,0,0,0,106.064-.944ZM115.472.192A3.887,3.887,0,0,1,113.4-.352a3.7,3.7,0,0,1-1.376-1.488,4.6,4.6,0,0,1-.488-2.144,4.492,4.492,0,0,1,.5-2.136,3.736,3.736,0,0,1,1.376-1.472,3.92,3.92,0,0,1,2.08-.536,3.624,3.624,0,0,1,1.728.4,2.883,2.883,0,0,1,1.168,1.12V-11.52h1.344V0h-1.216l-.128-1.312a3.715,3.715,0,0,1-1.1,1.04A3.275,3.275,0,0,1,115.472.192Zm.144-1.168a2.663,2.663,0,0,0,1.416-.376,2.571,2.571,0,0,0,.96-1.048,3.4,3.4,0,0,0,.344-1.568,3.4,3.4,0,0,0-.344-1.568,2.571,2.571,0,0,0-.96-1.048,2.663,2.663,0,0,0-1.416-.376,2.633,2.633,0,0,0-1.4.376,2.571,2.571,0,0,0-.96,1.048,3.4,3.4,0,0,0-.344,1.568,3.4,3.4,0,0,0,.344,1.568,2.571,2.571,0,0,0,.96,1.048A2.633,2.633,0,0,0,115.616-.976Z" transform="translate(867 2481)" fill="#fff"/>
        <path id="Path_2268" data-name="Path 2268" d="M4.56,0,.352-11.2H1.808L5.344-1.424,8.912-11.2h1.424L6.128,0Zm8.048-9.7a.9.9,0,0,1-.664-.264.9.9,0,0,1-.264-.664.855.855,0,0,1,.264-.64.915.915,0,0,1,.664-.256.923.923,0,0,1,.656.256.842.842,0,0,1,.272.64.887.887,0,0,1-.272.664A.908.908,0,0,1,12.608-9.7ZM11.936,0V-7.936H13.28V0Zm7.28.192a3.887,3.887,0,0,1-2.072-.544A3.7,3.7,0,0,1,15.768-1.84a4.6,4.6,0,0,1-.488-2.144,4.492,4.492,0,0,1,.5-2.136,3.736,3.736,0,0,1,1.376-1.472,3.92,3.92,0,0,1,2.08-.536,3.624,3.624,0,0,1,1.728.4,2.883,2.883,0,0,1,1.168,1.12V-11.52h1.344V0H22.256l-.128-1.312a3.716,3.716,0,0,1-1.1,1.04A3.275,3.275,0,0,1,19.216.192ZM19.36-.976a2.663,2.663,0,0,0,1.416-.376,2.571,2.571,0,0,0,.96-1.048,3.4,3.4,0,0,0,.344-1.568,3.4,3.4,0,0,0-.344-1.568,2.571,2.571,0,0,0-.96-1.048A2.663,2.663,0,0,0,19.36-6.96a2.633,2.633,0,0,0-1.4.376A2.571,2.571,0,0,0,17-5.536a3.4,3.4,0,0,0-.344,1.568A3.4,3.4,0,0,0,17-2.4a2.571,2.571,0,0,0,.96,1.048A2.633,2.633,0,0,0,19.36-.976Zm7.168,4.5L28.5-.768h-.464L24.88-7.936h1.456L28.96-1.76l2.784-6.176h1.392L27.936,3.52ZM36.7.192a3.6,3.6,0,0,1-1.648-.336,2.284,2.284,0,0,1-.976-.9,2.409,2.409,0,0,1-.32-1.216,2.155,2.155,0,0,1,.928-1.872,4.309,4.309,0,0,1,2.528-.656H39.36v-.1a2.118,2.118,0,0,0-.544-1.576,1.984,1.984,0,0,0-1.456-.536,2.321,2.321,0,0,0-1.352.392A1.717,1.717,0,0,0,35.3-5.456H33.92A2.547,2.547,0,0,1,34.5-6.912a3.264,3.264,0,0,1,1.256-.9,4.133,4.133,0,0,1,1.6-.312,3.288,3.288,0,0,1,2.5.888,3.293,3.293,0,0,1,.84,2.36V0H39.5l-.08-1.424A3.148,3.148,0,0,1,38.44-.28,2.887,2.887,0,0,1,36.7.192Zm.208-1.136a2.189,2.189,0,0,0,1.32-.4,2.553,2.553,0,0,0,.84-1.04,3.239,3.239,0,0,0,.288-1.344v-.016H37.328a2.638,2.638,0,0,0-1.672.408,1.272,1.272,0,0,0-.488,1.016,1.231,1.231,0,0,0,.456,1A1.972,1.972,0,0,0,36.912-.944ZM51.088.192A4.7,4.7,0,0,1,49-.264,3.474,3.474,0,0,1,47.5-1.68a4.807,4.807,0,0,1-.56-2.448V-11.2h1.344v7.088a3.12,3.12,0,0,0,.784,2.368,2.871,2.871,0,0,0,2.048.736,2.814,2.814,0,0,0,2.032-.736,3.16,3.16,0,0,0,.768-2.368V-11.2h1.344v7.072A4.807,4.807,0,0,1,54.7-1.68,3.464,3.464,0,0,1,53.2-.264,4.793,4.793,0,0,1,51.088.192Zm9.968,0a3.887,3.887,0,0,1-2.072-.544A3.7,3.7,0,0,1,57.608-1.84a4.6,4.6,0,0,1-.488-2.144,4.492,4.492,0,0,1,.5-2.136,3.736,3.736,0,0,1,1.376-1.472,3.92,3.92,0,0,1,2.08-.536,3.624,3.624,0,0,1,1.728.4,2.883,2.883,0,0,1,1.168,1.12V-11.52h1.344V0H64.1l-.128-1.312a3.716,3.716,0,0,1-1.1,1.04A3.275,3.275,0,0,1,61.056.192ZM61.2-.976a2.663,2.663,0,0,0,1.416-.376,2.571,2.571,0,0,0,.96-1.048,3.4,3.4,0,0,0,.344-1.568,3.4,3.4,0,0,0-.344-1.568,2.571,2.571,0,0,0-.96-1.048A2.663,2.663,0,0,0,61.2-6.96a2.633,2.633,0,0,0-1.4.376,2.571,2.571,0,0,0-.96,1.048A3.4,3.4,0,0,0,58.5-3.968,3.4,3.4,0,0,0,58.84-2.4a2.571,2.571,0,0,0,.96,1.048A2.633,2.633,0,0,0,61.2-.976ZM70.144.192A3.6,3.6,0,0,1,68.5-.144a2.284,2.284,0,0,1-.976-.9,2.409,2.409,0,0,1-.32-1.216,2.155,2.155,0,0,1,.928-1.872,4.309,4.309,0,0,1,2.528-.656H72.8v-.1a2.118,2.118,0,0,0-.544-1.576A1.984,1.984,0,0,0,70.8-6.992a2.321,2.321,0,0,0-1.352.392,1.717,1.717,0,0,0-.712,1.144H67.36a2.547,2.547,0,0,1,.584-1.456,3.264,3.264,0,0,1,1.256-.9,4.133,4.133,0,0,1,1.6-.312,3.288,3.288,0,0,1,2.5.888,3.293,3.293,0,0,1,.84,2.36V0h-1.2l-.08-1.424A3.147,3.147,0,0,1,71.88-.28,2.887,2.887,0,0,1,70.144.192Zm.208-1.136a2.189,2.189,0,0,0,1.32-.4,2.553,2.553,0,0,0,.84-1.04A3.239,3.239,0,0,0,72.8-3.728v-.016H70.768a2.638,2.638,0,0,0-1.672.408,1.272,1.272,0,0,0-.488,1.016,1.231,1.231,0,0,0,.456,1A1.972,1.972,0,0,0,70.352-.944ZM79.2.192a3.792,3.792,0,0,1-2.368-.72,2.807,2.807,0,0,1-1.1-1.952H77.1a1.9,1.9,0,0,0,.664,1.08,2.161,2.161,0,0,0,1.448.456,1.826,1.826,0,0,0,1.248-.36,1.115,1.115,0,0,0,.4-.856.95.95,0,0,0-.52-.96,6.922,6.922,0,0,0-1.464-.432A8.252,8.252,0,0,1,77.6-3.92a2.908,2.908,0,0,1-1.072-.68A1.584,1.584,0,0,1,76.1-5.76a2.141,2.141,0,0,1,.776-1.7,3.129,3.129,0,0,1,2.1-.664,3.263,3.263,0,0,1,2.072.632,2.522,2.522,0,0,1,.936,1.8H80.656a1.384,1.384,0,0,0-.52-.952,1.858,1.858,0,0,0-1.176-.344,1.78,1.78,0,0,0-1.112.3.964.964,0,0,0-.392.8.831.831,0,0,0,.5.752,5.411,5.411,0,0,0,1.368.464,11.916,11.916,0,0,1,1.4.392,2.646,2.646,0,0,1,1.088.688,1.87,1.87,0,0,1,.424,1.32A2.168,2.168,0,0,1,81.432-.5,3.348,3.348,0,0,1,79.2.192Z" transform="translate(867 2538)" fill="#fff"/>
        <path id="Path_2267" data-name="Path 2267" d="M.9,8.654q.321.021.667.021a4.422,4.422,0,0,0,.677-.051,3.037,3.037,0,0,0,.632-.167,1.844,1.844,0,0,0,.54-.321A1.608,1.608,0,0,0,3.8,7.619,2.131,2.131,0,0,0,4,6.87H.6a2.26,2.26,0,0,1,.113-.2l.195-.325q.123-.2.273-.431H3.828a.532.532,0,0,0-.171-.359,1.878,1.878,0,0,0-.414-.325,2.977,2.977,0,0,0-.5-.236A1.275,1.275,0,0,0,2.331,4.9H.6a1.606,1.606,0,0,1,.12-.246q.092-.164.195-.325L1.1,4.047a.777.777,0,0,1,.085-.123H6.877L6.839,4q-.038.075-.1.181L6.6,4.413l-.14.236q-.065.109-.109.181L6.31,4.9h-1.5a4.387,4.387,0,0,1,.25.5,1.777,1.777,0,0,1,.133.516H6.877L6.31,6.87H5.257A2.721,2.721,0,0,1,4.9,7.957a2.642,2.642,0,0,1-.677.749,3.09,3.09,0,0,1-.892.458,5.237,5.237,0,0,1-1.012.222.169.169,0,0,0,.024.044q.024.038.058.085a1.4,1.4,0,0,0,.082.116l3.035,4.19v.171h-1.3L.9,9.557ZM12.985,14V5.516l-1.582.35V5.054L13.377,4.2h.8V14Zm7.084.168a3.924,3.924,0,0,1-2.247-.637,4.064,4.064,0,0,1-1.449-1.778,6.515,6.515,0,0,1-.5-2.653,6.515,6.515,0,0,1,.5-2.653,4.064,4.064,0,0,1,1.449-1.778,3.924,3.924,0,0,1,2.247-.637,3.891,3.891,0,0,1,2.24.637,4.083,4.083,0,0,1,1.442,1.778,6.515,6.515,0,0,1,.5,2.653,6.515,6.515,0,0,1-.5,2.653,4.083,4.083,0,0,1-1.442,1.778A3.891,3.891,0,0,1,20.069,14.168Zm0-1.036a2.581,2.581,0,0,0,1.533-.483,3.177,3.177,0,0,0,1.064-1.386A5.5,5.5,0,0,0,23.051,9.1a5.446,5.446,0,0,0-.385-2.156A3.182,3.182,0,0,0,21.6,5.565a2.685,2.685,0,0,0-3.073,0,3.253,3.253,0,0,0-1.064,1.379A5.36,5.36,0,0,0,17.073,9.1a5.411,5.411,0,0,0,.392,2.163,3.248,3.248,0,0,0,1.064,1.386A2.572,2.572,0,0,0,20.069,13.132Zm4.452,2.534.812-3.094h1.218l-1.218,3.094Zm7.322-1.5a3.924,3.924,0,0,1-2.247-.637,4.064,4.064,0,0,1-1.449-1.778,6.515,6.515,0,0,1-.5-2.653,6.515,6.515,0,0,1,.5-2.653A4.064,4.064,0,0,1,29.6,4.669a4.269,4.269,0,0,1,4.487,0,4.083,4.083,0,0,1,1.442,1.778,6.515,6.515,0,0,1,.5,2.653,6.515,6.515,0,0,1-.5,2.653,4.083,4.083,0,0,1-1.442,1.778A3.891,3.891,0,0,1,31.843,14.168Zm0-1.036a2.581,2.581,0,0,0,1.533-.483,3.177,3.177,0,0,0,1.064-1.386A5.5,5.5,0,0,0,34.825,9.1a5.446,5.446,0,0,0-.385-2.156,3.182,3.182,0,0,0-1.064-1.379,2.685,2.685,0,0,0-3.073,0,3.253,3.253,0,0,0-1.064,1.379A5.36,5.36,0,0,0,28.847,9.1a5.411,5.411,0,0,0,.392,2.163A3.248,3.248,0,0,0,30.3,12.649,2.572,2.572,0,0,0,31.843,13.132Zm9.7,1.036a3.924,3.924,0,0,1-2.247-.637,4.064,4.064,0,0,1-1.449-1.778,6.515,6.515,0,0,1-.5-2.653,6.515,6.515,0,0,1,.5-2.653A4.064,4.064,0,0,1,39.3,4.669a4.269,4.269,0,0,1,4.487,0,4.083,4.083,0,0,1,1.442,1.778,6.515,6.515,0,0,1,.5,2.653,6.515,6.515,0,0,1-.5,2.653,4.083,4.083,0,0,1-1.442,1.778A3.891,3.891,0,0,1,41.545,14.168Zm0-1.036a2.581,2.581,0,0,0,1.533-.483,3.177,3.177,0,0,0,1.064-1.386A5.5,5.5,0,0,0,44.527,9.1a5.446,5.446,0,0,0-.385-2.156,3.182,3.182,0,0,0-1.064-1.379,2.685,2.685,0,0,0-3.073,0,3.253,3.253,0,0,0-1.064,1.379A5.36,5.36,0,0,0,38.549,9.1a5.411,5.411,0,0,0,.392,2.163,3.248,3.248,0,0,0,1.064,1.386A2.572,2.572,0,0,0,41.545,13.132Zm9.7,1.036A3.924,3.924,0,0,1,49,13.531a4.064,4.064,0,0,1-1.449-1.778,6.515,6.515,0,0,1-.5-2.653,6.515,6.515,0,0,1,.5-2.653A4.064,4.064,0,0,1,49,4.669a4.269,4.269,0,0,1,4.487,0,4.083,4.083,0,0,1,1.442,1.778,6.515,6.515,0,0,1,.5,2.653,6.515,6.515,0,0,1-.5,2.653,4.083,4.083,0,0,1-1.442,1.778A3.891,3.891,0,0,1,51.247,14.168Zm0-1.036a2.581,2.581,0,0,0,1.533-.483,3.177,3.177,0,0,0,1.064-1.386A5.5,5.5,0,0,0,54.229,9.1a5.446,5.446,0,0,0-.385-2.156A3.182,3.182,0,0,0,52.78,5.565a2.685,2.685,0,0,0-3.073,0,3.253,3.253,0,0,0-1.064,1.379A5.36,5.36,0,0,0,48.251,9.1a5.411,5.411,0,0,0,.392,2.163,3.248,3.248,0,0,0,1.064,1.386A2.572,2.572,0,0,0,51.247,13.132Z" transform="translate(867 2486)" fill="#fff" opacity="0.7"/>
        <path id="Path_2269" data-name="Path 2269" d="M.9,8.654q.321.021.667.021a4.422,4.422,0,0,0,.677-.051,3.037,3.037,0,0,0,.632-.167,1.844,1.844,0,0,0,.54-.321A1.608,1.608,0,0,0,3.8,7.619,2.131,2.131,0,0,0,4,6.87H.6a2.26,2.26,0,0,1,.113-.2l.195-.325q.123-.2.273-.431H3.828a.532.532,0,0,0-.171-.359,1.878,1.878,0,0,0-.414-.325,2.977,2.977,0,0,0-.5-.236A1.275,1.275,0,0,0,2.331,4.9H.6a1.606,1.606,0,0,1,.12-.246q.092-.164.195-.325L1.1,4.047a.777.777,0,0,1,.085-.123H6.877L6.839,4q-.038.075-.1.181L6.6,4.413l-.14.236q-.065.109-.109.181L6.31,4.9h-1.5a4.387,4.387,0,0,1,.25.5,1.777,1.777,0,0,1,.133.516H6.877L6.31,6.87H5.257A2.721,2.721,0,0,1,4.9,7.957a2.642,2.642,0,0,1-.677.749,3.09,3.09,0,0,1-.892.458,5.237,5.237,0,0,1-1.012.222.169.169,0,0,0,.024.044q.024.038.058.085a1.4,1.4,0,0,0,.082.116l3.035,4.19v.171h-1.3L.9,9.557Zm14.456,5.514A3.932,3.932,0,0,1,13.6,13.8a3.03,3.03,0,0,1-1.183-1,3.172,3.172,0,0,1-.539-1.449h1.148a2.2,2.2,0,0,0,.784,1.309,2.4,2.4,0,0,0,1.554.5,2.153,2.153,0,0,0,1.2-.329,2.179,2.179,0,0,0,.777-.889,2.805,2.805,0,0,0,.273-1.246A2.508,2.508,0,0,0,17,8.932a2.066,2.066,0,0,0-1.6-.672,2.535,2.535,0,0,0-1.386.364,2.173,2.173,0,0,0-.84.952h-1.12L12.9,4.2h5.138V5.222H13.811L13.237,8.2a2.512,2.512,0,0,1,.931-.672,3.314,3.314,0,0,1,1.365-.266,3.056,3.056,0,0,1,2.814,1.666,3.7,3.7,0,0,1,.406,1.75,3.827,3.827,0,0,1-.4,1.736,3.12,3.12,0,0,1-1.162,1.274A3.41,3.41,0,0,1,15.351,14.168Zm9.058,0a3.924,3.924,0,0,1-2.247-.637,4.064,4.064,0,0,1-1.449-1.778,6.515,6.515,0,0,1-.5-2.653,6.515,6.515,0,0,1,.5-2.653,4.064,4.064,0,0,1,1.449-1.778,4.269,4.269,0,0,1,4.487,0,4.083,4.083,0,0,1,1.442,1.778A6.515,6.515,0,0,1,28.6,9.1a6.515,6.515,0,0,1-.5,2.653,4.083,4.083,0,0,1-1.442,1.778A3.891,3.891,0,0,1,24.409,14.168Zm0-1.036a2.581,2.581,0,0,0,1.533-.483,3.177,3.177,0,0,0,1.064-1.386A5.5,5.5,0,0,0,27.391,9.1a5.446,5.446,0,0,0-.385-2.156,3.182,3.182,0,0,0-1.064-1.379,2.685,2.685,0,0,0-3.073,0,3.253,3.253,0,0,0-1.064,1.379A5.36,5.36,0,0,0,21.413,9.1a5.411,5.411,0,0,0,.392,2.163,3.248,3.248,0,0,0,1.064,1.386A2.572,2.572,0,0,0,24.409,13.132Zm4.452,2.534.812-3.094h1.218l-1.218,3.094Zm7.322-1.5a3.924,3.924,0,0,1-2.247-.637,4.064,4.064,0,0,1-1.449-1.778,6.515,6.515,0,0,1-.5-2.653,6.515,6.515,0,0,1,.5-2.653,4.064,4.064,0,0,1,1.449-1.778,4.269,4.269,0,0,1,4.487,0,4.083,4.083,0,0,1,1.442,1.778,6.515,6.515,0,0,1,.5,2.653,6.515,6.515,0,0,1-.5,2.653,4.083,4.083,0,0,1-1.442,1.778A3.891,3.891,0,0,1,36.183,14.168Zm0-1.036a2.581,2.581,0,0,0,1.533-.483,3.177,3.177,0,0,0,1.064-1.386A5.5,5.5,0,0,0,39.165,9.1a5.446,5.446,0,0,0-.385-2.156,3.182,3.182,0,0,0-1.064-1.379,2.685,2.685,0,0,0-3.073,0,3.253,3.253,0,0,0-1.064,1.379A5.36,5.36,0,0,0,33.187,9.1a5.411,5.411,0,0,0,.392,2.163,3.248,3.248,0,0,0,1.064,1.386A2.572,2.572,0,0,0,36.183,13.132Zm9.7,1.036a3.924,3.924,0,0,1-2.247-.637,4.064,4.064,0,0,1-1.449-1.778,6.515,6.515,0,0,1-.5-2.653,6.515,6.515,0,0,1,.5-2.653,4.064,4.064,0,0,1,1.449-1.778,4.269,4.269,0,0,1,4.487,0,4.083,4.083,0,0,1,1.442,1.778,6.515,6.515,0,0,1,.5,2.653,6.515,6.515,0,0,1-.5,2.653,4.083,4.083,0,0,1-1.442,1.778A3.891,3.891,0,0,1,45.885,14.168Zm0-1.036a2.581,2.581,0,0,0,1.533-.483,3.177,3.177,0,0,0,1.064-1.386A5.5,5.5,0,0,0,48.867,9.1a5.446,5.446,0,0,0-.385-2.156,3.182,3.182,0,0,0-1.064-1.379,2.685,2.685,0,0,0-3.073,0,3.253,3.253,0,0,0-1.064,1.379A5.36,5.36,0,0,0,42.889,9.1a5.411,5.411,0,0,0,.392,2.163,3.248,3.248,0,0,0,1.064,1.386A2.572,2.572,0,0,0,45.885,13.132Zm9.7,1.036a3.924,3.924,0,0,1-2.247-.637,4.064,4.064,0,0,1-1.449-1.778,6.515,6.515,0,0,1-.5-2.653,6.515,6.515,0,0,1,.5-2.653A4.064,4.064,0,0,1,53.34,4.669a4.269,4.269,0,0,1,4.487,0,4.083,4.083,0,0,1,1.442,1.778,6.515,6.515,0,0,1,.5,2.653,6.515,6.515,0,0,1-.5,2.653,4.083,4.083,0,0,1-1.442,1.778A3.891,3.891,0,0,1,55.587,14.168Zm0-1.036a2.581,2.581,0,0,0,1.533-.483,3.177,3.177,0,0,0,1.064-1.386A5.5,5.5,0,0,0,58.569,9.1a5.446,5.446,0,0,0-.385-2.156A3.182,3.182,0,0,0,57.12,5.565a2.685,2.685,0,0,0-3.073,0,3.253,3.253,0,0,0-1.064,1.379A5.36,5.36,0,0,0,52.591,9.1a5.411,5.411,0,0,0,.392,2.163,3.248,3.248,0,0,0,1.064,1.386A2.572,2.572,0,0,0,55.587,13.132Z" transform="translate(867 2543)" fill="#fff" opacity="0.7"/>
        <g id="avatar-svgrepo-com-2" transform="translate(818.999 2519.295)">
          <circle id="Ellipse_241" data-name="Ellipse 241" cx="20" cy="20" r="20" transform="translate(0.001 0)" fill="#fdf5e9"/>
          <g id="Group_2341" data-name="Group 2341" transform="translate(0.001 0)">
            <g id="Group_2340" data-name="Group 2340" transform="translate(0 0)" clip-path="url(#clip-path)">
              <path id="Path_2217" data-name="Path 2217" d="M40.862,61.587c0,3.263-1.79,3.347-1.663,5.507.142,2.392,2.012,2.4,2.012,4.043s-1.72,3.488-.2,5.259h7.352V56.445Z" transform="translate(-28.364 -40.849)" fill="#2e576d"/>
              <path id="Path_2218" data-name="Path 2218" d="M79.88,61.2c0,3.263,1.79,3.347,1.663,5.507-.141,2.392-2.011,2.4-2.011,4.043s1.719,3.488.2,5.259H72.375V56.055Z" transform="translate(-52.378 -40.567)" fill="#2e576d"/>
              <g id="Group_2339" data-name="Group 2339" transform="translate(8.672 9.088)">
                <ellipse id="Ellipse_242" data-name="Ellipse 242" cx="8.188" cy="8.241" rx="8.188" ry="8.241" transform="translate(3.14)" fill="#2e576d"/>
                <path id="Path_2219" data-name="Path 2219" d="M52.293,106.536c-1.289-2.441-9.578-3.972-9.578-3.972s-8.289,1.532-9.578,3.972c-.953,3.387-1.75,7.69-1.75,7.69H54.043A37.666,37.666,0,0,0,52.293,106.536Z" transform="translate(-31.387 -83.314)" fill="#f1c9a5"/>
                <path id="Path_2220" data-name="Path 2220" d="M72.387,102.564s8.289,1.532,9.578,3.972a37.646,37.646,0,0,1,1.75,7.69H72.387Z" transform="translate(-61.059 -83.314)" fill="#e4b692"/>
                <rect id="Rectangle_2938" data-name="Rectangle 2938" width="4.513" height="7.553" transform="translate(9.072 14.288)" fill="#f1c9a5"/>
                <rect id="Rectangle_2939" data-name="Rectangle 2939" width="2.257" height="7.553" transform="translate(11.328 14.288)" fill="#e4b692"/>
                <path id="Path_2221" data-name="Path 2221" d="M64.22,88.106c.406,1.165,2.044,1.833,3.247,1.833a4.055,4.055,0,0,0,1.266-.206V84.606H64.22Z" transform="translate(-55.148 -70.318)" fill="#ddac8c" opacity="0.1"/>
                <path id="Path_2222" data-name="Path 2222" d="M62.991,47.974c0-4.717-2.6-7.4-5.8-7.4s-5.8,2.683-5.8,7.4,2.6,8.542,5.8,8.542S62.991,52.692,62.991,47.974Z" transform="translate(-45.861 -38.452)" fill="#f1c9a5"/>
                <path id="Path_2223" data-name="Path 2223" d="M85.97,66.187A2.217,2.217,0,0,1,84.386,63.5c.176-1.368,1.172-2.384,2.224-2.268a2.217,2.217,0,0,1,1.583,2.689C88.017,65.288,87.022,66.3,85.97,66.187Z" transform="translate(-69.723 -53.394)" fill="#e4b692"/>
                <path id="Path_2224" data-name="Path 2224" d="M46.614,63.919A2.217,2.217,0,0,1,48.2,61.23c1.053-.116,2.049.9,2.226,2.268a2.219,2.219,0,0,1-1.584,2.689C47.785,66.3,46.79,65.288,46.614,63.919Z" transform="translate(-42.387 -53.394)" fill="#f1c9a5"/>
                <path id="Path_2225" data-name="Path 2225" d="M78.189,47.974c0-4.717-2.6-7.4-5.8-7.4V56.516C75.591,56.516,78.189,52.692,78.189,47.974Z" transform="translate(-61.059 -38.452)" fill="#e4b692"/>
              </g>
              <path id="Path_2226" data-name="Path 2226" d="M62.231,45.621c0-.014,0-.028,0-.041,0-3.66-2.478-7.521-5.945-7.521s-6.612,3.862-6.612,7.521c0,.014,0,.028,0,.041H62.231Z" transform="translate(-35.95 -27.543)" fill="#2e576d"/>
              <path id="Path_2227" data-name="Path 2227" d="M54.043,116.533a37.646,37.646,0,0,0-1.75-7.69c-.707-1.339-3.518-2.4-5.914-3.091l-3.672,2.882-3.82-2.835c-2.358.69-5.059,1.736-5.75,3.044-.953,3.387-1.75,7.69-1.75,7.69H54.043Z" transform="translate(-22.715 -76.532)" fill="#721bf5"/>
            </g>
          </g>
        </g>
        <rect id="Rectangle_2910" data-name="Rectangle 2910" width="341" height="150" rx="10" transform="translate(799 2442)" fill="url(#linear-gradient)"/>
      </g>
      <g id="Group_2279" data-name="Group 2279" transform="translate(-69 -15)">
        <g transform="matrix(1, 0, 0, 1, 730, 2426)" filter="url(#Ellipse_227)">
          <circle id="Ellipse_227-2" data-name="Ellipse 227" cx="4" cy="4" r="4" transform="translate(310 50)" fill="#1eefb0"/>
        </g>
        <g id="Mask_Group_6" data-name="Mask Group 6" transform="translate(-77 194)" clip-path="url(#clip-path-3)">
          <g id="Rectangle_2911" data-name="Rectangle 2911" transform="translate(1105 2285)" fill="none" stroke="#71ecb4" stroke-width="1">
            <rect width="104" height="133" rx="10" stroke="none"/>
            <rect x="0.5" y="0.5" width="103" height="132" rx="9.5" fill="none"/>
          </g>
        </g>
      </g>
      <g id="Group_2277" data-name="Group 2277" transform="translate(-61 -34)">
        <g transform="matrix(1, 0, 0, 1, 722, 2445)" filter="url(#Union_10)">
          <path id="Union_10-2" data-name="Union 10" d="M-1655,3271.295a5,5,0,0,1-5-5V3017.289a5,5,0,0,1,5-5h106c0-13.414,10.3-24.288,23-24.288s23,10.875,23,24.288h105a5,5,0,0,1,5,5v249.006a5,5,0,0,1-5,5Z" transform="translate(1927 -2923)" fill="#17243f"/>
        </g>
        <circle id="Ellipse_229" data-name="Ellipse 229" cx="21" cy="21" r="21" transform="translate(1102 2512)" fill="#fff"/>
        <path id="Path_2260" data-name="Path 2260" d="M1.224,0V-12.6H5.85a5.356,5.356,0,0,1,2.493.513A3.458,3.458,0,0,1,9.81-10.7,3.91,3.91,0,0,1,10.3-8.766a3.863,3.863,0,0,1-.6,2.106A3.421,3.421,0,0,1,7.812-5.274L10.422,0H7.776L5.436-4.968H3.528V0Zm2.3-6.66H5.706A2.263,2.263,0,0,0,7.4-7.218a2.033,2.033,0,0,0,.54-1.476,1.965,1.965,0,0,0-.531-1.44,2.334,2.334,0,0,0-1.719-.54H3.528ZM16.128.216A4.6,4.6,0,0,1,13.8-.378a4.361,4.361,0,0,1-1.638-1.647,4.821,4.821,0,0,1-.6-2.439A4.765,4.765,0,0,1,12.168-6.9,4.427,4.427,0,0,1,13.815-8.55a4.6,4.6,0,0,1,2.331-.594,4.563,4.563,0,0,1,2.313.594A4.361,4.361,0,0,1,20.1-6.9a4.821,4.821,0,0,1,.6,2.439,4.821,4.821,0,0,1-.6,2.439A4.342,4.342,0,0,1,18.45-.378,4.612,4.612,0,0,1,16.128.216Zm0-2a2.129,2.129,0,0,0,1.566-.675,2.746,2.746,0,0,0,.666-2.007,2.746,2.746,0,0,0-.666-2.007,2.11,2.11,0,0,0-1.548-.675,2.12,2.12,0,0,0-1.575.675,2.769,2.769,0,0,0-.657,2.007,2.769,2.769,0,0,0,.657,2.007A2.1,2.1,0,0,0,16.128-1.782Zm10.314,2a5.249,5.249,0,0,1-2.088-.387,3.607,3.607,0,0,1-1.44-1.071,3.1,3.1,0,0,1-.648-1.584h2.322a1.5,1.5,0,0,0,.585.891,1.958,1.958,0,0,0,1.233.369,1.66,1.66,0,0,0,1.107-.306.912.912,0,0,0,.351-.7.773.773,0,0,0-.5-.783,8.881,8.881,0,0,0-1.4-.405q-.576-.126-1.17-.306A5.4,5.4,0,0,1,23.7-4.527a2.38,2.38,0,0,1-.8-.72,1.864,1.864,0,0,1-.306-1.089,2.531,2.531,0,0,1,.945-2,3.956,3.956,0,0,1,2.655-.81,4,4,0,0,1,2.529.738,2.991,2.991,0,0,1,1.125,2.034H27.666q-.2-.99-1.494-.99a1.7,1.7,0,0,0-1,.252.752.752,0,0,0-.351.63q0,.4.522.63a7.667,7.667,0,0,0,1.386.432q.936.216,1.719.477a2.889,2.889,0,0,1,1.251.774A2.1,2.1,0,0,1,30.168-2.7a2.507,2.507,0,0,1-.432,1.494,2.984,2.984,0,0,1-1.3,1.044A4.866,4.866,0,0,1,26.442.216ZM32.2,0V-12.96h2.3v5.4a3.226,3.226,0,0,1,1.215-1.161,3.566,3.566,0,0,1,1.755-.423A3.219,3.219,0,0,1,40.041-8.1a4.535,4.535,0,0,1,.909,3.06V0H38.664V-4.824A2.9,2.9,0,0,0,38.2-6.588,1.693,1.693,0,0,0,36.756-7.2a2.111,2.111,0,0,0-1.611.684,2.687,2.687,0,0,0-.639,1.908V0ZM46.224.216a4.224,4.224,0,0,1-1.89-.369,2.553,2.553,0,0,1-1.1-.981,2.614,2.614,0,0,1-.36-1.35A2.456,2.456,0,0,1,43.848-4.5a4.622,4.622,0,0,1,2.916-.774h2.268V-5.49a1.653,1.653,0,0,0-.522-1.35,1.965,1.965,0,0,0-1.3-.432,2.226,2.226,0,0,0-1.224.333,1.434,1.434,0,0,0-.648.981h-2.25a3.14,3.14,0,0,1,.657-1.692,3.678,3.678,0,0,1,1.467-1.107,5.054,5.054,0,0,1,2.016-.387,4.429,4.429,0,0,1,3.006.954,3.385,3.385,0,0,1,1.1,2.7V0H49.374l-.216-1.44A3.328,3.328,0,0,1,48.051-.252,3.264,3.264,0,0,1,46.224.216Zm.522-1.8a1.907,1.907,0,0,0,1.539-.648,3.147,3.147,0,0,0,.693-1.6H47.016A2.046,2.046,0,0,0,45.7-3.5a1.031,1.031,0,0,0-.4.819.943.943,0,0,0,.4.81A1.735,1.735,0,0,0,46.746-1.584ZM53.532,0V-8.928h2.034l.18,1.512a3.139,3.139,0,0,1,1.2-1.26,3.529,3.529,0,0,1,1.845-.468A3.247,3.247,0,0,1,61.362-8.1a4.5,4.5,0,0,1,.918,3.06V0h-2.3V-4.824a2.86,2.86,0,0,0-.468-1.764A1.718,1.718,0,0,0,58.05-7.2a2.055,2.055,0,0,0-1.593.684,2.736,2.736,0,0,0-.621,1.908V0Zm20.79.216a5.875,5.875,0,0,1-3.114-.81,5.506,5.506,0,0,1-2.07-2.259A7.341,7.341,0,0,1,68.4-6.228a7.384,7.384,0,0,1,.765-3.429,5.647,5.647,0,0,1,2.178-2.322,6.468,6.468,0,0,1,3.357-.837,6.074,6.074,0,0,1,3.672,1.062,4.842,4.842,0,0,1,1.89,2.934H77.688A2.536,2.536,0,0,0,76.644-10.2a3.487,3.487,0,0,0-1.944-.495,3.631,3.631,0,0,0-2.916,1.2A4.884,4.884,0,0,0,70.758-6.21a4.7,4.7,0,0,0,1.017,3.231,3.511,3.511,0,0,0,2.763,1.143,3.382,3.382,0,0,0,2.583-.927A4.164,4.164,0,0,0,78.174-5.2H74.988V-6.93H80.5V0H78.372l-.18-1.656A4.223,4.223,0,0,1,76.662-.27,4.978,4.978,0,0,1,74.322.216Zm11.43,0a4.224,4.224,0,0,1-1.89-.369,2.553,2.553,0,0,1-1.1-.981,2.614,2.614,0,0,1-.36-1.35A2.456,2.456,0,0,1,83.376-4.5a4.622,4.622,0,0,1,2.916-.774H88.56V-5.49a1.653,1.653,0,0,0-.522-1.35,1.965,1.965,0,0,0-1.3-.432,2.226,2.226,0,0,0-1.224.333,1.434,1.434,0,0,0-.648.981H82.62a3.14,3.14,0,0,1,.657-1.692,3.678,3.678,0,0,1,1.467-1.107,5.054,5.054,0,0,1,2.016-.387,4.429,4.429,0,0,1,3.006.954,3.385,3.385,0,0,1,1.1,2.7V0H88.9l-.216-1.44A3.327,3.327,0,0,1,87.579-.252,3.264,3.264,0,0,1,85.752.216Zm.522-1.8a1.907,1.907,0,0,0,1.539-.648,3.147,3.147,0,0,0,.693-1.6H86.544A2.046,2.046,0,0,0,85.23-3.5a1.031,1.031,0,0,0-.4.819.943.943,0,0,0,.4.81A1.735,1.735,0,0,0,86.274-1.584Zm8.028-8.73a1.457,1.457,0,0,1-1.035-.378,1.249,1.249,0,0,1-.4-.954,1.221,1.221,0,0,1,.4-.945A1.477,1.477,0,0,1,94.3-12.96a1.477,1.477,0,0,1,1.035.369,1.221,1.221,0,0,1,.4.945,1.249,1.249,0,0,1-.4.954A1.457,1.457,0,0,1,94.3-10.314ZM93.15,0V-8.928h2.3V0Zm4.716,0V-12.96h2.3v7.65l3.168-3.618h2.736L102.42-4.86,106.668,0h-2.88L100.17-4.482V0Zm11.97,0-2.61-8.928h2.286L111.06-2.5l1.8-6.426h2.556l1.8,6.426,1.566-6.426h2.286L118.44,0h-2.394l-1.908-6.678L112.23,0Zm15.318.216a4.224,4.224,0,0,1-1.89-.369,2.553,2.553,0,0,1-1.1-.981,2.614,2.614,0,0,1-.36-1.35,2.456,2.456,0,0,1,.972-2.016,4.622,4.622,0,0,1,2.916-.774h2.268V-5.49a1.653,1.653,0,0,0-.522-1.35,1.965,1.965,0,0,0-1.3-.432,2.226,2.226,0,0,0-1.224.333,1.434,1.434,0,0,0-.648.981h-2.25a3.14,3.14,0,0,1,.657-1.692,3.678,3.678,0,0,1,1.467-1.107,5.054,5.054,0,0,1,2.016-.387,4.429,4.429,0,0,1,3.006.954,3.385,3.385,0,0,1,1.1,2.7V0H128.3l-.216-1.44a3.327,3.327,0,0,1-1.107,1.188A3.264,3.264,0,0,1,125.154.216Zm.522-1.8a1.907,1.907,0,0,0,1.539-.648,3.147,3.147,0,0,0,.693-1.6h-1.962a2.046,2.046,0,0,0-1.314.333,1.031,1.031,0,0,0-.4.819.943.943,0,0,0,.4.81A1.735,1.735,0,0,0,125.676-1.584Zm10.89,1.8a4.191,4.191,0,0,1-2.25-.612A4.385,4.385,0,0,1,132.75-2.07a4.977,4.977,0,0,1-.576-2.412,4.925,4.925,0,0,1,.576-2.4,4.334,4.334,0,0,1,1.566-1.656,4.238,4.238,0,0,1,2.25-.6,3.9,3.9,0,0,1,1.764.378A3.179,3.179,0,0,1,139.554-7.7V-12.96h2.3V0h-2.052l-.252-1.278a4.1,4.1,0,0,1-1.143,1.044A3.4,3.4,0,0,1,136.566.216Zm.486-2.016a2.411,2.411,0,0,0,1.827-.747,2.667,2.667,0,0,0,.711-1.917,2.667,2.667,0,0,0-.711-1.917,2.411,2.411,0,0,0-1.827-.747,2.433,2.433,0,0,0-1.818.738,2.617,2.617,0,0,0-.72,1.908,2.68,2.68,0,0,0,.72,1.926A2.4,2.4,0,0,0,137.052-1.8Z" transform="translate(1052 2579)" fill="#fff"/>
        <g id="Group_2273" data-name="Group 2273" transform="translate(10 59)">
          <path id="Path_2263" data-name="Path 2263" d="M1.088,0V-11.2h4.5a3.919,3.919,0,0,1,2.664.808,2.633,2.633,0,0,1,.92,2.072A2.43,2.43,0,0,1,8.6-6.632a2.833,2.833,0,0,1-1.384.856A2.67,2.67,0,0,1,8.8-4.824a2.7,2.7,0,0,1,.624,1.768,2.82,2.82,0,0,1-.96,2.192A3.927,3.927,0,0,1,5.744,0ZM3.136-6.5H5.28a1.975,1.975,0,0,0,1.328-.4,1.419,1.419,0,0,0,.464-1.136,1.417,1.417,0,0,0-.456-1.112,2,2,0,0,0-1.368-.408H3.136Zm0,4.832H5.424A2.137,2.137,0,0,0,6.84-2.088a1.472,1.472,0,0,0,.5-1.192,1.53,1.53,0,0,0-.528-1.232A2.129,2.129,0,0,0,5.392-4.96H3.136ZM13.872.192a3.754,3.754,0,0,1-1.68-.328,2.27,2.27,0,0,1-.976-.872,2.323,2.323,0,0,1-.32-1.2A2.183,2.183,0,0,1,11.76-4a4.109,4.109,0,0,1,2.592-.688h2.016V-4.88a1.469,1.469,0,0,0-.464-1.2,1.747,1.747,0,0,0-1.152-.384,1.979,1.979,0,0,0-1.088.3,1.274,1.274,0,0,0-.576.872h-2a2.791,2.791,0,0,1,.584-1.5,3.269,3.269,0,0,1,1.3-.984,4.493,4.493,0,0,1,1.792-.344,3.937,3.937,0,0,1,2.672.848,3.009,3.009,0,0,1,.976,2.4V0H16.672L16.48-1.28A2.958,2.958,0,0,1,15.5-.224,2.9,2.9,0,0,1,13.872.192Zm.464-1.6A1.7,1.7,0,0,0,15.7-1.984a2.8,2.8,0,0,0,.616-1.424H14.576a1.819,1.819,0,0,0-1.168.3.916.916,0,0,0-.352.728.839.839,0,0,0,.352.72A1.542,1.542,0,0,0,14.336-1.408ZM20.368,0V-7.936h1.808l.16,1.344A2.79,2.79,0,0,1,23.4-7.712a3.136,3.136,0,0,1,1.64-.416,2.886,2.886,0,0,1,2.288.928,4,4,0,0,1,.816,2.72V0H26.1V-4.288a2.542,2.542,0,0,0-.416-1.568,1.528,1.528,0,0,0-1.3-.544,1.826,1.826,0,0,0-1.416.608,2.432,2.432,0,0,0-.552,1.7V0ZM30.1,0V-11.52h2.048v6.8L34.96-7.936h2.432L34.144-4.32,37.92,0H35.36L32.144-3.984V0ZM42.32,0l4.1-11.2h2.3L52.816,0H50.64l-.9-2.592H45.376L44.464,0Zm3.616-4.192h3.248L47.552-8.848ZM57.728.192a4.26,4.26,0,0,1-2.144-.528A3.844,3.844,0,0,1,54.12-1.808a4.3,4.3,0,0,1-.536-2.16,4.3,4.3,0,0,1,.536-2.16A3.844,3.844,0,0,1,55.584-7.6a4.26,4.26,0,0,1,2.144-.528,4.1,4.1,0,0,1,2.56.792,3.541,3.541,0,0,1,1.328,2.184h-2.16a1.579,1.579,0,0,0-.632-.9,1.9,1.9,0,0,0-1.112-.328,1.889,1.889,0,0,0-1.44.64,2.516,2.516,0,0,0-.592,1.776,2.516,2.516,0,0,0,.592,1.776,1.889,1.889,0,0,0,1.44.64,1.934,1.934,0,0,0,1.112-.32,1.547,1.547,0,0,0,.632-.912h2.16a3.619,3.619,0,0,1-1.328,2.16A4.02,4.02,0,0,1,57.728.192Zm9.6,0a4.26,4.26,0,0,1-2.144-.528A3.844,3.844,0,0,1,63.72-1.808a4.3,4.3,0,0,1-.536-2.16,4.3,4.3,0,0,1,.536-2.16A3.844,3.844,0,0,1,65.184-7.6a4.26,4.26,0,0,1,2.144-.528,4.1,4.1,0,0,1,2.56.792,3.541,3.541,0,0,1,1.328,2.184h-2.16a1.579,1.579,0,0,0-.632-.9,1.9,1.9,0,0,0-1.112-.328,1.889,1.889,0,0,0-1.44.64,2.516,2.516,0,0,0-.592,1.776,2.516,2.516,0,0,0,.592,1.776,1.889,1.889,0,0,0,1.44.64,1.934,1.934,0,0,0,1.112-.32,1.547,1.547,0,0,0,.632-.912h2.16a3.619,3.619,0,0,1-1.328,2.16A4.02,4.02,0,0,1,67.328.192Zm9.52,0a4.087,4.087,0,0,1-2.072-.528A3.877,3.877,0,0,1,73.32-1.8a4.286,4.286,0,0,1-.536-2.168,4.236,4.236,0,0,1,.544-2.168A3.935,3.935,0,0,1,74.792-7.6a4.087,4.087,0,0,1,2.072-.528A4.056,4.056,0,0,1,78.92-7.6a3.877,3.877,0,0,1,1.456,1.464,4.286,4.286,0,0,1,.536,2.168A4.286,4.286,0,0,1,80.376-1.8,3.86,3.86,0,0,1,78.912-.336,4.1,4.1,0,0,1,76.848.192Zm0-1.776a1.893,1.893,0,0,0,1.392-.6,2.441,2.441,0,0,0,.592-1.784,2.441,2.441,0,0,0-.592-1.784,1.875,1.875,0,0,0-1.376-.6,1.885,1.885,0,0,0-1.4.6,2.462,2.462,0,0,0-.584,1.784,2.462,2.462,0,0,0,.584,1.784A1.867,1.867,0,0,0,76.848-1.584ZM85.712.192a2.881,2.881,0,0,1-2.3-.928,4.031,4.031,0,0,1-.808-2.72v-4.48H84.64v4.288a2.542,2.542,0,0,0,.416,1.568,1.546,1.546,0,0,0,1.312.544,1.808,1.808,0,0,0,1.4-.608,2.432,2.432,0,0,0,.552-1.7v-4.1h2.048V0H88.56L88.4-1.344a2.79,2.79,0,0,1-1.064,1.12A3.1,3.1,0,0,1,85.712.192ZM92.464,0V-7.936h1.808l.16,1.344A2.79,2.79,0,0,1,95.5-7.712a3.136,3.136,0,0,1,1.64-.416,2.886,2.886,0,0,1,2.288.928,4,4,0,0,1,.816,2.72V0H98.192V-4.288a2.542,2.542,0,0,0-.416-1.568,1.528,1.528,0,0,0-1.3-.544,1.826,1.826,0,0,0-1.416.608,2.432,2.432,0,0,0-.552,1.7V0Zm13.264,0a3.086,3.086,0,0,1-2-.608,2.644,2.644,0,0,1-.752-2.16V-6.224h-1.36V-7.936h1.36l.24-2.128h1.808v2.128h2.144v1.712h-2.144v3.472a1.019,1.019,0,0,0,.248.792,1.312,1.312,0,0,0,.856.216h.992V0Zm6.48.192a4.665,4.665,0,0,1-1.856-.344,3.206,3.206,0,0,1-1.28-.952,2.756,2.756,0,0,1-.576-1.408h2.064a1.329,1.329,0,0,0,.52.792,1.74,1.74,0,0,0,1.1.328,1.475,1.475,0,0,0,.984-.272.811.811,0,0,0,.312-.624.687.687,0,0,0-.448-.7,7.9,7.9,0,0,0-1.248-.36q-.512-.112-1.04-.272a4.8,4.8,0,0,1-.968-.408,2.116,2.116,0,0,1-.712-.64,1.657,1.657,0,0,1-.272-.968,2.25,2.25,0,0,1,.84-1.776,3.517,3.517,0,0,1,2.36-.72,3.555,3.555,0,0,1,2.248.656,2.659,2.659,0,0,1,1,1.808H113.3q-.176-.88-1.328-.88a1.506,1.506,0,0,0-.888.224.668.668,0,0,0-.312.56q0,.352.464.56a6.815,6.815,0,0,0,1.232.384q.832.192,1.528.424A2.568,2.568,0,0,1,115.1-3.7a1.868,1.868,0,0,1,.416,1.3,2.228,2.228,0,0,1-.384,1.328,2.653,2.653,0,0,1-1.152.928A4.325,4.325,0,0,1,112.208.192Z" transform="translate(1005 2618)" fill="#fff" opacity="0.9"/>
          <path id="Path_2264" data-name="Path 2264" d="M.882,0V-.826q.994-.784,1.883-1.589A20.251,20.251,0,0,0,4.347-4a7.976,7.976,0,0,0,1.092-1.54A3.118,3.118,0,0,0,5.838-7a2.632,2.632,0,0,0-.175-.966A1.544,1.544,0,0,0,5.1-8.687,1.833,1.833,0,0,0,4.032-8.96a1.913,1.913,0,0,0-1.078.287A1.784,1.784,0,0,0,2.3-7.91a2.434,2.434,0,0,0-.217,1.022H.952a3.226,3.226,0,0,1,.406-1.659A2.709,2.709,0,0,1,2.464-9.6a3.378,3.378,0,0,1,1.582-.364,3.108,3.108,0,0,1,2.135.735,2.768,2.768,0,0,1,.833,2.191A3.725,3.725,0,0,1,6.58-5.327,8.569,8.569,0,0,1,5.474-3.689,15.334,15.334,0,0,1,4.039-2.212Q3.276-1.526,2.618-.98H7.35V0ZM12.726.168a3.924,3.924,0,0,1-2.247-.637A4.064,4.064,0,0,1,9.03-2.247a6.515,6.515,0,0,1-.5-2.653,6.515,6.515,0,0,1,.5-2.653,4.064,4.064,0,0,1,1.449-1.778,3.924,3.924,0,0,1,2.247-.637,3.891,3.891,0,0,1,2.24.637,4.083,4.083,0,0,1,1.442,1.778,6.515,6.515,0,0,1,.5,2.653,6.515,6.515,0,0,1-.5,2.653A4.083,4.083,0,0,1,14.966-.469,3.891,3.891,0,0,1,12.726.168Zm0-1.036a2.581,2.581,0,0,0,1.533-.483,3.177,3.177,0,0,0,1.064-1.386A5.5,5.5,0,0,0,15.708-4.9a5.446,5.446,0,0,0-.385-2.156,3.182,3.182,0,0,0-1.064-1.379,2.581,2.581,0,0,0-1.533-.483,2.572,2.572,0,0,0-1.54.483,3.253,3.253,0,0,0-1.064,1.379A5.36,5.36,0,0,0,9.73-4.9a5.411,5.411,0,0,0,.392,2.163,3.248,3.248,0,0,0,1.064,1.386A2.572,2.572,0,0,0,12.726-.868ZM22.134.168a3.686,3.686,0,0,1-1.792-.4A3.23,3.23,0,0,1,19.173-1.3a4.783,4.783,0,0,1-.644-1.5,7.158,7.158,0,0,1-.2-1.7,8.28,8.28,0,0,1,.448-2.849,4.331,4.331,0,0,1,1.3-1.918,3.134,3.134,0,0,1,2.051-.693A3.222,3.222,0,0,1,23.7-9.6a2.83,2.83,0,0,1,1.043.973,3.306,3.306,0,0,1,.483,1.351H24.136a2.019,2.019,0,0,0-.686-1.232,2.057,2.057,0,0,0-1.344-.434A2.22,2.22,0,0,0,20.251-7.9a5.9,5.9,0,0,0-.805,3.255,3.027,3.027,0,0,1,1.071-1.141,3.153,3.153,0,0,1,1.771-.483,3.3,3.3,0,0,1,1.575.392,3.221,3.221,0,0,1,1.2,1.1,2.964,2.964,0,0,1,.462,1.659,3.3,3.3,0,0,1-.406,1.582A3.249,3.249,0,0,1,23.947-.308,3.355,3.355,0,0,1,22.134.168ZM22.05-.868a2.433,2.433,0,0,0,1.176-.28,2.065,2.065,0,0,0,.812-.777,2.2,2.2,0,0,0,.294-1.141,2.048,2.048,0,0,0-.651-1.589A2.326,2.326,0,0,0,22.05-5.25a2.3,2.3,0,0,0-1.176.3,2.258,2.258,0,0,0-.819.805,2.092,2.092,0,0,0-.3,1.092,2.132,2.132,0,0,0,.3,1.127,2.116,2.116,0,0,0,.819.777A2.433,2.433,0,0,0,22.05-.868ZM27.874,0l3.892-8.792H26.39V-9.8h6.58v.882L29.12,0ZM37.52.168a4.08,4.08,0,0,1-1.736-.357,2.938,2.938,0,0,1-1.211-.994,2.531,2.531,0,0,1-.441-1.477,2.65,2.65,0,0,1,.525-1.61,2.5,2.5,0,0,1,1.393-.952,2.436,2.436,0,0,1-1.232-.854,2.122,2.122,0,0,1-.434-1.288,2.392,2.392,0,0,1,.378-1.309,2.639,2.639,0,0,1,1.078-.945,3.721,3.721,0,0,1,1.68-.35,3.721,3.721,0,0,1,1.68.35,2.639,2.639,0,0,1,1.078.945,2.392,2.392,0,0,1,.378,1.309,2.132,2.132,0,0,1-.434,1.281,2.419,2.419,0,0,1-1.232.861,2.5,2.5,0,0,1,1.393.952,2.65,2.65,0,0,1,.525,1.61,2.531,2.531,0,0,1-.441,1.477,2.938,2.938,0,0,1-1.211.994A4.08,4.08,0,0,1,37.52.168Zm0-5.81A2.1,2.1,0,0,0,38.941-6.1a1.507,1.507,0,0,0,.525-1.2,1.509,1.509,0,0,0-.518-1.246,2.206,2.206,0,0,0-1.428-.42,2.177,2.177,0,0,0-1.421.42,1.519,1.519,0,0,0-.511,1.246,1.516,1.516,0,0,0,.518,1.2A2.068,2.068,0,0,0,37.52-5.642Zm0,4.774a2.37,2.37,0,0,0,1.659-.511,1.752,1.752,0,0,0,.553-1.351,1.75,1.75,0,0,0-.6-1.442,2.474,2.474,0,0,0-1.61-.49,2.474,2.474,0,0,0-1.61.49,1.75,1.75,0,0,0-.6,1.442,1.752,1.752,0,0,0,.553,1.351A2.37,2.37,0,0,0,37.52-.868ZM46.158.168A3.932,3.932,0,0,1,44.408-.2a3.03,3.03,0,0,1-1.183-1,3.172,3.172,0,0,1-.539-1.449h1.148a2.2,2.2,0,0,0,.784,1.309,2.4,2.4,0,0,0,1.554.5,2.153,2.153,0,0,0,1.2-.329,2.179,2.179,0,0,0,.777-.889A2.805,2.805,0,0,0,48.426-3.3a2.508,2.508,0,0,0-.616-1.764,2.066,2.066,0,0,0-1.6-.672,2.535,2.535,0,0,0-1.386.364,2.173,2.173,0,0,0-.84.952h-1.12l.84-5.376h5.138v1.022H44.618L44.044-5.8a2.512,2.512,0,0,1,.931-.672,3.314,3.314,0,0,1,1.365-.266,3.13,3.13,0,0,1,1.687.448,3.116,3.116,0,0,1,1.127,1.218,3.7,3.7,0,0,1,.406,1.75,3.827,3.827,0,0,1-.4,1.736A3.12,3.12,0,0,1,48-.308,3.41,3.41,0,0,1,46.158.168Zm8.288,0a4.055,4.055,0,0,1-1.694-.343A2.824,2.824,0,0,1,51.541-1.2a3.189,3.189,0,0,1-.483-1.708h1.19a2.094,2.094,0,0,0,.588,1.449,2.105,2.105,0,0,0,1.61.609,2.011,2.011,0,0,0,1.561-.574,1.981,1.981,0,0,0,.525-1.386,1.8,1.8,0,0,0-.329-1.12,1.943,1.943,0,0,0-.882-.644,3.385,3.385,0,0,0-1.211-.21h-.728v-.994h.728A2.316,2.316,0,0,0,55.6-6.216a1.475,1.475,0,0,0,.539-1.218,1.47,1.47,0,0,0-.427-1.085,1.719,1.719,0,0,0-1.267-.427,1.774,1.774,0,0,0-1.3.483A1.839,1.839,0,0,0,52.6-7.252h-1.19a2.909,2.909,0,0,1,.427-1.414,2.627,2.627,0,0,1,1.057-.959,3.373,3.373,0,0,1,1.554-.343,3.38,3.38,0,0,1,1.589.336,2.368,2.368,0,0,1,.966.9A2.388,2.388,0,0,1,57.33-7.5a2.383,2.383,0,0,1-.406,1.351,2,2,0,0,1-1.218.819,2.593,2.593,0,0,1,1.442.826,2.451,2.451,0,0,1,.574,1.694,3.059,3.059,0,0,1-.371,1.491,2.734,2.734,0,0,1-1.1,1.085A3.666,3.666,0,0,1,54.446.168ZM60.2,0l3.892-8.792H58.716V-9.8H65.3v.882L61.446,0Zm6.132,0V-.826q.994-.784,1.883-1.589A20.251,20.251,0,0,0,69.8-4a7.976,7.976,0,0,0,1.092-1.54A3.118,3.118,0,0,0,71.288-7a2.632,2.632,0,0,0-.175-.966,1.544,1.544,0,0,0-.567-.721,1.833,1.833,0,0,0-1.064-.273,1.913,1.913,0,0,0-1.078.287,1.784,1.784,0,0,0-.651.763,2.434,2.434,0,0,0-.217,1.022H66.4a3.226,3.226,0,0,1,.406-1.659A2.709,2.709,0,0,1,67.914-9.6,3.378,3.378,0,0,1,69.5-9.968a3.108,3.108,0,0,1,2.135.735,2.768,2.768,0,0,1,.833,2.191,3.725,3.725,0,0,1-.434,1.715,8.569,8.569,0,0,1-1.106,1.638,15.334,15.334,0,0,1-1.435,1.477q-.763.686-1.421,1.232H72.8V0ZM77.826.168A3.932,3.932,0,0,1,76.076-.2a3.03,3.03,0,0,1-1.183-1,3.172,3.172,0,0,1-.539-1.449H75.5a2.2,2.2,0,0,0,.784,1.309,2.4,2.4,0,0,0,1.554.5,2.153,2.153,0,0,0,1.2-.329,2.179,2.179,0,0,0,.777-.889A2.805,2.805,0,0,0,80.094-3.3a2.508,2.508,0,0,0-.616-1.764,2.066,2.066,0,0,0-1.6-.672,2.535,2.535,0,0,0-1.386.364,2.173,2.173,0,0,0-.84.952h-1.12l.84-5.376h5.138v1.022H76.286L75.712-5.8a2.512,2.512,0,0,1,.931-.672,3.314,3.314,0,0,1,1.365-.266,3.13,3.13,0,0,1,1.687.448,3.116,3.116,0,0,1,1.127,1.218,3.7,3.7,0,0,1,.406,1.75,3.827,3.827,0,0,1-.4,1.736A3.12,3.12,0,0,1,79.667-.308,3.41,3.41,0,0,1,77.826.168ZM84.028,0V-8.484l-1.582.35v-.812L84.42-9.8h.8V0Zm3.108,0V-.826q.994-.784,1.883-1.589A20.251,20.251,0,0,0,90.6-4a7.976,7.976,0,0,0,1.092-1.54A3.118,3.118,0,0,0,92.092-7a2.632,2.632,0,0,0-.175-.966,1.544,1.544,0,0,0-.567-.721,1.833,1.833,0,0,0-1.064-.273,1.913,1.913,0,0,0-1.078.287,1.784,1.784,0,0,0-.651.763,2.434,2.434,0,0,0-.217,1.022H87.206a3.226,3.226,0,0,1,.406-1.659A2.709,2.709,0,0,1,88.718-9.6,3.378,3.378,0,0,1,90.3-9.968a3.108,3.108,0,0,1,2.135.735,2.768,2.768,0,0,1,.833,2.191,3.725,3.725,0,0,1-.434,1.715,8.569,8.569,0,0,1-1.106,1.638,15.334,15.334,0,0,1-1.435,1.477q-.763.686-1.421,1.232H93.6V0Z" transform="translate(1005 2641)" fill="#fff" opacity="0.7"/>
          <path id="Path_2265" data-name="Path 2265" d="M4.088.168A4.055,4.055,0,0,1,2.394-.175,2.824,2.824,0,0,1,1.183-1.2,3.189,3.189,0,0,1,.7-2.912H1.89a2.094,2.094,0,0,0,.588,1.449,2.105,2.105,0,0,0,1.61.609,2.011,2.011,0,0,0,1.561-.574,1.981,1.981,0,0,0,.525-1.386,1.8,1.8,0,0,0-.329-1.12,1.943,1.943,0,0,0-.882-.644,3.385,3.385,0,0,0-1.211-.21H3.024v-.994h.728a2.316,2.316,0,0,0,1.491-.434,1.475,1.475,0,0,0,.539-1.218,1.47,1.47,0,0,0-.427-1.085,1.719,1.719,0,0,0-1.267-.427,1.774,1.774,0,0,0-1.3.483A1.839,1.839,0,0,0,2.24-7.252H1.05a2.909,2.909,0,0,1,.427-1.414,2.627,2.627,0,0,1,1.057-.959,3.373,3.373,0,0,1,1.554-.343,3.38,3.38,0,0,1,1.589.336,2.368,2.368,0,0,1,.966.9A2.388,2.388,0,0,1,6.972-7.5a2.383,2.383,0,0,1-.406,1.351,2,2,0,0,1-1.218.819,2.592,2.592,0,0,1,1.442.826,2.451,2.451,0,0,1,.574,1.694,3.059,3.059,0,0,1-.371,1.491,2.734,2.734,0,0,1-1.1,1.085A3.666,3.666,0,0,1,4.088.168ZM9.114,0V-.826Q10.108-1.61,11-2.415A20.251,20.251,0,0,0,12.579-4a7.976,7.976,0,0,0,1.092-1.54A3.118,3.118,0,0,0,14.07-7a2.632,2.632,0,0,0-.175-.966,1.544,1.544,0,0,0-.567-.721,1.833,1.833,0,0,0-1.064-.273,1.913,1.913,0,0,0-1.078.287,1.784,1.784,0,0,0-.651.763,2.434,2.434,0,0,0-.217,1.022H9.184A3.226,3.226,0,0,1,9.59-8.547,2.709,2.709,0,0,1,10.7-9.6a3.378,3.378,0,0,1,1.582-.364,3.108,3.108,0,0,1,2.135.735,2.768,2.768,0,0,1,.833,2.191,3.725,3.725,0,0,1-.434,1.715,8.569,8.569,0,0,1-1.106,1.638,15.334,15.334,0,0,1-1.435,1.477q-.763.686-1.421,1.232h4.732V0ZM20.8.168a3.686,3.686,0,0,1-1.792-.4A3.23,3.23,0,0,1,17.843-1.3a4.783,4.783,0,0,1-.644-1.5,7.158,7.158,0,0,1-.2-1.7,8.28,8.28,0,0,1,.448-2.849,4.331,4.331,0,0,1,1.3-1.918,3.134,3.134,0,0,1,2.051-.693,3.222,3.222,0,0,1,1.582.364,2.83,2.83,0,0,1,1.043.973A3.306,3.306,0,0,1,23.9-7.28H22.806a2.019,2.019,0,0,0-.686-1.232,2.057,2.057,0,0,0-1.344-.434A2.22,2.22,0,0,0,18.921-7.9a5.9,5.9,0,0,0-.805,3.255,3.027,3.027,0,0,1,1.071-1.141,3.153,3.153,0,0,1,1.771-.483,3.3,3.3,0,0,1,1.575.392,3.221,3.221,0,0,1,1.2,1.1,2.964,2.964,0,0,1,.462,1.659,3.3,3.3,0,0,1-.406,1.582A3.249,3.249,0,0,1,22.617-.308,3.355,3.355,0,0,1,20.8.168ZM20.72-.868a2.433,2.433,0,0,0,1.176-.28,2.065,2.065,0,0,0,.812-.777A2.2,2.2,0,0,0,23-3.066a2.048,2.048,0,0,0-.651-1.589A2.326,2.326,0,0,0,20.72-5.25a2.3,2.3,0,0,0-1.176.3,2.258,2.258,0,0,0-.819.805,2.092,2.092,0,0,0-.3,1.092,2.132,2.132,0,0,0,.3,1.127,2.116,2.116,0,0,0,.819.777A2.433,2.433,0,0,0,20.72-.868ZM29.33.168a4.08,4.08,0,0,1-1.736-.357,2.938,2.938,0,0,1-1.211-.994,2.531,2.531,0,0,1-.441-1.477,2.65,2.65,0,0,1,.525-1.61,2.5,2.5,0,0,1,1.393-.952,2.436,2.436,0,0,1-1.232-.854,2.122,2.122,0,0,1-.434-1.288,2.392,2.392,0,0,1,.378-1.309,2.639,2.639,0,0,1,1.078-.945,3.721,3.721,0,0,1,1.68-.35,3.721,3.721,0,0,1,1.68.35,2.639,2.639,0,0,1,1.078.945,2.392,2.392,0,0,1,.378,1.309,2.132,2.132,0,0,1-.434,1.281,2.419,2.419,0,0,1-1.232.861,2.5,2.5,0,0,1,1.393.952,2.65,2.65,0,0,1,.525,1.61,2.531,2.531,0,0,1-.441,1.477,2.938,2.938,0,0,1-1.211.994A4.08,4.08,0,0,1,29.33.168Zm0-5.81A2.1,2.1,0,0,0,30.751-6.1a1.507,1.507,0,0,0,.525-1.2,1.509,1.509,0,0,0-.518-1.246,2.206,2.206,0,0,0-1.428-.42,2.177,2.177,0,0,0-1.421.42A1.519,1.519,0,0,0,27.4-7.294a1.516,1.516,0,0,0,.518,1.2A2.068,2.068,0,0,0,29.33-5.642Zm0,4.774a2.37,2.37,0,0,0,1.659-.511,1.752,1.752,0,0,0,.553-1.351,1.75,1.75,0,0,0-.6-1.442,2.474,2.474,0,0,0-1.61-.49,2.474,2.474,0,0,0-1.61.49,1.75,1.75,0,0,0-.6,1.442,1.752,1.752,0,0,0,.553,1.351A2.37,2.37,0,0,0,29.33-.868ZM37.968.168A3.932,3.932,0,0,1,36.218-.2a3.03,3.03,0,0,1-1.183-1A3.172,3.172,0,0,1,34.5-2.646h1.148a2.2,2.2,0,0,0,.784,1.309,2.4,2.4,0,0,0,1.554.5,2.153,2.153,0,0,0,1.2-.329,2.179,2.179,0,0,0,.777-.889A2.805,2.805,0,0,0,40.236-3.3a2.508,2.508,0,0,0-.616-1.764,2.066,2.066,0,0,0-1.6-.672,2.535,2.535,0,0,0-1.386.364,2.173,2.173,0,0,0-.84.952h-1.12l.84-5.376h5.138v1.022H36.428L35.854-5.8a2.512,2.512,0,0,1,.931-.672,3.314,3.314,0,0,1,1.365-.266,3.13,3.13,0,0,1,1.687.448,3.116,3.116,0,0,1,1.127,1.218,3.7,3.7,0,0,1,.406,1.75,3.827,3.827,0,0,1-.4,1.736A3.12,3.12,0,0,1,39.809-.308,3.41,3.41,0,0,1,37.968.168Zm8.47,0A4.08,4.08,0,0,1,44.7-.189a2.938,2.938,0,0,1-1.211-.994A2.531,2.531,0,0,1,43.05-2.66a2.65,2.65,0,0,1,.525-1.61,2.5,2.5,0,0,1,1.393-.952,2.436,2.436,0,0,1-1.232-.854A2.122,2.122,0,0,1,43.3-7.364a2.392,2.392,0,0,1,.378-1.309,2.639,2.639,0,0,1,1.078-.945,3.721,3.721,0,0,1,1.68-.35,3.721,3.721,0,0,1,1.68.35,2.639,2.639,0,0,1,1.078.945,2.392,2.392,0,0,1,.378,1.309,2.132,2.132,0,0,1-.434,1.281,2.419,2.419,0,0,1-1.232.861A2.5,2.5,0,0,1,49.3-4.27a2.65,2.65,0,0,1,.525,1.61,2.531,2.531,0,0,1-.441,1.477,2.938,2.938,0,0,1-1.211.994A4.08,4.08,0,0,1,46.438.168Zm0-5.81A2.1,2.1,0,0,0,47.859-6.1a1.507,1.507,0,0,0,.525-1.2,1.509,1.509,0,0,0-.518-1.246,2.206,2.206,0,0,0-1.428-.42,2.177,2.177,0,0,0-1.421.42,1.519,1.519,0,0,0-.511,1.246,1.516,1.516,0,0,0,.518,1.2A2.068,2.068,0,0,0,46.438-5.642Zm0,4.774A2.37,2.37,0,0,0,48.1-1.379,1.752,1.752,0,0,0,48.65-2.73a1.75,1.75,0,0,0-.6-1.442,2.474,2.474,0,0,0-1.61-.49,2.474,2.474,0,0,0-1.61.49,1.75,1.75,0,0,0-.6,1.442,1.752,1.752,0,0,0,.553,1.351A2.37,2.37,0,0,0,46.438-.868ZM52.192,0l3.892-8.792H50.708V-9.8h6.58v.882L53.438,0Zm6.132,0V-.826q.994-.784,1.883-1.589A20.252,20.252,0,0,0,61.789-4a7.976,7.976,0,0,0,1.092-1.54A3.118,3.118,0,0,0,63.28-7a2.632,2.632,0,0,0-.175-.966,1.544,1.544,0,0,0-.567-.721,1.833,1.833,0,0,0-1.064-.273,1.913,1.913,0,0,0-1.078.287,1.784,1.784,0,0,0-.651.763,2.434,2.434,0,0,0-.217,1.022H58.394A3.226,3.226,0,0,1,58.8-8.547,2.709,2.709,0,0,1,59.906-9.6a3.378,3.378,0,0,1,1.582-.364,3.108,3.108,0,0,1,2.135.735,2.768,2.768,0,0,1,.833,2.191,3.725,3.725,0,0,1-.434,1.715,8.569,8.569,0,0,1-1.106,1.638,15.334,15.334,0,0,1-1.435,1.477q-.763.686-1.421,1.232h4.732V0ZM69.482.168a4.08,4.08,0,0,1-1.736-.357,2.938,2.938,0,0,1-1.211-.994,2.531,2.531,0,0,1-.441-1.477,2.65,2.65,0,0,1,.525-1.61,2.5,2.5,0,0,1,1.393-.952,2.436,2.436,0,0,1-1.232-.854,2.122,2.122,0,0,1-.434-1.288,2.392,2.392,0,0,1,.378-1.309A2.639,2.639,0,0,1,67.8-9.618a3.721,3.721,0,0,1,1.68-.35,3.721,3.721,0,0,1,1.68.35,2.639,2.639,0,0,1,1.078.945,2.392,2.392,0,0,1,.378,1.309,2.132,2.132,0,0,1-.434,1.281,2.419,2.419,0,0,1-1.232.861,2.5,2.5,0,0,1,1.393.952,2.65,2.65,0,0,1,.525,1.61,2.531,2.531,0,0,1-.441,1.477,2.938,2.938,0,0,1-1.211.994A4.08,4.08,0,0,1,69.482.168Zm0-5.81A2.1,2.1,0,0,0,70.9-6.1a1.507,1.507,0,0,0,.525-1.2A1.509,1.509,0,0,0,70.91-8.54a2.206,2.206,0,0,0-1.428-.42,2.177,2.177,0,0,0-1.421.42,1.519,1.519,0,0,0-.511,1.246,1.516,1.516,0,0,0,.518,1.2A2.068,2.068,0,0,0,69.482-5.642Zm0,4.774a2.37,2.37,0,0,0,1.659-.511,1.752,1.752,0,0,0,.553-1.351,1.75,1.75,0,0,0-.6-1.442,2.474,2.474,0,0,0-1.61-.49,2.474,2.474,0,0,0-1.61.49,1.75,1.75,0,0,0-.6,1.442,1.752,1.752,0,0,0,.553,1.351A2.37,2.37,0,0,0,69.482-.868ZM79.226,0V-2.1h-4.97v-.91l4.76-6.79h1.372v6.664h1.456V-2.1H80.388V0ZM75.558-3.136h3.724V-8.5ZM86.786.168a3.686,3.686,0,0,1-1.792-.4A3.23,3.23,0,0,1,83.825-1.3a4.783,4.783,0,0,1-.644-1.5,7.158,7.158,0,0,1-.2-1.7,8.28,8.28,0,0,1,.448-2.849,4.331,4.331,0,0,1,1.295-1.918,3.134,3.134,0,0,1,2.051-.693,3.222,3.222,0,0,1,1.582.364,2.83,2.83,0,0,1,1.043.973A3.306,3.306,0,0,1,89.88-7.28H88.788A2.019,2.019,0,0,0,88.1-8.512a2.057,2.057,0,0,0-1.344-.434A2.22,2.22,0,0,0,84.9-7.9,5.9,5.9,0,0,0,84.1-4.648a3.027,3.027,0,0,1,1.071-1.141,3.153,3.153,0,0,1,1.771-.483,3.3,3.3,0,0,1,1.575.392,3.221,3.221,0,0,1,1.2,1.1,2.964,2.964,0,0,1,.462,1.659,3.3,3.3,0,0,1-.406,1.582A3.249,3.249,0,0,1,88.6-.308,3.355,3.355,0,0,1,86.786.168ZM86.7-.868a2.433,2.433,0,0,0,1.176-.28,2.065,2.065,0,0,0,.812-.777,2.2,2.2,0,0,0,.294-1.141,2.048,2.048,0,0,0-.651-1.589A2.326,2.326,0,0,0,86.7-5.25a2.3,2.3,0,0,0-1.176.3,2.258,2.258,0,0,0-.819.805,2.092,2.092,0,0,0-.3,1.092,2.132,2.132,0,0,0,.3,1.127,2.116,2.116,0,0,0,.819.777A2.433,2.433,0,0,0,86.7-.868ZM95.13.168a4.055,4.055,0,0,1-1.694-.343A2.824,2.824,0,0,1,92.225-1.2a3.189,3.189,0,0,1-.483-1.708h1.19a2.094,2.094,0,0,0,.588,1.449,2.105,2.105,0,0,0,1.61.609,2.011,2.011,0,0,0,1.561-.574,1.981,1.981,0,0,0,.525-1.386,1.8,1.8,0,0,0-.329-1.12A1.943,1.943,0,0,0,96-4.578a3.385,3.385,0,0,0-1.211-.21h-.728v-.994h.728a2.316,2.316,0,0,0,1.491-.434,1.475,1.475,0,0,0,.539-1.218A1.47,1.47,0,0,0,96.4-8.519a1.719,1.719,0,0,0-1.267-.427,1.774,1.774,0,0,0-1.3.483,1.839,1.839,0,0,0-.546,1.211h-1.19a2.909,2.909,0,0,1,.427-1.414,2.627,2.627,0,0,1,1.057-.959,3.373,3.373,0,0,1,1.554-.343,3.38,3.38,0,0,1,1.589.336,2.368,2.368,0,0,1,.966.9A2.388,2.388,0,0,1,98.014-7.5a2.383,2.383,0,0,1-.406,1.351,2,2,0,0,1-1.218.819,2.593,2.593,0,0,1,1.442.826,2.451,2.451,0,0,1,.574,1.694,3.059,3.059,0,0,1-.371,1.491,2.734,2.734,0,0,1-1.1,1.085A3.666,3.666,0,0,1,95.13.168ZM100.156,0V-.826q.994-.784,1.883-1.589A20.251,20.251,0,0,0,103.621-4a7.976,7.976,0,0,0,1.092-1.54,3.118,3.118,0,0,0,.4-1.456,2.632,2.632,0,0,0-.175-.966,1.544,1.544,0,0,0-.567-.721,1.833,1.833,0,0,0-1.064-.273,1.913,1.913,0,0,0-1.078.287,1.784,1.784,0,0,0-.651.763,2.434,2.434,0,0,0-.217,1.022h-1.134a3.226,3.226,0,0,1,.406-1.659A2.709,2.709,0,0,1,101.738-9.6a3.378,3.378,0,0,1,1.582-.364,3.108,3.108,0,0,1,2.135.735,2.768,2.768,0,0,1,.833,2.191,3.725,3.725,0,0,1-.434,1.715,8.569,8.569,0,0,1-1.106,1.638,15.334,15.334,0,0,1-1.435,1.477q-.763.686-1.421,1.232h4.732V0ZM111.37.168a4.055,4.055,0,0,1-1.694-.343A2.824,2.824,0,0,1,108.465-1.2a3.189,3.189,0,0,1-.483-1.708h1.19a2.094,2.094,0,0,0,.588,1.449,2.105,2.105,0,0,0,1.61.609,2.011,2.011,0,0,0,1.561-.574,1.981,1.981,0,0,0,.525-1.386,1.8,1.8,0,0,0-.329-1.12,1.943,1.943,0,0,0-.882-.644,3.385,3.385,0,0,0-1.211-.21h-.728v-.994h.728a2.316,2.316,0,0,0,1.491-.434,1.475,1.475,0,0,0,.539-1.218,1.47,1.47,0,0,0-.427-1.085,1.719,1.719,0,0,0-1.267-.427,1.774,1.774,0,0,0-1.3.483,1.839,1.839,0,0,0-.546,1.211h-1.19a2.909,2.909,0,0,1,.427-1.414,2.627,2.627,0,0,1,1.057-.959,3.373,3.373,0,0,1,1.554-.343,3.38,3.38,0,0,1,1.589.336,2.368,2.368,0,0,1,.966.9,2.388,2.388,0,0,1,.329,1.232,2.383,2.383,0,0,1-.406,1.351,2,2,0,0,1-1.218.819,2.593,2.593,0,0,1,1.442.826,2.451,2.451,0,0,1,.574,1.694,3.059,3.059,0,0,1-.371,1.491,2.734,2.734,0,0,1-1.1,1.085A3.666,3.666,0,0,1,111.37.168Z" transform="translate(1005 2663)" fill="#fff" opacity="0.7"/>
          <path id="Path_1929" data-name="Path 1929" d="M12.48,11.765H.52a.519.519,0,0,0-.52.52v.585A.13.13,0,0,0,.13,13H12.87a.13.13,0,0,0,.13-.13v-.585A.519.519,0,0,0,12.48,11.765ZM2.368,10.4a.658.658,0,0,0,.1-.008L5.2,9.912a.159.159,0,0,0,.086-.045l6.888-6.888a.162.162,0,0,0,0-.229l-2.7-2.7a.165.165,0,0,0-.231,0L2.353,6.935a.165.165,0,0,0-.046.086L1.828,9.755a.544.544,0,0,0,.153.484A.551.551,0,0,0,2.368,10.4Z" transform="translate(1207 2630)" fill="#1eefb0"/>
          <path id="Path_1930" data-name="Path 1930" d="M12.48,11.765H.52a.519.519,0,0,0-.52.52v.585A.13.13,0,0,0,.13,13H12.87a.13.13,0,0,0,.13-.13v-.585A.519.519,0,0,0,12.48,11.765ZM2.368,10.4a.658.658,0,0,0,.1-.008L5.2,9.912a.159.159,0,0,0,.086-.045l6.888-6.888a.162.162,0,0,0,0-.229l-2.7-2.7a.165.165,0,0,0-.231,0L2.353,6.935a.165.165,0,0,0-.046.086L1.828,9.755a.544.544,0,0,0,.153.484A.551.551,0,0,0,2.368,10.4Z" transform="translate(1207 2652)" fill="#1eefb0"/>
        </g>
        <g id="Group_2276" data-name="Group 2276">
          <g id="Group_2272" data-name="Group 2272" transform="translate(6)">
            <path id="Path_2261" data-name="Path 2261" d="M.368,0l4.1-11.2h2.3L10.864,0H8.688l-.9-2.592H3.424L2.512,0ZM3.984-4.192H7.232L5.6-8.848ZM15.776.192a4.26,4.26,0,0,1-2.144-.528,3.844,3.844,0,0,1-1.464-1.472,4.3,4.3,0,0,1-.536-2.16,4.3,4.3,0,0,1,.536-2.16A3.844,3.844,0,0,1,13.632-7.6a4.26,4.26,0,0,1,2.144-.528,4.1,4.1,0,0,1,2.56.792,3.541,3.541,0,0,1,1.328,2.184H17.5a1.579,1.579,0,0,0-.632-.9,1.9,1.9,0,0,0-1.112-.328,1.889,1.889,0,0,0-1.44.64,2.516,2.516,0,0,0-.592,1.776,2.516,2.516,0,0,0,.592,1.776,1.889,1.889,0,0,0,1.44.64,1.934,1.934,0,0,0,1.112-.32,1.547,1.547,0,0,0,.632-.912h2.16a3.619,3.619,0,0,1-1.328,2.16A4.02,4.02,0,0,1,15.776.192Zm9.6,0a4.26,4.26,0,0,1-2.144-.528,3.844,3.844,0,0,1-1.464-1.472,4.3,4.3,0,0,1-.536-2.16,4.3,4.3,0,0,1,.536-2.16A3.844,3.844,0,0,1,23.232-7.6a4.26,4.26,0,0,1,2.144-.528,4.1,4.1,0,0,1,2.56.792,3.541,3.541,0,0,1,1.328,2.184H27.1a1.579,1.579,0,0,0-.632-.9,1.9,1.9,0,0,0-1.112-.328,1.889,1.889,0,0,0-1.44.64,2.516,2.516,0,0,0-.592,1.776,2.516,2.516,0,0,0,.592,1.776,1.889,1.889,0,0,0,1.44.64,1.934,1.934,0,0,0,1.112-.32,1.547,1.547,0,0,0,.632-.912h2.16a3.619,3.619,0,0,1-1.328,2.16A4.02,4.02,0,0,1,25.376.192Zm9.52,0a4.087,4.087,0,0,1-2.072-.528A3.877,3.877,0,0,1,31.368-1.8a4.286,4.286,0,0,1-.536-2.168,4.236,4.236,0,0,1,.544-2.168A3.935,3.935,0,0,1,32.84-7.6a4.087,4.087,0,0,1,2.072-.528,4.056,4.056,0,0,1,2.056.528,3.877,3.877,0,0,1,1.456,1.464,4.286,4.286,0,0,1,.536,2.168A4.286,4.286,0,0,1,38.424-1.8,3.86,3.86,0,0,1,36.96-.336,4.1,4.1,0,0,1,34.9.192Zm0-1.776a1.893,1.893,0,0,0,1.392-.6,2.441,2.441,0,0,0,.592-1.784,2.441,2.441,0,0,0-.592-1.784,1.875,1.875,0,0,0-1.376-.6,1.885,1.885,0,0,0-1.4.6,2.462,2.462,0,0,0-.584,1.784,2.462,2.462,0,0,0,.584,1.784A1.867,1.867,0,0,0,34.9-1.584ZM43.76.192a2.881,2.881,0,0,1-2.3-.928,4.031,4.031,0,0,1-.808-2.72v-4.48h2.032v4.288A2.542,2.542,0,0,0,43.1-2.08a1.546,1.546,0,0,0,1.312.544,1.808,1.808,0,0,0,1.4-.608,2.432,2.432,0,0,0,.552-1.7v-4.1h2.048V0H46.608l-.16-1.344a2.79,2.79,0,0,1-1.064,1.12A3.1,3.1,0,0,1,43.76.192ZM50.512,0V-7.936H52.32l.16,1.344a2.79,2.79,0,0,1,1.064-1.12,3.136,3.136,0,0,1,1.64-.416,2.886,2.886,0,0,1,2.288.928,4,4,0,0,1,.816,2.72V0H56.24V-4.288a2.542,2.542,0,0,0-.416-1.568,1.528,1.528,0,0,0-1.3-.544,1.826,1.826,0,0,0-1.416.608,2.432,2.432,0,0,0-.552,1.7V0ZM63.776,0a3.086,3.086,0,0,1-2-.608,2.644,2.644,0,0,1-.752-2.16V-6.224h-1.36V-7.936h1.36l.24-2.128h1.808v2.128h2.144v1.712H63.072v3.472a1.019,1.019,0,0,0,.248.792,1.312,1.312,0,0,0,.856.216h.992V0Z" transform="translate(1009 2618)" fill="#fff" opacity="0.9"/>
            <path id="Path_2262" data-name="Path 2262" d="M.42,0,4.032-9.8H5.278L8.876,0H7.63l-.9-2.52H2.562L1.652,0ZM2.912-3.472H6.384L4.648-8.316ZM13.076.168a3.515,3.515,0,0,1-1.785-.455,3.271,3.271,0,0,1-1.246-1.274A3.871,3.871,0,0,1,9.59-3.472a3.871,3.871,0,0,1,.455-1.911,3.271,3.271,0,0,1,1.246-1.274,3.515,3.515,0,0,1,1.785-.455,3.335,3.335,0,0,1,2.079.644,2.806,2.806,0,0,1,1.071,1.722h-1.2a1.543,1.543,0,0,0-.686-1A2.275,2.275,0,0,0,13.062-6.1a2.205,2.205,0,0,0-1.106.294,2.193,2.193,0,0,0-.84.882,3,3,0,0,0-.322,1.456,3,3,0,0,0,.322,1.456,2.243,2.243,0,0,0,.84.889,2.166,2.166,0,0,0,1.106.3,2.275,2.275,0,0,0,1.274-.357A1.549,1.549,0,0,0,15.022-2.2h1.2A2.78,2.78,0,0,1,15.162-.49,3.316,3.316,0,0,1,13.076.168ZM20.412,0a2.247,2.247,0,0,1-1.5-.462,2.1,2.1,0,0,1-.546-1.666V-5.95h-1.2v-.994h1.2l.154-1.666h1.022v1.666h2.044v.994H19.544v3.822a1.155,1.155,0,0,0,.266.889,1.45,1.45,0,0,0,.938.231h.728V0ZM23.8-8.484a.788.788,0,0,1-.581-.231.788.788,0,0,1-.231-.581.748.748,0,0,1,.231-.56.8.8,0,0,1,.581-.224.808.808,0,0,1,.574.224.737.737,0,0,1,.238.56.776.776,0,0,1-.238.581A.794.794,0,0,1,23.8-8.484ZM23.212,0V-6.944h1.176V0Zm5.222,0L25.8-6.944h1.232l2.086,5.81,2.1-5.81h1.2L29.792,0ZM36.5.168a3.4,3.4,0,0,1-1.764-.455,3.23,3.23,0,0,1-1.211-1.267,3.96,3.96,0,0,1-.441-1.918,4.023,4.023,0,0,1,.434-1.911,3.156,3.156,0,0,1,1.211-1.274,3.494,3.494,0,0,1,1.8-.455,3.245,3.245,0,0,1,1.743.455A3.083,3.083,0,0,1,39.4-5.46a3.366,3.366,0,0,1,.392,1.6q0,.154-.007.308t-.007.35h-5.53a2.729,2.729,0,0,0,.371,1.323,2.193,2.193,0,0,0,.826.791A2.207,2.207,0,0,0,36.5-.826a2.1,2.1,0,0,0,1.218-.336,1.922,1.922,0,0,0,.714-.91h1.162a3.134,3.134,0,0,1-1.071,1.6A3.123,3.123,0,0,1,36.5.168Zm0-6.286a2.348,2.348,0,0,0-1.491.511,2.059,2.059,0,0,0-.749,1.491h4.368a1.986,1.986,0,0,0-.644-1.47A2.161,2.161,0,0,0,36.5-6.118Z" transform="translate(1009 2637)" fill="#fff" opacity="0.7"/>
          </g>
          <g id="Group_2275" data-name="Group 2275">
            <g id="Rectangle_2919" data-name="Rectangle 2919" transform="translate(1178 2611)" fill="none" stroke="#71ecb4" stroke-width="1">
              <rect width="52" height="24" rx="12" stroke="none"/>
              <rect x="0.5" y="0.5" width="51" height="23" rx="11.5" fill="none"/>
            </g>
            <circle id="Ellipse_230" data-name="Ellipse 230" cx="10" cy="10" r="10" transform="translate(1207 2613)" fill="#1eefb0"/>
          </g>
        </g>
        <g id="Group_2274" data-name="Group 2274">
          <rect id="Rectangle_2920" data-name="Rectangle 2920" width="170" height="38" rx="8" transform="translate(1038 2741)" fill="#7d0eff"/>
          <path id="Path_2270" data-name="Path 2270" d="M5.408.192A4.971,4.971,0,0,1,3.184-.3a3.694,3.694,0,0,1-1.576-1.48,4.891,4.891,0,0,1-.584-2.512V-11.2H3.072v6.928A2.677,2.677,0,0,0,3.7-2.32a2.351,2.351,0,0,0,1.752.64A2.357,2.357,0,0,0,7.2-2.32a2.656,2.656,0,0,0,.64-1.952V-11.2H9.888v6.912A4.737,4.737,0,0,1,9.28-1.776,3.81,3.81,0,0,1,7.656-.3,5.124,5.124,0,0,1,5.408.192ZM11.936,3.52V-7.936H13.76L13.984-6.8A3.645,3.645,0,0,1,15-7.728a3.024,3.024,0,0,1,1.64-.4,3.725,3.725,0,0,1,2,.544A3.9,3.9,0,0,1,20.032-6.1a4.424,4.424,0,0,1,.512,2.144,4.378,4.378,0,0,1-.512,2.136A3.852,3.852,0,0,1,18.64-.344a3.768,3.768,0,0,1-2,.536,3.464,3.464,0,0,1-1.568-.336,2.826,2.826,0,0,1-1.088-.944V3.52ZM16.208-1.6a2.163,2.163,0,0,0,1.616-.656,2.326,2.326,0,0,0,.64-1.7,2.382,2.382,0,0,0-.64-1.712,2.137,2.137,0,0,0-1.616-.672,2.143,2.143,0,0,0-1.624.664,2.371,2.371,0,0,0-.632,1.7,2.371,2.371,0,0,0,.632,1.7A2.143,2.143,0,0,0,16.208-1.6ZM22.368,0V-11.52h2.048V0ZM30.32.192a4.087,4.087,0,0,1-2.072-.528A3.877,3.877,0,0,1,26.792-1.8a4.286,4.286,0,0,1-.536-2.168A4.236,4.236,0,0,1,26.8-6.136,3.935,3.935,0,0,1,28.264-7.6a4.087,4.087,0,0,1,2.072-.528,4.056,4.056,0,0,1,2.056.528,3.877,3.877,0,0,1,1.456,1.464,4.286,4.286,0,0,1,.536,2.168A4.286,4.286,0,0,1,33.848-1.8,3.86,3.86,0,0,1,32.384-.336,4.1,4.1,0,0,1,30.32.192Zm0-1.776a1.893,1.893,0,0,0,1.392-.6A2.441,2.441,0,0,0,32.3-3.968a2.441,2.441,0,0,0-.592-1.784,1.875,1.875,0,0,0-1.376-.6,1.885,1.885,0,0,0-1.4.6,2.462,2.462,0,0,0-.584,1.784,2.462,2.462,0,0,0,.584,1.784A1.867,1.867,0,0,0,30.32-1.584ZM38.944.192a3.754,3.754,0,0,1-1.68-.328,2.27,2.27,0,0,1-.976-.872,2.323,2.323,0,0,1-.32-1.2A2.183,2.183,0,0,1,36.832-4a4.109,4.109,0,0,1,2.592-.688H41.44V-4.88a1.469,1.469,0,0,0-.464-1.2,1.747,1.747,0,0,0-1.152-.384,1.979,1.979,0,0,0-1.088.3,1.274,1.274,0,0,0-.576.872h-2a2.791,2.791,0,0,1,.584-1.5,3.269,3.269,0,0,1,1.3-.984,4.493,4.493,0,0,1,1.792-.344,3.937,3.937,0,0,1,2.672.848,3.009,3.009,0,0,1,.976,2.4V0H41.744l-.192-1.28a2.958,2.958,0,0,1-.984,1.056A2.9,2.9,0,0,1,38.944.192Zm.464-1.6a1.7,1.7,0,0,0,1.368-.576,2.8,2.8,0,0,0,.616-1.424H39.648a1.819,1.819,0,0,0-1.168.3.916.916,0,0,0-.352.728.839.839,0,0,0,.352.72A1.542,1.542,0,0,0,39.408-1.408Zm9.68,1.6a3.725,3.725,0,0,1-2-.544A3.9,3.9,0,0,1,45.7-1.84a4.424,4.424,0,0,1-.512-2.144A4.378,4.378,0,0,1,45.7-6.12a3.852,3.852,0,0,1,1.392-1.472,3.768,3.768,0,0,1,2-.536,3.464,3.464,0,0,1,1.568.336,2.826,2.826,0,0,1,1.088.944V-11.52h2.048V0H51.968l-.224-1.136a3.645,3.645,0,0,1-1.016.928A3.024,3.024,0,0,1,49.088.192ZM49.52-1.6a2.143,2.143,0,0,0,1.624-.664,2.371,2.371,0,0,0,.632-1.7,2.371,2.371,0,0,0-.632-1.7,2.143,2.143,0,0,0-1.624-.664A2.163,2.163,0,0,0,47.9-5.68a2.326,2.326,0,0,0-.64,1.7,2.382,2.382,0,0,0,.64,1.712A2.137,2.137,0,0,0,49.52-1.6ZM59.728,0V-11.2h2.048v4.528L65.92-11.2h2.528L64.32-6.752,68.56,0H66.048l-3.2-5.184L61.776-4.016V0ZM72.864,0V-3.984L69.1-11.2h2.32L73.9-6.032,76.368-11.2h2.288L74.912-3.984V0ZM84.32.192a5.566,5.566,0,0,1-2.912-.728,4.858,4.858,0,0,1-1.872-2.032,6.625,6.625,0,0,1-.656-3.016,6.675,6.675,0,0,1,.656-3.024,4.9,4.9,0,0,1,1.872-2.048,5.519,5.519,0,0,1,2.912-.736,5.23,5.23,0,0,1,3.3,1,4.367,4.367,0,0,1,1.608,2.808H86.976a2.411,2.411,0,0,0-.888-1.432,2.886,2.886,0,0,0-1.8-.52A2.994,2.994,0,0,0,81.856-8.48a4.388,4.388,0,0,0-.88,2.9,4.355,4.355,0,0,0,.88,2.888,3,3,0,0,0,2.432,1.048,3.022,3.022,0,0,0,1.8-.488,2.252,2.252,0,0,0,.888-1.352h2.256a4.218,4.218,0,0,1-1.608,2.7A5.32,5.32,0,0,1,84.32.192Z" transform="translate(1078 2766)" fill="#fff"/>
        </g>
        <g id="avatar-svgrepo-com-2-2" data-name="avatar-svgrepo-com" transform="translate(1101.999 2512.295)">
          <circle id="Ellipse_239-2" data-name="Ellipse 239" cx="21" cy="21" r="21" transform="translate(0.001 0)" fill="#fdf5e9"/>
          <g id="Group_2338-2" data-name="Group 2338" transform="translate(0.001 0)">
            <g id="Group_2337-2" data-name="Group 2337" transform="translate(0)" clip-path="url(#clip-path-4)">
              <g id="Group_2336-2" data-name="Group 2336" transform="translate(9.105 11.771)">
                <path id="Path_2203-2" data-name="Path 2203" d="M53.339,106.735c-1.354-2.563-10.057-4.171-10.057-4.171s-8.7,1.608-10.057,4.171c-1,3.556-1.838,8.075-1.838,8.075H55.176A39.549,39.549,0,0,0,53.339,106.735Z" transform="translate(-31.387 -84.58)" fill="#f1c9a5"/>
                <path id="Path_2204-2" data-name="Path 2204" d="M72.387,102.564s8.7,1.608,10.057,4.171a39.528,39.528,0,0,1,1.838,8.075H72.387Z" transform="translate(-60.492 -84.58)" fill="#e4b692"/>
                <rect id="Rectangle_2936-2" data-name="Rectangle 2936" width="4.739" height="7.93" transform="translate(9.525 12.774)" fill="#f1c9a5"/>
                <rect id="Rectangle_2937-2" data-name="Rectangle 2937" width="2.369" height="7.93" transform="translate(11.895 12.774)" fill="#e4b692"/>
                <path id="Path_2205-2" data-name="Path 2205" d="M64.22,88.281c.426,1.223,2.146,1.925,3.409,1.925a4.26,4.26,0,0,0,1.33-.217V84.606H64.22Z" transform="translate(-54.695 -71.832)" fill="#ddac8c" opacity="0.1"/>
                <path id="Path_2206-2" data-name="Path 2206" d="M63.572,48.344c0-4.953-2.728-7.77-6.092-7.77s-6.092,2.817-6.092,7.77c0,6.663,2.728,8.969,6.092,8.969S63.572,54.729,63.572,48.344Z" transform="translate(-45.585 -40.574)" fill="#f1c9a5"/>
                <path id="Path_2207-2" data-name="Path 2207" d="M86.051,67.192a2.189,2.189,0,0,1-1.663-2.656A2.368,2.368,0,0,1,86.723,62.3a2.188,2.188,0,0,1,1.662,2.656A2.368,2.368,0,0,1,86.051,67.192Z" transform="translate(-68.991 -55.987)" fill="#e4b692"/>
                <path id="Path_2208-2" data-name="Path 2208" d="M46.615,64.952A2.188,2.188,0,0,1,48.276,62.3a2.369,2.369,0,0,1,2.337,2.241,2.19,2.19,0,0,1-1.663,2.656A2.368,2.368,0,0,1,46.615,64.952Z" transform="translate(-42.177 -55.988)" fill="#f1c9a5"/>
                <path id="Path_2209-2" data-name="Path 2209" d="M78.479,48.344c0-4.953-2.728-7.77-6.092-7.77V57.313C75.751,57.313,78.479,54.729,78.479,48.344Z" transform="translate(-60.492 -40.574)" fill="#e4b692"/>
              </g>
              <path id="Path_2210-2" data-name="Path 2210" d="M63.764,77.325c-.328.921-.882,2.029-1.884,2.029-1.252,0-2.148-1.018-3.584-1.018h-.024c-1.436,0-2.331,1.018-3.584,1.018-1,0-1.556-1.108-1.884-2.029L52.52,75.55v2.124s.476,2.5,1.39,3.106a9.64,9.64,0,0,0,4.361,1.794H58.3a9.634,9.634,0,0,0,4.361-1.794c.914-.6,1.39-3.106,1.39-3.106V75.55Z" transform="translate(-37.284 -53.632)" fill="#303030"/>
              <path id="Path_2211-2" data-name="Path 2211" d="M62.218,39.244s1.131,4.58,7.436,6.9a6.214,6.214,0,0,1-.7-2.263,11.024,11.024,0,0,0,2.694,1.94c.916-1.832,1.994-4.58-.431-6.089S63.026,35.526,62.218,39.244Z" transform="translate(-44.168 -26.526)" fill="#303030"/>
              <path id="Path_2212-2" data-name="Path 2212" d="M51.234,50.34s.468-5.229,2.416-6.385c-1.662-.725-4.194,1.482-3.925,2.829A16.729,16.729,0,0,0,51.234,50.34Z" transform="translate(-35.286 -31.102)" fill="#303030"/>
              <path id="Path_2213-2" data-name="Path 2213" d="M53.339,108.666c-.791-1.5-4.085-2.666-6.691-3.382a3.371,3.371,0,0,1-6.731,0c-2.606.715-5.9,1.885-6.692,3.382-1,3.556-1.838,8.075-1.838,8.075H55.176A39.549,39.549,0,0,0,53.339,108.666Z" transform="translate(-22.282 -74.74)" fill="#3918d8"/>
              <path id="Path_2214-2" data-name="Path 2214" d="M44.044,106.154a3.583,3.583,0,0,0,7.12,0c2.388.619,5.321,1.581,6.606,2.8q-.054-.146-.11-.288c-.791-1.5-4.085-2.666-6.691-3.382a3.371,3.371,0,0,1-6.731,0c-2.606.715-5.9,1.885-6.692,3.382l-.07.254C38.782,107.717,41.678,106.768,44.044,106.154Z" transform="translate(-26.604 -74.74)" fill="#e53d0c" opacity="0.2"/>
              <path id="Path_2215-2" data-name="Path 2215" d="M57.37,105.57a4.409,4.409,0,0,0,8.713,0c-.337-.1-.669-.2-.991-.285a3.371,3.371,0,0,1-6.731,0C58.039,105.373,57.707,105.468,57.37,105.57Z" transform="translate(-40.727 -74.741)" fill="#5c1faf"/>
              <path id="Path_2216-2" data-name="Path 2216" d="M70.953,89.077a.931.931,0,0,0-.991-.646,1.027,1.027,0,0,0-.991.646Z" transform="translate(-48.961 -62.776)" fill="#fff"/>
            </g>
          </g>
        </g>
      </g>
    </g>
  </g>
</svg>
