<svg xmlns="http://www.w3.org/2000/svg" xmlns:xlink="http://www.w3.org/1999/xlink" width="600" height="318" viewBox="0 0 600 318">
  <defs>
    <filter id="Ellipse_224" x="139" y="94" width="32" height="32" filterUnits="userSpaceOnUse">
      <feOffset dy="3" input="SourceAlpha"/>
      <feGaussianBlur stdDeviation="3" result="blur"/>
      <feFlood flood-color="#71ecb4" flood-opacity="0.255"/>
      <feComposite operator="in" in2="blur"/>
      <feComposite in="SourceGraphic"/>
    </filter>
    <filter id="Ellipse_231" x="139" y="147" width="32" height="32" filterUnits="userSpaceOnUse">
      <feOffset dy="3" input="SourceAlpha"/>
      <feGaussianBlur stdDeviation="3" result="blur-2"/>
      <feFlood flood-color="#71ecb4" flood-opacity="0.255"/>
      <feComposite operator="in" in2="blur-2"/>
      <feComposite in="SourceGraphic"/>
    </filter>
    <filter id="Rectangle_2922" x="145" y="101" width="20" height="71" filterUnits="userSpaceOnUse">
      <feOffset dy="3" input="SourceAlpha"/>
      <feGaussianBlur stdDeviation="3" result="blur-3"/>
      <feFlood flood-color="#71ecb4" flood-opacity="0.255"/>
      <feComposite operator="in" in2="blur-3"/>
      <feComposite in="SourceGraphic"/>
    </filter>
    <filter id="Ellipse_224-2" x="154" y="109" width="32" height="32" filterUnits="userSpaceOnUse">
      <feOffset dy="3" input="SourceAlpha"/>
      <feGaussianBlur stdDeviation="3" result="blur-4"/>
      <feFlood flood-color="#71ecb4" flood-opacity="0.255"/>
      <feComposite operator="in" in2="blur-4"/>
      <feComposite in="SourceGraphic"/>
    </filter>
    <filter id="Ellipse_231-2" x="154" y="162" width="32" height="32" filterUnits="userSpaceOnUse">
      <feOffset dy="3" input="SourceAlpha"/>
      <feGaussianBlur stdDeviation="3" result="blur-5"/>
      <feFlood flood-color="#71ecb4" flood-opacity="0.255"/>
      <feComposite operator="in" in2="blur-5"/>
      <feComposite in="SourceGraphic"/>
    </filter>
    <filter id="Rectangle_2922-2" x="160" y="116" width="20" height="71" filterUnits="userSpaceOnUse">
      <feOffset dy="3" input="SourceAlpha"/>
      <feGaussianBlur stdDeviation="3" result="blur-6"/>
      <feFlood flood-color="#71ecb4" flood-opacity="0.255"/>
      <feComposite operator="in" in2="blur-6"/>
      <feComposite in="SourceGraphic"/>
    </filter>
    <filter id="Ellipse_224-3" x="169" y="124" width="32" height="32" filterUnits="userSpaceOnUse">
      <feOffset dy="3" input="SourceAlpha"/>
      <feGaussianBlur stdDeviation="3" result="blur-7"/>
      <feFlood flood-color="#71ecb4" flood-opacity="0.255"/>
      <feComposite operator="in" in2="blur-7"/>
      <feComposite in="SourceGraphic"/>
    </filter>
    <filter id="Ellipse_231-3" x="169" y="177" width="32" height="32" filterUnits="userSpaceOnUse">
      <feOffset dy="3" input="SourceAlpha"/>
      <feGaussianBlur stdDeviation="3" result="blur-8"/>
      <feFlood flood-color="#71ecb4" flood-opacity="0.255"/>
      <feComposite operator="in" in2="blur-8"/>
      <feComposite in="SourceGraphic"/>
    </filter>
    <filter id="Rectangle_2922-3" x="175" y="131" width="20" height="71" filterUnits="userSpaceOnUse">
      <feOffset dy="3" input="SourceAlpha"/>
      <feGaussianBlur stdDeviation="3" result="blur-9"/>
      <feFlood flood-color="#71ecb4" flood-opacity="0.255"/>
      <feComposite operator="in" in2="blur-9"/>
      <feComposite in="SourceGraphic"/>
    </filter>
  </defs>
  <g id="Group_2388" data-name="Group 2388" transform="translate(-12315 -858)">
    <rect id="Rectangle_2959" data-name="Rectangle 2959" width="600" height="318" transform="translate(12315 858)" fill="none"/>
    <g id="Group_2371" data-name="Group 2371" transform="translate(12291 -2714)">
      <g id="Group_2288" data-name="Group 2288" transform="translate(-30 -30)">
        <rect id="Rectangle_2908" data-name="Rectangle 2908" width="341" height="248" rx="10" transform="translate(160 3622)" fill="#737b8b"/>
        <g transform="matrix(1, 0, 0, 1, 54, 3602)" filter="url(#Ellipse_224)">
          <circle id="Ellipse_224-4" data-name="Ellipse 224" cx="7" cy="7" r="7" transform="translate(148 100)" fill="#1eefb0"/>
        </g>
        <g transform="matrix(1, 0, 0, 1, 54, 3602)" filter="url(#Ellipse_231)">
          <circle id="Ellipse_231-4" data-name="Ellipse 231" cx="7" cy="7" r="7" transform="translate(148 153)" fill="#1eefb0"/>
        </g>
        <g transform="matrix(1, 0, 0, 1, 54, 3602)" filter="url(#Rectangle_2922)">
          <rect id="Rectangle_2922-4" data-name="Rectangle 2922" width="2" height="53" transform="translate(154 107)" fill="#1eefb0"/>
        </g>
        <g id="Group_2282" data-name="Group 2282" transform="translate(10 45)">
          <text id="Created_by" data-name="Created by" transform="translate(226 3658)" fill="#fff" font-size="14" font-family="DMSans-Regular, DM Sans" opacity="0.7"><tspan x="0" y="0">Created by</tspan></text>
          <text id="Rajesh_Tyagi" data-name="Rajesh Tyagi" transform="translate(226 3679)" fill="#fff" font-size="16" font-family="DMSans-Regular, DM Sans"><tspan x="0" y="0">Rajesh Tyagi</tspan></text>
        </g>
        <g id="Group_2283" data-name="Group 2283" transform="translate(10 32)">
          <text id="Verified_by" data-name="Verified by" transform="translate(226 3727)" fill="#fff" font-size="14" font-family="DMSans-Regular, DM Sans" opacity="0.7"><tspan x="0" y="0">Verified by</tspan></text>
          <text id="Shrinivas_T." data-name="Shrinivas T." transform="translate(226 3748)" fill="#fff" font-size="16" font-family="DMSans-Regular, DM Sans"><tspan x="0" y="0">Shrinivas T.</tspan></text>
        </g>
        <g id="Group_2284" data-name="Group 2284" transform="translate(-793 1066)">
          <rect id="Rectangle_2920" data-name="Rectangle 2920" width="170" height="38" rx="8" transform="translate(1038 2741)" fill="#7d0eff"/>
          <text id="Approve" transform="translate(1090 2766)" fill="#fff" font-size="16" font-family="DMSans-Bold, DM Sans" font-weight="700"><tspan x="0" y="0">Approve</tspan></text>
        </g>
        <text id="Invoice_76" data-name="Invoice 76" transform="translate(292 3662)" fill="#fff" font-size="16" font-family="DMSans-Bold, DM Sans" font-weight="700"><tspan x="0" y="0">Invoice 76</tspan></text>
      </g>
      <g id="Group_2286" data-name="Group 2286" transform="translate(-15 -15)">
        <rect id="Rectangle_2908-2" data-name="Rectangle 2908" width="341" height="248" rx="10" transform="translate(160 3622)" fill="#5b6578"/>
        <g transform="matrix(1, 0, 0, 1, 39, 3587)" filter="url(#Ellipse_224-2)">
          <circle id="Ellipse_224-5" data-name="Ellipse 224" cx="7" cy="7" r="7" transform="translate(163 115)" fill="#1eefb0"/>
        </g>
        <g transform="matrix(1, 0, 0, 1, 39, 3587)" filter="url(#Ellipse_231-2)">
          <circle id="Ellipse_231-5" data-name="Ellipse 231" cx="7" cy="7" r="7" transform="translate(163 168)" fill="#1eefb0"/>
        </g>
        <g transform="matrix(1, 0, 0, 1, 39, 3587)" filter="url(#Rectangle_2922-2)">
          <rect id="Rectangle_2922-5" data-name="Rectangle 2922" width="2" height="53" transform="translate(169 122)" fill="#1eefb0"/>
        </g>
        <g id="Group_2282-2" data-name="Group 2282" transform="translate(10 45)">
          <text id="Created_by-2" data-name="Created by" transform="translate(226 3658)" fill="#fff" font-size="14" font-family="DMSans-Regular, DM Sans" opacity="0.7"><tspan x="0" y="0">Created by</tspan></text>
          <text id="Rajesh_Tyagi-2" data-name="Rajesh Tyagi" transform="translate(226 3679)" fill="#fff" font-size="16" font-family="DMSans-Regular, DM Sans"><tspan x="0" y="0">Rajesh Tyagi</tspan></text>
        </g>
        <g id="Group_2283-2" data-name="Group 2283" transform="translate(10 32)">
          <text id="Verified_by-2" data-name="Verified by" transform="translate(226 3727)" fill="#fff" font-size="14" font-family="DMSans-Regular, DM Sans" opacity="0.7"><tspan x="0" y="0">Verified by</tspan></text>
          <text id="Shrinivas_T.-2" data-name="Shrinivas T." transform="translate(226 3748)" fill="#fff" font-size="16" font-family="DMSans-Regular, DM Sans"><tspan x="0" y="0">Shrinivas T.</tspan></text>
        </g>
        <g id="Group_2284-2" data-name="Group 2284" transform="translate(-793 1066)">
          <rect id="Rectangle_2920-2" data-name="Rectangle 2920" width="170" height="38" rx="8" transform="translate(1038 2741)" fill="#7d0eff"/>
          <text id="Approve-2" data-name="Approve" transform="translate(1090 2766)" fill="#fff" font-size="16" font-family="DMSans-Bold, DM Sans" font-weight="700"><tspan x="0" y="0">Approve</tspan></text>
        </g>
        <text id="Invoice_76-2" data-name="Invoice 76" transform="translate(292 3662)" fill="#fff" font-size="16" font-family="DMSans-Bold, DM Sans" font-weight="700"><tspan x="0" y="0">Invoice 76</tspan></text>
      </g>
      <g id="Group_2285" data-name="Group 2285">
        <rect id="Rectangle_2908-3" data-name="Rectangle 2908" width="341" height="248" rx="10" transform="translate(160 3622)" fill="#17243f"/>
        <g transform="matrix(1, 0, 0, 1, 24, 3572)" filter="url(#Ellipse_224-3)">
          <circle id="Ellipse_224-6" data-name="Ellipse 224" cx="7" cy="7" r="7" transform="translate(178 130)" fill="#1eefb0"/>
        </g>
        <g transform="matrix(1, 0, 0, 1, 24, 3572)" filter="url(#Ellipse_231-3)">
          <circle id="Ellipse_231-6" data-name="Ellipse 231" cx="7" cy="7" r="7" transform="translate(178 183)" fill="#1eefb0"/>
        </g>
        <g transform="matrix(1, 0, 0, 1, 24, 3572)" filter="url(#Rectangle_2922-3)">
          <rect id="Rectangle_2922-6" data-name="Rectangle 2922" width="2" height="53" transform="translate(184 137)" fill="#1eefb0"/>
        </g>
        <g id="Group_2282-3" data-name="Group 2282" transform="translate(10 45)">
          <path id="Path_2296" data-name="Path 2296" d="M5.334.168A4.676,4.676,0,0,1,2.849-.469,4.3,4.3,0,0,1,1.232-2.247,5.83,5.83,0,0,1,.658-4.9a5.8,5.8,0,0,1,.574-2.639A4.342,4.342,0,0,1,2.849-9.324a4.636,4.636,0,0,1,2.485-.644,4.394,4.394,0,0,1,2.737.805A3.62,3.62,0,0,1,9.422-6.916H8.12A2.612,2.612,0,0,0,7.2-8.379a2.913,2.913,0,0,0-1.869-.553A3.425,3.425,0,0,0,3.5-8.449,3.173,3.173,0,0,0,2.289-7.063,5.023,5.023,0,0,0,1.862-4.9a5.023,5.023,0,0,0,.427,2.163A3.173,3.173,0,0,0,3.5-1.351a3.425,3.425,0,0,0,1.834.483A2.966,2.966,0,0,0,7.2-1.407,2.541,2.541,0,0,0,8.12-2.842h1.3A3.575,3.575,0,0,1,8.071-.63,4.421,4.421,0,0,1,5.334.168ZM11.046,0V-6.944H12.11l.1,1.33a2.517,2.517,0,0,1,.98-1.092,3.038,3.038,0,0,1,1.624-.406V-5.88H14.49a2.906,2.906,0,0,0-1.134.217,1.722,1.722,0,0,0-.826.735A2.8,2.8,0,0,0,12.222-3.5V0Zm7.938.168A3.4,3.4,0,0,1,17.22-.287a3.23,3.23,0,0,1-1.211-1.267,3.96,3.96,0,0,1-.441-1.918A4.023,4.023,0,0,1,16-5.383a3.156,3.156,0,0,1,1.211-1.274,3.494,3.494,0,0,1,1.8-.455,3.245,3.245,0,0,1,1.743.455,3.083,3.083,0,0,1,1.127,1.2,3.366,3.366,0,0,1,.392,1.6q0,.154-.007.308t-.007.35H16.73A2.729,2.729,0,0,0,17.1-1.883a2.193,2.193,0,0,0,.826.791,2.207,2.207,0,0,0,1.057.266A2.1,2.1,0,0,0,20.2-1.162a1.922,1.922,0,0,0,.714-.91h1.162a3.134,3.134,0,0,1-1.071,1.6A3.123,3.123,0,0,1,18.984.168Zm0-6.286a2.348,2.348,0,0,0-1.491.511,2.059,2.059,0,0,0-.749,1.491h4.368a1.986,1.986,0,0,0-.644-1.47A2.161,2.161,0,0,0,18.984-6.118ZM26.138.168A3.147,3.147,0,0,1,24.7-.126a2,2,0,0,1-.854-.784,2.108,2.108,0,0,1-.28-1.064,1.886,1.886,0,0,1,.812-1.638,3.77,3.77,0,0,1,2.212-.574h1.876V-4.27a1.853,1.853,0,0,0-.476-1.379,1.736,1.736,0,0,0-1.274-.469,2.031,2.031,0,0,0-1.183.343,1.5,1.5,0,0,0-.623,1H23.7a2.228,2.228,0,0,1,.511-1.274,2.856,2.856,0,0,1,1.1-.791,3.617,3.617,0,0,1,1.4-.273,2.877,2.877,0,0,1,2.191.777,2.882,2.882,0,0,1,.735,2.065V0h-1.05l-.07-1.246a2.754,2.754,0,0,1-.861,1A2.526,2.526,0,0,1,26.138.168Zm.182-.994a1.915,1.915,0,0,0,1.155-.35,2.234,2.234,0,0,0,.735-.91,2.834,2.834,0,0,0,.252-1.176v-.014H26.684a2.308,2.308,0,0,0-1.463.357,1.113,1.113,0,0,0-.427.889,1.077,1.077,0,0,0,.4.875A1.726,1.726,0,0,0,26.32-.826ZM33.95,0a2.247,2.247,0,0,1-1.5-.462,2.1,2.1,0,0,1-.546-1.666V-5.95H30.7v-.994h1.2L32.06-8.61h1.022v1.666h2.044v.994H33.082v3.822a1.155,1.155,0,0,0,.266.889,1.45,1.45,0,0,0,.938.231h.728V0Zm5.6.168a3.4,3.4,0,0,1-1.764-.455,3.23,3.23,0,0,1-1.211-1.267,3.96,3.96,0,0,1-.441-1.918,4.023,4.023,0,0,1,.434-1.911,3.156,3.156,0,0,1,1.211-1.274,3.494,3.494,0,0,1,1.8-.455,3.245,3.245,0,0,1,1.743.455,3.083,3.083,0,0,1,1.127,1.2,3.366,3.366,0,0,1,.392,1.6q0,.154-.007.308t-.007.35H37.3a2.729,2.729,0,0,0,.371,1.323,2.193,2.193,0,0,0,.826.791,2.207,2.207,0,0,0,1.057.266,2.1,2.1,0,0,0,1.218-.336,1.922,1.922,0,0,0,.714-.91h1.162a3.134,3.134,0,0,1-1.071,1.6A3.123,3.123,0,0,1,39.55.168Zm0-6.286a2.348,2.348,0,0,0-1.491.511,2.059,2.059,0,0,0-.749,1.491h4.368a1.986,1.986,0,0,0-.644-1.47A2.161,2.161,0,0,0,39.55-6.118ZM47.544.168a3.4,3.4,0,0,1-1.813-.476,3.241,3.241,0,0,1-1.2-1.3A4.026,4.026,0,0,1,44.1-3.486a3.931,3.931,0,0,1,.434-1.869,3.269,3.269,0,0,1,1.2-1.288,3.43,3.43,0,0,1,1.82-.469,3.171,3.171,0,0,1,1.512.35,2.522,2.522,0,0,1,1.022.98v-4.3h1.176V0H50.2l-.112-1.148a3.251,3.251,0,0,1-.966.91A2.866,2.866,0,0,1,47.544.168ZM47.67-.854a2.33,2.33,0,0,0,1.239-.329,2.25,2.25,0,0,0,.84-.917,2.972,2.972,0,0,0,.3-1.372,2.972,2.972,0,0,0-.3-1.372,2.25,2.25,0,0,0-.84-.917A2.33,2.33,0,0,0,47.67-6.09a2.3,2.3,0,0,0-1.225.329,2.25,2.25,0,0,0-.84.917,2.972,2.972,0,0,0-.3,1.372,2.972,2.972,0,0,0,.3,1.372,2.25,2.25,0,0,0,.84.917A2.3,2.3,0,0,0,47.67-.854ZM60.606.168a3.212,3.212,0,0,1-1.519-.35,2.421,2.421,0,0,1-1.015-.98L57.96,0H56.9V-10.08h1.176V-5.8a3.278,3.278,0,0,1,.959-.91,2.858,2.858,0,0,1,1.589-.406,3.365,3.365,0,0,1,1.806.476,3.257,3.257,0,0,1,1.2,1.3,4.025,4.025,0,0,1,.427,1.876,3.983,3.983,0,0,1-.427,1.869A3.2,3.2,0,0,1,62.419-.3,3.44,3.44,0,0,1,60.606.168ZM60.48-.854a2.294,2.294,0,0,0,1.232-.329,2.315,2.315,0,0,0,.84-.917,2.916,2.916,0,0,0,.308-1.372,2.916,2.916,0,0,0-.308-1.372,2.315,2.315,0,0,0-.84-.917A2.294,2.294,0,0,0,60.48-6.09a2.294,2.294,0,0,0-1.232.329,2.315,2.315,0,0,0-.84.917A2.916,2.916,0,0,0,58.1-3.472,2.916,2.916,0,0,0,58.408-2.1a2.315,2.315,0,0,0,.84.917A2.294,2.294,0,0,0,60.48-.854Zm5.4,3.934L67.606-.672H67.2L64.442-6.944h1.274l2.3,5.4,2.436-5.4h1.218L67.116,3.08Z" transform="translate(226 3658)" fill="#fff" opacity="0.7"/>
          <path id="Path_2297" data-name="Path 2297" d="M1.184,0V-11.2H4.8a4.644,4.644,0,0,1,2.144.432A2.819,2.819,0,0,1,8.176-9.584a3.487,3.487,0,0,1,.4,1.664,3.345,3.345,0,0,1-.568,1.9,3.069,3.069,0,0,1-1.768,1.2L8.688,0H7.1L4.832-4.624h-2.3V0ZM2.528-5.68H4.7A2.5,2.5,0,0,0,6.592-6.3a2.23,2.23,0,0,0,.592-1.6A2.13,2.13,0,0,0,6.6-9.48a2.629,2.629,0,0,0-1.912-.584H2.528ZM13.008.192A3.6,3.6,0,0,1,11.36-.144a2.284,2.284,0,0,1-.976-.9,2.409,2.409,0,0,1-.32-1.216,2.155,2.155,0,0,1,.928-1.872,4.309,4.309,0,0,1,2.528-.656h2.144v-.1a2.118,2.118,0,0,0-.544-1.576,1.984,1.984,0,0,0-1.456-.536,2.321,2.321,0,0,0-1.352.392A1.717,1.717,0,0,0,11.6-5.456H10.224a2.547,2.547,0,0,1,.584-1.456,3.264,3.264,0,0,1,1.256-.9,4.133,4.133,0,0,1,1.6-.312,3.288,3.288,0,0,1,2.5.888,3.293,3.293,0,0,1,.84,2.36V0h-1.2l-.08-1.424A3.148,3.148,0,0,1,14.744-.28,2.887,2.887,0,0,1,13.008.192Zm.208-1.136a2.189,2.189,0,0,0,1.32-.4,2.553,2.553,0,0,0,.84-1.04,3.239,3.239,0,0,0,.288-1.344v-.016H13.632a2.638,2.638,0,0,0-1.672.408,1.272,1.272,0,0,0-.488,1.016,1.231,1.231,0,0,0,.456,1A1.972,1.972,0,0,0,13.216-.944ZM19.9-9.7a.908.908,0,0,1-.656-.264.887.887,0,0,1-.272-.664.842.842,0,0,1,.272-.64.923.923,0,0,1,.656-.256.9.9,0,0,1,.648.256.855.855,0,0,1,.264.64.9.9,0,0,1-.264.664A.881.881,0,0,1,19.9-9.7ZM17.472,3.52V2.368H18.1a1.225,1.225,0,0,0,.856-.248,1.116,1.116,0,0,0,.264-.84V-7.936H20.56V1.312a2.179,2.179,0,0,1-.576,1.68,2.4,2.4,0,0,1-1.68.528ZM26.464.192a3.887,3.887,0,0,1-2.016-.52,3.692,3.692,0,0,1-1.384-1.448,4.526,4.526,0,0,1-.5-2.192,4.6,4.6,0,0,1,.5-2.184A3.606,3.606,0,0,1,24.44-7.608a3.993,3.993,0,0,1,2.056-.52,3.708,3.708,0,0,1,1.992.52A3.523,3.523,0,0,1,29.776-6.24a3.846,3.846,0,0,1,.448,1.824q0,.176-.008.352t-.008.4h-6.32a3.118,3.118,0,0,0,.424,1.512,2.506,2.506,0,0,0,.944.9,2.523,2.523,0,0,0,1.208.3,2.4,2.4,0,0,0,1.392-.384,2.2,2.2,0,0,0,.816-1.04H30A3.582,3.582,0,0,1,28.776-.536,3.57,3.57,0,0,1,26.464.192Zm0-7.184a2.684,2.684,0,0,0-1.7.584A2.353,2.353,0,0,0,23.9-4.7H28.9a2.27,2.27,0,0,0-.736-1.68A2.469,2.469,0,0,0,26.464-6.992ZM35.04.192a3.792,3.792,0,0,1-2.368-.72,2.807,2.807,0,0,1-1.1-1.952h1.376a1.9,1.9,0,0,0,.664,1.08,2.161,2.161,0,0,0,1.448.456A1.826,1.826,0,0,0,36.3-1.3a1.115,1.115,0,0,0,.4-.856.95.95,0,0,0-.52-.96,6.921,6.921,0,0,0-1.464-.432,8.252,8.252,0,0,1-1.28-.368,2.908,2.908,0,0,1-1.072-.68,1.584,1.584,0,0,1-.432-1.16,2.141,2.141,0,0,1,.776-1.7,3.129,3.129,0,0,1,2.1-.664,3.263,3.263,0,0,1,2.072.632,2.522,2.522,0,0,1,.936,1.8H36.5a1.384,1.384,0,0,0-.52-.952A1.858,1.858,0,0,0,34.8-6.992a1.78,1.78,0,0,0-1.112.3.964.964,0,0,0-.392.8.831.831,0,0,0,.5.752,5.411,5.411,0,0,0,1.368.464,11.916,11.916,0,0,1,1.4.392,2.646,2.646,0,0,1,1.088.688,1.87,1.87,0,0,1,.424,1.32A2.168,2.168,0,0,1,37.272-.5,3.348,3.348,0,0,1,35.04.192ZM40,0V-11.52h1.344v4.944A2.827,2.827,0,0,1,42.48-7.72a3.246,3.246,0,0,1,1.6-.408,2.939,2.939,0,0,1,2.208.856A3.65,3.65,0,0,1,47.12-4.64V0H45.792V-4.5q0-2.48-2-2.48a2.3,2.3,0,0,0-1.744.744,2.966,2.966,0,0,0-.7,2.12V0ZM56.1,0V-10.1H52.752v-1.1h8.032v1.1H57.44V0Zm6.32,3.52L64.384-.768H63.92L60.768-7.936h1.456L64.848-1.76l2.784-6.176h1.392L63.824,3.52ZM72.592.192a3.6,3.6,0,0,1-1.648-.336,2.284,2.284,0,0,1-.976-.9,2.409,2.409,0,0,1-.32-1.216,2.155,2.155,0,0,1,.928-1.872A4.309,4.309,0,0,1,73.1-4.784h2.144v-.1A2.118,2.118,0,0,0,74.7-6.456a1.984,1.984,0,0,0-1.456-.536A2.321,2.321,0,0,0,71.9-6.6a1.717,1.717,0,0,0-.712,1.144H69.808a2.547,2.547,0,0,1,.584-1.456,3.264,3.264,0,0,1,1.256-.9,4.133,4.133,0,0,1,1.6-.312,3.288,3.288,0,0,1,2.5.888,3.293,3.293,0,0,1,.84,2.36V0h-1.2l-.08-1.424A3.147,3.147,0,0,1,74.328-.28,2.887,2.887,0,0,1,72.592.192ZM72.8-.944a2.189,2.189,0,0,0,1.32-.4,2.553,2.553,0,0,0,.84-1.04,3.239,3.239,0,0,0,.288-1.344v-.016H73.216a2.638,2.638,0,0,0-1.672.408,1.272,1.272,0,0,0-.488,1.016,1.231,1.231,0,0,0,.456,1A1.972,1.972,0,0,0,72.8-.944ZM81.744-2.5a4.093,4.093,0,0,1-1.232-.176l-.8.752a1.612,1.612,0,0,0,.44.216,4.663,4.663,0,0,0,.76.16q.5.072,1.392.152a3.785,3.785,0,0,1,2.288.736A2.1,2.1,0,0,1,85.28.976,2.5,2.5,0,0,1,84.9,2.288a2.79,2.79,0,0,1-1.152,1.024,4.339,4.339,0,0,1-1.992.4,5.96,5.96,0,0,1-1.9-.28,2.76,2.76,0,0,1-1.3-.848A2.189,2.189,0,0,1,78.1,1.152a2.324,2.324,0,0,1,.24-.968,2.588,2.588,0,0,1,.9-.984,3.3,3.3,0,0,1-.6-.312,3.108,3.108,0,0,1-.456-.376v-.368L79.536-3.2a2.632,2.632,0,0,1-.944-2.112,2.805,2.805,0,0,1,.368-1.424,2.632,2.632,0,0,1,1.072-1.016,3.593,3.593,0,0,1,1.712-.376,3.831,3.831,0,0,1,1.248.192H85.92v1.008l-1.488.064A2.664,2.664,0,0,1,84.9-5.312a2.759,2.759,0,0,1-.376,1.424,2.7,2.7,0,0,1-1.072,1.016A3.545,3.545,0,0,1,81.744-2.5Zm0-1.1A1.983,1.983,0,0,0,83.1-4.04a1.6,1.6,0,0,0,.5-1.272,1.578,1.578,0,0,0-.5-1.256,1.983,1.983,0,0,0-1.352-.44,2.008,2.008,0,0,0-1.368.44,1.578,1.578,0,0,0-.5,1.256,1.6,1.6,0,0,0,.5,1.272A2.008,2.008,0,0,0,81.744-3.6ZM79.408,1.024a1.29,1.29,0,0,0,.672,1.192,3.291,3.291,0,0,0,1.68.392,2.667,2.667,0,0,0,1.592-.432,1.351,1.351,0,0,0,.6-1.152,1.16,1.16,0,0,0-.416-.888A2.563,2.563,0,0,0,82-.3q-.88-.064-1.52-.16a1.97,1.97,0,0,0-.864.76A1.638,1.638,0,0,0,79.408,1.024ZM88.256-9.7a.9.9,0,0,1-.664-.264.9.9,0,0,1-.264-.664.855.855,0,0,1,.264-.64.915.915,0,0,1,.664-.256.923.923,0,0,1,.656.256.842.842,0,0,1,.272.64.887.887,0,0,1-.272.664A.908.908,0,0,1,88.256-9.7ZM87.584,0V-7.936h1.344V0Z" transform="translate(226 3679)" fill="#fff"/>
        </g>
        <g id="Group_2283-3" data-name="Group 2283" transform="translate(10 32)">
          <path id="Path_2298" data-name="Path 2298" d="M3.99,0,.308-9.8H1.582L4.676-1.246,7.8-9.8H9.044L5.362,0Zm8.54.168a3.4,3.4,0,0,1-1.764-.455A3.23,3.23,0,0,1,9.555-1.554a3.96,3.96,0,0,1-.441-1.918,4.023,4.023,0,0,1,.434-1.911,3.156,3.156,0,0,1,1.211-1.274,3.494,3.494,0,0,1,1.8-.455,3.245,3.245,0,0,1,1.743.455,3.083,3.083,0,0,1,1.127,1.2,3.366,3.366,0,0,1,.392,1.6q0,.154-.007.308t-.007.35h-5.53a2.729,2.729,0,0,0,.371,1.323,2.193,2.193,0,0,0,.826.791,2.207,2.207,0,0,0,1.057.266,2.1,2.1,0,0,0,1.218-.336,1.922,1.922,0,0,0,.714-.91h1.162a3.134,3.134,0,0,1-1.071,1.6A3.123,3.123,0,0,1,12.53.168Zm0-6.286a2.348,2.348,0,0,0-1.491.511,2.059,2.059,0,0,0-.749,1.491h4.368a1.986,1.986,0,0,0-.644-1.47A2.161,2.161,0,0,0,12.53-6.118ZM17.374,0V-6.944h1.064l.1,1.33a2.517,2.517,0,0,1,.98-1.092,3.038,3.038,0,0,1,1.624-.406V-5.88h-.322a2.906,2.906,0,0,0-1.134.217,1.722,1.722,0,0,0-.826.735A2.8,2.8,0,0,0,18.55-3.5V0Zm5.8-8.484a.788.788,0,0,1-.581-.231.788.788,0,0,1-.231-.581.748.748,0,0,1,.231-.56.8.8,0,0,1,.581-.224.808.808,0,0,1,.574.224.737.737,0,0,1,.238.56.776.776,0,0,1-.238.581A.794.794,0,0,1,23.17-8.484ZM22.582,0V-6.944h1.176V0Zm3.6,0V-5.95H25.13v-.994h1.05v-1.2a1.907,1.907,0,0,1,.5-1.47,2.1,2.1,0,0,1,1.47-.462h.7v1.008h-.518a1.068,1.068,0,0,0-.756.217,1,1,0,0,0-.224.735v1.176h4.312V0H30.492V-5.95H27.356V0Zm4.914-8.274a.794.794,0,0,1-.574-.231.776.776,0,0,1-.238-.581.737.737,0,0,1,.238-.56.808.808,0,0,1,.574-.224.8.8,0,0,1,.581.224.748.748,0,0,1,.231.56.788.788,0,0,1-.231.581A.788.788,0,0,1,31.094-8.274ZM36.862.168A3.4,3.4,0,0,1,35.1-.287a3.23,3.23,0,0,1-1.211-1.267,3.96,3.96,0,0,1-.441-1.918,4.023,4.023,0,0,1,.434-1.911,3.156,3.156,0,0,1,1.211-1.274,3.494,3.494,0,0,1,1.8-.455,3.245,3.245,0,0,1,1.743.455,3.083,3.083,0,0,1,1.127,1.2,3.366,3.366,0,0,1,.392,1.6q0,.154-.007.308t-.007.35h-5.53a2.729,2.729,0,0,0,.371,1.323,2.193,2.193,0,0,0,.826.791,2.207,2.207,0,0,0,1.057.266,2.1,2.1,0,0,0,1.218-.336,1.922,1.922,0,0,0,.714-.91h1.162a3.134,3.134,0,0,1-1.071,1.6A3.123,3.123,0,0,1,36.862.168Zm0-6.286a2.348,2.348,0,0,0-1.491.511,2.059,2.059,0,0,0-.749,1.491H38.99a1.986,1.986,0,0,0-.644-1.47A2.161,2.161,0,0,0,36.862-6.118ZM44.856.168a3.4,3.4,0,0,1-1.813-.476,3.241,3.241,0,0,1-1.2-1.3,4.026,4.026,0,0,1-.427-1.876,3.931,3.931,0,0,1,.434-1.869,3.269,3.269,0,0,1,1.2-1.288,3.43,3.43,0,0,1,1.82-.469,3.171,3.171,0,0,1,1.512.35,2.522,2.522,0,0,1,1.022.98v-4.3H48.58V0H47.516L47.4-1.148a3.251,3.251,0,0,1-.966.91A2.866,2.866,0,0,1,44.856.168Zm.126-1.022a2.33,2.33,0,0,0,1.239-.329,2.25,2.25,0,0,0,.84-.917,2.972,2.972,0,0,0,.3-1.372,2.972,2.972,0,0,0-.3-1.372,2.25,2.25,0,0,0-.84-.917,2.33,2.33,0,0,0-1.239-.329,2.3,2.3,0,0,0-1.225.329,2.25,2.25,0,0,0-.84.917,2.972,2.972,0,0,0-.3,1.372,2.972,2.972,0,0,0,.3,1.372,2.25,2.25,0,0,0,.84.917A2.3,2.3,0,0,0,44.982-.854ZM57.918.168A3.212,3.212,0,0,1,56.4-.182a2.421,2.421,0,0,1-1.015-.98L55.272,0H54.208V-10.08h1.176V-5.8a3.278,3.278,0,0,1,.959-.91,2.858,2.858,0,0,1,1.589-.406,3.365,3.365,0,0,1,1.806.476,3.257,3.257,0,0,1,1.2,1.3,4.026,4.026,0,0,1,.427,1.876,3.983,3.983,0,0,1-.427,1.869A3.2,3.2,0,0,1,59.731-.3,3.44,3.44,0,0,1,57.918.168ZM57.792-.854a2.294,2.294,0,0,0,1.232-.329,2.315,2.315,0,0,0,.84-.917,2.916,2.916,0,0,0,.308-1.372,2.916,2.916,0,0,0-.308-1.372,2.315,2.315,0,0,0-.84-.917,2.294,2.294,0,0,0-1.232-.329,2.294,2.294,0,0,0-1.232.329,2.315,2.315,0,0,0-.84.917,2.916,2.916,0,0,0-.308,1.372A2.916,2.916,0,0,0,55.72-2.1a2.315,2.315,0,0,0,.84.917A2.294,2.294,0,0,0,57.792-.854ZM63.2,3.08,64.918-.672h-.406L61.754-6.944h1.274l2.3,5.4,2.436-5.4h1.218L64.428,3.08Z" transform="translate(226 3727)" fill="#fff" opacity="0.7"/>
          <path id="Path_2299" data-name="Path 2299" d="M4.752.192A4.811,4.811,0,0,1,2.608-.256,3.348,3.348,0,0,1,1.2-1.5,3.449,3.449,0,0,1,.7-3.36H2.112a2.463,2.463,0,0,0,.3,1.208,2.238,2.238,0,0,0,.888.88,2.922,2.922,0,0,0,1.448.328,2.594,2.594,0,0,0,1.76-.544,1.73,1.73,0,0,0,.624-1.36,1.836,1.836,0,0,0-.288-1.08,2.154,2.154,0,0,0-.776-.664,6.445,6.445,0,0,0-1.12-.448q-.632-.192-1.32-.432a4.714,4.714,0,0,1-1.92-1.112A2.432,2.432,0,0,1,1.088-8.32,2.856,2.856,0,0,1,1.5-9.912,2.932,2.932,0,0,1,2.728-11a4.2,4.2,0,0,1,1.88-.392,4.086,4.086,0,0,1,1.864.4A3.023,3.023,0,0,1,7.7-9.888a3.062,3.062,0,0,1,.456,1.6H6.752a1.957,1.957,0,0,0-.24-.92,1.874,1.874,0,0,0-.728-.744A2.376,2.376,0,0,0,4.56-10.24a2.214,2.214,0,0,0-1.5.464A1.625,1.625,0,0,0,2.48-8.448a1.443,1.443,0,0,0,.408,1.1,3.089,3.089,0,0,0,1.144.632q.736.248,1.7.568a8.174,8.174,0,0,1,1.44.672,2.829,2.829,0,0,1,1,.992,3.011,3.011,0,0,1,.36,1.552,2.95,2.95,0,0,1-.416,1.512A3.091,3.091,0,0,1,6.856-.256,4.437,4.437,0,0,1,4.752.192ZM10.352,0V-11.52H11.7v4.944A2.827,2.827,0,0,1,12.832-7.72a3.246,3.246,0,0,1,1.6-.408,2.939,2.939,0,0,1,2.208.856,3.65,3.65,0,0,1,.832,2.632V0H16.144V-4.5q0-2.48-2-2.48a2.3,2.3,0,0,0-1.744.744,2.966,2.966,0,0,0-.7,2.12V0ZM19.5,0V-7.936H20.72l.112,1.52a2.877,2.877,0,0,1,1.12-1.248,3.472,3.472,0,0,1,1.856-.464V-6.72H23.44a3.321,3.321,0,0,0-1.3.248,1.968,1.968,0,0,0-.944.84A3.2,3.2,0,0,0,20.848-4V0Zm6.624-9.7a.9.9,0,0,1-.664-.264.9.9,0,0,1-.264-.664.855.855,0,0,1,.264-.64.915.915,0,0,1,.664-.256.923.923,0,0,1,.656.256.842.842,0,0,1,.272.64.887.887,0,0,1-.272.664A.908.908,0,0,1,26.128-9.7ZM25.456,0V-7.936H26.8V0Zm3.68,0V-7.936h1.216l.08,1.424a2.882,2.882,0,0,1,1.1-1.184,3.11,3.11,0,0,1,1.632-.432,3.006,3.006,0,0,1,2.248.856,3.628,3.628,0,0,1,.84,2.632V0H34.912V-4.5q0-2.48-2.048-2.48a2.212,2.212,0,0,0-1.7.744,3.032,3.032,0,0,0-.68,2.12V0ZM39.1-9.7a.9.9,0,0,1-.664-.264.9.9,0,0,1-.264-.664.855.855,0,0,1,.264-.64.915.915,0,0,1,.664-.256.923.923,0,0,1,.656.256.842.842,0,0,1,.272.64.887.887,0,0,1-.272.664A.908.908,0,0,1,39.1-9.7ZM38.432,0V-7.936h1.344V0ZM44.4,0,41.392-7.936H42.8L45.184-1.3l2.4-6.64H48.96L45.952,0Zm8.288.192A3.6,3.6,0,0,1,51.04-.144a2.284,2.284,0,0,1-.976-.9,2.409,2.409,0,0,1-.32-1.216,2.155,2.155,0,0,1,.928-1.872A4.309,4.309,0,0,1,53.2-4.784h2.144v-.1A2.118,2.118,0,0,0,54.8-6.456a1.984,1.984,0,0,0-1.456-.536,2.321,2.321,0,0,0-1.352.392,1.717,1.717,0,0,0-.712,1.144H49.9a2.547,2.547,0,0,1,.584-1.456,3.264,3.264,0,0,1,1.256-.9,4.133,4.133,0,0,1,1.6-.312,3.288,3.288,0,0,1,2.5.888,3.293,3.293,0,0,1,.84,2.36V0h-1.2l-.08-1.424A3.148,3.148,0,0,1,54.424-.28,2.887,2.887,0,0,1,52.688.192ZM52.9-.944a2.189,2.189,0,0,0,1.32-.4,2.553,2.553,0,0,0,.84-1.04,3.239,3.239,0,0,0,.288-1.344v-.016H53.312a2.638,2.638,0,0,0-1.672.408,1.272,1.272,0,0,0-.488,1.016,1.231,1.231,0,0,0,.456,1A1.972,1.972,0,0,0,52.9-.944ZM61.744.192a3.792,3.792,0,0,1-2.368-.72,2.807,2.807,0,0,1-1.1-1.952h1.376a1.9,1.9,0,0,0,.664,1.08,2.161,2.161,0,0,0,1.448.456,1.826,1.826,0,0,0,1.248-.36,1.115,1.115,0,0,0,.4-.856.95.95,0,0,0-.52-.96,6.921,6.921,0,0,0-1.464-.432,8.252,8.252,0,0,1-1.28-.368,2.908,2.908,0,0,1-1.072-.68,1.584,1.584,0,0,1-.432-1.16,2.141,2.141,0,0,1,.776-1.7,3.129,3.129,0,0,1,2.1-.664,3.263,3.263,0,0,1,2.072.632,2.522,2.522,0,0,1,.936,1.8H63.2a1.384,1.384,0,0,0-.52-.952A1.858,1.858,0,0,0,61.5-6.992a1.78,1.78,0,0,0-1.112.3.964.964,0,0,0-.392.8.831.831,0,0,0,.5.752,5.411,5.411,0,0,0,1.368.464,11.916,11.916,0,0,1,1.4.392,2.646,2.646,0,0,1,1.088.688,1.87,1.87,0,0,1,.424,1.32A2.168,2.168,0,0,1,63.976-.5,3.348,3.348,0,0,1,61.744.192ZM73.648,0V-10.1H70.3v-1.1h8.032v1.1H74.992V0Zm5.44.08a.9.9,0,0,1-.664-.264.881.881,0,0,1-.264-.648.881.881,0,0,1,.264-.648.9.9,0,0,1,.664-.264.881.881,0,0,1,.648.264A.881.881,0,0,1,80-.832a.881.881,0,0,1-.264.648A.881.881,0,0,1,79.088.08Z" transform="translate(226 3748)" fill="#fff"/>
        </g>
        <g id="Group_2284-3" data-name="Group 2284" transform="translate(-793 1066)">
          <rect id="Rectangle_2920-3" data-name="Rectangle 2920" width="170" height="38" rx="8" transform="translate(1038 2741)" fill="#7d0eff"/>
          <path id="Path_2300" data-name="Path 2300" d="M.368,0l4.1-11.2h2.3L10.864,0H8.688l-.9-2.592H3.424L2.512,0ZM3.984-4.192H7.232L5.6-8.848ZM12.256,3.52V-7.936H14.08L14.3-6.8a3.645,3.645,0,0,1,1.016-.928,3.024,3.024,0,0,1,1.64-.4,3.725,3.725,0,0,1,2,.544A3.9,3.9,0,0,1,20.352-6.1a4.424,4.424,0,0,1,.512,2.144,4.378,4.378,0,0,1-.512,2.136A3.852,3.852,0,0,1,18.96-.344a3.768,3.768,0,0,1-2,.536,3.464,3.464,0,0,1-1.568-.336A2.826,2.826,0,0,1,14.3-1.088V3.52ZM16.528-1.6a2.163,2.163,0,0,0,1.616-.656,2.326,2.326,0,0,0,.64-1.7,2.382,2.382,0,0,0-.64-1.712,2.137,2.137,0,0,0-1.616-.672,2.143,2.143,0,0,0-1.624.664,2.371,2.371,0,0,0-.632,1.7,2.371,2.371,0,0,0,.632,1.7A2.143,2.143,0,0,0,16.528-1.6Zm6.16,5.12V-7.936h1.824L24.736-6.8a3.645,3.645,0,0,1,1.016-.928,3.024,3.024,0,0,1,1.64-.4,3.725,3.725,0,0,1,2,.544A3.9,3.9,0,0,1,30.784-6.1,4.424,4.424,0,0,1,31.3-3.952a4.378,4.378,0,0,1-.512,2.136A3.852,3.852,0,0,1,29.392-.344a3.768,3.768,0,0,1-2,.536,3.464,3.464,0,0,1-1.568-.336,2.826,2.826,0,0,1-1.088-.944V3.52ZM26.96-1.6a2.163,2.163,0,0,0,1.616-.656,2.326,2.326,0,0,0,.64-1.7,2.382,2.382,0,0,0-.64-1.712,2.137,2.137,0,0,0-1.616-.672,2.143,2.143,0,0,0-1.624.664,2.371,2.371,0,0,0-.632,1.7,2.371,2.371,0,0,0,.632,1.7A2.143,2.143,0,0,0,26.96-1.6ZM33.12,0V-7.936h1.824l.192,1.488a3.321,3.321,0,0,1,1.176-1.224,3.286,3.286,0,0,1,1.752-.456v2.16h-.576a3.254,3.254,0,0,0-1.2.208,1.616,1.616,0,0,0-.824.72,2.86,2.86,0,0,0-.3,1.424V0Zm10,.192a4.087,4.087,0,0,1-2.072-.528A3.877,3.877,0,0,1,39.592-1.8a4.286,4.286,0,0,1-.536-2.168A4.236,4.236,0,0,1,39.6-6.136,3.935,3.935,0,0,1,41.064-7.6a4.087,4.087,0,0,1,2.072-.528,4.056,4.056,0,0,1,2.056.528,3.877,3.877,0,0,1,1.456,1.464,4.286,4.286,0,0,1,.536,2.168A4.286,4.286,0,0,1,46.648-1.8,3.86,3.86,0,0,1,45.184-.336,4.1,4.1,0,0,1,43.12.192Zm0-1.776a1.893,1.893,0,0,0,1.392-.6A2.441,2.441,0,0,0,45.1-3.968a2.441,2.441,0,0,0-.592-1.784,1.875,1.875,0,0,0-1.376-.6,1.885,1.885,0,0,0-1.4.6,2.462,2.462,0,0,0-.584,1.784,2.462,2.462,0,0,0,.584,1.784A1.867,1.867,0,0,0,43.12-1.584ZM50.768,0,47.856-7.936H50l2.016,6,2.016-6h2.144L53.248,0ZM60.944.192A4.332,4.332,0,0,1,58.816-.32,3.706,3.706,0,0,1,57.36-1.76,4.26,4.26,0,0,1,56.832-3.9a4.528,4.528,0,0,1,.52-2.192,3.775,3.775,0,0,1,1.44-1.5,4.23,4.23,0,0,1,2.168-.536,4.086,4.086,0,0,1,2.064.512,3.677,3.677,0,0,1,1.4,1.4,3.933,3.933,0,0,1,.5,1.976q0,.176-.008.368t-.024.4H58.864a2.067,2.067,0,0,0,.648,1.456,2.036,2.036,0,0,0,1.416.528,1.861,1.861,0,0,0,1.048-.28,1.735,1.735,0,0,0,.632-.728h2.08a3.771,3.771,0,0,1-.744,1.368,3.668,3.668,0,0,1-1.28.968A4.047,4.047,0,0,1,60.944.192Zm.016-6.656a2.181,2.181,0,0,0-1.328.424A1.965,1.965,0,0,0,58.9-4.752h3.952A1.727,1.727,0,0,0,62.272-6,1.916,1.916,0,0,0,60.96-6.464Z" transform="translate(1090 2766)" fill="#fff"/>
        </g>
        <path id="Path_2295" data-name="Path 2295" d="M-33.68,0V-11.2h2.048V0ZM-29.5,0V-7.936H-27.7l.16,1.344a2.79,2.79,0,0,1,1.064-1.12,3.136,3.136,0,0,1,1.64-.416,2.886,2.886,0,0,1,2.288.928,4,4,0,0,1,.816,2.72V0h-2.048V-4.288a2.542,2.542,0,0,0-.416-1.568,1.528,1.528,0,0,0-1.3-.544,1.826,1.826,0,0,0-1.416.608,2.432,2.432,0,0,0-.552,1.7V0Zm11.792,0-2.912-7.936h2.144l2.016,6,2.016-6H-12.3L-15.232,0ZM-7.584.192A4.087,4.087,0,0,1-9.656-.336,3.877,3.877,0,0,1-11.112-1.8a4.286,4.286,0,0,1-.536-2.168A4.236,4.236,0,0,1-11.1-6.136,3.935,3.935,0,0,1-9.64-7.6a4.087,4.087,0,0,1,2.072-.528A4.056,4.056,0,0,1-5.512-7.6,3.877,3.877,0,0,1-4.056-6.136,4.286,4.286,0,0,1-3.52-3.968,4.286,4.286,0,0,1-4.056-1.8,3.86,3.86,0,0,1-5.52-.336,4.1,4.1,0,0,1-7.584.192Zm0-1.776a1.893,1.893,0,0,0,1.392-.6A2.441,2.441,0,0,0-5.6-3.968a2.441,2.441,0,0,0-.592-1.784,1.875,1.875,0,0,0-1.376-.6,1.885,1.885,0,0,0-1.4.6,2.462,2.462,0,0,0-.584,1.784,2.462,2.462,0,0,0,.584,1.784A1.867,1.867,0,0,0-7.584-1.584ZM-.592-9.168a1.3,1.3,0,0,1-.92-.336,1.11,1.11,0,0,1-.36-.848,1.085,1.085,0,0,1,.36-.84,1.313,1.313,0,0,1,.92-.328,1.313,1.313,0,0,1,.92.328,1.085,1.085,0,0,1,.36.84,1.11,1.11,0,0,1-.36.848A1.3,1.3,0,0,1-.592-9.168ZM-1.616,0V-7.936H.432V0Zm8.08.192A4.26,4.26,0,0,1,4.32-.336,3.844,3.844,0,0,1,2.856-1.808a4.3,4.3,0,0,1-.536-2.16,4.3,4.3,0,0,1,.536-2.16A3.844,3.844,0,0,1,4.32-7.6a4.26,4.26,0,0,1,2.144-.528,4.1,4.1,0,0,1,2.56.792,3.541,3.541,0,0,1,1.328,2.184H8.192a1.579,1.579,0,0,0-.632-.9,1.9,1.9,0,0,0-1.112-.328,1.889,1.889,0,0,0-1.44.64,2.516,2.516,0,0,0-.592,1.776,2.516,2.516,0,0,0,.592,1.776,1.889,1.889,0,0,0,1.44.64,1.934,1.934,0,0,0,1.112-.32,1.547,1.547,0,0,0,.632-.912h2.16A3.619,3.619,0,0,1,9.024-.624,4.02,4.02,0,0,1,6.464.192Zm9.568,0A4.332,4.332,0,0,1,13.9-.32a3.706,3.706,0,0,1-1.456-1.44A4.26,4.26,0,0,1,11.92-3.9,4.528,4.528,0,0,1,12.44-6.1a3.775,3.775,0,0,1,1.44-1.5,4.23,4.23,0,0,1,2.168-.536,4.086,4.086,0,0,1,2.064.512,3.677,3.677,0,0,1,1.4,1.4,3.932,3.932,0,0,1,.5,1.976q0,.176-.008.368t-.024.4H13.952A2.067,2.067,0,0,0,14.6-2.016a2.036,2.036,0,0,0,1.416.528,1.861,1.861,0,0,0,1.048-.28A1.735,1.735,0,0,0,17.7-2.5h2.08a3.771,3.771,0,0,1-.744,1.368,3.668,3.668,0,0,1-1.28.968A4.047,4.047,0,0,1,16.032.192Zm.016-6.656a2.181,2.181,0,0,0-1.328.424,1.965,1.965,0,0,0-.736,1.288h3.952A1.727,1.727,0,0,0,17.36-6,1.916,1.916,0,0,0,16.048-6.464ZM30.72,0V-2.08H25.2V-3.712L30.448-11.2h2.32v7.344H34.24V-2.08H32.768V0ZM27.392-3.856h3.456V-8.944Z" transform="translate(331 3662)" fill="#fff"/>
      </g>
    </g>
  </g>
</svg>
