<svg xmlns="http://www.w3.org/2000/svg" xmlns:xlink="http://www.w3.org/1999/xlink" width="469.035" height="36" viewBox="0 0 469.035 36">
  <defs>
    <clipPath id="clip-path">
      <rect id="Rectangle_2916" data-name="Rectangle 2916" width="151.012" height="36" fill="none"/>
    </clipPath>
    <clipPath id="clip-path-2">
      <rect id="Rectangle_2917" data-name="Rectangle 2917" width="161.012" height="36" transform="translate(-10)" fill="none"/>
    </clipPath>
  </defs>
  <g id="Group_2375" data-name="Group 2375" transform="translate(-12006.482 -2194)">
    <g id="Group_2372" data-name="Group 2372" transform="translate(11906.482 -2381)">
      <g id="Group_2261" data-name="Group 2261" transform="translate(100 4575)" clip-path="url(#clip-path)">
        <path id="Path_1923" data-name="Path 1923" d="M19.735,0H151.012L136.265,26.892A17.525,17.525,0,0,1,120.867,36H0Z" transform="translate(0 0)" fill="#517ce3"/>
      </g>
      <path id="Path_1927" data-name="Path 1927" d="M1.5,0V-15.4H7.678a5.388,5.388,0,0,1,3.663,1.111,3.62,3.62,0,0,1,1.265,2.849,3.342,3.342,0,0,1-.781,2.321,3.9,3.9,0,0,1-1.9,1.177A3.672,3.672,0,0,1,12.1-6.633,3.717,3.717,0,0,1,12.958-4.2a3.878,3.878,0,0,1-1.32,3.014A5.4,5.4,0,0,1,7.9,0ZM4.312-8.932H7.26a2.716,2.716,0,0,0,1.826-.55,1.95,1.95,0,0,0,.638-1.562A1.948,1.948,0,0,0,9.1-12.573a2.746,2.746,0,0,0-1.881-.561h-2.9Zm0,6.644H7.458a2.938,2.938,0,0,0,1.947-.583A2.024,2.024,0,0,0,10.1-4.51,2.1,2.1,0,0,0,9.372-6.2,2.927,2.927,0,0,0,7.414-6.82h-3.1ZM19.074.264a5.162,5.162,0,0,1-2.31-.451,3.121,3.121,0,0,1-1.342-1.2,3.2,3.2,0,0,1-.44-1.65A3,3,0,0,1,16.17-5.5a5.649,5.649,0,0,1,3.564-.946h2.772V-6.71a2.02,2.02,0,0,0-.638-1.65,2.4,2.4,0,0,0-1.584-.528,2.721,2.721,0,0,0-1.5.407A1.752,1.752,0,0,0,18-7.282h-2.75a3.838,3.838,0,0,1,.8-2.068A4.5,4.5,0,0,1,17.842-10.7a6.178,6.178,0,0,1,2.464-.473A5.413,5.413,0,0,1,23.98-10.01a4.137,4.137,0,0,1,1.342,3.3V0h-2.4L22.66-1.76A4.067,4.067,0,0,1,21.307-.308,3.989,3.989,0,0,1,19.074.264Zm.638-2.2a2.331,2.331,0,0,0,1.881-.792,3.846,3.846,0,0,0,.847-1.958h-2.4a2.5,2.5,0,0,0-1.606.407,1.26,1.26,0,0,0-.484,1,1.153,1.153,0,0,0,.484.99A2.121,2.121,0,0,0,19.712-1.936ZM28.006,0V-10.912h2.486l.22,1.848a3.837,3.837,0,0,1,1.463-1.54,4.313,4.313,0,0,1,2.255-.572A3.968,3.968,0,0,1,37.576-9.9,5.506,5.506,0,0,1,38.7-6.16V0H35.882V-5.9a3.5,3.5,0,0,0-.572-2.156A2.1,2.1,0,0,0,33.528-8.8a2.511,2.511,0,0,0-1.947.836,3.344,3.344,0,0,0-.759,2.332V0ZM41.382,0V-15.84H44.2v9.35l3.872-4.422h3.344L46.948-5.94,52.14,0H48.62L44.2-5.478V0ZM55.4-12.606a1.78,1.78,0,0,1-1.265-.462,1.527,1.527,0,0,1-.495-1.166,1.493,1.493,0,0,1,.495-1.155A1.806,1.806,0,0,1,55.4-15.84a1.806,1.806,0,0,1,1.265.451,1.493,1.493,0,0,1,.495,1.155,1.527,1.527,0,0,1-.495,1.166A1.78,1.78,0,0,1,55.4-12.606ZM53.988,0V-10.912H56.8V0Zm5.764,0V-10.912h2.486l.22,1.848a3.837,3.837,0,0,1,1.463-1.54,4.313,4.313,0,0,1,2.255-.572A3.968,3.968,0,0,1,69.322-9.9a5.506,5.506,0,0,1,1.122,3.74V0H67.628V-5.9a3.5,3.5,0,0,0-.572-2.156A2.1,2.1,0,0,0,65.274-8.8a2.511,2.511,0,0,0-1.947.836,3.344,3.344,0,0,0-.759,2.332V0Zm18-3.256a5.885,5.885,0,0,1-1.474-.176l-.814.814a3.891,3.891,0,0,0,1.012.33q.638.132,2.068.264A5.71,5.71,0,0,1,81.708-.99a2.861,2.861,0,0,1,.99,2.31,3.482,3.482,0,0,1-.528,1.837,3.783,3.783,0,0,1-1.628,1.408,6.4,6.4,0,0,1-2.816.539,7.179,7.179,0,0,1-3.762-.869,2.853,2.853,0,0,1-1.43-2.607,3.14,3.14,0,0,1,1.43-2.552,4.83,4.83,0,0,1-.759-.418,4.01,4.01,0,0,1-.561-.462V-2.31l1.914-2.024a3.663,3.663,0,0,1-1.276-2.882,3.829,3.829,0,0,1,.539-2,3.842,3.842,0,0,1,1.529-1.43,5.037,5.037,0,0,1,2.4-.528,5.4,5.4,0,0,1,1.716.264H83.6V-9.2l-1.87.132a3.906,3.906,0,0,1,.44,1.848,3.89,3.89,0,0,1-.528,2,3.748,3.748,0,0,1-1.529,1.43A5,5,0,0,1,77.748-3.256Zm0-2.156a2.158,2.158,0,0,0,1.419-.462,1.613,1.613,0,0,0,.561-1.32,1.613,1.613,0,0,0-.561-1.32,2.158,2.158,0,0,0-1.419-.462,2.183,2.183,0,0,0-1.452.462,1.628,1.628,0,0,0-.55,1.32,1.628,1.628,0,0,0,.55,1.32A2.183,2.183,0,0,0,77.748-5.412Zm-2.64,6.754a1.309,1.309,0,0,0,.759,1.221,3.892,3.892,0,0,0,1.859.407,3.1,3.1,0,0,0,1.716-.429,1.318,1.318,0,0,0,.66-1.155A1.291,1.291,0,0,0,79.673.4a2.922,2.922,0,0,0-1.705-.484q-.9-.066-1.672-.2a2.519,2.519,0,0,0-.913.77A1.543,1.543,0,0,0,75.108,1.342Z" transform="translate(132.504 4598.84)"/>
    </g>
    <g id="Group_2373" data-name="Group 2373" transform="translate(12115.494 -2437)">
      <g id="Group_2264" data-name="Group 2264" transform="translate(55 4631)">
        <g id="Group_2263" data-name="Group 2263" transform="translate(0 0)" clip-path="url(#clip-path-2)">
          <path id="Path_1924" data-name="Path 1924" d="M9.735,0H151.012L136.265,26.892A17.525,17.525,0,0,1,120.867,36H-10Z" transform="translate(0 0)" fill="#85e6c4"/>
        </g>
      </g>
      <path id="Path_1926" data-name="Path 1926" d="M.506,0,6.138-15.4H9.306L14.938,0H11.946L10.714-3.564H4.708L3.454,0ZM5.478-5.764H9.944L7.7-12.166ZM21.692.264a5.857,5.857,0,0,1-2.948-.726,5.285,5.285,0,0,1-2.013-2.024,5.909,5.909,0,0,1-.737-2.97,5.909,5.909,0,0,1,.737-2.97,5.285,5.285,0,0,1,2.013-2.024,5.857,5.857,0,0,1,2.948-.726,5.64,5.64,0,0,1,3.52,1.089,4.869,4.869,0,0,1,1.826,3h-2.97A2.171,2.171,0,0,0,23.2-8.327a2.612,2.612,0,0,0-1.529-.451,2.6,2.6,0,0,0-1.98.88,3.459,3.459,0,0,0-.814,2.442,3.459,3.459,0,0,0,.814,2.442,2.6,2.6,0,0,0,1.98.88,2.659,2.659,0,0,0,1.529-.44,2.127,2.127,0,0,0,.869-1.254h2.97a4.976,4.976,0,0,1-1.826,2.97A5.527,5.527,0,0,1,21.692.264Zm13.2,0a5.857,5.857,0,0,1-2.948-.726,5.285,5.285,0,0,1-2.013-2.024,5.909,5.909,0,0,1-.737-2.97,5.909,5.909,0,0,1,.737-2.97,5.285,5.285,0,0,1,2.013-2.024,5.857,5.857,0,0,1,2.948-.726,5.64,5.64,0,0,1,3.52,1.089,4.869,4.869,0,0,1,1.826,3h-2.97A2.171,2.171,0,0,0,36.4-8.327a2.612,2.612,0,0,0-1.529-.451,2.6,2.6,0,0,0-1.98.88,3.459,3.459,0,0,0-.814,2.442,3.459,3.459,0,0,0,.814,2.442,2.6,2.6,0,0,0,1.98.88,2.659,2.659,0,0,0,1.529-.44,2.127,2.127,0,0,0,.869-1.254h2.97a4.976,4.976,0,0,1-1.826,2.97A5.527,5.527,0,0,1,34.892.264Zm13.09,0a5.62,5.62,0,0,1-2.849-.726,5.33,5.33,0,0,1-2-2.013,5.893,5.893,0,0,1-.737-2.981,5.824,5.824,0,0,1,.748-2.981,5.411,5.411,0,0,1,2.013-2.013A5.62,5.62,0,0,1,48-11.176a5.577,5.577,0,0,1,2.827.726,5.33,5.33,0,0,1,2,2.013,5.893,5.893,0,0,1,.737,2.981,5.893,5.893,0,0,1-.737,2.981A5.307,5.307,0,0,1,50.82-.462,5.637,5.637,0,0,1,47.982.264Zm0-2.442A2.6,2.6,0,0,0,49.9-3a3.356,3.356,0,0,0,.814-2.453A3.356,3.356,0,0,0,49.9-7.909,2.579,2.579,0,0,0,48-8.734a2.591,2.591,0,0,0-1.925.825,3.385,3.385,0,0,0-.8,2.453A3.385,3.385,0,0,0,46.079-3,2.567,2.567,0,0,0,47.982-2.178ZM60.17.264a3.961,3.961,0,0,1-3.157-1.276A5.543,5.543,0,0,1,55.9-4.752v-6.16H58.7v5.9a3.5,3.5,0,0,0,.572,2.156,2.126,2.126,0,0,0,1.8.748A2.487,2.487,0,0,0,63-2.948a3.344,3.344,0,0,0,.759-2.332v-5.632h2.816V0H64.086l-.22-1.848A3.837,3.837,0,0,1,62.4-.308,4.269,4.269,0,0,1,60.17.264ZM69.454,0V-10.912H71.94l.22,1.848a3.837,3.837,0,0,1,1.463-1.54,4.313,4.313,0,0,1,2.255-.572A3.968,3.968,0,0,1,79.024-9.9a5.506,5.506,0,0,1,1.122,3.74V0H77.33V-5.9a3.5,3.5,0,0,0-.572-2.156A2.1,2.1,0,0,0,74.976-8.8a2.511,2.511,0,0,0-1.947.836,3.344,3.344,0,0,0-.759,2.332V0ZM87.692,0a4.243,4.243,0,0,1-2.75-.836,3.636,3.636,0,0,1-1.034-2.97V-8.558h-1.87v-2.354h1.87l.33-2.926h2.486v2.926h2.948v2.354H86.724v4.774A1.4,1.4,0,0,0,87.065-2.7a1.8,1.8,0,0,0,1.177.3h1.364V0ZM93.61-12.606a1.78,1.78,0,0,1-1.265-.462,1.527,1.527,0,0,1-.495-1.166,1.493,1.493,0,0,1,.495-1.155,1.806,1.806,0,0,1,1.265-.451,1.806,1.806,0,0,1,1.265.451,1.493,1.493,0,0,1,.5,1.155,1.527,1.527,0,0,1-.5,1.166A1.78,1.78,0,0,1,93.61-12.606ZM92.2,0V-10.912h2.816V0Zm5.764,0V-10.912h2.486l.22,1.848a3.837,3.837,0,0,1,1.463-1.54,4.313,4.313,0,0,1,2.255-.572A3.968,3.968,0,0,1,107.536-9.9a5.506,5.506,0,0,1,1.122,3.74V0h-2.816V-5.9a3.5,3.5,0,0,0-.572-2.156,2.1,2.1,0,0,0-1.782-.748,2.511,2.511,0,0,0-1.947.836,3.344,3.344,0,0,0-.759,2.332V0Zm18-3.256a5.885,5.885,0,0,1-1.474-.176l-.814.814a3.891,3.891,0,0,0,1.012.33q.638.132,2.068.264A5.71,5.71,0,0,1,119.922-.99a2.861,2.861,0,0,1,.99,2.31,3.482,3.482,0,0,1-.528,1.837,3.783,3.783,0,0,1-1.628,1.408,6.4,6.4,0,0,1-2.816.539,7.179,7.179,0,0,1-3.762-.869,2.853,2.853,0,0,1-1.43-2.607,3.14,3.14,0,0,1,1.43-2.552,4.83,4.83,0,0,1-.759-.418,4.01,4.01,0,0,1-.561-.462V-2.31l1.914-2.024A3.663,3.663,0,0,1,111.5-7.216a3.829,3.829,0,0,1,.539-2,3.842,3.842,0,0,1,1.529-1.43,5.037,5.037,0,0,1,2.4-.528,5.4,5.4,0,0,1,1.716.264h4.136V-9.2l-1.87.132a3.906,3.906,0,0,1,.44,1.848,3.89,3.89,0,0,1-.528,2,3.748,3.748,0,0,1-1.529,1.43A5,5,0,0,1,115.962-3.256Zm0-2.156a2.158,2.158,0,0,0,1.419-.462,1.613,1.613,0,0,0,.561-1.32,1.613,1.613,0,0,0-.561-1.32,2.158,2.158,0,0,0-1.419-.462,2.183,2.183,0,0,0-1.452.462,1.628,1.628,0,0,0-.55,1.32,1.628,1.628,0,0,0,.55,1.32A2.183,2.183,0,0,0,115.962-5.412Zm-2.64,6.754a1.309,1.309,0,0,0,.759,1.221,3.892,3.892,0,0,0,1.859.407,3.1,3.1,0,0,0,1.716-.429,1.318,1.318,0,0,0,.66-1.155,1.291,1.291,0,0,0-.429-.99,2.922,2.922,0,0,0-1.705-.484q-.9-.066-1.672-.2a2.519,2.519,0,0,0-.913.77A1.543,1.543,0,0,0,113.322,1.342Z" transform="translate(62 4654.84)"/>
    </g>
    <g id="Group_2374" data-name="Group 2374" transform="translate(12052.506 -2477)">
      <g id="Group_2266" data-name="Group 2266" transform="translate(272 4671)">
        <g id="Group_2265" data-name="Group 2265" transform="translate(0 0)" clip-path="url(#clip-path)">
          <path id="Path_1925" data-name="Path 1925" d="M19.735,0H151.012L136.265,26.892A17.525,17.525,0,0,1,120.867,36H0Z" transform="translate(0 0)" fill="#6d44e5"/>
        </g>
      </g>
      <path id="Path_1928" data-name="Path 1928" d="M1.5,0V-15.4h5.7a6.715,6.715,0,0,1,3.058.616,4.129,4.129,0,0,1,1.8,1.694,4.93,4.93,0,0,1,.594,2.42,4.88,4.88,0,0,1-.572,2.343A4.2,4.2,0,0,1,10.3-6.611a6.533,6.533,0,0,1-3.1.649H4.312V0ZM4.312-8.25H7.018A2.919,2.919,0,0,0,9.141-8.9,2.393,2.393,0,0,0,9.79-10.67a2.423,2.423,0,0,0-.649-1.793,2.919,2.919,0,0,0-2.123-.649H4.312ZM17.864.264a5.162,5.162,0,0,1-2.31-.451,3.121,3.121,0,0,1-1.342-1.2,3.2,3.2,0,0,1-.44-1.65A3,3,0,0,1,14.96-5.5a5.649,5.649,0,0,1,3.564-.946H21.3V-6.71a2.02,2.02,0,0,0-.638-1.65,2.4,2.4,0,0,0-1.584-.528,2.721,2.721,0,0,0-1.5.407,1.752,1.752,0,0,0-.792,1.2h-2.75a3.838,3.838,0,0,1,.8-2.068A4.5,4.5,0,0,1,16.632-10.7a6.178,6.178,0,0,1,2.464-.473A5.413,5.413,0,0,1,22.77-10.01a4.137,4.137,0,0,1,1.342,3.3V0h-2.4L21.45-1.76A4.067,4.067,0,0,1,20.1-.308,3.989,3.989,0,0,1,17.864.264Zm.638-2.2a2.331,2.331,0,0,0,1.881-.792,3.846,3.846,0,0,0,.847-1.958h-2.4a2.5,2.5,0,0,0-1.606.407,1.26,1.26,0,0,0-.484,1,1.153,1.153,0,0,0,.484.99A2.121,2.121,0,0,0,18.5-1.936ZM27.786,4.84l2.53-5.566h-.66L25.41-10.912h3.058l3.058,7.678,3.19-7.678h2.992L30.778,4.84ZM39.556,0V-10.912h2.486l.242,1.474a3.874,3.874,0,0,1,1.4-1.265,4.145,4.145,0,0,1,2.013-.473A3.74,3.74,0,0,1,49.28-9.218a4.239,4.239,0,0,1,1.6-1.43,4.619,4.619,0,0,1,2.189-.528A4.174,4.174,0,0,1,56.342-9.9a5.434,5.434,0,0,1,1.144,3.74V0H54.67V-5.9a3.656,3.656,0,0,0-.539-2.156A1.91,1.91,0,0,0,52.47-8.8a2.267,2.267,0,0,0-1.837.836,3.552,3.552,0,0,0-.693,2.332V0H47.124V-5.9a3.6,3.6,0,0,0-.55-2.156A1.964,1.964,0,0,0,44.88-8.8a2.244,2.244,0,0,0-1.815.836,3.553,3.553,0,0,0-.693,2.332V0ZM65.472.264a5.957,5.957,0,0,1-2.926-.7,5.1,5.1,0,0,1-2-1.98,5.857,5.857,0,0,1-.726-2.948,6.227,6.227,0,0,1,.715-3.014,5.191,5.191,0,0,1,1.98-2.057,5.817,5.817,0,0,1,2.981-.737,5.619,5.619,0,0,1,2.838.7,5.056,5.056,0,0,1,1.925,1.925A5.407,5.407,0,0,1,70.95-5.83q0,.242-.011.506t-.033.55H62.612a2.842,2.842,0,0,0,.891,2,2.8,2.8,0,0,0,1.947.726,2.559,2.559,0,0,0,1.441-.385,2.385,2.385,0,0,0,.869-1h2.86A5.185,5.185,0,0,1,69.6-1.551,5.044,5.044,0,0,1,67.837-.22,5.564,5.564,0,0,1,65.472.264Zm.022-9.152a3,3,0,0,0-1.826.583,2.7,2.7,0,0,0-1.012,1.771H68.09A2.375,2.375,0,0,0,67.3-8.25,2.634,2.634,0,0,0,65.494-8.888ZM73.326,0V-10.912h2.486l.22,1.848A3.837,3.837,0,0,1,77.5-10.6a4.313,4.313,0,0,1,2.255-.572A3.968,3.968,0,0,1,82.9-9.9a5.506,5.506,0,0,1,1.122,3.74V0H81.2V-5.9a3.5,3.5,0,0,0-.572-2.156A2.1,2.1,0,0,0,78.848-8.8a2.511,2.511,0,0,0-1.947.836,3.344,3.344,0,0,0-.759,2.332V0ZM91.564,0a4.243,4.243,0,0,1-2.75-.836,3.636,3.636,0,0,1-1.034-2.97V-8.558H85.91v-2.354h1.87l.33-2.926H90.6v2.926h2.948v2.354H90.6v4.774A1.4,1.4,0,0,0,90.937-2.7a1.8,1.8,0,0,0,1.177.3h1.364V0Zm8.91.264a6.415,6.415,0,0,1-2.552-.473,4.408,4.408,0,0,1-1.76-1.309,3.79,3.79,0,0,1-.792-1.936h2.838a1.827,1.827,0,0,0,.715,1.089,2.393,2.393,0,0,0,1.507.451,2.029,2.029,0,0,0,1.353-.374,1.115,1.115,0,0,0,.429-.858A.945.945,0,0,0,101.6-4.1,10.855,10.855,0,0,0,99.88-4.6q-.7-.154-1.43-.374a6.6,6.6,0,0,1-1.331-.561,2.909,2.909,0,0,1-.979-.88,2.278,2.278,0,0,1-.374-1.331,3.093,3.093,0,0,1,1.155-2.442,4.835,4.835,0,0,1,3.245-.99,4.888,4.888,0,0,1,3.091.9,3.656,3.656,0,0,1,1.375,2.486H101.97Q101.728-9,100.144-9a2.071,2.071,0,0,0-1.221.308.919.919,0,0,0-.429.77q0,.484.638.77a9.37,9.37,0,0,0,1.694.528q1.144.264,2.1.583a3.531,3.531,0,0,1,1.529.946,2.568,2.568,0,0,1,.572,1.793,3.064,3.064,0,0,1-.528,1.826A3.648,3.648,0,0,1,102.916-.2,5.947,5.947,0,0,1,100.474.264Z" transform="translate(295 4694.4)"/>
    </g>
  </g>
</svg>
