<svg xmlns="http://www.w3.org/2000/svg" xmlns:xlink="http://www.w3.org/1999/xlink" width="632" height="426" viewBox="0 0 632 426">
  <defs>
    <linearGradient id="linear-gradient" x1="0.5" x2="0.5" y2="1" gradientUnits="objectBoundingBox">
      <stop offset="0" stop-color="#7d0eff"/>
      <stop offset="1" stop-color="#1eefb0"/>
    </linearGradient>
    <filter id="Rectangle_2618" x="0" y="0" width="632" height="426" filterUnits="userSpaceOnUse">
      <feOffset input="SourceAlpha"/>
      <feGaussianBlur stdDeviation="20" result="blur"/>
      <feFlood flood-opacity="0.255"/>
      <feComposite operator="in" in2="blur"/>
      <feComposite in="SourceGraphic"/>
    </filter>
    <filter id="Rectangle_2617">
      <feOffset input="SourceAlpha"/>
      <feGaussianBlur stdDeviation="5" result="blur-2"/>
      <feFlood result="color"/>
      <feComposite operator="out" in="SourceGraphic" in2="blur-2"/>
      <feComposite operator="in" in="color"/>
      <feComposite operator="in" in2="SourceGraphic"/>
    </filter>
    <filter id="Rectangle_2921" x="83" y="203" width="230" height="71" filterUnits="userSpaceOnUse">
      <feOffset input="SourceAlpha"/>
      <feGaussianBlur stdDeviation="5" result="blur-3"/>
      <feFlood flood-opacity="0.231"/>
      <feComposite operator="in" in2="blur-3"/>
      <feComposite in="SourceGraphic"/>
    </filter>
  </defs>
  <g id="Group_2385" data-name="Group 2385" transform="translate(-12299 422)">
    <rect id="Rectangle_2956" data-name="Rectangle 2956" width="600" height="338" transform="translate(12315 -378)" fill="none"/>
    <g id="Group_2367" data-name="Group 2367" transform="translate(269 -51)">
      <g transform="matrix(1, 0, 0, 1, 12030, -371)" filter="url(#Rectangle_2618)">
        <rect id="Rectangle_2618-2" data-name="Rectangle 2618" width="512" height="306" rx="20" transform="translate(60 60)" fill="url(#linear-gradient)"/>
      </g>
      <g data-type="innerShadowGroup">
        <rect id="Rectangle_2617-2" data-name="Rectangle 2617" width="506" height="300" rx="20" transform="translate(12093 -308)" fill="#17243f"/>
        <g transform="matrix(1, 0, 0, 1, 12030, -371)" filter="url(#Rectangle_2617)">
          <rect id="Rectangle_2617-3" data-name="Rectangle 2617" width="506" height="300" rx="20" transform="translate(63 63)" fill="#fff"/>
        </g>
      </g>
      <g id="Group_2250" data-name="Group 2250" transform="translate(11985 -3145)">
        <g id="Group_2249" data-name="Group 2249" transform="translate(143 2880)">
          <rect id="Rectangle_2907" data-name="Rectangle 2907" width="200" height="41" rx="5" fill="#293650"/>
        </g>
        <path id="Path_2276" data-name="Path 2276" d="M6,.192A5.147,5.147,0,0,1,3.248-.536a4.926,4.926,0,0,1-1.84-2.032A6.625,6.625,0,0,1,.752-5.584a6.608,6.608,0,0,1,.664-3.024A4.936,4.936,0,0,1,3.3-10.656a5.5,5.5,0,0,1,2.888-.736,5.211,5.211,0,0,1,3.144.912A4.136,4.136,0,0,1,10.96-7.968H9.408a2.577,2.577,0,0,0-1.064-1.6,3.651,3.651,0,0,0-2.152-.592,4.06,4.06,0,0,0-2.144.552A3.7,3.7,0,0,0,2.632-8.032a5.492,5.492,0,0,0-.5,2.448,5.568,5.568,0,0,0,.5,2.448A3.722,3.722,0,0,0,4-1.56a3.773,3.773,0,0,0,2.048.552,3.391,3.391,0,0,0,2.7-1.048,4.758,4.758,0,0,0,1.04-2.872H6.56V-5.984h4.608V0H9.936L9.824-1.84a4.462,4.462,0,0,1-1.488,1.5A4.51,4.51,0,0,1,6,.192ZM13.216,0V-7.936h1.216l.112,1.52a2.877,2.877,0,0,1,1.12-1.248,3.472,3.472,0,0,1,1.856-.464V-6.72h-.368a3.321,3.321,0,0,0-1.3.248,1.968,1.968,0,0,0-.944.84A3.2,3.2,0,0,0,14.56-4V0Zm9.12.192A3.99,3.99,0,0,1,20.32-.32,3.7,3.7,0,0,1,18.9-1.768a4.459,4.459,0,0,1-.52-2.2,4.4,4.4,0,0,1,.528-2.2,3.737,3.737,0,0,1,1.432-1.448,4.034,4.034,0,0,1,2.024-.512,3.99,3.99,0,0,1,2.016.512A3.7,3.7,0,0,1,25.8-6.168a4.459,4.459,0,0,1,.52,2.2,4.4,4.4,0,0,1-.528,2.2A3.737,3.737,0,0,1,24.36-.32,4.034,4.034,0,0,1,22.336.192Zm0-1.152a2.55,2.55,0,0,0,1.28-.336,2.506,2.506,0,0,0,.96-1.008,3.428,3.428,0,0,0,.368-1.664,3.491,3.491,0,0,0-.36-1.664,2.454,2.454,0,0,0-.952-1.008,2.52,2.52,0,0,0-1.264-.336,2.55,2.55,0,0,0-1.28.336,2.506,2.506,0,0,0-.96,1.008,3.428,3.428,0,0,0-.368,1.664A3.428,3.428,0,0,0,20.128-2.3,2.525,2.525,0,0,0,21.08-1.3,2.477,2.477,0,0,0,22.336-.96Zm8.9,1.152a3.792,3.792,0,0,1-2.368-.72,2.807,2.807,0,0,1-1.1-1.952h1.376A1.9,1.9,0,0,0,29.8-1.4a2.161,2.161,0,0,0,1.448.456A1.826,1.826,0,0,0,32.5-1.3a1.115,1.115,0,0,0,.4-.856.95.95,0,0,0-.52-.96,6.921,6.921,0,0,0-1.464-.432,8.252,8.252,0,0,1-1.28-.368A2.908,2.908,0,0,1,28.56-4.6a1.584,1.584,0,0,1-.432-1.16,2.141,2.141,0,0,1,.776-1.7,3.129,3.129,0,0,1,2.1-.664A3.263,3.263,0,0,1,33.08-7.5a2.522,2.522,0,0,1,.936,1.8H32.688a1.384,1.384,0,0,0-.52-.952,1.858,1.858,0,0,0-1.176-.344,1.78,1.78,0,0,0-1.112.3.964.964,0,0,0-.392.8.831.831,0,0,0,.5.752,5.411,5.411,0,0,0,1.368.464,11.916,11.916,0,0,1,1.4.392,2.646,2.646,0,0,1,1.088.688,1.87,1.87,0,0,1,.424,1.32A2.168,2.168,0,0,1,33.464-.5,3.348,3.348,0,0,1,31.232.192Zm8,0a3.792,3.792,0,0,1-2.368-.72,2.807,2.807,0,0,1-1.1-1.952h1.376A1.9,1.9,0,0,0,37.8-1.4a2.161,2.161,0,0,0,1.448.456A1.826,1.826,0,0,0,40.5-1.3a1.115,1.115,0,0,0,.4-.856.95.95,0,0,0-.52-.96,6.921,6.921,0,0,0-1.464-.432,8.252,8.252,0,0,1-1.28-.368A2.908,2.908,0,0,1,36.56-4.6a1.584,1.584,0,0,1-.432-1.16,2.141,2.141,0,0,1,.776-1.7,3.129,3.129,0,0,1,2.1-.664A3.263,3.263,0,0,1,41.08-7.5a2.522,2.522,0,0,1,.936,1.8H40.688a1.384,1.384,0,0,0-.52-.952,1.858,1.858,0,0,0-1.176-.344,1.78,1.78,0,0,0-1.112.3.964.964,0,0,0-.392.8.831.831,0,0,0,.5.752,5.411,5.411,0,0,0,1.368.464,11.916,11.916,0,0,1,1.4.392,2.646,2.646,0,0,1,1.088.688,1.87,1.87,0,0,1,.424,1.32A2.168,2.168,0,0,1,41.464-.5,3.348,3.348,0,0,1,39.232.192ZM47.808,0l4.128-11.2H53.36L57.472,0H56.048L55.024-2.88H50.256L49.216,0Zm2.848-3.968h3.968L52.64-9.5ZM59.056,0V-7.936h1.216l.1,1.152a2.688,2.688,0,0,1,1.024-.992,2.938,2.938,0,0,1,1.44-.352,3.251,3.251,0,0,1,1.624.384A2.526,2.526,0,0,1,65.5-6.576a3.038,3.038,0,0,1,1.144-1.136,3.123,3.123,0,0,1,1.576-.416,3.054,3.054,0,0,1,2.272.856,3.606,3.606,0,0,1,.848,2.632V0H70.016V-4.5a2.941,2.941,0,0,0-.5-1.856A1.712,1.712,0,0,0,68.1-6.976a2,2,0,0,0-1.592.744,3.184,3.184,0,0,0-.632,2.12V0H64.528V-4.5a2.941,2.941,0,0,0-.5-1.856,1.712,1.712,0,0,0-1.424-.624,1.985,1.985,0,0,0-1.576.744,3.184,3.184,0,0,0-.632,2.12V0ZM76.992.192A3.99,3.99,0,0,1,74.976-.32,3.7,3.7,0,0,1,73.56-1.768a4.458,4.458,0,0,1-.52-2.2,4.4,4.4,0,0,1,.528-2.2A3.737,3.737,0,0,1,75-7.616a4.034,4.034,0,0,1,2.024-.512,3.99,3.99,0,0,1,2.016.512,3.7,3.7,0,0,1,1.416,1.448,4.458,4.458,0,0,1,.52,2.2,4.4,4.4,0,0,1-.528,2.2A3.737,3.737,0,0,1,79.016-.32,4.034,4.034,0,0,1,76.992.192Zm0-1.152a2.55,2.55,0,0,0,1.28-.336,2.506,2.506,0,0,0,.96-1.008A3.428,3.428,0,0,0,79.6-3.968a3.491,3.491,0,0,0-.36-1.664,2.454,2.454,0,0,0-.952-1.008,2.52,2.52,0,0,0-1.264-.336,2.55,2.55,0,0,0-1.28.336,2.506,2.506,0,0,0-.96,1.008,3.428,3.428,0,0,0-.368,1.664A3.428,3.428,0,0,0,74.784-2.3,2.525,2.525,0,0,0,75.736-1.3,2.477,2.477,0,0,0,76.992-.96ZM85.744.192A2.98,2.98,0,0,1,83.5-.664,3.65,3.65,0,0,1,82.672-3.3v-4.64h1.344v4.5q0,2.48,2.032,2.48a2.229,2.229,0,0,0,1.72-.744,3.032,3.032,0,0,0,.68-2.12V-7.936h1.344V0H88.576l-.1-1.424a2.763,2.763,0,0,1-1.1,1.184A3.152,3.152,0,0,1,85.744.192ZM92,0V-7.936h1.216l.08,1.424A2.882,2.882,0,0,1,94.4-7.7a3.11,3.11,0,0,1,1.632-.432,3.006,3.006,0,0,1,2.248.856,3.628,3.628,0,0,1,.84,2.632V0H97.776V-4.5q0-2.48-2.048-2.48a2.212,2.212,0,0,0-1.7.744,3.032,3.032,0,0,0-.68,2.12V0Zm12.288,0a2.568,2.568,0,0,1-1.712-.528,2.4,2.4,0,0,1-.624-1.9V-6.8h-1.376V-7.936h1.376l.176-1.9H103.3v1.9h2.336V-6.8H103.3v4.368a1.32,1.32,0,0,0,.3,1.016,1.657,1.657,0,0,0,1.072.264h.832V0Z" transform="translate(155 2906)" fill="#fff"/>
      </g>
      <g id="Group_2251" data-name="Group 2251" transform="translate(11985 -3089)">
        <g id="Group_2249-2" data-name="Group 2249" transform="translate(0 -8)">
          <rect id="Rectangle_2907-2" data-name="Rectangle 2907" width="200" height="41" rx="5" transform="translate(143 2888)" fill="#293650"/>
        </g>
        <path id="Path_2275" data-name="Path 2275" d="M6,.192A5.147,5.147,0,0,1,3.248-.536a4.926,4.926,0,0,1-1.84-2.032A6.625,6.625,0,0,1,.752-5.584a6.608,6.608,0,0,1,.664-3.024A4.936,4.936,0,0,1,3.3-10.656a5.5,5.5,0,0,1,2.888-.736,5.211,5.211,0,0,1,3.144.912A4.136,4.136,0,0,1,10.96-7.968H9.408a2.577,2.577,0,0,0-1.064-1.6,3.651,3.651,0,0,0-2.152-.592,4.06,4.06,0,0,0-2.144.552A3.7,3.7,0,0,0,2.632-8.032a5.492,5.492,0,0,0-.5,2.448,5.568,5.568,0,0,0,.5,2.448A3.722,3.722,0,0,0,4-1.56a3.773,3.773,0,0,0,2.048.552,3.391,3.391,0,0,0,2.7-1.048,4.758,4.758,0,0,0,1.04-2.872H6.56V-5.984h4.608V0H9.936L9.824-1.84a4.462,4.462,0,0,1-1.488,1.5A4.51,4.51,0,0,1,6,.192Zm10.864,0A4.811,4.811,0,0,1,14.72-.256,3.348,3.348,0,0,1,13.312-1.5a3.449,3.449,0,0,1-.5-1.856h1.408a2.463,2.463,0,0,0,.3,1.208,2.238,2.238,0,0,0,.888.88,2.922,2.922,0,0,0,1.448.328,2.594,2.594,0,0,0,1.76-.544,1.73,1.73,0,0,0,.624-1.36,1.836,1.836,0,0,0-.288-1.08,2.153,2.153,0,0,0-.776-.664,6.445,6.445,0,0,0-1.12-.448q-.632-.192-1.32-.432a4.714,4.714,0,0,1-1.92-1.112A2.432,2.432,0,0,1,13.2-8.32a2.856,2.856,0,0,1,.416-1.592A2.932,2.932,0,0,1,14.84-11a4.2,4.2,0,0,1,1.88-.392,4.086,4.086,0,0,1,1.864.4,3.023,3.023,0,0,1,1.232,1.1,3.062,3.062,0,0,1,.456,1.6H18.864a1.957,1.957,0,0,0-.24-.92,1.874,1.874,0,0,0-.728-.744,2.376,2.376,0,0,0-1.224-.288,2.214,2.214,0,0,0-1.5.464,1.625,1.625,0,0,0-.584,1.328A1.443,1.443,0,0,0,15-7.344a3.089,3.089,0,0,0,1.144.632q.736.248,1.7.568a8.175,8.175,0,0,1,1.44.672,2.829,2.829,0,0,1,1,.992,3.011,3.011,0,0,1,.36,1.552,2.95,2.95,0,0,1-.416,1.512,3.091,3.091,0,0,1-1.256,1.16A4.437,4.437,0,0,1,16.864.192ZM24.9,0V-10.1H21.552v-1.1h8.032v1.1H26.24V0Zm9.872,0L38.9-11.2H40.32L44.432,0H43.008L41.984-2.88H37.216L36.176,0Zm2.848-3.968h3.968L39.6-9.5ZM46.016,0V-7.936h1.216l.1,1.152a2.688,2.688,0,0,1,1.024-.992,2.938,2.938,0,0,1,1.44-.352,3.251,3.251,0,0,1,1.624.384,2.526,2.526,0,0,1,1.048,1.168,3.038,3.038,0,0,1,1.144-1.136,3.123,3.123,0,0,1,1.576-.416,3.054,3.054,0,0,1,2.272.856A3.606,3.606,0,0,1,58.3-4.64V0H56.976V-4.5a2.941,2.941,0,0,0-.5-1.856,1.712,1.712,0,0,0-1.424-.624,2,2,0,0,0-1.592.744,3.184,3.184,0,0,0-.632,2.12V0H51.488V-4.5a2.941,2.941,0,0,0-.5-1.856,1.712,1.712,0,0,0-1.424-.624,1.985,1.985,0,0,0-1.576.744,3.184,3.184,0,0,0-.632,2.12V0ZM63.952.192A3.99,3.99,0,0,1,61.936-.32,3.7,3.7,0,0,1,60.52-1.768a4.459,4.459,0,0,1-.52-2.2,4.4,4.4,0,0,1,.528-2.2A3.737,3.737,0,0,1,61.96-7.616a4.034,4.034,0,0,1,2.024-.512A3.99,3.99,0,0,1,66-7.616a3.7,3.7,0,0,1,1.416,1.448,4.459,4.459,0,0,1,.52,2.2,4.4,4.4,0,0,1-.528,2.2A3.737,3.737,0,0,1,65.976-.32,4.034,4.034,0,0,1,63.952.192Zm0-1.152a2.55,2.55,0,0,0,1.28-.336,2.506,2.506,0,0,0,.96-1.008,3.428,3.428,0,0,0,.368-1.664,3.491,3.491,0,0,0-.36-1.664,2.455,2.455,0,0,0-.952-1.008,2.52,2.52,0,0,0-1.264-.336,2.55,2.55,0,0,0-1.28.336,2.506,2.506,0,0,0-.96,1.008,3.428,3.428,0,0,0-.368,1.664A3.428,3.428,0,0,0,61.744-2.3,2.525,2.525,0,0,0,62.7-1.3,2.477,2.477,0,0,0,63.952-.96ZM72.7.192a2.98,2.98,0,0,1-2.24-.856A3.65,3.65,0,0,1,69.632-3.3v-4.64h1.344v4.5q0,2.48,2.032,2.48a2.229,2.229,0,0,0,1.72-.744,3.032,3.032,0,0,0,.68-2.12V-7.936h1.344V0H75.536l-.1-1.424a2.763,2.763,0,0,1-1.1,1.184A3.152,3.152,0,0,1,72.7.192ZM78.96,0V-7.936h1.216l.08,1.424A2.882,2.882,0,0,1,81.36-7.7a3.11,3.11,0,0,1,1.632-.432,3.006,3.006,0,0,1,2.248.856,3.628,3.628,0,0,1,.84,2.632V0H84.736V-4.5q0-2.48-2.048-2.48a2.212,2.212,0,0,0-1.7.744,3.032,3.032,0,0,0-.68,2.12V0ZM91.248,0a2.568,2.568,0,0,1-1.712-.528,2.4,2.4,0,0,1-.624-1.9V-6.8H87.536V-7.936h1.376l.176-1.9h1.168v1.9h2.336V-6.8H90.256v4.368a1.32,1.32,0,0,0,.3,1.016,1.657,1.657,0,0,0,1.072.264h.832V0Z" transform="translate(155 2906)" fill="#fff"/>
      </g>
      <g id="Group_2252" data-name="Group 2252" transform="translate(11985 -3033)">
        <g transform="matrix(1, 0, 0, 1, 45, 2662)" filter="url(#Rectangle_2921)">
          <rect id="Rectangle_2921-2" data-name="Rectangle 2921" width="200" height="41" rx="5" transform="translate(98 218)" fill="#293650"/>
        </g>
        <path id="Path_2274" data-name="Path 2274" d="M3.808,0V-10.1H.464v-1.1H8.5v1.1H5.152V0Zm6.336,0V-11.2h3.44a5.693,5.693,0,0,1,4.36,1.5,5.821,5.821,0,0,1,1.4,4.128,5.722,5.722,0,0,1-1.4,4.072A5.711,5.711,0,0,1,13.584,0Zm1.344-1.12h2.064a5.375,5.375,0,0,0,2.6-.536,3.056,3.056,0,0,0,1.384-1.536,6.166,6.166,0,0,0,.416-2.376,6.322,6.322,0,0,0-.416-2.416,3.09,3.09,0,0,0-1.384-1.552,5.309,5.309,0,0,0-2.6-.544H11.488ZM24.848.192A4.811,4.811,0,0,1,22.7-.256,3.348,3.348,0,0,1,21.3-1.5a3.449,3.449,0,0,1-.5-1.856h1.408a2.463,2.463,0,0,0,.3,1.208,2.238,2.238,0,0,0,.888.88,2.922,2.922,0,0,0,1.448.328,2.594,2.594,0,0,0,1.76-.544,1.73,1.73,0,0,0,.624-1.36,1.836,1.836,0,0,0-.288-1.08,2.154,2.154,0,0,0-.776-.664,6.445,6.445,0,0,0-1.12-.448q-.632-.192-1.32-.432a4.714,4.714,0,0,1-1.92-1.112,2.432,2.432,0,0,1-.624-1.736A2.856,2.856,0,0,1,21.6-9.912,2.932,2.932,0,0,1,22.824-11a4.2,4.2,0,0,1,1.88-.392,4.086,4.086,0,0,1,1.864.4,3.023,3.023,0,0,1,1.232,1.1,3.062,3.062,0,0,1,.456,1.6H26.848a1.957,1.957,0,0,0-.24-.92,1.874,1.874,0,0,0-.728-.744,2.376,2.376,0,0,0-1.224-.288,2.214,2.214,0,0,0-1.5.464,1.625,1.625,0,0,0-.584,1.328,1.443,1.443,0,0,0,.408,1.1,3.089,3.089,0,0,0,1.144.632q.736.248,1.7.568a8.174,8.174,0,0,1,1.44.672,2.829,2.829,0,0,1,1,.992,3.011,3.011,0,0,1,.36,1.552,2.95,2.95,0,0,1-.416,1.512,3.091,3.091,0,0,1-1.256,1.16A4.437,4.437,0,0,1,24.848.192Z" transform="translate(155 2906)" fill="#fff"/>
        <path id="Polygon_11" data-name="Polygon 11" d="M5.143,1.429a1,1,0,0,1,1.715,0l4.234,7.056A1,1,0,0,1,10.234,10H1.766A1,1,0,0,1,.909,8.485Z" transform="translate(330.998 2905.5) rotate(180)" fill="#fff"/>
      </g>
      <g id="Group_2253" data-name="Group 2253" transform="translate(11990 -3029)">
        <path id="Path_2271" data-name="Path 2271" d="M-88.272,0V-12.6h8.136v1.854h-5.832v3.528h4.716V-5.4h-4.716V0Zm11.106-10.314a1.457,1.457,0,0,1-1.035-.378,1.249,1.249,0,0,1-.4-.954,1.221,1.221,0,0,1,.4-.945,1.477,1.477,0,0,1,1.035-.369,1.477,1.477,0,0,1,1.035.369,1.221,1.221,0,0,1,.4.945,1.249,1.249,0,0,1-.4.954A1.457,1.457,0,0,1-77.166-10.314ZM-78.318,0V-8.928h2.3V0ZM-73.6,0V-8.928h2.034l.18,1.512a3.139,3.139,0,0,1,1.2-1.26,3.529,3.529,0,0,1,1.845-.468A3.247,3.247,0,0,1-65.772-8.1a4.5,4.5,0,0,1,.918,3.06V0h-2.3V-4.824a2.86,2.86,0,0,0-.468-1.764A1.718,1.718,0,0,0-69.084-7.2a2.055,2.055,0,0,0-1.593.684A2.736,2.736,0,0,0-71.3-4.608V0ZM-59.58.216a4.224,4.224,0,0,1-1.89-.369,2.553,2.553,0,0,1-1.1-.981,2.614,2.614,0,0,1-.36-1.35A2.456,2.456,0,0,1-61.956-4.5a4.622,4.622,0,0,1,2.916-.774h2.268V-5.49a1.653,1.653,0,0,0-.522-1.35,1.965,1.965,0,0,0-1.3-.432,2.226,2.226,0,0,0-1.224.333,1.434,1.434,0,0,0-.648.981h-2.25a3.14,3.14,0,0,1,.657-1.692,3.678,3.678,0,0,1,1.467-1.107,5.054,5.054,0,0,1,2.016-.387,4.429,4.429,0,0,1,3.006.954,3.385,3.385,0,0,1,1.1,2.7V0H-56.43l-.216-1.44A3.328,3.328,0,0,1-57.753-.252,3.264,3.264,0,0,1-59.58.216Zm.522-1.8a1.907,1.907,0,0,0,1.539-.648,3.147,3.147,0,0,0,.693-1.6h-1.962A2.046,2.046,0,0,0-60.1-3.5a1.031,1.031,0,0,0-.4.819.943.943,0,0,0,.4.81A1.735,1.735,0,0,0-59.058-1.584ZM-52.272,0V-12.96h2.3V0Zm9,0V-12.6h4.662a5.494,5.494,0,0,1,2.5.5,3.378,3.378,0,0,1,1.476,1.386,4.034,4.034,0,0,1,.486,1.98,3.993,3.993,0,0,1-.468,1.917,3.439,3.439,0,0,1-1.458,1.4,5.345,5.345,0,0,1-2.538.531h-2.358V0Zm2.3-6.75h2.214a2.388,2.388,0,0,0,1.737-.531,1.958,1.958,0,0,0,.531-1.449,1.983,1.983,0,0,0-.531-1.467,2.388,2.388,0,0,0-1.737-.531h-2.214ZM-29.88.216a4.224,4.224,0,0,1-1.89-.369,2.553,2.553,0,0,1-1.1-.981,2.614,2.614,0,0,1-.36-1.35A2.456,2.456,0,0,1-32.256-4.5a4.622,4.622,0,0,1,2.916-.774h2.268V-5.49a1.653,1.653,0,0,0-.522-1.35,1.965,1.965,0,0,0-1.3-.432,2.226,2.226,0,0,0-1.224.333,1.434,1.434,0,0,0-.648.981h-2.25a3.14,3.14,0,0,1,.657-1.692,3.678,3.678,0,0,1,1.467-1.107,5.054,5.054,0,0,1,2.016-.387,4.429,4.429,0,0,1,3.006.954,3.385,3.385,0,0,1,1.1,2.7V0H-26.73l-.216-1.44A3.328,3.328,0,0,1-28.053-.252,3.264,3.264,0,0,1-29.88.216Zm.522-1.8a1.907,1.907,0,0,0,1.539-.648,3.147,3.147,0,0,0,.693-1.6h-1.962A2.046,2.046,0,0,0-30.4-3.5a1.031,1.031,0,0,0-.4.819.943.943,0,0,0,.4.81A1.735,1.735,0,0,0-29.358-1.584Zm7.6,5.544,2.07-4.554h-.54l-3.474-8.334h2.5l2.5,6.282,2.61-6.282h2.448L-19.314,3.96ZM-8.622.216a4.6,4.6,0,0,1-2.331-.594,4.361,4.361,0,0,1-1.638-1.647,4.821,4.821,0,0,1-.6-2.439A4.765,4.765,0,0,1-12.582-6.9,4.427,4.427,0,0,1-10.935-8.55,4.6,4.6,0,0,1-8.6-9.144a4.563,4.563,0,0,1,2.313.594A4.361,4.361,0,0,1-4.653-6.9a4.821,4.821,0,0,1,.6,2.439,4.821,4.821,0,0,1-.6,2.439A4.342,4.342,0,0,1-6.3-.378,4.612,4.612,0,0,1-8.622.216Zm0-2a2.129,2.129,0,0,0,1.566-.675A2.746,2.746,0,0,0-6.39-4.464a2.746,2.746,0,0,0-.666-2.007A2.11,2.11,0,0,0-8.6-7.146a2.12,2.12,0,0,0-1.575.675,2.769,2.769,0,0,0-.657,2.007,2.769,2.769,0,0,0,.657,2.007A2.1,2.1,0,0,0-8.622-1.782Zm9.972,2A3.241,3.241,0,0,1-1.233-.828a4.535,4.535,0,0,1-.909-3.06v-5.04H.144V-4.1A2.86,2.86,0,0,0,.612-2.34a1.74,1.74,0,0,0,1.476.612,2.035,2.035,0,0,0,1.575-.684A2.736,2.736,0,0,0,4.284-4.32V-8.928h2.3V0H4.554l-.18-1.512a3.139,3.139,0,0,1-1.2,1.26A3.493,3.493,0,0,1,1.35.216ZM12.924,0a3.472,3.472,0,0,1-2.25-.684,2.975,2.975,0,0,1-.846-2.43V-7H8.3V-8.928h1.53l.27-2.394h2.034v2.394h2.412V-7H12.132V-3.1a1.147,1.147,0,0,0,.279.891,1.476,1.476,0,0,0,.963.243H14.49V0Zm7.128,0L24.66-12.6h2.592L31.86,0H29.412L28.4-2.916H23.49L22.464,0ZM24.12-4.716h3.654L25.938-9.954ZM33.426,0V-8.928H35.46l.2,1.206A3.17,3.17,0,0,1,36.8-8.757a3.391,3.391,0,0,1,1.647-.387,3.06,3.06,0,0,1,2.934,1.6,3.468,3.468,0,0,1,1.305-1.17,3.78,3.78,0,0,1,1.791-.432A3.415,3.415,0,0,1,47.16-8.1,4.446,4.446,0,0,1,48.1-5.04V0h-2.3V-4.824a2.991,2.991,0,0,0-.441-1.764A1.563,1.563,0,0,0,43.992-7.2a1.855,1.855,0,0,0-1.5.684,2.907,2.907,0,0,0-.567,1.908V0h-2.3V-4.824a2.945,2.945,0,0,0-.45-1.764A1.607,1.607,0,0,0,37.782-7.2a1.836,1.836,0,0,0-1.485.684,2.907,2.907,0,0,0-.567,1.908V0Zm21.15.216a4.6,4.6,0,0,1-2.331-.594,4.361,4.361,0,0,1-1.638-1.647A4.821,4.821,0,0,1,50-4.464,4.765,4.765,0,0,1,50.616-6.9,4.427,4.427,0,0,1,52.263-8.55a4.6,4.6,0,0,1,2.331-.594,4.563,4.563,0,0,1,2.313.594A4.361,4.361,0,0,1,58.545-6.9a4.821,4.821,0,0,1,.6,2.439,4.821,4.821,0,0,1-.6,2.439A4.342,4.342,0,0,1,56.9-.378,4.612,4.612,0,0,1,54.576.216Zm0-2a2.129,2.129,0,0,0,1.566-.675,2.746,2.746,0,0,0,.666-2.007,2.746,2.746,0,0,0-.666-2.007,2.11,2.11,0,0,0-1.548-.675,2.12,2.12,0,0,0-1.575.675,2.769,2.769,0,0,0-.657,2.007,2.769,2.769,0,0,0,.657,2.007A2.1,2.1,0,0,0,54.576-1.782Zm9.972,2A3.241,3.241,0,0,1,61.965-.828a4.535,4.535,0,0,1-.909-3.06v-5.04h2.286V-4.1A2.86,2.86,0,0,0,63.81-2.34a1.74,1.74,0,0,0,1.476.612,2.035,2.035,0,0,0,1.575-.684,2.736,2.736,0,0,0,.621-1.908V-8.928h2.3V0H67.752l-.18-1.512a3.139,3.139,0,0,1-1.2,1.26A3.493,3.493,0,0,1,64.548.216ZM72.144,0V-8.928h2.034l.18,1.512a3.139,3.139,0,0,1,1.2-1.26A3.529,3.529,0,0,1,77.4-9.144,3.247,3.247,0,0,1,79.974-8.1a4.5,4.5,0,0,1,.918,3.06V0h-2.3V-4.824a2.86,2.86,0,0,0-.468-1.764A1.718,1.718,0,0,0,76.662-7.2a2.055,2.055,0,0,0-1.593.684,2.736,2.736,0,0,0-.621,1.908V0ZM87.066,0a3.472,3.472,0,0,1-2.25-.684,2.975,2.975,0,0,1-.846-2.43V-7H82.44V-8.928h1.53l.27-2.394h2.034v2.394h2.412V-7H86.274V-3.1a1.147,1.147,0,0,0,.279.891,1.476,1.476,0,0,0,.963.243h1.116V0Z" transform="translate(470 2963)" fill="#fff"/>
      </g>
      <g id="Group_2343" data-name="Group 2343" transform="translate(11990 -3053)" opacity="0.5">
        <path id="Path_2272" data-name="Path 2272" d="M-25.6-6.873q.413.026.857.026a5.686,5.686,0,0,0,.87-.066,3.9,3.9,0,0,0,.813-.215,2.371,2.371,0,0,0,.694-.413,2.067,2.067,0,0,0,.505-.664,2.74,2.74,0,0,0,.25-.962H-25.98a2.905,2.905,0,0,1,.145-.259l.25-.417q.158-.255.352-.554h3.4a.683.683,0,0,0-.22-.461,2.415,2.415,0,0,0-.532-.417,3.827,3.827,0,0,0-.637-.3,1.64,1.64,0,0,0-.536-.119H-25.98a2.065,2.065,0,0,1,.154-.316q.119-.211.25-.417l.233-.365a1,1,0,0,1,.11-.158h7.321l-.048.1q-.048.1-.127.233t-.176.3l-.18.3q-.083.141-.141.233l-.057.092h-1.925a5.641,5.641,0,0,1,.321.637,2.285,2.285,0,0,1,.171.664h2.162l-.729,1.23H-20a3.5,3.5,0,0,1-.461,1.4,3.4,3.4,0,0,1-.87.962,3.973,3.973,0,0,1-1.147.589,6.734,6.734,0,0,1-1.3.286.217.217,0,0,0,.031.057q.031.048.075.11a1.8,1.8,0,0,0,.105.149l3.9,5.388v.22h-1.67l-4.271-5.7ZM-2.725-8.789-6.363-4.57-2.672,0H-4.535L-7.26-3.639-10,0h-1.863l3.691-4.57-3.639-4.219h1.863L-7.26-5.625l2.672-3.164ZM7-8.789,3.357-4.57,7.049,0H5.186L2.461-3.639-.281,0H-2.145L1.547-4.57-2.092-8.789H-.229L2.461-5.625,5.133-8.789Zm9.721,0L13.078-4.57,16.77,0H14.906L12.182-3.639,9.439,0H7.576l3.691-4.57L7.629-8.789H9.492l2.689,3.164,2.672-3.164Zm9.721,0L22.8-4.57,26.49,0H24.627L21.9-3.639,19.16,0H17.3l3.691-4.57L17.35-8.789h1.863L21.9-5.625l2.672-3.164Z" transform="translate(470 2963)" fill="#fff"/>
      </g>
      <g id="Group_2325" data-name="Group 2325" transform="translate(11202 -3460)">
        <rect id="Rectangle_2920" data-name="Rectangle 2920" width="200" height="32" rx="8" transform="translate(926 3372)" fill="#7d0eff"/>
        <path id="Path_2273" data-name="Path 2273" d="M6.16.192A5.566,5.566,0,0,1,3.248-.536,4.858,4.858,0,0,1,1.376-2.568,6.625,6.625,0,0,1,.72-5.584a6.675,6.675,0,0,1,.656-3.024,4.9,4.9,0,0,1,1.872-2.048,5.519,5.519,0,0,1,2.912-.736,5.23,5.23,0,0,1,3.3,1,4.367,4.367,0,0,1,1.608,2.808H8.816a2.411,2.411,0,0,0-.888-1.432,2.886,2.886,0,0,0-1.8-.52A2.994,2.994,0,0,0,3.7-8.48a4.388,4.388,0,0,0-.88,2.9A4.355,4.355,0,0,0,3.7-2.7,3,3,0,0,0,6.128-1.648a3.022,3.022,0,0,0,1.8-.488,2.252,2.252,0,0,0,.888-1.352h2.256a4.218,4.218,0,0,1-1.608,2.7A5.32,5.32,0,0,1,6.16.192Zm9.408,0a3.754,3.754,0,0,1-1.68-.328,2.27,2.27,0,0,1-.976-.872,2.323,2.323,0,0,1-.32-1.2A2.183,2.183,0,0,1,13.456-4a4.109,4.109,0,0,1,2.592-.688h2.016V-4.88a1.469,1.469,0,0,0-.464-1.2,1.747,1.747,0,0,0-1.152-.384,1.979,1.979,0,0,0-1.088.3,1.274,1.274,0,0,0-.576.872h-2a2.791,2.791,0,0,1,.584-1.5,3.269,3.269,0,0,1,1.3-.984,4.493,4.493,0,0,1,1.792-.344,3.937,3.937,0,0,1,2.672.848,3.009,3.009,0,0,1,.976,2.4V0H18.368l-.192-1.28a2.958,2.958,0,0,1-.984,1.056A2.9,2.9,0,0,1,15.568.192Zm.464-1.6A1.7,1.7,0,0,0,17.4-1.984a2.8,2.8,0,0,0,.616-1.424H16.272a1.819,1.819,0,0,0-1.168.3.916.916,0,0,0-.352.728.839.839,0,0,0,.352.72A1.542,1.542,0,0,0,16.032-1.408ZM22.064,0V-11.52h2.048V0ZM30.1.192a4.26,4.26,0,0,1-2.144-.528,3.844,3.844,0,0,1-1.464-1.472,4.3,4.3,0,0,1-.536-2.16,4.3,4.3,0,0,1,.536-2.16A3.844,3.844,0,0,1,27.952-7.6,4.26,4.26,0,0,1,30.1-8.128a4.1,4.1,0,0,1,2.56.792,3.541,3.541,0,0,1,1.328,2.184h-2.16a1.579,1.579,0,0,0-.632-.9,1.9,1.9,0,0,0-1.112-.328,1.889,1.889,0,0,0-1.44.64,2.516,2.516,0,0,0-.592,1.776,2.516,2.516,0,0,0,.592,1.776,1.889,1.889,0,0,0,1.44.64,1.934,1.934,0,0,0,1.112-.32,1.547,1.547,0,0,0,.632-.912h2.16a3.619,3.619,0,0,1-1.328,2.16A4.02,4.02,0,0,1,30.1.192Zm8.688,0a2.881,2.881,0,0,1-2.3-.928,4.031,4.031,0,0,1-.808-2.72v-4.48h2.032v4.288a2.542,2.542,0,0,0,.416,1.568,1.546,1.546,0,0,0,1.312.544,1.808,1.808,0,0,0,1.4-.608,2.432,2.432,0,0,0,.552-1.7v-4.1H43.44V0H41.632l-.16-1.344a2.79,2.79,0,0,1-1.064,1.12A3.1,3.1,0,0,1,38.784.192ZM45.536,0V-11.52h2.048V0Zm6.88.192a3.754,3.754,0,0,1-1.68-.328,2.27,2.27,0,0,1-.976-.872,2.323,2.323,0,0,1-.32-1.2A2.183,2.183,0,0,1,50.3-4,4.109,4.109,0,0,1,52.9-4.688h2.016V-4.88a1.469,1.469,0,0,0-.464-1.2A1.747,1.747,0,0,0,53.3-6.464a1.979,1.979,0,0,0-1.088.3,1.274,1.274,0,0,0-.576.872h-2a2.791,2.791,0,0,1,.584-1.5,3.269,3.269,0,0,1,1.3-.984,4.493,4.493,0,0,1,1.792-.344,3.937,3.937,0,0,1,2.672.848,3.009,3.009,0,0,1,.976,2.4V0H55.216l-.192-1.28A2.958,2.958,0,0,1,54.04-.224,2.9,2.9,0,0,1,52.416.192Zm.464-1.6a1.7,1.7,0,0,0,1.368-.576,2.8,2.8,0,0,0,.616-1.424H53.12a1.819,1.819,0,0,0-1.168.3.916.916,0,0,0-.352.728.839.839,0,0,0,.352.72A1.542,1.542,0,0,0,52.88-1.408ZM62.336,0a3.086,3.086,0,0,1-2-.608,2.644,2.644,0,0,1-.752-2.16V-6.224h-1.36V-7.936h1.36l.24-2.128h1.808v2.128h2.144v1.712H61.632v3.472a1.019,1.019,0,0,0,.248.792,1.312,1.312,0,0,0,.856.216h.992V0Zm6.848.192A4.332,4.332,0,0,1,67.056-.32,3.706,3.706,0,0,1,65.6-1.76,4.26,4.26,0,0,1,65.072-3.9a4.528,4.528,0,0,1,.52-2.192,3.775,3.775,0,0,1,1.44-1.5A4.23,4.23,0,0,1,69.2-8.128a4.086,4.086,0,0,1,2.064.512,3.677,3.677,0,0,1,1.4,1.4,3.933,3.933,0,0,1,.5,1.976q0,.176-.008.368t-.024.4H67.1a2.067,2.067,0,0,0,.648,1.456,2.036,2.036,0,0,0,1.416.528,1.861,1.861,0,0,0,1.048-.28,1.735,1.735,0,0,0,.632-.728h2.08a3.771,3.771,0,0,1-.744,1.368A3.668,3.668,0,0,1,70.9-.16,4.047,4.047,0,0,1,69.184.192ZM69.2-6.464a2.181,2.181,0,0,0-1.328.424,1.965,1.965,0,0,0-.736,1.288h3.952A1.727,1.727,0,0,0,70.512-6,1.916,1.916,0,0,0,69.2-6.464ZM78.752,0V-11.2h7.232v1.648H80.8v3.136h4.192V-4.8H80.8V0Zm9.872-9.168A1.3,1.3,0,0,1,87.7-9.5a1.11,1.11,0,0,1-.36-.848,1.085,1.085,0,0,1,.36-.84,1.313,1.313,0,0,1,.92-.328,1.313,1.313,0,0,1,.92.328,1.085,1.085,0,0,1,.36.84,1.11,1.11,0,0,1-.36.848A1.3,1.3,0,0,1,88.624-9.168ZM87.6,0V-7.936h2.048V0Zm4.192,0V-7.936H93.6l.16,1.344a2.79,2.79,0,0,1,1.064-1.12,3.136,3.136,0,0,1,1.64-.416,2.886,2.886,0,0,1,2.288.928,4,4,0,0,1,.816,2.72V0H97.52V-4.288A2.542,2.542,0,0,0,97.1-5.856a1.528,1.528,0,0,0-1.3-.544,1.826,1.826,0,0,0-1.416.608,2.432,2.432,0,0,0-.552,1.7V0Zm12.464.192a3.754,3.754,0,0,1-1.68-.328,2.27,2.27,0,0,1-.976-.872,2.323,2.323,0,0,1-.32-1.2A2.184,2.184,0,0,1,102.144-4a4.109,4.109,0,0,1,2.592-.688h2.016V-4.88a1.469,1.469,0,0,0-.464-1.2,1.747,1.747,0,0,0-1.152-.384,1.979,1.979,0,0,0-1.088.3,1.274,1.274,0,0,0-.576.872h-2a2.791,2.791,0,0,1,.584-1.5,3.269,3.269,0,0,1,1.3-.984,4.493,4.493,0,0,1,1.792-.344,3.937,3.937,0,0,1,2.672.848,3.009,3.009,0,0,1,.976,2.4V0h-1.744l-.192-1.28a2.958,2.958,0,0,1-.984,1.056A2.9,2.9,0,0,1,104.256.192Zm.464-1.6a1.7,1.7,0,0,0,1.368-.576,2.8,2.8,0,0,0,.616-1.424H104.96a1.819,1.819,0,0,0-1.168.3.916.916,0,0,0-.352.728.839.839,0,0,0,.352.72A1.542,1.542,0,0,0,104.72-1.408ZM110.752,0V-11.52H112.8V0Zm8,0V-11.2H122.9a4.884,4.884,0,0,1,2.224.448,3,3,0,0,1,1.312,1.232,3.585,3.585,0,0,1,.432,1.76,3.549,3.549,0,0,1-.416,1.7,3.057,3.057,0,0,1-1.3,1.248,4.751,4.751,0,0,1-2.256.472h-2.1V0ZM120.8-6h1.968a2.123,2.123,0,0,0,1.544-.472,1.74,1.74,0,0,0,.472-1.288,1.762,1.762,0,0,0-.472-1.3,2.123,2.123,0,0,0-1.544-.472H120.8ZM130.656.192a3.754,3.754,0,0,1-1.68-.328A2.27,2.27,0,0,1,128-1.008a2.323,2.323,0,0,1-.32-1.2A2.183,2.183,0,0,1,128.544-4a4.109,4.109,0,0,1,2.592-.688h2.016V-4.88a1.469,1.469,0,0,0-.464-1.2,1.747,1.747,0,0,0-1.152-.384,1.979,1.979,0,0,0-1.088.3,1.274,1.274,0,0,0-.576.872h-2a2.791,2.791,0,0,1,.584-1.5,3.269,3.269,0,0,1,1.3-.984,4.493,4.493,0,0,1,1.792-.344,3.937,3.937,0,0,1,2.672.848,3.009,3.009,0,0,1,.976,2.4V0h-1.744l-.192-1.28a2.958,2.958,0,0,1-.984,1.056A2.9,2.9,0,0,1,130.656.192Zm.464-1.6a1.7,1.7,0,0,0,1.368-.576,2.8,2.8,0,0,0,.616-1.424H131.36a1.819,1.819,0,0,0-1.168.3.916.916,0,0,0-.352.728.839.839,0,0,0,.352.72A1.542,1.542,0,0,0,131.12-1.408Zm6.752,4.928,1.84-4.048h-.48l-3.088-7.408h2.224l2.224,5.584,2.32-5.584h2.176L140.048,3.52ZM149.552.192a4.087,4.087,0,0,1-2.072-.528A3.877,3.877,0,0,1,146.024-1.8a4.286,4.286,0,0,1-.536-2.168,4.236,4.236,0,0,1,.544-2.168A3.935,3.935,0,0,1,147.5-7.6a4.087,4.087,0,0,1,2.072-.528,4.056,4.056,0,0,1,2.056.528,3.877,3.877,0,0,1,1.456,1.464,4.286,4.286,0,0,1,.536,2.168A4.286,4.286,0,0,1,153.08-1.8a3.86,3.86,0,0,1-1.464,1.464A4.1,4.1,0,0,1,149.552.192Zm0-1.776a1.893,1.893,0,0,0,1.392-.6,2.441,2.441,0,0,0,.592-1.784,2.441,2.441,0,0,0-.592-1.784,1.875,1.875,0,0,0-1.376-.6,1.885,1.885,0,0,0-1.4.6,2.462,2.462,0,0,0-.584,1.784,2.462,2.462,0,0,0,.584,1.784A1.867,1.867,0,0,0,149.552-1.584ZM158.416.192a2.881,2.881,0,0,1-2.3-.928,4.031,4.031,0,0,1-.808-2.72v-4.48h2.032v4.288a2.542,2.542,0,0,0,.416,1.568,1.546,1.546,0,0,0,1.312.544,1.808,1.808,0,0,0,1.4-.608,2.432,2.432,0,0,0,.552-1.7v-4.1h2.048V0h-1.808l-.16-1.344a2.79,2.79,0,0,1-1.064,1.12A3.1,3.1,0,0,1,158.416.192ZM168.7,0a3.086,3.086,0,0,1-2-.608,2.644,2.644,0,0,1-.752-2.16V-6.224h-1.36V-7.936h1.36l.24-2.128H168v2.128h2.144v1.712H168v3.472a1.019,1.019,0,0,0,.248.792,1.312,1.312,0,0,0,.856.216h.992V0Z" transform="translate(940 3394)" fill="#fff"/>
      </g>
      <path id="Subtraction_2" data-name="Subtraction 2" d="M-10577,420a71.558,71.558,0,0,1-28.026-5.658,72.069,72.069,0,0,1-12.231-6.638,72.5,72.5,0,0,1-10.655-8.792,72.428,72.428,0,0,1-8.792-10.655,72.03,72.03,0,0,1-6.639-12.23A71.534,71.534,0,0,1-10649,348a71.537,71.537,0,0,1,5.658-28.026,72.031,72.031,0,0,1,6.639-12.23,72.42,72.42,0,0,1,8.792-10.656,72.5,72.5,0,0,1,10.655-8.792,72.085,72.085,0,0,1,12.231-6.639A71.554,71.554,0,0,1-10577,276a71.549,71.549,0,0,1,28.025,5.658,72,72,0,0,1,12.23,6.639,72.5,72.5,0,0,1,10.655,8.792,72.527,72.527,0,0,1,8.791,10.656,71.982,71.982,0,0,1,6.638,12.23A71.537,71.537,0,0,1-10505,348a71.533,71.533,0,0,1-5.658,28.026,71.981,71.981,0,0,1-6.638,12.23,72.517,72.517,0,0,1-8.791,10.655,72.5,72.5,0,0,1-10.655,8.792,72,72,0,0,1-12.23,6.638A71.553,71.553,0,0,1-10577,420Zm.5-116a44.222,44.222,0,0,0-17.321,3.5,44.343,44.343,0,0,0-14.145,9.537,44.343,44.343,0,0,0-9.537,14.145,44.228,44.228,0,0,0-3.5,17.322,44.228,44.228,0,0,0,3.5,17.322,44.343,44.343,0,0,0,9.537,14.145,44.343,44.343,0,0,0,14.145,9.537,44.222,44.222,0,0,0,17.321,3.5,44.224,44.224,0,0,0,17.322-3.5,44.356,44.356,0,0,0,14.145-9.537,44.343,44.343,0,0,0,9.537-14.145,44.228,44.228,0,0,0,3.5-17.322,44.228,44.228,0,0,0-3.5-17.322,44.343,44.343,0,0,0-9.537-14.145,44.354,44.354,0,0,0-14.145-9.537A44.224,44.224,0,0,0-10576.5,304Z" transform="translate(23037 -544)" fill="#1eefb0"/>
      <path id="Intersection_2" data-name="Intersection 2" d="M-10645.892,326.994a71.834,71.834,0,0,1,2.549-7.018,72.278,72.278,0,0,1,6.639-12.232,72.634,72.634,0,0,1,8.793-10.655,72.613,72.613,0,0,1,10.655-8.793,72.264,72.264,0,0,1,12.232-6.639,71.551,71.551,0,0,1,27.4-5.655h1.246q2.2.018,4.375.167v28.054q-2.231-.223-4.5-.224a44.24,44.24,0,0,0-17.32,3.5,44.315,44.315,0,0,0-14.144,9.536,44.358,44.358,0,0,0-9.538,14.146q-.732,1.734-1.313,3.512Z" transform="translate(23036.996 -544.001)" fill="#3e16e1"/>
      <path id="Intersection_3" data-name="Intersection 3" d="M-10649,348.621V347.38a71.743,71.743,0,0,1,3.106-20.386l27.076,7.7A44.316,44.316,0,0,0-10621,348.5c0,.131,0,.261,0,.391l-27.989.509Q-10648.995,349.011-10649,348.621Z" transform="translate(23036.996 -544.001)" fill="#7d0eff"/>
    </g>
  </g>
</svg>
