<svg xmlns="http://www.w3.org/2000/svg" xmlns:xlink="http://www.w3.org/1999/xlink" width="328" height="311" viewBox="0 0 328 311">
  <defs>
    <linearGradient id="linear-gradient" x2="1" y2="0.948" gradientUnits="objectBoundingBox">
      <stop offset="0" stop-color="#7d0eff"/>
      <stop offset="1" stop-color="#1eefb0"/>
    </linearGradient>
  </defs>
  <g id="Group_2380" data-name="Group 2380" transform="translate(-16 -154)">
    <g id="Group_2379" data-name="Group 2379" transform="translate(-17)">
      <rect id="Rectangle_2596" data-name="Rectangle 2596" width="120" height="42" rx="10" transform="translate(120 154)" fill="#17243f"/>
      <path id="Path_2304" data-name="Path 2304" d="M9.094-10.469v1.328H5.484V-.047H4.078V-9.141H.469v-1.328Zm5,2.5a3.251,3.251,0,0,1,1.367.32,3.591,3.591,0,0,1,1.2.883V-7.812h1.281V0H16.656V-1.328a3.866,3.866,0,0,1-1.1,1.094,2.771,2.771,0,0,1-1.586.469,3.429,3.429,0,0,1-1.828-.508,3.68,3.68,0,0,1-1.32-1.414,4.318,4.318,0,0,1-.492-2.094,4.747,4.747,0,0,1,.492-2.234,3.555,3.555,0,0,1,1.352-1.445A3.706,3.706,0,0,1,14.094-7.969Zm.234,1.25a2.417,2.417,0,0,0-1.437.422,2.8,2.8,0,0,0-.914,1.086,3.248,3.248,0,0,0-.32,1.43A3.08,3.08,0,0,0,11.969-2.4a2.512,2.512,0,0,0,.883,1.008,2.348,2.348,0,0,0,1.32.375,2.257,2.257,0,0,0,1.281-.375,2.6,2.6,0,0,0,.891-1.039,3.184,3.184,0,0,0,.313-1.492l-.016-1.5A4.108,4.108,0,0,0,15.6-6.375,2.367,2.367,0,0,0,14.328-6.719Zm7.547-4.531V0H20.594V-11.25Zm3.938,0V0H24.531V-11.25Zm3.094,3.438,2.734,5.75L34.3-7.812h1.531L30.078,3.75H28.594L30.828-.469,27.375-7.812Z" transform="translate(162 181)" fill="#fff"/>
    </g>
    <g id="Group_2357" data-name="Group 2357" transform="translate(87 -2)">
      <rect id="Rectangle_2597" data-name="Rectangle 2597" width="120" height="120" rx="10" transform="translate(16 242)" fill="url(#linear-gradient)"/>
      <rect id="Rectangle_2596-2" data-name="Rectangle 2596" width="114" height="114" rx="10" transform="translate(19 245)" fill="#17243f"/>
      <path id="Path_2303" data-name="Path 2303" d="M-21.683-11.777-27.167.088H-28.38l-5.484-11.865H-31l3.217,7.787,3.234-7.787Zm5.432,2.672a4.286,4.286,0,0,1,2.241.563,3.733,3.733,0,0,1,1.441,1.556,5.027,5.027,0,0,1,.5,2.294v.949H-18.5A2.329,2.329,0,0,0-17.622-2.3a2.727,2.727,0,0,0,1.723.545,3.948,3.948,0,0,0,1.758-.387,6.077,6.077,0,0,0,1.266-.791l-.018,2.074a5.2,5.2,0,0,1-1.257.747,4.4,4.4,0,0,1-1.837.378,4.875,4.875,0,0,1-2.4-.6,4.617,4.617,0,0,1-1.723-1.635,4.417,4.417,0,0,1-.642-2.373,4.906,4.906,0,0,1,.58-2.373,4.682,4.682,0,0,1,1.6-1.731A4.179,4.179,0,0,1-16.251-9.105ZM-16.3-7.154a1.992,1.992,0,0,0-1.389.51,2.643,2.643,0,0,0-.773,1.371h4.254a1.821,1.821,0,0,0-.7-1.415A2.291,2.291,0,0,0-16.3-7.154ZM-7.8-8.877v1.266a4.532,4.532,0,0,1,1.1-1.02,2.752,2.752,0,0,1,1.591-.475,3.079,3.079,0,0,1,2.268.914,3.724,3.724,0,0,1,.914,2.742V0H-4.157l-.018-5.15a1.84,1.84,0,0,0-.431-1.336,1.585,1.585,0,0,0-1.187-.439,1.831,1.831,0,0,0-1.116.387,3.982,3.982,0,0,0-.888.914V0h-2.232V-8.877ZM9.079-12.656V0H6.847V-1.494A3.583,3.583,0,0,1,5.722-.255,2.921,2.921,0,0,1,4,.264,3.764,3.764,0,0,1,2.021-.281,3.922,3.922,0,0,1,.571-1.863,5.346,5.346,0,0,1,.026-4.377,5.382,5.382,0,0,1,.58-6.908,4.06,4.06,0,0,1,2.074-8.534a3.935,3.935,0,0,1,2.083-.571,3.519,3.519,0,0,1,1.459.334,3.556,3.556,0,0,1,1.23.9v-4.781ZM4.614-6.908a2.007,2.007,0,0,0-1.2.36,2.472,2.472,0,0,0-.782.932,2.767,2.767,0,0,0-.281,1.239,2.521,2.521,0,0,0,.606,1.705,2.019,2.019,0,0,0,1.608.7,2.105,2.105,0,0,0,1.116-.316,2.414,2.414,0,0,0,.844-.888,2.747,2.747,0,0,0,.325-1.38V-5.818a3.847,3.847,0,0,0-1.028-.8A2.556,2.556,0,0,0,4.614-6.908Zm11.338-2.2a4.632,4.632,0,0,1,2.373.624,4.922,4.922,0,0,1,1.731,1.688,4.429,4.429,0,0,1,.659,2.382,4.385,4.385,0,0,1-.659,2.373A4.948,4.948,0,0,1,18.325-.36a4.632,4.632,0,0,1-2.373.624A4.646,4.646,0,0,1,13.588-.36a4.851,4.851,0,0,1-1.731-1.679,4.429,4.429,0,0,1-.65-2.373,4.474,4.474,0,0,1,.65-2.382,4.827,4.827,0,0,1,1.731-1.687A4.646,4.646,0,0,1,15.952-9.105Zm0,2.162a2.41,2.41,0,0,0-1.178.3,2.234,2.234,0,0,0-.87.861,2.7,2.7,0,0,0-.325,1.371A2.7,2.7,0,0,0,13.9-3.041a2.173,2.173,0,0,0,.87.853,2.468,2.468,0,0,0,1.178.29,2.468,2.468,0,0,0,1.178-.29,2.231,2.231,0,0,0,.879-.853,2.641,2.641,0,0,0,.334-1.371,2.641,2.641,0,0,0-.334-1.371,2.3,2.3,0,0,0-.879-.861A2.41,2.41,0,0,0,15.952-6.943Zm12.463.563A2.369,2.369,0,0,0,27.237-6.7a1.756,1.756,0,0,0-1.283.5,4.921,4.921,0,0,0-.9,1.239V0H22.825V-8.877h2.232v1.67a4.938,4.938,0,0,1,1.081-1.318,2.133,2.133,0,0,1,1.415-.527,2.255,2.255,0,0,1,.861.158Zm-53.191,15.6a4.794,4.794,0,0,1,1.617.281,4.55,4.55,0,0,1,1.433.826,4.058,4.058,0,0,1,1.02,1.31,3.9,3.9,0,0,1,.378,1.749,3.769,3.769,0,0,1-.606,2.118,4.268,4.268,0,0,1-1.608,1.45,4.609,4.609,0,0,1-2.18.527,5.882,5.882,0,0,1-1.424-.158,5.207,5.207,0,0,1-1.055-.369V21h-2.443V9.223ZM-27.2,11.508v3.48a5.385,5.385,0,0,0,.94.272,5.6,5.6,0,0,0,1.134.114,2.346,2.346,0,0,0,1.679-.589,1.858,1.858,0,0,0,.624-1.4,1.586,1.586,0,0,0-.7-1.406,2.883,2.883,0,0,0-1.652-.475Zm12.463.387a3.519,3.519,0,0,1,1.459.334,3.556,3.556,0,0,1,1.23.9v-1h2.232V21H-12.05V19.506a3.583,3.583,0,0,1-1.125,1.239,2.921,2.921,0,0,1-1.723.519,3.764,3.764,0,0,1-1.978-.545,3.922,3.922,0,0,1-1.45-1.582,5.346,5.346,0,0,1-.545-2.514,5.382,5.382,0,0,1,.554-2.531,4.06,4.06,0,0,1,1.494-1.626A3.935,3.935,0,0,1-14.739,11.895Zm.457,2.18a2.007,2.007,0,0,0-1.2.36,2.456,2.456,0,0,0-.782.94,2.823,2.823,0,0,0-.281,1.248,2.521,2.521,0,0,0,.606,1.705,2.019,2.019,0,0,0,1.608.7,2.105,2.105,0,0,0,1.116-.316,2.414,2.414,0,0,0,.844-.888,2.747,2.747,0,0,0,.325-1.38V15.182a4.009,4.009,0,0,0-1.028-.809A2.5,2.5,0,0,0-14.282,14.074Zm8.613-1.951,2.531,5.66,2.461-5.66H1.872l-6.451,13.1H-7.11l2.672-4.869-3.832-8.227Zm13.043-.229a4.632,4.632,0,0,1,2.373.624,4.922,4.922,0,0,1,1.731,1.688,4.429,4.429,0,0,1,.659,2.382,4.385,4.385,0,0,1-.659,2.373A4.948,4.948,0,0,1,9.747,20.64a4.632,4.632,0,0,1-2.373.624A4.646,4.646,0,0,1,5.01,20.64a4.851,4.851,0,0,1-1.731-1.679,4.429,4.429,0,0,1-.65-2.373,4.474,4.474,0,0,1,.65-2.382A4.827,4.827,0,0,1,5.01,12.519,4.646,4.646,0,0,1,7.374,11.895Zm0,2.162a2.41,2.41,0,0,0-1.178.3,2.234,2.234,0,0,0-.87.861A2.7,2.7,0,0,0,5,16.588a2.7,2.7,0,0,0,.325,1.371,2.173,2.173,0,0,0,.87.853,2.536,2.536,0,0,0,2.355,0,2.231,2.231,0,0,0,.879-.853,2.641,2.641,0,0,0,.334-1.371,2.641,2.641,0,0,0-.334-1.371,2.3,2.3,0,0,0-.879-.861A2.41,2.41,0,0,0,7.374,14.057Zm14.713-1.934v5.291a3.783,3.783,0,0,1-.527,2.03,3.513,3.513,0,0,1-1.433,1.31,4.856,4.856,0,0,1-4.113,0,3.453,3.453,0,0,1-1.424-1.31,3.832,3.832,0,0,1-.519-2.03V12.123h2.25l.018,4.887a2.2,2.2,0,0,0,.475,1.547,1.815,1.815,0,0,0,2.522,0,2.176,2.176,0,0,0,.483-1.547V12.123Zm5.766-2.584v2.584h2.461v1.863H27.853v3.832a1.472,1.472,0,0,0,.272.94.981.981,0,0,0,.817.343A2.8,2.8,0,0,0,29.76,19a2.562,2.562,0,0,0,.642-.3v1.775a2.822,2.822,0,0,1-.835.563,3.031,3.031,0,0,1-1.257.229,2.6,2.6,0,0,1-1.942-.765,2.877,2.877,0,0,1-.747-2.1V13.986h-1.6V12.844a3.706,3.706,0,0,0,1.556-1.125,6.064,6.064,0,0,0,1.134-2.18Zm-68.941,20.4a6.8,6.8,0,0,1,3.27.756,5.458,5.458,0,0,1,2.188,2.109,6.247,6.247,0,0,1,.782,3.182,6.717,6.717,0,0,1-.738,3.155A5.587,5.587,0,0,1-37.7,41.385a6.217,6.217,0,0,1-3.27.826,23.76,23.76,0,0,1-2.417-.123q-1.2-.123-2.276-.334V30.4q1.09-.176,2.232-.316A19.125,19.125,0,0,1-41.089,29.941Zm.053,2.285q-.527,0-1.107.053t-1.072.141v7.313a9.2,9.2,0,0,0,1.1.149q.571.044,1.081.044a3.76,3.76,0,0,0,1.986-.5,3.311,3.311,0,0,0,1.266-1.38,4.341,4.341,0,0,0,.439-1.969,4.312,4.312,0,0,0-.439-1.986,3.337,3.337,0,0,0-1.266-1.362A3.76,3.76,0,0,0-41.036,32.227Zm11.865.668a3.519,3.519,0,0,1,1.459.334,3.556,3.556,0,0,1,1.23.9v-1h2.232V42h-2.232V40.506a3.583,3.583,0,0,1-1.125,1.239,2.921,2.921,0,0,1-1.723.519,3.764,3.764,0,0,1-1.978-.545,3.922,3.922,0,0,1-1.45-1.582,5.346,5.346,0,0,1-.545-2.514,5.382,5.382,0,0,1,.554-2.531,4.06,4.06,0,0,1,1.494-1.626A3.935,3.935,0,0,1-29.171,32.895Zm.457,2.18a2.007,2.007,0,0,0-1.2.36,2.456,2.456,0,0,0-.782.94,2.823,2.823,0,0,0-.281,1.248,2.521,2.521,0,0,0,.606,1.705,2.019,2.019,0,0,0,1.608.7,2.105,2.105,0,0,0,1.116-.316,2.414,2.414,0,0,0,.844-.888,2.747,2.747,0,0,0,.325-1.38V36.182a4.009,4.009,0,0,0-1.028-.809A2.5,2.5,0,0,0-28.714,35.074Zm10.072-2.18a4.6,4.6,0,0,1,1.529.246,3.612,3.612,0,0,1,1.09.563v1.969a6.626,6.626,0,0,0-1.028-.545,3.121,3.121,0,0,0-1.257-.264,1.615,1.615,0,0,0-1,.281.823.823,0,0,0-.369.668.765.765,0,0,0,.211.519,1.763,1.763,0,0,0,.809.413l1,.334a2.374,2.374,0,0,1,2.021,2.338,2.434,2.434,0,0,1-.466,1.468,3.188,3.188,0,0,1-1.248,1.011,4.006,4.006,0,0,1-1.731.369,5.467,5.467,0,0,1-1.74-.281,4.517,4.517,0,0,1-1.283-.615V39.416a5.117,5.117,0,0,0,.809.439,6.308,6.308,0,0,0,.984.343,3.748,3.748,0,0,0,.932.132,1.867,1.867,0,0,0,1.028-.237.763.763,0,0,0,.36-.677.6.6,0,0,0-.3-.527,4.012,4.012,0,0,0-.879-.387l-1.09-.387a2.5,2.5,0,0,1-1.406-.949,2.685,2.685,0,0,1-.387-1.459,2.52,2.52,0,0,1,.431-1.468,2.922,2.922,0,0,1,1.2-.984A4.159,4.159,0,0,1-18.642,32.895Zm9.826,0a3.079,3.079,0,0,1,2.268.914,3.724,3.724,0,0,1,.914,2.742V42H-7.866l-.018-5.15a1.84,1.84,0,0,0-.431-1.336A1.585,1.585,0,0,0-9.5,35.074a1.831,1.831,0,0,0-1.116.387,3.982,3.982,0,0,0-.888.914V42h-2.232V29.344H-11.5v5.045a4.532,4.532,0,0,1,1.1-1.02A2.752,2.752,0,0,1-8.815,32.895Zm10.67,0a3.935,3.935,0,0,1,2.083.571,4.06,4.06,0,0,1,1.494,1.626,5.382,5.382,0,0,1,.554,2.531,5.275,5.275,0,0,1-.554,2.514,3.982,3.982,0,0,1-1.459,1.582,3.733,3.733,0,0,1-1.96.545A2.921,2.921,0,0,1,.29,41.745,3.583,3.583,0,0,1-.835,40.506V42H-3.067V29.344H-.835v4.781a3.576,3.576,0,0,1,1.222-.9A3.5,3.5,0,0,1,1.854,32.895Zm-.457,2.2a2.556,2.556,0,0,0-1.2.29,3.847,3.847,0,0,0-1.028.8v1.266a2.628,2.628,0,0,0,.308,1.38,2.321,2.321,0,0,0,.853.879,2.2,2.2,0,0,0,1.125.308,2.03,2.03,0,0,0,1.608-.694,2.488,2.488,0,0,0,.606-1.7,2.767,2.767,0,0,0-.281-1.239,2.442,2.442,0,0,0-.791-.932A2.017,2.017,0,0,0,1.4,35.092Zm10.846-2.2a4.632,4.632,0,0,1,2.373.624,4.922,4.922,0,0,1,1.731,1.688,4.429,4.429,0,0,1,.659,2.382,4.385,4.385,0,0,1-.659,2.373,4.948,4.948,0,0,1-1.731,1.679,4.807,4.807,0,0,1-4.737,0,4.851,4.851,0,0,1-1.731-1.679,4.429,4.429,0,0,1-.65-2.373,4.474,4.474,0,0,1,.65-2.382,4.827,4.827,0,0,1,1.731-1.687A4.646,4.646,0,0,1,12.243,32.895Zm0,2.162a2.41,2.41,0,0,0-1.178.3,2.234,2.234,0,0,0-.87.861,3.053,3.053,0,0,0,0,2.742,2.173,2.173,0,0,0,.87.853,2.536,2.536,0,0,0,2.355,0,2.231,2.231,0,0,0,.879-.853,2.981,2.981,0,0,0,0-2.742,2.3,2.3,0,0,0-.879-.861A2.41,2.41,0,0,0,12.243,35.057Zm10.389-2.162a3.519,3.519,0,0,1,1.459.334,3.556,3.556,0,0,1,1.23.9v-1h2.232V42H25.321V40.506A3.583,3.583,0,0,1,24.2,41.745a2.921,2.921,0,0,1-1.723.519,3.764,3.764,0,0,1-1.978-.545,3.922,3.922,0,0,1-1.45-1.582,6.066,6.066,0,0,1,.009-5.045,4.06,4.06,0,0,1,1.494-1.626A3.935,3.935,0,0,1,22.632,32.895Zm.457,2.18a2.007,2.007,0,0,0-1.2.36,2.456,2.456,0,0,0-.782.94,2.823,2.823,0,0,0-.281,1.248,2.521,2.521,0,0,0,.606,1.705,2.019,2.019,0,0,0,1.608.7,2.105,2.105,0,0,0,1.116-.316A2.414,2.414,0,0,0,25,38.827a2.747,2.747,0,0,0,.325-1.38V36.182a4.009,4.009,0,0,0-1.028-.809A2.5,2.5,0,0,0,23.089,35.074Zm12.8.545a2.369,2.369,0,0,0-1.178-.316,1.756,1.756,0,0,0-1.283.5,4.921,4.921,0,0,0-.9,1.239V42H30.3V33.123h2.232v1.67a4.938,4.938,0,0,1,1.081-1.318,2.133,2.133,0,0,1,1.415-.527,2.255,2.255,0,0,1,.861.158Zm10.16-6.275V42H43.813V40.506a3.583,3.583,0,0,1-1.125,1.239,2.921,2.921,0,0,1-1.723.519,3.764,3.764,0,0,1-1.978-.545,3.922,3.922,0,0,1-1.45-1.582,6.066,6.066,0,0,1,.009-5.045,4.06,4.06,0,0,1,1.494-1.626,3.935,3.935,0,0,1,2.083-.571,3.519,3.519,0,0,1,1.459.334,3.556,3.556,0,0,1,1.23.9V29.344Zm-4.465,5.748a2.007,2.007,0,0,0-1.2.36,2.472,2.472,0,0,0-.782.932,2.767,2.767,0,0,0-.281,1.239,2.521,2.521,0,0,0,.606,1.705,2.019,2.019,0,0,0,1.608.7,2.105,2.105,0,0,0,1.116-.316,2.414,2.414,0,0,0,.844-.888,2.747,2.747,0,0,0,.325-1.38V36.182a3.847,3.847,0,0,0-1.028-.8A2.556,2.556,0,0,0,41.581,35.092Z" transform="translate(76 287)" fill="#fff"/>
    </g>
    <g id="Group_2359" data-name="Group 2359" transform="translate(-737 -935)">
      <rect id="Rectangle_2897" data-name="Rectangle 2897" width="130" height="61" rx="10" transform="translate(753 1339)" fill="#17243f"/>
      <path id="Path_2308" data-name="Path 2308" d="M-14.506-9.16-18.785,0H-19.4L-23.68-9.16H-22.2l3.09,7.082,3.131-7.082Zm4.115,2.188a3.236,3.236,0,0,1,1.75.438A2.731,2.731,0,0,1-7.595-5.346a3.984,3.984,0,0,1,.349,1.7v.67H-12.5a2.55,2.55,0,0,0,.4,1.053,2.3,2.3,0,0,0,.82.759,2.358,2.358,0,0,0,1.162.28,2.688,2.688,0,0,0,1.381-.376,5.032,5.032,0,0,0,1.08-.827L-7.67-.875a2.655,2.655,0,0,1-.567.485A3.791,3.791,0,0,1-9.1.034a3.044,3.044,0,0,1-1.019.171,3.472,3.472,0,0,1-1.846-.492,3.545,3.545,0,0,1-1.265-1.306,3.575,3.575,0,0,1-.458-1.784,3.844,3.844,0,0,1,.424-1.791A3.428,3.428,0,0,1-12.093-6.48,3.018,3.018,0,0,1-10.391-6.973Zm0,1.094a1.853,1.853,0,0,0-1.395.567,2.544,2.544,0,0,0-.684,1.374h4.115a2.213,2.213,0,0,0-.376-1.094,1.984,1.984,0,0,0-.745-.636A2.076,2.076,0,0,0-10.391-5.879Zm6.111-.957v1.08a3.8,3.8,0,0,1,.561-.554,3.367,3.367,0,0,1,.772-.472,2.182,2.182,0,0,1,.9-.191,2.649,2.649,0,0,1,1.271.308,2.252,2.252,0,0,1,.916.93A3.222,3.222,0,0,1,.479-4.17V0H-.643L-.656-4.061a2.057,2.057,0,0,0-.39-1.354,1.473,1.473,0,0,0-1.2-.465,1.808,1.808,0,0,0-1.087.4,4.868,4.868,0,0,0-.95.937V0H-5.4V-6.836ZM8.777-9.844V0H7.656V-1.162a3.383,3.383,0,0,1-.964.957A2.425,2.425,0,0,1,5.3.205a3,3,0,0,1-1.6-.444A3.22,3.22,0,0,1,2.55-1.477a3.778,3.778,0,0,1-.431-1.832A4.154,4.154,0,0,1,2.55-5.264,3.111,3.111,0,0,1,3.732-6.528a3.243,3.243,0,0,1,1.682-.444,2.845,2.845,0,0,1,1.2.28,3.142,3.142,0,0,1,1.046.772V-9.844ZM5.619-5.852a2.144,2.144,0,0,0-1.258.362,2.413,2.413,0,0,0-.8.937,2.8,2.8,0,0,0-.28,1.244A2.7,2.7,0,0,0,3.555-2.1a2.2,2.2,0,0,0,.772.882,2.055,2.055,0,0,0,1.155.328A1.975,1.975,0,0,0,6.6-1.217a2.277,2.277,0,0,0,.779-.909,2.786,2.786,0,0,0,.273-1.306L7.643-4.744a3.368,3.368,0,0,0-.909-.82A2.147,2.147,0,0,0,5.619-5.852Zm8.572-1.121a3.472,3.472,0,0,1,1.846.492A3.529,3.529,0,0,1,17.3-5.168a3.612,3.612,0,0,1,.458,1.791A3.575,3.575,0,0,1,17.3-1.593,3.545,3.545,0,0,1,16.037-.287a3.472,3.472,0,0,1-1.846.492,3.472,3.472,0,0,1-1.846-.492,3.545,3.545,0,0,1-1.265-1.306,3.575,3.575,0,0,1-.458-1.784,3.612,3.612,0,0,1,.458-1.791A3.529,3.529,0,0,1,12.346-6.48,3.472,3.472,0,0,1,14.191-6.973Zm0,1.094a2.314,2.314,0,0,0-1.271.349,2.354,2.354,0,0,0-.841.916,2.65,2.65,0,0,0-.294,1.237,2.621,2.621,0,0,0,.294,1.224,2.354,2.354,0,0,0,.841.916,2.314,2.314,0,0,0,1.271.349,2.3,2.3,0,0,0,1.278-.349,2.372,2.372,0,0,0,.834-.916A2.621,2.621,0,0,0,16.6-3.377,2.65,2.65,0,0,0,16.3-4.614a2.372,2.372,0,0,0-.834-.916A2.3,2.3,0,0,0,14.191-5.879Zm6.535-.957v1.367a3.513,3.513,0,0,1,.957-1.094,1.926,1.926,0,0,1,1.148-.41,1.766,1.766,0,0,1,.711.137v1.3a1.7,1.7,0,0,0-.875-.26A1.427,1.427,0,0,0,21.54-5.3a6.9,6.9,0,0,0-.813,1.176V0H19.605V-6.836ZM-33.6,7.84V17h-1.23V10.369l-2.83,3.021h-.328l-2.9-3.021V17h-1.23V7.84h.383l3.91,4.2,3.842-4.2Zm5.482,2.188a2.845,2.845,0,0,1,1.2.28,3.142,3.142,0,0,1,1.046.772v-.916h1.121V17h-1.121V15.838a3.383,3.383,0,0,1-.964.957,2.425,2.425,0,0,1-1.388.41,3,3,0,0,1-1.6-.444,3.22,3.22,0,0,1-1.155-1.237,3.778,3.778,0,0,1-.431-1.832,4.154,4.154,0,0,1,.431-1.955A3.111,3.111,0,0,1-29.8,10.472,3.243,3.243,0,0,1-28.116,10.027Zm.205,1.094a2.115,2.115,0,0,0-1.258.369,2.454,2.454,0,0,0-.8.95,2.842,2.842,0,0,0-.28,1.251,2.7,2.7,0,0,0,.273,1.21,2.2,2.2,0,0,0,.772.882,2.055,2.055,0,0,0,1.155.328,1.975,1.975,0,0,0,1.121-.328,2.277,2.277,0,0,0,.779-.909,2.786,2.786,0,0,0,.273-1.306l-.014-1.312a3.6,3.6,0,0,0-.909-.834A2.071,2.071,0,0,0-27.911,11.121Zm6.6-.957v1.08a3.8,3.8,0,0,1,.561-.554,3.367,3.367,0,0,1,.772-.472,2.182,2.182,0,0,1,.9-.191,2.649,2.649,0,0,1,1.271.308,2.252,2.252,0,0,1,.916.93,3.222,3.222,0,0,1,.342,1.565V17h-1.121l-.014-4.061a2.057,2.057,0,0,0-.39-1.354,1.473,1.473,0,0,0-1.2-.465,1.808,1.808,0,0,0-1.087.4,4.868,4.868,0,0,0-.95.937V17h-1.121V10.164Zm9.693-.137a2.845,2.845,0,0,1,1.2.28,3.142,3.142,0,0,1,1.046.772v-.916h1.121V17H-9.372V15.838a3.383,3.383,0,0,1-.964.957,2.425,2.425,0,0,1-1.388.41,3,3,0,0,1-1.6-.444,3.22,3.22,0,0,1-1.155-1.237,3.778,3.778,0,0,1-.431-1.832,4.154,4.154,0,0,1,.431-1.955A3.111,3.111,0,0,1-13.3,10.472,3.243,3.243,0,0,1-11.614,10.027Zm.205,1.094a2.115,2.115,0,0,0-1.258.369,2.454,2.454,0,0,0-.8.95,2.842,2.842,0,0,0-.28,1.251,2.7,2.7,0,0,0,.273,1.21,2.2,2.2,0,0,0,.772.882,2.055,2.055,0,0,0,1.155.328,1.975,1.975,0,0,0,1.121-.328,2.277,2.277,0,0,0,.779-.909,2.786,2.786,0,0,0,.273-1.306l-.014-1.312a3.6,3.6,0,0,0-.909-.834A2.071,2.071,0,0,0-11.409,11.121Zm8.3-1.094a2.845,2.845,0,0,1,1.2.28,3.142,3.142,0,0,1,1.046.772v-.916H.253v6.7a3.825,3.825,0,0,1-.492,2.023,3.09,3.09,0,0,1-1.312,1.2,4.061,4.061,0,0,1-1.791.4,3.516,3.516,0,0,1-1.073-.144,3.007,3.007,0,0,1-.759-.355q-.314-.212-.574-.4v-1.2q.205.15.54.39A3.924,3.924,0,0,0-4.4,19.2a2.8,2.8,0,0,0,1.06.191,3.027,3.027,0,0,0,1.23-.246,2.144,2.144,0,0,0,.9-.725,1.924,1.924,0,0,0,.342-1.148V15.838a3.383,3.383,0,0,1-.964.957,2.425,2.425,0,0,1-1.388.41,3,3,0,0,1-1.6-.444,3.22,3.22,0,0,1-1.155-1.237,3.778,3.778,0,0,1-.431-1.832,4.154,4.154,0,0,1,.431-1.955,3.111,3.111,0,0,1,1.183-1.265A3.243,3.243,0,0,1-3.11,10.027Zm.205,1.107a2.144,2.144,0,0,0-1.258.362,2.4,2.4,0,0,0-.8.943,2.842,2.842,0,0,0-.28,1.251,2.652,2.652,0,0,0,.273,1.2,2.209,2.209,0,0,0,.772.875,2.055,2.055,0,0,0,1.155.328,1.975,1.975,0,0,0,1.121-.328,2.287,2.287,0,0,0,.779-.9,2.746,2.746,0,0,0,.273-1.3l-.014-1.312a3.479,3.479,0,0,0-.909-.827A2.108,2.108,0,0,0-2.905,11.135Zm8.3-1.107a3.236,3.236,0,0,1,1.75.438,2.731,2.731,0,0,1,1.046,1.189,3.984,3.984,0,0,1,.349,1.7v.67H3.288a2.55,2.55,0,0,0,.4,1.053,2.3,2.3,0,0,0,.82.759,2.358,2.358,0,0,0,1.162.28,2.688,2.688,0,0,0,1.381-.376,5.032,5.032,0,0,0,1.08-.827l-.014,1.217a2.655,2.655,0,0,1-.567.485,3.791,3.791,0,0,1-.861.424,3.044,3.044,0,0,1-1.019.171,3.472,3.472,0,0,1-1.846-.492A3.571,3.571,0,0,1,2.1,13.623a3.844,3.844,0,0,1,.424-1.791A3.428,3.428,0,0,1,3.691,10.52,3.018,3.018,0,0,1,5.394,10.027Zm0,1.094A1.853,1.853,0,0,0,4,11.688a2.544,2.544,0,0,0-.684,1.374H7.431a2.213,2.213,0,0,0-.376-1.094,1.984,1.984,0,0,0-.745-.636A2.076,2.076,0,0,0,5.394,11.121Zm6.111-.957v.875a3.849,3.849,0,0,1,.841-.69,2.231,2.231,0,0,1,1.21-.321,2.851,2.851,0,0,1,1.381.349,2.309,2.309,0,0,1,.984,1.046,5.856,5.856,0,0,1,1.039-.984,2.163,2.163,0,0,1,1.313-.41,2.853,2.853,0,0,1,1.306.308,2.409,2.409,0,0,1,.984.93,2.983,2.983,0,0,1,.376,1.565V17H19.817L19.8,12.939a1.85,1.85,0,0,0-.458-1.354,1.7,1.7,0,0,0-1.265-.465,1.541,1.541,0,0,0-1.025.369,6.257,6.257,0,0,0-.834.861V17H15.1l-.014-4.061a1.85,1.85,0,0,0-.458-1.354,1.856,1.856,0,0,0-2.283-.137,4.439,4.439,0,0,0-.841.793V17H10.384V10.164Zm14.369-.137a3.236,3.236,0,0,1,1.75.438,2.731,2.731,0,0,1,1.046,1.189,3.984,3.984,0,0,1,.349,1.7v.67h-5.25a2.55,2.55,0,0,0,.4,1.053,2.3,2.3,0,0,0,.82.759,2.358,2.358,0,0,0,1.162.28,2.688,2.688,0,0,0,1.381-.376,5.032,5.032,0,0,0,1.08-.827l-.014,1.217a2.655,2.655,0,0,1-.567.485,3.791,3.791,0,0,1-.861.424,3.044,3.044,0,0,1-1.019.171,3.472,3.472,0,0,1-1.846-.492,3.571,3.571,0,0,1-1.723-3.09A3.844,3.844,0,0,1,23,11.832a3.428,3.428,0,0,1,1.169-1.312A3.018,3.018,0,0,1,25.874,10.027Zm0,1.094a1.853,1.853,0,0,0-1.395.567,2.544,2.544,0,0,0-.684,1.374h4.115a2.213,2.213,0,0,0-.376-1.094,1.984,1.984,0,0,0-.745-.636A2.076,2.076,0,0,0,25.874,11.121Zm6.111-.957v1.08a3.8,3.8,0,0,1,.561-.554,3.367,3.367,0,0,1,.772-.472,2.182,2.182,0,0,1,.9-.191,2.649,2.649,0,0,1,1.271.308,2.252,2.252,0,0,1,.916.93,3.222,3.222,0,0,1,.342,1.565V17H35.622l-.014-4.061a2.057,2.057,0,0,0-.39-1.354,1.473,1.473,0,0,0-1.2-.465,1.808,1.808,0,0,0-1.087.4,4.868,4.868,0,0,0-.95.937V17H30.864V10.164ZM40.749,8.2v1.969h2v1.053h-2v4.006a.972.972,0,0,0,.219.67.851.851,0,0,0,.67.246,1.964,1.964,0,0,0,.684-.1,2.932,2.932,0,0,0,.479-.226v.916a2.459,2.459,0,0,1-.581.349,2.168,2.168,0,0,1-.827.13,1.629,1.629,0,0,1-1.319-.526,2.1,2.1,0,0,1-.444-1.4V11.217H38.315v-.328A2.615,2.615,0,0,0,39.437,9.9a7.506,7.506,0,0,0,.793-1.7Z" transform="translate(818 1366)" fill="#fff"/>
    </g>
    <g id="Group_2360" data-name="Group 2360" transform="translate(-577 -935)">
      <rect id="Rectangle_2897-2" data-name="Rectangle 2897" width="130" height="61" rx="10" transform="translate(753 1339)" fill="#17243f"/>
      <path id="Path_2307" data-name="Path 2307" d="M-43.2-9.16V0h-1.23V-6.631l-2.83,3.021h-.328l-2.9-3.021V0h-1.23V-9.16h.383l3.91,4.2,3.842-4.2Zm5.482,2.188a2.845,2.845,0,0,1,1.2.28,3.142,3.142,0,0,1,1.046.772v-.916h1.121V0h-1.121V-1.162a3.383,3.383,0,0,1-.964.957,2.425,2.425,0,0,1-1.388.41,3,3,0,0,1-1.6-.444,3.22,3.22,0,0,1-1.155-1.237,3.778,3.778,0,0,1-.431-1.832,4.154,4.154,0,0,1,.431-1.955A3.111,3.111,0,0,1-39.4-6.528,3.243,3.243,0,0,1-37.714-6.973Zm.205,1.094a2.115,2.115,0,0,0-1.258.369,2.454,2.454,0,0,0-.8.95,2.842,2.842,0,0,0-.28,1.251,2.7,2.7,0,0,0,.273,1.21,2.2,2.2,0,0,0,.772.882,2.055,2.055,0,0,0,1.155.328,1.975,1.975,0,0,0,1.121-.328,2.277,2.277,0,0,0,.779-.909,2.786,2.786,0,0,0,.273-1.306l-.014-1.312a3.6,3.6,0,0,0-.909-.834A2.071,2.071,0,0,0-37.509-5.879Zm11.525-.957-3.172,2.98L-25.806,0h-1.422l-2.707-3.117-.971.9V0h-1.121V-9.844h1.121V-3.5l3.4-3.336Zm3.814-.137a3.236,3.236,0,0,1,1.75.438,2.731,2.731,0,0,1,1.046,1.189,3.984,3.984,0,0,1,.349,1.7v.67h-5.25a2.55,2.55,0,0,0,.4,1.053,2.3,2.3,0,0,0,.82.759,2.358,2.358,0,0,0,1.162.28,2.688,2.688,0,0,0,1.381-.376,5.032,5.032,0,0,0,1.08-.827l-.014,1.217a2.655,2.655,0,0,1-.567.485,3.791,3.791,0,0,1-.861.424A3.044,3.044,0,0,1-21.9.205a3.472,3.472,0,0,1-1.846-.492,3.545,3.545,0,0,1-1.265-1.306,3.575,3.575,0,0,1-.458-1.784,3.844,3.844,0,0,1,.424-1.791A3.428,3.428,0,0,1-23.871-6.48,3.018,3.018,0,0,1-22.169-6.973Zm0,1.094a1.853,1.853,0,0,0-1.395.567,2.544,2.544,0,0,0-.684,1.374h4.115a2.213,2.213,0,0,0-.376-1.094,1.984,1.984,0,0,0-.745-.636A2.076,2.076,0,0,0-22.169-5.879Zm6.111-.957v1.367A3.513,3.513,0,0,1-15.1-6.562a1.926,1.926,0,0,1,1.148-.41,1.766,1.766,0,0,1,.711.137v1.3a1.7,1.7,0,0,0-.875-.26,1.427,1.427,0,0,0-1.128.492,6.9,6.9,0,0,0-.813,1.176V0h-1.121V-6.836ZM-3.931-4.074v1.23H-8.046v-1.23ZM6.5-9.365a4.169,4.169,0,0,1,1.634.273,3.946,3.946,0,0,1,1.114.711v1.354q-.3-.219-.677-.479A4.378,4.378,0,0,0,7.7-7.964a3.239,3.239,0,0,0-1.2-.2A3.6,3.6,0,0,0,4.669-7.7,3.39,3.39,0,0,0,3.4-6.419,3.64,3.64,0,0,0,2.933-4.58,3.6,3.6,0,0,0,3.4-2.748,3.456,3.456,0,0,0,4.669-1.47,3.561,3.561,0,0,0,6.5-1a4.217,4.217,0,0,0,1.8-.349,6.575,6.575,0,0,0,1.224-.718v1.23A4.234,4.234,0,0,1,8.271-.1,4.758,4.758,0,0,1,6.5.205,4.8,4.8,0,0,1,4.587-.171,4.852,4.852,0,0,1,3.056-1.2,4.686,4.686,0,0,1,2.037-2.728,4.761,4.761,0,0,1,1.675-4.58a4.761,4.761,0,0,1,.362-1.853A4.686,4.686,0,0,1,3.056-7.957,4.852,4.852,0,0,1,4.587-8.989,4.8,4.8,0,0,1,6.5-9.365Zm8.217,2.393a2.649,2.649,0,0,1,1.271.308,2.252,2.252,0,0,1,.916.93,3.222,3.222,0,0,1,.342,1.565V0H16.126l-.014-4.061a2.057,2.057,0,0,0-.39-1.354,1.473,1.473,0,0,0-1.2-.465,1.808,1.808,0,0,0-1.087.4,4.868,4.868,0,0,0-.95.937V0H11.368V-9.844h1.121v4.088a3.8,3.8,0,0,1,.561-.554,3.367,3.367,0,0,1,.772-.472A2.182,2.182,0,0,1,14.718-6.973Zm7.465,0a3.236,3.236,0,0,1,1.75.438,2.731,2.731,0,0,1,1.046,1.189,3.984,3.984,0,0,1,.349,1.7v.67h-5.25a2.55,2.55,0,0,0,.4,1.053,2.3,2.3,0,0,0,.82.759,2.358,2.358,0,0,0,1.162.28,2.688,2.688,0,0,0,1.381-.376,5.032,5.032,0,0,0,1.08-.827L24.9-.875a2.655,2.655,0,0,1-.567.485,3.791,3.791,0,0,1-.861.424,3.044,3.044,0,0,1-1.019.171A3.472,3.472,0,0,1,20.61-.287a3.545,3.545,0,0,1-1.265-1.306,3.575,3.575,0,0,1-.458-1.784,3.844,3.844,0,0,1,.424-1.791A3.428,3.428,0,0,1,20.48-6.48,3.018,3.018,0,0,1,22.183-6.973Zm0,1.094a1.853,1.853,0,0,0-1.395.567A2.544,2.544,0,0,0,20.1-3.937H24.22a2.213,2.213,0,0,0-.376-1.094,1.984,1.984,0,0,0-.745-.636A2.076,2.076,0,0,0,22.183-5.879Zm8.08-1.094a3.224,3.224,0,0,1,1.3.239,2.843,2.843,0,0,1,.752.431v1.135a4.257,4.257,0,0,0-.875-.5,2.962,2.962,0,0,0-1.176-.212,2.314,2.314,0,0,0-1.271.349,2.354,2.354,0,0,0-.841.916,2.65,2.65,0,0,0-.294,1.237,2.621,2.621,0,0,0,.294,1.224,2.354,2.354,0,0,0,.841.916,2.314,2.314,0,0,0,1.271.349A2.962,2.962,0,0,0,31.438-1.1a4.257,4.257,0,0,0,.875-.5V-.465a2.492,2.492,0,0,1-.752.438,3.307,3.307,0,0,1-1.3.232,3.472,3.472,0,0,1-1.846-.492,3.545,3.545,0,0,1-1.265-1.306,3.575,3.575,0,0,1-.458-1.784,3.612,3.612,0,0,1,.458-1.791A3.529,3.529,0,0,1,28.417-6.48,3.472,3.472,0,0,1,30.263-6.973Zm9.939.137L37.03-3.855,40.38,0H38.958L36.251-3.117l-.971.9V0H34.159V-9.844H35.28V-3.5l3.4-3.336Zm3.814-.137a3.236,3.236,0,0,1,1.75.438,2.731,2.731,0,0,1,1.046,1.189,3.984,3.984,0,0,1,.349,1.7v.67h-5.25a2.55,2.55,0,0,0,.4,1.053,2.3,2.3,0,0,0,.82.759,2.358,2.358,0,0,0,1.162.28,2.688,2.688,0,0,0,1.381-.376,5.032,5.032,0,0,0,1.08-.827L46.737-.875a2.655,2.655,0,0,1-.567.485,3.791,3.791,0,0,1-.861.424A3.044,3.044,0,0,1,44.29.205a3.472,3.472,0,0,1-1.846-.492A3.545,3.545,0,0,1,41.18-1.593a3.575,3.575,0,0,1-.458-1.784,3.844,3.844,0,0,1,.424-1.791A3.428,3.428,0,0,1,42.314-6.48,3.018,3.018,0,0,1,44.017-6.973Zm0,1.094a1.853,1.853,0,0,0-1.395.567,2.544,2.544,0,0,0-.684,1.374h4.115a2.213,2.213,0,0,0-.376-1.094,1.984,1.984,0,0,0-.745-.636A2.076,2.076,0,0,0,44.017-5.879Zm6.111-.957v1.367a3.513,3.513,0,0,1,.957-1.094,1.926,1.926,0,0,1,1.148-.41,1.766,1.766,0,0,1,.711.137v1.3a1.7,1.7,0,0,0-.875-.26,1.427,1.427,0,0,0-1.128.492,6.9,6.9,0,0,0-.813,1.176V0H49.007V-6.836ZM-46.587,7.84-42.308,17h-1.477l-.957-2.187h-4.293L-50,17h-1.477L-47.2,7.84Zm-.287,2.078-1.654,3.732h3.281Zm11.457.246v4.047A3.04,3.04,0,0,1-35.8,15.77a2.639,2.639,0,0,1-1.039,1.012,3.05,3.05,0,0,1-1.477.355,3.05,3.05,0,0,1-1.477-.355,2.639,2.639,0,0,1-1.039-1.012,3.04,3.04,0,0,1-.383-1.559V10.164h1.162v4.047a1.732,1.732,0,0,0,.526,1.36,1.76,1.76,0,0,0,1.21.472,1.76,1.76,0,0,0,1.21-.472,1.732,1.732,0,0,0,.526-1.36V10.164ZM-31.411,8.2v1.969h2v1.053h-2v4.006a.972.972,0,0,0,.219.67.851.851,0,0,0,.67.246,1.964,1.964,0,0,0,.684-.1,2.932,2.932,0,0,0,.479-.226v.916a2.459,2.459,0,0,1-.581.349,2.168,2.168,0,0,1-.827.13,1.629,1.629,0,0,1-1.319-.526,2.1,2.1,0,0,1-.444-1.4V11.217h-1.312v-.328A2.615,2.615,0,0,0-32.724,9.9a7.506,7.506,0,0,0,.793-1.7Zm7.383,1.832a2.649,2.649,0,0,1,1.271.308,2.252,2.252,0,0,1,.916.93A3.222,3.222,0,0,1-21.5,12.83V17H-22.62l-.014-4.061a2.057,2.057,0,0,0-.39-1.354,1.473,1.473,0,0,0-1.2-.465,1.808,1.808,0,0,0-1.087.4,4.868,4.868,0,0,0-.95.937V17h-1.121V7.156h1.121v4.088a3.8,3.8,0,0,1,.561-.554,3.367,3.367,0,0,1,.772-.472A2.182,2.182,0,0,1-24.028,10.027Zm7.465,0a3.236,3.236,0,0,1,1.75.438,2.731,2.731,0,0,1,1.046,1.189,3.984,3.984,0,0,1,.349,1.7v.67h-5.25a2.55,2.55,0,0,0,.4,1.053,2.3,2.3,0,0,0,.82.759,2.358,2.358,0,0,0,1.162.28,2.688,2.688,0,0,0,1.381-.376,5.032,5.032,0,0,0,1.08-.827l-.014,1.217a2.655,2.655,0,0,1-.567.485,3.791,3.791,0,0,1-.861.424,3.044,3.044,0,0,1-1.019.171,3.472,3.472,0,0,1-1.846-.492A3.545,3.545,0,0,1-19.4,15.407a3.575,3.575,0,0,1-.458-1.784,3.844,3.844,0,0,1,.424-1.791,3.428,3.428,0,0,1,1.169-1.312A3.018,3.018,0,0,1-16.563,10.027Zm0,1.094a1.853,1.853,0,0,0-1.395.567,2.544,2.544,0,0,0-.684,1.374h4.115a2.213,2.213,0,0,0-.376-1.094,1.984,1.984,0,0,0-.745-.636A2.076,2.076,0,0,0-16.563,11.121Zm6.111-.957v1.08a3.8,3.8,0,0,1,.561-.554,3.367,3.367,0,0,1,.772-.472,2.182,2.182,0,0,1,.9-.191,2.649,2.649,0,0,1,1.271.308,2.252,2.252,0,0,1,.916.93,3.222,3.222,0,0,1,.342,1.565V17H-6.815l-.014-4.061a2.057,2.057,0,0,0-.39-1.354,1.473,1.473,0,0,0-1.2-.465,1.808,1.808,0,0,0-1.087.4,4.868,4.868,0,0,0-.95.937V17h-1.121V10.164ZM-1.688,8.2v1.969h2v1.053h-2v4.006a.972.972,0,0,0,.219.67.851.851,0,0,0,.67.246,1.964,1.964,0,0,0,.684-.1,2.932,2.932,0,0,0,.479-.226v.916a2.459,2.459,0,0,1-.581.349,2.168,2.168,0,0,1-.827.13,1.629,1.629,0,0,1-1.319-.526,2.1,2.1,0,0,1-.444-1.4V11.217H-4.122v-.328A2.615,2.615,0,0,0-3,9.9a7.506,7.506,0,0,0,.793-1.7ZM3.438,6.883a.878.878,0,0,1,.663.28.916.916,0,0,1,0,1.292.868.868,0,0,1-.663.287.868.868,0,0,1-.663-.287.916.916,0,0,1,0-1.292A.878.878,0,0,1,3.438,6.883Zm.7,3.281V17H3.015V11.217H1.935V10.164Zm5.51-.137a3.224,3.224,0,0,1,1.3.239,2.843,2.843,0,0,1,.752.431v1.135a4.257,4.257,0,0,0-.875-.5,2.962,2.962,0,0,0-1.176-.212,2.314,2.314,0,0,0-1.271.349,2.354,2.354,0,0,0-.841.916,2.65,2.65,0,0,0-.294,1.237,2.621,2.621,0,0,0,.294,1.224,2.354,2.354,0,0,0,.841.916,2.314,2.314,0,0,0,1.271.349,2.962,2.962,0,0,0,1.176-.212,4.257,4.257,0,0,0,.875-.5v1.135a2.492,2.492,0,0,1-.752.438,3.307,3.307,0,0,1-1.3.232A3.472,3.472,0,0,1,7.8,16.713a3.571,3.571,0,0,1-1.723-3.09,3.612,3.612,0,0,1,.458-1.791A3.529,3.529,0,0,1,7.8,10.52,3.472,3.472,0,0,1,9.646,10.027Zm6.713,0a2.845,2.845,0,0,1,1.2.28,3.142,3.142,0,0,1,1.046.772v-.916h1.121V17H18.6V15.838a3.383,3.383,0,0,1-.964.957,2.425,2.425,0,0,1-1.388.41,3,3,0,0,1-1.6-.444,3.22,3.22,0,0,1-1.155-1.237,3.778,3.778,0,0,1-.431-1.832,4.154,4.154,0,0,1,.431-1.955,3.111,3.111,0,0,1,1.183-1.265A3.243,3.243,0,0,1,16.358,10.027Zm.205,1.094a2.115,2.115,0,0,0-1.258.369,2.454,2.454,0,0,0-.8.95,2.842,2.842,0,0,0-.28,1.251A2.7,2.7,0,0,0,14.5,14.9a2.2,2.2,0,0,0,.772.882,2.055,2.055,0,0,0,1.155.328,1.975,1.975,0,0,0,1.121-.328,2.277,2.277,0,0,0,.779-.909,2.786,2.786,0,0,0,.273-1.306l-.014-1.312a3.6,3.6,0,0,0-.909-.834A2.071,2.071,0,0,0,16.563,11.121ZM23.933,8.2v1.969h2v1.053h-2v4.006a.972.972,0,0,0,.219.67.851.851,0,0,0,.67.246,1.964,1.964,0,0,0,.684-.1,2.932,2.932,0,0,0,.479-.226v.916a2.459,2.459,0,0,1-.581.349,2.168,2.168,0,0,1-.827.13,1.629,1.629,0,0,1-1.319-.526,2.1,2.1,0,0,1-.444-1.4V11.217H21.5v-.328A2.615,2.615,0,0,0,22.62,9.9a7.506,7.506,0,0,0,.793-1.7ZM29.06,6.883a.878.878,0,0,1,.663.28.916.916,0,0,1,0,1.292.909.909,0,0,1-1.326,0,.916.916,0,0,1,0-1.292A.878.878,0,0,1,29.06,6.883Zm.7,3.281V17H28.636V11.217h-1.08V10.164Zm5.51-.137a3.472,3.472,0,0,1,1.846.492,3.529,3.529,0,0,1,1.265,1.313,3.612,3.612,0,0,1,.458,1.791,3.571,3.571,0,0,1-1.723,3.09,3.707,3.707,0,0,1-3.691,0,3.571,3.571,0,0,1-1.723-3.09,3.612,3.612,0,0,1,.458-1.791,3.529,3.529,0,0,1,1.265-1.312A3.472,3.472,0,0,1,35.267,10.027Zm0,1.094A2.314,2.314,0,0,0,34,11.47a2.354,2.354,0,0,0-.841.916,2.65,2.65,0,0,0-.294,1.237,2.621,2.621,0,0,0,.294,1.224,2.354,2.354,0,0,0,.841.916,2.505,2.505,0,0,0,2.55,0,2.372,2.372,0,0,0,.834-.916,2.621,2.621,0,0,0,.294-1.224,2.65,2.65,0,0,0-.294-1.237,2.372,2.372,0,0,0-.834-.916A2.3,2.3,0,0,0,35.267,11.121Zm6.535-.957v1.08a3.8,3.8,0,0,1,.561-.554,3.367,3.367,0,0,1,.772-.472,2.182,2.182,0,0,1,.9-.191,2.649,2.649,0,0,1,1.271.308,2.252,2.252,0,0,1,.916.93,3.222,3.222,0,0,1,.342,1.565V17H45.438l-.014-4.061a2.057,2.057,0,0,0-.39-1.354,1.473,1.473,0,0,0-1.2-.465,1.808,1.808,0,0,0-1.087.4,4.868,4.868,0,0,0-.95.937V17H40.681V10.164Z" transform="translate(818 1366)" fill="#fff"/>
    </g>
    <path id="Union_14" data-name="Union 14" d="M3,42.242V3.683H0l4-7,4,7H5V42.242Z" transform="translate(167 238.241) rotate(180)" fill="#7d0eff"/>
    <path id="Path_2245" data-name="Path 2245" d="M2582.023-1687.976h20.02v-78h20.729" transform="translate(-1524.976 -2218.531) rotate(90)" fill="none" stroke="#7d0eff" stroke-linejoin="round" stroke-width="2"/>
    <path id="Polygon_18" data-name="Polygon 18" d="M4,0,8,7H0Z" transform="translate(159 360)" fill="#7d0eff"/>
    <path id="Path_2301" data-name="Path 2301" d="M2.913-2h20.65V80H44.292" transform="translate(161 360) rotate(90)" fill="none" stroke="#7d0eff" stroke-linejoin="round" stroke-width="2"/>
    <g id="Group_2242" data-name="Group 2242" transform="translate(-499 -1067)">
      <rect id="Rectangle_2897-3" data-name="Rectangle 2897" width="90" height="61" rx="10" transform="translate(753 1339)" fill="#17243f"/>
      <path id="Path_2302" data-name="Path 2302" d="M-18.58-9.16a3.351,3.351,0,0,1,1.518.362,3.163,3.163,0,0,1,1.2,1.039,2.762,2.762,0,0,1,.472,1.62,2.651,2.651,0,0,1-.451,1.49,3.329,3.329,0,0,1-1.224,1.1,3.553,3.553,0,0,1-1.716.417,5.328,5.328,0,0,1-1.278-.144A5.357,5.357,0,0,1-21-3.582V0h-1.23V-9.16ZM-21-8V-4.7a6.037,6.037,0,0,0,.964.28,5.654,5.654,0,0,0,1.21.13,2.238,2.238,0,0,0,1.606-.54,1.737,1.737,0,0,0,.567-1.306,1.569,1.569,0,0,0-.321-1,2.115,2.115,0,0,0-.841-.636A2.75,2.75,0,0,0-18.922-8Zm10.268,1.025a2.845,2.845,0,0,1,1.2.28A3.142,3.142,0,0,1-8.49-5.92v-.916h1.121V0H-8.49V-1.162a3.383,3.383,0,0,1-.964.957,2.425,2.425,0,0,1-1.388.41,3,3,0,0,1-1.6-.444A3.22,3.22,0,0,1-13.6-1.477a3.778,3.778,0,0,1-.431-1.832A4.154,4.154,0,0,1-13.6-5.264a3.111,3.111,0,0,1,1.183-1.265A3.243,3.243,0,0,1-10.732-6.973Zm.205,1.094a2.115,2.115,0,0,0-1.258.369,2.454,2.454,0,0,0-.8.95,2.842,2.842,0,0,0-.28,1.251,2.7,2.7,0,0,0,.273,1.21,2.2,2.2,0,0,0,.772.882,2.055,2.055,0,0,0,1.155.328,1.975,1.975,0,0,0,1.121-.328,2.277,2.277,0,0,0,.779-.909A2.786,2.786,0,0,0-8.49-3.432L-8.5-4.744a3.6,3.6,0,0,0-.909-.834A2.071,2.071,0,0,0-10.527-5.879Zm5.865-.957L-2.27-1.8.055-6.836h1.34L-3.637,3.281h-1.3L-2.98-.41-6-6.836ZM5.852-6.973A3.472,3.472,0,0,1,7.7-6.48,3.529,3.529,0,0,1,8.962-5.168,3.612,3.612,0,0,1,9.42-3.377a3.575,3.575,0,0,1-.458,1.784A3.545,3.545,0,0,1,7.7-.287,3.472,3.472,0,0,1,5.852.205,3.472,3.472,0,0,1,4.006-.287,3.545,3.545,0,0,1,2.741-1.593a3.575,3.575,0,0,1-.458-1.784,3.612,3.612,0,0,1,.458-1.791A3.529,3.529,0,0,1,4.006-6.48,3.472,3.472,0,0,1,5.852-6.973Zm0,1.094A2.314,2.314,0,0,0,4.58-5.53a2.354,2.354,0,0,0-.841.916,2.65,2.65,0,0,0-.294,1.237,2.621,2.621,0,0,0,.294,1.224,2.354,2.354,0,0,0,.841.916,2.314,2.314,0,0,0,1.271.349A2.3,2.3,0,0,0,7.13-1.237a2.372,2.372,0,0,0,.834-.916,2.621,2.621,0,0,0,.294-1.224,2.65,2.65,0,0,0-.294-1.237A2.372,2.372,0,0,0,7.13-5.53,2.3,2.3,0,0,0,5.852-5.879Zm11.006-.957v4.047a3.04,3.04,0,0,1-.383,1.559A2.639,2.639,0,0,1,15.436-.219a3.05,3.05,0,0,1-1.477.355,3.05,3.05,0,0,1-1.477-.355A2.639,2.639,0,0,1,11.443-1.23a3.04,3.04,0,0,1-.383-1.559V-6.836h1.162v4.047a1.732,1.732,0,0,0,.526,1.36,1.76,1.76,0,0,0,1.21.472,1.76,1.76,0,0,0,1.21-.472,1.732,1.732,0,0,0,.526-1.36V-6.836ZM20.863-8.8v1.969h2v1.053h-2v4.006a.972.972,0,0,0,.219.67.851.851,0,0,0,.67.246,1.964,1.964,0,0,0,.684-.1,2.932,2.932,0,0,0,.479-.226v.916a2.459,2.459,0,0,1-.581.349,2.168,2.168,0,0,1-.827.13,1.629,1.629,0,0,1-1.319-.526,2.1,2.1,0,0,1-.444-1.4V-5.783H18.43v-.328A2.615,2.615,0,0,0,19.551-7.1a7.506,7.506,0,0,0,.793-1.7Zm-43.08,26.643V19h-4.32V17.838h1.545V11h-1.545V9.84h4.32V11h-1.545v6.836Zm3.787-5.674v1.08a3.8,3.8,0,0,1,.561-.554,3.367,3.367,0,0,1,.772-.472,2.182,2.182,0,0,1,.9-.191,2.649,2.649,0,0,1,1.271.308,2.252,2.252,0,0,1,.916.93,3.222,3.222,0,0,1,.342,1.565V19h-1.121l-.014-4.061a2.057,2.057,0,0,0-.39-1.354,1.473,1.473,0,0,0-1.2-.465,1.808,1.808,0,0,0-1.087.4,4.868,4.868,0,0,0-.95.937V19h-1.121V12.164Zm12.906,0L-8.736,19h-.7l-3.076-6.836h1.34L-9.105,17.2l2.242-5.031Zm4.457-.137a3.472,3.472,0,0,1,1.846.492,3.529,3.529,0,0,1,1.265,1.313A3.612,3.612,0,0,1,2.5,15.623a3.575,3.575,0,0,1-.458,1.784A3.545,3.545,0,0,1,.779,18.713a3.472,3.472,0,0,1-1.846.492,3.472,3.472,0,0,1-1.846-.492,3.545,3.545,0,0,1-1.265-1.306,3.575,3.575,0,0,1-.458-1.784,3.612,3.612,0,0,1,.458-1.791A3.529,3.529,0,0,1-2.912,12.52,3.472,3.472,0,0,1-1.066,12.027Zm0,1.094a2.314,2.314,0,0,0-1.271.349,2.354,2.354,0,0,0-.841.916,2.65,2.65,0,0,0-.294,1.237,2.621,2.621,0,0,0,.294,1.224,2.354,2.354,0,0,0,.841.916,2.314,2.314,0,0,0,1.271.349,2.3,2.3,0,0,0,1.278-.349,2.372,2.372,0,0,0,.834-.916,2.621,2.621,0,0,0,.294-1.224,2.65,2.65,0,0,0-.294-1.237,2.372,2.372,0,0,0-.834-.916A2.3,2.3,0,0,0-1.066,13.121ZM5.441,8.883a.878.878,0,0,1,.663.28.916.916,0,0,1,0,1.292.909.909,0,0,1-1.326,0,.916.916,0,0,1,0-1.292A.878.878,0,0,1,5.441,8.883Zm.7,3.281V19H5.018V13.217H3.938V12.164Zm5.51-.137a3.224,3.224,0,0,1,1.3.239,2.843,2.843,0,0,1,.752.431v1.135a4.257,4.257,0,0,0-.875-.5,2.962,2.962,0,0,0-1.176-.212,2.314,2.314,0,0,0-1.271.349,2.354,2.354,0,0,0-.841.916,2.65,2.65,0,0,0-.294,1.237,2.621,2.621,0,0,0,.294,1.224,2.354,2.354,0,0,0,.841.916,2.314,2.314,0,0,0,1.271.349,2.962,2.962,0,0,0,1.176-.212,4.257,4.257,0,0,0,.875-.5v1.135a2.492,2.492,0,0,1-.752.438,3.307,3.307,0,0,1-1.3.232A3.472,3.472,0,0,1,9.8,18.713a3.571,3.571,0,0,1-1.723-3.09,3.612,3.612,0,0,1,.458-1.791A3.529,3.529,0,0,1,9.8,12.52,3.472,3.472,0,0,1,11.648,12.027Zm6.713,0a3.236,3.236,0,0,1,1.75.438,2.731,2.731,0,0,1,1.046,1.189,3.984,3.984,0,0,1,.349,1.7v.67h-5.25a2.55,2.55,0,0,0,.4,1.053,2.3,2.3,0,0,0,.82.759,2.358,2.358,0,0,0,1.162.28,2.688,2.688,0,0,0,1.381-.376,5.032,5.032,0,0,0,1.08-.827l-.014,1.217a2.655,2.655,0,0,1-.567.485,3.791,3.791,0,0,1-.861.424,3.044,3.044,0,0,1-1.019.171,3.472,3.472,0,0,1-1.846-.492,3.571,3.571,0,0,1-1.723-3.09,3.844,3.844,0,0,1,.424-1.791,3.428,3.428,0,0,1,1.169-1.312A3.018,3.018,0,0,1,18.361,12.027Zm0,1.094a1.853,1.853,0,0,0-1.395.567,2.544,2.544,0,0,0-.684,1.374H20.4a2.213,2.213,0,0,0-.376-1.094,1.984,1.984,0,0,0-.745-.636A2.076,2.076,0,0,0,18.361,13.121Zm7.027-1.094a3.567,3.567,0,0,1,1.121.171,2.657,2.657,0,0,1,.752.349v1.2a3.557,3.557,0,0,0-.779-.424,2.607,2.607,0,0,0-1.012-.205,1.365,1.365,0,0,0-.964.3.867.867,0,0,0-.321.629.923.923,0,0,0,.185.526,1.278,1.278,0,0,0,.649.431l1.148.41a2.038,2.038,0,0,1,1,.67,1.661,1.661,0,0,1,.328,1.025,1.849,1.849,0,0,1-.321,1.053,2.236,2.236,0,0,1-.889.759,2.911,2.911,0,0,1-1.306.28,3.57,3.57,0,0,1-.827-.1,4.973,4.973,0,0,1-.772-.246,3.2,3.2,0,0,1-.506-.253V17.4a3.958,3.958,0,0,0,.54.308,4.68,4.68,0,0,0,.745.287,2.635,2.635,0,0,0,.738.116,1.639,1.639,0,0,0,1.019-.287.865.865,0,0,0,.376-.711.617.617,0,0,0-.253-.52,2.921,2.921,0,0,0-.731-.369l-1.012-.369a1.94,1.94,0,0,1-1.053-.759,2.083,2.083,0,0,1-.26-1.046,1.843,1.843,0,0,1,.656-1.449A2.563,2.563,0,0,1,25.389,12.027Z" transform="translate(798 1365)" fill="#fff"/>
    </g>
    <path id="Union_12" data-name="Union 12" d="M2,48H5V23.569H7V48h3L6,55Z" transform="translate(199.324 308.5) rotate(-90)" fill="#7d0eff"/>
    <path id="Path_2315" data-name="Path 2315" d="M-31.992-5.312a1.894,1.894,0,0,1,.762.133A3.664,3.664,0,0,1-30.7-4.9v.727a2.948,2.948,0,0,0-.531-.309,1.6,1.6,0,0,0-.68-.145,1.586,1.586,0,0,0-.488.082,1,1,0,0,0-.426.262A.64.64,0,0,0-33-3.82a.552.552,0,0,0,.227.477,3.3,3.3,0,0,0,.547.313l.719.328a2.471,2.471,0,0,1,.813.539,1.119,1.119,0,0,1,.273.789,1.2,1.2,0,0,1-.25.754,1.723,1.723,0,0,1-.656.512,2.1,2.1,0,0,1-.891.188,2.191,2.191,0,0,1-.836-.156,3.443,3.443,0,0,1-.664-.352v-.727a3.929,3.929,0,0,0,.7.379,2.264,2.264,0,0,0,.895.168,1.222,1.222,0,0,0,.688-.2.612.612,0,0,0,.3-.539.5.5,0,0,0-.121-.336,1.164,1.164,0,0,0-.293-.242,2.935,2.935,0,0,0-.336-.172l-.867-.391a1.634,1.634,0,0,1-.766-.586,1.465,1.465,0,0,1-.2-.773,1.249,1.249,0,0,1,.238-.746,1.673,1.673,0,0,1,.637-.527A1.926,1.926,0,0,1-31.992-5.312Zm2.844,1.406,1.367,2.875,1.328-2.875h.766l-2.875,5.781H-29.3l1.117-2.109-1.727-3.672Zm4.883,0v.617a2.172,2.172,0,0,1,.32-.316,1.924,1.924,0,0,1,.441-.27,1.247,1.247,0,0,1,.512-.109,1.514,1.514,0,0,1,.727.176,1.287,1.287,0,0,1,.523.531,1.841,1.841,0,0,1,.2.895V0h-.641L-22.2-2.32a1.176,1.176,0,0,0-.223-.773.842.842,0,0,0-.684-.266,1.033,1.033,0,0,0-.621.23,2.782,2.782,0,0,0-.543.535V0h-.641V-3.906Zm5.7-.078a1.842,1.842,0,0,1,.742.137,1.624,1.624,0,0,1,.43.246v.648a2.432,2.432,0,0,0-.5-.285,1.692,1.692,0,0,0-.672-.121,1.322,1.322,0,0,0-.727.2,1.345,1.345,0,0,0-.48.523,1.514,1.514,0,0,0-.168.707,1.5,1.5,0,0,0,.168.7,1.345,1.345,0,0,0,.48.523,1.322,1.322,0,0,0,.727.2A1.692,1.692,0,0,0-17.9-.629a2.432,2.432,0,0,0,.5-.285v.648a1.424,1.424,0,0,1-.43.25,1.89,1.89,0,0,1-.742.133,1.984,1.984,0,0,1-1.055-.281,2.026,2.026,0,0,1-.723-.746,2.043,2.043,0,0,1-.262-1.02,2.064,2.064,0,0,1,.262-1.023,2.017,2.017,0,0,1,.723-.75A1.984,1.984,0,0,1-18.57-3.984Zm9.7.078L-10.242,0h-.4l-1.07-2.758L-12.781,0h-.4l-1.367-3.906h.766l.867,2.742,1.023-2.742h.359l1.023,2.742.867-2.742Zm1.406-1.875a.5.5,0,0,1,.379.16.522.522,0,0,1,.152.371.527.527,0,0,1-.152.367.5.5,0,0,1-.379.164.5.5,0,0,1-.379-.164A.527.527,0,0,1-8-5.25a.522.522,0,0,1,.152-.371A.5.5,0,0,1-7.469-5.781Zm.4,1.875V0h-.641V-3.3h-.617v-.6Zm2.461-1.125v1.125h1.141v.6H-4.609v2.289a.556.556,0,0,0,.125.383A.486.486,0,0,0-4.1-.492a1.122,1.122,0,0,0,.391-.059A1.676,1.676,0,0,0-3.437-.68v.523a1.405,1.405,0,0,1-.332.2,1.239,1.239,0,0,1-.473.074A.931.931,0,0,1-5-.184a1.2,1.2,0,0,1-.254-.8V-3.3H-6v-.187a1.5,1.5,0,0,0,.641-.566,4.289,4.289,0,0,0,.453-.973ZM-.391-3.984a1.514,1.514,0,0,1,.727.176,1.287,1.287,0,0,1,.523.531,1.841,1.841,0,0,1,.2.895V0H.414L.406-2.32a1.176,1.176,0,0,0-.223-.773A.842.842,0,0,0-.5-3.359a1.033,1.033,0,0,0-.621.23,2.782,2.782,0,0,0-.543.535V0H-2.3V-5.625h.641v2.336a2.172,2.172,0,0,1,.32-.316A1.924,1.924,0,0,1-.9-3.875,1.247,1.247,0,0,1-.391-3.984Zm6.984,0a1.75,1.75,0,0,1,.918.246,1.813,1.813,0,0,1,.656.688,2.092,2.092,0,0,1,.246,1.035A2.427,2.427,0,0,1,8.168-.895,1.852,1.852,0,0,1,7.5-.148a1.785,1.785,0,0,1-.965.266,1.481,1.481,0,0,1-.684-.18,2.051,2.051,0,0,1-.6-.461v2.4H4.609V-3.906H5.25v.664A1.726,1.726,0,0,1,5.8-3.77,1.477,1.477,0,0,1,6.594-3.984Zm-.1.625a1.17,1.17,0,0,0-.637.18,1.228,1.228,0,0,0-.445.5,1.614,1.614,0,0,0-.16.738l.008.75a2.652,2.652,0,0,0,.523.5,1.076,1.076,0,0,0,.633.191,1.178,1.178,0,0,0,.719-.219,1.437,1.437,0,0,0,.457-.566,1.708,1.708,0,0,0,.16-.723A1.461,1.461,0,0,0,7.594-2.7a1.235,1.235,0,0,0-.437-.48A1.207,1.207,0,0,0,6.492-3.359Zm4.586-.625a1.626,1.626,0,0,1,.684.16,1.8,1.8,0,0,1,.6.441v-.523H13V0h-.641V-.664a1.933,1.933,0,0,1-.551.547,1.385,1.385,0,0,1-.793.234A1.715,1.715,0,0,1,10.1-.137a1.84,1.84,0,0,1-.66-.707A2.159,2.159,0,0,1,9.2-1.891a2.374,2.374,0,0,1,.246-1.117,1.778,1.778,0,0,1,.676-.723A1.853,1.853,0,0,1,11.078-3.984Zm.117.625a1.209,1.209,0,0,0-.719.211,1.4,1.4,0,0,0-.457.543,1.624,1.624,0,0,0-.16.715,1.54,1.54,0,0,0,.156.691,1.256,1.256,0,0,0,.441.5,1.174,1.174,0,0,0,.66.188A1.128,1.128,0,0,0,11.758-.7a1.3,1.3,0,0,0,.445-.52,1.592,1.592,0,0,0,.156-.746l-.008-.75a2.054,2.054,0,0,0-.52-.477A1.184,1.184,0,0,0,11.2-3.359Zm3.352-.547,1.367,2.875,1.328-2.875h.766L15.133,1.875h-.742L15.508-.234,13.781-3.906Zm6.008-.078a1.984,1.984,0,0,1,1.055.281,2.017,2.017,0,0,1,.723.75,2.064,2.064,0,0,1,.262,1.023,2.043,2.043,0,0,1-.262,1.02,2.026,2.026,0,0,1-.723.746,1.984,1.984,0,0,1-1.055.281A1.984,1.984,0,0,1,19.5-.164a2.026,2.026,0,0,1-.723-.746,2.043,2.043,0,0,1-.262-1.02,2.064,2.064,0,0,1,.262-1.023A2.017,2.017,0,0,1,19.5-3.7,1.984,1.984,0,0,1,20.555-3.984Zm0,.625a1.322,1.322,0,0,0-.727.2,1.345,1.345,0,0,0-.48.523,1.514,1.514,0,0,0-.168.707,1.5,1.5,0,0,0,.168.7,1.345,1.345,0,0,0,.48.523,1.322,1.322,0,0,0,.727.2,1.317,1.317,0,0,0,.73-.2,1.355,1.355,0,0,0,.477-.523,1.5,1.5,0,0,0,.168-.7,1.514,1.514,0,0,0-.168-.707,1.355,1.355,0,0,0-.477-.523A1.317,1.317,0,0,0,20.555-3.359Zm6.289-.547v2.313a1.737,1.737,0,0,1-.219.891,1.508,1.508,0,0,1-.594.578,1.743,1.743,0,0,1-.844.2,1.743,1.743,0,0,1-.844-.2A1.508,1.508,0,0,1,23.75-.7a1.737,1.737,0,0,1-.219-.891V-3.906H24.2v2.313a.99.99,0,0,0,.3.777,1.006,1.006,0,0,0,.691.27,1.006,1.006,0,0,0,.691-.27.99.99,0,0,0,.3-.777V-3.906Zm2.289-1.125v1.125h1.141v.6H29.133v2.289a.556.556,0,0,0,.125.383.486.486,0,0,0,.383.141,1.122,1.122,0,0,0,.391-.059A1.676,1.676,0,0,0,30.3-.68v.523a1.405,1.405,0,0,1-.332.2A1.239,1.239,0,0,1,29.5.117a.931.931,0,0,1-.754-.3,1.2,1.2,0,0,1-.254-.8V-3.3h-.75v-.187a1.5,1.5,0,0,0,.641-.566,4.289,4.289,0,0,0,.453-.973ZM32.6-3.984a2.038,2.038,0,0,1,.641.1,1.518,1.518,0,0,1,.43.2V-3a2.033,2.033,0,0,0-.445-.242,1.49,1.49,0,0,0-.578-.117.78.78,0,0,0-.551.172.5.5,0,0,0-.184.359.528.528,0,0,0,.105.3.73.73,0,0,0,.371.246l.656.234a1.165,1.165,0,0,1,.57.383.949.949,0,0,1,.188.586,1.056,1.056,0,0,1-.184.6,1.278,1.278,0,0,1-.508.434,1.664,1.664,0,0,1-.746.16,2.04,2.04,0,0,1-.473-.059,2.842,2.842,0,0,1-.441-.141,1.828,1.828,0,0,1-.289-.145V-.914a2.262,2.262,0,0,0,.309.176,2.674,2.674,0,0,0,.426.164,1.506,1.506,0,0,0,.422.066A.936.936,0,0,0,32.9-.672a.494.494,0,0,0,.215-.406.353.353,0,0,0-.145-.3,1.669,1.669,0,0,0-.418-.211L31.977-1.8a1.109,1.109,0,0,1-.6-.434,1.19,1.19,0,0,1-.148-.6,1.053,1.053,0,0,1,.375-.828A1.464,1.464,0,0,1,32.6-3.984Z" transform="translate(205 222)" fill="#17243f"/>
    <path id="Path_2316" data-name="Path 2316" d="M-23.09-5.234v.664h-1.8V-.023h-.7V-4.57h-1.8v-.664Zm3.008-.125a2.913,2.913,0,0,1,1.5.359,2.422,2.422,0,0,1,.938.973,2.921,2.921,0,0,1,.324,1.387,2.921,2.921,0,0,1-.324,1.387,2.422,2.422,0,0,1-.937.973,2.913,2.913,0,0,1-1.5.359,8.314,8.314,0,0,1-.992-.055q-.453-.055-.93-.141V-5.164q.477-.086.93-.141A8.314,8.314,0,0,1-20.082-5.359Zm0,.664q-.281,0-.6.02t-.617.059V-.664q.3.031.617.055t.6.023a2.108,2.108,0,0,0,1.09-.27,1.834,1.834,0,0,0,.7-.734,2.211,2.211,0,0,0,.246-1.051,2.211,2.211,0,0,0-.246-1.051,1.834,1.834,0,0,0-.7-.734A2.108,2.108,0,0,0-20.082-4.7Zm5.273-.617a1.894,1.894,0,0,1,.762.133,3.664,3.664,0,0,1,.527.281v.727a2.948,2.948,0,0,0-.531-.309,1.6,1.6,0,0,0-.68-.145,1.586,1.586,0,0,0-.488.082,1,1,0,0,0-.426.262.64.64,0,0,0-.172.461.552.552,0,0,0,.227.477,3.3,3.3,0,0,0,.547.313l.719.328a2.471,2.471,0,0,1,.813.539,1.119,1.119,0,0,1,.273.789,1.2,1.2,0,0,1-.25.754,1.723,1.723,0,0,1-.656.512,2.1,2.1,0,0,1-.891.188,2.191,2.191,0,0,1-.836-.156,3.443,3.443,0,0,1-.664-.352v-.727a3.929,3.929,0,0,0,.7.379,2.264,2.264,0,0,0,.895.168,1.222,1.222,0,0,0,.688-.2.612.612,0,0,0,.3-.539.5.5,0,0,0-.121-.336,1.164,1.164,0,0,0-.293-.242,2.935,2.935,0,0,0-.336-.172l-.867-.391a1.634,1.634,0,0,1-.766-.586,1.465,1.465,0,0,1-.2-.773A1.249,1.249,0,0,1-16.3-4.59a1.673,1.673,0,0,1,.637-.527A1.926,1.926,0,0,1-14.809-5.312Zm6.734,1.328a1.842,1.842,0,0,1,.742.137A1.624,1.624,0,0,1-6.9-3.6v.648a2.432,2.432,0,0,0-.5-.285,1.692,1.692,0,0,0-.672-.121,1.322,1.322,0,0,0-.727.2,1.345,1.345,0,0,0-.48.523,1.514,1.514,0,0,0-.168.707,1.5,1.5,0,0,0,.168.7,1.345,1.345,0,0,0,.48.523,1.322,1.322,0,0,0,.727.2A1.692,1.692,0,0,0-7.4-.629a2.432,2.432,0,0,0,.5-.285v.648a1.424,1.424,0,0,1-.43.25,1.89,1.89,0,0,1-.742.133A1.984,1.984,0,0,1-9.129-.164,2.026,2.026,0,0,1-9.852-.91a2.043,2.043,0,0,1-.262-1.02,2.064,2.064,0,0,1,.262-1.023,2.017,2.017,0,0,1,.723-.75A1.984,1.984,0,0,1-8.074-3.984Zm3.992,0A1.984,1.984,0,0,1-3.027-3.7a2.017,2.017,0,0,1,.723.75A2.064,2.064,0,0,1-2.043-1.93,2.043,2.043,0,0,1-2.3-.91a2.026,2.026,0,0,1-.723.746A1.984,1.984,0,0,1-4.082.117,1.984,1.984,0,0,1-5.137-.164,2.026,2.026,0,0,1-5.859-.91a2.043,2.043,0,0,1-.262-1.02,2.064,2.064,0,0,1,.262-1.023,2.017,2.017,0,0,1,.723-.75A1.984,1.984,0,0,1-4.082-3.984Zm0,.625a1.322,1.322,0,0,0-.727.2,1.345,1.345,0,0,0-.48.523,1.514,1.514,0,0,0-.168.707,1.5,1.5,0,0,0,.168.7,1.345,1.345,0,0,0,.48.523,1.322,1.322,0,0,0,.727.2,1.317,1.317,0,0,0,.73-.2,1.355,1.355,0,0,0,.477-.523,1.5,1.5,0,0,0,.168-.7,1.514,1.514,0,0,0-.168-.707,1.355,1.355,0,0,0-.477-.523A1.317,1.317,0,0,0-4.082-3.359Zm3.734-.547v.5A2.2,2.2,0,0,1,.133-3.8a1.275,1.275,0,0,1,.691-.184,1.629,1.629,0,0,1,.789.2,1.319,1.319,0,0,1,.563.6A3.346,3.346,0,0,1,2.77-3.75a1.236,1.236,0,0,1,.75-.234,1.63,1.63,0,0,1,.746.176,1.377,1.377,0,0,1,.563.531,1.7,1.7,0,0,1,.215.895V0H4.4L4.395-2.32a1.057,1.057,0,0,0-.262-.773.968.968,0,0,0-.723-.266.88.88,0,0,0-.586.211,3.575,3.575,0,0,0-.477.492V0H1.707L1.7-2.32a1.057,1.057,0,0,0-.262-.773.968.968,0,0,0-.723-.266.976.976,0,0,0-.582.188,2.537,2.537,0,0,0-.48.453V0H-.988V-3.906Zm8.586-.078a1.75,1.75,0,0,1,.918.246,1.813,1.813,0,0,1,.656.688,2.092,2.092,0,0,1,.246,1.035A2.427,2.427,0,0,1,9.813-.895a1.852,1.852,0,0,1-.672.746,1.785,1.785,0,0,1-.965.266,1.481,1.481,0,0,1-.684-.18,2.051,2.051,0,0,1-.6-.461v2.4H6.254V-3.906h.641v.664a1.726,1.726,0,0,1,.551-.527A1.477,1.477,0,0,1,8.238-3.984Zm-.1.625a1.17,1.17,0,0,0-.637.18,1.228,1.228,0,0,0-.445.5,1.614,1.614,0,0,0-.16.738L6.9-1.2a2.652,2.652,0,0,0,.523.5,1.076,1.076,0,0,0,.633.191,1.178,1.178,0,0,0,.719-.219,1.437,1.437,0,0,0,.457-.566,1.708,1.708,0,0,0,.16-.723A1.461,1.461,0,0,0,9.238-2.7,1.235,1.235,0,0,0,8.8-3.18,1.207,1.207,0,0,0,8.137-3.359Zm3.617-2.266V0h-.641V-5.625Zm1.953-.156a.5.5,0,0,1,.379.16.522.522,0,0,1,.152.371.527.527,0,0,1-.152.367.5.5,0,0,1-.379.164.5.5,0,0,1-.379-.164.527.527,0,0,1-.152-.367.522.522,0,0,1,.152-.371A.5.5,0,0,1,13.707-5.781Zm.4,1.875V0h-.641V-3.3h-.617v-.6ZM17.1-3.984a1.626,1.626,0,0,1,.684.16,1.8,1.8,0,0,1,.6.441v-.523h.641V0h-.641V-.664a1.933,1.933,0,0,1-.551.547,1.385,1.385,0,0,1-.793.234,1.715,1.715,0,0,1-.914-.254,1.84,1.84,0,0,1-.66-.707,2.159,2.159,0,0,1-.246-1.047,2.374,2.374,0,0,1,.246-1.117,1.778,1.778,0,0,1,.676-.723A1.853,1.853,0,0,1,17.1-3.984Zm.117.625a1.209,1.209,0,0,0-.719.211,1.4,1.4,0,0,0-.457.543,1.624,1.624,0,0,0-.16.715,1.54,1.54,0,0,0,.156.691,1.256,1.256,0,0,0,.441.5,1.174,1.174,0,0,0,.66.188A1.128,1.128,0,0,0,17.777-.7a1.3,1.3,0,0,0,.445-.52,1.592,1.592,0,0,0,.156-.746l-.008-.75a2.054,2.054,0,0,0-.52-.477A1.184,1.184,0,0,0,17.215-3.359Zm3.773-.547v.617a2.172,2.172,0,0,1,.32-.316,1.924,1.924,0,0,1,.441-.27,1.247,1.247,0,0,1,.512-.109,1.514,1.514,0,0,1,.727.176,1.287,1.287,0,0,1,.523.531,1.841,1.841,0,0,1,.2.895V0h-.641l-.008-2.32a1.176,1.176,0,0,0-.223-.773.842.842,0,0,0-.684-.266,1.033,1.033,0,0,0-.621.23,2.782,2.782,0,0,0-.543.535V0h-.641V-3.906ZM26-5.031v1.125h1.141v.6H26v2.289a.556.556,0,0,0,.125.383.486.486,0,0,0,.383.141,1.122,1.122,0,0,0,.391-.059,1.676,1.676,0,0,0,.273-.129v.523a1.405,1.405,0,0,1-.332.2,1.239,1.239,0,0,1-.473.074.931.931,0,0,1-.754-.3,1.2,1.2,0,0,1-.254-.8V-3.3h-.75v-.187a1.5,1.5,0,0,0,.641-.566,4.289,4.289,0,0,0,.453-.973Z" transform="translate(299.402 266)" fill="#17243f"/>
  </g>
</svg>
