<svg xmlns="http://www.w3.org/2000/svg" xmlns:xlink="http://www.w3.org/1999/xlink" width="632" height="426" viewBox="0 0 632 426">
  <defs>
    <linearGradient id="linear-gradient" x1="0.5" x2="0.5" y2="1" gradientUnits="objectBoundingBox">
      <stop offset="0" stop-color="#7d0eff"/>
      <stop offset="1" stop-color="#1eefb0"/>
    </linearGradient>
    <filter id="Rectangle_2618" x="0" y="0" width="632" height="426" filterUnits="userSpaceOnUse">
      <feOffset input="SourceAlpha"/>
      <feGaussianBlur stdDeviation="20" result="blur"/>
      <feFlood flood-opacity="0.255"/>
      <feComposite operator="in" in2="blur"/>
      <feComposite in="SourceGraphic"/>
    </filter>
    <filter id="Rectangle_2617">
      <feOffset input="SourceAlpha"/>
      <feGaussianBlur stdDeviation="5" result="blur-2"/>
      <feFlood result="color"/>
      <feComposite operator="out" in="SourceGraphic" in2="blur-2"/>
      <feComposite operator="in" in="color"/>
      <feComposite operator="in" in2="SourceGraphic"/>
    </filter>
  </defs>
  <g id="Group_2387" data-name="Group 2387" transform="translate(-12299 -400)">
    <rect id="Rectangle_2958" data-name="Rectangle 2958" width="600" height="346" transform="translate(12315 440)" fill="none"/>
    <g id="Group_2370" data-name="Group 2370" transform="translate(11678 -2766)">
      <g id="Group_2255" data-name="Group 2255" transform="translate(581 426)">
        <g transform="matrix(1, 0, 0, 1, 40, 2740)" filter="url(#Rectangle_2618)">
          <rect id="Rectangle_2618-2" data-name="Rectangle 2618" width="512" height="306" rx="20" transform="translate(60 60)" fill="url(#linear-gradient)"/>
        </g>
        <g data-type="innerShadowGroup">
          <rect id="Rectangle_2617-2" data-name="Rectangle 2617" width="506" height="300" rx="20" transform="translate(103 2803)" fill="#17243f"/>
          <g transform="matrix(1, 0, 0, 1, 40, 2740)" filter="url(#Rectangle_2617)">
            <rect id="Rectangle_2617-3" data-name="Rectangle 2617" width="506" height="300" rx="20" transform="translate(63 63)" fill="#fff"/>
          </g>
        </g>
      </g>
      <g id="Group_2256" data-name="Group 2256" transform="translate(582 418)">
        <path id="Path_2286" data-name="Path 2286" d="M1.184,0V-11.2H2.528L8.5-2.224V-11.2H9.84V0H8.5L2.528-8.976V0ZM14.768.192A3.6,3.6,0,0,1,13.12-.144a2.284,2.284,0,0,1-.976-.9,2.409,2.409,0,0,1-.32-1.216,2.155,2.155,0,0,1,.928-1.872,4.309,4.309,0,0,1,2.528-.656h2.144v-.1a2.118,2.118,0,0,0-.544-1.576,1.984,1.984,0,0,0-1.456-.536,2.321,2.321,0,0,0-1.352.392,1.717,1.717,0,0,0-.712,1.144H11.984a2.547,2.547,0,0,1,.584-1.456,3.264,3.264,0,0,1,1.256-.9,4.133,4.133,0,0,1,1.6-.312,3.288,3.288,0,0,1,2.5.888,3.293,3.293,0,0,1,.84,2.36V0h-1.2l-.08-1.424A3.148,3.148,0,0,1,16.5-.28,2.887,2.887,0,0,1,14.768.192Zm.208-1.136a2.189,2.189,0,0,0,1.32-.4,2.553,2.553,0,0,0,.84-1.04,3.239,3.239,0,0,0,.288-1.344v-.016H15.392a2.638,2.638,0,0,0-1.672.408,1.272,1.272,0,0,0-.488,1.016,1.231,1.231,0,0,0,.456,1A1.972,1.972,0,0,0,14.976-.944ZM20.784,0V-7.936H22l.1,1.152a2.688,2.688,0,0,1,1.024-.992,2.938,2.938,0,0,1,1.44-.352,3.251,3.251,0,0,1,1.624.384,2.526,2.526,0,0,1,1.048,1.168,3.038,3.038,0,0,1,1.144-1.136,3.123,3.123,0,0,1,1.576-.416,3.054,3.054,0,0,1,2.272.856,3.606,3.606,0,0,1,.848,2.632V0H31.744V-4.5a2.941,2.941,0,0,0-.5-1.856,1.712,1.712,0,0,0-1.424-.624,2,2,0,0,0-1.592.744,3.184,3.184,0,0,0-.632,2.12V0H26.256V-4.5a2.941,2.941,0,0,0-.5-1.856,1.712,1.712,0,0,0-1.424-.624,1.985,1.985,0,0,0-1.576.744,3.184,3.184,0,0,0-.632,2.12V0ZM38.672.192a3.887,3.887,0,0,1-2.016-.52,3.692,3.692,0,0,1-1.384-1.448,4.526,4.526,0,0,1-.5-2.192,4.6,4.6,0,0,1,.5-2.184,3.606,3.606,0,0,1,1.384-1.456,3.993,3.993,0,0,1,2.056-.52,3.708,3.708,0,0,1,1.992.52A3.523,3.523,0,0,1,41.984-6.24a3.846,3.846,0,0,1,.448,1.824q0,.176-.008.352t-.008.4H36.1a3.118,3.118,0,0,0,.424,1.512,2.506,2.506,0,0,0,.944.9,2.523,2.523,0,0,0,1.208.3,2.4,2.4,0,0,0,1.392-.384,2.2,2.2,0,0,0,.816-1.04h1.328A3.582,3.582,0,0,1,40.984-.536,3.57,3.57,0,0,1,38.672.192Zm0-7.184a2.684,2.684,0,0,0-1.7.584,2.353,2.353,0,0,0-.856,1.7H41.1a2.27,2.27,0,0,0-.736-1.68A2.469,2.469,0,0,0,38.672-6.992Z" transform="translate(143 2870)" fill="#acacac"/>
        <g id="Group_2249" data-name="Group 2249" transform="translate(143 2880)">
          <rect id="Rectangle_2907" data-name="Rectangle 2907" width="200" height="32" rx="5" fill="#293650"/>
          <path id="Path_2287" data-name="Path 2287" d="M1.184,0V-11.2H5.12a4.49,4.49,0,0,1,1.96.376A2.638,2.638,0,0,1,8.24-9.8a2.786,2.786,0,0,1,.384,1.448A2.406,2.406,0,0,1,8.04-6.64a3.073,3.073,0,0,1-1.4.864,2.649,2.649,0,0,1,1.136.5,2.761,2.761,0,0,1,.808.96,2.724,2.724,0,0,1,.3,1.264,2.952,2.952,0,0,1-.416,1.544,2.9,2.9,0,0,1-1.232,1.1A4.4,4.4,0,0,1,5.248,0ZM2.528-6.3h2.5a2.427,2.427,0,0,0,1.648-.5,1.762,1.762,0,0,0,.576-1.4,1.742,1.742,0,0,0-.568-1.36,2.475,2.475,0,0,0-1.7-.512H2.528Zm0,5.184H5.1A2.646,2.646,0,0,0,6.88-1.656a1.866,1.866,0,0,0,.624-1.5,1.9,1.9,0,0,0-.656-1.512,2.621,2.621,0,0,0-1.776-.568H2.528ZM10.736,0V-11.52H12.08v4.944A2.827,2.827,0,0,1,13.216-7.72a3.246,3.246,0,0,1,1.6-.408,2.939,2.939,0,0,1,2.208.856,3.65,3.65,0,0,1,.832,2.632V0H16.528V-4.5q0-2.48-2-2.48a2.3,2.3,0,0,0-1.744.744,2.966,2.966,0,0,0-.7,2.12V0ZM22.528.192A3.6,3.6,0,0,1,20.88-.144a2.284,2.284,0,0,1-.976-.9,2.409,2.409,0,0,1-.32-1.216,2.155,2.155,0,0,1,.928-1.872,4.309,4.309,0,0,1,2.528-.656h2.144v-.1a2.118,2.118,0,0,0-.544-1.576,1.984,1.984,0,0,0-1.456-.536,2.321,2.321,0,0,0-1.352.392,1.717,1.717,0,0,0-.712,1.144H19.744a2.547,2.547,0,0,1,.584-1.456,3.264,3.264,0,0,1,1.256-.9,4.133,4.133,0,0,1,1.6-.312,3.288,3.288,0,0,1,2.5.888,3.293,3.293,0,0,1,.84,2.36V0h-1.2l-.08-1.424A3.148,3.148,0,0,1,24.264-.28,2.887,2.887,0,0,1,22.528.192Zm.208-1.136a2.189,2.189,0,0,0,1.32-.4,2.553,2.553,0,0,0,.84-1.04,3.239,3.239,0,0,0,.288-1.344v-.016H23.152a2.638,2.638,0,0,0-1.672.408,1.272,1.272,0,0,0-.488,1.016,1.231,1.231,0,0,0,.456,1A1.972,1.972,0,0,0,22.736-.944ZM28.544,0V-7.936H29.76l.112,1.52a2.877,2.877,0,0,1,1.12-1.248,3.472,3.472,0,0,1,1.856-.464V-6.72H32.48a3.321,3.321,0,0,0-1.3.248,1.968,1.968,0,0,0-.944.84A3.2,3.2,0,0,0,29.888-4V0Zm8.448.192a3.6,3.6,0,0,1-1.648-.336,2.284,2.284,0,0,1-.976-.9,2.409,2.409,0,0,1-.32-1.216,2.155,2.155,0,0,1,.928-1.872A4.309,4.309,0,0,1,37.5-4.784h2.144v-.1A2.118,2.118,0,0,0,39.1-6.456a1.984,1.984,0,0,0-1.456-.536A2.321,2.321,0,0,0,36.3-6.6a1.717,1.717,0,0,0-.712,1.144H34.208a2.547,2.547,0,0,1,.584-1.456,3.264,3.264,0,0,1,1.256-.9,4.133,4.133,0,0,1,1.6-.312,3.288,3.288,0,0,1,2.5.888,3.293,3.293,0,0,1,.84,2.36V0h-1.2l-.08-1.424A3.148,3.148,0,0,1,38.728-.28,2.887,2.887,0,0,1,36.992.192ZM37.2-.944a2.189,2.189,0,0,0,1.32-.4,2.553,2.553,0,0,0,.84-1.04,3.239,3.239,0,0,0,.288-1.344v-.016H37.616a2.638,2.638,0,0,0-1.672.408,1.272,1.272,0,0,0-.488,1.016,1.231,1.231,0,0,0,.456,1A1.972,1.972,0,0,0,37.2-.944ZM45.92,0a2.568,2.568,0,0,1-1.712-.528,2.4,2.4,0,0,1-.624-1.9V-6.8H42.208V-7.936h1.376l.176-1.9h1.168v1.9h2.336V-6.8H44.928v4.368a1.32,1.32,0,0,0,.3,1.016,1.657,1.657,0,0,0,1.072.264h.832V0ZM58.208.192a5.344,5.344,0,0,1-2.84-.728A4.908,4.908,0,0,1,53.52-2.568,6.663,6.663,0,0,1,52.864-5.6a6.625,6.625,0,0,1,.656-3.016,4.962,4.962,0,0,1,1.848-2.04,5.3,5.3,0,0,1,2.84-.736,5.022,5.022,0,0,1,3.128.92A4.137,4.137,0,0,1,62.88-7.9H61.392a2.985,2.985,0,0,0-1.048-1.672,3.33,3.33,0,0,0-2.136-.632,3.915,3.915,0,0,0-2.1.552,3.627,3.627,0,0,0-1.384,1.584A5.74,5.74,0,0,0,54.24-5.6a5.74,5.74,0,0,0,.488,2.472,3.627,3.627,0,0,0,1.384,1.584,3.915,3.915,0,0,0,2.1.552,3.39,3.39,0,0,0,2.136-.616,2.9,2.9,0,0,0,1.048-1.64H62.88A4.085,4.085,0,0,1,61.336-.72,5.053,5.053,0,0,1,58.208.192ZM64.736,0V-11.52H66.08v4.944A2.827,2.827,0,0,1,67.216-7.72a3.246,3.246,0,0,1,1.6-.408,2.939,2.939,0,0,1,2.208.856,3.65,3.65,0,0,1,.832,2.632V0H70.528V-4.5q0-2.48-2-2.48a2.3,2.3,0,0,0-1.744.744,2.966,2.966,0,0,0-.7,2.12V0ZM76.528.192A3.6,3.6,0,0,1,74.88-.144a2.284,2.284,0,0,1-.976-.9,2.409,2.409,0,0,1-.32-1.216,2.155,2.155,0,0,1,.928-1.872,4.309,4.309,0,0,1,2.528-.656h2.144v-.1a2.118,2.118,0,0,0-.544-1.576,1.984,1.984,0,0,0-1.456-.536,2.321,2.321,0,0,0-1.352.392,1.717,1.717,0,0,0-.712,1.144H73.744a2.547,2.547,0,0,1,.584-1.456,3.264,3.264,0,0,1,1.256-.9,4.133,4.133,0,0,1,1.6-.312,3.288,3.288,0,0,1,2.5.888,3.293,3.293,0,0,1,.84,2.36V0h-1.2l-.08-1.424A3.147,3.147,0,0,1,78.264-.28,2.887,2.887,0,0,1,76.528.192Zm.208-1.136a2.189,2.189,0,0,0,1.32-.4,2.553,2.553,0,0,0,.84-1.04,3.239,3.239,0,0,0,.288-1.344v-.016H77.152a2.638,2.638,0,0,0-1.672.408,1.272,1.272,0,0,0-.488,1.016,1.231,1.231,0,0,0,.456,1A1.972,1.972,0,0,0,76.736-.944ZM85.44.192A2.98,2.98,0,0,1,83.2-.664,3.65,3.65,0,0,1,82.368-3.3v-4.64h1.344v4.5q0,2.48,2.032,2.48a2.229,2.229,0,0,0,1.72-.744,3.032,3.032,0,0,0,.68-2.12V-7.936h1.344V0H88.272l-.1-1.424A2.763,2.763,0,0,1,87.08-.24,3.152,3.152,0,0,1,85.44.192Zm9.856,0a3.887,3.887,0,0,1-2.072-.544A3.7,3.7,0,0,1,91.848-1.84a4.6,4.6,0,0,1-.488-2.144,4.492,4.492,0,0,1,.5-2.136,3.736,3.736,0,0,1,1.376-1.472,3.92,3.92,0,0,1,2.08-.536,3.624,3.624,0,0,1,1.728.4,2.883,2.883,0,0,1,1.168,1.12V-11.52h1.344V0H98.336l-.128-1.312a3.715,3.715,0,0,1-1.1,1.04A3.275,3.275,0,0,1,95.3.192ZM95.44-.976a2.663,2.663,0,0,0,1.416-.376,2.571,2.571,0,0,0,.96-1.048,3.4,3.4,0,0,0,.344-1.568,3.4,3.4,0,0,0-.344-1.568,2.571,2.571,0,0,0-.96-1.048A2.663,2.663,0,0,0,95.44-6.96a2.633,2.633,0,0,0-1.4.376,2.571,2.571,0,0,0-.96,1.048,3.4,3.4,0,0,0-.344,1.568A3.4,3.4,0,0,0,93.08-2.4a2.571,2.571,0,0,0,.96,1.048A2.633,2.633,0,0,0,95.44-.976Zm6.3.976V-11.52h1.344v4.944a2.827,2.827,0,0,1,1.136-1.144,3.246,3.246,0,0,1,1.6-.408,2.939,2.939,0,0,1,2.208.856,3.65,3.65,0,0,1,.832,2.632V0h-1.328V-4.5q0-2.48-2-2.48a2.3,2.3,0,0,0-1.744.744,2.966,2.966,0,0,0-.7,2.12V0Zm11.792.192a3.6,3.6,0,0,1-1.648-.336,2.284,2.284,0,0,1-.976-.9,2.409,2.409,0,0,1-.32-1.216,2.155,2.155,0,0,1,.928-1.872,4.309,4.309,0,0,1,2.528-.656h2.144v-.1a2.118,2.118,0,0,0-.544-1.576,1.984,1.984,0,0,0-1.456-.536,2.321,2.321,0,0,0-1.352.392,1.717,1.717,0,0,0-.712,1.144h-1.376a2.547,2.547,0,0,1,.584-1.456,3.264,3.264,0,0,1,1.256-.9,4.133,4.133,0,0,1,1.6-.312,3.288,3.288,0,0,1,2.5.888,3.293,3.293,0,0,1,.84,2.36V0h-1.2l-.08-1.424a3.147,3.147,0,0,1-.984,1.144A2.887,2.887,0,0,1,113.536.192Zm.208-1.136a2.189,2.189,0,0,0,1.32-.4,2.553,2.553,0,0,0,.84-1.04,3.239,3.239,0,0,0,.288-1.344v-.016H114.16a2.638,2.638,0,0,0-1.672.408A1.272,1.272,0,0,0,112-2.32a1.231,1.231,0,0,0,.456,1A1.972,1.972,0,0,0,113.744-.944ZM119.552,0V-7.936h1.216l.112,1.52A2.877,2.877,0,0,1,122-7.664a3.472,3.472,0,0,1,1.856-.464V-6.72h-.368a3.321,3.321,0,0,0-1.3.248,1.968,1.968,0,0,0-.944.84A3.2,3.2,0,0,0,120.9-4V0Zm6.672,3.52,1.968-4.288h-.464l-3.152-7.168h1.456l2.624,6.176,2.784-6.176h1.392l-5.2,11.456Z" transform="translate(20 21.824)" fill="#fff"/>
        </g>
      </g>
      <g id="Group_2257" data-name="Group 2257" transform="translate(810 418)">
        <path id="Path_2290" data-name="Path 2290" d="M1.184,0V-11.2H5.12a4.49,4.49,0,0,1,1.96.376A2.638,2.638,0,0,1,8.24-9.8a2.786,2.786,0,0,1,.384,1.448A2.406,2.406,0,0,1,8.04-6.64a3.073,3.073,0,0,1-1.4.864,2.649,2.649,0,0,1,1.136.5,2.761,2.761,0,0,1,.808.96,2.724,2.724,0,0,1,.3,1.264,2.952,2.952,0,0,1-.416,1.544,2.9,2.9,0,0,1-1.232,1.1A4.4,4.4,0,0,1,5.248,0ZM2.528-6.3h2.5a2.427,2.427,0,0,0,1.648-.5,1.762,1.762,0,0,0,.576-1.4,1.742,1.742,0,0,0-.568-1.36,2.475,2.475,0,0,0-1.7-.512H2.528Zm0,5.184H5.1A2.646,2.646,0,0,0,6.88-1.656a1.866,1.866,0,0,0,.624-1.5,1.9,1.9,0,0,0-.656-1.512,2.621,2.621,0,0,0-1.776-.568H2.528ZM13.376.192a3.6,3.6,0,0,1-1.648-.336,2.284,2.284,0,0,1-.976-.9,2.409,2.409,0,0,1-.32-1.216,2.155,2.155,0,0,1,.928-1.872,4.309,4.309,0,0,1,2.528-.656h2.144v-.1a2.118,2.118,0,0,0-.544-1.576,1.984,1.984,0,0,0-1.456-.536A2.321,2.321,0,0,0,12.68-6.6a1.717,1.717,0,0,0-.712,1.144H10.592a2.547,2.547,0,0,1,.584-1.456,3.264,3.264,0,0,1,1.256-.9,4.133,4.133,0,0,1,1.6-.312,3.288,3.288,0,0,1,2.5.888,3.293,3.293,0,0,1,.84,2.36V0h-1.2L16.1-1.424A3.148,3.148,0,0,1,15.112-.28,2.887,2.887,0,0,1,13.376.192Zm.208-1.136a2.189,2.189,0,0,0,1.32-.4,2.553,2.553,0,0,0,.84-1.04,3.239,3.239,0,0,0,.288-1.344v-.016H14a2.638,2.638,0,0,0-1.672.408A1.272,1.272,0,0,0,11.84-2.32a1.231,1.231,0,0,0,.456,1A1.972,1.972,0,0,0,13.584-.944ZM19.392,0V-7.936h1.216l.08,1.424a2.882,2.882,0,0,1,1.1-1.184,3.11,3.11,0,0,1,1.632-.432,3.006,3.006,0,0,1,2.248.856,3.628,3.628,0,0,1,.84,2.632V0H25.168V-4.5q0-2.48-2.048-2.48a2.212,2.212,0,0,0-1.7.744,3.032,3.032,0,0,0-.68,2.12V0Zm9.152,0V-11.52h1.344v6.928l3.248-3.344h1.648l-3.52,3.584L35.232,0H33.52L29.888-4.112V0ZM43.488.192A3.6,3.6,0,0,1,41.84-.144a2.284,2.284,0,0,1-.976-.9,2.409,2.409,0,0,1-.32-1.216,2.155,2.155,0,0,1,.928-1.872A4.309,4.309,0,0,1,44-4.784h2.144v-.1A2.118,2.118,0,0,0,45.6-6.456a1.984,1.984,0,0,0-1.456-.536,2.321,2.321,0,0,0-1.352.392,1.717,1.717,0,0,0-.712,1.144H40.7a2.547,2.547,0,0,1,.584-1.456,3.264,3.264,0,0,1,1.256-.9,4.133,4.133,0,0,1,1.6-.312,3.288,3.288,0,0,1,2.5.888,3.293,3.293,0,0,1,.84,2.36V0h-1.2l-.08-1.424A3.148,3.148,0,0,1,45.224-.28,2.887,2.887,0,0,1,43.488.192ZM43.7-.944a2.189,2.189,0,0,0,1.32-.4,2.553,2.553,0,0,0,.84-1.04,3.239,3.239,0,0,0,.288-1.344v-.016H44.112a2.638,2.638,0,0,0-1.672.408,1.272,1.272,0,0,0-.488,1.016,1.231,1.231,0,0,0,.456,1A1.972,1.972,0,0,0,43.7-.944ZM53.152.192a4.017,4.017,0,0,1-2.04-.52,3.738,3.738,0,0,1-1.424-1.456,4.424,4.424,0,0,1-.52-2.184,4.424,4.424,0,0,1,.52-2.184,3.738,3.738,0,0,1,1.424-1.456,4.017,4.017,0,0,1,2.04-.52,3.811,3.811,0,0,1,2.376.736,3.207,3.207,0,0,1,1.224,1.968H55.376a1.764,1.764,0,0,0-.784-1.144,2.6,2.6,0,0,0-1.456-.408,2.52,2.52,0,0,0-1.264.336,2.506,2.506,0,0,0-.96,1.008,3.428,3.428,0,0,0-.368,1.664A3.428,3.428,0,0,0,50.912-2.3a2.564,2.564,0,0,0,.96,1.016,2.475,2.475,0,0,0,1.264.344,2.6,2.6,0,0,0,1.456-.408,1.77,1.77,0,0,0,.784-1.16h1.376A3.177,3.177,0,0,1,55.536-.56,3.789,3.789,0,0,1,53.152.192Zm9.12,0a4.017,4.017,0,0,1-2.04-.52,3.738,3.738,0,0,1-1.424-1.456,4.424,4.424,0,0,1-.52-2.184,4.424,4.424,0,0,1,.52-2.184,3.738,3.738,0,0,1,1.424-1.456,4.017,4.017,0,0,1,2.04-.52,3.811,3.811,0,0,1,2.376.736,3.207,3.207,0,0,1,1.224,1.968H64.5a1.764,1.764,0,0,0-.784-1.144,2.6,2.6,0,0,0-1.456-.408,2.52,2.52,0,0,0-1.264.336,2.506,2.506,0,0,0-.96,1.008,3.428,3.428,0,0,0-.368,1.664A3.428,3.428,0,0,0,60.032-2.3a2.564,2.564,0,0,0,.96,1.016,2.475,2.475,0,0,0,1.264.344,2.6,2.6,0,0,0,1.456-.408,1.771,1.771,0,0,0,.784-1.16h1.376A3.177,3.177,0,0,1,64.656-.56,3.789,3.789,0,0,1,62.272.192Zm9.088,0A3.99,3.99,0,0,1,69.344-.32a3.7,3.7,0,0,1-1.416-1.448,4.458,4.458,0,0,1-.52-2.2,4.4,4.4,0,0,1,.528-2.2,3.737,3.737,0,0,1,1.432-1.448,4.034,4.034,0,0,1,2.024-.512,3.99,3.99,0,0,1,2.016.512,3.7,3.7,0,0,1,1.416,1.448,4.458,4.458,0,0,1,.52,2.2,4.4,4.4,0,0,1-.528,2.2A3.737,3.737,0,0,1,73.384-.32,4.034,4.034,0,0,1,71.36.192Zm0-1.152A2.55,2.55,0,0,0,72.64-1.3,2.506,2.506,0,0,0,73.6-2.3a3.428,3.428,0,0,0,.368-1.664,3.491,3.491,0,0,0-.36-1.664,2.454,2.454,0,0,0-.952-1.008,2.52,2.52,0,0,0-1.264-.336,2.55,2.55,0,0,0-1.28.336,2.506,2.506,0,0,0-.96,1.008,3.428,3.428,0,0,0-.368,1.664A3.428,3.428,0,0,0,69.152-2.3,2.525,2.525,0,0,0,70.1-1.3,2.477,2.477,0,0,0,71.36-.96ZM80.112.192a2.98,2.98,0,0,1-2.24-.856A3.65,3.65,0,0,1,77.04-3.3v-4.64h1.344v4.5q0,2.48,2.032,2.48a2.229,2.229,0,0,0,1.72-.744,3.032,3.032,0,0,0,.68-2.12V-7.936H84.16V0H82.944l-.1-1.424a2.763,2.763,0,0,1-1.1,1.184A3.152,3.152,0,0,1,80.112.192ZM86.368,0V-7.936h1.216l.08,1.424a2.882,2.882,0,0,1,1.1-1.184A3.11,3.11,0,0,1,90.4-8.128a3.006,3.006,0,0,1,2.248.856,3.628,3.628,0,0,1,.84,2.632V0H92.144V-4.5q0-2.48-2.048-2.48a2.212,2.212,0,0,0-1.7.744,3.032,3.032,0,0,0-.68,2.12V0ZM98.656,0a2.568,2.568,0,0,1-1.712-.528,2.4,2.4,0,0,1-.624-1.9V-6.8H94.944V-7.936H96.32l.176-1.9h1.168v1.9H100V-6.8H97.664v4.368a1.32,1.32,0,0,0,.3,1.016,1.657,1.657,0,0,0,1.072.264h.832V0Zm7.3,0V-7.936h1.216l.08,1.424a2.882,2.882,0,0,1,1.1-1.184,3.11,3.11,0,0,1,1.632-.432,3.006,3.006,0,0,1,2.248.856,3.628,3.628,0,0,1,.84,2.632V0h-1.344V-4.5q0-2.48-2.048-2.48a2.212,2.212,0,0,0-1.7.744,3.032,3.032,0,0,0-.68,2.12V0ZM118,.192a2.98,2.98,0,0,1-2.24-.856,3.65,3.65,0,0,1-.832-2.632v-4.64h1.344v4.5q0,2.48,2.032,2.48a2.229,2.229,0,0,0,1.72-.744,3.032,3.032,0,0,0,.68-2.12V-7.936h1.344V0h-1.216l-.1-1.424a2.763,2.763,0,0,1-1.1,1.184A3.152,3.152,0,0,1,118,.192ZM124.256,0V-7.936h1.216l.1,1.152a2.688,2.688,0,0,1,1.024-.992,2.938,2.938,0,0,1,1.44-.352,3.252,3.252,0,0,1,1.624.384A2.526,2.526,0,0,1,130.7-6.576a3.038,3.038,0,0,1,1.144-1.136,3.123,3.123,0,0,1,1.576-.416,3.054,3.054,0,0,1,2.272.856,3.606,3.606,0,0,1,.848,2.632V0h-1.328V-4.5a2.941,2.941,0,0,0-.5-1.856,1.712,1.712,0,0,0-1.424-.624,2,2,0,0,0-1.592.744,3.184,3.184,0,0,0-.632,2.12V0h-1.344V-4.5a2.941,2.941,0,0,0-.5-1.856,1.712,1.712,0,0,0-1.424-.624,1.985,1.985,0,0,0-1.576.744,3.184,3.184,0,0,0-.632,2.12V0Zm18.56.192a3.671,3.671,0,0,1-1.736-.4,2.767,2.767,0,0,1-1.16-1.12L139.792,0h-1.216V-11.52h1.344v4.9a3.746,3.746,0,0,1,1.1-1.04,3.267,3.267,0,0,1,1.816-.464,3.845,3.845,0,0,1,2.064.544A3.722,3.722,0,0,1,146.264-6.1a4.6,4.6,0,0,1,.488,2.144,4.552,4.552,0,0,1-.488,2.136,3.661,3.661,0,0,1-1.376,1.472A3.931,3.931,0,0,1,142.816.192Zm-.144-1.168a2.622,2.622,0,0,0,1.408-.376,2.646,2.646,0,0,0,.96-1.048,3.333,3.333,0,0,0,.352-1.568,3.333,3.333,0,0,0-.352-1.568,2.646,2.646,0,0,0-.96-1.048,2.622,2.622,0,0,0-1.408-.376,2.622,2.622,0,0,0-1.408.376,2.646,2.646,0,0,0-.96,1.048,3.333,3.333,0,0,0-.352,1.568A3.333,3.333,0,0,0,140.3-2.4a2.646,2.646,0,0,0,.96,1.048A2.622,2.622,0,0,0,142.672-.976Zm9.52,1.168a3.887,3.887,0,0,1-2.016-.52,3.692,3.692,0,0,1-1.384-1.448,4.526,4.526,0,0,1-.5-2.192,4.6,4.6,0,0,1,.5-2.184,3.606,3.606,0,0,1,1.384-1.456,3.993,3.993,0,0,1,2.056-.52,3.708,3.708,0,0,1,1.992.52A3.523,3.523,0,0,1,155.5-6.24a3.846,3.846,0,0,1,.448,1.824q0,.176-.008.352t-.008.4h-6.32a3.118,3.118,0,0,0,.424,1.512,2.506,2.506,0,0,0,.944.9,2.523,2.523,0,0,0,1.208.3,2.4,2.4,0,0,0,1.392-.384,2.2,2.2,0,0,0,.816-1.04h1.328A3.582,3.582,0,0,1,154.5-.536,3.57,3.57,0,0,1,152.192.192Zm0-7.184a2.684,2.684,0,0,0-1.7.584,2.353,2.353,0,0,0-.856,1.7h4.992a2.27,2.27,0,0,0-.736-1.68A2.469,2.469,0,0,0,152.192-6.992ZM157.728,0V-7.936h1.216l.112,1.52a2.877,2.877,0,0,1,1.12-1.248,3.472,3.472,0,0,1,1.856-.464V-6.72h-.368a3.321,3.321,0,0,0-1.3.248,1.968,1.968,0,0,0-.944.84A3.2,3.2,0,0,0,159.072-4V0Z" transform="translate(143 2870)" fill="#acacac"/>
        <g id="Group_2249-2" data-name="Group 2249" transform="translate(143 2880)">
          <rect id="Rectangle_2907-2" data-name="Rectangle 2907" width="200" height="32" rx="5" fill="#293650"/>
          <path id="Path_2291" data-name="Path 2291" d="M1.008,0V-.944Q2.144-1.84,3.16-2.76A23.144,23.144,0,0,0,4.968-4.576a9.115,9.115,0,0,0,1.248-1.76A3.563,3.563,0,0,0,6.672-8a3.007,3.007,0,0,0-.2-1.1,1.765,1.765,0,0,0-.648-.824,2.1,2.1,0,0,0-1.216-.312,2.186,2.186,0,0,0-1.232.328,2.039,2.039,0,0,0-.744.872,2.782,2.782,0,0,0-.248,1.168h-1.3a3.687,3.687,0,0,1,.464-1.9,3.1,3.1,0,0,1,1.264-1.208,3.86,3.86,0,0,1,1.808-.416,3.552,3.552,0,0,1,2.44.84,3.164,3.164,0,0,1,.952,2.5,4.257,4.257,0,0,1-.5,1.96A9.793,9.793,0,0,1,6.256-4.216a17.524,17.524,0,0,1-1.64,1.688q-.872.784-1.624,1.408H8.4V0ZM14.544.192a4.485,4.485,0,0,1-2.568-.728A4.645,4.645,0,0,1,10.32-2.568,7.446,7.446,0,0,1,9.744-5.6a7.446,7.446,0,0,1,.576-3.032,4.645,4.645,0,0,1,1.656-2.032,4.485,4.485,0,0,1,2.568-.728,4.447,4.447,0,0,1,2.56.728,4.666,4.666,0,0,1,1.648,2.032A7.446,7.446,0,0,1,19.328-5.6a7.446,7.446,0,0,1-.576,3.032A4.666,4.666,0,0,1,17.1-.536,4.447,4.447,0,0,1,14.544.192Zm0-1.184A2.949,2.949,0,0,0,16.3-1.544a3.631,3.631,0,0,0,1.216-1.584,6.283,6.283,0,0,0,.44-2.472,6.224,6.224,0,0,0-.44-2.464A3.637,3.637,0,0,0,16.3-9.64a2.949,2.949,0,0,0-1.752-.552,2.939,2.939,0,0,0-1.76.552,3.718,3.718,0,0,0-1.216,1.576A6.126,6.126,0,0,0,11.12-5.6a6.184,6.184,0,0,0,.448,2.472,3.712,3.712,0,0,0,1.216,1.584A2.939,2.939,0,0,0,14.544-.992ZM20.928,0V-.944q1.136-.9,2.152-1.816a23.144,23.144,0,0,0,1.808-1.816,9.115,9.115,0,0,0,1.248-1.76A3.563,3.563,0,0,0,26.592-8a3.007,3.007,0,0,0-.2-1.1,1.765,1.765,0,0,0-.648-.824,2.1,2.1,0,0,0-1.216-.312,2.186,2.186,0,0,0-1.232.328,2.039,2.039,0,0,0-.744.872A2.782,2.782,0,0,0,22.3-7.872h-1.3a3.687,3.687,0,0,1,.464-1.9,3.1,3.1,0,0,1,1.264-1.208,3.86,3.86,0,0,1,1.808-.416,3.552,3.552,0,0,1,2.44.84,3.164,3.164,0,0,1,.952,2.5,4.257,4.257,0,0,1-.5,1.96,9.793,9.793,0,0,1-1.264,1.872,17.524,17.524,0,0,1-1.64,1.688q-.872.784-1.624,1.408H28.32V0ZM33.744.192A4.634,4.634,0,0,1,31.808-.2a3.228,3.228,0,0,1-1.384-1.176,3.644,3.644,0,0,1-.552-1.952h1.36A2.393,2.393,0,0,0,31.9-1.672a2.406,2.406,0,0,0,1.84.7,2.3,2.3,0,0,0,1.784-.656,2.264,2.264,0,0,0,.6-1.584,2.061,2.061,0,0,0-.376-1.28,2.221,2.221,0,0,0-1.008-.736,3.868,3.868,0,0,0-1.384-.24h-.832V-6.608h.832a2.646,2.646,0,0,0,1.7-.5A1.686,1.686,0,0,0,35.68-8.5a1.68,1.68,0,0,0-.488-1.24,1.965,1.965,0,0,0-1.448-.488,2.028,2.028,0,0,0-1.488.552,2.1,2.1,0,0,0-.624,1.384h-1.36A3.325,3.325,0,0,1,30.76-9.9,3,3,0,0,1,31.968-11a3.854,3.854,0,0,1,1.776-.392,3.863,3.863,0,0,1,1.816.384,2.706,2.706,0,0,1,1.1,1.024,2.729,2.729,0,0,1,.376,1.408,2.724,2.724,0,0,1-.464,1.544,2.284,2.284,0,0,1-1.392.936,2.963,2.963,0,0,1,1.648.944,2.8,2.8,0,0,1,.656,1.936,3.5,3.5,0,0,1-.424,1.7,3.124,3.124,0,0,1-1.256,1.24A4.189,4.189,0,0,1,33.744.192Zm9.152,0a3.683,3.683,0,0,1-1.808-.416A3.234,3.234,0,0,1,39.9-1.336,3.61,3.61,0,0,1,39.36-2.88h1.248a2.24,2.24,0,0,0,.768,1.408,2.351,2.351,0,0,0,1.536.5A2.53,2.53,0,0,0,45.04-2.168a6.792,6.792,0,0,0,.912-3.72,3.459,3.459,0,0,1-1.224,1.3,3.6,3.6,0,0,1-2.024.552,3.783,3.783,0,0,1-1.792-.448,3.664,3.664,0,0,1-1.376-1.256,3.387,3.387,0,0,1-.528-1.9A3.72,3.72,0,0,1,39.48-9.44a3.8,3.8,0,0,1,1.336-1.408,3.794,3.794,0,0,1,2.064-.544,4.213,4.213,0,0,1,2.048.456,3.691,3.691,0,0,1,1.336,1.224A5.466,5.466,0,0,1,47-7.992a8.181,8.181,0,0,1,.232,1.944,9.463,9.463,0,0,1-.512,3.256A4.95,4.95,0,0,1,45.24-.6,3.582,3.582,0,0,1,42.9.192Zm.08-5.392a2.626,2.626,0,0,0,1.344-.344,2.646,2.646,0,0,0,.944-.92,2.35,2.35,0,0,0,.352-1.248A2.4,2.4,0,0,0,45.264-9a2.477,2.477,0,0,0-.944-.888,2.781,2.781,0,0,0-1.344-.32,2.781,2.781,0,0,0-1.344.32A2.36,2.36,0,0,0,40.7-9a2.512,2.512,0,0,0-.336,1.3,2.341,2.341,0,0,0,.744,1.816A2.658,2.658,0,0,0,42.976-5.2Zm10,5.392a3.683,3.683,0,0,1-1.808-.416,3.234,3.234,0,0,1-1.192-1.112A3.61,3.61,0,0,1,49.44-2.88h1.248a2.24,2.24,0,0,0,.768,1.408,2.351,2.351,0,0,0,1.536.5A2.53,2.53,0,0,0,55.12-2.168a6.792,6.792,0,0,0,.912-3.72,3.459,3.459,0,0,1-1.224,1.3,3.6,3.6,0,0,1-2.024.552,3.783,3.783,0,0,1-1.792-.448,3.664,3.664,0,0,1-1.376-1.256,3.387,3.387,0,0,1-.528-1.9A3.72,3.72,0,0,1,49.56-9.44,3.8,3.8,0,0,1,50.9-10.848a3.794,3.794,0,0,1,2.064-.544,4.213,4.213,0,0,1,2.048.456,3.691,3.691,0,0,1,1.336,1.224,5.466,5.466,0,0,1,.736,1.72,8.181,8.181,0,0,1,.232,1.944A9.463,9.463,0,0,1,56.8-2.792,4.95,4.95,0,0,1,55.32-.6,3.582,3.582,0,0,1,52.976.192Zm.08-5.392A2.626,2.626,0,0,0,54.4-5.544a2.646,2.646,0,0,0,.944-.92A2.35,2.35,0,0,0,55.7-7.712,2.4,2.4,0,0,0,55.344-9a2.477,2.477,0,0,0-.944-.888,2.781,2.781,0,0,0-1.344-.32,2.781,2.781,0,0,0-1.344.32A2.36,2.36,0,0,0,50.784-9a2.512,2.512,0,0,0-.336,1.3,2.341,2.341,0,0,0,.744,1.816A2.658,2.658,0,0,0,53.056-5.2ZM63.168.192a4.494,4.494,0,0,1-2-.416,3.463,3.463,0,0,1-1.352-1.144A3.625,3.625,0,0,1,59.2-3.024h1.312a2.513,2.513,0,0,0,.9,1.5,2.738,2.738,0,0,0,1.776.568,2.461,2.461,0,0,0,1.376-.376,2.49,2.49,0,0,0,.888-1.016,3.206,3.206,0,0,0,.312-1.424,2.867,2.867,0,0,0-.7-2.016,2.361,2.361,0,0,0-1.824-.768,2.9,2.9,0,0,0-1.584.416,2.483,2.483,0,0,0-.96,1.088h-1.28l.96-6.144H66.24v1.168H61.408l-.656,3.408a2.871,2.871,0,0,1,1.064-.768,3.787,3.787,0,0,1,1.56-.3,3.578,3.578,0,0,1,1.928.512,3.562,3.562,0,0,1,1.288,1.392,4.223,4.223,0,0,1,.464,2A4.374,4.374,0,0,1,66.6-1.808,3.566,3.566,0,0,1,65.272-.352,3.9,3.9,0,0,1,63.168.192Zm10.016,0a4.213,4.213,0,0,1-2.048-.456A3.691,3.691,0,0,1,69.8-1.488a5.466,5.466,0,0,1-.736-1.72,8.181,8.181,0,0,1-.232-1.944,9.463,9.463,0,0,1,.512-3.256,4.95,4.95,0,0,1,1.48-2.192,3.582,3.582,0,0,1,2.344-.792,3.683,3.683,0,0,1,1.808.416,3.234,3.234,0,0,1,1.192,1.112A3.779,3.779,0,0,1,76.72-8.32H75.472a2.307,2.307,0,0,0-.784-1.408,2.351,2.351,0,0,0-1.536-.5,2.537,2.537,0,0,0-2.12,1.192,6.74,6.74,0,0,0-.92,3.72,3.459,3.459,0,0,1,1.224-1.3,3.6,3.6,0,0,1,2.024-.552,3.768,3.768,0,0,1,1.8.448,3.681,3.681,0,0,1,1.368,1.256,3.387,3.387,0,0,1,.528,1.9,3.77,3.77,0,0,1-.464,1.808A3.713,3.713,0,0,1,75.256-.352,3.835,3.835,0,0,1,73.184.192Zm-.1-1.184a2.781,2.781,0,0,0,1.344-.32A2.36,2.36,0,0,0,75.36-2.2,2.512,2.512,0,0,0,75.7-3.5a2.341,2.341,0,0,0-.744-1.816A2.658,2.658,0,0,0,73.088-6a2.626,2.626,0,0,0-1.344.344,2.581,2.581,0,0,0-.936.92,2.391,2.391,0,0,0-.344,1.248A2.437,2.437,0,0,0,70.808-2.2a2.418,2.418,0,0,0,.936.888A2.781,2.781,0,0,0,73.088-.992ZM83.264.192a4.213,4.213,0,0,1-2.048-.456A3.691,3.691,0,0,1,79.88-1.488a5.466,5.466,0,0,1-.736-1.72,8.181,8.181,0,0,1-.232-1.944,9.463,9.463,0,0,1,.512-3.256A4.95,4.95,0,0,1,80.9-10.6a3.582,3.582,0,0,1,2.344-.792,3.683,3.683,0,0,1,1.808.416,3.234,3.234,0,0,1,1.192,1.112A3.779,3.779,0,0,1,86.8-8.32H85.552a2.307,2.307,0,0,0-.784-1.408,2.351,2.351,0,0,0-1.536-.5,2.537,2.537,0,0,0-2.12,1.192,6.74,6.74,0,0,0-.92,3.72,3.459,3.459,0,0,1,1.224-1.3,3.6,3.6,0,0,1,2.024-.552,3.768,3.768,0,0,1,1.8.448,3.681,3.681,0,0,1,1.368,1.256,3.387,3.387,0,0,1,.528,1.9,3.77,3.77,0,0,1-.464,1.808A3.713,3.713,0,0,1,85.336-.352,3.835,3.835,0,0,1,83.264.192Zm-.1-1.184a2.781,2.781,0,0,0,1.344-.32A2.36,2.36,0,0,0,85.44-2.2a2.512,2.512,0,0,0,.336-1.3,2.341,2.341,0,0,0-.744-1.816A2.658,2.658,0,0,0,83.168-6a2.626,2.626,0,0,0-1.344.344,2.581,2.581,0,0,0-.936.92,2.391,2.391,0,0,0-.344,1.248A2.437,2.437,0,0,0,80.888-2.2a2.418,2.418,0,0,0,.936.888A2.781,2.781,0,0,0,83.168-.992ZM88.72,0V-.944q1.136-.9,2.152-1.816A23.145,23.145,0,0,0,92.68-4.576a9.115,9.115,0,0,0,1.248-1.76A3.563,3.563,0,0,0,94.384-8a3.008,3.008,0,0,0-.2-1.1,1.764,1.764,0,0,0-.648-.824,2.1,2.1,0,0,0-1.216-.312,2.186,2.186,0,0,0-1.232.328,2.039,2.039,0,0,0-.744.872A2.782,2.782,0,0,0,90.1-7.872H88.8a3.687,3.687,0,0,1,.464-1.9,3.1,3.1,0,0,1,1.264-1.208,3.86,3.86,0,0,1,1.808-.416,3.552,3.552,0,0,1,2.44.84,3.164,3.164,0,0,1,.952,2.5,4.258,4.258,0,0,1-.5,1.96,9.793,9.793,0,0,1-1.264,1.872,17.524,17.524,0,0,1-1.64,1.688q-.872.784-1.624,1.408h5.408V0Zm13.136.192a4.494,4.494,0,0,1-2-.416A3.463,3.463,0,0,1,98.5-1.368a3.625,3.625,0,0,1-.616-1.656H99.2a2.513,2.513,0,0,0,.9,1.5,2.738,2.738,0,0,0,1.776.568,2.461,2.461,0,0,0,1.376-.376,2.49,2.49,0,0,0,.888-1.016,3.206,3.206,0,0,0,.312-1.424,2.867,2.867,0,0,0-.7-2.016,2.361,2.361,0,0,0-1.824-.768,2.9,2.9,0,0,0-1.584.416,2.483,2.483,0,0,0-.96,1.088H98.1l.96-6.144h5.872v1.168H100.1L99.44-6.624a2.871,2.871,0,0,1,1.064-.768,3.787,3.787,0,0,1,1.56-.3,3.578,3.578,0,0,1,1.928.512,3.562,3.562,0,0,1,1.288,1.392,4.223,4.223,0,0,1,.464,2,4.374,4.374,0,0,1-.456,1.984A3.566,3.566,0,0,1,103.96-.352,3.9,3.9,0,0,1,101.856.192Z" transform="translate(20 22.235)" fill="#fff"/>
        </g>
      </g>
      <g id="Group_2258" data-name="Group 2258" transform="translate(582 495)">
        <path id="Path_2289" data-name="Path 2289" d="M1.184,0V-11.2H2.528V0ZM4.9,0V-11.2h6.816v1.1H6.24V-6.16H10.9v1.088H6.24V0ZM17.008.192a4.811,4.811,0,0,1-2.144-.448A3.348,3.348,0,0,1,13.456-1.5a3.449,3.449,0,0,1-.5-1.856h1.408a2.463,2.463,0,0,0,.3,1.208,2.238,2.238,0,0,0,.888.88,2.922,2.922,0,0,0,1.448.328,2.594,2.594,0,0,0,1.76-.544,1.73,1.73,0,0,0,.624-1.36,1.836,1.836,0,0,0-.288-1.08,2.153,2.153,0,0,0-.776-.664,6.445,6.445,0,0,0-1.12-.448q-.632-.192-1.32-.432a4.714,4.714,0,0,1-1.92-1.112,2.432,2.432,0,0,1-.624-1.736,2.856,2.856,0,0,1,.416-1.592A2.932,2.932,0,0,1,14.984-11a4.2,4.2,0,0,1,1.88-.392,4.086,4.086,0,0,1,1.864.4,3.023,3.023,0,0,1,1.232,1.1,3.062,3.062,0,0,1,.456,1.6H19.008a1.957,1.957,0,0,0-.24-.92,1.874,1.874,0,0,0-.728-.744,2.376,2.376,0,0,0-1.224-.288,2.214,2.214,0,0,0-1.5.464,1.625,1.625,0,0,0-.584,1.328,1.443,1.443,0,0,0,.408,1.1,3.089,3.089,0,0,0,1.144.632q.736.248,1.7.568a8.174,8.174,0,0,1,1.44.672,2.829,2.829,0,0,1,1,.992,3.011,3.011,0,0,1,.36,1.552,2.95,2.95,0,0,1-.416,1.512,3.091,3.091,0,0,1-1.256,1.16A4.437,4.437,0,0,1,17.008.192ZM27.6.192a5.344,5.344,0,0,1-2.84-.728,4.908,4.908,0,0,1-1.848-2.032A6.663,6.663,0,0,1,22.256-5.6a6.625,6.625,0,0,1,.656-3.016,4.962,4.962,0,0,1,1.848-2.04,5.3,5.3,0,0,1,2.84-.736,5.022,5.022,0,0,1,3.128.92A4.137,4.137,0,0,1,32.272-7.9H30.784a2.985,2.985,0,0,0-1.048-1.672,3.33,3.33,0,0,0-2.136-.632,3.915,3.915,0,0,0-2.1.552A3.627,3.627,0,0,0,24.12-8.072,5.741,5.741,0,0,0,23.632-5.6a5.741,5.741,0,0,0,.488,2.472A3.627,3.627,0,0,0,25.5-1.544a3.915,3.915,0,0,0,2.1.552,3.39,3.39,0,0,0,2.136-.616,2.9,2.9,0,0,0,1.048-1.64h1.488A4.085,4.085,0,0,1,30.728-.72,5.053,5.053,0,0,1,27.6.192Z" transform="translate(143 2870)" fill="#acacac"/>
        <g id="Group_2249-3" data-name="Group 2249" transform="translate(143 2880)">
          <rect id="Rectangle_2907-3" data-name="Rectangle 2907" width="200" height="32" rx="5" fill="#293650"/>
          <path id="Path_2288" data-name="Path 2288" d="M4.752.192A4.811,4.811,0,0,1,2.608-.256,3.348,3.348,0,0,1,1.2-1.5,3.449,3.449,0,0,1,.7-3.36H2.112a2.463,2.463,0,0,0,.3,1.208,2.238,2.238,0,0,0,.888.88,2.922,2.922,0,0,0,1.448.328,2.594,2.594,0,0,0,1.76-.544,1.73,1.73,0,0,0,.624-1.36,1.836,1.836,0,0,0-.288-1.08,2.154,2.154,0,0,0-.776-.664,6.445,6.445,0,0,0-1.12-.448q-.632-.192-1.32-.432a4.714,4.714,0,0,1-1.92-1.112A2.432,2.432,0,0,1,1.088-8.32,2.856,2.856,0,0,1,1.5-9.912,2.932,2.932,0,0,1,2.728-11a4.2,4.2,0,0,1,1.88-.392,4.086,4.086,0,0,1,1.864.4A3.023,3.023,0,0,1,7.7-9.888a3.062,3.062,0,0,1,.456,1.6H6.752a1.957,1.957,0,0,0-.24-.92,1.874,1.874,0,0,0-.728-.744A2.376,2.376,0,0,0,4.56-10.24a2.214,2.214,0,0,0-1.5.464A1.625,1.625,0,0,0,2.48-8.448a1.443,1.443,0,0,0,.408,1.1,3.089,3.089,0,0,0,1.144.632q.736.248,1.7.568a8.174,8.174,0,0,1,1.44.672,2.829,2.829,0,0,1,1,.992,3.011,3.011,0,0,1,.36,1.552,2.95,2.95,0,0,1-.416,1.512A3.091,3.091,0,0,1,6.856-.256,4.437,4.437,0,0,1,4.752.192ZM10.432,0V-11.2h3.936a4.49,4.49,0,0,1,1.96.376A2.638,2.638,0,0,1,17.488-9.8a2.786,2.786,0,0,1,.384,1.448,2.406,2.406,0,0,1-.584,1.712,3.073,3.073,0,0,1-1.4.864,2.649,2.649,0,0,1,1.136.5,2.761,2.761,0,0,1,.808.96,2.724,2.724,0,0,1,.3,1.264,2.952,2.952,0,0,1-.416,1.544,2.9,2.9,0,0,1-1.232,1.1A4.4,4.4,0,0,1,14.5,0Zm1.344-6.3h2.5a2.427,2.427,0,0,0,1.648-.5,1.762,1.762,0,0,0,.576-1.4,1.742,1.742,0,0,0-.568-1.36,2.475,2.475,0,0,0-1.7-.512H11.776Zm0,5.184h2.576a2.646,2.646,0,0,0,1.776-.536,1.866,1.866,0,0,0,.624-1.5A1.9,1.9,0,0,0,16.1-4.664a2.621,2.621,0,0,0-1.776-.568H11.776ZM20.064,0V-11.2h1.344V0Zm3.712,0V-11.2H25.12l5.968,8.976V-11.2h1.344V0H31.088L25.12-8.976V0ZM39.168.192A4.485,4.485,0,0,1,36.6-.536a4.645,4.645,0,0,1-1.656-2.032A7.446,7.446,0,0,1,34.368-5.6a7.446,7.446,0,0,1,.576-3.032A4.645,4.645,0,0,1,36.6-10.664a4.485,4.485,0,0,1,2.568-.728,4.447,4.447,0,0,1,2.56.728,4.666,4.666,0,0,1,1.648,2.032A7.446,7.446,0,0,1,43.952-5.6a7.446,7.446,0,0,1-.576,3.032A4.666,4.666,0,0,1,41.728-.536,4.447,4.447,0,0,1,39.168.192Zm0-1.184a2.949,2.949,0,0,0,1.752-.552,3.631,3.631,0,0,0,1.216-1.584,6.283,6.283,0,0,0,.44-2.472,6.224,6.224,0,0,0-.44-2.464A3.637,3.637,0,0,0,40.92-9.64a2.949,2.949,0,0,0-1.752-.552,2.939,2.939,0,0,0-1.76.552,3.718,3.718,0,0,0-1.216,1.576A6.126,6.126,0,0,0,35.744-5.6a6.184,6.184,0,0,0,.448,2.472,3.712,3.712,0,0,0,1.216,1.584A2.939,2.939,0,0,0,39.168-.992ZM50.256.192a4.485,4.485,0,0,1-2.568-.728,4.645,4.645,0,0,1-1.656-2.032A7.446,7.446,0,0,1,45.456-5.6a7.446,7.446,0,0,1,.576-3.032,4.645,4.645,0,0,1,1.656-2.032,4.485,4.485,0,0,1,2.568-.728,4.447,4.447,0,0,1,2.56.728,4.666,4.666,0,0,1,1.648,2.032A7.446,7.446,0,0,1,55.04-5.6a7.446,7.446,0,0,1-.576,3.032A4.666,4.666,0,0,1,52.816-.536,4.447,4.447,0,0,1,50.256.192Zm0-1.184a2.949,2.949,0,0,0,1.752-.552,3.631,3.631,0,0,0,1.216-1.584,6.283,6.283,0,0,0,.44-2.472,6.224,6.224,0,0,0-.44-2.464A3.637,3.637,0,0,0,52.008-9.64a2.949,2.949,0,0,0-1.752-.552,2.939,2.939,0,0,0-1.76.552A3.718,3.718,0,0,0,47.28-8.064,6.126,6.126,0,0,0,46.832-5.6a6.184,6.184,0,0,0,.448,2.472A3.712,3.712,0,0,0,48.5-1.544,2.939,2.939,0,0,0,50.256-.992ZM61.344.192a4.485,4.485,0,0,1-2.568-.728A4.645,4.645,0,0,1,57.12-2.568,7.446,7.446,0,0,1,56.544-5.6a7.446,7.446,0,0,1,.576-3.032,4.645,4.645,0,0,1,1.656-2.032,4.485,4.485,0,0,1,2.568-.728,4.447,4.447,0,0,1,2.56.728,4.666,4.666,0,0,1,1.648,2.032A7.446,7.446,0,0,1,66.128-5.6a7.446,7.446,0,0,1-.576,3.032A4.666,4.666,0,0,1,63.9-.536,4.447,4.447,0,0,1,61.344.192Zm0-1.184A2.949,2.949,0,0,0,63.1-1.544a3.631,3.631,0,0,0,1.216-1.584,6.283,6.283,0,0,0,.44-2.472,6.224,6.224,0,0,0-.44-2.464A3.637,3.637,0,0,0,63.1-9.64a2.949,2.949,0,0,0-1.752-.552,2.939,2.939,0,0,0-1.76.552,3.718,3.718,0,0,0-1.216,1.576A6.126,6.126,0,0,0,57.92-5.6a6.184,6.184,0,0,0,.448,2.472,3.712,3.712,0,0,0,1.216,1.584A2.939,2.939,0,0,0,61.344-.992ZM69.168,0V-9.7l-1.808.4v-.928l2.256-.976h.912V0Zm7.424.192a3.683,3.683,0,0,1-1.808-.416,3.234,3.234,0,0,1-1.192-1.112,3.61,3.61,0,0,1-.536-1.544H74.3a2.24,2.24,0,0,0,.768,1.408,2.351,2.351,0,0,0,1.536.5,2.53,2.53,0,0,0,2.128-1.192,6.792,6.792,0,0,0,.912-3.72,3.459,3.459,0,0,1-1.224,1.3,3.6,3.6,0,0,1-2.024.552,3.783,3.783,0,0,1-1.792-.448,3.664,3.664,0,0,1-1.376-1.256,3.387,3.387,0,0,1-.528-1.9,3.72,3.72,0,0,1,.472-1.808,3.8,3.8,0,0,1,1.336-1.408,3.794,3.794,0,0,1,2.064-.544,4.213,4.213,0,0,1,2.048.456A3.691,3.691,0,0,1,79.96-9.712a5.466,5.466,0,0,1,.736,1.72,8.181,8.181,0,0,1,.232,1.944,9.463,9.463,0,0,1-.512,3.256A4.95,4.95,0,0,1,78.936-.6,3.582,3.582,0,0,1,76.592.192Zm.08-5.392a2.626,2.626,0,0,0,1.344-.344,2.645,2.645,0,0,0,.944-.92,2.35,2.35,0,0,0,.352-1.248A2.4,2.4,0,0,0,78.96-9a2.477,2.477,0,0,0-.944-.888,2.781,2.781,0,0,0-1.344-.32,2.781,2.781,0,0,0-1.344.32A2.36,2.36,0,0,0,74.4-9a2.512,2.512,0,0,0-.336,1.3,2.341,2.341,0,0,0,.744,1.816A2.658,2.658,0,0,0,76.672-5.2Zm10,5.392a3.683,3.683,0,0,1-1.808-.416,3.234,3.234,0,0,1-1.192-1.112,3.61,3.61,0,0,1-.536-1.544h1.248a2.24,2.24,0,0,0,.768,1.408,2.351,2.351,0,0,0,1.536.5,2.53,2.53,0,0,0,2.128-1.192,6.792,6.792,0,0,0,.912-3.72,3.459,3.459,0,0,1-1.224,1.3,3.6,3.6,0,0,1-2.024.552,3.783,3.783,0,0,1-1.792-.448,3.664,3.664,0,0,1-1.376-1.256,3.387,3.387,0,0,1-.528-1.9,3.72,3.72,0,0,1,.472-1.808,3.8,3.8,0,0,1,1.336-1.408,3.794,3.794,0,0,1,2.064-.544,4.213,4.213,0,0,1,2.048.456A3.691,3.691,0,0,1,90.04-9.712a5.466,5.466,0,0,1,.736,1.72,8.181,8.181,0,0,1,.232,1.944A9.463,9.463,0,0,1,90.5-2.792,4.95,4.95,0,0,1,89.016-.6,3.582,3.582,0,0,1,86.672.192Zm.08-5.392A2.626,2.626,0,0,0,88.1-5.544a2.645,2.645,0,0,0,.944-.92,2.35,2.35,0,0,0,.352-1.248A2.4,2.4,0,0,0,89.04-9a2.477,2.477,0,0,0-.944-.888,2.781,2.781,0,0,0-1.344-.32,2.781,2.781,0,0,0-1.344.32A2.36,2.36,0,0,0,84.48-9a2.512,2.512,0,0,0-.336,1.3,2.341,2.341,0,0,0,.744,1.816A2.658,2.658,0,0,0,86.752-5.2Z" transform="translate(20 22.235)" fill="#fff"/>
        </g>
      </g>
      <g id="Group_2259" data-name="Group 2259" transform="translate(810 495)">
        <path id="Path_2292" data-name="Path 2292" d="M1.184,0V-11.2H5.12a4.49,4.49,0,0,1,1.96.376A2.638,2.638,0,0,1,8.24-9.8a2.786,2.786,0,0,1,.384,1.448A2.406,2.406,0,0,1,8.04-6.64a3.073,3.073,0,0,1-1.4.864,2.649,2.649,0,0,1,1.136.5,2.761,2.761,0,0,1,.808.96,2.724,2.724,0,0,1,.3,1.264,2.952,2.952,0,0,1-.416,1.544,2.9,2.9,0,0,1-1.232,1.1A4.4,4.4,0,0,1,5.248,0ZM2.528-6.3h2.5a2.427,2.427,0,0,0,1.648-.5,1.762,1.762,0,0,0,.576-1.4,1.742,1.742,0,0,0-.568-1.36,2.475,2.475,0,0,0-1.7-.512H2.528Zm0,5.184H5.1A2.646,2.646,0,0,0,6.88-1.656a1.866,1.866,0,0,0,.624-1.5,1.9,1.9,0,0,0-.656-1.512,2.621,2.621,0,0,0-1.776-.568H2.528ZM13.376.192a3.6,3.6,0,0,1-1.648-.336,2.284,2.284,0,0,1-.976-.9,2.409,2.409,0,0,1-.32-1.216,2.155,2.155,0,0,1,.928-1.872,4.309,4.309,0,0,1,2.528-.656h2.144v-.1a2.118,2.118,0,0,0-.544-1.576,1.984,1.984,0,0,0-1.456-.536A2.321,2.321,0,0,0,12.68-6.6a1.717,1.717,0,0,0-.712,1.144H10.592a2.547,2.547,0,0,1,.584-1.456,3.264,3.264,0,0,1,1.256-.9,4.133,4.133,0,0,1,1.6-.312,3.288,3.288,0,0,1,2.5.888,3.293,3.293,0,0,1,.84,2.36V0h-1.2L16.1-1.424A3.148,3.148,0,0,1,15.112-.28,2.887,2.887,0,0,1,13.376.192Zm.208-1.136a2.189,2.189,0,0,0,1.32-.4,2.553,2.553,0,0,0,.84-1.04,3.239,3.239,0,0,0,.288-1.344v-.016H14a2.638,2.638,0,0,0-1.672.408A1.272,1.272,0,0,0,11.84-2.32a1.231,1.231,0,0,0,.456,1A1.972,1.972,0,0,0,13.584-.944ZM19.392,0V-7.936h1.216l.08,1.424a2.882,2.882,0,0,1,1.1-1.184,3.11,3.11,0,0,1,1.632-.432,3.006,3.006,0,0,1,2.248.856,3.628,3.628,0,0,1,.84,2.632V0H25.168V-4.5q0-2.48-2.048-2.48a2.212,2.212,0,0,0-1.7.744,3.032,3.032,0,0,0-.68,2.12V0Zm9.152,0V-11.52h1.344v6.928l3.248-3.344h1.648l-3.52,3.584L35.232,0H33.52L29.888-4.112V0Zm12.3,0V-7.936h1.216l.08,1.424a2.882,2.882,0,0,1,1.1-1.184,3.11,3.11,0,0,1,1.632-.432,3.006,3.006,0,0,1,2.248.856,3.628,3.628,0,0,1,.84,2.632V0H46.624V-4.5q0-2.48-2.048-2.48a2.212,2.212,0,0,0-1.7.744,3.032,3.032,0,0,0-.68,2.12V0ZM52.64.192a3.6,3.6,0,0,1-1.648-.336,2.284,2.284,0,0,1-.976-.9,2.409,2.409,0,0,1-.32-1.216,2.155,2.155,0,0,1,.928-1.872,4.309,4.309,0,0,1,2.528-.656H55.3v-.1a2.118,2.118,0,0,0-.544-1.576A1.984,1.984,0,0,0,53.3-6.992a2.321,2.321,0,0,0-1.352.392,1.717,1.717,0,0,0-.712,1.144H49.856a2.547,2.547,0,0,1,.584-1.456,3.264,3.264,0,0,1,1.256-.9,4.133,4.133,0,0,1,1.6-.312,3.288,3.288,0,0,1,2.5.888,3.293,3.293,0,0,1,.84,2.36V0h-1.2l-.08-1.424A3.148,3.148,0,0,1,54.376-.28,2.887,2.887,0,0,1,52.64.192Zm.208-1.136a2.189,2.189,0,0,0,1.32-.4,2.553,2.553,0,0,0,.84-1.04A3.239,3.239,0,0,0,55.3-3.728v-.016H53.264a2.638,2.638,0,0,0-1.672.408A1.272,1.272,0,0,0,51.1-2.32a1.231,1.231,0,0,0,.456,1A1.972,1.972,0,0,0,52.848-.944ZM58.656,0V-7.936h1.216l.1,1.152a2.688,2.688,0,0,1,1.024-.992,2.938,2.938,0,0,1,1.44-.352,3.251,3.251,0,0,1,1.624.384A2.526,2.526,0,0,1,65.1-6.576a3.038,3.038,0,0,1,1.144-1.136,3.123,3.123,0,0,1,1.576-.416,3.054,3.054,0,0,1,2.272.856,3.606,3.606,0,0,1,.848,2.632V0H69.616V-4.5a2.941,2.941,0,0,0-.5-1.856A1.712,1.712,0,0,0,67.7-6.976a2,2,0,0,0-1.592.744,3.184,3.184,0,0,0-.632,2.12V0H64.128V-4.5a2.941,2.941,0,0,0-.5-1.856,1.712,1.712,0,0,0-1.424-.624,1.985,1.985,0,0,0-1.576.744A3.184,3.184,0,0,0,60-4.112V0ZM76.544.192a3.887,3.887,0,0,1-2.016-.52,3.692,3.692,0,0,1-1.384-1.448,4.526,4.526,0,0,1-.5-2.192,4.6,4.6,0,0,1,.5-2.184A3.606,3.606,0,0,1,74.52-7.608a3.993,3.993,0,0,1,2.056-.52,3.708,3.708,0,0,1,1.992.52A3.523,3.523,0,0,1,79.856-6.24,3.846,3.846,0,0,1,80.3-4.416q0,.176-.008.352t-.008.4h-6.32a3.118,3.118,0,0,0,.424,1.512,2.506,2.506,0,0,0,.944.9,2.523,2.523,0,0,0,1.208.3,2.4,2.4,0,0,0,1.392-.384,2.2,2.2,0,0,0,.816-1.04H80.08A3.582,3.582,0,0,1,78.856-.536,3.57,3.57,0,0,1,76.544.192Zm0-7.184a2.684,2.684,0,0,0-1.7.584,2.353,2.353,0,0,0-.856,1.7h4.992a2.27,2.27,0,0,0-.736-1.68A2.469,2.469,0,0,0,76.544-6.992Z" transform="translate(143 2870)" fill="#acacac"/>
        <g id="Group_2249-4" data-name="Group 2249" transform="translate(143 2880)">
          <rect id="Rectangle_2907-4" data-name="Rectangle 2907" width="200" height="32" rx="5" fill="#293650"/>
          <path id="Path_2293" data-name="Path 2293" d="M4.752.192A4.811,4.811,0,0,1,2.608-.256,3.348,3.348,0,0,1,1.2-1.5,3.449,3.449,0,0,1,.7-3.36H2.112a2.463,2.463,0,0,0,.3,1.208,2.238,2.238,0,0,0,.888.88,2.922,2.922,0,0,0,1.448.328,2.594,2.594,0,0,0,1.76-.544,1.73,1.73,0,0,0,.624-1.36,1.836,1.836,0,0,0-.288-1.08,2.154,2.154,0,0,0-.776-.664,6.445,6.445,0,0,0-1.12-.448q-.632-.192-1.32-.432a4.714,4.714,0,0,1-1.92-1.112A2.432,2.432,0,0,1,1.088-8.32,2.856,2.856,0,0,1,1.5-9.912,2.932,2.932,0,0,1,2.728-11a4.2,4.2,0,0,1,1.88-.392,4.086,4.086,0,0,1,1.864.4A3.023,3.023,0,0,1,7.7-9.888a3.062,3.062,0,0,1,.456,1.6H6.752a1.957,1.957,0,0,0-.24-.92,1.874,1.874,0,0,0-.728-.744A2.376,2.376,0,0,0,4.56-10.24a2.214,2.214,0,0,0-1.5.464A1.625,1.625,0,0,0,2.48-8.448a1.443,1.443,0,0,0,.408,1.1,3.089,3.089,0,0,0,1.144.632q.736.248,1.7.568a8.174,8.174,0,0,1,1.44.672,2.829,2.829,0,0,1,1,.992,3.011,3.011,0,0,1,.36,1.552,2.95,2.95,0,0,1-.416,1.512A3.091,3.091,0,0,1,6.856-.256,4.437,4.437,0,0,1,4.752.192ZM10.432,0V-11.2h3.936a4.49,4.49,0,0,1,1.96.376A2.638,2.638,0,0,1,17.488-9.8a2.786,2.786,0,0,1,.384,1.448,2.406,2.406,0,0,1-.584,1.712,3.073,3.073,0,0,1-1.4.864,2.649,2.649,0,0,1,1.136.5,2.761,2.761,0,0,1,.808.96,2.724,2.724,0,0,1,.3,1.264,2.952,2.952,0,0,1-.416,1.544,2.9,2.9,0,0,1-1.232,1.1A4.4,4.4,0,0,1,14.5,0Zm1.344-6.3h2.5a2.427,2.427,0,0,0,1.648-.5,1.762,1.762,0,0,0,.576-1.4,1.742,1.742,0,0,0-.568-1.36,2.475,2.475,0,0,0-1.7-.512H11.776Zm0,5.184h2.576a2.646,2.646,0,0,0,1.776-.536,1.866,1.866,0,0,0,.624-1.5A1.9,1.9,0,0,0,16.1-4.664a2.621,2.621,0,0,0-1.776-.568H11.776ZM20.064,0V-11.2h1.344V0Z" transform="translate(20 22.235)" fill="#fff"/>
        </g>
      </g>
      <g id="Group_2281" data-name="Group 2281" transform="translate(-184 700)">
        <rect id="Rectangle_2920" data-name="Rectangle 2920" width="170" height="38" rx="8" transform="translate(1038 2741)" fill="#7d0eff"/>
        <path id="Path_2294" data-name="Path 2294" d="M4.336,0,.24-11.2H2.432L5.6-2.1l3.184-9.1h2.16L6.848,0ZM15.12.192A4.332,4.332,0,0,1,12.992-.32a3.706,3.706,0,0,1-1.456-1.44A4.26,4.26,0,0,1,11.008-3.9a4.528,4.528,0,0,1,.52-2.192,3.775,3.775,0,0,1,1.44-1.5,4.23,4.23,0,0,1,2.168-.536,4.086,4.086,0,0,1,2.064.512,3.677,3.677,0,0,1,1.4,1.4,3.932,3.932,0,0,1,.5,1.976q0,.176-.008.368t-.024.4H13.04a2.067,2.067,0,0,0,.648,1.456,2.036,2.036,0,0,0,1.416.528,1.861,1.861,0,0,0,1.048-.28,1.735,1.735,0,0,0,.632-.728h2.08a3.771,3.771,0,0,1-.744,1.368,3.668,3.668,0,0,1-1.28.968A4.047,4.047,0,0,1,15.12.192Zm.016-6.656a2.181,2.181,0,0,0-1.328.424,1.965,1.965,0,0,0-.736,1.288h3.952A1.727,1.727,0,0,0,16.448-6,1.916,1.916,0,0,0,15.136-6.464ZM20.832,0V-7.936h1.824l.192,1.488a3.321,3.321,0,0,1,1.176-1.224,3.286,3.286,0,0,1,1.752-.456v2.16H25.2A3.254,3.254,0,0,0,24-5.76a1.616,1.616,0,0,0-.824.72,2.86,2.86,0,0,0-.3,1.424V0Zm7.44-9.168a1.3,1.3,0,0,1-.92-.336,1.11,1.11,0,0,1-.36-.848,1.085,1.085,0,0,1,.36-.84,1.313,1.313,0,0,1,.92-.328,1.313,1.313,0,0,1,.92.328,1.085,1.085,0,0,1,.36.84,1.11,1.11,0,0,1-.36.848A1.3,1.3,0,0,1,28.272-9.168ZM27.248,0V-7.936H29.3V0Zm4.56,0V-6.224H30.72V-7.936h1.088v-.928a2.535,2.535,0,0,1,.728-2.048,2.987,2.987,0,0,1,1.976-.608h.88v1.744h-.56a1.093,1.093,0,0,0-.752.208.929.929,0,0,0-.224.7v.928h1.712v1.712H33.856V0Zm6.368,3.52,1.84-4.048h-.48L36.448-7.936h2.224L40.9-2.352l2.32-5.584h2.176L40.352,3.52ZM50.592,0V-11.2h4.144a4.884,4.884,0,0,1,2.224.448A3,3,0,0,1,58.272-9.52,3.585,3.585,0,0,1,58.7-7.76a3.549,3.549,0,0,1-.416,1.7,3.057,3.057,0,0,1-1.3,1.248,4.751,4.751,0,0,1-2.256.472h-2.1V0ZM52.64-6h1.968a2.123,2.123,0,0,0,1.544-.472,1.74,1.74,0,0,0,.472-1.288,1.762,1.762,0,0,0-.472-1.3,2.123,2.123,0,0,0-1.544-.472H52.64ZM62.5.192a3.754,3.754,0,0,1-1.68-.328,2.27,2.27,0,0,1-.976-.872,2.323,2.323,0,0,1-.32-1.2A2.183,2.183,0,0,1,60.384-4a4.109,4.109,0,0,1,2.592-.688h2.016V-4.88a1.469,1.469,0,0,0-.464-1.2,1.747,1.747,0,0,0-1.152-.384,1.979,1.979,0,0,0-1.088.3,1.274,1.274,0,0,0-.576.872h-2A2.791,2.791,0,0,1,60.3-6.8a3.269,3.269,0,0,1,1.3-.984,4.493,4.493,0,0,1,1.792-.344,3.937,3.937,0,0,1,2.672.848,3.009,3.009,0,0,1,.976,2.4V0H65.3L65.1-1.28A2.958,2.958,0,0,1,64.12-.224,2.9,2.9,0,0,1,62.5.192Zm.464-1.6a1.7,1.7,0,0,0,1.368-.576,2.8,2.8,0,0,0,.616-1.424H63.2a1.819,1.819,0,0,0-1.168.3.916.916,0,0,0-.352.728.839.839,0,0,0,.352.72A1.542,1.542,0,0,0,62.96-1.408ZM69.712,3.52l1.84-4.048h-.48L67.984-7.936h2.224l2.224,5.584,2.32-5.584h2.176L71.888,3.52ZM81.392.192A4.087,4.087,0,0,1,79.32-.336,3.877,3.877,0,0,1,77.864-1.8a4.286,4.286,0,0,1-.536-2.168,4.236,4.236,0,0,1,.544-2.168A3.935,3.935,0,0,1,79.336-7.6a4.087,4.087,0,0,1,2.072-.528,4.056,4.056,0,0,1,2.056.528A3.876,3.876,0,0,1,84.92-6.136a4.286,4.286,0,0,1,.536,2.168A4.286,4.286,0,0,1,84.92-1.8,3.859,3.859,0,0,1,83.456-.336,4.1,4.1,0,0,1,81.392.192Zm0-1.776a1.893,1.893,0,0,0,1.392-.6,2.441,2.441,0,0,0,.592-1.784,2.441,2.441,0,0,0-.592-1.784,1.875,1.875,0,0,0-1.376-.6,1.885,1.885,0,0,0-1.4.6,2.462,2.462,0,0,0-.584,1.784,2.462,2.462,0,0,0,.584,1.784A1.867,1.867,0,0,0,81.392-1.584ZM90.256.192a2.881,2.881,0,0,1-2.3-.928,4.031,4.031,0,0,1-.808-2.72v-4.48h2.032v4.288A2.542,2.542,0,0,0,89.6-2.08a1.546,1.546,0,0,0,1.312.544,1.808,1.808,0,0,0,1.4-.608,2.432,2.432,0,0,0,.552-1.7v-4.1h2.048V0H93.1l-.16-1.344A2.79,2.79,0,0,1,91.88-.224,3.1,3.1,0,0,1,90.256.192ZM100.544,0a3.086,3.086,0,0,1-2-.608,2.644,2.644,0,0,1-.752-2.16V-6.224h-1.36V-7.936h1.36l.24-2.128H99.84v2.128h2.144v1.712H99.84v3.472a1.019,1.019,0,0,0,.248.792,1.312,1.312,0,0,0,.856.216h.992V0Z" transform="translate(1072 2766)" fill="#fff"/>
      </g>
    </g>
  </g>
</svg>
