<svg xmlns="http://www.w3.org/2000/svg" width="43.136" height="33.026" viewBox="0 0 43.136 33.026">
  <g id="Group_7872" data-name="Group 7872" transform="translate(-179.433 -3484.487)">
    <path id="Subtraction_5" data-name="Subtraction 5" d="M20.236,26.511H4.718A4.72,4.72,0,0,1,0,21.793V19.434H19.543a12.683,12.683,0,0,0-.221,2.359,12.52,12.52,0,0,0,.914,4.717Zm.244-10H0V4.718A4.72,4.72,0,0,1,4.718,0H33.027a4.719,4.719,0,0,1,4.718,4.718v5.929A12.454,12.454,0,0,0,33.027,9.26v-1a1.18,1.18,0,0,0-1.179-1.179H27.128a1.18,1.18,0,0,0-1.179,1.179v2.359c0,.03,0,.06,0,.089a12.693,12.693,0,0,0-5.472,5.808Z" transform="translate(179.433 3484.487)" fill="#85e6c4"/>
    <path id="Subtraction_6" data-name="Subtraction 6" d="M11.234,22.467A11.233,11.233,0,0,1,3.291,3.29,11.233,11.233,0,0,1,19.177,19.176,11.159,11.159,0,0,1,11.234,22.467Zm1.6-14.106A2.033,2.033,0,0,0,10.874,9.6a3.259,3.259,0,0,0-.269,1.359,3.25,3.25,0,0,0,.269,1.363,2.142,2.142,0,0,0,3.918,0,3.243,3.243,0,0,0,.271-1.363A3.252,3.252,0,0,0,14.792,9.6a2.032,2.032,0,0,0-1.959-1.243Zm-5.1,0A2.032,2.032,0,0,0,5.77,9.6a3.266,3.266,0,0,0-.27,1.359,3.257,3.257,0,0,0,.27,1.363,2.142,2.142,0,0,0,3.918,0,3.25,3.25,0,0,0,.27-1.363A3.259,3.259,0,0,0,9.688,9.6,2.032,2.032,0,0,0,7.729,8.361Zm-4,1.136h0V13.48h.957V8.447H4.12L2.9,8.987v.7L3.73,9.5Zm12.057,1.516v.769H17.14v1.244h.783V11.783h1.344v-.769H17.923V9.77H17.14v1.243Zm-2.955,1.726a1.115,1.115,0,0,1-.93-.474,2.131,2.131,0,0,1-.356-1.3,2.126,2.126,0,0,1,.356-1.3,1.146,1.146,0,0,1,1.858,0,2.116,2.116,0,0,1,.359,1.3,2.122,2.122,0,0,1-.359,1.3A1.12,1.12,0,0,1,12.833,12.739Zm-5.1,0a1.119,1.119,0,0,1-.932-.474,2.138,2.138,0,0,1-.355-1.3,2.133,2.133,0,0,1,.355-1.3,1.147,1.147,0,0,1,1.859,0,2.117,2.117,0,0,1,.359,1.3,2.122,2.122,0,0,1-.359,1.3A1.12,1.12,0,0,1,7.729,12.739Z" transform="translate(200.102 3495.047)" fill="#6d44e5"/>
  </g>
</svg>
