<svg xmlns="http://www.w3.org/2000/svg" width="31.5" height="36" viewBox="0 0 31.5 36">
  <g id="Group_8516" data-name="Group 8516" transform="translate(-145 -499)">
    <path id="Path_15141" data-name="Path 15141" d="M16.383,0A30.63,30.63,0,0,0,9.8,1.26C7.3,1.935,4.78,2.734,3.3,3.217A3.465,3.465,0,0,0,.95,6.057C-.391,16.13,2.721,23.6,6.5,28.535a26.5,26.5,0,0,0,5.663,5.519,15.948,15.948,0,0,0,2.358,1.406,4.772,4.772,0,0,0,1.865.54,4.783,4.783,0,0,0,1.865-.54,16.1,16.1,0,0,0,2.358-1.406,26.492,26.492,0,0,0,5.663-5.519c3.775-4.939,6.887-12.4,5.546-22.477a3.467,3.467,0,0,0-2.349-2.842q-3.224-1.057-6.5-1.958A30.886,30.886,0,0,0,16.383,0Zm0,11.25a3.375,3.375,0,0,1,1.125,6.559l.866,4.477a1.125,1.125,0,0,1-1.1,1.339H15.5a1.125,1.125,0,0,1-1.1-1.339l.864-4.477a3.375,3.375,0,0,1,1.125-6.559Z" transform="translate(144.367 499)" fill="#85e6c4" fill-rule="evenodd"/>
    <path id="Intersection_14" data-name="Intersection 14" d="M-7828.249-11356.376h.885a1.166,1.166,0,0,0,.48-.105,1.11,1.11,0,0,0,.388-.3,1.136,1.136,0,0,0,.223-.439,1.141,1.141,0,0,0,.015-.491l-.869-4.476a3.377,3.377,0,0,0,1.791-1.474,3.375,3.375,0,0,0,.417-2.282,3.372,3.372,0,0,0-1.154-2.011,3.372,3.372,0,0,0-2.176-.794V-11380a30.88,30.88,0,0,1,6.586,1.259q3.272.9,6.5,1.957a3.45,3.45,0,0,1,1.583,1.082,3.433,3.433,0,0,1,.765,1.76,35.573,35.573,0,0,1,.317,4.485v.389a28.815,28.815,0,0,1-5.864,17.6,26.482,26.482,0,0,1-5.663,5.521,16.122,16.122,0,0,1-2.356,1.405,4.794,4.794,0,0,1-1.865.539Z" transform="translate(7988.998 11879)" fill="#6d44e5"/>
  </g>
</svg>
