<svg xmlns="http://www.w3.org/2000/svg" width="36" height="36" viewBox="0 0 36 36">
  <g id="Group_8518" data-name="Group 8518" transform="translate(-897 -499)">
    <path id="Path_15143" data-name="Path 15143" d="M18,0A18.02,18.02,0,0,0,0,18v7.457A3.482,3.482,0,0,0,3.6,28.8H5.4A1.8,1.8,0,0,0,7.2,27V17.743a1.8,1.8,0,0,0-1.8-1.8H3.766a14.379,14.379,0,0,1,28.469,0H30.6a1.8,1.8,0,0,0-1.8,1.8V28.8a3.6,3.6,0,0,1-3.6,3.6H21.6V30.6H14.4V36H25.2a7.207,7.207,0,0,0,7.2-7.2A3.482,3.482,0,0,0,36,25.457V18A18.02,18.02,0,0,0,18,0Z" transform="translate(897 499)" fill="#85e6c4"/>
    <path id="Path_15144" data-name="Path 15144" d="M28.8,28.8a3.6,3.6,0,0,1-3.6,3.6H21.6V30.6H14.4V36H25.2a7.207,7.207,0,0,0,7.2-7.2Z" transform="translate(897 499)" fill="#6d44e5"/>
  </g>
</svg>
