<svg xmlns="http://www.w3.org/2000/svg" width="38.012" height="38" viewBox="0 0 38.012 38">
  <g id="Group_8514" data-name="Group 8514" transform="translate(-145 -255)">
    <path id="Path_6572" data-name="Path 6572" d="M37.979,2.182,36,.207A.366.366,0,0,0,35.739.1a.385.385,0,0,0-.266.107L31.928,3.752A9.327,9.327,0,0,0,20.114,4.884L15.367,9.631a.374.374,0,0,0,0,.526L28.024,22.815a.366.366,0,0,0,.266.107.394.394,0,0,0,.266-.107L33.3,18.068A9.327,9.327,0,0,0,34.434,6.259l3.545-3.545a.38.38,0,0,0,0-.531ZM22.2,20.719a.374.374,0,0,0-.526,0l-3.1,3.1L14.36,19.615l3.107-3.107a.374.374,0,0,0,0-.526l-1.7-1.7a.374.374,0,0,0-.526,0l-3.107,3.107-2-2a.366.366,0,0,0-.266-.107.394.394,0,0,0-.266.107L4.861,20.137A9.326,9.326,0,0,0,3.729,31.946L.184,35.491a.374.374,0,0,0,0,.526l1.975,1.975a.366.366,0,0,0,.266.107.385.385,0,0,0,.266-.107l3.545-3.545A9.327,9.327,0,0,0,18.05,33.316L22.8,28.569a.374.374,0,0,0,0-.526l-2-2L23.9,22.932a.374.374,0,0,0,0-.526L22.2,20.719Z" transform="translate(144.924 254.9)" fill="#85e6c4"/>
    <path id="Path_15134" data-name="Path 15134" d="M37.979,2.182,36,.207A.366.366,0,0,0,35.739.1a.385.385,0,0,0-.266.107L31.928,3.752A9.327,9.327,0,0,0,20.114,4.884L15.367,9.631a.374.374,0,0,0,0,.526L28.024,22.815a.366.366,0,0,0,.266.107.394.394,0,0,0,.266-.107L33.3,18.068A9.327,9.327,0,0,0,34.434,6.259l3.545-3.545a.38.38,0,0,0,0-.531Z" transform="translate(144.924 254.9)" fill="#6d44e5"/>
  </g>
</svg>
