<svg xmlns="http://www.w3.org/2000/svg" width="42" height="25.198" viewBox="0 0 42 25.198">
  <g id="Group_8517" data-name="Group 8517" transform="translate(-521 -509.801)">
    <path id="Path_15139" data-name="Path 15139" d="M21.223,1.391,14.871,6.536a2.551,2.551,0,0,0,3.17,4l6.517-5.066a1.052,1.052,0,1,1,1.293,1.66L24.478,8.19l9.122,8.4V4.2h-.046L33.3,4.036,28.534.984a6.269,6.269,0,0,0-7.311.407Zm1.5,8.164-3.393,2.638a4.65,4.65,0,0,1-5.782-7.284L19.005.492a6.264,6.264,0,0,0-5.88.558L8.4,4.2V18.9h1.851l6,5.473a3.146,3.146,0,0,0,4.449-.2,3.209,3.209,0,0,0,.728-1.352l1.116,1.024a3.148,3.148,0,0,0,5.1-1.273,3.152,3.152,0,0,0,3.885-4.942L22.719,9.555ZM6.3,4.2H0V18.9A2.1,2.1,0,0,0,2.1,21H4.2a2.1,2.1,0,0,0,2.1-2.1ZM3.15,18.9A1.05,1.05,0,1,1,4.2,17.85,1.053,1.053,0,0,1,3.15,18.9ZM35.7,4.2V18.9A2.1,2.1,0,0,0,37.8,21h2.1A2.1,2.1,0,0,0,42,18.9V4.2Zm4.2,13.65a1.05,1.05,0,1,1-1.05-1.05A1.053,1.053,0,0,1,39.9,17.85Z" transform="translate(521 509.801)" fill="#6d44e5"/>
    <path id="Path_15140" data-name="Path 15140" d="M22.719,9.555l-3.393,2.638a4.65,4.65,0,0,1-5.782-7.284L19.005.492a6.264,6.264,0,0,0-5.88.558L8.4,4.2V18.9h1.851l6,5.473a3.146,3.146,0,0,0,4.449-.2,3.209,3.209,0,0,0,.728-1.352l1.116,1.024a3.148,3.148,0,0,0,5.1-1.273,3.152,3.152,0,0,0,3.885-4.942L22.719,9.555ZM6.3,4.2H0V18.9A2.1,2.1,0,0,0,2.1,21H4.2a2.1,2.1,0,0,0,2.1-2.1ZM3.15,18.9A1.05,1.05,0,1,1,4.2,17.85,1.053,1.053,0,0,1,3.15,18.9Z" transform="translate(521 509.801)" fill="#85e6c4"/>
  </g>
</svg>
