<svg xmlns="http://www.w3.org/2000/svg" width="32" height="32" viewBox="0 0 32 32">
  <g id="Group_8515" data-name="Group 8515" transform="translate(-521 -261)">
    <path id="Path_14116" data-name="Path 14116" d="M17.778,8.889V1.778A1.722,1.722,0,0,1,18.29.51,1.719,1.719,0,0,1,19.556,0H30.222a1.719,1.719,0,0,1,1.266.51A1.722,1.722,0,0,1,32,1.778V8.889a1.749,1.749,0,0,1-1.778,1.778H19.556a1.749,1.749,0,0,1-1.778-1.778ZM0,16V1.778A1.722,1.722,0,0,1,.512.51,1.719,1.719,0,0,1,1.778,0H12.444a1.743,1.743,0,0,1,1.778,1.778V16a1.746,1.746,0,0,1-1.778,1.778H1.778a1.716,1.716,0,0,1-1.266-.512A1.716,1.716,0,0,1,0,16ZM17.778,30.222V16a1.746,1.746,0,0,1,1.778-1.778H30.222A1.746,1.746,0,0,1,32,16V30.222A1.749,1.749,0,0,1,30.222,32H19.556a1.749,1.749,0,0,1-1.778-1.778ZM0,30.222V23.111a1.746,1.746,0,0,1,1.778-1.778H12.444a1.743,1.743,0,0,1,1.778,1.778v7.111A1.746,1.746,0,0,1,12.444,32H1.778a1.716,1.716,0,0,1-1.266-.512A1.716,1.716,0,0,1,0,30.222Z" transform="translate(521 261)" fill="#85e6c4"/>
    <path id="Path_15135" data-name="Path 15135" d="M0,16V1.778A1.722,1.722,0,0,1,.512.51,1.719,1.719,0,0,1,1.778,0H12.444a1.743,1.743,0,0,1,1.778,1.778V16a1.746,1.746,0,0,1-1.778,1.778H1.778a1.716,1.716,0,0,1-1.266-.512A1.716,1.716,0,0,1,0,16ZM17.778,30.222V16a1.746,1.746,0,0,1,1.778-1.778H30.222A1.746,1.746,0,0,1,32,16V30.222A1.749,1.749,0,0,1,30.222,32H19.556a1.749,1.749,0,0,1-1.778-1.778Z" transform="translate(521 261)" fill="#6d44e5"/>
  </g>
</svg>
