<svg xmlns="http://www.w3.org/2000/svg" xmlns:xlink="http://www.w3.org/1999/xlink" width="720" height="280" viewBox="0 0 720 280">
  <defs>
    <filter id="Ellipse_349" x="26" y="95" width="90" height="90" filterUnits="userSpaceOnUse">
      <feOffset input="SourceAlpha"/>
      <feGaussianBlur stdDeviation="5" result="blur"/>
      <feFlood flood-opacity="0.161"/>
      <feComposite operator="in" in2="blur"/>
      <feComposite in="SourceGraphic"/>
    </filter>
    <filter id="Ellipse_6036" x="26" y="95" width="90" height="90" filterUnits="userSpaceOnUse">
      <feOffset input="SourceAlpha"/>
      <feGaussianBlur stdDeviation="5" result="blur-2"/>
      <feFlood flood-opacity="0.078"/>
      <feComposite operator="in" in2="blur-2"/>
      <feComposite in="SourceGraphic"/>
    </filter>
    <clipPath id="clip-path">
      <path id="Path_18507" data-name="Path 18507" d="M30,0A30,30,0,1,0,60,30,30,30,0,0,0,30,0Z" fill="none"/>
    </clipPath>
    <clipPath id="clip-path-2">
      <rect id="Rectangle_6289" data-name="Rectangle 6289" width="11.489" height="6.717" fill="none"/>
    </clipPath>
    <filter id="Path_23737" x="162" y="95" width="90" height="90" filterUnits="userSpaceOnUse">
      <feOffset input="SourceAlpha"/>
      <feGaussianBlur stdDeviation="5" result="blur-3"/>
      <feFlood flood-opacity="0.078"/>
      <feComposite operator="in" in2="blur-3"/>
      <feComposite in="SourceGraphic"/>
    </filter>
    <filter id="Path_23741" x="308" y="95" width="90" height="90" filterUnits="userSpaceOnUse">
      <feOffset input="SourceAlpha"/>
      <feGaussianBlur stdDeviation="5" result="blur-4"/>
      <feFlood flood-opacity="0.078"/>
      <feComposite operator="in" in2="blur-4"/>
      <feComposite in="SourceGraphic"/>
    </filter>
    <filter id="Ellipse_6032" x="502" y="95" width="90" height="90" filterUnits="userSpaceOnUse">
      <feOffset input="SourceAlpha"/>
      <feGaussianBlur stdDeviation="5" result="blur-5"/>
      <feFlood flood-opacity="0.078"/>
      <feComposite operator="in" in2="blur-5"/>
      <feComposite in="SourceGraphic"/>
    </filter>
    <clipPath id="clip-path-3">
      <path id="Path_18462" data-name="Path 18462" d="M30,0A30,30,0,1,0,60,30,30,30,0,0,0,30,0Z" transform="translate(0 0.001)" fill="none" stroke="rgba(0,0,0,0)" stroke-width="1"/>
    </clipPath>
    <clipPath id="clip-path-4">
      <rect id="Rectangle_6280" data-name="Rectangle 6280" width="11.489" height="6.717" fill="none" stroke="rgba(0,0,0,0)" stroke-width="1"/>
    </clipPath>
    <clipPath id="clip-path-5">
      <rect id="Rectangle_6281" data-name="Rectangle 6281" width="6.861" height="7.169" fill="none" stroke="rgba(0,0,0,0)" stroke-width="1"/>
    </clipPath>
    <filter id="Path_23738" x="502" y="190" width="90" height="90" filterUnits="userSpaceOnUse">
      <feOffset input="SourceAlpha"/>
      <feGaussianBlur stdDeviation="5" result="blur-6"/>
      <feFlood flood-opacity="0.078"/>
      <feComposite operator="in" in2="blur-6"/>
      <feComposite in="SourceGraphic"/>
    </filter>
    <filter id="Path_23740" x="502" y="0" width="90" height="90" filterUnits="userSpaceOnUse">
      <feOffset input="SourceAlpha"/>
      <feGaussianBlur stdDeviation="5" result="blur-7"/>
      <feFlood flood-opacity="0.078"/>
      <feComposite operator="in" in2="blur-7"/>
      <feComposite in="SourceGraphic"/>
    </filter>
    <clipPath id="clip-path-7">
      <rect id="Rectangle_6286" data-name="Rectangle 6286" width="11.489" height="6.716" fill="none" stroke="rgba(0,0,0,0)" stroke-width="1"/>
    </clipPath>
  </defs>
  <g id="Group_18814" data-name="Group 18814" transform="translate(-511 -1394)">
    <path id="Path_24128" data-name="Path 24128" d="M0,0H720V260H0Z" transform="translate(511 1406)" fill="none"/>
    <g id="Group_18484" data-name="Group 18484" transform="translate(0 63)">
      <path id="Path_24124" data-name="Path 24124" d="M-30.4.192a5.344,5.344,0,0,1-2.84-.728,4.908,4.908,0,0,1-1.848-2.032A6.663,6.663,0,0,1-35.744-5.6a6.625,6.625,0,0,1,.656-3.016,4.962,4.962,0,0,1,1.848-2.04,5.3,5.3,0,0,1,2.84-.736,5.022,5.022,0,0,1,3.128.92A4.137,4.137,0,0,1-25.728-7.9h-1.488a2.985,2.985,0,0,0-1.048-1.672,3.33,3.33,0,0,0-2.136-.632,3.915,3.915,0,0,0-2.1.552A3.627,3.627,0,0,0-33.88-8.072,5.74,5.74,0,0,0-34.368-5.6a5.74,5.74,0,0,0,.488,2.472A3.627,3.627,0,0,0-32.5-1.544a3.915,3.915,0,0,0,2.1.552,3.39,3.39,0,0,0,2.136-.616,2.9,2.9,0,0,0,1.048-1.64h1.488A4.085,4.085,0,0,1-27.272-.72,5.053,5.053,0,0,1-30.4.192Zm9.424,0a2.98,2.98,0,0,1-2.24-.856A3.65,3.65,0,0,1-24.048-3.3v-4.64H-22.7v4.5q0,2.48,2.032,2.48a2.229,2.229,0,0,0,1.72-.744,3.032,3.032,0,0,0,.68-2.12V-7.936h1.344V0h-1.216l-.1-1.424a2.763,2.763,0,0,1-1.1,1.184A3.152,3.152,0,0,1-20.976.192Zm9.3,0a3.792,3.792,0,0,1-2.368-.72,2.807,2.807,0,0,1-1.1-1.952h1.376a1.9,1.9,0,0,0,.664,1.08,2.161,2.161,0,0,0,1.448.456,1.826,1.826,0,0,0,1.248-.36,1.115,1.115,0,0,0,.4-.856.95.95,0,0,0-.52-.96A6.921,6.921,0,0,0-12-3.552a8.252,8.252,0,0,1-1.28-.368,2.908,2.908,0,0,1-1.072-.68,1.584,1.584,0,0,1-.432-1.16,2.141,2.141,0,0,1,.776-1.7,3.129,3.129,0,0,1,2.1-.664A3.263,3.263,0,0,1-9.832-7.5,2.522,2.522,0,0,1-8.9-5.7h-1.328a1.384,1.384,0,0,0-.52-.952,1.858,1.858,0,0,0-1.176-.344,1.78,1.78,0,0,0-1.112.3.964.964,0,0,0-.392.8.831.831,0,0,0,.5.752,5.411,5.411,0,0,0,1.368.464,11.916,11.916,0,0,1,1.4.392,2.646,2.646,0,0,1,1.088.688,1.87,1.87,0,0,1,.424,1.32A2.168,2.168,0,0,1-9.448-.5,3.348,3.348,0,0,1-11.68.192ZM-3.936,0A2.568,2.568,0,0,1-5.648-.528a2.4,2.4,0,0,1-.624-1.9V-6.8H-7.648V-7.936h1.376l.176-1.9h1.168v1.9h2.336V-6.8H-4.928v4.368a1.32,1.32,0,0,0,.3,1.016,1.657,1.657,0,0,0,1.072.264h.832V0ZM2.512.192A3.99,3.99,0,0,1,.5-.32,3.7,3.7,0,0,1-.92-1.768a4.459,4.459,0,0,1-.52-2.2,4.4,4.4,0,0,1,.528-2.2A3.737,3.737,0,0,1,.52-7.616a4.034,4.034,0,0,1,2.024-.512,3.99,3.99,0,0,1,2.016.512A3.7,3.7,0,0,1,5.976-6.168a4.459,4.459,0,0,1,.52,2.2,4.4,4.4,0,0,1-.528,2.2A3.737,3.737,0,0,1,4.536-.32,4.034,4.034,0,0,1,2.512.192Zm0-1.152A2.55,2.55,0,0,0,3.792-1.3,2.506,2.506,0,0,0,4.752-2.3,3.428,3.428,0,0,0,5.12-3.968a3.491,3.491,0,0,0-.36-1.664A2.454,2.454,0,0,0,3.808-6.64a2.52,2.52,0,0,0-1.264-.336,2.55,2.55,0,0,0-1.28.336A2.506,2.506,0,0,0,.3-5.632,3.428,3.428,0,0,0-.064-3.968,3.428,3.428,0,0,0,.3-2.3,2.525,2.525,0,0,0,1.256-1.3,2.477,2.477,0,0,0,2.512-.96ZM8.368,0V-7.936H9.584l.1,1.152A2.688,2.688,0,0,1,10.7-7.776a2.938,2.938,0,0,1,1.44-.352,3.251,3.251,0,0,1,1.624.384,2.526,2.526,0,0,1,1.048,1.168A3.038,3.038,0,0,1,15.96-7.712a3.123,3.123,0,0,1,1.576-.416,3.054,3.054,0,0,1,2.272.856,3.606,3.606,0,0,1,.848,2.632V0H19.328V-4.5a2.941,2.941,0,0,0-.5-1.856,1.712,1.712,0,0,0-1.424-.624,2,2,0,0,0-1.592.744,3.184,3.184,0,0,0-.632,2.12V0H13.84V-4.5a2.941,2.941,0,0,0-.5-1.856,1.712,1.712,0,0,0-1.424-.624,1.985,1.985,0,0,0-1.576.744,3.184,3.184,0,0,0-.632,2.12V0ZM26.256.192a3.887,3.887,0,0,1-2.016-.52,3.692,3.692,0,0,1-1.384-1.448,4.526,4.526,0,0,1-.5-2.192,4.6,4.6,0,0,1,.5-2.184,3.606,3.606,0,0,1,1.384-1.456,3.993,3.993,0,0,1,2.056-.52,3.708,3.708,0,0,1,1.992.52A3.523,3.523,0,0,1,29.568-6.24a3.846,3.846,0,0,1,.448,1.824q0,.176-.008.352t-.008.4H23.68A3.118,3.118,0,0,0,24.1-2.152a2.506,2.506,0,0,0,.944.9,2.523,2.523,0,0,0,1.208.3,2.4,2.4,0,0,0,1.392-.384,2.2,2.2,0,0,0,.816-1.04h1.328A3.582,3.582,0,0,1,28.568-.536,3.57,3.57,0,0,1,26.256.192Zm0-7.184a2.684,2.684,0,0,0-1.7.584A2.353,2.353,0,0,0,23.7-4.7h4.992a2.27,2.27,0,0,0-.736-1.68A2.469,2.469,0,0,0,26.256-6.992ZM31.792,0V-7.936h1.216l.112,1.52a2.877,2.877,0,0,1,1.12-1.248A3.472,3.472,0,0,1,36.1-8.128V-6.72h-.368a3.321,3.321,0,0,0-1.3.248,1.968,1.968,0,0,0-.944.84A3.2,3.2,0,0,0,33.136-4V0Z" transform="translate(582 1523)" fill="#2a2a2a"/>
      <g transform="matrix(1, 0, 0, 1, 511, 1331)" filter="url(#Ellipse_349)">
        <circle id="Ellipse_349-2" data-name="Ellipse 349" cx="30" cy="30" r="30" transform="translate(41 110)" fill="#fff"/>
      </g>
      <g id="sm_4" data-name="sm 4" transform="translate(-505 1141)">
        <g transform="matrix(1, 0, 0, 1, 1016, 190)" filter="url(#Ellipse_6036)">
          <circle id="Ellipse_6036-2" data-name="Ellipse 6036" cx="30" cy="30" r="30" transform="translate(41 110)" fill="#d3c6f7"/>
        </g>
        <g id="Group_18749" data-name="Group 18749" transform="translate(1057 300)">
          <g id="Group_18748" data-name="Group 18748" clip-path="url(#clip-path)">
            <path id="Path_18494" data-name="Path 18494" d="M27.712,48.006c-.169.247-.683,21.109,2.983,25.38h20.75s5.667-16.016,1.806-25.38H27.589" transform="translate(-11.773 -20.486)" fill="#170e04"/>
            <rect id="Rectangle_6288" data-name="Rectangle 6288" width="11.489" height="7.741" transform="translate(24.255 38.987)" fill="#faac8d"/>
            <g id="Group_18747" data-name="Group 18747" transform="translate(24.255 38.987)" style="mix-blend-mode: multiply;isolation: isolate">
              <g id="Group_18746" data-name="Group 18746">
                <g id="Group_18745" data-name="Group 18745" clip-path="url(#clip-path-2)">
                  <path id="Path_18495" data-name="Path 18495" d="M45.1,73.608a15.45,15.45,0,0,0,5.494,1.118,17.811,17.811,0,0,0,3.208-.311V68.009H42.312v4a9.573,9.573,0,0,0,2.787,1.6" transform="translate(-42.312 -68.009)" fill="#e0e1e3"/>
                </g>
              </g>
            </g>
            <path id="Path_18496" data-name="Path 18496" d="M73.526,41.825c.04-.285.523-.749.734-.905a.7.7,0,0,1,1.085.463,5.9,5.9,0,0,1,.164,1.286,5.655,5.655,0,0,1-.547,2.964A3.972,3.972,0,0,1,73.6,47.143a.488.488,0,0,1-.74-.4s.67-4.916.67-4.919" transform="translate(-31.091 -17.402)" fill="#faac8d"/>
            <path id="Path_18497" data-name="Path 18497" d="M73.5,43.122c.028-.2.373-.535.525-.648a.5.5,0,0,1,.777.332,4.231,4.231,0,0,1,.118.92,4.053,4.053,0,0,1-.392,2.121,2.843,2.843,0,0,1-.978,1.081.349.349,0,0,1-.53-.285s.479-3.518.48-3.52" transform="translate(-31.159 -18.083)" fill="#d5947b"/>
            <path id="Path_18498" data-name="Path 18498" d="M28.64,41.825c-.039-.285-.523-.749-.734-.905-.472-.349-.948.01-1.085.463a5.972,5.972,0,0,0-.165,1.286,5.661,5.661,0,0,0,.547,2.964,3.972,3.972,0,0,0,1.367,1.511.488.488,0,0,0,.74-.4s-.67-4.916-.67-4.919" transform="translate(-11.368 -17.402)" fill="#faac8d"/>
            <path id="Path_18499" data-name="Path 18499" d="M29.235,43.122c-.028-.2-.373-.535-.525-.648a.5.5,0,0,0-.776.332,4.266,4.266,0,0,0-.118.92,4.058,4.058,0,0,0,.392,2.121,2.846,2.846,0,0,0,.979,1.081.349.349,0,0,0,.53-.285s-.48-3.518-.481-3.52" transform="translate(-11.865 -18.083)" fill="#d5947b"/>
            <path id="Path_18500" data-name="Path 18500" d="M55.607,31.5a19.485,19.485,0,0,1-2.09,9.33,18.594,18.594,0,0,1-5.5,5.989C46.275,48.094,44.4,49.578,42.19,49.4c-2.3-.189-4.1-2.154-5.784-3.687a20.053,20.053,0,0,1-5.389-7.984A18.448,18.448,0,0,1,29.981,31.5c0-10.484,5.737-17.079,12.813-17.079S55.607,21.018,55.607,31.5" transform="translate(-12.794 -6.155)" fill="#faac8d"/>
            <path id="Path_18501" data-name="Path 18501" d="M52.018,84.832,39.543,81.088H29.534L17.059,84.832s-5.781,2.458-6.424,10.24H58.442c-.643-7.781-6.424-10.24-6.424-10.24" transform="translate(-4.538 -34.604)" fill="#faac8d"/>
            <path id="Path_18502" data-name="Path 18502" d="M56.345,84.964l-3.188-.957L42.576,94.58,31.965,84.017l-2.494.748s.934,3.771.292,11.553H55.677c-.643-7.782.668-11.353.668-11.353" transform="translate(-12.577 -35.849)" fill="#00adb9"/>
            <path id="Path_18503" data-name="Path 18503" d="M31.3,24.872s3.034,1.54,10.918,1.95l1.725-5.6.41,5.6a31.731,31.731,0,0,0,6.489-.493l.739-3.121.9,2.957S54.7,26,55.348,24.63c0,0-1.3-10.292-10.831-11.2,0,0-10.793.157-13.218,11.438" transform="translate(-13.357 -5.733)" fill="#33220e"/>
            <path id="Path_18504" data-name="Path 18504" d="M40.144,13c-.3-.144,1.213-2.048,1.3-2.136A8.684,8.684,0,0,1,48.094,8.7,14.835,14.835,0,0,1,61.423,18.779a25.4,25.4,0,0,1,1.472,6.508,184.536,184.536,0,0,1,0,28.136,62.893,62.893,0,0,0-.082,10.029s-5.174,1.224-4.928-8.678l.492-14.127.729-12.427s.339-5.807-1.961-6.875L40.144,13" transform="translate(-17.115 -3.705)" fill="#33220e"/>
            <path id="Path_18505" data-name="Path 18505" d="M39,13.234s-10.829.37-10.17,15.931l.649.89s3.46-9.232,9.045-11.286Z" transform="translate(-12.29 -5.648)" fill="#33220e"/>
            <path id="Path_18506" data-name="Path 18506" d="M32.633,68.668,28.426,69.93C26.1,62.8,27.367,49.245,27.367,49.245s.972,1.771,1.861,1.577a24.045,24.045,0,0,0,1.485,3.966c-.006,3.79.134,9.485,1.92,13.88" transform="translate(-11.532 -21.015)" fill="#33220e"/>
          </g>
        </g>
      </g>
    </g>
    <g id="Group_18486" data-name="Group 18486" transform="translate(0 63)">
      <path id="Path_24125" data-name="Path 24125" d="M-34.032,0V-11.2h1.568l4.032,7.808,4-7.808h1.584V0h-1.344V-8.8l-3.744,7.2h-1.008l-3.744-7.184V0Zm17.04.192a3.887,3.887,0,0,1-2.016-.52,3.692,3.692,0,0,1-1.384-1.448,4.526,4.526,0,0,1-.5-2.192,4.6,4.6,0,0,1,.5-2.184,3.606,3.606,0,0,1,1.384-1.456,3.993,3.993,0,0,1,2.056-.52,3.708,3.708,0,0,1,1.992.52A3.523,3.523,0,0,1-13.68-6.24a3.846,3.846,0,0,1,.448,1.824q0,.176-.008.352t-.008.4h-6.32a3.118,3.118,0,0,0,.424,1.512,2.506,2.506,0,0,0,.944.9,2.523,2.523,0,0,0,1.208.3A2.4,2.4,0,0,0-15.6-1.328a2.2,2.2,0,0,0,.816-1.04h1.328A3.582,3.582,0,0,1-14.68-.536,3.57,3.57,0,0,1-16.992.192Zm0-7.184a2.684,2.684,0,0,0-1.7.584,2.353,2.353,0,0,0-.856,1.7h4.992a2.27,2.27,0,0,0-.736-1.68A2.469,2.469,0,0,0-16.992-6.992ZM-11.456,0V-7.936h1.216l.112,1.52a2.877,2.877,0,0,1,1.12-1.248,3.472,3.472,0,0,1,1.856-.464V-6.72H-7.52a3.321,3.321,0,0,0-1.3.248,1.968,1.968,0,0,0-.944.84A3.2,3.2,0,0,0-10.112-4V0ZM-2.3.192a4.017,4.017,0,0,1-2.04-.52A3.738,3.738,0,0,1-5.768-1.784a4.424,4.424,0,0,1-.52-2.184,4.424,4.424,0,0,1,.52-2.184A3.738,3.738,0,0,1-4.344-7.608a4.017,4.017,0,0,1,2.04-.52,3.811,3.811,0,0,1,2.376.736A3.207,3.207,0,0,1,1.3-5.424H-.08A1.764,1.764,0,0,0-.864-6.568,2.6,2.6,0,0,0-2.32-6.976a2.52,2.52,0,0,0-1.264.336,2.506,2.506,0,0,0-.96,1.008,3.428,3.428,0,0,0-.368,1.664A3.428,3.428,0,0,0-4.544-2.3a2.564,2.564,0,0,0,.96,1.016A2.475,2.475,0,0,0-2.32-.944,2.6,2.6,0,0,0-.864-1.352,1.77,1.77,0,0,0-.08-2.512H1.3A3.177,3.177,0,0,1,.08-.56,3.789,3.789,0,0,1-2.3.192ZM3.168,0V-11.52H4.512v4.944A2.827,2.827,0,0,1,5.648-7.72a3.246,3.246,0,0,1,1.6-.408,2.939,2.939,0,0,1,2.208.856,3.65,3.65,0,0,1,.832,2.632V0H8.96V-4.5q0-2.48-2-2.48a2.3,2.3,0,0,0-1.744.744,2.966,2.966,0,0,0-.7,2.12V0ZM14.96.192a3.6,3.6,0,0,1-1.648-.336,2.284,2.284,0,0,1-.976-.9,2.409,2.409,0,0,1-.32-1.216,2.155,2.155,0,0,1,.928-1.872,4.309,4.309,0,0,1,2.528-.656h2.144v-.1a2.118,2.118,0,0,0-.544-1.576,1.984,1.984,0,0,0-1.456-.536,2.321,2.321,0,0,0-1.352.392,1.717,1.717,0,0,0-.712,1.144H12.176a2.547,2.547,0,0,1,.584-1.456,3.264,3.264,0,0,1,1.256-.9,4.133,4.133,0,0,1,1.6-.312,3.288,3.288,0,0,1,2.5.888,3.293,3.293,0,0,1,.84,2.36V0h-1.2l-.08-1.424A3.148,3.148,0,0,1,16.7-.28,2.887,2.887,0,0,1,14.96.192Zm.208-1.136a2.189,2.189,0,0,0,1.32-.4,2.553,2.553,0,0,0,.84-1.04,3.239,3.239,0,0,0,.288-1.344v-.016H15.584a2.638,2.638,0,0,0-1.672.408,1.272,1.272,0,0,0-.488,1.016,1.231,1.231,0,0,0,.456,1A1.972,1.972,0,0,0,15.168-.944ZM20.976,0V-7.936h1.216l.08,1.424a2.882,2.882,0,0,1,1.1-1.184,3.11,3.11,0,0,1,1.632-.432,3.006,3.006,0,0,1,2.248.856A3.628,3.628,0,0,1,28.1-4.64V0H26.752V-4.5q0-2.48-2.048-2.48a2.212,2.212,0,0,0-1.7.744,3.032,3.032,0,0,0-.68,2.12V0ZM33.264,0a2.568,2.568,0,0,1-1.712-.528,2.4,2.4,0,0,1-.624-1.9V-6.8H29.552V-7.936h1.376l.176-1.9h1.168v1.9h2.336V-6.8H32.272v4.368a1.32,1.32,0,0,0,.3,1.016,1.657,1.657,0,0,0,1.072.264h.832V0Z" transform="translate(718 1523)" fill="#2a2a2a"/>
      <g transform="matrix(1, 0, 0, 1, 511, 1331)" filter="url(#Path_23737)">
        <path id="Path_23737-2" data-name="Path 23737" d="M30,0A30,30,0,1,1,0,30,30,30,0,0,1,30,0Z" transform="translate(177 110)" fill="#a5cd39"/>
      </g>
      <g id="Big-Basket" transform="translate(524.522 1380.526)">
        <path id="Path_23734" data-name="Path 23734" d="M181.5,70.515a4.82,4.82,0,0,1,.776-.039h21.658a4.731,4.731,0,0,1,3.8,2.064,4.544,4.544,0,0,1,.7,1.667,6.645,6.645,0,0,1,.09,1.347V95.866a8.84,8.84,0,0,1-.11,1.9,4.693,4.693,0,0,1-4.758,3.657H181.955a4.641,4.641,0,0,1-4.425-3.974,10.05,10.05,0,0,1-.05-1.393V75.879a7.977,7.977,0,0,1,.105-1.76,4.65,4.65,0,0,1,3.918-3.6Z" transform="translate(0 0)" fill="#a5cd39" fill-rule="evenodd"/>
        <path id="Path_23735" data-name="Path 23735" d="M181.884,154q2.047,0,4.093,0c0,3.209-.006,6.418,0,9.627.126-.124.21-.282.327-.413a5.339,5.339,0,0,1,3.3-1.762,5.776,5.776,0,0,1,6.21,3,9.656,9.656,0,0,1,1,2.762,10.408,10.408,0,0,1-.337,5.428,7.17,7.17,0,0,1-1.288,2.415,6.137,6.137,0,0,1-1.716,1.485,5.72,5.72,0,0,1-2.832.656,7.6,7.6,0,0,1-2.777-.427,6.175,6.175,0,0,1-1-.543,2.66,2.66,0,0,1-.76-.722,2.73,2.73,0,0,1-.35-.64,1.879,1.879,0,0,1-.373,1.373,2.625,2.625,0,0,1-1.507.814,6.92,6.92,0,0,1-1.978.107c-.02-2.387,0-4.774-.008-7.161Q181.884,162,181.884,154Zm6.919,10.5a3.3,3.3,0,0,0-1.981,1.213,5.081,5.081,0,0,0-.962,2.241,6.251,6.251,0,0,0-.006,2.644,5.1,5.1,0,0,0,1.107,2.425,3.013,3.013,0,0,0,1.963,1.055,3.1,3.1,0,0,0,2.178-.462,3.576,3.576,0,0,0,1.085-1.423,6.908,6.908,0,0,0,.579-3.035,8.258,8.258,0,0,0-.359-2.312,4.221,4.221,0,0,0-1.157-1.775A3.091,3.091,0,0,0,188.8,164.5ZM177.49,183.318c.375,0,.75,0,1.125,0q0,1.3,0,2.6a1.477,1.477,0,0,1,.981-.578,1.549,1.549,0,0,1,1.406.414,2.223,2.223,0,0,1,.594,1.216,2.848,2.848,0,0,1-.3,1.882,1.561,1.561,0,0,1-1.088.784,1.927,1.927,0,0,1-1.232-.184.908.908,0,0,1-.412-.4.549.549,0,0,1-.209.422,1.415,1.415,0,0,1-.862.169C177.486,187.538,177.492,185.428,177.49,183.318Zm1.806,2.89a1.069,1.069,0,0,0-.691.859,1.737,1.737,0,0,0,.249,1.393.86.86,0,0,0,1.253.13,1.744,1.744,0,0,0,.336-1.488,1.169,1.169,0,0,0-.425-.778A.807.807,0,0,0,179.3,186.208Zm2.635-2.891h1.124c0,.313,0,.626,0,.939h-1.124C181.93,183.944,181.931,183.631,181.931,183.318Zm2.9,2.021a1.374,1.374,0,0,1,1.506.648.612.612,0,0,1,.312-.408,1.474,1.474,0,0,1,.775-.14q0,1.855,0,3.709a2.367,2.367,0,0,1-.169.968,1.8,1.8,0,0,1-1.45.95,2.436,2.436,0,0,1-1.718-.331,1.269,1.269,0,0,1-.57-.961c.372,0,.745,0,1.118,0a.688.688,0,0,0,.284.4,1.2,1.2,0,0,0,.852.1.825.825,0,0,0,.566-.722c.021-.26,0-.521.012-.781a1.207,1.207,0,0,1-.854.607,1.668,1.668,0,0,1-2.073-1.575,2.881,2.881,0,0,1,.147-1.412A1.672,1.672,0,0,1,184.833,185.338Zm.352.867a.785.785,0,0,0-.511.421,1.807,1.807,0,0,0-.139,1,.974.974,0,0,0,.68.919.9.9,0,0,0,.984-.443,1.779,1.779,0,0,0-.056-1.549A.851.851,0,0,0,185.185,186.205Zm-3.254-.765c.375,0,.75,0,1.125,0q0,2.11,0,4.219c-.375,0-.75,0-1.125,0Z" transform="translate(-0.011 -79.647)" fill="#ec1c24" fill-rule="evenodd"/>
        <path id="Path_23736" data-name="Path 23736" d="M406.543,154h2.481q0,3.724,0,7.448a4.511,4.511,0,0,0-2.482-.76Q406.543,157.34,406.543,154Zm3.426,8.163a5.852,5.852,0,0,1,2.915-.8A6.016,6.016,0,0,1,417,162.962a6.589,6.589,0,0,1,1.6,2.251,10.534,10.534,0,0,1,.758,5.3,11.292,11.292,0,0,1-.664,2.652,6.946,6.946,0,0,1-1.281,2.1,5.333,5.333,0,0,1-4.385,1.933,6.56,6.56,0,0,1-3.357-.718,8.456,8.456,0,0,0,1.516-1.623,4.1,4.1,0,0,0,2.529.083,3.391,3.391,0,0,0,1.663-1.15,5.677,5.677,0,0,0,1-2.062,9.648,9.648,0,0,0,.28-3.206,8.052,8.052,0,0,0-.72-2.872,3.963,3.963,0,0,0-1.517-1.722,3.886,3.886,0,0,0-3.125-.251A8.483,8.483,0,0,0,409.969,162.159Zm-6.719,21.159h.719c0,.882,0,1.764,0,2.646a1.355,1.355,0,0,1,.709-.572,1.638,1.638,0,0,1,1.654.387,2.257,2.257,0,0,1,.559,1.509,3.048,3.048,0,0,1-.408,1.671,1.645,1.645,0,0,1-2.035.609,1.28,1.28,0,0,1-.521-.52.514.514,0,0,1-.133.426c-.144.141-.36.1-.542.1Zm1.54,2.658a.9.9,0,0,0-.589.42,2.2,2.2,0,0,0-.271,1.045,1.906,1.906,0,0,0,.207,1.131,1.066,1.066,0,0,0,.958.511.973.973,0,0,0,.825-.5,2.307,2.307,0,0,0,.251-1.2,1.776,1.776,0,0,0-.314-1.093A1.108,1.108,0,0,0,404.79,185.976Zm10.112-2.658c.224,0,.448,0,.672,0q0,1.983,0,3.967.734-.721,1.473-1.436a.83.83,0,0,1,.615-.295.635.635,0,0,1,.4.179c-.455.463-.929.907-1.394,1.361.554.874,1.12,1.74,1.677,2.612h-.905q-.643-1.047-1.287-2.093c-.2.17-.39.345-.582.521,0,.524,0,1.048,0,1.572H414.9Q414.9,186.512,414.9,183.318Zm7.561,0h.695c0,.724,0,1.449,0,2.173a.836.836,0,0,1,.541.216.579.579,0,0,1,.137.371h-.679q0,1.329,0,2.658a.308.308,0,0,0,.135.3,1.312,1.312,0,0,0,.537.047q0,.28,0,.561a1.75,1.75,0,0,1-1.015-.036.751.751,0,0,1-.351-.69c0-.946,0-1.892,0-2.838h-.568v-.58h.568C422.462,184.771,422.462,184.044,422.462,183.318ZM407.7,185.687a2.047,2.047,0,0,1,1.38-.372,1.806,1.806,0,0,1,1.16.4.967.967,0,0,1,.287.7c0,.774,0,1.548,0,2.322,0,.117,0,.271.122.33a1.114,1.114,0,0,0,.342,0v.512a1.015,1.015,0,0,1-.869-.031.647.647,0,0,1-.25-.518,1.892,1.892,0,0,1-.962.611,1.646,1.646,0,0,1-1.434-.241,1.269,1.269,0,0,1,.158-1.988,3.723,3.723,0,0,1,1.391-.306,3.3,3.3,0,0,0,.64-.106.544.544,0,0,0,.174-.582.668.668,0,0,0-.581-.492,1.372,1.372,0,0,0-.971.111c-.2.126-.26.386-.462.51a.774.774,0,0,1-.538.112A1.35,1.35,0,0,1,407.7,185.687Zm1.233,2a1.925,1.925,0,0,0-.919.258.7.7,0,0,0-.1.875.877.877,0,0,0,.924.253,1.218,1.218,0,0,0,.973-.761,7.624,7.624,0,0,0,.02-.838A3.381,3.381,0,0,1,408.938,187.692Zm2.636-1.987a1.8,1.8,0,0,1,1.172-.392,1.886,1.886,0,0,1,1.056.27,1.259,1.259,0,0,1,.548.925.808.808,0,0,1-.608-.118c-.194-.109-.3-.342-.531-.392a1.485,1.485,0,0,0-1.091.074.5.5,0,0,0-.214.624.734.734,0,0,0,.46.279c.375.105.752.2,1.129.3a1.549,1.549,0,0,1,.819.455,1.113,1.113,0,0,1,.154.863,1.283,1.283,0,0,1-.708.911,2.392,2.392,0,0,1-1.433.162,1.517,1.517,0,0,1-.964-.486,1.593,1.593,0,0,1-.313-.944c.231,0,.463,0,.694,0a.851.851,0,0,0,.272.627,1.4,1.4,0,0,0,.964.218.927.927,0,0,0,.685-.314.574.574,0,0,0,.088-.486.625.625,0,0,0-.446-.337c-.447-.137-.908-.219-1.354-.357a1.035,1.035,0,0,1-.723-.664A1.244,1.244,0,0,1,411.574,185.7Zm7.063.2a1.811,1.811,0,0,1,1.247-.579,1.649,1.649,0,0,1,1.4.478,2.856,2.856,0,0,1,.585,1.924c-1.011,0-2.021,0-3.032,0a1.527,1.527,0,0,0,.328,1.025,1.142,1.142,0,0,0,.9.333,1.078,1.078,0,0,0,1.045-.826c.232,0,.464,0,.7,0a1.737,1.737,0,0,1-.769,1.17,1.96,1.96,0,0,1-1.207.274,1.737,1.737,0,0,1-1.259-.586,2.248,2.248,0,0,1-.489-1.5A2.537,2.537,0,0,1,418.637,185.9Zm.619.345a1.4,1.4,0,0,0-.413,1.166.962.962,0,0,1,.813-.245c.493,0,.986,0,1.479,0a1.55,1.55,0,0,0-.3-.871A1.135,1.135,0,0,0,419.255,186.245Z" transform="translate(-215.3 -79.647)" fill="#231f20" fill-rule="evenodd"/>
      </g>
    </g>
    <g id="Group_18487" data-name="Group 18487" transform="translate(0 63)">
      <path id="Path_24127" data-name="Path 24127" d="M-56.584,0V-11.2h6.928v1.1H-55.24v3.9h5.1V-5.1h-5.1v4h5.584V0ZM-45,.192a3.6,3.6,0,0,1-1.648-.336,2.284,2.284,0,0,1-.976-.9,2.409,2.409,0,0,1-.32-1.216,2.155,2.155,0,0,1,.928-1.872,4.309,4.309,0,0,1,2.528-.656h2.144v-.1a2.118,2.118,0,0,0-.544-1.576,1.984,1.984,0,0,0-1.456-.536A2.321,2.321,0,0,0-45.7-6.6a1.717,1.717,0,0,0-.712,1.144h-1.376A2.547,2.547,0,0,1-47.2-6.912a3.264,3.264,0,0,1,1.256-.9,4.133,4.133,0,0,1,1.6-.312,3.288,3.288,0,0,1,2.5.888A3.293,3.293,0,0,1-41-4.88V0h-1.2l-.08-1.424A3.148,3.148,0,0,1-43.264-.28,2.887,2.887,0,0,1-45,.192Zm.208-1.136a2.189,2.189,0,0,0,1.32-.4,2.553,2.553,0,0,0,.84-1.04,3.239,3.239,0,0,0,.288-1.344v-.016h-2.032a2.638,2.638,0,0,0-1.672.408,1.272,1.272,0,0,0-.488,1.016,1.231,1.231,0,0,0,.456,1A1.972,1.972,0,0,0-44.792-.944ZM-35.944.192a3.792,3.792,0,0,1-2.368-.72,2.807,2.807,0,0,1-1.1-1.952h1.376a1.9,1.9,0,0,0,.664,1.08,2.161,2.161,0,0,0,1.448.456A1.826,1.826,0,0,0-34.68-1.3a1.115,1.115,0,0,0,.4-.856.95.95,0,0,0-.52-.96,6.921,6.921,0,0,0-1.464-.432,8.252,8.252,0,0,1-1.28-.368,2.908,2.908,0,0,1-1.072-.68,1.584,1.584,0,0,1-.432-1.16,2.141,2.141,0,0,1,.776-1.7,3.129,3.129,0,0,1,2.1-.664A3.263,3.263,0,0,1-34.1-7.5a2.522,2.522,0,0,1,.936,1.8h-1.328a1.384,1.384,0,0,0-.52-.952,1.858,1.858,0,0,0-1.176-.344,1.78,1.78,0,0,0-1.112.3.964.964,0,0,0-.392.8.831.831,0,0,0,.5.752,5.411,5.411,0,0,0,1.368.464,11.916,11.916,0,0,1,1.4.392,2.646,2.646,0,0,1,1.088.688,1.87,1.87,0,0,1,.424,1.32A2.168,2.168,0,0,1-33.712-.5,3.348,3.348,0,0,1-35.944.192Zm8.528,0a3.887,3.887,0,0,1-2.016-.52,3.692,3.692,0,0,1-1.384-1.448,4.526,4.526,0,0,1-.5-2.192,4.6,4.6,0,0,1,.5-2.184A3.606,3.606,0,0,1-29.44-7.608a3.993,3.993,0,0,1,2.056-.52,3.708,3.708,0,0,1,1.992.52A3.523,3.523,0,0,1-24.1-6.24a3.846,3.846,0,0,1,.448,1.824q0,.176-.008.352t-.008.4h-6.32a3.118,3.118,0,0,0,.424,1.512,2.506,2.506,0,0,0,.944.9,2.523,2.523,0,0,0,1.208.3,2.4,2.4,0,0,0,1.392-.384,2.2,2.2,0,0,0,.816-1.04h1.328A3.582,3.582,0,0,1-25.1-.536,3.57,3.57,0,0,1-27.416.192Zm0-7.184a2.684,2.684,0,0,0-1.7.584,2.353,2.353,0,0,0-.856,1.7h4.992a2.27,2.27,0,0,0-.736-1.68A2.469,2.469,0,0,0-27.416-6.992ZM-17.64.192a3.671,3.671,0,0,1-1.736-.4,2.767,2.767,0,0,1-1.16-1.12L-20.664,0H-21.88V-11.52h1.344v4.9a3.746,3.746,0,0,1,1.1-1.04,3.267,3.267,0,0,1,1.816-.464,3.845,3.845,0,0,1,2.064.544A3.722,3.722,0,0,1-14.192-6.1,4.6,4.6,0,0,1-13.7-3.952a4.552,4.552,0,0,1-.488,2.136A3.661,3.661,0,0,1-15.568-.344,3.931,3.931,0,0,1-17.64.192Zm-.144-1.168a2.622,2.622,0,0,0,1.408-.376,2.646,2.646,0,0,0,.96-1.048,3.333,3.333,0,0,0,.352-1.568,3.333,3.333,0,0,0-.352-1.568,2.646,2.646,0,0,0-.96-1.048,2.622,2.622,0,0,0-1.408-.376,2.622,2.622,0,0,0-1.408.376,2.646,2.646,0,0,0-.96,1.048A3.333,3.333,0,0,0-20.5-3.968,3.333,3.333,0,0,0-20.152-2.4a2.646,2.646,0,0,0,.96,1.048A2.622,2.622,0,0,0-17.784-.976ZM-8.936.192a2.98,2.98,0,0,1-2.24-.856A3.65,3.65,0,0,1-12.008-3.3v-4.64h1.344v4.5q0,2.48,2.032,2.48A2.229,2.229,0,0,0-6.912-1.7a3.032,3.032,0,0,0,.68-2.12V-7.936h1.344V0H-6.1l-.1-1.424A2.763,2.763,0,0,1-7.3-.24,3.152,3.152,0,0,1-8.936.192ZM-3.224,0V-1.1L1.192-6.816H-3.144v-1.12H2.7v1.1L-1.72-1.12h4.5V0ZM4.008,0V-1.1L8.424-6.816H4.088v-1.12h5.84v1.1L5.512-1.12h4.5V0ZM19.672.192a4.811,4.811,0,0,1-2.144-.448A3.348,3.348,0,0,1,16.12-1.5a3.449,3.449,0,0,1-.5-1.856h1.408a2.463,2.463,0,0,0,.3,1.208,2.238,2.238,0,0,0,.888.88,2.922,2.922,0,0,0,1.448.328,2.594,2.594,0,0,0,1.76-.544,1.73,1.73,0,0,0,.624-1.36,1.836,1.836,0,0,0-.288-1.08,2.154,2.154,0,0,0-.776-.664,6.445,6.445,0,0,0-1.12-.448q-.632-.192-1.32-.432a4.714,4.714,0,0,1-1.92-1.112,2.432,2.432,0,0,1-.624-1.736,2.856,2.856,0,0,1,.416-1.592A2.932,2.932,0,0,1,17.648-11a4.2,4.2,0,0,1,1.88-.392,4.086,4.086,0,0,1,1.864.4,3.023,3.023,0,0,1,1.232,1.1,3.062,3.062,0,0,1,.456,1.6H21.672a1.957,1.957,0,0,0-.24-.92,1.874,1.874,0,0,0-.728-.744,2.376,2.376,0,0,0-1.224-.288,2.214,2.214,0,0,0-1.5.464A1.625,1.625,0,0,0,17.4-8.448a1.443,1.443,0,0,0,.408,1.1,3.089,3.089,0,0,0,1.144.632q.736.248,1.7.568a8.174,8.174,0,0,1,1.44.672,2.829,2.829,0,0,1,1,.992,3.011,3.011,0,0,1,.36,1.552,2.95,2.95,0,0,1-.416,1.512,3.091,3.091,0,0,1-1.256,1.16A4.437,4.437,0,0,1,19.672.192ZM25.272,0V-11.52h1.344V0ZM29.64-9.7a.9.9,0,0,1-.664-.264.9.9,0,0,1-.264-.664.855.855,0,0,1,.264-.64.915.915,0,0,1,.664-.256.923.923,0,0,1,.656.256.842.842,0,0,1,.272.64.887.887,0,0,1-.272.664A.908.908,0,0,1,29.64-9.7ZM28.968,0V-7.936h1.344V0ZM36.3.192a4.017,4.017,0,0,1-2.04-.52,3.738,3.738,0,0,1-1.424-1.456,4.424,4.424,0,0,1-.52-2.184,4.424,4.424,0,0,1,.52-2.184,3.738,3.738,0,0,1,1.424-1.456,4.017,4.017,0,0,1,2.04-.52,3.811,3.811,0,0,1,2.376.736A3.207,3.207,0,0,1,39.9-5.424H38.52a1.764,1.764,0,0,0-.784-1.144,2.6,2.6,0,0,0-1.456-.408,2.52,2.52,0,0,0-1.264.336,2.506,2.506,0,0,0-.96,1.008,3.428,3.428,0,0,0-.368,1.664A3.428,3.428,0,0,0,34.056-2.3a2.564,2.564,0,0,0,.96,1.016,2.475,2.475,0,0,0,1.264.344,2.6,2.6,0,0,0,1.456-.408,1.771,1.771,0,0,0,.784-1.16H39.9A3.177,3.177,0,0,1,38.68-.56,3.789,3.789,0,0,1,36.3.192Zm9.04,0a3.887,3.887,0,0,1-2.016-.52,3.692,3.692,0,0,1-1.384-1.448,4.526,4.526,0,0,1-.5-2.192,4.6,4.6,0,0,1,.5-2.184,3.606,3.606,0,0,1,1.384-1.456,3.993,3.993,0,0,1,2.056-.52,3.708,3.708,0,0,1,1.992.52A3.523,3.523,0,0,1,48.648-6.24,3.846,3.846,0,0,1,49.1-4.416q0,.176-.008.352t-.008.4H42.76a3.118,3.118,0,0,0,.424,1.512,2.506,2.506,0,0,0,.944.9,2.523,2.523,0,0,0,1.208.3,2.4,2.4,0,0,0,1.392-.384,2.2,2.2,0,0,0,.816-1.04h1.328A3.582,3.582,0,0,1,47.648-.536,3.57,3.57,0,0,1,45.336.192Zm0-7.184a2.684,2.684,0,0,0-1.7.584,2.353,2.353,0,0,0-.856,1.7h4.992a2.27,2.27,0,0,0-.736-1.68A2.469,2.469,0,0,0,45.336-6.992ZM53.912.192a3.792,3.792,0,0,1-2.368-.72,2.807,2.807,0,0,1-1.1-1.952h1.376A1.9,1.9,0,0,0,52.48-1.4a2.161,2.161,0,0,0,1.448.456,1.826,1.826,0,0,0,1.248-.36,1.115,1.115,0,0,0,.4-.856.95.95,0,0,0-.52-.96,6.921,6.921,0,0,0-1.464-.432,8.252,8.252,0,0,1-1.28-.368A2.908,2.908,0,0,1,51.24-4.6a1.584,1.584,0,0,1-.432-1.16,2.141,2.141,0,0,1,.776-1.7,3.129,3.129,0,0,1,2.1-.664A3.263,3.263,0,0,1,55.76-7.5,2.522,2.522,0,0,1,56.7-5.7H55.368a1.384,1.384,0,0,0-.52-.952,1.858,1.858,0,0,0-1.176-.344,1.78,1.78,0,0,0-1.112.3.964.964,0,0,0-.392.8.831.831,0,0,0,.5.752,5.411,5.411,0,0,0,1.368.464,11.916,11.916,0,0,1,1.4.392,2.646,2.646,0,0,1,1.088.688,1.87,1.87,0,0,1,.424,1.32A2.168,2.168,0,0,1,56.144-.5,3.348,3.348,0,0,1,53.912.192Z" transform="translate(864 1522)" fill="#2a2a2a"/>
      <g transform="matrix(1, 0, 0, 1, 511, 1331)" filter="url(#Path_23741)">
        <path id="Path_23741-2" data-name="Path 23741" d="M30,0A30,30,0,1,1,0,30,30,30,0,0,1,30,0Z" transform="translate(323 110)" fill="#091b49"/>
      </g>
      <path id="Path_23731" data-name="Path 23731" d="M13.379,124.1H35.833l-2.525,4.592a3,3,0,0,1-2.634,1.561H10Z" transform="translate(836.507 1343.829)" fill="#85e6c4"/>
      <path id="Path_23732" data-name="Path 23732" d="M105.479,216.1h22.453l-2.525,4.592a3,3,0,0,1-2.634,1.56H102.1Z" transform="translate(753.561 1260.973)" fill="#6d44e5"/>
      <path id="Path_23733" data-name="Path 23733" d="M105.479,32h22.453l-2.525,4.592a3,3,0,0,1-2.634,1.56H102.1Z" transform="translate(753.561 1426.774)" fill="#517ce3"/>
    </g>
    <g id="Group_18492" data-name="Group 18492" transform="translate(-31 36)">
      <path id="Path_24136" data-name="Path 24136" d="M4.752.192A4.811,4.811,0,0,1,2.608-.256,3.348,3.348,0,0,1,1.2-1.5,3.449,3.449,0,0,1,.7-3.36H2.112a2.463,2.463,0,0,0,.3,1.208,2.238,2.238,0,0,0,.888.88,2.922,2.922,0,0,0,1.448.328,2.594,2.594,0,0,0,1.76-.544,1.73,1.73,0,0,0,.624-1.36,1.836,1.836,0,0,0-.288-1.08,2.154,2.154,0,0,0-.776-.664,6.445,6.445,0,0,0-1.12-.448q-.632-.192-1.32-.432a4.714,4.714,0,0,1-1.92-1.112A2.432,2.432,0,0,1,1.088-8.32,2.856,2.856,0,0,1,1.5-9.912,2.932,2.932,0,0,1,2.728-11a4.2,4.2,0,0,1,1.88-.392,4.086,4.086,0,0,1,1.864.4A3.023,3.023,0,0,1,7.7-9.888a3.062,3.062,0,0,1,.456,1.6H6.752a1.957,1.957,0,0,0-.24-.92,1.874,1.874,0,0,0-.728-.744A2.376,2.376,0,0,0,4.56-10.24a2.214,2.214,0,0,0-1.5.464A1.625,1.625,0,0,0,2.48-8.448a1.443,1.443,0,0,0,.408,1.1,3.089,3.089,0,0,0,1.144.632q.736.248,1.7.568a8.174,8.174,0,0,1,1.44.672,2.829,2.829,0,0,1,1,.992,3.011,3.011,0,0,1,.36,1.552,2.95,2.95,0,0,1-.416,1.512A3.091,3.091,0,0,1,6.856-.256,4.437,4.437,0,0,1,4.752.192Zm9.168,0A3.887,3.887,0,0,1,11.9-.328,3.692,3.692,0,0,1,10.52-1.776a4.526,4.526,0,0,1-.5-2.192,4.6,4.6,0,0,1,.5-2.184A3.606,3.606,0,0,1,11.9-7.608a3.993,3.993,0,0,1,2.056-.52,3.708,3.708,0,0,1,1.992.52A3.523,3.523,0,0,1,17.232-6.24a3.846,3.846,0,0,1,.448,1.824q0,.176-.008.352t-.008.4h-6.32a3.118,3.118,0,0,0,.424,1.512,2.506,2.506,0,0,0,.944.9,2.523,2.523,0,0,0,1.208.3,2.4,2.4,0,0,0,1.392-.384,2.2,2.2,0,0,0,.816-1.04h1.328A3.582,3.582,0,0,1,16.232-.536,3.57,3.57,0,0,1,13.92.192Zm0-7.184a2.684,2.684,0,0,0-1.7.584,2.353,2.353,0,0,0-.856,1.7h4.992a2.27,2.27,0,0,0-.736-1.68A2.469,2.469,0,0,0,13.92-6.992ZM19.456,0V-11.52H20.8V0Zm3.552,0V-11.52h1.344V0Zm7.12.192a3.887,3.887,0,0,1-2.016-.52,3.692,3.692,0,0,1-1.384-1.448,4.526,4.526,0,0,1-.5-2.192,4.6,4.6,0,0,1,.5-2.184A3.606,3.606,0,0,1,28.1-7.608a3.993,3.993,0,0,1,2.056-.52,3.708,3.708,0,0,1,1.992.52A3.523,3.523,0,0,1,33.44-6.24a3.846,3.846,0,0,1,.448,1.824q0,.176-.008.352t-.008.4h-6.32a3.118,3.118,0,0,0,.424,1.512,2.506,2.506,0,0,0,.944.9,2.523,2.523,0,0,0,1.208.3,2.4,2.4,0,0,0,1.392-.384,2.2,2.2,0,0,0,.816-1.04h1.328A3.582,3.582,0,0,1,32.44-.536,3.57,3.57,0,0,1,30.128.192Zm0-7.184a2.684,2.684,0,0,0-1.7.584,2.353,2.353,0,0,0-.856,1.7H32.56a2.27,2.27,0,0,0-.736-1.68A2.469,2.469,0,0,0,30.128-6.992ZM35.664,0V-7.936H36.88l.112,1.52a2.877,2.877,0,0,1,1.12-1.248,3.472,3.472,0,0,1,1.856-.464V-6.72H39.6a3.321,3.321,0,0,0-1.3.248,1.968,1.968,0,0,0-.944.84A3.2,3.2,0,0,0,37.008-4V0Zm9.952,0V-.944q1.136-.9,2.152-1.816a23.144,23.144,0,0,0,1.808-1.816,9.115,9.115,0,0,0,1.248-1.76A3.563,3.563,0,0,0,51.28-8a3.007,3.007,0,0,0-.2-1.1,1.765,1.765,0,0,0-.648-.824,2.1,2.1,0,0,0-1.216-.312,2.186,2.186,0,0,0-1.232.328,2.039,2.039,0,0,0-.744.872,2.782,2.782,0,0,0-.248,1.168H45.7a3.687,3.687,0,0,1,.464-1.9,3.1,3.1,0,0,1,1.264-1.208,3.86,3.86,0,0,1,1.808-.416,3.552,3.552,0,0,1,2.44.84,3.164,3.164,0,0,1,.952,2.5,4.257,4.257,0,0,1-.5,1.96,9.793,9.793,0,0,1-1.264,1.872,17.525,17.525,0,0,1-1.64,1.688q-.872.784-1.624,1.408h5.408V0Z" transform="translate(1127 1503.52)" fill="#2a2a2a"/>
      <g id="main_merchant" data-name="main merchant" transform="translate(90 1332)">
        <g transform="matrix(1, 0, 0, 1, 452, 26)" filter="url(#Ellipse_6032)">
          <circle id="Ellipse_6032-2" data-name="Ellipse 6032" cx="30" cy="30" r="30" transform="translate(517 110)" fill="#daf8ed"/>
        </g>
        <g id="Group_18731" data-name="Group 18731" transform="translate(969 136)" clip-path="url(#clip-path-3)">
          <rect id="Rectangle_6279" data-name="Rectangle 6279" width="11.489" height="7.741" transform="translate(24.256 39.877)" fill="#faac8d" stroke="rgba(0,0,0,0)" stroke-width="1"/>
          <g id="Group_18727" data-name="Group 18727" transform="translate(24.255 39.877)" style="mix-blend-mode: multiply;isolation: isolate">
            <g id="Group_18726" data-name="Group 18726">
              <g id="Group_18725" data-name="Group 18725" clip-path="url(#clip-path-4)">
                <path id="Path_18442" data-name="Path 18442" d="M45.1,75.161a15.438,15.438,0,0,0,5.495,1.118,17.765,17.765,0,0,0,3.208-.311V69.562H42.312v4A9.6,9.6,0,0,0,45.1,75.161" transform="translate(-42.312 -69.562)" fill="#e0e1e3" stroke="rgba(0,0,0,0)" stroke-width="1"/>
              </g>
            </g>
          </g>
          <path id="Path_18443" data-name="Path 18443" d="M72.774,43.787c.037-.281.5-.739.708-.894.455-.345.914.01,1.047.458a5.925,5.925,0,0,1,.158,1.27,5.7,5.7,0,0,1-.527,2.928,3.9,3.9,0,0,1-1.318,1.492.469.469,0,0,1-.715-.394s.647-4.856.647-4.859" transform="translate(-30.78 -18.245)" fill="#faac8d" stroke="rgba(0,0,0,0)" stroke-width="1"/>
          <path id="Path_18444" data-name="Path 18444" d="M72.745,45.069c.026-.2.361-.529.506-.64.327-.246.654.007.749.328a4.31,4.31,0,0,1,.114.909,4.087,4.087,0,0,1-.378,2.095,2.8,2.8,0,0,1-.944,1.069.336.336,0,0,1-.511-.283s.463-3.474.464-3.477" transform="translate(-30.846 -18.917)" fill="#d5947b" stroke="rgba(0,0,0,0)" stroke-width="1"/>
          <path id="Path_18445" data-name="Path 18445" d="M29.462,43.787c-.037-.281-.5-.739-.709-.894-.455-.345-.914.01-1.047.458a5.962,5.962,0,0,0-.158,1.27,5.7,5.7,0,0,0,.528,2.928,3.893,3.893,0,0,0,1.318,1.492.469.469,0,0,0,.715-.394s-.647-4.856-.647-4.859" transform="translate(-11.749 -18.245)" fill="#faac8d" stroke="rgba(0,0,0,0)" stroke-width="1"/>
          <path id="Path_18446" data-name="Path 18446" d="M30.037,45.069a1.519,1.519,0,0,0-.507-.64c-.326-.246-.654.007-.749.328a4.271,4.271,0,0,0-.114.909,4.087,4.087,0,0,0,.378,2.095,2.8,2.8,0,0,0,.944,1.069.336.336,0,0,0,.511-.283s-.463-3.474-.463-3.477" transform="translate(-12.229 -18.917)" fill="#d5947b" stroke="rgba(0,0,0,0)" stroke-width="1"/>
          <path id="Path_18447" data-name="Path 18447" d="M55.483,33.592a19.624,19.624,0,0,1-2.016,9.216,18.213,18.213,0,0,1-5.3,5.916c-1.686,1.258-3.493,2.724-5.627,2.545-2.224-.187-3.955-2.127-5.581-3.642a19.833,19.833,0,0,1-5.2-7.887,18.623,18.623,0,0,1-1-6.148c0-10.356,5.535-16.871,12.363-16.871s12.364,6.514,12.364,16.871" transform="translate(-13.125 -7.135)" fill="#faac8d" stroke="rgba(0,0,0,0)" stroke-width="1"/>
          <path id="Path_18448" data-name="Path 18448" d="M51.972,86.385,37.654,82.641H26.165L11.848,86.385A12.283,12.283,0,0,0,4.475,96.624H59.344a12.283,12.283,0,0,0-7.372-10.239" transform="translate(-1.91 -35.266)" fill="#faac8d" stroke="rgba(0,0,0,0)" stroke-width="1"/>
          <path id="Path_18449" data-name="Path 18449" d="M51.972,86.385,37.654,82.641H26.165L11.848,86.385A12.283,12.283,0,0,0,4.475,96.624H59.344a12.283,12.283,0,0,0-7.372-10.239" transform="translate(-1.91 -35.266)" fill="#fff" stroke="rgba(0,0,0,0)" stroke-width="1"/>
          <path id="Path_18450" data-name="Path 18450" d="M51.972,87.089l-10.6-2.771L31.91,97.329,22.546,84.292l-10.7,2.8A12.283,12.283,0,0,0,4.475,97.329H59.344a12.283,12.283,0,0,0-7.372-10.239" transform="translate(-1.91 -35.971)" fill="#2b0000" stroke="rgba(0,0,0,0)" stroke-width="1"/>
          <path id="Path_18451" data-name="Path 18451" d="M48.177,95.663l-2.638,6.518h7.5l-2.572-6.518Z" transform="translate(-19.434 -40.823)" fill="#23ad9b" stroke="rgba(0,0,0,0)" stroke-width="1"/>
          <path id="Path_18452" data-name="Path 18452" d="M49.531,82.863l-3.358,4.505,2.334,2.85L49.65,90.2l1.143-.019,2.24-2.925Z" transform="translate(-19.704 -35.361)" fill="#23ad9b" stroke="rgba(0,0,0,0)" stroke-width="1"/>
          <g id="Group_18730" data-name="Group 18730" transform="translate(26.469 47.688)" style="mix-blend-mode: multiply;isolation: isolate">
            <g id="Group_18729" data-name="Group 18729">
              <g id="Group_18728" data-name="Group 18728" clip-path="url(#clip-path-5)">
                <path id="Path_18453" data-name="Path 18453" d="M51.775,86.917c-.429.848-1.229,1.815-2.314,1.577a1.872,1.872,0,0,1-1.378-2.385,25.024,25.024,0,0,1,1.309-2.92l-3.219,4.318,2.334,2.851,2.286-.038,2.24-2.924-.948-1.189a7.512,7.512,0,0,1-.311.71" transform="translate(-46.173 -83.188)" fill="#c7c9cb" stroke="rgba(0,0,0,0)" stroke-width="1"/>
              </g>
            </g>
          </g>
          <path id="Path_18454" data-name="Path 18454" d="M39.788,97.328,30.424,84.291,22.937,86.25,32.5,92.985l-2.458,1.083,4.423,3.26Z" transform="translate(-9.788 -35.97)" fill="#190003" stroke="rgba(0,0,0,0)" stroke-width="1"/>
          <path id="Path_18455" data-name="Path 18455" d="M52.333,97.36,61.7,84.323l7.487,1.958-9.568,6.736L62.073,94.1,57.65,97.36Z" transform="translate(-22.333 -35.984)" fill="#190003" stroke="rgba(0,0,0,0)" stroke-width="1"/>
          <path id="Path_18456" data-name="Path 18456" d="M32.482,81.158,38.1,78.524l5.724,2.39,5.725-2.39,6,2.634-8.484,5.68-3.242-4.643L40.33,86.838Z" transform="translate(-13.862 -33.509)" fill="#dbdcde" stroke="rgba(0,0,0,0)" stroke-width="1"/>
          <path id="Path_18457" data-name="Path 18457" d="M64.1,65.167s3.1-2.936,3.79-5.526c0,0-3.662,3.3-4.939,2.953Z" transform="translate(-26.865 -25.451)" fill="#100200" stroke="rgba(0,0,0,0)" stroke-width="1"/>
          <path id="Path_18458" data-name="Path 18458" d="M37.8,65.643s-3.6-3.084-4.587-6.947c0,0,4.106,4.739,5.382,4.387Z" transform="translate(-14.171 -25.048)" fill="#100200" stroke="rgba(0,0,0,0)" stroke-width="1"/>
          <path id="Path_18459" data-name="Path 18459" d="M49.612,61.946a6.408,6.408,0,0,1,3.139.73,4.781,4.781,0,0,1,2.241,3.131,15.484,15.484,0,0,1-2.727,2.32c-3.387,2.808-4.942,2.453-4.942,2.453a5.352,5.352,0,0,1-3.279-1.2l-3.17-2.484a4.341,4.341,0,0,1,2.068-4.217c1.477-.718,1.744-.622,1.744-.622s2.213-.259,2.754.62a2.575,2.575,0,0,1,2.061-.728" transform="translate(-17.425 -26.435)" fill="#150700" stroke="rgba(0,0,0,0)" stroke-width="1"/>
          <path id="Path_18460" data-name="Path 18460" d="M50.307,65.758a4.543,4.543,0,0,0-3.415.052,4.532,4.532,0,0,0,6.56.043s-1.869-.872-3.145-.095" transform="translate(-20.011 -27.924)" fill="#faac8d" stroke="rgba(0,0,0,0)" stroke-width="1"/>
          <path id="Path_18461" data-name="Path 18461" d="M55.178,12.87a6.039,6.039,0,0,0,2.482-5.148,6.866,6.866,0,0,1-4,2.014C56.12,8.263,54.9,5.191,54.9,5.191c-.768,1.72-4.188,2.7-4.188,2.7,1.659-1.106.626-3.625.626-3.625C50.183,6.235,46.72,7.1,46.72,7.1a4.712,4.712,0,0,0,2.519-3.133C47.211,5.743,41.682,6.6,41.682,6.6s-6.091.555-7.6,5.616c-4.455.641-4.5,8.172-4.186,12.238h0l.282,4.917h.989a20.927,20.927,0,0,1,0-5.55,42.394,42.394,0,0,1,1.469-4.6,5.209,5.209,0,0,1,3.751-3.209l1-.075C41.743,15.3,43.03,18.4,43.03,18.4c.675-1.781,2.953-2.211,2.953-2.211,6.634-.885,7.586,4.361,7.586,4.361l.749,3.339a22.934,22.934,0,0,1-.057,5.488h.989l.283-4.917a3.816,3.816,0,0,0,0-.406c.5-2.742.943-7.211-.355-11.182" transform="translate(-12.709 -1.69)" fill="#100200" stroke="rgba(0,0,0,0)" stroke-width="1"/>
        </g>
      </g>
    </g>
    <g id="Group_18493" data-name="Group 18493" transform="translate(-31 131)">
      <path id="Path_24134" data-name="Path 24134" d="M1.184,0V-11.2H2.752L6.784-3.392l4-7.808h1.584V0H11.024V-8.8L7.28-1.6H6.272L2.528-8.784V0Zm17.04.192a3.887,3.887,0,0,1-2.016-.52,3.692,3.692,0,0,1-1.384-1.448,4.526,4.526,0,0,1-.5-2.192,4.6,4.6,0,0,1,.5-2.184A3.606,3.606,0,0,1,16.2-7.608a3.993,3.993,0,0,1,2.056-.52,3.708,3.708,0,0,1,1.992.52A3.523,3.523,0,0,1,21.536-6.24a3.846,3.846,0,0,1,.448,1.824q0,.176-.008.352t-.008.4h-6.32a3.118,3.118,0,0,0,.424,1.512,2.506,2.506,0,0,0,.944.9,2.523,2.523,0,0,0,1.208.3,2.4,2.4,0,0,0,1.392-.384,2.2,2.2,0,0,0,.816-1.04H21.76A3.582,3.582,0,0,1,20.536-.536,3.57,3.57,0,0,1,18.224.192Zm0-7.184a2.684,2.684,0,0,0-1.7.584,2.353,2.353,0,0,0-.856,1.7h4.992a2.27,2.27,0,0,0-.736-1.68A2.469,2.469,0,0,0,18.224-6.992ZM23.76,0V-7.936h1.216l.112,1.52a2.877,2.877,0,0,1,1.12-1.248,3.472,3.472,0,0,1,1.856-.464V-6.72H27.7a3.321,3.321,0,0,0-1.3.248,1.968,1.968,0,0,0-.944.84A3.2,3.2,0,0,0,25.1-4V0Zm9.152.192a4.017,4.017,0,0,1-2.04-.52,3.738,3.738,0,0,1-1.424-1.456,4.424,4.424,0,0,1-.52-2.184,4.424,4.424,0,0,1,.52-2.184,3.738,3.738,0,0,1,1.424-1.456,4.017,4.017,0,0,1,2.04-.52,3.811,3.811,0,0,1,2.376.736,3.207,3.207,0,0,1,1.224,1.968H35.136a1.764,1.764,0,0,0-.784-1.144A2.6,2.6,0,0,0,32.9-6.976a2.52,2.52,0,0,0-1.264.336,2.506,2.506,0,0,0-.96,1.008A3.428,3.428,0,0,0,30.3-3.968,3.428,3.428,0,0,0,30.672-2.3a2.564,2.564,0,0,0,.96,1.016A2.475,2.475,0,0,0,32.9-.944a2.6,2.6,0,0,0,1.456-.408,1.771,1.771,0,0,0,.784-1.16h1.376A3.177,3.177,0,0,1,35.3-.56,3.789,3.789,0,0,1,32.912.192ZM38.384,0V-11.52h1.344v4.944A2.827,2.827,0,0,1,40.864-7.72a3.246,3.246,0,0,1,1.6-.408,2.939,2.939,0,0,1,2.208.856A3.65,3.65,0,0,1,45.5-4.64V0H44.176V-4.5q0-2.48-2-2.48a2.3,2.3,0,0,0-1.744.744,2.966,2.966,0,0,0-.7,2.12V0ZM50.176.192a3.6,3.6,0,0,1-1.648-.336,2.284,2.284,0,0,1-.976-.9,2.409,2.409,0,0,1-.32-1.216,2.155,2.155,0,0,1,.928-1.872,4.309,4.309,0,0,1,2.528-.656h2.144v-.1a2.118,2.118,0,0,0-.544-1.576,1.984,1.984,0,0,0-1.456-.536A2.321,2.321,0,0,0,49.48-6.6a1.717,1.717,0,0,0-.712,1.144H47.392a2.547,2.547,0,0,1,.584-1.456,3.264,3.264,0,0,1,1.256-.9,4.133,4.133,0,0,1,1.6-.312,3.288,3.288,0,0,1,2.5.888,3.293,3.293,0,0,1,.84,2.36V0h-1.2L52.9-1.424A3.148,3.148,0,0,1,51.912-.28,2.887,2.887,0,0,1,50.176.192Zm.208-1.136a2.189,2.189,0,0,0,1.32-.4,2.553,2.553,0,0,0,.84-1.04,3.239,3.239,0,0,0,.288-1.344v-.016H50.8a2.638,2.638,0,0,0-1.672.408A1.272,1.272,0,0,0,48.64-2.32a1.231,1.231,0,0,0,.456,1A1.972,1.972,0,0,0,50.384-.944ZM56.192,0V-7.936h1.216l.08,1.424a2.882,2.882,0,0,1,1.1-1.184,3.11,3.11,0,0,1,1.632-.432,3.006,3.006,0,0,1,2.248.856,3.628,3.628,0,0,1,.84,2.632V0H61.968V-4.5q0-2.48-2.048-2.48a2.212,2.212,0,0,0-1.7.744,3.032,3.032,0,0,0-.68,2.12V0ZM68.48,0a2.568,2.568,0,0,1-1.712-.528,2.4,2.4,0,0,1-.624-1.9V-6.8H64.768V-7.936h1.376l.176-1.9h1.168v1.9h2.336V-6.8H67.488v4.368a1.32,1.32,0,0,0,.3,1.016,1.657,1.657,0,0,0,1.072.264H69.7V0Z" transform="translate(1127 1503.52)" fill="#2a2a2a"/>
      <g transform="matrix(1, 0, 0, 1, 542, 1263)" filter="url(#Path_23738)">
        <path id="Path_23738-2" data-name="Path 23738" d="M30,0A30,30,0,1,1,0,30,30,30,0,0,1,30,0Z" transform="translate(517 205)" fill="#a5cd39"/>
      </g>
      <g id="Big-Basket-2" data-name="Big-Basket" transform="translate(895.521 1407.526)">
        <path id="Path_23734-2" data-name="Path 23734" d="M181.5,70.515a4.82,4.82,0,0,1,.776-.039h21.658a4.731,4.731,0,0,1,3.8,2.064,4.544,4.544,0,0,1,.7,1.667,6.645,6.645,0,0,1,.09,1.347V95.866a8.84,8.84,0,0,1-.11,1.9,4.693,4.693,0,0,1-4.758,3.657H181.955a4.641,4.641,0,0,1-4.425-3.974,10.05,10.05,0,0,1-.05-1.393V75.879a7.977,7.977,0,0,1,.105-1.76,4.65,4.65,0,0,1,3.918-3.6Z" transform="translate(0 0)" fill="#a5cd39" fill-rule="evenodd"/>
        <path id="Path_23735-2" data-name="Path 23735" d="M181.884,154q2.047,0,4.093,0c0,3.209-.006,6.418,0,9.627.126-.124.21-.282.327-.413a5.339,5.339,0,0,1,3.3-1.762,5.776,5.776,0,0,1,6.21,3,9.656,9.656,0,0,1,1,2.762,10.408,10.408,0,0,1-.337,5.428,7.17,7.17,0,0,1-1.288,2.415,6.137,6.137,0,0,1-1.716,1.485,5.72,5.72,0,0,1-2.832.656,7.6,7.6,0,0,1-2.777-.427,6.175,6.175,0,0,1-1-.543,2.66,2.66,0,0,1-.76-.722,2.73,2.73,0,0,1-.35-.64,1.879,1.879,0,0,1-.373,1.373,2.625,2.625,0,0,1-1.507.814,6.92,6.92,0,0,1-1.978.107c-.02-2.387,0-4.774-.008-7.161Q181.884,162,181.884,154Zm6.919,10.5a3.3,3.3,0,0,0-1.981,1.213,5.081,5.081,0,0,0-.962,2.241,6.251,6.251,0,0,0-.006,2.644,5.1,5.1,0,0,0,1.107,2.425,3.013,3.013,0,0,0,1.963,1.055,3.1,3.1,0,0,0,2.178-.462,3.576,3.576,0,0,0,1.085-1.423,6.908,6.908,0,0,0,.579-3.035,8.258,8.258,0,0,0-.359-2.312,4.221,4.221,0,0,0-1.157-1.775A3.091,3.091,0,0,0,188.8,164.5ZM177.49,183.318c.375,0,.75,0,1.125,0q0,1.3,0,2.6a1.477,1.477,0,0,1,.981-.578,1.549,1.549,0,0,1,1.406.414,2.223,2.223,0,0,1,.594,1.216,2.848,2.848,0,0,1-.3,1.882,1.561,1.561,0,0,1-1.088.784,1.927,1.927,0,0,1-1.232-.184.908.908,0,0,1-.412-.4.549.549,0,0,1-.209.422,1.415,1.415,0,0,1-.862.169C177.486,187.538,177.492,185.428,177.49,183.318Zm1.806,2.89a1.069,1.069,0,0,0-.691.859,1.737,1.737,0,0,0,.249,1.393.86.86,0,0,0,1.253.13,1.744,1.744,0,0,0,.336-1.488,1.169,1.169,0,0,0-.425-.778A.807.807,0,0,0,179.3,186.208Zm2.635-2.891h1.124c0,.313,0,.626,0,.939h-1.124C181.93,183.944,181.931,183.631,181.931,183.318Zm2.9,2.021a1.374,1.374,0,0,1,1.506.648.612.612,0,0,1,.312-.408,1.474,1.474,0,0,1,.775-.14q0,1.855,0,3.709a2.367,2.367,0,0,1-.169.968,1.8,1.8,0,0,1-1.45.95,2.436,2.436,0,0,1-1.718-.331,1.269,1.269,0,0,1-.57-.961c.372,0,.745,0,1.118,0a.688.688,0,0,0,.284.4,1.2,1.2,0,0,0,.852.1.825.825,0,0,0,.566-.722c.021-.26,0-.521.012-.781a1.207,1.207,0,0,1-.854.607,1.668,1.668,0,0,1-2.073-1.575,2.881,2.881,0,0,1,.147-1.412A1.672,1.672,0,0,1,184.833,185.338Zm.352.867a.785.785,0,0,0-.511.421,1.807,1.807,0,0,0-.139,1,.974.974,0,0,0,.68.919.9.9,0,0,0,.984-.443,1.779,1.779,0,0,0-.056-1.549A.851.851,0,0,0,185.185,186.205Zm-3.254-.765c.375,0,.75,0,1.125,0q0,2.11,0,4.219c-.375,0-.75,0-1.125,0Z" transform="translate(-0.011 -79.647)" fill="#ec1c24" fill-rule="evenodd"/>
        <path id="Path_23736-2" data-name="Path 23736" d="M406.543,154h2.481q0,3.724,0,7.448a4.511,4.511,0,0,0-2.482-.76Q406.543,157.34,406.543,154Zm3.426,8.163a5.852,5.852,0,0,1,2.915-.8A6.016,6.016,0,0,1,417,162.962a6.589,6.589,0,0,1,1.6,2.251,10.534,10.534,0,0,1,.758,5.3,11.292,11.292,0,0,1-.664,2.652,6.946,6.946,0,0,1-1.281,2.1,5.333,5.333,0,0,1-4.385,1.933,6.56,6.56,0,0,1-3.357-.718,8.456,8.456,0,0,0,1.516-1.623,4.1,4.1,0,0,0,2.529.083,3.391,3.391,0,0,0,1.663-1.15,5.677,5.677,0,0,0,1-2.062,9.648,9.648,0,0,0,.28-3.206,8.052,8.052,0,0,0-.72-2.872,3.963,3.963,0,0,0-1.517-1.722,3.886,3.886,0,0,0-3.125-.251A8.483,8.483,0,0,0,409.969,162.159Zm-6.719,21.159h.719c0,.882,0,1.764,0,2.646a1.355,1.355,0,0,1,.709-.572,1.638,1.638,0,0,1,1.654.387,2.257,2.257,0,0,1,.559,1.509,3.048,3.048,0,0,1-.408,1.671,1.645,1.645,0,0,1-2.035.609,1.28,1.28,0,0,1-.521-.52.514.514,0,0,1-.133.426c-.144.141-.36.1-.542.1Zm1.54,2.658a.9.9,0,0,0-.589.42,2.2,2.2,0,0,0-.271,1.045,1.906,1.906,0,0,0,.207,1.131,1.066,1.066,0,0,0,.958.511.973.973,0,0,0,.825-.5,2.307,2.307,0,0,0,.251-1.2,1.776,1.776,0,0,0-.314-1.093A1.108,1.108,0,0,0,404.79,185.976Zm10.112-2.658c.224,0,.448,0,.672,0q0,1.983,0,3.967.734-.721,1.473-1.436a.83.83,0,0,1,.615-.295.635.635,0,0,1,.4.179c-.455.463-.929.907-1.394,1.361.554.874,1.12,1.74,1.677,2.612h-.905q-.643-1.047-1.287-2.093c-.2.17-.39.345-.582.521,0,.524,0,1.048,0,1.572H414.9Q414.9,186.512,414.9,183.318Zm7.561,0h.695c0,.724,0,1.449,0,2.173a.836.836,0,0,1,.541.216.579.579,0,0,1,.137.371h-.679q0,1.329,0,2.658a.308.308,0,0,0,.135.3,1.312,1.312,0,0,0,.537.047q0,.28,0,.561a1.75,1.75,0,0,1-1.015-.036.751.751,0,0,1-.351-.69c0-.946,0-1.892,0-2.838h-.568v-.58h.568C422.462,184.771,422.462,184.044,422.462,183.318ZM407.7,185.687a2.047,2.047,0,0,1,1.38-.372,1.806,1.806,0,0,1,1.16.4.967.967,0,0,1,.287.7c0,.774,0,1.548,0,2.322,0,.117,0,.271.122.33a1.114,1.114,0,0,0,.342,0v.512a1.015,1.015,0,0,1-.869-.031.647.647,0,0,1-.25-.518,1.892,1.892,0,0,1-.962.611,1.646,1.646,0,0,1-1.434-.241,1.269,1.269,0,0,1,.158-1.988,3.723,3.723,0,0,1,1.391-.306,3.3,3.3,0,0,0,.64-.106.544.544,0,0,0,.174-.582.668.668,0,0,0-.581-.492,1.372,1.372,0,0,0-.971.111c-.2.126-.26.386-.462.51a.774.774,0,0,1-.538.112A1.35,1.35,0,0,1,407.7,185.687Zm1.233,2a1.925,1.925,0,0,0-.919.258.7.7,0,0,0-.1.875.877.877,0,0,0,.924.253,1.218,1.218,0,0,0,.973-.761,7.624,7.624,0,0,0,.02-.838A3.381,3.381,0,0,1,408.938,187.692Zm2.636-1.987a1.8,1.8,0,0,1,1.172-.392,1.886,1.886,0,0,1,1.056.27,1.259,1.259,0,0,1,.548.925.808.808,0,0,1-.608-.118c-.194-.109-.3-.342-.531-.392a1.485,1.485,0,0,0-1.091.074.5.5,0,0,0-.214.624.734.734,0,0,0,.46.279c.375.105.752.2,1.129.3a1.549,1.549,0,0,1,.819.455,1.113,1.113,0,0,1,.154.863,1.283,1.283,0,0,1-.708.911,2.392,2.392,0,0,1-1.433.162,1.517,1.517,0,0,1-.964-.486,1.593,1.593,0,0,1-.313-.944c.231,0,.463,0,.694,0a.851.851,0,0,0,.272.627,1.4,1.4,0,0,0,.964.218.927.927,0,0,0,.685-.314.574.574,0,0,0,.088-.486.625.625,0,0,0-.446-.337c-.447-.137-.908-.219-1.354-.357a1.035,1.035,0,0,1-.723-.664A1.244,1.244,0,0,1,411.574,185.7Zm7.063.2a1.811,1.811,0,0,1,1.247-.579,1.649,1.649,0,0,1,1.4.478,2.856,2.856,0,0,1,.585,1.924c-1.011,0-2.021,0-3.032,0a1.527,1.527,0,0,0,.328,1.025,1.142,1.142,0,0,0,.9.333,1.078,1.078,0,0,0,1.045-.826c.232,0,.464,0,.7,0a1.737,1.737,0,0,1-.769,1.17,1.96,1.96,0,0,1-1.207.274,1.737,1.737,0,0,1-1.259-.586,2.248,2.248,0,0,1-.489-1.5A2.537,2.537,0,0,1,418.637,185.9Zm.619.345a1.4,1.4,0,0,0-.413,1.166.962.962,0,0,1,.813-.245c.493,0,.986,0,1.479,0a1.55,1.55,0,0,0-.3-.871A1.135,1.135,0,0,0,419.255,186.245Z" transform="translate(-215.3 -79.647)" fill="#231f20" fill-rule="evenodd"/>
      </g>
    </g>
    <g id="Group_18494" data-name="Group 18494" transform="translate(-31 -59)">
      <path id="Path_24138" data-name="Path 24138" d="M4.752.192A4.811,4.811,0,0,1,2.608-.256,3.348,3.348,0,0,1,1.2-1.5,3.449,3.449,0,0,1,.7-3.36H2.112a2.463,2.463,0,0,0,.3,1.208,2.238,2.238,0,0,0,.888.88,2.922,2.922,0,0,0,1.448.328,2.594,2.594,0,0,0,1.76-.544,1.73,1.73,0,0,0,.624-1.36,1.836,1.836,0,0,0-.288-1.08,2.154,2.154,0,0,0-.776-.664,6.445,6.445,0,0,0-1.12-.448q-.632-.192-1.32-.432a4.714,4.714,0,0,1-1.92-1.112A2.432,2.432,0,0,1,1.088-8.32,2.856,2.856,0,0,1,1.5-9.912,2.932,2.932,0,0,1,2.728-11a4.2,4.2,0,0,1,1.88-.392,4.086,4.086,0,0,1,1.864.4A3.023,3.023,0,0,1,7.7-9.888a3.062,3.062,0,0,1,.456,1.6H6.752a1.957,1.957,0,0,0-.24-.92,1.874,1.874,0,0,0-.728-.744A2.376,2.376,0,0,0,4.56-10.24a2.214,2.214,0,0,0-1.5.464A1.625,1.625,0,0,0,2.48-8.448a1.443,1.443,0,0,0,.408,1.1,3.089,3.089,0,0,0,1.144.632q.736.248,1.7.568a8.174,8.174,0,0,1,1.44.672,2.829,2.829,0,0,1,1,.992,3.011,3.011,0,0,1,.36,1.552,2.95,2.95,0,0,1-.416,1.512A3.091,3.091,0,0,1,6.856-.256,4.437,4.437,0,0,1,4.752.192Zm9.168,0A3.887,3.887,0,0,1,11.9-.328,3.692,3.692,0,0,1,10.52-1.776a4.526,4.526,0,0,1-.5-2.192,4.6,4.6,0,0,1,.5-2.184A3.606,3.606,0,0,1,11.9-7.608a3.993,3.993,0,0,1,2.056-.52,3.708,3.708,0,0,1,1.992.52A3.523,3.523,0,0,1,17.232-6.24a3.846,3.846,0,0,1,.448,1.824q0,.176-.008.352t-.008.4h-6.32a3.118,3.118,0,0,0,.424,1.512,2.506,2.506,0,0,0,.944.9,2.523,2.523,0,0,0,1.208.3,2.4,2.4,0,0,0,1.392-.384,2.2,2.2,0,0,0,.816-1.04h1.328A3.582,3.582,0,0,1,16.232-.536,3.57,3.57,0,0,1,13.92.192Zm0-7.184a2.684,2.684,0,0,0-1.7.584,2.353,2.353,0,0,0-.856,1.7h4.992a2.27,2.27,0,0,0-.736-1.68A2.469,2.469,0,0,0,13.92-6.992ZM19.456,0V-11.52H20.8V0Zm3.552,0V-11.52h1.344V0Zm7.12.192a3.887,3.887,0,0,1-2.016-.52,3.692,3.692,0,0,1-1.384-1.448,4.526,4.526,0,0,1-.5-2.192,4.6,4.6,0,0,1,.5-2.184A3.606,3.606,0,0,1,28.1-7.608a3.993,3.993,0,0,1,2.056-.52,3.708,3.708,0,0,1,1.992.52A3.523,3.523,0,0,1,33.44-6.24a3.846,3.846,0,0,1,.448,1.824q0,.176-.008.352t-.008.4h-6.32a3.118,3.118,0,0,0,.424,1.512,2.506,2.506,0,0,0,.944.9,2.523,2.523,0,0,0,1.208.3,2.4,2.4,0,0,0,1.392-.384,2.2,2.2,0,0,0,.816-1.04h1.328A3.582,3.582,0,0,1,32.44-.536,3.57,3.57,0,0,1,30.128.192Zm0-7.184a2.684,2.684,0,0,0-1.7.584,2.353,2.353,0,0,0-.856,1.7H32.56a2.27,2.27,0,0,0-.736-1.68A2.469,2.469,0,0,0,30.128-6.992ZM35.664,0V-7.936H36.88l.112,1.52a2.877,2.877,0,0,1,1.12-1.248,3.472,3.472,0,0,1,1.856-.464V-6.72H39.6a3.321,3.321,0,0,0-1.3.248,1.968,1.968,0,0,0-.944.84A3.2,3.2,0,0,0,37.008-4V0ZM46.9,0V-9.7l-1.808.4v-.928l2.256-.976h.912V0Z" transform="translate(1127 1503.52)" fill="#2a2a2a"/>
      <g transform="matrix(1, 0, 0, 1, 542, 1453)" filter="url(#Path_23740)">
        <path id="Path_23740-2" data-name="Path 23740" d="M30,0A30,30,0,1,1,0,30,30,30,0,0,1,30,0Z" transform="translate(517 15)" fill="#cad7f7"/>
      </g>
      <g id="sm_2" data-name="sm 2" transform="translate(-33 1289.001)">
        <g id="Group_18744" data-name="Group 18744" transform="translate(1092 178.999)">
          <g id="Group_18743" data-name="Group 18743" transform="translate(0 0)" clip-path="url(#clip-path-3)">
            <rect id="Rectangle_6285" data-name="Rectangle 6285" width="11.489" height="7.741" transform="translate(24.109 38.281)" fill="#faac8d" stroke="rgba(0,0,0,0)" stroke-width="1"/>
            <g id="Group_18739" data-name="Group 18739" transform="translate(24.109 38.281)" style="mix-blend-mode: multiply;isolation: isolate">
              <g id="Group_18738" data-name="Group 18738">
                <g id="Group_18737" data-name="Group 18737" clip-path="url(#clip-path-7)">
                  <path id="Path_18477" data-name="Path 18477" d="M44.843,72.376a15.439,15.439,0,0,0,5.494,1.117,17.769,17.769,0,0,0,3.208-.311V66.777H42.056v4a9.614,9.614,0,0,0,2.787,1.6" transform="translate(-42.056 -66.777)" fill="#e0e1e3" stroke="rgba(0,0,0,0)" stroke-width="1"/>
                </g>
              </g>
            </g>
            <path id="Path_18478" data-name="Path 18478" d="M73.685,41c.04-.281.533-.739.749-.894a.716.716,0,0,1,1.106.459,5.653,5.653,0,0,1,.167,1.269,5.444,5.444,0,0,1-.557,2.928,3.976,3.976,0,0,1-1.394,1.492A.5.5,0,0,1,73,45.86L73.685,41" transform="translate(-31.153 -17.056)" fill="#faac8d" stroke="rgba(0,0,0,0)" stroke-width="1"/>
            <path id="Path_18479" data-name="Path 18479" d="M73.655,42.284c.029-.2.381-.53.535-.64a.512.512,0,0,1,.792.328,4.064,4.064,0,0,1,.12.909,3.9,3.9,0,0,1-.4,2.1,2.849,2.849,0,0,1-1,1.067.358.358,0,0,1-.541-.282s.489-3.475.489-3.477" transform="translate(-31.224 -17.729)" fill="#d5947b" stroke="rgba(0,0,0,0)" stroke-width="1"/>
            <path id="Path_18480" data-name="Path 18480" d="M27.931,41c-.039-.281-.533-.739-.749-.894a.716.716,0,0,0-1.106.459,5.653,5.653,0,0,0-.167,1.269,5.444,5.444,0,0,0,.557,2.928,3.976,3.976,0,0,0,1.394,1.492.5.5,0,0,0,.755-.395L27.931,41" transform="translate(-11.05 -17.056)" fill="#faac8d" stroke="rgba(0,0,0,0)" stroke-width="1"/>
            <path id="Path_18481" data-name="Path 18481" d="M28.539,42.284c-.028-.2-.381-.53-.535-.64a.511.511,0,0,0-.791.328,4.03,4.03,0,0,0-.12.909,3.9,3.9,0,0,0,.4,2.1,2.847,2.847,0,0,0,1,1.067.359.359,0,0,0,.541-.282s-.49-3.475-.49-3.477" transform="translate(-11.556 -17.729)" fill="#d5947b" stroke="rgba(0,0,0,0)" stroke-width="1"/>
            <path id="Path_18482" data-name="Path 18482" d="M55.419,30.806a18.749,18.749,0,0,1-2.13,9.215,18.6,18.6,0,0,1-5.6,5.917C45.906,47.2,44,48.661,41.743,48.482c-2.35-.187-4.18-2.127-5.9-3.641a19.8,19.8,0,0,1-5.493-7.887A17.713,17.713,0,0,1,29.3,30.806c0-10.357,5.848-16.871,13.06-16.871s13.061,6.514,13.061,16.871" transform="translate(-12.503 -5.946)" fill="#faac8d" stroke="rgba(0,0,0,0)" stroke-width="1"/>
            <path id="Path_18483" data-name="Path 18483" d="M51.716,83.6,37.4,79.854H25.909L11.592,83.6A12.283,12.283,0,0,0,4.219,93.838H59.088A12.283,12.283,0,0,0,51.716,83.6" transform="translate(-1.8 -34.077)" fill="#faac8d" stroke="rgba(0,0,0,0)" stroke-width="1"/>
            <path id="Path_18484" data-name="Path 18484" d="M51.716,83.6,37.4,79.854H25.909L11.592,83.6A12.283,12.283,0,0,0,4.219,93.838H59.088A12.283,12.283,0,0,0,51.716,83.6" transform="translate(-1.8 -34.077)" fill="#fff" stroke="rgba(0,0,0,0)" stroke-width="1"/>
            <path id="Path_18485" data-name="Path 18485" d="M51.716,84.3l-10.6-2.771-9.466,13.01L22.29,81.506l-10.7,2.8A12.283,12.283,0,0,0,4.219,94.543H59.088A12.283,12.283,0,0,0,51.716,84.3" transform="translate(-1.8 -34.782)" fill="#002232" stroke="rgba(0,0,0,0)" stroke-width="1"/>
            <path id="Path_18486" data-name="Path 18486" d="M47.921,92.877,45.283,99.4h7.5l-2.571-6.518Z" transform="translate(-19.325 -39.635)" fill="#fe9d2b" stroke="rgba(0,0,0,0)" stroke-width="1"/>
            <path id="Path_18487" data-name="Path 18487" d="M49.276,80.077l-3.359,4.505,2.334,2.85,1.143-.018,1.142-.019,2.241-2.925Z" transform="translate(-19.595 -34.172)" fill="#fe9d2b" stroke="rgba(0,0,0,0)" stroke-width="1"/>
            <g id="Group_18742" data-name="Group 18742" transform="translate(26.322 46.091)" style="mix-blend-mode: multiply;isolation: isolate">
              <g id="Group_18741" data-name="Group 18741">
                <g id="Group_18740" data-name="Group 18740" clip-path="url(#clip-path-5)">
                  <path id="Path_18488" data-name="Path 18488" d="M51.519,84.131c-.431.849-1.229,1.816-2.314,1.577a1.871,1.871,0,0,1-1.378-2.385,25.064,25.064,0,0,1,1.308-2.92l-3.219,4.319,2.334,2.85,2.286-.037,2.241-2.925-.948-1.189a7.6,7.6,0,0,1-.311.71" transform="translate(-45.917 -80.403)" fill="#c7c9cb" stroke="rgba(0,0,0,0)" stroke-width="1"/>
                </g>
              </g>
            </g>
            <path id="Path_18489" data-name="Path 18489" d="M29.159,28.669S31.076,17,37.055,18.151c0,0,5.406,3.363,9.912-.079,0,0,5.467-.184,8.467,10.6,0,0,.749-11.5-7.5-15.6,0,0-7.636-3.523-14.17,1.72a14.767,14.767,0,0,0-4.6,13.876" transform="translate(-12.332 -5.084)" fill="#2d1a10" stroke="rgba(0,0,0,0)" stroke-width="1"/>
            <path id="Path_18490" data-name="Path 18490" d="M39.532,94.543,30.168,81.505l-7.487,1.958L32.249,90.2l-2.458,1.084,4.423,3.259Z" transform="translate(-9.679 -34.782)" fill="#001829" stroke="rgba(0,0,0,0)" stroke-width="1"/>
            <path id="Path_18491" data-name="Path 18491" d="M52.077,94.575l9.364-13.037,7.487,1.957L59.36,90.232l2.458,1.083-4.423,3.259Z" transform="translate(-22.224 -34.796)" fill="#001829" stroke="rgba(0,0,0,0)" stroke-width="1"/>
            <path id="Path_18492" data-name="Path 18492" d="M32.227,78.371l5.615-2.634,5.725,2.391,5.724-2.391,6,2.634-8.484,5.68-3.241-4.643-3.492,4.643Z" transform="translate(-13.753 -32.32)" fill="#dbdcde" stroke="rgba(0,0,0,0)" stroke-width="1"/>
          </g>
        </g>
      </g>
    </g>
    <g id="Group_18485" data-name="Group 18485" transform="translate(391.556 1262.242)">
      <path id="Path_6518" data-name="Path 6518" d="M.417,0h72" transform="translate(220.027 271.5)" fill="none" stroke="#6d44e5" stroke-width="1"/>
      <path id="Path_6513" data-name="Path 6513" d="M3052.487-4047.239l6.928-4-6.928-4Z" transform="translate(-2762.487 4322.739)" fill="#6d44e5"/>
    </g>
    <g id="Group_18488" data-name="Group 18488" transform="translate(526.556 1262.242)">
      <path id="Path_6518-2" data-name="Path 6518" d="M.417,0H82.036" transform="translate(220.027 271.5)" fill="none" stroke="#6d44e5" stroke-width="1"/>
      <path id="Path_6513-2" data-name="Path 6513" d="M3052.487-4047.239l6.928-4-6.928-4Z" transform="translate(-2751.487 4322.739)" fill="#6d44e5"/>
    </g>
    <g id="Group_18489" data-name="Group 18489" transform="translate(673.556 1264.5)">
      <path id="Path_6518-3" data-name="Path 6518" d="M.417,0H128.686" transform="translate(220.027 271.5)" fill="none" stroke="#6d44e5" stroke-width="1"/>
      <path id="Path_6513-3" data-name="Path 6513" d="M3052.487-4047.239l6.928-4-6.928-4Z" transform="translate(-2704.487 4322.739)" fill="#6d44e5"/>
    </g>
    <g id="Group_18490" data-name="Group 18490" transform="translate(0 58)">
      <path id="Path_6609" data-name="Path 6609" d="M.534,25,.047,71.767c0,13.03-1.437,17.2,11.593,17.2H97.791" transform="translate(1048 1381) rotate(90)" fill="none" stroke="#6d44e5" stroke-miterlimit="10" stroke-width="1"/>
      <path id="Path_23729" data-name="Path 23729" d="M3052.487-4047.239l6.928-4-6.928-4Z" transform="translate(-2030.931 5432.239)" fill="#6d44e5"/>
    </g>
    <g id="Group_18491" data-name="Group 18491" transform="translate(959.032 1532)">
      <path id="Path_6609-2" data-name="Path 6609" d="M.534,63.968.047,17.2C.047,4.171-1.391,0,11.64,0H97.791" transform="translate(0 97.791) rotate(-90)" fill="none" stroke="#6d44e5" stroke-miterlimit="10" stroke-width="1"/>
      <path id="Path_23729-2" data-name="Path 23729" d="M3052.487-4055.239l6.928,4-6.928,4Z" transform="translate(-2989.963 4148.238)" fill="#6d44e5"/>
    </g>
    <path id="Path_24226" data-name="Path 24226" d="M-18.533-5.346q.321.021.667.021a4.422,4.422,0,0,0,.677-.051,3.037,3.037,0,0,0,.632-.167,1.844,1.844,0,0,0,.54-.321,1.608,1.608,0,0,0,.393-.516,2.131,2.131,0,0,0,.195-.749h-3.4a2.26,2.26,0,0,1,.113-.2l.195-.325q.123-.2.273-.431H-15.6a.532.532,0,0,0-.171-.359,1.878,1.878,0,0,0-.414-.325,2.977,2.977,0,0,0-.5-.236A1.275,1.275,0,0,0-17.1-9.1h-1.729a1.606,1.606,0,0,1,.12-.246q.092-.164.195-.325l.181-.284a.777.777,0,0,1,.085-.123h5.694l-.038.075q-.038.075-.1.181l-.137.232-.14.236q-.065.109-.109.181l-.044.072h-1.5a4.387,4.387,0,0,1,.25.5,1.777,1.777,0,0,1,.133.516h1.682l-.567.957h-1.053a2.721,2.721,0,0,1-.359,1.087,2.642,2.642,0,0,1-.677.749,3.09,3.09,0,0,1-.892.458,5.238,5.238,0,0,1-1.012.222.169.169,0,0,0,.024.044q.024.038.058.085a1.4,1.4,0,0,0,.082.116l3.035,4.19v.171h-1.3l-3.322-4.437ZM-2.971,0V-2.1h-4.97v-.91l4.76-6.79h1.372v6.664H-.353V-2.1H-1.809V0ZM-6.639-3.136h3.724V-8.5ZM4.883.168A3.924,3.924,0,0,1,2.636-.469,4.064,4.064,0,0,1,1.187-2.247,6.515,6.515,0,0,1,.683-4.9a6.515,6.515,0,0,1,.5-2.653A4.064,4.064,0,0,1,2.636-9.331a3.924,3.924,0,0,1,2.247-.637,3.891,3.891,0,0,1,2.24.637A4.083,4.083,0,0,1,8.565-7.553a6.515,6.515,0,0,1,.5,2.653,6.515,6.515,0,0,1-.5,2.653A4.083,4.083,0,0,1,7.123-.469,3.891,3.891,0,0,1,4.883.168Zm0-1.036a2.581,2.581,0,0,0,1.533-.483A3.177,3.177,0,0,0,7.48-2.737,5.5,5.5,0,0,0,7.865-4.9,5.446,5.446,0,0,0,7.48-7.056,3.182,3.182,0,0,0,6.416-8.435a2.581,2.581,0,0,0-1.533-.483,2.572,2.572,0,0,0-1.54.483A3.253,3.253,0,0,0,2.279-7.056,5.36,5.36,0,0,0,1.887-4.9a5.411,5.411,0,0,0,.392,2.163A3.248,3.248,0,0,0,3.343-1.351,2.572,2.572,0,0,0,4.883-.868Zm9.7,1.036a3.924,3.924,0,0,1-2.247-.637,4.064,4.064,0,0,1-1.449-1.778,6.515,6.515,0,0,1-.5-2.653,6.515,6.515,0,0,1,.5-2.653,4.064,4.064,0,0,1,1.449-1.778,3.924,3.924,0,0,1,2.247-.637,3.891,3.891,0,0,1,2.24.637,4.083,4.083,0,0,1,1.442,1.778,6.515,6.515,0,0,1,.5,2.653,6.515,6.515,0,0,1-.5,2.653A4.083,4.083,0,0,1,16.825-.469,3.891,3.891,0,0,1,14.585.168Zm0-1.036a2.581,2.581,0,0,0,1.533-.483,3.177,3.177,0,0,0,1.064-1.386A5.5,5.5,0,0,0,17.567-4.9a5.446,5.446,0,0,0-.385-2.156,3.182,3.182,0,0,0-1.064-1.379,2.581,2.581,0,0,0-1.533-.483,2.572,2.572,0,0,0-1.54.483,3.253,3.253,0,0,0-1.064,1.379A5.36,5.36,0,0,0,11.589-4.9a5.411,5.411,0,0,0,.392,2.163,3.248,3.248,0,0,0,1.064,1.386A2.572,2.572,0,0,0,14.585-.868Z" transform="translate(649.827 1526.71)" fill="#2a2a2a"/>
    <path id="Path_24227" data-name="Path 24227" d="M.9-5.346q.321.021.667.021a4.422,4.422,0,0,0,.677-.051,3.037,3.037,0,0,0,.632-.167,1.844,1.844,0,0,0,.54-.321A1.608,1.608,0,0,0,3.8-6.381,2.131,2.131,0,0,0,4-7.13H.6a2.26,2.26,0,0,1,.113-.2l.195-.325q.123-.2.273-.431H3.828a.532.532,0,0,0-.171-.359,1.878,1.878,0,0,0-.414-.325,2.977,2.977,0,0,0-.5-.236A1.275,1.275,0,0,0,2.331-9.1H.6a1.606,1.606,0,0,1,.12-.246q.092-.164.195-.325L1.1-9.953a.777.777,0,0,1,.085-.123H6.877L6.839-10q-.038.075-.1.181L6.6-9.587l-.14.236q-.065.109-.109.181L6.31-9.1h-1.5a4.387,4.387,0,0,1,.25.5,1.777,1.777,0,0,1,.133.516H6.877L6.31-7.13H5.257A2.721,2.721,0,0,1,4.9-6.043a2.642,2.642,0,0,1-.677.749,3.09,3.09,0,0,1-.892.458,5.238,5.238,0,0,1-1.012.222.169.169,0,0,0,.024.044q.024.038.058.085a1.4,1.4,0,0,0,.082.116L5.517-.178v.171h-1.3L.9-4.443ZM12.985,0V-8.484l-1.582.35v-.812L13.377-9.8h.8V0Zm6.79.168a3.686,3.686,0,0,1-1.792-.4A3.23,3.23,0,0,1,16.814-1.3a4.783,4.783,0,0,1-.644-1.5,7.158,7.158,0,0,1-.2-1.7,8.28,8.28,0,0,1,.448-2.849,4.331,4.331,0,0,1,1.3-1.918,3.134,3.134,0,0,1,2.051-.693,3.222,3.222,0,0,1,1.582.364,2.83,2.83,0,0,1,1.043.973,3.306,3.306,0,0,1,.483,1.351H21.777a2.019,2.019,0,0,0-.686-1.232,2.057,2.057,0,0,0-1.344-.434A2.22,2.22,0,0,0,17.892-7.9a5.9,5.9,0,0,0-.805,3.255,3.027,3.027,0,0,1,1.071-1.141,3.153,3.153,0,0,1,1.771-.483A3.3,3.3,0,0,1,21.5-5.88a3.221,3.221,0,0,1,1.2,1.1,2.964,2.964,0,0,1,.462,1.659,3.3,3.3,0,0,1-.406,1.582A3.249,3.249,0,0,1,21.588-.308,3.355,3.355,0,0,1,19.775.168ZM19.691-.868a2.433,2.433,0,0,0,1.176-.28,2.065,2.065,0,0,0,.812-.777,2.2,2.2,0,0,0,.294-1.141,2.048,2.048,0,0,0-.651-1.589,2.326,2.326,0,0,0-1.631-.595,2.3,2.3,0,0,0-1.176.3,2.258,2.258,0,0,0-.819.805,2.092,2.092,0,0,0-.3,1.092,2.132,2.132,0,0,0,.3,1.127,2.116,2.116,0,0,0,.819.777A2.433,2.433,0,0,0,19.691-.868Zm9.2,1.036a3.924,3.924,0,0,1-2.247-.637,4.064,4.064,0,0,1-1.449-1.778,6.515,6.515,0,0,1-.5-2.653,6.515,6.515,0,0,1,.5-2.653,4.064,4.064,0,0,1,1.449-1.778,3.924,3.924,0,0,1,2.247-.637,3.891,3.891,0,0,1,2.24.637,4.083,4.083,0,0,1,1.442,1.778,6.515,6.515,0,0,1,.5,2.653,6.515,6.515,0,0,1-.5,2.653A4.083,4.083,0,0,1,31.129-.469,3.891,3.891,0,0,1,28.889.168Zm0-1.036a2.581,2.581,0,0,0,1.533-.483,3.177,3.177,0,0,0,1.064-1.386A5.5,5.5,0,0,0,31.871-4.9a5.446,5.446,0,0,0-.385-2.156,3.182,3.182,0,0,0-1.064-1.379,2.581,2.581,0,0,0-1.533-.483,2.572,2.572,0,0,0-1.54.483,3.253,3.253,0,0,0-1.064,1.379A5.36,5.36,0,0,0,25.893-4.9a5.411,5.411,0,0,0,.392,2.163,3.248,3.248,0,0,0,1.064,1.386A2.572,2.572,0,0,0,28.889-.868Z" transform="translate(977.398 1531.832)" fill="#2a2a2a"/>
    <path id="Path_24229" data-name="Path 24229" d="M.9-5.346q.321.021.667.021a4.422,4.422,0,0,0,.677-.051,3.037,3.037,0,0,0,.632-.167,1.844,1.844,0,0,0,.54-.321A1.608,1.608,0,0,0,3.8-6.381,2.131,2.131,0,0,0,4-7.13H.6a2.26,2.26,0,0,1,.113-.2l.195-.325q.123-.2.273-.431H3.828a.532.532,0,0,0-.171-.359,1.878,1.878,0,0,0-.414-.325,2.977,2.977,0,0,0-.5-.236A1.275,1.275,0,0,0,2.331-9.1H.6a1.606,1.606,0,0,1,.12-.246q.092-.164.195-.325L1.1-9.953a.777.777,0,0,1,.085-.123H6.877L6.839-10q-.038.075-.1.181L6.6-9.587l-.14.236q-.065.109-.109.181L6.31-9.1h-1.5a4.387,4.387,0,0,1,.25.5,1.777,1.777,0,0,1,.133.516H6.877L6.31-7.13H5.257A2.721,2.721,0,0,1,4.9-6.043a2.642,2.642,0,0,1-.677.749,3.09,3.09,0,0,1-.892.458,5.238,5.238,0,0,1-1.012.222.169.169,0,0,0,.024.044q.024.038.058.085a1.4,1.4,0,0,0,.082.116L5.517-.178v.171h-1.3L.9-4.443ZM12.985,0V-8.484l-1.582.35v-.812L13.377-9.8h.8V0Zm6.79.168a3.686,3.686,0,0,1-1.792-.4A3.23,3.23,0,0,1,16.814-1.3a4.783,4.783,0,0,1-.644-1.5,7.158,7.158,0,0,1-.2-1.7,8.28,8.28,0,0,1,.448-2.849,4.331,4.331,0,0,1,1.3-1.918,3.134,3.134,0,0,1,2.051-.693,3.222,3.222,0,0,1,1.582.364,2.83,2.83,0,0,1,1.043.973,3.306,3.306,0,0,1,.483,1.351H21.777a2.019,2.019,0,0,0-.686-1.232,2.057,2.057,0,0,0-1.344-.434A2.22,2.22,0,0,0,17.892-7.9a5.9,5.9,0,0,0-.805,3.255,3.027,3.027,0,0,1,1.071-1.141,3.153,3.153,0,0,1,1.771-.483A3.3,3.3,0,0,1,21.5-5.88a3.221,3.221,0,0,1,1.2,1.1,2.964,2.964,0,0,1,.462,1.659,3.3,3.3,0,0,1-.406,1.582A3.249,3.249,0,0,1,21.588-.308,3.355,3.355,0,0,1,19.775.168ZM19.691-.868a2.433,2.433,0,0,0,1.176-.28,2.065,2.065,0,0,0,.812-.777,2.2,2.2,0,0,0,.294-1.141,2.048,2.048,0,0,0-.651-1.589,2.326,2.326,0,0,0-1.631-.595,2.3,2.3,0,0,0-1.176.3,2.258,2.258,0,0,0-.819.805,2.092,2.092,0,0,0-.3,1.092,2.132,2.132,0,0,0,.3,1.127,2.116,2.116,0,0,0,.819.777A2.433,2.433,0,0,0,19.691-.868Zm9.2,1.036a3.924,3.924,0,0,1-2.247-.637,4.064,4.064,0,0,1-1.449-1.778,6.515,6.515,0,0,1-.5-2.653,6.515,6.515,0,0,1,.5-2.653,4.064,4.064,0,0,1,1.449-1.778,3.924,3.924,0,0,1,2.247-.637,3.891,3.891,0,0,1,2.24.637,4.083,4.083,0,0,1,1.442,1.778,6.515,6.515,0,0,1,.5,2.653,6.515,6.515,0,0,1-.5,2.653A4.083,4.083,0,0,1,31.129-.469,3.891,3.891,0,0,1,28.889.168Zm0-1.036a2.581,2.581,0,0,0,1.533-.483,3.177,3.177,0,0,0,1.064-1.386A5.5,5.5,0,0,0,31.871-4.9a5.446,5.446,0,0,0-.385-2.156,3.182,3.182,0,0,0-1.064-1.379,2.581,2.581,0,0,0-1.533-.483,2.572,2.572,0,0,0-1.54.483,3.253,3.253,0,0,0-1.064,1.379A5.36,5.36,0,0,0,25.893-4.9a5.411,5.411,0,0,0,.392,2.163,3.248,3.248,0,0,0,1.064,1.386A2.572,2.572,0,0,0,28.889-.868Z" transform="translate(977.398 1434.832)" fill="#2a2a2a"/>
    <path id="Path_24231" data-name="Path 24231" d="M-18.533-5.346q.321.021.667.021a4.422,4.422,0,0,0,.677-.051,3.037,3.037,0,0,0,.632-.167,1.844,1.844,0,0,0,.54-.321,1.608,1.608,0,0,0,.393-.516,2.131,2.131,0,0,0,.195-.749h-3.4a2.26,2.26,0,0,1,.113-.2l.195-.325q.123-.2.273-.431H-15.6a.532.532,0,0,0-.171-.359,1.878,1.878,0,0,0-.414-.325,2.977,2.977,0,0,0-.5-.236A1.275,1.275,0,0,0-17.1-9.1h-1.729a1.606,1.606,0,0,1,.12-.246q.092-.164.195-.325l.181-.284a.777.777,0,0,1,.085-.123h5.694l-.038.075q-.038.075-.1.181l-.137.232-.14.236q-.065.109-.109.181l-.044.072h-1.5a4.387,4.387,0,0,1,.25.5,1.777,1.777,0,0,1,.133.516h1.682l-.567.957h-1.053a2.721,2.721,0,0,1-.359,1.087,2.642,2.642,0,0,1-.677.749,3.09,3.09,0,0,1-.892.458,5.238,5.238,0,0,1-1.012.222.169.169,0,0,0,.024.044q.024.038.058.085a1.4,1.4,0,0,0,.082.116l3.035,4.19v.171h-1.3l-3.322-4.437ZM-2.971,0V-2.1h-4.97v-.91l4.76-6.79h1.372v6.664H-.353V-2.1H-1.809V0ZM-6.639-3.136h3.724V-8.5ZM4.883.168A3.924,3.924,0,0,1,2.636-.469,4.064,4.064,0,0,1,1.187-2.247,6.515,6.515,0,0,1,.683-4.9a6.515,6.515,0,0,1,.5-2.653A4.064,4.064,0,0,1,2.636-9.331a3.924,3.924,0,0,1,2.247-.637,3.891,3.891,0,0,1,2.24.637A4.083,4.083,0,0,1,8.565-7.553a6.515,6.515,0,0,1,.5,2.653,6.515,6.515,0,0,1-.5,2.653A4.083,4.083,0,0,1,7.123-.469,3.891,3.891,0,0,1,4.883.168Zm0-1.036a2.581,2.581,0,0,0,1.533-.483A3.177,3.177,0,0,0,7.48-2.737,5.5,5.5,0,0,0,7.865-4.9,5.446,5.446,0,0,0,7.48-7.056,3.182,3.182,0,0,0,6.416-8.435a2.581,2.581,0,0,0-1.533-.483,2.572,2.572,0,0,0-1.54.483A3.253,3.253,0,0,0,2.279-7.056,5.36,5.36,0,0,0,1.887-4.9a5.411,5.411,0,0,0,.392,2.163A3.248,3.248,0,0,0,3.343-1.351,2.572,2.572,0,0,0,4.883-.868Zm9.7,1.036a3.924,3.924,0,0,1-2.247-.637,4.064,4.064,0,0,1-1.449-1.778,6.515,6.515,0,0,1-.5-2.653,6.515,6.515,0,0,1,.5-2.653,4.064,4.064,0,0,1,1.449-1.778,3.924,3.924,0,0,1,2.247-.637,3.891,3.891,0,0,1,2.24.637,4.083,4.083,0,0,1,1.442,1.778,6.515,6.515,0,0,1,.5,2.653,6.515,6.515,0,0,1-.5,2.653A4.083,4.083,0,0,1,16.825-.469,3.891,3.891,0,0,1,14.585.168Zm0-1.036a2.581,2.581,0,0,0,1.533-.483,3.177,3.177,0,0,0,1.064-1.386A5.5,5.5,0,0,0,17.567-4.9a5.446,5.446,0,0,0-.385-2.156,3.182,3.182,0,0,0-1.064-1.379,2.581,2.581,0,0,0-1.533-.483,2.572,2.572,0,0,0-1.54.483,3.253,3.253,0,0,0-1.064,1.379A5.36,5.36,0,0,0,11.589-4.9a5.411,5.411,0,0,0,.392,2.163,3.248,3.248,0,0,0,1.064,1.386A2.572,2.572,0,0,0,14.585-.868Z" transform="translate(790.827 1526.71)" fill="#2a2a2a"/>
    <path id="Path_24238" data-name="Path 24238" d="M.9-5.346q.321.021.667.021a4.422,4.422,0,0,0,.677-.051,3.037,3.037,0,0,0,.632-.167,1.844,1.844,0,0,0,.54-.321A1.608,1.608,0,0,0,3.8-6.381,2.131,2.131,0,0,0,4-7.13H.6a2.26,2.26,0,0,1,.113-.2l.195-.325q.123-.2.273-.431H3.828a.532.532,0,0,0-.171-.359,1.878,1.878,0,0,0-.414-.325,2.977,2.977,0,0,0-.5-.236A1.275,1.275,0,0,0,2.331-9.1H.6a1.606,1.606,0,0,1,.12-.246q.092-.164.195-.325L1.1-9.953a.777.777,0,0,1,.085-.123H6.877L6.839-10q-.038.075-.1.181L6.6-9.587l-.14.236q-.065.109-.109.181L6.31-9.1h-1.5a4.387,4.387,0,0,1,.25.5,1.777,1.777,0,0,1,.133.516H6.877L6.31-7.13H5.257A2.721,2.721,0,0,1,4.9-6.043a2.642,2.642,0,0,1-.677.749,3.09,3.09,0,0,1-.892.458,5.238,5.238,0,0,1-1.012.222.169.169,0,0,0,.024.044q.024.038.058.085a1.4,1.4,0,0,0,.082.116L5.517-.178v.171h-1.3L.9-4.443ZM15.253.168a4.08,4.08,0,0,1-1.736-.357,2.938,2.938,0,0,1-1.211-.994,2.531,2.531,0,0,1-.441-1.477,2.65,2.65,0,0,1,.525-1.61,2.5,2.5,0,0,1,1.393-.952,2.436,2.436,0,0,1-1.232-.854,2.122,2.122,0,0,1-.434-1.288A2.392,2.392,0,0,1,12.5-8.673a2.639,2.639,0,0,1,1.078-.945,3.721,3.721,0,0,1,1.68-.35,3.721,3.721,0,0,1,1.68.35,2.639,2.639,0,0,1,1.078.945,2.392,2.392,0,0,1,.378,1.309,2.132,2.132,0,0,1-.434,1.281,2.419,2.419,0,0,1-1.232.861,2.5,2.5,0,0,1,1.393.952,2.65,2.65,0,0,1,.525,1.61A2.531,2.531,0,0,1,18.2-1.183a2.938,2.938,0,0,1-1.211.994A4.08,4.08,0,0,1,15.253.168Zm0-5.81A2.1,2.1,0,0,0,16.674-6.1a1.507,1.507,0,0,0,.525-1.2,1.509,1.509,0,0,0-.518-1.246,2.206,2.206,0,0,0-1.428-.42,2.177,2.177,0,0,0-1.421.42,1.519,1.519,0,0,0-.511,1.246,1.516,1.516,0,0,0,.518,1.2A2.068,2.068,0,0,0,15.253-5.642Zm0,4.774a2.37,2.37,0,0,0,1.659-.511,1.752,1.752,0,0,0,.553-1.351,1.75,1.75,0,0,0-.6-1.442,2.474,2.474,0,0,0-1.61-.49,2.474,2.474,0,0,0-1.61.49,1.75,1.75,0,0,0-.6,1.442,1.752,1.752,0,0,0,.553,1.351A2.37,2.37,0,0,0,15.253-.868ZM24.381.168a3.924,3.924,0,0,1-2.247-.637,4.064,4.064,0,0,1-1.449-1.778,6.515,6.515,0,0,1-.5-2.653,6.515,6.515,0,0,1,.5-2.653,4.064,4.064,0,0,1,1.449-1.778,3.924,3.924,0,0,1,2.247-.637,3.891,3.891,0,0,1,2.24.637,4.083,4.083,0,0,1,1.442,1.778,6.515,6.515,0,0,1,.5,2.653,6.515,6.515,0,0,1-.5,2.653A4.083,4.083,0,0,1,26.621-.469,3.891,3.891,0,0,1,24.381.168Zm0-1.036a2.581,2.581,0,0,0,1.533-.483,3.177,3.177,0,0,0,1.064-1.386A5.5,5.5,0,0,0,27.363-4.9a5.446,5.446,0,0,0-.385-2.156,3.182,3.182,0,0,0-1.064-1.379,2.581,2.581,0,0,0-1.533-.483,2.572,2.572,0,0,0-1.54.483,3.253,3.253,0,0,0-1.064,1.379A5.36,5.36,0,0,0,21.385-4.9a5.411,5.411,0,0,0,.392,2.163,3.248,3.248,0,0,0,1.064,1.386A2.572,2.572,0,0,0,24.381-.868Z" transform="translate(980.398 1624)" fill="#2a2a2a"/>
  </g>
</svg>
