<svg xmlns="http://www.w3.org/2000/svg" xmlns:xlink="http://www.w3.org/1999/xlink" width="720" height="280" viewBox="0 0 720 280">
  <defs>
    <filter id="Path_24181" x="26" y="95" width="90" height="90" filterUnits="userSpaceOnUse">
      <feOffset input="SourceAlpha"/>
      <feGaussianBlur stdDeviation="5" result="blur"/>
      <feFlood flood-opacity="0.161"/>
      <feComposite operator="in" in2="blur"/>
      <feComposite in="SourceGraphic"/>
    </filter>
    <filter id="Path_24182" x="26" y="95" width="90" height="90" filterUnits="userSpaceOnUse">
      <feOffset input="SourceAlpha"/>
      <feGaussianBlur stdDeviation="5" result="blur-2"/>
      <feFlood flood-opacity="0.078"/>
      <feComposite operator="in" in2="blur-2"/>
      <feComposite in="SourceGraphic"/>
    </filter>
    <clipPath id="clip-path">
      <path id="Path_18462" data-name="Path 18462" d="M30,0A30,30,0,1,0,60,30,30,30,0,0,0,30,0Z" transform="translate(0 0.001)" fill="none" stroke="rgba(0,0,0,0)" stroke-width="1"/>
    </clipPath>
    <clipPath id="clip-path-2">
      <rect id="Rectangle_6280" data-name="Rectangle 6280" width="11.489" height="6.717" fill="none" stroke="rgba(0,0,0,0)" stroke-width="1"/>
    </clipPath>
    <clipPath id="clip-path-3">
      <rect id="Rectangle_6281" data-name="Rectangle 6281" width="6.861" height="7.169" fill="none" stroke="rgba(0,0,0,0)" stroke-width="1"/>
    </clipPath>
    <filter id="Path_23737" x="162" y="95" width="90" height="90" filterUnits="userSpaceOnUse">
      <feOffset input="SourceAlpha"/>
      <feGaussianBlur stdDeviation="5" result="blur-3"/>
      <feFlood flood-opacity="0.078"/>
      <feComposite operator="in" in2="blur-3"/>
      <feComposite in="SourceGraphic"/>
    </filter>
    <filter id="Path_23741" x="308" y="95" width="90" height="90" filterUnits="userSpaceOnUse">
      <feOffset input="SourceAlpha"/>
      <feGaussianBlur stdDeviation="5" result="blur-4"/>
      <feFlood flood-opacity="0.078"/>
      <feComposite operator="in" in2="blur-4"/>
      <feComposite in="SourceGraphic"/>
    </filter>
    <filter id="Path_23738" x="502" y="190" width="90" height="90" filterUnits="userSpaceOnUse">
      <feOffset input="SourceAlpha"/>
      <feGaussianBlur stdDeviation="5" result="blur-5"/>
      <feFlood flood-opacity="0.078"/>
      <feComposite operator="in" in2="blur-5"/>
      <feComposite in="SourceGraphic"/>
    </filter>
    <filter id="Path_23740" x="502" y="0" width="90" height="90" filterUnits="userSpaceOnUse">
      <feOffset input="SourceAlpha"/>
      <feGaussianBlur stdDeviation="5" result="blur-6"/>
      <feFlood flood-opacity="0.078"/>
      <feComposite operator="in" in2="blur-6"/>
      <feComposite in="SourceGraphic"/>
    </filter>
  </defs>
  <g id="Group_18817" data-name="Group 18817" transform="translate(-511 -1394)">
    <path id="Path_24179" data-name="Path 24179" d="M0,0H720V260H0Z" transform="translate(511 1406)" fill="none"/>
    <path id="Path_24180" data-name="Path 24180" d="M-30.4.192a5.344,5.344,0,0,1-2.84-.728,4.908,4.908,0,0,1-1.848-2.032A6.663,6.663,0,0,1-35.744-5.6a6.625,6.625,0,0,1,.656-3.016,4.962,4.962,0,0,1,1.848-2.04,5.3,5.3,0,0,1,2.84-.736,5.022,5.022,0,0,1,3.128.92A4.137,4.137,0,0,1-25.728-7.9h-1.488a2.985,2.985,0,0,0-1.048-1.672,3.33,3.33,0,0,0-2.136-.632,3.915,3.915,0,0,0-2.1.552A3.627,3.627,0,0,0-33.88-8.072,5.74,5.74,0,0,0-34.368-5.6a5.74,5.74,0,0,0,.488,2.472A3.627,3.627,0,0,0-32.5-1.544a3.915,3.915,0,0,0,2.1.552,3.39,3.39,0,0,0,2.136-.616,2.9,2.9,0,0,0,1.048-1.64h1.488A4.085,4.085,0,0,1-27.272-.72,5.053,5.053,0,0,1-30.4.192Zm9.424,0a2.98,2.98,0,0,1-2.24-.856A3.65,3.65,0,0,1-24.048-3.3v-4.64H-22.7v4.5q0,2.48,2.032,2.48a2.229,2.229,0,0,0,1.72-.744,3.032,3.032,0,0,0,.68-2.12V-7.936h1.344V0h-1.216l-.1-1.424a2.763,2.763,0,0,1-1.1,1.184A3.152,3.152,0,0,1-20.976.192Zm9.3,0a3.792,3.792,0,0,1-2.368-.72,2.807,2.807,0,0,1-1.1-1.952h1.376a1.9,1.9,0,0,0,.664,1.08,2.161,2.161,0,0,0,1.448.456,1.826,1.826,0,0,0,1.248-.36,1.115,1.115,0,0,0,.4-.856.95.95,0,0,0-.52-.96A6.921,6.921,0,0,0-12-3.552a8.252,8.252,0,0,1-1.28-.368,2.908,2.908,0,0,1-1.072-.68,1.584,1.584,0,0,1-.432-1.16,2.141,2.141,0,0,1,.776-1.7,3.129,3.129,0,0,1,2.1-.664A3.263,3.263,0,0,1-9.832-7.5,2.522,2.522,0,0,1-8.9-5.7h-1.328a1.384,1.384,0,0,0-.52-.952,1.858,1.858,0,0,0-1.176-.344,1.78,1.78,0,0,0-1.112.3.964.964,0,0,0-.392.8.831.831,0,0,0,.5.752,5.411,5.411,0,0,0,1.368.464,11.916,11.916,0,0,1,1.4.392,2.646,2.646,0,0,1,1.088.688,1.87,1.87,0,0,1,.424,1.32A2.168,2.168,0,0,1-9.448-.5,3.348,3.348,0,0,1-11.68.192ZM-3.936,0A2.568,2.568,0,0,1-5.648-.528a2.4,2.4,0,0,1-.624-1.9V-6.8H-7.648V-7.936h1.376l.176-1.9h1.168v1.9h2.336V-6.8H-4.928v4.368a1.32,1.32,0,0,0,.3,1.016,1.657,1.657,0,0,0,1.072.264h.832V0ZM2.512.192A3.99,3.99,0,0,1,.5-.32,3.7,3.7,0,0,1-.92-1.768a4.459,4.459,0,0,1-.52-2.2,4.4,4.4,0,0,1,.528-2.2A3.737,3.737,0,0,1,.52-7.616a4.034,4.034,0,0,1,2.024-.512,3.99,3.99,0,0,1,2.016.512A3.7,3.7,0,0,1,5.976-6.168a4.459,4.459,0,0,1,.52,2.2,4.4,4.4,0,0,1-.528,2.2A3.737,3.737,0,0,1,4.536-.32,4.034,4.034,0,0,1,2.512.192Zm0-1.152A2.55,2.55,0,0,0,3.792-1.3,2.506,2.506,0,0,0,4.752-2.3,3.428,3.428,0,0,0,5.12-3.968a3.491,3.491,0,0,0-.36-1.664A2.454,2.454,0,0,0,3.808-6.64a2.52,2.52,0,0,0-1.264-.336,2.55,2.55,0,0,0-1.28.336A2.506,2.506,0,0,0,.3-5.632,3.428,3.428,0,0,0-.064-3.968,3.428,3.428,0,0,0,.3-2.3,2.525,2.525,0,0,0,1.256-1.3,2.477,2.477,0,0,0,2.512-.96ZM8.368,0V-7.936H9.584l.1,1.152A2.688,2.688,0,0,1,10.7-7.776a2.938,2.938,0,0,1,1.44-.352,3.251,3.251,0,0,1,1.624.384,2.526,2.526,0,0,1,1.048,1.168A3.038,3.038,0,0,1,15.96-7.712a3.123,3.123,0,0,1,1.576-.416,3.054,3.054,0,0,1,2.272.856,3.606,3.606,0,0,1,.848,2.632V0H19.328V-4.5a2.941,2.941,0,0,0-.5-1.856,1.712,1.712,0,0,0-1.424-.624,2,2,0,0,0-1.592.744,3.184,3.184,0,0,0-.632,2.12V0H13.84V-4.5a2.941,2.941,0,0,0-.5-1.856,1.712,1.712,0,0,0-1.424-.624,1.985,1.985,0,0,0-1.576.744,3.184,3.184,0,0,0-.632,2.12V0ZM26.256.192a3.887,3.887,0,0,1-2.016-.52,3.692,3.692,0,0,1-1.384-1.448,4.526,4.526,0,0,1-.5-2.192,4.6,4.6,0,0,1,.5-2.184,3.606,3.606,0,0,1,1.384-1.456,3.993,3.993,0,0,1,2.056-.52,3.708,3.708,0,0,1,1.992.52A3.523,3.523,0,0,1,29.568-6.24a3.846,3.846,0,0,1,.448,1.824q0,.176-.008.352t-.008.4H23.68A3.118,3.118,0,0,0,24.1-2.152a2.506,2.506,0,0,0,.944.9,2.523,2.523,0,0,0,1.208.3,2.4,2.4,0,0,0,1.392-.384,2.2,2.2,0,0,0,.816-1.04h1.328A3.582,3.582,0,0,1,28.568-.536,3.57,3.57,0,0,1,26.256.192Zm0-7.184a2.684,2.684,0,0,0-1.7.584A2.353,2.353,0,0,0,23.7-4.7h4.992a2.27,2.27,0,0,0-.736-1.68A2.469,2.469,0,0,0,26.256-6.992ZM31.792,0V-7.936h1.216l.112,1.52a2.877,2.877,0,0,1,1.12-1.248A3.472,3.472,0,0,1,36.1-8.128V-6.72h-.368a3.321,3.321,0,0,0-1.3.248,1.968,1.968,0,0,0-.944.84A3.2,3.2,0,0,0,33.136-4V0Z" transform="translate(582 1586)" fill="#2a2a2a"/>
    <g transform="matrix(1, 0, 0, 1, 511, 1394)" filter="url(#Path_24181)">
      <path id="Path_24181-2" data-name="Path 24181" d="M30,0A30,30,0,1,1,0,30,30,30,0,0,1,30,0Z" transform="translate(41 110)" fill="#fff"/>
    </g>
    <g transform="matrix(1, 0, 0, 1, 511, 1394)" filter="url(#Path_24182)">
      <path id="Path_24182-2" data-name="Path 24182" d="M30,0A30,30,0,1,1,0,30,30,30,0,0,1,30,0Z" transform="translate(41 110)" fill="#daf8ed"/>
    </g>
    <g id="main_merchant" data-name="main merchant" transform="translate(-417 1368)">
      <g id="Group_18731" data-name="Group 18731" transform="translate(969 136)" clip-path="url(#clip-path)">
        <rect id="Rectangle_6279" data-name="Rectangle 6279" width="11.489" height="7.741" transform="translate(24.256 39.877)" fill="#faac8d" stroke="rgba(0,0,0,0)" stroke-width="1"/>
        <g id="Group_18727" data-name="Group 18727" transform="translate(24.255 39.877)" style="mix-blend-mode: multiply;isolation: isolate">
          <g id="Group_18726" data-name="Group 18726">
            <g id="Group_18725" data-name="Group 18725" clip-path="url(#clip-path-2)">
              <path id="Path_18442" data-name="Path 18442" d="M45.1,75.161a15.438,15.438,0,0,0,5.495,1.118,17.765,17.765,0,0,0,3.208-.311V69.562H42.312v4A9.6,9.6,0,0,0,45.1,75.161" transform="translate(-42.312 -69.562)" fill="#e0e1e3" stroke="rgba(0,0,0,0)" stroke-width="1"/>
            </g>
          </g>
        </g>
        <path id="Path_18443" data-name="Path 18443" d="M72.774,43.787c.037-.281.5-.739.708-.894.455-.345.914.01,1.047.458a5.925,5.925,0,0,1,.158,1.27,5.7,5.7,0,0,1-.527,2.928,3.9,3.9,0,0,1-1.318,1.492.469.469,0,0,1-.715-.394s.647-4.856.647-4.859" transform="translate(-30.78 -18.245)" fill="#faac8d" stroke="rgba(0,0,0,0)" stroke-width="1"/>
        <path id="Path_18444" data-name="Path 18444" d="M72.745,45.069c.026-.2.361-.529.506-.64.327-.246.654.007.749.328a4.31,4.31,0,0,1,.114.909,4.087,4.087,0,0,1-.378,2.095,2.8,2.8,0,0,1-.944,1.069.336.336,0,0,1-.511-.283s.463-3.474.464-3.477" transform="translate(-30.846 -18.917)" fill="#d5947b" stroke="rgba(0,0,0,0)" stroke-width="1"/>
        <path id="Path_18445" data-name="Path 18445" d="M29.462,43.787c-.037-.281-.5-.739-.709-.894-.455-.345-.914.01-1.047.458a5.962,5.962,0,0,0-.158,1.27,5.7,5.7,0,0,0,.528,2.928,3.893,3.893,0,0,0,1.318,1.492.469.469,0,0,0,.715-.394s-.647-4.856-.647-4.859" transform="translate(-11.749 -18.245)" fill="#faac8d" stroke="rgba(0,0,0,0)" stroke-width="1"/>
        <path id="Path_18446" data-name="Path 18446" d="M30.037,45.069a1.519,1.519,0,0,0-.507-.64c-.326-.246-.654.007-.749.328a4.271,4.271,0,0,0-.114.909,4.087,4.087,0,0,0,.378,2.095,2.8,2.8,0,0,0,.944,1.069.336.336,0,0,0,.511-.283s-.463-3.474-.463-3.477" transform="translate(-12.229 -18.917)" fill="#d5947b" stroke="rgba(0,0,0,0)" stroke-width="1"/>
        <path id="Path_18447" data-name="Path 18447" d="M55.483,33.592a19.624,19.624,0,0,1-2.016,9.216,18.213,18.213,0,0,1-5.3,5.916c-1.686,1.258-3.493,2.724-5.627,2.545-2.224-.187-3.955-2.127-5.581-3.642a19.833,19.833,0,0,1-5.2-7.887,18.623,18.623,0,0,1-1-6.148c0-10.356,5.535-16.871,12.363-16.871s12.364,6.514,12.364,16.871" transform="translate(-13.125 -7.135)" fill="#faac8d" stroke="rgba(0,0,0,0)" stroke-width="1"/>
        <path id="Path_18448" data-name="Path 18448" d="M51.972,86.385,37.654,82.641H26.165L11.848,86.385A12.283,12.283,0,0,0,4.475,96.624H59.344a12.283,12.283,0,0,0-7.372-10.239" transform="translate(-1.91 -35.266)" fill="#faac8d" stroke="rgba(0,0,0,0)" stroke-width="1"/>
        <path id="Path_18449" data-name="Path 18449" d="M51.972,86.385,37.654,82.641H26.165L11.848,86.385A12.283,12.283,0,0,0,4.475,96.624H59.344a12.283,12.283,0,0,0-7.372-10.239" transform="translate(-1.91 -35.266)" fill="#fff" stroke="rgba(0,0,0,0)" stroke-width="1"/>
        <path id="Path_18450" data-name="Path 18450" d="M51.972,87.089l-10.6-2.771L31.91,97.329,22.546,84.292l-10.7,2.8A12.283,12.283,0,0,0,4.475,97.329H59.344a12.283,12.283,0,0,0-7.372-10.239" transform="translate(-1.91 -35.971)" fill="#2b0000" stroke="rgba(0,0,0,0)" stroke-width="1"/>
        <path id="Path_18451" data-name="Path 18451" d="M48.177,95.663l-2.638,6.518h7.5l-2.572-6.518Z" transform="translate(-19.434 -40.823)" fill="#23ad9b" stroke="rgba(0,0,0,0)" stroke-width="1"/>
        <path id="Path_18452" data-name="Path 18452" d="M49.531,82.863l-3.358,4.505,2.334,2.85L49.65,90.2l1.143-.019,2.24-2.925Z" transform="translate(-19.704 -35.361)" fill="#23ad9b" stroke="rgba(0,0,0,0)" stroke-width="1"/>
        <g id="Group_18730" data-name="Group 18730" transform="translate(26.469 47.688)" style="mix-blend-mode: multiply;isolation: isolate">
          <g id="Group_18729" data-name="Group 18729">
            <g id="Group_18728" data-name="Group 18728" clip-path="url(#clip-path-3)">
              <path id="Path_18453" data-name="Path 18453" d="M51.775,86.917c-.429.848-1.229,1.815-2.314,1.577a1.872,1.872,0,0,1-1.378-2.385,25.024,25.024,0,0,1,1.309-2.92l-3.219,4.318,2.334,2.851,2.286-.038,2.24-2.924-.948-1.189a7.512,7.512,0,0,1-.311.71" transform="translate(-46.173 -83.188)" fill="#c7c9cb" stroke="rgba(0,0,0,0)" stroke-width="1"/>
            </g>
          </g>
        </g>
        <path id="Path_18454" data-name="Path 18454" d="M39.788,97.328,30.424,84.291,22.937,86.25,32.5,92.985l-2.458,1.083,4.423,3.26Z" transform="translate(-9.788 -35.97)" fill="#190003" stroke="rgba(0,0,0,0)" stroke-width="1"/>
        <path id="Path_18455" data-name="Path 18455" d="M52.333,97.36,61.7,84.323l7.487,1.958-9.568,6.736L62.073,94.1,57.65,97.36Z" transform="translate(-22.333 -35.984)" fill="#190003" stroke="rgba(0,0,0,0)" stroke-width="1"/>
        <path id="Path_18456" data-name="Path 18456" d="M32.482,81.158,38.1,78.524l5.724,2.39,5.725-2.39,6,2.634-8.484,5.68-3.242-4.643L40.33,86.838Z" transform="translate(-13.862 -33.509)" fill="#dbdcde" stroke="rgba(0,0,0,0)" stroke-width="1"/>
        <path id="Path_18457" data-name="Path 18457" d="M64.1,65.167s3.1-2.936,3.79-5.526c0,0-3.662,3.3-4.939,2.953Z" transform="translate(-26.865 -25.451)" fill="#100200" stroke="rgba(0,0,0,0)" stroke-width="1"/>
        <path id="Path_18458" data-name="Path 18458" d="M37.8,65.643s-3.6-3.084-4.587-6.947c0,0,4.106,4.739,5.382,4.387Z" transform="translate(-14.171 -25.048)" fill="#100200" stroke="rgba(0,0,0,0)" stroke-width="1"/>
        <path id="Path_18459" data-name="Path 18459" d="M49.612,61.946a6.408,6.408,0,0,1,3.139.73,4.781,4.781,0,0,1,2.241,3.131,15.484,15.484,0,0,1-2.727,2.32c-3.387,2.808-4.942,2.453-4.942,2.453a5.352,5.352,0,0,1-3.279-1.2l-3.17-2.484a4.341,4.341,0,0,1,2.068-4.217c1.477-.718,1.744-.622,1.744-.622s2.213-.259,2.754.62a2.575,2.575,0,0,1,2.061-.728" transform="translate(-17.425 -26.435)" fill="#150700" stroke="rgba(0,0,0,0)" stroke-width="1"/>
        <path id="Path_18460" data-name="Path 18460" d="M50.307,65.758a4.543,4.543,0,0,0-3.415.052,4.532,4.532,0,0,0,6.56.043s-1.869-.872-3.145-.095" transform="translate(-20.011 -27.924)" fill="#faac8d" stroke="rgba(0,0,0,0)" stroke-width="1"/>
        <path id="Path_18461" data-name="Path 18461" d="M55.178,12.87a6.039,6.039,0,0,0,2.482-5.148,6.866,6.866,0,0,1-4,2.014C56.12,8.263,54.9,5.191,54.9,5.191c-.768,1.72-4.188,2.7-4.188,2.7,1.659-1.106.626-3.625.626-3.625C50.183,6.235,46.72,7.1,46.72,7.1a4.712,4.712,0,0,0,2.519-3.133C47.211,5.743,41.682,6.6,41.682,6.6s-6.091.555-7.6,5.616c-4.455.641-4.5,8.172-4.186,12.238h0l.282,4.917h.989a20.927,20.927,0,0,1,0-5.55,42.394,42.394,0,0,1,1.469-4.6,5.209,5.209,0,0,1,3.751-3.209l1-.075C41.743,15.3,43.03,18.4,43.03,18.4c.675-1.781,2.953-2.211,2.953-2.211,6.634-.885,7.586,4.361,7.586,4.361l.749,3.339a22.934,22.934,0,0,1-.057,5.488h.989l.283-4.917a3.816,3.816,0,0,0,0-.406c.5-2.742.943-7.211-.355-11.182" transform="translate(-12.709 -1.69)" fill="#100200" stroke="rgba(0,0,0,0)" stroke-width="1"/>
      </g>
    </g>
    <g transform="matrix(1, 0, 0, 1, 511, 1394)" filter="url(#Path_23737)">
      <path id="Path_23737-2" data-name="Path 23737" d="M30,0A30,30,0,1,1,0,30,30,30,0,0,1,30,0Z" transform="translate(177 110)" fill="#fff"/>
    </g>
    <path id="Path_24183" data-name="Path 24183" d="M-16.412-5.346q.321.021.667.021a4.422,4.422,0,0,0,.677-.051,3.037,3.037,0,0,0,.632-.167,1.844,1.844,0,0,0,.54-.321,1.608,1.608,0,0,0,.393-.516,2.131,2.131,0,0,0,.195-.749h-3.4a2.26,2.26,0,0,1,.113-.2l.195-.325q.123-.2.273-.431h2.646a.532.532,0,0,0-.171-.359,1.878,1.878,0,0,0-.414-.325,2.977,2.977,0,0,0-.5-.236,1.275,1.275,0,0,0-.417-.092h-1.729a1.606,1.606,0,0,1,.12-.246q.092-.164.195-.325l.181-.284a.777.777,0,0,1,.085-.123h5.694l-.038.075q-.038.075-.1.181l-.137.232-.14.236q-.065.109-.109.181L-11-9.1h-1.5a4.387,4.387,0,0,1,.25.5,1.777,1.777,0,0,1,.133.516h1.682L-11-7.13h-1.053a2.721,2.721,0,0,1-.359,1.087,2.642,2.642,0,0,1-.677.749,3.09,3.09,0,0,1-.892.458,5.237,5.237,0,0,1-1.012.222.169.169,0,0,0,.024.044q.024.038.058.085a1.4,1.4,0,0,0,.082.116l3.035,4.19v.171h-1.3l-3.322-4.437ZM-4.322,0V-8.484l-1.582.35v-.812L-3.93-9.8h.8V0ZM2.762.168A3.924,3.924,0,0,1,.515-.469,4.064,4.064,0,0,1-.934-2.247a6.515,6.515,0,0,1-.5-2.653,6.515,6.515,0,0,1,.5-2.653A4.064,4.064,0,0,1,.515-9.331a3.924,3.924,0,0,1,2.247-.637A3.891,3.891,0,0,1,5-9.331,4.083,4.083,0,0,1,6.444-7.553a6.515,6.515,0,0,1,.5,2.653,6.515,6.515,0,0,1-.5,2.653A4.083,4.083,0,0,1,5-.469,3.891,3.891,0,0,1,2.762.168Zm0-1.036a2.581,2.581,0,0,0,1.533-.483A3.177,3.177,0,0,0,5.359-2.737,5.5,5.5,0,0,0,5.744-4.9a5.446,5.446,0,0,0-.385-2.156A3.182,3.182,0,0,0,4.295-8.435a2.581,2.581,0,0,0-1.533-.483,2.572,2.572,0,0,0-1.54.483A3.253,3.253,0,0,0,.158-7.056,5.36,5.36,0,0,0-.234-4.9,5.411,5.411,0,0,0,.158-2.737,3.248,3.248,0,0,0,1.222-1.351,2.572,2.572,0,0,0,2.762-.868Zm9.7,1.036a3.924,3.924,0,0,1-2.247-.637A4.064,4.064,0,0,1,8.768-2.247a6.515,6.515,0,0,1-.5-2.653,6.515,6.515,0,0,1,.5-2.653,4.064,4.064,0,0,1,1.449-1.778,3.924,3.924,0,0,1,2.247-.637,3.891,3.891,0,0,1,2.24.637,4.083,4.083,0,0,1,1.442,1.778,6.515,6.515,0,0,1,.5,2.653,6.515,6.515,0,0,1-.5,2.653A4.083,4.083,0,0,1,14.7-.469,3.891,3.891,0,0,1,12.464.168Zm0-1.036A2.581,2.581,0,0,0,14-1.351a3.177,3.177,0,0,0,1.064-1.386A5.5,5.5,0,0,0,15.446-4.9a5.446,5.446,0,0,0-.385-2.156A3.182,3.182,0,0,0,14-8.435a2.581,2.581,0,0,0-1.533-.483,2.572,2.572,0,0,0-1.54.483A3.253,3.253,0,0,0,9.86-7.056,5.36,5.36,0,0,0,9.468-4.9,5.411,5.411,0,0,0,9.86-2.737a3.248,3.248,0,0,0,1.064,1.386A2.572,2.572,0,0,0,12.464-.868Z" transform="translate(648.027 1527.076)" fill="#2a2a2a"/>
    <path id="Path_24237" data-name="Path 24237" d="M-16.412-5.346q.321.021.667.021a4.422,4.422,0,0,0,.677-.051,3.037,3.037,0,0,0,.632-.167,1.844,1.844,0,0,0,.54-.321,1.608,1.608,0,0,0,.393-.516,2.131,2.131,0,0,0,.195-.749h-3.4a2.26,2.26,0,0,1,.113-.2l.195-.325q.123-.2.273-.431h2.646a.532.532,0,0,0-.171-.359,1.878,1.878,0,0,0-.414-.325,2.977,2.977,0,0,0-.5-.236,1.275,1.275,0,0,0-.417-.092h-1.729a1.606,1.606,0,0,1,.12-.246q.092-.164.195-.325l.181-.284a.777.777,0,0,1,.085-.123h5.694l-.038.075q-.038.075-.1.181l-.137.232-.14.236q-.065.109-.109.181L-11-9.1h-1.5a4.387,4.387,0,0,1,.25.5,1.777,1.777,0,0,1,.133.516h1.682L-11-7.13h-1.053a2.721,2.721,0,0,1-.359,1.087,2.642,2.642,0,0,1-.677.749,3.09,3.09,0,0,1-.892.458,5.237,5.237,0,0,1-1.012.222.169.169,0,0,0,.024.044q.024.038.058.085a1.4,1.4,0,0,0,.082.116l3.035,4.19v.171h-1.3l-3.322-4.437ZM-4.322,0V-8.484l-1.582.35v-.812L-3.93-9.8h.8V0ZM2.762.168A3.924,3.924,0,0,1,.515-.469,4.064,4.064,0,0,1-.934-2.247a6.515,6.515,0,0,1-.5-2.653,6.515,6.515,0,0,1,.5-2.653A4.064,4.064,0,0,1,.515-9.331a3.924,3.924,0,0,1,2.247-.637A3.891,3.891,0,0,1,5-9.331,4.083,4.083,0,0,1,6.444-7.553a6.515,6.515,0,0,1,.5,2.653,6.515,6.515,0,0,1-.5,2.653A4.083,4.083,0,0,1,5-.469,3.891,3.891,0,0,1,2.762.168Zm0-1.036a2.581,2.581,0,0,0,1.533-.483A3.177,3.177,0,0,0,5.359-2.737,5.5,5.5,0,0,0,5.744-4.9a5.446,5.446,0,0,0-.385-2.156A3.182,3.182,0,0,0,4.295-8.435a2.581,2.581,0,0,0-1.533-.483,2.572,2.572,0,0,0-1.54.483A3.253,3.253,0,0,0,.158-7.056,5.36,5.36,0,0,0-.234-4.9,5.411,5.411,0,0,0,.158-2.737,3.248,3.248,0,0,0,1.222-1.351,2.572,2.572,0,0,0,2.762-.868Zm9.7,1.036a3.924,3.924,0,0,1-2.247-.637A4.064,4.064,0,0,1,8.768-2.247a6.515,6.515,0,0,1-.5-2.653,6.515,6.515,0,0,1,.5-2.653,4.064,4.064,0,0,1,1.449-1.778,3.924,3.924,0,0,1,2.247-.637,3.891,3.891,0,0,1,2.24.637,4.083,4.083,0,0,1,1.442,1.778,6.515,6.515,0,0,1,.5,2.653,6.515,6.515,0,0,1-.5,2.653A4.083,4.083,0,0,1,14.7-.469,3.891,3.891,0,0,1,12.464.168Zm0-1.036A2.581,2.581,0,0,0,14-1.351a3.177,3.177,0,0,0,1.064-1.386A5.5,5.5,0,0,0,15.446-4.9a5.446,5.446,0,0,0-.385-2.156A3.182,3.182,0,0,0,14-8.435a2.581,2.581,0,0,0-1.533-.483,2.572,2.572,0,0,0-1.54.483A3.253,3.253,0,0,0,9.86-7.056,5.36,5.36,0,0,0,9.468-4.9,5.411,5.411,0,0,0,9.86-2.737a3.248,3.248,0,0,0,1.064,1.386A2.572,2.572,0,0,0,12.464-.868Z" transform="translate(788.706 1527.076)" fill="#2a2a2a"/>
    <path id="Path_24184" data-name="Path 24184" d="M-9.928,0V-11.2h1.344V0Zm7.28.192A4.811,4.811,0,0,1-4.792-.256,3.348,3.348,0,0,1-6.2-1.5,3.449,3.449,0,0,1-6.7-3.36h1.408a2.463,2.463,0,0,0,.3,1.208,2.238,2.238,0,0,0,.888.88,2.922,2.922,0,0,0,1.448.328,2.594,2.594,0,0,0,1.76-.544,1.73,1.73,0,0,0,.624-1.36,1.836,1.836,0,0,0-.288-1.08,2.154,2.154,0,0,0-.776-.664,6.445,6.445,0,0,0-1.12-.448q-.632-.192-1.32-.432a4.714,4.714,0,0,1-1.92-1.112A2.432,2.432,0,0,1-6.312-8.32,2.856,2.856,0,0,1-5.9-9.912,2.932,2.932,0,0,1-4.672-11a4.2,4.2,0,0,1,1.88-.392,4.086,4.086,0,0,1,1.864.4A3.023,3.023,0,0,1,.3-9.888a3.062,3.062,0,0,1,.456,1.6H-.648a1.957,1.957,0,0,0-.24-.92,1.874,1.874,0,0,0-.728-.744A2.376,2.376,0,0,0-2.84-10.24a2.214,2.214,0,0,0-1.5.464A1.625,1.625,0,0,0-4.92-8.448a1.443,1.443,0,0,0,.408,1.1,3.089,3.089,0,0,0,1.144.632q.736.248,1.7.568a8.174,8.174,0,0,1,1.44.672,2.829,2.829,0,0,1,1,.992,3.011,3.011,0,0,1,.36,1.552A2.95,2.95,0,0,1,.712-1.416,3.091,3.091,0,0,1-.544-.256,4.437,4.437,0,0,1-2.648.192ZM3.032,0V-11.2h3.68a4.746,4.746,0,0,1,2.16.432A2.879,2.879,0,0,1,10.128-9.6a3.374,3.374,0,0,1,.408,1.664,3.394,3.394,0,0,1-.4,1.648A2.875,2.875,0,0,1,8.888-5.112a4.713,4.713,0,0,1-2.176.44H4.376V0ZM4.376-5.808h2.3a2.643,2.643,0,0,0,1.912-.568,2.108,2.108,0,0,0,.568-1.56,2.13,2.13,0,0,0-.568-1.576A2.643,2.643,0,0,0,6.68-10.08h-2.3Z" transform="translate(718 1586)" fill="#2a2a2a"/>
    <path id="Path_24117" data-name="Path 24117" d="M16.566,31.132a14.566,14.566,0,1,1,10.3-4.266A14.566,14.566,0,0,1,16.566,31.132Z" transform="translate(702.57 1518.57)" fill="#c5d2f1"/>
    <path id="Path_24118" data-name="Path 24118" d="M.5,15.066a14.566,14.566,0,1,0,4.266-10.3A14.567,14.567,0,0,0,.5,15.066Zm27.418,0a12.852,12.852,0,1,1-3.764-9.088A12.853,12.853,0,0,1,27.918,15.066Z" transform="translate(701.5 1517.5)" fill="#517ce3" fill-rule="evenodd"/>
    <path id="Path_24119" data-name="Path 24119" d="M5.5,14.709c0,7.533,2.471,13.709,6,13.709s6-6.176,6-13.709S15.024,1,11.5,1,5.5,7.176,5.5,14.709Zm10.282,0c0,6.664-2.134,12-4.284,12s-4.284-5.331-4.284-12,2.134-12,4.284-12S15.782,8.045,15.782,14.709Z" transform="translate(705.068 1517.857)" fill="#517ce3" fill-rule="evenodd"/>
    <path id="Path_24120" data-name="Path 24120" d="M3.973,4.842,5.121,3.57q.275.247.588.482a16.657,16.657,0,0,0,9.708,2.725A17.845,17.845,0,0,0,24.08,4.737a9.576,9.576,0,0,0,1.469-1.023l1.114,1.3a11.249,11.249,0,0,1-1.731,1.206A19.511,19.511,0,0,1,15.417,8.49,18.319,18.319,0,0,1,4.681,5.422C4.436,5.239,4.2,5.047,3.973,4.842Zm0,16.088L5.121,22.2c.183-.165.379-.326.588-.48a16.657,16.657,0,0,1,9.708-2.725,17.825,17.825,0,0,1,8.663,2.039,9.723,9.723,0,0,1,1.469,1.021l1.114-1.3a11.279,11.279,0,0,0-1.731-1.206,19.53,19.53,0,0,0-9.514-2.265A18.331,18.331,0,0,0,4.681,20.345Q4.306,20.628,3.973,20.929ZM1,13.732V12.018H28.418v1.714Z" transform="translate(701.857 1519.691)" fill="#517ce3"/>
    <path id="Path_24185" data-name="Path 24185" d="M-56.584,0V-11.2h6.928v1.1H-55.24v3.9h5.1V-5.1h-5.1v4h5.584V0ZM-45,.192a3.6,3.6,0,0,1-1.648-.336,2.284,2.284,0,0,1-.976-.9,2.409,2.409,0,0,1-.32-1.216,2.155,2.155,0,0,1,.928-1.872,4.309,4.309,0,0,1,2.528-.656h2.144v-.1a2.118,2.118,0,0,0-.544-1.576,1.984,1.984,0,0,0-1.456-.536A2.321,2.321,0,0,0-45.7-6.6a1.717,1.717,0,0,0-.712,1.144h-1.376A2.547,2.547,0,0,1-47.2-6.912a3.264,3.264,0,0,1,1.256-.9,4.133,4.133,0,0,1,1.6-.312,3.288,3.288,0,0,1,2.5.888A3.293,3.293,0,0,1-41-4.88V0h-1.2l-.08-1.424A3.148,3.148,0,0,1-43.264-.28,2.887,2.887,0,0,1-45,.192Zm.208-1.136a2.189,2.189,0,0,0,1.32-.4,2.553,2.553,0,0,0,.84-1.04,3.239,3.239,0,0,0,.288-1.344v-.016h-2.032a2.638,2.638,0,0,0-1.672.408,1.272,1.272,0,0,0-.488,1.016,1.231,1.231,0,0,0,.456,1A1.972,1.972,0,0,0-44.792-.944ZM-35.944.192a3.792,3.792,0,0,1-2.368-.72,2.807,2.807,0,0,1-1.1-1.952h1.376a1.9,1.9,0,0,0,.664,1.08,2.161,2.161,0,0,0,1.448.456A1.826,1.826,0,0,0-34.68-1.3a1.115,1.115,0,0,0,.4-.856.95.95,0,0,0-.52-.96,6.921,6.921,0,0,0-1.464-.432,8.252,8.252,0,0,1-1.28-.368,2.908,2.908,0,0,1-1.072-.68,1.584,1.584,0,0,1-.432-1.16,2.141,2.141,0,0,1,.776-1.7,3.129,3.129,0,0,1,2.1-.664A3.263,3.263,0,0,1-34.1-7.5a2.522,2.522,0,0,1,.936,1.8h-1.328a1.384,1.384,0,0,0-.52-.952,1.858,1.858,0,0,0-1.176-.344,1.78,1.78,0,0,0-1.112.3.964.964,0,0,0-.392.8.831.831,0,0,0,.5.752,5.411,5.411,0,0,0,1.368.464,11.916,11.916,0,0,1,1.4.392,2.646,2.646,0,0,1,1.088.688,1.87,1.87,0,0,1,.424,1.32A2.168,2.168,0,0,1-33.712-.5,3.348,3.348,0,0,1-35.944.192Zm8.528,0a3.887,3.887,0,0,1-2.016-.52,3.692,3.692,0,0,1-1.384-1.448,4.526,4.526,0,0,1-.5-2.192,4.6,4.6,0,0,1,.5-2.184A3.606,3.606,0,0,1-29.44-7.608a3.993,3.993,0,0,1,2.056-.52,3.708,3.708,0,0,1,1.992.52A3.523,3.523,0,0,1-24.1-6.24a3.846,3.846,0,0,1,.448,1.824q0,.176-.008.352t-.008.4h-6.32a3.118,3.118,0,0,0,.424,1.512,2.506,2.506,0,0,0,.944.9,2.523,2.523,0,0,0,1.208.3,2.4,2.4,0,0,0,1.392-.384,2.2,2.2,0,0,0,.816-1.04h1.328A3.582,3.582,0,0,1-25.1-.536,3.57,3.57,0,0,1-27.416.192Zm0-7.184a2.684,2.684,0,0,0-1.7.584,2.353,2.353,0,0,0-.856,1.7h4.992a2.27,2.27,0,0,0-.736-1.68A2.469,2.469,0,0,0-27.416-6.992ZM-17.64.192a3.671,3.671,0,0,1-1.736-.4,2.767,2.767,0,0,1-1.16-1.12L-20.664,0H-21.88V-11.52h1.344v4.9a3.746,3.746,0,0,1,1.1-1.04,3.267,3.267,0,0,1,1.816-.464,3.845,3.845,0,0,1,2.064.544A3.722,3.722,0,0,1-14.192-6.1,4.6,4.6,0,0,1-13.7-3.952a4.552,4.552,0,0,1-.488,2.136A3.661,3.661,0,0,1-15.568-.344,3.931,3.931,0,0,1-17.64.192Zm-.144-1.168a2.622,2.622,0,0,0,1.408-.376,2.646,2.646,0,0,0,.96-1.048,3.333,3.333,0,0,0,.352-1.568,3.333,3.333,0,0,0-.352-1.568,2.646,2.646,0,0,0-.96-1.048,2.622,2.622,0,0,0-1.408-.376,2.622,2.622,0,0,0-1.408.376,2.646,2.646,0,0,0-.96,1.048A3.333,3.333,0,0,0-20.5-3.968,3.333,3.333,0,0,0-20.152-2.4a2.646,2.646,0,0,0,.96,1.048A2.622,2.622,0,0,0-17.784-.976ZM-8.936.192a2.98,2.98,0,0,1-2.24-.856A3.65,3.65,0,0,1-12.008-3.3v-4.64h1.344v4.5q0,2.48,2.032,2.48A2.229,2.229,0,0,0-6.912-1.7a3.032,3.032,0,0,0,.68-2.12V-7.936h1.344V0H-6.1l-.1-1.424A2.763,2.763,0,0,1-7.3-.24,3.152,3.152,0,0,1-8.936.192ZM-3.224,0V-1.1L1.192-6.816H-3.144v-1.12H2.7v1.1L-1.72-1.12h4.5V0ZM4.008,0V-1.1L8.424-6.816H4.088v-1.12h5.84v1.1L5.512-1.12h4.5V0ZM19.672.192a4.811,4.811,0,0,1-2.144-.448A3.348,3.348,0,0,1,16.12-1.5a3.449,3.449,0,0,1-.5-1.856h1.408a2.463,2.463,0,0,0,.3,1.208,2.238,2.238,0,0,0,.888.88,2.922,2.922,0,0,0,1.448.328,2.594,2.594,0,0,0,1.76-.544,1.73,1.73,0,0,0,.624-1.36,1.836,1.836,0,0,0-.288-1.08,2.154,2.154,0,0,0-.776-.664,6.445,6.445,0,0,0-1.12-.448q-.632-.192-1.32-.432a4.714,4.714,0,0,1-1.92-1.112,2.432,2.432,0,0,1-.624-1.736,2.856,2.856,0,0,1,.416-1.592A2.932,2.932,0,0,1,17.648-11a4.2,4.2,0,0,1,1.88-.392,4.086,4.086,0,0,1,1.864.4,3.023,3.023,0,0,1,1.232,1.1,3.062,3.062,0,0,1,.456,1.6H21.672a1.957,1.957,0,0,0-.24-.92,1.874,1.874,0,0,0-.728-.744,2.376,2.376,0,0,0-1.224-.288,2.214,2.214,0,0,0-1.5.464A1.625,1.625,0,0,0,17.4-8.448a1.443,1.443,0,0,0,.408,1.1,3.089,3.089,0,0,0,1.144.632q.736.248,1.7.568a8.174,8.174,0,0,1,1.44.672,2.829,2.829,0,0,1,1,.992,3.011,3.011,0,0,1,.36,1.552,2.95,2.95,0,0,1-.416,1.512,3.091,3.091,0,0,1-1.256,1.16A4.437,4.437,0,0,1,19.672.192ZM25.272,0V-11.52h1.344V0ZM29.64-9.7a.9.9,0,0,1-.664-.264.9.9,0,0,1-.264-.664.855.855,0,0,1,.264-.64.915.915,0,0,1,.664-.256.923.923,0,0,1,.656.256.842.842,0,0,1,.272.64.887.887,0,0,1-.272.664A.908.908,0,0,1,29.64-9.7ZM28.968,0V-7.936h1.344V0ZM36.3.192a4.017,4.017,0,0,1-2.04-.52,3.738,3.738,0,0,1-1.424-1.456,4.424,4.424,0,0,1-.52-2.184,4.424,4.424,0,0,1,.52-2.184,3.738,3.738,0,0,1,1.424-1.456,4.017,4.017,0,0,1,2.04-.52,3.811,3.811,0,0,1,2.376.736A3.207,3.207,0,0,1,39.9-5.424H38.52a1.764,1.764,0,0,0-.784-1.144,2.6,2.6,0,0,0-1.456-.408,2.52,2.52,0,0,0-1.264.336,2.506,2.506,0,0,0-.96,1.008,3.428,3.428,0,0,0-.368,1.664A3.428,3.428,0,0,0,34.056-2.3a2.564,2.564,0,0,0,.96,1.016,2.475,2.475,0,0,0,1.264.344,2.6,2.6,0,0,0,1.456-.408,1.771,1.771,0,0,0,.784-1.16H39.9A3.177,3.177,0,0,1,38.68-.56,3.789,3.789,0,0,1,36.3.192Zm9.04,0a3.887,3.887,0,0,1-2.016-.52,3.692,3.692,0,0,1-1.384-1.448,4.526,4.526,0,0,1-.5-2.192,4.6,4.6,0,0,1,.5-2.184,3.606,3.606,0,0,1,1.384-1.456,3.993,3.993,0,0,1,2.056-.52,3.708,3.708,0,0,1,1.992.52A3.523,3.523,0,0,1,48.648-6.24,3.846,3.846,0,0,1,49.1-4.416q0,.176-.008.352t-.008.4H42.76a3.118,3.118,0,0,0,.424,1.512,2.506,2.506,0,0,0,.944.9,2.523,2.523,0,0,0,1.208.3,2.4,2.4,0,0,0,1.392-.384,2.2,2.2,0,0,0,.816-1.04h1.328A3.582,3.582,0,0,1,47.648-.536,3.57,3.57,0,0,1,45.336.192Zm0-7.184a2.684,2.684,0,0,0-1.7.584,2.353,2.353,0,0,0-.856,1.7h4.992a2.27,2.27,0,0,0-.736-1.68A2.469,2.469,0,0,0,45.336-6.992ZM53.912.192a3.792,3.792,0,0,1-2.368-.72,2.807,2.807,0,0,1-1.1-1.952h1.376A1.9,1.9,0,0,0,52.48-1.4a2.161,2.161,0,0,0,1.448.456,1.826,1.826,0,0,0,1.248-.36,1.115,1.115,0,0,0,.4-.856.95.95,0,0,0-.52-.96,6.921,6.921,0,0,0-1.464-.432,8.252,8.252,0,0,1-1.28-.368A2.908,2.908,0,0,1,51.24-4.6a1.584,1.584,0,0,1-.432-1.16,2.141,2.141,0,0,1,.776-1.7,3.129,3.129,0,0,1,2.1-.664A3.263,3.263,0,0,1,55.76-7.5,2.522,2.522,0,0,1,56.7-5.7H55.368a1.384,1.384,0,0,0-.52-.952,1.858,1.858,0,0,0-1.176-.344,1.78,1.78,0,0,0-1.112.3.964.964,0,0,0-.392.8.831.831,0,0,0,.5.752,5.411,5.411,0,0,0,1.368.464,11.916,11.916,0,0,1,1.4.392,2.646,2.646,0,0,1,1.088.688,1.87,1.87,0,0,1,.424,1.32A2.168,2.168,0,0,1,56.144-.5,3.348,3.348,0,0,1,53.912.192Z" transform="translate(864 1585)" fill="#2a2a2a"/>
    <g transform="matrix(1, 0, 0, 1, 511, 1394)" filter="url(#Path_23741)">
      <path id="Path_23741-2" data-name="Path 23741" d="M30,0A30,30,0,1,1,0,30,30,30,0,0,1,30,0Z" transform="translate(323 110)" fill="#091b49"/>
    </g>
    <path id="Path_23731" data-name="Path 23731" d="M13.379,124.1H35.833l-2.525,4.592a3,3,0,0,1-2.634,1.561H10Z" transform="translate(836.507 1406.829)" fill="#85e6c4"/>
    <path id="Path_23732" data-name="Path 23732" d="M105.479,216.1h22.453l-2.525,4.592a3,3,0,0,1-2.634,1.56H102.1Z" transform="translate(753.561 1323.973)" fill="#6d44e5"/>
    <path id="Path_23733" data-name="Path 23733" d="M105.479,32h22.453l-2.525,4.592a3,3,0,0,1-2.634,1.56H102.1Z" transform="translate(753.561 1489.774)" fill="#517ce3"/>
    <path id="Path_24186" data-name="Path 24186" d="M1.184,0V-11.2H2.528V-1.072H7.744V0Zm11.6.192A3.99,3.99,0,0,1,10.768-.32,3.7,3.7,0,0,1,9.352-1.768a4.459,4.459,0,0,1-.52-2.2,4.4,4.4,0,0,1,.528-2.2,3.737,3.737,0,0,1,1.432-1.448,4.034,4.034,0,0,1,2.024-.512,3.99,3.99,0,0,1,2.016.512,3.7,3.7,0,0,1,1.416,1.448,4.459,4.459,0,0,1,.52,2.2,4.4,4.4,0,0,1-.528,2.2A3.737,3.737,0,0,1,14.808-.32,4.034,4.034,0,0,1,12.784.192Zm0-1.152a2.55,2.55,0,0,0,1.28-.336,2.506,2.506,0,0,0,.96-1.008,3.428,3.428,0,0,0,.368-1.664,3.491,3.491,0,0,0-.36-1.664A2.454,2.454,0,0,0,14.08-6.64a2.52,2.52,0,0,0-1.264-.336,2.55,2.55,0,0,0-1.28.336,2.506,2.506,0,0,0-.96,1.008,3.428,3.428,0,0,0-.368,1.664A3.428,3.428,0,0,0,10.576-2.3,2.525,2.525,0,0,0,11.528-1.3,2.477,2.477,0,0,0,12.784-.96Zm9.5,1.152a4.017,4.017,0,0,1-2.04-.52,3.738,3.738,0,0,1-1.424-1.456,4.424,4.424,0,0,1-.52-2.184,4.424,4.424,0,0,1,.52-2.184,3.738,3.738,0,0,1,1.424-1.456,4.017,4.017,0,0,1,2.04-.52,3.811,3.811,0,0,1,2.376.736,3.207,3.207,0,0,1,1.224,1.968H24.512a1.764,1.764,0,0,0-.784-1.144,2.6,2.6,0,0,0-1.456-.408,2.52,2.52,0,0,0-1.264.336,2.506,2.506,0,0,0-.96,1.008,3.428,3.428,0,0,0-.368,1.664A3.428,3.428,0,0,0,20.048-2.3a2.564,2.564,0,0,0,.96,1.016,2.475,2.475,0,0,0,1.264.344,2.6,2.6,0,0,0,1.456-.408,1.77,1.77,0,0,0,.784-1.16h1.376A3.177,3.177,0,0,1,24.672-.56,3.789,3.789,0,0,1,22.288.192Zm8.112,0a3.6,3.6,0,0,1-1.648-.336,2.284,2.284,0,0,1-.976-.9,2.409,2.409,0,0,1-.32-1.216,2.155,2.155,0,0,1,.928-1.872,4.309,4.309,0,0,1,2.528-.656h2.144v-.1a2.118,2.118,0,0,0-.544-1.576,1.984,1.984,0,0,0-1.456-.536A2.321,2.321,0,0,0,29.7-6.6a1.717,1.717,0,0,0-.712,1.144H27.616A2.547,2.547,0,0,1,28.2-6.912a3.264,3.264,0,0,1,1.256-.9,4.133,4.133,0,0,1,1.6-.312,3.288,3.288,0,0,1,2.5.888,3.293,3.293,0,0,1,.84,2.36V0H33.2l-.08-1.424A3.147,3.147,0,0,1,32.136-.28,2.887,2.887,0,0,1,30.4.192Zm.208-1.136a2.189,2.189,0,0,0,1.32-.4,2.553,2.553,0,0,0,.84-1.04,3.239,3.239,0,0,0,.288-1.344v-.016H31.024a2.638,2.638,0,0,0-1.672.408,1.272,1.272,0,0,0-.488,1.016,1.231,1.231,0,0,0,.456,1A1.972,1.972,0,0,0,30.608-.944ZM36.416,0V-11.52H37.76V0Zm11.44.192a4.017,4.017,0,0,1-2.04-.52,3.738,3.738,0,0,1-1.424-1.456,4.424,4.424,0,0,1-.52-2.184,4.424,4.424,0,0,1,.52-2.184,3.738,3.738,0,0,1,1.424-1.456,4.017,4.017,0,0,1,2.04-.52,3.811,3.811,0,0,1,2.376.736,3.207,3.207,0,0,1,1.224,1.968H50.08A1.764,1.764,0,0,0,49.3-6.568a2.6,2.6,0,0,0-1.456-.408,2.52,2.52,0,0,0-1.264.336,2.506,2.506,0,0,0-.96,1.008,3.428,3.428,0,0,0-.368,1.664A3.428,3.428,0,0,0,45.616-2.3a2.564,2.564,0,0,0,.96,1.016,2.475,2.475,0,0,0,1.264.344A2.6,2.6,0,0,0,49.3-1.352a1.771,1.771,0,0,0,.784-1.16h1.376A3.177,3.177,0,0,1,50.24-.56,3.789,3.789,0,0,1,47.856.192Zm8.112,0A3.6,3.6,0,0,1,54.32-.144a2.284,2.284,0,0,1-.976-.9,2.409,2.409,0,0,1-.32-1.216,2.155,2.155,0,0,1,.928-1.872,4.309,4.309,0,0,1,2.528-.656h2.144v-.1a2.118,2.118,0,0,0-.544-1.576,1.984,1.984,0,0,0-1.456-.536,2.321,2.321,0,0,0-1.352.392,1.717,1.717,0,0,0-.712,1.144H53.184a2.547,2.547,0,0,1,.584-1.456,3.264,3.264,0,0,1,1.256-.9,4.133,4.133,0,0,1,1.6-.312,3.288,3.288,0,0,1,2.5.888,3.293,3.293,0,0,1,.84,2.36V0h-1.2l-.08-1.424A3.148,3.148,0,0,1,57.7-.28,2.887,2.887,0,0,1,55.968.192Zm.208-1.136a2.189,2.189,0,0,0,1.32-.4,2.553,2.553,0,0,0,.84-1.04,3.239,3.239,0,0,0,.288-1.344v-.016H56.592a2.638,2.638,0,0,0-1.672.408,1.272,1.272,0,0,0-.488,1.016,1.231,1.231,0,0,0,.456,1A1.972,1.972,0,0,0,56.176-.944ZM66.224.192a3.671,3.671,0,0,1-1.736-.4,2.767,2.767,0,0,1-1.16-1.12L63.2,0H61.984V-11.52h1.344v4.9a3.746,3.746,0,0,1,1.1-1.04,3.267,3.267,0,0,1,1.816-.464,3.845,3.845,0,0,1,2.064.544A3.722,3.722,0,0,1,69.672-6.1a4.6,4.6,0,0,1,.488,2.144,4.552,4.552,0,0,1-.488,2.136A3.661,3.661,0,0,1,68.3-.344,3.931,3.931,0,0,1,66.224.192ZM66.08-.976a2.622,2.622,0,0,0,1.408-.376,2.646,2.646,0,0,0,.96-1.048A3.333,3.333,0,0,0,68.8-3.968a3.333,3.333,0,0,0-.352-1.568,2.646,2.646,0,0,0-.96-1.048A2.622,2.622,0,0,0,66.08-6.96a2.622,2.622,0,0,0-1.408.376,2.646,2.646,0,0,0-.96,1.048,3.333,3.333,0,0,0-.352,1.568A3.333,3.333,0,0,0,63.712-2.4a2.646,2.646,0,0,0,.96,1.048A2.622,2.622,0,0,0,66.08-.976ZM72.032,0V-11.52h1.344V0Zm7.12.192a3.887,3.887,0,0,1-2.016-.52,3.692,3.692,0,0,1-1.384-1.448,4.526,4.526,0,0,1-.5-2.192,4.6,4.6,0,0,1,.5-2.184,3.606,3.606,0,0,1,1.384-1.456,3.993,3.993,0,0,1,2.056-.52,3.708,3.708,0,0,1,1.992.52A3.523,3.523,0,0,1,82.464-6.24a3.846,3.846,0,0,1,.448,1.824q0,.176-.008.352t-.008.4h-6.32A3.118,3.118,0,0,0,77-2.152a2.506,2.506,0,0,0,.944.9,2.523,2.523,0,0,0,1.208.3,2.4,2.4,0,0,0,1.392-.384,2.2,2.2,0,0,0,.816-1.04h1.328A3.582,3.582,0,0,1,81.464-.536,3.57,3.57,0,0,1,79.152.192Zm0-7.184a2.684,2.684,0,0,0-1.7.584,2.353,2.353,0,0,0-.856,1.7h4.992a2.27,2.27,0,0,0-.736-1.68A2.469,2.469,0,0,0,79.152-6.992ZM4.72,19.192A3.99,3.99,0,0,1,2.7,18.68a3.7,3.7,0,0,1-1.416-1.448,4.459,4.459,0,0,1-.52-2.2,4.4,4.4,0,0,1,.528-2.2,3.737,3.737,0,0,1,1.432-1.448,4.034,4.034,0,0,1,2.024-.512,3.99,3.99,0,0,1,2.016.512,3.7,3.7,0,0,1,1.416,1.448,4.459,4.459,0,0,1,.52,2.2,4.4,4.4,0,0,1-.528,2.2A3.737,3.737,0,0,1,6.744,18.68,4.034,4.034,0,0,1,4.72,19.192Zm0-1.152A2.55,2.55,0,0,0,6,17.7,2.506,2.506,0,0,0,6.96,16.7a3.428,3.428,0,0,0,.368-1.664,3.491,3.491,0,0,0-.36-1.664,2.454,2.454,0,0,0-.952-1.008,2.52,2.52,0,0,0-1.264-.336,2.55,2.55,0,0,0-1.28.336,2.506,2.506,0,0,0-.96,1.008,3.428,3.428,0,0,0-.368,1.664A3.428,3.428,0,0,0,2.512,16.7,2.525,2.525,0,0,0,3.464,17.7,2.477,2.477,0,0,0,4.72,18.04Zm5.856,4.48V11.064h1.216l.128,1.312a3.746,3.746,0,0,1,1.1-1.04,3.267,3.267,0,0,1,1.816-.464,3.845,3.845,0,0,1,2.064.544A3.722,3.722,0,0,1,18.264,12.9a4.6,4.6,0,0,1,.488,2.144,4.552,4.552,0,0,1-.488,2.136,3.661,3.661,0,0,1-1.376,1.472,3.931,3.931,0,0,1-2.072.536,3.671,3.671,0,0,1-1.736-.4,2.767,2.767,0,0,1-1.16-1.12V22.52Zm4.1-4.5A2.567,2.567,0,0,0,17.04,16.6a3.333,3.333,0,0,0,.352-1.568,3.333,3.333,0,0,0-.352-1.568,2.657,2.657,0,0,0-4.736,0,3.333,3.333,0,0,0-.352,1.568A3.333,3.333,0,0,0,12.3,16.6a2.567,2.567,0,0,0,2.368,1.424Zm9.52,1.168a3.887,3.887,0,0,1-2.016-.52,3.692,3.692,0,0,1-1.384-1.448,4.526,4.526,0,0,1-.5-2.192,4.6,4.6,0,0,1,.5-2.184,3.606,3.606,0,0,1,1.384-1.456,3.993,3.993,0,0,1,2.056-.52,3.708,3.708,0,0,1,1.992.52A3.523,3.523,0,0,1,27.5,12.76a3.846,3.846,0,0,1,.448,1.824q0,.176-.008.352t-.008.4h-6.32a3.118,3.118,0,0,0,.424,1.512,2.5,2.5,0,0,0,2.152,1.208,2.4,2.4,0,0,0,1.392-.384,2.2,2.2,0,0,0,.816-1.04h1.328a3.485,3.485,0,0,1-3.536,2.56Zm0-7.184a2.684,2.684,0,0,0-1.7.584,2.353,2.353,0,0,0-.856,1.7h4.992a2.27,2.27,0,0,0-.736-1.68A2.469,2.469,0,0,0,24.192,12.008ZM29.728,19V11.064h1.216l.112,1.52a2.877,2.877,0,0,1,1.12-1.248,3.472,3.472,0,0,1,1.856-.464V12.28h-.368a3.321,3.321,0,0,0-1.3.248,1.968,1.968,0,0,0-.944.84A3.2,3.2,0,0,0,31.072,15v4Zm8.448.192a3.6,3.6,0,0,1-1.648-.336,2.284,2.284,0,0,1-.976-.9,2.409,2.409,0,0,1-.32-1.216,2.155,2.155,0,0,1,.928-1.872,4.309,4.309,0,0,1,2.528-.656h2.144v-.1a2.118,2.118,0,0,0-.544-1.576,1.984,1.984,0,0,0-1.456-.536,2.321,2.321,0,0,0-1.352.392,1.717,1.717,0,0,0-.712,1.144H35.392a2.547,2.547,0,0,1,.584-1.456,3.264,3.264,0,0,1,1.256-.9,4.133,4.133,0,0,1,1.6-.312,3.288,3.288,0,0,1,2.5.888,3.293,3.293,0,0,1,.84,2.36V19h-1.2l-.08-1.424a3.148,3.148,0,0,1-.984,1.144A2.887,2.887,0,0,1,38.176,19.192Zm.208-1.136a2.189,2.189,0,0,0,1.32-.4,2.553,2.553,0,0,0,.84-1.04,3.239,3.239,0,0,0,.288-1.344v-.016H38.8a2.638,2.638,0,0,0-1.672.408,1.272,1.272,0,0,0-.488,1.016,1.231,1.231,0,0,0,.456,1A1.972,1.972,0,0,0,38.384,18.056ZM47.1,19a2.568,2.568,0,0,1-1.712-.528,2.4,2.4,0,0,1-.624-1.9V12.2H43.392V11.064h1.376l.176-1.9h1.168v1.9h2.336V12.2H46.112v4.368a1.32,1.32,0,0,0,.3,1.016,1.657,1.657,0,0,0,1.072.264h.832V19Zm6.448.192a3.99,3.99,0,0,1-2.016-.512,3.7,3.7,0,0,1-1.416-1.448,4.459,4.459,0,0,1-.52-2.2,4.4,4.4,0,0,1,.528-2.2,3.737,3.737,0,0,1,1.432-1.448,4.034,4.034,0,0,1,2.024-.512,3.99,3.99,0,0,1,2.016.512,3.7,3.7,0,0,1,1.416,1.448,4.459,4.459,0,0,1,.52,2.2,4.4,4.4,0,0,1-.528,2.2,3.737,3.737,0,0,1-1.432,1.448A4.034,4.034,0,0,1,53.552,19.192Zm0-1.152a2.55,2.55,0,0,0,1.28-.336,2.506,2.506,0,0,0,.96-1.008,3.428,3.428,0,0,0,.368-1.664,3.491,3.491,0,0,0-.36-1.664,2.454,2.454,0,0,0-.952-1.008,2.52,2.52,0,0,0-1.264-.336,2.55,2.55,0,0,0-1.28.336,2.506,2.506,0,0,0-.96,1.008,3.428,3.428,0,0,0-.368,1.664,3.428,3.428,0,0,0,.368,1.664A2.525,2.525,0,0,0,52.3,17.7,2.477,2.477,0,0,0,53.552,18.04Zm5.856.96V11.064h1.216l.112,1.52a2.877,2.877,0,0,1,1.12-1.248,3.472,3.472,0,0,1,1.856-.464V12.28h-.368a3.321,3.321,0,0,0-1.3.248,1.968,1.968,0,0,0-.944.84A3.2,3.2,0,0,0,60.752,15v4ZM72.32,21.32a10.952,10.952,0,0,1-1.6-1.976,10.352,10.352,0,0,1-1.176-2.576,10.493,10.493,0,0,1-.44-3.1,10.493,10.493,0,0,1,.44-3.1A10.352,10.352,0,0,1,70.72,8a10.952,10.952,0,0,1,1.6-1.976H73.7v.128a11.246,11.246,0,0,0-2.36,3.368,9.8,9.8,0,0,0-.888,4.152,9.73,9.73,0,0,0,.9,4.152A11.516,11.516,0,0,0,73.7,21.192v.128ZM75.488,19V7.8h1.344V17.928h5.216V19Zm12.272.192a5.344,5.344,0,0,1-2.84-.728,4.908,4.908,0,0,1-1.848-2.032,6.663,6.663,0,0,1-.656-3.032,6.625,6.625,0,0,1,.656-3.016,4.963,4.963,0,0,1,1.848-2.04,5.3,5.3,0,0,1,2.84-.736,5.022,5.022,0,0,1,3.128.92A4.137,4.137,0,0,1,92.432,11.1H90.944A2.985,2.985,0,0,0,89.9,9.424a3.33,3.33,0,0,0-2.136-.632,3.915,3.915,0,0,0-2.1.552,3.627,3.627,0,0,0-1.384,1.584,5.741,5.741,0,0,0-.488,2.472,5.741,5.741,0,0,0,.488,2.472,3.627,3.627,0,0,0,1.384,1.584,3.915,3.915,0,0,0,2.1.552,3.39,3.39,0,0,0,2.136-.616,2.9,2.9,0,0,0,1.048-1.64h1.488a4.085,4.085,0,0,1-1.544,2.528A5.053,5.053,0,0,1,87.76,19.192Zm11.7,0a5.6,5.6,0,0,1-2.888-.728,5.064,5.064,0,0,1-1.936-2.04,6.356,6.356,0,0,1-.7-3.024,6.309,6.309,0,0,1,.7-3.016,5.132,5.132,0,0,1,1.936-2.04,6.066,6.066,0,0,1,5.792,0,5.077,5.077,0,0,1,1.928,2.04,6.369,6.369,0,0,1,.688,3.016,6.417,6.417,0,0,1-.688,3.024,5.01,5.01,0,0,1-1.928,2.04A5.631,5.631,0,0,1,99.456,19.192Zm0-1.184a4.188,4.188,0,0,0,2.168-.552,3.745,3.745,0,0,0,1.456-1.584,5.438,5.438,0,0,0,.52-2.472,5.388,5.388,0,0,0-.52-2.464,3.755,3.755,0,0,0-1.456-1.576,4.533,4.533,0,0,0-4.336,0,3.755,3.755,0,0,0-1.456,1.576,5.388,5.388,0,0,0-.52,2.464,5.438,5.438,0,0,0,.52,2.472,3.745,3.745,0,0,0,1.456,1.584A4.188,4.188,0,0,0,99.456,18.008Zm5.808,3.312v-.128a11.641,11.641,0,0,0,2.36-3.368,9.658,9.658,0,0,0,.9-4.152,9.73,9.73,0,0,0-.9-4.152,11.516,11.516,0,0,0-2.352-3.368V6.024h1.36A10.339,10.339,0,0,1,108.248,8a10.5,10.5,0,0,1,1.608,5.672,10.5,10.5,0,0,1-1.608,5.672,10.339,10.339,0,0,1-1.608,1.976Z" transform="translate(1096 1623.52)" fill="#2a2a2a"/>
    <path id="Path_24187" data-name="Path 24187" d="M.9-5.346q.321.021.667.021a4.422,4.422,0,0,0,.677-.051,3.037,3.037,0,0,0,.632-.167,1.844,1.844,0,0,0,.54-.321A1.608,1.608,0,0,0,3.8-6.381,2.131,2.131,0,0,0,4-7.13H.6a2.26,2.26,0,0,1,.113-.2l.195-.325q.123-.2.273-.431H3.828a.532.532,0,0,0-.171-.359,1.878,1.878,0,0,0-.414-.325,2.977,2.977,0,0,0-.5-.236A1.275,1.275,0,0,0,2.331-9.1H.6a1.606,1.606,0,0,1,.12-.246q.092-.164.195-.325L1.1-9.953a.777.777,0,0,1,.085-.123H6.877L6.839-10q-.038.075-.1.181L6.6-9.587l-.14.236q-.065.109-.109.181L6.31-9.1h-1.5a4.387,4.387,0,0,1,.25.5,1.777,1.777,0,0,1,.133.516H6.877L6.31-7.13H5.257A2.721,2.721,0,0,1,4.9-6.043a2.642,2.642,0,0,1-.677.749,3.09,3.09,0,0,1-.892.458,5.238,5.238,0,0,1-1.012.222.169.169,0,0,0,.024.044q.024.038.058.085a1.4,1.4,0,0,0,.082.116L5.517-.178v.171h-1.3L.9-4.443ZM15.071.168a4.055,4.055,0,0,1-1.694-.343A2.824,2.824,0,0,1,12.166-1.2a3.189,3.189,0,0,1-.483-1.708h1.19a2.094,2.094,0,0,0,.588,1.449,2.105,2.105,0,0,0,1.61.609,2.011,2.011,0,0,0,1.561-.574,1.981,1.981,0,0,0,.525-1.386,1.8,1.8,0,0,0-.329-1.12,1.943,1.943,0,0,0-.882-.644,3.385,3.385,0,0,0-1.211-.21h-.728v-.994h.728a2.316,2.316,0,0,0,1.491-.434,1.475,1.475,0,0,0,.539-1.218,1.47,1.47,0,0,0-.427-1.085,1.719,1.719,0,0,0-1.267-.427,1.774,1.774,0,0,0-1.3.483,1.839,1.839,0,0,0-.546,1.211h-1.19a2.909,2.909,0,0,1,.427-1.414,2.627,2.627,0,0,1,1.057-.959,3.373,3.373,0,0,1,1.554-.343,3.38,3.38,0,0,1,1.589.336,2.368,2.368,0,0,1,.966.9A2.388,2.388,0,0,1,17.955-7.5a2.383,2.383,0,0,1-.406,1.351,2,2,0,0,1-1.218.819,2.592,2.592,0,0,1,1.442.826,2.451,2.451,0,0,1,.574,1.694,3.059,3.059,0,0,1-.371,1.491,2.734,2.734,0,0,1-1.1,1.085A3.666,3.666,0,0,1,15.071.168Zm8.512,0A3.932,3.932,0,0,1,21.833-.2a3.03,3.03,0,0,1-1.183-1,3.172,3.172,0,0,1-.539-1.449h1.148a2.2,2.2,0,0,0,.784,1.309,2.4,2.4,0,0,0,1.554.5,2.153,2.153,0,0,0,1.2-.329,2.179,2.179,0,0,0,.777-.889A2.805,2.805,0,0,0,25.851-3.3a2.508,2.508,0,0,0-.616-1.764,2.066,2.066,0,0,0-1.6-.672,2.535,2.535,0,0,0-1.386.364,2.173,2.173,0,0,0-.84.952h-1.12l.84-5.376h5.138v1.022H22.043L21.469-5.8a2.512,2.512,0,0,1,.931-.672,3.314,3.314,0,0,1,1.365-.266,3.13,3.13,0,0,1,1.687.448,3.116,3.116,0,0,1,1.127,1.218,3.7,3.7,0,0,1,.406,1.75,3.827,3.827,0,0,1-.4,1.736A3.12,3.12,0,0,1,25.424-.308,3.41,3.41,0,0,1,23.583.168Z" transform="translate(982.398 1624.825)" fill="#2a2a2a"/>
    <g transform="matrix(1, 0, 0, 1, 511, 1394)" filter="url(#Path_23738)">
      <path id="Path_23738-2" data-name="Path 23738" d="M30,0A30,30,0,1,1,0,30,30,30,0,0,1,30,0Z" transform="translate(517 205)" fill="#d3c6f7"/>
    </g>
    <path id="Path_24121" data-name="Path 24121" d="M23.131,10.358a11.593,11.593,0,0,1,2.973.4L15.773,3,4,11.83V29.489h9.948a11.77,11.77,0,0,1,9.183-19.131Zm0,9.933a1.84,1.84,0,0,0-1.84,1.84,1.769,1.769,0,0,0,.736,1.427v7.4h2.207v-7.4a1.79,1.79,0,0,0,.736-1.427A1.84,1.84,0,0,0,23.131,20.291Z" transform="translate(1039.653 1612.02)" fill="#091b49"/>
    <path id="Path_24122" data-name="Path 24122" d="M18.886,12a5.89,5.89,0,0,0-4.165,10.051l1.56-1.56a3.686,3.686,0,1,1,5.21-.015l1.56,1.56A5.879,5.879,0,0,0,18.886,12Z" transform="translate(1043.898 1616.264)" fill="#6d44e5"/>
    <path id="Path_24123" data-name="Path 24123" d="M20.066,9.5A9.573,9.573,0,0,0,13.3,25.835l1.56-1.56a7.373,7.373,0,1,1,10.419-.029l1.575,1.56A9.565,9.565,0,0,0,20.066,9.5Z" transform="translate(1042.719 1615.085)" fill="#6d44e5"/>
    <path id="Path_24188" data-name="Path 24188" d="M1.184,0V-11.2H2.528V0Zm7.28.192A4.811,4.811,0,0,1,6.32-.256,3.348,3.348,0,0,1,4.912-1.5a3.449,3.449,0,0,1-.5-1.856H5.824a2.463,2.463,0,0,0,.3,1.208,2.238,2.238,0,0,0,.888.88,2.922,2.922,0,0,0,1.448.328,2.594,2.594,0,0,0,1.76-.544,1.73,1.73,0,0,0,.624-1.36,1.836,1.836,0,0,0-.288-1.08,2.154,2.154,0,0,0-.776-.664,6.445,6.445,0,0,0-1.12-.448q-.632-.192-1.32-.432a4.714,4.714,0,0,1-1.92-1.112A2.432,2.432,0,0,1,4.8-8.32a2.856,2.856,0,0,1,.416-1.592A2.932,2.932,0,0,1,6.44-11a4.2,4.2,0,0,1,1.88-.392,4.086,4.086,0,0,1,1.864.4,3.023,3.023,0,0,1,1.232,1.1,3.062,3.062,0,0,1,.456,1.6H10.464a1.957,1.957,0,0,0-.24-.92A1.874,1.874,0,0,0,9.5-9.952a2.376,2.376,0,0,0-1.224-.288,2.214,2.214,0,0,0-1.5.464,1.625,1.625,0,0,0-.584,1.328,1.443,1.443,0,0,0,.408,1.1,3.089,3.089,0,0,0,1.144.632q.736.248,1.7.568a8.174,8.174,0,0,1,1.44.672,2.829,2.829,0,0,1,1,.992,3.011,3.011,0,0,1,.36,1.552,2.95,2.95,0,0,1-.416,1.512,3.091,3.091,0,0,1-1.256,1.16A4.437,4.437,0,0,1,8.464.192ZM14.144,0V-11.2h3.68a4.746,4.746,0,0,1,2.16.432A2.879,2.879,0,0,1,21.24-9.6a3.374,3.374,0,0,1,.408,1.664,3.394,3.394,0,0,1-.4,1.648A2.875,2.875,0,0,1,20-5.112a4.713,4.713,0,0,1-2.176.44H15.488V0Zm1.344-5.808h2.3A2.643,2.643,0,0,0,19.7-6.376a2.108,2.108,0,0,0,.568-1.56A2.13,2.13,0,0,0,19.7-9.512a2.643,2.643,0,0,0-1.912-.568h-2.3ZM27.568,3.52V-7.936h1.216l.128,1.312a3.746,3.746,0,0,1,1.1-1.04,3.267,3.267,0,0,1,1.816-.464,3.845,3.845,0,0,1,2.064.544A3.722,3.722,0,0,1,35.256-6.1a4.6,4.6,0,0,1,.488,2.144,4.552,4.552,0,0,1-.488,2.136A3.661,3.661,0,0,1,33.88-.344a3.931,3.931,0,0,1-2.072.536,3.671,3.671,0,0,1-1.736-.4,2.767,2.767,0,0,1-1.16-1.12V3.52Zm4.1-4.5a2.622,2.622,0,0,0,1.408-.376,2.646,2.646,0,0,0,.96-1.048,3.333,3.333,0,0,0,.352-1.568,3.333,3.333,0,0,0-.352-1.568,2.646,2.646,0,0,0-.96-1.048,2.622,2.622,0,0,0-1.408-.376,2.622,2.622,0,0,0-1.408.376,2.646,2.646,0,0,0-.96,1.048,3.333,3.333,0,0,0-.352,1.568A3.333,3.333,0,0,0,29.3-2.4a2.646,2.646,0,0,0,.96,1.048A2.622,2.622,0,0,0,31.664-.976ZM37.616,0V-7.936h1.216l.112,1.52a2.877,2.877,0,0,1,1.12-1.248,3.472,3.472,0,0,1,1.856-.464V-6.72h-.368a3.321,3.321,0,0,0-1.3.248,1.968,1.968,0,0,0-.944.84A3.2,3.2,0,0,0,38.96-4V0Zm9.12.192A3.99,3.99,0,0,1,44.72-.32,3.7,3.7,0,0,1,43.3-1.768a4.459,4.459,0,0,1-.52-2.2,4.4,4.4,0,0,1,.528-2.2,3.737,3.737,0,0,1,1.432-1.448,4.034,4.034,0,0,1,2.024-.512,3.99,3.99,0,0,1,2.016.512A3.7,3.7,0,0,1,50.2-6.168a4.459,4.459,0,0,1,.52,2.2,4.4,4.4,0,0,1-.528,2.2A3.737,3.737,0,0,1,48.76-.32,4.034,4.034,0,0,1,46.736.192Zm0-1.152a2.55,2.55,0,0,0,1.28-.336,2.506,2.506,0,0,0,.96-1.008,3.428,3.428,0,0,0,.368-1.664,3.491,3.491,0,0,0-.36-1.664,2.454,2.454,0,0,0-.952-1.008,2.52,2.52,0,0,0-1.264-.336,2.55,2.55,0,0,0-1.28.336,2.506,2.506,0,0,0-.96,1.008,3.428,3.428,0,0,0-.368,1.664A3.428,3.428,0,0,0,44.528-2.3,2.525,2.525,0,0,0,45.48-1.3,2.477,2.477,0,0,0,46.736-.96ZM54.48,0,51.472-7.936H52.88L55.264-1.3l2.4-6.64H59.04L56.032,0Zm6.864-9.7a.9.9,0,0,1-.664-.264.9.9,0,0,1-.264-.664.855.855,0,0,1,.264-.64.915.915,0,0,1,.664-.256.923.923,0,0,1,.656.256.842.842,0,0,1,.272.64A.887.887,0,0,1,62-9.96.908.908,0,0,1,61.344-9.7ZM60.672,0V-7.936h1.344V0Zm7.28.192A3.887,3.887,0,0,1,65.88-.352,3.7,3.7,0,0,1,64.5-1.84a4.6,4.6,0,0,1-.488-2.144,4.492,4.492,0,0,1,.5-2.136,3.736,3.736,0,0,1,1.376-1.472,3.92,3.92,0,0,1,2.08-.536,3.624,3.624,0,0,1,1.728.4,2.883,2.883,0,0,1,1.168,1.12V-11.52h1.344V0H70.992l-.128-1.312a3.715,3.715,0,0,1-1.1,1.04A3.275,3.275,0,0,1,67.952.192ZM68.1-.976a2.663,2.663,0,0,0,1.416-.376,2.571,2.571,0,0,0,.96-1.048,3.4,3.4,0,0,0,.344-1.568,3.4,3.4,0,0,0-.344-1.568,2.571,2.571,0,0,0-.96-1.048A2.663,2.663,0,0,0,68.1-6.96a2.633,2.633,0,0,0-1.4.376,2.571,2.571,0,0,0-.96,1.048,3.4,3.4,0,0,0-.344,1.568A3.4,3.4,0,0,0,65.736-2.4a2.571,2.571,0,0,0,.96,1.048A2.633,2.633,0,0,0,68.1-.976ZM77.968.192a3.887,3.887,0,0,1-2.016-.52,3.692,3.692,0,0,1-1.384-1.448,4.526,4.526,0,0,1-.5-2.192,4.6,4.6,0,0,1,.5-2.184,3.606,3.606,0,0,1,1.384-1.456A3.993,3.993,0,0,1,78-8.128a3.708,3.708,0,0,1,1.992.52A3.523,3.523,0,0,1,81.28-6.24a3.846,3.846,0,0,1,.448,1.824q0,.176-.008.352t-.008.4h-6.32a3.118,3.118,0,0,0,.424,1.512,2.506,2.506,0,0,0,.944.9,2.523,2.523,0,0,0,1.208.3,2.4,2.4,0,0,0,1.392-.384,2.2,2.2,0,0,0,.816-1.04H81.5A3.582,3.582,0,0,1,80.28-.536,3.57,3.57,0,0,1,77.968.192Zm0-7.184a2.684,2.684,0,0,0-1.7.584,2.353,2.353,0,0,0-.856,1.7H80.4a2.27,2.27,0,0,0-.736-1.68A2.469,2.469,0,0,0,77.968-6.992ZM83.5,0V-7.936H84.72l.112,1.52a2.877,2.877,0,0,1,1.12-1.248,3.472,3.472,0,0,1,1.856-.464V-6.72H87.44a3.321,3.321,0,0,0-1.3.248,1.968,1.968,0,0,0-.944.84A3.2,3.2,0,0,0,84.848-4V0Z" transform="translate(1096 1442.52)" fill="#2a2a2a"/>
    <g transform="matrix(1, 0, 0, 1, 511, 1394)" filter="url(#Path_23740)">
      <path id="Path_23740-2" data-name="Path 23740" d="M30,0A30,30,0,1,1,0,30,30,30,0,0,1,30,0Z" transform="translate(517 15)" fill="#fff"/>
    </g>
    <path id="Path_24117-2" data-name="Path 24117" d="M16.566,31.132a14.566,14.566,0,1,1,10.3-4.266A14.566,14.566,0,0,1,16.566,31.132Z" transform="translate(1042.57 1423.57)" fill="#c5d2f1"/>
    <path id="Path_24118-2" data-name="Path 24118" d="M.5,15.066a14.566,14.566,0,1,0,4.266-10.3A14.567,14.567,0,0,0,.5,15.066Zm27.418,0a12.852,12.852,0,1,1-3.764-9.088A12.853,12.853,0,0,1,27.918,15.066Z" transform="translate(1041.5 1422.5)" fill="#517ce3" fill-rule="evenodd"/>
    <path id="Path_24119-2" data-name="Path 24119" d="M5.5,14.709c0,7.533,2.471,13.709,6,13.709s6-6.176,6-13.709S15.024,1,11.5,1,5.5,7.176,5.5,14.709Zm10.282,0c0,6.664-2.134,12-4.284,12s-4.284-5.331-4.284-12,2.134-12,4.284-12S15.782,8.045,15.782,14.709Z" transform="translate(1045.068 1422.857)" fill="#517ce3" fill-rule="evenodd"/>
    <path id="Path_24120-2" data-name="Path 24120" d="M3.973,4.842,5.121,3.57q.275.247.588.482a16.657,16.657,0,0,0,9.708,2.725A17.845,17.845,0,0,0,24.08,4.737a9.576,9.576,0,0,0,1.469-1.023l1.114,1.3a11.249,11.249,0,0,1-1.731,1.206A19.511,19.511,0,0,1,15.417,8.49,18.319,18.319,0,0,1,4.681,5.422C4.436,5.239,4.2,5.047,3.973,4.842Zm0,16.088L5.121,22.2c.183-.165.379-.326.588-.48a16.657,16.657,0,0,1,9.708-2.725,17.825,17.825,0,0,1,8.663,2.039,9.723,9.723,0,0,1,1.469,1.021l1.114-1.3a11.279,11.279,0,0,0-1.731-1.206,19.53,19.53,0,0,0-9.514-2.265A18.331,18.331,0,0,0,4.681,20.345Q4.306,20.628,3.973,20.929ZM1,13.732V12.018H28.418v1.714Z" transform="translate(1041.857 1424.691)" fill="#517ce3"/>
    <path id="Path_6518" data-name="Path 6518" d="M.417,0h72" transform="translate(611.583 1533.742)" fill="none" stroke="#6d44e5" stroke-width="1"/>
    <path id="Path_6513" data-name="Path 6513" d="M3052.487-4047.239l6.928-4-6.928-4Z" transform="translate(-2370.931 5584.981)" fill="#6d44e5"/>
    <path id="Path_6518-2" data-name="Path 6518" d="M.417,0H82.036" transform="translate(748.083 1533.742)" fill="none" stroke="#6d44e5" stroke-width="1"/>
    <path id="Path_6513-2" data-name="Path 6513" d="M3052.487-4047.239l6.928-4-6.928-4Z" transform="translate(-2224.931 5584.981)" fill="#6d44e5"/>
    <path id="Path_6518-3" data-name="Path 6518" d="M.417,0H65.449" transform="translate(893.583 1536)" fill="none" stroke="#6d44e5" stroke-width="1"/>
    <path id="Path_6609" data-name="Path 6609" d="M.534,25,.047,71.767c0,13.03-1.437,17.2,11.593,17.2H97.791" transform="translate(1048 1439) rotate(90)" fill="none" stroke="#6d44e5" stroke-miterlimit="10" stroke-width="1"/>
    <path id="Path_23729" data-name="Path 23729" d="M3052.487-4047.239l6.928-4-6.928-4Z" transform="translate(-2030.931 5490.239)" fill="#6d44e5"/>
    <path id="Path_6609-2" data-name="Path 6609" d="M.534,63.968.047,17.2C.047,4.171-1.391,0,11.64,0H97.791" transform="translate(959.032 1629.791) rotate(-90)" fill="none" stroke="#6d44e5" stroke-miterlimit="10" stroke-width="1"/>
    <path id="Path_23729-2" data-name="Path 23729" d="M3052.487-4055.239l6.928,4-6.928,4Z" transform="translate(-2030.931 5680.238)" fill="#6d44e5"/>
    <path id="Path_24239" data-name="Path 24239" d="M.9-5.346q.321.021.667.021a4.422,4.422,0,0,0,.677-.051,3.037,3.037,0,0,0,.632-.167,1.844,1.844,0,0,0,.54-.321A1.608,1.608,0,0,0,3.8-6.381,2.131,2.131,0,0,0,4-7.13H.6a2.26,2.26,0,0,1,.113-.2l.195-.325q.123-.2.273-.431H3.828a.532.532,0,0,0-.171-.359,1.878,1.878,0,0,0-.414-.325,2.977,2.977,0,0,0-.5-.236A1.275,1.275,0,0,0,2.331-9.1H.6a1.606,1.606,0,0,1,.12-.246q.092-.164.195-.325L1.1-9.953a.777.777,0,0,1,.085-.123H6.877L6.839-10q-.038.075-.1.181L6.6-9.587l-.14.236q-.065.109-.109.181L6.31-9.1h-1.5a4.387,4.387,0,0,1,.25.5,1.777,1.777,0,0,1,.133.516H6.877L6.31-7.13H5.257A2.721,2.721,0,0,1,4.9-6.043a2.642,2.642,0,0,1-.677.749,3.09,3.09,0,0,1-.892.458,5.238,5.238,0,0,1-1.012.222.169.169,0,0,0,.024.044q.024.038.058.085a1.4,1.4,0,0,0,.082.116L5.517-.178v.171h-1.3L.9-4.443ZM15.547.168a3.686,3.686,0,0,1-1.792-.4A3.23,3.23,0,0,1,12.586-1.3a4.783,4.783,0,0,1-.644-1.5,7.158,7.158,0,0,1-.2-1.7,8.28,8.28,0,0,1,.448-2.849,4.331,4.331,0,0,1,1.3-1.918,3.134,3.134,0,0,1,2.051-.693,3.222,3.222,0,0,1,1.582.364,2.83,2.83,0,0,1,1.043.973,3.306,3.306,0,0,1,.483,1.351H17.549a2.019,2.019,0,0,0-.686-1.232,2.057,2.057,0,0,0-1.344-.434A2.22,2.22,0,0,0,13.664-7.9a5.9,5.9,0,0,0-.8,3.255A3.027,3.027,0,0,1,13.93-5.789,3.153,3.153,0,0,1,15.7-6.272a3.3,3.3,0,0,1,1.575.392,3.221,3.221,0,0,1,1.2,1.1,2.964,2.964,0,0,1,.462,1.659,3.3,3.3,0,0,1-.406,1.582A3.249,3.249,0,0,1,17.36-.308,3.355,3.355,0,0,1,15.547.168ZM15.463-.868a2.433,2.433,0,0,0,1.176-.28,2.065,2.065,0,0,0,.812-.777,2.2,2.2,0,0,0,.294-1.141,2.048,2.048,0,0,0-.651-1.589,2.326,2.326,0,0,0-1.631-.595,2.3,2.3,0,0,0-1.176.3,2.258,2.258,0,0,0-.819.805,2.092,2.092,0,0,0-.3,1.092,2.132,2.132,0,0,0,.3,1.127,2.116,2.116,0,0,0,.819.777A2.433,2.433,0,0,0,15.463-.868ZM23.891.168A3.932,3.932,0,0,1,22.141-.2a3.03,3.03,0,0,1-1.183-1,3.172,3.172,0,0,1-.539-1.449h1.148a2.2,2.2,0,0,0,.784,1.309,2.4,2.4,0,0,0,1.554.5,2.153,2.153,0,0,0,1.2-.329,2.179,2.179,0,0,0,.777-.889A2.805,2.805,0,0,0,26.159-3.3a2.508,2.508,0,0,0-.616-1.764,2.066,2.066,0,0,0-1.6-.672,2.535,2.535,0,0,0-1.386.364,2.173,2.173,0,0,0-.84.952H20.6l.84-5.376h5.138v1.022H22.351L21.777-5.8a2.512,2.512,0,0,1,.931-.672,3.314,3.314,0,0,1,1.365-.266,3.13,3.13,0,0,1,1.687.448,3.116,3.116,0,0,1,1.127,1.218,3.7,3.7,0,0,1,.406,1.75,3.827,3.827,0,0,1-.4,1.736A3.12,3.12,0,0,1,25.732-.308,3.41,3.41,0,0,1,23.891.168Z" transform="translate(982.398 1432.825)" fill="#2a2a2a"/>
  </g>
</svg>
