<svg width="32" height="27" viewBox="0 0 32 27" fill="none" xmlns="http://www.w3.org/2000/svg">
<path d="M29.3688 26.3004H1.75336C0.730568 26.3004 0 25.5698 0 24.547V1.89942C0 0.876625 0.876681 0.146057 1.75336 0.146057H26.3004C28.9305 0.146057 30.9761 2.19165 30.9761 4.82169V24.547C31.1222 25.5698 30.3916 26.3004 29.3688 26.3004Z" fill="url(#paint0_linear)"/>
<path d="M26.3025 0H20.7502L7.74609 26.3004H28.9326C30.5398 26.3004 32.0009 24.9854 32.0009 23.232V5.69843C32.0009 2.48393 29.517 0 26.3025 0Z" fill="#18253E"/>
<path d="M26.0082 22.6476H19.8714C18.7025 22.6476 17.6797 21.6248 17.6797 20.4559V14.4653C17.6797 13.2964 18.7025 12.2736 19.8714 12.2736H26.0082C27.1771 12.2736 28.1999 13.2964 28.1999 14.4653V20.4559C28.1999 21.6248 27.1771 22.6476 26.0082 22.6476Z" fill="#33EEB1"/>
<path d="M10.957 12.7119H4.67412C3.50522 12.7119 2.48242 11.6891 2.48242 10.5202V4.38341C2.48242 3.21451 3.50522 2.19171 4.67412 2.19171H10.957C12.1259 2.19171 13.1487 3.21451 13.1487 4.38341V10.3741C13.0026 11.6891 12.1259 12.7119 10.957 12.7119Z" fill="white"/>
<defs>
<linearGradient id="paint0_linear" x1="1.30129" y1="-5.12806" x2="28.5924" y2="31.7836" gradientUnits="userSpaceOnUse">
<stop stop-color="#FFF5E9"/>
<stop offset="0.6046" stop-color="#7D95E6"/>
<stop offset="0.9986" stop-color="#3F28DD"/>
</linearGradient>
</defs>
</svg>
