<svg width="12" height="20" viewBox="0 0 12 20" fill="none" xmlns="http://www.w3.org/2000/svg">
<path d="M10.5796 0H1.42037C0.635919 0 0 0.594042 0 1.32683V18.6732C0 19.406 0.635919 20 1.42037 20H10.5796C11.3641 20 12 19.406 12 18.6732V1.32683C12 0.594042 11.3641 0 10.5796 0Z" fill="#120D34"/>
<path d="M10.974 1H1.02597C1.01163 1 1 1.01198 1 1.02675V18.9732C1 18.988 1.01163 19 1.02597 19H10.974C10.9884 19 11 18.988 11 18.9732V1.02675C11 1.01198 10.9884 1 10.974 1Z" fill="url(#paint0_linear)"/>
<path d="M7.51401 0.359863H4.79001C4.71159 0.359863 4.64801 0.423439 4.64801 0.501864V0.529864C4.64801 0.608289 4.71159 0.671865 4.79001 0.671865H7.51401C7.59244 0.671865 7.65601 0.608289 7.65601 0.529864V0.501864C7.65601 0.423439 7.59244 0.359863 7.51401 0.359863Z" fill="white"/>
<path d="M6.16666 13.6667C8.28375 13.6667 10 11.9504 10 9.83334C10 7.71625 8.28375 6 6.16666 6C4.04956 6 2.33331 7.71625 2.33331 9.83334C2.33331 11.9504 4.04956 13.6667 6.16666 13.6667Z" fill="#33EEB1"/>
<path d="M6.58586 9.05477C6.0468 9.05477 5.44784 9.05477 4.90877 9.05477C4.84888 9.05477 4.78898 9.05477 4.72909 9.05477C4.60929 9.05477 4.4895 8.93498 4.4895 8.81519C4.4895 8.6954 4.5494 8.57561 4.72909 8.57561C4.84888 8.57561 4.96867 8.57561 5.08846 8.57561C5.56763 8.57561 6.0468 8.57561 6.58586 8.57561C6.58586 8.51571 6.52597 8.45581 6.52597 8.39592C6.34628 8.03654 6.0468 7.85685 5.68742 7.85685C5.38794 7.85685 5.08846 7.85685 4.78898 7.85685C4.72909 7.85685 4.60929 7.79696 4.5494 7.73706C4.42961 7.61727 4.5494 7.37769 4.72909 7.37769C4.96867 7.37769 5.20825 7.37769 5.44784 7.37769C6.0468 7.37769 6.70565 7.37769 7.30461 7.37769C7.36451 7.37769 7.36451 7.37769 7.42441 7.37769C7.60409 7.37769 7.66399 7.49748 7.66399 7.61727C7.66399 7.73706 7.5442 7.85685 7.42441 7.85685C7.24472 7.85685 7.06503 7.85685 6.88534 7.85685C6.82545 7.85685 6.76555 7.85685 6.76555 7.85685C6.88534 8.09644 7.00513 8.27613 7.06503 8.51571C7.18482 8.51571 7.30461 8.51571 7.42441 8.51571C7.60409 8.51571 7.72389 8.6355 7.72389 8.75529C7.72389 8.87509 7.60409 8.99488 7.4843 8.99488C7.36451 8.99488 7.24472 8.99488 7.12493 8.99488C6.88534 9.89332 6.28638 10.1928 5.38794 10.1329C5.44784 10.1928 5.50773 10.2527 5.50773 10.2527C5.9869 10.7319 6.46607 11.1511 6.94524 11.6303C7.00513 11.6902 7.00513 11.6902 7.06503 11.7501C7.12493 11.8699 7.12493 11.9897 7.06503 12.0496C7.00513 12.1095 6.88534 12.1694 6.76555 12.0496C6.70565 12.0496 6.70565 11.9897 6.64576 11.9897C5.9869 11.3907 5.32805 10.7319 4.72909 10.1329C4.60929 10.0131 4.5494 9.95321 4.60929 9.77353C4.66919 9.65373 4.78898 9.65373 4.90877 9.65373C5.20825 9.65373 5.50773 9.65373 5.80721 9.65373C6.16659 9.71363 6.52597 9.41415 6.58586 9.05477Z" fill="white"/>
<defs>
<linearGradient id="paint0_linear" x1="4" y1="-12" x2="6" y2="44" gradientUnits="userSpaceOnUse">
<stop stop-color="#FFF5E8"/>
<stop offset="0.598958" stop-color="#7D95E6"/>
<stop offset="1" stop-color="#3F28DD"/>
</linearGradient>
</defs>
</svg>
