<?xml version="1.0" encoding="utf-8"?>
<!-- Generator: Adobe Illustrator 25.0.0, SVG Export Plug-In . SVG Version: 6.00 Build 0)  -->
<svg version="1.1" id="Layer_1" xmlns="http://www.w3.org/2000/svg" xmlns:xlink="http://www.w3.org/1999/xlink" x="0px" y="0px"
	 viewBox="0 0 24 24" style="enable-background:new 0 0 24 24;" xml:space="preserve">
<style type="text/css">
	.st0{fill:#33EEB1;}
	.st1{fill:#FFFFFF;}
	.st2{fill:#506993;}
	.st3{fill:url(#SVGID_1_);}
	.st4{fill:url(#SVGID_2_);}
	.st5{fill:#D7FFEF;}
	.st6{fill:#18253E;}
	.st7{fill:url(#SVGID_3_);}
	.st8{fill:#3F28DD;}
	.st9{fill:url(#SVGID_4_);}
	.st10{fill:url(#SVGID_5_);}
	.st11{fill:url(#SVGID_6_);}
	.st12{fill:url(#SVGID_7_);}
	.st13{fill:url(#SVGID_8_);}
	.st14{fill:url(#SVGID_9_);}
	.st15{fill:url(#SVGID_10_);}
	.st16{fill:none;stroke:#FFFFFF;stroke-miterlimit:10;}
	.st17{fill:none;stroke:#FFFFFF;stroke-width:0.5;stroke-miterlimit:10;}
	.st18{fill:url(#SVGID_11_);}
	.st19{fill:url(#SVGID_12_);}
	.st20{fill:url(#SVGID_13_);}
	.st21{fill:url(#SVGID_14_);}
	.st22{fill:url(#SVGID_15_);}
	.st23{fill:none;stroke:#FFFFFF;stroke-linecap:round;stroke-linejoin:round;stroke-miterlimit:10;}
	.st24{fill:url(#SVGID_16_);}
	.st25{fill:none;stroke:#18253E;stroke-linecap:round;stroke-linejoin:round;stroke-miterlimit:10;}
	.st26{fill:url(#SVGID_17_);}
	.st27{fill:url(#SVGID_18_);}
	.st28{fill:#F8F8FF;}
	.st29{fill:none;stroke:#000000;stroke-width:0.1547;stroke-miterlimit:10;}
	.st30{clip-path:url(#XMLID_15_);}
	.st31{fill:#667CA1;}
	.st32{fill:none;stroke:#000000;stroke-width:0.2036;stroke-miterlimit:10;}
	.st33{fill:none;stroke:#FFFFFF;stroke-width:0.2036;stroke-miterlimit:10;}
	.st34{fill:none;stroke:#231F20;stroke-width:0.149;stroke-miterlimit:10;}
	.st35{fill:#F9F9FF;}
	.st36{fill:#938BFC;stroke:#231F20;stroke-width:0.149;stroke-miterlimit:10;}
	.st37{fill:#FFFFFF;stroke:#231F20;stroke-width:0.1303;stroke-miterlimit:10;}
	.st38{fill:#938BFC;}
	.st39{fill:#FC867D;}
	.st40{opacity:0.36;fill:#FFFFFF;}
	.st41{fill:#2CBF8A;}
	.st42{fill:#E6A957;}
	.st43{fill:#F8D3C8;}
	.st44{fill:none;}
	.st45{opacity:0.24;}
	.st46{fill:#31909C;}
	.st47{fill:#FFFFFF;stroke:#231F20;stroke-width:0.1189;stroke-miterlimit:10;}
	.st48{opacity:0.36;}
	.st49{fill:#FFFFFF;stroke:#231F20;stroke-width:0.1224;stroke-miterlimit:10;}
	.st50{fill:#714BB9;}
	.st51{fill:#E6FAF8;}
	.st52{fill:#87CFD4;}
	.st53{fill:#13808E;}
	.st54{clip-path:url(#XMLID_17_);}
	.st55{fill:#D2F4F5;}
	.st56{fill:none;stroke:#231F20;stroke-width:0.1547;stroke-miterlimit:10;}
	.st57{fill:#FFFFFF;stroke:#231F20;stroke-width:0.1547;stroke-miterlimit:10;}
	.st58{fill:none;stroke:#21CAB7;stroke-width:0.1547;stroke-miterlimit:10;}
	.st59{fill:#21CAB7;}
	.st60{fill:none;stroke:#FFFFFF;stroke-width:0.1547;stroke-miterlimit:10;}
	.st61{opacity:0.36;fill:#21CAB7;}
	.st62{fill:#043B3F;}
	.st63{fill:none;stroke:#231F20;stroke-width:0.1547;stroke-linecap:round;stroke-linejoin:round;stroke-miterlimit:10;}
	.st64{fill:#FFFFFF;stroke:#231F20;stroke-width:0.1547;stroke-linecap:round;stroke-linejoin:round;stroke-miterlimit:10;}
	.st65{fill:#FFFFFF;stroke:#231F20;stroke-width:0.1266;stroke-miterlimit:10;}
	.st66{fill:none;stroke:#231F20;stroke-width:0.1329;stroke-linecap:round;stroke-linejoin:round;stroke-miterlimit:10;}
	.st67{fill:none;stroke:#87CFD4;stroke-width:0.1547;stroke-miterlimit:10;}
	.st68{clip-path:url(#XMLID_20_);}
	.st69{opacity:0.24;clip-path:url(#SVGID_20_);}
	.st70{opacity:0.24;clip-path:url(#SVGID_22_);}
	.st71{opacity:0.24;clip-path:url(#SVGID_24_);}
	.st72{opacity:0.24;clip-path:url(#SVGID_26_);}
	.st73{fill:#FFFFFF;stroke:#231F20;stroke-width:0.149;stroke-miterlimit:10;}
	.st74{fill:none;stroke:#000000;stroke-width:0.149;stroke-miterlimit:10;}
	.st75{opacity:0.24;clip-path:url(#XMLID_23_);}
	.st76{opacity:0.24;clip-path:url(#SVGID_28_);}
	.st77{fill:none;stroke:#231F20;stroke-width:0.1303;stroke-miterlimit:10;}
	.st78{fill:none;stroke:#231F20;stroke-width:0.1303;stroke-linecap:round;stroke-linejoin:round;stroke-miterlimit:10;}
	.st79{fill:#231F20;}
	.st80{fill:#FFFFFF;stroke:#231F20;stroke-width:0.123;stroke-miterlimit:10;}
	.st81{fill:none;stroke:#13808E;stroke-width:0.1547;stroke-linecap:round;stroke-linejoin:round;stroke-miterlimit:10;}
	.st82{fill:url(#SVGID_29_);}
	.st83{fill:url(#SVGID_30_);}
	.st84{opacity:0.42;fill:#FFFFFF;}
	.st85{fill:none;stroke:#FFFFFF;stroke-width:0.149;stroke-miterlimit:10;}
	.st86{fill:#FFFFFF;stroke:#231F20;stroke-width:0.2036;stroke-miterlimit:10;}
	.st87{fill:#99ACA5;}
	.st88{fill:#A8A8A8;}
	.st89{opacity:0.24;clip-path:url(#XMLID_24_);}
	.st90{opacity:0.24;clip-path:url(#XMLID_25_);}
	.st91{opacity:0.24;clip-path:url(#XMLID_26_);}
	.st92{opacity:0.24;clip-path:url(#XMLID_27_);}
	.st93{fill:#FFFFFF;stroke:#231F20;stroke-width:0.1855;stroke-miterlimit:10;}
	.st94{fill:none;stroke:#000000;stroke-width:0.1927;stroke-miterlimit:10;}
	.st95{fill:none;stroke:#000000;stroke-width:0.1855;stroke-miterlimit:10;}
	.st96{fill:#FFFFFF;stroke:#231F20;stroke-width:0.1927;stroke-miterlimit:10;}
	.st97{fill:#FFFFFF;stroke:#231F20;stroke-width:0.1342;stroke-miterlimit:10;}
	.st98{fill:#A3A3A3;}
	.st99{fill:#7D7AE2;}
	.st100{fill:#45E1A9;}
	.st101{fill:#A2FFD9;}
	.st102{fill:url(#SVGID_33_);}
	.st103{fill:url(#SVGID_34_);}
	.st104{fill:url(#SVGID_35_);}
	.st105{fill:url(#SVGID_36_);}
	.st106{fill:url(#SVGID_37_);}
	.st107{fill:url(#SVGID_38_);}
	.st108{fill:url(#SVGID_39_);}
	.st109{fill:url(#SVGID_40_);}
	.st110{fill:url(#SVGID_41_);}
	.st111{fill:url(#SVGID_42_);}
	.st112{fill:url(#SVGID_43_);}
	.st113{fill:url(#SVGID_44_);}
	.st114{fill:url(#SVGID_45_);}
	.st115{fill:url(#SVGID_46_);}
	.st116{fill:url(#SVGID_47_);}
	.st117{fill:url(#SVGID_48_);}
	.st118{fill:url(#SVGID_49_);}
	.st119{fill:url(#SVGID_50_);}
	.st120{fill:url(#SVGID_51_);}
	.st121{fill:url(#SVGID_52_);}
	.st122{fill:url(#SVGID_53_);}
	.st123{fill:none;stroke:#FFFFFF;stroke-width:1.185;stroke-linecap:round;stroke-linejoin:round;stroke-miterlimit:10;}
	.st124{fill:url(#SVGID_54_);}
	.st125{fill:url(#SVGID_55_);}
	.st126{fill:url(#SVGID_56_);}
	.st127{fill:url(#SVGID_57_);}
	.st128{fill:url(#SVGID_58_);}
	.st129{fill:url(#SVGID_59_);}
	.st130{fill:url(#SVGID_60_);}
	.st131{fill:url(#SVGID_61_);}
	.st132{fill:url(#SVGID_62_);}
	.st133{fill:url(#SVGID_63_);}
	.st134{fill:url(#SVGID_64_);}
	.st135{fill:url(#SVGID_65_);}
	.st136{fill:url(#SVGID_66_);}
	.st137{fill:url(#SVGID_67_);}
	.st138{fill:url(#SVGID_68_);}
	.st139{fill:url(#SVGID_69_);}
	.st140{fill:url(#SVGID_70_);}
	.st141{fill:#FFFFFF;stroke:#FFFFFF;stroke-width:0.25;stroke-miterlimit:10;}
	.st142{fill:url(#SVGID_71_);}
	.st143{fill:url(#SVGID_72_);}
	.st144{fill:url(#SVGID_73_);}
	.st145{fill:url(#SVGID_74_);}
	.st146{fill:url(#SVGID_75_);}
	.st147{fill:none;stroke:#FFFFFF;stroke-linecap:square;stroke-linejoin:round;stroke-miterlimit:10;}
</style>
<path class="st6" d="M21.9,13.9V6.2c0-1.6-1.3-2.9-2.9-2.9H4.2c-1.6,0-2.9,1.3-2.9,2.9l-0.1,7.7H21.9z"/>
<circle class="st0" cx="16.5" cy="12.2" r="6.4"/>
<path class="st1" d="M17.3,11c-0.9,0-1.9,0-2.8,0c-0.1,0-0.2,0-0.3,0c-0.2,0-0.4-0.2-0.4-0.4c0-0.2,0.1-0.4,0.4-0.4
	c0.2,0,0.4,0,0.6,0c0.8,0,1.6,0,2.5,0c0-0.1-0.1-0.2-0.1-0.3C16.9,9.3,16.4,9,15.8,9c-0.5,0-1,0-1.5,0c-0.1,0-0.3-0.1-0.4-0.2
	c-0.2-0.2,0-0.6,0.3-0.6c0.4,0,0.8,0,1.2,0c1,0,2.1,0,3.1,0c0.1,0,0.1,0,0.2,0c0.3,0,0.4,0.2,0.4,0.4C19.2,8.9,19,9,18.7,9
	c-0.3,0-0.6,0-0.9,0c-0.1,0-0.2,0-0.2,0c0.2,0.4,0.4,0.7,0.5,1.1c0.2,0,0.4,0,0.6,0c0.3,0,0.5,0.2,0.5,0.4c0,0.2-0.2,0.4-0.4,0.4
	c-0.2,0-0.4,0-0.6,0c-0.4,1.5-1.4,2-2.9,1.9c0.1,0.1,0.2,0.2,0.2,0.2c0.8,0.8,1.6,1.5,2.4,2.3c0.1,0.1,0.1,0.1,0.2,0.2
	c0.1,0.2,0.1,0.4,0,0.5c-0.1,0.1-0.3,0.2-0.5,0c-0.1,0-0.1-0.1-0.2-0.1c-1.1-1-2.2-2.1-3.2-3.1c-0.2-0.2-0.3-0.3-0.2-0.6
	c0.1-0.2,0.3-0.2,0.5-0.2c0.5,0,1,0,1.5,0C16.5,12.1,17.1,11.6,17.3,11z"/>
<linearGradient id="SVGID_1_" gradientUnits="userSpaceOnUse" x1="-41.0309" y1="445.0604" x2="-20.8134" y2="471.8656" gradientTransform="matrix(0 1 -1 0 471.7623 40.7107)">
	<stop  offset="0" style="stop-color:#FFF5E9"/>
	<stop  offset="0.6046" style="stop-color:#7D95E6"/>
	<stop  offset="0.9986" style="stop-color:#3F28DD"/>
</linearGradient>
<path class="st3" d="M2.7,16.7c-0.9-0.5-1.5-1.4-1.5-2.5v-8c0-1.6,1.3-2.9,2.9-2.9l9.5,4.8c3.4,1.5,2.9,2.9,2.9,4.5l0,8
	c0,1.4-1.5,2.3-2.7,1.7L2.7,16.7z"/>
</svg>
