<svg width="18" height="32" viewBox="0 0 18 32" fill="none" xmlns="http://www.w3.org/2000/svg">
<path d="M6.2207 28.0881C6.2207 26.6071 6.8131 25.8666 7.9979 25.4223C9.03459 24.978 10.2194 25.2742 10.9599 26.1628C11.7004 27.0514 11.8485 28.2362 11.2561 29.1247C10.6637 30.0133 9.92319 30.9019 9.33079 31.7905C9.18269 31.9386 8.59029 32.0867 8.59029 31.9386C7.5536 30.7538 6.3688 29.569 6.2207 28.0881Z" fill="#4E5FF9"/>
<path d="M5.92383 3.20737C7.10862 2.17067 7.99722 0.985876 9.03392 0.0972797C9.18202 -0.0508197 9.77441 -0.0508197 9.92251 0.245379C10.8111 1.13398 11.6997 2.17067 12.7364 3.20737C11.1073 4.09596 8.14532 4.24406 5.92383 3.20737Z" fill="#4E5FF9"/>
<path d="M14.958 17.425C15.9947 12.8339 15.9947 8.24283 13.0327 4.24414C10.9594 5.13274 7.55307 4.98464 5.47968 4.24414C3.55439 7.20613 2.07339 9.13142 3.11009 16.9807C1.33289 17.8693 0 19.0541 0 21.2756C0 22.4604 0 23.4971 0 24.6819C0 24.9781 0.148099 25.2743 0.296199 25.5705C0.592397 25.4224 0.888596 25.2743 1.18479 25.1262C2.36959 23.9414 3.70249 22.7566 4.88728 21.5718C6.07208 22.9047 7.10877 24.3857 9.03406 24.3857C10.9594 24.3857 11.9961 23.0528 13.1808 21.868C13.7732 22.4604 14.2175 22.9047 14.6618 23.4971C15.4023 24.2376 16.1428 25.1262 16.8833 25.8667C17.0314 26.0148 17.3276 26.1629 17.4757 26.1629C17.6238 26.1629 17.7719 25.8667 17.7719 25.7186C17.7719 24.2376 17.92 22.7566 17.92 21.2756C17.92 19.2022 16.7352 18.1655 14.958 17.425ZM9.62646 11.7972C8.29357 11.9453 6.81257 11.2048 6.81257 9.57572C6.81257 6.31753 11.848 6.16943 11.848 9.42762C11.848 10.9086 10.8113 11.6491 9.62646 11.7972Z" fill="#4E5FF9"/>
</svg>
