<svg width="33" height="17" viewBox="0 0 33 17" fill="none" xmlns="http://www.w3.org/2000/svg">
<path d="M24.542 0C29.1939 0 33.0001 3.80612 33.0001 8.45804C33.0001 13.11 29.1939 16.9161 24.542 16.9161C19.8901 16.9161 16.084 13.11 16.084 8.45804C16.084 3.80612 19.8901 0 24.542 0Z" fill="#4E5FF9"/>
<path d="M0 16.0702C0 14.9425 0 13.9557 0 12.687C0.422902 12.687 0.704837 12.687 1.12774 12.687C5.35676 12.687 9.44481 12.687 13.6738 12.687C14.3787 12.687 14.8016 12.9689 15.2245 13.5328C15.7883 14.3786 16.4932 15.2244 17.198 16.0702C11.4184 16.0702 5.77966 16.0702 0 16.0702Z" fill="#4E5FF9"/>
<path d="M0 6.48429C0 5.35655 0 4.22881 0 3.10107C5.07482 3.10107 10.0087 3.10107 15.0835 3.10107C14.6606 4.22881 14.2377 5.35655 13.8148 6.48429C9.30384 6.48429 4.79289 6.48429 0 6.48429Z" fill="#4E5FF9"/>
<path d="M13.8148 7.89429C13.8148 8.45816 13.8148 9.02203 13.8148 9.5859C13.8148 10.1498 13.9558 10.5727 14.0967 11.1365C10.8545 11.1365 7.47125 11.1365 4.229 11.1365C4.229 10.0088 4.229 9.02203 4.229 7.89429C7.33029 7.89429 10.5725 7.89429 13.8148 7.89429Z" fill="#4E5FF9"/>
<path d="M25.5289 6.76627C24.2602 6.76627 23.1324 6.76627 22.0047 6.76627C21.8637 6.76627 21.7228 6.76627 21.7228 6.76627C21.4408 6.76627 21.2999 6.62531 21.1589 6.34337C21.1589 6.06144 21.2999 5.7795 21.7228 5.7795C22.0047 5.7795 22.2866 5.7795 22.4276 5.7795C23.4144 5.7795 24.5421 5.7795 25.5289 5.7795C25.5289 5.63854 25.5289 5.49757 25.5289 5.49757C25.106 4.79273 24.5421 4.36983 23.6963 4.36983C22.9915 4.36983 22.4276 4.36983 21.7228 4.36983C21.5818 4.36983 21.2999 4.22886 21.1589 4.08789C20.877 3.80596 21.1589 3.38306 21.5818 3.38306C22.1457 3.38306 22.5686 3.38306 23.1324 3.38306C24.4011 3.38306 25.8108 3.38306 27.0795 3.38306C27.2205 3.38306 27.2205 3.38306 27.3615 3.38306C27.6434 3.38306 27.9253 3.52402 27.9253 3.80596C27.9253 4.08789 27.7844 4.36983 27.3615 4.36983C26.9386 4.36983 26.6566 4.36983 26.2337 4.36983C26.0928 4.36983 25.9518 4.36983 25.9518 4.36983C26.2337 4.79273 26.3747 5.3566 26.6566 5.7795C26.7976 5.7795 27.0795 5.7795 27.3615 5.7795C27.7844 5.7795 27.9253 5.92047 27.9253 6.34337C27.9253 6.62531 27.6434 6.76627 27.3615 6.76627C27.0795 6.76627 26.7976 6.76627 26.6566 6.76627C26.0928 8.59885 24.824 9.44465 22.8505 9.16272C22.9915 9.30369 22.9915 9.44465 23.1324 9.44465C24.1192 10.4314 25.106 11.4182 26.2337 12.405C26.3747 12.5459 26.3747 12.5459 26.5157 12.6869C26.6566 12.9688 26.6566 13.1098 26.5157 13.3917C26.3747 13.5327 26.0928 13.5327 25.8108 13.3917C25.6699 13.3917 25.6699 13.2508 25.6699 13.2508C24.2602 11.9821 22.8505 10.5724 21.5818 9.30369C21.4408 9.16272 21.1589 8.88078 21.2999 8.59885C21.4408 8.31691 21.7228 8.31691 22.0047 8.31691C22.5686 8.31691 23.2734 8.31691 23.8373 8.31691C24.6831 8.31691 25.5289 7.61208 25.5289 6.76627Z" fill="white"/>
</svg>
