<svg id="Group_18437" data-name="Group 18437" xmlns="http://www.w3.org/2000/svg" xmlns:xlink="http://www.w3.org/1999/xlink" width="99.192" height="71.434" viewBox="0 0 99.192 71.434">
  <defs>
    <linearGradient id="linear-gradient" x1="0.5" x2="1.025" y2="1.187" gradientUnits="objectBoundingBox">
      <stop offset="0" stop-color="#6d44e5"/>
      <stop offset="1" stop-color="#6cf5c2"/>
    </linearGradient>
    <clipPath id="clip-path">
      <rect id="Rectangle_2" data-name="Rectangle 2" width="99.192" height="71.434" fill="url(#linear-gradient)"/>
    </clipPath>
  </defs>
  <g id="Group_18436" data-name="Group 18436" clip-path="url(#clip-path)">
    <path id="Path_7" data-name="Path 7" d="M99.18,60.836q0-1.467,0-2.935V54.093c0-4.817,0-9.8.01-14.7a1.041,1.041,0,0,0-.232-.8.977.977,0,0,0-.739-.208c-.743.028-1.5.024-2.238.021-.523,0-1.065-.005-1.6,0a.625.625,0,0,1-.172-.014.546.546,0,0,1-.013-.153c.011-.617.009-1.242.006-1.847,0-.494,0-1,0-1.5a.785.785,0,0,0-.2-.6.734.734,0,0,0-.576-.17,10.7,10.7,0,0,1-1.279,0,.771.771,0,0,0-.6.169.8.8,0,0,0-.2.62c.011.566.009,1.143.008,1.7,0,.539,0,1.1.006,1.647a.683.683,0,0,1-.008.136.567.567,0,0,1-.129.008c-.548-.008-1.1-.006-1.642,0-.739,0-1.5.007-2.25-.018a.96.96,0,0,0-.73.211.986.986,0,0,0-.219.759c.015.808.014,1.631.012,2.427,0,.661,0,1.345.006,2.018a.753.753,0,0,1-.015.207.548.548,0,0,1-.172.018c-3.928-.015-8.006-.015-12.466,0a.482.482,0,0,1-.152-.013.72.72,0,0,1-.012-.171c.008-.679.007-1.369.005-2.036,0-.826,0-1.68.013-2.518a.762.762,0,0,0-.917-.894c-.466.016-.944.013-1.407.01s-.926-.006-1.392.009a.54.54,0,0,1-.176-.014.626.626,0,0,1-.016-.2c.011-.563.009-1.134.008-1.687,0-.51,0-1.037.005-1.553a.855.855,0,0,0-.21-.662.771.771,0,0,0-.617-.169,8.832,8.832,0,0,1-1.218,0,.67.67,0,0,0-.806.781c.019.619.015,1.252.011,1.864,0,.254,0,.508,0,.762a2.847,2.847,0,0,1-.055.83,2.684,2.684,0,0,1-.793.046h-.043a.638.638,0,0,1-.138-.012.665.665,0,0,1-.008-.138c.008-.513.006-1.032,0-1.535,0-.63-.006-1.282.012-1.921a.961.961,0,0,0-.209-.737.939.939,0,0,0-.716-.208c-.766.024-1.549.021-2.306.017-.465,0-.946,0-1.42,0a.537.537,0,0,1-.131-.009.5.5,0,0,1-.008-.1c.014-2.231.014-4.226,0-6.1a.574.574,0,0,1,0-.088.966.966,0,0,1,.132,0c.356.006.716,0,1.064,0,.478,0,.972-.007,1.453.013a.876.876,0,0,0,.668-.19.892.892,0,0,0,.214-.679c-.014-2.4-.011-4.836-.009-7.194V17.717c0-.713,0-1.071-.251-1.321s-.643-.247-1.287-.241h-.081c.009-.03.02-.068.036-.115A8.172,8.172,0,0,0,61.1,7.348c-1.6-1.7-3.272-3.324-4.986-4.975a8.4,8.4,0,0,0-11.742.038c-1.559,1.52-3.177,3.146-4.81,4.832a8.368,8.368,0,0,0-2.222,8.124,2.387,2.387,0,0,0,.176.462,1.53,1.53,0,0,1,.132.347,1.3,1.3,0,0,1-.495-.005,3.4,3.4,0,0,0-.4-.033.762.762,0,0,0-.565.188A.778.778,0,0,0,36,16.9c.011,3.355.011,6.7,0,9.936a.774.774,0,0,0,.188.579.755.755,0,0,0,.57.174c.388-.01.786-.008,1.171,0,.462,0,.94.006,1.413-.013a.589.589,0,0,1,.167.01.759.759,0,0,1,.016.2c-.021,2.3-.02,4.167,0,5.882a.531.531,0,0,1-.021.2.686.686,0,0,1-.232.02c-.638-.01-1.285-.008-1.911-.007s-1.253,0-1.877-.007a.808.808,0,0,0-.6.19.8.8,0,0,0-.187.6c.015.748.012,1.51.009,2.248q0,.382,0,.765a2.869,2.869,0,0,1-.04.682,2.774,2.774,0,0,1-.652.054l-.074,0a.573.573,0,0,1-.192-.016.712.712,0,0,1-.016-.222c.013-.544.011-1.1.009-1.629,0-.511,0-1.039.008-1.556a.878.878,0,0,0-.214-.694.792.792,0,0,0-.643-.169,7.106,7.106,0,0,1-1.155,0,.845.845,0,0,0-.664.176.866.866,0,0,0-.212.669c.015.588.013,1.188.011,1.768,0,.5,0,1.015.005,1.524a.7.7,0,0,1-.008.141.591.591,0,0,1-.124.007c-.454-.011-.914-.009-1.359-.007-.508,0-1.034,0-1.547-.013a.838.838,0,0,0-.639.187.868.868,0,0,0-.2.662c.011.78.01,1.575.009,2.344,0,.743,0,1.511.008,2.268a.711.711,0,0,1-.011.161.747.747,0,0,1-.158.013c-4.561-.012-9.235-.012-13.893,0a.786.786,0,0,1-.156-.014.683.683,0,0,1-.013-.17c.009-.779.008-1.57.007-2.335s0-1.556.007-2.332a.675.675,0,0,0-.786-.781c-.654.01-1.321.008-1.966.007-.669,0-1.361,0-2.043.008a.754.754,0,0,1-.165-.01.645.645,0,0,1-.009-.149c.013-.51.01-1.026.008-1.525,0-.544-.005-1.107.012-1.657a.968.968,0,0,0-.232-.783.869.869,0,0,0-.717-.156,3.765,3.765,0,0,1-.909,0,.949.949,0,0,0-.769.178.979.979,0,0,0-.237.775c.022.575.019,1.164.016,1.734,0,.455-.005.926.005,1.39A.631.631,0,0,1,5,38.4a.556.556,0,0,1-.182.015c-.588-.013-1.183-.01-1.759-.008-.665,0-1.353.006-2.026-.015a1.03,1.03,0,0,0-.789.213,1.051,1.051,0,0,0-.24.786c.018,9.429.019,19.594,0,31.077a.991.991,0,0,0,.223.741.977.977,0,0,0,.726.221c3.456-.016,6.97-.014,10.369-.013H78.133c6.59,0,13.4,0,20.1.013h.007a.983.983,0,0,0,.725-.223,1,1,0,0,0,.221-.737c-.015-3.212-.013-6.478-.012-9.637M96.3,68.574s-.051.032-.265.029c-2.5-.029-4.562-.028-6.484,0-.24,0-.286-.038-.286-.038s-.041-.055-.04-.33c.014-3.43.013-6.917.012-10.289q0-1.524,0-3.048,0-1.545,0-3.091c0-3.34,0-6.794-.016-10.192,0-.27.044-.323.049-.328s.063-.048.338-.044c2.356.03,4.7.018,6.482,0a.562.562,0,0,1,.216.021.586.586,0,0,1,.023.208c-.014,9.438-.014,18.216,0,26.836a.614.614,0,0,1-.03.258Zm-9.987-.182a.617.617,0,0,1-.017.19.69.69,0,0,1-.189.019c-4.481-.015-8.5-.015-12.3,0a.65.65,0,0,1-.2-.022.7.7,0,0,1-.02-.231c.018-2,.018-3.8,0-5.494a.6.6,0,0,1,.021-.216.6.6,0,0,1,.209-.022c1.5.016,3.018.014,4.489.011q1.6,0,3.209,0c1.49,0,3.03,0,4.546-.009a.621.621,0,0,1,.227.021.55.55,0,0,1,.021.2c-.023,1.666-.024,3.482,0,5.55M73.589,47.053A.618.618,0,0,1,73.6,46.9a.7.7,0,0,1,.171-.014c4.041.012,8.2.012,12.353,0a.6.6,0,0,1,.17.015.59.59,0,0,1,.013.156c-.021,1.785-.02,3.386,0,4.893a.6.6,0,0,1-.015.177.713.713,0,0,1-.2.017c-1.522-.014-3.068-.012-4.564-.01H79.944c-.542,0-1.075,0-1.613,0-1.487,0-3.025,0-4.538.011a.631.631,0,0,1-.189-.016.64.64,0,0,1-.015-.183c.021-1.553.021-3.2,0-4.893m0,12.56c.022-1.387.023-2.843,0-4.452A.549.549,0,0,1,73.6,55a.651.651,0,0,1,.169-.015c1.54.01,3.106.009,4.62.007h3.148c1.482,0,3.014,0,4.521-.008a.588.588,0,0,1,.228.022.512.512,0,0,1,.02.2c-.027,1.329-.027,2.768,0,4.4a.573.573,0,0,1-.017.183.773.773,0,0,1-.2.019c-2.037-.006-4.1-.01-6.179-.01-2.028,0-4.069,0-6.108.009a.669.669,0,0,1-.2-.019.558.558,0,0,1-.016-.176M65.85,41.389a.576.576,0,0,1,.008-.128.48.48,0,0,1,.1-.008c1.41.01,2.894.011,4.67,0a.786.786,0,0,1,.1.005.546.546,0,0,1,0,.075c-.02.95-.02,1.8,0,2.595a.6.6,0,0,1,0,.093.761.761,0,0,1-.12,0c-.552-.013-1.112-.01-1.653-.008l-.66,0h0l-.656,0c-.525,0-1.067-.006-1.6.009a.669.669,0,0,1-.182-.012.5.5,0,0,1-.01-.141c.027-.867.017-1.743,0-2.486m0,5.717a.677.677,0,0,1,.019-.2.53.53,0,0,1,.176-.016c1.6.026,3.081.025,4.512,0a.638.638,0,0,1,.163.013.876.876,0,0,1,.015.209c-.01,2.751-.009,5.547-.008,8.251v2.4q0,1.221,0,2.442c0,2.654,0,5.4.013,8.1a.6.6,0,0,1-.03.26s-.052.031-.263.027c-.706-.015-1.414-.02-2.088-.02-.825,0-1.6.008-2.259.016h-.025a.622.622,0,0,1-.2-.021.443.443,0,0,1-.028-.21c.013-6.527.014-13.476,0-21.245M47.163,51.445a.613.613,0,0,1,.024-.221A.543.543,0,0,1,47.4,51.2c2.072.024,3.96.024,5.772,0a.546.546,0,0,1,.19.019.755.755,0,0,1,.02.235c-.011,2.121-.009,4.278-.008,6.363q0,1.019,0,2.038,0,1,0,2c0,2.081,0,4.232.01,6.349a.73.73,0,0,1-.015.19.634.634,0,0,1-.18.014c-.965-.011-1.937-.016-2.91-.016s-1.948.005-2.916.016a.567.567,0,0,1-.176-.016.722.722,0,0,1-.018-.2c.012-5.753.011-11.387,0-16.746M42.337,27.782a.662.662,0,0,1,.016-.19.765.765,0,0,1,.186-.017c1.936.014,3.9.012,5.807.01q1.924,0,3.847,0c1.906,0,3.878,0,5.817-.01a.8.8,0,0,1,.188.015.693.693,0,0,1,.014.18c-.024,2.107-.023,4.029,0,5.876a.54.54,0,0,1-.021.2.742.742,0,0,1-.229.022c-5.619-.011-10.643-.011-15.359,0a.631.631,0,0,1-.242-.029s-.031-.044-.029-.237c.021-1.793.022-3.7,0-5.821m-3.5-8.71a.518.518,0,0,1,0-.062c.035,0,.084,0,.121,0l.109,0,5.838,0,2.5,0h3.171v-.007h2.287c2.833,0,5.763,0,8.644-.011a.706.706,0,0,1,.2.02.693.693,0,0,1,.018.212c-.021,1.678-.036,3.478,0,5.278a.606.606,0,0,1-.021.214,1.112,1.112,0,0,1-.315.021c-2.892-.043-5.815-.054-8.709-.054-1.575,0-3.141,0-4.689.007-2.461.005-5.005.011-7.507,0-.493,0-.99.018-1.471.037l-.131,0a.459.459,0,0,1-.054,0,.485.485,0,0,1,0-.07c.008-1.983.014-3.773,0-5.6m21.239-3.341a.568.568,0,0,1-.626.4c-1.544-.012-3.1-.015-4.648-.015l-2.254,0H50.275l-2.059,0c-2.331,0-4.742-.006-7.114.013h-.015a.529.529,0,0,1-.573-.373,5.5,5.5,0,0,1,.79-6.193c1.862-1.993,3.579-3.72,5.248-5.28a5.477,5.477,0,0,1,7.5.063c1.653,1.566,3.327,3.237,5.119,5.108a5.557,5.557,0,0,1,.9,6.273m-3.85,36.94V49.409c0-.881-.146-1.024-1.037-1.024l-2.563,0c-2.4,0-4.879.006-7.318-.015a1,1,0,0,0-.746.223,1.034,1.034,0,0,0-.225.77c.009,3.091.01,6.234.011,9.273,0,3.115,0,6.336.011,9.5,0,.264-.042.309-.043.311s-.046.044-.3.039c-1.787-.026-3.7-.027-6.212,0a.641.641,0,0,1-.181-.016.686.686,0,0,1-.018-.2c.013-8.069.012-14.8,0-21.2a.565.565,0,0,1,.02-.179,1.283,1.283,0,0,1,.246-.016c3.252.007,6.558.006,9.756.006h5.623c3.094,0,6.294,0,9.441-.013.232,0,.277.037.277.038s.038.041.037.292c-.013,6.8-.012,13.855,0,20.975,0,.226-.03.272-.033.275s-.045.035-.253.031c-2.2-.031-4.215-.03-6.159,0-.248.006-.293-.037-.295-.039s-.043-.051-.043-.323c.014-5.154.012-10.394.011-15.461m6.768-8.739a.506.506,0,0,1-.007.092c-.04,0-.106,0-.152,0l-.105,0H47.494c-3.159,0-6.426,0-9.64.011a.7.7,0,0,1-.239-.025.616.616,0,0,1-.024-.229c.018-2.378.009-4.571-.027-6.7,0-.275.032-.327.04-.334s.052-.049.328-.047c6.331.025,12.767.029,18.992.033l3.244,0c1.08,0,1.954-.006,2.751-.023a.676.676,0,0,1,.092,0,.536.536,0,0,1,0,.083c-.017,2.286-.031,4.733-.025,7.139M29.852,47.115a.556.556,0,0,1,.024-.209.579.579,0,0,1,.216-.021c1.6.026,3.035.026,4.4,0a.633.633,0,0,1,.194.017.732.732,0,0,1,.02.225c-.011,2.734-.01,5.513-.009,8.2q0,1.225,0,2.45h0q0,1.333,0,2.665c0,2.581,0,5.25.011,7.876a.626.626,0,0,1-.026.243.51.51,0,0,1-.232.026c-.709-.013-1.429-.02-2.17-.02-.721,0-1.462.006-2.233.019a.482.482,0,0,1-.177-.017.627.627,0,0,1-.021-.207c.01-7.688.009-14.638,0-21.245m.006-5.7a.623.623,0,0,1,.011-.155.409.409,0,0,1,.126-.011c1.571.017,3.146.011,4.615,0a.687.687,0,0,1,.1,0,.536.536,0,0,1,0,.075c-.017.822-.018,1.688,0,2.646,0,.018,0,.032,0,.044-.016,0-.037,0-.066,0-.568-.009-1.143-.007-1.7-.006h-.665l-.668,0c-.52,0-1.058-.005-1.59.009a.689.689,0,0,1-.156-.008.511.511,0,0,1-.007-.117c.02-.741.021-1.53,0-2.484m-2.839,27a.663.663,0,0,1-.013.164.66.66,0,0,1-.16.014c-2.388-.007-4.8-.01-7.218-.01-2.167,0-4.338,0-6.5.008a.776.776,0,0,1-.2-.02.544.544,0,0,1-.017-.178c.021-1.906.022-3.773,0-5.548a.547.547,0,0,1,.022-.209.518.518,0,0,1,.221-.023c1.7.014,3.427.012,5.1.01h3.614c1.624,0,3.3,0,4.955-.011a.67.67,0,0,1,.188.016.655.655,0,0,1,.015.185c-.02,1.728-.02,3.561,0,5.6M19.95,46.9h1.862c1.639,0,3.334,0,5-.01a.742.742,0,0,1,.195.015.65.65,0,0,1,.014.175c-.023,1.476-.024,3.031,0,4.893a.736.736,0,0,1-.011.164.788.788,0,0,1-.155.013c-4.539-.013-9.175-.013-13.777,0a.822.822,0,0,1-.153-.014.713.713,0,0,1-.013-.175c.019-1.867.019-3.4,0-4.837a.6.6,0,0,1,.021-.212.558.558,0,0,1,.213-.022c1.685.015,3.4.013,5.054.011H19.95ZM27.022,59.52a.647.647,0,0,1-.023.262.557.557,0,0,1-.258.03c-1.071-.013-2.152-.016-3.223-.016l-1.785,0-1.8,0-1.522,0c-1.713,0-3.484-.005-5.226.008a.593.593,0,0,1-.258-.026.442.442,0,0,1-.026-.22c.025-1.264.026-2.62,0-4.4a.544.544,0,0,1,.014-.16.624.624,0,0,1,.17-.016c4.953.011,9.456.011,13.766,0a.415.415,0,0,1,.147.013.718.718,0,0,1,.012.177c-.016,1.3-.028,2.832,0,4.343M2.875,41.478a.563.563,0,0,1,.024-.206.716.716,0,0,1,.22-.021c2.537.018,4.613.017,6.535,0,.241,0,.283.036.284.037s.042.044.041.286c-.015,3.443-.014,6.943-.012,10.327q0,1.531,0,3.062t0,3.064c0,3.348,0,6.81.012,10.216,0,.273-.038.32-.043.324s-.046.046-.292.04c-.987-.014-2.023-.021-3.15-.021-1.04,0-2.158.006-3.387.018a.613.613,0,0,1-.207-.02.642.642,0,0,1-.022-.217c.012-9.27.011-18.316,0-26.887" transform="translate(0 0.001)" fill="url(#linear-gradient)"/>
  </g>
</svg>
