<svg xmlns="http://www.w3.org/2000/svg" width="50" height="51" viewBox="0 0 50 51">
  <g id="Group_18442" data-name="Group 18442" transform="translate(-167 -1517)">
    <g id="Group_18432" data-name="Group 18432">
      <path id="Vector" d="M21.269,17.994a13.622,13.622,0,0,1-3.213,5.082,16.729,16.729,0,0,1-6.287,3.772,1.616,1.616,0,0,1-1.078,0A16.726,16.726,0,0,1,4.4,23.076a13.617,13.617,0,0,1-3.213-5.082C-.107,14.416-.033,10.474.027,7.307c.013-.679.025-1.319.025-1.942A1.663,1.663,0,0,1,1.7,3.688,11.163,11.163,0,0,0,10.083.478a1.616,1.616,0,0,1,2.295,0,11.166,11.166,0,0,0,8.387,3.21A1.663,1.663,0,0,1,22.41,5.365c0,.61.012,1.245.024,1.916v.026c.059,3.167.133,7.109-1.165,10.687Zm-4.452-6.361a.782.782,0,0,0-.775-.789H13.551V8.3a.782.782,0,0,0-.775-.789H9.685a.782.782,0,0,0-.775.789v2.54H6.418a.782.782,0,0,0-.775.789v3.15a.782.782,0,0,0,.775.789H8.911v2.54a.782.782,0,0,0,.775.789h3.091a.782.782,0,0,0,.775-.789v-2.54h2.492a.782.782,0,0,0,.775-.789Z" transform="translate(180.77 1517)" fill="#6cf5c2"/>
      <path id="Vector-2" data-name="Vector" d="M0,1.674A1.721,1.721,0,0,1,1.76,0,1.721,1.721,0,0,1,3.521,1.674V13.068c0,.016,0,.031,0,.047a3.5,3.5,0,0,0,.953,3.609l8.207,7.807a.863.863,0,0,0,1.178,0,.765.765,0,0,0,0-1.121L5.655,15.6a1.972,1.972,0,0,1,0-2.885,2.229,2.229,0,0,1,3.038,0l10.073,9.44.056,14.608a1.831,1.831,0,0,1-1.873,1.781H12.023a1.831,1.831,0,0,1-1.873-1.784l-.025-6.927a.774.774,0,0,0-.243-.558L0,19.877ZM43.051,3.626A1.721,1.721,0,0,1,44.811,5.3v5.763a4,4,0,0,0-3.521-.221V5.3a1.721,1.721,0,0,1,1.761-1.675Zm-1.738,9.091a2.226,2.226,0,0,1,3.032,0,1.971,1.971,0,0,1,0,2.885l-8.207,7.807a.766.766,0,0,0,0,1.121.864.864,0,0,0,1.179,0l8.206-7.807a3.5,3.5,0,0,0,.954-3.609c0-.015,0-.031,0-.047V1.674a1.763,1.763,0,0,1,3.522,0v18.2l-9.882,9.4a.777.777,0,0,0-.245.558l-.024,6.93a1.831,1.831,0,0,1-1.872,1.781H33.052a1.831,1.831,0,0,1-1.873-1.779l.056-14.61ZM5.187,11.063V5.3a1.72,1.72,0,0,1,1.76-1.675A1.721,1.721,0,0,1,8.708,5.3v5.542a4,4,0,0,0-3.521.221Z" transform="translate(167 1529.451)" fill="#6d44e5" fill-rule="evenodd"/>
    </g>
  </g>
</svg>
