<svg xmlns="http://www.w3.org/2000/svg" width="43.376" height="51" viewBox="0 0 43.376 51">
  <g id="Group_18430" data-name="Group 18430" transform="translate(-921 -1517)">
    <path id="Vector" d="M11.081,0a2.7,2.7,0,0,1,2.59,2.9,2.776,2.776,0,0,1-2.59,2.986h-4.3A1.421,1.421,0,0,0,5.422,7.354,1.421,1.421,0,0,0,6.777,8.825H37.954a5.672,5.672,0,0,1,5.422,5.883V35.3a5.672,5.672,0,0,1-5.422,5.883H5.422A5.672,5.672,0,0,1,0,35.3V5.883A5.672,5.672,0,0,1,5.422,0ZM33.326,22.924a3.122,3.122,0,0,0,0,4.16,2.563,2.563,0,0,0,3.834,0,3.122,3.122,0,0,0,0-4.16,2.563,2.563,0,0,0-3.834,0Z" transform="translate(921 1526.816)" fill="#6d44e5"/>
    <path id="Subtract" d="M942.729,1535.546h0l-10.073,0a15.235,15.235,0,0,1-.653-4.438,14.64,14.64,0,0,1,3.808-9.975,12.292,12.292,0,0,1,18.383,0,14.64,14.64,0,0,1,3.808,9.975,15.24,15.24,0,0,1-.653,4.437H945.154l-1.877-2.037h.147a4.4,4.4,0,0,0,4.2-3.721h.943a.933.933,0,0,0,0-1.86h-.943a4.852,4.852,0,0,0-.771-1.861h1.715a.934.934,0,0,0,0-1.861h-6.86a.934.934,0,0,0,0,1.861h1.714a2.6,2.6,0,0,1,2.426,1.861h-4.141a.933.933,0,0,0,0,1.86h4.14a2.6,2.6,0,0,1-2.425,1.861h-1.36a1.269,1.269,0,0,0-1.212,1.316,1.367,1.367,0,0,0,.356.931l1.521,1.651Z" fill="#85e6c4"/>
  </g>
</svg>
