<svg xmlns="http://www.w3.org/2000/svg" width="51" height="51" viewBox="0 0 51 51">
  <g id="Group_18429" data-name="Group 18429" transform="translate(-921 -1805)">
    <path id="Vector" d="M35.109,13.116a1.494,1.494,0,0,1,0,2.113L31.569,18.77A3.249,3.249,0,0,0,30.8,21.6a3.085,3.085,0,0,1-.006,1.6l-10.28-10.28-.364.364a5.744,5.744,0,0,1-7.561.239,4.49,4.49,0,0,0-5.809.454,4.476,4.476,0,0,1-6.339,0,1.48,1.48,0,0,1,0-2.113L6.527,5.777A4.482,4.482,0,0,1,9.7,4.465h5.37A2.958,2.958,0,0,0,17.158,3.6l3.16-3.16a1.494,1.494,0,0,1,2.113,0Z" transform="translate(936.453 1808.088)" fill="#85e6c4"/>
    <rect id="partnership_1_Frame_Background_" data-name="partnership 1 [Frame Background]" width="51" height="51" transform="translate(921 1805)" fill="none"/>
    <path id="Vector-2" data-name="Vector" d="M7,.657a2.241,2.241,0,0,1,0,3.17L3.826,7a2.241,2.241,0,0,1-3.17-3.17L3.826.657A2.241,2.241,0,0,1,7,.657Z" transform="translate(925.147 1831.441)" fill="#85e6c4"/>
    <path id="Vector-3" data-name="Vector" d="M7,.657a2.242,2.242,0,0,1,0,3.17L3.826,7A2.241,2.241,0,0,1,.656,3.826L3.826.657A2.241,2.241,0,0,1,7,.657Z" transform="translate(935.712 1842.007)" fill="#85e6c4"/>
    <path id="Vector-4" data-name="Vector" d="M.656,4.882a2.242,2.242,0,0,1,0-3.17L1.713.656a2.241,2.241,0,0,1,3.17,3.17L3.826,4.882a2.241,2.241,0,0,1-3.17,0Z" transform="translate(943.108 1847.29)" fill="#85e6c4"/>
    <path id="Vector-5" data-name="Vector" d="M9.109.657a2.242,2.242,0,0,1,0,3.17L3.826,9.109A2.241,2.241,0,0,1,.657,5.939L5.939.657A2.241,2.241,0,0,1,9.109.657Z" transform="translate(930.429 1834.611)" fill="#85e6c4"/>
    <path id="Vector-6" data-name="Vector" d="M13.784,9.6a4.487,4.487,0,0,0,0,6.339,7.479,7.479,0,0,0,10.565,0,1.5,1.5,0,0,1,2.113,0,7.483,7.483,0,0,0,9.4.95l9.087,9.087a2.241,2.241,0,1,1-3.17,3.169l-3.7-3.7a1.494,1.494,0,0,0-2.113,2.113l3.7,3.7a2.241,2.241,0,1,1-3.17,3.17l-3.7-3.7a1.494,1.494,0,0,0-2.113,2.113l3.7,3.7a2.241,2.241,0,1,1-3.169,3.17L29.1,37.6a5.21,5.21,0,0,0-3.759-1.523,5.135,5.135,0,0,0-3.771-5.059A5.194,5.194,0,0,0,14.556,24a5.167,5.167,0,0,0-1.3-2.248,5.236,5.236,0,0,0-7.4,0l-.528.528-.5-1.5a7.476,7.476,0,0,0-1.8-2.92l-2.59-2.63a1.494,1.494,0,0,1,0-2.113L13.116.438a1.494,1.494,0,0,1,2.113,0l3.837,3.877Z" transform="translate(921 1808.237)" fill="#6d44e5"/>
  </g>
</svg>
