<svg xmlns="http://www.w3.org/2000/svg" width="51" height="51" viewBox="0 0 51 51">
  <g id="Group_18431" data-name="Group 18431" transform="translate(-544 -1519)">
    <rect id="working-hours_1_Frame_Background_" data-name="working-hours 1 [Frame Background]" width="51" height="51" transform="translate(544 1519)" fill="none"/>
    <path id="Vector" d="M21.027,3.765a23.795,23.795,0,0,1,5.182,35.561.85.85,0,0,0,.042,1.157l.493.493-4.093.65.65-4.093.535.535a.834.834,0,0,0,.637.248.85.85,0,0,0,.615-.3A22.094,22.094,0,0,0,1.141,2.848a.876.876,0,0,1-.706-.059.821.821,0,0,1-.41-.528A.865.865,0,0,1,.587,1.234a23.862,23.862,0,0,1,20.44,2.531Z" transform="translate(561.327 1520.7)" fill="#85e6c4"/>
    <path id="Vector-2" data-name="Vector" d="M3.4,1.7A1.7,1.7,0,1,1,1.7,0,1.7,1.7,0,0,1,3.4,1.7Z" transform="translate(567.8 1542.8)" fill="#85e6c4"/>
    <path id="Vector-3" data-name="Vector" d="M10.95,37.861A23.795,23.795,0,0,1,5.768,2.3a.85.85,0,0,0-.042-1.157L5.233.65,9.326,0l-.65,4.093L8.14,3.557A.864.864,0,0,0,7.5,3.309a.85.85,0,0,0-.615.3A22.094,22.094,0,0,0,30.835,38.779a.876.876,0,0,1,.706.059.821.821,0,0,1,.41.528.865.865,0,0,1-.562,1.027,23.862,23.862,0,0,1-20.44-2.531Z" transform="translate(545.697 1526.674)" fill="#85e6c4"/>
    <path id="Vector-4" data-name="Vector" d="M6.578,7.959a1.572,1.572,0,0,0,.355-.773L7.313,4.8a20.386,20.386,0,0,1,29.3,28.016l-.042-.042a1.578,1.578,0,0,0-2.667.873l-.379,2.39A20.386,20.386,0,0,1,4.225,8.017l.042.042a1.58,1.58,0,0,0,2.312-.1ZM4.867,21.015a.85.85,0,0,0-.6-1.451h-.85a.85.85,0,0,0,0,1.7h.85A.85.85,0,0,0,4.867,21.015Zm31.1-1.2a.85.85,0,0,0,.6,1.451h.85a.85.85,0,0,0,0-1.7h-.85A.85.85,0,0,0,35.965,19.813ZM31,8.991a.85.85,0,0,0,1.44.6l.6-.6a.85.85,0,1,0-1.2-1.2l-.6.6a.85.85,0,0,0-.239.6Zm-.01,22.843a.85.85,0,0,0,.249.6l.6.6a.85.85,0,1,0,1.2-1.2l-.6-.6a.85.85,0,0,0-1.451.6Zm-9.72,4.73a.85.85,0,0,0-1.7,0v.85a.85.85,0,0,0,1.7,0Zm-1.7-32.3a.85.85,0,0,0,1.7,0v-.85a.85.85,0,0,0-1.7,0Zm-1.393,13.6a3.39,3.39,0,1,0,4.793,4.772l2.17,1.081A.85.85,0,1,0,25.9,22.2l-2.157-1.074a3.374,3.374,0,0,0-2.473-3.99V8.514a.85.85,0,0,0-1.7,0v8.621a3.39,3.39,0,0,0-1.393.733ZM7.545,8.392a.85.85,0,0,0,.249.6l.6.6a.85.85,0,1,0,1.2-1.2l-.6-.6a.85.85,0,0,0-1.451.6ZM7.6,32.11A.85.85,0,0,0,9,33.036l.6-.6a.85.85,0,0,0-1.2-1.2l-.6.6a.85.85,0,0,0-.19.276Z" transform="translate(549.084 1524.086)" fill="#6d44e5"/>
  </g>
</svg>
