<svg id="Group_18441" data-name="Group 18441" xmlns="http://www.w3.org/2000/svg" xmlns:xlink="http://www.w3.org/1999/xlink" width="108.859" height="71.433" viewBox="0 0 108.859 71.433">
  <defs>
    <linearGradient id="linear-gradient" x1="0.5" x2="1.02" y2="1.131" gradientUnits="objectBoundingBox">
      <stop offset="0" stop-color="#6d44e5"/>
      <stop offset="1" stop-color="#6cf5c2"/>
    </linearGradient>
    <clipPath id="clip-path">
      <rect id="Rectangle_10" data-name="Rectangle 10" width="108.859" height="71.433" fill="url(#linear-gradient)"/>
    </clipPath>
  </defs>
  <g id="Group_18440" data-name="Group 18440" clip-path="url(#clip-path)">
    <path id="Path_14" data-name="Path 14" d="M108.859,71.433H0V68.052H6.751V30.616h3.407V23.8H30.592v-.611c0-4.253.021-8.507-.012-12.759a5.483,5.483,0,0,1,1.468-3.789,9.938,9.938,0,0,1,3.216-2.377.665.665,0,0,0,.44-.721C35.682,2.38,35.7,1.211,35.7.007h3.4c0,1.022.045,2.062-.016,3.1a1.221,1.221,0,0,0,.8,1.366,8.625,8.625,0,0,1,3.459,2.968A5.162,5.162,0,0,1,44.2,10.2c.035,1.111.008,2.223.008,3.357H64.621c0-1.063.033-2.106-.008-3.145a5.249,5.249,0,0,1,1.441-3.745A9.908,9.908,0,0,1,69.31,4.259a.626.626,0,0,0,.424-.677C69.711,2.4,69.725,1.214,69.725,0h3.4c0,1.2.013,2.4-.008,3.6a.6.6,0,0,0,.393.641,9.582,9.582,0,0,1,3.87,3.209,5.115,5.115,0,0,1,.846,2.877c.013,4.324,0,8.648,0,12.972v.466H98.626v6.811h3.407V68.03h6.826ZM64.621,68.017v-.31q0-8.347,0-16.694a7.134,7.134,0,0,0-.111-1.254,9.28,9.28,0,0,0-2.723-5.049,14.575,14.575,0,0,0-6.068-3.526,3.271,3.271,0,0,0-2.1-.178c-3.3,1.078-6.194,2.707-8.125,5.706a6.787,6.787,0,0,0-1.264,3.56c-.047,5.812-.021,11.625-.02,17.437,0,.1.017.2.027.308Zm10.2-33.986H34.025V57.79H40.8c0-1.661-.013-3.289,0-4.917a32.725,32.725,0,0,1,.12-3.433,11.622,11.622,0,0,1,3.242-6.584,18.551,18.551,0,0,1,8.7-5.106,3.992,3.992,0,0,1,1.561-.3,17.682,17.682,0,0,1,2.6.693,16.875,16.875,0,0,1,7.823,4.945,11.763,11.763,0,0,1,3.165,7.873c.033,2.126.006,4.253.008,6.38,0,.153.015.306.023.454h6.77ZM16.133,37.373H12.7V34.035h-2.5V68h3.369v-.617c0-5.352.019-10.7-.014-16.055a5.6,5.6,0,0,1,1.579-3.968,11.533,11.533,0,0,1,4.653-2.929,1.425,1.425,0,0,1,.843-.11,12.39,12.39,0,0,1,4.109,2.205A6.021,6.021,0,0,1,27.2,51.384c-.028,5.369-.009,10.739-.008,16.108,0,.17,0,.341,0,.507h3.371V34.033H28.017v3.335h-3.41V34.023H22.084v3.357h-3.41V34.03H16.133Zm65.5,30.642v-.634c0-5.352.019-10.7-.014-16.055A5.6,5.6,0,0,1,83.2,47.358a11.513,11.513,0,0,1,4.7-2.947,1.4,1.4,0,0,1,.843-.081,12.522,12.522,0,0,1,4.017,2.157,6.038,6.038,0,0,1,2.494,4.894c-.026,5.369-.008,10.739-.008,16.108V68h3.372V34.032H96.078v3.337h-3.41V34.041H90.126v3.34H86.734V34.029H84.175v3.345h-3.41V34.034h-2.5v33.98ZM34.008,23.763H74.8V17.016H34.008ZM23.786,68.008V67.68c0-5.476.009-10.953-.019-16.429a2.373,2.373,0,0,0-.427-1.257,6.228,6.228,0,0,0-2.773-2.017.615.615,0,0,0-.5.017,27.589,27.589,0,0,0-2.3,1.59,2.263,2.263,0,0,0-.8,1.883c.022,5.21.012,10.421.013,15.632v.912Zm68.043.008c.007-.115.015-.183.015-.252,0-5.512.007-11.024-.014-16.536a2.163,2.163,0,0,0-.347-1.126,6.289,6.289,0,0,0-2.875-2.137.561.561,0,0,0-.459,0c-.83.562-1.675,1.111-2.448,1.745a2.087,2.087,0,0,0-.671,1.718c.017,5.37.009,10.74.011,16.11,0,.153.014.307.023.472ZM30.577,27.225H13.607v3.343h16.97Zm64.656,0H78.265v3.34H95.233ZM40.788,61.256H34.026V68h6.762ZM68.055,68H74.8V61.237H68.055Zm-.023-54.448h6.8c0-1.038.053-2.049-.023-3.05a2.928,2.928,0,0,0-.5-1.441,5.981,5.981,0,0,0-2.668-1.906.626.626,0,0,0-.456-.036,6.685,6.685,0,0,0-2.925,2.334,1.262,1.262,0,0,0-.214.572c-.02,1.165-.01,2.331-.01,3.527M40.8,13.568c0-1.06.049-2.071-.021-3.073a2.834,2.834,0,0,0-.473-1.4,6.025,6.025,0,0,0-2.7-1.944.636.636,0,0,0-.5-.011c-.815.54-1.637,1.078-2.4,1.691a1.739,1.739,0,0,0-.667,1.041C33.953,11.1,34,12.334,34,13.568Zm-.027,13.653H34.021v3.36h6.752Zm34.036,0H68.048v3.355h6.761Zm-28.085.009h-2.49v3.358h2.49Zm5.954,0H50.19v3.357h2.489Zm5.975,0H56.144v3.341h2.509Zm5.944-.008H62.092v3.358H64.6Z" fill="url(#linear-gradient)"/>
    <path id="Path_15" data-name="Path 15" d="M383.19,353.127a1.676,1.676,0,0,1,1.629-1.7,1.616,1.616,0,0,1,1.758,1.722,1.639,1.639,0,0,1-1.756,1.678,1.709,1.709,0,0,1-1.631-1.7" transform="translate(-342.391 -314.019)" fill="url(#linear-gradient)"/>
    <path id="Path_16" data-name="Path 16" d="M607.076,353.141a1.662,1.662,0,0,1,1.631-1.693,1.606,1.606,0,0,1,1.755,1.672,1.639,1.639,0,0,1-1.707,1.725,1.7,1.7,0,0,1-1.679-1.7" transform="translate(-542.455 -314.037)" fill="url(#linear-gradient)"/>
    <path id="Path_17" data-name="Path 17" d="M127.546,385.076a1.664,1.664,0,0,1,1.656-1.669,1.611,1.611,0,0,1,1.731,1.7,1.653,1.653,0,0,1-1.786,1.7,1.716,1.716,0,0,1-1.6-1.729" transform="translate(-113.969 -342.593)" fill="url(#linear-gradient)"/>
    <path id="Path_18" data-name="Path 18" d="M225.06,386.8a1.7,1.7,0,0,1-1.609-1.718,1.665,1.665,0,0,1,1.648-1.677,1.611,1.611,0,0,1,1.738,1.688,1.642,1.642,0,0,1-1.778,1.708" transform="translate(-199.666 -342.594)" fill="url(#linear-gradient)"/>
    <path id="Path_19" data-name="Path 19" d="M766.823,385.083a1.684,1.684,0,0,1,1.667-1.715,1.619,1.619,0,0,1,1.719,1.71,1.644,1.644,0,0,1-1.743,1.692,1.7,1.7,0,0,1-1.643-1.687" transform="translate(-685.187 -342.558)" fill="url(#linear-gradient)"/>
    <path id="Path_20" data-name="Path 20" d="M862.828,385.09a1.665,1.665,0,0,1,1.645-1.68,1.61,1.61,0,0,1,1.741,1.684,1.651,1.651,0,0,1-1.774,1.714,1.713,1.713,0,0,1-1.612-1.718" transform="translate(-770.983 -342.596)" fill="url(#linear-gradient)"/>
  </g>
</svg>
