<svg xmlns="http://www.w3.org/2000/svg" xmlns:xlink="http://www.w3.org/1999/xlink" width="124.465" height="69.686" viewBox="0 0 124.465 69.686">
  <defs>
    <linearGradient id="linear-gradient" x1="0.5" x2="0.952" y2="1.209" gradientUnits="objectBoundingBox">
      <stop offset="0" stop-color="#6d44e5"/>
      <stop offset="1" stop-color="#6cf5c2"/>
    </linearGradient>
    <clipPath id="clip-path">
      <rect id="Rectangle_9" data-name="Rectangle 9" width="124.465" height="69.686" fill="url(#linear-gradient)"/>
    </clipPath>
  </defs>
  <g id="Group_18438" data-name="Group 18438" clip-path="url(#clip-path)">
    <path id="Path_8" data-name="Path 8" d="M112.7,58.65h-3.846v-16.4h7.759V39.108H108.84V26.624H116.6V23.437H108.81V23.07c0-.688-.009-1.384-.017-2.056-.02-1.574-.04-3.2.052-4.795a2.1,2.1,0,0,0-1.5-2.31c-.221-.1-.443-.184-.66-.262a32.77,32.77,0,0,0-7.9-1.565c-2.021-.207-3.7-.315-5.283-.338-1.842-.027-3.721.026-5.537.077l-1.206.033c-.428.011-.852.062-1.3.117-.2.024-.395.048-.592.068l-2.072.214-1.342.139V7.04h3.834V3.853H77.463V0H46.923V3.9H39.132V7.085h3.852v5.288l-1.033-.078L40.7,12.2c-.642-.048-1.284-.1-1.926-.155-1.479-.123-3.008-.249-4.51-.309-1.2-.047-2.433.01-3.625.066-.3.014-.6.028-.9.041l-.585.023c-1.148.045-2.335.092-3.484.229a52.506,52.506,0,0,0-5.551.872,20.9,20.9,0,0,0-3.506,1.276l-.316.137a1.222,1.222,0,0,0-.695,1.3c.033,1.568.027,3.161.021,4.7q0,.925,0,1.849v1.25H7.83v3.187h7.744V39.15H7.815v3.143h7.774v16.4h-3.9v7.835H0v3.163H124.465V66.507H112.7Zm-7.084-.006H77.538V54.067h28.078Zm-28.069-7.8V26.186l.29-.063a64.919,64.919,0,0,1,27.457.018l.291.062V50.846Zm5.9-35.457a49.733,49.733,0,0,1,9.264-.485c1.97.054,3.775.176,5.52.372,1.662.187,3.336.435,4.956.675.7.1,1.4.207,2.1.306l.316.045v6.725l-.443-.093a65.023,65.023,0,0,0-27.171-.045l-.4.087-.038-.412c0-.043-.009-.084-.014-.125a2.652,2.652,0,0,1-.024-.31q0-.8,0-1.6c0-1.1,0-2.234-.008-3.349a.818.818,0,0,1,.746-.937c.89-.14,1.8-.291,2.67-.438.83-.139,1.688-.282,2.534-.416M46.207,7.105H78.236V8.471c0,.813,0,1.631,0,2.449,0,.16.016.333.032.517a2.33,2.33,0,0,1-.151,1.406,1.807,1.807,0,0,1-1.17.644,4.751,4.751,0,0,0-.482.15c-.276.11-.546.227-.774.327a1.888,1.888,0,0,0-1.392,2.16,14.372,14.372,0,0,1,.042,2.083c-.009.31-.018.63-.018.949v.367H50.105v-.367c0-.342-.005-.683-.01-1.024-.012-.787-.024-1.6.029-2.4a1.37,1.37,0,0,0-.856-1.464c-.629-.31-1.27-.576-1.95-.858-.294-.122-.59-.245-.888-.373l-.223-.1ZM69.656,38.7a12.108,12.108,0,0,0-3.8-9.3A7.293,7.293,0,0,0,62.29,27.45a.726.726,0,0,0-.324.023A9.355,9.355,0,0,0,56.3,32.33a12.749,12.749,0,0,0-1.555,6.223c.012,4.46.01,8.994.007,13.379q0,2.664,0,5.328V58.64H50.122V22.76H74.284V58.639h-4.61V57.582q0-2.793.009-5.586c.01-4.36.021-8.868-.027-13.3M66.5,55.962q0,1.152,0,2.312v.367H58.01l-.04-.322c0-.02-.006-.041-.009-.064a1.537,1.537,0,0,1-.025-.25q0-2.754-.006-5.508c-.006-4.728-.013-9.618.017-14.427.018-2.877,1.34-5.2,4.041-7.112l.207-.146.21.141c2.527,1.7,3.852,3.849,3.938,6.393.114,3.369.125,6.795.135,10.108q.006,1.724.015,3.448c.011,1.683.008,3.4.006,5.059M18.813,17.04a.926.926,0,0,1,.669-.773c1.792-.319,3.592-.611,5.27-.878a50.628,50.628,0,0,1,9.449-.483c1.759.045,3.535.169,5.278.367,1.665.19,3.35.435,4.979.672q1.064.155,2.129.306l.316.044v6.735l-.443-.093A64.945,64.945,0,0,0,19.241,22.9l-.445.1V21.426c0-1.437,0-2.922.017-4.386m.018,33.795V26.186l.29-.062a65.13,65.13,0,0,1,27.489.021l.291.062V50.834Zm28.06,7.81H18.812V54.066H46.89Zm62.617,7.825H14.9V61.895h94.608Z" fill="url(#linear-gradient)"/>
    <rect id="Rectangle_3" data-name="Rectangle 3" width="3.11" height="7.042" transform="translate(82.184 31.319)" fill="url(#linear-gradient)"/>
    <rect id="Rectangle_4" data-name="Rectangle 4" width="3.109" height="7.042" transform="translate(90.012 31.32)" fill="url(#linear-gradient)"/>
    <rect id="Rectangle_5" data-name="Rectangle 5" width="3.108" height="7.042" transform="translate(97.839 31.319)" fill="url(#linear-gradient)"/>
    <rect id="Rectangle_6" data-name="Rectangle 6" width="3.13" height="7.02" transform="translate(23.48 31.32)" fill="url(#linear-gradient)"/>
    <rect id="Rectangle_7" data-name="Rectangle 7" width="3.108" height="7.042" transform="translate(31.307 31.32)" fill="url(#linear-gradient)"/>
    <rect id="Rectangle_8" data-name="Rectangle 8" width="3.107" height="7.041" transform="translate(39.135 31.299)" fill="url(#linear-gradient)"/>
    <path id="Path_9" data-name="Path 9" d="M432.7,207.6h-.052a1.542,1.542,0,0,0-1.077.534,1.327,1.327,0,0,0-.394,1.034l0,.05a1.6,1.6,0,0,0,1.538,1.56,1.65,1.65,0,0,0,1.207-.463,1.523,1.523,0,0,0,.415-1.122c-.012-1-.565-1.534-1.642-1.592" transform="translate(-378.382 -182.185)" fill="url(#linear-gradient)"/>
    <path id="Path_10" data-name="Path 10" d="M560.547,207.641h-.036a1.511,1.511,0,0,0-1.1.551,1.277,1.277,0,0,0-.368.972l0,.06a1.589,1.589,0,0,0,1.508,1.593,1.717,1.717,0,0,0,1.238-.473,1.51,1.51,0,0,0,.413-1.137,1.492,1.492,0,0,0-1.665-1.566" transform="translate(-490.6 -182.22)" fill="url(#linear-gradient)"/>
    <path id="Path_11" data-name="Path 11" d="M495.229,84.859H498.4q0-.143,0-.285c0-.478.006-.929-.007-1.384-.006-.2-.008-.394-.011-.592a11.019,11.019,0,0,0-.123-1.825,1.457,1.457,0,0,0-1.678-1,1.574,1.574,0,0,0-1.35,1.277c-.018.969-.014,1.919-.01,2.924q0,.442,0,.887" transform="translate(-434.597 -70)" fill="url(#linear-gradient)"/>
    <path id="Path_12" data-name="Path 12" d="M559.08,84.825h3.171c0-.289.005-.576.009-.861.011-.918.022-1.785-.025-2.657-.055-1.02-.509-1.482-1.566-1.6a1.625,1.625,0,0,0-1.137.413,1.087,1.087,0,0,0-.427.711c-.058,1.012-.045,2.052-.033,3.058,0,.311.007.621.009.932" transform="translate(-490.62 -69.948)" fill="url(#linear-gradient)"/>
    <path id="Path_13" data-name="Path 13" d="M431.341,84.712h3.171q0-.416.005-.825c.007-.913.013-1.776-.017-2.647a1.515,1.515,0,0,0-1.38-1.63,1.587,1.587,0,0,0-1.671.95c-.017.033-.037.067-.057.1s-.035.06-.045.08c-.007,1.16-.007,2.338-.006,3.478Z" transform="translate(-378.536 -69.839)" fill="url(#linear-gradient)"/>
  </g>
</svg>
