<svg xmlns="http://www.w3.org/2000/svg" xmlns:xlink="http://www.w3.org/1999/xlink" width="251.439" height="45.993" viewBox="0 0 251.439 45.993">
  <defs>
    <linearGradient id="linear-gradient" x1="0.976" y1="0.557" x2="0.043" y2="0.446" gradientUnits="objectBoundingBox">
      <stop offset="0" stop-color="#6d44e5"/>
      <stop offset="0.488" stop-color="#74d3b2"/>
      <stop offset="1" stop-color="#527ce3"/>
    </linearGradient>
    <linearGradient id="linear-gradient-2" x1="-0.05" y1="0.464" x2="0.832" y2="0.589" gradientUnits="objectBoundingBox">
      <stop offset="0" stop-color="#83e4c2"/>
      <stop offset="1" stop-color="#6d44e5"/>
    </linearGradient>
    <clipPath id="clip-path">
      <path id="Path_23424" data-name="Path 23424" d="M39.237,11.024l-5.366,6.791-5.366-6.791H22.218l8.3,10.354L21.925,32.193H28.59l5.282-7.378,5.282,7.378h6.664L37.226,21.378l8.3-10.354Zm67.369,0v4.527H110V32.193h5.324V11.024Zm67.724.839a11.765,11.765,0,0,0-2.578,3.143V11.024h-5.324V32.193h5.324V20.371a11.72,11.72,0,0,1,2.138-2.955,4.188,4.188,0,0,1,3.06-1.193,5.652,5.652,0,0,1,2.809.754V10.982a5.37,5.37,0,0,0-2.055-.377,5.082,5.082,0,0,0-3.373,1.258M55.566,26.848A11.414,11.414,0,0,1,53.114,24.9v-3.06a6.059,6.059,0,0,1,.733-3.228,5.6,5.6,0,0,1,2.033-2.075,5.248,5.248,0,0,1,2.684-.733A4.873,4.873,0,0,1,62.4,17.437a5.856,5.856,0,0,1,1.446,4.025,6.871,6.871,0,0,1-.671,3,5.921,5.921,0,0,1-1.887,2.284,4.729,4.729,0,0,1-2.85.88,5.558,5.558,0,0,1-2.871-.775m.23-15.175a8.187,8.187,0,0,0-2.682,2.913V11.024H47.791V42.253h5.324V29.8a9.54,9.54,0,0,0,2.913,2.158,7.834,7.834,0,0,0,3.5.86,9.386,9.386,0,0,0,4.967-1.363,9.61,9.61,0,0,0,3.563-3.919,13.091,13.091,0,0,0,1.32-6.078,12.46,12.46,0,0,0-1.32-5.974,9.4,9.4,0,0,0-3.479-3.731A9.028,9.028,0,0,0,59.9,10.479,7.143,7.143,0,0,0,55.8,11.674M88.349,25.822A6.014,6.014,0,0,1,86.9,21.755a6.732,6.732,0,0,1,.671-2.976,5.863,5.863,0,0,1,1.865-2.243,4.79,4.79,0,0,1,2.871-.858,5.943,5.943,0,0,1,2.871.713,9.527,9.527,0,0,1,2.452,1.928v3.018a6.562,6.562,0,0,1-.775,3.291,5.776,5.776,0,0,1-2.013,2.116,5.022,5.022,0,0,1-2.662.755,4.815,4.815,0,0,1-3.835-1.677m-2.095-13.98a9.678,9.678,0,0,0-3.564,3.877,12.838,12.838,0,0,0-1.32,6.036,12.752,12.752,0,0,0,1.3,5.994,9.336,9.336,0,0,0,3.458,3.773,8.979,8.979,0,0,0,4.716,1.3,6.972,6.972,0,0,0,4.109-1.237,8.527,8.527,0,0,0,2.682-2.955v3.564h5.324V11.024H97.634v2.39a8.959,8.959,0,0,0-6.413-2.935,9.377,9.377,0,0,0-4.966,1.362m42-.23a10.8,10.8,0,0,0-2.619,2.431V11.024h-5.324V32.193h5.324V18.779a9.478,9.478,0,0,1,2.116-2.18,4.37,4.37,0,0,1,2.662-.922,3.784,3.784,0,0,1,2.829,1.048,4.388,4.388,0,0,1,1.027,3.185l.042,12.283h5.324V19.2q0-4.36-2.181-6.539a7.347,7.347,0,0,0-5.408-2.18,6.565,6.565,0,0,0-3.793,1.132m21.611,4.738a4.743,4.743,0,0,1,3.311-1.217,5.469,5.469,0,0,1,3.312,1.111,4.345,4.345,0,0,1,1.677,3.374H148.025a6.286,6.286,0,0,1,1.845-3.269m-2.1-4.3a11.17,11.17,0,0,0-3.815,4.129,11.7,11.7,0,0,0-1.383,5.659,10.527,10.527,0,0,0,1.53,5.659,10.988,10.988,0,0,0,4.108,3.9,11.629,11.629,0,0,0,5.721,1.426,10.5,10.5,0,0,0,4.381-.9,12.385,12.385,0,0,0,3-1.78l.042-4.947a14.37,14.37,0,0,1-3.019,1.887,9.4,9.4,0,0,1-4.191.923,6.5,6.5,0,0,1-4.109-1.3,5.553,5.553,0,0,1-2.1-3.438h15.342V21a11.988,11.988,0,0,0-1.194-5.471,8.914,8.914,0,0,0-3.437-3.709,10.228,10.228,0,0,0-5.345-1.342,9.967,9.967,0,0,0-5.534,1.572m36.975-.713a6.972,6.972,0,0,0-2.871,2.348,6.006,6.006,0,0,0-1.027,3.5,6.407,6.407,0,0,0,.922,3.479,5.949,5.949,0,0,0,3.354,2.264l2.6.922a9.682,9.682,0,0,1,2.1.922,1.43,1.43,0,0,1,.713,1.259,1.819,1.819,0,0,1-.858,1.612,4.455,4.455,0,0,1-2.453.566A8.962,8.962,0,0,1,185,27.9a15.12,15.12,0,0,1-2.348-.818,12.218,12.218,0,0,1-1.928-1.047v4.653a10.763,10.763,0,0,0,3.06,1.467,13.044,13.044,0,0,0,4.15.671,9.556,9.556,0,0,0,4.13-.881,7.611,7.611,0,0,0,2.977-2.41,5.806,5.806,0,0,0,1.11-3.5q0-4.152-4.821-5.575l-2.39-.8a4.205,4.205,0,0,1-1.928-.984,1.827,1.827,0,0,1-.5-1.237,1.965,1.965,0,0,1,.88-1.593,3.858,3.858,0,0,1,2.39-.671,7.453,7.453,0,0,1,3,.629,15.88,15.88,0,0,1,2.451,1.3V12.408a8.624,8.624,0,0,0-2.6-1.342,10.964,10.964,0,0,0-3.647-.587,9.928,9.928,0,0,0-4.233.859M0,4.108V32.193H19.869V27.038H5.826V20.246H18.234V15.509H5.826V9.138H19.869V4.108ZM72.733,32.193h5.324V2.012H72.733ZM112.223,0a3.513,3.513,0,0,0-2.577,1.068A3.465,3.465,0,0,0,108.577,3.6a3.483,3.483,0,0,0,1.068,2.515,3.474,3.474,0,0,0,2.577,1.091,3.547,3.547,0,0,0,2.6-1.091,3.471,3.471,0,0,0,0-5.051A3.587,3.587,0,0,0,112.223,0Z" transform="translate(0 0)" fill="url(#linear-gradient)"/>
    </clipPath>
    <clipPath id="clip-path-2">
      <path id="Path_23435" data-name="Path 23435" d="M31.98,4.068A1.614,1.614,0,1,0,32,7.3h0a1.618,1.618,0,0,0,1.6-1.611l0-.007a1.614,1.614,0,0,0-1.612-1.61Zm4.7,0A1.614,1.614,0,0,0,36.7,7.3h.016a1.614,1.614,0,0,0-.028-3.228Zm-10.538.457a1.6,1.6,0,0,0-.487,1.135,1.613,1.613,0,0,0,3.226.043v0A1.614,1.614,0,0,0,27.29,4.066h-.068a1.58,1.58,0,0,0-1.078.461m-21.2.487A1.609,1.609,0,0,0,6.483,7.295q1.925.005,3.847,0h3.936l0,0h5.815c.038,0,.076,0,.113,0a1.617,1.617,0,0,0,.111-3.23,1.537,1.537,0,0,0-.2,0c-.324,0-.648,0-.973,0L6.6,4.072q-.083-.008-.165-.008a1.655,1.655,0,0,0-1.491.949m8.943,25.937a1.816,1.816,0,0,1-.939-2.392,1.831,1.831,0,0,1,1.843-1.1l7.773,0v0h2.619q2.62,0,5.241,0a1.928,1.928,0,0,1,.222,0,1.821,1.821,0,1,1-.281,3.631h-6.54q-4.547.007-9.1,0c-.042,0-.086.006-.13.006a1.817,1.817,0,0,1-.71-.152m17.394-8.63a1.824,1.824,0,0,1-.78,3.473c-.05,0-.1,0-.148-.007l-8.348,0q-3.663.005-7.33,0a1.8,1.8,0,0,1-1.82-1.365,1.741,1.741,0,0,1,.818-1.987,2.544,2.544,0,0,1,1.125-.271c2-.011,4.006-.009,6.013-.009h1.8v0h2.6q2.609,0,5.215,0a1.809,1.809,0,0,1,.849.166M19.662,20.484a1.834,1.834,0,0,1-1.551-2.071,1.831,1.831,0,0,1,2.071-1.551c3.359-.009,6.786-.009,10.216-.005a2.094,2.094,0,0,1,.224,0,1.82,1.82,0,1,1-.222,3.632l-10.3,0a1.116,1.116,0,0,1-.179.013,2.011,2.011,0,0,1-.262-.019M.874,27.935V1.428A1.1,1.1,0,0,1,2.019.888C14.4.9,30.814.906,43.195.9c.837,0,1.053.217,1.053,1.058v25.57c0,.072,0,.144,0,.228a.682.682,0,0,1-.534.67c-.293.021-2.576.03-3.424.029V14.967a4.412,4.412,0,0,0,0-.533A4.489,4.489,0,0,0,35.6,10.224H9.552c-.161-.008-.322-.008-.482,0A4.471,4.471,0,0,0,4.834,14.9V28.458l-2.486,0c-.146.007-.28.011-.4.011-.534,0-.847-.089-1.073-.536M.04,1.142,0,1.229v26.9l.038.086a1.844,1.844,0,0,0,1.916,1.133c.124,0,2.173,0,2.88-.009v3.7c-.007.139-.007.278,0,.42a4.472,4.472,0,0,0,4.648,4.27H35.524c.1.006.194.009.291.009h.011c.088,0,.176,0,.264-.009a4.479,4.479,0,0,0,4.2-4.715V29.323c1.135.008,3.1,0,3.526-.032a1.555,1.555,0,0,0,1.3-1.519c0-.03,0-.06,0-.089V27.6c0-.028,0-.056,0-.083V1.956A1.681,1.681,0,0,0,43.195.025C30.811.034,14.4.029,2.078.018A1.989,1.989,0,0,0,1.812,0,1.941,1.941,0,0,0,.04,1.142" transform="translate(0 -0.001)" fill="url(#linear-gradient-2)"/>
    </clipPath>
  </defs>
  <g id="Group_19140" data-name="Group 19140" transform="translate(-554.515 -88)">
    <g id="Group_19138" data-name="Group 19138" transform="translate(0 10.122)">
      <g id="Group_19131" data-name="Group 19131" transform="translate(73.24 18.618)">
        <g id="Group_19088" data-name="Group 19088" transform="translate(536.565 63)">
          <g id="Group_19087" data-name="Group 19087" transform="translate(0 0)" clip-path="url(#clip-path)">
            <path id="Path_23425" data-name="Path 23425" d="M0,0H197.289V47.907H0Z" transform="translate(-1.221 0.036) rotate(-1.657)" fill="url(#linear-gradient)"/>
          </g>
        </g>
      </g>
      <g id="Group_19133" data-name="Group 19133" transform="translate(554.515 77.877)">
        <g id="Group_19137" data-name="Group 19137" transform="translate(0 0.001)" clip-path="url(#clip-path-2)">
          <rect id="Rectangle_6672" data-name="Rectangle 6672" width="58.195" height="58.826" transform="matrix(0.663, -0.749, 0.749, 0.663, -18.749, 21.179)" fill="url(#linear-gradient-2)"/>
        </g>
      </g>
    </g>
  </g>
</svg>
