<svg xmlns="http://www.w3.org/2000/svg" width="197.457" height="28.736" viewBox="0 0 197.457 28.736">
  <g id="Group_19039" data-name="Group 19039" transform="translate(-84.185 -3951.379)">
    <path id="Path_1111" data-name="Path 1111" d="M0,27.581V1.553A1.559,1.559,0,0,1,1.553,0H19.309l-.021,4.691H6v6.694H17.54v4.6H5.956v6.841l13.538.021v4.732Z" transform="translate(126.878 3952.141)" fill="#091b49"/>
    <path id="Path_1112" data-name="Path 1112" d="M6.645,20.495a7.208,7.208,0,0,1-4.732-1.564,5.455,5.455,0,0,1-1.9-4.465,5.632,5.632,0,0,1,2.4-4.917C4.022,8.417,6.563,7.83,10.05,7.789L12.5,7.747V6.565a2.653,2.653,0,0,0-.8-2.078,3.345,3.345,0,0,0-2.439-.725,5.278,5.278,0,0,0-2.325.576A2.966,2.966,0,0,0,5.452,6.263H.843A5.53,5.53,0,0,1,3.415,1.531,11.226,11.226,0,0,1,9.516.009q4.521,0,6.409,1.677a5.746,5.746,0,0,1,1.9,4.554V20.109H12.74V16.714a6.155,6.155,0,0,1-2.531,2.953,7.336,7.336,0,0,1-3.565.828Zm1.863-3.662a4.279,4.279,0,0,0,3.405-1.677,2.609,2.609,0,0,0,.587-1.625V10.609l-2,.041a10.743,10.743,0,0,0-2.582.329,4.253,4.253,0,0,0-1.945,1.029,2.544,2.544,0,0,0-.725,1.9,2.627,2.627,0,0,0,.932,2.15,3.551,3.551,0,0,0,2.323.771Z" transform="translate(147.742 3959.606)" fill="#091b49"/>
    <path id="Path_1113" data-name="Path 1113" d="M8.846,20.513a11.86,11.86,0,0,1-3.961-.669A7.949,7.949,0,0,1,1.677,17.7,7.023,7.023,0,0,1,0,13.908H4.815A3,3,0,0,0,6.41,16.1a5.966,5.966,0,0,0,4.968.092,1.662,1.662,0,0,0,.987-1.564,1.558,1.558,0,0,0-.587-1.275,4.244,4.244,0,0,0-1.9-.725L6.418,11.9a9.626,9.626,0,0,1-4.207-1.872A4.733,4.733,0,0,1,.616,6.255,5.541,5.541,0,0,1,2.7,1.811,9.346,9.346,0,0,1,8.867.021a9.49,9.49,0,0,1,5.8,1.625,5.332,5.332,0,0,1,2.222,4.5h-4.64a2.606,2.606,0,0,0-1.138-1.76,3.953,3.953,0,0,0-2.3-.627,4.9,4.9,0,0,0-2.381.518A1.684,1.684,0,0,0,5.5,5.837a1.381,1.381,0,0,0,.762,1.235,8.384,8.384,0,0,0,2.356.762l3.2.725a7.629,7.629,0,0,1,3.333,1.564A5.351,5.351,0,0,1,16.71,12.3a5.9,5.9,0,0,1,.422,2.016,5.279,5.279,0,0,1-2.3,4.578,10.11,10.11,0,0,1-5.982,1.623Z" transform="translate(167.216 3959.589)" fill="#091b49"/>
    <path id="Path_1114" data-name="Path 1114" d="M5.507,11.5a5.431,5.431,0,0,0,1.081,3.6,3.807,3.807,0,0,0,3.1,1.337,4.985,4.985,0,0,0,2.489-.607,3.25,3.25,0,0,0,1.5-2.006h5A6.738,6.738,0,0,1,17,17.414a8.814,8.814,0,0,1-3.23,2.277,10.21,10.21,0,0,1-3.951.781,10.438,10.438,0,0,1-5.134-1.224,8.717,8.717,0,0,1-3.447-3.487A10.868,10.868,0,0,1,0,10.463,12.186,12.186,0,0,1,1.124,5.144,8.894,8.894,0,0,1,4.375,1.389,10.422,10.422,0,0,1,14.57,1.276,7.8,7.8,0,0,1,17.646,4.8a12.213,12.213,0,0,1,1.05,5.205V11.5ZM5.487,8.186h8.024a4.816,4.816,0,0,0-.987-3.055A3.549,3.549,0,0,0,9.541,3.875a3.752,3.752,0,0,0-2.2.627A4.12,4.12,0,0,0,5.971,6.127,4.451,4.451,0,0,0,5.49,8.186Z" transform="translate(185.769 3959.632)" fill="#091b49"/>
    <path id="Path_1115" data-name="Path 1115" d="M10.942,28.723a7.015,7.015,0,0,1-3.209-.648,5.85,5.85,0,0,1-2-1.677,7.686,7.686,0,0,1-1.08-2.1v4.043H0V0H4.486A1.091,1.091,0,0,1,5.577,1.091V11.3a5.806,5.806,0,0,1,2.243-2.15,7.245,7.245,0,0,1,3.672-.9,6.9,6.9,0,0,1,5.74,2.654c1.4,1.77,2.089,4.259,2.089,7.479a12.245,12.245,0,0,1-2.129,7.531,7.387,7.387,0,0,1-6.249,2.808ZM9.728,24.711a3.644,3.644,0,0,0,2.963-1.471q1.2-1.481,1.2-4.959a7.358,7.358,0,0,0-1.138-4.536,3.659,3.659,0,0,0-3.066-1.471q-4.089,0-4.126,6c0,2.325.34,3.982,1.029,4.959a3.542,3.542,0,0,0,3.131,1.475Z" transform="translate(206.394 3951.379)" fill="#091b49"/>
    <path id="Path_1116" data-name="Path 1116" d="M7.492,20.1a8.914,8.914,0,0,1-3.539-.741,7.142,7.142,0,0,1-2.829-2.174A5.609,5.609,0,0,1,0,13.641V0H5.558V12.931a3.023,3.023,0,0,0,.9,2.253,3.591,3.591,0,0,0,2.624.875,3.8,3.8,0,0,0,2.588-.844,3.02,3.02,0,0,0,.967-2.387V0h5.494V19.721H13.289V15.812a5,5,0,0,1-1.3,2.674,4.915,4.915,0,0,1-2.15,1.255,8.244,8.244,0,0,1-2.352.36Z" transform="translate(227.383 3960)" fill="#091b49"/>
    <path id="Path_1117" data-name="Path 1117" d="M0,19.721V17.139a1.536,1.536,0,0,1,.319-.932L9.7,3.9H.49V0H16.429V3.105L6.707,15.82H16.48v3.889H0Z" transform="translate(247.334 3960)" fill="#091b49"/>
    <path id="Path_1118" data-name="Path 1118" d="M0,19.721V17.139a1.537,1.537,0,0,1,.319-.932L9.7,3.9H.49V0H16.429V3.105L6.707,15.82h9.774v3.889H0Z" transform="translate(265.162 3960)" fill="#091b49"/>
    <path id="Path_1119" data-name="Path 1119" d="M3.5,0h23.24L24.124,4.753A3.105,3.105,0,0,1,21.4,6.368H0Z" transform="translate(84.185 3963.632)" fill="#85e6c4"/>
    <path id="Path_1120" data-name="Path 1120" d="M3.5,0H26.736L24.123,4.753A3.105,3.105,0,0,1,21.4,6.367H0Z" transform="translate(93.66 3973.096)" fill="#6d44e5"/>
    <path id="Path_1121" data-name="Path 1121" d="M3.5,0H26.736L24.123,4.753A3.1,3.1,0,0,1,21.4,6.367H0Z" transform="translate(93.66 3954.156)" fill="#517ce3"/>
  </g>
</svg>
